<?xml version="1.0" encoding="utf-8"?>
<!-- Generator: Adobe Illustrator 25.2.1, SVG Export Plug-In . SVG Version: 6.00 Build 0)  -->
<svg version="1.1" id="Layer_1" xmlns="http://www.w3.org/2000/svg" xmlns:xlink="http://www.w3.org/1999/xlink" x="0px" y="0px"
	 viewBox="0 0 500 200" style="enable-background:new 0 0 500 200;" xml:space="preserve">
<style type="text/css">
	.st0{fill:#EAEAEA;}
	.st1{fill:#FFFFFF;}
	.st2{fill:#F6F6F6;}
	.st3{display:none;fill:#F6F6F6;}
	.st4{fill:#555454;}
	.st5{font-family:'ArialMT';}
	.st6{font-size:12px;}
	.st7{fill:#E5E4E4;}
	.st8{font-size:8px;}
	.st9{fill:#CECDCD;}
	.st10{fill:#EB5953;}
	.st11{fill:#55B03F;}
	.st12{fill:#F8C524;}
	.st13{fill:#7EC395;}
	.st14{fill:#7CC295;}
	.st15{fill:#020203;}
	.st16{font-size:10px;}
</style>
<path class="st0" d="M494.16,200H5.84C2.61,200,0,197.39,0,194.16V5.84C0,2.61,2.61,0,5.84,0h488.32c3.22,0,5.84,2.61,5.84,5.84
	v188.32C500,197.39,497.39,200,494.16,200z"/>
<rect x="9" y="27" class="st1" width="483" height="173"/>
<rect x="8.92" y="27" class="st2" width="483" height="26"/>
<path class="st3" d="M488,196.19H10.14c-3.22,0-5.84-2.61-5.84-5.84v-28.69c0-3.22,2.61-5.84,5.84-5.84H488
	c3.22,0,5.84,2.61,5.84,5.84v28.69C493.83,193.58,491.22,196.19,488,196.19z"/>
<path class="st3" d="M488,147.45H10.14c-3.22,0-5.84-2.61-5.84-5.84v-28.69c0-3.22,2.61-5.84,5.84-5.84H488
	c3.22,0,5.84,2.61,5.84,5.84v28.69C493.83,144.84,491.22,147.45,488,147.45z"/>
<path class="st3" d="M488.93,99.71H11.07c-3.22,0-5.84-2.61-5.84-5.84V65.18c0-3.22,2.61-5.84,5.84-5.84h477.85
	c3.22,0,5.84,2.61,5.84,5.84v28.69C494.76,97.09,492.15,99.71,488.93,99.71z"/>
<text transform="matrix(1 0 0 1 68.5852 78.1601)" class="st4 st5 st6">Name</text>
<text transform="matrix(1 0 0 1 150.1454 78.16)" class="st4 st5 st6">Email</text>
<text transform="matrix(1 0 0 1 229.4971 79.2595)" class="st4 st5 st6">Active</text>
<text transform="matrix(1 0 0 1 276.8412 79.3697)" class="st4 st5 st6">Data</text>
<text transform="matrix(1 0 0 1 358.4784 78.9441)" class="st4 st5 st6">Maps</text>
<text transform="matrix(1 0 0 1 439.2944 78.9444)" class="st4 st5 st6">Types</text>
<path class="st7" d="M130.01,110H70.95c-2.2,0-3.99-1.78-3.99-3.99V95.86c0-2.2,1.78-3.99,3.99-3.99h59.07
	c2.2,0,3.99,1.78,3.99,3.99v10.15C134,108.22,132.22,110,130.01,110z"/>
<path class="st7" d="M444.29,100.65h-2.96c-1.49,0-2.71-1.21-2.71-2.71v-2.96c0-1.49,1.21-2.71,2.71-2.71h2.96
	c1.49,0,2.71,1.21,2.71,2.71v2.96C447,99.44,445.79,100.65,444.29,100.65z"/>
<text transform="matrix(1 0 0 1 450.5969 99.944)" class="st4 st5 st8">Sport</text>
<text transform="matrix(1 0 0 1 450.4572 110.9443)" class="st4 st5 st8">Auto</text>
<text transform="matrix(1 0 0 1 242.4995 98.2602)" class="st4 st5 st8">Yes</text>
<text transform="matrix(1 0 0 1 242.8066 109.2598)" class="st4 st5 st8">No</text>
<rect x="0" class="st9" width="500" height="18"/>
<text transform="matrix(1 0 0 1 238.4196 44.5363)" class="st4 st5 st6">New</text>
<circle class="st10" cx="12.77" cy="8.77" r="3.77"/>
<circle class="st11" cx="36.23" cy="8.77" r="3.77"/>
<circle class="st12" cx="24.5" cy="8.77" r="3.77"/>
<path class="st7" d="M211.27,110H152.2c-2.2,0-3.99-1.78-3.99-3.99V95.83c0-2.2,1.78-3.99,3.99-3.99h59.07
	c2.2,0,3.99,1.78,3.99,3.99v10.18C215.25,108.22,213.47,110,211.27,110z"/>
<path class="st7" d="M339.27,110H280.2c-2.2,0-3.99-1.78-3.99-3.99V95.99c0-2.2,1.78-3.99,3.99-3.99h59.07
	c2.2,0,3.99,1.78,3.99,3.99v10.03C343.25,108.22,341.47,110,339.27,110z"/>
<circle class="st7" cx="233" cy="96" r="4"/>
<circle class="st7" cx="233" cy="106" r="4"/>
<path class="st7" d="M444.04,111.11h-2.96c-1.49,0-2.71-1.21-2.71-2.71v-2.96c0-1.49,1.21-2.71,2.71-2.71h2.96
	c1.49,0,2.71,1.21,2.71,2.71v2.96C446.75,109.9,445.53,111.11,444.04,111.11z"/>
<g>
	
		<rect x="439.73" y="96.39" transform="matrix(0.7378 0.6751 -0.6751 0.7378 181.2282 -272.676)" class="st13" width="3.68" height="1.07"/>
	
		<rect x="441.02" y="94.79" transform="matrix(-0.6751 0.7378 -0.7378 -0.6751 815.8447 -168.6122)" class="st13" width="8.06" height="1.13"/>
</g>
<path class="st7" d="M420.3,110h-59.07c-2.2,0-3.99-1.78-3.99-3.99V95.99c0-2.2,1.78-3.99,3.99-3.99h59.07
	c2.2,0,3.99,1.78,3.99,3.99v10.03C424.29,108.22,422.5,110,420.3,110z"/>
<circle class="st14" cx="233.12" cy="95.88" r="1.88"/>
<path class="st7" d="M129.78,143.82H70.71c-2.2,0-3.99-1.78-3.99-3.99v-10.15c0-2.2,1.78-3.99,3.99-3.99h59.07
	c2.2,0,3.99,1.78,3.99,3.99v10.15C133.76,142.03,131.98,143.82,129.78,143.82z"/>
<path class="st7" d="M444.06,134.47h-2.96c-1.49,0-2.71-1.21-2.71-2.71v-2.96c0-1.49,1.21-2.71,2.71-2.71h2.96
	c1.49,0,2.71,1.21,2.71,2.71v2.96C446.76,133.26,445.55,134.47,444.06,134.47z"/>
<text transform="matrix(1 0 0 1 450.3597 133.7612)" class="st4 st5 st8">Sport</text>
<text transform="matrix(1 0 0 1 450.22 144.7615)" class="st4 st5 st8">Auto</text>
<text transform="matrix(1 0 0 1 242.2623 132.0774)" class="st4 st5 st8">Yes</text>
<text transform="matrix(1 0 0 1 242.5694 143.077)" class="st4 st5 st8">No</text>
<path class="st7" d="M211.03,143.82h-59.07c-2.2,0-3.99-1.78-3.99-3.99v-10.18c0-2.2,1.78-3.99,3.99-3.99h59.07
	c2.2,0,3.99,1.78,3.99,3.99v10.18C215.02,142.03,213.23,143.82,211.03,143.82z"/>
<path class="st7" d="M339.03,143.82h-59.07c-2.2,0-3.99-1.78-3.99-3.99V129.8c0-2.2,1.78-3.99,3.99-3.99h59.07
	c2.2,0,3.99,1.78,3.99,3.99v10.03C343.02,142.03,341.23,143.82,339.03,143.82z"/>
<circle class="st7" cx="232.76" cy="129.82" r="4"/>
<circle class="st7" cx="232.76" cy="139.82" r="4"/>
<path class="st7" d="M443.8,144.93h-2.96c-1.49,0-2.71-1.21-2.71-2.71v-2.96c0-1.49,1.21-2.71,2.71-2.71h2.96
	c1.49,0,2.71,1.21,2.71,2.71v2.96C446.51,143.71,445.3,144.93,443.8,144.93z"/>
<g>
	
		<rect x="439.5" y="130.2" transform="matrix(0.7378 0.6751 -0.6751 0.7378 203.9951 -263.6474)" class="st13" width="3.68" height="1.07"/>
	
		<rect x="440.79" y="128.61" transform="matrix(-0.6751 0.7378 -0.7378 -0.6751 840.3961 -111.7909)" class="st13" width="8.06" height="1.13"/>
</g>
<path class="st7" d="M420.06,143.82H361c-2.2,0-3.99-1.78-3.99-3.99V129.8c0-2.2,1.78-3.99,3.99-3.99h59.07
	c2.2,0,3.99,1.78,3.99,3.99v10.03C424.05,142.03,422.27,143.82,420.06,143.82z"/>
<circle class="st14" cx="232.88" cy="139.7" r="1.88"/>
<path class="st7" d="M129.78,178.82H70.71c-2.2,0-3.99-1.78-3.99-3.99v-10.15c0-2.2,1.78-3.99,3.99-3.99h59.07
	c2.2,0,3.99,1.78,3.99,3.99v10.15C133.76,177.03,131.98,178.82,129.78,178.82z"/>
<path class="st7" d="M444.06,169.47h-2.96c-1.49,0-2.71-1.21-2.71-2.71v-2.96c0-1.49,1.21-2.71,2.71-2.71h2.96
	c1.49,0,2.71,1.21,2.71,2.71v2.96C446.76,168.26,445.55,169.47,444.06,169.47z"/>
<text transform="matrix(1 0 0 1 450.3597 168.7612)" class="st4 st5 st8">Sport</text>
<text transform="matrix(1 0 0 1 450.22 179.7616)" class="st4 st5 st8">Auto</text>
<text transform="matrix(1 0 0 1 242.2623 167.0775)" class="st4 st5 st8">Yes</text>
<text transform="matrix(1 0 0 1 242.5695 178.0771)" class="st4 st5 st8">No</text>
<path class="st7" d="M211.03,178.82h-59.07c-2.2,0-3.99-1.78-3.99-3.99v-10.18c0-2.2,1.78-3.99,3.99-3.99h59.07
	c2.2,0,3.99,1.78,3.99,3.99v10.18C215.02,177.03,213.23,178.82,211.03,178.82z"/>
<path class="st7" d="M339.03,178.82h-59.07c-2.2,0-3.99-1.78-3.99-3.99V164.8c0-2.2,1.78-3.99,3.99-3.99h59.07
	c2.2,0,3.99,1.78,3.99,3.99v10.03C343.02,177.03,341.23,178.82,339.03,178.82z"/>
<circle class="st7" cx="232.76" cy="164.82" r="4"/>
<circle class="st7" cx="232.76" cy="174.82" r="4"/>
<path class="st7" d="M443.8,179.93h-2.96c-1.49,0-2.71-1.21-2.71-2.71v-2.96c0-1.49,1.21-2.71,2.71-2.71h2.96
	c1.49,0,2.71,1.21,2.71,2.71v2.96C446.51,178.71,445.3,179.93,443.8,179.93z"/>
<g>
	
		<rect x="439.5" y="165.2" transform="matrix(0.7378 0.6751 -0.6751 0.7378 227.6226 -254.4688)" class="st13" width="3.68" height="1.07"/>
	
		<rect x="440.79" y="163.61" transform="matrix(-0.6751 0.7378 -0.7378 -0.6751 866.2176 -53.1633)" class="st13" width="8.06" height="1.13"/>
</g>
<path class="st7" d="M420.06,178.82H361c-2.2,0-3.99-1.78-3.99-3.99V164.8c0-2.2,1.78-3.99,3.99-3.99h59.07
	c2.2,0,3.99,1.78,3.99,3.99v10.03C424.05,177.03,422.27,178.82,420.06,178.82z"/>
<circle class="st14" cx="232.88" cy="174.7" r="1.88"/>
<path class="st15" d="M34.01,129.49l3.63,3.63c0.08,0.08,0.08,0.21,0,0.29c-0.08,0.08-0.21,0.08-0.29,0l0,0l-3.29-3.29v8.39
	c0,0.11-0.09,0.2-0.2,0.2c-0.11,0-0.2-0.09-0.2-0.2v-8.39l-3.29,3.29c-0.08,0.08-0.21,0.08-0.29,0c-0.08-0.08-0.08-0.21,0-0.29
	l3.63-3.63C33.8,129.41,33.93,129.41,34.01,129.49C34.01,129.49,34.01,129.49,34.01,129.49z"/>
<path class="st15" d="M38.77,96.84h-2.53v-0.69c0-0.63-0.51-1.15-1.15-1.15h-2.75c-0.63,0-1.15,0.51-1.15,1.15v0.69h-2.53
	c-0.13,0-0.23,0.1-0.23,0.23c0,0.13,0.1,0.23,0.23,0.23h0.69v8.49c0,0.38,0.31,0.69,0.69,0.69h7.35c0.38,0,0.69-0.31,0.69-0.69V97.3
	h0.69c0.13,0,0.23-0.1,0.23-0.23C39,96.94,38.9,96.84,38.77,96.84z M31.65,96.15c0-0.38,0.31-0.69,0.69-0.69h2.75
	c0.38,0,0.69,0.31,0.69,0.69v0.69h-4.13V96.15z M37.62,105.79c0,0.13-0.1,0.23-0.23,0.23h-7.35c-0.13,0-0.23-0.1-0.23-0.23V97.3
	h7.81V105.79z M32.57,99.82v3.67c0,0.13-0.1,0.23-0.23,0.23c-0.13,0-0.23-0.1-0.23-0.23v-3.67c0-0.13,0.1-0.23,0.23-0.23
	C32.47,99.59,32.57,99.69,32.57,99.82z M35.33,99.82v3.67c0,0.13-0.1,0.23-0.23,0.23c-0.13,0-0.23-0.1-0.23-0.23v-3.67
	c0-0.13,0.1-0.23,0.23-0.23C35.22,99.59,35.33,99.69,35.33,99.82z"/>
<g>
	<g>
		<path class="st15" d="M44.62,130.68l7.92,7.92c0.11,0.11,0.28,0.11,0.38,0c0.11-0.11,0.11-0.28,0-0.38L45,130.3l7.87,7.87
			l-7.92-7.92c-0.11-0.11-0.28-0.11-0.38,0s-0.11,0.28,0,0.38l7.92,7.92"/>
	</g>
	<g>
		<path class="st15" d="M52.46,130.28l-7.9,7.95c-0.1,0.11-0.1,0.28,0,0.38c0.11,0.1,0.28,0.1,0.38,0l7.9-7.95L45,138.55l7.9-7.95
			c0.1-0.11,0.1-0.28,0-0.38c-0.11-0.1-0.28-0.1-0.38,0l-7.9,7.95"/>
	</g>
</g>
<path class="st15" d="M33.92,164.03l3.63,3.63c0.08,0.08,0.08,0.21,0,0.29c-0.08,0.08-0.21,0.08-0.29,0l0,0l-3.29-3.29v8.39
	c0,0.11-0.09,0.2-0.2,0.2c-0.11,0-0.2-0.09-0.2-0.2v-8.39l-3.29,3.29c-0.08,0.08-0.21,0.08-0.29,0c-0.08-0.08-0.08-0.21,0-0.29
	l3.63-3.63C33.72,163.95,33.84,163.95,33.92,164.03C33.92,164.03,33.92,164.03,33.92,164.03z"/>
<g>
	<g>
		<path class="st15" d="M43.53,165.23l7.92,7.92c0.11,0.11,0.28,0.11,0.38,0s0.11-0.28,0-0.38l-7.92-7.92l7.87,7.87l-7.92-7.92
			c-0.11-0.11-0.28-0.11-0.38,0c-0.11,0.11-0.11,0.28,0,0.38l7.92,7.92"/>
	</g>
	<g>
		<path class="st15" d="M51.37,164.82l-7.9,7.95c-0.1,0.11-0.1,0.28,0,0.38c0.11,0.1,0.28,0.1,0.38,0l7.9-7.95l-7.84,7.89l7.9-7.95
			c0.1-0.11,0.1-0.28,0-0.38c-0.11-0.1-0.28-0.1-0.38,0l-7.9,7.95"/>
	</g>
</g>
<path class="st15" d="M43.89,99.64c-0.01-0.01-0.02-0.02-0.03-0.03l0,0l0,0c-0.01-0.01-0.02-0.02-0.03-0.03
	c0-0.01-0.01-0.01-0.01-0.02c-0.01-0.01-0.01-0.03-0.02-0.04c0-0.01,0-0.01-0.01-0.02c0-0.01,0-0.03,0-0.04v-2.61
	c0-0.12,0.1-0.22,0.22-0.22c0.12,0,0.22,0.1,0.22,0.22v2.08l1.47-1.47c1.95-1.95,5.12-1.95,7.07,0c0.09,0.08,0.09,0.22,0,0.31
	c-0.08,0.09-0.22,0.09-0.31,0c0,0,0,0,0,0c-1.78-1.78-4.67-1.78-6.46,0l-1.47,1.47h2.08c0.12,0,0.22,0.1,0.22,0.22
	s-0.1,0.22-0.22,0.22h-2.61c-0.01,0-0.03,0-0.04,0c-0.01,0-0.01,0-0.02-0.01c-0.02,0-0.03-0.01-0.04-0.02
	C43.9,99.65,43.89,99.65,43.89,99.64z M54.68,102.5c0-0.01,0-0.01-0.01-0.02c0-0.01,0-0.01-0.01-0.02c0-0.01-0.01-0.01-0.01-0.02
	c0-0.01-0.01-0.01-0.01-0.02c-0.01-0.01-0.02-0.02-0.03-0.03l0,0l0,0c-0.01-0.01-0.02-0.02-0.03-0.03c-0.01,0-0.01-0.01-0.02-0.01
	c-0.01-0.01-0.03-0.01-0.04-0.02c-0.01,0-0.01,0-0.02-0.01c-0.01,0-0.03,0-0.04,0c0,0,0,0,0,0h-2.61c-0.12,0-0.22,0.1-0.22,0.22
	s0.1,0.22,0.22,0.22h2.08l-1.47,1.47c-1.78,1.78-4.67,1.78-6.46,0c-0.09-0.08-0.22-0.08-0.31,0c-0.08,0.08-0.08,0.22,0,0.31
	c1.95,1.95,5.12,1.95,7.07,0l1.47-1.47v2.08c0,0.12,0.1,0.22,0.22,0.22s0.22-0.1,0.22-0.22v-2.61
	C54.68,102.52,54.68,102.51,54.68,102.5L54.68,102.5z"/>
<text transform="matrix(1 0 0 1 72.4636 104.5633)" class="st4 st5 st16">Scriptcase</text>
<text transform="matrix(1 0 0 1 154.4579 104.5631)" class="st4 st5 st16">sc@sc.net</text>
<text transform="matrix(1 0 0 1 281.5566 104.5632)" class="st4 st5 st16">06/04/2022</text>
<text transform="matrix(1 0 0 1 360.8457 104.0248)" class="st4 st5 st16">Google Maps </text>
</svg>
