<?xml version="1.0" encoding="utf-8"?>
<!-- Generator: Adobe Illustrator 25.2.1, SVG Export Plug-In . SVG Version: 6.00 Build 0)  -->
<svg version="1.1" id="Layer_1" xmlns="http://www.w3.org/2000/svg" xmlns:xlink="http://www.w3.org/1999/xlink" x="0px" y="0px"
	 viewBox="0 0 500 200" style="enable-background:new 0 0 500 200;" xml:space="preserve">
<style type="text/css">
	.st0{fill:#EAEAEA;}
	.st1{fill:#FFFFFF;}
	.st2{fill:#F6F6F6;}
	.st3{display:none;fill:#F6F6F6;}
	.st4{fill:#555454;}
	.st5{font-family:'ArialMT';}
	.st6{font-size:12px;}
	.st7{fill:#E5E4E4;}
	.st8{font-size:8px;}
	.st9{fill:#7EC395;}
	.st10{fill:#CECDCD;}
	.st11{fill:#EB5953;}
	.st12{fill:#55B03F;}
	.st13{fill:#F8C524;}
	.st14{fill:#888989;}
	.st15{fill:#7CC295;}
</style>
<path class="st0" d="M494.16,200H5.84C2.61,200,0,197.39,0,194.16V5.84C0,2.61,2.61,0,5.84,0h488.32c3.22,0,5.84,2.61,5.84,5.84
	v188.32C500,197.39,497.39,200,494.16,200z"/>
<rect x="9" y="27" class="st1" width="483" height="173"/>
<rect x="9" y="27" class="st2" width="483" height="26"/>
<path class="st3" d="M488,196.19H10.14c-3.22,0-5.84-2.61-5.84-5.84v-28.69c0-3.22,2.61-5.84,5.84-5.84H488
	c3.22,0,5.84,2.61,5.84,5.84v28.69C493.83,193.58,491.22,196.19,488,196.19z"/>
<path class="st3" d="M488,147.45H10.14c-3.22,0-5.84-2.61-5.84-5.84v-28.69c0-3.22,2.61-5.84,5.84-5.84H488
	c3.22,0,5.84,2.61,5.84,5.84v28.69C493.83,144.84,491.22,147.45,488,147.45z"/>
<path class="st3" d="M488.93,99.71H11.07c-3.22,0-5.84-2.61-5.84-5.84V65.18c0-3.22,2.61-5.84,5.84-5.84h477.85
	c3.22,0,5.84,2.61,5.84,5.84v28.69C494.76,97.09,492.15,99.71,488.93,99.71z"/>
<text transform="matrix(1 0 0 1 60.5852 75.1601)" class="st4 st5 st6">Name</text>
<text transform="matrix(1 0 0 1 142.1454 75.16)" class="st4 st5 st6">Email</text>
<text transform="matrix(1 0 0 1 221.4971 76.2595)" class="st4 st5 st6">Active</text>
<text transform="matrix(1 0 0 1 268.8412 76.3697)" class="st4 st5 st6">Data</text>
<text transform="matrix(1 0 0 1 350.4784 75.9441)" class="st4 st5 st6">Maps</text>
<text transform="matrix(1 0 0 1 431.2944 75.9444)" class="st4 st5 st6">Types</text>
<path class="st7" d="M122.01,110H62.95c-2.2,0-3.99-1.78-3.99-3.99V95.86c0-2.2,1.78-3.99,3.99-3.99h59.07
	c2.2,0,3.99,1.78,3.99,3.99v10.15C126,108.22,124.22,110,122.01,110z"/>
<path class="st7" d="M436.29,100.65h-2.96c-1.49,0-2.71-1.21-2.71-2.71v-2.96c0-1.49,1.21-2.71,2.71-2.71h2.96
	c1.49,0,2.71,1.21,2.71,2.71v2.96C439,99.44,437.79,100.65,436.29,100.65z"/>
<text transform="matrix(1 0 0 1 442.5969 99.944)" class="st4 st5 st8">Sport</text>
<text transform="matrix(1 0 0 1 442.4572 110.9443)" class="st4 st5 st8">Auto</text>
<path class="st7" d="M41.26,108.05h-7.32c-2.2,0-3.98-1.78-3.98-3.98v-7.32c0-2.2,1.78-3.98,3.98-3.98h7.32
	c2.2,0,3.98,1.78,3.98,3.98v7.32C45.24,106.27,43.46,108.05,41.26,108.05z"/>
<text transform="matrix(1 0 0 1 234.4995 98.2602)" class="st4 st5 st8">Yes</text>
<text transform="matrix(1 0 0 1 234.8066 109.2598)" class="st4 st5 st8">No</text>
<g>
	
		<rect x="32.94" y="100.26" transform="matrix(0.7378 0.6751 -0.6751 0.7378 77.7493 2.1806)" class="st9" width="6.25" height="1.81"/>
	
		<rect x="35.13" y="97.55" transform="matrix(-0.6751 0.7378 -0.7378 -0.6751 142.9919 134.0332)" class="st9" width="13.69" height="1.92"/>
</g>
<rect x="0" class="st10" width="500" height="18"/>
<text transform="matrix(1 0 0 1 80.3422 44.5363)" class="st4 st5 st6">Save Selecteds</text>
<text transform="matrix(1 0 0 1 312.3422 44.5363)" class="st4 st5 st6">Delete Selecteds</text>
<circle class="st11" cx="12.77" cy="8.77" r="3.77"/>
<circle class="st12" cx="36.23" cy="8.77" r="3.77"/>
<circle class="st13" cx="24.5" cy="8.77" r="3.77"/>
<rect x="249.5" y="31.5" class="st14" width="1" height="18"/>
<path class="st7" d="M203.27,110H144.2c-2.2,0-3.99-1.78-3.99-3.99V95.83c0-2.2,1.78-3.99,3.99-3.99h59.07
	c2.2,0,3.99,1.78,3.99,3.99v10.18C207.25,108.22,205.47,110,203.27,110z"/>
<path class="st7" d="M331.27,110H272.2c-2.2,0-3.99-1.78-3.99-3.99V95.99c0-2.2,1.78-3.99,3.99-3.99h59.07
	c2.2,0,3.99,1.78,3.99,3.99v10.03C335.25,108.22,333.47,110,331.27,110z"/>
<circle class="st7" cx="225" cy="96" r="4"/>
<circle class="st7" cx="225" cy="106" r="4"/>
<path class="st7" d="M436.04,111.11h-2.96c-1.49,0-2.71-1.21-2.71-2.71v-2.96c0-1.49,1.21-2.71,2.71-2.71h2.96
	c1.49,0,2.71,1.21,2.71,2.71v2.96C438.75,109.9,437.53,111.11,436.04,111.11z"/>
<g>
	
		<rect x="431.73" y="96.39" transform="matrix(0.7378 0.6751 -0.6751 0.7378 179.1303 -267.2755)" class="st9" width="3.68" height="1.07"/>
	
		<rect x="433.02" y="94.79" transform="matrix(-0.6751 0.7378 -0.7378 -0.6751 802.4442 -162.7101)" class="st9" width="8.06" height="1.13"/>
</g>
<path class="st7" d="M412.3,110h-59.07c-2.2,0-3.99-1.78-3.99-3.99V95.99c0-2.2,1.78-3.99,3.99-3.99h59.07
	c2.2,0,3.99,1.78,3.99,3.99v10.03C416.29,108.22,414.5,110,412.3,110z"/>
<circle class="st15" cx="225.12" cy="95.88" r="1.88"/>
<path class="st7" d="M121.78,143.82H62.71c-2.2,0-3.99-1.78-3.99-3.99v-10.15c0-2.2,1.78-3.99,3.99-3.99h59.07
	c2.2,0,3.99,1.78,3.99,3.99v10.15C125.76,142.03,123.98,143.82,121.78,143.82z"/>
<path class="st7" d="M436.06,134.47h-2.96c-1.49,0-2.71-1.21-2.71-2.71v-2.96c0-1.49,1.21-2.71,2.71-2.71h2.96
	c1.49,0,2.71,1.21,2.71,2.71v2.96C438.76,133.26,437.55,134.47,436.06,134.47z"/>
<text transform="matrix(1 0 0 1 442.3597 133.7612)" class="st4 st5 st8">Sport</text>
<text transform="matrix(1 0 0 1 442.22 144.7615)" class="st4 st5 st8">Auto</text>
<path class="st7" d="M41.03,141.87h-7.32c-2.2,0-3.98-1.78-3.98-3.98v-7.32c0-2.2,1.78-3.98,3.98-3.98h7.32
	c2.2,0,3.98,1.78,3.98,3.98v7.32C45.01,140.09,43.22,141.87,41.03,141.87z"/>
<text transform="matrix(1 0 0 1 234.2623 132.0774)" class="st4 st5 st8">Yes</text>
<text transform="matrix(1 0 0 1 234.5694 143.077)" class="st4 st5 st8">No</text>
<g>
	
		<rect x="32.71" y="134.07" transform="matrix(0.7378 0.6751 -0.6751 0.7378 100.5161 11.2092)" class="st9" width="6.25" height="1.81"/>
	
		<rect x="34.9" y="131.36" transform="matrix(-0.6751 0.7378 -0.7378 -0.6751 167.5433 190.8544)" class="st9" width="13.69" height="1.92"/>
</g>
<path class="st7" d="M203.03,143.82h-59.07c-2.2,0-3.99-1.78-3.99-3.99v-10.18c0-2.2,1.78-3.99,3.99-3.99h59.07
	c2.2,0,3.99,1.78,3.99,3.99v10.18C207.02,142.03,205.23,143.82,203.03,143.82z"/>
<path class="st7" d="M331.03,143.82h-59.07c-2.2,0-3.99-1.78-3.99-3.99V129.8c0-2.2,1.78-3.99,3.99-3.99h59.07
	c2.2,0,3.99,1.78,3.99,3.99v10.03C335.02,142.03,333.23,143.82,331.03,143.82z"/>
<circle class="st7" cx="224.76" cy="129.82" r="4"/>
<circle class="st7" cx="224.76" cy="139.82" r="4"/>
<path class="st7" d="M435.8,144.93h-2.96c-1.49,0-2.71-1.21-2.71-2.71v-2.96c0-1.49,1.21-2.71,2.71-2.71h2.96
	c1.49,0,2.71,1.21,2.71,2.71v2.96C438.51,143.71,437.3,144.93,435.8,144.93z"/>
<g>
	
		<rect x="431.5" y="130.2" transform="matrix(0.7378 0.6751 -0.6751 0.7378 201.8971 -258.2469)" class="st9" width="3.68" height="1.07"/>
	
		<rect x="432.79" y="128.61" transform="matrix(-0.6751 0.7378 -0.7378 -0.6751 826.9955 -105.8889)" class="st9" width="8.06" height="1.13"/>
</g>
<path class="st7" d="M412.06,143.82H353c-2.2,0-3.99-1.78-3.99-3.99V129.8c0-2.2,1.78-3.99,3.99-3.99h59.07
	c2.2,0,3.99,1.78,3.99,3.99v10.03C416.05,142.03,414.27,143.82,412.06,143.82z"/>
<circle class="st15" cx="224.88" cy="129.7" r="1.88"/>
<path class="st7" d="M121.78,178.82H62.71c-2.2,0-3.99-1.78-3.99-3.99v-10.15c0-2.2,1.78-3.99,3.99-3.99h59.07
	c2.2,0,3.99,1.78,3.99,3.99v10.15C125.76,177.03,123.98,178.82,121.78,178.82z"/>
<path class="st7" d="M436.06,169.47h-2.96c-1.49,0-2.71-1.21-2.71-2.71v-2.96c0-1.49,1.21-2.71,2.71-2.71h2.96
	c1.49,0,2.71,1.21,2.71,2.71v2.96C438.76,168.26,437.55,169.47,436.06,169.47z"/>
<text transform="matrix(1 0 0 1 442.3597 168.7612)" class="st4 st5 st8">Sport</text>
<text transform="matrix(1 0 0 1 442.22 179.7616)" class="st4 st5 st8">Auto</text>
<path class="st7" d="M41.03,176.87h-7.32c-2.2,0-3.98-1.78-3.98-3.98v-7.32c0-2.2,1.78-3.98,3.98-3.98h7.32
	c2.2,0,3.98,1.78,3.98,3.98v7.32C45.01,175.09,43.22,176.87,41.03,176.87z"/>
<text transform="matrix(1 0 0 1 234.2623 167.0775)" class="st4 st5 st8">Yes</text>
<text transform="matrix(1 0 0 1 234.5695 178.0771)" class="st4 st5 st8">No</text>
<g>
	
		<rect x="32.71" y="169.07" transform="matrix(0.7378 0.6751 -0.6751 0.7378 124.1437 20.3878)" class="st9" width="6.25" height="1.81"/>
	
		<rect x="34.9" y="166.36" transform="matrix(-0.6751 0.7378 -0.7378 -0.6751 193.3648 249.482)" class="st9" width="13.69" height="1.92"/>
</g>
<path class="st7" d="M203.03,178.82h-59.07c-2.2,0-3.99-1.78-3.99-3.99v-10.18c0-2.2,1.78-3.99,3.99-3.99h59.07
	c2.2,0,3.99,1.78,3.99,3.99v10.18C207.02,177.03,205.23,178.82,203.03,178.82z"/>
<path class="st7" d="M331.03,178.82h-59.07c-2.2,0-3.99-1.78-3.99-3.99V164.8c0-2.2,1.78-3.99,3.99-3.99h59.07
	c2.2,0,3.99,1.78,3.99,3.99v10.03C335.02,177.03,333.23,178.82,331.03,178.82z"/>
<circle class="st7" cx="224.76" cy="164.82" r="4"/>
<circle class="st7" cx="224.76" cy="174.82" r="4"/>
<path class="st7" d="M435.8,179.93h-2.96c-1.49,0-2.71-1.21-2.71-2.71v-2.96c0-1.49,1.21-2.71,2.71-2.71h2.96
	c1.49,0,2.71,1.21,2.71,2.71v2.96C438.51,178.71,437.3,179.93,435.8,179.93z"/>
<g>
	
		<rect x="431.5" y="165.2" transform="matrix(0.7378 0.6751 -0.6751 0.7378 225.5246 -249.0682)" class="st9" width="3.68" height="1.07"/>
	
		<rect x="432.79" y="163.61" transform="matrix(-0.6751 0.7378 -0.7378 -0.6751 852.817 -47.2613)" class="st9" width="8.06" height="1.13"/>
</g>
<path class="st7" d="M412.06,178.82H353c-2.2,0-3.99-1.78-3.99-3.99V164.8c0-2.2,1.78-3.99,3.99-3.99h59.07
	c2.2,0,3.99,1.78,3.99,3.99v10.03C416.05,177.03,414.27,178.82,412.06,178.82z"/>
<circle class="st15" cx="224.88" cy="164.7" r="1.88"/>
</svg>
