<?xml version="1.0" encoding="utf-8"?>
<!-- Generator: Adobe Illustrator 18.0.0, SVG Export Plug-In . SVG Version: 6.00 Build 0)  -->
<!DOCTYPE svg PUBLIC "-//W3C//DTD SVG 1.1//EN" "http://www.w3.org/Graphics/SVG/1.1/DTD/svg11.dtd">
<svg version="1.1" id="Layer_1" xmlns="http://www.w3.org/2000/svg" xmlns:xlink="http://www.w3.org/1999/xlink" x="0px" y="0px"
	 viewBox="0 0 32 32" enable-background="new 0 0 32 32" xml:space="preserve">
<g>
	<g>
		<path fill="#DA8C8C" d="M16,31.3C7.6,31.3,0.8,24.4,0.8,16S7.6,0.8,16,0.8S31.3,7.6,31.3,16S24.4,31.3,16,31.3z M16,2.3
			C8.4,2.3,2.3,8.4,2.3,16c0,7.6,6.2,13.8,13.8,13.8S29.8,23.6,29.8,16C29.8,8.4,23.6,2.3,16,2.3z"/>
	</g>
	<g>
		<path fill="#DA8C8C" d="M16,31.3c-3.2,0-4.9-7.7-4.9-15.3S12.8,0.8,16,0.8c3.2,0,4.9,7.7,4.9,15.3S19.2,31.3,16,31.3z M16,2.3
			c-1.4,0-3.4,5.4-3.4,13.8c0,8.4,2,13.8,3.4,13.8c1.4,0,3.4-5.4,3.4-13.8C19.4,7.6,17.4,2.3,16,2.3z"/>
	</g>
	<g>
		<path fill="#DA8C8C" d="M16,20.9L16,20.9c-7.6,0-15.3-1.7-15.3-4.9c0-3.2,7.7-4.9,15.3-4.9c7.6,0,15.3,1.7,15.3,4.9
			C31.3,19.2,23.6,20.9,16,20.9z M16,12.6c-8.4,0-13.8,2-13.8,3.4c0,1.4,5.4,3.4,13.8,3.4c8.4,0,13.8-2,13.8-3.4S24.4,12.6,16,12.6z
			"/>
	</g>
</g>
</svg>
