<?xml version="1.0" encoding="utf-8"?>
<!-- Generator: Adobe Illustrator 21.1.0, SVG Export Plug-In . SVG Version: 6.00 Build 0)  -->
<svg version="1.1" id="Layer_1" xmlns="http://www.w3.org/2000/svg" xmlns:xlink="http://www.w3.org/1999/xlink" x="0px" y="0px"
	 viewBox="0 0 32 32" style="enable-background:new 0 0 32 32;" xml:space="preserve">
<style type="text/css">
	.st0{fill:#C6BDE8;stroke:#A194D6;stroke-width:1.5;stroke-linejoin:round;stroke-miterlimit:10;}
	.st1{fill:#A194D6;}
</style>
<g>
	<g>
		<rect x="1.5" y="1.5" class="st0" width="12.1" height="12.1"/>
		<path class="st1" d="M14.3,14.4H0.7V0.8h13.6V14.4z M2.2,12.9h10.6V2.3H2.2V12.9z"/>
	</g>
	<g>
		<path class="st1" d="M14.3,31.3H0.7V17.6h13.6V31.3z M2.2,29.8h10.6V19.1H2.2V29.8z"/>
	</g>
	<g>
		<path class="st1" d="M31.3,14.4H17.7V0.8h13.6C31.3,0.8,31.3,14.4,31.3,14.4z M19.2,12.9h10.6V2.3H19.2V12.9z"/>
	</g>
	<g>
		<rect x="18.4" y="18.4" class="st0" width="12.1" height="12.1"/>
		<path class="st1" d="M31.3,31.3H17.7V17.6h13.6C31.3,17.6,31.3,31.3,31.3,31.3z M19.2,29.8h10.6V19.1H19.2V29.8z"/>
	</g>
</g>
</svg>
