<?xml version="1.0" encoding="utf-8"?>
<!-- Generator: Adobe Illustrator 19.1.0, SVG Export Plug-In . SVG Version: 6.00 Build 0)  -->
<svg version="1.1" id="Layer_1" xmlns="http://www.w3.org/2000/svg" xmlns:xlink="http://www.w3.org/1999/xlink" x="0px" y="0px"
	 viewBox="-289 381 32 32" style="enable-background:new -289 381 32 32;" xml:space="preserve">
<style type="text/css">
	.st0{fill:#AEA051;}
	.st1{fill:#FBF4B1;}
</style>
<g>
	<g>
		<path class="st0" d="M-273,412.2L-273,412.2L-273,412.2c-8.4,0-15.3-6.8-15.3-15.2c0-4.1,1.6-7.9,4.5-10.8
			c2.9-2.9,6.7-4.4,10.8-4.4l0,0c8.4,0,15.3,6.8,15.3,15.3c0,4.1-1.6,7.9-4.5,10.8C-265.1,410.7-268.9,412.2-273,412.2z M-273,410.7
			L-273,410.7c3.7,0,7.1-1.4,9.7-4c2.6-2.6,4-6,4-9.7c0-7.6-6.2-13.8-13.8-13.8l0,0c-3.7,0-7.1,1.4-9.7,4c-2.6,2.6-4,6-4,9.7
			C-286.8,404.6-280.6,410.7-273,410.7L-273,410.7z"/>
	</g>
	<g>
		<polygon class="st1" points="-276.7,403.2 -267.1,397 -276.7,390.8 		"/>
		<path class="st0" d="M-276.7,403.9c-0.1,0-0.2,0-0.4-0.1c-0.2-0.1-0.4-0.4-0.4-0.7v-12.3c0-0.3,0.1-0.5,0.4-0.7
			c0.2-0.1,0.5-0.1,0.8,0l9.6,6.2c0.2,0.1,0.3,0.4,0.3,0.6c0,0.3-0.1,0.5-0.3,0.6l-9.6,6.2C-276.4,403.9-276.5,403.9-276.7,403.9z
			 M-275.9,392.2v9.6l7.5-4.8L-275.9,392.2z"/>
	</g>
</g>
</svg>
