<?xml version="1.0" encoding="utf-8"?>
<!-- Generator: Adobe Illustrator 19.1.0, SVG Export Plug-In . SVG Version: 6.00 Build 0)  -->
<svg version="1.1" id="Layer_1" xmlns="http://www.w3.org/2000/svg" xmlns:xlink="http://www.w3.org/1999/xlink" x="0px" y="0px"
	 viewBox="-289 381 32 32" style="enable-background:new -289 381 32 32;" xml:space="preserve">
<style type="text/css">
	.st0{fill:#AEA051;}
	.st1{fill:#FBF4B1;}
</style>
<g>
	<g>
		<path class="st0" d="M-265.1,412.2h-3.9l-0.3-2.1c-0.4-0.1-0.8-0.3-1.1-0.5l-1.8,1.3l-2.8-2.8l1.3-1.8c-0.2-0.4-0.3-0.7-0.5-1.1
			l-2.1-0.3V401l2.1-0.3c0.1-0.4,0.3-0.8,0.5-1.1l-1.3-1.8l2.8-2.8l1.8,1.3c0.4-0.2,0.7-0.3,1.1-0.5l0.3-2.1h3.9l0.3,2.1
			c0.4,0.1,0.8,0.3,1.1,0.5l1.8-1.3l2.8,2.8l-1.3,1.8c0.2,0.4,0.3,0.7,0.5,1.1l2.1,0.3v3.9l-2.1,0.3c-0.1,0.4-0.3,0.8-0.5,1.1
			l1.3,1.8l-2.8,2.8l-1.8-1.3c-0.4,0.2-0.7,0.3-1.1,0.5L-265.1,412.2z M-267.7,410.7h1.4l0.3-1.8l0.5-0.1c0.6-0.1,1.1-0.4,1.6-0.7
			l0.4-0.3l1.5,1.2l1-1l-1.1-1.5l0.3-0.4c0.3-0.5,0.5-1.1,0.7-1.6l0.1-0.5l1.8-0.3v-1.4l-1.9-0.3l-0.1-0.5c-0.1-0.6-0.4-1.1-0.7-1.6
			l-0.3-0.4l1.1-1.5l-1-1l-1.4,1l-0.4-0.3c-0.5-0.3-1.1-0.5-1.6-0.7h-0.6l-0.3-1.8h-1.4l-0.2,1.8l-0.5,0.1c-0.6,0.1-1.1,0.4-1.6,0.7
			l-0.5,0.2l-1.5-1l-1,1l1.1,1.5l-0.3,0.4c-0.3,0.5-0.5,1.1-0.7,1.6v0.5l-1.8,0.3v1.4l1.8,0.3l0.1,0.5c0.1,0.6,0.4,1.1,0.7,1.6
			l0.3,0.4l-1.1,1.5l1,1l1.5-1.1l0.4,0.3c0.5,0.3,1.1,0.5,1.6,0.7l0.5,0.1L-267.7,410.7z"/>
	</g>
	<g>
		<path class="st0" d="M-267,406.5c-2,0-3.6-1.6-3.6-3.6s1.6-3.6,3.6-3.6s3.6,1.6,3.6,3.6S-265.1,406.5-267,406.5z M-267,400.9
			c-1.2,0-2.1,0.9-2.1,2.1s0.9,2.1,2.1,2.1s2-1,2-2.1C-265,401.8-265.9,400.9-267,400.9z"/>
	</g>
	<g>
		<path class="st1" d="M-273,390.9v-2.3l-1.7-0.3c-0.1-0.6-0.4-1.1-0.6-1.5l1-1.4l-1.7-1.6l-1.4,1c-0.5-0.3-1-0.5-1.5-0.6l-0.2-1.7
			h-2.3l-0.3,1.7c-0.5,0.1-1,0.3-1.5,0.6l-1.4-1l-1.6,1.6l1,1.4c-0.3,0.5-0.5,1-0.6,1.5l-1.7,0.3v2.3l1.7,0.3
			c0.1,0.6,0.4,1.1,0.6,1.5l-1,1.4l1.6,1.6l1.4-1c0.5,0.3,1,0.5,1.5,0.6l0.3,1.7h2.3l0.3-1.7c0.6-0.1,1.1-0.4,1.5-0.6l1.4,1l1.6-1.6
			l-1-1.4c0.3-0.5,0.5-1,0.6-1.5L-273,390.9z M-280.3,392.1c-1.3,0-2.4-1.1-2.4-2.4c0-1.3,1.1-2.4,2.4-2.4c1.3,0,2.4,1.1,2.4,2.4
			C-277.9,391.1-278.9,392.1-280.3,392.1z"/>
		<path class="st0" d="M-278.5,397.7h-3.5l-0.3-1.8c-0.3-0.1-0.6-0.2-0.8-0.3l-1.5,1.1l-2.5-2.5l1.1-1.5c-0.1-0.3-0.2-0.5-0.3-0.8
			l-1.8-0.3V388l1.8-0.3c0.1-0.3,0.2-0.6,0.3-0.8l-1.2-1.6l2.5-2.5l1.5,1.1c0.3-0.1,0.5-0.2,0.8-0.3l0.4-1.8h3.5l0.3,1.8
			c0.3,0.1,0.6,0.2,0.8,0.3l1.5-1.1l2.5,2.5l-1.1,1.5c0.1,0.3,0.2,0.5,0.3,0.8l1.9,0.4v3.5l-1.8,0.3c-0.1,0.3-0.2,0.6-0.3,0.8
			l1.1,1.5l-2.5,2.5l-1.5-1.1c-0.3,0.1-0.5,0.2-0.8,0.3L-278.5,397.7z M-280.8,396.2h1l0.2-1.5l0.5-0.1c0.5-0.1,0.9-0.3,1.3-0.6
			l0.4-0.3l1.3,0.9l0.7-0.7l-0.9-1.3l0.3-0.4c0.3-0.4,0.4-0.9,0.6-1.3l0.1-0.5l1.5-0.2v-1l-1.5-0.2l-0.1-0.5
			c-0.2-0.5-0.3-0.9-0.6-1.3l-0.3-0.4l0.9-1.3l-0.6-0.7l-1.3,0.9l-0.4-0.3c-0.4-0.2-0.9-0.4-1.4-0.5l-0.4-0.1l-0.3-1.5h-1l-0.2,1.5
			l-0.5,0.1c-0.5,0.1-0.9,0.3-1.3,0.6l-0.5,0.2l-1.2-0.9l-0.7,0.7l0.9,1.3l-0.2,0.4c-0.3,0.4-0.5,0.8-0.6,1.3l-0.1,0.5l-1.5,0.2v1
			l1.5,0.2l0.1,0.5c0.1,0.5,0.3,0.9,0.6,1.3l0.3,0.4l-1,1.4l0.7,0.7l1.3-0.9l0.4,0.2c0.4,0.3,0.9,0.4,1.3,0.6l0.5,0.1L-280.8,396.2z
			 M-280.3,392.9c-1.7,0-3.2-1.4-3.2-3.2c0.1-1.7,1.5-3.1,3.2-3.1c1.7,0,3.2,1.4,3.2,3.2C-277.1,391.5-278.5,392.9-280.3,392.9z
			 M-280.3,388.1c-0.9,0-1.7,0.7-1.7,1.7c0,0.9,0.7,1.7,1.7,1.7c0.9,0,1.7-0.7,1.7-1.7S-279.4,388.1-280.3,388.1z"/>
	</g>
</g>
</svg>
