<?xml version="1.0" encoding="utf-8"?>
<!-- Generator: Adobe Illustrator 19.1.0, SVG Export Plug-In . SVG Version: 6.00 Build 0)  -->
<svg version="1.1" id="Layer_1" xmlns="http://www.w3.org/2000/svg" xmlns:xlink="http://www.w3.org/1999/xlink" x="0px" y="0px"
	 viewBox="-289 381 32 32" style="enable-background:new -289 381 32 32;" xml:space="preserve">
<style type="text/css">
	.st0{fill:#CF817E;}
	.st1{fill:#F8DDE6;}
	.st2{fill:none;}
</style>
<g>
	<g>
		<path class="st0" d="M-260.2,390.1h-27.4v-8.4h27.4V390.1z M-286.1,388.6h24.4v-5.4h-24.4V388.6z"/>
	</g>
	<g>
		<rect x="-268.6" y="385.2" class="st0" width="1.5" height="1.5"/>
	</g>
	<g>
		<rect x="-265.1" y="385.2" class="st0" width="1.5" height="1.5"/>
	</g>
	<g>
		<rect x="-283.9" y="385.2" class="st0" width="3.9" height="1.5"/>
	</g>
	<g>
		<path class="st0" d="M-270.1,407.1h-17.5v-18.5h27.4v14.5l-1.3-1.2c-1-0.9-2.2-1.5-3.6-1.5c-2.8,0-5.2,2.3-5.2,5.2
			c0,0.2,0,0.4,0,0.6L-270.1,407.1z M-286.1,405.6h14.4c0-3.7,3-6.6,6.7-6.6c1.2,0,2.4,0.3,3.4,0.9v-9.8h-24.5V405.6z"/>
	</g>
	<g>
		<path class="st1" d="M-260.9,401.4c-1.1-1-2.5-1.7-4.1-1.7c-3.3,0-5.9,2.6-5.9,5.9c0,0.2,0,0.5,0.1,0.7c0.4,2.9,2.8,5.2,5.9,5.2
			c3.3,0,5.9-2.6,5.9-5.9C-259.2,403.9-259.8,402.4-260.9,401.4z"/>
		<path class="st0" d="M-265.1,412.2c-3.4,0-6.2-2.5-6.6-5.8c0-0.3-0.1-0.5-0.1-0.8c0-3.7,3-6.7,6.7-6.7c1.7,0,3.4,0.7,4.6,1.9
			c1.3,1.3,2,3,2,4.8C-258.4,409.3-261.4,412.2-265.1,412.2z M-265.1,400.4c-2.8,0-5.2,2.3-5.2,5.2c0,0.2,0,0.4,0,0.6
			c0.3,2.6,2.5,4.5,5.1,4.5c2.8,0,5.2-2.3,5.2-5.2c0-1.4-0.6-2.7-1.6-3.7C-262.4,401-263.7,400.4-265.1,400.4z"/>
	</g>
	<g>
		<rect x="-265.8" y="401.7" class="st0" width="1.5" height="7.8"/>
	</g>
	<g>
		<rect x="-269" y="404.8" class="st0" width="7.8" height="1.5"/>
	</g>
</g>
</svg>
