<?xml version="1.0" encoding="utf-8"?>
<!-- Generator: Adobe Illustrator 19.1.0, SVG Export Plug-In . SVG Version: 6.00 Build 0)  -->
<svg version="1.1" id="Layer_1" xmlns="http://www.w3.org/2000/svg" xmlns:xlink="http://www.w3.org/1999/xlink" x="0px" y="0px"
	 viewBox="-289 381 32 32" style="enable-background:new -289 381 32 32;" xml:space="preserve">
<style type="text/css">
	.st0{fill:#CF817E;}
	.st1{fill:#F8DDE6;}
	.st2{fill:none;stroke:#CF817E;stroke-linejoin:round;stroke-miterlimit:10;}
</style>
<g>
	<g>
		<path class="st0" d="M-260.2,390.9h-27.4v-8.4h27.4V390.9z M-286.1,389.4h24.4V384h-24.4V389.4z"/>
	</g>
	<g>
		<rect x="-268.6" y="386" class="st0" width="1.5" height="1.5"/>
	</g>
	<g>
		<rect x="-265.1" y="386" class="st0" width="1.5" height="1.5"/>
	</g>
	<g>
		<rect x="-283.9" y="386" class="st0" width="3.9" height="1.5"/>
	</g>
	<g>
		<path class="st0" d="M-270.1,407.9h-17.5v-18.5h27.4v14.5l-1.3-1.2c-1-0.9-2.2-1.5-3.6-1.5c-2.8,0-5.2,2.3-5.2,5.2
			c0,0.2,0,0.4,0,0.6L-270.1,407.9z M-286.1,406.4h14.4c0-3.7,3-6.6,6.7-6.6c1.2,0,2.4,0.3,3.4,0.9v-9.8h-24.5V406.4z"/>
	</g>
	<g>
		<path class="st1" d="M-260.9,402.2c-1.1-1-2.5-1.7-4.1-1.7c-3.3,0-5.9,2.6-5.9,5.9c0,0.2,0,0.5,0.1,0.7c0.4,2.9,2.8,5.2,5.9,5.2
			c3.3,0,5.9-2.6,5.9-5.9C-259.2,404.7-259.8,403.2-260.9,402.2z"/>
		<path class="st0" d="M-265.1,413c-3.4,0-6.2-2.5-6.6-5.8c0-0.3-0.1-0.5-0.1-0.8c0-3.7,3-6.7,6.7-6.7c1.7,0,3.4,0.7,4.6,1.9
			c1.3,1.3,2,3,2,4.8C-258.4,410.1-261.4,413-265.1,413z M-265.1,401.2c-2.8,0-5.2,2.3-5.2,5.2c0,0.2,0,0.4,0,0.6
			c0.3,2.6,2.5,4.5,5.1,4.5c2.8,0,5.2-2.3,5.2-5.2c0-1.4-0.6-2.7-1.6-3.7C-262.4,401.8-263.7,401.2-265.1,401.2z"/>
	</g>
	<g>
		<path class="st2" d="M-261.9,407.5c-0.5,1.8-2.4,2.9-4.3,2.4c-1.8-0.5-2.9-2.4-2.4-4.3c0.5-1.8,2.4-2.9,4.3-2.4
			c1,0.3,1.8,1,2.2,1.9"/>
		<polyline class="st2" points="-261.7,403.2 -261.9,405.4 -264.2,405 		"/>
	</g>
</g>
</svg>
