<?xml version="1.0" encoding="utf-8"?>
<!-- Generator: Adobe Illustrator 19.1.0, SVG Export Plug-In . SVG Version: 6.00 Build 0)  -->
<svg version="1.1" id="Layer_1" xmlns="http://www.w3.org/2000/svg" xmlns:xlink="http://www.w3.org/1999/xlink" x="0px" y="0px"
	 viewBox="-289 381 32 32" style="enable-background:new -289 381 32 32;" xml:space="preserve">
<style type="text/css">
	.st0{fill:#F8DDE6;}
	.st1{fill:#CF817E;}
	.st2{fill:#FFFFFF;}
</style>
<g>
	<g>
		<polygon class="st0" points="-283.6,386.5 -283.6,393.2 -283.6,411.5 -258.6,411.5 -258.6,393.2 -258.6,386.5 		"/>
		<path class="st1" d="M-257.8,412.2h-26.5v-26.4h26.5V412.2z M-282.8,410.7h23.5v-23.4h-23.5V410.7z"/>
	</g>
	<g>
		<rect x="-287.4" y="382.5" class="st0" width="25" height="6.6"/>
		<path class="st1" d="M-261.7,389.9h-26.5v-8.2h26.5V389.9z M-286.7,388.4h23.5v-5.2h-23.5V388.4z"/>
	</g>
	<g>
		<rect x="-287.4" y="389.1" class="st2" width="25" height="18.3"/>
		<path class="st1" d="M-261.7,408.2h-26.5v-19.8h26.5V408.2z M-286.7,406.7h23.5v-16.8h-23.5V406.7z"/>
	</g>
	<g>
		<rect x="-269.9" y="385.1" class="st1" width="1.5" height="1.4"/>
	</g>
	<g>
		<rect x="-266.5" y="385.1" class="st1" width="1.5" height="1.4"/>
	</g>
	<g>
		<rect x="-284.5" y="385.1" class="st1" width="3.8" height="1.5"/>
	</g>
</g>
</svg>
