<?xml version="1.0" encoding="utf-8"?>
<!-- Generator: Adobe Illustrator 19.1.0, SVG Export Plug-In . SVG Version: 6.00 Build 0)  -->
<svg version="1.1" id="Layer_1" xmlns="http://www.w3.org/2000/svg" xmlns:xlink="http://www.w3.org/1999/xlink" x="0px" y="0px"
	 viewBox="-289 381 32 32" style="enable-background:new -289 381 32 32;" xml:space="preserve">
<style type="text/css">
	.st0{fill:none;stroke:#CF817E;stroke-width:1.5;stroke-miterlimit:10;}
	.st1{fill:#F0F7F7;stroke:#CF817E;stroke-width:1.5;stroke-miterlimit:10;}
	.st2{fill:#F8DDE6;stroke:#CF817E;stroke-width:1.5;stroke-linejoin:round;stroke-miterlimit:10;}
</style>
<g>
	<path class="st0" d="M-288,387.9v20.6c0,1.7,0.9,3,2.1,3h26c1.1,0,2.1-1.4,2.1-3v-20.6H-288z"/>
	<polyline class="st0" points="-265.8,403.9 -261.3,399.4 -265.8,394.8 	"/>
	<polyline class="st0" points="-280,394.8 -284.6,399.4 -280,403.9 	"/>
	<line class="st1" x1="-268.6" y1="392.4" x2="-277.3" y2="406.4"/>
	<path class="st2" d="M-257.9,384.1c0-1.1-0.9-2.1-2.1-2.1h-26c-1.1,0-2.1,0.9-2.1,2.1v3.8h30.1V384.1z"/>
	<line class="st1" x1="-284.2" y1="384.2" x2="-284.2" y2="385.7"/>
	<line class="st1" x1="-280.8" y1="384.2" x2="-280.8" y2="385.7"/>
	<line class="st1" x1="-277.5" y1="384.2" x2="-277.5" y2="385.7"/>
</g>
</svg>
