<?xml version="1.0" encoding="utf-8"?>
<!-- Generator: Adobe Illustrator 19.1.0, SVG Export Plug-In . SVG Version: 6.00 Build 0)  -->
<svg version="1.1" id="Layer_1" xmlns="http://www.w3.org/2000/svg" xmlns:xlink="http://www.w3.org/1999/xlink" x="0px" y="0px"
	 viewBox="-289 381 32 32" style="enable-background:new -289 381 32 32;" xml:space="preserve">
<style type="text/css">
	.st0{fill:#AEA051;}
	.st1{fill:#FBF4B1;}
	.st2{fill:none;}
</style>
<g>
	<g>
		<path class="st0" d="M-257.7,412.2h-30.5v-30.5h24.8l5.7,5.7V412.2z M-286.7,410.7h27.5v-22.6l-4.8-4.8h-22.7V410.7z"/>
	</g>
	<g>
		<rect x="-283.4" y="399.3" class="st1" width="20.8" height="12.2"/>
		<path class="st0" d="M-261.8,412.2h-22.4v-13.7h22.3v13.7H-261.8z M-282.7,410.7h19.3V400h-19.3V410.7z"/>
	</g>
	<g>
		<rect x="-283.4" y="382.5" class="st1" width="14.1" height="8"/>
		<path class="st0" d="M-268.5,391.3h-15.7v-9.6h15.6L-268.5,391.3L-268.5,391.3z M-282.7,389.8h12.7v-6.6h-12.7V389.8z"/>
	</g>
	<g>
		<rect x="-273.1" y="384.8" class="st0" width="1.5" height="3.4"/>
	</g>
	<g>
		<rect x="-280.2" y="402.6" class="st0" width="14.4" height="1.5"/>
	</g>
	<g>
		<rect x="-280.2" y="406.7" class="st0" width="14.4" height="1.5"/>
	</g>
</g>
</svg>
