<?xml version="1.0" encoding="utf-8"?>
<!-- Generator: Adobe Illustrator 19.1.0, SVG Export Plug-In . SVG Version: 6.00 Build 0)  -->
<svg version="1.1" id="Layer_1" xmlns="http://www.w3.org/2000/svg" xmlns:xlink="http://www.w3.org/1999/xlink" x="0px" y="0px"
	 viewBox="-289 381 32 32" style="enable-background:new -289 381 32 32;" xml:space="preserve">
<style type="text/css">
	.st0{fill:#CE7D41;}
	.st1{fill:#EFC5A8;}
</style>
<path class="st0" d="M-257.5,389.5h-31.1c-0.3,0-0.5,0.3-0.5,0.6v15c0,0.3,0.2,0.6,0.5,0.6h31.1c0.3,0,0.5-0.3,0.5-0.6v-15
	C-257,389.8-257.2,389.5-257.5,389.5z"/>
<g>
	<path class="st1" d="M-279.5,397.4L-279.5,397.4c0.4-0.1,0.7-0.3,1-0.7s0.4-0.7,0.4-1.3c0-0.8-0.3-1.3-0.8-1.6s-1.4-0.5-2.6-0.5
		h-2.7v8.6h3.2c1,0,1.7-0.2,2.3-0.7s0.8-1,0.8-1.8c0-0.6-0.1-1-0.4-1.3S-278.9,397.5-279.5,397.4z M-282.5,394.8h1
		c0.5,0,0.9,0.1,1.1,0.2s0.4,0.4,0.4,0.7c0,0.4-0.1,0.6-0.3,0.8s-0.6,0.2-1.1,0.2h-1.1V394.8z M-280.2,400.1
		c-0.2,0.2-0.6,0.3-1.1,0.3h-1.2v-2.2h1.1c1,0,1.5,0.4,1.5,1.1C-279.8,399.6-280,399.9-280.2,400.1z"/>
	<polygon class="st1" points="-277.1,394.8 -274.8,394.8 -274.8,401.9 -272.9,401.9 -272.9,394.8 -270.6,394.8 -270.6,393.3 
		-277.1,393.3 	"/>
	<path class="st1" d="M-263.3,393.3v4.1c0,0.5,0,1.2,0.1,2.4h0l-3.7-6.4h-2.3v8.6h1.6v-4c0-0.5,0-1.3-0.1-2.4h0.1l3.7,6.5h2.3v-8.6
		H-263.3z"/>
</g>
</svg>
