<?xml version="1.0" encoding="utf-8"?>
<!-- Generator: Adobe Illustrator 19.1.0, SVG Export Plug-In . SVG Version: 6.00 Build 0)  -->
<svg version="1.1" id="Layer_1" xmlns="http://www.w3.org/2000/svg" xmlns:xlink="http://www.w3.org/1999/xlink" x="0px" y="0px"
	 viewBox="-289 381 32 32" style="enable-background:new -289 381 32 32;" xml:space="preserve">
<style type="text/css">
	.st0{fill:#B3A69B;}
	.st1{fill:none;stroke:#B3A69B;stroke-miterlimit:10;}
</style>
<g>
	<polygon class="st0" points="-274.5,381 -289.2,391.5 -274.5,402.6 -274.5,396.8 -281.8,391.8 -274.5,386.8 	"/>
	<polygon class="st0" points="-274.8,410.8 -260.1,400.2 -274.8,389.2 -274.8,394.9 -267.5,400 -274.8,405 	"/>
</g>
<g>
	<polyline class="st1" points="-260.4,406.6 -261.8,405.2 -260.4,403.8 	"/>
	<polyline class="st1" points="-263.7,410.1 -262.4,411.4 -263.7,412.7 	"/>
	<path class="st1" d="M-262.4,405.2l-1.4,0c-0.7,0-1.2,0.5-1.2,1.2v1.5v0.9l0,1.5c0,0.7,0.5,1.2,1.2,1.2h1.4"/>
	<path class="st1" d="M-261.5,411.4l1.5,0c0.7,0,1.2-0.5,1.2-1.2l0-1.5v-0.9l0-1.5c0-0.7-0.5-1.2-1.2-1.2l-1.5,0"/>
</g>
</svg>
