<?xml version="1.0" encoding="utf-8"?>
<!-- Generator: Adobe Illustrator 19.1.0, SVG Export Plug-In . SVG Version: 6.00 Build 0)  -->
<svg version="1.1" id="Layer_1" xmlns="http://www.w3.org/2000/svg" xmlns:xlink="http://www.w3.org/1999/xlink" x="0px" y="0px"
	 viewBox="-289 381 32 32" style="enable-background:new -289 381 32 32;" xml:space="preserve">
<style type="text/css">
	.st0{fill:#CDE4F7;}
	.st1{fill:none;stroke:#74B1E0;stroke-width:1.5;stroke-miterlimit:10;}
</style>
<g>
	<path class="st0" d="M-258.2,386.4c-0.8-0.7-1.7-0.9-2.2-1.8c-0.4-0.3-1.6-0.9-1.9-1.3l-12.3-0.5c-0.4,0.5-5.2,1.7-5.9,2
		c-0.1,0.1-0.1,0.2-0.2,0.3c-0.3,0.4-0.8,0.7-1.3,0.9v23.7c0.2,0.1,0.3,0.2,0.5,0.4c0.3,0.1,0.6,0.3,0.9,0.5
		c0.6,0.2,1.1,0.4,1.6,0.8c0.9,0.1,1.6,0.3,2.2,0.7h11.7c0.1,0,0.2-0.1,0.3-0.1c0.6-0.2,1.2-0.2,1.7-0.1c0.6-0.5,1.3-0.9,2.1-1
		c0.5-0.3,1.2-0.6,1.9-0.7c0.2-0.2,0.5-0.4,0.8-0.6v-19.5C-258.6,389-258.4,387.4-258.2,386.4z"/>
	<ellipse class="st1" cx="-270.1" cy="386.9" rx="12.1" ry="4.1"/>
	<path class="st1" d="M-258,393.9c0,2.3-5.4,4.1-12.1,4.1c-6.7,0-12.1-1.8-12.1-4.1"/>
	<path class="st1" d="M-258,400.9c0,2.3-5.4,4.1-12.1,4.1c-6.7,0-12.1-1.8-12.1-4.1"/>
	<path class="st1" d="M-270.1,391c-6.7,0-12.1-1.8-12.1-4.1v21c0,2.3,5.4,4.1,12.1,4.1c6.7,0,12.1-1.8,12.1-4.1v-21
		C-258,389.1-263.4,391-270.1,391z"/>
</g>
</svg>
