<?xml version="1.0" encoding="utf-8"?>
<!-- Generator: Adobe Illustrator 19.1.0, SVG Export Plug-In . SVG Version: 6.00 Build 0)  -->
<svg version="1.1" id="Layer_1" xmlns="http://www.w3.org/2000/svg" xmlns:xlink="http://www.w3.org/1999/xlink" x="0px" y="0px"
	 viewBox="-289 381 32 32" style="enable-background:new -289 381 32 32;" xml:space="preserve">
<style type="text/css">
	.st0{fill:#C6BDE8;}
	.st1{fill:#A194D6;}
	.st2{fill:none;stroke:#A194D6;stroke-width:1.5;stroke-miterlimit:10;}
	.st3{font-family:'OpenSans';}
	.st4{font-size:12px;}
</style>
<g>
	<path class="st0" d="M-276.4,394.5c1.4-2.6-0.5,0,1.5-0.8c0.7-0.3,4.3-0.1,4.8,0.1v-11.6h-17.8v17.6h11
		C-276.9,399.1-276.5,395.1-276.4,394.5z"/>
	<path class="st1" d="M-287.5,399.4v-16.9h16.9v11c0.1,0,0.3,0,0.4,0c0.4,0,0.8,0,1.1,0.1V381H-289v19.9h12.7c-0.1-0.5-0.1-1,0-1.5
		H-287.5z"/>
	<g>
		<polygon class="st2" points="-271.4,393.9 -276.1,393.9 -276.1,412.3 -257.8,412.3 -257.8,407.5 -257.8,393.9 		"/>
	</g>
</g>
<text transform="matrix(1 0 0 1 -282.8635 394.4575)" class="st1 st3 st4">7</text>
<text transform="matrix(1 0 0 1 -270.375 406.8125)" class="st1 st3 st4">9</text>
</svg>
