<?xml version="1.0" encoding="utf-8"?>
<!-- Generator: Adobe Illustrator 19.1.0, SVG Export Plug-In . SVG Version: 6.00 Build 0)  -->
<svg version="1.1" id="Layer_1" xmlns="http://www.w3.org/2000/svg" xmlns:xlink="http://www.w3.org/1999/xlink" x="0px" y="0px"
	 viewBox="-289 381 32 32" style="enable-background:new -289 381 32 32;" xml:space="preserve">
<style type="text/css">
	.st0{fill:#A194D6;}
	.st1{fill:#C6BDE8;}
</style>
<g>
	<g>
		<path class="st0" d="M-282.6,408.3h-1.5v-21.6c0-2.7,2.2-5,5-5h16.6c0.4,0,0.8,0.3,0.8,0.8v22.6h-1.5v-21.9h-16
			c-1.9,0-3.5,1.6-3.5,3.5v21.6H-282.6z"/>
	</g>
	<g>
		<path class="st1" d="M-262.6,405.1h-17.6c-1.8,0-3.2,1.4-3.2,3.2l0,0c0,1.8,1.4,3.2,3.2,3.2h17.6
			C-262.6,411.5-262.6,405.1-262.6,405.1z"/>
		<path class="st0" d="M-262.6,412.2h-17.6c-2.2,0-3.9-1.8-3.9-3.9c0-2.1,1.8-3.9,3.9-3.9h17.6c0.4,0,0.8,0.3,0.8,0.8v6.4
			C-261.9,411.9-262.2,412.2-262.6,412.2z M-280.2,405.9c-1.3,0-2.4,1.1-2.4,2.4c0,1.3,1.1,2.4,2.4,2.4h16.8v-4.9h-16.8V405.9z"/>
	</g>
	<g>
		<rect x="-277.2" y="387.1" class="st0" width="8.7" height="1.5"/>
	</g>
	<g>
		<rect x="-277.2" y="391.9" class="st0" width="8.7" height="1.5"/>
	</g>
</g>
</svg>
