<?xml version="1.0" encoding="utf-8"?>
<!-- Generator: Adobe Illustrator 19.1.0, SVG Export Plug-In . SVG Version: 6.00 Build 0)  -->
<svg version="1.1" id="Layer_1" xmlns="http://www.w3.org/2000/svg" xmlns:xlink="http://www.w3.org/1999/xlink" x="0px" y="0px"
	 viewBox="-289 381 32 32" style="enable-background:new -289 381 32 32;" xml:space="preserve">
<style type="text/css">
	.st0{fill:#F0F7F7;stroke:#8F9BA8;stroke-width:1.5;stroke-linejoin:round;stroke-miterlimit:10;}
</style>
<g>
	<path class="st0" d="M-276.1,387.9h-9.8c-1.2,0-2.1-0.9-2.1-2.1v-1.7c0-1.2,0.9-2.1,2.1-2.1h9.8c1.2,0,2.1,0.9,2.1,2.1v1.7
		C-274,387-274.9,387.9-276.1,387.9z"/>
	<path class="st0" d="M-260,387.9h-10.3c-1.2,0-2.1-0.9-2.1-2.1v-1.7c0-1.2,0.9-2.1,2.1-2.1h10.3c1.2,0,2.1,0.9,2.1,2.1v1.7
		C-257.9,387-258.8,387.9-260,387.9z"/>
	<path class="st0" d="M-260,395.5h-10.3c-1.2,0-2.1-0.9-2.1-2.1v-1.7c0-1.2,0.9-2.1,2.1-2.1h10.3c1.2,0,2.1,0.9,2.1,2.1v1.7
		C-257.9,394.6-258.8,395.5-260,395.5z"/>
	<path class="st0" d="M-260,403.2h-10.3c-1.2,0-2.1-0.9-2.1-2.1v-1.7c0-1.2,0.9-2.1,2.1-2.1h10.3c1.2,0,2.1,0.9,2.1,2.1v1.7
		C-257.9,402.2-258.8,403.2-260,403.2z"/>
	<path class="st0" d="M-260,410.7h-10.3c-1.2,0-2.1-0.9-2.1-2.1v-1.7c0-1.2,0.9-2.1,2.1-2.1h10.3c1.2,0,2.1,0.9,2.1,2.1v1.7
		C-257.9,409.8-258.8,410.7-260,410.7z"/>
</g>
</svg>
