<?xml version="1.0" encoding="utf-8"?>
<!-- Generator: Adobe Illustrator 19.1.0, SVG Export Plug-In . SVG Version: 6.00 Build 0)  -->
<svg version="1.1" id="Layer_1" xmlns="http://www.w3.org/2000/svg" xmlns:xlink="http://www.w3.org/1999/xlink" x="0px" y="0px"
	 viewBox="-289 381 32 32" style="enable-background:new -289 381 32 32;" xml:space="preserve">
<style type="text/css">
	.st0{fill:#C6BDE8;}
	.st1{fill:#A194D6;}
	.st2{fill:none;stroke:#A194D6;stroke-width:1.5;stroke-linejoin:round;stroke-miterlimit:10;}
	.st3{fill:#F8F7F1;stroke:#A194D6;stroke-width:1.5;stroke-linejoin:round;stroke-miterlimit:10;}
	.st4{fill:#C6BDE8;stroke:#A194D6;stroke-width:1.5;stroke-miterlimit:10;}
</style>
<g>
	<g>
		<path class="st0" d="M-268,401.8c0.7-0.5,2.7-3.1,3.8-3.1c0.9,0,1.5,0.6,2.1,0.9l-0.2-12h-5.4v-5.4h-11.7v5.2h6.6l5.4,5.4
			L-268,401.8z"/>
		<path class="st1" d="M-268.2,400.8c0.4-0.5,0.9-0.8,1.5-1.1v-6.9c0-0.2-0.1-0.4-0.2-0.5l-5.4-5.4c-0.1-0.1-0.3-0.2-0.5-0.2h-5.8
			V383h10.2v4.7c0,0.4,0.3,0.8,0.8,0.8h4.7l0.1,10.8c0.6,0.2,1,0.8,1.4,1.2v-12.7c0-0.4-0.3-0.8-0.8-0.8h-4.7v-4.7
			c0-0.4-0.3-0.8-0.8-0.8h-11.7c-0.4,0-0.8,0.3-0.8,0.8v5.2c0,0.4,0.3,0.8,0.8,0.8h6.2l5,5V400.8z"/>
	</g>
	<path class="st1" d="M-274.1,410.5l-9.7,0v-22.3h10.2v4.7c0,0.4,0.3,0.8,0.8,0.8h4.7v8.3c0.4-0.3,1-1.1,1.5-1.3v-7.8
		c0-0.4-0.3-0.8-0.8-0.8h-4.7v-4.7c0-0.4-0.3-0.8-0.8-0.8h-11.7c-0.4,0-0.8,0.3-0.8,0.8v23.8c0,0.4,0.3,0.8,0.8,0.8h10"/>
	<polygon class="st2" points="-267.4,392.8 -272.9,387.4 -272.9,392.8 	"/>
	<polygon class="st3" points="-262.2,387.6 -267.7,382.2 -267.7,387.6 	"/>
	<polygon class="st4" points="-269,411.2 -273,412.4 -271.7,408.4 -264.1,400.8 -261.4,403.6 	"/>
</g>
</svg>
