<?xml version="1.0" encoding="utf-8"?>
<!-- Generator: Adobe Illustrator 22.1.0, SVG Export Plug-In . SVG Version: 6.00 Build 0)  -->
<svg version="1.1" id="Layer_1" xmlns="http://www.w3.org/2000/svg" xmlns:xlink="http://www.w3.org/1999/xlink" x="0px" y="0px"
	 viewBox="0 0 32 32" style="enable-background:new 0 0 32 32;" xml:space="preserve">
<style type="text/css">
	.st0{fill:#C6BDE8;}
	.st1{fill:#A194D6;}
</style>
<g>
	<g>
		<path class="st0" d="M10.7,1.5c0.3,0,11.1,0,11.1,0L15,11.8c0,0,11.5-0.2,11.3,0s-19,18.7-19,18.7L12.6,16H5.7L10.7,1.5z"/>
		<path class="st1" d="M7.3,31.2c-0.1,0-0.3,0-0.4-0.1c-0.3-0.2-0.4-0.6-0.3-0.9l4.9-13.5H5.7c-0.2,0-0.5-0.1-0.6-0.3
			C5,16.2,4.9,16,5,15.8l5-14.5c0.1-0.3,0.4-0.5,0.7-0.5h11.1c0.3,0,0.5,0.2,0.7,0.4c0.1,0.2,0.1,0.5,0,0.8l-6,9.2
			c1.8,0,4.8-0.1,7-0.1c3.1,0,3.3,0,3.5,0.6c0.1,0.3,0,0.6-0.2,0.8C26.6,12.6,8.6,30.3,7.8,31C7.6,31.2,7.5,31.2,7.3,31.2z
			 M6.8,15.2h5.8c0.2,0,0.5,0.1,0.6,0.3s0.2,0.5,0.1,0.7L9.1,27.6c4.1-4,12.4-12.1,15.4-15.2c-0.3,0-0.7,0-1.1,0
			c-3.3,0-8.4,0.1-8.4,0.1c-0.3,0-0.5-0.1-0.7-0.4c-0.1-0.2-0.1-0.5,0-0.8l6-9.2h-9.1L6.8,15.2z"/>
	</g>
</g>
</svg>
