<?xml version="1.0" encoding="utf-8"?>
<!-- Generator: Adobe Illustrator 19.1.0, SVG Export Plug-In . SVG Version: 6.00 Build 0)  -->
<svg version="1.1" id="Layer_1" xmlns="http://www.w3.org/2000/svg" xmlns:xlink="http://www.w3.org/1999/xlink" x="0px" y="0px"
	 viewBox="-289 381 32 32" style="enable-background:new -289 381 32 32;" xml:space="preserve">
<style type="text/css">
	.st0{fill:#F8F7F1;}
	.st1{fill:#B3A69B;}
</style>
<g>
	<g>
		<polygon class="st0" points="-271.1,382.6 -287.5,382.6 -275.7,387 -275.7,407 -271.1,407 		"/>
		<path class="st1" d="M-271.1,407.8h-4.6c-0.4,0-0.7-0.3-0.7-0.7v-19.6l-11.4-4.2c-0.3-0.1-0.5-0.4-0.4-0.8
			c0.1-0.4,0.4-0.6,0.7-0.6h16.4c0.4,0,0.7,0.3,0.7,0.7V407C-270.4,407.4-270.7,407.8-271.1,407.8z M-274.9,406.3h3.1v-22.9h-11.5
			l7.9,2.9c0.3,0.1,0.5,0.4,0.5,0.7V406.3z"/>
	</g>
	<path class="st1" d="M-275.7,412.1c-0.1,0-0.2,0-0.3,0l-11.8-4.4c-0.3-0.1-0.5-0.4-0.5-0.7v-24.4c0-0.2,0.1-0.5,0.3-0.6
		s0.5-0.2,0.7-0.1l11.8,4.3c0.3,0.1,0.5,0.4,0.5,0.7v24.4c0,0.2-0.1,0.5-0.3,0.6C-275.4,412.1-275.5,412.1-275.7,412.1z
		 M-286.8,406.5l10.3,3.8v-22.8l-10.3-3.8V406.5z"/>
	<rect x="-279.1" y="397.6" class="st1" width="1.5" height="2"/>
	<rect x="-268.8" y="394.1" class="st1" width="10" height="1.5"/>
	<polygon class="st1" points="-261.7,398.8 -262.8,397.8 -259.8,394.8 -262.8,391.9 -261.7,390.8 -257.7,394.8 	"/>
</g>
</svg>
