<?xml version="1.0" encoding="utf-8"?>
<!-- Generator: Adobe Illustrator 18.0.0, SVG Export Plug-In . SVG Version: 6.00 Build 0)  -->
<!DOCTYPE svg PUBLIC "-//W3C//DTD SVG 1.1//EN" "http://www.w3.org/Graphics/SVG/1.1/DTD/svg11.dtd">
<svg version="1.1" id="Layer_1" xmlns="http://www.w3.org/2000/svg" xmlns:xlink="http://www.w3.org/1999/xlink" x="0px" y="0px"
	 viewBox="0 0 32 32" enable-background="new 0 0 32 32" xml:space="preserve">
<g>
	<g>
		<path fill="#8F9BA8" d="M27.5,30.4H4.5v-21L16,1.6l11.5,7.8V30.4z M6.1,28.9h19.9V10.2L16,3.4l-9.9,6.8V28.9z"/>
	</g>
	<g>
		<polygon fill="#8F9BA8" points="1.6,13.3 0.8,12 16,1.6 31.3,12 30.4,13.3 16,3.4 		"/>
	</g>
	<g>
		<rect x="12.5" y="20.8" fill="#FAC2C3" width="6.9" height="8.9"/>
		<path fill="#DA8C8C" d="M20.2,30.4h-8.5V20h8.5V30.4z M13.3,28.9h5.4v-7.3h-5.4V28.9z"/>
	</g>
	<g>
		<circle fill="#F2E8B9" cx="16" cy="13.3" r="2.8"/>
		<path fill="#B4A042" d="M16,16.8c-1.9,0-3.5-1.6-3.5-3.5s1.6-3.5,3.5-3.5s3.5,1.6,3.5,3.5S17.9,16.8,16,16.8z M16,11.3
			c-1.1,0-2,0.9-2,2s0.9,2,2,2c1.1,0,2-0.9,2-2S17.1,11.3,16,11.3z"/>
	</g>
</g>
</svg>
