<?xml version="1.0" encoding="utf-8"?>
<!-- Generator: Adobe Illustrator 19.1.0, SVG Export Plug-In . SVG Version: 6.00 Build 0)  -->
<svg version="1.1" id="Layer_1" xmlns="http://www.w3.org/2000/svg" xmlns:xlink="http://www.w3.org/1999/xlink" x="0px" y="0px"
	 viewBox="-289 381 32 32" style="enable-background:new -289 381 32 32;" xml:space="preserve">
<style type="text/css">
	.st0{fill:#CDE4F7;}
	.st1{font-family:'OpenSans-Semibold';}
	.st2{font-size:10px;}
	.st3{fill:none;stroke:#74B1E0;stroke-width:1.5;stroke-linejoin:round;stroke-miterlimit:10;}
	.st4{fill:#74B1E0;}
	.st5{fill:#CDE4F7;stroke:#74B1E0;stroke-width:1.5;stroke-linejoin:round;stroke-miterlimit:10;}
	.st6{fill:none;stroke:#74B1E0;stroke-width:1.5;stroke-miterlimit:10;}
</style>
<text transform="matrix(1 0 0 1 -273.8529 400.6501)" class="st0 st1 st2">S</text>
<g>
	<polygon class="st3" points="-267.8,382.8 -267.8,390.3 -260.3,390.3 	"/>
	<path class="st4" d="M-260.3,389.5h-6.8v-6.8c0-0.4-0.3-0.8-0.8-0.8h-14c-0.4,0-0.8,0.3-0.8,0.8v11.1c0.2,0,0.5,1.9,0.7,1.9
		c0.4,0,0.5-1.9,0.8-1.8v-10.4h12.5v6.8c0,0.4,0.3,0.8,0.8,0.8h6.8v20h-20v-2.8c-0.1-0.2-0.3-0.4-0.4-0.5c-0.3,0.1-0.7,0.1-1.1,0.1
		v3.9c0,0.4,0.3,0.8,0.8,0.8h21.5c0.4,0,0.8-0.3,0.8-0.8v-21.5C-259.5,389.9-259.8,389.5-260.3,389.5z"/>
	<path class="st5" d="M-276,396.6c-1-1-2.2-1.6-3.4-2c-2.5-0.7-5.4,0-7.4,2c-2,2-2.6,4.8-2,7.4c0.3,1.3,1,2.4,2,3.4
		c3,3,7.8,3,10.8,0C-273,404.4-273,399.6-276,396.6z"/>
	<line class="st6" x1="-281.4" y1="397.6" x2="-281.4" y2="406.4"/>
	<polyline class="st6" points="-277.9,402.9 -281.4,406.4 -284.8,402.9 	"/>
</g>
<text transform="matrix(1 0 0 1 -280.167 392.3335)" class="st0 st1 st2">C</text>
<text transform="matrix(1 0 0 1 -268.9221 409.6036)" class="st0 st1 st2">V</text>
</svg>
