<?xml version="1.0" encoding="utf-8"?>
<!-- Generator: Adobe Illustrator 19.1.0, SVG Export Plug-In . SVG Version: 6.00 Build 0)  -->
<svg version="1.1" id="Layer_1" xmlns="http://www.w3.org/2000/svg" xmlns:xlink="http://www.w3.org/1999/xlink" x="0px" y="0px"
	 viewBox="-289 381 32 32" style="enable-background:new -289 381 32 32;" xml:space="preserve">
<style type="text/css">
	.st0{fill:none;}
	.st1{fill:#8F9BA8;}
	.st2{fill:#F0F7F7;stroke:#8F9BA8;stroke-width:1.5;stroke-linejoin:round;stroke-miterlimit:10;}
	.st3{fill:none;stroke:#8F9BA8;stroke-width:1.5;stroke-linejoin:round;stroke-miterlimit:10;}
	.st4{fill:none;stroke:#8F9BA8;stroke-width:2;stroke-linejoin:round;stroke-miterlimit:10;}
</style>
<g>
	<g>
		<path class="st0" d="M-263.1,410.7c-0.4-0.6-0.7-1.3-0.9-2c-0.5-1.2-0.5-2.7,0-3.9c0.5-1.8,2-3.3,4.3-3.4v-10.6l-8.4-8.4h-16.6v29
			h21.4C-263.2,411.1-263.2,410.9-263.1,410.7z"/>
		<path class="st1" d="M-263.6,410.6H-284v-27.5h15.5l8,8v11.2c0.3-0.1,0.6,0,1,0c0.2,0,0.4,0,0.5,0v-11.8l-8.8-8.8h-17.6v30.5h21.9
			"/>
	</g>
	<polygon class="st2" points="-268.1,390.8 -259.7,390.8 -268.1,382.4 	"/>
	<line class="st3" x1="-279.2" y1="388.3" x2="-273.5" y2="388.3"/>
	<line class="st3" x1="-279.2" y1="392.6" x2="-273.5" y2="392.6"/>
	<line class="st3" x1="-279.2" y1="396.8" x2="-265.2" y2="396.8"/>
	<line class="st3" x1="-279.2" y1="401" x2="-265.2" y2="401"/>
	<line class="st3" x1="-279.2" y1="405.3" x2="-266.6" y2="405.3"/>
</g>
<line class="st4" x1="-260.8" y1="404.3" x2="-260.8" y2="412"/>
<line class="st4" x1="-257" y1="408.2" x2="-264.7" y2="408.2"/>
</svg>
