<?xml version="1.0" encoding="utf-8"?>
<!-- Generator: Adobe Illustrator 19.1.0, SVG Export Plug-In . SVG Version: 6.00 Build 0)  -->
<svg version="1.1" id="Layer_1" xmlns="http://www.w3.org/2000/svg" xmlns:xlink="http://www.w3.org/1999/xlink" x="0px" y="0px"
	 viewBox="-289 381 32 32" style="enable-background:new -289 381 32 32;" xml:space="preserve">
<style type="text/css">
	.st0{fill:none;stroke:#8F9BA8;stroke-width:1.5;stroke-miterlimit:10;}
	.st1{fill:#F0F7F7;stroke:#8F9BA8;stroke-width:1.5;stroke-miterlimit:10;}
</style>
<g>
	<path class="st0" d="M-266.5,395.1h-13.1v-9.4c0-2.1,1.7-3.8,3.8-3.8h5.5c2.1,0,3.8,1.7,3.8,3.8L-266.5,395.1L-266.5,395.1z"/>
	<path class="st1" d="M-263.6,412h-18.7c-1.1,0-2-0.9-2-2v-12.9c0-1.1,0.9-2,2-2h18.7c1.1,0,2,0.9,2,2V410
		C-261.6,411.1-262.6,412-263.6,412z"/>
	<circle class="st1" cx="-273.1" cy="401" r="2.7"/>
	<line class="st0" x1="-273.1" y1="403.8" x2="-273.1" y2="408.9"/>
</g>
</svg>
