<?xml version="1.0" encoding="utf-8"?>
<!-- Generator: Adobe Illustrator 19.1.0, SVG Export Plug-In . SVG Version: 6.00 Build 0)  -->
<svg version="1.1" id="Layer_1" xmlns="http://www.w3.org/2000/svg" xmlns:xlink="http://www.w3.org/1999/xlink" x="0px" y="0px"
	 viewBox="-289 381 32 32" style="enable-background:new -289 381 32 32;" xml:space="preserve">
<style type="text/css">
	.st0{fill:none;}
	.st1{fill:#8F9BA8;}
	.st2{fill:#F0F7F7;}
	.st3{fill:#F8F7F1;stroke:#8F9BA8;stroke-width:1.5;stroke-miterlimit:10;}
	.st4{fill:none;stroke:#8F9BA8;stroke-width:1.5;stroke-miterlimit:10;}
</style>
<g>
	<g>
		<path class="st0" d="M-268.9,407.1c-0.3-1.8,0.2-3.9,1.7-5c0.8-0.8,1.9-1.3,3.4-1.3c0.4,0,0.8,0,1.1,0.1c0.4,0.1,0.9,0.2,1.2,0.3
			v-10.7l-8.4-8.4h-16.5v29h19.5C-268.2,410.2-268.9,408.7-268.9,407.1z"/>
		<path class="st1" d="M-267.7,410.4h-17.9v-27.5h15.5l8,8v10.2c0.6,0.1,1.1,0.4,1.5,0.7v-11.4l-8.8-8.8H-287v30.5h22.2
			C-266.1,411.7-267,411.1-267.7,410.4z"/>
	</g>
	<g>
		<polygon class="st2" points="-269.8,391.1 -261.4,391.1 -269.8,382.7 		"/>
		<path class="st1" d="M-261.3,391.6h-8.4c-0.4,0-0.8-0.3-0.8-0.8v-8.4c0-0.3,0.2-0.6,0.5-0.7s0.6-0.1,0.8,0.2l8.4,8.4
			c0.2,0.2,0.3,0.5,0.2,0.8C-260.8,391.4-261,391.6-261.3,391.6z M-269,390.1h5.8l-5.8-5.8V390.1z"/>
	</g>
	<g>
		<line class="st1" x1="-280.9" y1="388.1" x2="-275.2" y2="388.1"/>
		<rect x="-280.9" y="387.4" class="st1" width="5.7" height="1.5"/>
	</g>
	<g>
		<line class="st1" x1="-280.9" y1="392.4" x2="-275.2" y2="392.4"/>
		<rect x="-280.9" y="391.6" class="st1" width="5.7" height="1.5"/>
	</g>
	<g>
		<line class="st1" x1="-280.9" y1="396.6" x2="-266.9" y2="396.6"/>
		<rect x="-280.9" y="395.9" class="st1" width="14" height="1.5"/>
	</g>
	<g>
		<line class="st1" x1="-280.9" y1="400.8" x2="-266.9" y2="400.8"/>
		<rect x="-280.9" y="400.1" class="st1" width="14" height="1.5"/>
	</g>
	<g>
		<path class="st1" d="M-280.9,405.1c3.8,0,7.6,0,11.5,0"/>
		<path class="st1" d="M-268.7,404.3h-12.2v1.5h11.9C-269,405.3-268.9,404.8-268.7,404.3z"/>
	</g>
</g>
<ellipse class="st3" cx="-263.5" cy="406.3" rx="3.7" ry="3.7"/>
<line class="st4" x1="-260.7" y1="409.6" x2="-258.2" y2="412.4"/>
</svg>
