<?xml version="1.0" encoding="utf-8"?>
<!-- Generator: Adobe Illustrator 19.1.0, SVG Export Plug-In . SVG Version: 6.00 Build 0)  -->
<svg version="1.1" id="Layer_1" xmlns="http://www.w3.org/2000/svg" xmlns:xlink="http://www.w3.org/1999/xlink" x="0px" y="0px"
	 viewBox="-289 381 32 32" style="enable-background:new -289 381 32 32;" xml:space="preserve">
<style type="text/css">
	.st0{fill:none;stroke:#8F9BA8;stroke-width:1.5;stroke-miterlimit:10;}
	.st1{fill:#F0F7F7;stroke:#8F9BA8;stroke-width:1.5;stroke-miterlimit:10;}
</style>
<g>
	<path class="st0" d="M-258.7,398.9v-4.8h-2.9c-0.3-1.5-0.9-2.9-1.7-4.1l2.1-2.1l-3.4-3.4l-2.1,2.1c-1.2-0.8-2.6-1.4-4.1-1.7V382
		h-4.8v2.9c-1.5,0.3-2.9,0.9-4.1,1.7l-2.1-2.1l-3.4,3.4l2.1,2.1c-0.8,1.2-1.4,2.6-1.7,4.1h-2.9v4.8h2.9c0.3,1.5,0.9,2.9,1.7,4.1
		l-2.1,2.1l3.4,3.4l2.1-2.1c1.2,0.8,2.6,1.4,4.1,1.7v2.9h4.8v-2.9c1.5-0.3,2.9-0.9,4.1-1.7l2.1,2.1l3.4-3.4l-2.1-2.1
		c0.8-1.2,1.4-2.6,1.7-4.1H-258.7z"/>
	<path class="st1" d="M-273.2,388.8c-4.2,0-7.7,3.4-7.7,7.7c0,4.2,3.4,7.7,7.7,7.7c4.2,0,7.7-3.4,7.7-7.7
		C-265.5,392.3-269,388.8-273.2,388.8z M-273.3,400c-4.6,0-4.6-7.2,0-7.2C-268.7,392.8-268.7,400-273.3,400z"/>
</g>
</svg>
