<?xml version="1.0" encoding="utf-8"?>
<!-- Generator: Adobe Illustrator 19.1.0, SVG Export Plug-In . SVG Version: 6.00 Build 0)  -->
<svg version="1.1" id="Layer_1" xmlns="http://www.w3.org/2000/svg" xmlns:xlink="http://www.w3.org/1999/xlink" x="0px" y="0px"
	 viewBox="8 -8 32 32" style="enable-background:new 8 -8 32 32;" xml:space="preserve">
<style type="text/css">
	.st0{fill:#BEBBDD;stroke:#BEBBDD;stroke-miterlimit:10;}
	.st1{fill:#A194C7;}
	.st2{enable-background:new    ;}
</style>
<g>
	<path class="st0" d="M18.4,12.6L18.4,12.6L18.4,12.6C12.7,12.6,8,8,8,2.3C8-0.5,9.1-3,11.1-5s4.5-3,7.3-3l0,0
		c5.7,0,10.4,4.6,10.4,10.4c0,2.8-1.1,5.4-3.1,7.3C23.7,11.6,21.2,12.6,18.4,12.6z M18.4,11.6L18.4,11.6c2.5,0,4.8-1,6.6-2.7
		s2.7-4.1,2.7-6.6c0-5.2-4.2-9.4-9.4-9.4l0,0c-2.5,0-4.8,1-6.6,2.7S9-0.3,9,2.2C9,7.5,13.2,11.6,18.4,11.6L18.4,11.6z"/>
</g>
<g>
	<path class="st0" d="M29.6,3.2c-0.5,0-0.9,0-1.4,0.1c0,0.3-0.1,0.7-0.1,1c0.5-0.1,0.9-0.1,1.4-0.1c5.2,0,9.4,4.2,9.4,9.4
		c0,2.5-1,4.8-2.7,6.6C34.4,22,32.1,23,29.6,23c-5.2,0-9.4-4.2-9.4-9.4c0-0.5,0.1-1,0.1-1.5c-0.2,0-0.4,0-0.6,0s-0.3,0-0.4,0
		c-0.1,0.5-0.1,1-0.1,1.6c0,5.7,4.7,10.4,10.4,10.4c2.8,0,5.4-1,7.4-2.9c2-2,3.1-4.6,3.1-7.4C40,7.9,35.3,3.2,29.6,3.2z"/>
</g>
<path class="st1" d="M24.7-1.4v-1.5h-5.9v-2.2h-1.5v2.2H12v1.5h8.6c-0.5,1-1.3,2.6-2.4,4.3c-1.1-1.3-1.7-2.2-1.8-2.2L16,0.1L14.7,1
	l0.5,0.6c0,0,0.8,1.1,2,2.6c-0.8,1-2.4,2.7-3.2,3.5l1.1,1.1c0.7-0.7,2.1-2.2,3.1-3.4c1.2,1.4,2.4,2.8,3.5,3.9l0.5,0.5l1.1-1.1
	l-0.5-0.5c-1.2-1.2-2.4-2.5-3.7-4.1c1.6-2.4,2.7-4.6,3.1-5.5L24.7-1.4L24.7-1.4z"/>
<g>
	<g class="st2">
		<path class="st1" d="M27.4,16.1l-1.3,4h-1.7l4.4-12.8h2l4.4,12.8h-1.8l-1.4-4H27.4z M31.6,14.8l-1.3-3.7c-0.3-0.8-0.5-1.6-0.7-2.3
			l0,0c-0.2,0.8-0.4,1.5-0.7,2.3l-1.3,3.7H31.6z"/>
	</g>
</g>
<path class="st1" d="M29-3.6L29-3.6L29-3.6L29-3.6v0.2l0,0c0,0,0,0,0,0.1l0,0v0.1v0.1l0,0c0,0,0,0,0,0.1l0,0c0,0,0,0,0.1,0.1l0,0
	c0,0,0.1,0,0.1,0.1L33-0.6c0.4,0.2,0.8,0.1,1.1-0.2c0.2-0.4,0.1-0.8-0.2-1.1l-2.4-1.6C33-4,34.8-3.7,36.2-2.7l0,0
	c1.8,1.3,2.6,3.5,2.1,5.6c-0.1,0.4,0.2,0.8,0.6,0.9l0,0c0.4,0.1,0.8-0.2,0.9-0.6c0.6-2.8-0.5-5.6-2.7-7.3c-1.6-1.2-3.5-1.6-5.4-1.2
	l1-1.6c0.2-0.4,0.1-0.9-0.2-1.1c-0.4-0.2-0.9-0.1-1.1,0.2L29.1-4l0,0l0,0c0,0,0,0,0,0.1l0,0v0.1L29-3.6C29-3.7,29-3.7,29-3.6L29-3.6
	L29-3.6z"/>
<path class="st1" d="M19,19.6L19,19.6v-0.1l0,0v-0.1l0,0c0,0,0,0,0-0.1l0,0v-0.1v-0.1l0,0c0,0,0,0,0-0.1l0,0c0,0,0,0-0.1-0.1l0,0
	c0,0-0.1,0-0.1-0.1L15,16.6c-0.4-0.2-0.8-0.1-1.1,0.2c-0.2,0.4-0.1,0.8,0.2,1.1l2.4,1.6c-1.5,0.5-3.3,0.2-4.7-0.8l0,0
	c-1.8-1.3-2.6-3.5-2.1-5.6c0.1-0.4-0.2-0.8-0.6-0.9c-0.4-0.1-0.8,0.2-0.9,0.6c-0.6,2.8,0.5,5.6,2.7,7.3c0.8,0.6,1.8,1,2.8,1.2
	c0.8,0.2,1.7,0.2,2.6,0l-1,1.6c-0.2,0.4-0.1,0.9,0.2,1.1c0-0.1,0.1,0,0.2,0c0.3,0,0.7-0.1,0.8-0.4l2.4-3.6l0,0l0,0c0,0,0,0,0-0.1
	l0,0v-0.1L19,19.6C19,19.7,19,19.7,19,19.6C19,19.7,19,19.7,19,19.6L19,19.6z"/>
</svg>
