<?xml version="1.0" encoding="utf-8"?>
<!-- Generator: Adobe Illustrator 19.1.0, SVG Export Plug-In . SVG Version: 6.00 Build 0)  -->
<svg version="1.1" id="Layer_1" xmlns="http://www.w3.org/2000/svg" xmlns:xlink="http://www.w3.org/1999/xlink" x="0px" y="0px"
	 viewBox="7 -8 32 32" style="enable-background:new 7 -8 32 32;" xml:space="preserve">
<style type="text/css">
	.st0{fill:#C2E2C8;stroke:#26AB5E;stroke-width:1.5;stroke-miterlimit:10;}
	.st1{fill:#FFFFFF;stroke:#26AB5E;stroke-width:1.5;stroke-miterlimit:10;}
</style>
<g>
	<polygon class="st0" points="9.7,12.2 8,11.3 8,18.6 14.8,22.5 14.8,20.5 14.8,14.8 	"/>
	<g>
		<polygon class="st1" points="22.8,13.4 22.8,11.4 16,14.6 16.2,22.5 18,21.6 22.8,19 		"/>
	</g>
	<polygon class="st1" points="22,10.2 15.4,14 8.7,10.2 15.4,6.4 	"/>
	<polygon class="st0" points="17.5,-1.2 15.8,-2.1 15.8,5.2 22.6,9.1 22.6,7.1 22.6,1.4 	"/>
	<g>
		<polygon class="st1" points="30.4,0 30.5,-2 23.7,1.4 23.9,9.1 25.7,8.2 30.3,5.6 		"/>
	</g>
	<polygon class="st1" points="29.8,-3.2 23.2,0.6 16.5,-3.2 23.2,-7 	"/>
	<polygon class="st0" points="24.9,12.1 23.2,11.2 23.2,18.6 30,22.4 30,20.4 30,14.7 	"/>
	<g>
		<polygon class="st1" points="37.9,13.4 37.9,11.3 31.1,14.6 31.4,22.5 33.1,21.6 37.9,19.1 		"/>
	</g>
	<polygon class="st1" points="37.2,10.2 30.6,13.9 23.9,10.2 30.6,6.3 	"/>
</g>
</svg>
