<?xml version="1.0" encoding="utf-8"?>
<!-- Generator: Adobe Illustrator 19.1.0, SVG Export Plug-In . SVG Version: 6.00 Build 0)  -->
<svg version="1.1" id="Layer_1" xmlns="http://www.w3.org/2000/svg" xmlns:xlink="http://www.w3.org/1999/xlink" x="0px" y="0px"
	 viewBox="-289 381 32 32" style="enable-background:new -289 381 32 32;" xml:space="preserve">
<style type="text/css">
	.st0{fill:#28AB5F;}
	.st1{fill:#BFECCB;}
</style>
<g>
	<g>
		<path class="st0" d="M-261.6,412.3h-22.8c-2.1,0-3.8-1.7-3.8-3.9v-15.8c0-0.4,0.3-0.8,0.8-0.8h29c0.4,0,0.8,0.3,0.8,0.8v15.8
			C-257.7,410.5-259.5,412.3-261.6,412.3z M-286.7,393.3v15.1c0,1.3,1,2.4,2.3,2.4h22.9c1.3,0,2.3-1.1,2.3-2.4v-15.1H-286.7z"/>
	</g>
	<g>
		<path class="st1" d="M-258.5,389.7c0-1.7-1.4-3.1-3.1-3.1h-12.1c-1.3,0-2.5-0.8-2.9-2.1l0,0c-0.4-1.2-1.6-2-2.9-2h-5
			c-1.7,0-3.1,1.4-3.1,3.1v7h29v-2.9H-258.5z"/>
		<path class="st0" d="M-258.5,393.3h-29c-0.4,0-0.8-0.3-0.8-0.8v-7c0-2.1,1.7-3.9,3.8-3.9h5c1.6,0,3.1,1,3.6,2.6
			c0.3,0.9,1.2,1.6,2.2,1.6h12.1c2.1,0,3.8,1.7,3.8,3.9v2.8C-257.7,393-258.1,393.3-258.5,393.3z M-286.7,391.8h27.5v-2.1
			c0-1.3-1-2.4-2.3-2.4h-12.2c-1.6,0-3.1-1-3.6-2.6c-0.3-0.9-1.2-1.6-2.2-1.6h-5c-1.3,0-2.3,1.1-2.3,2.4L-286.7,391.8L-286.7,391.8z
			"/>
	</g>
</g>
</svg>
