<?xml version="1.0" encoding="utf-8"?>
<!-- Generator: Adobe Illustrator 19.1.0, SVG Export Plug-In . SVG Version: 6.00 Build 0)  -->
<svg version="1.1" id="Layer_1" xmlns="http://www.w3.org/2000/svg" xmlns:xlink="http://www.w3.org/1999/xlink" x="0px" y="0px"
	 viewBox="-289 381 32 32" style="enable-background:new -289 381 32 32;" xml:space="preserve">
<style type="text/css">
	.st0{fill:none;stroke:#B8AEE0;stroke-width:1.5;stroke-miterlimit:10;}
	.st1{fill:#C6BDE8;stroke:#B8AEE0;stroke-width:1.5;stroke-miterlimit:10;}
</style>
<g>
	<circle class="st0" cx="-273" cy="397" r="14.5"/>
	<path class="st1" d="M-283.2,398.1c1.6,0.1,1.7,2.5,2.9,3.4c0.7,0.5,1.6,0.5,2.4,0.5c0.4,0,0.9,0,1.2-0.3s0.3-0.7,0.3-1.1
		c0-2-0.1-4-0.1-6c0-0.9-0.1-2-1-2.4c-0.4-0.2-0.9-0.2-1.3-0.2c-0.3,0-0.6-0.1-0.8-0.2c-1.4-0.4-1.3-2.4,0.1-2.8
		c1-0.3,1.9-0.6,2.9-0.9c0.4-0.1,0.8-0.3,1-0.6c0.5-0.6,0.2-1.6-0.2-2.3s-0.8-1.3-1.2-1.9c-6,1.8-10.4,7.3-10.4,13.9
		c0,0.7,0.1,1.4,0.2,2.1c1-0.2,2-0.5,3-0.8C-283.9,398.1-283.6,398-283.2,398.1z"/>
	<path class="st1" d="M-267.9,386.5c0,0.4,0,0.7,0.3,1s0.8,0.4,1.2,0.4c1,0.1,2.1,0.1,3.1,0.1c0.5,0,1-0.1,1.5-0.3
		c-1.6-1.9-3.6-3.3-6-4.2C-268,384.4-268,385.5-267.9,386.5z"/>
	<path class="st1" d="M-258.5,397c0-1.2-0.1-2.3-0.4-3.3c-1.4-0.2-2.8-0.7-4.1-1.1c-0.8-0.3-1.6-0.6-2.5-0.8
		c-1.3-0.5-2.9-0.9-4.1-0.2c-1,0.6-1.4,1.8-1.8,3c-0.2,0.7-0.4,1.4-0.1,2c0.5,0.9,1.8,0.9,2.8,1.3c1.5,0.7,2.2,2.5,2,4.2
		c-0.2,1.6-1,3.1-1.7,4.6c-0.7,1.4-1.3,2.9-1.2,4.4C-263.3,409.6-258.5,403.9-258.5,397z"/>
</g>
</svg>
