<?xml version="1.0" encoding="utf-8"?>
<!-- Generator: Adobe Illustrator 19.1.0, SVG Export Plug-In . SVG Version: 6.00 Build 0)  -->
<svg version="1.1" id="Layer_1" xmlns="http://www.w3.org/2000/svg" xmlns:xlink="http://www.w3.org/1999/xlink" x="0px" y="0px"
	 viewBox="0 0 32 32" style="enable-background:new 0 0 32 32;" xml:space="preserve">
<style type="text/css">
	.st0{fill:#23AB5D;}
	.st1{fill:#C2E2C8;stroke:#20AB5C;stroke-width:1.5;stroke-miterlimit:10;}
	.st2{fill:none;stroke:#21AD5D;stroke-linejoin:round;stroke-miterlimit:10;}
	.st3{fill:#20AD5C;}
	.st4{font-family:'OpenSans';}
	.st5{font-size:21.3647px;}
</style>
<g>
	<g>
		<path class="st0" d="M28.4,9.3l0.3-1c0,0.2,0.7-0.5-0.1-0.2c0,0,1.1-1.3-0.5,0.4C28,8.7,28.5,9.1,28.4,9.3c0,0-0.8-0.2-0.8-0.2
			l0,1.7v7.3c-0.7-0.2-1.4-0.3-2.2-0.3c-4,0-7.2,3.3-7.2,7.4c0,1,0.2,1.9,0.6,2.8H2.6V2.3l19.7,0l-0.8-0.4c0.1,0-0.4-0.2-0.3-0.2
			c0.1,0,0.5,0.2,0.6,0.2c0.3-0.1-0.6-0.6-0.2-0.6l-0.5,0c0-0.4-0.6-0.6-1-0.6H1.8c-0.4,0-0.8,0.3-0.8,0.8v27.3
			c0,0.4,0.3,0.8,0.8,0.8H20c0.3,0,0.5-0.1,0.7-0.4c0.1-0.2,0.1-0.5,0-0.8c-0.6-1-0.9-2.1-0.9-3.2c0-3.3,2.6-5.9,5.7-5.9
			c0.9,0,1.8,0.2,2.6,0.6c0.2,0.1,0.5,0.1,0.7,0c0.2-0.1,0.4-0.4,0.4-0.6v-9.2C29.2,9.6,28.9,9.3,28.4,9.3z"/>
	</g>
	<path class="st0" d="M28.4,0.8h-8.4c-0.3,0-0.6,0.2-0.7,0.5S19.3,1.8,19.6,2l0.2,0.2c0.3,0,0.6-0.1,0.9-0.1c0.4,0,0.9,0,1.3,0.1
		l-0.1,0h5.8l0,7.4L28,10c0,0,0.7,2.2,0,0.6c0.2,0.7,0-1.3-0.1-0.5l-0.1,0.5c0.1,0.1,0.3,0.2,0.5,0.2c0.1,0,0.2,0,0.3-0.1
		c0.3-0.1,0.5-0.4,0.5-0.7V1.5C29.2,1.1,28.9,0.8,28.4,0.8z"/>
	<path class="st1" d="M28.4,19.2c-0.9-0.5-1.9-0.7-2.9-0.7c-3.6,0-6.5,3-6.5,6.6c0,1.3,0.4,2.6,1,3.6c1.2,1.8,3.2,3,5.5,3
		c3.6,0,6.5-3,6.5-6.6C32,22.6,30.6,20.3,28.4,19.2z"/>
</g>
<g>
	<path class="st2" d="M29.1,26.6c-0.5,1.8-2.4,2.9-4.3,2.4c-1.8-0.5-2.9-2.4-2.4-4.3c0.5-1.8,2.4-2.9,4.3-2.4c1,0.3,1.8,1,2.2,1.9"
		/>
	<polyline class="st2" points="29.3,22.3 29.1,24.5 26.8,24.1 	"/>
</g>
<text transform="matrix(1 0 0 1 8.8442 21.666)" class="st3 st4 st5">9</text>
</svg>
