<?xml version="1.0" encoding="utf-8"?>
<!-- Generator: Adobe Illustrator 19.1.0, SVG Export Plug-In . SVG Version: 6.00 Build 0)  -->
<svg version="1.1" id="Layer_1" xmlns="http://www.w3.org/2000/svg" xmlns:xlink="http://www.w3.org/1999/xlink" x="0px" y="0px"
	 viewBox="-289 381 32 32" style="enable-background:new -289 381 32 32;" xml:space="preserve">
<style type="text/css">
	.st0{fill:none;stroke:#A194D6;stroke-width:1.5;stroke-miterlimit:10;}
	.st1{fill:none;stroke:#A194D6;stroke-width:1.5;stroke-linejoin:round;stroke-miterlimit:10;}
	.st2{fill:#C6BDE8;stroke:#A194D6;stroke-width:1.5;stroke-linejoin:round;stroke-miterlimit:10;}
	.st3{fill:#C6BDE8;stroke:#A194D6;}
	.st4{font-family:'OpenSans-Semibold';}
	.st5{font-size:12px;}
</style>
<path class="st0" d="M-278.5,390.4c0-2.3,1.9-4.1,4.2-4.1c2.2,0,4,1.9,4,4c0,1.5-0.7,2.8-1.9,3.5c-1.3,0.8-2.2,2.2-2.2,3.8v0.2"/>
<g>
	<path class="st1" d="M-285.4,408.4v-21.9c0-2.2,1.8-3.9,3.9-3.9h18.5v22.8"/>
	<path class="st2" d="M-263,405.3h-19.3c-1.7,0-3.1,1.4-3.1,3.1l0,0c0,1.7,1.4,3.1,3.1,3.1h19.3C-264.6,408.4-263,405.3-263,405.3z"
		/>
</g>
<text transform="matrix(1 0 0 1 -276 402.2503)" class="st3 st4 st5">.</text>
</svg>
