<?xml version="1.0" encoding="utf-8"?>
<!-- Generator: Adobe Illustrator 19.1.0, SVG Export Plug-In . SVG Version: 6.00 Build 0)  -->
<svg version="1.1" id="Layer_1" xmlns="http://www.w3.org/2000/svg" xmlns:xlink="http://www.w3.org/1999/xlink" x="0px" y="0px"
	 viewBox="0 -32 32 32" style="enable-background:new 0 -32 32 32;" xml:space="preserve">
<style type="text/css">
	.st0{fill:#23AB5D;}
	.st1{fill:#C2E2C8;stroke:#20AB5C;stroke-width:1.5;stroke-miterlimit:10;}
	.st2{fill:#20AD5C;}
	.st3{font-family:'OpenSans';}
	.st4{font-size:21.3647px;}
	.st5{letter-spacing:-3;}
	.st6{font-size:12px;}
	.st7{letter-spacing:-1;}
	.st8{font-size:10px;}
	.st9{font-family:'OpenSans-Semibold';}
	.st10{font-size:13.502px;}
	.st11{letter-spacing:-2;}
</style>
<g>
	<g>
		<path class="st0" d="M28.4-22.7l0.3-1c0,0.2,0.7-0.5-0.1-0.2c0,0,1.1-1.3-0.5,0.4C28-23.3,28.5-22.9,28.4-22.7l-0.8-0.2v1.7v7.3
			c-0.7-0.2-1.4-0.3-2.2-0.3c-4,0-7.2,3.3-7.2,7.4c0,1,0.2,1.9,0.6,2.8H2.6v-25.7h19.7l-0.8-0.4c0.1,0-0.4-0.2-0.3-0.2
			s0.5,0.2,0.6,0.2c0.3-0.1-0.6-0.6-0.2-0.6h-0.5c0-0.4-0.6-0.6-1-0.6H1.8C1.4-31.3,1-31,1-30.5v27.3c0,0.4,0.3,0.8,0.8,0.8H20
			c0.3,0,0.5-0.1,0.7-0.4c0.1-0.2,0.1-0.5,0-0.8c-0.6-1-0.9-2.1-0.9-3.2c0-3.3,2.6-5.9,5.7-5.9c0.9,0,1.8,0.2,2.6,0.6
			c0.2,0.1,0.5,0.1,0.7,0s0.4-0.4,0.4-0.6v-9.2C29.2-22.4,28.9-22.7,28.4-22.7z"/>
	</g>
	<path class="st0" d="M28.4-31.2H20c-0.3,0-0.6,0.2-0.7,0.5c-0.1,0.3,0,0.5,0.3,0.7l0.2,0.2c0.3,0,0.6-0.1,0.9-0.1
		c0.4,0,0.9,0,1.3,0.1h-0.1h5.8v7.4L28-22c0,0,0.7,2.2,0,0.6c0.2,0.7,0-1.3-0.1-0.5l-0.1,0.5c0.1,0.1,0.3,0.2,0.5,0.2
		c0.1,0,0.2,0,0.3-0.1c0.3-0.1,0.5-0.4,0.5-0.7v-8.5C29.2-30.9,28.9-31.2,28.4-31.2z"/>
	<path class="st1" d="M28.4-12.8c-0.9-0.5-1.9-0.7-2.9-0.7c-3.6,0-6.5,3-6.5,6.6c0,1.3,0.4,2.6,1,3.6c1.2,1.8,3.2,3,5.5,3
		c3.6,0,6.5-3,6.5-6.6C32-9.4,30.6-11.7,28.4-12.8z"/>
</g>
<text transform="matrix(1 0 0 1 6.8442 -9.709)" class="st2 st3 st4 st5">9</text>
<text transform="matrix(1 0 0 1 18.75 -17.25)"><tspan x="0" y="0" class="st2 st3 st6 st7">.</tspan><tspan x="1.4" y="0" class="st2 st3 st8 st7">1</tspan></text>
<text transform="matrix(1 0 0 1 21.875 -2.1992)" class="st2 st9 st10 st11">+</text>
</svg>
