<?xml version="1.0" encoding="utf-8"?>
<!-- Generator: Adobe Illustrator 19.1.0, SVG Export Plug-In . SVG Version: 6.00 Build 0)  -->
<svg version="1.1" id="Layer_1" xmlns="http://www.w3.org/2000/svg" xmlns:xlink="http://www.w3.org/1999/xlink" x="0px" y="0px"
	 viewBox="0 -32 32 32" style="enable-background:new 0 -32 32 32;" xml:space="preserve">
<style type="text/css">
	.st0{fill:#C2E2C8;stroke:#23AB5D;stroke-miterlimit:10;}
	.st1{fill:#C2E2C8;stroke:#23AB5D;stroke-width:0.7;stroke-miterlimit:10;}
	.st2{fill:#C2E2C8;stroke:#23AB5D;stroke-width:0.5;stroke-miterlimit:10;}
</style>
<g>
	<path class="st0" d="M19.3-17.5c-0.2-1.3-0.7-2.5-1.5-3.5l1.3-1.5l-1.8-1.8l-1.5,1.3c-1-0.7-2.2-1.2-3.5-1.5l-0.2-2H9.6l-0.2,2
		c-1.3,0.2-2.5,0.7-3.5,1.5l-1.5-1.3l-1.8,1.8L3.8-21c-0.7,1-1.2,2.2-1.5,3.5l-2,0.2v2.5l2,0.2c0.2,1.3,0.7,2.5,1.5,3.5L2.6-9.6
		l1.8,1.8l1.5-1.3c1,0.7,2.2,1.2,3.5,1.5l0.2,2h2.5l0.2-2c1.3-0.2,2.5-0.7,3.5-1.5l1.5,1.3l1.8-1.8l-1.3-1.5c0.7-1,1.2-2.2,1.5-3.5
		l2-0.2v-2.5L19.3-17.5z M10.9-10.8c-6.9,0-6.9-10.7,0-10.7C17.8-21.5,17.8-10.8,10.9-10.8z"/>
</g>
<g>
	<path class="st1" d="M32.1-23.4l1-0.4l-0.4-1.3L31.6-25c-0.3-0.6-0.8-1.2-1.4-1.6l0.4-1l-1.2-0.6l-0.6,0.9
		c-0.7-0.2-1.4-0.3-2.1-0.2l-0.4-1l-1.3,0.4l0.2,1.1c-0.6,0.3-1.2,0.8-1.6,1.4l-1-0.4l-0.6,1.2l0.9,0.6c-0.2,0.7-0.3,1.4-0.2,2.1
		l-1,0.4l0.4,1.3l1.1-0.2c0.3,0.6,0.8,1.2,1.4,1.6l-0.4,1l1.2,0.6l0.6-0.9c0.7,0.2,1.4,0.3,2.1,0.2l0.4,1l1.3-0.4l-0.2-1.1
		c0.6-0.3,1.2-0.8,1.6-1.4l1,0.4l0.6-1.2l-0.9-0.6C32.1-22,32.2-22.7,32.1-23.4z M27.4-20.2c-3.4,0-3.4-5.3,0-5.3
		C30.9-25.6,30.9-20.2,27.4-20.2z"/>
</g>
<g>
	<path class="st2" d="M27.3-10.7l0.6-0.2l-0.2-0.8L27-11.6c-0.2-0.4-0.4-0.7-0.7-1l0.3-0.6l-0.7-0.4L25.5-13
		c-0.4-0.1-0.8-0.2-1.2-0.2l-0.2-0.6l-0.8,0.2l0.1,0.6c-0.4,0.2-0.7,0.4-1,0.7l-0.6-0.3l-0.4,0.7l0.5,0.4c-0.1,0.4-0.2,0.8-0.2,1.2
		l-0.6,0.2l0.2,0.8l0.6-0.1c0.2,0.4,0.4,0.7,0.7,1l-0.3,0.6l0.7,0.4l0.4-0.5c0.4,0.1,0.8,0.2,1.2,0.2L25-7.1l0.8-0.2L25.7-8
		c0.4-0.2,0.7-0.4,1-0.7l0.6,0.3l0.4-0.7l-0.5-0.4C27.3-9.9,27.3-10.3,27.3-10.7z M24.6-9.2c-1.6,0-1.6-2.5,0-2.5
		C26.2-11.7,26.2-9.2,24.6-9.2z"/>
</g>
</svg>
