<?xml version="1.0" encoding="utf-8"?>
<!-- Generator: Adobe Illustrator 21.1.0, SVG Export Plug-In . SVG Version: 6.00 Build 0)  -->
<svg version="1.1" id="Layer_1" xmlns="http://www.w3.org/2000/svg" xmlns:xlink="http://www.w3.org/1999/xlink" x="0px" y="0px"
	 viewBox="0 0 32 32" style="enable-background:new 0 0 32 32;" xml:space="preserve">
<style type="text/css">
	.st0{fill:#A194D6;}
</style>
<g>
	<path class="st0" d="M24.5,27.4h-17c-3.7,0-6.7-3-6.7-6.7c0-2.6,1.5-4.9,3.8-6c0-0.3-0.1-0.6-0.1-0.9c0-3.7,3-6.7,6.7-6.7
		c1,0,2,0.2,3,0.7c1.6-2,4-3.1,6.5-3.1c4.6,0,8.4,3.8,8.4,8.4c0,0.8-0.1,1.6-0.4,2.4c1.6,1.3,2.5,3.2,2.5,5.3
		C31.3,24.4,28.2,27.4,24.5,27.4z M11.2,8.5C8.3,8.5,6,10.9,6,13.8c0,0.4,0,0.8,0.1,1.1l0.1,0.6l-0.6,0.2c-2,0.8-3.4,2.7-3.4,4.9
		c0,2.9,2.3,5.2,5.2,5.2h17c2.9,0,5.2-2.3,5.2-5.2c0-1.8-0.9-3.4-2.3-4.4L26.9,16l0.2-0.6c0.3-0.8,0.4-1.6,0.4-2.4
		c0-3.8-3.1-6.9-6.9-6.9c-2.3,0-4.4,1.1-5.7,3l-0.4,0.6L14,9.3C13.1,8.8,12.2,8.5,11.2,8.5z"/>
</g>
<path class="st0" d="M14.6,22l0.3,1.3c0.1,0.5,0.6,0.9,1.1,0.9h0.9c0.5,0,1-0.4,1.1-0.9l0.3-1.3c0.1-0.5,0.6-0.8,1.1-0.6l1.3,0.4
	c0.5,0.1,1.1-0.1,1.3-0.5l0.4-0.8c0.2-0.4,0.2-1.1-0.2-1.4l-1-1c-0.4-0.3-0.4-0.9,0-1.2l1-1c0.4-0.3,0.4-1,0.2-1.4l-0.4-0.8
	c-0.2-0.4-0.8-0.7-1.3-0.5l-1.3,0.4c-0.5,0.1-1-0.1-1.1-0.6l-0.3-1.3c-0.1-0.5-0.6-0.9-1.1-0.9h-0.9c-0.5,0-1,0.4-1.1,0.9L14.6,13
	c-0.1,0.5-0.6,0.8-1.1,0.6l-1.3-0.4c-0.5-0.1-1.1,0.1-1.3,0.5l-0.4,0.8c-0.2,0.4-0.2,1.1,0.2,1.4l1,0.9c0.4,0.3,0.4,0.9,0,1.2l-1,1
	c-0.4,0.3-0.4,1-0.2,1.4l0.4,0.8c0.2,0.4,0.8,0.7,1.3,0.5l1.3-0.4C14,21.3,14.5,21.5,14.6,22z M16.5,15c1.4,0,2.5,1.1,2.5,2.5
	c0,1.4-1.1,2.5-2.5,2.5c-1.4,0-2.5-1.1-2.5-2.5C14,16.1,15.1,15,16.5,15z"/>
</svg>
