<?xml version="1.0" encoding="utf-8"?>
<!-- Generator: Adobe Illustrator 19.1.0, SVG Export Plug-In . SVG Version: 6.00 Build 0)  -->
<svg version="1.1" id="Layer_1" xmlns="http://www.w3.org/2000/svg" xmlns:xlink="http://www.w3.org/1999/xlink" x="0px" y="0px"
	 viewBox="-289 381 32 32" style="enable-background:new -289 381 32 32;" xml:space="preserve">
<style type="text/css">
	.st0{fill:#BFECCB;}
	.st1{fill:#28AB5F;}
	.st2{fill:#FFFFFF;}
</style>
<g>
	<g>
		<path class="st0" d="M-262,404.6v-12.4c0-1.5-1.2-2.7-2.7-2.7h-11.4c-0.8,0-1.6-0.4-2.1-1.1l-0.5-0.7c-0.6-0.6-1.4-1-2.2-1h-3.9
			c-1.5,0-2.7,1.2-2.7,2.7v15.3c0,1.5,1.2,2.7,2.7,2.7h20.1C-263.2,407.3-262,406.1-262,404.6z"/>
		<path class="st1" d="M-264.7,408.1h-20.1c-1.9,0-3.4-1.5-3.4-3.4v-15.3c0-1.9,1.5-3.4,3.4-3.4h3.9c1.1,0,2.1,0.5,2.7,1.4l0.6,0.6
			c0.4,0.5,0.9,0.8,1.5,0.8h11.4c1.9,0,3.4,1.5,3.4,3.4v12.4C-261.3,406.5-262.8,408.1-264.7,408.1z M-284.8,387.4
			c-1.1,0-1.9,0.9-1.9,1.9v15.3c0,1.1,0.9,1.9,1.9,1.9h20.1c1.1,0,1.9-0.9,1.9-1.9v-12.4c0-1.1-0.9-1.9-1.9-1.9h-11.4
			c-1.1,0-2.1-0.5-2.7-1.4l-0.6-0.7c-0.4-0.5-0.9-0.8-1.5-0.8H-284.8z"/>
	</g>
	<g>
		<path class="st2" d="M-283.6,394.9l-2.8,8.9c-0.5,1.7,0.7,3.5,2.5,3.5h19.9c1.2,0,2.2-0.8,2.5-1.9l2.8-8.9
			c0.5-1.7-0.7-3.5-2.5-3.5H-281C-282.2,393-283.2,393.8-283.6,394.9z"/>
		<path class="st1" d="M-264,408.1h-19.8c-1.1,0-2.1-0.5-2.8-1.4c-0.7-0.9-0.8-2-0.5-3.1l2.8-8.9c0.5-1.4,1.8-2.4,3.3-2.4h19.8
			c1.1,0,2.1,0.5,2.8,1.4c0.7,0.9,0.8,2,0.5,3.1l-2.8,8.9C-261.2,407.1-262.5,408.1-264,408.1z M-281,393.8c-0.8,0-1.6,0.5-1.8,1.3
			l-2.8,8.9c-0.2,0.6-0.1,1.2,0.3,1.7c0.4,0.5,0.9,0.8,1.6,0.8h19.7c0.8,0,1.6-0.5,1.8-1.3l2.8-8.9c0.2-0.6,0.1-1.2-0.3-1.7
			c-0.4-0.5-0.9-0.8-1.6-0.8C-261.3,393.8-281,393.8-281,393.8z"/>
	</g>
</g>
</svg>
