<?xml version="1.0" encoding="utf-8"?>
<!-- Generator: Adobe Illustrator 19.1.0, SVG Export Plug-In . SVG Version: 6.00 Build 0)  -->
<svg version="1.1" id="Layer_1" xmlns="http://www.w3.org/2000/svg" xmlns:xlink="http://www.w3.org/1999/xlink" x="0px" y="0px"
	 viewBox="-289 381 32 32" style="enable-background:new -289 381 32 32;" xml:space="preserve">
<style type="text/css">
	.st0{fill:#79C693;}
</style>
<g>
	<g>
		<path class="st0" d="M-262.6,412.3h-20.8c-2.7,0-4.8-2.2-4.8-4.8v-20.9c0-2.7,2.2-4.8,4.8-4.8h20.8c2.7,0,4.8,2.2,4.8,4.8v20.8
			C-257.7,410.1-259.9,412.3-262.6,412.3z M-283.4,383.3c-1.8,0-3.3,1.5-3.3,3.3v20.8c0,1.8,1.5,3.3,3.3,3.3h20.8
			c1.8,0,3.3-1.5,3.3-3.3v-20.8c0-1.8-1.5-3.3-3.3-3.3H-283.4z"/>
	</g>
	<g>
		<rect x="-273.8" y="389.7" class="st0" width="1.5" height="14.6"/>
	</g>
	<g>
		<rect x="-280.3" y="396.3" class="st0" width="14.6" height="1.5"/>
	</g>
</g>
</svg>
