<?xml version="1.0" encoding="utf-8"?>
<!-- Generator: Adobe Illustrator 19.1.0, SVG Export Plug-In . SVG Version: 6.00 Build 0)  -->
<svg version="1.1" id="Layer_1" xmlns="http://www.w3.org/2000/svg" xmlns:xlink="http://www.w3.org/1999/xlink" x="0px" y="0px"
	 viewBox="-289 381 32 32" style="enable-background:new -289 381 32 32;" xml:space="preserve">
<style type="text/css">
	.st0{fill:none;stroke:#23AB5D;stroke-width:1.5;stroke-miterlimit:10;}
	.st1{fill:#C2E2C8;stroke:#23AB5D;stroke-width:1.5;stroke-miterlimit:10;}
</style>
<g>
	<path class="st0" d="M-283.3,391.2v18.5c0,1,0.8,1.8,1.8,1.8h15.1c1,0,1.8-0.8,1.8-1.8v-18.5H-283.3z"/>
	<path class="st0" d="M-270.4,382.5h-7.2c-0.8,0-1.5,0.7-1.5,1.5v2.5h10.3V384C-268.9,383.2-269.6,382.5-270.4,382.5z"/>
	<line class="st0" x1="-277.1" y1="396.7" x2="-277.1" y2="406"/>
	<line class="st0" x1="-271" y1="396.7" x2="-271" y2="406"/>
	<path class="st1" d="M-263.7,391.2h-20.7c-0.5,0-0.9-0.4-0.9-0.9v-2.8c0-0.5,0.4-0.9,0.9-0.9h20.7c0.5,0,0.9,0.4,0.9,0.9v2.8
		C-262.8,390.8-263.2,391.2-263.7,391.2z"/>
</g>
</svg>
