<?xml version="1.0" encoding="utf-8"?>
<!-- Generator: Adobe Illustrator 19.1.0, SVG Export Plug-In . SVG Version: 6.00 Build 0)  -->
<svg version="1.1" id="Layer_1" xmlns="http://www.w3.org/2000/svg" xmlns:xlink="http://www.w3.org/1999/xlink" x="0px" y="0px"
	 viewBox="-289 381 32 32" style="enable-background:new -289 381 32 32;" xml:space="preserve">
<style type="text/css">
	.st0{fill:#C2E2C8;stroke:#23AB5D;stroke-width:1.5;stroke-miterlimit:10;}
	.st1{fill:none;stroke:#23AB5D;stroke-width:1.5;stroke-miterlimit:10;}
</style>
<g>
	<path class="st0" d="M-262,409.4c-1.5-5.6-5.3-9.5-9.6-9.5s-8.1,3.9-9.6,9.5c2.7,1.4,6,2.3,9.6,2.3
		C-268,411.7-264.7,410.8-262,409.4z"/>
	<ellipse class="st1" cx="-271.6" cy="391.4" rx="3.9" ry="4.3"/>
	<path class="st0" d="M-255.8,398.7c-0.9-3.2-3-5.5-5.5-5.5c-2.5,0-4.6,2.3-5.5,5.5c1.5,0.8,3.5,1.3,5.5,1.3
		C-259.2,400.1-257.3,399.6-255.8,398.7z"/>
	<ellipse class="st1" cx="-261.3" cy="388.4" rx="2.3" ry="2.5"/>
	<path class="st0" d="M-276.7,398.7c-0.9-3.2-3-5.5-5.5-5.5c-2.5,0-4.6,2.3-5.5,5.5c1.5,0.8,3.5,1.3,5.5,1.3
		C-280.2,400.1-278.3,399.6-276.7,398.7z"/>
	<ellipse class="st1" cx="-282.3" cy="388.4" rx="2.3" ry="2.5"/>
</g>
</svg>
