<?xml version="1.0" encoding="utf-8"?>
<!-- Generator: Adobe Illustrator 19.1.0, SVG Export Plug-In . SVG Version: 6.00 Build 0)  -->
<svg version="1.1" id="Layer_1" xmlns="http://www.w3.org/2000/svg" xmlns:xlink="http://www.w3.org/1999/xlink" x="0px" y="0px"
	 viewBox="-289 381 32 32" style="enable-background:new -289 381 32 32;" xml:space="preserve">
<style type="text/css">
	.st0{fill:#F8F7F1;}
	.st1{fill:#B3A69B;}
</style>
<rect x="-284.2" y="387.9" transform="matrix(0.7071 0.7071 -0.7071 0.7071 193.1718 312.519)" class="st0" width="7.1" height="3.1"/>
<rect x="-284.1" y="402.6" transform="matrix(-0.7071 0.7071 -0.7071 -0.7071 -193.1243 888.3254)" class="st0" width="7.1" height="3.1"/>
<rect x="-269.5" y="388" transform="matrix(-0.7071 0.7071 -0.7071 -0.7071 -178.5435 853.1244)" class="st0" width="7.1" height="3.1"/>
<rect x="-269.3" y="402.8" transform="matrix(0.7071 0.7071 -0.7071 0.7071 208.1022 306.3346)" class="st0" width="7.1" height="3.1"/>
<path class="st1" d="M-262.2,385.9c-6.1-6.1-16-6.1-22,0c-6.1,6.1-6.1,16,0,22c6.1,6.1,16,6.1,22,0
	C-256.2,401.8-256.2,391.9-262.2,385.9z M-262.4,404l-3.8-3.8c0.9-2.2,0.9-4.6,0-6.8l3.8-3.8C-259.6,394-259.6,399.7-262.4,404z
	 M-264.1,406c-0.3,0.3-0.6,0.6-1,0.8l-3.7-3.7c0.4-0.2,0.7-0.6,1-0.8s0.6-0.6,0.8-1l3.7,3.7C-263.4,405.4-263.8,405.8-264.1,406z
	 M-276.9,400.5c-2-2-2-5.3,0-7.3s5.3-2,7.3,0s2,5.3,0,7.3S-274.9,402.6-276.9,400.5z M-263.3,388.7l-3.7,3.7c-0.2-0.4-0.6-0.7-0.8-1
	s-0.6-0.6-1-0.8l3.7-3.7c0.4,0.2,0.7,0.6,1,0.8S-263.4,388.3-263.3,388.7z M-266.1,386.1l-3.8,3.8c-2.2-0.9-4.6-0.9-6.8,0l-3.8-3.8
	C-276.1,383.2-270.4,383.2-266.1,386.1z M-279.6,392.4l-3.7-3.7c0.2-0.4,0.6-0.7,0.8-1s0.6-0.6,1-0.8l3.7,3.7
	c-0.4,0.2-0.7,0.6-1,0.8S-279.4,392-279.6,392.4z M-284.1,389.7l3.8,3.8c-1,2.1-1,4.5,0,6.8l-3.8,3.8
	C-286.9,399.7-286.9,394-284.1,389.7z M-283.2,405l3.7-3.7c0.2,0.4,0.6,0.7,0.8,1s0.6,0.6,1,0.8l-3.7,3.7c-0.3-0.3-0.7-0.6-1-0.8
	S-283.1,405.4-283.2,405z M-280.4,407.7l3.8-3.8c2.1,1,4.5,1,6.8,0l3.8,3.8C-270.4,410.5-276.1,410.5-280.4,407.7z"/>
</svg>
