<?xml version="1.0" encoding="utf-8"?>
<!-- Generator: Adobe Illustrator 19.1.0, SVG Export Plug-In . SVG Version: 6.00 Build 0)  -->
<svg version="1.1" id="Layer_1" xmlns="http://www.w3.org/2000/svg" xmlns:xlink="http://www.w3.org/1999/xlink" x="0px" y="0px"
	 viewBox="-289 381 32 32" style="enable-background:new -289 381 32 32;" xml:space="preserve">
<style type="text/css">
	.st0{clip-path:url(#SVGID_2_);fill:#CE7D41;}
</style>
<g>
	<g>
		<defs>
			<rect id="SVGID_1_" x="-287" y="381" width="27" height="32"/>
		</defs>
		<clipPath id="SVGID_2_">
			<use xlink:href="#SVGID_1_"  style="overflow:visible;"/>
		</clipPath>
		<path class="st0" d="M-261.5,384.9c-1.3-2-3.4-3.2-6.2-3.7c-0.9-0.1-1.8-0.2-2.7-0.2c-4.6,0-8.7,2-11.8,5.9
			c-2,2.5-3.5,5.7-4.2,9.1c-0.7,3.3-0.8,6.7-0.1,9.6l0,0c0.6,2.3,2.7,5.6,5.5,5.6c0.9,0,2.2-0.3,3.4-1.9c0.5-0.6,0.9-1.3,1.3-1.8
			c1-1.5,1.4-2.1,2.2-2.1c0.2,0,0.4,0,0.7,0.1c0.7-2,1.4-4,1.6-4.5c0.2-0.6,0.6-1.3,1.3-2.3c0-0.1-0.1-0.2-0.1-0.4
			c-0.3-1.1-0.2-2.4,0.4-3.8c0.6-1.4,1.4-2.5,2.5-3.3c1-0.7,2.1-1.1,3.2-1.1h0c0.2,0,0.4,0,0.5,0.1c0.3,0.1,0.5,0.3,0.7,0.6
			c0.3,0.4,0.2,1,0,1.4c-0.2,0.2-0.1,0.4,0.2,1.3c0.4,1,0.9,2.3,0.2,4c-0.7,2-1.9,2.9-2.7,3.3c-0.2,1.1-0.5,2-0.7,2.5
			c-0.1,0.2-0.2,0.4-0.4,0.8c1-0.8,2-1.8,2.9-3c2.1-2.8,3.5-6.4,3.8-9.7C-259.9,388.9-260.3,386.6-261.5,384.9L-261.5,384.9z
			 M-281.6,399.9c-1.3,0-2.3-1-2.3-2.3c0-1.3,1-2.3,2.3-2.3s2.3,1,2.3,2.3C-279.3,398.8-280.3,399.9-281.6,399.9L-281.6,399.9z
			 M-279,393.7c-1.3,0-2.3-1-2.3-2.3c0-1.3,1-2.3,2.3-2.3c1.3,0,2.3,1,2.3,2.3C-276.7,392.7-277.7,393.7-279,393.7L-279,393.7z
			 M-274.4,389.1c-1.3,0-2.3-1-2.3-2.3c0-1.3,1-2.3,2.3-2.3c1.3,0,2.3,1,2.3,2.3S-273.1,389.1-274.4,389.1L-274.4,389.1z
			 M-267.2,388.6c-1.3,0-2.3-1-2.3-2.3s1-2.3,2.3-2.3c1.3,0,2.3,1,2.3,2.3S-266,388.6-267.2,388.6L-267.2,388.6z M-267.2,388.6"/>
		<path class="st0" d="M-264.4,391.3c0,0-0.1-0.1-0.1-0.1c0,0-0.1,0-0.1,0c-1.5,0-3.6,1.2-4.7,3.8c-0.5,1.2-0.6,2.2-0.4,3.1
			c0.1,0.2,0.1,0.4,0.3,0.6l2.8,1.1c0.1,0,0.3-0.1,0.4-0.1c0.6-0.3,1.5-1,2.1-2.6c0.5-1.3,0.1-2.3-0.2-3.2c-0.3-0.9-0.6-1.5-0.1-2.3
			C-264.4,391.5-264.4,391.4-264.4,391.3L-264.4,391.3z M-264.8,396.7c0,0-0.1,1.2-1.3,2c0,0,0,0-0.1,0c-0.2,0.1-0.5,0-0.6-0.2
			c-0.1-0.1-0.1-0.2-0.1-0.4c0-0.1,0.1-0.2,0.2-0.3c0.8-0.5,0.9-1.2,0.9-1.2c0-0.2,0.1-0.4,0.3-0.4c0,0,0,0,0,0c0.1,0,0.1,0,0.2,0
			C-265,396.2-264.8,396.4-264.8,396.7L-264.8,396.7z M-264.8,396.7"/>
		<path class="st0" d="M-270.8,401.5c-0.5,1.2-3.3,9.6-3.4,10c-0.2,0.6,0.1,1.2,0.7,1.4c0.6,0.2,1.2,0,1.5-0.6
			c0.2-0.3,4.1-8.3,4.6-9.5c0.2-0.6,0.5-1.5,0.7-2.4l-2.8-1.1C-270.1,400-270.6,400.9-270.8,401.5L-270.8,401.5z M-270.8,401.5"/>
	</g>
</g>
</svg>
