<svg xmlns="http://www.w3.org/2000/svg" xmlns:xlink="http://www.w3.org/1999/xlink" preserveAspectRatio="xMidYMid" width="215.5" height="43.469" viewBox="0 0 215.5 43.469">
  <defs>
    <style>
      .cls-1 {
        fill: #5381c6;
      }

      .cls-1, .cls-2 {
        fill-rule: evenodd;
      }

      .cls-2 {
        fill: #ffd532;
      }
    </style>
  </defs>
  <g>
    <path d="M113.908,27.640 C114.424,28.079 115.107,28.299 115.956,28.299 C117.089,28.299 118.448,28.051 120.033,27.555 L120.033,32.375 C118.419,33.097 116.438,33.458 114.088,33.458 C111.498,33.458 109.612,32.803 108.430,31.494 C107.248,30.185 106.657,28.221 106.657,25.602 L106.657,14.158 L103.557,14.158 L103.557,11.419 L107.124,9.254 L108.992,4.243 L113.133,4.243 L113.133,9.296 L119.778,9.296 L119.778,14.158 L113.133,14.158 L113.133,25.602 C113.133,26.522 113.391,27.202 113.908,27.640 ZM96.317,31.993 C94.944,32.970 93.330,33.458 91.476,33.458 C88.688,33.458 86.501,32.446 84.916,30.422 L84.576,30.422 C84.802,32.404 84.916,33.550 84.916,33.861 L84.916,43.479 L78.440,43.479 L78.440,9.296 L83.705,9.296 L84.618,12.375 L84.916,12.375 C86.430,10.025 88.674,8.850 91.646,8.850 C94.449,8.850 96.643,9.933 98.228,12.099 C99.813,14.264 100.606,17.272 100.606,21.122 C100.606,23.656 100.234,25.857 99.491,27.725 C98.748,29.594 97.690,31.016 96.317,31.993 ZM92.931,15.782 C92.216,14.615 91.094,14.031 89.565,14.031 C87.966,14.031 86.798,14.523 86.062,15.506 C85.326,16.490 84.944,18.115 84.916,20.379 L84.916,21.080 C84.916,23.628 85.294,25.454 86.052,26.558 C86.809,27.662 88.008,28.214 89.650,28.214 C92.552,28.214 94.003,25.822 94.003,21.037 C94.003,18.702 93.645,16.950 92.931,15.782 ZM68.419,6.345 C66.069,6.345 64.894,5.283 64.894,3.160 C64.894,1.051 66.069,-0.003 68.419,-0.003 C70.768,-0.003 71.943,1.051 71.943,3.160 C71.943,4.165 71.649,4.947 71.062,5.506 C70.474,6.066 69.593,6.345 68.419,6.345 ZM58.461,14.901 C56.394,14.901 54.784,15.432 53.631,16.494 C52.477,17.555 51.900,19.042 51.900,20.952 L51.900,33.033 L45.425,33.033 L45.425,9.296 L50.329,9.296 L51.285,13.288 L51.603,13.288 C52.339,11.957 53.333,10.885 54.586,10.071 C55.839,9.257 57.201,8.850 58.673,8.850 C59.551,8.850 60.279,8.914 60.860,9.041 L60.372,15.114 C59.848,14.972 59.211,14.901 58.461,14.901 ZM35.913,14.466 C35.035,14.204 34.157,14.073 33.280,14.073 C29.911,14.073 28.227,16.466 28.227,21.250 C28.227,25.892 29.911,28.214 33.280,28.214 C34.525,28.214 35.679,28.047 36.741,27.715 C37.802,27.382 38.864,26.862 39.926,26.154 L39.926,31.696 C38.878,32.361 37.820,32.821 36.751,33.076 C35.682,33.331 34.334,33.458 32.707,33.458 C25.318,33.458 21.624,29.403 21.624,21.292 C21.624,17.258 22.629,14.176 24.639,12.046 C26.648,9.916 29.529,8.850 33.280,8.850 C36.026,8.850 38.489,9.388 40.669,10.464 L38.758,15.475 C37.739,15.064 36.790,14.728 35.913,14.466 ZM11.411,18.596 C13.265,19.346 14.624,20.047 15.488,20.698 C16.351,21.349 16.988,22.099 17.399,22.948 C17.809,23.797 18.014,24.810 18.014,25.984 C18.014,28.419 17.168,30.273 15.477,31.547 C13.786,32.821 11.255,33.458 7.887,33.458 C6.160,33.458 4.688,33.341 3.471,33.108 C2.253,32.874 1.114,32.531 0.052,32.078 L0.052,26.727 C1.255,27.294 2.611,27.768 4.118,28.150 C5.626,28.532 6.953,28.723 8.099,28.723 C10.449,28.723 11.624,28.044 11.624,26.685 C11.624,26.175 11.468,25.761 11.156,25.443 C10.845,25.124 10.307,24.763 9.543,24.360 C8.778,23.957 7.759,23.486 6.485,22.948 C4.660,22.184 3.318,21.476 2.462,20.825 C1.605,20.174 0.983,19.427 0.594,18.585 C0.204,17.743 0.010,16.706 0.010,15.475 C0.010,13.366 0.827,11.734 2.462,10.581 C4.097,9.427 6.414,8.850 9.415,8.850 C12.274,8.850 15.056,9.473 17.760,10.719 L15.806,15.390 C14.617,14.880 13.506,14.463 12.473,14.137 C11.439,13.812 10.385,13.649 9.309,13.649 C7.398,13.649 6.443,14.166 6.443,15.199 C6.443,15.779 6.751,16.281 7.367,16.706 C7.982,17.131 9.331,17.761 11.411,18.596 ZM71.646,33.033 L65.170,33.033 L65.170,9.296 L71.646,9.296 L71.646,33.033 Z" class="cls-1"/>
    <path d="M200.183,22.778 C200.254,24.619 200.799,26.055 201.818,27.088 C202.837,28.122 204.266,28.638 206.107,28.638 C207.536,28.638 208.888,28.490 210.162,28.192 C211.436,27.895 212.766,27.421 214.153,26.770 L214.153,31.781 C213.021,32.347 211.811,32.768 210.523,33.044 C209.235,33.320 207.663,33.458 205.809,33.458 C201.988,33.458 199.001,32.404 196.850,30.294 C194.698,28.185 193.622,25.199 193.622,21.335 C193.622,17.357 194.617,14.282 196.605,12.109 C198.594,9.937 201.343,8.850 204.854,8.850 C208.209,8.850 210.820,9.806 212.688,11.717 C214.557,13.627 215.491,16.267 215.491,19.636 L215.491,22.778 L200.183,22.778 ZM208.166,14.763 C207.359,13.893 206.269,13.458 204.896,13.458 C203.523,13.458 202.447,13.893 201.669,14.763 C200.891,15.634 200.445,16.869 200.332,18.468 L209.419,18.468 C209.390,16.869 208.973,15.634 208.166,14.763 ZM183.410,18.596 C185.264,19.346 186.623,20.047 187.486,20.698 C188.350,21.349 188.986,22.099 189.397,22.948 C189.808,23.797 190.013,24.810 190.013,25.984 C190.013,28.419 189.167,30.273 187.476,31.547 C185.784,32.821 183.254,33.458 179.885,33.458 C178.158,33.458 176.686,33.341 175.469,33.108 C174.252,32.874 173.112,32.531 172.051,32.078 L172.051,26.727 C173.254,27.294 174.609,27.768 176.117,28.150 C177.624,28.532 178.951,28.723 180.098,28.723 C182.447,28.723 183.622,28.044 183.622,26.685 C183.622,26.175 183.466,25.761 183.155,25.443 C182.844,25.124 182.306,24.763 181.541,24.360 C180.777,23.957 179.758,23.486 178.484,22.948 C176.658,22.184 175.317,21.476 174.461,20.825 C173.604,20.174 172.981,19.427 172.592,18.585 C172.203,17.743 172.008,16.706 172.008,15.475 C172.008,13.366 172.826,11.734 174.461,10.581 C176.095,9.427 178.413,8.850 181.414,8.850 C184.273,8.850 187.054,9.473 189.758,10.719 L187.805,15.390 C186.616,14.880 185.504,14.463 184.471,14.137 C183.438,13.812 182.383,13.649 181.308,13.649 C179.397,13.649 178.442,14.166 178.442,15.199 C178.442,15.779 178.749,16.281 179.365,16.706 C179.981,17.131 181.329,17.761 183.410,18.596 ZM161.010,29.806 L160.840,29.806 C159.750,31.179 158.629,32.131 157.475,32.662 C156.321,33.192 154.818,33.458 152.963,33.458 C150.684,33.458 148.890,32.807 147.581,31.505 C146.272,30.202 145.617,28.348 145.617,25.942 C145.617,23.423 146.498,21.565 148.261,20.369 C150.023,19.173 152.680,18.511 156.233,18.383 L160.352,18.256 L160.352,17.216 C160.352,14.809 159.121,13.606 156.658,13.606 C154.761,13.606 152.532,14.179 149.970,15.326 L147.825,10.952 C150.557,9.523 153.586,8.808 156.913,8.808 C160.097,8.808 162.539,9.501 164.238,10.889 C165.936,12.276 166.785,14.385 166.785,17.216 L166.785,33.033 L162.263,33.033 L161.010,29.806 ZM160.352,22.035 L157.847,22.120 C155.964,22.177 154.563,22.517 153.643,23.139 C152.723,23.762 152.263,24.710 152.263,25.984 C152.263,27.810 153.310,28.723 155.405,28.723 C156.905,28.723 158.105,28.292 159.004,27.428 C159.903,26.565 160.352,25.418 160.352,23.989 L160.352,22.035 ZM137.677,14.466 C136.799,14.204 135.921,14.073 135.044,14.073 C131.675,14.073 129.991,16.466 129.991,21.250 C129.991,25.892 131.675,28.214 135.044,28.214 C136.289,28.214 137.443,28.047 138.505,27.715 C139.566,27.382 140.628,26.862 141.689,26.154 L141.689,31.696 C140.642,32.361 139.584,32.821 138.515,33.076 C137.446,33.331 136.098,33.458 134.471,33.458 C127.082,33.458 123.388,29.403 123.388,21.292 C123.388,17.258 124.392,14.176 126.403,12.046 C128.412,9.916 131.293,8.850 135.044,8.850 C137.790,8.850 140.253,9.388 142.433,10.464 L140.522,15.475 C139.503,15.064 138.554,14.728 137.677,14.466 Z" class="cls-2"/>
  </g>
</svg>
