<?xml version="1.0" encoding="utf-8"?>
<!-- Generator: Adobe Illustrator 18.0.0, SVG Export Plug-In . SVG Version: 6.00 Build 0)  -->
<!DOCTYPE svg PUBLIC "-//W3C//DTD SVG 1.1//EN" "http://www.w3.org/Graphics/SVG/1.1/DTD/svg11.dtd">
<svg version="1.1" id="Layer_1" xmlns="http://www.w3.org/2000/svg" xmlns:xlink="http://www.w3.org/1999/xlink" x="0px" y="0px"
	 viewBox="0 0 32 32" enable-background="new 0 0 32 32" xml:space="preserve">
<g>
	<g>
		<path fill="#79C693" d="M30.5,31.3h-29c-0.4,0-0.7-0.3-0.7-0.8v-29c0-0.4,0.3-0.8,0.7-0.8h19.9c0.4,0,0.8,0.3,0.8,0.8v8.4h8.4
			c0.4,0,0.8,0.3,0.8,0.8v19.9C31.2,30.9,30.9,31.3,30.5,31.3z M2.2,29.8h27.5V11.4h-8.4c-0.4,0-0.8-0.3-0.8-0.8V2.3H2.2V29.8z"/>
	</g>
	<g>
		<path fill="#79C693" d="M30.5,11.4h-9.1c-0.4,0-0.8-0.3-0.8-0.8V1.5c0-0.3,0.2-0.6,0.5-0.7c0.3-0.1,0.6-0.1,0.8,0.2l9.1,9.1
			c0.2,0.2,0.3,0.5,0.2,0.8C31.1,11.2,30.8,11.4,30.5,11.4z M22.1,9.9h6.5l-6.5-6.5V9.9z"/>
	</g>
</g>
</svg>
