<?xml version="1.0" encoding="utf-8"?>
<!-- Generator: Adobe Illustrator 19.1.0, SVG Export Plug-In . SVG Version: 6.00 Build 0)  -->
<svg version="1.1" xmlns="http://www.w3.org/2000/svg" xmlns:xlink="http://www.w3.org/1999/xlink" x="0px" y="0px"
	 viewBox="0 0 150 40" style="enable-background:new 0 0 150 40;" xml:space="preserve">
<style type="text/css">
	.st0{opacity:0.15;}
	.st1{clip-path:url(#SVGID_2_);}
	.st2{fill:#5580C1;}
	.st3{fill:#FFD533;}
	.st4{fill:#5381C6;}
	.st5{fill:#FFD532;}
	.st6{fill:#3E5062;}
	.st7{opacity:0.25;}
	.st8{clip-path:url(#SVGID_4_);}
	.st9{fill:none;stroke:#231F20;stroke-miterlimit:10;}
	.st10{fill:#FFFFFF;}
	.st11{clip-path:url(#SVGID_10_);}
</style>
<g id="Layer_2">
</g>
<g id="Layer_1">
	<g>
		<g>
			<g>
				<g>
					<polygon class="st2" points="16.1,7.8 4.1,16.4 16.1,25.5 16.1,20.8 10.1,16.6 16.1,12.5 					"/>
				</g>
				<g>
					<polygon class="st3" points="15.8,32.2 27.9,23.6 15.8,14.5 15.8,19.2 21.9,23.4 15.8,27.5 					"/>
				</g>
			</g>
		</g>
		<g>
			<g>
				<path class="st4" d="M39.2,18c-0.6-0.6-1.5-0.9-2.1-0.9c-0.8,0-1.5,0.4-1.5,1.2c0,1.8,5.4,1.2,5.4,4.7c0,2.2-2,3.3-4.1,3.3
					c-1.6,0-3.2-0.7-4.2-1.8l1.1-1.9c0.8,1,1.9,1.6,3,1.6c0.8,0,1.7-0.3,1.7-1c0-0.9-0.9-1.1-2.2-1.6c-1.8-0.6-3-1.6-3-3.4
					c0-2.2,2-3.3,3.8-3.3c1.2,0,2.4,0.4,3.4,1.2L39.2,18z"/>
				<path class="st4" d="M52.4,17.5L50.4,19c-0.3-1-1.2-1.8-2.5-1.8c-1.3,0-2.8,1-2.8,3.3c0,2.4,1.5,3.3,2.8,3.3
					c1.3,0,2.1-0.7,2.5-1.6l2.2,1.5c-0.9,1.5-2.4,2.6-4.7,2.6c-3.2,0-5.4-2.4-5.4-5.7c0-3.5,2.3-5.7,5.5-5.7
					C50.2,14.9,51.7,16.1,52.4,17.5z"/>
				<path class="st4" d="M61,15v2.5c-0.1,0-0.3-0.1-0.5-0.1c-1.3,0-2.7,1-3.1,2.5c-0.1,0.3-0.1,0.8-0.1,0.9V26h-2.7V15.2h2.7v1.5
					c0.6-1,1.6-1.7,3-1.7C60.6,15,60.8,15,61,15z"/>
				<path class="st4" d="M65.7,12.5c0,0.8-0.7,1.5-1.5,1.5c-0.8,0-1.5-0.7-1.5-1.5c0-0.8,0.6-1.5,1.5-1.5C65,11,65.7,11.7,65.7,12.5
					z M62.9,26V15.2h2.7V26H62.9z"/>
				<path class="st4" d="M79.1,20.4c0,3.6-1.7,5.9-4.6,5.9c-1.4,0-2.6-0.6-3.1-1.2V30h-2.6V15.2h2.3l0.2,1c0.7-0.7,1.7-1.3,2.9-1.3
					C77.3,14.9,79.1,17.1,79.1,20.4z M76.4,20.4c0-2.4-1.2-3.3-2.6-3.3c-1,0-2.1,0.7-2.3,1.8c0,0.3-0.1,0.8-0.1,1.2v1.3
					c0,0.3,0,0.7,0.1,1c0.3,1.2,1.3,1.6,2.3,1.6C75.2,24.1,76.4,23,76.4,20.4z"/>
				<path class="st4" d="M85.1,17.4v5.1c0,1.2,0.3,1.6,1.1,1.6c0.4,0,0.8-0.1,1.1-0.2l0.2,2c-0.9,0.3-1.8,0.4-2.4,0.4
					c-2.2,0-2.6-1.6-2.6-3.5v-5.4h-2.1v-2.2h2.1v-2.3h2.7v2.3h2.5v2.2H85.1z"/>
				<path class="st5" d="M99,17.5L96.9,19c-0.3-1-1.2-1.8-2.5-1.8c-1.3,0-2.8,1-2.8,3.3c0,2.4,1.5,3.3,2.8,3.3
					c1.3,0,2.1-0.7,2.5-1.6l2.2,1.5c-0.9,1.5-2.4,2.6-4.7,2.6c-3.2,0-5.4-2.4-5.4-5.7c0-3.5,2.3-5.7,5.5-5.7
					C96.7,14.9,98.3,16.1,99,17.5z"/>
				<path class="st5" d="M110.6,18.9V26h-2.3l-0.3-0.9c-0.7,0.6-1.6,1.2-3.4,1.2c-2.1,0-3.9-1-3.9-3.3c0-3,3.2-4.2,7.2-3.8v-0.6
					c0-1.1-1-1.6-2.3-1.6c-1.2,0-2.6,0.4-3.8,1.2l-0.3-2.2c0.9-0.7,2.7-1.2,4.4-1.2C108.3,14.9,110.6,15.9,110.6,18.9z M108,22.9V21
					c-2.3,0-4.4,0.3-4.4,1.9c0,1.1,0.7,1.4,1.7,1.4C106.2,24.3,107.3,23.9,108,22.9z"/>
				<path class="st5" d="M119.3,18c-0.6-0.6-1.5-0.9-2.1-0.9c-0.8,0-1.5,0.4-1.5,1.2c0,1.8,5.4,1.2,5.4,4.7c0,2.2-2,3.3-4.1,3.3
					c-1.6,0-3.2-0.7-4.2-1.8l1.1-1.9c0.8,1,1.9,1.6,3,1.6c0.8,0,1.7-0.3,1.7-1c0-0.9-0.9-1.1-2.2-1.6c-1.8-0.6-3-1.6-3-3.4
					c0-2.2,2-3.3,3.8-3.3c1.2,0,2.4,0.4,3.4,1.2L119.3,18z"/>
				<path class="st5" d="M133,20.2l0,1h-7.9c0.2,1.9,1.1,2.8,3.2,2.8c1.7,0,3-0.7,3.5-1.3l0.5,1.8c-1,1-2.5,1.8-4.4,1.8
					c-3.3,0-5.5-2.3-5.5-5.8c0-3.7,2.5-5.7,5.4-5.7C130.7,14.9,133.1,16.8,133,20.2z M125.2,19.4h5.2c-0.2-1.6-0.9-2.3-2.6-2.3
					C126.4,17.1,125.5,17.8,125.2,19.4z"/>
			</g>
		</g>
	</g>
	<g>
		<path class="st5" d="M148.4,19.4c0,4.3-1.5,7.9-6.8,7.9c-0.5,0-1.1,0-1.7-0.1v-2.4c0.4,0.1,0.8,0.1,1.2,0.1c2.9,0,4-1.3,4.4-3.7
			c-0.7,0.7-1.8,1-2.8,1c-2.2,0-4.4-1.6-4.4-4.9c0-3.6,2.9-4.6,4.7-4.6C145.8,12.6,148.4,14.2,148.4,19.4z M145.6,18.2
			c-0.1-1.7-0.5-3.2-2.4-3.2c-1.2,0-2.1,0.9-2.1,2.2c0,1.2,0.5,2.3,2.3,2.4C144.5,19.6,145.3,19,145.6,18.2z"/>
	</g>
</g>
</svg>
