<?xml version="1.0" encoding="utf-8"?>
<!-- Generator: Adobe Illustrator 18.0.0, SVG Export Plug-In . SVG Version: 6.00 Build 0)  -->
<!DOCTYPE svg PUBLIC "-//W3C//DTD SVG 1.1//EN" "http://www.w3.org/Graphics/SVG/1.1/DTD/svg11.dtd">
<svg version="1.1" id="Layer_1" xmlns="http://www.w3.org/2000/svg" xmlns:xlink="http://www.w3.org/1999/xlink" x="0px" y="0px"
	 viewBox="0 0 32 32" enable-background="new 0 0 32 32" xml:space="preserve">
<g>
	<g>
		<path fill="#FFFFFF" d="M26.4,30.5H5.6c-2.3,0-4.1-1.8-4.1-4.1V5.6c0-2.3,1.8-4.1,4.1-4.1h20.8c2.3,0,4.1,1.8,4.1,4.1v20.8
			C30.5,28.7,28.7,30.5,26.4,30.5z"/>
		<path fill="#8F9BA8" d="M26.4,31.2H5.6c-2.7,0-4.9-2.2-4.9-4.9V5.6c0-2.7,2.2-4.9,4.9-4.9h20.8c2.7,0,4.9,2.2,4.9,4.9v20.8
			C31.3,29.1,29.1,31.2,26.4,31.2z M5.6,2.2c-1.8,0-3.4,1.5-3.4,3.4v20.8c0,1.8,1.5,3.4,3.4,3.4h20.8c1.9,0,3.4-1.5,3.4-3.4V5.6
			c0-1.8-1.5-3.4-3.4-3.4H5.6z"/>
	</g>
	<g>
		<circle fill="#FAC2C3" cx="16" cy="16" r="8.2"/>
		<path fill="#DA8C8C" d="M16,25c-4.9,0-9-4-9-9c0-4.9,4-9,9-9c4.9,0,9,4,9,9C25,20.9,20.9,25,16,25z M16,8.5
			c-4.1,0-7.5,3.3-7.5,7.5c0,4.1,3.3,7.5,7.5,7.5c4.1,0,7.5-3.3,7.5-7.5C23.5,11.9,20.1,8.5,16,8.5z"/>
	</g>
	<g>
		<line fill="#FAC2C3" x1="16" y1="11.6" x2="16" y2="20.4"/>
		<rect x="15.3" y="11.6" fill="#DA8C8C" width="1.5" height="8.8"/>
	</g>
	<g>
		<line fill="#FAC2C3" x1="20.4" y1="16" x2="11.6" y2="16"/>
		
			<rect x="15.2" y="11.6" transform="matrix(3.933256e-003 1 -1 3.933256e-003 31.9365 -6.227257e-002)" fill="#DA8C8C" width="1.5" height="8.7"/>
	</g>
</g>
</svg>
