<?xml version="1.0" encoding="utf-8"?>
<!-- Generator: Adobe Illustrator 18.0.0, SVG Export Plug-In . SVG Version: 6.00 Build 0)  -->
<!DOCTYPE svg PUBLIC "-//W3C//DTD SVG 1.1//EN" "http://www.w3.org/Graphics/SVG/1.1/DTD/svg11.dtd">
<svg version="1.1" id="Layer_1" xmlns="http://www.w3.org/2000/svg" xmlns:xlink="http://www.w3.org/1999/xlink" x="0px" y="0px"
	 viewBox="0 0 32 32" enable-background="new 0 0 32 32" xml:space="preserve">
<g>
	<g>
		<path fill="#DA8C8C" d="M27.6,29.6H4.4c-2,0-3.7-1.7-3.7-3.7V11.3c0-2,1.7-3.7,3.7-3.7h3.4c0.9,0,1.7-0.5,2-1.4l0.7-1.6
			c0.6-1.4,1.9-2.3,3.4-2.3h4.1c1.5,0,2.8,0.9,3.4,2.3l0.7,1.6c0.3,0.8,1.1,1.4,2,1.4h3.4c2,0,3.7,1.7,3.7,3.7V26
			C31.3,28,29.6,29.6,27.6,29.6z M4.4,9.1c-1.2,0-2.2,1-2.2,2.2V26c0,1.2,1,2.2,2.2,2.2h23.1c1.2,0,2.2-1,2.2-2.2V11.3
			c0-1.2-1-2.2-2.2-2.2h-3.4c-1.5,0-2.8-0.9-3.4-2.3l-0.7-1.6c-0.3-0.8-1.1-1.4-2-1.4h-4.1c-0.9,0-1.7,0.5-2,1.4l-0.7,1.6
			c-0.6,1.4-1.9,2.3-3.4,2.3H4.4z"/>
	</g>
	<g>
		<circle fill="#FAC2C3" cx="16" cy="18.4" r="6.9"/>
		<path fill="#DA8C8C" d="M16,26.1c-4.2,0-7.7-3.4-7.7-7.7c0-4.2,3.4-7.7,7.7-7.7s7.7,3.4,7.7,7.7C23.7,22.6,20.2,26.1,16,26.1z
			 M16,12.2c-3.4,0-6.2,2.8-6.2,6.2c0,3.4,2.8,6.2,6.2,6.2c3.4,0,6.2-2.8,6.2-6.2C22.2,15,19.4,12.2,16,12.2z"/>
	</g>
</g>
</svg>
