<?xml version="1.0" encoding="utf-8"?>
<!-- Generator: Adobe Illustrator 18.0.0, SVG Export Plug-In . SVG Version: 6.00 Build 0)  -->
<!DOCTYPE svg PUBLIC "-//W3C//DTD SVG 1.1//EN" "http://www.w3.org/Graphics/SVG/1.1/DTD/svg11.dtd">
<svg version="1.1" id="Layer_1" xmlns="http://www.w3.org/2000/svg" xmlns:xlink="http://www.w3.org/1999/xlink" x="0px" y="0px"
	 viewBox="0 0 32 32" enable-background="new 0 0 32 32" xml:space="preserve">
<g>
	<g>
		<path fill="#8F9BA8" d="M6.6,30.8c-0.1,0-0.2,0-0.2,0c-0.3-0.1-0.5-0.4-0.5-0.7l0-6.6H5.3c-2.5,0-4.5-2-4.5-4.4V5.7
			c0-2.4,2-4.4,4.5-4.4h21.5c2.5,0,4.5,2,4.5,4.4V19c0,0.7-0.2,1.4-0.5,2l-1.3-0.7c0.2-0.4,0.3-0.9,0.3-1.3V5.7c0-1.6-1.4-2.9-3-2.9
			H5.3c-1.7,0-3,1.3-3,2.9V19c0,1.6,1.4,2.9,3,2.9h1.3c0.4,0,0.7,0.3,0.8,0.7l0,5.2l4.4-5.7c0.1-0.2,0.4-0.3,0.6-0.3h4.1v1.5h-3.7
			l-5.5,7.1C7.1,30.7,6.8,30.8,6.6,30.8z"/>
	</g>
	<g>
		<rect x="18.4" y="18.9" fill="#FAC2C3" width="9.6" height="6.8"/>
		<path fill="#DA8C8C" d="M28,26.4h-9.6c-0.4,0-0.8-0.3-0.8-0.8v-6.8c0-0.4,0.3-0.8,0.8-0.8H28c0.4,0,0.8,0.3,0.8,0.8v6.8
			C28.8,26.1,28.4,26.4,28,26.4z M19.2,24.9h8.1v-5.3h-8.1V24.9z"/>
	</g>
	<g>
		<path fill="#DA8C8C" d="M21.4,18.9h-1.5v-3c0-1-0.8-1.9-1.9-1.9c-1,0-1.9,0.8-1.9,1.9v3h-1.5v-3c0-1.9,1.5-3.4,3.4-3.4
			c1.9,0,3.4,1.5,3.4,3.4V18.9z"/>
	</g>
	<g>
		<path fill="#8F9BA8" d="M6.6,30.8c-0.1,0-0.2,0-0.2,0c-0.3-0.1-0.5-0.4-0.5-0.7l0-6.6H5.3c-2.5,0-4.5-2-4.5-4.4V5.7
			c0-2.4,2-4.4,4.5-4.4h21.5c2.5,0,4.5,2,4.5,4.4V19c0,0.7-0.2,1.4-0.5,2l-1.3-0.7c0.2-0.4,0.3-0.9,0.3-1.3V5.7c0-1.6-1.4-2.9-3-2.9
			H5.3c-1.7,0-3,1.3-3,2.9V19c0,1.6,1.4,2.9,3,2.9h1.3c0.4,0,0.7,0.3,0.8,0.7l0,5.2l4.4-5.7c0.1-0.2,0.4-0.3,0.6-0.3h4.1v1.5h-3.7
			l-5.5,7.1C7.1,30.7,6.8,30.8,6.6,30.8z"/>
	</g>
	<g>
		<rect x="18.4" y="18.9" fill="#FAC2C3" width="9.6" height="6.8"/>
		<path fill="#DA8C8C" d="M28,26.4h-9.6c-0.4,0-0.8-0.3-0.8-0.8v-6.8c0-0.4,0.3-0.8,0.8-0.8H28c0.4,0,0.8,0.3,0.8,0.8v6.8
			C28.8,26.1,28.4,26.4,28,26.4z M19.2,24.9h8.1v-5.3h-8.1V24.9z"/>
	</g>
	<g>
		<path fill="#DA8C8C" d="M21.4,18.9h-1.5v-3c0-1-0.8-1.9-1.9-1.9c-1,0-1.9,0.8-1.9,1.9v3h-1.5v-3c0-1.9,1.5-3.4,3.4-3.4
			c1.9,0,3.4,1.5,3.4,3.4V18.9z"/>
	</g>
</g>
</svg>
