<?xml version="1.0" encoding="utf-8"?>
<!-- Generator: Adobe Illustrator 18.0.0, SVG Export Plug-In . SVG Version: 6.00 Build 0)  -->
<!DOCTYPE svg PUBLIC "-//W3C//DTD SVG 1.1//EN" "http://www.w3.org/Graphics/SVG/1.1/DTD/svg11.dtd">
<svg version="1.1" id="Layer_1" xmlns="http://www.w3.org/2000/svg" xmlns:xlink="http://www.w3.org/1999/xlink" x="0px" y="0px"
	 viewBox="0 0 32 32" enable-background="new 0 0 32 32" xml:space="preserve">
<g>
	<path fill="#8F9BA8" d="M0.8,31l4-9.1C3.6,19.9,3,17.5,3,15.1C3,7.3,9.3,1,17.1,1c7.8,0,14.1,6.3,14.1,14.1
		c0,7.8-6.3,14.1-14.1,14.1c-2.5,0-4.9-0.7-7-1.9L0.8,31z M17.1,2.4c-7,0-12.7,5.7-12.7,12.7c0,2.2,0.6,4.5,1.8,6.4l0.2,0.3
		l-2.9,6.5l6.7-2.6l0.3,0.2c2,1.2,4.3,1.9,6.6,1.9c7,0,12.7-5.7,12.7-12.7S24.1,2.4,17.1,2.4z"/>
	<path fill="#B4A79C" d="M12.4,13.1c-1.5,0-2.7-0.8-3.4-1.5l1-1l-0.5,0.5l0.5-0.5c0.2,0.2,2.2,2.2,4.6,0l1,1.1
		C14.5,12.7,13.4,13.1,12.4,13.1z"/>
	<path fill="#B4A79C" d="M22.8,13.1c-1.5,0-2.7-0.8-3.4-1.5l1-1L20,11.1l0.5-0.5c0.2,0.2,2.2,2.2,4.6,0l1,1.1
		C25,12.7,23.8,13.1,22.8,13.1z"/>
	<path fill="#B4A79C" d="M16.8,22.2c-3.8,0-6.6-2.8-6.6-2.8l1-1c0.2,0.2,5.2,5.3,11,0l1,1.1C20.9,21.5,18.7,22.2,16.8,22.2z"/>
</g>
</svg>
