<?xml version="1.0" encoding="utf-8"?>
<!-- Generator: Adobe Illustrator 18.0.0, SVG Export Plug-In . SVG Version: 6.00 Build 0)  -->
<!DOCTYPE svg PUBLIC "-//W3C//DTD SVG 1.1//EN" "http://www.w3.org/Graphics/SVG/1.1/DTD/svg11.dtd">
<svg version="1.1" id="Layer_1" xmlns="http://www.w3.org/2000/svg" xmlns:xlink="http://www.w3.org/1999/xlink" x="0px" y="0px"
	 viewBox="0 0 32 32" enable-background="new 0 0 32 32" xml:space="preserve">
<g>
	<path fill="#8F9BA8" d="M6.6,30.8c-0.1,0-0.2,0-0.2,0c-0.3-0.1-0.5-0.4-0.5-0.7l0-6.6H5.3c-2.5,0-4.5-2-4.5-4.4V5.7
		c0-2.4,2-4.4,4.5-4.4h21.5c2.5,0,4.5,2,4.5,4.4V19c0,0.7-0.2,1.4-0.5,2c-0.1,0.3-0.4,0.4-0.7,0.4c-0.3,0-0.6-0.2-0.7-0.5
		c-0.9-2.5-3.3-4.2-5.9-4.2c-3.3,0-6.1,2.6-6.2,6c0,0.4-0.3,0.7-0.7,0.7h-3.7l-5.5,7.1C7.1,30.7,6.8,30.8,6.6,30.8z M5.3,2.7
		c-1.7,0-3,1.3-3,2.9V19c0,1.6,1.4,2.9,3,2.9h1.3c0.4,0,0.7,0.3,0.8,0.7l0,5.2l4.4-5.7c0.1-0.2,0.4-0.3,0.6-0.3h3.4
		c0.5-3.8,3.8-6.7,7.7-6.7c2.5,0,4.8,1.2,6.3,3.2V5.7c0-1.6-1.4-2.9-3-2.9H5.3z"/>
	<g>
		<circle fill="#F9F8F2" cx="23.5" cy="23" r="7"/>
		<path fill="#B4A79C" d="M23.5,30.8c-4.3,0-7.8-3.5-7.8-7.8c0-4.3,3.5-7.8,7.8-7.8c4.3,0,7.8,3.5,7.8,7.8
			C31.3,27.3,27.8,30.8,23.5,30.8z M23.5,16.7c-3.5,0-6.3,2.8-6.3,6.3c0,3.5,2.8,6.3,6.3,6.3c3.5,0,6.3-2.8,6.3-6.3
			C29.8,19.6,26.9,16.7,23.5,16.7z"/>
	</g>
	<g>
		<polyline fill="#F9F8F2" points="19.7,22.9 22.3,25.5 27.3,20.5 		"/>
		<path fill="#B4A79C" d="M22.3,26.3L22.3,26.3c-0.2,0-0.4-0.1-0.5-0.2l-2.6-2.7l1.1-1.1l2.1,2.1l4.5-4.5l1.1,1.1l-5,5
			C22.7,26.2,22.5,26.3,22.3,26.3z"/>
	</g>
</g>
</svg>
