<?xml version="1.0" encoding="utf-8"?>
<!-- Generator: Adobe Illustrator 18.0.0, SVG Export Plug-In . SVG Version: 6.00 Build 0)  -->
<!DOCTYPE svg PUBLIC "-//W3C//DTD SVG 1.1//EN" "http://www.w3.org/Graphics/SVG/1.1/DTD/svg11.dtd">
<svg version="1.1" id="Layer_1" xmlns="http://www.w3.org/2000/svg" xmlns:xlink="http://www.w3.org/1999/xlink" x="0px" y="0px"
	 viewBox="0 0 32 32" enable-background="new 0 0 32 32" xml:space="preserve">
<g>
	<path fill="#8F9BA8" d="M6.6,30.8c-0.1,0-0.2,0-0.2,0c-0.3-0.1-0.5-0.4-0.5-0.7l0-6.6H5.3c-2.5,0-4.5-2-4.5-4.4V5.7
		c0-2.4,2-4.4,4.5-4.4h21.5c2.5,0,4.5,2,4.5,4.4V19c0,0.7-0.2,1.4-0.5,2c-0.1,0.3-0.4,0.4-0.7,0.4c-0.3,0-0.6-0.2-0.7-0.5
		c-0.9-2.5-3.3-4.2-5.9-4.2c-3.3,0-6.1,2.6-6.2,6c0,0.4-0.3,0.7-0.7,0.7h-3.7l-5.5,7.1C7.1,30.7,6.8,30.8,6.6,30.8z M5.3,2.7
		c-1.7,0-3,1.3-3,2.9V19c0,1.6,1.4,2.9,3,2.9h1.3c0.4,0,0.7,0.3,0.8,0.7l0,5.2l4.4-5.7c0.1-0.2,0.4-0.3,0.6-0.3h3.4
		c0.5-3.8,3.8-6.7,7.7-6.7c2.5,0,4.8,1.2,6.3,3.2V5.7c0-1.6-1.4-2.9-3-2.9H5.3z"/>
	<path fill="#B4A79C" d="M23.5,30.8c-2.1,0-4-0.8-5.5-2.3c-1.5-1.5-2.3-3.4-2.3-5.5c0-2.1,0.8-4,2.3-5.5c1.5-1.5,3.4-2.3,5.5-2.3
		c2.1,0,4,0.8,5.5,2.3c1.5,1.5,2.3,3.4,2.3,5.5c0,2.1-0.8,4-2.3,5.5C27.5,30,25.6,30.8,23.5,30.8z M23.5,16.7
		c-1.7,0-3.3,0.7-4.4,1.8c-1.2,1.2-1.8,2.8-1.8,4.4c0,1.7,0.7,3.3,1.8,4.4c1.2,1.2,2.8,1.8,4.4,1.8c1.7,0,3.2-0.7,4.4-1.8
		c1.2-1.2,1.8-2.8,1.8-4.4c0-1.7-0.7-3.3-1.8-4.4S25.2,16.7,23.5,16.7z"/>
	<rect x="22.7" y="16" transform="matrix(0.7071 0.7071 -0.7071 0.7071 23.1455 -9.8693)" fill="#B4A79C" width="1.5" height="14"/>
</g>
</svg>
