<?xml version="1.0" encoding="utf-8"?>
<!-- Generator: Adobe Illustrator 18.0.0, SVG Export Plug-In . SVG Version: 6.00 Build 0)  -->
<!DOCTYPE svg PUBLIC "-//W3C//DTD SVG 1.1//EN" "http://www.w3.org/Graphics/SVG/1.1/DTD/svg11.dtd">
<svg version="1.1" id="Layer_1" xmlns="http://www.w3.org/2000/svg" xmlns:xlink="http://www.w3.org/1999/xlink" x="0px" y="0px"
	 viewBox="0 0 32 32" enable-background="new 0 0 32 32" xml:space="preserve">
<g>
	<path fill="#8F9BA8" d="M6.6,30.8c-0.1,0-0.2,0-0.2,0c-0.3-0.1-0.5-0.4-0.5-0.7l0-6.7H5.3c-2.5,0-4.5-2-4.5-4.4V5.6
		c0-2.4,2-4.4,4.5-4.4h21.5c2.5,0,4.5,2,4.5,4.4V19c0,0.7-0.2,1.4-0.5,2c-0.1,0.3-0.4,0.4-0.7,0.4c-0.3,0-0.5-0.2-0.6-0.5
		c-0.9-2.5-3.3-4.2-5.9-4.2c-3.3,0-6.1,2.6-6.3,6c0,0.4-0.3,0.7-0.7,0.7h-3.8l-5.6,7.1C7,30.7,6.8,30.8,6.6,30.8z M5.3,2.7
		c-1.7,0-3,1.3-3,3V19c0,1.6,1.4,3,3,3h1.3c0.4,0,0.7,0.3,0.7,0.7l0,5.3l4.5-5.7c0.1-0.2,0.4-0.3,0.6-0.3h3.5
		c0.5-3.8,3.8-6.7,7.7-6.7c2.5,0,4.9,1.3,6.3,3.3V5.6c0-1.6-1.4-3-3-3H5.3z"/>
	<g>
		<circle fill="#CDE4F7" cx="23.5" cy="23" r="7"/>
		<path fill="#74B1E0" d="M23.5,30.8c-2.1,0-4-0.8-5.5-2.3c-3-3-3-7.9,0-11c1.5-1.5,3.4-2.3,5.5-2.3c2.1,0,4,0.8,5.5,2.3
			c3,3,3,7.9,0,11C27.5,30,25.6,30.8,23.5,30.8z M23.5,16.7c-1.7,0-3.3,0.7-4.5,1.8c-2.5,2.5-2.5,6.5,0,8.9c1.2,1.2,2.8,1.8,4.5,1.8
			c1.7,0,3.3-0.7,4.5-1.8c2.5-2.5,2.5-6.5,0-8.9C26.8,17.4,25.2,16.7,23.5,16.7z"/>
	</g>
	<g>
		<polygon fill="#CDE4F7" points="19.7,21.3 27.3,21.3 23.5,27.2 		"/>
		<path fill="#74B1E0" d="M23.5,27.9c-0.2,0-0.5-0.1-0.6-0.3l-3.8-5.9c-0.1-0.2-0.2-0.5,0-0.7c0.1-0.2,0.4-0.4,0.6-0.4h7.6
			c0.3,0,0.5,0.1,0.6,0.4c0.1,0.2,0.1,0.5,0,0.7l-3.8,5.9C24,27.8,23.7,27.9,23.5,27.9z M21,22l2.5,3.8L26,22H21z"/>
	</g>
</g>
</svg>
