<?xml version="1.0" encoding="utf-8"?>
<!-- Generator: Adobe Illustrator 18.0.0, SVG Export Plug-In . SVG Version: 6.00 Build 0)  -->
<!DOCTYPE svg PUBLIC "-//W3C//DTD SVG 1.1//EN" "http://www.w3.org/Graphics/SVG/1.1/DTD/svg11.dtd">
<svg version="1.1" id="Layer_1" xmlns="http://www.w3.org/2000/svg" xmlns:xlink="http://www.w3.org/1999/xlink" x="0px" y="0px"
	 viewBox="0 0 32 32" enable-background="new 0 0 32 32" xml:space="preserve">
<g>
	<path fill="#8F9BA8" d="M6,31.3L6,22.6H5.4c-2.5,0-4.4-2-4.4-4.4V5.1c0-2.4,2-4.4,4.4-4.4h21.2c2.4,0,4.4,2,4.4,4.4v13.1
		c0,0.7-0.2,1.4-0.5,2l-1.3-0.7c0.2-0.4,0.3-0.9,0.3-1.3V5.1c0-1.6-1.3-2.9-3-2.9H5.4c-1.7,0-3,1.3-3,2.9v13.1c0,1.6,1.3,2.9,3,2.9
		h2l0,5.9l4.6-5.9h4.4v1.4h-3.7L6,31.3z"/>
	<path fill="#79C693" d="M28.6,25.6H17.7v-8.1h10.9V25.6z M19.1,24.1h8v-5.2h-8V24.1z"/>
	<path fill="#79C693" d="M26.4,18.9h-6.6v-3.7c0-1.8,1.5-3.3,3.3-3.3c1.8,0,3.3,1.5,3.3,3.3V18.9z M21.3,17.4H25v-2.3
		c0-1-0.8-1.9-1.9-1.9c-1,0-1.9,0.8-1.9,1.9V17.4z"/>
</g>
</svg>
