<?xml version="1.0" encoding="utf-8"?>
<!-- Generator: Adobe Illustrator 18.0.0, SVG Export Plug-In . SVG Version: 6.00 Build 0)  -->
<!DOCTYPE svg PUBLIC "-//W3C//DTD SVG 1.1//EN" "http://www.w3.org/Graphics/SVG/1.1/DTD/svg11.dtd">
<svg version="1.1" id="Layer_1" xmlns="http://www.w3.org/2000/svg" xmlns:xlink="http://www.w3.org/1999/xlink" x="0px" y="0px"
	 viewBox="0 0 32 32" enable-background="new 0 0 32 32" xml:space="preserve">
<g>
	<path fill="#8F9BA8" d="M5.7,31.3l-0.1-8.6H5.1c-2.5,0-4.4-2-4.4-4.4V5.1c0-2.4,2-4.4,4.4-4.4h21.2c2.4,0,4.4,2,4.4,4.4v13.1
		c0,0.7-0.2,1.4-0.5,2l-1.3-0.7c0.2-0.4,0.3-0.9,0.3-1.3V5.1c0-1.6-1.3-2.9-3-2.9H5.1c-1.7,0-3,1.3-3,2.9v13.1c0,1.6,1.3,2.9,3,2.9
		h2l0,5.9l4.6-5.9h4.4v1.4h-3.7L5.7,31.3z"/>
	<path fill="#B4A79C" d="M21.6,22.7c-1.6,0-3.1-0.6-4.2-1.7c-1.1-1.1-1.7-2.6-1.7-4.2c0-1.6,0.6-3.1,1.7-4.2
		c1.1-1.1,2.6-1.7,4.2-1.7c1.6,0,3.1,0.6,4.2,1.7c1.1,1.1,1.7,2.6,1.7,4.2c0,1.6-0.6,3.1-1.7,4.2C24.7,22,23.2,22.7,21.6,22.7z
		 M21.6,12.3c-1.2,0-2.3,0.5-3.2,1.3c-0.8,0.8-1.3,2-1.3,3.2c0,1.2,0.5,2.3,1.3,3.2s2,1.3,3.2,1.3c1.2,0,2.3-0.5,3.2-1.3
		c0.8-0.8,1.3-2,1.3-3.2c0-1.2-0.5-2.3-1.3-3.2C23.9,12.7,22.8,12.3,21.6,12.3z"/>
	
		<rect x="24.1" y="22.5" transform="matrix(0.7071 0.7071 -0.7071 0.7071 24.6286 -13.0601)" fill="#B4A79C" width="7.9" height="1.4"/>
</g>
</svg>
