<?xml version="1.0" encoding="utf-8"?>
<!-- Generator: Adobe Illustrator 18.0.0, SVG Export Plug-In . SVG Version: 6.00 Build 0)  -->
<!DOCTYPE svg PUBLIC "-//W3C//DTD SVG 1.1//EN" "http://www.w3.org/Graphics/SVG/1.1/DTD/svg11.dtd">
<svg version="1.1" id="Layer_1" xmlns="http://www.w3.org/2000/svg" xmlns:xlink="http://www.w3.org/1999/xlink" x="0px" y="0px"
	 viewBox="0 0 32 32" enable-background="new 0 0 32 32" xml:space="preserve">
<g>
	<path fill="#8F9BA8" d="M0.7,31l4-9.1c-1.2-2.1-1.8-4.5-1.8-6.9c0-7.8,6.4-14.2,14.2-14.2C25,0.8,31.3,7.1,31.3,15
		c0,1.9-0.4,3.7-1.1,5.4l-0.6,1.4L29,20.4c-1.1-1.9-3.1-3-5.3-3c-3.4,0-6.2,2.8-6.2,6.2c0,1.6,0.6,3.1,1.7,4.2l1,1.1l-1.5,0.2
		c-0.6,0.1-1.2,0.1-1.7,0.1c-2.5,0-4.9-0.7-7-1.9L0.7,31z M17.1,2.3C10.1,2.3,4.4,8,4.4,15c0,2.3,0.6,4.5,1.8,6.4l0.2,0.3l-2.9,6.5
		l6.7-2.6l0.3,0.2c2,1.2,4.3,1.9,6.6,1.9c0,0,0.1,0,0.1,0c-0.8-1.2-1.2-2.6-1.2-4.1c0-4.2,3.4-7.7,7.7-7.7c2.2,0,4.2,0.9,5.7,2.5
		c0.3-1.1,0.5-2.3,0.5-3.5C29.8,8,24.1,2.3,17.1,2.3z"/>
	<g>
		<circle fill="#CDE4F7" cx="23.7" cy="23.6" r="6.9"/>
		<path fill="#74B1E0" d="M23.7,31.3c-4.2,0-7.7-3.4-7.7-7.7c0-4.2,3.4-7.7,7.7-7.7c4.2,0,7.7,3.4,7.7,7.7
			C31.3,27.8,27.9,31.3,23.7,31.3z M23.7,17.4c-3.4,0-6.2,2.8-6.2,6.2c0,3.4,2.8,6.2,6.2,6.2c3.4,0,6.2-2.8,6.2-6.2
			C29.8,20.2,27.1,17.4,23.7,17.4z"/>
	</g>
	<g>
		<polygon fill="#CDE4F7" points="23.7,25.6 21.2,27.2 21.9,24.3 19.7,22.4 22.6,22.2 23.7,19.5 24.8,22.2 27.7,22.4 25.5,24.3 
			26.2,27.2 		"/>
		<path fill="#74B1E0" d="M26.2,27.9c-0.1,0-0.3,0-0.4-0.1l-2.1-1.3l-2.1,1.3c-0.3,0.2-0.6,0.1-0.8,0c-0.2-0.2-0.4-0.5-0.3-0.8
			l0.6-2.4L19.2,23c-0.2-0.2-0.3-0.5-0.2-0.8c0.1-0.3,0.3-0.5,0.6-0.5l2.4-0.2l1-2.3c0.2-0.6,1.1-0.6,1.4,0l1,2.3l2.4,0.2
			c0.3,0,0.6,0.2,0.6,0.5c0.1,0.3,0,0.6-0.2,0.8l-1.9,1.6l0.6,2.4c0.1,0.3,0,0.6-0.3,0.8C26.5,27.9,26.3,27.9,26.2,27.9z M23.7,24.9
			c0.1,0,0.3,0,0.4,0.1l1,0.6l-0.3-1.1c-0.1-0.3,0-0.6,0.2-0.7l0.9-0.7l-1.1-0.1c-0.3,0-0.5-0.2-0.6-0.5l-0.4-1l-0.4,1
			c-0.1,0.3-0.3,0.4-0.6,0.5L21.5,23l0.9,0.7c0.2,0.2,0.3,0.5,0.2,0.7l-0.3,1.1l1-0.6C23.4,24.9,23.6,24.9,23.7,24.9z"/>
	</g>
</g>
</svg>
