<?xml version="1.0" encoding="utf-8"?>
<!-- Generator: Adobe Illustrator 18.0.0, SVG Export Plug-In . SVG Version: 6.00 Build 0)  -->
<!DOCTYPE svg PUBLIC "-//W3C//DTD SVG 1.1//EN" "http://www.w3.org/Graphics/SVG/1.1/DTD/svg11.dtd">
<svg version="1.1" id="Layer_1" xmlns="http://www.w3.org/2000/svg" xmlns:xlink="http://www.w3.org/1999/xlink" x="0px" y="0px"
	 viewBox="0 0 32 32" enable-background="new 0 0 32 32" xml:space="preserve">
<g>
	<path fill="#8F9BA8" d="M1.7,30.4c-0.2,0-0.4-0.1-0.5-0.2C1,29.9,0.9,29.6,1,29.3l3.3-7.5c-1.2-2.1-1.8-4.5-1.8-6.9
		C2.6,7.1,9,0.8,16.8,0.8S31,7.1,31,15c0,1.9-0.4,3.7-1.1,5.4c-0.1,0.3-0.4,0.4-0.6,0.5c-0.3,0-0.6-0.1-0.7-0.4
		c-1.1-1.9-3.1-3-5.3-3c-3.4,0-6.2,2.8-6.2,6.2c0,1.6,0.6,3.1,1.7,4.2c0.2,0.2,0.3,0.5,0.2,0.8c-0.1,0.3-0.3,0.5-0.6,0.5
		c-0.6,0.1-1.2,0.1-1.7,0.1c-2.5,0-4.9-0.7-7-1.9l-7.7,3C1.9,30.4,1.8,30.4,1.7,30.4z M16.8,2.3C9.8,2.3,4.1,8,4.1,15
		c0,2.2,0.6,4.5,1.8,6.4c0.1,0.2,0.1,0.5,0,0.7l-2.7,6.2l6.4-2.5c0.2-0.1,0.5-0.1,0.7,0.1c2,1.2,4.3,1.9,6.6,1.9H17
		c-0.8-1.2-1.2-2.6-1.2-4.1c0-4.2,3.4-7.7,7.7-7.7c2.2,0,4.2,0.9,5.7,2.5c0.3-1.1,0.5-2.3,0.5-3.5C29.5,8,23.8,2.3,16.8,2.3z"/>
	<g>
		<circle fill="#F9F8F2" cx="23.4" cy="23.6" r="6.9"/>
		<path fill="#B4A79C" d="M23.4,31.3c-4.2,0-7.7-3.4-7.7-7.7c0-4.2,3.4-7.7,7.7-7.7s7.7,3.4,7.7,7.7C31,27.8,27.6,31.3,23.4,31.3z
			 M23.4,17.4c-3.4,0-6.2,2.8-6.2,6.2s2.8,6.2,6.2,6.2s6.2-2.8,6.2-6.2C29.5,20.2,26.8,17.4,23.4,17.4z"/>
	</g>
	<g>
		<line fill="none" x1="20.3" y1="23.6" x2="26.5" y2="23.6"/>
		<rect x="20.3" y="22.8" fill="#B4A79C" width="6.2" height="1.5"/>
	</g>
</g>
</svg>
