<?xml version="1.0" encoding="utf-8"?>
<!-- Generator: Adobe Illustrator 18.0.0, SVG Export Plug-In . SVG Version: 6.00 Build 0)  -->
<!DOCTYPE svg PUBLIC "-//W3C//DTD SVG 1.1//EN" "http://www.w3.org/Graphics/SVG/1.1/DTD/svg11.dtd">
<svg version="1.1" id="Layer_1" xmlns="http://www.w3.org/2000/svg" xmlns:xlink="http://www.w3.org/1999/xlink" x="0px" y="0px"
	 viewBox="0 0 32 32" enable-background="new 0 0 32 32" xml:space="preserve">
<g>
	<path fill="#8F9BA8" d="M0.7,31l4-9.1c-1.2-2.1-1.8-4.5-1.8-6.9c0-7.8,6.4-14.2,14.2-14.2C25,0.8,31.3,7.1,31.3,15
		c0,1.8-0.4,3.7-1.1,5.4l-0.6,1.4L29,20.4c-1.1-1.9-3.1-3-5.3-3c-3.4,0-6.2,2.8-6.2,6.2c0,1.6,0.6,3.1,1.7,4.2l1,1.1l-1.5,0.2
		c-0.6,0.1-1.2,0.1-1.7,0.1c-2.5,0-4.9-0.7-7-1.9L0.7,31z M17.1,2.3C10.1,2.3,4.4,8,4.4,15c0,2.3,0.6,4.5,1.8,6.4l0.2,0.3l-2.9,6.5
		l6.7-2.6l0.3,0.2c2,1.2,4.3,1.9,6.6,1.9c0,0,0.1,0,0.1,0c-0.8-1.2-1.2-2.6-1.2-4.1c0-4.2,3.4-7.7,7.7-7.7c2.2,0,4.2,0.9,5.7,2.5
		c0.3-1.1,0.5-2.3,0.5-3.5C29.8,8,24.1,2.3,17.1,2.3z"/>
	<g>
		<circle fill="#CDE4F7" cx="23.7" cy="23.6" r="6.9"/>
		<path fill="#74B1E0" d="M23.7,31.3c-4.2,0-7.7-3.4-7.7-7.7c0-4.2,3.4-7.7,7.7-7.7s7.7,3.4,7.7,7.7C31.3,27.8,27.9,31.3,23.7,31.3z
			 M23.7,17.4c-3.4,0-6.2,2.8-6.2,6.2c0,3.4,2.8,6.2,6.2,6.2c3.4,0,6.2-2.8,6.2-6.2C29.8,20.2,27.1,17.4,23.7,17.4z"/>
	</g>
	<g>
		<line fill="#CDE4F7" x1="21.5" y1="21.4" x2="25.9" y2="25.8"/>
		
			<rect x="20.6" y="22.8" transform="matrix(0.707 0.7073 -0.7073 0.707 23.6322 -9.8413)" fill="#74B1E0" width="6.2" height="1.5"/>
	</g>
	<g>
		<line fill="#CDE4F7" x1="25.9" y1="21.4" x2="21.5" y2="25.8"/>
		
			<rect x="22.9" y="20.5" transform="matrix(0.7071 0.7071 -0.7071 0.7071 23.6231 -9.8413)" fill="#74B1E0" width="1.5" height="6.2"/>
	</g>
</g>
</svg>
