<?xml version="1.0" encoding="utf-8"?>
<!-- Generator: Adobe Illustrator 18.0.0, SVG Export Plug-In . SVG Version: 6.00 Build 0)  -->
<!DOCTYPE svg PUBLIC "-//W3C//DTD SVG 1.1//EN" "http://www.w3.org/Graphics/SVG/1.1/DTD/svg11.dtd">
<svg version="1.1" id="Layer_1" xmlns="http://www.w3.org/2000/svg" xmlns:xlink="http://www.w3.org/1999/xlink" x="0px" y="0px"
	 viewBox="0 0 32 32" enable-background="new 0 0 32 32" xml:space="preserve">
<g>
	<g>
		<path fill="#B4A79C" d="M16,22.9c-3.8,0-6.9-3.1-6.9-6.9s3.1-6.9,6.9-6.9s6.9,3.1,6.9,6.9S19.8,22.9,16,22.9z M16,10.6
			c-3,0-5.4,2.4-5.4,5.4c0,3,2.4,5.4,5.4,5.4c3,0,5.4-2.4,5.4-5.4C21.4,13,19,10.6,16,10.6z"/>
	</g>
	<g>
		<path fill="#B4A79C" d="M22,31.3H10c-0.2,0-0.4-0.1-0.5-0.2L1,22.5c-0.1-0.1-0.2-0.3-0.2-0.5V10c0-0.2,0.1-0.4,0.2-0.5L9.5,1
			C9.6,0.8,9.8,0.8,10,0.8h12c0.2,0,0.4,0.1,0.5,0.2L31,9.5c0.1,0.1,0.2,0.3,0.2,0.5v12c0,0.2-0.1,0.4-0.2,0.5L22.5,31
			C22.4,31.2,22.2,31.3,22,31.3z M10.3,29.8h11.4l8.1-8.1V10.3l-8.1-8.1H10.3l-8.1,8.1v11.4L10.3,29.8z"/>
	</g>
</g>
</svg>
