<?xml version="1.0" encoding="utf-8"?>
<!-- Generator: Adobe Illustrator 18.0.0, SVG Export Plug-In . SVG Version: 6.00 Build 0)  -->
<!DOCTYPE svg PUBLIC "-//W3C//DTD SVG 1.1//EN" "http://www.w3.org/Graphics/SVG/1.1/DTD/svg11.dtd">
<svg version="1.1" id="Layer_1" xmlns="http://www.w3.org/2000/svg" xmlns:xlink="http://www.w3.org/1999/xlink" x="0px" y="0px"
	 viewBox="0 0 32 32" enable-background="new 0 0 32 32" xml:space="preserve">
<g>
	<path fill="#8F9BA8" d="M13.6,10.4c-6.2,0-12.7-1.7-12.7-4.8c0-3.2,6.4-4.8,12.7-4.8c6.3,0,12.7,1.6,12.7,4.8
		C26.3,8.7,19.8,10.4,13.6,10.4z M13.6,2.3c-7,0-11.2,1.9-11.2,3.3s4.3,3.3,11.2,3.3c7,0,11.2-1.9,11.2-3.3S20.6,2.3,13.6,2.3z"/>
	<path fill="#8F9BA8" d="M13.6,17.3c-6.2,0-12.7-1.7-12.7-4.8h1.5c0,1.4,4.3,3.3,11.2,3.3c7,0,11.2-1.9,11.2-3.3h1.5
		C26.3,15.6,19.8,17.3,13.6,17.3z"/>
	<path fill="#8F9BA8" d="M13.6,24.2c-6.2,0-12.7-1.7-12.7-4.8h1.5c0,1.4,4.3,3.3,11.2,3.3c0.9,0,1.7,0,2.5-0.1l0.1,1.5
		C15.4,24.2,14.5,24.2,13.6,24.2z"/>
	<path fill="#8F9BA8" d="M13.6,31.2c-6.2,0-12.7-1.7-12.7-4.8V5.6h1.5c0,1.4,4.3,3.3,11.2,3.3c7,0,11.2-1.9,11.2-3.3h1.5v11.3h-1.5
		V7.9c-2.3,1.6-6.9,2.4-11.2,2.4c-4.4,0-8.9-0.8-11.2-2.4v18.5c0,1.4,4.3,3.3,11.2,3.3c2.3,0,4.5-0.2,6.5-0.7l0.3,1.5
		C18.4,30.9,16,31.2,13.6,31.2z"/>
	<g>
		<path fill="#FAC2C3" d="M30.4,23.5c0,3.9-3.1,7-7,7c-3.9,0-7-3.1-7-7c0-3.9,3.1-7,7-7C27.2,16.5,30.4,19.6,30.4,23.5z"/>
		<path fill="#DA8C8C" d="M23.4,31.3c-4.3,0-7.8-3.5-7.8-7.8c0-4.3,3.5-7.8,7.8-7.8c4.3,0,7.8,3.5,7.8,7.8
			C31.1,27.8,27.6,31.3,23.4,31.3z M23.4,17.2c-3.4,0-6.3,2.8-6.3,6.3c0,3.4,2.8,6.3,6.3,6.3c3.4,0,6.3-2.8,6.3-6.3
			C29.6,20,26.8,17.2,23.4,17.2z"/>
	</g>
	<g>
		<polygon fill="#FAC2C3" points="23.4,25.5 20.8,27 21.5,24.1 19.3,22.2 22.2,21.9 23.4,19.2 24.5,21.9 27.5,22.2 25.2,24.1 
			25.9,27 		"/>
		<path fill="#DA8C8C" d="M20.8,27.7c-0.2,0-0.3,0-0.4-0.1c-0.2-0.2-0.4-0.5-0.3-0.8l0.6-2.4l-1.9-1.6c-0.2-0.2-0.3-0.5-0.2-0.8
			c0.1-0.3,0.3-0.5,0.6-0.5l2.5-0.2l1-2.3c0.1-0.3,0.4-0.5,0.7-0.5h0c0.3,0,0.6,0.2,0.7,0.5l1,2.3l2.5,0.2c0.3,0,0.6,0.2,0.6,0.5
			c0.1,0.3,0,0.6-0.2,0.8l-1.9,1.6l0.6,2.4c0.1,0.3,0,0.6-0.3,0.8c-0.2,0.2-0.6,0.2-0.8,0l-2.1-1.3l-2.1,1.3
			C21.1,27.7,21,27.7,20.8,27.7z M21.1,22.8l0.9,0.8c0.2,0.2,0.3,0.5,0.2,0.7L22,25.4l1-0.6c0.2-0.1,0.5-0.1,0.8,0l1,0.6l-0.3-1.1
			c-0.1-0.3,0-0.6,0.2-0.7l0.9-0.8l-1.2-0.1c-0.3,0-0.5-0.2-0.6-0.5l-0.5-1.1l-0.5,1.1c-0.1,0.3-0.3,0.4-0.6,0.5L21.1,22.8z"/>
	</g>
</g>
</svg>
