<?xml version="1.0" encoding="utf-8"?>
<!-- Generator: Adobe Illustrator 18.0.0, SVG Export Plug-In . SVG Version: 6.00 Build 0)  -->
<!DOCTYPE svg PUBLIC "-//W3C//DTD SVG 1.1//EN" "http://www.w3.org/Graphics/SVG/1.1/DTD/svg11.dtd">
<svg version="1.1" id="Layer_1" xmlns="http://www.w3.org/2000/svg" xmlns:xlink="http://www.w3.org/1999/xlink" x="0px" y="0px"
	 viewBox="0 0 32 32" enable-background="new 0 0 32 32" xml:space="preserve">
<g>
	<path fill="#79C693" d="M16,10.4c-6.2,0-12.7-1.7-12.7-4.8c0-3.1,6.6-4.8,12.7-4.8c6.2,0,12.7,1.7,12.7,4.8
		C28.7,8.7,22.2,10.4,16,10.4z M16,2.3C9,2.3,4.8,4.2,4.8,5.6S9,8.9,16,8.9c7,0,11.2-1.9,11.2-3.3S23,2.3,16,2.3z"/>
	<path fill="#79C693" d="M16,17.3c-6.2,0-12.7-1.7-12.7-4.8h1.5c0,1.3,4.4,3.3,11.2,3.3c7,0,11.2-1.9,11.2-3.3h1.5
		C28.7,15.6,22.2,17.3,16,17.3z"/>
	<path fill="#79C693" d="M16,24.3c-6.2,0-12.7-1.7-12.7-4.8h1.5c0,1.4,4.3,3.3,11.2,3.3c7,0,11.2-1.9,11.2-3.3h1.5
		C28.7,22.6,22.2,24.3,16,24.3z"/>
	<path fill="#79C693" d="M16,31.2c-6.2,0-12.7-1.7-12.7-4.8V5.6h1.5C4.8,7,9,8.9,16,8.9c7,0,11.2-1.9,11.2-3.3h1.5v20.8
		C28.7,29.5,22.2,31.2,16,31.2z M4.8,7.9v18.5c0,1.4,4.3,3.3,11.2,3.3c7,0,11.2-1.9,11.2-3.3V7.9c-2.3,1.6-6.9,2.4-11.2,2.4
		C11.6,10.4,7.1,9.5,4.8,7.9z"/>
</g>
</svg>
