<?xml version="1.0" encoding="utf-8"?>
<!-- Generator: Adobe Illustrator 18.0.0, SVG Export Plug-In . SVG Version: 6.00 Build 0)  -->
<!DOCTYPE svg PUBLIC "-//W3C//DTD SVG 1.1//EN" "http://www.w3.org/Graphics/SVG/1.1/DTD/svg11.dtd">
<svg version="1.1" id="Layer_1" xmlns="http://www.w3.org/2000/svg" xmlns:xlink="http://www.w3.org/1999/xlink" x="0px" y="0px"
	 viewBox="0 0 32 32" enable-background="new 0 0 32 32" xml:space="preserve">
<g>
	<g>
		<path fill="#8F9BA8" d="M25.2,31.3H6.8V3.7h18.4V31.3z M8.3,29.8h15.4V5.2H8.3V29.8z"/>
	</g>
	<g>
		<path fill="#8F9BA8" d="M19.9,5.2h-7.7V0.8h7.7V5.2z M13.6,3.7h4.7V2.3h-4.7V3.7z"/>
	</g>
	<g>
		<rect x="10.9" y="8.1" fill="#FAC2C3" width="10.2" height="4.1"/>
		<path fill="#DA8C8C" d="M21.8,13H10.2V7.4h11.7V13z M11.7,11.5h8.7V8.9h-8.7V11.5z"/>
	</g>
	<g>
		<rect x="10.9" y="15.4" fill="#FAC2C3" width="10.2" height="4.1"/>
		<path fill="#DA8C8C" d="M21.8,20.3H10.2v-5.6h11.7V20.3z M11.7,18.8h8.7v-2.6h-8.7V18.8z"/>
	</g>
	<g>
		<rect x="10.9" y="22.7" fill="#FAC2C3" width="10.2" height="4.1"/>
		<path fill="#DA8C8C" d="M21.8,27.6H10.2V22h11.7V27.6z M11.7,26.1h8.7v-2.6h-8.7V26.1z"/>
	</g>
</g>
</svg>
