<?xml version="1.0" encoding="utf-8"?>
<!-- Generator: Adobe Illustrator 18.0.0, SVG Export Plug-In . SVG Version: 6.00 Build 0)  -->
<!DOCTYPE svg PUBLIC "-//W3C//DTD SVG 1.1//EN" "http://www.w3.org/Graphics/SVG/1.1/DTD/svg11.dtd">
<svg version="1.1" id="Layer_1" xmlns="http://www.w3.org/2000/svg" xmlns:xlink="http://www.w3.org/1999/xlink" x="0px" y="0px"
	 viewBox="0 0 32 32" enable-background="new 0 0 32 32" xml:space="preserve">
<g>
	<g>
		<polygon fill="#F9F8F2" points="22.9,26.7 18.6,28.7 19.5,23.9 27,14.6 30.4,17.3 		"/>
		<path fill="#B4A79C" d="M17.6,30l1.2-6.4l8.1-10.1l4.6,3.7l-8.1,10L17.6,30z M20.2,24.2l-0.6,3.2l2.8-1.3l6.9-8.6l-2.2-1.8
			L20.2,24.2z"/>
	</g>
	<path fill="#8F9BA8" d="M0.5,31.1l4-9.1c-1.2-2.1-1.8-4.5-1.8-6.9C2.8,7.3,9.2,0.9,17,0.9c6.9,0,12.7,4.9,14,11.6l-1.5,0.3
		C28.4,6.8,23.1,2.4,17,2.4c-7,0-12.7,5.7-12.7,12.7c0,2.3,0.6,4.5,1.8,6.4l0.2,0.3l-2.9,6.5l6.7-2.6l0.3,0.2
		c1.2,0.7,2.5,1.3,3.9,1.6L13.9,29c-1.4-0.3-2.7-0.8-4-1.6L0.5,31.1z"/>
</g>
</svg>
