<?xml version="1.0" encoding="utf-8"?>
<!-- Generator: Adobe Illustrator 18.0.0, SVG Export Plug-In . SVG Version: 6.00 Build 0)  -->
<!DOCTYPE svg PUBLIC "-//W3C//DTD SVG 1.1//EN" "http://www.w3.org/Graphics/SVG/1.1/DTD/svg11.dtd">
<svg version="1.1" id="Layer_1" xmlns="http://www.w3.org/2000/svg" xmlns:xlink="http://www.w3.org/1999/xlink" x="0px" y="0px"
	 viewBox="0 0 32 32" enable-background="new 0 0 32 32" xml:space="preserve">
<g>
	<path fill="#8F9BA8" d="M13.6,10.4c-6.2,0-12.7-1.7-12.7-4.8c0-3.2,6.4-4.8,12.7-4.8c6.3,0,12.7,1.6,12.7,4.8
		C26.3,8.7,19.8,10.4,13.6,10.4z M13.6,2.3C6.6,2.3,2.4,4.2,2.4,5.6s4.3,3.3,11.2,3.3c7,0,11.2-1.9,11.2-3.3S20.6,2.3,13.6,2.3z"/>
	<path fill="#8F9BA8" d="M13.6,17.3c-6.2,0-12.7-1.7-12.7-4.8h1.5c0,1.4,4.3,3.3,11.2,3.3c7,0,11.2-1.9,11.2-3.3h1.5
		C26.3,15.6,19.8,17.3,13.6,17.3z"/>
	<path fill="#8F9BA8" d="M13.6,24.2c-6.2,0-12.7-1.7-12.7-4.8h1.5c0,1.4,4.3,3.3,11.2,3.3c0.9,0,1.7,0,2.5-0.1l0.1,1.5
		C15.4,24.2,14.5,24.2,13.6,24.2z"/>
	<path fill="#8F9BA8" d="M13.6,31.2c-6.2,0-12.7-1.7-12.7-4.8V5.6h1.5c0,1.4,4.3,3.3,11.2,3.3c7,0,11.2-1.9,11.2-3.3h1.5v11.3h-1.5
		V7.9c-2.3,1.6-6.9,2.4-11.2,2.4c-4.4,0-8.9-0.8-11.2-2.4v18.5c0,1.4,4.3,3.3,11.2,3.3c2.3,0,4.5-0.2,6.5-0.7l0.3,1.5
		C18.4,30.9,16,31.2,13.6,31.2z"/>
	<rect x="20.2" y="22.7" fill="#79C693" width="6.3" height="1.5"/>
	<path fill="#79C693" d="M23.4,31.3c-4.3,0-7.8-3.5-7.8-7.8c0-4.3,3.5-7.8,7.8-7.8c4.3,0,7.8,3.5,7.8,7.8
		C31.1,27.8,27.6,31.3,23.4,31.3z M23.4,17.2c-3.5,0-6.3,2.8-6.3,6.3c0,3.4,2.8,6.3,6.3,6.3c3.4,0,6.3-2.8,6.3-6.3
		C29.6,20,26.8,17.2,23.4,17.2z"/>
</g>
</svg>
