<?xml version="1.0" encoding="utf-8"?>
<!-- Generator: Adobe Illustrator 18.0.0, SVG Export Plug-In . SVG Version: 6.00 Build 0)  -->
<!DOCTYPE svg PUBLIC "-//W3C//DTD SVG 1.1//EN" "http://www.w3.org/Graphics/SVG/1.1/DTD/svg11.dtd">
<svg version="1.1" id="Layer_1" xmlns="http://www.w3.org/2000/svg" xmlns:xlink="http://www.w3.org/1999/xlink" x="0px" y="0px"
	 viewBox="0 0 32 32" enable-background="new 0 0 32 32" xml:space="preserve">
<g>
	<g>
		<ellipse fill="#F9F8F2" cx="23.2" cy="22.5" rx="4.9" ry="4.9"/>
		<path fill="#B4A79C" d="M23.2,28.1c-0.1,0-0.2,0-0.2,0c-3.1-0.1-5.5-2.8-5.4-5.9s2.7-5.6,5.9-5.4c1.5,0.1,2.9,0.7,3.9,1.8
			c1,1.1,1.6,2.6,1.5,4.1C28.7,25.7,26.3,28.1,23.2,28.1z M23.2,18.3c-2.2,0-4.1,1.8-4.2,4c-0.1,2.3,1.7,4.2,4,4.3h0.2
			c2.2,0,4.1-1.8,4.2-4c0-1.1-0.3-2.2-1.1-3c-0.8-0.8-1.8-1.3-2.9-1.3H23.2z"/>
	</g>
	<g>
		<line fill="none" x1="26.9" y1="26.8" x2="30.2" y2="30.5"/>
		
			<rect x="26.1" y="27.9" transform="matrix(-0.6731 -0.7396 0.7396 -0.6731 26.5509 69.0403)" fill="#B4A79C" width="4.9" height="1.5"/>
	</g>
	<path fill="#8F9BA8" d="M14,10.4c-6.2,0-12.7-1.7-12.7-4.8c0-3.2,6.4-4.8,12.7-4.8s12.7,1.6,12.7,4.8C26.7,8.7,20.1,10.4,14,10.4z
		 M14,2.3C7,2.3,2.7,4.2,2.7,5.6S7,8.9,14,8.9S25.2,7,25.2,5.6S20.9,2.3,14,2.3z"/>
	<path fill="#8F9BA8" d="M14,17.3c-6.2,0-12.7-1.7-12.7-4.8h1.5c0,1.4,4.3,3.3,11.2,3.3s11.2-1.9,11.2-3.3h1.5
		C26.7,15.6,20.1,17.3,14,17.3z"/>
	<path fill="#8F9BA8" d="M14,24.3c-6.2,0-12.7-1.7-12.7-4.8h1.5c0,1.4,4.3,3.3,11.2,3.3c0.4,0,0.8,0,1.1,0v1.5
		C14.7,24.3,14.4,24.3,14,24.3z"/>
	<path fill="#8F9BA8" d="M14,31.2c-6.2,0-12.7-1.7-12.7-4.8V5.6h1.5C2.7,7,7,8.9,14,8.9S25.2,7,25.2,5.6h1.5v9.7h-1.5V7.9
		c-2.3,1.6-6.9,2.4-11.2,2.4C9.6,10.4,5,9.5,2.7,7.9v18.5c0,1.4,4.3,3.3,11.2,3.3c2.3,0,4.5-0.2,6.5-0.7l0.3,1.5
		C18.7,31,16.4,31.2,14,31.2z"/>
</g>
</svg>
