<?xml version="1.0" encoding="utf-8"?>
<!-- Generator: Adobe Illustrator 18.0.0, SVG Export Plug-In . SVG Version: 6.00 Build 0)  -->
<!DOCTYPE svg PUBLIC "-//W3C//DTD SVG 1.1//EN" "http://www.w3.org/Graphics/SVG/1.1/DTD/svg11.dtd">
<svg version="1.1" id="Layer_1" xmlns="http://www.w3.org/2000/svg" xmlns:xlink="http://www.w3.org/1999/xlink" x="0px" y="0px"
	 viewBox="0 0 32 32" enable-background="new 0 0 32 32" xml:space="preserve">
<g>
	<g>
		<polygon fill="#CDE4F7" points="21.7,27.2 17.6,28.4 18.9,24.4 26.5,16.8 29.3,19.6 		"/>
		<path fill="#74B1E0" d="M16.5,29.5l1.7-5.5l8.3-8.3l3.8,3.8l-8.3,8.3L16.5,29.5z M19.5,24.8l-0.8,2.5l2.5-0.8l6.9-7l-1.7-1.7
			L19.5,24.8z"/>
	</g>
	<path fill="#8F9BA8" d="M13.6,10.8c-5.9,0-12-1.6-12-4.5c0-3,6-4.5,12-4.5c5.9,0,12,1.6,12,4.5C25.6,9.2,19.6,10.8,13.6,10.8z
		 M13.6,3.2C7.3,3.2,3.2,5,3.2,6.2c0,1.2,4.1,3,10.5,3s10.5-1.8,10.5-3C24.1,5,20,3.2,13.6,3.2z"/>
	<path fill="#8F9BA8" d="M13.6,17.3c-5.9,0-12-1.6-12-4.5h1.5c0,1.2,4.1,3,10.5,3s10.5-1.8,10.5-3h1.5
		C25.6,15.7,19.6,17.3,13.6,17.3z"/>
	<path fill="#8F9BA8" d="M13.6,23.8c-5.9,0-12-1.6-12-4.6h1.5c0,1.2,4.1,3.1,10.5,3.1c0.8,0,1.6,0,2.3-0.1l0.1,1.5
		C15.3,23.8,14.5,23.8,13.6,23.8z"/>
	<path fill="#8F9BA8" d="M13.6,30.3c-5.9,0-12-1.6-12-4.6V6.2h1.5c0,1.2,4.1,3,10.5,3s10.5-1.8,10.5-3h1.5v8.4h-1.5V8.6
		c-4.3,2.9-16.6,2.9-20.9,0v17.2c0,1.2,4.1,3.1,10.5,3.1V30.3z"/>
</g>
</svg>
