<?xml version="1.0" encoding="utf-8"?>
<!-- Generator: Adobe Illustrator 18.0.0, SVG Export Plug-In . SVG Version: 6.00 Build 0)  -->
<!DOCTYPE svg PUBLIC "-//W3C//DTD SVG 1.1//EN" "http://www.w3.org/Graphics/SVG/1.1/DTD/svg11.dtd">
<svg version="1.1" id="Layer_1" xmlns="http://www.w3.org/2000/svg" xmlns:xlink="http://www.w3.org/1999/xlink" x="0px" y="0px"
	 viewBox="0 0 32 32" enable-background="new 0 0 32 32" xml:space="preserve">
<g>
	<path fill="#8F9BA8" d="M13.3,10.4c-6.2,0-12.7-1.7-12.7-4.8c0-3.1,6.6-4.8,12.7-4.8c6.3,0,12.7,1.7,12.7,4.8
		C26.1,8.7,19.6,10.4,13.3,10.4z M13.3,2.3c-7,0-11.2,1.9-11.2,3.3c0,1.4,4.3,3.3,11.2,3.3c7,0,11.2-1.9,11.2-3.3
		C24.6,4.2,20.3,2.3,13.3,2.3z"/>
	<path fill="#8F9BA8" d="M13.3,17.3c-6.2,0-12.7-1.7-12.7-4.8h1.5c0,1.4,4.3,3.3,11.2,3.3c7,0,11.2-1.9,11.2-3.3h1.5
		C26.1,15.6,19.5,17.3,13.3,17.3z"/>
	<path fill="#8F9BA8" d="M13.3,24.3c-6.2,0-12.7-1.7-12.7-4.8h1.5c0,1.4,4.3,3.3,11.2,3.3c0.5,0,1,0,1.5,0l0.1,1.5
		C14.4,24.3,13.8,24.3,13.3,24.3z"/>
	<path fill="#8F9BA8" d="M13.3,31.3c-6.2,0-12.7-1.7-12.7-4.8V5.6h1.5c0,1.4,4.3,3.3,11.2,3.3c7,0,11.2-1.9,11.2-3.3h1.5v11.3h-1.5
		V8c-2.3,1.6-6.8,2.4-11.2,2.4c-4.4,0-9-0.8-11.2-2.5v18.5c0,1.4,4.3,3.3,11.2,3.3c2.3,0,4.6-0.2,6.5-0.7l0.3,1.5
		C18.1,31,15.7,31.3,13.3,31.3z"/>
	<path fill="#8F9BA8" d="M22.8,27.8c-1.1,0-2.2-0.4-3-1.1l-2.4-2l0.9-1.2l2.4,2c0.7,0.6,1.5,0.8,2.4,0.7c0.7-0.1,1.4-0.4,1.8-0.9
		c1-1.2,0.7-3.1-0.6-4.2l-2.4-2l0.9-1.2l2.4,2c2,1.6,2.4,4.4,0.8,6.3c-0.7,0.8-1.7,1.4-2.8,1.5C23.1,27.8,23,27.8,22.8,27.8z"/>
	
		<rect x="24.7" y="27.3" transform="matrix(0.7742 0.6329 -0.6329 0.7742 24.1234 -11.5396)" fill="#8F9BA8" width="7" height="1.5"/>
</g>
</svg>
