<?xml version="1.0" encoding="utf-8"?>
<!-- Generator: Adobe Illustrator 18.0.0, SVG Export Plug-In . SVG Version: 6.00 Build 0)  -->
<!DOCTYPE svg PUBLIC "-//W3C//DTD SVG 1.1//EN" "http://www.w3.org/Graphics/SVG/1.1/DTD/svg11.dtd">
<svg version="1.1" id="Layer_1" xmlns="http://www.w3.org/2000/svg" xmlns:xlink="http://www.w3.org/1999/xlink" x="0px" y="0px"
	 viewBox="0 0 32 32" enable-background="new 0 0 32 32" xml:space="preserve">
<g>
	<path fill="#8F9BA8" d="M13.3,12.1c-3.2,0-5.7-2.5-5.7-5.7c0-3.1,2.6-5.7,5.7-5.7c3.2,0,5.7,2.5,5.7,5.7
		C19,9.5,16.4,12.1,13.3,12.1z M13.3,2.2C10.9,2.2,9,4.1,9,6.4c0,2.3,1.9,4.2,4.2,4.2s4.2-1.9,4.2-4.2C17.5,4.1,15.6,2.2,13.3,2.2z"
		/>
	<path fill="#8F9BA8" d="M17.9,26.3H0.5v-0.8c0-7,5.7-12.6,12.8-12.6c3.1,0,6.1,1.1,8.5,3.2l1,0.8l-1.2,0.4c-2.5,0.9-4.2,3.3-4.2,6
		c0,0.6,0.1,1.3,0.3,2L17.9,26.3z M2,24.8h13.9c-0.1-0.5-0.2-1-0.2-1.4c0-2.9,1.6-5.5,4.1-6.9c-1.9-1.3-4.2-2.1-6.5-2.1
		C7.3,14.4,2.4,19,2,24.8z"/>
	
		<rect x="22.9" y="16.4" transform="matrix(0.8215 0.5702 -0.5702 0.8215 17.5548 -9.3076)" fill="#79C693" width="1.5" height="14"/>
	<path fill="#79C693" d="M23.6,31.3c-4.4,0-7.9-3.5-7.9-7.9c0-4.4,3.5-7.9,7.9-7.9c4.4,0,7.9,3.5,7.9,7.9
		C31.5,27.7,28,31.3,23.6,31.3z M23.6,17c-3.5,0-6.4,2.9-6.4,6.4c0,3.5,2.9,6.4,6.4,6.4c3.5,0,6.4-2.9,6.4-6.4
		C30,19.9,27.2,17,23.6,17z"/>
</g>
</svg>
