<?xml version="1.0" encoding="utf-8"?>
<!-- Generator: Adobe Illustrator 18.0.0, SVG Export Plug-In . SVG Version: 6.00 Build 0)  -->
<!DOCTYPE svg PUBLIC "-//W3C//DTD SVG 1.1//EN" "http://www.w3.org/Graphics/SVG/1.1/DTD/svg11.dtd">
<svg version="1.1" id="Layer_1" xmlns="http://www.w3.org/2000/svg" xmlns:xlink="http://www.w3.org/1999/xlink" x="0px" y="0px"
	 viewBox="0 0 32 32" enable-background="new 0 0 32 32" xml:space="preserve">
<g>
	<g>
		<path fill="#FAC2C3" d="M20.7,9.8C20.7,9.8,20.7,9.7,20.7,9.8c0-3.4-2.1-6.1-4.7-6.1s-4.7,2.7-4.7,6v0.1c1.4,0.8,3,1.4,4.7,1.4
			C17.7,11.2,19.3,10.6,20.7,9.8z"/>
		<path fill="#DA8C8C" d="M16,12c-1.6,0-3.3-0.5-5-1.5l-0.3-0.2l-0.1-0.6C10.6,6,13,3,16,3s5.4,3,5.4,6.7l0.1,0.5l-0.4,0.2
			C19.3,11.5,17.6,12,16,12z M12.1,9.4c2.7,1.4,5.1,1.4,7.9,0c-0.1-2.7-1.8-4.9-3.9-4.9C13.9,4.5,12.2,6.7,12.1,9.4z"/>
	</g>
	<path fill="#8F9BA8" d="M16,31.4l-0.6-1c0-0.1-0.8-1.3-3.6-1.6l-0.7-0.1V28c0,0,0.1-2.5-1.3-3.9C9,23.4,8,23,6.6,23.1H5.9l-0.1-0.7
		c0,0-0.4-4.3-3.1-4.3c-0.3,0-0.6,0-0.9,0.1l-0.9,0.2l-0.1-0.9c0-0.4-0.8-10,5.1-12.8l0.5-0.2L6.8,5c0,0,2.1,2.5,4.9,4.1
		c1.5,0.8,2.9,1.3,4.3,1.3s2.8-0.4,4.3-1.3C23.1,7.5,25.1,5,25.2,5l0.4-0.5l0.5,0.2C32,7.4,31.3,17,31.2,17.5l-0.1,0.9l-0.9-0.2
		c-0.3-0.1-0.6-0.1-0.9-0.1c-2.7,0-3.1,4.2-3.1,4.3l-0.1,0.7h-0.7c-1.4-0.1-2.4,0.3-3.2,1c-1.4,1.4-1.3,3.9-1.3,3.9v0.7l-0.7,0.1
		c-2.8,0.3-3.6,1.5-3.6,1.6L16,31.4z M12.6,27.4c1.8,0.3,2.8,1,3.4,1.5c0.6-0.5,1.7-1.2,3.4-1.5c0.1-1,0.4-2.9,1.7-4.3
		c0.9-1,2.2-1.5,3.7-1.5c0.4-2,1.6-5,4.5-5c0.1,0,0.3,0,0.4,0c0-2.2-0.2-8-3.8-10.2c-0.8,0.9-2.6,2.7-4.9,4c-3.5,2-6.6,2-10.1,0
		C8.6,9.2,6.8,7.3,6,6.5c-3.6,2.1-3.8,8-3.8,10.2c3.2-0.3,4.6,2.8,4.9,4.9c1.5,0,2.7,0.5,3.7,1.5C12.2,24.4,12.5,26.4,12.6,27.4z"/>
	<g>
		<line fill="none" x1="12" y1="1" x2="13.9" y2="4.3"/>
		
			<rect x="11.1" y="1.9" transform="matrix(-0.4973 -0.8676 0.8676 -0.4973 17.1072 15.233)" fill="#DA8C8C" width="3.8" height="1.5"/>
	</g>
	<g>
		<line fill="none" x1="20" y1="1" x2="18.1" y2="4.3"/>
		
			<rect x="18.3" y="0.7" transform="matrix(-0.8674 -0.4975 0.4975 -0.8674 34.2909 14.3662)" fill="#DA8C8C" width="1.5" height="3.8"/>
	</g>
</g>
</svg>
