<?xml version="1.0" encoding="utf-8"?>
<!-- Generator: Adobe Illustrator 18.0.0, SVG Export Plug-In . SVG Version: 6.00 Build 0)  -->
<!DOCTYPE svg PUBLIC "-//W3C//DTD SVG 1.1//EN" "http://www.w3.org/Graphics/SVG/1.1/DTD/svg11.dtd">
<svg version="1.1" id="Layer_1" xmlns="http://www.w3.org/2000/svg" xmlns:xlink="http://www.w3.org/1999/xlink" x="0px" y="0px"
	 viewBox="0 0 32 32" enable-background="new 0 0 32 32" xml:space="preserve">
<g>
	<path fill="#B4A79C" d="M27.9,12.8c-1.4-5.3-6.2-9.1-11.7-9.1c-5.4,0-10,3.4-11.6,8.6l-1.4-0.4c1.8-5.8,7-9.6,13-9.6
		c6.2,0,11.6,4.2,13.2,10.2L27.9,12.8z"/>
	<polygon fill="#B4A79C" points="3.1,13.9 0.8,8 2.2,7.5 3.9,11.9 8.2,9.9 8.8,11.3 	"/>
	<path fill="#B4A79C" d="M15.8,29.8c-6.2,0-11.6-4.2-13.2-10.2l1.5-0.4c1.4,5.3,6.2,9.1,11.7,9.1c5.4,0,10-3.4,11.6-8.6l1.4,0.4
		C27.1,25.9,21.8,29.8,15.8,29.8z"/>
	<polygon fill="#B4A79C" points="29.8,24.5 28.1,20.1 23.8,22.1 23.2,20.7 28.9,18.1 31.2,24 	"/>
</g>
</svg>
