<?xml version="1.0" encoding="utf-8"?>
<!-- Generator: Adobe Illustrator 18.0.0, SVG Export Plug-In . SVG Version: 6.00 Build 0)  -->
<!DOCTYPE svg PUBLIC "-//W3C//DTD SVG 1.1//EN" "http://www.w3.org/Graphics/SVG/1.1/DTD/svg11.dtd">
<svg version="1.1" id="Layer_1" xmlns="http://www.w3.org/2000/svg" xmlns:xlink="http://www.w3.org/1999/xlink" x="0px" y="0px"
	 viewBox="0 0 32 32" enable-background="new 0 0 32 32" xml:space="preserve">
<g>
	
		<rect x="8.2" y="-0.7" transform="matrix(0.5021 0.8648 -0.8648 0.5021 8.6587 -5.2791)" fill="#8F9BA8" width="1.5" height="11.2"/>
	
		<rect x="14.8" y="3.6" transform="matrix(0.5011 0.8654 -0.8654 0.5011 12.5922 -10.652)" fill="#8F9BA8" width="1.5" height="4.1"/>
	
		<rect x="16.2" y="7.4" transform="matrix(0.5016 0.8651 -0.8651 0.5016 16.6205 -9.9047)" fill="#8F9BA8" width="1.5" height="4.1"/>
	
		<rect x="16.2" y="12.5" transform="matrix(0.5021 0.8648 -0.8648 0.5021 20.9417 -7.4104)" fill="#8F9BA8" width="1.5" height="4.1"/>
	
		<rect x="16" y="24.3" transform="matrix(0.5016 0.8651 -0.8651 0.5016 31.1871 -1.3797)" fill="#8F9BA8" width="1.5" height="4.1"/>
	<path fill="#8F9BA8" d="M19.7,17.9h-1.5V9.3c0-3.9-3.1-7.1-7-7.1c-3.8,0-7,3.2-7,7.1c0,0.8,0.6,1.4,1.4,1.4s1.4-0.6,1.4-1.4
		C7.1,7,9,5,11.3,5c2.3,0,4.2,1.9,4.2,4.3v8.5H14V9.3c0-1.6-1.2-2.8-2.7-2.8c-1.5,0-2.7,1.3-2.7,2.8c0,1.6-1.3,2.9-2.9,2.9
		c-1.6,0-2.9-1.3-2.9-2.9c0-4.7,3.8-8.6,8.5-8.6c4.7,0,8.5,3.9,8.5,8.6V17.9z"/>
	<path fill="#8F9BA8" d="M16.8,31.3c-1.6,0-2.9-1.3-2.9-2.9v-5.9h1.5v5.9c0,0.8,0.6,1.4,1.4,1.4c0.8,0,1.4-0.6,1.4-1.4v-6h1.5v6
		C19.7,30,18.4,31.3,16.8,31.3z"/>
	<g>
		<path fill="#CDE4F7" d="M14.1,18.6c-0.4-0.2-2.3-0.9-2.9-1.1c-0.6-0.2-1.1-0.5-1.7-0.7c-0.8-0.3-1.7-0.6-2.5-0.7
			c-0.7,0-1.3-0.2-1.5,0.5c-0.3,0.7-0.1,1.5-0.1,2.2c0,1.3-0.4,2.4-0.1,3.7c0.3,1.6,1.8,1.6,3.2,1.1c1-0.4,2-0.7,3.1-1.1
			c0.6-0.3,1.4-0.3,2-0.8"/>
		<path fill="#74B1E0" d="M7,24.7c-0.5,0-1-0.1-1.3-0.3c-0.4-0.2-1-0.7-1.2-1.7c-0.2-0.9-0.1-1.7,0-2.5c0.1-0.4,0.1-0.9,0.1-1.3
			c0-0.2,0-0.3,0-0.5c0-0.6-0.1-1.4,0.2-2c0.4-1.1,1.4-1.1,2-1l0.2,0c0.8,0,1.5,0.3,2.2,0.5c0.2,0.1,0.4,0.1,0.5,0.2
			c0.4,0.1,0.7,0.3,1,0.4c0.2,0.1,0.5,0.2,0.7,0.3c1.7,0.6,2.7,1,3,1.2l-0.7,1.3c-0.2-0.1-1-0.4-2.8-1.1c-0.3-0.1-0.5-0.2-0.8-0.3
			c-0.3-0.1-0.6-0.3-0.8-0.4c-0.2-0.1-0.4-0.1-0.6-0.2c-0.6-0.2-1.2-0.4-1.8-0.4l-0.3,0c-0.2,0-0.4,0-0.5,0C6,17.3,6,17.8,6,18.3
			c0,0.2,0,0.4,0,0.6c0,0.5-0.1,1-0.1,1.5c-0.1,0.7-0.2,1.4,0,2c0.1,0.5,0.4,0.6,0.4,0.7c0.4,0.2,1,0.2,1.7-0.1
			c0.4-0.1,0.7-0.3,1.1-0.4c0.7-0.2,1.3-0.5,2-0.7c0.3-0.1,0.6-0.2,0.8-0.3c0.4-0.1,0.7-0.2,1-0.4l0.9,1.2c-0.5,0.3-1,0.5-1.5,0.6
			c-0.2,0.1-0.5,0.1-0.7,0.2c-0.7,0.3-1.4,0.5-2.1,0.8c-0.3,0.1-0.7,0.2-1,0.4C8,24.6,7.5,24.7,7,24.7z"/>
	</g>
	<g>
		<path fill="#CDE4F7" d="M19.4,18.6c0.4-0.2,2.3-0.9,2.9-1.1c0.6-0.2,1.1-0.5,1.7-0.7c0.8-0.3,1.7-0.6,2.5-0.7
			c0.7,0,1.3-0.2,1.5,0.5c0.3,0.7,0.1,1.5,0.1,2.2c0,1.3,0.4,2.4,0.1,3.7c-0.3,1.6-1.8,1.6-3.2,1.1c-1-0.4-2-0.7-3.1-1.1
			c-0.6-0.3-1.4-0.3-2-0.8"/>
		<path fill="#74B1E0" d="M26.6,24.7c-0.5,0-1.1-0.1-1.6-0.3c-0.3-0.1-0.7-0.2-1-0.4c-0.7-0.2-1.4-0.5-2.1-0.8
			c-0.2-0.1-0.4-0.2-0.7-0.2c-0.5-0.1-1-0.3-1.5-0.6l0.9-1.2c0.2,0.2,0.6,0.3,1,0.4c0.3,0.1,0.6,0.2,0.8,0.3c0.7,0.3,1.3,0.5,2,0.7
			c0.4,0.1,0.7,0.2,1.1,0.4c0.7,0.3,1.4,0.3,1.7,0.1c0.1,0,0.3-0.2,0.4-0.7c0.1-0.7,0.1-1.3,0-2c-0.1-0.5-0.1-1-0.1-1.5
			c0-0.2,0-0.4,0-0.6c0-0.5,0-1-0.1-1.4c-0.1-0.1-0.3-0.1-0.5-0.1l-0.3,0c-0.6,0-1.1,0.2-1.8,0.4c-0.2,0.1-0.4,0.1-0.6,0.2
			c-0.3,0.1-0.6,0.2-0.8,0.4c-0.3,0.1-0.5,0.2-0.8,0.3c-1.2,0.4-2.5,1-2.8,1.1L19.1,18c0.4-0.2,2.2-0.9,3-1.2
			c0.2-0.1,0.5-0.2,0.7-0.3c0.3-0.2,0.7-0.3,1-0.4c0.2-0.1,0.4-0.1,0.6-0.2c0.7-0.2,1.4-0.5,2.2-0.5l0.2,0c0.6,0,1.6-0.1,2,1
			c0.2,0.6,0.2,1.4,0.2,2c0,0.2,0,0.4,0,0.5c0,0.4,0.1,0.9,0.1,1.3c0.1,0.8,0.2,1.6,0,2.5c-0.2,1-0.8,1.5-1.2,1.7
			C27.5,24.6,27.1,24.7,26.6,24.7z"/>
	</g>
	<g>
		<path fill="#CDE4F7" d="M19.9,20.1c0,1.7-1.4,3.1-3.1,3.1c-1.7,0-3.1-1.4-3.1-3.1c0-1.7,1.4-3.1,3.1-3.1
			C18.5,17,19.9,18.4,19.9,20.1z"/>
		<path fill="#74B1E0" d="M16.8,24c-2.1,0-3.9-1.7-3.9-3.9c0-2.1,1.7-3.9,3.9-3.9c2.1,0,3.9,1.7,3.9,3.9C20.7,22.3,18.9,24,16.8,24z
			 M16.8,17.8c-1.3,0-2.4,1.1-2.4,2.4c0,1.3,1.1,2.4,2.4,2.4c1.3,0,2.4-1.1,2.4-2.4C19.2,18.8,18.1,17.8,16.8,17.8z"/>
	</g>
</g>
</svg>
