<?xml version="1.0" encoding="utf-8"?>
<!-- Generator: Adobe Illustrator 18.0.0, SVG Export Plug-In . SVG Version: 6.00 Build 0)  -->
<!DOCTYPE svg PUBLIC "-//W3C//DTD SVG 1.1//EN" "http://www.w3.org/Graphics/SVG/1.1/DTD/svg11.dtd">
<svg version="1.1" id="Layer_1" xmlns="http://www.w3.org/2000/svg" xmlns:xlink="http://www.w3.org/1999/xlink" x="0px" y="0px"
	 viewBox="0 0 32 32" enable-background="new 0 0 32 32" xml:space="preserve">
<g>
	<path fill="#79C693" d="M21.6,31.3c-1.6,0-2.9-1.3-2.9-2.9v-19c0-1.6-1.2-2.8-2.7-2.8c-1.5,0-2.7,1.3-2.7,2.8
		c0,1.6-1.3,2.9-2.9,2.9c-1.6,0-2.9-1.3-2.9-2.9c0-4.7,3.8-8.6,8.5-8.6c4.7,0,8.5,3.9,8.5,8.6v19C24.5,30,23.2,31.3,21.6,31.3z
		 M16,5c2.3,0,4.2,1.9,4.2,4.3v19c0,0.8,0.6,1.4,1.4,1.4c0.8,0,1.4-0.6,1.4-1.4v-19c0-3.9-3.1-7.1-7-7.1c-3.8,0-7,3.2-7,7.1
		c0,0.8,0.6,1.4,1.4,1.4c0.8,0,1.4-0.6,1.4-1.4C11.8,7,13.7,5,16,5z"/>
	<path fill="#79C693" d="M8.8,8.5c-0.3,0-0.5-0.1-0.6-0.4C7.9,7.7,8,7.3,8.4,7.1l9.7-5.6c0.4-0.2,0.8-0.1,1,0.3
		c0.2,0.4,0.1,0.8-0.3,1L9.2,8.3C9,8.4,8.9,8.5,8.8,8.5z"/>
	<path fill="#79C693" d="M18.5,7.4c-0.3,0-0.5-0.1-0.6-0.4c-0.2-0.4-0.1-0.8,0.3-1l3.5-2c0.4-0.2,0.8-0.1,1,0.3
		c0.2,0.4,0.1,0.8-0.3,1l-3.5,2C18.8,7.3,18.6,7.4,18.5,7.4z"/>
	<path fill="#79C693" d="M19.9,11.2c-0.3,0-0.5-0.1-0.6-0.4c-0.2-0.4-0.1-0.8,0.3-1l3.5-2c0.4-0.2,0.8-0.1,1,0.3
		c0.2,0.4,0.1,0.8-0.3,1l-3.5,2C20.1,11.2,20,11.2,19.9,11.2z"/>
	<path fill="#79C693" d="M19.9,16.3c-0.3,0-0.5-0.1-0.6-0.4c-0.2-0.4-0.1-0.8,0.3-1l3.5-2c0.4-0.2,0.8-0.1,1,0.3
		c0.2,0.4,0.1,0.8-0.3,1l-3.5,2C20.1,16.2,20,16.3,19.9,16.3z"/>
	<path fill="#79C693" d="M19.6,22.4c-0.3,0-0.5-0.1-0.6-0.4c-0.2-0.4-0.1-0.8,0.3-1l3.5-2c0.4-0.2,0.8-0.1,1,0.3
		c0.2,0.4,0.1,0.8-0.3,1l-3.5,2C19.9,22.3,19.8,22.4,19.6,22.4z"/>
	<path fill="#79C693" d="M19.6,28.1c-0.3,0-0.5-0.1-0.6-0.4c-0.2-0.4-0.1-0.8,0.3-1l3.5-2c0.4-0.2,0.8-0.1,1,0.3
		c0.2,0.4,0.1,0.8-0.3,1L20,28C19.9,28.1,19.8,28.1,19.6,28.1z"/>
</g>
</svg>
