<?xml version="1.0" encoding="utf-8"?>
<!-- Generator: Adobe Illustrator 18.0.0, SVG Export Plug-In . SVG Version: 6.00 Build 0)  -->
<!DOCTYPE svg PUBLIC "-//W3C//DTD SVG 1.1//EN" "http://www.w3.org/Graphics/SVG/1.1/DTD/svg11.dtd">
<svg version="1.1" id="Layer_1" xmlns="http://www.w3.org/2000/svg" xmlns:xlink="http://www.w3.org/1999/xlink" x="0px" y="0px"
	 viewBox="0 0 32 32" enable-background="new 0 0 32 32" xml:space="preserve">
<g>
	<rect x="15.3" y="2.6" fill="#74B1E0" width="1.5" height="18.7"/>
	<path fill="#74B1E0" d="M21,7.6c-0.2-0.1-0.3-0.1-5-5l-4.6,4.8l-1.1-1L16,0.4L16.5,1c1.9,1.9,4.9,5.1,5.2,5.3l-0.5,0.5L21,7.6z"/>
	<rect x="15.2" y="19" fill="#74B1E0" width="1.5" height="10.4"/>
	<path fill="#74B1E0" d="M16,31.6L15.5,31c-1.9-1.9-5-5.1-5.2-5.3l0.5-0.5l0.3-0.8c0.2,0.1,0.2,0.1,5,5l4.6-4.8l1.1,1L16,31.6z"/>
	<rect x="12.1" y="15.3" fill="#74B1E0" width="17.3" height="1.5"/>
	<path fill="#74B1E0" d="M25.7,21.7l-0.5-0.5L24.4,21c0.1-0.2,0.1-0.3,5-5l-4.8-4.6l1-1.1l5.9,5.7L31,16.5
		C29.1,18.4,25.9,21.4,25.7,21.7z"/>
	<rect x="2.6" y="15.2" fill="#74B1E0" width="10.4" height="1.5"/>
	<path fill="#74B1E0" d="M6.4,21.8L0.4,16L1,15.5c1.9-1.9,5.1-5,5.3-5.2l0.5,0.5L7.6,11c-0.1,0.2-0.1,0.2-5,5l4.8,4.6L6.4,21.8z"/>
</g>
</svg>
