<?xml version="1.0" encoding="utf-8"?>
<!-- Generator: Adobe Illustrator 18.0.0, SVG Export Plug-In . SVG Version: 6.00 Build 0)  -->
<!DOCTYPE svg PUBLIC "-//W3C//DTD SVG 1.1//EN" "http://www.w3.org/Graphics/SVG/1.1/DTD/svg11.dtd">
<svg version="1.1" id="Layer_1" xmlns="http://www.w3.org/2000/svg" xmlns:xlink="http://www.w3.org/1999/xlink" x="0px" y="0px"
	 viewBox="0 0 32 32" enable-background="new 0 0 32 32" xml:space="preserve">
<g>
	<path fill="#8F9BA8" d="M13.3,12.1c-3.1,0-5.6-2.5-5.6-5.6c0-3.1,2.5-5.6,5.6-5.6C16.4,1,19,3.5,19,6.6C19,9.6,16.4,12.1,13.3,12.1
		z M13.3,2.5c-2.3,0-4.1,1.8-4.1,4.1c0,2.2,1.9,4.1,4.1,4.1c2.3,0,4.1-1.8,4.1-4.1C17.5,4.3,15.6,2.5,13.3,2.5z"/>
	<path fill="#8F9BA8" d="M17.9,26.1H0.8v-0.8C0.8,18.5,6.4,13,13.3,13c3.1,0,6,1.1,8.3,3.1l1,0.8l-1.2,0.4c-2.5,0.9-4.2,3.2-4.2,5.9
		c0,0.6,0.1,1.2,0.3,1.9L17.9,26.1z M2.3,24.6h13.6c-0.1-0.5-0.1-0.9-0.1-1.4c0-2.8,1.6-5.4,4-6.7c-1.9-1.3-4.1-2-6.4-2
		C7.5,14.5,2.7,19,2.3,24.6z"/>
	<g>
		<path fill="#F2E8B9" d="M30.5,23.2c0,3.9-3.1,7-7,7c-3.9,0-7-3.1-7-7c0-3.9,3.1-7,7-7C27.4,16.2,30.5,19.4,30.5,23.2z"/>
		<path fill="#B4A042" d="M23.5,31c-4.3,0-7.8-3.5-7.8-7.8c0-4.3,3.5-7.8,7.8-7.8c4.3,0,7.8,3.5,7.8,7.8C31.3,27.5,27.8,31,23.5,31z
			 M23.5,17c-3.5,0-6.3,2.8-6.3,6.3c0,3.5,2.8,6.3,6.3,6.3c3.4,0,6.3-2.8,6.3-6.3C29.8,19.8,26.9,17,23.5,17z"/>
	</g>
	<g>
		<line fill="#F2E8B9" x1="20.4" y1="23.2" x2="26.6" y2="23.2"/>
		<rect x="20.4" y="22.5" fill="#B4A042" width="6.2" height="1.5"/>
	</g>
	<g>
		<line fill="#F2E8B9" x1="23.5" y1="20.1" x2="23.5" y2="26.3"/>
		<rect x="22.7" y="20.1" fill="#B4A042" width="1.5" height="6.2"/>
	</g>
</g>
</svg>
