<?xml version="1.0" encoding="utf-8"?>
<!-- Generator: Adobe Illustrator 18.0.0, SVG Export Plug-In . SVG Version: 6.00 Build 0)  -->
<!DOCTYPE svg PUBLIC "-//W3C//DTD SVG 1.1//EN" "http://www.w3.org/Graphics/SVG/1.1/DTD/svg11.dtd">
<svg version="1.1" id="Layer_1" xmlns="http://www.w3.org/2000/svg" xmlns:xlink="http://www.w3.org/1999/xlink" x="0px" y="0px"
	 viewBox="0 0 32 32" enable-background="new 0 0 32 32" xml:space="preserve">
<g>
	<path fill="#DA8C8C" d="M22.2,31.3c-1.5,0-2.8-0.9-3.4-2.2l-2.6-5.9L13,29.3c-0.6,1.2-1.9,2-3.3,2c-0.6,0-1.2-0.1-1.7-0.4
		c-1.8-1-2.5-3.2-1.6-5l4.1-7.7v-2.5H6.7c-2.1,0-3.7-1.7-3.7-3.7c0-2.1,1.7-3.7,3.7-3.7h4.9c-0.4-0.7-0.6-1.5-0.6-2.4
		c0-2.7,2.2-4.9,4.9-4.9c2.7,0,4.9,2.2,4.9,4.9c0,0.8-0.2,1.7-0.6,2.4h4.9c2.1,0,3.7,1.7,3.7,3.7c0,2.1-1.7,3.7-3.7,3.7h-3.7v1.3
		l4.1,9.1c0.4,0.9,0.4,1.9,0.1,2.8c-0.4,0.9-1.1,1.7-2,2.1C23.3,31.1,22.8,31.3,22.2,31.3z M16.2,20.6
		C16.3,20.6,16.3,20.6,16.2,20.6c0.3,0,0.6,0.2,0.7,0.4l3.3,7.3c0.5,1.1,1.8,1.6,2.9,1.1c0.5-0.2,1-0.7,1.2-1.2
		c0.2-0.6,0.2-1.2,0-1.7l-4.1-9.3c0-0.1-0.1-0.2-0.1-0.3v-2.3c0-0.4,0.3-0.8,0.8-0.8h4.5c1.2,0,2.2-1,2.2-2.2c0-1.2-1-2.2-2.2-2.2
		h-6.5c-0.3,0-0.6-0.2-0.7-0.5c-0.1-0.3,0-0.6,0.2-0.8c0.8-0.7,1.2-1.6,1.2-2.6c0-1.9-1.5-3.4-3.4-3.4c-1.9,0-3.4,1.5-3.4,3.4
		c0,1,0.4,1.9,1.2,2.6C14,8.5,14,8.8,13.9,9.1c-0.1,0.3-0.4,0.5-0.7,0.5H6.7c-1.2,0-2.2,1-2.2,2.2c0,1.2,1,2.2,2.2,2.2h4.4
		c0.4,0,0.8,0.3,0.8,0.8v3.5c0,0.1,0,0.2-0.1,0.3l-4.1,7.9c-0.6,1.1-0.1,2.4,0.9,3c1.1,0.6,2.4,0.1,3-0.9l3.9-7.5
		C15.7,20.8,16,20.6,16.2,20.6z"/>
	<rect x="16.8" y="4.2" fill="#DA8C8C" width="0.9" height="1.5"/>
	<rect x="14.4" y="4.2" fill="#DA8C8C" width="0.9" height="1.5"/>
</g>
</svg>
