<?xml version="1.0" encoding="utf-8"?>
<!-- Generator: Adobe Illustrator 18.0.0, SVG Export Plug-In . SVG Version: 6.00 Build 0)  -->
<!DOCTYPE svg PUBLIC "-//W3C//DTD SVG 1.1//EN" "http://www.w3.org/Graphics/SVG/1.1/DTD/svg11.dtd">
<svg version="1.1" id="Layer_1" xmlns="http://www.w3.org/2000/svg" xmlns:xlink="http://www.w3.org/1999/xlink" x="0px" y="0px"
	 viewBox="0 0 32 32" enable-background="new 0 0 32 32" xml:space="preserve">
<g>
	<path fill="#B4A79C" d="M16,29.3c-7.3,0-13.3-6-13.3-13.3c0-7.3,6-13.3,13.3-13.3c7.3,0,13.3,6,13.3,13.3
		C29.3,23.3,23.3,29.3,16,29.3z M16,4.3C9.5,4.3,4.3,9.5,4.3,16c0,6.5,5.3,11.7,11.7,11.7c6.5,0,11.7-5.3,11.7-11.7
		C27.7,9.5,22.5,4.3,16,4.3z"/>
	<rect x="0.8" y="15.2" fill="#B4A79C" width="30.5" height="1.6"/>
	<rect x="15.2" y="0.8" fill="#B4A79C" width="1.6" height="30.5"/>
</g>
</svg>
