<?xml version="1.0" encoding="utf-8"?>
<!-- Generator: Adobe Illustrator 18.0.0, SVG Export Plug-In . SVG Version: 6.00 Build 0)  -->
<!DOCTYPE svg PUBLIC "-//W3C//DTD SVG 1.1//EN" "http://www.w3.org/Graphics/SVG/1.1/DTD/svg11.dtd">
<svg version="1.1" id="Layer_1" xmlns="http://www.w3.org/2000/svg" xmlns:xlink="http://www.w3.org/1999/xlink" x="0px" y="0px"
	 viewBox="0 0 32 32" enable-background="new 0 0 32 32" xml:space="preserve">
<g>
	<rect x="15.1" y="15.3" fill="#74B1E0" width="13.7" height="1.5"/>
	<path fill="#74B1E0" d="M24.5,22.1l-1-1.1l5.4-4.9c-5.4-5-5.5-5.1-5.5-5.3l1.4-0.6L24,10.5l0.6-0.5c0.2,0.3,3.7,3.4,5.9,5.5
		l0.6,0.6L24.5,22.1z"/>
	<path fill="#74B1E0" d="M8.4,24.1H0.9v-1.5h7.5c3.3,0,5.9-2.6,5.9-5.9v-1.5c0-3.3-2.6-5.9-5.9-5.9H0.9V7.9h7.5
		c4.1,0,7.4,3.3,7.4,7.4v1.5C15.8,20.8,12.5,24.1,8.4,24.1z"/>
</g>
</svg>
