<?xml version="1.0" encoding="utf-8"?>
<!-- Generator: Adobe Illustrator 18.0.0, SVG Export Plug-In . SVG Version: 6.00 Build 0)  -->
<!DOCTYPE svg PUBLIC "-//W3C//DTD SVG 1.1//EN" "http://www.w3.org/Graphics/SVG/1.1/DTD/svg11.dtd">
<svg version="1.1" id="Layer_1" xmlns="http://www.w3.org/2000/svg" xmlns:xlink="http://www.w3.org/1999/xlink" x="0px" y="0px"
	 viewBox="0 0 32 32" enable-background="new 0 0 32 32" xml:space="preserve">
<g>
	<g>
		<polyline fill="#F0F7F7" points="9.2,19.8 1.5,22.6 5,24 5,27.2 7.7,26.5 9.3,30.5 13,22.9 		"/>
		<path fill="#8F9BA8" d="M9.3,31.3C9.3,31.3,9.3,31.3,9.3,31.3c-0.3,0-0.6-0.2-0.7-0.5l-1.4-3.4l-2.1,0.5c-0.2,0.1-0.5,0-0.6-0.1
			c-0.2-0.1-0.3-0.4-0.3-0.6l0-2.7l-3-1.2c-0.3-0.1-0.5-0.4-0.5-0.7c0-0.3,0.2-0.6,0.5-0.7l7.7-2.7l0.5,1.4l-5.8,2.1l1.7,0.7
			c0.3,0.1,0.5,0.4,0.5,0.7l0,2.2l1.8-0.4c0.4-0.1,0.7,0.1,0.9,0.4l1,2.4l3-6.1l1.3,0.7L10,30.8C9.9,31.1,9.6,31.3,9.3,31.3z"/>
	</g>
	<g>
		<polyline fill="#F0F7F7" points="19.8,9.2 22.6,1.5 24,5 27.2,5 26.5,7.7 30.5,9.3 22.9,13 		"/>
		<path fill="#8F9BA8" d="M23.2,13.7l-0.7-1.3l6.1-3l-2.4-1c-0.3-0.1-0.5-0.5-0.4-0.9l0.4-1.8l-2.2,0c-0.3,0-0.6-0.2-0.7-0.5
			l-0.7-1.7l-2.1,5.8l-1.4-0.5l2.7-7.7C22,1,22.3,0.8,22.6,0.8c0.3,0,0.6,0.2,0.7,0.5l1.2,3l2.7,0c0.3,0,0.4,0.1,0.6,0.3
			c0.1,0.2,0.2,0.4,0.1,0.6l-0.5,2.1l3.4,1.4c0.3,0.1,0.5,0.4,0.5,0.7c0,0.3-0.2,0.6-0.4,0.7L23.2,13.7z"/>
	</g>
	<path fill="#8F9BA8" d="M13.6,23.7c-1.4,0-2.6-0.5-3.5-1.3c-2.3-2.3-1.5-7,2-10.4c2.1-2.1,4.7-3.3,7-3.3c1.4,0,2.6,0.5,3.5,1.3
		c2.4,2.4,1.5,6.9-2,10.4C18.4,22.5,15.8,23.7,13.6,23.7z M19,10.2c-1.9,0-4.1,1.1-5.9,2.8c-2.8,2.8-3.7,6.6-2,8.3
		c0.6,0.6,1.4,0.9,2.4,0.9c1.9,0,4.1-1.1,5.9-2.8c2.8-2.8,3.7-6.6,2-8.3C20.8,10.5,20,10.2,19,10.2z"/>
</g>
</svg>
