<?xml version="1.0" encoding="utf-8"?>
<!-- Generator: Adobe Illustrator 18.0.0, SVG Export Plug-In . SVG Version: 6.00 Build 0)  -->
<!DOCTYPE svg PUBLIC "-//W3C//DTD SVG 1.1//EN" "http://www.w3.org/Graphics/SVG/1.1/DTD/svg11.dtd">
<svg version="1.1" id="Layer_1" xmlns="http://www.w3.org/2000/svg" xmlns:xlink="http://www.w3.org/1999/xlink" x="0px" y="0px"
	 viewBox="0 0 32 32" enable-background="new 0 0 32 32" xml:space="preserve">
<g>
	<path fill="#79C693" d="M16,21.2c-5.6,0-10.2-4.6-10.2-10.2C5.8,5.3,10.4,0.8,16,0.8c5.6,0,10.2,4.6,10.2,10.2
		C26.2,16.6,21.6,21.2,16,21.2z M16,2.3c-4.8,0-8.7,3.9-8.7,8.7c0,4.8,3.9,8.7,8.7,8.7c4.8,0,8.7-3.9,8.7-8.7
		C24.7,6.2,20.8,2.3,16,2.3z"/>
	<path fill="#79C693" d="M16,17.3c-3.5,0-6.3-2.8-6.3-6.3c0-3.5,2.8-6.3,6.3-6.3c3.5,0,6.3,2.8,6.3,6.3C22.3,14.4,19.5,17.3,16,17.3
		z M16,6.2c-2.6,0-4.8,2.1-4.8,4.8c0,2.6,2.1,4.8,4.8,4.8c2.6,0,4.8-2.1,4.8-4.8C20.8,8.3,18.6,6.2,16,6.2z"/>
	<path fill="#79C693" d="M16,13.6c-1.5,0-2.7-1.2-2.7-2.7c0-1.5,1.2-2.7,2.7-2.7c1.5,0,2.7,1.2,2.7,2.7C18.7,12.4,17.5,13.6,16,13.6
		z M16,9.8c-0.6,0-1.1,0.5-1.1,1.1c0,0.6,0.5,1.1,1.1,1.1c0.6,0,1.1-0.5,1.1-1.1C17.1,10.3,16.6,9.8,16,9.8z"/>
	<rect x="15.2" y="20.4" fill="#79C693" width="1.5" height="10.9"/>
</g>
</svg>
