<?xml version="1.0" encoding="utf-8"?>
<!-- Generator: Adobe Illustrator 18.0.0, SVG Export Plug-In . SVG Version: 6.00 Build 0)  -->
<!DOCTYPE svg PUBLIC "-//W3C//DTD SVG 1.1//EN" "http://www.w3.org/Graphics/SVG/1.1/DTD/svg11.dtd">
<svg version="1.1" id="Layer_1" xmlns="http://www.w3.org/2000/svg" xmlns:xlink="http://www.w3.org/1999/xlink" x="0px" y="0px"
	 viewBox="0 0 32 32" enable-background="new 0 0 32 32" xml:space="preserve">
<pattern  x="-210" y="-210" width="24.1" height="24.1" patternUnits="userSpaceOnUse" id="New_Pattern_Swatch_1" viewBox="0 -24.1 24.1 24.1" overflow="visible">
	<g>
		<polygon fill="none" points="0,0 24.1,0 24.1,-24.1 0,-24.1 		"/>
		<polygon fill="#FEE99B" points="24.1,0 0,0 0,-24.1 24.1,-24.1 		"/>
	</g>
</pattern>
<pattern  x="-210" y="-210" width="24.1" height="24.1" patternUnits="userSpaceOnUse" id="New_Pattern_Swatch_2" viewBox="0 -24.1 24.1 24.1" overflow="visible">
	<g>
		<polygon fill="none" points="0,0 24.1,0 24.1,-24.1 0,-24.1 		"/>
		<polygon fill="#E0CB81" points="24.1,0 0,0 0,-24.1 24.1,-24.1 		"/>
	</g>
</pattern>
<g>
	<path fill="#8F9BA8" d="M21.7,31.3c-1.2,0-2.3-0.5-3-0.9L8.3,21.4V9.3h1.5v11.4l9.8,8.4c0,0,2.6,1.7,4.5-0.6
		c0.6-0.7,0.9-1.4,0.8-2.2c-0.2-1.3-1.5-2.3-1.5-2.3l-6.6-5.2V9.2h1.5v8.9l6,4.8c0,0,1.8,1.3,2.1,3.3c0.1,1.1-0.3,2.3-1.2,3.3
		C24.2,30.8,22.9,31.3,21.7,31.3z"/>
	<rect x="19.5" y="21.5" transform="matrix(0.669 0.7432 -0.7432 0.669 25.5164 -6.637)" fill="#8F9BA8" width="1.5" height="7.6"/>
	<path fill="#8F9BA8" d="M13.3,24.3L11.9,24c1.3-6.7-2.5-7.8-2.7-7.8l0.3-1.5C9.6,14.7,15,16,13.3,24.3z"/>
	<g>
		<pattern  id="SVGID_1_" xlink:href="#New_Pattern_Swatch_1" patternTransform="matrix(1 0 0 1 -18.1872 -38.1396)">
		</pattern>
		<path fill="url(#SVGID_1_)" d="M20.2,6.2c0,1.7-1.4,3.1-3.2,3.1H9.5c-1.7,0-3.2-1.4-3.2-3.1V4.6c0-1.7,1.4-3.1,3.2-3.1H17
			c1.7,0,3.2,1.4,3.2,3.1V6.2z"/>
		<pattern  id="SVGID_2_" xlink:href="#New_Pattern_Swatch_2" patternTransform="matrix(1 0 0 1 -18.1872 -38.1396)">
		</pattern>
		<path fill="url(#SVGID_2_)" d="M17,10H9.5c-2.2,0-3.9-1.7-3.9-3.8V4.6c0-2.1,1.8-3.8,3.9-3.8H17c2.2,0,3.9,1.7,3.9,3.8v1.6
			C21,8.3,19.2,10,17,10z M9.5,2.3c-1.3,0-2.4,1-2.4,2.3v1.6c0,1.3,1.1,2.3,2.4,2.3H17c1.3,0,2.4-1,2.4-2.3V4.6
			c0-1.3-1.1-2.3-2.4-2.3H9.5z"/>
	</g>
</g>
</svg>
