<?xml version="1.0" encoding="utf-8"?>
<!-- Generator: Adobe Illustrator 18.0.0, SVG Export Plug-In . SVG Version: 6.00 Build 0)  -->
<!DOCTYPE svg PUBLIC "-//W3C//DTD SVG 1.1//EN" "http://www.w3.org/Graphics/SVG/1.1/DTD/svg11.dtd">
<svg version="1.1" id="Layer_1" xmlns="http://www.w3.org/2000/svg" xmlns:xlink="http://www.w3.org/1999/xlink" x="0px" y="0px"
	 viewBox="0 0 32 32" enable-background="new 0 0 32 32" xml:space="preserve">
<g>
	<path fill="#8F9BA8" d="M10.9,31.2c-0.1,0-0.2,0-0.3,0c-0.3-0.1-0.5-0.4-0.5-0.7V12.7h1.5v15.8l3.6-4c0.1-0.2,0.3-0.2,0.5-0.3
		c0.2,0,0.4,0.1,0.6,0.2l4.1,4.2v-16h1.5v17.8c0,0.3-0.2,0.6-0.5,0.7c-0.3,0.1-0.6,0-0.8-0.2l-4.8-4.9L11.4,31
		C11.3,31.2,11.1,31.2,10.9,31.2z"/>
	<path fill="#DA8C8C" d="M5.5,14.9c-2.6,0-4.7-3.1-4.7-7.1c0-4,2.1-7.1,4.7-7.1c1.6,0,5.7,1.3,8.2,3.4l-0.9,1.2
		c-2.3-1.9-6.1-3-7.3-3c-1.7,0-3.2,2.6-3.2,5.6c0,3,1.5,5.6,3.2,5.6c1.2,0,4.6-1.1,6.8-2.7l0.9,1.2C10.7,13.8,7,14.9,5.5,14.9z"/>
	<path fill="#DA8C8C" d="M26.5,14.9c-1.5,0-5.1-1.1-7.7-3l0.9-1.2c2.3,1.6,5.6,2.7,6.9,2.7c1.7,0,3.2-2.6,3.2-5.6
		c0-3-1.5-5.6-3.2-5.6c-1.2,0-5,1.2-7.3,3l-0.9-1.2c2.5-2,6.6-3.4,8.2-3.4c2.6,0,4.7,3.1,4.7,7.1C31.2,11.8,29.1,14.9,26.5,14.9z"/>
	<g>
		<path fill="#FAC2C3" d="M20.4,7.8c0,2.4-2,4.4-4.4,4.4c-2.4,0-4.4-2-4.4-4.4c0-2.4,2-4.4,4.4-4.4C18.4,3.4,20.4,5.4,20.4,7.8z"/>
		<path fill="#DA8C8C" d="M16,13c-2.8,0-5.1-2.3-5.1-5.1s2.3-5.1,5.1-5.1c2.8,0,5.1,2.3,5.1,5.1S18.8,13,16,13z M16,4.2
			c-2,0-3.6,1.6-3.6,3.6c0,2,1.6,3.6,3.6,3.6c2,0,3.6-1.6,3.6-3.6C19.6,5.8,18,4.2,16,4.2z"/>
	</g>
</g>
</svg>
