<?xml version="1.0" encoding="utf-8"?>
<!-- Generator: Adobe Illustrator 18.0.0, SVG Export Plug-In . SVG Version: 6.00 Build 0)  -->
<!DOCTYPE svg PUBLIC "-//W3C//DTD SVG 1.1//EN" "http://www.w3.org/Graphics/SVG/1.1/DTD/svg11.dtd">
<svg version="1.1" id="Layer_1" xmlns="http://www.w3.org/2000/svg" xmlns:xlink="http://www.w3.org/1999/xlink" x="0px" y="0px"
	 viewBox="0 0 32 32" enable-background="new 0 0 32 32" xml:space="preserve">
<g>
	<path fill="#B4A79C" d="M21.3,27.3H10.7V9.9h10.5L21.3,27.3L21.3,27.3z M12.2,25.8h7.5V11.4h-7.5C12.2,11.4,12.2,25.8,12.2,25.8z"
		/>
	<path fill="#8F9BA8" d="M26.1,31.3H5.9l-3.8-5.6H30L26.1,31.3z M6.7,29.8h18.7l1.8-2.6H4.9L6.7,29.8z"/>
	<path fill="#B4A79C" d="M16,10.5l-0.3-0.2c-0.1-0.1-3-1.5-3.2-4.1c-0.2-1.8,0.9-3.5,3.1-5.3L16,0.7L16.4,1c0.1,0.1,3.5,2.4,3.3,5.2
		c-0.1,1.6-1.2,3-3.4,4.1L16,10.5z M16,2.5c-1.5,1.3-2.2,2.5-2.1,3.6C14,7.4,15.3,8.4,16,8.8c1.4-0.8,2.2-1.7,2.2-2.7
		C18.3,4.7,16.9,3.3,16,2.5z"/>
</g>
</svg>
