<?xml version="1.0" encoding="utf-8"?>
<!-- Generator: Adobe Illustrator 18.0.0, SVG Export Plug-In . SVG Version: 6.00 Build 0)  -->
<!DOCTYPE svg PUBLIC "-//W3C//DTD SVG 1.1//EN" "http://www.w3.org/Graphics/SVG/1.1/DTD/svg11.dtd">
<svg version="1.1" id="Layer_1" xmlns="http://www.w3.org/2000/svg" xmlns:xlink="http://www.w3.org/1999/xlink" x="0px" y="0px"
	 viewBox="0 0 32 32" enable-background="new 0 0 32 32" xml:space="preserve">
<g>
	<path fill="#74B1E0" d="M21.8,31.3H10.2V11h11.6V31.3z M11.7,29.8h8.6V12.5h-8.6V29.8z"/>
	<g>
		<path fill="#CDE4F7" d="M16,10.6c0,0-7.1-3.5,0-9C16,1.6,23.5,6.7,16,10.6z"/>
		<path fill="#74B1E0" d="M16,11.5l-0.3-0.2c-0.1-0.1-3.3-1.6-3.6-4.5c-0.2-1.9,1-3.9,3.4-5.8L16,0.7L16.4,1
			c0.2,0.1,3.9,2.6,3.7,5.8c-0.1,1.8-1.4,3.3-3.8,4.5L16,11.5z M16,2.5c-1.7,1.4-2.5,2.8-2.4,4.1c0.2,1.6,1.7,2.7,2.4,3.1
			c1.7-0.9,2.5-2,2.6-3.1C18.7,5,17,3.4,16,2.5z"/>
	</g>
</g>
</svg>
