<?xml version="1.0" encoding="utf-8"?>
<!-- Generator: Adobe Illustrator 18.0.0, SVG Export Plug-In . SVG Version: 6.00 Build 0)  -->
<!DOCTYPE svg PUBLIC "-//W3C//DTD SVG 1.1//EN" "http://www.w3.org/Graphics/SVG/1.1/DTD/svg11.dtd">
<svg version="1.1" id="Layer_1" xmlns="http://www.w3.org/2000/svg" xmlns:xlink="http://www.w3.org/1999/xlink" x="0px" y="0px"
	 viewBox="0 0 32 32" enable-background="new 0 0 32 32" xml:space="preserve">
<g>
	<g>
		<path fill="#8F9BA8" d="M13,14.9c-1.1,0-2.2-0.5-3.2-1.5c-1.6-1.6-2.6-4.2-2.6-6.7c0-3.6,2.3-6,5.8-6c3.5,0,5.8,2.4,5.8,6
			c0,2.5-1,5.1-2.6,6.7C15.2,14.4,14.1,14.9,13,14.9z M13,2.2c-2.1,0-4.3,1.2-4.3,4.5c0,2,0.9,4.3,2.2,5.6c0.5,0.5,1.2,1.1,2.2,1.1
			c0.9,0,1.7-0.6,2.2-1.1c1.3-1.3,2.2-3.5,2.2-5.6C17.3,3.4,15.1,2.2,13,2.2z"/>
	</g>
	<g>
		<rect x="12.2" y="17.1" fill="#8F9BA8" width="1.5" height="1.7"/>
	</g>
	<g>
		<rect x="12.2" y="20.8" fill="#8F9BA8" width="1.5" height="1.7"/>
	</g>
	<g>
		<rect x="12.2" y="24.6" fill="#8F9BA8" width="1.5" height="1.7"/>
	</g>
	<g>
		<path fill="#8F9BA8" d="M13,31.3c-3.4,0-6.6-0.6-9.5-1.7l-0.3-0.1l-0.1-0.3c-0.7-1.6-1-3.4-1-5.2c0-5.5,3.3-10.4,8-11.9l0.4-0.1
			l0.3,0.3c0.5,0.5,1.2,1.1,2.2,1.1c0.9,0,1.7-0.6,2.2-1.1l0.3-0.3l0.4,0.1c1.6,0.5,3.1,1.5,4.4,2.8l0.6,0.6L20.2,16
			c-1.2,1-1.9,2.4-1.9,3.9c0,2.6,2.1,4.9,4.7,5l0.8,0.1l-0.1,0.8c-0.2,1.2-0.4,2.3-0.9,3.3l-0.1,0.3l-0.3,0.1
			C19.6,30.7,16.3,31.3,13,31.3z M4.4,28.3c2.6,0.9,5.6,1.4,8.6,1.4c3.1,0,6-0.5,8.6-1.4c0.2-0.6,0.4-1.3,0.5-1.9
			c-3-0.6-5.3-3.3-5.3-6.4c0-1.7,0.7-3.3,1.8-4.5c-0.8-0.7-1.8-1.3-2.8-1.7c-1.8,1.5-4,1.5-5.7,0C6.2,15.1,3.6,19.3,3.6,24
			C3.6,25.5,3.8,27,4.4,28.3z"/>
	</g>
	<g>
		<path fill="#FAC2C3" d="M23.4,14.1c-1.4,0-2.6,0.5-3.6,1.3c-1.3,1.1-2.2,2.7-2.2,4.5c0,3.1,2.4,5.6,5.4,5.8c0.1,0,0.3,0,0.4,0
			c3.2,0,5.8-2.6,5.8-5.8S26.6,14.1,23.4,14.1z"/>
		<path fill="#DA8C8C" d="M23.4,26.5c-0.1,0-0.3,0-0.4,0c-3.5-0.2-6.2-3.1-6.2-6.5c0-2,0.9-3.9,2.5-5.1c1.2-0.9,2.6-1.4,4.1-1.4
			c3.6,0,6.6,2.9,6.6,6.6C29.9,23.6,27,26.5,23.4,26.5z M23.4,14.9c-1.2,0-2.3,0.4-3.2,1.1c-1.2,1-1.9,2.4-1.9,3.9
			c0,2.6,2.1,4.9,4.7,5c0.2,0,0.3,0,0.3,0c2.8,0,5.1-2.3,5.1-5.1C28.4,17.2,26.1,14.9,23.4,14.9z"/>
	</g>
	<g>
		<line fill="#FAC2C3" x1="26.8" y1="19.9" x2="19.9" y2="20"/>
		<rect x="19.9" y="19.2" fill="#DA8C8C" width="6.9" height="1.5"/>
	</g>
</g>
</svg>
