<?xml version="1.0" encoding="utf-8"?>
<!-- Generator: Adobe Illustrator 18.0.0, SVG Export Plug-In . SVG Version: 6.00 Build 0)  -->
<!DOCTYPE svg PUBLIC "-//W3C//DTD SVG 1.1//EN" "http://www.w3.org/Graphics/SVG/1.1/DTD/svg11.dtd">
<svg version="1.1" id="Layer_1" xmlns="http://www.w3.org/2000/svg" xmlns:xlink="http://www.w3.org/1999/xlink" x="0px" y="0px"
	 viewBox="0 0 32 32" enable-background="new 0 0 32 32" xml:space="preserve">
<g>
	<g>
		<path fill="#F0F7F7" d="M23.6,5.3c0-1.4,0.2-2.7,0.6-3.8h-3.8c0.1,0.7,0.2,1.4,0.2,2.1c0,4.2-2.1,7.7-4.6,7.7s-4.6-3.4-4.6-7.7
			c0-0.7,0.1-1.4,0.2-2.1H7.8c0.4,1.1,0.6,2.4,0.6,3.8c0,3.6-1.5,6.7-3.6,7.5v17.8h22.3V12.7C25.1,11.9,23.6,8.9,23.6,5.3z"/>
		<path fill="#8F9BA8" d="M27.2,31.3H4.8C4.4,31.3,4,31,4,30.5V12.7c0-0.3,0.2-0.6,0.5-0.7c1.8-0.7,3.1-3.5,3.1-6.8
			C7.6,4,7.4,2.7,7,1.7c0-0.2,0-0.4,0.2-0.6c0.1-0.2,0.4-0.3,0.6-0.3h3.8c0.2,0,0.4,0.1,0.6,0.3c0.1,0.2,0.2,0.4,0.2,0.6
			c-0.1,0.6-0.2,1.3-0.2,2c0,3.7,1.8,6.9,3.8,6.9c2.1,0,3.9-3.2,3.9-6.9c0-0.6-0.1-1.3-0.2-2c0-0.2,0-0.4,0.2-0.6
			c0.1-0.2,0.4-0.3,0.6-0.3h3.8c0.2,0,0.5,0.1,0.6,0.3c0.1,0.2,0.1,0.4,0,0.6c-0.4,1.1-0.6,2.3-0.6,3.5c0,3.2,1.3,6.1,3.1,6.8
			c0.3,0.1,0.5,0.4,0.5,0.7v17.8C27.9,30.9,27.6,31.3,27.2,31.3z M5.6,29.8h20.8V13.2c-2.1-1.2-3.6-4.3-3.6-7.9c0-1,0.1-2.1,0.4-3
			h-1.9c0,0.4,0.1,0.9,0.1,1.3C21.3,8.3,19,12,16,12s-5.3-3.7-5.3-8.4c0-0.4,0-0.9,0.1-1.3h-2c0.2,1,0.4,2,0.4,3
			c0,3.6-1.4,6.8-3.6,7.9V29.8z"/>
	</g>
</g>
</svg>
