<?xml version="1.0" encoding="utf-8"?>
<!-- Generator: Adobe Illustrator 18.0.0, SVG Export Plug-In . SVG Version: 6.00 Build 0)  -->
<!DOCTYPE svg PUBLIC "-//W3C//DTD SVG 1.1//EN" "http://www.w3.org/Graphics/SVG/1.1/DTD/svg11.dtd">
<svg version="1.1" id="Layer_1" xmlns="http://www.w3.org/2000/svg" xmlns:xlink="http://www.w3.org/1999/xlink" x="0px" y="0px"
	 viewBox="0 0 32 32" enable-background="new 0 0 32 32" xml:space="preserve">
<g>
	<path fill="#8F9BA8" d="M16,31.5l-0.6-0.9C15,30.1,5.5,16.6,5.5,11C5.5,5.2,10.2,0.5,16,0.5S26.5,5.2,26.5,11
		c0,5.6-9.5,19.1-9.9,19.6L16,31.5z M16,2c-5,0-9,4-9,9c0,4.3,6.9,14.8,9,17.9c2.1-3.1,9-13.6,9-17.9C25,6,21,2,16,2z"/>
	
		<rect x="11.8" y="9.9" transform="matrix(-0.707 -0.7072 0.7072 -0.707 19.7523 29.4149)" fill="#79C693" width="8.3" height="1.5"/>
	
		<rect x="15.3" y="6.5" transform="matrix(-0.7071 -0.7071 0.7071 -0.7071 19.8278 29.5875)" fill="#79C693" width="1.5" height="8.3"/>
</g>
</svg>
