<?xml version="1.0" encoding="utf-8"?>
<!-- Generator: Adobe Illustrator 18.0.0, SVG Export Plug-In . SVG Version: 6.00 Build 0)  -->
<!DOCTYPE svg PUBLIC "-//W3C//DTD SVG 1.1//EN" "http://www.w3.org/Graphics/SVG/1.1/DTD/svg11.dtd">
<svg version="1.1" id="Layer_1" xmlns="http://www.w3.org/2000/svg" xmlns:xlink="http://www.w3.org/1999/xlink" x="0px" y="0px"
	 viewBox="0 0 32 32" enable-background="new 0 0 32 32" xml:space="preserve">
<g>
	<path fill="#8F9BA8" d="M16,27.5l-0.6-0.9c-0.3-0.5-8.5-12-8.5-16.8c0-5,4.1-9.1,9.1-9.1c5,0,9.1,4.1,9.1,9.1
		c0,4.8-8.1,16.3-8.5,16.8L16,27.5z M16,2.3c-4.2,0-7.6,3.4-7.6,7.6c0,3.3,5,11.3,7.6,15.1c2.6-3.8,7.6-11.8,7.6-15.1
		C23.6,5.7,20.2,2.3,16,2.3z"/>
	<path fill="#B4A79C" d="M16,13.4c-2.3,0-4.1-1.8-4.1-4.1c0-2.3,1.8-4.1,4.1-4.1c2.3,0,4.1,1.8,4.1,4.1C20.1,11.6,18.3,13.4,16,13.4
		z M16,6.7c-1.4,0-2.6,1.2-2.6,2.6c0,1.4,1.2,2.6,2.6,2.6c1.4,0,2.6-1.2,2.6-2.6C18.6,7.9,17.4,6.7,16,6.7z"/>
	<rect x="7.2" y="28" transform="matrix(0.9792 0.2031 -0.2031 0.9792 6.1671 -2.6248)" fill="#B4A79C" width="17.4" height="1.5"/>
	<rect x="15.1" y="20" transform="matrix(0.2031 0.9792 -0.9792 0.2031 40.7908 7.359)" fill="#B4A79C" width="1.5" height="17.4"/>
</g>
</svg>
