<?xml version="1.0" encoding="utf-8"?>
<!-- Generator: Adobe Illustrator 18.0.0, SVG Export Plug-In . SVG Version: 6.00 Build 0)  -->
<!DOCTYPE svg PUBLIC "-//W3C//DTD SVG 1.1//EN" "http://www.w3.org/Graphics/SVG/1.1/DTD/svg11.dtd">
<svg version="1.1" id="Layer_1" xmlns="http://www.w3.org/2000/svg" xmlns:xlink="http://www.w3.org/1999/xlink" x="0px" y="0px"
	 viewBox="0 0 32 32" enable-background="new 0 0 32 32" xml:space="preserve">
<g>
	<path fill="#74B1E0" d="M11.8,16.2l1.1-4.8L9.2,8.3l4.9-0.4L16,3.3l1.9,4.5l4.9,0.4l-3.7,3.2l1.1,4.8L16,13.7L11.8,16.2z M16,12
		l1.9,1.2l-0.5-2.2l1.7-1.5l-2.2-0.2L16,7.2l-0.9,2.1l-2.2,0.2l1.7,1.5l-0.5,2.2L16,12z"/>
	<path fill="#8F9BA8" d="M16,31.5l-0.6-0.9C15,30.1,5.5,16.6,5.5,11C5.5,5.2,10.2,0.5,16,0.5c5.8,0,10.5,4.7,10.5,10.5
		c0,5.6-9.5,19.1-9.9,19.6L16,31.5z M16,2C11,2,7,6,7,11c0,4.3,6.9,14.8,9,17.9c2.1-3.1,9-13.6,9-17.9C25,6,21,2,16,2z"/>
</g>
</svg>
