<?xml version="1.0" encoding="utf-8"?>
<!-- Generator: Adobe Illustrator 18.0.0, SVG Export Plug-In . SVG Version: 6.00 Build 0)  -->
<!DOCTYPE svg PUBLIC "-//W3C//DTD SVG 1.1//EN" "http://www.w3.org/Graphics/SVG/1.1/DTD/svg11.dtd">
<svg version="1.1" id="Layer_1" xmlns="http://www.w3.org/2000/svg" xmlns:xlink="http://www.w3.org/1999/xlink" x="0px" y="0px"
	 viewBox="0 0 32 32" enable-background="new 0 0 32 32" xml:space="preserve">
<g>
	<path fill="#8F9BA8" d="M16,14.5c-2.4,0-4.4-2-4.4-4.4c0-2.4,2-4.4,4.4-4.4c2.4,0,4.4,2,4.4,4.4C20.4,12.5,18.4,14.5,16,14.5z
		 M16,7.1c-1.6,0-2.9,1.3-2.9,2.9c0,1.6,1.3,2.9,2.9,2.9c1.6,0,2.9-1.3,2.9-2.9C18.9,8.4,17.6,7.1,16,7.1z"/>
	<g>
		<path fill="#F0F7F7" d="M25.7,19.7h-4.1C19,24.2,16,28.5,16,28.5s-3-4.3-5.6-8.8H6.3L3.3,30.5h25.4L25.7,19.7z"/>
		<path fill="#8F9BA8" d="M29.7,31.3H2.3l3.5-12.3h5.1l0.2,0.4c1.8,3.3,3.9,6.4,4.9,7.9c1-1.5,3.1-4.6,4.9-7.9l0.2-0.4h5.1
			L29.7,31.3z M16,29.8h11.7l-2.6-9.3H22c-2.5,4.4-5.4,8.5-5.4,8.5L16,29.8z M4.3,29.8H16l-0.6-0.8c0,0-2.9-4.1-5.4-8.5H6.9
			L4.3,29.8z"/>
	</g>
	<path fill="#8F9BA8" d="M16,29.8l-0.6-0.9c0,0-3.1-4.4-5.6-8.9c-2.4-4.3-3.6-7.5-3.6-9.4c0-5.4,4.4-9.9,9.9-9.9
		c5.4,0,9.9,4.4,9.9,9.9c0,2-1.2,5.1-3.6,9.4c-2.6,4.6-5.6,8.9-5.6,8.9L16,29.8z M16,2.3c-4.6,0-8.4,3.8-8.4,8.4
		c0,1.2,0.6,3.6,3.4,8.7c1.8,3.3,3.9,6.4,4.9,7.9c1-1.5,3.1-4.6,4.9-7.9c2.8-5.1,3.4-7.5,3.4-8.7C24.4,6,20.6,2.3,16,2.3z"/>
</g>
</svg>
