<?xml version="1.0" encoding="utf-8"?>
<!-- Generator: Adobe Illustrator 18.0.0, SVG Export Plug-In . SVG Version: 6.00 Build 0)  -->
<!DOCTYPE svg PUBLIC "-//W3C//DTD SVG 1.1//EN" "http://www.w3.org/Graphics/SVG/1.1/DTD/svg11.dtd">
<svg version="1.1" id="Layer_1" xmlns="http://www.w3.org/2000/svg" xmlns:xlink="http://www.w3.org/1999/xlink" x="0px" y="0px"
	 viewBox="0 0 32 32" enable-background="new 0 0 32 32" xml:space="preserve">
<g>
	<path fill="#79C693" d="M16,14.2c-2.4,0-4.3-1.9-4.3-4.3c0-2.4,1.9-4.3,4.3-4.3s4.3,1.9,4.3,4.3C20.3,12.2,18.4,14.2,16,14.2z
		 M16,7c-1.6,0-2.8,1.3-2.8,2.8c0,1.6,1.3,2.8,2.8,2.8c1.6,0,2.8-1.3,2.8-2.8C18.8,8.3,17.6,7,16,7z"/>
	<path fill="#79C693" d="M16,31.3c-7.3,0-13.1-2.9-13.1-6.5c0-2.6,2.9-4.9,7.6-5.9l0.5-0.1l0.3,0.5c1.7,3.1,3.7,6,4.6,7.4
		c1-1.4,2.9-4.3,4.6-7.4l0.3-0.5l0.5,0.1c4.7,1,7.6,3.3,7.6,5.9C29.1,28.4,23.3,31.3,16,31.3z M10.3,20.4c-3.6,0.9-5.9,2.6-5.9,4.3
		c0,2.4,4.7,5,11.6,5c6.9,0,11.6-2.6,11.6-5c0-1.7-2.4-3.4-5.9-4.3c-2.4,4.1-5,7.9-5,7.9L16,29.2l-0.6-0.9
		C15.4,28.3,12.7,24.6,10.3,20.4z"/>
	<path fill="#8F9BA8" d="M16,29.2l-0.6-0.9c0,0-2.9-4.1-5.3-8.4c-2.5-4.4-3.7-7.6-3.7-9.5c0-5.3,4.3-9.7,9.7-9.7s9.7,4.3,9.7,9.7
		c0,2-1.3,5.2-3.7,9.5c-2.5,4.3-5.3,8.4-5.3,8.4L16,29.2z M16,2.3c-4.5,0-8.2,3.7-8.2,8.2c0,1.2,0.6,3.6,3.5,8.8
		c1.7,3.1,3.7,6,4.6,7.4c1-1.4,2.9-4.3,4.6-7.4c2.9-5.1,3.5-7.6,3.5-8.8C24.2,5.9,20.5,2.3,16,2.3z"/>
</g>
</svg>
