<?xml version="1.0" encoding="utf-8"?>
<!-- Generator: Adobe Illustrator 18.0.0, SVG Export Plug-In . SVG Version: 6.00 Build 0)  -->
<!DOCTYPE svg PUBLIC "-//W3C//DTD SVG 1.1//EN" "http://www.w3.org/Graphics/SVG/1.1/DTD/svg11.dtd">
<svg version="1.1" id="Layer_1" xmlns="http://www.w3.org/2000/svg" xmlns:xlink="http://www.w3.org/1999/xlink" x="0px" y="0px"
	 viewBox="0 0 32 32" enable-background="new 0 0 32 32" xml:space="preserve">
<g>
	<path fill="#8F9BA8" d="M16,31.3L16,31.3c-0.2,0-0.5-0.1-0.6-0.3C15,30.4,5.5,16.9,5.5,11.3C5.5,5.5,10.2,0.8,16,0.8
		c5.8,0,10.5,4.7,10.5,10.5c0,5.6-9.5,19.1-9.9,19.6C16.5,31.1,16.2,31.3,16,31.3z M16,2.3c-5,0-9,4.1-9,9c0,4.3,6.9,14.8,9,17.9
		c2.1-3.1,9-13.6,9-17.9C25,6.3,21,2.3,16,2.3z"/>
	<path fill="#B4A042" d="M16,15.4c-2.6,0-4.7-2.1-4.7-4.7C11.3,8.1,13.4,6,16,6c2.6,0,4.7,2.1,4.7,4.7C20.7,13.3,18.6,15.4,16,15.4z
		 M16,7.5c-1.8,0-3.2,1.4-3.2,3.2c0,1.8,1.4,3.2,3.2,3.2s3.2-1.4,3.2-3.2C19.2,8.9,17.7,7.5,16,7.5z"/>
</g>
</svg>
