<?xml version="1.0" encoding="utf-8"?>
<!-- Generator: Adobe Illustrator 18.0.0, SVG Export Plug-In . SVG Version: 6.00 Build 0)  -->
<!DOCTYPE svg PUBLIC "-//W3C//DTD SVG 1.1//EN" "http://www.w3.org/Graphics/SVG/1.1/DTD/svg11.dtd">
<svg version="1.1" id="Layer_1" xmlns="http://www.w3.org/2000/svg" xmlns:xlink="http://www.w3.org/1999/xlink" x="0px" y="0px"
	 viewBox="0 0 32 32" enable-background="new 0 0 32 32" xml:space="preserve">
<g>
	<path fill="#8F9BA8" d="M16,30.1l-0.5-0.5c-1.9-1.8-3.7-3.4-5.3-4.9C4.7,20,0.8,16.5,0.8,10.6c0-4.8,3.9-8.8,8.8-8.8
		c2.5,0,4.8,1.1,6.5,2.9c1.7-1.8,4-2.9,6.5-2.9c4.8,0,8.8,3.9,8.8,8.8c0,5-3.8,8.6-9.2,13.6c-1.7,1.6-3.6,3.4-5.5,5.4L16,30.1z
		 M9.5,3.4c-4,0-7.3,3.3-7.3,7.3c0,5.2,3.7,8.5,8.9,13c1.5,1.3,3.2,2.8,4.9,4.4c1.8-1.8,3.5-3.4,5.1-4.9c5.2-4.9,8.7-8.2,8.7-12.5
		c0-4-3.3-7.3-7.3-7.3c-2.3,0-4.5,1.1-5.9,3L16,7.2l-0.6-0.8C14,4.4,11.9,3.4,9.5,3.4z"/>
	<path fill="#DA8C8C" d="M14.9,20.4c-0.3,0-0.6-0.2-0.7-0.5L12.5,15l-0.3,1.5c-0.1,0.3-0.4,0.6-0.7,0.6H6.3v-1.5h4.5l0.8-3.4
		c0.1-0.3,0.4-0.6,0.7-0.6s0.6,0.2,0.8,0.5l1.7,4.8l1.4-7.3C16.3,9.3,16.5,9,16.9,9c0.4,0,0.7,0.2,0.8,0.5l2.1,6.1h6V17h-6.5
		c-0.3,0-0.6-0.2-0.7-0.5l-1.4-4l-1.4,7.3C15.6,20.1,15.3,20.4,14.9,20.4L14.9,20.4z"/>
</g>
</svg>
