<?xml version="1.0" encoding="utf-8"?>
<!-- Generator: Adobe Illustrator 18.0.0, SVG Export Plug-In . SVG Version: 6.00 Build 0)  -->
<!DOCTYPE svg PUBLIC "-//W3C//DTD SVG 1.1//EN" "http://www.w3.org/Graphics/SVG/1.1/DTD/svg11.dtd">
<svg version="1.1" id="Layer_1" xmlns="http://www.w3.org/2000/svg" xmlns:xlink="http://www.w3.org/1999/xlink" x="0px" y="0px"
	 viewBox="0 0 32 32" enable-background="new 0 0 32 32" xml:space="preserve">
<g>
	<polygon fill="#8F9BA8" points="22.7,10.9 21.2,10.9 21.2,6.4 10.8,6.4 10.8,10.9 9.3,10.9 9.3,4.9 22.7,4.9 	"/>
	<path fill="#8F9BA8" d="M20.9,5.4h-1.5c0-1.7-1.5-3.1-3.4-3.1c-1.9,0-3.4,1.4-3.4,3.1h-1.5c0-2.5,2.2-4.6,4.9-4.6
		C18.7,0.8,20.9,2.8,20.9,5.4z"/>
	<g>
		<path fill="#F9F8F2" d="M21.6,10.7L6.9,25.4c0.9,1.4,2.1,2.6,3.5,3.5l14.7-14.7C24.2,12.8,23,11.5,21.6,10.7z"/>
		<path fill="#B4A79C" d="M10.5,29.9L10,29.5c-1.5-0.9-2.8-2.2-3.8-3.8l-0.3-0.5L21.5,9.7L22,10c1.5,0.9,2.8,2.2,3.8,3.8l0.3,0.5
			L10.5,29.9z M7.8,25.5c0.7,0.9,1.5,1.8,2.4,2.4l13.9-13.9c-0.7-0.9-1.5-1.8-2.4-2.4L7.8,25.5z"/>
	</g>
	<path fill="#B4A79C" d="M16,31.3c-6.3,0-11.5-5.1-11.5-11.5C4.5,13.5,9.7,8.3,16,8.3c6.3,0,11.5,5.1,11.5,11.5
		C27.5,26.1,22.3,31.3,16,31.3z M16,9.8c-5.5,0-10,4.5-10,10c0,5.5,4.5,10,10,10c5.5,0,10-4.5,10-10C26,14.3,21.5,9.8,16,9.8z"/>
</g>
</svg>
