<?xml version="1.0" encoding="utf-8"?>
<!-- Generator: Adobe Illustrator 18.0.0, SVG Export Plug-In . SVG Version: 6.00 Build 0)  -->
<!DOCTYPE svg PUBLIC "-//W3C//DTD SVG 1.1//EN" "http://www.w3.org/Graphics/SVG/1.1/DTD/svg11.dtd">
<svg version="1.1" id="Layer_1" xmlns="http://www.w3.org/2000/svg" xmlns:xlink="http://www.w3.org/1999/xlink" x="0px" y="0px"
	 viewBox="0 0 32 32" enable-background="new 0 0 32 32" xml:space="preserve">
<g>
	<path fill="#8F9BA8" d="M16,10.5c-2.7,0-4.8-2.2-4.8-4.8c0-2.7,2.2-4.8,4.8-4.8c2.7,0,4.8,2.2,4.8,4.8C20.8,8.4,18.7,10.5,16,10.5z
		 M16,2.4c-1.8,0-3.3,1.5-3.3,3.3C12.7,7.5,14.2,9,16,9c1.8,0,3.3-1.5,3.3-3.3C19.3,3.9,17.8,2.4,16,2.4z"/>
	<path fill="#8F9BA8" d="M16,31.1c-8.7,0-15.3-2.8-15.3-6.4c0-2.4,2.8-4.4,7.6-5.6l0.9-0.2v6.3h13.5v-6.3l0.9,0.2
		c4.8,1.1,7.6,3.2,7.6,5.6C31.3,28.4,24.7,31.1,16,31.1z M7.7,20.9c-3.4,0.9-5.5,2.4-5.5,3.9c0,2.3,5.6,4.9,13.8,4.9
		s13.8-2.6,13.8-4.9c0-1.4-2.1-2.9-5.5-3.9v5.9H7.7V20.9z"/>
	<g>
		<path fill="#CDE4F7" d="M16.8,11.9h-1.6c-3.7,0-6.7,3-6.7,6.7v1.3V26h15v-6.1v-1.3C23.5,14.9,20.5,11.9,16.8,11.9z"/>
		<path fill="#74B1E0" d="M24.3,26.8H7.7v-8.1c0-4.1,3.4-7.5,7.5-7.5h1.6c4.1,0,7.5,3.3,7.5,7.5V26.8z M9.2,25.3h13.5v-6.6
			c0-3.3-2.7-6-6-6h-1.6c-3.3,0-6,2.7-6,6V25.3z"/>
	</g>
</g>
</svg>
