<?xml version="1.0" encoding="utf-8"?>
<!-- Generator: Adobe Illustrator 18.0.0, SVG Export Plug-In . SVG Version: 6.00 Build 0)  -->
<!DOCTYPE svg PUBLIC "-//W3C//DTD SVG 1.1//EN" "http://www.w3.org/Graphics/SVG/1.1/DTD/svg11.dtd">
<svg version="1.1" id="Layer_1" xmlns="http://www.w3.org/2000/svg" xmlns:xlink="http://www.w3.org/1999/xlink" x="0px" y="0px"
	 viewBox="0 0 32 32" enable-background="new 0 0 32 32" xml:space="preserve">
<g>
	<path fill="#DA8C8C" d="M24.4,14.6l-1-1.1l5.5-5c-5.6-5.2-5.6-5.2-5.7-5.4l1.4-0.5l-0.7,0.2l0.6-0.5c0.3,0.3,3.8,3.6,6,5.6l0.6,0.6
		L24.4,14.6z"/>
	<path fill="#DA8C8C" d="M24.4,29.7l-1-1.1l5.5-5c-5.6-5.2-5.6-5.2-5.7-5.4l1.4-0.5l-0.7,0.2l0.6-0.5c0.3,0.3,3.8,3.6,6,5.6l0.6,0.6
		L24.4,29.7z"/>
	<path fill="#DA8C8C" d="M13.4,16.3L12,15.7c0.2-0.3,3.8-8,13.2-8h4v1.5h-4C16.8,9.2,13.4,16.2,13.4,16.3z"/>
	<path fill="#DA8C8C" d="M29.2,24.3h-4c-8.7,0-12.1-5.8-13-7.5H0.9v-1.5h12.3l0.2,0.5c0.1,0.3,2.7,7,11.8,7h4V24.3z"/>
</g>
</svg>
