<?xml version="1.0" encoding="utf-8"?>
<!-- Generator: Adobe Illustrator 18.0.0, SVG Export Plug-In . SVG Version: 6.00 Build 0)  -->
<!DOCTYPE svg PUBLIC "-//W3C//DTD SVG 1.1//EN" "http://www.w3.org/Graphics/SVG/1.1/DTD/svg11.dtd">
<svg version="1.1" id="Layer_1" xmlns="http://www.w3.org/2000/svg" xmlns:xlink="http://www.w3.org/1999/xlink" x="0px" y="0px"
	 viewBox="0 0 32 32" enable-background="new 0 0 32 32" xml:space="preserve">
<g>
	<path fill="#B4A79C" d="M6.8,24H0.9v-1.5h5.8c1.7,0,4-1.2,5.2-2.6L19,11c1.4-1.8,4.2-3.1,6.3-3.1h3.8v1.5h-3.8
		c-1.7,0-4,1.2-5.2,2.6L13,20.9C11.7,22.6,8.9,24,6.8,24z"/>
	<path fill="#B4A79C" d="M29.2,24h-3.8c-2.1,0-4.9-1.4-6.3-3.1L12,12c-1.1-1.4-3.5-2.6-5.2-2.6H0.9V7.9h5.8c2.1,0,4.9,1.4,6.3,3.1
		l7.1,8.9c1.1,1.4,3.5,2.6,5.2,2.6h3.8V24H29.2z"/>
	<path fill="#8F9BA8" d="M24.6,14.7l-1-1.1l5.3-4.9c-5.4-5-5.4-5-5.5-5.3L24.8,3l-0.7,0.2l0.6-0.5c0.2,0.3,3.7,3.5,5.8,5.4l0.6,0.6
		L24.6,14.7z"/>
	<path fill="#8F9BA8" d="M24.6,29.3l-1-1.1l5.3-4.9c-5.4-5-5.4-5-5.5-5.2l0.7-0.2l0.6-0.5c0.2,0.3,3.7,3.5,5.8,5.4l0.6,0.6
		L24.6,29.3z"/>
</g>
</svg>
