<?xml version="1.0" encoding="utf-8"?>
<!-- Generator: Adobe Illustrator 18.0.0, SVG Export Plug-In . SVG Version: 6.00 Build 0)  -->
<!DOCTYPE svg PUBLIC "-//W3C//DTD SVG 1.1//EN" "http://www.w3.org/Graphics/SVG/1.1/DTD/svg11.dtd">
<svg version="1.1" id="Layer_1" xmlns="http://www.w3.org/2000/svg" xmlns:xlink="http://www.w3.org/1999/xlink" x="0px" y="0px"
	 viewBox="0 0 32 32" enable-background="new 0 0 32 32" xml:space="preserve">
<g>
	<rect x="7.3" y="28" transform="matrix(0.9791 0.2032 -0.2032 0.9791 6.1748 -2.6517)" fill="#74B1E0" width="17.4" height="1.5"/>
	
		<rect x="15.2" y="20.1" transform="matrix(0.2031 0.9792 -0.9792 0.2031 40.8935 7.2379)" fill="#74B1E0" width="1.5" height="17.4"/>
	<path fill="#8F9BA8" d="M16,13.3c-3.5,0-6.4-2.8-6.4-6.3c0-3.5,2.9-6.3,6.4-6.3c3.5,0,6.4,2.8,6.4,6.3C22.4,10.5,19.5,13.3,16,13.3
		z M16,2.3c-2.7,0-4.9,2.1-4.9,4.8c0,2.6,2.2,4.8,4.9,4.8c2.7,0,4.9-2.1,4.9-4.8C20.9,4.4,18.7,2.3,16,2.3z"/>
	<rect x="15.2" y="12.6" fill="#8F9BA8" width="1.5" height="12.7"/>
</g>
</svg>
