<?xml version="1.0" encoding="utf-8"?>
<!-- Generator: Adobe Illustrator 18.0.0, SVG Export Plug-In . SVG Version: 6.00 Build 0)  -->
<!DOCTYPE svg PUBLIC "-//W3C//DTD SVG 1.1//EN" "http://www.w3.org/Graphics/SVG/1.1/DTD/svg11.dtd">
<svg version="1.1" id="Layer_1" xmlns="http://www.w3.org/2000/svg" xmlns:xlink="http://www.w3.org/1999/xlink" x="0px" y="0px"
	 viewBox="0 0 32 32" enable-background="new 0 0 32 32" xml:space="preserve">
<g>
	<g>
		<ellipse fill="#F0F7F7" cx="4.4" cy="4.5" rx="2.9" ry="3"/>
		<path fill="#8F9BA8" d="M4.4,8.3c-2,0-3.7-1.7-3.7-3.8c0-2.1,1.7-3.8,3.7-3.8c2,0,3.7,1.7,3.7,3.8C8.1,6.6,6.5,8.3,4.4,8.3z
			 M4.4,2.3c-1.2,0-2.2,1-2.2,2.3c0,1.2,1,2.3,2.2,2.3c1.2,0,2.2-1,2.2-2.3C6.6,3.3,5.6,2.3,4.4,2.3z"/>
	</g>
	<g>
		<ellipse fill="#F0F7F7" cx="27.6" cy="27.5" rx="2.9" ry="3"/>
		<path fill="#8F9BA8" d="M27.6,31.3c-2,0-3.7-1.7-3.7-3.8c0-2.1,1.7-3.8,3.7-3.8s3.7,1.7,3.7,3.8C31.2,29.6,29.6,31.3,27.6,31.3z
			 M27.6,25.2c-1.2,0-2.2,1-2.2,2.3c0,1.2,1,2.3,2.2,2.3c1.2,0,2.2-1,2.2-2.3C29.7,26.2,28.8,25.2,27.6,25.2z"/>
	</g>
	<path fill="#8F9BA8" d="M10.2,31.3c-3.6,0-6.5-3.1-6.5-6.8V7.5h1.5v16.9c0,2.9,2.3,5.3,5,5.3s5-2.4,5-5.3V13.5h1.5v10.9
		C16.8,28.2,13.8,31.3,10.2,31.3z"/>
	<path fill="#8F9BA8" d="M28.3,24.5h-1.5V7.6c0-2.9-2.3-5.3-5-5.3c-2.8,0-5,2.4-5,5.3v10.9h-1.5V7.6c0-3.8,2.9-6.8,6.5-6.8
		c3.6,0,6.5,3.1,6.5,6.8V24.5z"/>
</g>
</svg>
