<?xml version="1.0" encoding="utf-8"?>
<!-- Generator: Adobe Illustrator 18.0.0, SVG Export Plug-In . SVG Version: 6.00 Build 0)  -->
<!DOCTYPE svg PUBLIC "-//W3C//DTD SVG 1.1//EN" "http://www.w3.org/Graphics/SVG/1.1/DTD/svg11.dtd">
<svg version="1.1" id="Layer_1" xmlns="http://www.w3.org/2000/svg" xmlns:xlink="http://www.w3.org/1999/xlink" x="0px" y="0px"
	 viewBox="0 0 32 32" enable-background="new 0 0 32 32" xml:space="preserve">
<g>
	<path fill="#8F9BA8" d="M16,31.2c-8.7,0-15.3-2.8-15.3-6.5c0-3.7,6.7-6.5,15.3-6.5c8.7,0,15.3,2.8,15.3,6.5
		C31.3,28.4,24.7,31.2,16,31.2z M16,19.7c-8.1,0-13.8,2.6-13.8,5s5.6,5,13.8,5c8.1,0,13.8-2.6,13.8-5S24.1,19.7,16,19.7z"/>
	<path fill="#B4A042" d="M16,13.5c-3.6,0-6.5-2.9-6.5-6.4s2.9-6.4,6.5-6.4c3.6,0,6.5,2.9,6.5,6.4S19.6,13.5,16,13.5z M16,2.3
		c-2.8,0-5,2.2-5,4.9c0,2.7,2.3,4.9,5,4.9c2.8,0,5-2.2,5-4.9C21,4.5,18.8,2.3,16,2.3z"/>
	<rect x="15.2" y="12.8" fill="#B4A042" width="1.5" height="14.9"/>
</g>
</svg>
