<?xml version="1.0" encoding="utf-8"?>
<!-- Generator: Adobe Illustrator 18.0.0, SVG Export Plug-In . SVG Version: 6.00 Build 0)  -->
<!DOCTYPE svg PUBLIC "-//W3C//DTD SVG 1.1//EN" "http://www.w3.org/Graphics/SVG/1.1/DTD/svg11.dtd">
<svg version="1.1" id="Layer_1" xmlns="http://www.w3.org/2000/svg" xmlns:xlink="http://www.w3.org/1999/xlink" x="0px" y="0px"
	 viewBox="0 0 32 32" enable-background="new 0 0 32 32" xml:space="preserve">
<g>
	<g>
		<path fill="#8F9BA8" d="M16,31.3c-3.4,0-6.6-0.6-9.5-1.7l-0.3-0.1l-0.1-0.3c-0.7-1.6-1-3.4-1-5.2c0-5.5,3.3-10.4,8-11.9l0.4-0.1
			l0.3,0.3c0.5,0.5,1.2,1.1,2.2,1.1c0.9,0,1.7-0.6,2.2-1.1l0.3-0.3l0.4,0.1c4.7,1.5,8,6.4,8,11.9c0,1.8-0.3,3.5-1,5.2l-0.1,0.3
			l-0.3,0.1C22.6,30.7,19.4,31.3,16,31.3z M7.4,28.3c2.6,0.9,5.6,1.4,8.6,1.4c3.1,0,6-0.5,8.6-1.4c0.5-1.4,0.8-2.8,0.8-4.3
			c0-4.7-2.7-8.9-6.5-10.3c-1.8,1.5-4,1.5-5.7,0C9.3,15.1,6.6,19.3,6.6,24C6.6,25.5,6.9,27,7.4,28.3z"/>
	</g>
	<g>
		<path fill="#F0F7F7" d="M16,1.5c-2.8,0-5.1,1.7-5.1,5.2c0,2.3,1,4.7,2.4,6.1c0.8,0.8,1.7,1.3,2.7,1.3c1,0,1.9-0.5,2.7-1.3
			c1.4-1.4,2.4-3.9,2.4-6.1C21.1,3.2,18.8,1.5,16,1.5z"/>
		<path fill="#8F9BA8" d="M16,14.9c-1.1,0-2.2-0.5-3.2-1.5c-1.6-1.6-2.6-4.2-2.6-6.7c0-3.6,2.3-6,5.8-6c3.5,0,5.8,2.4,5.8,6
			c0,2.5-1,5.1-2.6,6.7C18.2,14.4,17.1,14.9,16,14.9z M16,2.3c-2.1,0-4.3,1.2-4.3,4.5c0,2,0.9,4.3,2.2,5.6c0.5,0.5,1.2,1.1,2.2,1.1
			c0.9,0,1.7-0.6,2.2-1.1c1.3-1.3,2.2-3.5,2.2-5.6C20.3,3.4,18.1,2.3,16,2.3z"/>
	</g>
	<g>
		<rect x="15.2" y="17.1" fill="#8F9BA8" width="1.5" height="1.7"/>
	</g>
	<g>
		<rect x="15.2" y="20.8" fill="#8F9BA8" width="1.5" height="1.7"/>
	</g>
	<g>
		<rect x="15.2" y="24.6" fill="#8F9BA8" width="1.5" height="1.7"/>
	</g>
</g>
</svg>
