<?xml version="1.0" encoding="utf-8"?>
<!-- Generator: Adobe Illustrator 18.0.0, SVG Export Plug-In . SVG Version: 6.00 Build 0)  -->
<!DOCTYPE svg PUBLIC "-//W3C//DTD SVG 1.1//EN" "http://www.w3.org/Graphics/SVG/1.1/DTD/svg11.dtd">
<svg version="1.1" id="Layer_1" xmlns="http://www.w3.org/2000/svg" xmlns:xlink="http://www.w3.org/1999/xlink" x="0px" y="0px"
	 viewBox="0 0 32 32" enable-background="new 0 0 32 32" xml:space="preserve">
<g>
	<polygon fill="#74B1E0" points="16.4,17.9 12.9,14 14,13 16.6,15.8 22,11.4 22.9,12.5 	"/>
	<polygon fill="#8F9BA8" points="26.2,22.2 8.7,22.2 3.5,3.5 0.8,3.5 0.8,2 4.6,2 9.8,20.7 26.2,20.7 	"/>
	<path fill="#8F9BA8" d="M26.8,22.2H8.7L4.2,6.1h27L26.8,22.2z M9.8,20.7h15.8l3.6-13.1H6.2L9.8,20.7z"/>
	<g>
		<circle fill="#CDE4F7" cx="24.7" cy="26.8" r="2.5"/>
		<path fill="#74B1E0" d="M24.7,30c-1.8,0-3.2-1.4-3.2-3.2c0-1.8,1.4-3.2,3.2-3.2c1.8,0,3.2,1.4,3.2,3.2C28,28.6,26.5,30,24.7,30z
			 M24.7,25.1c-0.9,0-1.7,0.8-1.7,1.7c0,1,0.8,1.7,1.7,1.7c1,0,1.7-0.8,1.7-1.7C26.5,25.9,25.7,25.1,24.7,25.1z"/>
	</g>
	<g>
		<circle fill="#CDE4F7" cx="11.7" cy="26.8" r="2.5"/>
		<path fill="#74B1E0" d="M11.7,30c-1.8,0-3.2-1.4-3.2-3.2c0-1.8,1.4-3.2,3.2-3.2c1.8,0,3.2,1.4,3.2,3.2C14.9,28.6,13.5,30,11.7,30z
			 M11.7,25.1c-1,0-1.7,0.8-1.7,1.7c0,1,0.8,1.7,1.7,1.7s1.7-0.8,1.7-1.7C13.4,25.9,12.7,25.1,11.7,25.1z"/>
	</g>
</g>
</svg>
