<?xml version="1.0" encoding="utf-8"?>
<!-- Generator: Adobe Illustrator 18.0.0, SVG Export Plug-In . SVG Version: 6.00 Build 0)  -->
<!DOCTYPE svg PUBLIC "-//W3C//DTD SVG 1.1//EN" "http://www.w3.org/Graphics/SVG/1.1/DTD/svg11.dtd">
<svg version="1.1" id="Layer_1" xmlns="http://www.w3.org/2000/svg" xmlns:xlink="http://www.w3.org/1999/xlink" x="0px" y="0px"
	 viewBox="0 0 32 32" enable-background="new 0 0 32 32" xml:space="preserve">
<g>
	<path fill="#8F9BA8" d="M17.7,18.8l-0.5-0.5c-0.4-0.4-0.7-0.7-1.1-1.1c-1.8-1.7-3.4-3.2-3.4-4.6c0-1.8,1.4-3.2,3.2-3.2
		c0.6,0,1.3,0.2,1.8,0.6c0.5-0.4,1.2-0.6,1.8-0.6c1.8,0,3.2,1.4,3.2,3.2c0,1.4-1.6,2.9-3.3,4.6c-0.4,0.4-0.8,0.7-1.1,1.1L17.7,18.8z
		 M15.9,10.9c-0.9,0-1.7,0.8-1.7,1.7c0,0.8,1.7,2.4,2.9,3.6c0.2,0.2,0.4,0.4,0.6,0.6c0.2-0.2,0.4-0.4,0.6-0.6
		c1.3-1.2,2.9-2.8,2.9-3.5c0-0.9-0.8-1.7-1.7-1.7c-0.5,0-0.9,0.2-1.3,0.6L17.7,12l-0.6-0.6C16.8,11.1,16.4,10.9,15.9,10.9z"/>
	<polygon fill="#8F9BA8" points="26.2,22.2 8.7,22.2 3.5,3.5 0.8,3.5 0.8,2 4.6,2 9.8,20.7 26.2,20.7 	"/>
	<path fill="#8F9BA8" d="M26.8,22.2H8.7L4.2,6.1h27L26.8,22.2z M9.8,20.7h15.8l3.6-13.1h-23L9.8,20.7z"/>
	<g>
		<circle fill="#F0F7F7" cx="24.7" cy="26.8" r="2.5"/>
		<path fill="#8F9BA8" d="M24.7,30c-1.8,0-3.2-1.4-3.2-3.2c0-1.8,1.4-3.2,3.2-3.2c1.8,0,3.2,1.4,3.2,3.2C28,28.6,26.5,30,24.7,30z
			 M24.7,25.1c-0.9,0-1.7,0.8-1.7,1.7c0,1,0.8,1.7,1.7,1.7c1,0,1.7-0.8,1.7-1.7C26.5,25.9,25.7,25.1,24.7,25.1z"/>
	</g>
	<g>
		<circle fill="#F0F7F7" cx="11.7" cy="26.8" r="2.5"/>
		<path fill="#8F9BA8" d="M11.7,30c-1.8,0-3.2-1.4-3.2-3.2c0-1.8,1.4-3.2,3.2-3.2s3.2,1.4,3.2,3.2S13.5,30,11.7,30z M11.7,25.1
			c-1,0-1.7,0.8-1.7,1.7c0,1,0.8,1.7,1.7,1.7c1,0,1.7-0.8,1.7-1.7S12.7,25.1,11.7,25.1z"/>
	</g>
</g>
</svg>
