<?xml version="1.0" encoding="utf-8"?>
<!-- Generator: Adobe Illustrator 18.0.0, SVG Export Plug-In . SVG Version: 6.00 Build 0)  -->
<!DOCTYPE svg PUBLIC "-//W3C//DTD SVG 1.1//EN" "http://www.w3.org/Graphics/SVG/1.1/DTD/svg11.dtd">
<svg version="1.1" id="Layer_1" xmlns="http://www.w3.org/2000/svg" xmlns:xlink="http://www.w3.org/1999/xlink" x="0px" y="0px"
	 viewBox="0 0 32 32" enable-background="new 0 0 32 32" xml:space="preserve">
<g>
	<g>
		<path fill="#74B1E0" d="M22.4,31.3H9.6l-0.2-0.1c-3-2.1-4.7-5.6-4.7-9.2c0-4.6,2.8-8.8,7.1-10.5V4.9h8.5v6.4
			c4.3,1.7,7.1,5.9,7.1,10.5c0,3.6-1.8,7.1-4.7,9.2L22.4,31.3z M10.1,29.8h11.9c2.5-1.9,3.9-4.8,3.9-7.9c0-4.2-2.7-7.9-6.6-9.3
			l-0.5-0.2v-6h-5.5v6l-0.5,0.2c-4,1.4-6.6,5.1-6.6,9.3C6.1,25,7.6,27.9,10.1,29.8z"/>
	</g>
	<g>
		<path fill="#CDE4F7" d="M20,5.7H12c-1.2,0-2.1-0.9-2.1-2.1l0,0c0-1.2,0.9-2.1,2.1-2.1H20c1.2,0,2.1,0.9,2.1,2.1l0,0
			C22,4.7,21.1,5.7,20,5.7z"/>
		<path fill="#74B1E0" d="M20,6.4H12c-1.6,0-2.8-1.3-2.8-2.8c0-1.6,1.3-2.8,2.8-2.8H20c1.6,0,2.8,1.3,2.8,2.8
			C22.8,5.1,21.5,6.4,20,6.4z M12,2.3c-0.7,0-1.3,0.6-1.3,1.3c0,0.7,0.6,1.3,1.3,1.3H20c0.7,0,1.3-0.6,1.3-1.3
			c0-0.7-0.6-1.3-1.3-1.3H12z"/>
	</g>
</g>
</svg>
