<?xml version="1.0" encoding="utf-8"?>
<!-- Generator: Adobe Illustrator 18.0.0, SVG Export Plug-In . SVG Version: 6.00 Build 0)  -->
<!DOCTYPE svg PUBLIC "-//W3C//DTD SVG 1.1//EN" "http://www.w3.org/Graphics/SVG/1.1/DTD/svg11.dtd">
<svg version="1.1" id="Layer_1" xmlns="http://www.w3.org/2000/svg" xmlns:xlink="http://www.w3.org/1999/xlink" x="0px" y="0px"
	 viewBox="0 0 32 32" enable-background="new 0 0 32 32" xml:space="preserve">
<g>
	<path fill="#8F9BA8" d="M28.5,31.3h-25c-1.5,0-2.8-1.2-2.8-2.8v-25C0.8,2,2,0.8,3.5,0.8h25c1.5,0,2.8,1.2,2.8,2.8v25
		C31.3,30,30,31.3,28.5,31.3z M3.5,2.3c-0.7,0-1.3,0.6-1.3,1.3v25c0,0.7,0.6,1.3,1.3,1.3h25c0.7,0,1.3-0.6,1.3-1.3v-25
		c0-0.7-0.6-1.3-1.3-1.3C28.5,2.3,3.5,2.3,3.5,2.3z"/>
	<rect x="2.1" y="10.4" fill="#8F9BA8" width="27.8" height="1.5"/>
	<rect x="5.3" y="5.8" fill="#B4A042" width="2.5" height="1.5"/>
	<rect x="10.5" y="5.8" fill="#B4A042" width="2.5" height="1.5"/>
</g>
</svg>
