<?xml version="1.0" encoding="utf-8"?>
<!-- Generator: Adobe Illustrator 18.0.0, SVG Export Plug-In . SVG Version: 6.00 Build 0)  -->
<!DOCTYPE svg PUBLIC "-//W3C//DTD SVG 1.1//EN" "http://www.w3.org/Graphics/SVG/1.1/DTD/svg11.dtd">
<svg version="1.1" id="Layer_1" xmlns="http://www.w3.org/2000/svg" xmlns:xlink="http://www.w3.org/1999/xlink" x="0px" y="0px"
	 viewBox="0 0 32 32" enable-background="new 0 0 32 32" xml:space="preserve">
<g>
	<path fill="#8F9BA8" d="M28.5,31.3h-25c-1.5,0-2.8-1.2-2.8-2.8v-25C0.8,2,2,0.7,3.5,0.7h25c1.5,0,2.8,1.2,2.8,2.8v25
		C31.3,30,30,31.3,28.5,31.3z M3.5,2.2c-0.7,0-1.3,0.6-1.3,1.3v25c0,0.7,0.6,1.3,1.3,1.3h25c0.7,0,1.3-0.6,1.3-1.3v-25
		c0-0.7-0.6-1.3-1.3-1.3H3.5z"/>
	<rect x="2.1" y="10.4" fill="#8F9BA8" width="27.8" height="1.5"/>
	<rect x="5.3" y="5.8" fill="#DA8C8C" width="2.5" height="1.5"/>
	<rect x="10.5" y="5.8" fill="#DA8C8C" width="2.5" height="1.5"/>
	<polygon fill="#DA8C8C" points="10.6,25.6 6.2,21.2 10.6,16.8 11.7,17.9 8.3,21.2 11.7,24.5 	"/>
	<polygon fill="#DA8C8C" points="21.4,25.5 20.3,24.5 23.7,21.2 20.3,17.9 21.4,16.8 25.8,21.2 	"/>
	
		<rect x="15.3" y="16.6" transform="matrix(-0.9227 -0.3855 0.3855 -0.9227 22.6619 46.9783)" fill="#DA8C8C" width="1.5" height="9.2"/>
</g>
</svg>
