<?xml version="1.0" encoding="utf-8"?>
<!-- Generator: Adobe Illustrator 18.0.0, SVG Export Plug-In . SVG Version: 6.00 Build 0)  -->
<!DOCTYPE svg PUBLIC "-//W3C//DTD SVG 1.1//EN" "http://www.w3.org/Graphics/SVG/1.1/DTD/svg11.dtd">
<svg version="1.1" id="Layer_1" xmlns="http://www.w3.org/2000/svg" xmlns:xlink="http://www.w3.org/1999/xlink" x="0px" y="0px"
	 viewBox="0 0 32 32" enable-background="new 0 0 32 32" xml:space="preserve">
<g>
	<path fill="#8F9BA8" d="M28.5,31.3h-25c-1.5,0-2.8-1.2-2.8-2.8v-25C0.8,2,2,0.7,3.5,0.7h25c1.5,0,2.8,1.2,2.8,2.8v25
		C31.3,30,30,31.3,28.5,31.3z M3.5,2.2c-0.7,0-1.3,0.6-1.3,1.3v25c0,0.7,0.6,1.3,1.3,1.3h25c0.7,0,1.3-0.6,1.3-1.3v-25
		c0-0.7-0.6-1.3-1.3-1.3H3.5z"/>
	<rect x="2.1" y="10.4" fill="#8F9BA8" width="27.8" height="1.5"/>
	<rect x="5.3" y="5.8" fill="#B4A79C" width="2.5" height="1.5"/>
	<rect x="10.5" y="5.8" fill="#B4A79C" width="2.5" height="1.5"/>
	<g>
		<path fill="#F9F8F2" d="M18.9,19.2c0,2.8-2.3,5.1-5.1,5.1c-2.8,0-5.1-2.3-5.1-5.1c0-2.8,2.3-5.1,5.1-5.1
			C16.6,14.2,18.9,16.4,18.9,19.2z"/>
		<path fill="#B4A79C" d="M13.8,25C10.6,25,8,22.4,8,19.2c0-3.2,2.6-5.8,5.8-5.8c3.2,0,5.8,2.6,5.8,5.8C19.6,22.4,17,25,13.8,25z
			 M13.8,14.9c-2.4,0-4.3,1.9-4.3,4.3c0,2.4,1.9,4.3,4.3,4.3c2.4,0,4.3-1.9,4.3-4.3C18.1,16.9,16.2,14.9,13.8,14.9z"/>
	</g>
	
		<rect x="16.8" y="24.6" transform="matrix(0.7425 0.6698 -0.6698 0.7425 22.2337 -7.1967)" fill="#B4A79C" width="7.4" height="1.5"/>
</g>
</svg>
