<?xml version="1.0" encoding="utf-8"?>
<!-- Generator: Adobe Illustrator 18.0.0, SVG Export Plug-In . SVG Version: 6.00 Build 0)  -->
<!DOCTYPE svg PUBLIC "-//W3C//DTD SVG 1.1//EN" "http://www.w3.org/Graphics/SVG/1.1/DTD/svg11.dtd">
<svg version="1.1" id="Layer_1" xmlns="http://www.w3.org/2000/svg" xmlns:xlink="http://www.w3.org/1999/xlink" x="0px" y="0px"
	 viewBox="0 0 32 32" enable-background="new 0 0 32 32" xml:space="preserve">
<g>
	<path fill="#8F9BA8" d="M0.8,31.7v-26l10.4-5l9.7,4.6l10.4-5v26l-10.4,5l-9.7-4.6L0.8,31.7z M11.2,25.1l9.7,4.6l8.9-4.3V2.7L20.9,7
		l-9.7-4.6L2.3,6.6v22.7L11.2,25.1z"/>
	
		<rect x="20.3" y="12.3" transform="matrix(-0.7071 -0.7071 0.7071 -0.7071 32.6074 39.5589)" fill="#79C693" width="8.3" height="1.5"/>
	
		<rect x="23.8" y="8.9" transform="matrix(-0.7071 -0.7071 0.7071 -0.7071 32.6832 39.7295)" fill="#79C693" width="1.5" height="8.3"/>
	<g>
		<g>
			<path fill="#79C693" d="M3.8,21.9c0-0.4,0-0.8,0.1-1.2L5.4,21c-0.1,0.3-0.1,0.6,0,0.8L3.8,21.9z"/>
			<path fill="#79C693" d="M19.8,22c-0.2,0-0.3,0-0.5-0.1c-0.6-0.1-1.2-0.4-1.7-0.7l0.9-1.2c0.3,0.2,0.6,0.4,1,0.4
				c0.1,0,0.2,0,0.3,0L19.8,22z M22,21.6l-0.6-1.4c0.5-0.2,0.9-0.5,1.3-0.9l1.1,1C23.3,20.8,22.7,21.3,22,21.6z M16.3,19.5
				c-0.3-0.5-0.5-1-0.7-1.5l-0.2-0.3l1.4-0.6l0.2,0.4c0.2,0.5,0.4,0.9,0.6,1.3L16.3,19.5z M5.9,19.3l-1.4-0.5l0.2-0.6
				c0.1-0.4,0.3-0.7,0.4-1v-0.1l1.4,0.5c-0.1,0.4-0.3,0.8-0.4,1.2L5.9,19.3z M14.6,16.1c-0.1-0.2-0.2-0.3-0.4-0.4
				c-0.2-0.2-0.5-0.4-0.8-0.6l0.7-1.3c0.4,0.2,0.8,0.5,1.1,0.8c0.2,0.2,0.4,0.4,0.5,0.6L14.6,16.1z M7.3,16.1l-1.1-1
				c0.4-0.5,1-0.9,1.6-1.2L8,13.8l0.6,1.4l-0.1,0.1C8,15.4,7.6,15.7,7.3,16.1z M10.2,14.7L10,13.2c0.7-0.1,1.4-0.1,2.1,0l-0.2,1.5
				C11.3,14.6,10.8,14.6,10.2,14.7z"/>
			<path fill="#79C693" d="M25,18.4l-1.4-0.5c0.1-0.3,0.2-0.5,0.2-0.8l1.5,0.2C25.2,17.6,25.1,18,25,18.4z"/>
		</g>
	</g>
</g>
</svg>
