<?xml version="1.0" encoding="utf-8"?>
<!-- Generator: Adobe Illustrator 18.0.0, SVG Export Plug-In . SVG Version: 6.00 Build 0)  -->
<!DOCTYPE svg PUBLIC "-//W3C//DTD SVG 1.1//EN" "http://www.w3.org/Graphics/SVG/1.1/DTD/svg11.dtd">
<svg version="1.1" id="Layer_1" xmlns="http://www.w3.org/2000/svg" xmlns:xlink="http://www.w3.org/1999/xlink" x="0px" y="0px"
	 viewBox="0 0 32 32" enable-background="new 0 0 32 32" xml:space="preserve">
<g>
	<path fill="#8F9BA8" d="M20.8,31.2c-0.1,0-0.3,0-0.4-0.1c-0.2-0.1-0.3-0.4-0.3-0.6V6.1c0-0.3,0.2-0.6,0.4-0.7l9.7-4.6
		c0.2-0.1,0.5-0.1,0.7,0c0.2,0.1,0.3,0.4,0.3,0.6v24.4c0,0.3-0.2,0.6-0.4,0.7l-9.7,4.6C21.1,31.2,20.9,31.2,20.8,31.2z M21.6,6.6
		v22.7l8.2-3.9V2.7L21.6,6.6z"/>
	<path fill="#8F9BA8" d="M1.5,31.2c-0.1,0-0.3,0-0.4-0.1c-0.2-0.1-0.3-0.4-0.3-0.6V6.1c0-0.3,0.2-0.6,0.4-0.7l9.7-4.6
		c0.2-0.1,0.5-0.1,0.7,0c0.2,0.1,0.3,0.4,0.3,0.6v24.4c0,0.3-0.2,0.6-0.4,0.7l-9.7,4.6C1.7,31.2,1.6,31.2,1.5,31.2z M2.3,6.6v22.7
		l8.2-3.9V2.7L2.3,6.6z"/>
	<g>
		<polygon fill="#F0F7F7" points="20.8,30.5 11.2,25.9 11.2,1.5 20.8,6.1 		"/>
		<path fill="#8F9BA8" d="M20.8,31.2c-0.1,0-0.2,0-0.3-0.1l-9.7-4.6c-0.3-0.1-0.4-0.4-0.4-0.7V1.5c0-0.3,0.1-0.5,0.3-0.6
			c0.2-0.1,0.5-0.2,0.7,0l9.7,4.6c0.3,0.1,0.4,0.4,0.4,0.7v24.4c0,0.3-0.1,0.5-0.3,0.6C21.1,31.2,21,31.2,20.8,31.2z M11.9,25.4
			l8.2,3.9V6.6l-8.2-3.9V25.4z"/>
	</g>
</g>
</svg>
