<?xml version="1.0" encoding="utf-8"?>
<!-- Generator: Adobe Illustrator 18.0.0, SVG Export Plug-In . SVG Version: 6.00 Build 0)  -->
<!DOCTYPE svg PUBLIC "-//W3C//DTD SVG 1.1//EN" "http://www.w3.org/Graphics/SVG/1.1/DTD/svg11.dtd">
<svg version="1.1" id="Layer_1" xmlns="http://www.w3.org/2000/svg" xmlns:xlink="http://www.w3.org/1999/xlink" x="0px" y="0px"
	 viewBox="0 0 32 32" enable-background="new 0 0 32 32" xml:space="preserve">
<g>
	<path fill="#8F9BA8" d="M20.8,31.2c-0.1,0-0.3,0-0.4-0.1c-0.2-0.1-0.3-0.4-0.3-0.6V6.1c0-0.3,0.2-0.6,0.4-0.7l9.7-4.6
		c0.2-0.1,0.5-0.1,0.7,0c0.2,0.1,0.3,0.4,0.3,0.6v24.4c0,0.3-0.2,0.6-0.4,0.7l-9.7,4.6C21.1,31.2,20.9,31.2,20.8,31.2z M21.6,6.6
		v22.7l8.2-3.9V2.7L21.6,6.6z"/>
	<path fill="#8F9BA8" d="M1.5,31.2c-0.1,0-0.3,0-0.4-0.1c-0.2-0.1-0.4-0.4-0.4-0.6V6.1c0-0.3,0.2-0.6,0.4-0.7l9.7-4.6
		c0.2-0.1,0.5-0.1,0.7,0c0.2,0.1,0.3,0.4,0.3,0.6l0,8.9h-1.5l0-7.8L2.3,6.6v22.7l6.2-3.1l0.7,1.3l-7.3,3.6
		C1.7,31.2,1.6,31.2,1.5,31.2z"/>
	<path fill="#8F9BA8" d="M20.8,31.2c-0.1,0-0.2,0-0.3-0.1l-7.4-3.5l0.6-1.4l6.3,3V6.6l-8.2-3.9v7.1h-1.5V1.5c0-0.3,0.1-0.5,0.3-0.6
		c0.2-0.1,0.5-0.2,0.7,0l9.7,4.6c0.3,0.1,0.4,0.4,0.4,0.7v24.4c0,0.3-0.1,0.5-0.3,0.6C21.1,31.2,21,31.2,20.8,31.2z"/>
	<path fill="#DA8C8C" d="M11.2,31.2L11.2,31.2c-0.2,0-0.5-0.1-0.6-0.3c-0.7-1-6.9-9.9-6.9-13.7c0-4.1,3.4-7.5,7.5-7.5
		c4.1,0,7.5,3.4,7.5,7.5c0,3.9-6.2,12.7-6.9,13.7C11.6,31.1,11.4,31.2,11.2,31.2z M11.2,11.2c-3.3,0-6,2.7-6,6c0,2.6,3.9,8.9,6,12
		c2.1-3.1,6-9.4,6-12C17.2,13.9,14.5,11.2,11.2,11.2z"/>
	<path fill="#DA8C8C" d="M11.2,20.3c-1.9,0-3.5-1.6-3.5-3.5c0-1.9,1.6-3.5,3.5-3.5c1.9,0,3.5,1.6,3.5,3.5
		C14.6,18.7,13.1,20.3,11.2,20.3z M11.2,14.8c-1.1,0-2,0.9-2,2c0,1.1,0.9,2,2,2c1.1,0,2-0.9,2-2C13.1,15.7,12.2,14.8,11.2,14.8z"/>
</g>
</svg>
