<?xml version="1.0" encoding="utf-8"?>
<!-- Generator: Adobe Illustrator 18.0.0, SVG Export Plug-In . SVG Version: 6.00 Build 0)  -->
<!DOCTYPE svg PUBLIC "-//W3C//DTD SVG 1.1//EN" "http://www.w3.org/Graphics/SVG/1.1/DTD/svg11.dtd">
<svg version="1.1" id="Layer_1" xmlns="http://www.w3.org/2000/svg" xmlns:xlink="http://www.w3.org/1999/xlink" x="0px" y="0px"
	 viewBox="0 0 32 32" enable-background="new 0 0 32 32" xml:space="preserve">
<g>
	<path fill="#8F9BA8" d="M20.8,31.2c-0.2,0-0.3-0.1-0.5-0.2S20,30.6,20,30.4V16.6c0-0.3,0.2-0.6,0.6-0.7l9.7-2.6
		c0.2-0.1,0.5,0,0.7,0.1s0.3,0.4,0.3,0.6v13.9c0,0.3-0.2,0.6-0.6,0.7L21,31.2C21,31.2,20.9,31.2,20.8,31.2z M21.6,17.2v12.3l8.2-2.2
		V15L21.6,17.2z"/>
	<path fill="#8F9BA8" d="M1.5,31.2c-0.2,0-0.3-0.1-0.5-0.2s-0.3-0.4-0.3-0.6V16.6c0-0.3,0.2-0.6,0.6-0.7l9.7-2.6
		c0.2-0.1,0.5,0,0.7,0.1S12,13.8,12,14v13.9c0,0.3-0.2,0.6-0.6,0.7l-9.7,2.6C1.6,31.2,1.6,31.2,1.5,31.2z M2.3,17.2v12.3l8.2-2.2V15
		L2.3,17.2z"/>
	<path fill="#8F9BA8" d="M20.8,31.2c-0.1,0-0.1,0-0.2,0L11,28.6c-0.3-0.1-0.6-0.4-0.6-0.7V14c0-0.2,0.1-0.5,0.3-0.6s0.4-0.2,0.7-0.1
		l9.7,2.6c0.3,0.1,0.6,0.4,0.6,0.7v13.9c0,0.2-0.1,0.5-0.3,0.6S21,31.2,20.8,31.2z M11.9,27.3l8.2,2.2V17.2L11.9,15V27.3z"/>
	<path fill="#B4A79C" d="M16.4,10.8c-2.8,0-5-2.3-5-5s2.3-5,5-5c2.8,0,5,2.3,5,5S19.1,10.8,16.4,10.8z M16.4,2.3
		c-1.9,0-3.5,1.6-3.5,3.5s1.6,3.5,3.5,3.5s3.5-1.6,3.5-3.5S18.3,2.3,16.4,2.3z"/>
	<rect x="15.6" y="10.1" fill="#B4A79C" width="1.5" height="14"/>
</g>
</svg>
