<?xml version="1.0" encoding="utf-8"?>
<!-- Generator: Adobe Illustrator 18.0.0, SVG Export Plug-In . SVG Version: 6.00 Build 0)  -->
<!DOCTYPE svg PUBLIC "-//W3C//DTD SVG 1.1//EN" "http://www.w3.org/Graphics/SVG/1.1/DTD/svg11.dtd">
<svg version="1.1" id="Layer_1" xmlns="http://www.w3.org/2000/svg" xmlns:xlink="http://www.w3.org/1999/xlink" x="0px" y="0px"
	 viewBox="0 0 32 32" enable-background="new 0 0 32 32" xml:space="preserve">
<g>
	<path fill="#8F9BA8" d="M16,13.1c-3.4,0-6.2-2.8-6.2-6.2c0-3.4,2.8-6.2,6.2-6.2c3.4,0,6.2,2.8,6.2,6.2C22.2,10.4,19.4,13.1,16,13.1
		z M16,2.3c-2.6,0-4.7,2.1-4.7,4.7c0,2.6,2.1,4.7,4.7,4.7c2.6,0,4.7-2.1,4.7-4.7C20.7,4.4,18.6,2.3,16,2.3z"/>
	<g>
		<path fill="#CDE4F7" d="M7.2,25.3v5.2h17.6v-5.2h4.4C28,19.1,22.5,14.5,16,14.5c-6.5,0-12,4.7-13.2,10.8H7.2z"/>
		<path fill="#74B1E0" d="M25.6,31.3H6.4v-5.2H1.9l0.2-0.9C3.4,18.5,9.2,13.7,16,13.7c6.8,0,12.6,4.8,13.9,11.5l0.2,0.9h-4.6V31.3z
			 M7.9,29.8h16.1v-5.2h4.2c-1.5-5.5-6.5-9.3-12.3-9.3c-5.7,0-10.8,3.9-12.3,9.3h4.2V29.8z"/>
	</g>
</g>
</svg>
