<?xml version="1.0" encoding="utf-8"?>
<!-- Generator: Adobe Illustrator 18.0.0, SVG Export Plug-In . SVG Version: 6.00 Build 0)  -->
<!DOCTYPE svg PUBLIC "-//W3C//DTD SVG 1.1//EN" "http://www.w3.org/Graphics/SVG/1.1/DTD/svg11.dtd">
<svg version="1.1" id="Layer_1" xmlns="http://www.w3.org/2000/svg" xmlns:xlink="http://www.w3.org/1999/xlink" x="0px" y="0px"
	 viewBox="0 0 32 32" enable-background="new 0 0 32 32" xml:space="preserve">
<g>
	<g>
		<path fill="#8F9BA8" d="M23.5,31.2H8.5c-1.4,0-2.5-1.1-2.5-2.5V9.5H26v19.3C26,30.1,24.9,31.2,23.5,31.2z M7.5,11v17.8
			c0,0.6,0.5,1,1,1h15.1c0.6,0,1-0.5,1-1V11H7.5z"/>
	</g>
	<g>
		<path fill="#8F9BA8" d="M21.9,6.3H10.1V3c0-1.3,1-2.3,2.3-2.3h7.2c1.3,0,2.3,1,2.3,2.3V6.3z M11.6,4.8h8.8V3
			c0-0.4-0.3-0.8-0.8-0.8h-7.2c-0.4,0-0.8,0.3-0.8,0.8V4.8z"/>
	</g>
	<g>
		<rect x="12.2" y="15.7" fill="#8F9BA8" width="1.5" height="9.3"/>
	</g>
	<g>
		<rect x="18.3" y="15.7" fill="#8F9BA8" width="1.5" height="9.3"/>
	</g>
	<g>
		<path fill="#F0F7F7" d="M26.4,10.2H5.6c-0.5,0-0.9-0.4-0.9-0.9V6.5c0-0.5,0.4-0.9,0.9-0.9h20.7c0.5,0,0.9,0.4,0.9,0.9v2.8
			C27.3,9.8,26.9,10.2,26.4,10.2z"/>
		<path fill="#8F9BA8" d="M26.4,11H5.6C4.7,11,4,10.2,4,9.3V6.5c0-0.9,0.7-1.7,1.7-1.7h20.7c0.9,0,1.7,0.7,1.7,1.7v2.8
			C28,10.2,27.3,11,26.4,11z M5.6,6.3c-0.1,0-0.2,0.1-0.2,0.2v2.8c0,0.1,0.1,0.2,0.2,0.2h20.7c0.1,0,0.2-0.1,0.2-0.2V6.5
			c0-0.1-0.1-0.2-0.2-0.2H5.6z"/>
	</g>
</g>
</svg>
