<?xml version="1.0" encoding="utf-8"?>
<!-- Generator: Adobe Illustrator 18.0.0, SVG Export Plug-In . SVG Version: 6.00 Build 0)  -->
<!DOCTYPE svg PUBLIC "-//W3C//DTD SVG 1.1//EN" "http://www.w3.org/Graphics/SVG/1.1/DTD/svg11.dtd">
<svg version="1.1" id="Layer_1" xmlns="http://www.w3.org/2000/svg" xmlns:xlink="http://www.w3.org/1999/xlink" x="0px" y="0px"
	 viewBox="0 0 32 32" enable-background="new 0 0 32 32" xml:space="preserve">
<g>
	<path fill="#8F9BA8" d="M28.5,29.9h-25c-1.5,0-2.8-1.2-2.8-2.8v-16c0-1.5,1.2-2.8,2.8-2.8h25c1.5,0,2.8,1.2,2.8,2.8v16
		C31.3,28.6,30,29.9,28.5,29.9z M3.5,9.8c-0.7,0-1.3,0.6-1.3,1.3v16c0,0.7,0.6,1.3,1.3,1.3h25c0.7,0,1.3-0.6,1.3-1.3v-16
		c0-0.7-0.6-1.3-1.3-1.3H3.5z"/>
	<path fill="#79C693" d="M9.7,24.5c-3,0-5.4-2.4-5.4-5.4c0-3,2.4-5.4,5.4-5.4c3,0,5.4,2.4,5.4,5.4C15.1,22.1,12.7,24.5,9.7,24.5z
		 M9.7,15.2c-2.1,0-3.9,1.7-3.9,3.9c0,2.1,1.7,3.9,3.9,3.9c2.1,0,3.9-1.7,3.9-3.9C13.6,17,11.9,15.2,9.7,15.2z"/>
	
		<rect x="14.6" y="-2.5" transform="matrix(0.3711 0.9286 -0.9286 0.3711 15.1718 -10.4905)" fill="#8F9BA8" width="1.5" height="17"/>
	<g>
		<line fill="#231F20" x1="26.2" y1="13.2" x2="26.2" y2="14.4"/>
		<rect x="25.4" y="13.2" fill="#79C693" width="1.5" height="1.3"/>
	</g>
	<g>
		<line fill="#231F20" x1="21.8" y1="13.2" x2="21.8" y2="14.4"/>
		<rect x="21" y="13.2" fill="#79C693" width="1.5" height="1.3"/>
	</g>
	<g>
		<line fill="#231F20" x1="26.2" y1="16.7" x2="26.2" y2="18"/>
		<rect x="25.4" y="16.7" fill="#79C693" width="1.5" height="1.3"/>
	</g>
	<g>
		<line fill="#231F20" x1="21.8" y1="16.7" x2="21.8" y2="18"/>
		<rect x="21" y="16.7" fill="#79C693" width="1.5" height="1.3"/>
	</g>
	<g>
		<line fill="#231F20" x1="26.2" y1="20.3" x2="26.2" y2="21.5"/>
		<rect x="25.4" y="20.3" fill="#79C693" width="1.5" height="1.3"/>
	</g>
	<g>
		<line fill="#231F20" x1="21.8" y1="20.3" x2="21.8" y2="21.5"/>
		<rect x="21" y="20.3" fill="#79C693" width="1.5" height="1.3"/>
	</g>
	<g>
		<line fill="#231F20" x1="26.2" y1="23.8" x2="26.2" y2="25.1"/>
		<rect x="25.4" y="23.8" fill="#79C693" width="1.5" height="1.3"/>
	</g>
	<g>
		<line fill="#231F20" x1="21.8" y1="23.8" x2="21.8" y2="25.1"/>
		<rect x="21" y="23.8" fill="#79C693" width="1.5" height="1.3"/>
	</g>
</g>
</svg>
