<?xml version="1.0" encoding="utf-8"?>
<!-- Generator: Adobe Illustrator 18.0.0, SVG Export Plug-In . SVG Version: 6.00 Build 0)  -->
<!DOCTYPE svg PUBLIC "-//W3C//DTD SVG 1.1//EN" "http://www.w3.org/Graphics/SVG/1.1/DTD/svg11.dtd">
<svg version="1.1" id="Layer_1" xmlns="http://www.w3.org/2000/svg" xmlns:xlink="http://www.w3.org/1999/xlink" x="0px" y="0px"
	 viewBox="0 0 32 32" enable-background="new 0 0 32 32" xml:space="preserve">
<g>
	<g>
		<path fill="#FAC2C3" d="M15.7,6.8l-1-3.3c-0.5-1.5-1.8-2-2.9-2H3.4c-1.1,0-1.9,0.9-1.9,2v3.3"/>
		<path fill="#DA8C8C" d="M14.9,7.1l-1-3.3c-0.4-1.4-1.8-1.5-2.2-1.5H3.4c-0.7,0-1.2,0.6-1.2,1.3v3.3H0.8V3.5C0.8,2,2,0.7,3.4,0.7
			h8.4c1.3,0,3,0.7,3.6,2.6l1,3.3L14.9,7.1z"/>
	</g>
	<path fill="#DA8C8C" d="M26.6,31.3H5.4c-2.5,0-4.6-2.2-4.6-4.8V5.9h25.9c2.5,0,4.6,2.2,4.6,4.8v15.6C31.3,29.1,29.2,31.3,26.6,31.3
		z M2.3,7.4v19c0,1.8,1.4,3.3,3.1,3.3h21.3c1.7,0,3.1-1.5,3.1-3.3V10.8c0-1.8-1.4-3.3-3.1-3.3H2.3z"/>
</g>
</svg>
