<?xml version="1.0" encoding="utf-8"?>
<!-- Generator: Adobe Illustrator 18.0.0, SVG Export Plug-In . SVG Version: 6.00 Build 0)  -->
<!DOCTYPE svg PUBLIC "-//W3C//DTD SVG 1.1//EN" "http://www.w3.org/Graphics/SVG/1.1/DTD/svg11.dtd">
<svg version="1.1" id="Layer_1" xmlns="http://www.w3.org/2000/svg" xmlns:xlink="http://www.w3.org/1999/xlink" x="0px" y="0px"
	 viewBox="0 0 32 32" enable-background="new 0 0 32 32" xml:space="preserve">
<g>
	<path fill="#8F9BA8" d="M26.2,31.3H5.8c-1,0-1.8-0.8-1.8-1.8v-27c0-1,0.8-1.8,1.8-1.8h20.4c1,0,1.8,0.8,1.8,1.8v27
		C27.9,30.5,27.2,31.3,26.2,31.3z M5.8,2.2c-0.1,0-0.3,0.1-0.3,0.3v27c0,0.1,0.1,0.3,0.3,0.3h20.4c0.1,0,0.3-0.1,0.3-0.3v-27
		c0-0.1-0.1-0.3-0.3-0.3H5.8z"/>
	<g>
		<line fill="#B4A79C" x1="9.9" y1="7.4" x2="22.1" y2="7.4"/>
		<rect x="9.9" y="6.7" fill="#B4A79C" width="12.1" height="1.5"/>
	</g>
	<g>
		<line fill="#B4A79C" x1="9.9" y1="13.1" x2="22.1" y2="13.1"/>
		<rect x="9.9" y="12.4" fill="#B4A79C" width="12.1" height="1.5"/>
	</g>
	<g>
		<line fill="#B4A79C" x1="9.9" y1="18.9" x2="22.1" y2="18.9"/>
		<rect x="9.9" y="18.1" fill="#B4A79C" width="12.1" height="1.5"/>
	</g>
	<g>
		<line fill="#B4A79C" x1="9.9" y1="24.6" x2="22.1" y2="24.6"/>
		<rect x="9.9" y="23.8" fill="#B4A79C" width="12.1" height="1.5"/>
	</g>
</g>
</svg>
