<?xml version="1.0" encoding="utf-8"?>
<!-- Generator: Adobe Illustrator 18.0.0, SVG Export Plug-In . SVG Version: 6.00 Build 0)  -->
<!DOCTYPE svg PUBLIC "-//W3C//DTD SVG 1.1//EN" "http://www.w3.org/Graphics/SVG/1.1/DTD/svg11.dtd">
<svg version="1.1" id="Layer_1" xmlns="http://www.w3.org/2000/svg" xmlns:xlink="http://www.w3.org/1999/xlink" x="0px" y="0px"
	 viewBox="0 0 32 32" enable-background="new 0 0 32 32" xml:space="preserve">
<g>
	<g>
		<circle fill="#CDE4F7" cx="13.8" cy="11.7" r="5.1"/>
		<path fill="#74B1E0" d="M13.8,17.5c-3.2,0-5.8-2.6-5.8-5.8c0-3.2,2.6-5.8,5.8-5.8c3.2,0,5.8,2.6,5.8,5.8
			C19.6,14.9,17,17.5,13.8,17.5z M13.8,7.4c-2.4,0-4.3,1.9-4.3,4.3c0,2.4,1.9,4.3,4.3,4.3c2.4,0,4.3-1.9,4.3-4.3
			C18.1,9.3,16.2,7.4,13.8,7.4z"/>
	</g>
	<g>
		<line fill="#CDE4F7" x1="17.7" y1="15.3" x2="23.2" y2="20.3"/>
		
			<rect x="16.8" y="17" transform="matrix(0.7427 0.6696 -0.6696 0.7427 17.1769 -9.1369)" fill="#74B1E0" width="7.4" height="1.5"/>
	</g>
	<path fill="#8F9BA8" d="M31.3,24.3H0.8V2.6h30.5V24.3z M2.3,22.8h27.5V4.1H2.3V22.8z"/>
	<rect x="7.7" y="27.9" fill="#8F9BA8" width="16.6" height="1.5"/>
	<path fill="#8F9BA8" d="M21.7,29.4H10.3v-6.6h11.4V29.4z M11.8,27.9h8.4v-3.6h-8.4V27.9z"/>
</g>
</svg>
