<?xml version="1.0" encoding="utf-8"?>
<!-- Generator: Adobe Illustrator 18.0.0, SVG Export Plug-In . SVG Version: 6.00 Build 0)  -->
<!DOCTYPE svg PUBLIC "-//W3C//DTD SVG 1.1//EN" "http://www.w3.org/Graphics/SVG/1.1/DTD/svg11.dtd">
<svg version="1.1" id="Layer_1" xmlns="http://www.w3.org/2000/svg" xmlns:xlink="http://www.w3.org/1999/xlink" x="0px" y="0px"
	 viewBox="0 0 32 32" enable-background="new 0 0 32 32" xml:space="preserve">
<g>
	<path fill="#79C693" d="M8.8,12.8c-2,0-3.6-1.6-3.6-3.6s1.6-3.6,3.6-3.6s3.6,1.6,3.6,3.6S10.8,12.8,8.8,12.8z M8.8,7.1
		C7.6,7.1,6.7,8,6.7,9.2s0.9,2.1,2.1,2.1s2.1-0.9,2.1-2.1C10.9,8.1,9.9,7.1,8.8,7.1z"/>
	<path fill="#79C693" d="M23.2,12.8c-2,0-3.6-1.6-3.6-3.6s1.6-3.6,3.6-3.6s3.6,1.6,3.6,3.6C26.8,11.2,25.2,12.8,23.2,12.8z
		 M23.2,7.1c-1.2,0-2.1,0.9-2.1,2.1s0.9,2.1,2.1,2.1s2.1-0.9,2.1-2.1C25.3,8.1,24.4,7.1,23.2,7.1z"/>
	<path fill="#79C693" d="M16.1,21.4c-2,0-3.6-1.6-3.6-3.6s1.6-3.6,3.6-3.6s3.6,1.6,3.6,3.6S18.1,21.4,16.1,21.4z M16.1,15.7
		c-1.2,0-2.1,0.9-2.1,2.1c0,1.2,0.9,2.1,2.1,2.1s2.1-0.9,2.1-2.1C18.2,16.6,17.3,15.7,16.1,15.7z"/>
	
		<rect x="9.8" y="12.9" transform="matrix(-0.6707 -0.7417 0.7417 -0.6707 10.1544 31.7593)" fill="#79C693" width="4.7" height="1.5"/>
	
		<rect x="19.1" y="11.4" transform="matrix(-0.7733 -0.634 0.634 -0.7733 26.5385 36.7226)" fill="#79C693" width="1.5" height="4.5"/>
	<path fill="#8F9BA8" d="M31.3,24.3H0.8V2.6h30.5V24.3z M2.3,22.8h27.5V4.1H2.3V22.8z"/>
	<rect x="7.7" y="27.9" fill="#8F9BA8" width="16.6" height="1.5"/>
	<path fill="#8F9BA8" d="M21.7,29.4H10.3v-6.6h11.4V29.4z M11.8,27.9h8.4v-3.6h-8.4C11.8,24.3,11.8,27.9,11.8,27.9z"/>
</g>
</svg>
