<?xml version="1.0" encoding="utf-8"?>
<!-- Generator: Adobe Illustrator 18.0.0, SVG Export Plug-In . SVG Version: 6.00 Build 0)  -->
<!DOCTYPE svg PUBLIC "-//W3C//DTD SVG 1.1//EN" "http://www.w3.org/Graphics/SVG/1.1/DTD/svg11.dtd">
<svg version="1.1" id="Layer_1" xmlns="http://www.w3.org/2000/svg" xmlns:xlink="http://www.w3.org/1999/xlink" x="0px" y="0px"
	 viewBox="0 0 32 32" enable-background="new 0 0 32 32" xml:space="preserve">
<g>
	<polygon fill="#B4A042" points="15,18.1 13.5,18.1 13.5,9.7 23.6,5.9 23.6,14.4 22.1,14.4 22.1,8 15,10.7 	"/>
	<g>
		<ellipse fill="#F2E8B9" cx="11.7" cy="18.3" rx="2.6" ry="1.8"/>
		<path fill="#B4A042" d="M11.7,20.8c-1.9,0-3.4-1.1-3.4-2.6c0-1.4,1.5-2.6,3.4-2.6c1.9,0,3.4,1.1,3.4,2.6
			C15.1,19.7,13.6,20.8,11.7,20.8z M11.7,17.2c-1.1,0-1.9,0.6-1.9,1.1c0,0.5,0.8,1.1,1.9,1.1c1.1,0,1.9-0.6,1.9-1.1
			C13.6,17.8,12.8,17.2,11.7,17.2z"/>
	</g>
	<g>
		<ellipse fill="#F2E8B9" cx="20.3" cy="14.3" rx="2.6" ry="1.8"/>
		<path fill="#B4A042" d="M20.3,16.9c-1.9,0-3.4-1.1-3.4-2.6c0-1.4,1.5-2.6,3.4-2.6c1.9,0,3.4,1.1,3.4,2.6
			C23.6,15.8,22.1,16.9,20.3,16.9z M20.3,13.3c-1.1,0-1.9,0.6-1.9,1.1c0,0.5,0.8,1.1,1.9,1.1c1.1,0,1.9-0.6,1.9-1.1
			C22.1,13.8,21.3,13.3,20.3,13.3z"/>
	</g>
	<path fill="#8F9BA8" d="M31.2,24.3H0.8V2.6h30.5l0,18.9L31.2,24.3z M2.3,22.8h27.5l0-17.4l0-1.3H2.3V22.8z"/>
	<rect x="7.7" y="27.9" fill="#8F9BA8" width="16.6" height="1.5"/>
	<path fill="#8F9BA8" d="M21.7,29.4H10.3v-6.6h11.4V29.4z M11.8,27.9h8.4v-3.6h-8.4V27.9z"/>
</g>
</svg>
