<?xml version="1.0" encoding="utf-8"?>
<!-- Generator: Adobe Illustrator 18.0.0, SVG Export Plug-In . SVG Version: 6.00 Build 0)  -->
<!DOCTYPE svg PUBLIC "-//W3C//DTD SVG 1.1//EN" "http://www.w3.org/Graphics/SVG/1.1/DTD/svg11.dtd">
<svg version="1.1" id="Layer_1" xmlns="http://www.w3.org/2000/svg" xmlns:xlink="http://www.w3.org/1999/xlink" x="0px" y="0px"
	 viewBox="0 0 32 32" enable-background="new 0 0 32 32" xml:space="preserve">
<g>
	<g>
		<path fill="#B4A79C" d="M16,28.1c-0.1,0-0.2,0-0.3,0c-4.7-1.8-9.6-2.2-14.1-1.2c-0.2,0-0.5,0-0.6-0.1c-0.2-0.1-0.3-0.4-0.3-0.6
			V5.2c0-0.4,0.2-0.7,0.6-0.7c4.8-1,9.9-0.6,14.9,1.3c0.3,0.1,0.5,0.4,0.5,0.7v20.9c0,0.2-0.1,0.5-0.3,0.6
			C16.3,28.1,16.2,28.1,16,28.1z M6.5,24.8c2.9,0,5.8,0.5,8.7,1.5V6.9C10.9,5.4,6.4,5,2.3,5.8v19.4C3.7,25,5.1,24.8,6.5,24.8z"/>
	</g>
	<g>
		<path fill="#B4A79C" d="M12.6,12.6c0,0-3.9-1.8-7.9-1.4L4.5,9.7c4.4-0.4,8.5,1.5,8.7,1.5L12.6,12.6z"/>
	</g>
	<g>
		<path fill="#B4A79C" d="M12.6,17.4c0,0-3.9-1.8-7.9-1.4l-0.1-1.5C9,14.1,13,16,13.2,16.1L12.6,17.4z"/>
	</g>
	<g>
		<path fill="#B4A79C" d="M12.6,22.3c0,0-3.9-1.8-7.9-1.4l-0.1-1.5C9,19,13,20.9,13.2,20.9L12.6,22.3z"/>
	</g>
	<g>
		<path fill="#B4A79C" d="M16,28.1c-0.2,0-0.3,0-0.4-0.1c-0.2-0.1-0.3-0.4-0.3-0.6V6.4c0-0.3,0.2-0.6,0.5-0.7
			c5-1.9,10.1-2.3,14.9-1.3c0.3,0.1,0.6,0.4,0.6,0.7l0,20.9c0,0.2-0.1,0.4-0.3,0.6c-0.2,0.1-0.4,0.2-0.6,0.1
			c-4.5-1-9.4-0.6-14.1,1.2C16.2,28.1,16.1,28.1,16,28.1z M16.8,6.9v19.3c4.3-1.5,8.8-1.8,13-1.1l0-19.4C25.6,5,21.1,5.4,16.8,6.9z"
			/>
	</g>
	<g>
		<path fill="#B4A79C" d="M19.4,12.6l-0.6-1.4c0.2-0.1,4.3-2,8.7-1.5l-0.1,1.5C23.3,10.8,19.5,12.6,19.4,12.6z"/>
	</g>
	<g>
		<path fill="#B4A79C" d="M19.4,17.4l-0.6-1.4c0.2-0.1,4.3-1.9,8.7-1.5L27.3,16C23.3,15.7,19.5,17.4,19.4,17.4z"/>
	</g>
	<g>
		<path fill="#B4A79C" d="M19.4,22.3l-0.6-1.4c0.2-0.1,4.3-2,8.7-1.5l-0.1,1.5C23.3,20.5,19.5,22.3,19.4,22.3z"/>
	</g>
</g>
</svg>
