<?xml version="1.0" encoding="utf-8"?>
<!-- Generator: Adobe Illustrator 18.0.0, SVG Export Plug-In . SVG Version: 6.00 Build 0)  -->
<!DOCTYPE svg PUBLIC "-//W3C//DTD SVG 1.1//EN" "http://www.w3.org/Graphics/SVG/1.1/DTD/svg11.dtd">
<svg version="1.1" id="Layer_1" xmlns="http://www.w3.org/2000/svg" xmlns:xlink="http://www.w3.org/1999/xlink" x="0px" y="0px"
	 viewBox="0 0 32 32" enable-background="new 0 0 32 32" xml:space="preserve">
<g>
	<path fill="#B4A79C" d="M14.7,31.3C9.4,31.3,5,25.8,5,19.1C5,12.5,9.4,7,14.7,7s9.7,5.4,9.7,12.1C24.5,25.8,20.1,31.3,14.7,31.3z
		 M14.7,8.6c-4.5,0-8.2,4.7-8.2,10.6s3.7,10.6,8.2,10.6s8.2-4.7,8.2-10.6S19.3,8.6,14.7,8.6z"/>
	<rect x="14" y="11.6" fill="#B4A79C" width="1.5" height="5.1"/>
	<path fill="#B4A79C" d="M14,7.9c-0.1-1,0.2-1.7,0.7-2.3c1.3-1.3,3.7-1.3,5.4-1.2c0.2,0,0.4,0,0.6,0l0.5,0c1.4,0,1.9,0,3-0.8
		c1.1-0.9,1.3-1.4,1.3-2.8H27c0,1.8-0.3,2.7-1.8,4c-1.5,1.2-2.5,1.2-4,1.2l-0.5,0c-0.2,0-0.4,0-0.6,0c-1.3,0-3.4-0.1-4.2,0.7
		c-0.3,0.3-0.4,0.6-0.3,1.2L14,7.9z"/>
</g>
</svg>
