<?xml version="1.0" encoding="utf-8"?>
<!-- Generator: Adobe Illustrator 18.0.0, SVG Export Plug-In . SVG Version: 6.00 Build 0)  -->
<!DOCTYPE svg PUBLIC "-//W3C//DTD SVG 1.1//EN" "http://www.w3.org/Graphics/SVG/1.1/DTD/svg11.dtd">
<svg version="1.1" id="Layer_1" xmlns="http://www.w3.org/2000/svg" xmlns:xlink="http://www.w3.org/1999/xlink" x="0px" y="0px"
	 viewBox="0 0 32 32" enable-background="new 0 0 32 32" xml:space="preserve">
<g>
	<path fill="#8F9BA8" d="M28.5,26.9h-25c-1.5,0-2.8-1.2-2.8-2.8V10.7c0-1.5,1.2-2.8,2.8-2.8h25c1.5,0,2.8,1.2,2.8,2.8v13.5
		C31.3,25.7,30,26.9,28.5,26.9z M3.5,9.4c-0.7,0-1.3,0.6-1.3,1.3v13.5c0,0.7,0.6,1.3,1.3,1.3h25c0.7,0,1.3-0.6,1.3-1.3V10.7
		c0-0.7-0.6-1.3-1.3-1.3H3.5z"/>
	<rect x="6.6" y="5.1" fill="#79C693" width="4.8" height="1.5"/>
	<rect x="5.5" y="16.7" fill="#79C693" width="6.8" height="1.5"/>
	<rect x="8.2" y="14" fill="#79C693" width="1.5" height="6.8"/>
	<g>
		<line fill="#231F20" x1="20.7" y1="14.9" x2="22.3" y2="14.9"/>
		<rect x="20.7" y="14.1" fill="#79C693" width="1.6" height="1.5"/>
	</g>
	<g>
		<line fill="#231F20" x1="20.7" y1="20" x2="22.3" y2="20"/>
		<rect x="20.7" y="19.2" fill="#79C693" width="1.6" height="1.5"/>
	</g>
	<g>
		<line fill="#231F20" x1="25.2" y1="14.9" x2="26.8" y2="14.9"/>
		<rect x="25.2" y="14.1" fill="#79C693" width="1.6" height="1.5"/>
	</g>
	<g>
		<line fill="#231F20" x1="25.2" y1="20" x2="26.8" y2="20"/>
		<rect x="25.2" y="19.2" fill="#79C693" width="1.6" height="1.5"/>
	</g>
</g>
</svg>
