<?xml version="1.0" encoding="utf-8"?>
<!-- Generator: Adobe Illustrator 18.0.0, SVG Export Plug-In . SVG Version: 6.00 Build 0)  -->
<!DOCTYPE svg PUBLIC "-//W3C//DTD SVG 1.1//EN" "http://www.w3.org/Graphics/SVG/1.1/DTD/svg11.dtd">
<svg version="1.1" id="Layer_1" xmlns="http://www.w3.org/2000/svg" xmlns:xlink="http://www.w3.org/1999/xlink" x="0px" y="0px"
	 viewBox="0 0 32 32" enable-background="new 0 0 32 32" xml:space="preserve">
<g>
	<path fill="#79C693" d="M24.2,31.3H7.8c-1.5,0-2.8-1.2-2.8-2.8V8.9c0-1.5,1.2-2.8,2.8-2.8h16.4c1.5,0,2.8,1.2,2.8,2.8v19.6
		C26.9,30,25.7,31.3,24.2,31.3z M7.8,7.7c-0.7,0-1.3,0.6-1.3,1.3v19.6c0,0.7,0.6,1.3,1.3,1.3h16.4c0.7,0,1.3-0.6,1.3-1.3V8.9
		c0-0.7-0.6-1.3-1.3-1.3H7.8z"/>
	<path fill="#79C693" d="M22.1,9.5h-1.5c0-3.9-2.1-7.3-4.6-7.3c-2.5,0-4.6,3.3-4.6,7.3H9.9c0-4.8,2.7-8.8,6.1-8.8
		C19.4,0.7,22.1,4.6,22.1,9.5z"/>
</g>
</svg>
