<?xml version="1.0" encoding="utf-8"?>
<!-- Generator: Adobe Illustrator 18.0.0, SVG Export Plug-In . SVG Version: 6.00 Build 0)  -->
<!DOCTYPE svg PUBLIC "-//W3C//DTD SVG 1.1//EN" "http://www.w3.org/Graphics/SVG/1.1/DTD/svg11.dtd">
<svg version="1.1" id="Layer_1" xmlns="http://www.w3.org/2000/svg" xmlns:xlink="http://www.w3.org/1999/xlink" x="0px" y="0px"
	 viewBox="0 0 32 32" enable-background="new 0 0 32 32" xml:space="preserve">
<pattern  x="-210" y="-42" width="24.1" height="24.1" patternUnits="userSpaceOnUse" id="New_Pattern_Swatch_1" viewBox="0 -24.1 24.1 24.1" overflow="visible">
	<g>
		<polygon fill="none" points="0,0 24.1,0 24.1,-24.1 0,-24.1 		"/>
		<polygon fill="#FEE99B" points="24.1,0 0,0 0,-24.1 24.1,-24.1 		"/>
	</g>
</pattern>
<pattern  x="-210" y="-42" width="24.1" height="24.1" patternUnits="userSpaceOnUse" id="New_Pattern_Swatch_2" viewBox="0 -24.1 24.1 24.1" overflow="visible">
	<g>
		<polygon fill="none" points="0,0 24.1,0 24.1,-24.1 0,-24.1 		"/>
		<polygon fill="#E0CB81" points="24.1,0 0,0 0,-24.1 24.1,-24.1 		"/>
	</g>
</pattern>
<g>
	<path fill="#8F9BA8" d="M26.6,28.6H5.4c-2.5,0-4.6-2.1-4.6-4.6V11.5c0-2.5,2.1-4.6,4.6-4.6h3.9c1.2-2.1,3.8-3.5,6.7-3.5
		s5.6,1.4,6.7,3.5h3.9c2.5,0,4.6,2.1,4.6,4.6V24C31.3,26.5,29.2,28.6,26.6,28.6z M5.4,8.4c-1.7,0-3.1,1.4-3.1,3.1V24
		c0,1.7,1.4,3.1,3.1,3.1h21.3c1.7,0,3.1-1.4,3.1-3.1V11.5c0-1.7-1.4-3.1-3.1-3.1h-4.8L21.6,8c-0.8-1.8-3.1-3.1-5.6-3.1
		c-2.5,0-4.8,1.2-5.6,3.1l-0.2,0.4H5.4z"/>
	<g>
		<pattern  id="SVGID_1_" xlink:href="#New_Pattern_Swatch_1" patternTransform="matrix(1 0 0 1 -18.1868 -24.1156)">
		</pattern>
		<circle fill="url(#SVGID_1_)" cx="16" cy="17.6" r="6.5"/>
		<pattern  id="SVGID_2_" xlink:href="#New_Pattern_Swatch_2" patternTransform="matrix(1 0 0 1 -18.1868 -24.1156)">
		</pattern>
		<path fill="url(#SVGID_2_)" d="M16,24.9c-4,0-7.2-3.3-7.2-7.2c0-4,3.3-7.2,7.2-7.2c4,0,7.2,3.3,7.2,7.2C23.2,21.6,20,24.9,16,24.9
			z M16,11.9c-3.2,0-5.7,2.6-5.7,5.7c0,3.2,2.6,5.7,5.7,5.7c3.2,0,5.7-2.6,5.7-5.7C21.7,14.5,19.2,11.9,16,11.9z"/>
	</g>
</g>
</svg>
