<?xml version="1.0" encoding="utf-8"?>
<!-- Generator: Adobe Illustrator 18.0.0, SVG Export Plug-In . SVG Version: 6.00 Build 0)  -->
<!DOCTYPE svg PUBLIC "-//W3C//DTD SVG 1.1//EN" "http://www.w3.org/Graphics/SVG/1.1/DTD/svg11.dtd">
<svg version="1.1" id="Layer_1" xmlns="http://www.w3.org/2000/svg" xmlns:xlink="http://www.w3.org/1999/xlink" x="0px" y="0px"
	 viewBox="0 0 32 32" enable-background="new 0 0 32 32" xml:space="preserve">
<g>
	<path fill="#8F9BA8" d="M27.6,24.6H9.9V0.7h17.7V24.6z M11.4,23.1h14.7V2.2H11.4V23.1z"/>
	<path fill="#8F9BA8" d="M5.9,27.2H4.4V4.8c0-2.2,1.9-4.1,4.3-4.1h2v1.5h-2c-1.5,0-2.8,1.2-2.8,2.6C5.9,4.8,5.9,27.2,5.9,27.2z"/>
	<path fill="#8F9BA8" d="M27.6,31.3H8.7c-2.3,0-4.3-1.8-4.3-4.1s1.9-4.1,4.3-4.1h18.9C27.6,23.1,27.6,31.3,27.6,31.3z M8.7,24.6
		c-1.5,0-2.8,1.2-2.8,2.6s1.2,2.6,2.8,2.6h17.4v-5.2C26.1,24.6,8.7,24.6,8.7,24.6z"/>
	<g>
		<polygon fill="#F9F8F2" points="14.8,1.5 14.8,17.4 18.7,12.8 22.7,17.4 22.7,1.5 		"/>
		<path fill="#B4A79C" d="M14.1,19.4V0.7h9.4v18.6L18.7,14L14.1,19.4z M18.7,11.7l3.3,3.7V2.2h-6.4v13.1L18.7,11.7z"/>
	</g>
</g>
</svg>
