<?xml version="1.0" encoding="utf-8"?>
<!-- Generator: Adobe Illustrator 18.0.0, SVG Export Plug-In . SVG Version: 6.00 Build 0)  -->
<!DOCTYPE svg PUBLIC "-//W3C//DTD SVG 1.1//EN" "http://www.w3.org/Graphics/SVG/1.1/DTD/svg11.dtd">
<svg version="1.1" id="Layer_1" xmlns="http://www.w3.org/2000/svg" xmlns:xlink="http://www.w3.org/1999/xlink" x="0px" y="0px"
	 viewBox="0 0 32 32" enable-background="new 0 0 32 32" xml:space="preserve">
<g>
	<path fill="#8F9BA8" d="M27.6,24.6H9.9V0.7h17.7V24.6z M11.4,23.1h14.7V2.2H11.4V23.1z"/>
	<path fill="#8F9BA8" d="M5.9,27.2H4.4V4.8c0-2.2,1.9-4.1,4.3-4.1h2v1.5h-2c-1.5,0-2.8,1.2-2.8,2.6V27.2z"/>
	<g>
		<path fill="#CDE4F7" d="M8.7,23.8c-1.9,0-3.5,1.5-3.5,3.3c0,1.8,1.6,3.3,3.5,3.3h18.2v-6.7H8.7z"/>
		<path fill="#74B1E0" d="M27.6,31.3H8.7c-2.3,0-4.3-1.8-4.3-4.1c0-2.3,1.9-4.1,4.3-4.1h18.9V31.3z M8.7,24.6
			c-1.5,0-2.8,1.2-2.8,2.6c0,1.4,1.2,2.6,2.8,2.6h17.4v-5.2H8.7z"/>
	</g>
</g>
</svg>
