<?xml version="1.0" encoding="utf-8"?>
<!-- Generator: Adobe Illustrator 18.0.0, SVG Export Plug-In . SVG Version: 6.00 Build 0)  -->
<!DOCTYPE svg PUBLIC "-//W3C//DTD SVG 1.1//EN" "http://www.w3.org/Graphics/SVG/1.1/DTD/svg11.dtd">
<svg version="1.1" id="Layer_1" xmlns="http://www.w3.org/2000/svg" xmlns:xlink="http://www.w3.org/1999/xlink" x="0px" y="0px"
	 viewBox="0 0 32 32" enable-background="new 0 0 32 32" xml:space="preserve">
<g>
	<g>
		<path fill="#F0F7F7" d="M16,24.7c-3.1,0-5.7,2.5-6.2,5.8h12.5C21.7,27.2,19.1,24.7,16,24.7z"/>
		<path fill="#8F9BA8" d="M23.1,31.3H8.9L9,30.4c0.6-3.7,3.5-6.5,7-6.5c3.4,0,6.4,2.7,7,6.5L23.1,31.3z M10.7,29.8h10.6
			c-0.7-2.6-2.9-4.3-5.3-4.3C13.6,25.4,11.4,27.2,10.7,29.8z"/>
	</g>
	<g>
		<path fill="#F0F7F7" d="M5.4,1.5C5.3,2.2,5.2,2.9,5.2,3.6c0,6.6,4.8,12,10.8,12c6,0,10.8-5.4,10.8-12c0-0.7-0.1-1.4-0.2-2.1H5.4z"
			/>
		<path fill="#8F9BA8" d="M16,16.4c-6.4,0-11.6-5.7-11.6-12.8c0-0.7,0.1-1.4,0.2-2.2l0.1-0.6h22.5l0.1,0.6c0.1,0.8,0.2,1.5,0.2,2.2
			C27.6,10.6,22.4,16.4,16,16.4z M6,2.2C6,2.7,5.9,3.2,5.9,3.6c0,6.2,4.5,11.3,10.1,11.3c5.5,0,10.1-5.1,10.1-11.3
			c0-0.4,0-0.9-0.1-1.3H6z"/>
	</g>
	<rect x="15.3" y="15.6" fill="#8F9BA8" width="1.5" height="9.1"/>
	<path fill="#8F9BA8" d="M16.3,22.7l-0.5-1.4c7.9-2.9,12.5-6.5,13.2-10.4c0.7-3.8-2.6-6.8-2.6-6.8l1-1.1c0.2,0.1,3.9,3.5,3.1,8.2
		C29.6,15.6,24.8,19.5,16.3,22.7z"/>
	<path fill="#8F9BA8" d="M15.7,22.7C7.2,19.5,2.4,15.6,1.6,11.2C0.7,6.6,4.5,3.2,4.7,3l1,1.1c0,0-3.3,3-2.6,6.8
		c0.7,3.8,5.3,7.4,13.2,10.4L15.7,22.7z"/>
</g>
</svg>
