<?xml version="1.0" encoding="utf-8"?>
<!-- Generator: Adobe Illustrator 18.0.0, SVG Export Plug-In . SVG Version: 6.00 Build 0)  -->
<!DOCTYPE svg PUBLIC "-//W3C//DTD SVG 1.1//EN" "http://www.w3.org/Graphics/SVG/1.1/DTD/svg11.dtd">
<svg version="1.1" id="Layer_1" xmlns="http://www.w3.org/2000/svg" xmlns:xlink="http://www.w3.org/1999/xlink" x="0px" y="0px"
	 viewBox="0 0 32 32" enable-background="new 0 0 32 32" xml:space="preserve">
<g>
	<path fill="#79C693" d="M21.5,31.6L16,28.7l-5.5,2.9l1-6.1l-4.4-4.3l6.1-0.9l2.7-5.5l2.7,5.5l6.1,0.9l-4.4,4.3L21.5,31.6z
		 M10.4,22.2l2.8,2.7l-0.7,3.9L16,27l3.5,1.8l-0.7-3.9l2.8-2.7l-3.9-0.6L16,18.1l-1.7,3.5L10.4,22.2z"/>
	<rect x="15.3" y="12" fill="#79C693" width="1.5" height="4.4"/>
	<path fill="#8F9BA8" d="M28,12.8H4V0.4h24V12.8z M5.5,11.3h21V1.9h-21V11.3z"/>
	<rect x="9.7" y="4.6" fill="#79C693" width="1.5" height="3"/>
	<rect x="15.2" y="4.6" fill="#79C693" width="1.5" height="3"/>
	<rect x="20.8" y="4.6" fill="#79C693" width="1.5" height="3"/>
</g>
</svg>
