<?xml version="1.0" encoding="utf-8"?>
<!-- Generator: Adobe Illustrator 18.0.0, SVG Export Plug-In . SVG Version: 6.00 Build 0)  -->
<!DOCTYPE svg PUBLIC "-//W3C//DTD SVG 1.1//EN" "http://www.w3.org/Graphics/SVG/1.1/DTD/svg11.dtd">
<svg version="1.1" id="Layer_1" xmlns="http://www.w3.org/2000/svg" xmlns:xlink="http://www.w3.org/1999/xlink" x="0px" y="0px"
	 viewBox="0 0 32 32" enable-background="new 0 0 32 32" xml:space="preserve">
<g>
	<path fill="#8F9BA8" d="M28.4,29.1H3.6c-1.5,0-2.8-1.2-2.8-2.8V3.9c0-1.5,1.2-2.8,2.8-2.8h24.9c1.5,0,2.8,1.2,2.8,2.8v22.5
		C31.2,27.9,29.9,29.1,28.4,29.1z M3.6,2.6c-0.7,0-1.3,0.6-1.3,1.3v22.5c0,0.7,0.6,1.3,1.3,1.3h24.9c0.7,0,1.3-0.6,1.3-1.3V3.9
		c0-0.7-0.6-1.3-1.3-1.3H3.6z"/>
	<g>
		<path fill="#FAC2C3" d="M24.7,15.1c0,3.2-2.6,5.7-5.7,5.7s-5.7-2.6-5.7-5.7c0-3.2,2.6-5.7,5.7-5.7S24.7,11.9,24.7,15.1z"/>
		<path fill="#DA8C8C" d="M19,21.6c-3.6,0-6.5-2.9-6.5-6.5c0-3.6,2.9-6.5,6.5-6.5c3.6,0,6.5,2.9,6.5,6.5
			C25.5,18.7,22.6,21.6,19,21.6z M19,10.1c-2.8,0-5,2.2-5,5c0,2.8,2.2,5,5,5c2.8,0,5-2.2,5-5C24,12.4,21.7,10.1,19,10.1z"/>
	</g>
	<g>
		<circle fill="#FFFFFF" cx="19" cy="15.1" r="1.8"/>
		<path fill="#DA8C8C" d="M19,17.6c-1.4,0-2.5-1.1-2.5-2.5s1.1-2.5,2.5-2.5c1.4,0,2.5,1.1,2.5,2.5S20.4,17.6,19,17.6z M19,14.1
			c-0.6,0-1,0.5-1,1c0,0.6,0.5,1,1,1c0.6,0,1-0.5,1-1C20,14.5,19.6,14.1,19,14.1z"/>
	</g>
	<g>
		<line fill="#FAC2C3" x1="6.3" y1="6.6" x2="6.3" y2="11.7"/>
		<rect x="5.5" y="6.6" fill="#DA8C8C" width="1.5" height="5.1"/>
	</g>
	<g>
		<line fill="#FAC2C3" x1="6.3" y1="18.6" x2="6.3" y2="23.6"/>
		<rect x="5.5" y="18.6" fill="#DA8C8C" width="1.5" height="5"/>
	</g>
	<rect x="5.7" y="28.3" fill="#8F9BA8" width="1.5" height="2.5"/>
	<rect x="24.8" y="28.3" fill="#8F9BA8" width="1.5" height="2.5"/>
</g>
</svg>
