<?xml version="1.0" encoding="utf-8"?>
<!-- Generator: Adobe Illustrator 18.0.0, SVG Export Plug-In . SVG Version: 6.00 Build 0)  -->
<!DOCTYPE svg PUBLIC "-//W3C//DTD SVG 1.1//EN" "http://www.w3.org/Graphics/SVG/1.1/DTD/svg11.dtd">
<svg version="1.1" id="Layer_1" xmlns="http://www.w3.org/2000/svg" xmlns:xlink="http://www.w3.org/1999/xlink" x="0px" y="0px"
	 viewBox="0 0 32 32" enable-background="new 0 0 32 32" xml:space="preserve">
<g>
	<path fill="#B4A79C" d="M9.1,16.9c-1.9,0-3.8-0.7-5.2-1.9c-1.6-1.4-2.6-3.3-2.8-5.5C0.9,7.3,1.6,5.3,3,3.7c1.5-1.8,3.7-2.8,6.1-2.8
		c1.9,0,3.8,0.7,5.2,1.9c1.6,1.4,2.6,3.3,2.8,5.5c0.2,2.1-0.5,4.2-1.9,5.8C13.6,15.8,11.4,16.9,9.1,16.9z M9.1,2.4
		c-1.9,0-3.7,0.8-4.9,2.3C3,5.9,2.5,7.6,2.6,9.3c0.1,1.7,0.9,3.3,2.2,4.4c1.2,1,2.7,1.6,4.2,1.6c1.9,0,3.7-0.8,4.9-2.3
		c1.1-1.3,1.7-3,1.6-4.7c-0.1-1.7-0.9-3.3-2.2-4.4C12.1,2.9,10.6,2.4,9.1,2.4z"/>
	<rect x="12" y="19.7" transform="matrix(0.7576 0.6527 -0.6527 0.7576 18.7918 -9.7264)" fill="#B4A79C" width="21" height="1.5"/>
	
		<rect x="26.5" y="25.9" transform="matrix(0.7579 0.6524 -0.6524 0.7579 25.2732 -10.8785)" fill="#B4A79C" width="1.5" height="5.3"/>
	
		<rect x="24.2" y="23.7" transform="matrix(0.7579 0.6524 -0.6524 0.7579 22.7311 -10.0776)" fill="#B4A79C" width="1.5" height="3.8"/>
	
		<rect x="21.1" y="21.1" transform="matrix(0.7569 0.6535 -0.6535 0.7569 20.6366 -8.5534)" fill="#B4A79C" width="1.5" height="4.7"/>
</g>
</svg>
