<?xml version="1.0" encoding="utf-8"?>
<!-- Generator: Adobe Illustrator 18.0.0, SVG Export Plug-In . SVG Version: 6.00 Build 0)  -->
<!DOCTYPE svg PUBLIC "-//W3C//DTD SVG 1.1//EN" "http://www.w3.org/Graphics/SVG/1.1/DTD/svg11.dtd">
<svg version="1.1" id="Layer_1" xmlns="http://www.w3.org/2000/svg" xmlns:xlink="http://www.w3.org/1999/xlink" x="0px" y="0px"
	 viewBox="0 0 32 32" enable-background="new 0 0 32 32" xml:space="preserve">
<g>
	<path fill="#8F9BA8" d="M29.5,15H2.5v-0.8C2.5,6.8,8.5,0.7,16,0.7c7.5,0,13.5,6.1,13.5,13.5V15z M4,13.5h24
		C27.6,7.2,22.4,2.2,16,2.2C9.6,2.2,4.4,7.2,4,13.5z"/>
	<path fill="#8F9BA8" d="M11.9,31.3h-0.3c-2.7,0-4.9-2.2-4.9-4.9h1.5c0,1.9,1.5,3.4,3.4,3.4h0.3c1.9,0,3.4-1.5,3.4-3.4V14.3h1.5
		v12.1C16.8,29.1,14.6,31.3,11.9,31.3z"/>
</g>
</svg>
