<?xml version="1.0" encoding="utf-8"?>
<!-- Generator: Adobe Illustrator 18.0.0, SVG Export Plug-In . SVG Version: 6.00 Build 0)  -->
<!DOCTYPE svg PUBLIC "-//W3C//DTD SVG 1.1//EN" "http://www.w3.org/Graphics/SVG/1.1/DTD/svg11.dtd">
<svg version="1.1" id="Layer_1" xmlns="http://www.w3.org/2000/svg" xmlns:xlink="http://www.w3.org/1999/xlink" x="0px" y="0px"
	 viewBox="0 0 32 32" enable-background="new 0 0 32 32" xml:space="preserve">
<g>
	<rect x="10.9" y="15" transform="matrix(0.707 0.7073 -0.7073 0.707 15.7686 -6.5308)" fill="#79C693" width="9.8" height="1.5"/>
	
		<rect x="15" y="10.9" transform="matrix(0.7071 0.7071 -0.7071 0.7071 15.7651 -6.5308)" fill="#79C693" width="1.5" height="9.8"/>
	<path fill="#79C693" d="M31.2,31.3l-7.6-2.7c-2.4,1.5-5.1,2.2-7.8,2.2c-8.3,0-15-6.7-15-15c0-8.3,6.7-15,15-15c8.3,0,15,6.7,15,15
		c0,2.8-0.8,5.5-2.2,7.8L31.2,31.3z M15.8,2.2C8.3,2.2,2.2,8.3,2.2,15.8c0,7.5,6.1,13.5,13.5,13.5c2.6,0,5.1-0.8,7.3-2.2l0.3-0.2
		l5.4,1.9l-1.9-5.4l0.2-0.3c1.4-2.2,2.2-4.7,2.2-7.3C29.3,8.3,23.2,2.2,15.8,2.2z"/>
</g>
</svg>
