<?xml version="1.0" encoding="utf-8"?>
<!-- Generator: Adobe Illustrator 18.0.0, SVG Export Plug-In . SVG Version: 6.00 Build 0)  -->
<!DOCTYPE svg PUBLIC "-//W3C//DTD SVG 1.1//EN" "http://www.w3.org/Graphics/SVG/1.1/DTD/svg11.dtd">
<svg version="1.1" id="Layer_1" xmlns="http://www.w3.org/2000/svg" xmlns:xlink="http://www.w3.org/1999/xlink" x="0px" y="0px"
	 viewBox="0 0 32 32" enable-background="new 0 0 32 32" xml:space="preserve">
<g>
	<rect x="10.9" y="15" fill="#74B1E0" width="9.8" height="1.5"/>
	<path fill="#74B1E0" d="M31.3,31.3l-7.6-2.7c-2.4,1.5-5.1,2.2-7.8,2.2c-8.3,0-15-6.7-15-15s6.7-15,15-15s15,6.7,15,15
		c0,2.8-0.8,5.5-2.2,7.8L31.3,31.3z M15.8,2.2C8.3,2.2,2.2,8.3,2.2,15.8s6.1,13.5,13.5,13.5c2.6,0,5.1-0.8,7.4-2.2l0.3-0.2l5.4,1.9
		l-1.9-5.4l0.2-0.3c1.4-2.2,2.2-4.7,2.2-7.3C29.3,8.3,23.2,2.2,15.8,2.2z"/>
</g>
</svg>
