<?xml version="1.0" encoding="utf-8"?>
<!-- Generator: Adobe Illustrator 18.0.0, SVG Export Plug-In . SVG Version: 6.00 Build 0)  -->
<!DOCTYPE svg PUBLIC "-//W3C//DTD SVG 1.1//EN" "http://www.w3.org/Graphics/SVG/1.1/DTD/svg11.dtd">
<svg version="1.1" id="Layer_1" xmlns="http://www.w3.org/2000/svg" xmlns:xlink="http://www.w3.org/1999/xlink" x="0px" y="0px"
	 viewBox="0 0 32 32" enable-background="new 0 0 32 32" xml:space="preserve">
<g>
	<g>
		<path fill="#B4A79C" d="M11.2,31.3c-0.1,0-0.2,0-0.3,0l-9.7-3.5c-0.3-0.1-0.5-0.4-0.5-0.7V1.5c0-0.2,0.1-0.5,0.3-0.6
			c0.2-0.1,0.5-0.2,0.7-0.1l9.7,3.5c0.3,0.1,0.5,0.4,0.5,0.7v25.5c0,0.2-0.1,0.5-0.3,0.6C11.5,31.2,11.3,31.3,11.2,31.3z M2.3,26.5
			l8.2,3V5.5l-8.2-3V26.5z"/>
	</g>
	<g>
		<path fill="#B4A79C" d="M30.5,31.3c-0.1,0-0.2,0-0.3,0l-9.7-3.5c-0.3-0.1-0.5-0.4-0.5-0.7V1.5c0-0.2,0.1-0.5,0.3-0.6
			c0.2-0.1,0.5-0.2,0.7-0.1l9.7,3.5c0.3,0.1,0.5,0.4,0.5,0.7v25.5c0,0.2-0.1,0.5-0.3,0.6C30.8,31.2,30.7,31.3,30.5,31.3z M21.6,26.5
			l8.2,3V5.5l-8.2-3V26.5z"/>
	</g>
	<g>
		<path fill="#B4A79C" d="M11.2,31.3c-0.2,0-0.3,0-0.4-0.1c-0.2-0.1-0.3-0.4-0.3-0.6V5c0-0.3,0.2-0.6,0.5-0.7l9.7-3.5
			c0.2-0.1,0.5-0.1,0.7,0.1c0.2,0.1,0.3,0.4,0.3,0.6V27c0,0.3-0.2,0.6-0.5,0.7l-9.7,3.5C11.3,31.2,11.3,31.3,11.2,31.3z M11.9,5.5
			v23.9l8.2-3V2.6L11.9,5.5z"/>
	</g>
</g>
</svg>
