<?xml version="1.0" encoding="utf-8"?>
<!-- Generator: Adobe Illustrator 18.0.0, SVG Export Plug-In . SVG Version: 6.00 Build 0)  -->
<!DOCTYPE svg PUBLIC "-//W3C//DTD SVG 1.1//EN" "http://www.w3.org/Graphics/SVG/1.1/DTD/svg11.dtd">
<svg version="1.1" id="Layer_1" xmlns="http://www.w3.org/2000/svg" xmlns:xlink="http://www.w3.org/1999/xlink" x="0px" y="0px"
	 viewBox="0 0 32 32" enable-background="new 0 0 32 32" xml:space="preserve">
<g>
	<path fill="#79C693" d="M27.9,31.3H4.1c-1.5,0-2.7-0.5-3.1-1.5c-0.3-0.5-0.5-1.6,0.5-3.1l8-11V5.9H6.8V0.7h18.3v5.2h-2.7v9.8l8,11
		c1.1,1.5,0.8,2.6,0.5,3.1C30.5,30.7,29.4,31.3,27.9,31.3z M8.3,4.4h2.7v11.8L2.7,27.6c-0.4,0.6-0.6,1.1-0.4,1.5
		c0.2,0.4,0.9,0.7,1.8,0.7h23.8c0.9,0,1.6-0.2,1.8-0.7c0.2-0.4,0-0.9-0.4-1.5l-8.3-11.4V4.4h2.7V2.2H8.3V4.4z"/>
	<rect x="13.4" y="5.7" fill="#8F9BA8" width="2.1" height="1.5"/>
	<rect x="13.4" y="9.4" fill="#8F9BA8" width="2.1" height="1.5"/>
	<rect x="13.4" y="13.1" fill="#8F9BA8" width="2.1" height="1.5"/>
</g>
</svg>
