<?xml version="1.0" encoding="utf-8"?>
<!-- Generator: Adobe Illustrator 18.0.0, SVG Export Plug-In . SVG Version: 6.00 Build 0)  -->
<!DOCTYPE svg PUBLIC "-//W3C//DTD SVG 1.1//EN" "http://www.w3.org/Graphics/SVG/1.1/DTD/svg11.dtd">
<svg version="1.1" id="Layer_1" xmlns="http://www.w3.org/2000/svg" xmlns:xlink="http://www.w3.org/1999/xlink" x="0px" y="0px"
	 viewBox="0 0 32 32" enable-background="new 0 0 32 32" xml:space="preserve">
<g>
	<polygon fill="#8F9BA8" points="31.3,20.4 26.6,20.4 26.6,18.9 29.8,18.9 29.8,13.1 26.6,13.1 26.6,11.6 31.3,11.6 	"/>
	<g>
		<line fill="none" x1="6" y1="11.1" x2="6" y2="20.8"/>
		<rect x="5.2" y="11.1" fill="#B4A042" width="1.5" height="9.7"/>
	</g>
	<path fill="#8F9BA8" d="M25.4,25.4H2.8c-1.1,0-2-0.9-2-2V8.7c0-1.1,0.9-2,2-2h22.6c1.1,0,2,0.9,2,2v14.7
		C27.4,24.5,26.5,25.4,25.4,25.4z M2.8,8.1c-0.3,0-0.5,0.2-0.5,0.5v14.7c0,0.3,0.2,0.6,0.5,0.6h22.6c0.3,0,0.5-0.2,0.5-0.6V8.7
		c0-0.3-0.2-0.5-0.5-0.5L2.8,8.1L2.8,8.1z"/>
</g>
</svg>
