<?xml version="1.0" encoding="utf-8"?>
<!-- Generator: Adobe Illustrator 18.0.0, SVG Export Plug-In . SVG Version: 6.00 Build 0)  -->
<!DOCTYPE svg PUBLIC "-//W3C//DTD SVG 1.1//EN" "http://www.w3.org/Graphics/SVG/1.1/DTD/svg11.dtd">
<svg version="1.1" id="Layer_1" xmlns="http://www.w3.org/2000/svg" xmlns:xlink="http://www.w3.org/1999/xlink" x="0px" y="0px"
	 viewBox="0 0 32 32" enable-background="new 0 0 32 32" xml:space="preserve">
<g>
	<polygon fill="#8F9BA8" points="31.4,20.5 26.7,20.5 26.7,19 29.9,19 29.9,13 26.7,13 26.7,11.5 31.4,11.5 	"/>
	<rect x="5.7" y="11.1" fill="#DA8C8C" width="1.5" height="9.8"/>
	<rect x="12.5" y="11.1" fill="#DA8C8C" width="1.5" height="9.8"/>
	<path fill="#8F9BA8" d="M25.4,25.4H2.7c-1.1,0-2.1-0.9-2.1-2.1V8.6c0-1.1,0.9-2.1,2.1-2.1h22.8c1.1,0,2.1,0.9,2.1,2.1v14.8
		C27.5,24.5,26.6,25.4,25.4,25.4z M2.7,8.1c-0.3,0-0.6,0.2-0.6,0.6v14.8c0,0.3,0.2,0.6,0.6,0.6h22.8c0.3,0,0.6-0.2,0.6-0.6V8.6
		c0-0.3-0.2-0.6-0.6-0.6H2.7V8.1z"/>
</g>
</svg>
