<?xml version="1.0" encoding="utf-8"?>
<!-- Generator: Adobe Illustrator 18.0.0, SVG Export Plug-In . SVG Version: 6.00 Build 0)  -->
<!DOCTYPE svg PUBLIC "-//W3C//DTD SVG 1.1//EN" "http://www.w3.org/Graphics/SVG/1.1/DTD/svg11.dtd">
<svg version="1.1" id="Layer_1" xmlns="http://www.w3.org/2000/svg" xmlns:xlink="http://www.w3.org/1999/xlink" x="0px" y="0px"
	 viewBox="0 0 32 32" enable-background="new 0 0 32 32" xml:space="preserve">
<g>
	<polygon fill="#8F9BA8" points="31.3,20.2 26.9,20.2 26.9,18.7 29.8,18.7 29.8,13.3 26.9,13.3 26.9,11.8 31.3,11.8 	"/>
	<rect x="6.7" y="11.4" fill="#B4A79C" width="1.5" height="9.2"/>
	<rect x="13" y="11.4" fill="#B4A79C" width="1.5" height="9.2"/>
	<rect x="19.4" y="11.4" fill="#B4A79C" width="1.5" height="9.2"/>
	<path fill="#8F9BA8" d="M25.6,25.4H2.8c-1.1,0-2.1-0.9-2.1-2.1V8.6c0-1.1,0.9-2.1,2.1-2.1h22.8c1.1,0,2.1,0.9,2.1,2.1v14.8
		C27.6,24.5,26.7,25.4,25.6,25.4z M2.8,8.1c-0.3,0-0.6,0.2-0.6,0.6v14.8c0,0.3,0.2,0.6,0.6,0.6h22.8c0.3,0,0.6-0.2,0.6-0.6V8.6
		c0-0.3-0.2-0.6-0.6-0.6H2.8z"/>
</g>
</svg>
