<?xml version="1.0" encoding="utf-8"?>
<!-- Generator: Adobe Illustrator 18.0.0, SVG Export Plug-In . SVG Version: 6.00 Build 0)  -->
<!DOCTYPE svg PUBLIC "-//W3C//DTD SVG 1.1//EN" "http://www.w3.org/Graphics/SVG/1.1/DTD/svg11.dtd">
<svg version="1.1" id="Layer_1" xmlns="http://www.w3.org/2000/svg" xmlns:xlink="http://www.w3.org/1999/xlink" x="0px" y="0px"
	 viewBox="0 0 32 32" enable-background="new 0 0 32 32" xml:space="preserve">
<g>
	<rect x="1.9" y="15.3" fill="#74B1E0" width="14" height="1.5"/>
	<path fill="#8F9BA8" d="M26.6,31.2H12.7c-2.5,0-4.5-2.1-4.5-4.6v-6h1.5v6c0,1.7,1.4,3.1,3,3.1h13.9c1.7,0,3-1.4,3-3.1V5.4
		c0-1.7-1.4-3.1-3-3.1H12.7c-1.7,0-3,1.4-3,3.1v6H8.2v-6c0-2.5,2-4.6,4.5-4.6h13.9c2.5,0,4.5,2.1,4.5,4.6v21.3
		C31.1,29.2,29.1,31.2,26.6,31.2z"/>
	<polygon fill="#74B1E0" points="6.3,21.4 0.9,16 6.3,10.6 7.3,11.7 3,16 7.3,20.3 	"/>
</g>
</svg>
