<?xml version="1.0" encoding="utf-8"?>
<!-- Generator: Adobe Illustrator 18.0.0, SVG Export Plug-In . SVG Version: 6.00 Build 0)  -->
<!DOCTYPE svg PUBLIC "-//W3C//DTD SVG 1.1//EN" "http://www.w3.org/Graphics/SVG/1.1/DTD/svg11.dtd">
<svg version="1.1" id="Layer_1" xmlns="http://www.w3.org/2000/svg" xmlns:xlink="http://www.w3.org/1999/xlink" x="0px" y="0px"
	 viewBox="0 0 32 32" enable-background="new 0 0 32 32" xml:space="preserve">
<g>
	<rect x="1.1" y="15.2" fill="#79C693" width="14" height="1.5"/>
	<path fill="#8F9BA8" d="M26,31.3H10.8c-2.7,0-4.9-2.1-4.9-4.6v-6h1.5v6c0,1.7,1.5,3.1,3.4,3.1H26c1.9,0,3.4-1.4,3.4-3.1V5.4
		c0-1.7-1.5-3.1-3.4-3.1H10.8c-1.9,0-3.4,1.4-3.4,3.1v6H5.9v-6c0-2.5,2.2-4.6,4.9-4.6H26c2.7,0,4.9,2.1,4.9,4.6v21.3
		C30.9,29.2,28.7,31.3,26,31.3z"/>
	<polygon fill="#79C693" points="10.8,21.4 9.7,20.3 14.1,16 9.7,11.7 10.8,10.6 16.2,16 	"/>
</g>
</svg>
