<?xml version="1.0" encoding="utf-8"?>
<!-- Generator: Adobe Illustrator 18.0.0, SVG Export Plug-In . SVG Version: 6.00 Build 0)  -->
<!DOCTYPE svg PUBLIC "-//W3C//DTD SVG 1.1//EN" "http://www.w3.org/Graphics/SVG/1.1/DTD/svg11.dtd">
<svg version="1.1" id="Layer_1" xmlns="http://www.w3.org/2000/svg" xmlns:xlink="http://www.w3.org/1999/xlink" x="0px" y="0px"
	 viewBox="0 0 32 32" enable-background="new 0 0 32 32" xml:space="preserve">
<g>
	<rect x="15.3" y="1.1" fill="#B4A042" width="1.5" height="14"/>
	<path fill="#8F9BA8" d="M26.6,30.9H5.4c-2.5,0-4.6-2.2-4.6-4.9V10.8c0-2.7,2.1-4.9,4.6-4.9h6v1.5h-6c-1.7,0-3.1,1.5-3.1,3.4V26
		c0,1.9,1.4,3.4,3.1,3.4h21.3c1.7,0,3.1-1.5,3.1-3.4V10.8c0-1.9-1.4-3.4-3.1-3.4h-6V5.9h6c2.5,0,4.6,2.2,4.6,4.9V26
		C31.3,28.7,29.2,30.9,26.6,30.9z"/>
	<polygon fill="#B4A042" points="16,16.2 10.6,10.9 11.6,9.8 16,14.1 20.4,9.9 21.4,11 	"/>
</g>
</svg>
