<?xml version="1.0" encoding="utf-8"?>
<!-- Generator: Adobe Illustrator 18.0.0, SVG Export Plug-In . SVG Version: 6.00 Build 0)  -->
<!DOCTYPE svg PUBLIC "-//W3C//DTD SVG 1.1//EN" "http://www.w3.org/Graphics/SVG/1.1/DTD/svg11.dtd">
<svg version="1.1" id="Layer_1" xmlns="http://www.w3.org/2000/svg" xmlns:xlink="http://www.w3.org/1999/xlink" x="0px" y="0px"
	 viewBox="0 0 32 32" enable-background="new 0 0 32 32" xml:space="preserve">
<g>
	<rect x="15.2" y="16.9" fill="#DA8C8C" width="1.5" height="14"/>
	<path fill="#8F9BA8" d="M26.6,26.1h-6v-1.5h6c1.7,0,3.1-1.5,3.1-3.4V6c0-1.9-1.4-3.4-3.1-3.4H5.4C3.6,2.6,2.3,4.1,2.3,6v15.2
		c0,1.9,1.4,3.4,3.1,3.4h6v1.5h-6c-2.5,0-4.6-2.2-4.6-4.9V6c0-2.7,2.1-4.9,4.6-4.9h21.3c2.5,0,4.6,2.2,4.6,4.9v15.2
		C31.3,23.9,29.2,26.1,26.6,26.1z"/>
	<polygon fill="#DA8C8C" points="20.4,22.2 16,17.9 11.6,22.1 10.6,21 16,15.8 21.4,21.1 	"/>
</g>
</svg>
