<?xml version="1.0" encoding="utf-8"?>
<!-- Generator: Adobe Illustrator 18.0.0, SVG Export Plug-In . SVG Version: 6.00 Build 0)  -->
<!DOCTYPE svg PUBLIC "-//W3C//DTD SVG 1.1//EN" "http://www.w3.org/Graphics/SVG/1.1/DTD/svg11.dtd">
<svg version="1.1" id="Layer_1" xmlns="http://www.w3.org/2000/svg" xmlns:xlink="http://www.w3.org/1999/xlink" x="0px" y="0px"
	 viewBox="0 0 32 32" enable-background="new 0 0 32 32" xml:space="preserve">
<g>
	<g>
		<path fill="#79C693" d="M26.4,31.3H5.6c-2.7,0-4.8-2.2-4.8-4.8V5.6c0-2.7,2.2-4.8,4.8-4.8h20.8c2.7,0,4.8,2.2,4.8,4.8v20.8
			C31.3,29.1,29.1,31.3,26.4,31.3z M5.6,2.3c-1.8,0-3.3,1.5-3.3,3.3v20.8c0,1.8,1.5,3.3,3.3,3.3h20.8c1.8,0,3.3-1.5,3.3-3.3V5.6
			c0-1.8-1.5-3.3-3.3-3.3H5.6z"/>
	</g>
	<g>
		<rect x="15.2" y="8.7" fill="#79C693" width="1.5" height="14.6"/>
	</g>
	<g>
		<rect x="8.7" y="15.3" fill="#79C693" width="14.6" height="1.5"/>
	</g>
</g>
</svg>
