<?xml version="1.0" encoding="utf-8"?>
<!-- Generator: Adobe Illustrator 18.0.0, SVG Export Plug-In . SVG Version: 6.00 Build 0)  -->
<!DOCTYPE svg PUBLIC "-//W3C//DTD SVG 1.1//EN" "http://www.w3.org/Graphics/SVG/1.1/DTD/svg11.dtd">
<svg version="1.1" id="Layer_1" xmlns="http://www.w3.org/2000/svg" xmlns:xlink="http://www.w3.org/1999/xlink" x="0px" y="0px"
	 viewBox="0 0 32 32" enable-background="new 0 0 32 32" xml:space="preserve">
<g>
	<path fill="#74B1E0" d="M15.3,8.2c-0.4-1.1-0.4-3.7,2.4-5.1l0.7,1.3c-2.4,1.2-1.7,3.2-1.7,3.2L15.3,8.2z"/>
	<path fill="#74B1E0" d="M23.9,28.9c-1.4,0-2.8-0.6-3.9-1.7c-2.4,2.3-5.6,2.3-7.9,0c-1.2,1.2-2.6,1.8-4,1.8C4,28.9,0.7,24,0.7,18
		c0-6,3.3-10.8,7.3-10.8c1.4,0,2.8,0.6,4,1.8c2.4-2.3,5.5-2.3,7.9,0c1.2-1.1,2.5-1.7,3.9-1.7c4,0,7.3,4.9,7.3,10.8
		C31.3,24,28,28.9,23.9,28.9z M20,25.3c0.2,0,0.4,0.1,0.6,0.3c0.7,0.8,1.9,1.8,3.4,1.8c3.2,0,5.8-4.2,5.8-9.3c0-5.2-2.6-9.3-5.8-9.3
		c-1.5,0-2.7,1-3.4,1.8c-0.3,0.3-0.9,0.3-1.1,0c-0.7-0.8-1.9-1.8-3.4-1.8c-1.5,0-2.7,1-3.4,1.8c-0.1,0.2-0.4,0.3-0.6,0.3l0,0
		c-0.2,0-0.4-0.1-0.6-0.3c-0.7-0.8-1.9-1.8-3.4-1.8c-3.2,0-5.8,4.2-5.8,9.3c0,5.2,2.6,9.3,5.8,9.3c1.5,0,2.7-1,3.4-1.9
		c0.1-0.2,0.4-0.3,0.6-0.3l0,0c0.2,0,0.4,0.1,0.6,0.3c0.7,0.8,1.9,1.9,3.4,1.9c1.5,0,2.7-1,3.4-1.8C19.6,25.4,19.8,25.3,20,25.3z"/>
	<rect x="18.8" y="14.8" fill="#74B1E0" width="1.5" height="2.3"/>
	<rect x="11.7" y="14.8" fill="#74B1E0" width="1.5" height="2.3"/>
	<path fill="#74B1E0" d="M18.1,23.9c-0.9,0-1.9-0.4-2.6-1.1c-0.8-0.8-2.2-0.8-3,0l-1.1-1.1c1.4-1.4,3.7-1.4,5.2,0
		c0.8,0.8,2.2,0.8,3,0l1.1,1.1C19.9,23.5,19,23.9,18.1,23.9z"/>
</g>
</svg>
