<?xml version="1.0" encoding="utf-8"?>
<!-- Generator: Adobe Illustrator 18.0.0, SVG Export Plug-In . SVG Version: 6.00 Build 0)  -->
<!DOCTYPE svg PUBLIC "-//W3C//DTD SVG 1.1//EN" "http://www.w3.org/Graphics/SVG/1.1/DTD/svg11.dtd">
<svg version="1.1" id="Layer_1" xmlns="http://www.w3.org/2000/svg" xmlns:xlink="http://www.w3.org/1999/xlink" x="0px" y="0px"
	 viewBox="0 0 32 32" enable-background="new 0 0 32 32" xml:space="preserve">
<g>
	<path fill="#B4A79C" d="M13,25.1c-3.2,0-6.3-1.3-8.6-3.5c-2.3-2.3-3.5-5.3-3.5-8.6s1.3-6.3,3.5-8.6C6.7,2.1,9.7,0.9,13,0.9
		c3.2,0,6.3,1.3,8.6,3.6c2.3,2.3,3.5,5.3,3.5,8.6c0,3.2-1.3,6.3-3.5,8.6C19.3,23.8,16.2,25.1,13,25.1z M13,2.4
		c-2.8,0-5.5,1.1-7.5,3.1c-2,2-3.1,4.7-3.1,7.5c0,2.8,1.1,5.5,3.1,7.5c2,2,4.7,3.1,7.5,3.1c2.8,0,5.5-1.1,7.5-3.1
		c2-2,3.1-4.7,3.1-7.5c0-2.8-1.1-5.5-3.1-7.5C18.5,3.5,15.8,2.4,13,2.4z"/>
	
		<rect x="19.8" y="25" transform="matrix(0.7071 0.7071 -0.7071 0.7071 25.7772 -10.6774)" fill="#B4A79C" width="12" height="1.5"/>
	
		<rect x="26.4" y="22.3" transform="matrix(0.7071 0.7071 -0.7071 0.7071 27.1491 -11.2443)" fill="#B4A79C" width="1.5" height="9.8"/>
</g>
</svg>
