<?xml version="1.0" encoding="utf-8"?>
<!-- Generator: Adobe Illustrator 18.0.0, SVG Export Plug-In . SVG Version: 6.00 Build 0)  -->
<!DOCTYPE svg PUBLIC "-//W3C//DTD SVG 1.1//EN" "http://www.w3.org/Graphics/SVG/1.1/DTD/svg11.dtd">
<svg version="1.1" id="Layer_1" xmlns="http://www.w3.org/2000/svg" xmlns:xlink="http://www.w3.org/1999/xlink" x="0px" y="0px"
	 viewBox="0 0 32 32" enable-background="new 0 0 32 32" xml:space="preserve">
<g>
	<path fill="#74B1E0" d="M18.9,31.3c-3.3,0-6.4-1.3-8.7-3.6c-4.8-4.8-4.8-12.7,0-17.5c2.3-2.3,5.4-3.6,8.7-3.6
		c3.3,0,6.4,1.3,8.7,3.6c2.3,2.3,3.6,5.4,3.6,8.7c0,3.3-1.3,6.4-3.6,8.7C25.3,30,22.2,31.3,18.9,31.3z M18.9,8.1
		c-2.9,0-5.6,1.1-7.6,3.2C7,15.5,7,22.3,11.2,26.5c2,2,4.8,3.2,7.6,3.2c2.9,0,5.6-1.1,7.6-3.2c2-2,3.2-4.8,3.2-7.6
		c0-2.9-1.1-5.6-3.2-7.6C24.5,9.2,21.8,8.1,18.9,8.1z"/>
	<rect x="-0.3" y="5.1" transform="matrix(0.707 0.7072 -0.7072 0.707 5.8415 -2.4201)" fill="#74B1E0" width="12.2" height="1.5"/>
	<polygon fill="#74B1E0" points="2.3,9.6 0.8,9.6 0.8,0.7 9.6,0.7 9.6,2.3 2.3,2.3 	"/>
</g>
</svg>
