<?xml version="1.0" encoding="utf-8"?>
<!-- Generator: Adobe Illustrator 18.0.0, SVG Export Plug-In . SVG Version: 6.00 Build 0)  -->
<!DOCTYPE svg PUBLIC "-//W3C//DTD SVG 1.1//EN" "http://www.w3.org/Graphics/SVG/1.1/DTD/svg11.dtd">
<svg version="1.1" id="Layer_1" xmlns="http://www.w3.org/2000/svg" xmlns:xlink="http://www.w3.org/1999/xlink" x="0px" y="0px"
	 viewBox="0 0 32 32" enable-background="new 0 0 32 32" xml:space="preserve">
<g>
	<path fill="#DA8C8C" d="M14.2,10.5c-2.6,0-7.6-1.5-7.6-4.2c0-3,2.4-5.5,5.4-5.5c1.2,0,2.3,1,3.2,3C16,5.4,16.9,9,16,10
		C15.7,10.4,15.1,10.5,14.2,10.5z M12,2.2c-2.2,0-3.9,1.8-3.9,4C8.1,7.7,12,9,14.2,9c0.3,0,0.5,0,0.6-0.1C15,8.2,14.4,5,13.2,3.2
		C12.8,2.6,12.4,2.2,12,2.2z"/>
	<path fill="#DA8C8C" d="M17.8,10.5L17.8,10.5c-0.9,0-1.5-0.2-1.8-0.5c-0.9-1,0-4.6,0.8-6.3c0.9-1.9,2-3,3.2-3c3,0,5.4,2.5,5.4,5.5
		c0,1.3-1.1,2.4-3,3.2C20.9,10.1,19.1,10.5,17.8,10.5z M17.1,9C17.2,9,17.4,9,17.8,9l0,0c0.9,0,2.6-0.3,4-0.9
		c1.3-0.6,2.1-1.3,2.1-1.8c0-2.2-1.8-4-3.9-4c-0.4,0-0.8,0.4-1.2,1C17.6,5,17,8.2,17.1,9z"/>
	<path fill="#8F9BA8" d="M31.2,31.3H0.8V9.4h30.4V31.3z M2.3,29.8h27.4V10.9H2.3V29.8z"/>
	<rect x="1.5" y="15.3" fill="#8F9BA8" width="29" height="1.5"/>
	<path fill="#DA8C8C" d="M8.3,25.3c-1.6,0-2.8-1.3-2.8-2.9s1.3-2.9,2.8-2.9c1.6,0,2.8,1.3,2.8,2.9S9.9,25.3,8.3,25.3z M8.3,21.1
		c-0.7,0-1.3,0.6-1.3,1.4c0,0.8,0.6,1.4,1.3,1.4c0.7,0,1.3-0.6,1.3-1.4C9.6,21.7,9.1,21.1,8.3,21.1z"/>
	<path fill="#DA8C8C" d="M16,25.3c-1.6,0-2.8-1.3-2.8-2.9s1.3-2.9,2.8-2.9c1.6,0,2.8,1.3,2.8,2.9S17.6,25.3,16,25.3z M16,21.1
		c-0.7,0-1.3,0.6-1.3,1.4c0,0.8,0.6,1.4,1.3,1.4c0.7,0,1.3-0.6,1.3-1.4C17.4,21.7,16.8,21.1,16,21.1z"/>
	<path fill="#DA8C8C" d="M23.8,25.3c-1.6,0-2.8-1.3-2.8-2.9s1.3-2.9,2.8-2.9c1.6,0,2.8,1.3,2.8,2.9S25.3,25.3,23.8,25.3z M23.8,21.1
		c-0.7,0-1.3,0.6-1.3,1.4c0,0.8,0.6,1.4,1.3,1.4c0.7,0,1.3-0.6,1.3-1.4C25.1,21.7,24.5,21.1,23.8,21.1z"/>
</g>
</svg>
