<?xml version="1.0" encoding="utf-8"?>
<!-- Generator: Adobe Illustrator 18.0.0, SVG Export Plug-In . SVG Version: 6.00 Build 0)  -->
<!DOCTYPE svg PUBLIC "-//W3C//DTD SVG 1.1//EN" "http://www.w3.org/Graphics/SVG/1.1/DTD/svg11.dtd">
<svg version="1.1" id="Layer_1" xmlns="http://www.w3.org/2000/svg" xmlns:xlink="http://www.w3.org/1999/xlink" x="0px" y="0px"
	 viewBox="0 0 32 32" enable-background="new 0 0 32 32" xml:space="preserve">
<g>
	<path fill="#74B1E0" d="M27.8,24.9l-1.1-1c4.1-4.4,4.1-11.5,0-15.8l1.1-1C32.4,12,32.4,20,27.8,24.9z"/>
	<path fill="#74B1E0" d="M25.2,22.2l-1.1-1c2.7-2.9,2.7-7.5,0-10.4l1.1-1C28.4,13.2,28.4,18.8,25.2,22.2z"/>
	<path fill="#8F9BA8" d="M22.8,30.5l-4.2-4.2c-2.5-2.5-6.1-3.7-10-3.3c-0.2,0-0.5,0-0.7,0c-2.1,0-4.1-0.9-5.4-2.6
		c-1.3-1.6-1.9-3.8-1.5-5.9c0.5-2.8,2.8-5,5.5-5.5c0.8-0.2,1.6-0.2,2.4,0c3.4,0.5,7.1-0.8,9.8-3.4l4.1-4.1V30.5z M9.9,21.4
		c3.8,0,7.2,1.4,9.6,3.8l1.7,1.7V5.1l-1.6,1.6c-3,3-7.2,4.5-11.1,3.9c-0.6-0.1-1.3-0.1-1.9,0c-2.2,0.4-3.9,2.1-4.3,4.3
		c-0.3,1.7,0.1,3.4,1.2,4.6c1.2,1.4,3,2.2,4.8,2C8.9,21.5,9.4,21.4,9.9,21.4z"/>
</g>
</svg>
