<?xml version="1.0" encoding="utf-8"?>
<!-- Generator: Adobe Illustrator 18.0.0, SVG Export Plug-In . SVG Version: 6.00 Build 0)  -->
<!DOCTYPE svg PUBLIC "-//W3C//DTD SVG 1.1//EN" "http://www.w3.org/Graphics/SVG/1.1/DTD/svg11.dtd">
<svg version="1.1" id="Layer_1" xmlns="http://www.w3.org/2000/svg" xmlns:xlink="http://www.w3.org/1999/xlink" x="0px" y="0px"
	 viewBox="0 0 32 32" enable-background="new 0 0 32 32" xml:space="preserve">
<g>
	<path fill="#8F9BA8" d="M26.9,31.3c-0.1,0-0.2,0-0.3-0.1l-2.2-1c-1.4-0.7-3.1-0.7-4.5-0.2l-1,0.4c-1.6,0.6-3.5,0.6-5.1,0l-1.2-0.4
		c-1.4-0.5-2.9-0.5-4.3,0.1l-2.9,1.2c-0.2,0.1-0.5,0.1-0.7-0.1c-0.2-0.1-0.3-0.4-0.3-0.6V11.9c0-6.2,4.5-11.2,9.9-11.2h3.5
		c5.5,0,9.9,5,9.9,11.2v18.6c0,0.3-0.1,0.5-0.3,0.6C27.2,31.2,27.1,31.3,26.9,31.3z M14.3,2.2c-4.7,0-8.4,4.3-8.4,9.7v17.4l1.8-0.8
		c1.7-0.7,3.7-0.8,5.4-0.1l1.2,0.4c1.3,0.5,2.8,0.5,4.1,0l1-0.4c1.8-0.7,3.9-0.6,5.7,0.2l1.2,0.5V11.9c0-5.3-3.8-9.7-8.4-9.7H14.3z"
		/>
	<path fill="#74B1E0" d="M15.9,24.6c-0.1,0-0.3,0-0.4,0c-3.5-0.2-5.7-3.1-5.8-3.2c-0.3-0.3-0.2-0.8,0.1-1c0.3-0.3,0.8-0.2,1.1,0.1
		c0,0,1.9,2.5,4.7,2.6c1.9,0.1,3.8-0.8,5.7-2.7c0.3-0.3,0.8-0.3,1.1,0c0.3,0.3,0.3,0.8,0,1.1C20.2,23.6,18.1,24.6,15.9,24.6z"/>
	<g>
		<line fill="#231F20" x1="20.1" y1="9.3" x2="20.1" y2="12.2"/>
		<rect x="19.4" y="9.3" fill="#74B1E0" width="1.5" height="2.9"/>
	</g>
	<g>
		<line fill="#231F20" x1="11.9" y1="9.3" x2="11.9" y2="12.2"/>
		<rect x="11.1" y="9.3" fill="#74B1E0" width="1.5" height="2.9"/>
	</g>
</g>
</svg>
