<?xml version="1.0" encoding="utf-8"?>
<!-- Generator: Adobe Illustrator 18.0.0, SVG Export Plug-In . SVG Version: 6.00 Build 0)  -->
<!DOCTYPE svg PUBLIC "-//W3C//DTD SVG 1.1//EN" "http://www.w3.org/Graphics/SVG/1.1/DTD/svg11.dtd">
<svg version="1.1" id="Layer_1" xmlns="http://www.w3.org/2000/svg" xmlns:xlink="http://www.w3.org/1999/xlink" x="0px" y="0px"
	 viewBox="0 0 32 32" enable-background="new 0 0 32 32" xml:space="preserve">
<g>
	<path fill="#DA8C8C" d="M16,31.3c-0.3,0-0.5-0.1-0.6-0.3L0.9,9.2C0.7,8.9,0.7,8.5,0.9,8.2L7.4,1c0.1-0.2,0.3-0.3,0.6-0.3h16.1
		c0.2,0,0.4,0.1,0.6,0.3l6.4,7.2c0.2,0.3,0.3,0.6,0.1,0.9L16.6,30.9C16.5,31.1,16.3,31.3,16,31.3z M2.4,8.8L16,29.1L29.6,8.8
		l-5.8-6.6H8.3L2.4,8.8z"/>
	<path fill="#DA8C8C" d="M16,31.3c-0.3,0-0.6-0.2-0.7-0.5L8.4,9c-0.1-0.2,0-0.4,0-0.5l3-7.2c0.1-0.3,0.4-0.5,0.7-0.5h7.6
		c0.3,0,0.6,0.2,0.7,0.5l3,7.2c0.1,0.2,0.1,0.3,0,0.5l-6.8,21.8C16.6,31,16.3,31.3,16,31.3z M10,8.8L16,28l6-19.2l-2.7-6.5h-6.6
		L10,8.8z"/>
	<path fill="#DA8C8C" d="M29.3,9.6H2.7C2.3,9.6,2,9.3,2,8.9c0-0.4,0.3-0.8,0.8-0.8h26.5c0.4,0,0.8,0.3,0.8,0.8
		C30,9.3,29.7,9.6,29.3,9.6z"/>
</g>
</svg>
