<?xml version="1.0" encoding="utf-8"?>
<!-- Generator: Adobe Illustrator 18.0.0, SVG Export Plug-In . SVG Version: 6.00 Build 0)  -->
<!DOCTYPE svg PUBLIC "-//W3C//DTD SVG 1.1//EN" "http://www.w3.org/Graphics/SVG/1.1/DTD/svg11.dtd">
<svg version="1.1" id="Layer_1" xmlns="http://www.w3.org/2000/svg" xmlns:xlink="http://www.w3.org/1999/xlink" x="0px" y="0px"
	 viewBox="0 0 32 32" enable-background="new 0 0 32 32" xml:space="preserve">
<g>
	<path fill="#B4A79C" d="M27.7,31.5l-5.5-2.6l-5.9,2.2l-5.9-2.2l-6,2.5V11.7c0-6.2,4.5-11.2,9.9-11.2h3.5c5.5,0,9.9,5,9.9,11.2V31.5
		z M10.3,27.3l6,2.2l5.9-2.2l4,1.8V11.7c0-5.3-3.8-9.7-8.4-9.7h-3.5c-4.7,0-8.4,4.3-8.4,9.7v17.4L10.3,27.3z"/>
	<path fill="#B4A79C" d="M15.9,22.1c-3.7,0-6.1-1.8-6.2-1.9l0.9-1.2l-0.5,0.6l0.5-0.6c0.2,0.1,4.8,3.5,10.7,0l0.8,1.3
		C19.9,21.7,17.8,22.1,15.9,22.1z"/>
	<g>
		<line fill="#231F20" x1="20.2" y1="10.1" x2="20.2" y2="12.9"/>
		<rect x="19.4" y="10.1" fill="#B4A79C" width="1.5" height="2.8"/>
	</g>
	<g>
		<line fill="#231F20" x1="11.8" y1="10.1" x2="11.8" y2="12.9"/>
		<rect x="11.1" y="10.1" fill="#B4A79C" width="1.5" height="2.8"/>
	</g>
</g>
</svg>
