<?xml version="1.0" encoding="utf-8"?>
<!-- Generator: Adobe Illustrator 18.0.0, SVG Export Plug-In . SVG Version: 6.00 Build 0)  -->
<!DOCTYPE svg PUBLIC "-//W3C//DTD SVG 1.1//EN" "http://www.w3.org/Graphics/SVG/1.1/DTD/svg11.dtd">
<svg version="1.1" id="Layer_1" xmlns="http://www.w3.org/2000/svg" xmlns:xlink="http://www.w3.org/1999/xlink" x="0px" y="0px"
	 viewBox="0 0 32 32" enable-background="new 0 0 32 32" xml:space="preserve">
<g>
	<path fill="#74B1E0" d="M16,31.3C7.6,31.3,0.7,24.4,0.7,16S7.6,0.7,16,0.7s15.3,6.8,15.3,15.2C31.3,24.4,24.4,31.3,16,31.3z
		 M16,2.2C8.4,2.2,2.2,8.4,2.2,16S8.4,29.8,16,29.8S29.8,23.6,29.8,16S23.6,2.2,16,2.2z"/>
	<path fill="#74B1E0" d="M16,25.3c-5.2,0-9.3-4.2-9.3-9.3c0-5.2,4.2-9.3,9.3-9.3s9.3,4.2,9.3,9.3C25.3,21.2,21.1,25.3,16,25.3z
		 M16,8.2c-4.3,0-7.8,3.5-7.8,7.8s3.5,7.8,7.8,7.8s7.8-3.5,7.8-7.8S20.3,8.2,16,8.2z"/>
	<path fill="#74B1E0" d="M16,31.3C7.6,31.3,0.7,24.4,0.7,16S7.6,0.7,16,0.7s15.3,6.8,15.3,15.2C31.3,24.4,24.4,31.3,16,31.3z
		 M16,2.2C8.4,2.2,2.2,8.4,2.2,16S8.4,29.8,16,29.8S29.8,23.6,29.8,16S23.6,2.2,16,2.2z"/>
	<path fill="#74B1E0" d="M16,8.2c-0.4,0-0.8-0.3-0.8-0.8V1.5c0-0.4,0.3-0.8,0.8-0.8c0.4,0,0.8,0.3,0.8,0.8v5.9
		C16.8,7.8,16.4,8.2,16,8.2z"/>
	<path fill="#74B1E0" d="M16,31.2c-0.4,0-0.8-0.3-0.8-0.8v-5.9c0-0.4,0.3-0.8,0.8-0.8c0.4,0,0.8,0.3,0.8,0.8v5.9
		C16.8,30.9,16.4,31.2,16,31.2z"/>
	<path fill="#74B1E0" d="M30.5,16.8h-5.9c-0.4,0-0.8-0.3-0.8-0.8c0-0.4,0.3-0.8,0.8-0.8h5.9c0.4,0,0.8,0.3,0.8,0.8
		C31.2,16.4,30.9,16.8,30.5,16.8z"/>
	<path fill="#74B1E0" d="M7.4,16.8H1.5c-0.4,0-0.8-0.3-0.8-0.8c0-0.4,0.3-0.8,0.8-0.8h5.9c0.4,0,0.7,0.3,0.7,0.8
		C8.2,16.4,7.8,16.8,7.4,16.8z"/>
</g>
</svg>
