<?xml version="1.0" encoding="utf-8"?>
<!-- Generator: Adobe Illustrator 18.0.0, SVG Export Plug-In . SVG Version: 6.00 Build 0)  -->
<!DOCTYPE svg PUBLIC "-//W3C//DTD SVG 1.1//EN" "http://www.w3.org/Graphics/SVG/1.1/DTD/svg11.dtd">
<svg version="1.1" id="Layer_1" xmlns="http://www.w3.org/2000/svg" xmlns:xlink="http://www.w3.org/1999/xlink" x="0px" y="0px"
	 viewBox="0 0 32 32" enable-background="new 0 0 32 32" xml:space="preserve">
<g>
	<path fill="#74B1E0" d="M30.4,31.1c-0.1,0-0.2,0-0.2,0l-6.2-2.2c-2.4,1.5-5.1,2.2-7.9,2.2C7.6,31.1,0.9,24.4,0.9,16
		C0.9,7.6,7.6,0.9,16,0.9c8.4,0,15.1,6.8,15.1,15.1c0,2.8-0.8,5.5-2.2,7.9l2.2,6.2c0.1,0.3,0,0.6-0.2,0.8
		C30.8,31.1,30.6,31.1,30.4,31.1z M16,2.4C8.5,2.4,2.4,8.5,2.4,16c0,7.5,6.1,13.6,13.6,13.6c2.6,0,5.2-0.8,7.4-2.2
		c0.2-0.1,0.4-0.2,0.7-0.1l5.1,1.8l-1.8-5.1c-0.1-0.2,0-0.5,0.1-0.7c1.4-2.2,2.2-4.8,2.2-7.4C29.6,8.5,23.5,2.4,16,2.4z"/>
</g>
</svg>
