<?xml version="1.0" encoding="utf-8"?>
<!-- Generator: Adobe Illustrator 18.0.0, SVG Export Plug-In . SVG Version: 6.00 Build 0)  -->
<!DOCTYPE svg PUBLIC "-//W3C//DTD SVG 1.1//EN" "http://www.w3.org/Graphics/SVG/1.1/DTD/svg11.dtd">
<svg version="1.1" id="Layer_1" xmlns="http://www.w3.org/2000/svg" xmlns:xlink="http://www.w3.org/1999/xlink" x="0px" y="0px"
	 viewBox="0 0 32 32" enable-background="new 0 0 32 32" xml:space="preserve">
<g>
	<path fill="#8F9BA8" d="M31.5,31.5l-7.8-2.7c-2.4,1.5-5.2,2.3-8,2.3C7.4,31,0.5,24.2,0.5,15.8c0-8.4,6.8-15.2,15.3-15.2
		C24.2,0.5,31,7.4,31,15.8c0,2.8-0.8,5.6-2.3,8L31.5,31.5z M15.8,2C8.2,2,2,8.2,2,15.8c0,7.6,6.2,13.8,13.8,13.8
		c2.6,0,5.2-0.8,7.5-2.2l0.3-0.2L29,29l-1.9-5.5l0.2-0.3c1.4-2.2,2.2-4.8,2.2-7.5C29.5,8.2,23.3,2,15.8,2z"/>
	<polygon fill="#79C693" points="12.1,21.9 8.5,18.2 9.5,17.2 12.1,19.8 21,10.9 22.1,12 	"/>
</g>
</svg>
