<?xml version="1.0" encoding="utf-8"?>
<!-- Generator: Adobe Illustrator 18.0.0, SVG Export Plug-In . SVG Version: 6.00 Build 0)  -->
<!DOCTYPE svg PUBLIC "-//W3C//DTD SVG 1.1//EN" "http://www.w3.org/Graphics/SVG/1.1/DTD/svg11.dtd">
<svg version="1.1" id="Layer_1" xmlns="http://www.w3.org/2000/svg" xmlns:xlink="http://www.w3.org/1999/xlink" x="0px" y="0px"
	 viewBox="0 0 32 32" enable-background="new 0 0 32 32" xml:space="preserve">
<g>
	<path fill="#B4A042" d="M12.2,16.4c-1.2,0-2.1-1-2.1-2.1c0-1.2,1-2.1,2.1-2.1c1.2,0,2.1,1,2.1,2.1C14.4,15.4,13.4,16.4,12.2,16.4z
		 M12.2,13.7c-0.3,0-0.6,0.3-0.6,0.6s0.3,0.6,0.6,0.6s0.6-0.3,0.6-0.6C12.9,13.9,12.6,13.7,12.2,13.7z"/>
	<path fill="#B4A042" d="M19.8,16.4c-1.2,0-2.1-1-2.1-2.1c0-1.2,1-2.1,2.1-2.1c1.2,0,2.1,1,2.1,2.1S21,16.4,19.8,16.4z M19.8,13.7
		c-0.3,0-0.6,0.3-0.6,0.6s0.3,0.6,0.6,0.6c0.3,0,0.6-0.3,0.6-0.6C20.4,13.9,20.2,13.7,19.8,13.7z"/>
	<path fill="#8F9BA8" d="M23.9,28.9c-1.4,0-2.8-0.6-3.9-1.7c-2.4,2.3-5.6,2.3-7.9,0c-1.2,1.2-2.6,1.8-4,1.8C4,28.9,0.7,24,0.7,18
		S4,7.2,8,7.2c1.4,0,2.8,0.6,4,1.8c2.4-2.3,5.5-2.3,7.9,0c1.2-1.1,2.5-1.7,3.9-1.7c4,0,7.3,4.9,7.3,10.8C31.3,24,28,28.9,23.9,28.9z
		 M20,24.9l0.6,0.7c0.7,0.8,1.9,1.8,3.4,1.8c3.2,0,5.8-4.2,5.8-9.3c0-5.2-2.6-9.3-5.8-9.3c-1.5,0-2.7,1-3.4,1.8L20,11.2l-0.6-0.7
		c-0.7-0.8-1.9-1.8-3.4-1.8s-2.7,1-3.4,1.8L12,11.2l-0.6-0.7C10.7,9.7,9.5,8.7,8,8.7c-3.2,0-5.8,4.2-5.8,9.3c0,5.2,2.6,9.3,5.8,9.3
		c1.5,0,2.7-1,3.4-1.8l0.6-0.7l0.6,0.7c0.7,0.8,1.9,1.8,3.4,1.8s2.7-1,3.4-1.8L20,24.9z"/>
	<path fill="#8F9BA8" d="M15.3,8.2c-0.4-1.1-0.4-3.7,2.4-5.1l0.7,1.3c-2.4,1.2-1.7,3.2-1.7,3.2L15.3,8.2z"/>
	<path fill="#B4A042" d="M20,22.7c-0.9,0-1.7-0.2-2.4-0.7c-0.9-0.6-2.2-0.6-3.2-0.1c-1.5,0.9-3.4,0.9-4.9-0.1L8.3,21l0.8-1.2
		l1.3,0.9c1,0.7,2.2,0.7,3.2,0.1c1.5-0.9,3.4-0.9,4.8,0.1c0.9,0.6,2.1,0.6,3,0.1l1.6-1l0.7,1.3l-1.6,0.8
		C21.5,22.5,20.7,22.7,20,22.7z"/>
</g>
</svg>
