<?xml version="1.0" encoding="utf-8"?>
<!-- Generator: Adobe Illustrator 18.0.0, SVG Export Plug-In . SVG Version: 6.00 Build 0)  -->
<!DOCTYPE svg PUBLIC "-//W3C//DTD SVG 1.1//EN" "http://www.w3.org/Graphics/SVG/1.1/DTD/svg11.dtd">
<svg version="1.1" id="Layer_1" xmlns="http://www.w3.org/2000/svg" xmlns:xlink="http://www.w3.org/1999/xlink" x="0px" y="0px"
	 viewBox="0 0 32 32" enable-background="new 0 0 32 32" xml:space="preserve">
<g>
	<path fill="#8F9BA8" d="M21.3,26H10.7c-2.4,0-4.4-1.8-4.4-4.1v-2c-2-2.1-3.1-4.8-3.1-7.6C3.3,6,9,0.7,16,0.7
		c7,0,12.7,5.2,12.7,11.6c0,2.8-1.1,5.4-3.1,7.6v2C25.7,24.2,23.7,26,21.3,26z M16,2.2C9.8,2.2,4.8,6.8,4.8,12.4
		c0,2.5,1,4.9,2.8,6.7l0.2,0.2V22c0,1.4,1.3,2.6,2.9,2.6h10.5c1.6,0,2.9-1.2,2.9-2.6v-2.6l0.2-0.2c1.8-1.9,2.8-4.3,2.8-6.7
		C27.2,6.8,22.2,2.2,16,2.2z"/>
	<path fill="#8F9BA8" d="M23.1,31.3H9.3c-1.5,0-2.8-1.2-2.8-2.8v-1.2c0-1.5,1.2-2.8,2.8-2.8h13.8c1.5,0,2.8,1.2,2.8,2.8v1.2
		C25.9,30,24.7,31.3,23.1,31.3z M9.3,26c-0.7,0-1.3,0.6-1.3,1.3v1.2c0,0.7,0.6,1.3,1.3,1.3h13.8c0.7,0,1.3-0.6,1.3-1.3v-1.2
		c0-0.7-0.6-1.3-1.3-1.3H9.3z"/>
	<g>
		<path fill="#FAC2C3" d="M14.6,11.7c0,1.5-1.3,2.7-3,2.7c-1.6,0-3-1.2-3-2.7c0-1.5,1.3-2.7,3-2.7C13.2,9,14.6,10.2,14.6,11.7z"/>
		<path fill="#DA8C8C" d="M11.6,15.1c-2,0-3.7-1.5-3.7-3.4c0-1.9,1.7-3.4,3.7-3.4c2,0,3.7,1.5,3.7,3.4
			C15.3,13.6,13.7,15.1,11.6,15.1z M11.6,9.7c-1.2,0-2.2,0.9-2.2,1.9c0,1.1,1,1.9,2.2,1.9c1.2,0,2.2-0.9,2.2-1.9
			C13.8,10.6,12.8,9.7,11.6,9.7z"/>
	</g>
	<g>
		<path fill="#FAC2C3" d="M23.3,11.7c0,1.5-1.3,2.7-3,2.7c-1.6,0-3-1.2-3-2.7c0-1.5,1.3-2.7,3-2.7C22,9,23.3,10.2,23.3,11.7z"/>
		<path fill="#DA8C8C" d="M20.4,15.1c-2,0-3.7-1.5-3.7-3.4c0-1.9,1.7-3.4,3.7-3.4c2,0,3.7,1.5,3.7,3.4
			C24.1,13.6,22.4,15.1,20.4,15.1z M20.4,9.7c-1.2,0-2.2,0.9-2.2,1.9c0,1.1,1,1.9,2.2,1.9c1.2,0,2.2-0.9,2.2-1.9
			C22.6,10.6,21.6,9.7,20.4,9.7z"/>
	</g>
	<path fill="#8F9BA8" d="M11.2,28.1c-0.4,0-0.8-0.3-0.8-0.8v-3.9c0-0.4,0.3-0.8,0.8-0.8c0.4,0,0.8,0.3,0.8,0.8v3.9
		C12,27.7,11.6,28.1,11.2,28.1z"/>
	<path fill="#8F9BA8" d="M14.4,28.1c-0.4,0-0.8-0.3-0.8-0.8v-3.9c0-0.4,0.3-0.8,0.8-0.8c0.4,0,0.8,0.3,0.8,0.8v3.9
		C15.2,27.7,14.8,28.1,14.4,28.1z"/>
	<path fill="#8F9BA8" d="M17.6,28.1c-0.4,0-0.8-0.3-0.8-0.8v-3.9c0-0.4,0.3-0.8,0.8-0.8c0.4,0,0.8,0.3,0.8,0.8v3.9
		C18.4,27.7,18,28.1,17.6,28.1z"/>
	<path fill="#8F9BA8" d="M20.8,28.1c-0.4,0-0.8-0.3-0.8-0.8v-3.9c0-0.4,0.3-0.8,0.8-0.8c0.4,0,0.8,0.3,0.8,0.8v3.9
		C21.5,27.7,21.2,28.1,20.8,28.1z"/>
	<path fill="#8F9BA8" d="M16,21.3c-1.5,0-2.7-1.5-2.7-3.3c0-1.8,1.2-3.3,2.7-3.3c1.5,0,2.7,1.5,2.7,3.3C18.7,19.8,17.5,21.3,16,21.3
		z M16,16.1c-0.7,0-1.2,0.8-1.2,1.8c0,1,0.6,1.8,1.2,1.8c0.7,0,1.2-0.8,1.2-1.8C17.2,17,16.7,16.1,16,16.1z"/>
</g>
</svg>
