<?xml version="1.0" encoding="utf-8"?>
<!-- Generator: Adobe Illustrator 18.0.0, SVG Export Plug-In . SVG Version: 6.00 Build 0)  -->
<!DOCTYPE svg PUBLIC "-//W3C//DTD SVG 1.1//EN" "http://www.w3.org/Graphics/SVG/1.1/DTD/svg11.dtd">
<svg version="1.1" id="Layer_1" xmlns="http://www.w3.org/2000/svg" xmlns:xlink="http://www.w3.org/1999/xlink" x="0px" y="0px"
	 viewBox="0 0 32 32" enable-background="new 0 0 32 32" xml:space="preserve">
<g>
	<path fill="#B4A79C" d="M16,31.3C9.1,31.3,4.1,19,4.1,12.7C4.1,6.1,9.4,0.7,16,0.7c6.6,0,11.9,5.3,11.9,11.9
		C27.9,19,22.9,31.3,16,31.3z M16,2.2c-5.7,0-10.4,4.7-10.4,10.4c0,5.8,4.7,17.1,10.4,17.1c5.7,0,10.4-11.3,10.4-17.1
		C26.4,6.9,21.7,2.2,16,2.2z"/>
	<g>
		<line fill="#231F20" x1="10.8" y1="21.4" x2="20.6" y2="21.4"/>
		<rect x="10.8" y="20.7" fill="#B4A79C" width="9.8" height="1.5"/>
	</g>
	<path fill="#B4A79C" d="M23.7,5.9H8.5c-0.4,0-0.7-0.3-0.7-0.8c0-0.4,0.3-0.8,0.7-0.8h15.3c0.4,0,0.8,0.3,0.8,0.8
		C24.5,5.6,24.2,5.9,23.7,5.9z"/>
	<g>
		<line fill="#231F20" x1="20" y1="9.2" x2="20" y2="12.1"/>
		<rect x="19.2" y="9.2" fill="#B4A79C" width="1.5" height="2.9"/>
	</g>
	<g>
		<line fill="#231F20" x1="12" y1="9.2" x2="12" y2="12.1"/>
		<rect x="11.3" y="9.2" fill="#B4A79C" width="1.5" height="2.9"/>
	</g>
	<g>
		<path fill="#231F20" d="M18.2,21.4c0,0,0.9,1.6,0,3"/>
		<path fill="#B4A79C" d="M18.9,24.8L17.6,24c0.6-1,0-2.2,0-2.2l1.3-0.7C18.9,21.2,20,23.1,18.9,24.8z"/>
	</g>
	<g>
		<path fill="#231F20" d="M13.2,21.4c0,0-0.9,1.6,0,3"/>
		<path fill="#B4A79C" d="M12.6,24.8c-1.1-1.7-0.1-3.7,0-3.7l1.3,0.7c0,0-0.7,1.2,0,2.2L12.6,24.8z"/>
	</g>
</g>
</svg>
