<?xml version="1.0" encoding="utf-8"?>
<!-- Generator: Adobe Illustrator 18.0.0, SVG Export Plug-In . SVG Version: 6.00 Build 0)  -->
<!DOCTYPE svg PUBLIC "-//W3C//DTD SVG 1.1//EN" "http://www.w3.org/Graphics/SVG/1.1/DTD/svg11.dtd">
<svg version="1.1" id="Layer_1" xmlns="http://www.w3.org/2000/svg" xmlns:xlink="http://www.w3.org/1999/xlink" x="0px" y="0px"
	 viewBox="0 0 32 32" enable-background="new 0 0 32 32" xml:space="preserve">
<g>
	<path fill="#8F9BA8" d="M0.8,31l2.8-8c-1.2-2.2-1.9-4.7-1.9-7.2C1.7,7.6,8.3,1,16.5,1c8.2,0,14.8,6.6,14.8,14.8
		c0,8.2-6.6,14.8-14.8,14.8c-2.6,0-5.1-0.7-7.4-2L0.8,31z M9.3,27l0.3,0.2c2.1,1.3,4.5,1.9,6.9,1.9c7.4,0,13.3-6,13.3-13.3
		c0-7.3-6-13.3-13.3-13.3c-7.3,0-13.3,6-13.3,13.3c0,2.4,0.6,4.7,1.9,6.7l0.2,0.3l-2.1,6L9.3,27z"/>
	<path fill="#DA8C8C" d="M9.2,22.8l0.5-4.9l7.2-7.2l4.5,4.5l-7.2,7.2L9.2,22.8z M11.1,18.6l-0.3,2.6l2.7-0.2l5.8-5.8l-2.4-2.4
		L11.1,18.6z"/>
	<g>
		<path fill="#FAC2C3" d="M21.9,11l-0.8-0.8c-0.7-0.7-1.9-0.7-2.6,0l-1.6,1.6l3.4,3.4l1.6-1.6C22.6,12.9,22.6,11.7,21.9,11z"/>
		<path fill="#DA8C8C" d="M20.3,16.2l-4.5-4.5l2.1-2.1c1-1,2.7-1,3.6,0l0.8,0.8c1,1,1,2.6,0,3.6L20.3,16.2z M17.9,11.7l2.4,2.4
			l1.1-1.1c0.4-0.4,0.4-1.1,0-1.6l-0.8-0.8c-0.4-0.4-1.2-0.4-1.6,0L17.9,11.7z"/>
	</g>
</g>
</svg>
