<?xml version="1.0" encoding="utf-8"?>
<!-- Generator: Adobe Illustrator 18.0.0, SVG Export Plug-In . SVG Version: 6.00 Build 0)  -->
<!DOCTYPE svg PUBLIC "-//W3C//DTD SVG 1.1//EN" "http://www.w3.org/Graphics/SVG/1.1/DTD/svg11.dtd">
<svg version="1.1" id="Layer_1" xmlns="http://www.w3.org/2000/svg" xmlns:xlink="http://www.w3.org/1999/xlink" x="0px" y="0px"
	 viewBox="0 0 32 32" enable-background="new 0 0 32 32" xml:space="preserve">
<g>
	<path fill="#8F9BA8" d="M16,31.3C7.6,31.3,0.8,24.4,0.8,16S7.6,0.8,16,0.8c8.4,0,15.3,6.8,15.3,15.3c0,2.7-0.7,5.4-2.1,7.8
		c-0.2,0.4-0.7,0.5-1,0.3c-0.4-0.2-0.5-0.7-0.3-1c1.3-2.1,1.9-4.5,1.9-7c0-7.6-6.2-13.8-13.8-13.8C8.4,2.3,2.3,8.4,2.3,16
		c0,7.6,6.2,13.8,13.7,13.8c2.7,0,5.2-0.8,7.5-2.2c0.3-0.2,0.8-0.1,1,0.2c0.2,0.3,0.1,0.8-0.2,1C21.8,30.4,19,31.3,16,31.3z"/>
	<path fill="#B4A79C" d="M16,26.2c-5.6,0-10.2-4.6-10.2-10.2c0-0.3,0-0.7,0-1c0-0.4,0.4-0.7,0.8-0.7c0.4,0,0.7,0.4,0.7,0.8
		c0,0.3,0,0.6,0,0.9c0,4.8,3.9,8.7,8.7,8.7c4.8,0,8.7-3.9,8.7-8.7c0-4.8-3.9-8.7-8.7-8.7c-2.2,0-4.3,0.8-5.9,2.3
		c-0.3,0.3-0.8,0.3-1.1,0c-0.3-0.3-0.3-0.8,0-1.1C11,6.8,13.4,5.8,16,5.8c5.6,0,10.2,4.6,10.2,10.2C26.2,21.6,21.6,26.2,16,26.2z"/>
	<path fill="#79C693" d="M16,20.7c-2.6,0-4.7-2.1-4.7-4.7c0-2.6,2.1-4.7,4.7-4.7c2.6,0,4.7,2.1,4.7,4.7C20.7,18.6,18.6,20.7,16,20.7
		z M16,12.8c-1.8,0-3.2,1.4-3.2,3.2c0,1.8,1.4,3.2,3.2,3.2c1.8,0,3.2-1.4,3.2-3.2C19.2,14.2,17.8,12.8,16,12.8z"/>
	<g>
		<path fill="#F9F8F2" d="M10.8,11.8c0,1.7-1.4,3.1-3.1,3.1c-1.7,0-3.1-1.4-3.1-3.1c0-1.7,1.4-3.1,3.1-3.1
			C9.4,8.8,10.8,10.2,10.8,11.8z"/>
		<path fill="#B4A79C" d="M7.7,15.6c-2.1,0-3.8-1.7-3.8-3.8C3.9,9.8,5.7,8,7.7,8s3.8,1.7,3.8,3.8C11.6,13.9,9.8,15.6,7.7,15.6z
			 M7.7,9.5c-1.3,0-2.3,1-2.3,2.3c0,1.3,1,2.3,2.3,2.3s2.3-1,2.3-2.3C10.1,10.6,9,9.5,7.7,9.5z"/>
	</g>
	<g>
		<circle fill="#F0F7F7" cx="26.5" cy="26.1" r="3.1"/>
		<path fill="#8F9BA8" d="M26.5,29.9c-2.1,0-3.8-1.7-3.8-3.8c0-2.1,1.7-3.8,3.8-3.8s3.8,1.7,3.8,3.8C30.3,28.2,28.6,29.9,26.5,29.9z
			 M26.5,23.8c-1.3,0-2.3,1-2.3,2.3c0,1.3,1,2.3,2.3,2.3c1.3,0,2.3-1,2.3-2.3C28.8,24.9,27.8,23.8,26.5,23.8z"/>
	</g>
</g>
</svg>
