<?xml version="1.0" encoding="utf-8"?>
<!-- Generator: Adobe Illustrator 18.0.0, SVG Export Plug-In . SVG Version: 6.00 Build 0)  -->
<!DOCTYPE svg PUBLIC "-//W3C//DTD SVG 1.1//EN" "http://www.w3.org/Graphics/SVG/1.1/DTD/svg11.dtd">
<svg version="1.1" id="Layer_1" xmlns="http://www.w3.org/2000/svg" xmlns:xlink="http://www.w3.org/1999/xlink" x="0px" y="0px"
	 viewBox="0 0 32 32" enable-background="new 0 0 32 32" xml:space="preserve">
<g>
	<path fill="#79C693" d="M25.5,31.2L19.3,23l5.9-4.5l6.2,8.2L27,27L25.5,31.2z M21.4,23.3L25,28l0.9-2.5l2.6-0.2l-3.6-4.8L21.4,23.3
		z"/>
	<path fill="#79C693" d="M6.5,31.2L5,27l-4.4-0.3l6.2-8.2l5.9,4.5L6.5,31.2z M3.5,25.4l2.6,0.2L7,28l3.6-4.8l-3.5-2.7L3.5,25.4z"/>
	<path fill="#8F9BA8" d="M16.1,24.5c-6.5,0-11.8-5.3-11.8-11.8c0-6.5,5.3-11.8,11.8-11.8c6.5,0,11.8,5.3,11.8,11.8
		C27.9,19.2,22.6,24.5,16.1,24.5z M16.1,2.3C10.4,2.3,5.7,7,5.7,12.7c0,5.7,4.6,10.3,10.3,10.3c5.7,0,10.3-4.6,10.3-10.3
		C26.4,7,21.8,2.3,16.1,2.3z"/>
	<path fill="#B4A79C" d="M20.5,19.5c-0.1,0-0.2,0-0.3-0.1l-4-2.1l-4,2.1c-0.3,0.1-0.6,0.1-0.8-0.1c-0.2-0.2-0.3-0.5-0.3-0.7l0.8-4.5
		l-3.3-3.2c-0.2-0.2-0.3-0.5-0.2-0.8c0.1-0.3,0.3-0.5,0.6-0.5L13.4,9l2-4.1c0.3-0.5,1.1-0.5,1.3,0l2,4.1l4.5,0.7
		c0.3,0,0.5,0.2,0.6,0.5c0.1,0.3,0,0.6-0.2,0.8l-3.3,3.2l0.8,4.5c0,0.3-0.1,0.6-0.3,0.7C20.8,19.4,20.6,19.5,20.5,19.5z M16.1,15.7
		c0.1,0,0.2,0,0.3,0.1l3,1.6L18.9,14c0-0.2,0-0.5,0.2-0.7l2.5-2.4l-3.4-0.5c-0.2,0-0.5-0.2-0.6-0.4l-1.5-3.1L14.6,10
		c-0.1,0.2-0.3,0.4-0.6,0.4l-3.4,0.5l2.5,2.4c0.2,0.2,0.3,0.4,0.2,0.7l-0.6,3.4l3-1.6C15.8,15.7,16,15.7,16.1,15.7z"/>
</g>
</svg>
