<?xml version="1.0" encoding="utf-8"?>
<!-- Generator: Adobe Illustrator 18.0.0, SVG Export Plug-In . SVG Version: 6.00 Build 0)  -->
<!DOCTYPE svg PUBLIC "-//W3C//DTD SVG 1.1//EN" "http://www.w3.org/Graphics/SVG/1.1/DTD/svg11.dtd">
<svg version="1.1" id="Layer_1" xmlns="http://www.w3.org/2000/svg" xmlns:xlink="http://www.w3.org/1999/xlink" x="0px" y="0px"
	 viewBox="0 0 32 32" enable-background="new 0 0 32 32" xml:space="preserve">
<pattern  y="32" width="24.1" height="24.1" patternUnits="userSpaceOnUse" id="SVGID_2_" viewBox="0 -24.1 24.1 24.1" overflow="visible">
	<g>
		<polygon fill="none" points="0,0 24.1,0 24.1,-24.1 0,-24.1 		"/>
		<g>
			<polygon fill="none" points="0,-24.1 24.1,-24.1 24.1,0 0,0 			"/>
			<polygon fill="#E0CB81" points="24.1,-24.1 0,-24.1 0,0 24.1,0 			"/>
		</g>
	</g>
</pattern>
<pattern  y="32" width="24.1" height="24.1" patternUnits="userSpaceOnUse" id="SVGID_3_" viewBox="0 -24.1 24.1 24.1" overflow="visible">
	<g>
		<polygon fill="none" points="0,0 24.1,0 24.1,-24.1 0,-24.1 		"/>
		<g>
			<polygon fill="none" points="0,-24.1 24.1,-24.1 24.1,0 0,0 			"/>
			<polygon fill="#FEE99B" points="24.1,-24.1 0,-24.1 0,0 24.1,0 			"/>
		</g>
	</g>
</pattern>
<pattern  y="32" width="24.1" height="24.1" patternUnits="userSpaceOnUse" id="SVGID_4_" viewBox="0 -24.1 24.1 24.1" overflow="visible">
	<g>
		<polygon fill="none" points="0,0 24.1,0 24.1,-24.1 0,-24.1 		"/>
		<g>
			<polygon fill="none" points="0,-24.1 24.1,-24.1 24.1,0 0,0 			"/>
			<polygon fill="#E0CB81" points="24.1,-24.1 0,-24.1 0,0 24.1,0 			"/>
		</g>
	</g>
</pattern>
<g>
	<rect x="0.8" y="20" fill="#8F9BA8" width="1.5" height="10.6"/>
	<rect x="10.4" y="15.4" fill="#8F9BA8" width="1.5" height="15.2"/>
	<rect x="20.1" y="10.8" fill="#8F9BA8" width="1.5" height="19.8"/>
	<rect x="29.8" y="1.6" fill="#8F9BA8" width="1.5" height="29"/>
	<g>
		<line fill="none" x1="3.3" y1="12.1" x2="14" y2="5.4"/>
		<pattern  id="SVGID_1_" xlink:href="#SVGID_2_" patternTransform="matrix(1 0 0 -1 -204.0428 -16187.8438)">
		</pattern>
		<polygon fill="url(#SVGID_1_)" points="3.7,12.8 2.9,11.5 13.6,4.7 14.4,6 		"/>
	</g>
	<g>
		<pattern  id="SVGID_5_" xlink:href="#SVGID_3_" patternTransform="matrix(1 0 0 -1 -204.0428 -16187.8438)">
		</pattern>
		<polygon fill="url(#SVGID_5_)" points="15.7,8.6 19,2.2 11.8,2.5 		"/>
		<pattern  id="SVGID_6_" xlink:href="#SVGID_4_" patternTransform="matrix(1 0 0 -1 -204.0428 -16187.8438)">
		</pattern>
		<path fill="url(#SVGID_6_)" d="M15.8,10.1l-5.2-8.3l9.8-0.4L15.8,10.1z M13.2,3.2l2.5,3.9L17.8,3L13.2,3.2z"/>
	</g>
</g>
</svg>
