<?xml version="1.0" encoding="utf-8"?>
<!-- Generator: Adobe Illustrator 18.0.0, SVG Export Plug-In . SVG Version: 6.00 Build 0)  -->
<!DOCTYPE svg PUBLIC "-//W3C//DTD SVG 1.1//EN" "http://www.w3.org/Graphics/SVG/1.1/DTD/svg11.dtd">
<svg version="1.1" id="Layer_1" xmlns="http://www.w3.org/2000/svg" xmlns:xlink="http://www.w3.org/1999/xlink" x="0px" y="0px"
	 viewBox="0 0 32 32" enable-background="new 0 0 32 32" xml:space="preserve">
<pattern  y="32" width="24.1" height="24.1" patternUnits="userSpaceOnUse" id="SVGID_1_" viewBox="0 -24.1 24.1 24.1" overflow="visible">
	<g>
		<polygon fill="none" points="0,0 24.1,0 24.1,-24.1 0,-24.1 		"/>
		<g>
			<polygon fill="none" points="0,-24.1 24.1,-24.1 24.1,0 0,0 			"/>
			<polygon fill="#FEE99B" points="24.1,-24.1 0,-24.1 0,0 24.1,0 			"/>
		</g>
	</g>
</pattern>
<pattern  y="32" width="24.1" height="24.1" patternUnits="userSpaceOnUse" id="SVGID_2_" viewBox="0 -24.1 24.1 24.1" overflow="visible">
	<g>
		<polygon fill="none" points="0,0 24.1,0 24.1,-24.1 0,-24.1 		"/>
		<g>
			<polygon fill="none" points="0,-24.1 24.1,-24.1 24.1,0 0,0 			"/>
			<polygon fill="#E0CB81" points="24.1,-24.1 0,-24.1 0,0 24.1,0 			"/>
		</g>
	</g>
</pattern>
<pattern  y="32" width="24.1" height="24.1" patternUnits="userSpaceOnUse" id="SVGID_3_" viewBox="0 -24.1 24.1 24.1" overflow="visible">
	<g>
		<polygon fill="none" points="0,0 24.1,0 24.1,-24.1 0,-24.1 		"/>
		<g>
			<polygon fill="none" points="0,-24.1 24.1,-24.1 24.1,0 0,0 			"/>
			<polygon fill="#FEE99B" points="24.1,-24.1 0,-24.1 0,0 24.1,0 			"/>
		</g>
	</g>
</pattern>
<pattern  y="32" width="24.1" height="24.1" patternUnits="userSpaceOnUse" id="SVGID_4_" viewBox="0 -24.1 24.1 24.1" overflow="visible">
	<g>
		<polygon fill="none" points="0,0 24.1,0 24.1,-24.1 0,-24.1 		"/>
		<g>
			<polygon fill="none" points="0,-24.1 24.1,-24.1 24.1,0 0,0 			"/>
			<polygon fill="#E0CB81" points="24.1,-24.1 0,-24.1 0,0 24.1,0 			"/>
		</g>
	</g>
</pattern>
<g>
	<g>
		<path fill="#CDE4F7" d="M16,1.5C10.1,1.5,5.1,5,2.8,10h26.4C26.9,5,21.9,1.5,16,1.5z"/>
		<path fill="#74B1E0" d="M29.2,10.8H2.8c-0.3,0-0.5-0.1-0.6-0.3C2,10.2,2,10,2.1,9.7c2.5-5.5,7.9-9,13.9-9s11.4,3.5,13.9,9
			c0.1,0.2,0.1,0.5-0.1,0.7C29.7,10.7,29.5,10.8,29.2,10.8z M4,9.3h24c-2.4-4.3-7-7-12-7C11,2.2,6.4,5,4,9.3z"/>
	</g>
	<g>
		<path fill="#CDE4F7" d="M16,30.5c5.9,0,10.9-3.5,13.2-8.5H2.8C5.1,27,10.1,30.5,16,30.5z"/>
		<path fill="#74B1E0" d="M16,31.3c-6,0-11.4-3.5-13.9-9C2,22,2,21.8,2.2,21.6c0.1-0.2,0.4-0.3,0.6-0.3h26.4c0.3,0,0.5,0.1,0.6,0.3
			c0.1,0.2,0.2,0.5,0.1,0.7C27.4,27.7,22,31.3,16,31.3z M4,22.7c2.4,4.3,7,7,12,7s9.6-2.7,12-7H4z"/>
	</g>
	<path fill="#74B1E0" d="M29.2,22.7H2.8c-0.3,0-0.6-0.2-0.7-0.4c-0.9-2-1.4-4.1-1.4-6.3s0.5-4.3,1.4-6.3c0.1-0.3,0.4-0.4,0.7-0.4
		h26.4c0.3,0,0.6,0.2,0.7,0.4c0.9,2,1.4,4.1,1.4,6.3s-0.5,4.3-1.4,6.3C29.8,22.5,29.5,22.7,29.2,22.7z M3.3,21.2h25.4
		c0.7-1.7,1-3.4,1-5.2s-0.3-3.6-1-5.2H3.3c-0.7,1.7-1,3.4-1,5.2C2.2,17.8,2.6,19.6,3.3,21.2z"/>
	<g>
		<g>
			<pattern  id="SVGID_5_" xlink:href="#SVGID_1_" patternTransform="matrix(1 0 0 -1 -370.8453 -16187.709)">
			</pattern>
			<circle fill="url(#SVGID_5_)" cx="16" cy="14.2" r="1.8"/>
			<pattern  id="SVGID_6_" xlink:href="#SVGID_2_" patternTransform="matrix(1 0 0 -1 -370.8453 -16187.709)">
			</pattern>
			<path fill="url(#SVGID_6_)" d="M16,16.8c-1.4,0-2.6-1.1-2.6-2.6c0-1.4,1.1-2.6,2.6-2.6c1.4,0,2.5,1.1,2.5,2.6
				C18.6,15.6,17.4,16.8,16,16.8z M16,13.1c-0.6,0-1.1,0.5-1.1,1.1s0.5,1.1,1.1,1.1s1-0.5,1-1.1C17.1,13.6,16.6,13.1,16,13.1z"/>
		</g>
		<g>
			<pattern  id="SVGID_7_" xlink:href="#SVGID_3_" patternTransform="matrix(1 0 0 -1 -370.8453 -16187.709)">
			</pattern>
			<circle fill="url(#SVGID_7_)" cx="16" cy="17.8" r="1.8"/>
			<pattern  id="SVGID_8_" xlink:href="#SVGID_4_" patternTransform="matrix(1 0 0 -1 -370.8453 -16187.709)">
			</pattern>
			<path fill="url(#SVGID_8_)" d="M16,20.4c-1.4,0-2.6-1.1-2.6-2.5s1.1-2.6,2.6-2.6c1.4,0,2.5,1.1,2.5,2.6
				C18.6,19.2,17.4,20.4,16,20.4z M16,16.8c-0.6,0-1.1,0.5-1.1,1.1s0.5,1,1.1,1s1-0.5,1-1C17.1,17.2,16.6,16.8,16,16.8z"/>
		</g>
	</g>
</g>
</svg>
