<?xml version="1.0" encoding="utf-8"?>
<!-- Generator: Adobe Illustrator 18.0.0, SVG Export Plug-In . SVG Version: 6.00 Build 0)  -->
<!DOCTYPE svg PUBLIC "-//W3C//DTD SVG 1.1//EN" "http://www.w3.org/Graphics/SVG/1.1/DTD/svg11.dtd">
<svg version="1.1" id="Layer_1" xmlns="http://www.w3.org/2000/svg" xmlns:xlink="http://www.w3.org/1999/xlink" x="0px" y="0px"
	 viewBox="0 0 32 32" enable-background="new 0 0 32 32" xml:space="preserve">
<g>
	
		<rect x="6.7" y="26.3" transform="matrix(0.7058 0.7084 -0.7084 0.7058 22.6662 3.2383)" fill="#79C693" width="1.5" height="5.3"/>
	
		<rect x="21.9" y="28.2" transform="matrix(0.7086 0.7056 -0.7056 0.7086 27.558 -8.9113)" fill="#79C693" width="5.3" height="1.5"/>
	<rect x="15.2" y="5.2" fill="#79C693" width="1.5" height="2.7"/>
	<rect x="15.2" y="26" fill="#79C693" width="1.5" height="2.7"/>
	<rect x="4.3" y="16.2" fill="#79C693" width="2.7" height="1.5"/>
	<rect x="25.1" y="16.2" fill="#79C693" width="2.7" height="1.5"/>
	<polygon fill="#79C693" points="16,18 9.1,11.2 10.1,10.2 16,15.9 20.5,11.5 21.5,12.5 	"/>
	<path fill="#79C693" d="M26.1,12.2l-0.3-0.5c-1.3-2.3-3.3-4.1-5.9-5.1l-0.5-0.2l0.1-0.6c0.3-2.9,2.8-5.2,5.7-5.2
		c3.2,0,5.8,2.6,5.8,5.8c0,2.6-1.8,4.9-4.4,5.6L26.1,12.2z M21.1,5.5c2.4,1,4.4,2.8,5.8,5c1.6-0.6,2.7-2.2,2.7-4
		c0-2.4-1.9-4.3-4.3-4.3C23.2,2.2,21.5,3.6,21.1,5.5z"/>
	<path fill="#79C693" d="M5.9,12.2l-0.6-0.1C2.7,11.4,1,9.1,1,6.5c0-3.2,2.6-5.8,5.8-5.8c3,0,5.4,2.2,5.7,5.2l0.1,0.6L12,6.6
		c-2.5,0.9-4.6,2.8-5.9,5.1L5.9,12.2z M6.8,2.2c-2.4,0-4.3,1.9-4.3,4.3c0,1.8,1.1,3.3,2.7,4c1.3-2.2,3.4-4,5.8-5
		C10.5,3.6,8.8,2.2,6.8,2.2z"/>
	<path fill="#79C693" d="M16,29.4c-7,0-12.7-5.6-12.7-12.5c0-2,0.5-4.1,1.5-5.9c1.4-2.6,3.8-4.7,6.7-5.8c2.9-1.1,6.1-1.1,9,0
		c2.9,1.1,5.2,3.1,6.7,5.8c1,1.8,1.5,3.8,1.5,5.9C28.7,23.8,23,29.4,16,29.4z M16,5.9c-1.3,0-2.7,0.2-4,0.7
		c-2.5,0.9-4.6,2.8-5.9,5.1c-0.9,1.6-1.3,3.4-1.3,5.2c0,6.1,5,11,11.2,11c6.2,0,11.2-4.9,11.2-11c0-1.8-0.5-3.6-1.3-5.2
		c-1.3-2.3-3.3-4.1-5.9-5.1C18.7,6.2,17.3,5.9,16,5.9z"/>
</g>
</svg>
