<?xml version="1.0" encoding="utf-8"?>
<!-- Generator: Adobe Illustrator 18.0.0, SVG Export Plug-In . SVG Version: 6.00 Build 0)  -->
<!DOCTYPE svg PUBLIC "-//W3C//DTD SVG 1.1//EN" "http://www.w3.org/Graphics/SVG/1.1/DTD/svg11.dtd">
<svg version="1.1" id="Layer_1" xmlns="http://www.w3.org/2000/svg" xmlns:xlink="http://www.w3.org/1999/xlink" x="0px" y="0px"
	 viewBox="0 0 32 32" enable-background="new 0 0 32 32" xml:space="preserve">
<g>
	<path fill="#B4A79C" d="M16,31.1c-5.8,0-10.6-4.8-10.6-10.6c0-5.8,4.8-10.6,10.6-10.6c5.8,0,10.6,4.8,10.6,10.6
		C26.6,26.4,21.8,31.1,16,31.1z M16,11.4c-5,0-9.1,4.1-9.1,9.1c0,5,4.1,9.1,9.1,9.1c5,0,9.1-4.1,9.1-9.1C25.1,15.5,21,11.4,16,11.4z
		"/>
	<rect x="15.2" y="7.9" fill="#B4A79C" width="1.5" height="2.8"/>
	<path fill="#B4A79C" d="M16,8.6c-0.2,0-0.4-0.1-0.5-0.2L9,1.9L10,0.9l6,6l6-6L23,1.9l-6.5,6.5C16.4,8.6,16.2,8.6,16,8.6z"/>
	<path fill="#B4A79C" d="M19.2,25.7c-0.1,0-0.2,0-0.3-0.1L16,24l-2.9,1.5c-0.3,0.1-0.6,0.1-0.8-0.1c-0.2-0.2-0.3-0.5-0.3-0.7
		l0.6-3.2l-2.3-2.3C10,19.1,10,18.8,10,18.5c0.1-0.3,0.3-0.5,0.6-0.5l3.2-0.5l1.4-2.9c0.3-0.5,1.1-0.5,1.3,0l1.4,2.9l3.2,0.5
		c0.3,0,0.5,0.2,0.6,0.5c0.1,0.3,0,0.6-0.2,0.8l-2.3,2.3l0.6,3.2c0,0.3-0.1,0.6-0.3,0.7C19.6,25.6,19.4,25.7,19.2,25.7z M12.4,19.3
		l1.5,1.5c0.2,0.2,0.3,0.4,0.2,0.7l-0.4,2.1l1.9-1c0.2-0.1,0.5-0.1,0.7,0l1.9,1l-0.4-2.1c0-0.2,0-0.5,0.2-0.7l1.5-1.5L17.5,19
		c-0.2,0-0.5-0.2-0.6-0.4L16,16.6l-0.9,1.9c-0.1,0.2-0.3,0.4-0.6,0.4L12.4,19.3z"/>
</g>
</svg>
