<?xml version="1.0" encoding="utf-8"?>
<!-- Generator: Adobe Illustrator 18.0.0, SVG Export Plug-In . SVG Version: 6.00 Build 0)  -->
<!DOCTYPE svg PUBLIC "-//W3C//DTD SVG 1.1//EN" "http://www.w3.org/Graphics/SVG/1.1/DTD/svg11.dtd">
<svg version="1.1" id="Layer_1" xmlns="http://www.w3.org/2000/svg" xmlns:xlink="http://www.w3.org/1999/xlink" x="0px" y="0px"
	 viewBox="0 0 32 32" enable-background="new 0 0 32 32" xml:space="preserve">
<g>
	<path fill="#8F9BA8" d="M22.9,31.3H9.1c-1.6,0-2.8-1.3-2.8-2.8v-16c0-1.6,1.3-2.8,2.8-2.8h13.8c1.6,0,2.8,1.3,2.8,2.8v16
		C25.8,30,24.5,31.3,22.9,31.3z M9.1,11.1c-0.7,0-1.3,0.6-1.3,1.3v16c0,0.7,0.6,1.3,1.3,1.3h13.8c0.7,0,1.3-0.6,1.3-1.3v-16
		c0-0.7-0.6-1.3-1.3-1.3H9.1z"/>
	<path fill="#8F9BA8" d="M20.8,11.1H10.6c-0.4,0-0.8-0.3-0.8-0.8V6.6c0-0.4,0.3-0.8,0.8-0.8h10.2c0.4,0,0.8,0.3,0.8,0.8v3.7
		C21.6,10.7,21.2,11.1,20.8,11.1z M11.4,9.6h8.7V7.3h-8.7V9.6z"/>
	<g>
		<path fill="#FAC2C3" d="M22.9,6.6H8.5V2.9c0-0.8,0.6-1.4,1.4-1.4h11.6c0.8,0,1.4,0.6,1.4,1.4V6.6z"/>
		<path fill="#DA8C8C" d="M22.9,7.3H8.5C8.1,7.3,7.8,7,7.8,6.6V2.9c0-1.2,1-2.1,2.1-2.1h11.6c1.2,0,2.1,1,2.1,2.1v3.7
			C23.7,7,23.3,7.3,22.9,7.3z M9.3,5.8h12.9V2.9c0-0.3-0.3-0.6-0.6-0.6H9.9c-0.3,0-0.6,0.3-0.6,0.6V5.8z"/>
	</g>
	<g>
		<g>
			<line fill="#FAC2C3" x1="16" y1="17.3" x2="16" y2="24.4"/>
			<rect x="15.2" y="17.3" fill="#DA8C8C" width="1.5" height="7.1"/>
		</g>
		<g>
			<line fill="#FAC2C3" x1="19.6" y1="20.8" x2="12.4" y2="20.8"/>
			<rect x="12.4" y="20.1" fill="#DA8C8C" width="7.1" height="1.5"/>
		</g>
	</g>
</g>
</svg>
