<?xml version="1.0" encoding="utf-8"?>
<!-- Generator: Adobe Illustrator 18.0.0, SVG Export Plug-In . SVG Version: 6.00 Build 0)  -->
<!DOCTYPE svg PUBLIC "-//W3C//DTD SVG 1.1//EN" "http://www.w3.org/Graphics/SVG/1.1/DTD/svg11.dtd">
<svg version="1.1" id="Layer_1" xmlns="http://www.w3.org/2000/svg" xmlns:xlink="http://www.w3.org/1999/xlink" x="0px" y="0px"
	 viewBox="0 0 32 32" enable-background="new 0 0 32 32" xml:space="preserve">
<g>
	<g>
		<g>
			<path fill="#F9F8F2" d="M9.8,15.9l-2.6,2.6l-5-5c-0.7-0.7-0.7-1.9,0-2.6l0,0c0.7-0.7,1.9-0.7,2.6,0L9.8,15.9z"/>
			<path fill="#B4A79C" d="M7.2,19.6l-5.5-5.5c-1-1-1-2.7,0-3.7c1-1,2.7-1,3.7,0l5.5,5.5L7.2,19.6z M3.5,11.1
				c-0.3,0-0.6,0.1-0.8,0.3c-0.4,0.4-0.4,1.1,0,1.6l4.5,4.5l1.6-1.6l-4.5-4.5C4.1,11.2,3.8,11.1,3.5,11.1z"/>
		</g>
		<g>
			<path fill="#F9F8F2" d="M16.6,9.1L14,11.8l-5-5C8.3,6.1,8.3,4.9,9,4.1l0,0c0.7-0.7,1.9-0.7,2.6,0L16.6,9.1z"/>
			<path fill="#B4A79C" d="M14,12.8L8.5,7.3c-1-1-1-2.7,0-3.7c1-1,2.7-1,3.7,0l5.5,5.5L14,12.8z M10.3,4.4c-0.3,0-0.6,0.1-0.8,0.3
				c-0.4,0.4-0.4,1.1,0,1.6l4.5,4.5l1.6-1.6l-4.5-4.5C10.9,4.5,10.6,4.4,10.3,4.4z"/>
		</g>
	</g>
	<path fill="#8F9BA8" d="M17.9,29.1c-2.5,0-4.8-1-6.6-2.7l-6.5-6.5L18,6.7l6.5,6.5c1.8,1.8,2.7,4.1,2.7,6.6c0,2.5-1,4.8-2.7,6.6
		C22.7,28.2,20.4,29.1,17.9,29.1z M6.9,19.9l5.4,5.4c1.5,1.5,3.4,2.3,5.5,2.3c2.1,0,4.1-0.8,5.5-2.3c1.5-1.5,2.3-3.4,2.3-5.5
		c0-2.1-0.8-4.1-2.3-5.5L18,8.8L6.9,19.9z"/>
	<g>
		<circle fill="#F2E8B9" cx="19.2" cy="21" r="2.6"/>
		<path fill="#B4A042" d="M19.2,24.4c-0.9,0-1.8-0.4-2.4-1c-0.6-0.6-1-1.5-1-2.4s0.4-1.8,1-2.4c1.3-1.3,3.5-1.3,4.8,0
			c0.6,0.6,1,1.5,1,2.4s-0.4,1.8-1,2.4C21,24,20.1,24.4,19.2,24.4z M19.2,19.1c-0.5,0-1,0.2-1.3,0.6c-0.4,0.4-0.6,0.8-0.6,1.3
			s0.2,1,0.6,1.3c0.7,0.7,2,0.7,2.7,0c0.4-0.4,0.6-0.8,0.6-1.3s-0.2-1-0.6-1.3C20.2,19.3,19.7,19.1,19.2,19.1z"/>
	</g>
	<path fill="#8F9BA8" d="M27.6,27.9c-1.8,0-3.4-0.8-4.2-1.5l1-1.1c0.1,0.1,2.8,2.3,5.8,0.3l0.8,1.2C29.9,27.6,28.7,27.9,27.6,27.9z"
		/>
</g>
</svg>
