<?xml version="1.0" encoding="utf-8"?>
<!-- Generator: Adobe Illustrator 18.0.0, SVG Export Plug-In . SVG Version: 6.00 Build 0)  -->
<!DOCTYPE svg PUBLIC "-//W3C//DTD SVG 1.1//EN" "http://www.w3.org/Graphics/SVG/1.1/DTD/svg11.dtd">
<svg version="1.1" id="Layer_1" xmlns="http://www.w3.org/2000/svg" xmlns:xlink="http://www.w3.org/1999/xlink" x="0px" y="0px"
	 viewBox="0 0 32 32" enable-background="new 0 0 32 32" xml:space="preserve">
<g>
	<g>
		<path fill="#CDE4F7" d="M7.5,29.5l1.6-1.6c4.3,2.5,9.6,2.5,13.8,0l1.6,1.6c1.4,1.4,3.6,1.4,5,0c1.4-1.4,1.4-3.6,0-5l-1.6-1.6
			c2.5-4.3,2.5-9.6,0-13.8l1.6-1.6c1.4-1.4,1.4-3.6,0-5c-1.4-1.4-3.6-1.4-5,0l-1.6,1.6c-4.3-2.5-9.6-2.5-13.8,0L7.5,2.5
			c-1.4-1.4-3.6-1.4-5,0c-1.4,1.4-1.4,3.6,0,5l1.6,1.6c-2.5,4.3-2.5,9.6,0,13.8l-1.6,1.6c-1.4,1.4-1.4,3.6,0,5l0,0
			C3.9,30.8,6.2,30.8,7.5,29.5z"/>
		<path fill="#74B1E0" d="M27,31.3c-1.1,0-2.2-0.4-3-1.3l-1.2-1.2c-4.2,2.2-9.4,2.2-13.6,0L8.1,30c-0.8,0.8-1.9,1.3-3,1.3
			c0,0,0,0,0,0c-1.1,0-2.2-0.4-3-1.3c-1.7-1.7-1.7-4.4,0-6.1l1.2-1.2c-2.2-4.2-2.2-9.3,0-13.5L2,8.1C0.3,6.4,0.3,3.7,2,2
			c0.8-0.8,1.9-1.3,3-1.3s2.2,0.4,3,1.3l1.2,1.2c4.2-2.2,9.4-2.2,13.5,0L23.9,2c0.8-0.8,1.9-1.3,3-1.3s2.2,0.4,3,1.3
			c1.7,1.7,1.7,4.4,0,6.1l-1.2,1.2c2.2,4.2,2.2,9.3,0,13.6l1.2,1.2c1.7,1.7,1.7,4.4,0,6.1C29.2,30.8,28.1,31.3,27,31.3z M23,27l2,2
			c1.1,1.1,2.9,1.1,3.9,0c1.1-1.1,1.1-2.9,0-3.9l-2-2l0.3-0.5c2.3-4,2.3-9,0-13.1L27,9l2-2c0.5-0.5,0.8-1.2,0.8-2
			c0-0.7-0.3-1.4-0.8-2C27.9,2,26,2,25,3.1l-2,2l-0.5-0.3c-3.9-2.3-9.1-2.3-13.1,0L9,5l-2-2C6,2,4.1,2,3.1,3.1C2,4.2,2,5.9,3.1,7
			l2,2L4.7,9.5c-2.3,4-2.3,9,0,13.1L5,23l-2,2c-1.1,1.1-1.1,2.9,0,3.9C4.1,30,6,30,7,28.9l2-2l0.5,0.3c3.9,2.3,9.1,2.3,13.1,0L23,27
			z"/>
	</g>
	<g>
		<circle fill="#FFFFFF" cx="16" cy="16" r="10.4"/>
		<path fill="#74B1E0" d="M16,27.1c-3,0-5.8-1.2-7.8-3.3c-4.3-4.3-4.3-11.4,0-15.7C10.3,6.1,13,4.9,16,4.9c3,0,5.8,1.2,7.8,3.3
			c2.1,2.1,3.3,4.9,3.3,7.8c0,3-1.2,5.8-3.3,7.8C21.8,26,19,27.1,16,27.1z M16,6.4c-2.6,0-5,1-6.8,2.8c-3.7,3.7-3.7,9.8,0,13.6
			c1.8,1.8,4.2,2.8,6.8,2.8c2.6,0,5-1,6.8-2.8c1.8-1.8,2.8-4.2,2.8-6.8c0-2.6-1-5-2.8-6.8C21,7.4,18.6,6.4,16,6.4z"/>
	</g>
	<g>
		<g>
			<line fill="#CDE4F7" x1="27.7" y1="27.7" x2="26.9" y2="26.9"/>
			
				<rect x="26.7" y="26.5" transform="matrix(0.7075 0.7067 -0.7067 0.7075 27.2545 -11.299)" fill="#74B1E0" width="1.2" height="1.5"/>
		</g>
		<g>
			<line fill="#CDE4F7" x1="5.1" y1="5.1" x2="4.3" y2="4.3"/>
			<rect x="4.1" y="4" transform="matrix(0.7075 0.7067 -0.7067 0.7075 4.7192 -1.9566)" fill="#74B1E0" width="1.2" height="1.5"/>
		</g>
	</g>
	<g>
		<g>
			<line fill="#CDE4F7" x1="27.7" y1="4.3" x2="26.9" y2="5.1"/>
			
				<rect x="26.5" y="4.1" transform="matrix(0.7071 0.7071 -0.7071 0.7071 11.3301 -17.9062)" fill="#74B1E0" width="1.5" height="1.2"/>
		</g>
		<g>
			<line fill="#CDE4F7" x1="5.1" y1="26.9" x2="4.3" y2="27.7"/>
			<rect x="4" y="26.7" transform="matrix(0.7071 0.7071 -0.7071 0.7071 20.67 4.6494)" fill="#74B1E0" width="1.5" height="1.2"/>
		</g>
	</g>
	<g>
		<g>
			<path fill="#F0F7F7" d="M17.8,16.8c0.8,0.5,2.2,0.8,3.3,0.8c2,0,2.8-1,2.8-1.8c0-0.8-0.9-1.5-2.8-1.5c-1.2,0-2.6,0.3-3.4,0.7
				c0.2,0.3,0.3,0.6,0.3,1C18,16.3,17.9,16.6,17.8,16.8z"/>
			<path fill="#8F9BA8" d="M21.1,18.4c-1.2,0-2.7-0.4-3.7-0.9l-0.6-0.3l0.3-0.6c0.1-0.2,0.1-0.3,0.1-0.5c0-0.2-0.1-0.4-0.2-0.6
				l-0.4-0.7l0.7-0.4c0.9-0.5,2.4-0.7,3.8-0.7c2.6,0,3.6,1.2,3.6,2.3C24.7,17.1,23.4,18.4,21.1,18.4z M18.7,16.5
				c0.7,0.3,1.7,0.5,2.4,0.5c1.4,0,2.1-0.6,2.1-1.1c0-0.4-0.7-0.8-2.1-0.8c-0.8,0-1.7,0.1-2.5,0.4c0,0.2,0.1,0.4,0.1,0.6
				C18.7,16.2,18.7,16.3,18.7,16.5z"/>
		</g>
		<g>
			<path fill="#F0F7F7" d="M14.3,15.2c-0.8-0.5-2.2-0.8-3.3-0.8c-2,0-2.8,1-2.8,1.8c0,0.8,0.9,1.5,2.8,1.5c1.2,0,2.6-0.3,3.4-0.7
				c-0.2-0.3-0.3-0.6-0.3-1C14.1,15.7,14.1,15.4,14.3,15.2z"/>
			<path fill="#8F9BA8" d="M10.9,18.4c-2.6,0-3.6-1.2-3.6-2.3c0-1.3,1.2-2.6,3.6-2.6c1.2,0,2.7,0.4,3.7,0.9l0.6,0.3l-0.3,0.6
				c-0.1,0.2-0.1,0.3-0.1,0.5c0,0.2,0.1,0.4,0.2,0.6l0.4,0.7l-0.7,0.4C13.7,18.1,12.3,18.4,10.9,18.4z M10.9,15.1
				c-1.4,0-2.1,0.6-2.1,1.1c0,0.4,0.7,0.8,2.1,0.8c0.8,0,1.7-0.1,2.5-0.4c0-0.2-0.1-0.4-0.1-0.6c0-0.1,0-0.3,0-0.4
				C12.6,15.3,11.7,15.1,10.9,15.1z"/>
		</g>
		<g>
			<path fill="#F0F7F7" d="M16.8,14.3c0.5-0.8,0.8-2.2,0.8-3.3c0-2-1-2.8-1.8-2.8c-0.8,0-1.5,0.9-1.5,2.8c0,1.2,0.3,2.6,0.7,3.4
				c0.3-0.2,0.6-0.3,1-0.3C16.3,14.1,16.6,14.1,16.8,14.3z"/>
			<path fill="#8F9BA8" d="M14.7,15.4l-0.4-0.7c-0.5-0.9-0.7-2.4-0.7-3.8c0-2.6,1.2-3.6,2.3-3.6c1.3,0,2.6,1.2,2.6,3.6
				c0,1.2-0.4,2.7-0.9,3.7l-0.3,0.6l-0.6-0.3c-0.4-0.2-0.8-0.2-1.1,0.1L14.7,15.4z M15.8,8.8c-0.4,0-0.8,0.7-0.8,2.1
				c0,0.8,0.1,1.7,0.4,2.5c0.3-0.1,0.7-0.1,1,0c0.3-0.7,0.5-1.7,0.5-2.4C16.9,9.5,16.3,8.8,15.8,8.8z"/>
		</g>
		<g>
			<path fill="#F0F7F7" d="M17.7,21.1c0-1.2-0.3-2.6-0.7-3.4c-0.3,0.2-0.6,0.3-1,0.3c-0.3,0-0.6-0.1-0.8-0.2
				c-0.5,0.8-0.8,2.2-0.8,3.3c0,2,1,2.8,1.8,2.8C17,23.9,17.7,23,17.7,21.1z"/>
			<path fill="#8F9BA8" d="M16.2,24.7c-1.3,0-2.6-1.2-2.6-3.6c0-1.2,0.4-2.7,0.9-3.7l0.3-0.6l0.6,0.3c0.4,0.2,0.8,0.2,1.1-0.1
				l0.7-0.4l0.4,0.7c0.5,0.9,0.7,2.4,0.7,3.8C18.4,23.7,17.3,24.7,16.2,24.7z M15.6,18.7c-0.3,0.7-0.5,1.7-0.5,2.4
				c0,1.4,0.6,2.1,1.1,2.1c0.4,0,0.8-0.7,0.8-2.1c0-0.8-0.1-1.7-0.4-2.5C16.3,18.7,15.9,18.7,15.6,18.7z"/>
		</g>
		<g>
			<path fill="#F0F7F7" d="M17,17.7c0.3-0.2,0.6-0.5,0.7-0.8c0.1-0.3,0.2-0.5,0.2-0.8c0-0.4-0.1-0.7-0.3-1c-0.2-0.3-0.5-0.6-0.8-0.7
				c-0.3-0.1-0.5-0.2-0.8-0.2c-0.4,0-0.7,0.1-1,0.3c-0.3,0.2-0.6,0.5-0.7,0.8c-0.1,0.3-0.2,0.5-0.2,0.8c0,0.4,0.1,0.7,0.3,1
				c0.2,0.3,0.5,0.6,0.8,0.7c0.3,0.1,0.5,0.2,0.8,0.2C16.4,18,16.7,17.8,17,17.7z"/>
			<path fill="#8F9BA8" d="M16,18.7c-0.4,0-0.8-0.1-1.2-0.3c-0.5-0.2-0.9-0.6-1.1-1c-0.3-0.4-0.4-0.9-0.4-1.4c0-0.4,0.1-0.8,0.3-1.2
				c0.2-0.5,0.6-0.9,1-1.1c0.8-0.5,1.7-0.5,2.6-0.1c0.5,0.2,0.9,0.6,1.1,1c0.3,0.4,0.4,0.9,0.4,1.4c0,0.4-0.1,0.8-0.3,1.2
				c-0.2,0.5-0.6,0.9-1,1.1C17,18.6,16.5,18.7,16,18.7z M16,14.8c-0.2,0-0.4,0.1-0.6,0.2c-0.2,0.1-0.4,0.3-0.5,0.5
				c-0.1,0.2-0.1,0.3-0.1,0.5c0,0.2,0.1,0.4,0.2,0.6c0.1,0.2,0.3,0.4,0.5,0.5c0.4,0.2,0.8,0.2,1.1-0.1c0.2-0.1,0.4-0.3,0.5-0.5
				c0.1-0.2,0.1-0.3,0.1-0.5c0-0.2-0.1-0.4-0.2-0.6c-0.1-0.2-0.3-0.4-0.5-0.5C16.4,14.9,16.2,14.8,16,14.8z"/>
		</g>
	</g>
</g>
</svg>
