<?xml version="1.0" encoding="utf-8"?>
<!-- Generator: Adobe Illustrator 18.0.0, SVG Export Plug-In . SVG Version: 6.00 Build 0)  -->
<!DOCTYPE svg PUBLIC "-//W3C//DTD SVG 1.1//EN" "http://www.w3.org/Graphics/SVG/1.1/DTD/svg11.dtd">
<svg version="1.1" id="Layer_1" xmlns="http://www.w3.org/2000/svg" xmlns:xlink="http://www.w3.org/1999/xlink" x="0px" y="0px"
	 viewBox="0 0 32 32" enable-background="new 0 0 32 32" xml:space="preserve">
<pattern  y="-336" width="24.1" height="24.1" patternUnits="userSpaceOnUse" id="New_Pattern_Swatch_1" viewBox="0 -24.1 24.1 24.1" overflow="visible">
	<g>
		<polygon fill="none" points="0,0 24.1,0 24.1,-24.1 0,-24.1 		"/>
		<polygon fill="#FEE99B" points="24.1,0 0,0 0,-24.1 24.1,-24.1 		"/>
	</g>
</pattern>
<pattern  y="-336" width="24.1" height="24.1" patternUnits="userSpaceOnUse" id="New_Pattern_Swatch_2" viewBox="0 -24.1 24.1 24.1" overflow="visible">
	<g>
		<polygon fill="none" points="0,0 24.1,0 24.1,-24.1 0,-24.1 		"/>
		<polygon fill="#E0CB81" points="24.1,0 0,0 0,-24.1 24.1,-24.1 		"/>
	</g>
</pattern>
<g>
	<path fill="#8F9BA8" d="M10.6,31.4l-10-10L18.3,3.7l10,10L10.6,31.4z M2.7,21.4l7.9,7.9l15.6-15.6l-7.9-7.9L2.7,21.4z"/>
	
		<rect x="11.1" y="12.8" transform="matrix(0.9841 0.1775 -0.1775 0.9841 2.691 -3.0676)" fill="#8F9BA8" width="14.8" height="1.5"/>
	<rect x="3.2" y="23.4" transform="matrix(0.9842 0.177 -0.177 0.9842 4.4201 -1.2664)" fill="#8F9BA8" width="12.2" height="1.5"/>
	<rect x="3.3" y="25" transform="matrix(0.7071 0.7071 -0.7071 0.7071 20.9643 5.3613)" fill="#8F9BA8" width="1.5" height="6"/>
	<g>
		<pattern  id="SVGID_1_" xlink:href="#New_Pattern_Swatch_1" patternTransform="matrix(1 0 0 1 -22.4595 -16.7292)">
		</pattern>
		<polygon fill="url(#SVGID_1_)" points="30.7,1.3 14.8,1.3 30.7,17.2 		"/>
		<pattern  id="SVGID_2_" xlink:href="#New_Pattern_Swatch_2" patternTransform="matrix(1 0 0 1 -22.4595 -16.7292)">
		</pattern>
		<path fill="url(#SVGID_2_)" d="M31.4,19L13,0.6h18.4V19z M16.6,2.1l13.3,13.3V2.1H16.6z"/>
	</g>
</g>
</svg>
