<?xml version="1.0" encoding="utf-8"?>
<!-- Generator: Adobe Illustrator 18.0.0, SVG Export Plug-In . SVG Version: 6.00 Build 0)  -->
<!DOCTYPE svg PUBLIC "-//W3C//DTD SVG 1.1//EN" "http://www.w3.org/Graphics/SVG/1.1/DTD/svg11.dtd">
<svg version="1.1" id="Layer_1" xmlns="http://www.w3.org/2000/svg" xmlns:xlink="http://www.w3.org/1999/xlink" x="0px" y="0px"
	 viewBox="0 0 32 32" enable-background="new 0 0 32 32" xml:space="preserve">
<g>
	<path fill="#8F9BA8" d="M27.2,16.5c-0.1,0-0.2,0-0.3-0.1c-0.3-0.1-0.4-0.4-0.4-0.7v-5.2c0-0.3,0.2-0.6,0.4-0.7
		c0.3-0.1,0.6-0.1,0.8,0.1l3.3,2.6c0.2,0.1,0.3,0.4,0.3,0.6c0,0.2-0.1,0.4-0.3,0.6l-3.3,2.6C27.6,16.5,27.4,16.5,27.2,16.5z
		 M28,12.1v2.1l1.3-1.1L28,12.1z"/>
	<path fill="#8F9BA8" d="M4.8,16.5c-0.2,0-0.3-0.1-0.5-0.2L1,13.7c-0.2-0.1-0.3-0.4-0.3-0.6c0-0.2,0.1-0.4,0.3-0.6l3.3-2.6
		c0.2-0.2,0.5-0.2,0.8-0.1c0.3,0.1,0.4,0.4,0.4,0.7v5.2c0,0.3-0.2,0.6-0.4,0.7C5,16.5,4.9,16.5,4.8,16.5z M2.7,13.1L4,14.2v-2.1
		L2.7,13.1z"/>
	<path fill="#8F9BA8" d="M20.8,6.1h-9.6c-0.3,0-0.6-0.2-0.7-0.5c-0.1-0.3,0-0.6,0.2-0.8L15.5,1c0.3-0.2,0.7-0.2,0.9,0l4.8,3.8
		c0.2,0.2,0.3,0.5,0.2,0.8C21.4,5.9,21.1,6.1,20.8,6.1z M13.3,4.6h5.3L16,2.5L13.3,4.6z"/>
	<path fill="#8F9BA8" d="M30.5,31.3h-29c-0.4,0-0.8-0.3-0.8-0.8V13.1c0-0.3,0.2-0.6,0.4-0.7c0.3-0.1,0.6-0.1,0.8,0.1l14,11.3
		l14-11.3c0.2-0.2,0.5-0.2,0.8-0.1c0.3,0.1,0.4,0.4,0.4,0.7v17.4c0,0.2-0.1,0.4-0.2,0.5C30.9,31.2,30.7,31.3,30.5,31.3z M2.3,29.8
		h27.5v-15L16.5,25.4c-0.3,0.2-0.7,0.2-0.9,0L2.3,14.7V29.8z"/>
	
		<rect x="18.6" y="25" transform="matrix(-0.7256 -0.6881 0.6881 -0.7256 26.3045 61.9871)" fill="#8F9BA8" width="13.8" height="1.5"/>
	
		<rect x="5.7" y="18.9" transform="matrix(-0.6883 -0.7254 0.7254 -0.6883 -7.8135 48.1603)" fill="#8F9BA8" width="1.5" height="13.8"/>
	<g>
		<polygon fill="#FAC2C3" points="20.8,5.3 11.2,5.3 4.8,5.3 4.8,10.5 4.8,15.8 16,24.8 27.2,15.8 27.2,10.5 27.2,5.3 		"/>
		<path fill="#DA8C8C" d="M16,25.8L4,16.1V4.6h24v11.5L16,25.8z M5.5,15.4L16,23.8l10.5-8.4V6.1h-21V15.4z"/>
	</g>
	<g>
		<line fill="none" x1="9.7" y1="10" x2="22.3" y2="10"/>
		<rect x="9.7" y="9.3" fill="#DA8C8C" width="12.5" height="1.5"/>
	</g>
	<g>
		<line fill="none" x1="9.7" y1="14.4" x2="22.3" y2="14.4"/>
		<rect x="9.7" y="13.7" fill="#DA8C8C" width="12.5" height="1.5"/>
	</g>
</g>
</svg>
