<?xml version="1.0" encoding="utf-8"?>
<!-- Generator: Adobe Illustrator 18.0.0, SVG Export Plug-In . SVG Version: 6.00 Build 0)  -->
<!DOCTYPE svg PUBLIC "-//W3C//DTD SVG 1.1//EN" "http://www.w3.org/Graphics/SVG/1.1/DTD/svg11.dtd">
<svg version="1.1" id="Layer_1" xmlns="http://www.w3.org/2000/svg" xmlns:xlink="http://www.w3.org/1999/xlink" x="0px" y="0px"
	 viewBox="0 0 32 32" enable-background="new 0 0 32 32" xml:space="preserve">
<g>
	<polygon fill="#8F9BA8" points="27.3,9.2 15.5,2.4 4.8,9.2 4,7.9 15.5,0.7 28,7.9 	"/>
	<g>
		<circle fill="#F9F8F2" cx="16" cy="12.3" r="3.9"/>
		<path fill="#B4A79C" d="M16,16.9c-2.5,0-4.6-2.1-4.6-4.6c0-2.5,2.1-4.6,4.6-4.6c2.5,0,4.6,2.1,4.6,4.6
			C20.6,14.9,18.6,16.9,16,16.9z M16,9.2c-1.7,0-3.1,1.4-3.1,3.1c0,1.7,1.4,3.1,3.1,3.1c1.7,0,3.1-1.4,3.1-3.1
			C19.1,10.6,17.7,9.2,16,9.2z"/>
	</g>
	<rect x="15.3" y="21.8" fill="#8F9BA8" width="1.5" height="3.5"/>
	<path fill="#8F9BA8" d="M16,31.3c-1.9,0-3.4-1.5-3.4-3.4c0-1.9,1.5-3.4,3.4-3.4c1.9,0,3.4,1.5,3.4,3.4C19.4,29.8,17.9,31.3,16,31.3
		z M16,26.1c-1,0-1.9,0.8-1.9,1.9c0,1,0.8,1.9,1.9,1.9c1,0,1.9-0.8,1.9-1.9C17.9,26.9,17,26.1,16,26.1z"/>
	<path fill="#8F9BA8" d="M21.9,22.6H10.1c-1.9,0-3.5-1.6-3.5-3.5V6.3l8.9-5.6l9.9,5.7v12.7C25.4,21,23.8,22.6,21.9,22.6z M8.1,7.1
		v12c0,1.1,0.9,2,2,2h11.8c1.1,0,2-0.9,2-2V7.3l-8.4-4.9L8.1,7.1z"/>
</g>
</svg>
