<?xml version="1.0" encoding="utf-8"?>
<!-- Generator: Adobe Illustrator 18.0.0, SVG Export Plug-In . SVG Version: 6.00 Build 0)  -->
<!DOCTYPE svg PUBLIC "-//W3C//DTD SVG 1.1//EN" "http://www.w3.org/Graphics/SVG/1.1/DTD/svg11.dtd">
<svg version="1.1" id="Layer_1" xmlns="http://www.w3.org/2000/svg" xmlns:xlink="http://www.w3.org/1999/xlink" x="0px" y="0px"
	 viewBox="0 0 32 32" enable-background="new 0 0 32 32" xml:space="preserve">
<g>
	<path fill="#8F9BA8" d="M5.4,23.2l-1-1.1c0.1-0.1,6.3-5.5,9-15.1c0.1-0.2,0.2-0.4,0.4-0.5c0.2-0.1,0.4-0.1,0.6,0
		c0.4,0.2,10.9,5.1,13.4,16l-1.5,0.3c-2-8.5-9.4-13.2-11.8-14.6C11.7,17.8,5.7,22.9,5.4,23.2z"/>
	<path fill="#8F9BA8" d="M13.4,7.8c-1.9,0-3.4-1.5-3.4-3.4c0-1.9,1.5-3.4,3.4-3.4c1.9,0,3.4,1.5,3.4,3.4C16.8,6.3,15.3,7.8,13.4,7.8
		z M13.4,2.5c-1.1,0-1.9,0.9-1.9,1.9c0,1.1,0.9,1.9,1.9,1.9c1.1,0,1.9-0.9,1.9-1.9C15.3,3.3,14.4,2.5,13.4,2.5z"/>
	<g>
		<path fill="#CDE4F7" d="M26.7,30.3H5.3c-2.1,0-3.8-1.7-3.8-3.8l0,0c0-2.1,1.7-3.8,3.8-3.8h21.3c2.1,0,3.8,1.7,3.8,3.8l0,0
			C30.5,28.6,28.8,30.3,26.7,30.3z"/>
		<path fill="#74B1E0" d="M26.7,31H5.3c-2.5,0-4.6-2.1-4.6-4.6c0-2.5,2.1-4.6,4.6-4.6h21.3c2.5,0,4.6,2.1,4.6,4.6
			C31.3,29,29.2,31,26.7,31z M5.3,23.4c-1.7,0-3.1,1.4-3.1,3.1c0,1.7,1.4,3.1,3.1,3.1h21.3c1.7,0,3.1-1.4,3.1-3.1
			c0-1.7-1.4-3.1-3.1-3.1H5.3z"/>
	</g>
</g>
</svg>
