<?xml version="1.0" encoding="utf-8"?>
<!-- Generator: Adobe Illustrator 18.0.0, SVG Export Plug-In . SVG Version: 6.00 Build 0)  -->
<!DOCTYPE svg PUBLIC "-//W3C//DTD SVG 1.1//EN" "http://www.w3.org/Graphics/SVG/1.1/DTD/svg11.dtd">
<svg version="1.1" id="Layer_1" xmlns="http://www.w3.org/2000/svg" xmlns:xlink="http://www.w3.org/1999/xlink" x="0px" y="0px"
	 viewBox="0 0 32 32" enable-background="new 0 0 32 32" xml:space="preserve">
<g>
	<g>
		<path fill="#F0F7F7" d="M6.1,5.4C7.9,7.2,9,9.7,9,12.4v4c0,3.9,3.1,7,7,7h0c3.9,0,7-3.1,7-7v-4c0-2.7,1.1-5.2,2.9-7
			c-2.6-2.5-6.2-4-10.1-3.9C12.1,1.6,8.7,3.1,6.1,5.4z"/>
		<path fill="#8F9BA8" d="M16,24.2c-4.3,0-7.7-3.5-7.7-7.7v-4c0-2.4-1-4.7-2.7-6.5L5,5.4l0.6-0.5C8.4,2.3,12,0.8,15.8,0.8l0.2,0
			c3.9,0,7.6,1.5,10.4,4.1L27,5.4L26.4,6c-1.7,1.7-2.7,4-2.7,6.5v4C23.7,20.7,20.3,24.2,16,24.2z M7.2,5.5c1.7,1.9,2.6,4.4,2.6,6.9
			v4c0,3.4,2.8,6.2,6.2,6.2c3.4,0,6.2-2.8,6.2-6.2v-4c0-2.6,0.9-5,2.6-7c-2.5-2.1-5.6-3.2-8.8-3.2l-0.2,0C12.7,2.3,9.6,3.5,7.2,5.5z
			"/>
	</g>
	<path fill="#8F9BA8" d="M16,31.2c-8.3,0-15.1-6.7-15.2-15C0.7,12,2.5,7.8,5.6,4.9l0.5-0.5l0.5,0.5c2,2,3.1,4.7,3.1,7.5v4
		c0,3.4,2.8,6.2,6.2,6.2c3.4,0,6.2-2.8,6.2-6.2v-4c0-2.9,1.1-5.5,3.1-7.5l0.5-0.5l0.5,0.5c3.1,2.9,4.8,6.7,4.8,10.9
		c0.1,8.4-6.6,15.3-15.1,15.5L16,31.2z M6.1,6.5c-2.5,2.6-3.9,6.1-3.8,9.7C2.3,23.7,8.5,29.7,16,29.7l0.2,0
		c7.6-0.1,13.7-6.4,13.6-13.9c0-3.5-1.4-6.8-3.8-9.3c-1.4,1.7-2.2,3.7-2.2,5.9v4c0,4.3-3.5,7.7-7.7,7.7s-7.7-3.5-7.7-7.7v-4
		C8.3,10.2,7.5,8.2,6.1,6.5z"/>
</g>
</svg>
