<?xml version="1.0" encoding="utf-8"?>
<!-- Generator: Adobe Illustrator 18.0.0, SVG Export Plug-In . SVG Version: 6.00 Build 0)  -->
<!DOCTYPE svg PUBLIC "-//W3C//DTD SVG 1.1//EN" "http://www.w3.org/Graphics/SVG/1.1/DTD/svg11.dtd">
<svg version="1.1" id="Layer_1" xmlns="http://www.w3.org/2000/svg" xmlns:xlink="http://www.w3.org/1999/xlink" x="0px" y="0px"
	 viewBox="0 0 32 32" enable-background="new 0 0 32 32" xml:space="preserve">
<g>
	<path fill="#79C693" d="M24.4,30.4c-3.8,0-6.8-3-6.8-6.7c0-3.7,3.1-6.7,6.8-6.7c3.8,0,6.8,3,6.8,6.7C31.3,27.3,28.2,30.4,24.4,30.4
		z M24.4,18.4c-2.9,0-5.3,2.3-5.3,5.2c0,2.9,2.4,5.2,5.3,5.2c2.9,0,5.3-2.3,5.3-5.2C29.8,20.7,27.4,18.4,24.4,18.4z"/>
	<rect x="23.7" y="1.6" fill="#79C693" width="1.5" height="16"/>
	<path fill="#79C693" d="M7.6,30.4c-3.8,0-6.8-3-6.8-6.7c0-3.7,3.1-6.7,6.8-6.7c3.8,0,6.8,3,6.8,6.7C14.4,27.3,11.3,30.4,7.6,30.4z
		 M7.6,18.4c-2.9,0-5.3,2.3-5.3,5.2c0,2.9,2.4,5.2,5.3,5.2c2.9,0,5.3-2.3,5.3-5.2C12.9,20.7,10.5,18.4,7.6,18.4z"/>
	<rect x="6.8" y="1.6" fill="#79C693" width="1.5" height="16"/>
</g>
</svg>
