<?xml version="1.0" encoding="utf-8"?>
<!-- Generator: Adobe Illustrator 18.0.0, SVG Export Plug-In . SVG Version: 6.00 Build 0)  -->
<!DOCTYPE svg PUBLIC "-//W3C//DTD SVG 1.1//EN" "http://www.w3.org/Graphics/SVG/1.1/DTD/svg11.dtd">
<svg version="1.1" id="Layer_1" xmlns="http://www.w3.org/2000/svg" xmlns:xlink="http://www.w3.org/1999/xlink" x="0px" y="0px"
	 viewBox="0 0 32 32" enable-background="new 0 0 32 32" xml:space="preserve">
<g>
	<path fill="#8F9BA8" d="M19.2,25.7L16,22.3l-3.2,3.3L0.4,14.6L16,0.6l15.6,13.9L19.2,25.7z M16,20.1l3.3,3.4l10.1-9L16,2.6
		L2.6,14.6l10.1,9L16,20.1z"/>
	<rect x="15.2" y="1.6" fill="#8F9BA8" width="1.5" height="19.6"/>
	<path fill="#8F9BA8" d="M2.1,15.1L1,14c3.3-3.4,8.9-5.4,15-5.4c6.1,0,11.7,2,15,5.4l-1.1,1c-3-3.1-8.2-4.9-13.9-4.9
		C10.3,10.2,5.1,12,2.1,15.1z"/>
	<g>
		<polygon fill="#F2E8B9" points="19.2,24.6 16,21.2 12.8,24.6 7.1,30.6 24.9,30.6 		"/>
		<path fill="#B4A042" d="M26.7,31.4H5.3L16,20.1L26.7,31.4z M8.8,29.9h14.4L16,22.3L8.8,29.9z"/>
	</g>
</g>
</svg>
