<?xml version="1.0" encoding="utf-8"?>
<!-- Generator: Adobe Illustrator 18.0.0, SVG Export Plug-In . SVG Version: 6.00 Build 0)  -->
<!DOCTYPE svg PUBLIC "-//W3C//DTD SVG 1.1//EN" "http://www.w3.org/Graphics/SVG/1.1/DTD/svg11.dtd">
<svg version="1.1" id="Layer_1" xmlns="http://www.w3.org/2000/svg" xmlns:xlink="http://www.w3.org/1999/xlink" x="0px" y="0px"
	 viewBox="0 0 32 32" enable-background="new 0 0 32 32" xml:space="preserve">
<g>
	<g>
		<path fill="#FAC2C3" d="M25,12.4c0,5.7-4.6,10.3-10.3,10.3c-5.7,0-10.3-4.6-10.3-10.3c0-5.7,4.6-10.3,10.3-10.3
			C20.4,2.1,25,6.7,25,12.4z"/>
		<path fill="#DA8C8C" d="M14.7,23.4c-6.1,0-11-4.9-11-11s4.9-11,11-11c6.1,0,11,4.9,11,11S20.8,23.4,14.7,23.4z M14.7,2.9
			c-5.2,0-9.5,4.3-9.5,9.5c0,5.2,4.3,9.5,9.5,9.5c5.2,0,9.5-4.3,9.5-9.5C24.3,7.2,20,2.9,14.7,2.9z"/>
	</g>
	<path fill="#8F9BA8" d="M14.7,26.3c-3.5,0-6.7-1.3-9.3-3.6l-1.1,1.1l-1.1-1.1l2.1-2.1L6,21.2c4.8,4.8,12.7,4.8,17.6,0
		c2.3-2.3,3.6-5.5,3.6-8.8c0-3.3-1.3-6.4-3.6-8.8L23,3.1l2.2-2.2l1.1,1.1l-1.2,1.2c2.3,2.6,3.6,5.8,3.6,9.3c0,3.7-1.4,7.2-4.1,9.8
		C22,24.9,18.5,26.3,14.7,26.3z"/>
	<rect x="14" y="25.5" fill="#8F9BA8" width="1.5" height="4.9"/>
	<rect x="5.6" y="29.6" fill="#8F9BA8" width="18.2" height="1.5"/>
</g>
</svg>
