<?xml version="1.0" encoding="utf-8"?>
<!-- Generator: Adobe Illustrator 18.0.0, SVG Export Plug-In . SVG Version: 6.00 Build 0)  -->
<!DOCTYPE svg PUBLIC "-//W3C//DTD SVG 1.1//EN" "http://www.w3.org/Graphics/SVG/1.1/DTD/svg11.dtd">
<svg version="1.1" id="Layer_1" xmlns="http://www.w3.org/2000/svg" xmlns:xlink="http://www.w3.org/1999/xlink" x="0px" y="0px"
	 viewBox="0 0 32 32" enable-background="new 0 0 32 32" xml:space="preserve">
<g>
	<g>
		<line fill="#F9F8F2" x1="16" y1="1.5" x2="16" y2="3.7"/>
		<rect x="15.3" y="1.5" fill="#B4A79C" width="1.5" height="2.2"/>
	</g>
	<g>
		<line fill="#F9F8F2" x1="16" y1="28.3" x2="16" y2="30.5"/>
		<rect x="15.3" y="28.3" fill="#B4A79C" width="1.5" height="2.2"/>
	</g>
	<g>
		<line fill="#F9F8F2" x1="30.5" y1="16" x2="28.3" y2="16"/>
		<rect x="28.3" y="15.3" fill="#B4A79C" width="2.2" height="1.5"/>
	</g>
	<g>
		<line fill="#F9F8F2" x1="3.7" y1="16" x2="1.5" y2="16"/>
		<rect x="1.5" y="15.3" fill="#B4A79C" width="2.2" height="1.5"/>
	</g>
	<path fill="#8F9BA8" d="M16,31.3C7.6,31.3,0.8,24.4,0.8,16C0.8,7.6,7.6,0.7,16,0.7c8.4,0,15.2,6.8,15.2,15.3
		C31.2,24.4,24.4,31.3,16,31.3z M16,2.2C8.4,2.2,2.3,8.4,2.3,16c0,7.6,6.2,13.8,13.7,13.8c7.6,0,13.7-6.2,13.7-13.8
		C29.7,8.4,23.6,2.2,16,2.2z"/>
	<g>
		<polygon fill="#F9F8F2" points="23.3,8.7 13.1,13.1 8.7,23.3 18.9,18.9 		"/>
		<path fill="#B4A79C" d="M8.7,24.1c-0.2,0-0.4-0.1-0.5-0.2C7.9,23.7,7.8,23.3,8,23l4.4-10.3c0.1-0.2,0.2-0.3,0.4-0.4L23.1,8
			c0.3-0.1,0.6-0.1,0.8,0.2C24.1,8.3,24.2,8.7,24,9l-4.4,10.3c-0.1,0.2-0.2,0.3-0.4,0.4L8.9,24C8.9,24.1,8.8,24.1,8.7,24.1z
			 M13.6,13.6l-3.6,8.3l8.3-3.6l3.6-8.3L13.6,13.6z"/>
	</g>
	<g>
		<circle fill="#F9F8F2" cx="16" cy="16" r="1.5"/>
		<path fill="#B4A042" d="M16,18.3c-1.2,0-2.3-1-2.3-2.3s1-2.3,2.3-2.3c1.2,0,2.3,1,2.3,2.3S17.2,18.3,16,18.3z M16,15.2
			c-0.4,0-0.8,0.3-0.8,0.8s0.3,0.8,0.8,0.8c0.4,0,0.8-0.3,0.8-0.8S16.4,15.2,16,15.2z"/>
	</g>
</g>
</svg>
