<?xml version="1.0" encoding="utf-8"?>
<!-- Generator: Adobe Illustrator 18.0.0, SVG Export Plug-In . SVG Version: 6.00 Build 0)  -->
<!DOCTYPE svg PUBLIC "-//W3C//DTD SVG 1.1//EN" "http://www.w3.org/Graphics/SVG/1.1/DTD/svg11.dtd">
<svg version="1.1" id="Layer_1" xmlns="http://www.w3.org/2000/svg" xmlns:xlink="http://www.w3.org/1999/xlink" x="0px" y="0px"
	 viewBox="0 0 32 32" enable-background="new 0 0 32 32" xml:space="preserve">
<g>
	<path fill="#8F9BA8" d="M13.3,31.3c-5.8,0-12-1.8-12-5.2c0-3.4,6.2-5.2,12-5.2c5.8,0,12,1.8,12,5.2C25.3,29.4,19.1,31.3,13.3,31.3z
		 M13.3,22.4c-6,0-10.5,1.9-10.5,3.7c0,1.7,4.5,3.7,10.5,3.7c6,0,10.5-1.9,10.5-3.7C23.8,24.4,19.3,22.4,13.3,22.4z"/>
	<path fill="#79C693" d="M30,11.8H13.3c-0.4,0-0.8-0.3-0.8-0.8V1.5c0-0.4,0.3-0.8,0.8-0.8H30c0.3,0,0.6,0.2,0.7,0.5
		c0.1,0.3,0,0.6-0.2,0.8l-4.6,4.2l4.6,4.3c0.2,0.2,0.3,0.5,0.2,0.8C30.6,11.6,30.3,11.8,30,11.8z M14,10.3h14.1l-3.8-3.6
		c-0.2-0.1-0.2-0.3-0.2-0.6c0-0.2,0.1-0.4,0.2-0.5l3.7-3.4H14V10.3z"/>
	<rect x="12.5" y="1.5" fill="#79C693" width="1.5" height="25.2"/>
</g>
</svg>
