<?xml version="1.0" encoding="utf-8"?>
<!-- Generator: Adobe Illustrator 18.0.0, SVG Export Plug-In . SVG Version: 6.00 Build 0)  -->
<!DOCTYPE svg PUBLIC "-//W3C//DTD SVG 1.1//EN" "http://www.w3.org/Graphics/SVG/1.1/DTD/svg11.dtd">
<svg version="1.1" id="Layer_1" xmlns="http://www.w3.org/2000/svg" xmlns:xlink="http://www.w3.org/1999/xlink" x="0px" y="0px"
	 viewBox="0 0 32 32" enable-background="new 0 0 32 32" xml:space="preserve">
<g>
	<path fill="#8F9BA8" d="M16.2,31.4L0.6,15.8L15.4,0.6h16v14L16.2,31.4z M2.7,15.8l13.4,13.4L29.9,14V2.1H16L2.7,15.8z"/>
	
		<rect x="13.3" y="6.3" transform="matrix(0.7071 0.7071 -0.7071 0.7071 12.3484 -6.547)" fill="#79C693" width="1.5" height="10.7"/>
	
		<rect x="18.7" y="11.6" transform="matrix(0.7071 0.7071 -0.7071 0.7071 17.6715 -8.7525)" fill="#79C693" width="1.5" height="10.7"/>
	<path fill="#8F9BA8" d="M25.2,9.9c-1.9,0-3.5-1.6-3.5-3.5c0-1.9,1.6-3.5,3.5-3.5c1.9,0,3.5,1.6,3.5,3.5C28.7,8.3,27.1,9.9,25.2,9.9
		z M25.2,4.4c-1.1,0-2,0.9-2,2c0,1.1,0.9,2,2,2c1.1,0,2-0.9,2-2C27.2,5.3,26.3,4.4,25.2,4.4z"/>
</g>
</svg>
