<?xml version="1.0" encoding="utf-8"?>
<!-- Generator: Adobe Illustrator 18.0.0, SVG Export Plug-In . SVG Version: 6.00 Build 0)  -->
<!DOCTYPE svg PUBLIC "-//W3C//DTD SVG 1.1//EN" "http://www.w3.org/Graphics/SVG/1.1/DTD/svg11.dtd">
<svg version="1.1" id="Layer_1" xmlns="http://www.w3.org/2000/svg" xmlns:xlink="http://www.w3.org/1999/xlink" x="0px" y="0px"
	 viewBox="0 0 32 32" enable-background="new 0 0 32 32" xml:space="preserve">
<g>
	<path fill="#8F9BA8" d="M15.8,31.4L0.6,14.5v-14h16l14.8,15.3L15.8,31.4z M2.1,14l13.8,15.3l13.4-13.4L16,2.1H2.1V14z"/>
	<rect x="9.7" y="14.6" fill="#B4A042" width="12.3" height="1.5"/>
	<rect x="15.1" y="9.3" fill="#B4A042" width="1.5" height="12.3"/>
	<path fill="#8F9BA8" d="M6.7,9.4C5,9.4,3.5,8,3.5,6.3S5,3.1,6.7,3.1c1.7,0,3.1,1.4,3.1,3.2S8.4,9.4,6.7,9.4z M6.7,4.6
		C5.8,4.6,5,5.4,5,6.3c0,0.9,0.7,1.7,1.7,1.7c0.9,0,1.6-0.7,1.6-1.7C8.3,5.4,7.6,4.6,6.7,4.6z"/>
</g>
</svg>
