<?xml version="1.0" encoding="utf-8"?>
<!-- Generator: Adobe Illustrator 18.0.0, SVG Export Plug-In . SVG Version: 6.00 Build 0)  -->
<!DOCTYPE svg PUBLIC "-//W3C//DTD SVG 1.1//EN" "http://www.w3.org/Graphics/SVG/1.1/DTD/svg11.dtd">
<svg version="1.1" id="Layer_1" xmlns="http://www.w3.org/2000/svg" xmlns:xlink="http://www.w3.org/1999/xlink" x="0px" y="0px"
	 viewBox="0 0 32 32" enable-background="new 0 0 32 32" xml:space="preserve">
<g>
	<path fill="#DA8C8C" d="M16,24.8c-4.9,0-8.8-4-8.8-8.8c0-4.9,4-8.8,8.8-8.8c4.9,0,8.8,4,8.8,8.8C24.8,20.9,20.9,24.8,16,24.8z
		 M16,8.8c-4,0-7.2,3.2-7.2,7.2s3.2,7.2,7.2,7.2s7.2-3.2,7.2-7.2S20,8.8,16,8.8z"/>
	<rect x="15.2" y="0.7" fill="#DA8C8C" width="1.6" height="7.6"/>
	
		<rect x="11.4" y="2.9" transform="matrix(-0.6787 -0.7344 0.7344 -0.6787 21.0514 16.6452)" fill="#DA8C8C" width="5.5" height="1.6"/>
	
		<rect x="17.1" y="1" transform="matrix(-0.7346 -0.6785 0.6785 -0.7346 28.4488 18.6695)" fill="#DA8C8C" width="1.6" height="5.5"/>
	<rect x="15.2" y="23.7" fill="#DA8C8C" width="1.6" height="7.6"/>
	
		<rect x="15.1" y="27.5" transform="matrix(-0.679 -0.7341 0.7341 -0.679 9.1761 60.576)" fill="#DA8C8C" width="5.5" height="1.6"/>
	
		<rect x="13.3" y="25.5" transform="matrix(-0.7346 -0.6785 0.6785 -0.7346 5.3465 58.5503)" fill="#DA8C8C" width="1.6" height="5.5"/>
	<rect x="23.7" y="15.2" fill="#DA8C8C" width="7.6" height="1.6"/>
	
		<rect x="27.5" y="11.4" transform="matrix(-0.6785 -0.7346 0.7346 -0.6785 37.061 44.5576)" fill="#DA8C8C" width="1.6" height="5.5"/>
	
		<rect x="25.5" y="17.1" transform="matrix(-0.7344 -0.6787 0.6787 -0.7344 36.8297 50.1622)" fill="#DA8C8C" width="5.5" height="1.6"/>
	<rect x="0.7" y="15.2" fill="#DA8C8C" width="7.6" height="1.6"/>
	
		<rect x="2.9" y="15.1" transform="matrix(-0.6786 -0.7345 0.7345 -0.6786 -6.8569 32.6635)" fill="#DA8C8C" width="1.6" height="5.5"/>
	
		<rect x="1" y="13.4" transform="matrix(-0.7342 -0.6789 0.6789 -0.7342 -3.2158 27.1363)" fill="#DA8C8C" width="5.5" height="1.6"/>
	
		<rect x="23.3" y="4.1" transform="matrix(-0.7071 -0.7071 0.7071 -0.7071 35.5523 30.5164)" fill="#DA8C8C" width="1.6" height="7.6"/>
	
		<rect x="22.6" y="3.3" transform="matrix(-0.9992 -3.908774e-002 3.908774e-002 -0.9992 46.5404 13.0125)" fill="#DA8C8C" width="1.6" height="5.5"/>
	
		<rect x="25.2" y="5.9" transform="matrix(-3.902378e-002 -0.9992 0.9992 -3.902378e-002 18.3563 34.9435)" fill="#DA8C8C" width="1.6" height="5.5"/>
	
		<rect x="7.1" y="20.3" transform="matrix(-0.7071 -0.7071 0.7071 -0.7071 -3.5544 46.7361)" fill="#DA8C8C" width="1.6" height="7.6"/>
	
		<rect x="7.9" y="23.3" transform="matrix(-0.9992 -3.909036e-002 3.909036e-002 -0.9992 16.3697 52.4229)" fill="#DA8C8C" width="1.6" height="5.5"/>
	
		<rect x="5.2" y="20.6" transform="matrix(-3.908775e-002 -0.9992 0.9992 -3.908775e-002 -17.0807 30.2792)" fill="#DA8C8C" width="1.6" height="5.5"/>
	
		<rect x="20.3" y="23.3" transform="matrix(-0.7071 -0.7071 0.7071 -0.7071 24.1104 58.1821)" fill="#DA8C8C" width="7.6" height="1.6"/>
	
		<rect x="23.3" y="22.6" transform="matrix(-0.9992 -3.934551e-002 3.934551e-002 -0.9992 51.1547 47.8099)" fill="#DA8C8C" width="5.5" height="1.6"/>
	
		<rect x="20.6" y="25.2" transform="matrix(-3.934552e-002 -0.9992 0.9992 -3.934552e-002 -1.6885 50.3388)" fill="#DA8C8C" width="5.5" height="1.6"/>
	<rect x="4.1" y="7.1" transform="matrix(-0.7072 -0.707 0.707 -0.7072 7.8947 19.073)" fill="#DA8C8C" width="7.6" height="1.6"/>
	
		<rect x="3.3" y="7.9" transform="matrix(-0.9992 -3.916850e-002 3.916850e-002 -0.9992 11.7494 17.6328)" fill="#DA8C8C" width="5.5" height="1.6"/>
	
		<rect x="5.9" y="5.2" transform="matrix(-3.896970e-002 -0.9992 0.9992 -3.896970e-002 2.9708 14.8941)" fill="#DA8C8C" width="5.5" height="1.6"/>
</g>
</svg>
