<?xml version="1.0" encoding="utf-8"?>
<!-- Generator: Adobe Illustrator 18.0.0, SVG Export Plug-In . SVG Version: 6.00 Build 0)  -->
<!DOCTYPE svg PUBLIC "-//W3C//DTD SVG 1.1//EN" "http://www.w3.org/Graphics/SVG/1.1/DTD/svg11.dtd">
<svg version="1.1" id="Layer_1" xmlns="http://www.w3.org/2000/svg" xmlns:xlink="http://www.w3.org/1999/xlink" x="0px" y="0px"
	 viewBox="0 0 32 32" enable-background="new 0 0 32 32" xml:space="preserve">
<g>
	<path fill="#8F9BA8" d="M25.5,18.6l-1.2-0.8c1.1-1.6,1.7-3.6,1.7-5.6c0-5.5-4.5-10-10-10c-5.5,0-10,4.5-10,10c0,2,0.6,3.9,1.7,5.6
		l-1.2,0.8c-1.3-1.9-2-4.1-2-6.4C4.5,5.9,9.7,0.7,16,0.7c6.3,0,11.5,5.1,11.5,11.5C27.5,14.5,26.8,16.7,25.5,18.6z M12.1,16.9
		c-1.4-1.2-2.2-2.9-2.2-4.7c0-3.3,2.7-6.1,6.1-6.1c3.3,0,6.1,2.7,6.1,6.1c0,1.8-0.8,3.5-2.2,4.6l-1-1.1c1-0.9,1.6-2.1,1.6-3.5
		c0-2.5-2-4.6-4.6-4.6c-2.5,0-4.6,2-4.6,4.6c0,1.4,0.6,2.6,1.6,3.5L12.1,16.9z"/>
	<g>
		<polyline fill="#F9F8F2" points="13,20.4 13,30.5 15.9,27.1 19.2,30.5 19.2,20.3 		"/>
		<path fill="#B4A79C" d="M13,31.2c-0.1,0-0.2,0-0.3,0c-0.3-0.1-0.5-0.4-0.5-0.7V20.4h1.5v8.1l1.6-1.9c0.1-0.2,0.3-0.2,0.5-0.3
			c0.2,0,0.4,0.1,0.6,0.2l2,2v-8.3H20v10.2c0,0.3-0.2,0.6-0.5,0.7c-0.3,0.1-0.6,0-0.8-0.2L16,28.2L13.5,31
			C13.4,31.2,13.2,31.2,13,31.2z"/>
	</g>
	<rect x="15.3" y="4" fill="#8F9BA8" width="1.5" height="1"/>
	<rect x="7.6" y="11.6" fill="#8F9BA8" width="1" height="1.5"/>
	<rect x="23.4" y="11.6" fill="#8F9BA8" width="1" height="1.5"/>
	
		<rect x="20.9" y="6.3" transform="matrix(0.7071 0.7071 -0.7071 0.7071 11.1189 -13.2987)" fill="#8F9BA8" width="1.5" height="1"/>
	<rect x="9.9" y="6" transform="matrix(0.7071 0.7071 -0.7071 0.7071 7.8312 -5.3633)" fill="#8F9BA8" width="1" height="1.5"/>
	<g>
		<path fill="#F9F8F2" d="M14.2,21.4c-1.5,1-3.6,1.7-4.4,1.7c-1.3,0-2.4-1.7-2.4-3.8c0-2.1,1.1-3.8,2.4-3.8c0.9,0,3.3,0.8,4.7,1.9"
			/>
		<path fill="#B4A79C" d="M9.7,23.9c-1.8,0-3.2-2-3.2-4.6c0-2.6,1.4-4.6,3.2-4.6c1,0,3.6,0.8,5.2,2.1L14,18
			c-1.4-1.1-3.5-1.8-4.2-1.8c-0.8,0-1.7,1.3-1.7,3.1c0,1.8,0.9,3.1,1.7,3.1c0.6,0,2.6-0.6,4-1.6l0.9,1.2
			C13.1,23.1,10.8,23.9,9.7,23.9z"/>
	</g>
	<g>
		<path fill="#F9F8F2" d="M18,21.4c1.5,1,3.6,1.7,4.4,1.7c1.3,0,2.4-1.7,2.4-3.8c0-2.1-1.1-3.8-2.4-3.8c-0.9,0-3.3,0.8-4.7,1.9"/>
		<path fill="#B4A79C" d="M22.5,23.9c-1.1,0-3.4-0.8-4.9-1.9l0.9-1.2c1.4,1,3.4,1.6,4,1.6c0.8,0,1.7-1.3,1.7-3.1
			c0-1.8-0.9-3.1-1.7-3.1c-0.7,0-2.9,0.7-4.2,1.8l-0.9-1.2c1.6-1.3,4.1-2.1,5.2-2.1c1.8,0,3.2,2,3.2,4.6
			C25.6,21.9,24.2,23.9,22.5,23.9z"/>
	</g>
	<g>
		<circle fill="#F9F8F2" cx="16.1" cy="19.3" r="2.5"/>
		<path fill="#B4A79C" d="M16.1,22.5c-1.8,0-3.2-1.4-3.2-3.2c0-1.8,1.4-3.2,3.2-3.2c1.8,0,3.2,1.4,3.2,3.2
			C19.3,21.1,17.9,22.5,16.1,22.5z M16.1,17.6c-0.9,0-1.7,0.8-1.7,1.7c0,0.9,0.8,1.7,1.7,1.7c0.9,0,1.7-0.8,1.7-1.7
			C17.8,18.4,17,17.6,16.1,17.6z"/>
	</g>
</g>
</svg>
