<?xml version="1.0" encoding="utf-8"?>
<!-- Generator: Adobe Illustrator 18.0.0, SVG Export Plug-In . SVG Version: 6.00 Build 0)  -->
<!DOCTYPE svg PUBLIC "-//W3C//DTD SVG 1.1//EN" "http://www.w3.org/Graphics/SVG/1.1/DTD/svg11.dtd">
<svg version="1.1" id="Layer_1" xmlns="http://www.w3.org/2000/svg" xmlns:xlink="http://www.w3.org/1999/xlink" x="0px" y="0px"
	 viewBox="0 0 32 32" enable-background="new 0 0 32 32" xml:space="preserve">
<g>
	<g>
		<path fill="#DA8C8C" d="M16,31.3c-8.4,0-15.3-7-15.3-15.7V6.8h8.9v8.8c0,3.6,2.8,6.5,6.3,6.5s6.3-2.9,6.3-6.5V6.8h8.9v8.8
			C31.3,24.2,24.4,31.3,16,31.3z M2.3,8.3v7.3c0,7.8,6.2,14.2,13.8,14.2s13.8-6.4,13.8-14.2V8.3h-5.9v7.3c0,4.4-3.5,8-7.8,8
			s-7.8-3.6-7.8-8V8.3H2.3z"/>
	</g>
	<g>
		<rect x="23.1" y="1.5" fill="#FAC2C3" width="7.4" height="6"/>
		<path fill="#DA8C8C" d="M31.3,8.3h-8.9V0.8h8.9V8.3z M23.8,6.8h5.9V2.3h-5.9V6.8z"/>
	</g>
	<g>
		<rect x="1.5" y="1.5" fill="#FAC2C3" width="7.4" height="6"/>
		<path fill="#DA8C8C" d="M9.7,8.3H0.8V0.8h8.9V8.3z M2.3,6.8h5.9V2.3H2.3V6.8z"/>
	</g>
</g>
</svg>
