<?xml version="1.0" encoding="utf-8"?>
<!-- Generator: Adobe Illustrator 18.0.0, SVG Export Plug-In . SVG Version: 6.00 Build 0)  -->
<!DOCTYPE svg PUBLIC "-//W3C//DTD SVG 1.1//EN" "http://www.w3.org/Graphics/SVG/1.1/DTD/svg11.dtd">
<svg version="1.1" id="Layer_1" xmlns="http://www.w3.org/2000/svg" xmlns:xlink="http://www.w3.org/1999/xlink" x="0px" y="0px"
	 viewBox="0 0 32 32" enable-background="new 0 0 32 32" xml:space="preserve">
<g>
	<rect x="1.1" y="15.2" fill="#74B1E0" width="18.7" height="1.5"/>
	<path fill="#74B1E0" d="M11.5,25.3l-1.1-1.1l8.3-8.3l-8.3-8.3l1.1-1.1l8.9,8.9c0.3,0.3,0.3,0.8,0,1.1L11.5,25.3z"/>
	<path fill="#8F9BA8" d="M28.1,31.3H8.3c-0.4,0-0.8-0.3-0.8-0.8c0-0.4,0.3-0.8,0.8-0.8h19.7c0.7,0,1.3-0.6,1.3-1.3V3.6
		c0-0.7-0.6-1.3-1.3-1.3H8.3c-0.4,0-0.8-0.3-0.8-0.8c0-0.4,0.3-0.8,0.8-0.8h19.7c1.5,0,2.8,1.3,2.8,2.8v24.9
		C30.9,30,29.6,31.3,28.1,31.3z"/>
</g>
</svg>
