<?xml version="1.0" encoding="utf-8"?>
<!-- Generator: Adobe Illustrator 18.0.0, SVG Export Plug-In . SVG Version: 6.00 Build 0)  -->
<!DOCTYPE svg PUBLIC "-//W3C//DTD SVG 1.1//EN" "http://www.w3.org/Graphics/SVG/1.1/DTD/svg11.dtd">
<svg version="1.1" id="Layer_1" xmlns="http://www.w3.org/2000/svg" xmlns:xlink="http://www.w3.org/1999/xlink" x="0px" y="0px"
	 viewBox="0 0 32 32" enable-background="new 0 0 32 32" xml:space="preserve">
<g>
	<rect x="12.2" y="15.2" fill="#79C693" width="18.7" height="1.5"/>
	<path fill="#79C693" d="M20.5,25.3l-8.9-8.9c-0.3-0.3-0.3-0.8,0-1.1l8.9-8.9l1.1,1.1l-8.3,8.3l8.3,8.3L20.5,25.3z"/>
	<path fill="#8F9BA8" d="M23.7,31.3H3.9c-1.5,0-2.8-1.3-2.8-2.8V3.6c0-1.5,1.3-2.8,2.8-2.8h19.7c0.4,0,0.8,0.3,0.8,0.8
		c0,0.4-0.3,0.8-0.8,0.8H3.9c-0.7,0-1.3,0.6-1.3,1.3v24.9c0,0.7,0.6,1.3,1.3,1.3h19.7c0.4,0,0.8,0.3,0.8,0.8
		C24.4,30.9,24.1,31.3,23.7,31.3z"/>
</g>
</svg>
