<?xml version="1.0" encoding="utf-8"?>
<!-- Generator: Adobe Illustrator 18.0.0, SVG Export Plug-In . SVG Version: 6.00 Build 0)  -->
<!DOCTYPE svg PUBLIC "-//W3C//DTD SVG 1.1//EN" "http://www.w3.org/Graphics/SVG/1.1/DTD/svg11.dtd">
<svg version="1.1" id="Layer_1" xmlns="http://www.w3.org/2000/svg" xmlns:xlink="http://www.w3.org/1999/xlink" x="0px" y="0px"
	 viewBox="0 0 32 32" enable-background="new 0 0 32 32" xml:space="preserve">
<g>
	<rect x="15.3" y="21.7" fill="#B4A042" width="1.5" height="8.8"/>
	<rect x="11.4" y="29.7" fill="#B4A042" width="9.3" height="1.5"/>
	<path fill="#8F9BA8" d="M1.5,26c-0.1,0-0.2,0-0.4-0.1c-0.2-0.1-0.4-0.4-0.4-0.7V1.5c0-0.3,0.2-0.5,0.4-0.7c0.2-0.1,0.5-0.1,0.8,0
		l11,7.4c0.2,0.1,0.3,0.4,0.3,0.6v9c0,0.3-0.1,0.5-0.3,0.6l-11,7.4C1.8,25.9,1.6,26,1.5,26z M2.3,2.9v20.9l9.5-6.4V9.3L2.3,2.9z"/>
	<path fill="#8F9BA8" d="M30.5,26c-0.1,0-0.3,0-0.4-0.1l-11-7.4c-0.2-0.1-0.3-0.4-0.3-0.6v-9c0-0.3,0.1-0.5,0.3-0.6l11-7.4
		c0.2-0.2,0.5-0.2,0.8,0c0.2,0.1,0.4,0.4,0.4,0.7v23.7c0,0.3-0.2,0.5-0.4,0.7C30.7,25.9,30.6,26,30.5,26z M20.3,17.4l9.5,6.4V2.9
		l-9.5,6.4V17.4z"/>
	<path fill="#8F9BA8" d="M17.3,22.5h-2.5c-1.7,0-3-1.4-3-3V7.2c0-1.7,1.4-3,3-3h2.5c1.7,0,3,1.4,3,3v12.3
		C20.3,21.1,18.9,22.5,17.3,22.5z M14.7,5.7c-0.8,0-1.5,0.7-1.5,1.5v12.3c0,0.8,0.7,1.5,1.5,1.5h2.5c0.8,0,1.5-0.7,1.5-1.5V7.2
		c0-0.8-0.7-1.5-1.5-1.5H14.7z"/>
</g>
</svg>
