<?xml version="1.0" encoding="utf-8"?>
<!-- Generator: Adobe Illustrator 18.0.0, SVG Export Plug-In . SVG Version: 6.00 Build 0)  -->
<!DOCTYPE svg PUBLIC "-//W3C//DTD SVG 1.1//EN" "http://www.w3.org/Graphics/SVG/1.1/DTD/svg11.dtd">
<svg version="1.1" id="Layer_1" xmlns="http://www.w3.org/2000/svg" xmlns:xlink="http://www.w3.org/1999/xlink" x="0px" y="0px"
	 viewBox="0 0 32 32" enable-background="new 0 0 32 32" xml:space="preserve">
<g>
	<g>
		<rect x="9.1" y="2" fill="#CDE4F7" width="14.7" height="5.7"/>
		<path fill="#74B1E0" d="M24.6,8.5H8.4V1.2h16.2V8.5z M9.9,7h13.2V2.7H9.9V7z"/>
	</g>
	<rect x="19.4" y="12.1" fill="#8F9BA8" width="2" height="1.5"/>
	<rect x="23.7" y="12.1" fill="#8F9BA8" width="2" height="1.5"/>
	<path fill="#8F9BA8" d="M28.5,25.4h-4.6v-5.5H9.1v5.5H3.5c-1.5,0-2.8-1.2-2.8-2.8V11.9c0-2.7,2.2-5,5-5h20.6c2.7,0,5,2.2,5,5v10.7
		C31.3,24.1,30,25.4,28.5,25.4z M25.4,23.9h3.1c0.7,0,1.3-0.6,1.3-1.3V11.9c0-1.9-1.6-3.5-3.5-3.5H5.7c-1.9,0-3.5,1.6-3.5,3.5v10.7
		c0,0.7,0.6,1.3,1.3,1.3h4v-5.5h17.9V23.9z"/>
	<g>
		<polygon fill="#CDE4F7" points="8.3,19.1 8.3,24.6 8.3,30 24.7,30 24.7,24.6 24.7,19.1 		"/>
		<path fill="#74B1E0" d="M25.4,30.8H7.6V18.4h17.9V30.8z M9.1,29.3h14.9v-9.4H9.1V29.3z"/>
	</g>
	<g>
		<line fill="#CDE4F7" x1="11.9" y1="23" x2="21.1" y2="23"/>
		<rect x="11.9" y="22.2" fill="#74B1E0" width="9.1" height="1.5"/>
	</g>
	<g>
		<line fill="#CDE4F7" x1="11.9" y1="26.2" x2="21.1" y2="26.2"/>
		<rect x="11.9" y="25.4" fill="#74B1E0" width="9.1" height="1.5"/>
	</g>
</g>
</svg>
