<?xml version="1.0" encoding="utf-8"?>
<!-- Generator: Adobe Illustrator 18.0.0, SVG Export Plug-In . SVG Version: 6.00 Build 0)  -->
<!DOCTYPE svg PUBLIC "-//W3C//DTD SVG 1.1//EN" "http://www.w3.org/Graphics/SVG/1.1/DTD/svg11.dtd">
<svg version="1.1" id="Layer_1" xmlns="http://www.w3.org/2000/svg" xmlns:xlink="http://www.w3.org/1999/xlink" x="0px" y="0px"
	 viewBox="0 0 32 32" enable-background="new 0 0 32 32" xml:space="preserve">
<g>
	<g>
		<path fill="#F0F7F7" d="M27.3,11.3c0,5.1-4.1,9.2-9.2,9.2c-5.1,0-9.2-4.1-9.2-9.2c0-5.1,4.1-9.2,9.2-9.2
			C23.2,2.2,27.3,6.3,27.3,11.3z"/>
		<path fill="#8F9BA8" d="M18.2,21.3c-5.5,0-9.9-4.5-9.9-9.9c0-5.5,4.5-9.9,9.9-9.9c5.5,0,9.9,4.5,9.9,9.9
			C28.1,16.8,23.6,21.3,18.2,21.3z M18.2,2.9c-4.6,0-8.4,3.8-8.4,8.4c0,4.6,3.8,8.4,8.4,8.4c4.6,0,8.4-3.8,8.4-8.4
			C26.6,6.7,22.8,2.9,18.2,2.9z"/>
	</g>
	<path fill="#8F9BA8" d="M18.2,26.1c-4,0-7.7-1.5-10.5-4.3C4.9,19,3.4,15.3,3.4,11.3c0-4,1.5-7.7,4.3-10.5l1.1,1.1
		c-2.5,2.5-3.9,5.9-3.9,9.4c0,3.6,1.4,6.9,3.9,9.4c2.5,2.5,5.9,3.9,9.4,3.9c3.6,0,6.9-1.4,9.4-3.9l1.1,1.1
		C25.8,24.6,22.1,26.1,18.2,26.1z"/>
	<rect x="16.7" y="25.3" fill="#8F9BA8" width="1.5" height="4.8"/>
	<rect x="12.3" y="29.6" fill="#8F9BA8" width="10.2" height="1.5"/>
</g>
</svg>
