<?xml version="1.0" encoding="utf-8"?>
<!-- Generator: Adobe Illustrator 18.0.0, SVG Export Plug-In . SVG Version: 6.00 Build 0)  -->
<!DOCTYPE svg PUBLIC "-//W3C//DTD SVG 1.1//EN" "http://www.w3.org/Graphics/SVG/1.1/DTD/svg11.dtd">
<svg version="1.1" id="Layer_1" xmlns="http://www.w3.org/2000/svg" xmlns:xlink="http://www.w3.org/1999/xlink" x="0px" y="0px"
	 viewBox="0 0 32 32" enable-background="new 0 0 32 32" xml:space="preserve">
<g>
	<path fill="#8F9BA8" d="M23.4,13.2h-0.8V3.2h7.6v3.2C30.3,10.1,27.2,13.2,23.4,13.2z M24.2,4.7v7c2.6-0.4,4.6-2.6,4.6-5.3V4.7H24.2
		z"/>
	<path fill="#8F9BA8" d="M9.3,13.2H8.6c-3.8,0-6.9-3.1-6.9-6.9V3.2h7.6V13.2z M3.2,4.7v1.7c0,2.7,2,5,4.6,5.3v-7H3.2z"/>
	<rect x="15.2" y="19.9" fill="#8F9BA8" width="1.5" height="6.1"/>
	<g>
		<polygon fill="#F2E8B9" points="5.3,30.2 26.7,30.2 22,26 10,26 		"/>
		<path fill="#B4A042" d="M28.7,31H3.3l6.4-5.7h12.5L28.7,31z M7.2,29.5h17.5l-3.1-2.7H10.3L7.2,29.5z"/>
	</g>
	<path fill="#8F9BA8" d="M16,20.6c-4.5,0-8.2-3.7-8.2-8.2V1h16.3v11.4C24.2,16.9,20.5,20.6,16,20.6z M9.3,2.5v9.9
		c0,3.7,3,6.7,6.7,6.7c3.7,0,6.7-3,6.7-6.7V2.5H9.3z"/>
</g>
</svg>
