<?xml version="1.0" encoding="utf-8"?>
<!-- Generator: Adobe Illustrator 18.0.0, SVG Export Plug-In . SVG Version: 6.00 Build 0)  -->
<!DOCTYPE svg PUBLIC "-//W3C//DTD SVG 1.1//EN" "http://www.w3.org/Graphics/SVG/1.1/DTD/svg11.dtd">
<svg version="1.1" id="Layer_1" xmlns="http://www.w3.org/2000/svg" xmlns:xlink="http://www.w3.org/1999/xlink" x="0px" y="0px"
	 viewBox="0 0 32 32" enable-background="new 0 0 32 32" xml:space="preserve">
<g>
	<path fill="#8F9BA8" d="M26.5,31.3h-21c-2.6,0-4.7-2.1-4.7-4.7v-21c0-2.6,2.1-4.7,4.7-4.7h21c2.6,0,4.7,2.1,4.7,4.7v21
		C31.3,29.1,29.1,31.3,26.5,31.3z M5.5,2.3c-1.8,0-3.2,1.4-3.2,3.2v21c0,1.8,1.4,3.2,3.2,3.2h21c1.8,0,3.2-1.4,3.2-3.2v-21
		c0-1.8-1.4-3.2-3.2-3.2H5.5z"/>
	<g>
		<path fill="#FAC2C3" d="M10.7,10.5v10.9c0,1.5,1.7,2.3,2.8,1.4l7.1-5.5c0.9-0.7,0.9-2.1,0-2.8l-7.1-5.5
			C12.4,8.3,10.7,9.1,10.7,10.5z"/>
		<path fill="#DA8C8C" d="M12.5,24L12.5,24c-1.4,0-2.5-1.1-2.5-2.5V10.5C10,9.1,11.1,8,12.5,8C13,8,13.5,8.2,14,8.6l7.1,5.5
			c0.6,0.5,1,1.2,1,2c0,0.8-0.4,1.5-1,2L14,23.4C13.5,23.8,13,24,12.5,24z M12.5,9.5c-0.5,0-1,0.4-1,1v10.9c0,0.6,0.5,1,1,1l0,0
			c0.2,0,0.4-0.1,0.6-0.2l7.1-5.5c0.2-0.2,0.4-0.5,0.4-0.8c0-0.3-0.1-0.6-0.4-0.8l-7.1-5.5C12.9,9.6,12.7,9.5,12.5,9.5z"/>
	</g>
</g>
</svg>
