<?xml version="1.0" encoding="utf-8"?>
<!-- Generator: Adobe Illustrator 18.0.0, SVG Export Plug-In . SVG Version: 6.00 Build 0)  -->
<!DOCTYPE svg PUBLIC "-//W3C//DTD SVG 1.1//EN" "http://www.w3.org/Graphics/SVG/1.1/DTD/svg11.dtd">
<svg version="1.1" id="Layer_1" xmlns="http://www.w3.org/2000/svg" xmlns:xlink="http://www.w3.org/1999/xlink" x="0px" y="0px"
	 viewBox="0 0 32 32" enable-background="new 0 0 32 32" xml:space="preserve">
<g>
	<path fill="#B4A79C" d="M6.1,31.3c-2.6,0-4.7-2.1-4.7-4.7c0-2.6,2.1-4.7,4.7-4.7s4.7,2.1,4.7,4.7C10.8,29.2,8.7,31.3,6.1,31.3z
		 M6.1,23.3c-1.8,0-3.2,1.4-3.2,3.2c0,1.8,1.4,3.2,3.2,3.2c1.8,0,3.2-1.4,3.2-3.2C9.3,24.8,7.8,23.3,6.1,23.3z"/>
	<rect x="9.3" y="3.8" fill="#B4A79C" width="1.5" height="22.8"/>
	<path fill="#B4A79C" d="M25.9,29.3c-2.6,0-4.7-2.1-4.7-4.7s2.1-4.7,4.7-4.7c2.6,0,4.7,2.1,4.7,4.7S28.5,29.3,25.9,29.3z M25.9,21.4
		c-1.8,0-3.2,1.4-3.2,3.2c0,1.8,1.4,3.2,3.2,3.2c1.8,0,3.2-1.4,3.2-3.2C29.1,22.8,27.7,21.4,25.9,21.4z"/>
	<rect x="29.1" y="1.8" fill="#B4A79C" width="1.5" height="22.8"/>
	<path fill="#B4A79C" d="M9.3,11.4V3.1l21.4-2.3v8.4L9.3,11.4z M10.8,4.4v5.3l18.4-2V2.4L10.8,4.4z"/>
</g>
</svg>
