<?xml version="1.0" encoding="utf-8"?>
<!-- Generator: Adobe Illustrator 18.0.0, SVG Export Plug-In . SVG Version: 6.00 Build 0)  -->
<!DOCTYPE svg PUBLIC "-//W3C//DTD SVG 1.1//EN" "http://www.w3.org/Graphics/SVG/1.1/DTD/svg11.dtd">
<svg version="1.1" id="Layer_1" xmlns="http://www.w3.org/2000/svg" xmlns:xlink="http://www.w3.org/1999/xlink" x="0px" y="0px"
	 viewBox="0 0 32 32" enable-background="new 0 0 32 32" xml:space="preserve">
<g>
	<g>
		<path fill="#CDE4F7" d="M1.5,5.8v14.3C4,19.5,12.4,17.8,20,20.3c6.3,2,9.3,0.9,10.5,0.1V5.8H1.5z"/>
		<path fill="#74B1E0" d="M26.3,22.2L26.3,22.2c-1.9,0-4.1-0.4-6.5-1.2c-2.6-0.8-5.6-1.3-8.8-1.3c-4.3,0-7.9,0.8-9.3,1.1L0.8,21v-16
			h30.5v15.7l-0.3,0.2C30.2,21.5,28.7,22.2,26.3,22.2z M11,18.2c3.4,0,6.5,0.5,9.3,1.3c2.3,0.7,4.3,1.1,6.1,1.1
			c1.7,0,2.8-0.4,3.4-0.7V6.6H2.3v12.6C4.1,18.7,7.3,18.2,11,18.2z"/>
	</g>
	<g>
		<path fill="#F0F7F7" d="M21,16l-2.9-5.3l-3.7,8.5c1.7,0.2,3.4,0.5,5.2,1c0-0.3,0-0.5,0-0.5L21,16z"/>
		<path fill="#8F9BA8" d="M20.3,21.1l-1-0.3c-1.6-0.5-3.3-0.8-5-1l-1-0.1L18,9l3.8,7l-1.5,3.8L20.3,21.1z M15.5,18.5
			c1.2,0.2,2.3,0.4,3.4,0.7l1.2-3.1l-2-3.7L15.5,18.5z"/>
	</g>
	<g>
		<polyline fill="#F0F7F7" points="26.6,21.3 23.1,10.7 19.3,20.1 		"/>
		<polygon fill="#8F9BA8" points="25.9,21.6 23,12.9 20,20.4 18.6,19.8 23.1,8.5 27.3,21.1 		"/>
	</g>
	<path fill="#74B1E0" d="M31.3,26.9H0.8v-7.5l0.6-0.1c1.4-0.3,5.2-1.1,9.7-1.1c3.4,0,6.5,0.5,9.3,1.3c2.3,0.7,4.3,1.1,6.1,1.1
		c2,0,3.1-0.5,3.8-0.9l1.2-0.8V26.9z M2.3,25.4h27.5v-3.9c-0.8,0.3-1.9,0.6-3.4,0.6c-1.9,0-4.1-0.4-6.5-1.2
		c-2.6-0.8-5.6-1.3-8.8-1.3c-3.8,0-7.1,0.6-8.7,1V25.4z"/>
	<g>
		<circle fill="#FFFFFF" cx="9.4" cy="11.9" r="2"/>
		<path fill="#8F9BA8" d="M9.4,14.6c-1.5,0-2.7-1.2-2.7-2.7s1.2-2.7,2.7-2.7c1.5,0,2.7,1.2,2.7,2.7S10.9,14.6,9.4,14.6z M9.4,10.7
			c-0.7,0-1.2,0.5-1.2,1.2c0,0.7,0.5,1.2,1.2,1.2c0.7,0,1.2-0.5,1.2-1.2C10.6,11.2,10.1,10.7,9.4,10.7z"/>
	</g>
	<path fill="#F0F7F7" stroke="#8F9BA8" stroke-width="1.5" stroke-miterlimit="10" d="M19.3,20.1"/>
</g>
</svg>
