<?xml version="1.0" encoding="utf-8"?>
<!-- Generator: Adobe Illustrator 18.0.0, SVG Export Plug-In . SVG Version: 6.00 Build 0)  -->
<!DOCTYPE svg PUBLIC "-//W3C//DTD SVG 1.1//EN" "http://www.w3.org/Graphics/SVG/1.1/DTD/svg11.dtd">
<svg version="1.1" id="Layer_1" xmlns="http://www.w3.org/2000/svg" xmlns:xlink="http://www.w3.org/1999/xlink" x="0px" y="0px"
	 viewBox="0 0 32 32" enable-background="new 0 0 32 32" xml:space="preserve">
<g>
	<path fill="#8F9BA8" d="M30.3,20.7h-1.5V15C28.8,8,23,2.3,16,2.3C9,2.3,3.2,8,3.2,15v5.7H1.7V15C1.7,7.1,8.1,0.7,16,0.7
		S30.3,7.1,30.3,15V20.7z"/>
	<path fill="#79C693" d="M24.4,31.3c-0.7,0-1.4-0.1-2.1-0.3l-0.5-0.2v-13l0.5-0.2c0.7-0.2,1.4-0.3,2.1-0.3c2.3,0,4.4,1.1,5.7,2.9
		l0.1,0.2v7.7l-0.1,0.2C28.8,30.1,26.7,31.3,24.4,31.3z M23.3,29.6c2,0.4,4.2-0.4,5.4-2v-6.7c-1.3-1.6-3.4-2.4-5.4-2V29.6z"/>
	<path fill="#79C693" d="M7.6,31.3c-2.3,0-4.4-1.1-5.7-2.9l-0.1-0.2v-7.7l0.1-0.2c1.3-1.8,3.4-2.9,5.7-2.9c0.7,0,1.4,0.1,2.1,0.3
		l0.5,0.2v13l-0.5,0.2C9,31.1,8.3,31.3,7.6,31.3z M3.2,27.6c1.3,1.6,3.4,2.4,5.4,2V18.9c-2-0.4-4.2,0.4-5.4,2V27.6z"/>
</g>
</svg>
