<?xml version="1.0" encoding="utf-8"?>
<!-- Generator: Adobe Illustrator 18.0.0, SVG Export Plug-In . SVG Version: 6.00 Build 0)  -->
<!DOCTYPE svg PUBLIC "-//W3C//DTD SVG 1.1//EN" "http://www.w3.org/Graphics/SVG/1.1/DTD/svg11.dtd">
<svg version="1.1" id="Layer_1" xmlns="http://www.w3.org/2000/svg" xmlns:xlink="http://www.w3.org/1999/xlink" x="0px" y="0px"
	 viewBox="0 0 32 32" enable-background="new 0 0 32 32" xml:space="preserve">
<g>
	<path fill="#8F9BA8" d="M28.6,28.7H3.4c-1.5,0-2.7-1.2-2.7-2.7V10.6c0-1.5,1.2-2.7,2.7-2.7h4.7c0.5,0,1-0.4,1.1-0.9l0.5-1.9
		c0.3-1.1,1.4-1.9,2.6-1.9h7.2c1.2,0,2.3,0.8,2.6,1.9l0.5,1.9c0.1,0.5,0.6,0.9,1.1,0.9h4.7c1.5,0,2.7,1.2,2.7,2.7V26
		C31.3,27.5,30,28.7,28.6,28.7z M3.4,9.4c-0.7,0-1.2,0.5-1.2,1.2V26c0,0.7,0.5,1.2,1.2,1.2h25.1c0.7,0,1.2-0.5,1.2-1.2V10.6
		c0-0.7-0.5-1.2-1.2-1.2h-4.7c-1.2,0-2.3-0.8-2.6-1.9l-0.5-1.9c-0.1-0.5-0.6-0.9-1.1-0.9h-7.2c-0.5,0-1,0.4-1.1,0.9l-0.5,1.9
		c-0.3,1.1-1.4,1.9-2.6,1.9H3.4z"/>
	<g>
		<circle fill="#F2E8B9" cx="16" cy="18.4" r="6.3"/>
		<path fill="#B4A042" d="M16,25.4c-3.9,0-7.1-3.2-7.1-7.1c0-3.9,3.2-7.1,7.1-7.1s7.1,3.2,7.1,7.1C23.1,22.3,19.9,25.4,16,25.4z
			 M16,12.8c-3.1,0-5.6,2.5-5.6,5.6c0,3.1,2.5,5.6,5.6,5.6c3.1,0,5.6-2.5,5.6-5.6C21.6,15.3,19.1,12.8,16,12.8z"/>
	</g>
	<g>
		<line fill="#F2E8B9" x1="24.2" y1="12.4" x2="26.9" y2="12.4"/>
		<rect x="24.2" y="11.7" fill="#B4A042" width="2.7" height="1.5"/>
	</g>
</g>
</svg>
