<?xml version="1.0" encoding="utf-8"?>
<!-- Generator: Adobe Illustrator 18.0.0, SVG Export Plug-In . SVG Version: 6.00 Build 0)  -->
<!DOCTYPE svg PUBLIC "-//W3C//DTD SVG 1.1//EN" "http://www.w3.org/Graphics/SVG/1.1/DTD/svg11.dtd">
<svg version="1.1" id="Layer_1" xmlns="http://www.w3.org/2000/svg" xmlns:xlink="http://www.w3.org/1999/xlink" x="0px" y="0px"
	 viewBox="0 0 32 32" enable-background="new 0 0 32 32" xml:space="preserve">
<g>
	<path fill="#DA8C8C" d="M16,31.3C7.6,31.3,0.8,24.4,0.8,16S7.6,0.7,16,0.7S31.3,7.6,31.3,16S24.4,31.3,16,31.3z M16,2.3
		C8.4,2.3,2.3,8.4,2.3,16S8.4,29.8,16,29.8c7.6,0,13.8-6.2,13.8-13.8S23.6,2.3,16,2.3z"/>
	<path fill="#DA8C8C" d="M16,27.6C9.6,27.6,4.4,22.4,4.4,16S9.6,4.4,16,4.4c6.4,0,11.6,5.2,11.6,11.6S22.4,27.6,16,27.6z M16,5.9
		C10.4,5.9,5.9,10.4,5.9,16S10.4,26.1,16,26.1c5.6,0,10.1-4.5,10.1-10.1S21.6,5.9,16,5.9z"/>
	<polygon fill="#DA8C8C" points="14.1,20.3 10.9,17.1 12,16.1 14.1,18.2 20,12.2 21.1,13.3 	"/>
</g>
</svg>
