<?xml version="1.0" encoding="utf-8"?>
<!-- Generator: Adobe Illustrator 18.0.0, SVG Export Plug-In . SVG Version: 6.00 Build 0)  -->
<!DOCTYPE svg PUBLIC "-//W3C//DTD SVG 1.1//EN" "http://www.w3.org/Graphics/SVG/1.1/DTD/svg11.dtd">
<svg version="1.1" id="Layer_1" xmlns="http://www.w3.org/2000/svg" xmlns:xlink="http://www.w3.org/1999/xlink" x="0px" y="0px"
	 viewBox="0 0 32 32" enable-background="new 0 0 32 32" xml:space="preserve">
<g>
	<path fill="#8F9BA8" d="M16,31.3C7.6,31.3,0.7,24.4,0.7,16S7.6,0.7,16,0.7c8.4,0,15.3,6.8,15.3,15.3C31.2,24.4,24.4,31.3,16,31.3z
		 M16,2.3C8.4,2.3,2.2,8.4,2.2,16S8.4,29.8,16,29.8c7.6,0,13.8-6.2,13.8-13.8C29.8,8.4,23.6,2.3,16,2.3z"/>
	<path fill="#8F9BA8" d="M16,27.6C9.6,27.6,4.4,22.4,4.4,16C4.4,9.6,9.6,4.4,16,4.4c6.4,0,11.6,5.2,11.6,11.6S22.4,27.6,16,27.6z
		 M16,5.9C10.4,5.9,5.9,10.4,5.9,16c0,5.6,4.5,10.1,10.1,10.1S26.1,21.6,26.1,16S21.6,5.9,16,5.9z"/>
	<path fill="#B4A042" d="M15.2,20.1c0-1.9,0.9-3.7,2.4-4.6c1.1-0.7,1.6-2,1.3-3.3c-0.2-1.1-1.1-2-2.2-2.2c-0.9-0.2-1.9,0-2.6,0.6
		C13.4,11.2,13,12,13,12.9h-1.5c0-1.4,0.6-2.7,1.7-3.5c1.1-0.9,2.5-1.2,3.9-0.9c1.7,0.4,3,1.7,3.4,3.4c0.4,1.9-0.3,3.8-2,4.9
		c-1,0.7-1.7,1.9-1.7,3.3L15.2,20.1z"/>
	<rect x="15.2" y="21.5" fill="#B4A042" width="1.5" height="1.3"/>
</g>
</svg>
