<?xml version="1.0" encoding="utf-8"?>
<!-- Generator: Adobe Illustrator 18.0.0, SVG Export Plug-In . SVG Version: 6.00 Build 0)  -->
<!DOCTYPE svg PUBLIC "-//W3C//DTD SVG 1.1//EN" "http://www.w3.org/Graphics/SVG/1.1/DTD/svg11.dtd">
<svg version="1.1" id="Layer_1" xmlns="http://www.w3.org/2000/svg" xmlns:xlink="http://www.w3.org/1999/xlink" x="0px" y="0px"
	 viewBox="0 0 32 32" enable-background="new 0 0 32 32" xml:space="preserve">
<g>
	<path fill="#DA8C8C" d="M16,31.2L16,31.2c-4.1,0-7.9-1.6-10.8-4.5C2.3,23.9,0.7,20.1,0.8,16C0.8,7.6,7.6,0.7,16,0.7
		c8.4,0,15.2,6.8,15.2,15.2C31.2,24.4,24.4,31.2,16,31.2z M16,2.3C8.4,2.3,2.3,8.4,2.3,16c0,3.7,1.4,7.1,4,9.7c2.6,2.6,6,4,9.7,4
		c7.6,0,13.8-6.2,13.8-13.8C29.7,8.4,23.6,2.3,16,2.3z"/>
	<path fill="#DA8C8C" d="M6.2,26.4l-1.1-1c2.9-3,6.8-4.6,10.9-4.6c4.1,0,7.9,1.6,10.8,4.5l-1.1,1.1c-2.6-2.6-6-4-9.7-4
		C12.3,22.3,8.8,23.8,6.2,26.4z"/>
	<path fill="#DA8C8C" d="M16,11.2c-4.2,0-8.3-1.8-11.2-4.9l1.1-1C8.5,8.1,12.2,9.7,16,9.7c3.8,0,7.5-1.6,10.1-4.4l1.1,1
		C24.3,9.4,20.2,11.2,16,11.2z"/>
	<path fill="#DA8C8C" d="M16,31.3L16,31.3c-4.7,0-8.4-6.7-8.4-15.3c0-8.6,3.7-15.3,8.4-15.3c4.7,0,8.4,6.7,8.4,15.3
		C24.4,24.6,20.7,31.2,16,31.3z M16,2.3c-3.7,0-6.9,6.3-6.9,13.8s3.2,13.8,6.9,13.8c3.7,0,6.9-6.3,6.9-13.8
		C22.9,8.5,19.7,2.3,16,2.3z"/>
	<rect x="1.5" y="15.3" fill="#DA8C8C" width="29" height="1.5"/>
	<rect x="15.2" y="1.5" fill="#DA8C8C" width="1.5" height="29"/>
</g>
</svg>
