<?xml version="1.0" encoding="utf-8"?>
<!-- Generator: Adobe Illustrator 18.0.0, SVG Export Plug-In . SVG Version: 6.00 Build 0)  -->
<!DOCTYPE svg PUBLIC "-//W3C//DTD SVG 1.1//EN" "http://www.w3.org/Graphics/SVG/1.1/DTD/svg11.dtd">
<svg version="1.1" id="Layer_1" xmlns="http://www.w3.org/2000/svg" xmlns:xlink="http://www.w3.org/1999/xlink" x="0px" y="0px"
	 viewBox="0 0 32 32" enable-background="new 0 0 32 32" xml:space="preserve">
<g>
	<g>
		<polygon fill="#F9F8F2" points="18.4,1.5 1.9,1.5 13.8,5.9 13.8,26.1 18.4,26.1 		"/>
		<path fill="#B4A79C" d="M18.4,26.9h-4.6c-0.4,0-0.8-0.3-0.8-0.8V6.4L1.6,2.2C1.3,2.1,1.1,1.7,1.1,1.4C1.2,1,1.5,0.8,1.9,0.8h16.6
			c0.4,0,0.8,0.3,0.8,0.8v24.6C19.2,26.5,18.9,26.9,18.4,26.9z M14.6,25.4h3.1V2.3H6.1l8,2.9c0.3,0.1,0.5,0.4,0.5,0.7V25.4z"/>
	</g>
	<path fill="#B4A79C" d="M13.8,31.3c-0.1,0-0.2,0-0.3,0l-12-4.4c-0.3-0.1-0.5-0.4-0.5-0.7V1.5c0-0.2,0.1-0.5,0.3-0.6
		c0.2-0.1,0.5-0.2,0.7-0.1l12,4.4c0.3,0.1,0.5,0.4,0.5,0.7v24.6c0,0.2-0.1,0.5-0.3,0.6C14.1,31.2,14,31.3,13.8,31.3z M2.6,25.6
		l10.5,3.8v-23L2.6,2.6V25.6z"/>
	<rect x="10.4" y="16.6" fill="#B4A79C" width="1.5" height="2.1"/>
	<rect x="20.8" y="13.1" fill="#8F9BA8" width="10.1" height="1.5"/>
	<polygon fill="#8F9BA8" points="23.8,17.8 19.8,13.8 23.8,9.8 24.8,10.8 21.9,13.8 24.8,16.8 	"/>
</g>
</svg>
