<?xml version="1.0" encoding="utf-8"?>
<!-- Generator: Adobe Illustrator 18.0.0, SVG Export Plug-In . SVG Version: 6.00 Build 0)  -->
<!DOCTYPE svg PUBLIC "-//W3C//DTD SVG 1.1//EN" "http://www.w3.org/Graphics/SVG/1.1/DTD/svg11.dtd">
<svg version="1.1" id="Layer_1" xmlns="http://www.w3.org/2000/svg" xmlns:xlink="http://www.w3.org/1999/xlink" x="0px" y="0px"
	 viewBox="0 0 32 32" enable-background="new 0 0 32 32" xml:space="preserve">
<g>
	<g>
		<polygon fill="#CDE4F7" points="17.9,1.6 1.5,1.6 13.3,6 13.3,26 17.9,26 		"/>
		<path fill="#74B1E0" d="M17.9,26.8h-4.6c-0.4,0-0.7-0.3-0.7-0.7V6.5L1.2,2.3C0.9,2.2,0.7,1.9,0.8,1.5c0.1-0.4,0.4-0.6,0.7-0.6
			h16.4c0.4,0,0.7,0.3,0.7,0.7V26C18.6,26.4,18.3,26.8,17.9,26.8z M14.1,25.3h3.1V2.4H5.7l7.9,2.9c0.3,0.1,0.5,0.4,0.5,0.7V25.3z"/>
	</g>
	<path fill="#74B1E0" d="M13.3,31.1c-0.1,0-0.2,0-0.3,0L1.2,26.7c-0.3-0.1-0.5-0.4-0.5-0.7V1.6c0-0.2,0.1-0.5,0.3-0.6
		c0.2-0.1,0.5-0.2,0.7-0.1l11.8,4.3c0.3,0.1,0.5,0.4,0.5,0.7v24.4c0,0.2-0.1,0.5-0.3,0.6C13.6,31.1,13.5,31.1,13.3,31.1z M2.2,25.5
		l10.3,3.8V6.5L2.2,2.7V25.5z"/>
	<rect x="9.9" y="16.6" fill="#74B1E0" width="1.5" height="2"/>
	<rect x="20.2" y="13.1" fill="#8F9BA8" width="10" height="1.5"/>
	<polygon fill="#8F9BA8" points="27.3,17.8 26.2,16.8 29.2,13.8 26.2,10.9 27.3,9.8 31.3,13.8 	"/>
</g>
</svg>
