<?xml version="1.0" encoding="utf-8"?>
<!-- Generator: Adobe Illustrator 18.0.0, SVG Export Plug-In . SVG Version: 6.00 Build 0)  -->
<!DOCTYPE svg PUBLIC "-//W3C//DTD SVG 1.1//EN" "http://www.w3.org/Graphics/SVG/1.1/DTD/svg11.dtd">
<svg version="1.1" id="Layer_1" xmlns="http://www.w3.org/2000/svg" xmlns:xlink="http://www.w3.org/1999/xlink" x="0px" y="0px"
	 viewBox="0 0 32 32" enable-background="new 0 0 32 32" xml:space="preserve">
<pattern  y="32" width="24.1" height="24.1" patternUnits="userSpaceOnUse" id="SVGID_1_" viewBox="0 -24.1 24.1 24.1" overflow="visible">
	<g>
		<polygon fill="none" points="0,0 24.1,0 24.1,-24.1 0,-24.1 		"/>
		<g>
			<polygon fill="none" points="0,-24.1 24.1,-24.1 24.1,0 0,0 			"/>
			<polygon fill="#FEE99B" points="24.1,-24.1 0,-24.1 0,0 24.1,0 			"/>
		</g>
	</g>
</pattern>
<pattern  y="32" width="24.1" height="24.1" patternUnits="userSpaceOnUse" id="SVGID_2_" viewBox="0 -24.1 24.1 24.1" overflow="visible">
	<g>
		<polygon fill="none" points="0,0 24.1,0 24.1,-24.1 0,-24.1 		"/>
		<g>
			<polygon fill="none" points="0,-24.1 24.1,-24.1 24.1,0 0,0 			"/>
			<polygon fill="#E0CB81" points="24.1,-24.1 0,-24.1 0,0 24.1,0 			"/>
		</g>
	</g>
</pattern>
<g>
	<g>
		<circle fill="#F0F7F7" cx="16" cy="14.1" r="3.9"/>
		<path fill="#8F9BA8" d="M16,18.8c-2.6,0-4.7-2.1-4.7-4.7s2.1-4.7,4.7-4.7s4.7,2.1,4.7,4.7S18.6,18.8,16,18.8z M16,10.9
			c-1.8,0-3.2,1.4-3.2,3.2s1.4,3.2,3.2,3.2s3.2-1.4,3.2-3.2S17.7,10.9,16,10.9z"/>
	</g>
	<g>
		<pattern  id="SVGID_3_" xlink:href="#SVGID_1_" patternTransform="matrix(1 0 0 -1 -322.5573 -16345.5889)">
		</pattern>
		<path fill="url(#SVGID_3_)" d="M22.7,30.5c-1.9-2.5-2.9-5.4-3.3-7.1c-1.1,0.3-2.2,0.5-3.4,0.5s-2.3-0.2-3.4-0.5
			c-0.4,1.8-1.4,4.6-3.3,7.1H22.7z"/>
		<pattern  id="SVGID_4_" xlink:href="#SVGID_2_" patternTransform="matrix(1 0 0 -1 -322.5573 -16345.5889)">
		</pattern>
		<path fill="url(#SVGID_4_)" d="M22.7,31.3H9.3c-0.3,0-0.5-0.2-0.7-0.4c-0.1-0.3-0.1-0.6,0.1-0.8c1.9-2.5,2.8-5.4,3.2-6.8
			c0-0.2,0.2-0.4,0.4-0.5s0.4-0.1,0.6-0.1c2.1,0.7,4.3,0.7,6.4,0c0.2-0.1,0.4,0,0.6,0.1s0.3,0.3,0.4,0.5c0.3,1.5,1.2,4.3,3.2,6.8
			c0.2,0.2,0.2,0.5,0.1,0.8C23.3,31.1,23,31.3,22.7,31.3z M10.7,29.8h10.5c-1.3-2-2-4-2.4-5.5c-1.9,0.5-3.9,0.5-5.8,0
			C12.7,25.7,12,27.7,10.7,29.8z"/>
	</g>
	<path fill="#8F9BA8" d="M16,24.6c-1.2,0-2.5-0.2-3.6-0.6c-5-1.6-8.3-6.2-8.3-11.4C4.1,6.1,9.4,0.8,16,0.8s12,5.4,12,11.9
		c0,5.2-3.3,9.8-8.3,11.4C18.5,24.5,17.2,24.6,16,24.6z M16,2.3C10.2,2.3,5.6,7,5.6,12.7c0,4.6,2.9,8.6,7.3,10
		c2.1,0.7,4.3,0.7,6.4,0c4.3-1.4,7.3-5.4,7.3-10C26.4,6.9,21.8,2.3,16,2.3z"/>
</g>
</svg>
