<?xml version="1.0" encoding="utf-8"?>
<!-- Generator: Adobe Illustrator 18.0.0, SVG Export Plug-In . SVG Version: 6.00 Build 0)  -->
<!DOCTYPE svg PUBLIC "-//W3C//DTD SVG 1.1//EN" "http://www.w3.org/Graphics/SVG/1.1/DTD/svg11.dtd">
<svg version="1.1" id="Layer_1" xmlns="http://www.w3.org/2000/svg" xmlns:xlink="http://www.w3.org/1999/xlink" x="0px" y="0px"
	 viewBox="0 0 32 32" enable-background="new 0 0 32 32" xml:space="preserve">
<g>
	<g>
		<path fill="#B4A79C" d="M19.9,23.4c-3,0-5.9-1.2-8-3.3c-2.1-2.1-3.3-5-3.3-8s1.2-5.9,3.3-8c2.1-2.1,5-3.3,8-3.3c3,0,5.9,1.2,8,3.3
			c4.4,4.4,4.4,11.6,0,16C25.8,22.2,23,23.4,19.9,23.4z M19.9,2.2c-2.6,0-5.1,1-6.9,2.9c-1.9,1.9-2.9,4.3-2.9,6.9
			c0,2.6,1,5.1,2.9,6.9s4.3,2.9,6.9,2.9c2.6,0,5.1-1,6.9-2.9c3.8-3.8,3.8-10.1,0-13.9C25,3.3,22.6,2.2,19.9,2.2z"/>
	</g>
	<g>
		
			<rect x="10.4" y="19" transform="matrix(0.7071 0.7071 -0.7071 0.7071 18.0068 -1.7857)" fill="#B4A79C" width="1.5" height="3.7"/>
	</g>
	<g>
		<path fill="#F0F7F7" d="M9.9,22.1L9.9,22.1c-0.8-0.8-2.2-0.8-3,0l-4.7,4.7c-0.8,0.8-0.8,2.2,0,3l0,0c0.8,0.8,2.2,0.8,3,0l4.7-4.7
			C10.7,24.3,10.7,23,9.9,22.1z"/>
		<path fill="#8F9BA8" d="M3.6,31.3c-0.8,0-1.5-0.3-2-0.8c-1.1-1.1-1.1-3,0-4.1l4.7-4.7c1.1-1.1,3-1.1,4.1,0c1.1,1.1,1.1,3,0,4.1
			l-4.7,4.7C5.1,30.9,4.4,31.3,3.6,31.3z M8.3,22.3c-0.4,0-0.7,0.1-1,0.4l-4.7,4.7c-0.5,0.5-0.5,1.4,0,2c0.5,0.5,1.4,0.5,2,0
			l4.7-4.7c0.5-0.5,0.5-1.4,0-2C9.1,22.4,8.7,22.3,8.3,22.3z"/>
	</g>
	<g>
		<rect x="14.7" y="11.3" fill="#B4A79C" width="10.5" height="1.5"/>
	</g>
</g>
</svg>
