<?xml version="1.0" encoding="utf-8"?>
<!-- Generator: Adobe Illustrator 18.0.0, SVG Export Plug-In . SVG Version: 6.00 Build 0)  -->
<!DOCTYPE svg PUBLIC "-//W3C//DTD SVG 1.1//EN" "http://www.w3.org/Graphics/SVG/1.1/DTD/svg11.dtd">
<svg version="1.1" id="Layer_1" xmlns="http://www.w3.org/2000/svg" xmlns:xlink="http://www.w3.org/1999/xlink" x="0px" y="0px"
	 viewBox="0 0 32 32" enable-background="new 0 0 32 32" xml:space="preserve">
<g>
	<g>
		<polygon fill="#F0F7F7" points="6.4,3.8 9.9,3.8 9.9,7.7 6.4,11.2 		"/>
		<path fill="#8F9BA8" d="M5.7,13V3h5v5L5.7,13z M7.2,4.5v4.9l2-2V4.5H7.2z"/>
	</g>
	<path fill="#79C693" d="M26.6,31.4H5.4V16.6H0l16-16l16,16h-5.4V31.4z M6.9,29.9h18.1V15.1h3.3L16,2.7L3.6,15.1h3.3V29.9z"/>
	<g>
		<path fill="#F0F7F7" d="M12.4,30.7h7.1v-6.4c0-2-1.6-3.6-3.6-3.6l0,0c-2,0-3.6,1.6-3.6,3.6V30.7z"/>
		<path fill="#8F9BA8" d="M20.3,31.4h-8.6v-7.1c0-2.4,1.9-4.3,4.3-4.3s4.3,1.9,4.3,4.3V31.4z M13.2,29.9h5.6v-5.6
			c0-1.6-1.3-2.8-2.8-2.8c-1.6,0-2.8,1.3-2.8,2.8V29.9z"/>
	</g>
</g>
</svg>
