<?xml version="1.0" encoding="utf-8"?>
<!-- Generator: Adobe Illustrator 18.0.0, SVG Export Plug-In . SVG Version: 6.00 Build 0)  -->
<!DOCTYPE svg PUBLIC "-//W3C//DTD SVG 1.1//EN" "http://www.w3.org/Graphics/SVG/1.1/DTD/svg11.dtd">
<svg version="1.1" id="Layer_1" xmlns="http://www.w3.org/2000/svg" xmlns:xlink="http://www.w3.org/1999/xlink" x="0px" y="0px"
	 viewBox="0 0 32 32" enable-background="new 0 0 32 32" xml:space="preserve">
<g>
	<path fill="#8F9BA8" d="M27.2,31.3H4.8v-8.3c0-3.3,2.6-5.9,5.9-5.9h2.6l2.8,4.6l2.8-4.6h2.6c3.3,0,5.9,2.6,5.9,5.9V31.3z M6.3,29.8
		h19.5v-6.8c0-2.4-2-4.4-4.4-4.4h-1.7L16,24.6l-3.6-6.1h-1.7c-2.4,0-4.4,2-4.4,4.4V29.8z"/>
	<path fill="#B4A042" d="M23.1,13.9H8.9l0.4-1c1.2-3.1,1.4-5.4,1.4-6.3l0-0.1c0-0.2,0-0.3,0-0.5C10.8,3,13.2,0.7,16,0.7
		c2.8,0,5.1,2.3,5.4,5.2c0,0.2,0,0.3,0,0.5l0,0.1c0,0.8,0.2,3.1,1.4,6.2L23.1,13.9z M11.1,12.4h9.9c-0.9-2.7-1.1-4.8-1.1-5.8l0-0.2
		c0-0.1,0-0.2,0-0.3C19.7,3.9,18,2.3,16,2.3S12.3,3.9,12.1,6c0,0.1,0,0.2,0,0.3l0,0.2C12.1,7.6,12,9.6,11.1,12.4z"/>
</g>
</svg>
