<?xml version="1.0" encoding="utf-8"?>
<!-- Generator: Adobe Illustrator 18.0.0, SVG Export Plug-In . SVG Version: 6.00 Build 0)  -->
<!DOCTYPE svg PUBLIC "-//W3C//DTD SVG 1.1//EN" "http://www.w3.org/Graphics/SVG/1.1/DTD/svg11.dtd">
<svg version="1.1" id="Layer_1" xmlns="http://www.w3.org/2000/svg" xmlns:xlink="http://www.w3.org/1999/xlink" x="0px" y="0px"
	 viewBox="0 0 32 32" enable-background="new 0 0 32 32" xml:space="preserve">
<g>
	<path fill="#DA8C8C" d="M23.1,31.3H8.9c-1.5,0-2.8-1.2-2.8-2.8V3.5c0-1.5,1.2-2.8,2.8-2.8h14.3c1.5,0,2.8,1.2,2.8,2.8v24.9
		C25.9,30,24.7,31.3,23.1,31.3z M8.9,2.3c-0.7,0-1.3,0.6-1.3,1.3v24.9c0,0.7,0.6,1.3,1.3,1.3h14.3c0.7,0,1.3-0.6,1.3-1.3V3.5
		c0-0.7-0.6-1.3-1.3-1.3H8.9z"/>
	<g>
		<circle fill="#FFFFFF" cx="12.4" cy="7.8" r="3.3"/>
		<path fill="#8F9BA8" d="M12.4,11.9c-2.2,0-4-1.8-4-4c0-2.2,1.8-4,4-4s4,1.8,4,4C16.5,10,14.7,11.9,12.4,11.9z M12.4,5.3
			c-1.4,0-2.5,1.1-2.5,2.5c0,1.4,1.1,2.5,2.5,2.5c1.4,0,2.5-1.1,2.5-2.5C15,6.4,13.8,5.3,12.4,5.3z"/>
	</g>
	<g>
		<circle fill="#F0F7F7" cx="20.6" cy="6.2" r="2.3"/>
		<path fill="#8F9BA8" d="M20.6,9.3c-1.7,0-3.1-1.4-3.1-3.1c0-1.7,1.4-3.1,3.1-3.1c1.7,0,3.1,1.4,3.1,3.1
			C23.6,7.9,22.2,9.3,20.6,9.3z M20.6,4.6c-0.9,0-1.6,0.7-1.6,1.6c0,0.9,0.7,1.6,1.6,1.6c0.9,0,1.6-0.7,1.6-1.6
			C22.1,5.3,21.4,4.6,20.6,4.6z"/>
	</g>
	<path fill="#79C693" d="M16,28.5c-4.2,0-7.6-3.4-7.6-7.6c0-4.2,3.4-7.6,7.6-7.6c4.2,0,7.6,3.4,7.6,7.6C23.6,25.1,20.2,28.5,16,28.5
		z M16,14.7c-3.4,0-6.1,2.7-6.1,6.1S12.6,27,16,27s6.1-2.7,6.1-6.1S19.4,14.7,16,14.7z"/>
</g>
</svg>
