<?xml version="1.0" encoding="utf-8"?>
<!-- Generator: Adobe Illustrator 18.0.0, SVG Export Plug-In . SVG Version: 6.00 Build 0)  -->
<!DOCTYPE svg PUBLIC "-//W3C//DTD SVG 1.1//EN" "http://www.w3.org/Graphics/SVG/1.1/DTD/svg11.dtd">
<svg version="1.1" id="Layer_1" xmlns="http://www.w3.org/2000/svg" xmlns:xlink="http://www.w3.org/1999/xlink" x="0px" y="0px"
	 viewBox="0 0 32 32" enable-background="new 0 0 32 32" xml:space="preserve">
<g>
	<path fill="#B4A79C" d="M5.8,31c-1.4,0-2.6-0.5-3.6-1.5c-1-1-1.5-2.2-1.5-3.6c0-1.4,0.5-2.6,1.5-3.6s2.2-1.5,3.6-1.5
		c1.4,0,2.6,0.5,3.6,1.5c2,2,2,5.2,0,7.2C8.5,30.4,7.2,31,5.8,31z M5.8,22.3c-1,0-1.9,0.4-2.6,1.1c-0.7,0.7-1.1,1.6-1.1,2.6
		c0,1,0.4,1.9,1.1,2.6c1.4,1.4,3.8,1.4,5.1,0c1.4-1.4,1.4-3.7,0-5.1C7.7,22.6,6.8,22.3,5.8,22.3z"/>
	<g>
		<circle fill="#F9F8F2" cx="14.2" cy="6.2" r="3.4"/>
		<path fill="#B4A79C" d="M14.2,10.3c-1.1,0-2.1-0.4-2.9-1.2c-0.8-0.8-1.2-1.8-1.2-2.9c0-1.1,0.4-2.1,1.2-2.9S13.1,2,14.2,2
			c1.1,0,2.1,0.4,2.9,1.2c1.6,1.6,1.6,4.2,0,5.9C16.3,9.9,15.3,10.3,14.2,10.3z M14.2,3.5c-0.7,0-1.4,0.3-1.9,0.8
			c-0.5,0.5-0.8,1.2-0.8,1.9c0,0.7,0.3,1.4,0.8,1.9c1,1,2.8,1,3.8,0c0.5-0.5,0.8-1.2,0.8-1.9c0-0.7-0.3-1.4-0.8-1.9
			C15.6,3.8,14.9,3.5,14.2,3.5z"/>
	</g>
	
		<rect x="16.7" y="2.4" transform="matrix(0.7071 0.7071 -0.7071 0.7071 15.2254 -8.0978)" fill="#B4A79C" width="1.5" height="24"/>
	<path fill="#B4A79C" d="M29.4,10.4l-8.1-8.1L30.7,1L29.4,10.4z M24.4,3.4l3.9,3.9L29,2.8L24.4,3.4z"/>
	<polygon fill="#B4A79C" points="22.6,21.3 12.4,20 12.5,18.5 22.1,19.7 24,17.8 25.1,18.9 	"/>
	<g>
		
			<rect x="23.5" y="13.5" transform="matrix(0.7071 0.7071 -0.7071 0.7071 19.2425 -13.7845)" fill="#F9F8F2" width="5.6" height="5.6"/>
		<path fill="#B4A79C" d="M26.3,21.3l-5-5l5-5l5,5L26.3,21.3z M23.3,16.3l2.9,2.9l2.9-2.9l-2.9-2.9L23.3,16.3z"/>
	</g>
	<polygon fill="#B4A79C" points="10.2,20.9 9,10.6 11.4,8.2 12.4,9.2 10.5,11.1 11.7,20.7 	"/>
</g>
</svg>
