<?xml version="1.0" encoding="utf-8"?>
<!-- Generator: Adobe Illustrator 18.0.0, SVG Export Plug-In . SVG Version: 6.00 Build 0)  -->
<!DOCTYPE svg PUBLIC "-//W3C//DTD SVG 1.1//EN" "http://www.w3.org/Graphics/SVG/1.1/DTD/svg11.dtd">
<svg version="1.1" id="Layer_1" xmlns="http://www.w3.org/2000/svg" xmlns:xlink="http://www.w3.org/1999/xlink" x="0px" y="0px"
	 viewBox="0 0 32 32" enable-background="new 0 0 32 32" xml:space="preserve">
<g>
	<g>
		<path fill="#CDE4F7" d="M23.4,30.5L23.4,30.5c-1.4,0-2.6-1.1-2.6-2.6V4.1c0-1.4,1.1-2.6,2.6-2.6l0,0c1.4,0,2.6,1.1,2.6,2.6v23.9
			C26,29.4,24.8,30.5,23.4,30.5z"/>
		<path fill="#74B1E0" d="M23.4,31.3c-1.8,0-3.3-1.5-3.3-3.3V4.1c0-1.8,1.5-3.3,3.3-3.3c1.8,0,3.3,1.5,3.3,3.3v23.9
			C26.7,29.8,25.3,31.3,23.4,31.3z M23.4,2.3c-1,0-1.8,0.8-1.8,1.8v23.9c0,1,0.8,1.8,1.8,1.8c1,0,1.8-0.8,1.8-1.8V4.1
			C25.2,3.1,24.4,2.3,23.4,2.3z"/>
	</g>
	<path fill="#74B1E0" d="M21.6,29.6L6.3,21.1V10.9l15.3-8.5V29.6z M7.8,20.2l12.3,6.8V4.9L7.8,11.8V20.2z"/>
	<g>
		<path fill="#CDE4F7" d="M6.2,22L6.2,22c-2.6,0-4.7-2.1-4.7-4.7v-2.6c0-2.6,2.1-4.7,4.7-4.7l0,0C6.7,10,7,10.4,7,10.9v10.2
			C7,21.6,6.7,22,6.2,22z"/>
		<path fill="#74B1E0" d="M6.2,22.7c-3,0-5.4-2.4-5.4-5.4v-2.6c0-3,2.4-5.4,5.4-5.4c0.9,0,1.6,0.7,1.6,1.6v10.2
			C7.8,22,7.1,22.7,6.2,22.7z M6.2,10.8c-2.2,0-3.9,1.8-3.9,3.9v2.6c0,2.2,1.8,3.9,3.9,3.9c0.1,0,0.1-0.1,0.1-0.1V10.9
			C6.3,10.8,6.2,10.8,6.2,10.8z"/>
	</g>
	<g>
		<path fill="#CDE4F7" d="M27.1,12.6c-0.4,0-0.7,0.1-1.1,0.2v6.5c0.3,0.1,0.7,0.2,1.1,0.2c1.9,0,3.4-1.5,3.4-3.4
			C30.5,14.1,29,12.6,27.1,12.6z"/>
		<path fill="#74B1E0" d="M27.1,20.2c-0.4,0-0.9-0.1-1.3-0.2l-0.5-0.2v-7.5l0.5-0.2c0.5-0.2,0.9-0.2,1.3-0.2c2.3,0,4.2,1.9,4.2,4.2
			C31.3,18.3,29.4,20.2,27.1,20.2z M26.7,18.6c0.1,0,0.2,0,0.3,0c1.5,0,2.7-1.2,2.7-2.7c0-1.5-1.2-2.7-2.7-2.7c-0.1,0-0.2,0-0.3,0
			V18.6z"/>
	</g>
</g>
</svg>
