<?xml version="1.0" encoding="utf-8"?>
<!-- Generator: Adobe Illustrator 18.0.0, SVG Export Plug-In . SVG Version: 6.00 Build 0)  -->
<!DOCTYPE svg PUBLIC "-//W3C//DTD SVG 1.1//EN" "http://www.w3.org/Graphics/SVG/1.1/DTD/svg11.dtd">
<svg version="1.1" id="Layer_1" xmlns="http://www.w3.org/2000/svg" xmlns:xlink="http://www.w3.org/1999/xlink" x="0px" y="0px"
	 viewBox="0 0 32 32" enable-background="new 0 0 32 32" xml:space="preserve">
<g>
	<path fill="#8F9BA8" d="M15.7,27.8c-1.5,0-2.7-1.2-2.7-2.7V6.9c0-1.5,1.2-2.7,2.7-2.7s2.7,1.2,2.7,2.7v18.3
		C18.4,26.6,17.2,27.8,15.7,27.8z M15.7,5.7c-0.7,0-1.2,0.5-1.2,1.2v18.3c0,0.7,0.5,1.2,1.2,1.2c0.7,0,1.2-0.5,1.2-1.2V6.9
		C16.9,6.2,16.4,5.7,15.7,5.7z"/>
	<path fill="#8F9BA8" d="M14.5,26.9l-9.5-7v-7.9l9.5-7V26.9z M6.5,19.2l6.5,4.8V8.1l-6.5,4.8V19.2z"/>
	<g>
		<path fill="#F0F7F7" d="M5.1,20.6L5.1,20.6c-2,0-3.6-1.6-3.6-3.6v-2c0-2,1.6-3.6,3.6-3.6l0,0c0.4,0,0.7,0.3,0.7,0.7v7.8
			C5.7,20.3,5.4,20.6,5.1,20.6z"/>
		<path fill="#8F9BA8" d="M5.1,21.3c-2.4,0-4.3-1.9-4.3-4.3v-2c0-2.4,1.9-4.3,4.3-4.3c0.8,0,1.4,0.6,1.4,1.4v7.8
			C6.5,20.7,5.9,21.3,5.1,21.3z M5,12.2c-1.5,0-2.7,1.3-2.7,2.8v2c0,1.5,1.2,2.8,2.7,2.8V12.2z"/>
	</g>
	<g>
		<path fill="#F0F7F7" d="M18.5,13.4c-0.3,0-0.6,0.1-0.8,0.1v4.9c0.3,0.1,0.5,0.1,0.8,0.1c1.4,0,2.6-1.2,2.6-2.6
			C21.1,14.6,19.9,13.4,18.5,13.4z"/>
		<path fill="#8F9BA8" d="M18.5,19.4c-0.4,0-0.7-0.1-1.1-0.2L16.9,19v-6l0.5-0.2c2.4-0.8,4.4,1,4.4,3.2
			C21.9,17.9,20.3,19.4,18.5,19.4z M18.4,17.9c1.1,0.1,2-0.8,2-1.9s-0.9-2-2-1.9V17.9z"/>
	</g>
	<path fill="#8F9BA8" d="M22.8,20.8l-1.1-1.1c0.9-0.9,1.4-2.2,1.4-3.5c0-1.3-0.5-2.5-1.4-3.5l1.1-1.1c1.2,1.2,1.9,2.8,1.9,4.5
		C24.6,18,24,19.6,22.8,20.8z"/>
	<path fill="#8F9BA8" d="M25.1,23.2L24,22.1c1.6-1.6,2.4-3.6,2.4-5.8c0-2.2-0.9-4.3-2.4-5.8l1.1-1.1c1.8,1.8,2.9,4.3,2.9,6.9
		C28,18.9,26.9,21.3,25.1,23.2z"/>
	<path fill="#8F9BA8" d="M27.4,25.5l-1.1-1.1c4.5-4.5,4.5-11.8,0-16.3L27.4,7C32.5,12.1,32.5,20.4,27.4,25.5z"/>
</g>
</svg>
