<?xml version="1.0" encoding="utf-8"?>
<!-- Generator: Adobe Illustrator 18.0.0, SVG Export Plug-In . SVG Version: 6.00 Build 0)  -->
<!DOCTYPE svg PUBLIC "-//W3C//DTD SVG 1.1//EN" "http://www.w3.org/Graphics/SVG/1.1/DTD/svg11.dtd">
<svg version="1.1" id="Layer_1" xmlns="http://www.w3.org/2000/svg" xmlns:xlink="http://www.w3.org/1999/xlink" x="0px" y="0px"
	 viewBox="0 0 32 32" enable-background="new 0 0 32 32" xml:space="preserve">
<g>
	<path fill="#8F9BA8" d="M15.6,27.8L5.4,20.3v-8.5l10.2-7.5V27.8z M6.9,19.5l7.2,5.2V7.3l-7.2,5.2V19.5z"/>
	<g>
		<path fill="#F0F7F7" d="M5.4,21L5.4,21c-2.1,0-3.9-1.7-3.9-3.9v-2.1c0-2.1,1.7-3.9,3.9-3.9l0,0c0.4,0,0.7,0.3,0.7,0.7v8.5
			C6.1,20.6,5.8,21,5.4,21z"/>
		<path fill="#8F9BA8" d="M5.4,21.7c-2.6,0-4.7-2.1-4.7-4.7v-2.1c0-2.6,2.1-4.7,4.7-4.7c0.8,0,1.5,0.7,1.5,1.5v8.5
			C6.9,21.1,6.2,21.7,5.4,21.7z M5.4,11.8c-1.7,0-3.1,1.4-3.1,3.2v2.1c0,1.7,1.4,3.1,3.1,3.1V11.8z"/>
	</g>
	<g>
		<path fill="#F0F7F7" d="M20,13.2c-0.3,0-0.6,0.1-0.9,0.2v5.4c0.3,0.1,0.6,0.2,0.9,0.2c1.6,0,2.8-1.3,2.8-2.8
			C22.8,14.4,21.6,13.2,20,13.2z"/>
		<path fill="#8F9BA8" d="M20,19.6c-0.4,0-0.7-0.1-1.2-0.2l-0.5-0.2v-6.5l0.5-0.2c2.5-0.9,4.8,1,4.8,3.4C23.6,18,22,19.6,20,19.6z
			 M19.8,18.1c1.2,0.1,2.2-0.9,2.2-2.1c0-1.2-1-2.2-2.2-2.1V18.1z"/>
	</g>
	<g>
		<line fill="#F0F7F7" x1="26.6" y1="23.3" x2="31.3" y2="23.3"/>
		<rect x="26.6" y="22.5" fill="#8F9BA8" width="4.7" height="1.5"/>
	</g>
	<g>
		<line fill="#F0F7F7" x1="26.6" y1="18.4" x2="31.3" y2="18.4"/>
		<rect x="26.6" y="17.7" fill="#8F9BA8" width="4.7" height="1.5"/>
	</g>
	<g>
		<line fill="#F0F7F7" x1="26.6" y1="13.6" x2="31.3" y2="13.6"/>
		<rect x="26.6" y="12.8" fill="#8F9BA8" width="4.7" height="1.5"/>
	</g>
	<g>
		<line fill="#F0F7F7" x1="26.6" y1="8.7" x2="31.3" y2="8.7"/>
		<rect x="26.6" y="7.9" fill="#8F9BA8" width="4.7" height="1.5"/>
	</g>
	<g>
		<path fill="#F0F7F7" d="M17,28.1L17,28.1c-1.2,0-2.1-1-2.1-2.1V6.1c0-1.2,1-2.1,2.1-2.1l0,0c1.2,0,2.1,1,2.1,2.1v19.9
			C19.1,27.1,18.1,28.1,17,28.1z"/>
		<path fill="#8F9BA8" d="M17,28.8c-1.6,0-2.9-1.3-2.9-2.9V6.1c0-1.6,1.3-2.9,2.9-2.9c1.6,0,2.9,1.3,2.9,2.9v19.9
			C19.8,27.5,18.5,28.8,17,28.8z M17,4.7c-0.7,0-1.4,0.6-1.4,1.4v19.9c0,0.7,0.6,1.4,1.4,1.4c0.7,0,1.4-0.6,1.4-1.4V6.1
			C18.3,5.3,17.7,4.7,17,4.7z"/>
	</g>
</g>
</svg>
