<?xml version="1.0" encoding="utf-8"?>
<!-- Generator: Adobe Illustrator 18.0.0, SVG Export Plug-In . SVG Version: 6.00 Build 0)  -->
<!DOCTYPE svg PUBLIC "-//W3C//DTD SVG 1.1//EN" "http://www.w3.org/Graphics/SVG/1.1/DTD/svg11.dtd">
<svg version="1.1" id="Layer_1" xmlns="http://www.w3.org/2000/svg" xmlns:xlink="http://www.w3.org/1999/xlink" x="0px" y="0px"
	 viewBox="0 0 32 32" enable-background="new 0 0 32 32" xml:space="preserve">
<g>
	<path fill="#8F9BA8" d="M17.1,29c-1.6,0-2.9-1.3-2.9-2.9V5.9c0-1.6,1.3-2.9,2.9-2.9S20,4.3,20,5.9V26C20.1,27.7,18.8,29,17.1,29z
		 M17.1,4.6c-0.8,0-1.4,0.6-1.4,1.4v20.1c0,0.8,0.6,1.4,1.4,1.4s1.4-0.6,1.4-1.4V5.9C18.5,5.2,17.9,4.6,17.1,4.6z"/>
	<path fill="#8F9BA8" d="M15.8,27.9L5.4,20.3v-8.6l10.4-7.6C15.8,4.1,15.8,27.9,15.8,27.9z M7,19.5l7.2,5.3V7.2L7,12.5V19.5z"/>
	<path fill="#8F9BA8" d="M5.5,21.8c-2.6,0-4.7-2.1-4.7-4.7v-2.2c0-2.6,2.1-4.7,4.7-4.7c0.8,0,1.5,0.7,1.5,1.5v8.6
		C7,21.1,6.3,21.8,5.5,21.8z M5.4,11.7c-1.7,0-3.1,1.5-3.1,3.2v2.2c0,1.7,1.4,3.1,3.1,3.2V11.7z"/>
	<path fill="#8F9BA8" d="M20.2,19.7c-0.4,0-0.8-0.1-1.2-0.2l-0.5-0.2v-6.5l0.5-0.2c0.4-0.1,0.8-0.2,1.2-0.2c2,0,3.7,1.6,3.7,3.7
		C23.9,18,22.2,19.7,20.2,19.7z M20.1,18.1c1.2,0.1,2.2-0.9,2.2-2.1s-1-2.2-2.2-2.1V18.1z"/>
	
		<rect x="25.4" y="15.2" transform="matrix(-0.7071 -0.7071 0.7071 -0.7071 37.3604 47.5658)" fill="#79C693" width="6.3" height="1.6"/>
	
		<rect x="27.7" y="12.9" transform="matrix(-0.7071 -0.7071 0.7071 -0.7071 37.2418 47.5161)" fill="#79C693" width="1.6" height="6.3"/>
</g>
</svg>
