<?xml version="1.0" encoding="utf-8"?>
<!-- Generator: Adobe Illustrator 18.0.0, SVG Export Plug-In . SVG Version: 6.00 Build 0)  -->
<!DOCTYPE svg PUBLIC "-//W3C//DTD SVG 1.1//EN" "http://www.w3.org/Graphics/SVG/1.1/DTD/svg11.dtd">
<svg version="1.1" id="Layer_1" xmlns="http://www.w3.org/2000/svg" xmlns:xlink="http://www.w3.org/1999/xlink" x="0px" y="0px"
	 viewBox="0 0 32 32" enable-background="new 0 0 32 32" xml:space="preserve">
<g>
	<path fill="#8F9BA8" d="M20.8,30.1H3.5c-1.5,0-2.7-1.2-2.7-2.7v-9.9c0-1.5,1.2-2.7,2.7-2.7h17.3c1.5,0,2.7,1.2,2.7,2.7v9.9
		C23.5,28.9,22.3,30.1,20.8,30.1z M3.5,16.3c-0.7,0-1.2,0.5-1.2,1.2v9.9c0,0.7,0.5,1.2,1.2,1.2h17.3c0.7,0,1.2-0.5,1.2-1.2v-9.9
		c0-0.7-0.5-1.2-1.2-1.2H3.5z"/>
	<path fill="#8F9BA8" d="M31.3,29.3l-6.3-2v-9.9l6.3-2V29.3z M26.5,26.3l3.3,1v-9.8l-3.3,1V26.3z"/>
	<path fill="#DA8C8C" d="M17.9,13.2c-3.1,0-5.6-2.5-5.6-5.6S14.8,2,17.9,2s5.6,2.5,5.6,5.6S21,13.2,17.9,13.2z M17.9,3.4
		c-2.3,0-4.1,1.9-4.1,4.1c0,2.3,1.9,4.1,4.1,4.1c2.3,0,4.1-1.9,4.1-4.1S20.1,3.4,17.9,3.4z"/>
	<path fill="#DA8C8C" d="M6.4,13.2c-3.1,0-5.6-2.5-5.6-5.6S3.3,2,6.4,2S12,4.5,12,7.6S9.5,13.2,6.4,13.2z M6.4,3.4
		c-2.3,0-4.1,1.9-4.1,4.1c0,2.3,1.9,4.1,4.1,4.1c2.3,0,4.1-1.9,4.1-4.1S8.7,3.4,6.4,3.4z"/>
	<rect x="17.1" y="4.4" fill="#DA8C8C" width="1.5" height="1"/>
	<g>
		<line fill="none" x1="17.9" y1="9.7" x2="17.9" y2="10.7"/>
		<rect x="17.1" y="9.7" fill="#DA8C8C" width="1.5" height="1"/>
	</g>
	<rect x="20" y="6.8" fill="#DA8C8C" width="1" height="1.5"/>
	<rect x="14.7" y="6.8" fill="#DA8C8C" width="1" height="1.5"/>
	<rect x="5.6" y="4.4" fill="#DA8C8C" width="1.5" height="1"/>
	<g>
		<line fill="none" x1="6.4" y1="9.7" x2="6.4" y2="10.7"/>
		<rect x="5.6" y="9.7" fill="#DA8C8C" width="1.5" height="1"/>
	</g>
	<rect x="8.6" y="6.8" fill="#DA8C8C" width="1" height="1.5"/>
	<rect x="3.3" y="6.8" fill="#DA8C8C" width="1" height="1.5"/>
</g>
</svg>
