<?xml version="1.0" encoding="utf-8"?>
<!-- Generator: Adobe Illustrator 18.0.0, SVG Export Plug-In . SVG Version: 6.00 Build 0)  -->
<!DOCTYPE svg PUBLIC "-//W3C//DTD SVG 1.1//EN" "http://www.w3.org/Graphics/SVG/1.1/DTD/svg11.dtd">
<svg version="1.1" id="Layer_1" xmlns="http://www.w3.org/2000/svg" xmlns:xlink="http://www.w3.org/1999/xlink" x="0px" y="0px"
	 viewBox="0 0 32 32" enable-background="new 0 0 32 32" xml:space="preserve">
<g>
	<g>
		<path fill="#8F9BA8" d="M22.7,8.7H9.3l1.4-5.9h10.5L22.7,8.7z M11.2,7.2h9.6l-0.7-2.9h-8.2L11.2,7.2z"/>
	</g>
	<g>
		<path fill="#DA8C8C" d="M28.2,29.2H3.8c-1.7,0-3.1-1.4-3.1-3.1V14.4h30.5v11.7C31.3,27.8,29.9,29.2,28.2,29.2z M2.3,15.9v10.2
			c0,0.9,0.7,1.6,1.6,1.6h24.3c0.9,0,1.6-0.7,1.6-1.6V15.9H2.3z"/>
	</g>
	<g>
		<line fill="#FAC2C3" x1="24" y1="15.1" x2="24" y2="19.8"/>
		<rect x="23.2" y="15.1" fill="#DA8C8C" width="1.5" height="4.6"/>
	</g>
	<g>
		<path fill="#FAC2C3" d="M30.5,10.3c0-1.3-1-2.3-2.3-2.3H3.8c-1.3,0-2.3,1-2.3,2.3v4.8h29V10.3z"/>
		<path fill="#DA8C8C" d="M31.3,15.9H0.8v-5.6c0-1.7,1.4-3.1,3.1-3.1h24.3c1.7,0,3.1,1.4,3.1,3.1V15.9z M2.3,14.4h27.5v-4.1
			c0-0.9-0.7-1.6-1.6-1.6H3.8c-0.9,0-1.6,0.7-1.6,1.6V14.4z"/>
	</g>
	<g>
		<line fill="#FAC2C3" x1="8.7" y1="15.1" x2="8.7" y2="19.8"/>
		<rect x="8" y="15.1" fill="#DA8C8C" width="1.5" height="4.6"/>
	</g>
</g>
</svg>
