<?xml version="1.0" encoding="utf-8"?>
<!-- Generator: Adobe Illustrator 18.0.0, SVG Export Plug-In . SVG Version: 6.00 Build 0)  -->
<!DOCTYPE svg PUBLIC "-//W3C//DTD SVG 1.1//EN" "http://www.w3.org/Graphics/SVG/1.1/DTD/svg11.dtd">
<svg version="1.1" id="Layer_1" xmlns="http://www.w3.org/2000/svg" xmlns:xlink="http://www.w3.org/1999/xlink" x="0px" y="0px"
	 viewBox="0 0 32 32" enable-background="new 0 0 32 32" xml:space="preserve">
<g>
	<path fill="#8F9BA8" d="M28.5,27.9H3.5c-1.5,0-2.8-1.3-2.8-2.8V6.9c0-1.5,1.3-2.8,2.8-2.8h24.9c1.5,0,2.8,1.3,2.8,2.8v18.1
		C31.3,26.6,30,27.9,28.5,27.9z M3.5,5.6c-0.7,0-1.3,0.6-1.3,1.3v18.1c0,0.7,0.6,1.3,1.3,1.3h24.9c0.7,0,1.3-0.6,1.3-1.3V6.9
		c0-0.7-0.6-1.3-1.3-1.3H3.5z"/>
	<polygon fill="#8F9BA8" points="16,19.7 1,7.5 2,6.3 16,17.8 30,6.3 31,7.5 	"/>
	
		<rect x="16.4" y="21.2" transform="matrix(0.6941 0.7199 -0.7199 0.6941 23.0044 -10.2916)" fill="#8F9BA8" width="14.4" height="1.5"/>
	<rect x="7.6" y="14.7" transform="matrix(0.72 0.694 -0.694 0.72 17.5622 0.3172)" fill="#8F9BA8" width="1.5" height="14.4"/>
</g>
</svg>
