<?xml version="1.0" encoding="utf-8"?>
<!-- Generator: Adobe Illustrator 18.0.0, SVG Export Plug-In . SVG Version: 6.00 Build 0)  -->
<!DOCTYPE svg PUBLIC "-//W3C//DTD SVG 1.1//EN" "http://www.w3.org/Graphics/SVG/1.1/DTD/svg11.dtd">
<svg version="1.1" id="Layer_1" xmlns="http://www.w3.org/2000/svg" xmlns:xlink="http://www.w3.org/1999/xlink" x="0px" y="0px"
	 viewBox="0 0 32 32" enable-background="new 0 0 32 32" xml:space="preserve">
<g>
	<g>
		<path fill="#F2E8B9" d="M22.5,15.1c-0.1-1.8-1.6-3.4-3.4-3.6c-1.2-0.1-2.3,0.3-3,1c-0.8-0.7-1.9-1.1-3-1c-1.8,0.2-3.3,1.7-3.4,3.6
			c-0.1,1.1,0.3,2.2,1,3c0.6,0.6,0.9,1.4,0.9,2.3c0,0.1,0,0.1,0,0.2c0,2,1.1,3.8,2.6,4.6c0-0.4-0.1-0.8-0.1-1.2
			c0-2.7,0.9-4.8,2.1-4.8s2.1,2.2,2.1,4.8c0,0.4,0,0.8-0.1,1.2c1.5-0.8,2.6-2.6,2.6-4.6c0-0.1,0-0.1,0-0.2c0-0.8,0.3-1.6,0.9-2.3
			C22.2,17.3,22.6,16.3,22.5,15.1z"/>
		<path fill="#B4A042" d="M18,25.8c-0.1,0-0.3,0-0.4-0.1c-0.2-0.2-0.4-0.4-0.3-0.7c0-0.4,0.1-0.7,0.1-1.1c0-2.7-0.9-4.1-1.3-4.1
			s-1.3,1.4-1.3,4.1c0,0.4,0,0.8,0.1,1.1c0,0.3-0.1,0.5-0.3,0.7s-0.5,0.2-0.8,0c-1.8-1-3-3-3-5.2v-0.2c0-0.6-0.2-1.2-0.7-1.7
			c-0.9-1-1.3-2.2-1.2-3.5c0.2-2.2,1.9-4,4.1-4.3c1.1-0.1,2.2,0.1,3.1,0.8c0.9-0.6,2-0.9,3.1-0.8c2.2,0.3,3.9,2,4.1,4.3
			c0.1,1.3-0.3,2.6-1.2,3.5c-0.5,0.5-0.7,1.1-0.7,1.7v0.2c0,2.2-1.1,4.2-3,5.2C18.2,25.8,18.1,25.8,18,25.8z M16,18.3
			c1.8,0,2.7,2.5,2.8,5.1c0.7-0.8,1-1.8,1-2.9v-0.2c0-1,0.4-2,1.1-2.8c0.6-0.7,0.9-1.5,0.8-2.4c-0.1-1.5-1.3-2.7-2.8-2.9
			c-0.9-0.1-1.8,0.2-2.5,0.8c-0.3,0.3-0.7,0.3-1,0c-0.7-0.6-1.6-0.9-2.5-0.8c-1.5,0.2-2.7,1.4-2.8,2.9c-0.1,0.9,0.2,1.7,0.8,2.4
			c0.7,0.8,1.1,1.8,1.1,2.8v0.2c0,1.1,0.4,2.2,1,2.9C13.3,20.8,14.2,18.3,16,18.3z"/>
	</g>
	<path fill="#8F9BA8" d="M26,31.3H6c-0.4,0-0.8-0.3-0.8-0.8V4.3c0-0.4,0.3-0.7,0.8-0.7h4.2c0.4,0,0.8,0.3,0.8,0.7v1.4h10V4.3
		c0-0.4,0.3-0.7,0.8-0.7H26c0.4,0,0.8,0.3,0.8,0.7v26.2C26.7,30.9,26.4,31.3,26,31.3z M6.8,29.8h18.4V5.1h-2.7v1.4
		c0,0.4-0.3,0.8-0.8,0.8H10.3C9.9,7.3,9.5,7,9.5,6.5V5.1H6.8V29.8z"/>
	<path fill="#8F9BA8" d="M21.7,7.2H10.3c-0.4,0-0.8-0.3-0.8-0.8v-5c0-0.4,0.3-0.8,0.8-0.8h11.5c0.4,0,0.8,0.3,0.8,0.8v5
		C22.5,6.9,22.1,7.2,21.7,7.2z M11,5.7h10V2.3H11V5.7z"/>
</g>
</svg>
