<?xml version="1.0" encoding="utf-8"?>
<!-- Generator: Adobe Illustrator 18.0.0, SVG Export Plug-In . SVG Version: 6.00 Build 0)  -->
<!DOCTYPE svg PUBLIC "-//W3C//DTD SVG 1.1//EN" "http://www.w3.org/Graphics/SVG/1.1/DTD/svg11.dtd">
<svg version="1.1" id="Layer_1" xmlns="http://www.w3.org/2000/svg" xmlns:xlink="http://www.w3.org/1999/xlink" x="0px" y="0px"
	 viewBox="0 0 32 32" enable-background="new 0 0 32 32" xml:space="preserve">
<g>
	<g>
		<path fill="#F0F7F7" d="M27.7,11H4.3c-1.6,0-2.8-1.3-2.8-2.8V5.1h29v3.1C30.5,9.7,29.2,11,27.7,11z"/>
		<path fill="#8F9BA8" d="M27.7,11.7H4.3c-2,0-3.6-1.6-3.6-3.6V4.3h30.5v3.8C31.3,10.1,29.6,11.7,27.7,11.7z M2.3,5.8v2.3
			c0,1.1,0.9,2.1,2.1,2.1h23.4c1.1,0,2.1-0.9,2.1-2.1V5.8H2.3z"/>
	</g>
	<path fill="#8F9BA8" d="M20,27v-6.7c0-2.2-1.8-4-4-4c-2.2,0-4,1.8-4,4V27l-1.1-0.5c-4-2-6.5-5.9-6.5-10.4v-5.9h23.1v5.9
		c0,4.4-2.5,8.4-6.5,10.4L20,27z M6,11.7v4.4c0,3.4,1.7,6.6,4.5,8.4v-4.2c0-3,2.5-5.5,5.5-5.5c3,0,5.5,2.5,5.5,5.5v4.2
		c2.8-1.8,4.5-5,4.5-8.4v-4.4H6z"/>
	<g>
		<path fill="#CDE4F7" d="M16,15.6c-2.6,0-4.8,2.1-4.8,4.8v5.5c1.4,0.7,3,1.1,4.8,1.1l0,0c1.7,0,3.3-0.4,4.8-1.1v-5.5
			C20.8,17.7,18.6,15.6,16,15.6z"/>
		<path fill="#74B1E0" d="M16,27.7c-1.8,0-3.5-0.4-5.1-1.2l-0.4-0.2v-6c0-3,2.5-5.5,5.5-5.5c3,0,5.5,2.5,5.5,5.5v6l-0.4,0.2
			C19.5,27.3,17.8,27.7,16,27.7z M12,25.3c2.5,1.1,5.5,1.1,8,0v-5c0-2.2-1.8-4-4-4c-2.2,0-4,1.8-4,4V25.3z"/>
	</g>
	<g>
		<line fill="#CDE4F7" x1="16" y1="19.4" x2="16" y2="20.9"/>
		<rect x="15.3" y="19.4" fill="#74B1E0" width="1.5" height="1.5"/>
	</g>
</g>
</svg>
