<?xml version="1.0" encoding="utf-8"?>
<!-- Generator: Adobe Illustrator 18.0.0, SVG Export Plug-In . SVG Version: 6.00 Build 0)  -->
<!DOCTYPE svg PUBLIC "-//W3C//DTD SVG 1.1//EN" "http://www.w3.org/Graphics/SVG/1.1/DTD/svg11.dtd">
<svg version="1.1" id="Layer_1" xmlns="http://www.w3.org/2000/svg" xmlns:xlink="http://www.w3.org/1999/xlink" x="0px" y="0px"
	 viewBox="0 0 32 32" enable-background="new 0 0 32 32" xml:space="preserve">
<g>
	<path fill="#8F9BA8" d="M31.3,29.2H0.8V2.8h30.5V29.2z M2.3,27.7h27.5V4.3H2.3V27.7z"/>
	<g>
		<path fill="#F0F7F7" d="M7.7,18.1L7.7,18.1c-1.2,0-2.2-1-2.2-2.2V3.5h4.3V16C9.9,17.2,8.9,18.1,7.7,18.1z"/>
		<path fill="#8F9BA8" d="M7.7,18.9c-1.6,0-2.9-1.3-2.9-2.9V2.8h5.8V16C10.7,17.6,9.3,18.9,7.7,18.9z M6.3,4.3V16
			c0,0.8,0.6,1.4,1.4,1.4s1.4-0.6,1.4-1.4V4.3H6.3z"/>
	</g>
	<g>
		<path fill="#F0F7F7" d="M16,18.1L16,18.1c-1.2,0-2.2-1-2.2-2.2V3.5h4.3V16C18.2,17.2,17.2,18.1,16,18.1z"/>
		<path fill="#8F9BA8" d="M16,18.9c-1.6,0-2.9-1.3-2.9-2.9V2.8h5.8V16C18.9,17.6,17.6,18.9,16,18.9z M14.6,4.3V16
			c0,0.8,0.6,1.4,1.4,1.4s1.4-0.6,1.4-1.4V4.3H14.6z"/>
	</g>
	<g>
		<path fill="#F0F7F7" d="M24.3,18.1L24.3,18.1c-1.2,0-2.2-1-2.2-2.2V3.5h4.3V16C26.4,17.2,25.5,18.1,24.3,18.1z"/>
		<path fill="#8F9BA8" d="M24.3,18.9c-1.6,0-2.9-1.3-2.9-2.9V2.8h5.8V16C27.2,17.6,25.9,18.9,24.3,18.9z M22.8,4.3V16
			c0,0.8,0.6,1.4,1.4,1.4s1.4-0.6,1.4-1.4V4.3H22.8z"/>
	</g>
	<rect x="23.5" y="18.1" fill="#8F9BA8" width="1.5" height="10.3"/>
	<rect x="15.3" y="18.1" fill="#8F9BA8" width="1.5" height="10.3"/>
	<rect x="7" y="18.1" fill="#8F9BA8" width="1.5" height="10.3"/>
</g>
</svg>
