<?xml version="1.0" encoding="utf-8"?>
<!-- Generator: Adobe Illustrator 18.0.0, SVG Export Plug-In . SVG Version: 6.00 Build 0)  -->
<!DOCTYPE svg PUBLIC "-//W3C//DTD SVG 1.1//EN" "http://www.w3.org/Graphics/SVG/1.1/DTD/svg11.dtd">
<svg version="1.1" id="Layer_1" xmlns="http://www.w3.org/2000/svg" xmlns:xlink="http://www.w3.org/1999/xlink" x="0px" y="0px"
	 viewBox="0 0 32 32" enable-background="new 0 0 32 32" xml:space="preserve">
<g>
	<path fill="#79C693" d="M5,31.3c-1.1,0-2.2-0.4-3-1.2c-0.8-0.8-1.3-2-1.2-3.1c0-1.2,0.6-2.3,1.5-3l6.3-5.4c-1.4-2.7-1.8-5.8-1-8.7
		c0.1-0.3,0.3-0.5,0.5-0.5c0.3-0.1,0.5,0,0.7,0.2l13.8,13.8c0.2,0.2,0.3,0.5,0.2,0.7c-0.1,0.3-0.3,0.5-0.5,0.5c-1,0.3-2,0.4-3.1,0.4
		l0,0c-2,0-3.9-0.5-5.7-1.4l-5.4,6.3C7.4,30.7,6.2,31.3,5,31.3z M8.7,11.5c-0.3,2.3,0.2,4.8,1.4,6.8c0.2,0.3,0.1,0.7-0.2,1L3.2,25
		c-0.6,0.5-0.9,1.2-1,2c0,0.8,0.3,1.5,0.8,2c1.1,1.1,3,1,4-0.2l5.8-6.8c0.2-0.3,0.6-0.3,1-0.2c1.6,1,3.5,1.5,5.4,1.5l0,0
		c0.5,0,0.9,0,1.3-0.1L8.7,11.5z"/>
	<path fill="#8F9BA8" d="M22.1,24.5c-0.2,0-0.4-0.1-0.5-0.2L7.7,10.5C7.6,10.3,7.5,10,7.5,9.7c0.5-2.1,1.6-4,3.1-5.5
		C12.9,2,16,0.7,19.2,0.7s6.2,1.3,8.5,3.5c2.3,2.3,3.5,5.3,3.5,8.5s-1.3,6.2-3.5,8.5c-1.5,1.5-3.4,2.6-5.5,3.1
		C22.2,24.5,22.1,24.5,22.1,24.5z M9.1,9.7l13.2,13.2c1.6-0.5,3.1-1.4,4.4-2.6c2-2,3.1-4.6,3.1-7.5c0-2.8-1.1-5.5-3.1-7.5
		s-4.6-3.1-7.5-3.1s-5.5,1.1-7.5,3.1C10.5,6.6,9.6,8.1,9.1,9.7z"/>
</g>
</svg>
