<?xml version="1.0" encoding="utf-8"?>
<!-- Generator: Adobe Illustrator 18.0.0, SVG Export Plug-In . SVG Version: 6.00 Build 0)  -->
<!DOCTYPE svg PUBLIC "-//W3C//DTD SVG 1.1//EN" "http://www.w3.org/Graphics/SVG/1.1/DTD/svg11.dtd">
<svg version="1.1" id="Layer_1" xmlns="http://www.w3.org/2000/svg" xmlns:xlink="http://www.w3.org/1999/xlink" x="0px" y="0px"
	 viewBox="0 0 32 32" enable-background="new 0 0 32 32" xml:space="preserve">
<pattern  x="-210" y="-168" width="24.1" height="24.1" patternUnits="userSpaceOnUse" id="New_Pattern_Swatch_1" viewBox="0 -24.1 24.1 24.1" overflow="visible">
	<g>
		<polygon fill="none" points="0,0 24.1,0 24.1,-24.1 0,-24.1 		"/>
		<polygon fill="#FEE99B" points="24.1,0 0,0 0,-24.1 24.1,-24.1 		"/>
	</g>
</pattern>
<pattern  x="-210" y="-168" width="24.1" height="24.1" patternUnits="userSpaceOnUse" id="New_Pattern_Swatch_2" viewBox="0 -24.1 24.1 24.1" overflow="visible">
	<g>
		<polygon fill="none" points="0,0 24.1,0 24.1,-24.1 0,-24.1 		"/>
		<polygon fill="#E0CB81" points="24.1,0 0,0 0,-24.1 24.1,-24.1 		"/>
	</g>
</pattern>
<g>
	<path fill="#8F9BA8" d="M16,31.3C7.6,31.3,0.8,24.4,0.8,16S7.6,0.7,16,0.7c8.4,0,15.3,6.8,15.3,15.3S24.4,31.3,16,31.3z M16,2.3
		C8.4,2.3,2.3,8.4,2.3,16c0,7.6,6.2,13.8,13.8,13.8c7.6,0,13.8-6.2,13.8-13.8C29.8,8.4,23.6,2.3,16,2.3z"/>
	<g>
		<pattern  id="SVGID_1_" xlink:href="#New_Pattern_Swatch_1" patternTransform="matrix(1 0 0 1 30.1012 -27.3097)">
		</pattern>
		<circle fill="url(#SVGID_1_)" cx="21" cy="12.5" r="2.7"/>
		<pattern  id="SVGID_2_" xlink:href="#New_Pattern_Swatch_2" patternTransform="matrix(1 0 0 1 30.1012 -27.3097)">
		</pattern>
		<path fill="url(#SVGID_2_)" d="M21,15.9c-1.9,0-3.4-1.5-3.4-3.4c0-1.9,1.5-3.4,3.4-3.4s3.4,1.5,3.4,3.4
			C24.5,14.4,22.9,15.9,21,15.9z M21,10.6c-1.1,0-1.9,0.9-1.9,1.9c0,1.1,0.9,1.9,1.9,1.9c1.1,0,1.9-0.9,1.9-1.9
			C23,11.4,22.1,10.6,21,10.6z"/>
	</g>
	<g>
		<pattern  id="SVGID_3_" xlink:href="#New_Pattern_Swatch_1" patternTransform="matrix(1 0 0 1 30.1012 -27.3097)">
		</pattern>
		<circle fill="url(#SVGID_3_)" cx="11" cy="12.5" r="2.7"/>
		<pattern  id="SVGID_4_" xlink:href="#New_Pattern_Swatch_2" patternTransform="matrix(1 0 0 1 30.1012 -27.3097)">
		</pattern>
		<path fill="url(#SVGID_4_)" d="M11,15.9c-1.9,0-3.4-1.5-3.4-3.4c0-1.9,1.5-3.4,3.4-3.4s3.4,1.5,3.4,3.4
			C14.4,14.4,12.8,15.9,11,15.9z M11,10.6c-1.1,0-1.9,0.9-1.9,1.9c0,1.1,0.9,1.9,1.9,1.9s1.9-0.9,1.9-1.9C12.9,11.4,12,10.6,11,10.6
			z"/>
	</g>
	<pattern  id="SVGID_5_" xlink:href="#New_Pattern_Swatch_2" patternTransform="matrix(1 0 0 1 30.1012 -27.3097)">
	</pattern>
	<path fill="url(#SVGID_5_)" d="M16,25.8c-2.1,0-4.1-1-5.3-2.7l1.2-0.9c1,1.3,2.5,2.1,4.1,2.1c1.6,0,3.1-0.8,4.1-2.1l1.2,0.9
		C20.1,24.8,18.1,25.8,16,25.8z"/>
</g>
</svg>
