<?xml version="1.0" encoding="utf-8"?>
<!-- Generator: Adobe Illustrator 18.0.0, SVG Export Plug-In . SVG Version: 6.00 Build 0)  -->
<!DOCTYPE svg PUBLIC "-//W3C//DTD SVG 1.1//EN" "http://www.w3.org/Graphics/SVG/1.1/DTD/svg11.dtd">
<svg version="1.1" id="Layer_1" xmlns="http://www.w3.org/2000/svg" xmlns:xlink="http://www.w3.org/1999/xlink" x="0px" y="0px"
	 viewBox="0 0 32 32" enable-background="new 0 0 32 32" xml:space="preserve">
<g>
	<path fill="#8F9BA8" d="M6.6,31.3c-0.7,0-1.3-0.3-1.8-0.7l-3.3-3.3c-1-1-1-2.5,0-3.5L16.7,8.5c0.9-0.9,2.6-0.9,3.5,0L20.7,9
		c0.1,0.1,0.2,0.3,0.2,0.5s-0.1,0.4-0.2,0.5L20,10.7l-2.6,3.8l3.8-2.6l0.7-0.7c0.1-0.1,0.3-0.2,0.5-0.2l0,0c0.2,0,0.4,0.1,0.5,0.2
		l0.5,0.5c0.5,0.5,0.7,1.1,0.7,1.8s-0.3,1.3-0.7,1.8L8.3,30.5C7.9,31,7.2,31.3,6.6,31.3z M18.4,9.2c-0.3,0-0.5,0.1-0.7,0.3L2.5,24.7
		c-0.4,0.4-0.4,1,0,1.4l3.3,3.3c0.4,0.4,1,0.4,1.4,0l15.2-15.2c0.2-0.2,0.3-0.4,0.3-0.7s-0.1-0.5-0.3-0.7L22.3,13l-0.1,0.1L15,18
		c-0.3,0.2-0.7,0.2-1-0.1c-0.3-0.3-0.3-0.7-0.1-1l4.9-7.1l0.1-0.1l0.2-0.2C18.9,9.3,18.7,9.2,18.4,9.2z"/>
	<g>
		<polygon fill="#F2E8B9" points="28.2,1.5 20.2,9.5 19.5,10.2 14.6,17.4 21.8,12.5 22.5,11.8 30.5,3.8 		"/>
		<path fill="#B4A042" d="M14.6,18.1c-0.2,0-0.4-0.1-0.5-0.2c-0.3-0.3-0.3-0.7-0.1-1l4.9-7.1L19,9.7L27.7,1c0.3-0.3,0.8-0.3,1.1,0
			L31,3.3c0.3,0.3,0.3,0.8,0,1.1L22.3,13l-0.1,0.1L15,18C14.9,18.1,14.8,18.1,14.6,18.1z M20.1,10.7l-2.6,3.8l3.8-2.6l8.1-8.1
			l-1.2-1.2L20.1,10.7z"/>
	</g>
</g>
</svg>
