<?xml version="1.0" encoding="utf-8"?>
<!-- Generator: Adobe Illustrator 18.0.0, SVG Export Plug-In . SVG Version: 6.00 Build 0)  -->
<!DOCTYPE svg PUBLIC "-//W3C//DTD SVG 1.1//EN" "http://www.w3.org/Graphics/SVG/1.1/DTD/svg11.dtd">
<svg version="1.1" id="Layer_1" xmlns="http://www.w3.org/2000/svg" xmlns:xlink="http://www.w3.org/1999/xlink" x="0px" y="0px"
	 viewBox="0 0 32 32" enable-background="new 0 0 32 32" xml:space="preserve">
<g>
	<path fill="#79C693" d="M20.2,31.3h-8.5c-2.2,0-4-1.8-4-4V4.7c0-2.2,1.8-4,4-4h8.5c2.2,0,4,1.8,4,4v22.5
		C24.2,29.5,22.4,31.3,20.2,31.3z M11.8,2.3c-1.4,0-2.5,1.1-2.5,2.5v22.5c0,1.4,1.1,2.5,2.5,2.5h8.5c1.4,0,2.5-1.1,2.5-2.5V4.7
		c0-1.4-1.1-2.5-2.5-2.5h-8.5V2.3z"/>
	<g>
		<g>
			<g>
				<rect x="20" y="7.1" fill="#79C693" width="1.5" height="3.7"/>
				<rect x="10.5" y="7.1" fill="#79C693" width="1.5" height="3.7"/>
			</g>
			<rect x="11.2" y="8.2" fill="#79C693" width="9.5" height="1.5"/>
		</g>
		<g>
			<g>
				<rect x="20" y="21.2" fill="#79C693" width="1.5" height="3.7"/>
				<rect x="10.5" y="21.2" fill="#79C693" width="1.5" height="3.7"/>
			</g>
			<rect x="11.2" y="22.3" fill="#79C693" width="9.5" height="1.5"/>
		</g>
	</g>
</g>
</svg>
