<?xml version="1.0" encoding="utf-8"?>
<!-- Generator: Adobe Illustrator 18.0.0, SVG Export Plug-In . SVG Version: 6.00 Build 0)  -->
<!DOCTYPE svg PUBLIC "-//W3C//DTD SVG 1.1//EN" "http://www.w3.org/Graphics/SVG/1.1/DTD/svg11.dtd">
<svg version="1.1" id="Layer_1" xmlns="http://www.w3.org/2000/svg" xmlns:xlink="http://www.w3.org/1999/xlink" x="0px" y="0px"
	 viewBox="0 0 32 32" enable-background="new 0 0 32 32" xml:space="preserve">
<g>
	<path fill="#DA8C8C" d="M27.7,31.3H4.3V0.7h23.4V31.3z M5.8,29.8h20.4V2.3H5.8V29.8z"/>
	<path fill="#DA8C8C" d="M22.4,31.3H9.6v-7.7h12.9V31.3z M11.1,29.8h9.9V25h-9.9V29.8z"/>
	<path fill="#DA8C8C" d="M22.4,8.5H9.6V0.7h12.9V8.5z M11.1,7h9.9V2.3h-9.9V7z"/>
	<rect x="5.1" y="15.3" fill="#DA8C8C" width="21.9" height="1.5"/>
	<path fill="#DA8C8C" d="M16,20.8c-2.6,0-4.8-2.1-4.8-4.8c0-2.6,2.1-4.8,4.8-4.8c2.6,0,4.8,2.1,4.8,4.8C20.8,18.6,18.6,20.8,16,20.8
		z M16,12.7c-1.8,0-3.3,1.5-3.3,3.3c0,1.8,1.5,3.3,3.3,3.3c1.8,0,3.3-1.5,3.3-3.3C19.3,14.2,17.8,12.7,16,12.7z"/>
</g>
</svg>
