<?xml version="1.0" encoding="utf-8"?>
<!-- Generator: Adobe Illustrator 18.0.0, SVG Export Plug-In . SVG Version: 6.00 Build 0)  -->
<!DOCTYPE svg PUBLIC "-//W3C//DTD SVG 1.1//EN" "http://www.w3.org/Graphics/SVG/1.1/DTD/svg11.dtd">
<svg version="1.1" id="Layer_1" xmlns="http://www.w3.org/2000/svg" xmlns:xlink="http://www.w3.org/1999/xlink" x="0px" y="0px"
	 viewBox="0 0 32 32" enable-background="new 0 0 32 32" xml:space="preserve">
<g>
	<g>
		<path fill="#8F9BA8" d="M27.8,27.8H4.2c-1.9,0-3.5-1.6-3.5-3.5V7.7c0-1.9,1.6-3.5,3.5-3.5h23.5c1.9,0,3.5,1.6,3.5,3.5v16.5
			C31.3,26.2,29.7,27.8,27.8,27.8z M4.2,5.7c-1.1,0-2,0.9-2,2v16.5c0,1.1,0.9,2,2,2h23.5c1.1,0,2-0.9,2-2V7.7c0-1.1-0.9-2-2-2H4.2z"
			/>
	</g>
	<g>
		<path fill="#F9F8F2" d="M30.5,20.4h-6.2c-2.4,0-4.4-1.9-4.4-4.4l0,0c0-2.4,1.9-4.4,4.4-4.4h6.2V20.4z"/>
		<path fill="#B4A79C" d="M31.3,21.1h-6.9c-2.8,0-5.1-2.3-5.1-5.1s2.3-5.1,5.1-5.1h6.9V21.1z M24.3,12.4c-2,0-3.6,1.6-3.6,3.6
			s1.6,3.6,3.6,3.6h5.4v-7.2C29.7,12.4,24.3,12.4,24.3,12.4z"/>
	</g>
	<g>
		<circle fill="#FFFFFF" cx="24.5" cy="16" r="1.8"/>
		<path fill="#B4A79C" d="M24.5,18.5c-1.4,0-2.5-1.1-2.5-2.5s1.1-2.5,2.5-2.5S27,14.6,27,16S25.9,18.5,24.5,18.5z M24.5,15
			c-0.6,0-1,0.5-1,1c0,0.6,0.5,1,1,1s1-0.5,1-1C25.5,15.4,25.1,15,24.5,15z"/>
	</g>
</g>
</svg>
