<?xml version="1.0" encoding="utf-8"?>
<!-- Generator: Adobe Illustrator 18.0.0, SVG Export Plug-In . SVG Version: 6.00 Build 0)  -->
<!DOCTYPE svg PUBLIC "-//W3C//DTD SVG 1.1//EN" "http://www.w3.org/Graphics/SVG/1.1/DTD/svg11.dtd">
<svg version="1.1" id="Layer_1" xmlns="http://www.w3.org/2000/svg" xmlns:xlink="http://www.w3.org/1999/xlink" x="0px" y="0px"
	 viewBox="0 0 32 32" enable-background="new 0 0 32 32" xml:space="preserve">
<g>
	<path fill="#8F9BA8" d="M26.5,25.5h-21V3.4c0-1.4,1.2-2.6,2.6-2.6h15.8c1.4,0,2.6,1.2,2.6,2.6C26.5,3.4,26.5,25.5,26.5,25.5z M7,24
		h18V3.4c0-0.6-0.5-1.1-1.1-1.1H8.1C7.5,2.3,7,2.8,7,3.4V24z"/>
	<path fill="#8F9BA8" d="M23.9,31.3H8.1c-1.4,0-2.6-1.2-2.6-2.6V24h21v4.6C26.5,30.1,25.3,31.3,23.9,31.3z M7,25.5v3.1
		c0,0.6,0.5,1.1,1.1,1.1h15.8c0.6,0,1.1-0.5,1.1-1.1v-3.1H7z M16.8,28.3h-1.5V27h1.5V28.3z"/>
</g>
</svg>
