<?xml version="1.0" encoding="utf-8"?>
<!-- Generator: Adobe Illustrator 18.0.0, SVG Export Plug-In . SVG Version: 6.00 Build 0)  -->
<!DOCTYPE svg PUBLIC "-//W3C//DTD SVG 1.1//EN" "http://www.w3.org/Graphics/SVG/1.1/DTD/svg11.dtd">
<svg version="1.1" id="Layer_1" xmlns="http://www.w3.org/2000/svg" xmlns:xlink="http://www.w3.org/1999/xlink" x="0px" y="0px"
	 viewBox="0 0 32 32" enable-background="new 0 0 32 32" xml:space="preserve">
<g>
	<path fill="#8F9BA8" d="M22.6,25.5h-21V3.4c0-1.4,1.2-2.6,2.6-2.6H20c1.4,0,2.6,1.2,2.6,2.6v3.7L22,7.2c-2.9,0.5-5.1,3-5.1,5.9
		c0,3,2.1,5.5,5.1,5.9l0.6,0.1V25.5z M3.1,24h18v-3.6c-3.3-0.8-5.7-3.8-5.7-7.3c0-3.5,2.4-6.5,5.7-7.3V3.4c0-0.6-0.5-1.1-1.1-1.1
		H4.2c-0.6,0-1.1,0.5-1.1,1.1V24z"/>
	<path fill="#8F9BA8" d="M20,31.3H4.2c-1.4,0-2.6-1.2-2.6-2.6V24h21v4.6C22.6,30.1,21.4,31.3,20,31.3z M3.1,25.5v3.1
		c0,0.6,0.5,1.1,1.1,1.1H20c0.6,0,1.1-0.5,1.1-1.1v-3.1H3.1z M12.8,28.3h-1.5V27h1.5V28.3z"/>
	<g>
		<path fill="#F9F8F2" d="M22.9,6.4c-0.4,0-0.7,0-1.1,0.1c-3.2,0.5-5.7,3.3-5.7,6.7l0,0c0,3.4,2.5,6.1,5.7,6.7
			c0.4,0.1,0.7,0.1,1.1,0.1c3.7,0,6.8-3,6.8-6.8l0,0C29.7,9.4,26.7,6.4,22.9,6.4z"/>
		<path fill="#B4A79C" d="M22.9,20.7c-0.4,0-0.8,0-1.2-0.1c-3.7-0.6-6.3-3.7-6.3-7.4c0-3.7,2.7-6.8,6.3-7.4c0.4-0.1,0.8-0.1,1.2-0.1
			c4.1,0,7.5,3.4,7.5,7.5C30.4,17.3,27.1,20.7,22.9,20.7z M22.9,7.1c-0.3,0-0.6,0-1,0.1c-2.9,0.5-5.1,3-5.1,5.9c0,3,2.1,5.5,5.1,5.9
			c0.4,0.1,0.7,0.1,1,0.1c3.3,0,6-2.7,6-6C28.9,9.8,26.2,7.1,22.9,7.1z"/>
	</g>
	<g>
		<line fill="#F9F8F2" x1="27.2" y1="13.1" x2="18.7" y2="13.1"/>
		<rect x="18.7" y="12.4" fill="#B4A79C" width="8.5" height="1.5"/>
	</g>
</g>
</svg>
