<?xml version="1.0" encoding="utf-8"?>
<!-- Generator: Adobe Illustrator 18.0.0, SVG Export Plug-In . SVG Version: 6.00 Build 0)  -->
<!DOCTYPE svg PUBLIC "-//W3C//DTD SVG 1.1//EN" "http://www.w3.org/Graphics/SVG/1.1/DTD/svg11.dtd">
<svg version="1.1" id="Layer_1" xmlns="http://www.w3.org/2000/svg" xmlns:xlink="http://www.w3.org/1999/xlink" x="0px" y="0px"
	 viewBox="0 0 32 32" enable-background="new 0 0 32 32" xml:space="preserve">
<g>
	<path fill="#B4A79C" d="M11.7,31.2c-0.1,0-0.2,0-0.4-0.1c-3.7-2-5.9-6-5.9-10.4c0-0.1,0-0.3,0-0.4c0-1.5-0.6-3.1-1.7-4.3
		C2,14.1,1.2,11.7,1.4,9.1c0.3-4.3,3.8-7.8,8-8.3c2.4-0.3,4.7,0.4,6.6,1.8c1.9-1.4,4.2-2.1,6.6-1.8c4.2,0.5,7.7,4.1,8,8.3
		c0.2,2.6-0.6,5-2.4,6.9c-1.1,1.3-1.7,2.8-1.7,4.3c0,0.1,0,0.3,0,0.4c0,4.5-2.3,8.5-5.9,10.4c-0.2,0.1-0.5,0.1-0.8,0
		c-0.2-0.2-0.4-0.4-0.3-0.7c0.1-0.8,0.1-1.7,0.1-2.5c0-5.6-1.9-9.6-3.7-9.6s-3.7,3.9-3.7,9.6c0,0.8,0,1.6,0.1,2.5
		c0,0.3-0.1,0.5-0.3,0.7C12,31.2,11.9,31.2,11.7,31.2z M10.5,2.2c-0.3,0-0.6,0-0.9,0.1C6,2.7,3.2,5.7,2.9,9.2
		c-0.2,2.1,0.5,4.2,2,5.7c1.4,1.5,2.2,3.5,2.1,5.4c0,0.1,0,0.2,0,0.4c0,3.3,1.5,6.4,3.9,8.3c0-0.4,0-0.7,0-1.1
		c0-6.3,2.2-11.1,5.2-11.1s5.2,4.8,5.2,11.1c0,0.4,0,0.7,0,1.1c2.4-1.9,3.9-5,3.9-8.3c0-0.1,0-0.2,0-0.4c-0.1-1.9,0.7-3.8,2.1-5.4
		c1.4-1.6,2.1-3.6,2-5.7c-0.3-3.5-3.2-6.5-6.7-6.9c-2.2-0.3-4.3,0.4-5.9,1.9c-0.3,0.3-0.7,0.3-1,0C14.1,2.9,12.3,2.2,10.5,2.2z"/>
	
		<rect x="20.8" y="6.5" transform="matrix(0.7071 0.7071 -0.7071 0.7071 13.1474 -12.3763)" fill="#B4A79C" width="1.5" height="6.3"/>
	
		<rect x="18.4" y="8.9" transform="matrix(0.707 0.7072 -0.7072 0.707 13.1505 -12.3777)" fill="#B4A79C" width="6.3" height="1.5"/>
</g>
</svg>
