<?xml version="1.0" encoding="utf-8"?>
<!-- Generator: Adobe Illustrator 18.0.0, SVG Export Plug-In . SVG Version: 6.00 Build 0)  -->
<!DOCTYPE svg PUBLIC "-//W3C//DTD SVG 1.1//EN" "http://www.w3.org/Graphics/SVG/1.1/DTD/svg11.dtd">
<svg version="1.1" id="Layer_1" xmlns="http://www.w3.org/2000/svg" xmlns:xlink="http://www.w3.org/1999/xlink" x="0px" y="0px"
	 viewBox="0 0 32 32" enable-background="new 0 0 32 32" xml:space="preserve">
<g>
	<path fill="#74B1E0" d="M6.2,31.2c-0.6,0-1.1-0.2-1.5-0.6l-3.3-3.3c-0.4-0.4-0.6-0.9-0.6-1.5c0-0.6,0.2-1.1,0.6-1.5
		C2,23.7,3.1,23.6,3.9,24L23.5,2.2c0.8-0.9,2-1.5,3.3-1.5c1.2,0,2.3,0.5,3.1,1.3c0.9,0.9,1.3,2,1.3,3.3c0,1.2-0.6,2.4-1.5,3.2
		L8,28.1c0.2,0.3,0.3,0.7,0.3,1c0,0.6-0.2,1.1-0.6,1.5C7.3,31,6.7,31.2,6.2,31.2z M2.8,25.2c-0.2,0-0.3,0.1-0.4,0.2
		c-0.1,0.1-0.2,0.3-0.2,0.4c0,0.2,0.1,0.3,0.2,0.4l3.3,3.3c0.2,0.2,0.6,0.2,0.8,0c0.1-0.1,0.2-0.3,0.2-0.4c0-0.2-0.1-0.3-0.2-0.4
		l-0.1-0.1c-0.1-0.1-0.2-0.3-0.2-0.5c0-0.2,0.1-0.4,0.2-0.5L28.8,7.4c0.6-0.5,1-1.3,1-2.1c0-0.8-0.3-1.6-0.9-2.2
		C27.7,2,25.7,2,24.6,3.2L4.5,25.5c-0.1,0.2-0.3,0.2-0.5,0.2c-0.2,0-0.4-0.1-0.5-0.2l-0.1-0.1C3.2,25.3,3,25.2,2.8,25.2z"/>
	<g>
		<circle fill="#CDE4F7" cx="24.4" cy="23" r="3.9"/>
		<path fill="#74B1E0" d="M24.4,27.6c-2.6,0-4.7-2.1-4.7-4.7s2.1-4.7,4.7-4.7s4.7,2.1,4.7,4.7S27,27.6,24.4,27.6z M24.4,19.8
			c-1.7,0-3.2,1.4-3.2,3.2c0,1.7,1.4,3.2,3.2,3.2c1.7,0,3.2-1.4,3.2-3.2C27.6,21.2,26.1,19.8,24.4,19.8z"/>
	</g>
</g>
</svg>
