<?xml version="1.0" encoding="utf-8"?>
<!-- Generator: Adobe Illustrator 18.0.0, SVG Export Plug-In . SVG Version: 6.00 Build 0)  -->
<!DOCTYPE svg PUBLIC "-//W3C//DTD SVG 1.1//EN" "http://www.w3.org/Graphics/SVG/1.1/DTD/svg11.dtd">
<svg version="1.1" id="Layer_1" xmlns="http://www.w3.org/2000/svg" xmlns:xlink="http://www.w3.org/1999/xlink" x="0px" y="0px"
	 viewBox="0 0 32 32" enable-background="new 0 0 32 32" xml:space="preserve">
<g>
	<g>
		<path fill="#F0F7F7" d="M16,30.5L16,30.5c1.6,0,2.9-1.3,2.9-2.9v-8.7h-5.8v8.7C13.1,29.2,14.4,30.5,16,30.5z"/>
		<path fill="#8F9BA8" d="M16,31.3c-2,0-3.7-1.6-3.7-3.7v-8.7c0-0.4,0.3-0.8,0.8-0.8h5.8c0.4,0,0.8,0.3,0.8,0.8v8.7
			C19.7,29.6,18,31.3,16,31.3z M13.8,19.7v7.9c0,1.2,1,2.2,2.2,2.2s2.2-1,2.2-2.2v-7.9H13.8z"/>
	</g>
	<path fill="#8F9BA8" d="M24,19.7H8c-0.4,0-0.7-0.3-0.7-0.6c-0.1-0.6-0.1-1.1-0.1-1.6c0-0.1,0-0.2,0-0.3c0-1.2-0.5-2.5-1.4-3.5
		C4.3,12,3.6,10,3.8,7.8c0.3-3.6,3.2-6.6,6.8-7c2-0.2,3.9,0.3,5.5,1.5c1.6-1.2,3.5-1.7,5.5-1.5c3.6,0.4,6.5,3.4,6.7,7
		c0.2,2.2-0.5,4.2-2,5.8c-0.9,1-1.4,2.3-1.4,3.5v0.3c0,0.5,0,1-0.1,1.6C24.7,19.4,24.4,19.7,24,19.7z M8.7,18.2h14.7
		c0-0.3,0-0.5,0-0.8v-0.3c-0.1-1.6,0.6-3.2,1.8-4.6c1.2-1.3,1.7-2.9,1.6-4.7c-0.2-2.9-2.6-5.3-5.4-5.6c-1.8-0.2-3.5,0.3-4.8,1.5
		c-0.3,0.3-0.7,0.3-1,0c-1.3-1.2-3-1.7-4.8-1.5C7.8,2.6,5.5,5,5.3,7.9c-0.1,1.7,0.4,3.4,1.6,4.7s1.8,2.9,1.8,4.6c0,0.1,0,0.2,0,0.3
		C8.6,17.7,8.6,17.9,8.7,18.2z"/>
	<rect x="18.9" y="22.3" fill="#8F9BA8" width="2.8" height="1.5"/>
	<rect x="18.9" y="25.5" fill="#8F9BA8" width="2.8" height="1.5"/>
	<rect x="10.3" y="22.3" fill="#8F9BA8" width="2.8" height="1.5"/>
	<rect x="10.3" y="25.5" fill="#8F9BA8" width="2.8" height="1.5"/>
</g>
</svg>
