<?xml version="1.0" encoding="utf-8"?>
<!-- Generator: Adobe Illustrator 18.0.0, SVG Export Plug-In . SVG Version: 6.00 Build 0)  -->
<!DOCTYPE svg PUBLIC "-//W3C//DTD SVG 1.1//EN" "http://www.w3.org/Graphics/SVG/1.1/DTD/svg11.dtd">
<svg version="1.1" id="Layer_1" xmlns="http://www.w3.org/2000/svg" xmlns:xlink="http://www.w3.org/1999/xlink" x="0px" y="0px"
	 viewBox="0 0 32 32" enable-background="new 0 0 32 32" xml:space="preserve">
<g>
	<path fill="#8F9BA8" d="M24.8,31.3H7.2c-0.4,0-0.8-0.3-0.8-0.8v-29c0-0.4,0.3-0.8,0.8-0.8h17.6c0.4,0,0.8,0.3,0.8,0.8v29
		C25.6,30.9,25.2,31.3,24.8,31.3z M7.9,29.8h16.1V2.3H7.9V29.8z"/>
	<g>
		<line fill="#CDE4F7" x1="10.1" y1="5.4" x2="21.9" y2="5.4"/>
		<rect x="10.1" y="4.6" fill="#74B1E0" width="11.8" height="1.5"/>
	</g>
	<g>
		<line fill="#CDE4F7" x1="10.1" y1="10.3" x2="21.9" y2="10.3"/>
		<rect x="10.1" y="9.5" fill="#74B1E0" width="11.8" height="1.5"/>
	</g>
	<g>
		<circle fill="#CDE4F7" cx="16" cy="18.6" r="2"/>
		<path fill="#74B1E0" d="M16,21.3c-1.5,0-2.8-1.2-2.8-2.8c0-1.5,1.2-2.8,2.8-2.8c1.5,0,2.8,1.2,2.8,2.8
			C18.8,20.1,17.5,21.3,16,21.3z M16,17.3c-0.7,0-1.3,0.6-1.3,1.3c0,0.7,0.6,1.3,1.3,1.3s1.3-0.6,1.3-1.3
			C17.3,17.9,16.7,17.3,16,17.3z"/>
	</g>
	<g>
		<line fill="#CDE4F7" x1="15.1" y1="23.4" x2="16.9" y2="23.4"/>
		<rect x="15.1" y="22.6" fill="#74B1E0" width="1.8" height="1.5"/>
	</g>
</g>
</svg>
