<?xml version="1.0" encoding="utf-8"?>
<!-- Generator: Adobe Illustrator 18.0.0, SVG Export Plug-In . SVG Version: 6.00 Build 0)  -->
<!DOCTYPE svg PUBLIC "-//W3C//DTD SVG 1.1//EN" "http://www.w3.org/Graphics/SVG/1.1/DTD/svg11.dtd">
<svg version="1.1" id="Layer_1" xmlns="http://www.w3.org/2000/svg" xmlns:xlink="http://www.w3.org/1999/xlink" x="0px" y="0px"
	 viewBox="0 0 32 32" enable-background="new 0 0 32 32" xml:space="preserve">
<g>
	<path fill="#8F9BA8" d="M27.1,27.1H4.9V4.9h22.2V27.1z M6.5,25.5h19v-19h-19V25.5z"/>
	<g>
		<rect x="11.2" y="11.2" fill="#F0F7F7" width="9.6" height="9.6"/>
		<path fill="#8F9BA8" d="M21.6,21.6H10.4V10.4h11.2C21.6,10.4,21.6,21.6,21.6,21.6z M12,20h8v-8h-8V20z"/>
	</g>
	<rect x="26.3" y="8" fill="#8F9BA8" width="4.9" height="1.6"/>
	<rect x="26.3" y="12.8" fill="#8F9BA8" width="4.9" height="1.6"/>
	<rect x="26.3" y="17.6" fill="#8F9BA8" width="4.9" height="1.6"/>
	<rect x="26.3" y="22.4" fill="#8F9BA8" width="4.9" height="1.6"/>
	<rect x="0.7" y="8" fill="#8F9BA8" width="4.9" height="1.6"/>
	<rect x="0.7" y="12.8" fill="#8F9BA8" width="4.9" height="1.6"/>
	<rect x="0.7" y="17.6" fill="#8F9BA8" width="4.9" height="1.6"/>
	<rect x="0.7" y="22.4" fill="#8F9BA8" width="4.9" height="1.6"/>
	<rect x="22.4" y="26.3" fill="#8F9BA8" width="1.6" height="4.9"/>
	<rect x="17.6" y="26.3" fill="#8F9BA8" width="1.6" height="4.9"/>
	<rect x="12.8" y="26.3" fill="#8F9BA8" width="1.6" height="4.9"/>
	<rect x="8" y="26.3" fill="#8F9BA8" width="1.6" height="4.9"/>
	<rect x="22.4" y="0.8" fill="#8F9BA8" width="1.6" height="4.9"/>
	<rect x="17.6" y="0.8" fill="#8F9BA8" width="1.6" height="4.9"/>
	<rect x="12.8" y="0.8" fill="#8F9BA8" width="1.6" height="4.9"/>
	<rect x="8" y="0.8" fill="#8F9BA8" width="1.6" height="4.9"/>
</g>
</svg>
