<?xml version="1.0" encoding="utf-8"?>
<!-- Generator: Adobe Illustrator 18.0.0, SVG Export Plug-In . SVG Version: 6.00 Build 0)  -->
<!DOCTYPE svg PUBLIC "-//W3C//DTD SVG 1.1//EN" "http://www.w3.org/Graphics/SVG/1.1/DTD/svg11.dtd">
<svg version="1.1" id="Layer_1" xmlns="http://www.w3.org/2000/svg" xmlns:xlink="http://www.w3.org/1999/xlink" x="0px" y="0px"
	 viewBox="0 0 32 32" enable-background="new 0 0 32 32" xml:space="preserve">
<pattern  y="32" width="24.1" height="24.1" patternUnits="userSpaceOnUse" id="SVGID_1_" viewBox="0 -24.1 24.1 24.1" overflow="visible">
	<g>
		<polygon fill="none" points="0,0 24.1,0 24.1,-24.1 0,-24.1 		"/>
		<g>
			<polygon fill="none" points="0,-24.1 24.1,-24.1 24.1,0 0,0 			"/>
			<polygon fill="#FEE99B" points="24.1,-24.1 0,-24.1 0,0 24.1,0 			"/>
		</g>
	</g>
</pattern>
<pattern  y="32" width="24.1" height="24.1" patternUnits="userSpaceOnUse" id="SVGID_2_" viewBox="0 -24.1 24.1 24.1" overflow="visible">
	<g>
		<polygon fill="none" points="0,0 24.1,0 24.1,-24.1 0,-24.1 		"/>
		<g>
			<polygon fill="none" points="0,-24.1 24.1,-24.1 24.1,0 0,0 			"/>
			<polygon fill="#E0CB81" points="24.1,-24.1 0,-24.1 0,0 24.1,0 			"/>
		</g>
	</g>
</pattern>
<g>
	<path fill="#8F9BA8" d="M4.8,31.3c-1,0-2-0.4-2.7-1.1l-0.6-0.6c-1.5-1.5-1.5-3.9,0-5.4l9.1-9.1c1.4-1.4,4-1.4,5.4,0l0.6,0.6
		c0.7,0.7,1.1,1.7,1.1,2.7s-0.4,2-1.1,2.7l-9.1,9.1C6.8,30.9,5.9,31.3,4.8,31.3z M13.4,15.5c-0.6,0-1.2,0.2-1.6,0.7l-9.1,9.1
		c-0.9,0.9-0.9,2.4,0,3.3l0.6,0.6c0.9,0.9,2.4,0.9,3.3,0l9.1-9.1c0.4-0.4,0.7-1,0.7-1.6s-0.2-1.2-0.7-1.6L15,16.2
		C14.6,15.7,14,15.5,13.4,15.5z"/>
	
		<rect x="18.6" y="8.3" transform="matrix(-0.7071 -0.7071 0.7071 -0.7071 23.9398 35.7087)" fill="#8F9BA8" width="1.5" height="9.2"/>
	<g>
		<pattern  id="SVGID_3_" xlink:href="#SVGID_1_" patternTransform="matrix(1 0 0 -1 -322.5577 -16234.4238)">
		</pattern>
		<circle fill="url(#SVGID_3_)" cx="26" cy="6.3" r="4.8"/>
		<pattern  id="SVGID_4_" xlink:href="#SVGID_2_" patternTransform="matrix(1 0 0 -1 -322.5577 -16234.4238)">
		</pattern>
		<path fill="url(#SVGID_4_)" d="M26,11.8c-1.5,0-2.9-0.6-3.9-1.6s-1.6-2.4-1.6-3.9s0.6-2.9,1.6-3.9s2.4-1.6,3.9-1.6
			s2.9,0.6,3.9,1.6s1.6,2.4,1.6,3.9s-0.6,2.9-1.6,3.9S27.5,11.8,26,11.8z M26,2.2c-1.1,0-2.1,0.4-2.8,1.2C22.4,4.2,22,5.2,22,6.3
			s0.4,2.1,1.2,2.9c1.5,1.5,4.2,1.5,5.7,0C29.6,8.4,30,7.3,30,6.3c0-1.1-0.4-2.1-1.2-2.8C28.1,2.7,27.1,2.2,26,2.2z"/>
	</g>
</g>
</svg>
