<?xml version="1.0" encoding="utf-8"?>
<!-- Generator: Adobe Illustrator 18.0.0, SVG Export Plug-In . SVG Version: 6.00 Build 0)  -->
<!DOCTYPE svg PUBLIC "-//W3C//DTD SVG 1.1//EN" "http://www.w3.org/Graphics/SVG/1.1/DTD/svg11.dtd">
<svg version="1.1" id="Layer_1" xmlns="http://www.w3.org/2000/svg" xmlns:xlink="http://www.w3.org/1999/xlink" x="0px" y="0px"
	 viewBox="0 0 32 32" enable-background="new 0 0 32 32" xml:space="preserve">
<g>
	<g>
		<path fill="#8F9BA8" d="M4.1,29.7v-6.1H2.9c-1.2,0-2.1-0.9-2.1-2.1V4.4c0-1.2,0.9-2.1,2.1-2.1h26.3c1.2,0,2.1,0.9,2.1,2.1v17.1
			c0,1.2-0.9,2.1-2.1,2.1H13L4.1,29.7z M2.9,3.8c-0.3,0-0.6,0.3-0.6,0.6v17.1c0,0.3,0.3,0.6,0.6,0.6h2.7v4.7l6.9-4.7h16.6
			c0.3,0,0.6-0.3,0.6-0.6V4.4c0-0.3-0.3-0.6-0.6-0.6H2.9z"/>
	</g>
	<g>
		<path fill="#F0F7F7" d="M19,7.6c-1.3,0-2.4,0.7-3,1.7c-0.6-1-1.7-1.7-3-1.7c-1.9,0-3.5,1.6-3.5,3.5c0,4.8,6.5,7.3,6.5,7.3
			s6.5-2.5,6.5-7.3C22.5,9.2,20.9,7.6,19,7.6z"/>
		<path fill="#8F9BA8" d="M16,19.2l-0.3-0.1c-0.3-0.1-7-2.8-7-8c0-2.3,1.9-4.2,4.2-4.2c1.1,0,2.2,0.5,3,1.2c0.8-0.8,1.8-1.2,3-1.2
			c2.3,0,4.2,1.9,4.2,4.2c0,5.3-6.7,7.9-7,8L16,19.2z M13,8.4c-1.5,0-2.7,1.2-2.7,2.7c0,3.7,4.6,6,5.7,6.5c1.2-0.5,5.7-2.8,5.7-6.5
			c0-1.5-1.2-2.7-2.7-2.7c-1,0-1.8,0.5-2.3,1.4L16,10.8l-0.6-1.1C14.9,8.9,14,8.4,13,8.4z"/>
	</g>
</g>
</svg>
