<?xml version="1.0" encoding="utf-8"?>
<!-- Generator: Adobe Illustrator 18.0.0, SVG Export Plug-In . SVG Version: 6.00 Build 0)  -->
<!DOCTYPE svg PUBLIC "-//W3C//DTD SVG 1.1//EN" "http://www.w3.org/Graphics/SVG/1.1/DTD/svg11.dtd">
<svg version="1.1" id="Layer_1" xmlns="http://www.w3.org/2000/svg" xmlns:xlink="http://www.w3.org/1999/xlink" x="0px" y="0px"
	 viewBox="0 0 32 32" enable-background="new 0 0 32 32" xml:space="preserve">
<g>
	<path fill="#79C693" d="M24.6,31.3c-1.6,0-3.1-0.6-4.2-1.7l-7.7-7.7c-1.5-1.5-2.1-3.8-1.5-5.9c0.3-1,0.8-1.8,1.5-2.5
		c0.7-0.7,1.6-1.2,2.5-1.5c2.1-0.6,4.3,0,5.9,1.5l7.7,7.7c2.3,2.3,2.3,6.1,0,8.4C27.6,30.6,26.1,31.3,24.6,31.3z M16.8,13.1
		c-0.4,0-0.8,0.1-1.2,0.2c-0.7,0.2-1.4,0.6-1.9,1.1c-0.5,0.5-0.9,1.2-1.1,1.9c-0.5,1.6,0,3.2,1.1,4.4l7.7,7.7c0.8,0.8,2,1.3,3.1,1.3
		c1.2,0,2.3-0.5,3.1-1.3c1.7-1.7,1.7-4.5,0-6.3L20,14.4C19.1,13.6,18,13.1,16.8,13.1z"/>
	<path fill="#79C693" d="M12.2,17.7L5.6,9.6l3.3-3.3l8.1,6.6l-1.4,0.4c-0.7,0.2-1.4,0.6-1.9,1.1c-0.5,0.5-0.9,1.2-1.1,1.9L12.2,17.7
		z M7.6,9.7l4,4.9c0.3-0.5,0.6-0.9,1-1.3c0.4-0.4,0.8-0.7,1.3-1L9,8.4L7.6,9.7z"/>
	<g>
		<path fill="#F0F7F7" d="M5.6,3.2L2.5,6.3c-0.3,0.3-0.3,0.9,0,1.2L5,10.1c0.3,0.3,0.9,0.3,1.2,0l0.4-0.4L9,7.3L9.3,7
			c0.3-0.3,0.3-0.9,0-1.2L6.8,3.2C6.5,2.9,5.9,2.9,5.6,3.2z"/>
		<path fill="#8F9BA8" d="M5.6,11.1c-0.4,0-0.8-0.2-1.2-0.5L2,8.1C1.3,7.5,1.3,6.4,2,5.8l3.1-3.1c0.6-0.6,1.7-0.6,2.3,0l2.5,2.5
			c0.6,0.6,0.6,1.7,0,2.3l-3.1,3.1C6.5,10.9,6.1,11.1,5.6,11.1z M6.1,3.8L3,6.9C3,6.9,3,7,3,7l2.6,2.5c0,0,0.1,0,0.1,0l3.1-3.1
			c0,0,0-0.1,0-0.2L6.3,3.8H6.1z"/>
	</g>
	<g>
		<line fill="#F0F7F7" x1="7.9" y1="4.3" x2="11" y2="1.3"/>
		<rect x="8.7" y="0.7" transform="matrix(0.7071 0.7071 -0.7071 0.7071 4.747 -5.8494)" fill="#8F9BA8" width="1.5" height="4.3"/>
	</g>
</g>
</svg>
