<?xml version="1.0" encoding="utf-8"?>
<!-- Generator: Adobe Illustrator 18.0.0, SVG Export Plug-In . SVG Version: 6.00 Build 0)  -->
<!DOCTYPE svg PUBLIC "-//W3C//DTD SVG 1.1//EN" "http://www.w3.org/Graphics/SVG/1.1/DTD/svg11.dtd">
<svg version="1.1" id="Layer_1" xmlns="http://www.w3.org/2000/svg" xmlns:xlink="http://www.w3.org/1999/xlink" x="0px" y="0px"
	 viewBox="0 0 32 32" enable-background="new 0 0 32 32" xml:space="preserve">
<g>
	<g>
		<path fill="#F0F7F7" d="M8.3,20.7C6.5,20,4.4,20.4,3,21.9c-1.4,1.4-1.8,3.6-1.2,5.4l3.3-3.3l3,3l-3.3,3.3c1.8,0.7,3.9,0.3,5.4-1.2
			c1.4-1.4,1.8-3.6,1.2-5.4l3.9-3.9l0,0l0.8-0.8l-3-3L8.3,20.7z"/>
		<path fill="#8F9BA8" d="M6.6,31.2c-0.7,0-1.4-0.1-2-0.4l-1.1-0.4l3.6-3.6l-1.9-1.9l-3.6,3.6l-0.4-1.1c-0.8-2.1-0.3-4.5,1.3-6.1
			c1.5-1.5,3.7-2,5.7-1.5l4.9-4.9l4,4l-4.9,4.9c0.6,2,0,4.2-1.5,5.7C9.6,30.6,8.1,31.2,6.6,31.2z M6.3,29.7c1.2,0.1,2.4-0.4,3.3-1.2
			c1.2-1.2,1.6-3,1-4.6l-0.2-0.5l4.5-4.5L13,17.1l-4.5,4.5l-0.5-0.2c-1.6-0.6-3.4-0.2-4.6,1c-0.9,0.9-1.3,2.1-1.2,3.3l2.9-2.9l4,4
			L6.3,29.7z"/>
	</g>
	<g>
		<path fill="#F0F7F7" d="M23.7,11.3c1.8,0.7,3.9,0.3,5.4-1.2c1.4-1.4,1.8-3.6,1.2-5.4l-3.3,3.3l-3-3l3.3-3.3
			c-1.8-0.7-3.9-0.3-5.4,1.2c-1.4,1.4-1.8,3.6-1.2,5.4l-3.9,3.9l0,0L16,13l3,3L23.7,11.3z"/>
		<path fill="#8F9BA8" d="M19,17.1l-4-4l4.9-4.9c-0.6-2,0-4.2,1.5-5.7c1.6-1.6,4-2.1,6.1-1.3l1.1,0.4l-3.6,3.6l1.9,1.9l3.6-3.6
			l0.4,1.1c0.8,2.1,0.3,4.5-1.3,6.1c-1.5,1.5-3.7,2-5.7,1.5L19,17.1z M17.1,13l1.9,1.9l4.5-4.5l0.5,0.2c1.6,0.6,3.4,0.2,4.6-1
			c0.9-0.9,1.3-2.1,1.2-3.3l-2.9,2.9l-4-4l2.9-2.9c-1.2-0.1-2.4,0.4-3.3,1.2c-1.2,1.2-1.6,3-1,4.6l0.2,0.5L17.1,13z"/>
	</g>
	<path fill="#8F9BA8" d="M25.4,31.2c-1.5,0-3-0.6-4.1-1.7c-1.5-1.5-2-3.7-1.5-5.7L8.1,12.1c-2,0.6-4.2,0-5.7-1.5
		c-1.6-1.6-2.1-4-1.3-6.1l0.4-1.1l3.6,3.6l1.9-1.9L3.4,1.5l1.1-0.4c2.1-0.8,4.6-0.3,6.1,1.3c1.5,1.5,2,3.7,1.5,5.7l11.7,11.7
		c2-0.6,4.2,0,5.7,1.5c1.6,1.6,2.1,4,1.3,6.1l-0.4,1.1l-3.6-3.6l-1.9,1.9l3.6,3.6l-1.1,0.4C26.8,31.1,26.1,31.2,25.4,31.2z
		 M8.5,10.4l13.1,13.1l-0.2,0.5c-0.6,1.6-0.2,3.4,1,4.6c0.9,0.9,2.1,1.3,3.3,1.2l-2.9-2.9l4-4l2.9,2.9c0.1-1.2-0.4-2.4-1.2-3.3
		c-1.2-1.2-3-1.6-4.6-1l-0.5,0.2L10.4,8.5l0.2-0.5c0.6-1.6,0.2-3.4-1-4.6C8.7,2.6,7.5,2.2,6.3,2.3l2.9,2.9l-4,4L2.3,6.3
		C2.2,7.5,2.6,8.7,3.5,9.6c1.2,1.2,3,1.6,4.6,1L8.5,10.4z"/>
</g>
</svg>
