<?xml version="1.0" encoding="utf-8"?>
<!-- Generator: Adobe Illustrator 18.0.0, SVG Export Plug-In . SVG Version: 6.00 Build 0)  -->
<!DOCTYPE svg PUBLIC "-//W3C//DTD SVG 1.1//EN" "http://www.w3.org/Graphics/SVG/1.1/DTD/svg11.dtd">
<svg version="1.1" id="Layer_1" xmlns="http://www.w3.org/2000/svg" xmlns:xlink="http://www.w3.org/1999/xlink" x="0px" y="0px"
	 viewBox="0 0 32 32" enable-background="new 0 0 32 32" xml:space="preserve">
<g>
	<path fill="#79C693" d="M8,31.2H5.9c-1.5,0-2.7-1.2-2.7-2.7V17.6c0-1,0.8-1.8,1.8-1.8h3.9c1,0,1.8,0.8,1.8,1.8v10.9
		C10.7,30,9.5,31.2,8,31.2z M5,17.3c-0.2,0-0.3,0.1-0.3,0.3v10.9c0,0.7,0.5,1.2,1.2,1.2H8c0.7,0,1.2-0.5,1.2-1.2V17.6
		c0-0.2-0.1-0.3-0.3-0.3H5z"/>
	<rect x="6.2" y="1.4" fill="#79C693" width="1.5" height="15.1"/>
	<path fill="#79C693" d="M21.2,31.2c-1.8,0-3.3-1.5-3.3-3.3V15.2c-2.6-1.3-4.3-3.9-4.3-6.9c0-3.1,1.9-5.9,4.8-7.1l1-0.4v6.7H23V0.8
		l1,0.4c2.9,1.2,4.8,3.9,4.8,7.1c0,3-1.7,5.6-4.3,6.9v12.7C24.5,29.7,23,31.2,21.2,31.2z M17.9,3.1c-1.7,1.1-2.8,3-2.8,5.2
		c0,2.5,1.5,4.8,3.9,5.7l0.5,0.2v13.7c0,1,0.8,1.8,1.8,1.8c1,0,1.8-0.8,1.8-1.8V14.2l0.5-0.2c2.3-0.9,3.9-3.2,3.9-5.7
		c0-2.1-1.1-4.1-2.8-5.2v5.9h-6.6V3.1z"/>
</g>
</svg>
