<?xml version="1.0" encoding="utf-8"?>
<!-- Generator: Adobe Illustrator 18.0.0, SVG Export Plug-In . SVG Version: 6.00 Build 0)  -->
<!DOCTYPE svg PUBLIC "-//W3C//DTD SVG 1.1//EN" "http://www.w3.org/Graphics/SVG/1.1/DTD/svg11.dtd">
<svg version="1.1" id="Layer_1" xmlns="http://www.w3.org/2000/svg" xmlns:xlink="http://www.w3.org/1999/xlink" x="0px" y="0px"
	 viewBox="0 0 32 32" enable-background="new 0 0 32 32" xml:space="preserve">
<g>
	<path fill="#8F9BA8" d="M29.2,31.3H2.8c-1.1,0-2-0.9-2-2V2.8c0-1.1,0.9-2,2-2h26.4c1.1,0,2,0.9,2,2v26.4
		C31.3,30.3,30.3,31.3,29.2,31.3z M2.8,2.3c-0.3,0-0.5,0.2-0.5,0.5v26.4c0,0.3,0.2,0.5,0.5,0.5h26.4c0.3,0,0.5-0.2,0.5-0.5V2.8
		c0-0.3-0.2-0.5-0.5-0.5H2.8z"/>
	<rect x="5.6" y="22.8" fill="#B4A79C" width="1.5" height="4.8"/>
	<rect x="10.4" y="17.1" fill="#B4A79C" width="1.5" height="10.4"/>
	<rect x="15.3" y="9.4" fill="#B4A79C" width="1.5" height="18.2"/>
	<rect x="20.1" y="4.5" fill="#B4A79C" width="1.5" height="23.1"/>
	<rect x="24.9" y="11" fill="#B4A79C" width="1.5" height="16.5"/>
</g>
</svg>
