<?xml version="1.0" encoding="utf-8"?>
<!-- Generator: Adobe Illustrator 18.0.0, SVG Export Plug-In . SVG Version: 6.00 Build 0)  -->
<!DOCTYPE svg PUBLIC "-//W3C//DTD SVG 1.1//EN" "http://www.w3.org/Graphics/SVG/1.1/DTD/svg11.dtd">
<svg version="1.1" id="Layer_1" xmlns="http://www.w3.org/2000/svg" xmlns:xlink="http://www.w3.org/1999/xlink" x="0px" y="0px"
	 viewBox="0 0 32 32" enable-background="new 0 0 32 32" xml:space="preserve">
<g>
	<path fill="#74B1E0" d="M13,27.4c-0.1,0-0.3,0-0.4-0.1c-0.2-0.1-0.3-0.4-0.3-0.6V16.3L1,5.9C0.8,5.7,0.7,5.3,0.8,5.1
		c0.1-0.3,0.4-0.5,0.7-0.5h29c0.3,0,0.6,0.2,0.7,0.5c0.1,0.3,0,0.6-0.2,0.8L19.7,16.3v7.9c0,0.3-0.2,0.6-0.5,0.7l-5.9,2.5
		C13.2,27.4,13.1,27.4,13,27.4z M3.4,6.1l10.1,9.3c0.2,0.1,0.2,0.3,0.2,0.6v9.6l4.4-1.9V16c0-0.2,0.1-0.4,0.2-0.6l10.1-9.3H3.4z"/>
</g>
</svg>
