<?xml version="1.0" encoding="utf-8"?>
<!-- Generator: Adobe Illustrator 18.0.0, SVG Export Plug-In . SVG Version: 6.00 Build 0)  -->
<!DOCTYPE svg PUBLIC "-//W3C//DTD SVG 1.1//EN" "http://www.w3.org/Graphics/SVG/1.1/DTD/svg11.dtd">
<svg version="1.1" id="Layer_1" xmlns="http://www.w3.org/2000/svg" xmlns:xlink="http://www.w3.org/1999/xlink" x="0px" y="0px"
	 viewBox="0 0 32 32" enable-background="new 0 0 32 32" xml:space="preserve">
<g>
	<g>
		<circle fill="#CDE4F7" cx="16" cy="12.6" r="4.4"/>
		<path fill="#74B1E0" d="M16,17.8c-2.9,0-5.2-2.3-5.2-5.2s2.3-5.2,5.2-5.2s5.2,2.3,5.2,5.2S18.9,17.8,16,17.8z M16,8.9
			c-2,0-3.7,1.6-3.7,3.7s1.6,3.7,3.7,3.7c2,0,3.7-1.6,3.7-3.7S18,8.9,16,8.9z"/>
	</g>
	<path fill="#8F9BA8" d="M16,24.4c-0.2,0-0.4-0.1-0.5-0.2l-0.1-0.1c-0.2-0.2-0.3-0.6-0.1-0.8l0.1-0.1c0.2-0.5,1.1-0.5,1.4,0l0.1,0.1
		c0.1,0.3,0.1,0.6-0.1,0.8C16.4,24.3,16.2,24.4,16,24.4z"/>
	<g>
		<polygon fill="#F9F8F2" points="19.3,20.5 16.1,23.6 19.3,30.5 20.8,26.4 25,27.9 21.5,20.5 		"/>
		<path fill="#B4A79C" d="M19.3,31.2c-0.3,0-0.6-0.2-0.7-0.4L15.4,24c-0.1-0.3-0.1-0.6,0.1-0.9l3.2-3.2c0.1-0.1,0.3-0.2,0.5-0.2h2.3
			c0.3,0,0.6,0.2,0.7,0.4l3.5,7.5c0.1,0.3,0.1,0.6-0.1,0.8c-0.2,0.2-0.5,0.3-0.8,0.2l-3.6-1.3L20,30.7C19.9,31,19.6,31.2,19.3,31.2
			L19.3,31.2z M17,23.8l2.2,4.7l0.9-2.4c0.1-0.4,0.6-0.6,1-0.5l2.6,0.9l-2.5-5.4h-1.5L17,23.8z"/>
	</g>
	<g>
		<polygon fill="#F9F8F2" points="10.5,20.5 7,27.9 11.2,26.4 12.7,30.5 15.9,23.6 12.7,20.5 		"/>
		<path fill="#B4A79C" d="M12.7,31.2L12.7,31.2c-0.3,0-0.6-0.2-0.7-0.5l-1.2-3.4l-3.6,1.3c-0.3,0.1-0.6,0-0.8-0.2
			c-0.2-0.2-0.3-0.5-0.1-0.8l3.5-7.5c0.1-0.3,0.4-0.4,0.7-0.4h2.3c0.2,0,0.4,0.1,0.5,0.2l3.2,3.2c0.2,0.2,0.3,0.6,0.1,0.9l-3.2,6.8
			C13.3,31.1,13,31.2,12.7,31.2z M11.2,25.6c0.3,0,0.6,0.2,0.7,0.5l0.9,2.4l2.2-4.7l-2.6-2.6h-1.5l-2.5,5.4l2.6-0.9
			C11.1,25.7,11.1,25.6,11.2,25.6z"/>
	</g>
	<path fill="#74B1E0" d="M16.1,24.4C16,24.4,16,24.4,16.1,24.4c-0.3,0-0.5-0.1-0.7-0.2l-3-3H8.1c-0.4,0-0.8-0.3-0.8-0.8v-4.3l-3-3
		C4,12.8,4,12.3,4.3,12l3-3V4.8C7.4,4.3,7.7,4,8.1,4h4.3l3-3c0.3-0.3,0.8-0.3,1.1,0l3,3h4.3c0.4,0,0.8,0.3,0.8,0.8V9l3,3
		c0.3,0.3,0.3,0.8,0,1.1l-3,3v4.3c0,0.4-0.3,0.8-0.8,0.8h-4.3l-3,3C16.5,24.3,16.3,24.4,16.1,24.4z M8.9,19.7h3.9
		c0.2,0,0.4,0.1,0.5,0.2l2.7,2.7l2.7-2.7c0.1-0.1,0.3-0.2,0.5-0.2h3.9v-3.9c0-0.2,0.1-0.4,0.2-0.5l2.7-2.7l-2.7-2.7
		c-0.1-0.1-0.2-0.3-0.2-0.5V5.5h-3.9c-0.2,0-0.4-0.1-0.5-0.2L16,2.6l-2.7,2.7c-0.1,0.1-0.3,0.2-0.5,0.2H8.9v3.9
		c0,0.2-0.1,0.4-0.2,0.5L6,12.6l2.7,2.7c0.1,0.1,0.2,0.3,0.2,0.5V19.7z"/>
</g>
</svg>
