<?xml version="1.0" encoding="utf-8"?>
<!-- Generator: Adobe Illustrator 18.0.0, SVG Export Plug-In . SVG Version: 6.00 Build 0)  -->
<!DOCTYPE svg PUBLIC "-//W3C//DTD SVG 1.1//EN" "http://www.w3.org/Graphics/SVG/1.1/DTD/svg11.dtd">
<svg version="1.1" id="Layer_1" xmlns="http://www.w3.org/2000/svg" xmlns:xlink="http://www.w3.org/1999/xlink" x="0px" y="0px"
	 viewBox="0 0 32 32" enable-background="new 0 0 32 32" xml:space="preserve">
<g>
	<path fill="#B4A79C" d="M8.8,31.3c-1.2,0-2.2-0.5-3.1-1.3L2,26.3c-0.8-0.8-1.3-1.9-1.3-3.1c0-1.2,0.5-2.2,1.3-3.1L19.4,2.8
		c1.3-1.3,3.1-2,4.9-2c1.9,0,3.6,0.7,4.9,2c2.7,2.7,2.7,7.1,0,9.8L11.8,30C11,30.8,9.9,31.3,8.8,31.3z M24.3,2.2
		c-1.5,0-2.8,0.6-3.9,1.6L3.1,21.2c-0.5,0.5-0.8,1.2-0.8,2c0,0.8,0.3,1.5,0.8,2l3.7,3.7c1.1,1.1,2.9,1.1,4,0l17.4-17.4
		c2.1-2.1,2.1-5.6,0-7.7C27.1,2.8,25.8,2.2,24.3,2.2z"/>
	<path fill="#B4A79C" d="M21.3,16.8l-6.1-6.1l3.3-3.3l6.1,6.1L21.3,16.8z M17.3,10.7l3.9,3.9l1.2-1.2l-3.9-3.9L17.3,10.7z"/>
	<path fill="#B4A79C" d="M14,24.1L7.9,18l3.3-3.3l6.1,6.1L14,24.1z M10.1,18L14,22l1.2-1.2l-3.9-3.9L10.1,18z"/>
</g>
</svg>
