<?xml version="1.0" encoding="utf-8"?>
<!-- Generator: Adobe Illustrator 18.0.0, SVG Export Plug-In . SVG Version: 6.00 Build 0)  -->
<!DOCTYPE svg PUBLIC "-//W3C//DTD SVG 1.1//EN" "http://www.w3.org/Graphics/SVG/1.1/DTD/svg11.dtd">
<svg version="1.1" id="Layer_1" xmlns="http://www.w3.org/2000/svg" xmlns:xlink="http://www.w3.org/1999/xlink" x="0px" y="0px"
	 viewBox="0 0 32 32" enable-background="new 0 0 32 32" xml:space="preserve">
<g>
	<path fill="#8F9BA8" d="M31.3,31.3H0.8V7.3h30.5V31.3z M2.3,29.8h27.5V8.8H2.3V29.8z"/>
	<path fill="#8F9BA8" d="M31.3,8.8H0.8V0.7h30.5V8.8z M2.3,7.3h27.5V2.3H2.3V7.3z"/>
	<g>
		<polygon fill="#F0F7F7" points="16,13.1 8.9,19.8 11.3,19.8 11.3,25.5 16,25.5 20.7,25.5 20.7,19.8 23.1,19.8 		"/>
		<path fill="#8F9BA8" d="M20.7,26.3h-9.4c-0.4,0-0.8-0.3-0.8-0.8v-5H8.9c-0.3,0-0.6-0.2-0.7-0.5c-0.1-0.3,0-0.6,0.2-0.8l7.1-6.7
			c0.3-0.3,0.7-0.3,1,0l7.1,6.7c0.2,0.2,0.3,0.5,0.2,0.8c-0.1,0.3-0.4,0.5-0.7,0.5h-1.7v5C21.5,25.9,21.1,26.3,20.7,26.3z M12,24.8
			H20v-5c0-0.4,0.3-0.8,0.8-0.8h0.5L16,14.1L10.8,19h0.5c0.4,0,0.8,0.3,0.8,0.8V24.8z"/>
	</g>
	<g>
		<line fill="#F0F7F7" x1="20.6" y1="14.1" x2="20.6" y2="17.3"/>
		<rect x="19.9" y="14" fill="#8F9BA8" width="1.5" height="3.3"/>
	</g>
	<rect x="15.3" y="22.2" fill="#8F9BA8" width="1.5" height="3.3"/>
</g>
</svg>
