<?xml version="1.0" encoding="utf-8"?>
<!-- Generator: Adobe Illustrator 18.0.0, SVG Export Plug-In . SVG Version: 6.00 Build 0)  -->
<!DOCTYPE svg PUBLIC "-//W3C//DTD SVG 1.1//EN" "http://www.w3.org/Graphics/SVG/1.1/DTD/svg11.dtd">
<svg version="1.1" id="Layer_1" xmlns="http://www.w3.org/2000/svg" xmlns:xlink="http://www.w3.org/1999/xlink" x="0px" y="0px"
	 viewBox="0 0 32 32" enable-background="new 0 0 32 32" xml:space="preserve">
<g>
	<g>
		<path fill="#79C693" d="M4.1,29.7v-6.1H2.9c-1.2,0-2.1-0.9-2.1-2.1V4.4c0-1.2,0.9-2.1,2.1-2.1h26.3c1.2,0,2.1,0.9,2.1,2.1v17.1
			c0,1.2-0.9,2.1-2.1,2.1H13L4.1,29.7z M2.9,3.8c-0.3,0-0.6,0.3-0.6,0.6v17.1c0,0.3,0.3,0.6,0.6,0.6h2.7v4.7l6.9-4.7h16.6
			c0.3,0,0.6-0.3,0.6-0.6V4.4c0-0.3-0.3-0.6-0.6-0.6H2.9z"/>
	</g>
	<g>
		<path fill="#79C693" d="M16,17.8c-2.7,0-4.8-2.2-4.8-4.8c0-2.7,2.2-4.8,4.8-4.8c2.7,0,4.8,2.2,4.8,4.8
			C20.8,15.6,18.7,17.8,16,17.8z M16,9.6c-1.8,0-3.3,1.5-3.3,3.3c0,1.8,1.5,3.3,3.3,3.3s3.3-1.5,3.3-3.3C19.3,11.1,17.8,9.6,16,9.6z
			"/>
	</g>
</g>
</svg>
