<?xml version="1.0" encoding="utf-8"?>
<!-- Generator: Adobe Illustrator 18.0.0, SVG Export Plug-In . SVG Version: 6.00 Build 0)  -->
<!DOCTYPE svg PUBLIC "-//W3C//DTD SVG 1.1//EN" "http://www.w3.org/Graphics/SVG/1.1/DTD/svg11.dtd">
<svg version="1.1" id="Layer_1" xmlns="http://www.w3.org/2000/svg" xmlns:xlink="http://www.w3.org/1999/xlink" x="0px" y="0px"
	 viewBox="0 0 32 32" enable-background="new 0 0 32 32" xml:space="preserve">
<g>
	<path fill="#B4A79C" d="M23.9,15l-1.3-1.3c-1.3-1.2-2.8-2.1-4.5-2.5l-0.6-0.1V0.7h6.4V15z M19,10c1.2,0.3,2.4,0.9,3.4,1.7V2.3H19
		V10z"/>
	<path fill="#B4A79C" d="M8.1,15.1V0.7h6.4v10.4l-0.6,0.1c-1.7,0.4-3.3,1.3-4.5,2.5L8.1,15.1z M9.6,2.3v9.4c1-0.7,2.2-1.3,3.4-1.7
		V2.3H9.6z"/>
	<path fill="#B4A79C" d="M19,11.5l-0.9-0.2c-1.4-0.3-2.8-0.3-4.1,0L13,11.5V0.7h6V11.5z M14.5,2.3v7.4c1-0.1,2-0.1,3,0V2.3H14.5z"/>
	<path fill="#8F9BA8" d="M16,31.3c-6,0-10.9-4.9-10.9-10.9c0-2.9,1.1-5.6,3.2-7.7c2-2,4.8-3.2,7.7-3.2c2.9,0,5.6,1.1,7.7,3.2
		c2.1,2.1,3.2,4.8,3.2,7.7C26.9,26.4,22,31.3,16,31.3z M16,11c-2.5,0-4.8,1-6.6,2.7c-1.8,1.8-2.7,4.1-2.7,6.6c0,5.2,4.2,9.4,9.4,9.4
		c5.2,0,9.4-4.2,9.4-9.4c0-2.5-1-4.9-2.7-6.6C20.8,12,18.5,11,16,11z"/>
	<g>
		<polygon fill="#F2E8B9" points="16,13.5 18.1,17.7 22.7,18.3 19.3,21.6 20.1,26.2 16,24 11.9,26.2 12.7,21.6 9.3,18.3 13.9,17.7 
					"/>
		<path fill="#B4A042" d="M11.9,26.9c-0.2,0-0.3,0-0.4-0.1c-0.2-0.2-0.3-0.5-0.3-0.7l0.7-4.2l-3.1-3c-0.2-0.2-0.3-0.5-0.2-0.8
			c0.1-0.3,0.3-0.5,0.6-0.5l4.2-0.6l1.9-3.8c0.1-0.3,0.4-0.4,0.7-0.4l0,0c0.3,0,0.5,0.2,0.7,0.4l1.9,3.8l4.2,0.6
			c0.3,0,0.5,0.2,0.6,0.5c0.1,0.3,0,0.6-0.2,0.8l-3.1,3l0.7,4.2c0,0.3-0.1,0.6-0.3,0.7C20.3,27,20,27,19.8,26.9l-3.8-2l-3.8,2
			C12.1,26.9,12,26.9,11.9,26.9z M10.9,18.9l2.3,2.2c0.2,0.2,0.3,0.4,0.2,0.7l-0.5,3.1l2.8-1.5c0.2-0.1,0.5-0.1,0.7,0l2.8,1.5
			l-0.5-3.1c0-0.2,0-0.5,0.2-0.7l2.3-2.2L18,18.4c-0.2,0-0.5-0.2-0.6-0.4L16,15.2L14.6,18c-0.1,0.2-0.3,0.4-0.6,0.4L10.9,18.9z"/>
	</g>
</g>
</svg>
