<?xml version="1.0" encoding="utf-8"?>
<!-- Generator: Adobe Illustrator 18.0.0, SVG Export Plug-In . SVG Version: 6.00 Build 0)  -->
<!DOCTYPE svg PUBLIC "-//W3C//DTD SVG 1.1//EN" "http://www.w3.org/Graphics/SVG/1.1/DTD/svg11.dtd">
<svg version="1.1" id="Layer_1" xmlns="http://www.w3.org/2000/svg" xmlns:xlink="http://www.w3.org/1999/xlink" x="0px" y="0px"
	 viewBox="0 0 32 32" enable-background="new 0 0 32 32" xml:space="preserve">
<g>
	<path fill="#74B1E0" d="M5,31.3c-1,0-2-0.4-2.7-1.1c-1.5-1.5-1.6-4-0.1-5.5l10.9-11.4c-1.3-3.3-0.5-7.1,2-9.7
		c1.7-1.8,4.1-2.8,6.6-2.8c1.2,0,2.4,0.2,3.5,0.7l1,0.4l-5.7,5.9l3.4,3.3l5.7-5.9l0.5,1c1.5,3.5,0.8,7.5-1.8,10.2
		c-1.7,1.8-4.1,2.8-6.6,2.8l0,0c-1,0-2-0.2-3-0.5L7.8,30.1C7,30.8,6.1,31.3,5,31.3z M21.7,2.3c-2.1,0-4.1,0.8-5.5,2.4
		c-2.2,2.3-2.8,5.6-1.5,8.5l0.2,0.5l-11.6,12c-0.9,1-0.9,2.5,0,3.4c1,0.9,2.5,0.8,3.4-0.1l11.6-12.1l0.5,0.2
		c0.9,0.4,1.9,0.6,2.9,0.6c2.1,0,4.1-0.8,5.5-2.4c1.9-2,2.6-4.8,1.9-7.5L24,13.1l-5.5-5.4l5.1-5.3C22.9,2.3,22.3,2.3,21.7,2.3z"/>
</g>
</svg>
