<?xml version="1.0" encoding="utf-8"?>
<!-- Generator: Adobe Illustrator 18.0.0, SVG Export Plug-In . SVG Version: 6.00 Build 0)  -->
<!DOCTYPE svg PUBLIC "-//W3C//DTD SVG 1.1//EN" "http://www.w3.org/Graphics/SVG/1.1/DTD/svg11.dtd">
<svg version="1.1" id="Layer_1" xmlns="http://www.w3.org/2000/svg" xmlns:xlink="http://www.w3.org/1999/xlink" x="0px" y="0px"
	 viewBox="0 0 32 32" enable-background="new 0 0 32 32" xml:space="preserve">
<g>
	<g>
		<g>
			<path fill="#F0F7F7" d="M24.4,18c-1.3-1.2-3-1.9-4.8-1.9c-0.4,0-0.8,0-1.2,0.1c-3.4,0.6-6,3.5-6,7.1l0,0c0,0.3,0,0.5,0.1,0.8
				c0.4,3.2,2.8,5.8,6,6.3c0.4,0.1,0.8,0.1,1.2,0.1c4,0,7.2-3.2,7.2-7.2l0,0C26.8,21.2,25.9,19.3,24.4,18z"/>
			<path fill="#8F9BA8" d="M19.6,31.3c-0.4,0-0.8,0-1.3-0.1c-3.5-0.6-6.2-3.4-6.6-6.9c0-0.3-0.1-0.6-0.1-0.9c0-3.9,2.8-7.2,6.7-7.8
				c0.5-0.1,0.9-0.1,1.3-0.1c2,0,3.9,0.7,5.3,2.1c1.7,1.5,2.6,3.7,2.6,5.9C27.5,27.7,24,31.3,19.6,31.3z M19.6,16.9
				c-0.3,0-0.7,0-1,0.1c-3.1,0.5-5.4,3.2-5.4,6.4c0,0.3,0,0.5,0,0.7c0.3,2.9,2.5,5.2,5.4,5.6c0.4,0.1,0.7,0.1,1,0.1
				c3.5,0,6.4-2.9,6.4-6.4v-0.1c0-1.7-0.8-3.5-2.1-4.7C22.7,17.5,21.2,16.9,19.6,16.9z"/>
		</g>
		<g>
			<line fill="none" x1="19.6" y1="18.8" x2="19.6" y2="27.8"/>
			<rect x="18.8" y="18.8" fill="#8F9BA8" width="1.5" height="9"/>
		</g>
		<g>
			<line fill="none" x1="24.1" y1="23.3" x2="15.1" y2="23.3"/>
			<rect x="15.1" y="22.6" fill="#8F9BA8" width="9" height="1.5"/>
		</g>
	</g>
	<path fill="#8F9BA8" d="M5,31.3c-1,0-2-0.4-2.7-1.1c-1.5-1.5-1.6-4-0.1-5.5l10.9-11.4c-1.3-3.3-0.5-7.1,2-9.7
		c1.7-1.8,4.1-2.8,6.6-2.8c1.2,0,2.4,0.2,3.5,0.7l1,0.4l-5.7,5.9l3.4,3.3l5.7-5.9l0.5,1c1.5,3.5,0.8,7.5-1.8,10.2
		c-1,1.1-2.2,1.8-3.6,2.3l-0.4,0.1L24,18.5c-1.2-1.1-2.7-1.7-4.3-1.7c-0.3,0-0.7,0-1,0.1c-3.1,0.5-5.4,3.2-5.4,6.4
		c0,0.3,0,0.5,0,0.7v0.3L7.9,30C7,30.8,6.1,31.3,5,31.3z M21.7,2.3c-2.1,0-4.1,0.8-5.5,2.4c-2.2,2.3-2.8,5.6-1.5,8.5l0.2,0.5
		l-11.6,12c-0.9,1-0.9,2.5,0,3.4c1,0.9,2.5,0.8,3.4-0.1l5-5.2c0-0.2,0-0.4,0-0.5c0-3.9,2.8-7.2,6.7-7.8c0.5-0.1,0.9-0.1,1.3-0.1
		c1.8,0,3.6,0.6,5,1.8c1-0.4,1.9-1,2.6-1.8c1.9-2,2.6-4.8,1.9-7.5l-5.1,5.3l-5.5-5.4l5.1-5.3C22.9,2.3,22.3,2.3,21.7,2.3z"/>
</g>
</svg>
