<?xml version="1.0" encoding="utf-8"?>
<!-- Generator: Adobe Illustrator 18.0.0, SVG Export Plug-In . SVG Version: 6.00 Build 0)  -->
<!DOCTYPE svg PUBLIC "-//W3C//DTD SVG 1.1//EN" "http://www.w3.org/Graphics/SVG/1.1/DTD/svg11.dtd">
<svg version="1.1" id="Layer_1" xmlns="http://www.w3.org/2000/svg" xmlns:xlink="http://www.w3.org/1999/xlink" x="0px" y="0px"
	 viewBox="0 0 32 32" enable-background="new 0 0 32 32" xml:space="preserve">
<g>
	<path fill="#8F9BA8" d="M28.4,31.3H3.6c-1.6,0-2.9-1.3-2.9-2.9V3.6C0.8,2,2,0.7,3.6,0.7h24.7c1.6,0,2.9,1.3,2.9,2.9v24.7
		C31.3,30,30,31.3,28.4,31.3z M3.6,2.3c-0.8,0-1.4,0.6-1.4,1.4v24.7c0,0.8,0.6,1.4,1.4,1.4h24.7c0.8,0,1.4-0.6,1.4-1.4V3.6
		c0-0.8-0.6-1.4-1.4-1.4H3.6z"/>
	<path fill="#79C693" d="M8.9,29.1c-3,0-5.4-2.4-5.4-5.4V8.5c0-3,2.4-5.4,5.4-5.4c3,0,5.4,2.4,5.4,5.4v15.2
		C14.3,26.7,11.9,29.1,8.9,29.1z M8.9,4.6C6.8,4.6,5,6.3,5,8.5v15.2c0,2.2,1.8,3.9,3.9,3.9c2.2,0,3.9-1.8,3.9-3.9V8.5
		C12.8,6.3,11.1,4.6,8.9,4.6z"/>
	<path fill="#79C693" d="M28,11.9H15.6V5.2H28V11.9z M17.1,10.4h9.4V6.7h-9.4V10.4z"/>
	<rect x="26.2" y="13.3" fill="#79C693" width="1.1" height="1.5"/>
	<rect x="22.9" y="13.3" fill="#79C693" width="1.1" height="1.5"/>
	<rect x="19.6" y="13.3" fill="#79C693" width="1.1" height="1.5"/>
	<rect x="16.4" y="13.3" fill="#79C693" width="1.1" height="1.5"/>
	<rect x="26.2" y="16.6" fill="#79C693" width="1.1" height="1.5"/>
	<rect x="22.9" y="16.6" fill="#79C693" width="1.1" height="1.5"/>
	<rect x="19.6" y="16.6" fill="#79C693" width="1.1" height="1.5"/>
	<rect x="16.4" y="16.6" fill="#79C693" width="1.1" height="1.5"/>
	<rect x="26.2" y="19.9" fill="#79C693" width="1.1" height="1.5"/>
	<rect x="22.9" y="19.9" fill="#79C693" width="1.1" height="1.5"/>
	<rect x="19.6" y="19.9" fill="#79C693" width="1.1" height="1.5"/>
	<rect x="16.4" y="19.9" fill="#79C693" width="1.1" height="1.5"/>
	<rect x="26.2" y="23.1" fill="#79C693" width="1.1" height="1.5"/>
	<rect x="22.9" y="23.1" fill="#79C693" width="1.1" height="1.5"/>
	<rect x="19.6" y="23.1" fill="#79C693" width="1.1" height="1.5"/>
	<rect x="16.4" y="23.1" fill="#79C693" width="1.1" height="1.5"/>
</g>
</svg>
