<?xml version="1.0" encoding="utf-8"?>
<!-- Generator: Adobe Illustrator 18.0.0, SVG Export Plug-In . SVG Version: 6.00 Build 0)  -->
<!DOCTYPE svg PUBLIC "-//W3C//DTD SVG 1.1//EN" "http://www.w3.org/Graphics/SVG/1.1/DTD/svg11.dtd">
<svg version="1.1" id="Layer_1" xmlns="http://www.w3.org/2000/svg" xmlns:xlink="http://www.w3.org/1999/xlink" x="0px" y="0px"
	 viewBox="0 0 32 32" enable-background="new 0 0 32 32" xml:space="preserve">
<g>
	<g>
		<circle fill="#F0F7F7" cx="20.9" cy="19.9" r="4.2"/>
		<path fill="#8F9BA8" d="M20.9,24.8c-2.7,0-4.9-2.2-4.9-4.9c0-2.7,2.2-4.9,4.9-4.9c2.7,0,4.9,2.2,4.9,4.9
			C25.8,22.6,23.6,24.8,20.9,24.8z M20.9,16.5c-1.9,0-3.4,1.5-3.4,3.4c0,1.9,1.5,3.4,3.4,3.4c1.9,0,3.4-1.5,3.4-3.4
			C24.3,18,22.7,16.5,20.9,16.5z"/>
	</g>
	<path fill="#B4A79C" d="M20.9,30.3c-3.3,0-6.3-1.5-8.3-4.1c-2.9-3.8-6.9-6.5-11.3-7.5C1,18.6,0.7,18.3,0.7,18v-7.7
		c0-0.4,0.3-0.8,0.8-0.8h12.2c0.4,0,0.8,0.3,0.8,0.8v2.2h2.2v-2.2c0-0.4,0.3-0.8,0.8-0.8h3.1c5.7,0,10.4,4.3,10.7,9.9
		c0.1,2.9-0.9,5.6-2.9,7.7C26.4,29.1,23.7,30.3,20.9,30.3z M2.2,17.4c4.5,1.2,8.5,4,11.5,7.9c1.7,2.2,4.3,3.5,7.1,3.5
		c2.5,0,4.7-1,6.4-2.8c1.7-1.8,2.6-4.1,2.4-6.6c-0.2-4.7-4.2-8.5-9.2-8.5h-2.4v2.2c0,0.4-0.3,0.8-0.8,0.8h-3.7
		c-0.4,0-0.8-0.3-0.8-0.8V11H2.2V17.4z"/>
	<rect x="17" y="5.1" transform="matrix(0.4725 0.8813 -0.8813 0.4725 15.5763 -11.9195)" fill="#8F9BA8" width="1.5" height="4"/>
	
		<rect x="18.5" y="1.3" transform="matrix(0.4726 0.8813 -0.8813 0.4726 13.0548 -15.2052)" fill="#8F9BA8" width="1.5" height="4"/>
</g>
</svg>
