<?xml version="1.0" encoding="utf-8"?>
<!-- Generator: Adobe Illustrator 18.0.0, SVG Export Plug-In . SVG Version: 6.00 Build 0)  -->
<!DOCTYPE svg PUBLIC "-//W3C//DTD SVG 1.1//EN" "http://www.w3.org/Graphics/SVG/1.1/DTD/svg11.dtd">
<svg version="1.1" id="Layer_1" xmlns="http://www.w3.org/2000/svg" xmlns:xlink="http://www.w3.org/1999/xlink" x="0px" y="0px"
	 viewBox="0 0 32 32" enable-background="new 0 0 32 32" xml:space="preserve">
<g>
	<path fill="#8F9BA8" d="M18.7,14.1h-1.5c0-7-2.3-11.9-4.3-11.9c-2,0-4.3,4.9-4.3,11.9H7.1c0-7.6,2.5-13.4,5.8-13.4
		C16.2,0.7,18.7,6.5,18.7,14.1z"/>
	<path fill="#8F9BA8" d="M25.1,31.3H0.7L3.5,8h18.8l0.9,7.8l-0.6,0.2c-2.4,0.7-4.1,2.9-4.1,5.4c0,3,2.4,5.5,5.4,5.6l0.6,0L25.1,31.3
		z M2.4,29.8h21l-0.2-1.3C19.7,28,17,25,17,21.4c0-3,1.8-5.6,4.6-6.7l-0.6-5.2H4.8L2.4,29.8z"/>
	<g>
		<path fill="#CDE4F7" d="M24.2,15c-0.6,0-1.2,0.1-1.8,0.3c-2.7,0.8-4.6,3.2-4.6,6.1c0,3.4,2.7,6.2,6.1,6.4c0.1,0,0.2,0,0.3,0
			c3.5,0,6.4-2.9,6.4-6.4C30.5,17.8,27.7,15,24.2,15z"/>
		<path fill="#74B1E0" d="M24.2,28.5c-0.1,0-0.1,0-0.2,0C20,28.3,17,25.2,17,21.4c0-3.2,2.1-6,5.2-6.9c0.6-0.2,1.3-0.3,2-0.3
			c3.9,0,7.1,3.2,7.1,7.1S28.1,28.5,24.2,28.5z M24.2,15.7c-0.5,0-1,0.1-1.6,0.2c-2.4,0.7-4.1,2.9-4.1,5.4c0,3,2.4,5.5,5.4,5.6
			l0.2,0c3.1,0,5.6-2.5,5.6-5.6C29.8,18.2,27.3,15.7,24.2,15.7z"/>
	</g>
	<g>
		<line fill="#CDE4F7" x1="24.2" y1="17.6" x2="24.2" y2="25.1"/>
		<rect x="23.4" y="17.6" fill="#74B1E0" width="1.5" height="7.5"/>
	</g>
	<g>
		<line fill="#CDE4F7" x1="27.9" y1="21.4" x2="20.4" y2="21.4"/>
		<rect x="20.4" y="20.6" fill="#74B1E0" width="7.5" height="1.5"/>
	</g>
</g>
</svg>
