<?xml version="1.0" encoding="utf-8"?>
<!-- Generator: Adobe Illustrator 18.0.0, SVG Export Plug-In . SVG Version: 6.00 Build 0)  -->
<!DOCTYPE svg PUBLIC "-//W3C//DTD SVG 1.1//EN" "http://www.w3.org/Graphics/SVG/1.1/DTD/svg11.dtd">
<svg version="1.1" id="Layer_1" xmlns="http://www.w3.org/2000/svg" xmlns:xlink="http://www.w3.org/1999/xlink" x="0px" y="0px"
	 viewBox="0 0 32 32" enable-background="new 0 0 32 32" xml:space="preserve">
<g>
	<path fill="#DA8C8C" d="M27.2,27.1L27.2,27.1c-3.2,0-6.7-4.6-8.6-9.2h-5.2c-1.9,4.5-5.4,9.2-8.6,9.2c-0.3,0-0.6,0-0.9-0.1
		C0.3,25.8,0,18.3,1.9,12.4c1.6-4.8,4.3-7.5,7.4-7.5c0.5,0,1.1,0.1,1.6,0.3c1.4,0.5,2.5,1.4,3.1,2.8h3.8c0.7-1.4,1.7-2.3,3.1-2.8
		c0.5-0.2,1.1-0.3,1.6-0.3c3.1,0,5.8,2.7,7.4,7.5c0.9,2.8,1.3,6.2,1.1,8.9c-0.3,3.2-1.3,5.2-3,5.7C27.9,27.1,27.6,27.1,27.2,27.1z
		 M12.9,16.4h6.3c0.3,0,0.6,0.2,0.7,0.5c1.8,4.7,5.2,8.7,7.4,8.7l0,0c0.2,0,0.3,0,0.5-0.1c1-0.3,1.8-2,2-4.4c0.2-2.5-0.2-5.6-1-8.3
		c-1.3-4-3.6-6.5-6-6.5c-0.4,0-0.8,0.1-1.2,0.2c-1.1,0.4-2,1.2-2.4,2.4c-0.1,0.3-0.4,0.5-0.7,0.5h-4.8c-0.3,0-0.6-0.2-0.7-0.5
		c-0.5-1.2-1.3-2-2.4-2.4c-0.4-0.1-0.8-0.2-1.2-0.2c-2.4,0-4.7,2.4-6,6.5c-1.8,5.6-1.3,12,0.9,12.7c2.1,0.7,5.9-3.6,7.9-8.6
		C12.3,16.6,12.6,16.4,12.9,16.4z"/>
	<rect x="7.7" y="10.1" fill="#79C693" width="1.5" height="4.8"/>
	<rect x="6.1" y="11.7" fill="#79C693" width="4.8" height="1.5"/>
	
		<rect x="23.2" y="10" transform="matrix(0.7056 0.7087 -0.7087 0.7056 14.6498 -13.702)" fill="#79C693" width="1.3" height="1.5"/>
	
		<rect x="21.5" y="11.7" transform="matrix(0.7052 0.709 -0.709 0.7052 15.3696 -11.9918)" fill="#79C693" width="1.3" height="1.5"/>
	
		<rect x="24.9" y="11.7" transform="matrix(0.7056 0.7087 -0.7087 0.7056 16.3631 -14.4095)" fill="#79C693" width="1.3" height="1.5"/>
	
		<rect x="23.2" y="13.4" transform="matrix(0.7055 0.7087 -0.7087 0.7055 17.0721 -12.6966)" fill="#79C693" width="1.3" height="1.5"/>
	<rect x="14.7" y="10.7" fill="#79C693" width="2.7" height="1.5"/>
	<rect x="14.7" y="13.3" fill="#79C693" width="2.7" height="1.5"/>
</g>
</svg>
