<?xml version="1.0" encoding="utf-8"?>
<!-- Generator: Adobe Illustrator 18.0.0, SVG Export Plug-In . SVG Version: 6.00 Build 0)  -->
<!DOCTYPE svg PUBLIC "-//W3C//DTD SVG 1.1//EN" "http://www.w3.org/Graphics/SVG/1.1/DTD/svg11.dtd">
<svg version="1.1" id="Layer_1" xmlns="http://www.w3.org/2000/svg" xmlns:xlink="http://www.w3.org/1999/xlink" x="0px" y="0px"
	 viewBox="0 0 32 32" enable-background="new 0 0 32 32" xml:space="preserve">
<pattern  y="32" width="24.1" height="24.1" patternUnits="userSpaceOnUse" id="SVGID_1_" viewBox="0 -24.1 24.1 24.1" overflow="visible">
	<g>
		<polygon fill="none" points="0,0 24.1,0 24.1,-24.1 0,-24.1 		"/>
		<g>
			<polygon fill="none" points="0,-24.1 24.1,-24.1 24.1,0 0,0 			"/>
			<polygon fill="#FEE99B" points="24.1,-24.1 0,-24.1 0,0 24.1,0 			"/>
		</g>
	</g>
</pattern>
<pattern  y="32" width="24.1" height="24.1" patternUnits="userSpaceOnUse" id="SVGID_2_" viewBox="0 -24.1 24.1 24.1" overflow="visible">
	<g>
		<polygon fill="none" points="0,0 24.1,0 24.1,-24.1 0,-24.1 		"/>
		<g>
			<polygon fill="none" points="0,-24.1 24.1,-24.1 24.1,0 0,0 			"/>
			<polygon fill="#E0CB81" points="24.1,-24.1 0,-24.1 0,0 24.1,0 			"/>
		</g>
	</g>
</pattern>
<pattern  y="32" width="24.1" height="24.1" patternUnits="userSpaceOnUse" id="SVGID_3_" viewBox="0 -24.1 24.1 24.1" overflow="visible">
	<g>
		<polygon fill="none" points="0,0 24.1,0 24.1,-24.1 0,-24.1 		"/>
		<g>
			<polygon fill="none" points="0,-24.1 24.1,-24.1 24.1,0 0,0 			"/>
			<polygon fill="#FEE99B" points="24.1,-24.1 0,-24.1 0,0 24.1,0 			"/>
		</g>
	</g>
</pattern>
<pattern  y="32" width="24.1" height="24.1" patternUnits="userSpaceOnUse" id="SVGID_4_" viewBox="0 -24.1 24.1 24.1" overflow="visible">
	<g>
		<polygon fill="none" points="0,0 24.1,0 24.1,-24.1 0,-24.1 		"/>
		<g>
			<polygon fill="none" points="0,-24.1 24.1,-24.1 24.1,0 0,0 			"/>
			<polygon fill="#E0CB81" points="24.1,-24.1 0,-24.1 0,0 24.1,0 			"/>
		</g>
	</g>
</pattern>
<pattern  y="32" width="24.1" height="24.1" patternUnits="userSpaceOnUse" id="SVGID_6_" viewBox="0 -24.1 24.1 24.1" overflow="visible">
	<g>
		<polygon fill="none" points="0,0 24.1,0 24.1,-24.1 0,-24.1 		"/>
		<g>
			<polygon fill="none" points="0,-24.1 24.1,-24.1 24.1,0 0,0 			"/>
			<polygon fill="#E0CB81" points="24.1,-24.1 0,-24.1 0,0 24.1,0 			"/>
		</g>
	</g>
</pattern>
<g>
	<path fill="#DA8C8C" d="M31.3,25.7H0.8V6.3h30.5V25.7z M2.3,24.2h27.5V7.8H2.3V24.2z"/>
	<g>
		<pattern  id="SVGID_5_" xlink:href="#SVGID_1_" patternTransform="matrix(1 0 0 -1 25.673 -16092.4053)">
		</pattern>
		<circle fill="url(#SVGID_5_)" cx="22" cy="16" r="2.8"/>
		<pattern  id="SVGID_7_" xlink:href="#SVGID_2_" patternTransform="matrix(1 0 0 -1 25.673 -16092.4053)">
		</pattern>
		<path fill="url(#SVGID_7_)" d="M22,19.6c-2,0-3.6-1.6-3.6-3.6s1.6-3.6,3.6-3.6s3.6,1.6,3.6,3.6S24,19.6,22,19.6z M22,14
			c-1.1,0-2,0.9-2,2s0.9,2.1,2.1,2.1c1.1,0,2.1-0.9,2.1-2.1C24.1,14.9,23.2,14,22,14z"/>
	</g>
	<g>
		<pattern  id="SVGID_8_" xlink:href="#SVGID_3_" patternTransform="matrix(1 0 0 -1 25.673 -16092.4053)">
		</pattern>
		<circle fill="url(#SVGID_8_)" cx="10" cy="16" r="2.8"/>
		<pattern  id="SVGID_9_" xlink:href="#SVGID_4_" patternTransform="matrix(1 0 0 -1 25.673 -16092.4053)">
		</pattern>
		<path fill="url(#SVGID_9_)" d="M10,19.6c-2,0-3.6-1.6-3.6-3.6S8,12.4,10,12.4s3.6,1.6,3.6,3.6C13.5,18,11.9,19.6,10,19.6z M10,14
			c-1.1,0-2.1,0.9-2.1,2.1c0,1.1,0.9,2.1,2.1,2.1c1.1,0,2.1-0.9,2.1-2.1C12,14.9,11.1,14,10,14z"/>
	</g>
	<g>
		<line fill="none" x1="22" y1="18.9" x2="10" y2="18.9"/>
		<pattern  id="SVGID_10_" xlink:href="#SVGID_6_" patternTransform="matrix(1 0 0 -1 25.673 -16092.4053)">
		</pattern>
		<rect x="10" y="18.1" fill="url(#SVGID_10_)" width="12" height="1.5"/>
	</g>
</g>
</svg>
