<?xml version="1.0" encoding="utf-8"?>
<!-- Generator: Adobe Illustrator 18.0.0, SVG Export Plug-In . SVG Version: 6.00 Build 0)  -->
<!DOCTYPE svg PUBLIC "-//W3C//DTD SVG 1.1//EN" "http://www.w3.org/Graphics/SVG/1.1/DTD/svg11.dtd">
<svg version="1.1" id="Layer_1" xmlns="http://www.w3.org/2000/svg" xmlns:xlink="http://www.w3.org/1999/xlink" x="0px" y="0px"
	 viewBox="0 0 32 32" enable-background="new 0 0 32 32" xml:space="preserve">
<g>
	<g>
		<polygon fill="#F9F8F2" points="26.2,16.1 26.2,1.5 6.7,1.5 6.7,16.7 16,22.1 		"/>
		<path fill="#B4A79C" d="M16,22.9L6,17.1V0.7h21v15.8L16,22.9z M7.5,16.3l8.5,4.9l9.5-5.5V2.3h-18V16.3z"/>
	</g>
	<path fill="#8F9BA8" d="M31.3,31.3H0.8V12.4L16,21.2l15.3-8.9V31.3z M2.3,29.8h27.5V15l-13.8,8L2.3,15V29.8z"/>
	<g>
		<line fill="#F9F8F2" x1="11" y1="5.7" x2="22" y2="5.7"/>
		<rect x="11" y="5" fill="#B4A79C" width="11" height="1.5"/>
	</g>
	<g>
		<line fill="#F9F8F2" x1="11" y1="10.7" x2="22" y2="10.7"/>
		<rect x="11" y="9.9" fill="#B4A79C" width="11" height="1.5"/>
	</g>
	<g>
		<line fill="#F9F8F2" x1="11" y1="15.6" x2="22" y2="15.6"/>
		<rect x="11" y="14.8" fill="#B4A79C" width="11" height="1.5"/>
	</g>
</g>
</svg>
