<?xml version="1.0" encoding="utf-8"?>
<!-- Generator: Adobe Illustrator 18.0.0, SVG Export Plug-In . SVG Version: 6.00 Build 0)  -->
<!DOCTYPE svg PUBLIC "-//W3C//DTD SVG 1.1//EN" "http://www.w3.org/Graphics/SVG/1.1/DTD/svg11.dtd">
<svg version="1.1" id="Layer_1" xmlns="http://www.w3.org/2000/svg" xmlns:xlink="http://www.w3.org/1999/xlink" x="0px" y="0px"
	 viewBox="0 0 32 32" enable-background="new 0 0 32 32" xml:space="preserve">
<g>
	<path fill="#74B1E0" d="M21.5,31.5C13,31.5,6,24.5,6,16S13,0.5,21.5,0.5c2.6,0,5.1,0.6,7.4,1.9l-1,1.8c-2-1.1-4.2-1.6-6.4-1.6
		C14.1,2.5,8,8.6,8,16c0,7.4,6.1,13.5,13.5,13.5c2.3,0,4.5-0.6,6.4-1.6l1,1.8C26.7,30.9,24.1,31.5,21.5,31.5z"/>
	<rect x="3.1" y="11.8" fill="#74B1E0" width="19.2" height="2"/>
	<rect x="3.1" y="18.2" fill="#74B1E0" width="19.2" height="2"/>
</g>
</svg>
