<?xml version="1.0" encoding="utf-8"?>
<!-- Generator: Adobe Illustrator 18.0.0, SVG Export Plug-In . SVG Version: 6.00 Build 0)  -->
<!DOCTYPE svg PUBLIC "-//W3C//DTD SVG 1.1//EN" "http://www.w3.org/Graphics/SVG/1.1/DTD/svg11.dtd">
<svg version="1.1" id="Layer_1" xmlns="http://www.w3.org/2000/svg" xmlns:xlink="http://www.w3.org/1999/xlink" x="0px" y="0px"
	 viewBox="0 0 32 32" enable-background="new 0 0 32 32" xml:space="preserve">
<g>
	<path fill="#79C693" d="M25,31.5H7.8c-0.4,0-0.8-0.2-0.9-0.6c-0.2-0.4-0.1-0.8,0.2-1.1c3.6-3.7,4.2-5.6,2.9-17.7
		c0-0.2,0-0.3-0.1-0.5c-0.1-0.4-0.1-0.9-0.1-1.4c0-5.4,4.4-9.7,9.7-9.7c2.4,0,4.7,0.9,6.5,2.5l-1.3,1.5c-1.4-1.3-3.3-2-5.2-2
		c-4.3,0-7.7,3.5-7.7,7.7c0,0.4,0.1,0.7,0.1,1.1c0,0.2,0,0.4,0.1,0.5c1.2,10.4,0.9,14-1.9,17.6H25V31.5z"/>
	<rect x="5.9" y="16.1" fill="#79C693" width="16" height="2"/>
</g>
</svg>
