<?xml version="1.0" encoding="utf-8"?>
<!-- Generator: Adobe Illustrator 18.0.0, SVG Export Plug-In . SVG Version: 6.00 Build 0)  -->
<!DOCTYPE svg PUBLIC "-//W3C//DTD SVG 1.1//EN" "http://www.w3.org/Graphics/SVG/1.1/DTD/svg11.dtd">
<svg version="1.1" id="Layer_1" xmlns="http://www.w3.org/2000/svg" xmlns:xlink="http://www.w3.org/1999/xlink" x="0px" y="0px"
	 viewBox="0 0 32 32" enable-background="new 0 0 32 32" xml:space="preserve">
<g>
	
		<rect x="14.7" y="-4.4" transform="matrix(0.7071 0.7071 -0.7071 0.7071 15.7466 -6.5216)" fill="#DA8C8C" width="2" height="40.3"/>
	<path fill="#DA8C8C" d="M25.5,31.5c-1.6,0-3.1-0.6-4.3-1.8c-2.3-2.3-2.3-6.2,0-8.5c1.1-1.1,2.7-1.8,4.3-1.8c1.6,0,3.1,0.6,4.3,1.8
		c1.1,1.1,1.8,2.7,1.8,4.3s-0.6,3.1-1.8,4.3C28.6,30.9,27.1,31.5,25.5,31.5z M25.5,21.5c-1.1,0-2.1,0.4-2.8,1.2
		c-1.6,1.6-1.6,4.1,0,5.7c0.8,0.8,1.8,1.2,2.8,1.2c1.1,0,2.1-0.4,2.8-1.2c0.8-0.8,1.2-1.8,1.2-2.8c0-1.1-0.4-2.1-1.2-2.8
		C27.6,21.9,26.5,21.5,25.5,21.5z"/>
	<path fill="#DA8C8C" d="M6.5,12.5c-1.6,0-3.1-0.6-4.3-1.8c-2.3-2.3-2.3-6.2,0-8.5c1.1-1.1,2.7-1.8,4.3-1.8c1.6,0,3.1,0.6,4.3,1.8
		c2.3,2.3,2.3,6.2,0,8.5C9.6,11.9,8.1,12.5,6.5,12.5z M6.5,2.5c-1.1,0-2.1,0.4-2.8,1.2c-1.6,1.6-1.6,4.1,0,5.7
		c0.8,0.8,1.8,1.2,2.8,1.2c1.1,0,2.1-0.4,2.8-1.2c1.6-1.6,1.6-4.1,0-5.7C8.6,2.9,7.6,2.5,6.5,2.5z"/>
</g>
</svg>
