<?xml version="1.0" encoding="utf-8"?>
<!-- Generator: Adobe Illustrator 18.0.0, SVG Export Plug-In . SVG Version: 6.00 Build 0)  -->
<!DOCTYPE svg PUBLIC "-//W3C//DTD SVG 1.1//EN" "http://www.w3.org/Graphics/SVG/1.1/DTD/svg11.dtd">
<svg version="1.1" id="Layer_1" xmlns="http://www.w3.org/2000/svg" xmlns:xlink="http://www.w3.org/1999/xlink" x="0px" y="0px"
	 viewBox="0 0 32 32" enable-background="new 0 0 32 32" xml:space="preserve">
<g>
	<path fill="#8F9BA8" d="M23,31.2H9c-2.3,0-4.2-1.7-4.4-4L3.5,15.4c0-0.3,0.1-0.6,0.3-0.8c0.2-0.2,0.5-0.3,0.7-0.3h23
		c0.3,0,0.5,0.1,0.7,0.3c0.2,0.2,0.3,0.5,0.3,0.8l-1,11.7C27.2,29.4,25.3,31.2,23,31.2z M5.6,16.3l1,10.6c0.1,1.3,1.1,2.2,2.4,2.2
		H23c1.3,0,2.3-0.9,2.4-2.2l1-10.6H5.6z"/>
	<g>
		<rect x="20.3" y="18.8" fill="#8F9BA8" width="2" height="6.2"/>
		<rect x="15" y="18.8" fill="#8F9BA8" width="2" height="6.2"/>
		<rect x="9.7" y="18.8" fill="#8F9BA8" width="2" height="6.2"/>
	</g>
	<g>
		<path fill="#F9F8F2" d="M27.1,15.3H4.9c-1.9,0-3.4-1.5-3.4-3.4l0,0C1.5,10,3,8.4,4.9,8.4h22.1c1.9,0,3.4,1.5,3.4,3.4l0,0
			C30.5,13.8,29,15.3,27.1,15.3z"/>
		<path fill="#B4A79C" d="M27.1,16.3H4.9c-2.5,0-4.4-2-4.4-4.4c0-2.5,2-4.4,4.4-4.4h22.1c2.5,0,4.4,2,4.4,4.4
			C31.5,14.3,29.5,16.3,27.1,16.3z M4.9,9.4c-1.3,0-2.4,1.1-2.4,2.4s1.1,2.4,2.4,2.4h22.1c1.3,0,2.4-1.1,2.4-2.4s-1.1-2.4-2.4-2.4
			H4.9z"/>
	</g>
	<rect x="15" y="5.4" transform="matrix(0.3372 0.9414 -0.9414 0.3372 19.6809 -15.1186)" fill="#8F9BA8" width="11.2" height="2"/>
	<rect x="10.4" y="0.8" transform="matrix(0.9415 0.3369 -0.3369 0.9415 2.8303 -3.4736)" fill="#8F9BA8" width="2" height="11.2"/>
</g>
</svg>
