<?xml version="1.0" encoding="utf-8"?>
<!-- Generator: Adobe Illustrator 18.0.0, SVG Export Plug-In . SVG Version: 6.00 Build 0)  -->
<!DOCTYPE svg PUBLIC "-//W3C//DTD SVG 1.1//EN" "http://www.w3.org/Graphics/SVG/1.1/DTD/svg11.dtd">
<svg version="1.1" id="Layer_1" xmlns="http://www.w3.org/2000/svg" xmlns:xlink="http://www.w3.org/1999/xlink" x="0px" y="0px"
	 viewBox="0 0 32 32" enable-background="new 0 0 32 32" xml:space="preserve">
<g>
	<g>
		<path fill="#F0F7F7" d="M27.1,15.3H4.9c-1.9,0-3.4-1.5-3.4-3.4l0,0C1.5,10,3,8.5,4.9,8.5H27c1.9,0,3.4,1.5,3.4,3.4l0,0
			C30.5,13.8,29,15.3,27.1,15.3z"/>
		<path fill="#8F9BA8" d="M27.1,16.3H4.9c-2.5,0-4.4-2-4.4-4.4s2-4.4,4.4-4.4H27c2.5,0,4.4,2,4.4,4.4S29.5,16.3,27.1,16.3z M4.9,9.5
			c-1.3,0-2.4,1.1-2.4,2.4s1.1,2.4,2.4,2.4H27c1.3,0,2.4-1.1,2.4-2.4S28.3,9.5,27,9.5H4.9z"/>
	</g>
	<path fill="#8F9BA8" d="M23,31.2H9c-2.3,0-4.2-1.7-4.4-4l-1-11.7c0-0.3,0.1-0.6,0.3-0.8s0.5-0.3,0.7-0.3h23c0.3,0,0.5,0.1,0.7,0.3
		s0.3,0.5,0.3,0.8l-1,11.7C27.2,29.5,25.3,31.2,23,31.2z M5.6,16.3l1,10.6c0.1,1.3,1.1,2.2,2.4,2.2h14c1.3,0,2.3-0.9,2.4-2.2l1-10.6
		H5.6z"/>
	
		<rect x="23.5" y="0.8" transform="matrix(-0.9309 -0.3653 0.3653 -0.9309 44.944 21.3869)" fill="#8F9BA8" width="2" height="11.3"/>
	
		<rect x="1.9" y="5.4" transform="matrix(-0.3653 -0.9309 0.9309 -0.3653 4.2933 15.7057)" fill="#8F9BA8" width="11.3" height="2"/>
	<g>
		<g>
			<line fill="none" x1="21.9" y1="19.8" x2="21.9" y2="25.7"/>
			<rect x="20.9" y="19.8" fill="#8F9BA8" width="2" height="5.9"/>
		</g>
		<g>
			<line fill="none" x1="16" y1="19.8" x2="16" y2="25.7"/>
			<rect x="15" y="19.8" fill="#8F9BA8" width="2" height="5.9"/>
		</g>
		<g>
			<line fill="none" x1="10.1" y1="19.8" x2="10.1" y2="25.7"/>
			<rect x="9.1" y="19.8" fill="#8F9BA8" width="2" height="5.9"/>
		</g>
	</g>
</g>
</svg>
