<?xml version="1.0" encoding="utf-8"?>
<!-- Generator: Adobe Illustrator 18.0.0, SVG Export Plug-In . SVG Version: 6.00 Build 0)  -->
<!DOCTYPE svg PUBLIC "-//W3C//DTD SVG 1.1//EN" "http://www.w3.org/Graphics/SVG/1.1/DTD/svg11.dtd">
<svg version="1.1" id="Layer_1" xmlns="http://www.w3.org/2000/svg" xmlns:xlink="http://www.w3.org/1999/xlink" x="0px" y="0px"
	 viewBox="0 0 32 32" enable-background="new 0 0 32 32" xml:space="preserve">
<g>
	<g>
		<path fill="#8F9BA8" d="M31.3,26.1H0.8V5.9h30.5V26.1z M2.3,24.6h27.5V7.4H2.3V24.6z"/>
	</g>
	<g>
		<polygon fill="#F0F7F7" points="1.6,6.6 16,19.2 30.4,6.6 		"/>
		<path fill="#8F9BA8" d="M16,20c-0.2,0-0.4-0.1-0.5-0.2L1.1,7.2C0.8,7,0.8,6.6,0.9,6.3C1,6.1,1.2,5.9,1.6,5.9h28.9
			c0.3,0,0.6,0.2,0.7,0.5c0.1,0.3,0,0.6-0.2,0.8L16.5,19.8C16.4,19.9,16.2,20,16,20z M3.6,7.4L16,18.2L28.4,7.4H3.6z"/>
	</g>
	<g>
		
			<rect x="17.5" y="20.3" transform="matrix(0.8017 0.5978 -0.5978 0.8017 17.4993 -10.5937)" fill="#8F9BA8" width="14.4" height="1.5"/>
	</g>
	<g>
		
			<rect x="6.5" y="13.9" transform="matrix(0.5977 0.8017 -0.8017 0.5977 19.8276 2.6372)" fill="#8F9BA8" width="1.5" height="14.4"/>
	</g>
</g>
</svg>
