<?xml version="1.0" encoding="utf-8"?>
<!-- Generator: Adobe Illustrator 18.0.0, SVG Export Plug-In . SVG Version: 6.00 Build 0)  -->
<!DOCTYPE svg PUBLIC "-//W3C//DTD SVG 1.1//EN" "http://www.w3.org/Graphics/SVG/1.1/DTD/svg11.dtd">
<svg version="1.1" id="Layer_1" xmlns="http://www.w3.org/2000/svg" xmlns:xlink="http://www.w3.org/1999/xlink" x="0px" y="0px"
	 viewBox="0 0 32 32" enable-background="new 0 0 32 32" xml:space="preserve">
<g>
	<path fill="#8F9BA8" d="M28.4,28.8H3.6c-1.6,0-2.9-1.3-2.9-2.9V10.7c0-1.6,1.3-2.9,2.9-2.9h24.8c1.6,0,2.9,1.3,2.9,2.9V26
		C31.3,27.6,30,28.8,28.4,28.8z M3.6,9.4c-0.8,0-1.4,0.6-1.4,1.4V26c0,0.8,0.6,1.4,1.4,1.4h24.8c0.8,0,1.4-0.6,1.4-1.4V10.7
		c0-0.8-0.6-1.4-1.4-1.4L3.6,9.4L3.6,9.4z"/>
	<path fill="#8F9BA8" d="M21.2,9.4H10.8C10.3,9.4,10,9,10,8.6V3.9c0-0.4,0.3-0.8,0.8-0.8h10.5c0.4,0,0.8,0.3,0.8,0.8v4.7
		C22,9,21.7,9.4,21.2,9.4z M11.5,7.9h9V4.7h-9V7.9z"/>
	<g>
		<g>
			<path fill="#FAC2C3" d="M16,13.4c-0.3,0-0.5,0-0.8,0.1c-0.2,0-0.3,0.1-0.5,0.1C12.6,14.1,11,16,11,18.4l0,0
				c0,2.3,1.6,4.3,3.7,4.8c0.1,0,0.3,0.1,0.5,0.1c0.3,0,0.5,0.1,0.8,0.1c2.8,0,5-2.2,5-5l0,0C21,15.6,18.8,13.4,16,13.4z"/>
			<path fill="#DA8C8C" d="M16,24.1c-0.3,0-0.6,0-0.9-0.1c-0.2,0-0.4-0.1-0.5-0.1c-2.5-0.7-4.3-2.9-4.3-5.6c0-2.6,1.8-4.9,4.3-5.6
				c0.2,0,0.3-0.1,0.5-0.1c0.3-0.1,0.6-0.1,0.9-0.1c3.2,0,5.8,2.6,5.8,5.8v0.1C21.7,21.6,19.1,24.1,16,24.1z M16,14.1
				c-0.2,0-0.5,0-0.7,0.1c-0.1,0-0.3,0.1-0.4,0.1c-1.9,0.5-3.2,2.2-3.2,4.1s1.3,3.6,3.2,4.1c0.1,0,0.3,0.1,0.4,0.1
				c0.2,0,0.4,0.1,0.7,0.1c2.3,0,4.2-1.9,4.2-4.2v-0.1C20.2,16,18.3,14.1,16,14.1z"/>
		</g>
		<g>
			<line fill="none" x1="19.1" y1="18.4" x2="12.9" y2="18.4"/>
			<rect x="12.9" y="17.6" fill="#DA8C8C" width="6.3" height="1.5"/>
		</g>
	</g>
</g>
</svg>
