<?xml version="1.0" encoding="utf-8"?>
<!-- Generator: Adobe Illustrator 18.0.0, SVG Export Plug-In . SVG Version: 6.00 Build 0)  -->
<!DOCTYPE svg PUBLIC "-//W3C//DTD SVG 1.1//EN" "http://www.w3.org/Graphics/SVG/1.1/DTD/svg11.dtd">
<svg version="1.1" id="Layer_1" xmlns="http://www.w3.org/2000/svg" xmlns:xlink="http://www.w3.org/1999/xlink" x="0px" y="0px"
	 viewBox="0 0 32 32" enable-background="new 0 0 32 32" xml:space="preserve">
<g>
	<path fill="#DA8C8C" d="M9.5,31.3H0.8v-6.2h8.7V31.3z M2.3,29.8H8v-3.2H2.3V29.8z"/>
	<path fill="#DA8C8C" d="M20.4,31.3h-8.7v-6.2h8.7V31.3z M13.1,29.8h5.7v-3.2h-5.7V29.8z"/>
	<path fill="#DA8C8C" d="M31.3,31.3h-8.7v-6.2h8.7V31.3z M24,29.8h5.7v-3.2H24V29.8z"/>
	<g>
		<rect x="1.5" y="17.7" fill="#FAC2C3" width="7.2" height="4.7"/>
		<path fill="#DA8C8C" d="M9.5,23.1H0.8V17h8.7V23.1z M2.3,21.6H8v-3.2H2.3V21.6z"/>
	</g>
	<path fill="#DA8C8C" d="M20.4,23.1h-8.7V17h8.7V23.1z M13.1,21.6h5.7v-3.2h-5.7V21.6z"/>
	<path fill="#DA8C8C" d="M31.3,23.1h-8.7V17h8.7V23.1z M24,21.6h5.7v-3.2H24V21.6z"/>
	<path fill="#DA8C8C" d="M20.4,15h-8.7V8.9h8.7V15z M13.1,13.5h5.7v-3.2h-5.7V13.5z"/>
	<g>
		<rect x="23.3" y="9.6" fill="#FAC2C3" width="7.2" height="4.7"/>
		<path fill="#DA8C8C" d="M31.3,15h-8.7V8.9h8.7V15z M24,13.5h5.7v-3.2H24V13.5z"/>
	</g>
	<g>
		<rect x="12.4" y="1.5" fill="#FAC2C3" width="7.2" height="4.7"/>
		<path fill="#DA8C8C" d="M20.4,6.9h-8.7V0.7h8.7V6.9z M13.1,5.4h5.7V2.3h-5.7V5.4z"/>
	</g>
</g>
</svg>
