<?xml version="1.0" encoding="utf-8"?>
<!-- Generator: Adobe Illustrator 18.0.0, SVG Export Plug-In . SVG Version: 6.00 Build 0)  -->
<!DOCTYPE svg PUBLIC "-//W3C//DTD SVG 1.1//EN" "http://www.w3.org/Graphics/SVG/1.1/DTD/svg11.dtd">
<svg version="1.1" id="Layer_1" xmlns="http://www.w3.org/2000/svg" xmlns:xlink="http://www.w3.org/1999/xlink" x="0px" y="0px"
	 viewBox="0 0 32 32" enable-background="new 0 0 32 32" xml:space="preserve">
<g>
	<path fill="#B4A79C" d="M23,31.2L23,31.2c-2.8,0-5.4-1.1-7.3-3L3.8,16.3C0.7,13.2-0.1,8.6,1.7,4.8c0.5-1,1-2,1.7-2.9
		c0.5-0.7,1.3-1.2,2.2-1.2c0.7,0,1.4,0.3,1.9,0.8l5.8,5.8c0.6,0.6,0.8,1.3,0.8,2.1c-0.1,0.8-0.4,1.5-1.1,2l-0.8,0.6
		c-0.3,0.2-0.5,0.5-0.5,0.9c0,0.4,0.1,0.7,0.4,1l5.9,5.9c0.5,0.5,1.4,0.4,1.8-0.1l0.6-0.8c0.5-0.7,1.3-1.1,2.2-1.1
		c0.7,0,1.4,0.3,1.9,0.8l5.8,5.8c0.6,0.6,0.9,1.4,0.8,2.2c-0.1,0.8-0.5,1.5-1.2,2c-0.8,0.5-1.6,1-2.5,1.5
		C26.2,30.9,24.6,31.2,23,31.2z M5.6,2.3c-0.4,0-0.8,0.2-1,0.5C4,3.6,3.5,4.5,3,5.5c-1.5,3.2-0.8,7.2,1.8,9.8l11.9,11.9
		c1.7,1.7,3.9,2.6,6.2,2.6c1.4,0,2.7-0.3,3.9-0.9c0.8-0.4,1.5-0.8,2.3-1.3c0.3-0.2,0.5-0.5,0.5-0.9c0-0.4-0.1-0.7-0.4-1l-5.8-5.8
		c-0.5-0.5-1.4-0.4-1.8,0.1l-0.6,0.8c-0.5,0.7-1.3,1.1-2.2,1.1c-0.7,0-1.4-0.3-1.9-0.8L11.1,15c-0.6-0.6-0.8-1.3-0.8-2.1
		c0.1-0.8,0.4-1.5,1.1-2l0.8-0.6c0.3-0.2,0.5-0.5,0.5-0.9c0-0.4-0.1-0.7-0.4-1L6.4,2.6C6.2,2.4,5.9,2.3,5.6,2.3z"/>
</g>
</svg>
