<?xml version="1.0" encoding="utf-8"?>
<!-- Generator: Adobe Illustrator 18.0.0, SVG Export Plug-In . SVG Version: 6.00 Build 0)  -->
<!DOCTYPE svg PUBLIC "-//W3C//DTD SVG 1.1//EN" "http://www.w3.org/Graphics/SVG/1.1/DTD/svg11.dtd">
<svg version="1.1" id="Layer_1" xmlns="http://www.w3.org/2000/svg" xmlns:xlink="http://www.w3.org/1999/xlink" x="0px" y="0px"
	 viewBox="0 0 32 32" enable-background="new 0 0 32 32" xml:space="preserve">
<g>
	<path fill="#8F9BA8" d="M18,9H5.5V3.5l3.5,0c0-1.5,1.2-2.7,2.7-2.7c1.5,0,2.7,1.2,2.7,2.7v0H18V9z M7,7.5h9.5V5H13V3.5
		c0-0.7-0.6-1.2-1.2-1.2c-0.7,0-1.2,0.6-1.2,1.2V5H7V7.5z"/>
	<path fill="#8F9BA8" d="M21.7,31.3H1.9V5.5H7v2h9.5v-2h5.2v9.1l-0.6,0.1c-2.7,0.7-4.5,3.1-4.5,5.8c0,2.7,1.9,5.1,4.5,5.8l0.6,0.1
		V31.3z M3.4,29.8h16.8v-2c-3-1-5.1-3.9-5.1-7.1c0-3.2,2.1-6.1,5.1-7.1V7H18v2H5.5V7H3.4V29.8z"/>
	<g>
		<g>
			<path fill="#F9F8F2" d="M22.6,13.8c-0.4,0-0.7,0-1.1,0.1c-0.2,0-0.4,0.1-0.6,0.1c-2.9,0.8-5.1,3.4-5.1,6.5l0,0
				c0,3.1,2.2,5.8,5.1,6.5c0.2,0.1,0.4,0.1,0.6,0.1c0.4,0.1,0.7,0.1,1.1,0.1c3.7,0,6.8-3,6.8-6.8l0,0C29.4,16.9,26.4,13.8,22.6,13.8
				z"/>
			<path fill="#B4A79C" d="M22.6,28.1c-0.4,0-0.8,0-1.2-0.1c-0.2,0-0.5-0.1-0.7-0.1c-3.3-0.9-5.6-3.8-5.6-7.3c0-3.4,2.3-6.4,5.6-7.3
				c0.2-0.1,0.5-0.1,0.7-0.1c0.4-0.1,0.8-0.1,1.2-0.1c4.1,0,7.5,3.4,7.5,7.5C30.1,24.8,26.8,28.1,22.6,28.1z M22.6,14.6
				c-0.3,0-0.6,0-1,0.1c-0.2,0-0.4,0.1-0.6,0.1c-2.6,0.7-4.5,3.1-4.5,5.8c0,2.7,1.9,5.1,4.5,5.8c0.2,0,0.4,0.1,0.5,0.1
				c0.4,0.1,0.7,0.1,1,0.1c3.3,0,6-2.7,6-6C28.6,17.3,25.9,14.6,22.6,14.6z"/>
		</g>
		<g>
			<line fill="#F9F8F2" x1="26.8" y1="20.6" x2="18.4" y2="20.6"/>
			<rect x="18.4" y="19.9" fill="#B4A79C" width="8.5" height="1.5"/>
		</g>
		<g>
			<line fill="#F9F8F2" x1="22.6" y1="16.4" x2="22.6" y2="24.8"/>
			<rect x="21.9" y="16.4" fill="#B4A79C" width="1.5" height="8.5"/>
		</g>
	</g>
</g>
</svg>
