<?xml version="1.0" encoding="utf-8"?>
<!-- Generator: Adobe Illustrator 18.0.0, SVG Export Plug-In . SVG Version: 6.00 Build 0)  -->
<!DOCTYPE svg PUBLIC "-//W3C//DTD SVG 1.1//EN" "http://www.w3.org/Graphics/SVG/1.1/DTD/svg11.dtd">
<svg version="1.1" id="Layer_1" xmlns="http://www.w3.org/2000/svg" xmlns:xlink="http://www.w3.org/1999/xlink" x="0px" y="0px"
	 viewBox="0 0 32 32" enable-background="new 0 0 32 32" xml:space="preserve">
<g>
	<g>
		<path fill="#79C693" d="M7.4,31.6l-6.9-6.9L24.6,0.4l6.9,6.9L7.4,31.6z M2.6,24.6l4.8,4.8L29.4,7.4l-4.8-4.8L2.6,24.6z"/>
	</g>
	<g>
		
			<rect x="6.3" y="26.1" transform="matrix(0.7071 0.7071 -0.7071 0.7071 21.4307 2.0559)" fill="#79C693" width="3.9" height="1.5"/>
	</g>
	<g>
		
			<rect x="9.8" y="24.3" transform="matrix(0.7072 0.707 -0.707 0.7072 20.9317 -0.4732)" fill="#79C693" width="2.5" height="1.5"/>
	</g>
	<g>
		
			<rect x="11" y="21.5" transform="matrix(0.7071 0.7071 -0.7071 0.7071 19.4982 -2.6096)" fill="#79C693" width="3.9" height="1.5"/>
	</g>
	<g>
		
			<rect x="14.4" y="19.6" transform="matrix(0.7071 0.7071 -0.7071 0.7071 19.0004 -5.1374)" fill="#79C693" width="2.5" height="1.5"/>
	</g>
	<g>
		
			<rect x="15.6" y="16.8" transform="matrix(0.7071 0.7071 -0.7071 0.7071 17.5667 -7.2747)" fill="#79C693" width="3.9" height="1.5"/>
	</g>
	<g>
		<rect x="19.1" y="15" transform="matrix(0.707 0.7072 -0.7072 0.707 17.0747 -9.8025)" fill="#79C693" width="2.5" height="1.5"/>
	</g>
	<g>
		
			<rect x="20.3" y="12.2" transform="matrix(0.707 0.7072 -0.7072 0.707 15.6358 -11.9402)" fill="#79C693" width="3.9" height="1.5"/>
	</g>
	<g>
		
			<rect x="23.8" y="10.3" transform="matrix(0.7071 0.7071 -0.7071 0.7071 15.1365 -14.4665)" fill="#79C693" width="2.5" height="1.5"/>
	</g>
	<g>
		<rect x="25" y="7.5" transform="matrix(0.707 0.7072 -0.7072 0.707 13.7037 -16.6057)" fill="#79C693" width="3.9" height="1.5"/>
	</g>
</g>
</svg>
