<?xml version="1.0" encoding="utf-8"?>
<!-- Generator: Adobe Illustrator 18.0.0, SVG Export Plug-In . SVG Version: 6.00 Build 0)  -->
<!DOCTYPE svg PUBLIC "-//W3C//DTD SVG 1.1//EN" "http://www.w3.org/Graphics/SVG/1.1/DTD/svg11.dtd">
<svg version="1.1" id="Layer_1" xmlns="http://www.w3.org/2000/svg" xmlns:xlink="http://www.w3.org/1999/xlink" x="0px" y="0px"
	 viewBox="0 0 32 32" enable-background="new 0 0 32 32" xml:space="preserve">
<g>
	<path fill="#8F9BA8" d="M27.8,24.6H17.2v-0.8c0-3.1-2.5-5.6-5.6-5.6c-0.5,0-1,0.1-1.6,0.2c-2.4,0.7-4.1,2.9-4.1,5.4v0.8H4.2
		c-1.9,0-3.5-1.6-3.5-3.5V4.5C0.8,2.6,2.3,1,4.2,1h23.5c1.9,0,3.5,1.6,3.5,3.5v16.5C31.3,23,29.7,24.6,27.8,24.6z M18.6,23.1h9.1
		c1.1,0,2-0.9,2-2V4.5c0-1.1-0.9-2-2-2H4.2c-1.1,0-2,0.9-2,2v16.5c0,1.1,0.9,2,2,2h0.2c0.3-2.9,2.3-5.3,5.1-6.1
		c0.7-0.2,1.3-0.3,2-0.3C15.2,16.7,18.3,19.5,18.6,23.1z"/>
	<g>
		<g>
			<path fill="#F9F8F2" d="M11.5,17.4c-0.6,0-1.2,0.1-1.8,0.3c-2.7,0.8-4.6,3.2-4.6,6.1c0,3.4,2.7,6.2,6.1,6.4c0.1,0,0.2,0,0.3,0
				c3.5,0,6.4-2.9,6.4-6.4C17.9,20.3,15.1,17.4,11.5,17.4z"/>
			<path fill="#B4A79C" d="M11.5,31c-0.1,0-0.1,0-0.2,0c-3.9-0.2-6.9-3.3-6.9-7.1c0-3.2,2.1-6,5.2-6.9c0.7-0.2,1.3-0.3,2-0.3
				c3.9,0,7.1,3.2,7.1,7.1S15.5,31,11.5,31z M11.5,18.2c-0.5,0-1,0.1-1.6,0.2c-2.4,0.7-4.1,2.9-4.1,5.4c0,3,2.4,5.5,5.4,5.6l0.2,0
				c3.1,0,5.6-2.5,5.6-5.6S14.6,18.2,11.5,18.2z"/>
		</g>
		<g>
			<line fill="#F9F8F2" x1="14.2" y1="21.2" x2="8.9" y2="26.5"/>
			
				<rect x="10.8" y="20.1" transform="matrix(0.7071 0.7071 -0.7071 0.7071 20.2261 -1.1764)" fill="#B4A79C" width="1.5" height="7.5"/>
		</g>
		<g>
			<line fill="#F9F8F2" x1="14.2" y1="26.5" x2="8.9" y2="21.2"/>
			
				<rect x="7.8" y="23.1" transform="matrix(0.7072 0.707 -0.707 0.7072 20.2202 -1.179)" fill="#B4A79C" width="7.5" height="1.5"/>
		</g>
	</g>
	<path fill="#8F9BA8" d="M31.3,17.9h-6.9c-2.8,0-5.1-2.3-5.1-5.1s2.3-5.1,5.1-5.1h6.9V17.9z M24.3,9.2c-2,0-3.6,1.6-3.6,3.6
		s1.6,3.6,3.6,3.6h5.4V9.2H24.3z"/>
	<rect x="23.3" y="11.9" fill="#8F9BA8" width="1.5" height="1.7"/>
</g>
</svg>
