<?xml version="1.0" encoding="utf-8"?>
<!-- Generator: Adobe Illustrator 18.0.0, SVG Export Plug-In . SVG Version: 6.00 Build 0)  -->
<!DOCTYPE svg PUBLIC "-//W3C//DTD SVG 1.1//EN" "http://www.w3.org/Graphics/SVG/1.1/DTD/svg11.dtd">
<svg version="1.1" id="Layer_1" xmlns="http://www.w3.org/2000/svg" xmlns:xlink="http://www.w3.org/1999/xlink" x="0px" y="0px"
	 viewBox="0 0 32 32" enable-background="new 0 0 32 32" xml:space="preserve">
<g>
	<path fill="#B4A79C" d="M25,11.5L20.5,7l4.7-4.7l4.5,4.5L25,11.5z M22.6,7L25,9.4l2.6-2.6l-2.4-2.4L22.6,7z"/>
	<path fill="#B4A79C" d="M8.4,28.1l-4.5-4.5l2.8-2.8l4.5,4.5L8.4,28.1z M6,23.6L8.4,26l0.7-0.7l-2.4-2.4L6,23.6z"/>
	
		<rect x="21.7" y="4.4" transform="matrix(-0.7071 -0.7071 0.7071 -0.7071 42.1941 27.7592)" fill="#B4A79C" width="10.3" height="1.5"/>
	
		<rect x="3.4" y="24.2" transform="matrix(-0.7071 -0.7071 0.7071 -0.7071 -12.6788 50.4199)" fill="#B4A79C" width="1.5" height="7.3"/>
	<path fill="#8F9BA8" d="M12.5,27.6c-0.7,0-1.3-0.3-1.8-0.8l-5.5-5.5c-1-1-1-2.7,0-3.7l14-14l9.2,9.2l-14,14
		C13.9,27.3,13.2,27.6,12.5,27.6z M19.2,5.7l-13,13c-0.4,0.4-0.4,1.1,0,1.5l5.5,5.5c0.4,0.4,1.1,0.4,1.5,0l13-13L19.2,5.7z"/>
	<g>
		
			<rect x="17.9" y="9.3" transform="matrix(-0.7071 -0.7071 0.7071 -0.7071 25.3275 30.6553)" fill="#B4A79C" width="2.2" height="1.5"/>
		
			<rect x="14.8" y="12.4" transform="matrix(-0.7069 -0.7073 0.7073 -0.7069 17.8384 33.6823)" fill="#B4A79C" width="2.2" height="1.5"/>
		
			<rect x="11.7" y="15.5" transform="matrix(-0.7074 -0.7069 0.7069 -0.7074 10.366 36.7111)" fill="#B4A79C" width="2.2" height="1.5"/>
		
			<rect x="8.7" y="18.5" transform="matrix(-0.7071 -0.7071 0.7071 -0.7071 3.1169 39.8344)" fill="#B4A79C" width="2.2" height="1.5"/>
	</g>
</g>
</svg>
