<?xml version="1.0" encoding="utf-8"?>
<!-- Generator: Adobe Illustrator 18.0.0, SVG Export Plug-In . SVG Version: 6.00 Build 0)  -->
<!DOCTYPE svg PUBLIC "-//W3C//DTD SVG 1.1//EN" "http://www.w3.org/Graphics/SVG/1.1/DTD/svg11.dtd">
<svg version="1.1" id="Layer_1" xmlns="http://www.w3.org/2000/svg" xmlns:xlink="http://www.w3.org/1999/xlink" x="0px" y="0px"
	 viewBox="0 0 32 32" enable-background="new 0 0 32 32" xml:space="preserve">
<g>
	<path fill="#8F9BA8" d="M27.8,28.5H4.2c-1.9,0-3.5-1.6-3.5-3.5V10.9c0-1.9,1.6-3.5,3.5-3.5h23.5c1.9,0,3.5,1.6,3.5,3.5v14.1
		C31.3,27,29.7,28.5,27.8,28.5z M4.2,9c-1.1,0-2,0.9-2,2v14.1c0,1.1,0.9,2,2,2h23.5c1.1,0,2-0.9,2-2V10.9c0-1.1-0.9-2-2-2H4.2z"/>
	<g>
		<rect x="19.3" y="4.2" fill="#8F9BA8" width="1.5" height="4"/>
		<rect x="11.2" y="4.2" fill="#8F9BA8" width="1.5" height="4"/>
	</g>
	<rect x="9.8" y="3.5" fill="#8F9BA8" width="12.4" height="1.5"/>
	<g>
		<rect x="24" y="8.2" fill="#8F9BA8" width="1.5" height="19.6"/>
		<rect x="6.5" y="8.2" fill="#8F9BA8" width="1.5" height="19.6"/>
	</g>
	<path fill="#79C693" d="M16,23.9c-3.3,0-5.9-2.7-5.9-5.9s2.7-5.9,5.9-5.9c3.3,0,5.9,2.7,5.9,5.9S19.3,23.9,16,23.9z M16,13.6
		c-2.4,0-4.4,2-4.4,4.4s2,4.4,4.4,4.4s4.4-2,4.4-4.4S18.4,13.6,16,13.6z"/>
	<rect x="15.3" y="15.4" fill="#79C693" width="1.5" height="5.2"/>
	<rect x="13.4" y="17.3" fill="#79C693" width="5.2" height="1.5"/>
</g>
</svg>
