<?xml version="1.0" encoding="utf-8"?>
<!-- Generator: Adobe Illustrator 18.0.0, SVG Export Plug-In . SVG Version: 6.00 Build 0)  -->
<!DOCTYPE svg PUBLIC "-//W3C//DTD SVG 1.1//EN" "http://www.w3.org/Graphics/SVG/1.1/DTD/svg11.dtd">
<svg version="1.1" id="Layer_1" xmlns="http://www.w3.org/2000/svg" xmlns:xlink="http://www.w3.org/1999/xlink" x="0px" y="0px"
	 viewBox="0 0 32 32" enable-background="new 0 0 32 32" xml:space="preserve">
<g>
	<g>
		<path fill="#FAC2C3" d="M18.7,16.5V4.2c0-1.5-1.2-2.7-2.7-2.7l0,0c-1.5,0-2.7,1.2-2.7,2.7v12.2c-2.7,1.1-4.6,3.8-4.6,6.9
			c0.1,3.9,3.3,7.1,7.2,7.2c4.1,0.1,7.4-3.2,7.4-7.3C23.3,20.1,21.4,17.5,18.7,16.5z"/>
		<path fill="#DA8C8C" d="M16,31.2L16,31.2l-0.1,0C11.6,31.2,8,27.6,8,23.3c0-3.2,1.7-6,4.6-7.4V4.2c0-1.9,1.6-3.5,3.5-3.5
			s3.5,1.6,3.5,3.5V16c2.8,1.3,4.6,4.1,4.6,7.2c0,2.1-0.8,4.2-2.4,5.7C20.2,30.4,18.1,31.2,16,31.2z M16,2.2c-1.1,0-2,0.9-2,2V17
			l-0.5,0.2c-2.5,1-4.1,3.4-4.1,6.2c0.1,3.4,3,6.4,6.4,6.4l0.1,0c1.7,0,3.4-0.7,4.6-1.9c1.2-1.2,1.9-2.9,1.9-4.6
			c0-2.7-1.6-5.1-4.1-6.1L18,17V4.2C18,3.1,17.1,2.2,16,2.2z"/>
	</g>
	<g>
		<circle fill="#F2E8B9" cx="16" cy="23.2" r="3.6"/>
		<path fill="#B4A042" d="M16,27.5c-2.4,0-4.3-1.9-4.3-4.3c0-2.4,1.9-4.3,4.3-4.3c2.4,0,4.3,1.9,4.3,4.3
			C20.3,25.6,18.4,27.5,16,27.5z M16,20.4c-1.6,0-2.8,1.3-2.8,2.8c0,1.6,1.3,2.8,2.8,2.8c1.6,0,2.8-1.3,2.8-2.8
			C18.8,21.7,17.6,20.4,16,20.4z"/>
	</g>
	<g>
		<line fill="#F2E8B9" x1="16" y1="19.6" x2="16" y2="7.9"/>
		<rect x="15.2" y="7.9" fill="#B4A042" width="1.5" height="11.8"/>
	</g>
	<g>
		<rect x="8.1" y="3.2" fill="#8F9BA8" width="2.5" height="1.5"/>
		<rect x="8.1" y="7.7" fill="#8F9BA8" width="2.5" height="1.5"/>
		<rect x="8.1" y="12.1" fill="#8F9BA8" width="2.5" height="1.5"/>
	</g>
</g>
</svg>
