<?xml version="1.0" encoding="utf-8"?>
<!-- Generator: Adobe Illustrator 18.0.0, SVG Export Plug-In . SVG Version: 6.00 Build 0)  -->
<!DOCTYPE svg PUBLIC "-//W3C//DTD SVG 1.1//EN" "http://www.w3.org/Graphics/SVG/1.1/DTD/svg11.dtd">
<svg version="1.1" id="Layer_1" xmlns="http://www.w3.org/2000/svg" xmlns:xlink="http://www.w3.org/1999/xlink" x="0px" y="0px"
	 viewBox="0 0 32 32" enable-background="new 0 0 32 32" xml:space="preserve">
<g>
	<path fill="#8F9BA8" d="M8.4,31.2c-2.1,0-4-0.8-5.4-2.3c-1.5-1.5-2.3-3.4-2.3-5.4c0-2.1,0.8-4,2.3-5.4l8.8-8.8
		c0.3-0.3,0.8-0.3,1.1,0l9.8,9.8c0.3,0.3,0.3,0.8,0,1.1L13.9,29C12.4,30.5,10.5,31.2,8.4,31.2z M12.3,10.9l-8.3,8.3
		c-1.2,1.2-1.8,2.7-1.8,4.4c0,1.7,0.6,3.2,1.8,4.4c1.2,1.2,2.7,1.8,4.4,1.8c1.7,0,3.2-0.6,4.4-1.8l8.3-8.3L12.3,10.9z"/>
	<g>
		<path fill="#F9F8F2" d="M28.5,13.4c2.7-2.7,2.7-7.1,0-9.8c-2.7-2.7-7.1-2.7-9.8,0l-6.3,6.3l9.8,9.8L28.5,13.4z"/>
		<path fill="#B4A79C" d="M22.1,20.7L11.3,9.9L18.1,3c1.5-1.5,3.4-2.3,5.4-2.3c2.1,0,4,0.8,5.4,2.3c1.5,1.5,2.3,3.4,2.3,5.4
			s-0.8,4-2.3,5.4L22.1,20.7z M13.4,9.9l8.8,8.8l5.8-5.8c1.2-1.2,1.8-2.7,1.8-4.4s-0.6-3.2-1.8-4.4c-1.2-1.2-2.7-1.8-4.4-1.8
			c-1.7,0-3.2,0.6-4.4,1.8L13.4,9.9z"/>
	</g>
</g>
</svg>
