<?xml version="1.0" encoding="utf-8"?>
<!-- Generator: Adobe Illustrator 18.0.0, SVG Export Plug-In . SVG Version: 6.00 Build 0)  -->
<!DOCTYPE svg PUBLIC "-//W3C//DTD SVG 1.1//EN" "http://www.w3.org/Graphics/SVG/1.1/DTD/svg11.dtd">
<svg version="1.1" id="Layer_1" xmlns="http://www.w3.org/2000/svg" xmlns:xlink="http://www.w3.org/1999/xlink" x="0px" y="0px"
	 viewBox="0 0 32 32" enable-background="new 0 0 32 32" xml:space="preserve">
<g>
	<path fill="#8F9BA8" d="M25.9,31.2H6.1V5.5h5.2v2h9.5v-2h5.2V31.2z M7.6,29.7h16.8V7h-2.2v2H9.8V7H7.6V29.7z"/>
	<g>
		<path fill="#CDE4F7" d="M18,4.3V3.5c0-1.1-0.9-2-2-2l0,0c-1.1,0-2,0.9-2,2v0.8h-3.5v2v2h11v-2v-2H18z"/>
		<path fill="#74B1E0" d="M22.2,9H9.8V3.5l3.5,0c0-1.5,1.2-2.7,2.7-2.7c1.5,0,2.7,1.2,2.7,2.7v0h3.5V9z M11.3,7.5h9.5V5h-3.5V3.5
			c0-0.7-0.6-1.2-1.2-1.2c-0.7,0-1.2,0.6-1.2,1.2V5h-3.5V7.5z"/>
	</g>
	<rect x="15.2" y="12.5" fill="#B4A79C" width="1.5" height="6.3"/>
	<rect x="12.8" y="14.9" fill="#B4A79C" width="6.3" height="1.5"/>
	<g>
		<g>
			<line fill="#CDE4F7" x1="10.7" y1="22.2" x2="21.3" y2="22.2"/>
			<rect x="10.7" y="21.5" fill="#74B1E0" width="10.5" height="1.5"/>
		</g>
		<g>
			<line fill="#CDE4F7" x1="10.7" y1="25.8" x2="21.3" y2="25.8"/>
			<rect x="10.7" y="25.1" fill="#74B1E0" width="10.5" height="1.5"/>
		</g>
	</g>
</g>
</svg>
