<?xml version="1.0" encoding="utf-8"?>
<!-- Generator: Adobe Illustrator 18.0.0, SVG Export Plug-In . SVG Version: 6.00 Build 0)  -->
<!DOCTYPE svg PUBLIC "-//W3C//DTD SVG 1.1//EN" "http://www.w3.org/Graphics/SVG/1.1/DTD/svg11.dtd">
<svg version="1.1" id="Layer_1" xmlns="http://www.w3.org/2000/svg" xmlns:xlink="http://www.w3.org/1999/xlink" x="0px" y="0px"
	 viewBox="0 0 32 32" enable-background="new 0 0 32 32" xml:space="preserve">
<g>
	<path fill="#8F9BA8" d="M9.7,31.2c-2.4,0-4.6-0.9-6.3-2.6c-3.5-3.5-3.5-9.2,0-12.7L16,3.4c1.7-1.7,3.9-2.6,6.3-2.6
		c2.4,0,4.6,0.9,6.3,2.6c3.5,3.5,3.5,9.2,0,12.7L16,28.6C14.4,30.3,12.1,31.2,9.7,31.2z M22.3,2.2c-2,0-3.9,0.8-5.3,2.2L4.4,17
		c-2.9,2.9-2.9,7.6,0,10.6c1.4,1.4,3.3,2.2,5.3,2.2c2,0,3.9-0.8,5.3-2.2L27.6,15c2.9-2.9,2.9-7.6,0-10.6C26.2,3,24.3,2.2,22.3,2.2z"
		/>
	<g>
		
			<rect x="10.6" y="12.9" transform="matrix(0.7071 0.7071 -0.7071 0.7071 16.0001 -6.6273)" fill="#F0F7F7" width="10.7" height="6.3"/>
		<path fill="#8F9BA8" d="M17.6,23.1l-8.6-8.6l5.5-5.5l8.6,8.6L17.6,23.1z M11.1,14.4l6.5,6.5l3.4-3.4l-6.5-6.5L11.1,14.4z"/>
	</g>
	<g>
		<g>
			<g>
				<line fill="#8F9BA8" x1="22.4" y1="6.4" x2="21.7" y2="7.1"/>
				
					<rect x="21.3" y="6.3" transform="matrix(0.7073 0.7069 -0.7069 0.7073 11.226 -13.5797)" fill="#8F9BA8" width="1.5" height="1"/>
			</g>
			<g>
				<line fill="#8F9BA8" x1="25.6" y1="9.6" x2="24.9" y2="10.3"/>
				
					<rect x="24.5" y="9.5" transform="matrix(0.7071 0.7071 -0.7071 0.7071 14.4539 -14.9174)" fill="#8F9BA8" width="1.5" height="1"/>
			</g>
		</g>
		<g>
			<g>
				<line fill="#8F9BA8" x1="18.3" y1="7.2" x2="17.6" y2="7.9"/>
				
					<rect x="17.2" y="7.1" transform="matrix(0.7071 0.7071 -0.7071 0.7071 10.6327 -10.4715)" fill="#8F9BA8" width="1.5" height="1"/>
			</g>
			<g>
				<line fill="#8F9BA8" x1="21.5" y1="10.5" x2="20.8" y2="11.2"/>
				
					<rect x="20.4" y="10.3" transform="matrix(0.7071 0.7071 -0.7071 0.7071 13.8542 -11.8057)" fill="#8F9BA8" width="1.5" height="1"/>
			</g>
			<g>
				<line fill="#8F9BA8" x1="24.8" y1="13.7" x2="24.1" y2="14.4"/>
				
					<rect x="23.7" y="13.5" transform="matrix(0.7071 0.7071 -0.7071 0.7071 17.0784 -13.1413)" fill="#8F9BA8" width="1.5" height="1"/>
			</g>
		</g>
	</g>
	<g>
		<g>
			<g>
				<line fill="#8F9BA8" x1="7.9" y1="17.6" x2="7.2" y2="18.3"/>
				
					<rect x="6.8" y="17.5" transform="matrix(0.7071 0.7071 -0.7071 0.7071 14.9231 -0.1136)" fill="#8F9BA8" width="1.5" height="1"/>
			</g>
			<g>
				<line fill="#8F9BA8" x1="11.2" y1="20.8" x2="10.5" y2="21.5"/>
				
					<rect x="10.1" y="20.7" transform="matrix(0.7071 0.7071 -0.7071 0.7071 18.1453 -1.4484)" fill="#8F9BA8" width="1.5" height="1"/>
			</g>
			<g>
				<line fill="#8F9BA8" x1="14.4" y1="24.1" x2="13.7" y2="24.8"/>
				
					<rect x="13.3" y="23.9" transform="matrix(0.7071 0.7071 -0.7071 0.7071 21.3692 -2.7827)" fill="#8F9BA8" width="1.5" height="1"/>
			</g>
		</g>
		<g>
			<g>
				<line fill="#8F9BA8" x1="7.1" y1="21.7" x2="6.4" y2="22.4"/>
				<rect x="6" y="21.5" transform="matrix(0.7071 0.7071 -0.7071 0.7071 17.5457 1.6623)" fill="#8F9BA8" width="1.5" height="1"/>
			</g>
			<g>
				<line fill="#8F9BA8" x1="10.3" y1="24.9" x2="9.6" y2="25.6"/>
				
					<rect x="9.2" y="24.7" transform="matrix(0.7071 0.7071 -0.7071 0.7071 20.7685 0.328)" fill="#8F9BA8" width="1.5" height="1"/>
			</g>
		</g>
	</g>
</g>
</svg>
