<?xml version="1.0" encoding="utf-8"?>
<!-- Generator: Adobe Illustrator 18.0.0, SVG Export Plug-In . SVG Version: 6.00 Build 0)  -->
<!DOCTYPE svg PUBLIC "-//W3C//DTD SVG 1.1//EN" "http://www.w3.org/Graphics/SVG/1.1/DTD/svg11.dtd">
<svg version="1.1" id="Layer_1" xmlns="http://www.w3.org/2000/svg" xmlns:xlink="http://www.w3.org/1999/xlink" x="0px" y="0px"
	 viewBox="0 0 32 32" enable-background="new 0 0 32 32" xml:space="preserve">
<g>
	<path fill="#79C693" d="M16,31.2c-0.3,0-0.5-0.1-0.7-0.4c-1.1-2-2-4.4-2.6-7.1C10.5,25.2,8.2,26.3,6,27c-0.3,0.1-0.5,0-0.7-0.2
		C5,26.6,5,26.3,5,26c0.6-2.2,1.7-4.5,3.2-6.8c-2.7-0.6-5-1.4-7.1-2.6c-0.2-0.1-0.4-0.4-0.4-0.7c0-0.3,0.1-0.5,0.4-0.7
		c2-1.1,4.4-2,7.1-2.6C6.7,10.5,5.7,8.2,5,5.9C5,5.7,5,5.4,5.2,5.2C5.4,5,5.7,4.9,6,5c2.2,0.6,4.5,1.7,6.8,3.2
		c0.6-2.7,1.4-5,2.6-7.1c0.3-0.5,1-0.5,1.3,0c1.1,2,2,4.4,2.6,7.1C21.5,6.7,23.8,5.7,26,5c0.3-0.1,0.5,0,0.7,0.2
		C27,5.4,27,5.7,27,5.9c-0.6,2.2-1.7,4.5-3.2,6.8c2.7,0.6,5,1.4,7.1,2.6c0.2,0.1,0.4,0.4,0.4,0.7c0,0.3-0.1,0.5-0.4,0.7
		c-2,1.1-4.4,2-7.1,2.6c1.5,2.3,2.5,4.6,3.2,6.8c0.1,0.3,0,0.5-0.2,0.7C26.6,27,26.3,27,26,27c-2.2-0.6-4.5-1.7-6.8-3.2
		c-0.6,2.7-1.4,5-2.6,7.1C16.5,31.1,16.3,31.2,16,31.2z M13.3,21.8c0.1,0,0.2,0,0.3,0.1c0.2,0.1,0.4,0.3,0.5,0.6
		c0.4,2.4,1.1,4.5,2,6.4c0.9-1.9,1.5-4,2-6.4c0-0.3,0.2-0.5,0.5-0.6c0.2-0.1,0.5-0.1,0.7,0.1c2,1.4,4,2.4,5.9,3.2
		c-0.7-1.9-1.8-3.9-3.2-5.9c-0.1-0.2-0.2-0.5-0.1-0.7s0.3-0.4,0.6-0.5c2.4-0.4,4.5-1.1,6.4-2c-1.9-0.9-4-1.5-6.4-2
		c-0.2,0-0.5-0.2-0.6-0.5s-0.1-0.5,0.1-0.7c1.4-2,2.4-4,3.2-5.9c-1.9,0.7-3.9,1.8-5.9,3.2c-0.2,0.1-0.5,0.2-0.7,0.1
		C18.2,10,18,9.8,18,9.6c-0.4-2.4-1.1-4.5-2-6.4c-0.9,1.9-1.5,4-2,6.4c0,0.3-0.2,0.5-0.5,0.6c-0.2,0.1-0.5,0.1-0.7-0.1
		c-2-1.4-4-2.4-5.9-3.2c0.7,1.9,1.8,3.9,3.2,5.9c0.1,0.2,0.2,0.5,0.1,0.7C10.1,13.8,9.8,14,9.6,14c-2.4,0.4-4.5,1.1-6.4,2
		c1.9,0.9,4,1.5,6.4,2c0.2,0,0.5,0.2,0.6,0.5c0.1,0.2,0.1,0.5-0.1,0.7c-1.4,2-2.4,4-3.2,5.9c1.9-0.7,3.9-1.8,5.9-3.2
		C13,21.8,13.1,21.8,13.3,21.8z"/>
</g>
</svg>
