<?xml version="1.0" encoding="utf-8"?>
<!-- Generator: Adobe Illustrator 18.0.0, SVG Export Plug-In . SVG Version: 6.00 Build 0)  -->
<!DOCTYPE svg PUBLIC "-//W3C//DTD SVG 1.1//EN" "http://www.w3.org/Graphics/SVG/1.1/DTD/svg11.dtd">
<svg version="1.1" id="Layer_1" xmlns="http://www.w3.org/2000/svg" xmlns:xlink="http://www.w3.org/1999/xlink" x="0px" y="0px"
	 viewBox="0 0 32 32" enable-background="new 0 0 32 32" xml:space="preserve">
<g>
	<path fill="#DA8C8C" d="M14.9,28.6C14.9,28.6,14.9,28.6,14.9,28.6c-0.2,0-0.4-0.1-0.6-0.3c-1.6-2-2.4-4.5-2.2-7.1l-5.8-5.8
		l-4.8-0.8c-0.3,0-0.5-0.2-0.6-0.5c-0.1-0.3,0-0.6,0.2-0.8L13.3,1.1c0.2-0.2,0.5-0.3,0.8-0.2c0.3,0.1,0.5,0.3,0.5,0.6l0.8,4.8
		l5.8,5.8c2.6-0.2,5.1,0.6,7.1,2.2c0.2,0.1,0.3,0.3,0.3,0.5c0,0.2-0.1,0.4-0.2,0.6L15.5,28.4C15.3,28.5,15.1,28.6,14.9,28.6z
		 M3.2,13.4L6.8,14c0.2,0,0.3,0.1,0.4,0.2l6.2,6.2c0.2,0.2,0.2,0.4,0.2,0.6c-0.2,2,0.3,4,1.4,5.7L26.7,15C25,13.9,23,13.4,21,13.6
		c-0.2,0-0.5-0.1-0.6-0.2l-6.2-6.2C14.1,7.1,14,7,14,6.8l-0.6-3.7L3.2,13.4z"/>
	
		<rect x="19.5" y="25.2" transform="matrix(0.7071 0.7071 -0.7071 0.7071 25.9979 -10.7692)" fill="#DA8C8C" width="13" height="1.5"/>
</g>
</svg>
