<?xml version="1.0" encoding="utf-8"?>
<!-- Generator: Adobe Illustrator 18.0.0, SVG Export Plug-In . SVG Version: 6.00 Build 0)  -->
<!DOCTYPE svg PUBLIC "-//W3C//DTD SVG 1.1//EN" "http://www.w3.org/Graphics/SVG/1.1/DTD/svg11.dtd">
<svg version="1.1" id="Layer_1" xmlns="http://www.w3.org/2000/svg" xmlns:xlink="http://www.w3.org/1999/xlink" x="0px" y="0px"
	 viewBox="0 0 32 32" enable-background="new 0 0 32 32" xml:space="preserve">
<g>
	<path fill="#8F9BA8" d="M27.6,23.2h-2l-0.1-0.7c-0.1-1.2-1.1-2-2.3-2c-1.2,0-2.1,0.9-2.3,2l-0.1,0.7H10L10,22.5
		c-0.1-1.2-1.1-2-2.3-2c-1.2,0-2.1,0.9-2.3,2l-0.1,0.7h-1c-2,0-3.6-1.6-3.6-3.6V9.1c0-2,1.6-3.6,3.6-3.6h20.9c1.6,0,3,1.1,3.5,2.6
		l2.3,7.9c0.1,0.3,0.1,0.7,0.1,1v2.6C31.3,21.6,29.6,23.2,27.6,23.2z M26.9,21.7h0.7c1.2,0,2.1-1,2.1-2.1V17c0-0.2,0-0.4-0.1-0.6
		l-2.3-7.9c-0.3-0.9-1.1-1.5-2.1-1.5H4.4c-1.2,0-2.1,1-2.1,2.1v10.5c0,1.1,0.8,2,1.8,2.1C4.6,20.1,6,19,7.7,19
		c1.7,0,3.1,1.1,3.6,2.7h8.4c0.5-1.6,1.9-2.7,3.6-2.7C25,19,26.4,20.1,26.9,21.7z"/>
	<rect x="1.5" y="15.7" fill="#8F9BA8" width="29" height="1.5"/>
	<rect x="19.5" y="6.2" fill="#8F9BA8" width="1.5" height="10.3"/>
	<rect x="10.5" y="6.2" fill="#8F9BA8" width="1.5" height="10.3"/>
	<g>
		<path fill="#F0F7F7" d="M10.7,22.4c-0.2-1.5-1.4-2.7-3-2.7c-1.6,0-2.8,1.2-3,2.7c0,0.1,0,0.2,0,0.3c0,1.7,1.4,3,3,3s3-1.4,3-3
			C10.7,22.7,10.7,22.6,10.7,22.4z"/>
		<path fill="#8F9BA8" d="M7.7,26.6c-2.1,0-3.8-1.7-3.8-3.8c0-0.1,0-0.2,0-0.3c0.2-2,1.8-3.4,3.8-3.4c1.9,0,3.5,1.4,3.7,3.4
			c0,0.2,0,0.3,0,0.4C11.5,24.9,9.8,26.6,7.7,26.6z M7.7,20.5c-1.2,0-2.1,0.9-2.3,2l0,0.1c0,0,0,0.1,0,0.1c0,1.3,1,2.3,2.3,2.3
			c1.3,0,2.3-1,2.3-2.3c0,0,0-0.1,0-0.1l0-0.1C9.8,21.4,8.9,20.5,7.7,20.5z"/>
	</g>
	<g>
		<path fill="#F0F7F7" d="M26.3,22.4c-0.2-1.5-1.4-2.7-3-2.7c-1.6,0-2.8,1.2-3,2.7c0,0.1,0,0.2,0,0.3c0,1.7,1.4,3,3,3
			c1.7,0,3-1.4,3-3C26.3,22.7,26.3,22.6,26.3,22.4z"/>
		<path fill="#8F9BA8" d="M23.3,26.6c-2.1,0-3.8-1.7-3.8-3.8c0-0.1,0-0.2,0-0.3c0.2-2,1.8-3.4,3.8-3.4c1.9,0,3.5,1.4,3.7,3.4
			c0,0.2,0,0.3,0,0.4C27.1,24.9,25.4,26.6,23.3,26.6z M23.3,20.5c-1.2,0-2.1,0.9-2.3,2l0,0.1c0,0,0,0.1,0,0.1c0,1.3,1,2.3,2.3,2.3
			c1.3,0,2.3-1,2.3-2.3c0,0,0-0.1,0-0.1l0-0.1C25.4,21.4,24.4,20.5,23.3,20.5z"/>
	</g>
</g>
</svg>
