<?xml version="1.0" encoding="utf-8"?>
<!-- Generator: Adobe Illustrator 18.0.0, SVG Export Plug-In . SVG Version: 6.00 Build 0)  -->
<!DOCTYPE svg PUBLIC "-//W3C//DTD SVG 1.1//EN" "http://www.w3.org/Graphics/SVG/1.1/DTD/svg11.dtd">
<svg version="1.1" id="Layer_1" xmlns="http://www.w3.org/2000/svg" xmlns:xlink="http://www.w3.org/1999/xlink" x="0px" y="0px"
	 viewBox="0 0 32 32" enable-background="new 0 0 32 32" xml:space="preserve">
<g>
	<path fill="#8F9BA8" d="M21.2,9.4H10.8C10.3,9.4,10,9,10,8.6V3.9c0-0.4,0.3-0.8,0.8-0.8h10.5c0.4,0,0.8,0.3,0.8,0.8v4.7
		C22,9,21.7,9.4,21.2,9.4z M11.5,7.9h9V4.7h-9V7.9z"/>
	<path fill="#79C693" d="M28.4,28.8H3.6c-1.6,0-2.9-1.3-2.9-2.9V10.7c0-1.6,1.3-2.9,2.9-2.9h24.8c1.6,0,2.9,1.3,2.9,2.9V26
		C31.3,27.6,30,28.8,28.4,28.8z M3.6,9.4c-0.8,0-1.4,0.6-1.4,1.4V26c0,0.8,0.6,1.4,1.4,1.4h24.8c0.8,0,1.4-0.6,1.4-1.4V10.7
		c0-0.8-0.6-1.4-1.4-1.4H3.6z"/>
	<g>
		<rect x="15.3" y="14.6" fill="#79C693" width="1.5" height="7.5"/>
		<rect x="12.2" y="17.6" fill="#79C693" width="7.5" height="1.5"/>
	</g>
</g>
</svg>
