<?xml version="1.0" encoding="utf-8"?>
<!-- Generator: Adobe Illustrator 18.0.0, SVG Export Plug-In . SVG Version: 6.00 Build 0)  -->
<!DOCTYPE svg PUBLIC "-//W3C//DTD SVG 1.1//EN" "http://www.w3.org/Graphics/SVG/1.1/DTD/svg11.dtd">
<svg version="1.1" id="Layer_1" xmlns="http://www.w3.org/2000/svg" xmlns:xlink="http://www.w3.org/1999/xlink" x="0px" y="0px"
	 viewBox="0 0 32 32" enable-background="new 0 0 32 32" xml:space="preserve">
<g>
	<path fill="#DA8C8C" d="M16,31.5c-6.2,0-11.3-5.1-11.3-11.3C4.7,14.1,15,1.7,15.4,1.2L16,0.5l0.6,0.7C17,1.7,27.3,14.1,27.3,20.1
		C27.3,26.4,22.3,31.5,16,31.5z M16,2.9c-2.2,2.7-9.8,12.5-9.8,17.2c0,5.4,4.4,9.8,9.8,9.8c5.4,0,9.8-4.4,9.8-9.8
		C25.8,15.4,18.2,5.6,16,2.9z"/>
	<path fill="#DA8C8C" d="M17.5,28.2l-0.3-1.5c3.2-0.6,5.5-3.4,5.5-6.6c0-0.4-0.1-1.2-0.8-2.6l1.4-0.6c0.6,1.4,0.9,2.4,0.9,3.2
		C24.2,24.1,21.4,27.5,17.5,28.2z"/>
</g>
</svg>
