<?xml version="1.0" encoding="utf-8"?>
<!-- Generator: Adobe Illustrator 18.0.0, SVG Export Plug-In . SVG Version: 6.00 Build 0)  -->
<!DOCTYPE svg PUBLIC "-//W3C//DTD SVG 1.1//EN" "http://www.w3.org/Graphics/SVG/1.1/DTD/svg11.dtd">
<svg version="1.1" id="Layer_1" xmlns="http://www.w3.org/2000/svg" xmlns:xlink="http://www.w3.org/1999/xlink" x="0px" y="0px"
	 viewBox="0 0 32 32" enable-background="new 0 0 32 32" xml:space="preserve">
<g>
	<path fill="#B4A79C" d="M22.4,21.5c-0.8,0-1.5-0.3-2-0.8L11.7,12c-0.6-0.6-0.9-1.4-0.8-2.2c0-0.8,0.4-1.6,1.1-2.1l8-6.3
		c1.1-0.9,2.8-0.8,3.8,0.2l7,7c1,1,1.1,2.7,0.2,3.8l-6.3,8C24.1,21.1,23.3,21.5,22.4,21.5z M21.7,2.2c-0.3,0-0.6,0.1-0.9,0.3l-8,6.3
		c-0.3,0.2-0.5,0.6-0.5,1c0,0.4,0.1,0.8,0.4,1.1l8.7,8.7c0.6,0.6,1.6,0.5,2.1-0.1l6.3-8c0.4-0.6,0.4-1.3-0.1-1.8l-7-7
		C22.4,2.4,22.1,2.2,21.7,2.2z"/>
	
		<rect x="20.6" y="8.1" transform="matrix(0.707 0.7072 -0.7072 0.707 13.1217 -14.0202)" fill="#B4A79C" width="5.8" height="1.5"/>
	<g>
		<polygon fill="#F9F8F2" points="18.8,18.1 14.2,13.5 1.9,25.9 1.3,29.4 6.4,30.5 		"/>
		<path fill="#B4A79C" d="M6.7,31.3L0.4,30l0.8-4.5l13.1-13.1l5.6,5.6L6.7,31.3z M2.1,28.8l4.1,0.8l11.6-11.6l-3.5-3.5L2.6,26.2
			L2.1,28.8z"/>
	</g>
</g>
</svg>
