<?xml version="1.0" encoding="utf-8"?>
<!-- Generator: Adobe Illustrator 18.0.0, SVG Export Plug-In . SVG Version: 6.00 Build 0)  -->
<!DOCTYPE svg PUBLIC "-//W3C//DTD SVG 1.1//EN" "http://www.w3.org/Graphics/SVG/1.1/DTD/svg11.dtd">
<svg version="1.1" id="Layer_1" xmlns="http://www.w3.org/2000/svg" xmlns:xlink="http://www.w3.org/1999/xlink" x="0px" y="0px"
	 viewBox="0 0 32 32" enable-background="new 0 0 32 32" xml:space="preserve">
<g>
	<g>
		<path fill="#8F9BA8" d="M16,31.2c-0.2,0-0.4-0.1-0.5-0.2c-4-4-6.2-9.4-6.2-15c0-5.7,2.2-11,6.2-15c0.3-0.3,0.8-0.3,1.1,0
			c8.3,8.3,8.3,21.8,0,30.1C16.4,31.2,16.2,31.2,16,31.2z M16,2.6c-7,7.6-7,19.3,0,26.8C23,21.9,23,10.1,16,2.6z"/>
	</g>
	<g>
		
			<rect x="5.7" y="15.2" transform="matrix(0.7071 0.7071 -0.7071 0.7071 15.9996 -6.6276)" fill="#79C693" width="20.7" height="1.5"/>
	</g>
	<g>
		<path fill="#79C693" d="M28.2,31.2c-0.7,0-1.5-0.4-2.3-1.3c-0.9-0.9-2-2.3-2.6-3.6c-1-1.8-1.1-2.9-0.5-3.6
			c0.2-0.2,0.5-0.4,1.1-0.4c1.7,0,4.7,2.1,6.1,3.5c0.9,0.9,1.3,1.6,1.3,2.3c0,0.8-0.6,1.4-1,1.9l-0.6-0.4l0.5,0.5
			C29.6,30.7,29.1,31.2,28.2,31.2z M23.9,23.9c0,0.8,1.4,3.3,3.1,5c0.7,0.7,1.1,0.9,1.3,0.9c0.2,0,0.5-0.3,0.8-0.6
			c0,0,0.1-0.1,0.1-0.1c0.3-0.3,0.6-0.6,0.6-0.8c0-0.2-0.1-0.5-0.9-1.3C27.4,25.5,24.8,23.9,23.9,23.9z"/>
	</g>
	<g>
		<path fill="#79C693" d="M8.2,9.6C6.5,9.6,3.5,7.6,2,6.1c-1-1-1.4-1.7-1.3-2.5c0.1-0.7,0.6-1.2,1-1.7l0.6,0.4L1.9,1.8
			c0.5-0.5,1-1,1.9-1c0.7,0,1.5,0.4,2.3,1.3c0.9,0.9,2,2.3,2.6,3.6c1,1.8,1.1,2.9,0.5,3.6C9,9.4,8.7,9.6,8.2,9.6z M3.8,2.2
			C3.6,2.2,3.3,2.5,3,2.9C3,2.9,2.9,3,2.9,3C2.6,3.3,2.3,3.5,2.3,3.7c0,0.1,0,0.5,0.9,1.3c1.5,1.5,4.1,3.1,5,3.1
			c0-0.8-1.4-3.3-3.1-5C4.3,2.4,3.9,2.2,3.8,2.2z"/>
	</g>
</g>
</svg>
