<?xml version="1.0" encoding="utf-8"?>
<!-- Generator: Adobe Illustrator 18.0.0, SVG Export Plug-In . SVG Version: 6.00 Build 0)  -->
<!DOCTYPE svg PUBLIC "-//W3C//DTD SVG 1.1//EN" "http://www.w3.org/Graphics/SVG/1.1/DTD/svg11.dtd">
<svg version="1.1" id="Layer_1" xmlns="http://www.w3.org/2000/svg" xmlns:xlink="http://www.w3.org/1999/xlink" x="0px" y="0px"
	 viewBox="0 0 32 32" enable-background="new 0 0 32 32" xml:space="preserve">
<g>
	<path fill="#74B1E0" d="M19.3,26.7l-1.5,0c-4.6-0.1-7.7-2.5-9-3.7c-4.9-1.1-8.2-3.8-8.2-7c0-3.2,3.3-5.9,8.2-7
		c1.3-1.2,4.4-3.6,9-3.7l1.5,0l-0.8,1.2c0,0-0.8,1.1-1.4,2.5c2,0.4,3.9,1.1,5.3,2c0.1-0.1,0.1-0.2,0.2-0.2c1.1-1.4,2.8-2.2,4.6-2.2
		c1.3,0,2.6,0.4,3.7,1.3l0.6,0.5L26.8,16l4.6,5.8l-0.6,0.5c-1.1,0.8-2.3,1.3-3.7,1.3c0,0,0,0,0,0c-1.8,0-3.5-0.8-4.6-2.2
		c-0.1-0.1-0.1-0.2-0.2-0.2c-1.4,0.9-3.3,1.6-5.3,2c0.7,1.3,1.4,2.4,1.4,2.5L19.3,26.7z M16.4,6.9c-3.5,0.5-5.8,2.4-6.7,3.3
		l-0.2,0.2l-0.2,0C5,11.3,2.1,13.5,2.1,16c0,2.5,2.9,4.7,7.2,5.6l0.2,0l0.2,0.2c0.9,0.9,3.2,2.8,6.7,3.3c-0.4-0.6-0.8-1.5-1.2-2.3
		l-0.4-0.9l1-0.1c2.5-0.4,4.7-1.2,6.3-2.4l0.7-0.5l0.4,0.8c0.2,0.3,0.3,0.5,0.5,0.7c0.8,1.1,2.1,1.7,3.5,1.7c0.7,0,1.5-0.2,2.1-0.5
		L24.8,16l4.4-5.5c-0.6-0.3-1.4-0.5-2.1-0.5c-1.4,0-2.6,0.6-3.5,1.7c-0.2,0.2-0.3,0.4-0.5,0.7l-0.4,0.8l-0.7-0.5
		c-1.5-1.2-3.8-2-6.3-2.4l-1-0.1l0.4-0.9C15.6,8.4,16,7.5,16.4,6.9z"/>
	<g>
		<line fill="#CDE4F7" x1="5.5" y1="15" x2="6.5" y2="13.9"/>
		
			<rect x="5.2" y="13.8" transform="matrix(0.7597 0.6502 -0.6502 0.7597 10.8651 -0.4136)" fill="#74B1E0" width="1.5" height="1.5"/>
	</g>
</g>
</svg>
