<?xml version="1.0" encoding="utf-8"?>
<!-- Generator: Adobe Illustrator 18.0.0, SVG Export Plug-In . SVG Version: 6.00 Build 0)  -->
<!DOCTYPE svg PUBLIC "-//W3C//DTD SVG 1.1//EN" "http://www.w3.org/Graphics/SVG/1.1/DTD/svg11.dtd">
<svg version="1.1" id="Layer_1" xmlns="http://www.w3.org/2000/svg" xmlns:xlink="http://www.w3.org/1999/xlink" x="0px" y="0px"
	 viewBox="0 0 32 32" enable-background="new 0 0 32 32" xml:space="preserve">
<g>
	<path fill="#8F9BA8" d="M24,30.8H3.8L0.7,1.2h26.4L24,30.8z M5.2,29.3h17.5l2.8-26.7H2.4L5.2,29.3z"/>
	<path fill="#8F9BA8" d="M27.8,14.6c-2,0-4.6-0.7-7.1-1.8c-3.9-1.7-6.7-4.1-7.2-6L15,6.4c0.3,1.2,2.6,3.4,6.4,5c4.5,2,8,2,8.4,1.1
		c0.3-0.7-1.1-2.7-4.5-4.6l0.7-1.3c3,1.7,6.1,4.4,5.2,6.5C30.7,14.2,29.4,14.6,27.8,14.6z"/>
	<rect x="13" y="5.7" fill="#8F9BA8" width="2.7" height="1.5"/>
</g>
</svg>
