<?xml version="1.0" encoding="utf-8"?>
<!-- Generator: Adobe Illustrator 18.0.0, SVG Export Plug-In . SVG Version: 6.00 Build 0)  -->
<!DOCTYPE svg PUBLIC "-//W3C//DTD SVG 1.1//EN" "http://www.w3.org/Graphics/SVG/1.1/DTD/svg11.dtd">
<svg version="1.1" id="Layer_1" xmlns="http://www.w3.org/2000/svg" xmlns:xlink="http://www.w3.org/1999/xlink" x="0px" y="0px"
	 viewBox="0 0 32 32" enable-background="new 0 0 32 32" xml:space="preserve">
<pattern  x="-42" y="-84" width="24.1" height="24.1" patternUnits="userSpaceOnUse" id="New_Pattern_Swatch_1" viewBox="0 -24.1 24.1 24.1" overflow="visible">
	<g>
		<polygon fill="none" points="0,0 24.1,0 24.1,-24.1 0,-24.1 		"/>
		<polygon fill="#FEE99B" points="24.1,0 0,0 0,-24.1 24.1,-24.1 		"/>
	</g>
</pattern>
<pattern  x="-42" y="-84" width="24.1" height="24.1" patternUnits="userSpaceOnUse" id="New_Pattern_Swatch_2" viewBox="0 -24.1 24.1 24.1" overflow="visible">
	<g>
		<polygon fill="none" points="0,0 24.1,0 24.1,-24.1 0,-24.1 		"/>
		<polygon fill="#E0CB81" points="24.1,0 0,0 0,-24.1 24.1,-24.1 		"/>
	</g>
</pattern>
<g>
	<path fill="#8F9BA8" d="M16,31.2c-4.1,0-7.8-2.8-9.2-6.9c-0.6-1.6-1.5-3.2-2.3-4.4c-1.3-2-2-4.2-2-6.6c0-7,6.1-12.6,13.5-12.6
		c7.4,0,13.5,5.7,13.5,12.6c0,2.3-0.7,4.6-2,6.6c-0.8,1.3-1.7,2.8-2.3,4.4C23.8,28.5,20.1,31.2,16,31.2z M16,2.2
		c-6.6,0-12,5-12,11.1c0,2,0.6,4,1.7,5.8c0.9,1.3,1.9,3,2.5,4.8c1.2,3.5,4.3,5.9,7.8,5.9c3.5,0,6.6-2.4,7.8-5.9
		c0.6-1.8,1.6-3.4,2.5-4.8c1.1-1.7,1.7-3.7,1.7-5.8C28,7.2,22.6,2.2,16,2.2z"/>
	<g>
		<g>
			<pattern  id="SVGID_1_" xlink:href="#New_Pattern_Swatch_1" patternTransform="matrix(1 0 0 1 -12.0714 -38.0295)">
			</pattern>
			<path fill="url(#SVGID_1_)" d="M14,16.7c-0.4,1.3-2.6,1.9-5,1.2S6.3,16,6.7,14.7c0.4-1.3,1.2-2.2,3.6-1.6
				C12.7,13.8,14.4,15.4,14,16.7z"/>
			<pattern  id="SVGID_2_" xlink:href="#New_Pattern_Swatch_2" patternTransform="matrix(1 0 0 1 -12.0714 -38.0295)">
			</pattern>
			<path fill="url(#SVGID_2_)" d="M11,18.9c-0.7,0-1.5-0.1-2.2-0.3c-1.3-0.4-2.2-0.9-2.6-1.7c-0.4-0.7-0.5-1.5-0.2-2.4
				c0.6-2,2.1-2.8,4.5-2.1c1.3,0.4,2.4,1,3.2,1.7c0.9,0.9,1.3,1.9,1,2.8C14.4,18.1,12.9,18.9,11,18.9z M8.9,13.6
				c-0.8,0-1.2,0.3-1.5,1.2c-0.2,0.6-0.1,1,0,1.3c0.2,0.4,0.8,0.8,1.7,1c1.9,0.5,3.8,0.1,4.1-0.7c0.1-0.4-0.1-0.8-0.6-1.3
				c-0.6-0.6-1.5-1.1-2.5-1.4C9.7,13.7,9.3,13.6,8.9,13.6z"/>
		</g>
		<g>
			<pattern  id="SVGID_3_" xlink:href="#New_Pattern_Swatch_1" patternTransform="matrix(1 0 0 1 -12.0714 -38.0295)">
			</pattern>
			<path fill="url(#SVGID_3_)" d="M18,16.7c0.4,1.3,2.6,1.9,5,1.2c2.4-0.7,2.7-1.9,2.3-3.2c-0.4-1.3-1.2-2.2-3.6-1.6
				C19.3,13.8,17.6,15.4,18,16.7z"/>
			<pattern  id="SVGID_4_" xlink:href="#New_Pattern_Swatch_2" patternTransform="matrix(1 0 0 1 -12.0714 -38.0295)">
			</pattern>
			<path fill="url(#SVGID_4_)" d="M21,18.9L21,18.9c-1.9,0-3.4-0.8-3.7-2c-0.5-1.7,1.4-3.7,4.2-4.5c2.5-0.7,4,0.1,4.5,2.1
				c0.3,1,0.2,1.8-0.2,2.4c-0.5,0.8-1.3,1.3-2.6,1.7C22.5,18.8,21.7,18.9,21,18.9z M23.1,13.6c-0.3,0-0.8,0.1-1.2,0.2
				c-2.1,0.6-3.4,1.9-3.1,2.7c0.2,0.8,2.2,1.2,4.1,0.7c0.9-0.3,1.5-0.6,1.7-1c0.2-0.3,0.2-0.7,0-1.3C24.3,14,23.9,13.6,23.1,13.6z"
				/>
		</g>
	</g>
	<pattern  id="SVGID_5_" xlink:href="#New_Pattern_Swatch_2" patternTransform="matrix(1 0 0 1 -12.0714 -38.0295)">
	</pattern>
	<path fill="url(#SVGID_5_)" d="M16,26.7c-1.5,0-2.9-0.7-3.9-1.8l1.2-0.9c0.7,0.8,1.7,1.3,2.7,1.3c1.1,0,2-0.5,2.7-1.3l1.2,0.9
		C18.9,26,17.5,26.7,16,26.7z"/>
	<g>
		<pattern  id="SVGID_6_" xlink:href="#New_Pattern_Swatch_1" patternTransform="matrix(1 0 0 1 -12.0714 -38.0295)">
		</pattern>
		<line fill="url(#SVGID_6_)" x1="16" y1="21" x2="16" y2="19.5"/>
		<pattern  id="SVGID_7_" xlink:href="#New_Pattern_Swatch_2" patternTransform="matrix(1 0 0 1 -12.0714 -38.0295)">
		</pattern>
		<rect x="15.3" y="19.5" fill="url(#SVGID_7_)" width="1.5" height="1.5"/>
	</g>
</g>
</svg>
