<?xml version="1.0" encoding="utf-8"?>
<!-- Generator: Adobe Illustrator 18.0.0, SVG Export Plug-In . SVG Version: 6.00 Build 0)  -->
<!DOCTYPE svg PUBLIC "-//W3C//DTD SVG 1.1//EN" "http://www.w3.org/Graphics/SVG/1.1/DTD/svg11.dtd">
<svg version="1.1" id="Layer_1" xmlns="http://www.w3.org/2000/svg" xmlns:xlink="http://www.w3.org/1999/xlink" x="0px" y="0px"
	 viewBox="0 0 32 32" enable-background="new 0 0 32 32" xml:space="preserve">
<g>
	<path fill="#79C693" d="M22.5,31.2h-13c-1.4,0-2.6-1.2-2.6-2.6V6.3c0-1.4,1.2-2.6,2.6-2.6h13c1.4,0,2.6,1.2,2.6,2.6v22.4
		C25,30.1,23.9,31.2,22.5,31.2z M9.5,5.2c-0.6,0-1.1,0.5-1.1,1.1v22.4c0,0.6,0.5,1.1,1.1,1.1h13c0.6,0,1.1-0.5,1.1-1.1V6.3
		c0-0.6-0.5-1.1-1.1-1.1H9.5z"/>
	<path fill="#79C693" d="M19.9,5h-7.9V0.7h7.9V5z M13.6,3.5h4.9V2.2h-4.9V3.5z"/>
	<rect x="15.3" y="7.2" fill="#8F9BA8" width="1.5" height="4.3"/>
	<rect x="13.8" y="8.6" fill="#8F9BA8" width="4.3" height="1.5"/>
	<rect x="13.8" y="27" fill="#8F9BA8" width="4.3" height="1.5"/>
</g>
</svg>
