<?xml version="1.0" encoding="utf-8"?>
<!-- Generator: Adobe Illustrator 18.0.0, SVG Export Plug-In . SVG Version: 6.00 Build 0)  -->
<!DOCTYPE svg PUBLIC "-//W3C//DTD SVG 1.1//EN" "http://www.w3.org/Graphics/SVG/1.1/DTD/svg11.dtd">
<svg version="1.1" id="Layer_1" xmlns="http://www.w3.org/2000/svg" xmlns:xlink="http://www.w3.org/1999/xlink" x="0px" y="0px"
	 viewBox="0 0 32 32" enable-background="new 0 0 32 32" xml:space="preserve">
<g>
	<path fill="#DA8C8C" d="M30.5,31.2h-29c-0.4,0-0.8-0.3-0.8-0.8v-29c0-0.3,0.2-0.6,0.5-0.7C1.5,0.7,1.8,0.8,2,1l29,29
		c0.2,0.2,0.3,0.5,0.2,0.8C31.1,31.1,30.8,31.2,30.5,31.2z M2.2,29.7h26.4L2.2,3.3V29.7z"/>
	<path fill="#DA8C8C" d="M16,25.2H7.5c-0.4,0-0.8-0.3-0.8-0.8V16c0-0.3,0.2-0.6,0.5-0.7c0.3-0.1,0.6-0.1,0.8,0.2l8.5,8.5
		c0.2,0.2,0.3,0.5,0.2,0.8C16.6,25.1,16.3,25.2,16,25.2z M8.2,23.7h6l-6-6V23.7z"/>
</g>
</svg>
