<?xml version="1.0" encoding="utf-8"?>
<!-- Generator: Adobe Illustrator 18.0.0, SVG Export Plug-In . SVG Version: 6.00 Build 0)  -->
<!DOCTYPE svg PUBLIC "-//W3C//DTD SVG 1.1//EN" "http://www.w3.org/Graphics/SVG/1.1/DTD/svg11.dtd">
<svg version="1.1" id="Layer_1" xmlns="http://www.w3.org/2000/svg" xmlns:xlink="http://www.w3.org/1999/xlink" x="0px" y="0px"
	 viewBox="0 0 32 32" enable-background="new 0 0 32 32" xml:space="preserve">
<pattern  x="-210" y="-84" width="24.1" height="24.1" patternUnits="userSpaceOnUse" id="New_Pattern_Swatch_2" viewBox="0 -24.1 24.1 24.1" overflow="visible">
	<g>
		<polygon fill="none" points="0,0 24.1,0 24.1,-24.1 0,-24.1 		"/>
		<polygon fill="#E0CB81" points="24.1,0 0,0 0,-24.1 24.1,-24.1 		"/>
	</g>
</pattern>
<g>
	<path fill="#B4A79C" d="M6.7,31c-0.6,0-1.2-0.2-1.6-0.7l-3.4-3.4c-0.4-0.4-0.7-1-0.7-1.6s0.2-1.2,0.7-1.6l12.6-12.6l0.5,0.9
		c0.1,0.2,0.2,0.4,0.4,0.5l4.4,4.4c0.2,0.2,0.3,0.3,0.5,0.4l0.9,0.5L8.3,30.3C7.9,30.8,7.3,31,6.7,31z M14,13.5L2.7,24.8
		c-0.1,0.1-0.2,0.3-0.2,0.5s0.1,0.4,0.2,0.5l3.4,3.4c0.3,0.3,0.8,0.3,1.1,0L18.5,18c0,0-0.1-0.1-0.1-0.1L14,13.5
		C14,13.6,14,13.5,14,13.5z"/>
	<g>
		<path fill="#F9F8F2" d="M19.4,4.2l-4.8,4.8c-0.9,0.9-1.1,2.2-0.5,3.3c0.1,0.3,0.3,0.5,0.5,0.7l4.4,4.4c0.2,0.2,0.5,0.4,0.7,0.5
			c1.1,0.6,2.4,0.4,3.3-0.5l4.8-4.8L19.4,4.2z"/>
		<path fill="#B4A79C" d="M20.9,19L20.9,19c-0.6,0-1.1-0.1-1.6-0.4c-0.3-0.2-0.6-0.4-0.9-0.7L14,13.6c-0.3-0.3-0.5-0.6-0.7-0.9
			c-0.7-1.4-0.5-3.1,0.7-4.2l5.4-5.4l9.4,9.4L23.5,18C22.8,18.6,21.9,19,20.9,19z M19.4,5.3l-4.3,4.3c-0.6,0.6-0.8,1.6-0.4,2.4
			c0.1,0.2,0.2,0.4,0.4,0.5l4.4,4.4c0.2,0.2,0.3,0.3,0.5,0.4c0.8,0.4,1.8,0.3,2.4-0.4l4.3-4.3L19.4,5.3z"/>
	</g>
	
		<rect x="12.6" y="16.9" transform="matrix(0.7071 0.7071 -0.7071 0.7071 17.0769 -4.0259)" fill="#DA8C8C" width="1.5" height="3.3"/>
	<pattern  id="SVGID_1_" xlink:href="#New_Pattern_Swatch_2" patternTransform="matrix(1 0 0 1 -17.9383 -38.277)">
	</pattern>
	<polygon fill="url(#SVGID_1_)" points="22.6,3.6 21.2,3.1 22,1 23.4,1.5 	"/>
	<pattern  id="SVGID_2_" xlink:href="#New_Pattern_Swatch_2" patternTransform="matrix(1 0 0 1 -17.9383 -38.277)">
	</pattern>
	<polygon fill="url(#SVGID_2_)" points="25.4,5.3 24.2,4.4 25.5,2.7 26.7,3.6 	"/>
	<pattern  id="SVGID_3_" xlink:href="#New_Pattern_Swatch_2" patternTransform="matrix(1 0 0 1 -17.9383 -38.277)">
	</pattern>
	<polygon fill="url(#SVGID_3_)" points="27.6,7.8 26.7,6.6 28.4,5.3 29.3,6.5 	"/>
	<pattern  id="SVGID_4_" xlink:href="#New_Pattern_Swatch_2" patternTransform="matrix(1 0 0 1 -17.9383 -38.277)">
	</pattern>
	<polygon fill="url(#SVGID_4_)" points="28.9,10.8 28.4,9.4 30.5,8.6 31,10 	"/>
</g>
</svg>
