<?xml version="1.0" encoding="utf-8"?>
<!-- Generator: Adobe Illustrator 18.0.0, SVG Export Plug-In . SVG Version: 6.00 Build 0)  -->
<!DOCTYPE svg PUBLIC "-//W3C//DTD SVG 1.1//EN" "http://www.w3.org/Graphics/SVG/1.1/DTD/svg11.dtd">
<svg version="1.1" id="Layer_1" xmlns="http://www.w3.org/2000/svg" xmlns:xlink="http://www.w3.org/1999/xlink" x="0px" y="0px"
	 viewBox="0 0 32 32" enable-background="new 0 0 32 32" xml:space="preserve">
<g>
	<path fill="#74B1E0" d="M23.6,14.6c-0.2,0-0.4-0.1-0.5-0.2L17.7,9c-0.2-0.2-0.3-0.5-0.2-0.8c0.7-1.9,2-3.9,3.4-5.3
		c2.8-2.7,5.7-2.8,8.4-0.1c2.7,2.7,2.7,5.6-0.1,8.4c-1.4,1.4-3.4,2.6-5.3,3.4C23.8,14.5,23.7,14.6,23.6,14.6z M19.1,8.2l4.7,4.7
		c1.6-0.7,3.2-1.7,4.3-2.9c2.2-2.2,2.2-4.1,0.1-6.2c-2.1-2.1-4.1-2.1-6.2,0.1C20.8,5,19.7,6.6,19.1,8.2z"/>
	<path fill="#74B1E0" d="M3,31.2c-0.6,0-1.2-0.2-1.6-0.7c-0.9-0.9-0.9-2.3,0-3.2l1.4-1.4c-0.5-1.6,0-3.3,1.2-4.5l10.6-10.6
		c0.3-0.3,0.8-0.3,1.1,0l5.5,5.5c0.1,0.1,0.2,0.3,0.2,0.5s-0.1,0.4-0.2,0.5L10.6,27.9c-0.9,0.9-2,1.4-3.3,1.4l0,0
		c-0.4,0-0.8-0.1-1.3-0.2l-1.4,1.4C4.2,31,3.6,31.2,3,31.2z M15.1,12.4l-10,10c-0.9,0.9-1.2,2.2-0.7,3.4c0.1,0.3,0,0.6-0.2,0.8
		l-1.8,1.8c-0.3,0.3-0.3,0.8,0,1.1c0.3,0.3,0.8,0.3,1.1,0l1.8-1.8c0.2-0.2,0.5-0.3,0.8-0.2c1.2,0.5,2.5,0.2,3.4-0.7l10-10L15.1,12.4
		z"/>
	
		<rect x="14.2" y="14.3" transform="matrix(0.7071 0.7071 -0.7071 0.7071 15.0636 -6.1782)" fill="#DA8C8C" width="1.5" height="1.5"/>
	
		<rect x="11.3" y="17.2" transform="matrix(0.7071 0.7071 -0.7071 0.7071 16.2616 -3.2861)" fill="#DA8C8C" width="1.5" height="1.5"/>
	
		<rect x="8.4" y="20.1" transform="matrix(0.7071 0.7071 -0.7071 0.7071 17.4595 -0.394)" fill="#DA8C8C" width="1.5" height="1.5"/>
	<g>
		<path fill="#F0F7F7" d="M21.4,17.6l-7-7c-0.8-0.8-0.8-2.1,0-3l0,0c0.8-0.8,2.1-0.8,3,0l7,7c0.8,0.8,0.8,2.1,0,3l0,0
			C23.5,18.4,22.2,18.4,21.4,17.6z"/>
		<path fill="#8F9BA8" d="M22.9,18.9c-0.8,0-1.5-0.3-2-0.8l-7-7c-1.1-1.1-1.1-2.9,0-4c1.1-1.1,3-1.1,4,0l7,7c0.5,0.5,0.8,1.3,0.8,2
			c0,0.8-0.3,1.5-0.8,2C24.4,18.6,23.6,18.9,22.9,18.9z M15.9,7.8c-0.4,0-0.7,0.1-1,0.4c-0.5,0.5-0.5,1.4,0,1.9l7,7
			c0.5,0.5,1.4,0.5,1.9,0c0.3-0.3,0.4-0.6,0.4-1c0-0.4-0.1-0.7-0.4-1l-7-7C16.6,7.9,16.3,7.8,15.9,7.8z"/>
	</g>
</g>
</svg>
