<?xml version="1.0" encoding="utf-8"?>
<!-- Generator: Adobe Illustrator 18.0.0, SVG Export Plug-In . SVG Version: 6.00 Build 0)  -->
<!DOCTYPE svg PUBLIC "-//W3C//DTD SVG 1.1//EN" "http://www.w3.org/Graphics/SVG/1.1/DTD/svg11.dtd">
<svg version="1.1" id="Layer_1" xmlns="http://www.w3.org/2000/svg" xmlns:xlink="http://www.w3.org/1999/xlink" x="0px" y="0px"
	 viewBox="0 0 32 32" enable-background="new 0 0 32 32" xml:space="preserve">
<g>
	<path fill="#8F9BA8" d="M22.9,31.2H9.1c-1.8,0-3.2-1.4-3.2-3.2V12.1c0-1.8,1.4-3.2,3.2-3.2h1.1v-3h11.7V9H23c1.8,0,3.2,1.4,3.2,3.2
		v15.9C26.1,29.8,24.7,31.2,22.9,31.2z M9.1,10.4c-0.9,0-1.7,0.8-1.7,1.7V28c0,0.9,0.8,1.7,1.7,1.7H23c0.9,0,1.7-0.8,1.7-1.7V12.1
		c0-0.9-0.8-1.7-1.7-1.7h-2.6v-3h-8.7v3.1H9.1V10.4z"/>
	<g>
		<path fill="#F0F7F7" d="M21.7,1.5H10.3c-0.8,0-1.4,0.6-1.4,1.4v3.7h14.2V2.9C23.1,2.1,22.5,1.5,21.7,1.5z"/>
		<path fill="#8F9BA8" d="M23.9,7.4H8.1V2.9c0-1.2,1-2.1,2.1-2.1h11.5c1.2,0,2.1,1,2.1,2.1L23.9,7.4L23.9,7.4z M9.6,5.9h12.7v-3
			c0-0.4-0.3-0.6-0.6-0.6H10.3c-0.3,0-0.6,0.3-0.6,0.6L9.6,5.9L9.6,5.9z"/>
	</g>
	<g>
		<rect x="6.6" y="14.7" fill="#F0F7F7" width="13.5" height="10.8"/>
		<path fill="#8F9BA8" d="M20.9,26.3h-15V13.9h15V26.3z M7.4,24.8h12v-9.3h-12C7.4,15.5,7.4,24.8,7.4,24.8z"/>
	</g>
</g>
</svg>
