<?xml version="1.0" encoding="utf-8"?>
<!-- Generator: Adobe Illustrator 18.0.0, SVG Export Plug-In . SVG Version: 6.00 Build 0)  -->
<!DOCTYPE svg PUBLIC "-//W3C//DTD SVG 1.1//EN" "http://www.w3.org/Graphics/SVG/1.1/DTD/svg11.dtd">
<svg version="1.1" id="Layer_1" xmlns="http://www.w3.org/2000/svg" xmlns:xlink="http://www.w3.org/1999/xlink" x="0px" y="0px"
	 viewBox="0 0 32 32" enable-background="new 0 0 32 32" xml:space="preserve">
<g>
	<g>
		<g>
			<rect x="22.3" y="11.2" fill="#8F9BA8" width="9" height="1.6"/>
			<rect x="22.3" y="15.2" fill="#8F9BA8" width="9" height="1.6"/>
			<rect x="22.3" y="19.3" fill="#8F9BA8" width="9" height="1.6"/>
		</g>
		<g>
			<rect x="0.8" y="11.2" fill="#8F9BA8" width="9" height="1.6"/>
			<rect x="0.8" y="15.2" fill="#8F9BA8" width="9" height="1.6"/>
			<rect x="0.8" y="19.3" fill="#8F9BA8" width="9" height="1.6"/>
		</g>
	</g>
	<g>
		<g>
			<rect x="11.2" y="0.7" fill="#8F9BA8" width="1.6" height="9"/>
			<rect x="15.2" y="0.7" fill="#8F9BA8" width="1.6" height="9"/>
			<rect x="19.3" y="0.7" fill="#8F9BA8" width="1.6" height="9"/>
		</g>
		<g>
			<rect x="11.2" y="22.3" fill="#8F9BA8" width="1.6" height="9"/>
			<rect x="15.2" y="22.3" fill="#8F9BA8" width="1.6" height="9"/>
			<rect x="19.3" y="22.3" fill="#8F9BA8" width="1.6" height="9"/>
		</g>
	</g>
	<g>
		<rect x="9.7" y="9.7" fill="#CDE4F7" width="12.6" height="12.6"/>
		<path fill="#74B1E0" d="M23.1,23.1H8.9V8.9h14.2V23.1z M10.5,21.5h11v-11h-11V21.5z"/>
	</g>
</g>
</svg>
