<?xml version="1.0" encoding="utf-8"?>
<!-- Generator: Adobe Illustrator 18.0.0, SVG Export Plug-In . SVG Version: 6.00 Build 0)  -->
<!DOCTYPE svg PUBLIC "-//W3C//DTD SVG 1.1//EN" "http://www.w3.org/Graphics/SVG/1.1/DTD/svg11.dtd">
<svg version="1.1" id="Layer_1" xmlns="http://www.w3.org/2000/svg" xmlns:xlink="http://www.w3.org/1999/xlink" x="0px" y="0px"
	 viewBox="0 0 32 32" enable-background="new 0 0 32 32" xml:space="preserve">
<g>
	<g>
		<path fill="#8F9BA8" d="M21.7,9.4H10.3V6c0-1.6,1.3-2.8,2.8-2.8h5.7c1.6,0,2.8,1.3,2.8,2.8V9.4z M11.8,7.9h8.3V6
			c0-0.7-0.6-1.3-1.3-1.3h-5.7c-0.7,0-1.3,0.6-1.3,1.3V7.9z"/>
	</g>
	<g>
		<path fill="#F9F8F2" d="M28.7,28.1H3.3c-1,0-1.8-0.8-1.8-1.8V10.5c0-1,0.8-1.8,1.8-1.8h25.4c1,0,1.8,0.8,1.8,1.8v15.9
			C30.5,27.3,29.7,28.1,28.7,28.1z"/>
		<path fill="#B4A79C" d="M28.7,28.9H3.3c-1.4,0-2.5-1.1-2.5-2.5V10.5c0-1.4,1.1-2.5,2.5-2.5h25.4c1.4,0,2.5,1.1,2.5,2.5v15.9
			C31.3,27.7,30.1,28.9,28.7,28.9z M3.3,9.4c-0.6,0-1,0.5-1,1v15.9c0,0.6,0.5,1,1,1h25.4c0.6,0,1-0.5,1-1V10.5c0-0.6-0.5-1-1-1H3.3z
			"/>
	</g>
	<g>
		<line fill="#F9F8F2" x1="23.7" y1="8.7" x2="23.7" y2="28.1"/>
		<rect x="23" y="8.7" fill="#B4A79C" width="1.5" height="19.4"/>
	</g>
	<g>
		<line fill="#F9F8F2" x1="8.3" y1="8.7" x2="8.3" y2="28.1"/>
		<rect x="7.5" y="8.7" fill="#B4A79C" width="1.5" height="19.4"/>
	</g>
	<g>
		<line fill="#F9F8F2" x1="8.3" y1="16.8" x2="23.7" y2="16.8"/>
		<rect x="8.3" y="16.1" fill="#B4A79C" width="15.5" height="1.5"/>
	</g>
</g>
</svg>
