<?xml version="1.0" encoding="utf-8"?>
<!-- Generator: Adobe Illustrator 18.0.0, SVG Export Plug-In . SVG Version: 6.00 Build 0)  -->
<!DOCTYPE svg PUBLIC "-//W3C//DTD SVG 1.1//EN" "http://www.w3.org/Graphics/SVG/1.1/DTD/svg11.dtd">
<svg version="1.1" id="Layer_1" xmlns="http://www.w3.org/2000/svg" xmlns:xlink="http://www.w3.org/1999/xlink" x="0px" y="0px"
	 viewBox="0 0 32 32" enable-background="new 0 0 32 32" xml:space="preserve">
<g>
	<path fill="#79C693" d="M16,31.2c-3.3,0-5.9-2.7-5.9-5.9V6.2c0-0.4,0.3-0.8,0.8-0.8h10.3c0.4,0,0.8,0.3,0.8,0.8v19.1
		C21.9,28.6,19.3,31.2,16,31.2z M11.6,7v18.3c0,2.4,2,4.4,4.4,4.4h0c2.4,0,4.4-2,4.4-4.4V7H11.6z"/>
	<g>
		<path fill="#F0F7F7" d="M22,6.2H10c-1.3,0-2.4-1.1-2.4-2.4l0,0c0-1.3,1.1-2.4,2.4-2.4H22c1.3,0,2.4,1.1,2.4,2.4l0,0
			C24.3,5.2,23.3,6.2,22,6.2z"/>
		<path fill="#8F9BA8" d="M22,7H10C8.3,7,6.9,5.6,6.9,3.9S8.3,0.7,10,0.7H22c1.7,0,3.1,1.4,3.1,3.1S23.7,7,22,7z M10,2.2
			C9.1,2.2,8.4,3,8.4,3.9c0,0.9,0.7,1.6,1.6,1.6H22c0.9,0,1.6-0.7,1.6-1.6c0-0.9-0.7-1.6-1.6-1.6H10z"/>
	</g>
	<rect x="13.7" y="10.7" fill="#79C693" width="2.4" height="1.5"/>
	<rect x="13.7" y="15.4" fill="#79C693" width="2.4" height="1.5"/>
	<rect x="13.7" y="20.2" fill="#79C693" width="2.4" height="1.5"/>
</g>
</svg>
