<?xml version="1.0" encoding="utf-8"?>
<!-- Generator: Adobe Illustrator 18.0.0, SVG Export Plug-In . SVG Version: 6.00 Build 0)  -->
<!DOCTYPE svg PUBLIC "-//W3C//DTD SVG 1.1//EN" "http://www.w3.org/Graphics/SVG/1.1/DTD/svg11.dtd">
<svg version="1.1" id="Layer_1" xmlns="http://www.w3.org/2000/svg" xmlns:xlink="http://www.w3.org/1999/xlink" x="0px" y="0px"
	 viewBox="0 0 32 32" enable-background="new 0 0 32 32" xml:space="preserve">
<g>
	<polygon fill="#8F9BA8" points="10.4,28.1 0.8,28.1 0.8,24.6 2.3,24.6 2.3,26.6 10.4,26.6 	"/>
	<path fill="#DA8C8C" d="M31.3,28.1H9.7V14.7c0-5.9,4.8-10.8,10.8-10.8c5.9,0,10.8,4.8,10.8,10.8V28.1z M11.2,26.6h18.6V14.7
		c0-5.1-4.2-9.3-9.3-9.3c-5.1,0-9.3,4.2-9.3,9.3V26.6z"/>
	<g>
		<circle fill="#FAC2C3" cx="20.5" cy="15.5" r="4.2"/>
		<path fill="#DA8C8C" d="M20.5,20.5c-2.7,0-5-2.2-5-5c0-2.7,2.2-5,5-5c2.7,0,5,2.2,5,5C25.4,18.3,23.2,20.5,20.5,20.5z M20.5,12.1
			c-1.9,0-3.5,1.6-3.5,3.5c0,1.9,1.6,3.5,3.5,3.5c1.9,0,3.5-1.6,3.5-3.5C23.9,13.6,22.4,12.1,20.5,12.1z"/>
	</g>
</g>
</svg>
