<?xml version="1.0" encoding="utf-8"?>
<!-- Generator: Adobe Illustrator 18.0.0, SVG Export Plug-In . SVG Version: 6.00 Build 0)  -->
<!DOCTYPE svg PUBLIC "-//W3C//DTD SVG 1.1//EN" "http://www.w3.org/Graphics/SVG/1.1/DTD/svg11.dtd">
<svg version="1.1" id="Layer_1" xmlns="http://www.w3.org/2000/svg" xmlns:xlink="http://www.w3.org/1999/xlink" x="0px" y="0px"
	 viewBox="0 0 32 32" enable-background="new 0 0 32 32" xml:space="preserve">
<g>
	<path fill="#B4A79C" d="M28.4,22.5h-0.9c-0.4,0-0.7-0.3-0.7-0.6c-0.1-0.9-0.9-1.5-1.7-1.5s-1.6,0.6-1.7,1.5
		c-0.1,0.4-0.4,0.6-0.7,0.6H9.8c-0.4,0-0.7-0.3-0.7-0.6C9,21,8.2,20.4,7.4,20.4S5.7,21,5.6,21.8c-0.1,0.4-0.4,0.6-0.7,0.6H3.6
		c-1.6,0-2.9-1.3-2.9-2.9v-10C0.8,8,2,6.7,3.6,6.7h21.8c2.3,0,4.4,1.4,5.3,3.4c0.1,0.2,0.1,0.5-0.1,0.7c-0.1,0.2-0.4,0.3-0.6,0.3
		h-2.5v3.6h2.9c0.4,0,0.8,0.3,0.8,0.8v4C31.3,21.2,30,22.5,28.4,22.5z M28,21h0.4c0.7,0,1.4-0.6,1.4-1.4v-3.3h-2.9
		c-0.4,0-0.8-0.3-0.8-0.7v-5.1c0-0.4,0.3-0.8,0.8-0.8h1.9c-0.8-0.9-2-1.5-3.3-1.5H3.6c-0.7,0-1.4,0.6-1.4,1.4v10.1
		c0,0.7,0.6,1.4,1.4,1.4h0.7C4.8,19.8,6,19,7.3,19c1.4,0,2.6,0.9,3,2.1H22c0.5-1.3,1.7-2.1,3-2.1C26.4,18.8,27.6,19.7,28,21z"/>
	<path fill="#B4A79C" d="M30.5,16.3h-3.7c-0.4,0-0.8-0.3-0.8-0.7v-5.1c0-0.4,0.3-0.8,0.8-0.8H30c0.3,0,0.6,0.2,0.7,0.4
		c0.3,0.8,0.5,1.6,0.5,2.4v3C31.3,16,30.9,16.3,30.5,16.3z M27.6,14.8h2.2v-2.3c0-0.4-0.1-0.9-0.2-1.3h-2V14.8z"/>
	<g>
		<path fill="#F0F7F7" d="M27.5,21.7c-0.2-1.2-1.2-2.1-2.5-2.1s-2.3,0.9-2.5,2.1c0,0.1,0,0.2,0,0.4c0,1.4,1.1,2.5,2.5,2.5
			s2.5-1.1,2.5-2.5C27.5,21.9,27.5,21.8,27.5,21.7z"/>
		<path fill="#8F9BA8" d="M25,25.3c-1.8,0-3.2-1.5-3.2-3.3c0-0.1,0-0.3,0-0.4c0.2-1.6,1.6-2.8,3.2-2.8s3,1.2,3.2,2.8
			c0,0.2,0,0.3,0,0.5C28.2,23.9,26.8,25.3,25,25.3z M25,20.3c-0.9,0-1.6,0.6-1.7,1.5c0,0.1,0,0.2,0,0.2c0,1,0.8,1.8,1.7,1.8
			c1,0,1.7-0.8,1.7-1.8c0-0.1,0-0.1,0-0.2C26.6,21,25.9,20.3,25,20.3z"/>
	</g>
	<g>
		<path fill="#F0F7F7" d="M9.8,21.7c-0.2-1.2-1.2-2.1-2.5-2.1S5,20.5,4.8,21.7c0,0.1,0,0.2,0,0.4c0,1.4,1.1,2.5,2.5,2.5
			s2.5-1.1,2.5-2.5C9.8,21.9,9.8,21.8,9.8,21.7z"/>
		<path fill="#8F9BA8" d="M7.3,25.3c-1.8,0-3.2-1.5-3.2-3.3c0-0.1,0-0.3,0-0.4c0.2-1.6,1.6-2.8,3.2-2.8s3,1.2,3.2,2.8
			c0,0.2,0,0.3,0,0.5C10.6,23.9,9.1,25.3,7.3,25.3z M7.3,20.3c-0.9,0-1.6,0.6-1.7,1.5c0,0.1,0,0.2,0,0.2c0,1,0.8,1.8,1.7,1.8
			C8.3,23.8,9,23,9,22c0-0.1,0-0.1,0-0.2C8.9,21,8.2,20.3,7.3,20.3z"/>
	</g>
	<path fill="#B4A79C" d="M23.4,16.3H1.5c-0.4,0-0.8-0.3-0.8-0.7v-5.1c0-0.4,0.3-0.8,0.8-0.8h21.9c0.4,0,0.8,0.3,0.8,0.8v5.1
		C24.2,16,23.8,16.3,23.4,16.3z M2.3,14.8h20.4v-3.6H2.3V14.8z"/>
</g>
</svg>
