<?xml version="1.0" encoding="utf-8"?>
<!-- Generator: Adobe Illustrator 18.0.0, SVG Export Plug-In . SVG Version: 6.00 Build 0)  -->
<!DOCTYPE svg PUBLIC "-//W3C//DTD SVG 1.1//EN" "http://www.w3.org/Graphics/SVG/1.1/DTD/svg11.dtd">
<svg version="1.1" id="Layer_1" xmlns="http://www.w3.org/2000/svg" xmlns:xlink="http://www.w3.org/1999/xlink" x="0px" y="0px"
	 viewBox="0 0 32 32" enable-background="new 0 0 32 32" xml:space="preserve">
<g>
	<g>
		<path fill="#CDE4F7" d="M12.7,11.6c0-3.9,1.6-7.5,4.1-10.1C9.4,2.1,3.5,8.4,3.5,16c0,8,6.5,14.5,14.5,14.5c4.1,0,7.8-1.7,10.4-4.4
			c-0.4,0-0.8,0.1-1.2,0.1C19.2,26.2,12.7,19.7,12.7,11.6z"/>
		<path fill="#74B1E0" d="M18.1,31.2C9.6,31.2,2.8,24.4,2.8,16c0-7.9,6.1-14.6,14-15.2c0.3,0,0.6,0.1,0.7,0.4
			c0.1,0.3,0.1,0.6-0.1,0.8c-2.5,2.6-3.9,6-3.9,9.6c0,7.6,6.2,13.8,13.8,13.8c0.4,0,0.8,0,1.2-0.1c0.3,0,0.6,0.1,0.7,0.4
			c0.1,0.3,0.1,0.6-0.1,0.8C26.1,29.6,22.2,31.2,18.1,31.2z M15,2.6C8.8,4,4.3,9.5,4.3,16c0,7.6,6.2,13.8,13.8,13.8
			c3.1,0,6-1,8.4-2.9C18.4,26.5,12,19.8,12,11.6C12,8.3,13,5.2,15,2.6z"/>
	</g>
	<g>
		<polygon fill="#CDE4F7" points="22.3,7.6 23.6,10.2 26.4,10.6 24.4,12.6 24.9,15.4 22.3,14.1 19.8,15.4 20.3,12.6 18.2,10.6 
			21.1,10.2 		"/>
		<path fill="#74B1E0" d="M25.9,16.8l-3.5-1.9l-3.5,1.9l0.7-3.9l-2.9-2.8l4-0.6l1.8-3.6l1.8,3.6l4,0.6l-2.9,2.8L25.9,16.8z
			 M22.3,13.2l1.5,0.8l-0.3-1.7l1.3-1.2l-1.7-0.3l-0.8-1.6l-0.8,1.6l-1.7,0.3l1.3,1.2L20.8,14L22.3,13.2z"/>
	</g>
</g>
</svg>
