<?xml version="1.0" encoding="utf-8"?>
<!-- Generator: Adobe Illustrator 18.0.0, SVG Export Plug-In . SVG Version: 6.00 Build 0)  -->
<!DOCTYPE svg PUBLIC "-//W3C//DTD SVG 1.1//EN" "http://www.w3.org/Graphics/SVG/1.1/DTD/svg11.dtd">
<svg version="1.1" id="Layer_1" xmlns="http://www.w3.org/2000/svg" xmlns:xlink="http://www.w3.org/1999/xlink" x="0px" y="0px"
	 viewBox="0 0 32 32" enable-background="new 0 0 32 32" xml:space="preserve">
<g>
	<path fill="#79C693" d="M22.3,10.4h-0.8V9.7c0-4.6,3.7-8.3,8.3-8.3h0.8v0.8c0,2.2-0.9,4.3-2.4,5.9C26.6,9.6,24.6,10.4,22.3,10.4z
		 M29.1,2.9c-3.1,0.4-5.6,2.9-6,6C26.3,8.5,28.7,6,29.1,2.9z"/>
	<g>
		<path fill="#79C693" d="M24.9,17.6c-2.2,0-4.3-0.9-5.9-2.4l-0.5-0.5l0.5-0.5c1.6-1.6,3.7-2.4,5.9-2.4c2.2,0,4.3,0.9,5.9,2.4
			l0.5,0.5l-0.5,0.5C29.2,16.7,27.1,17.6,24.9,17.6z M20.6,14.6c1.2,1,2.7,1.5,4.2,1.5c1.6,0,3-0.5,4.2-1.5c-1.2-1-2.7-1.5-4.2-1.5
			C23.3,13.2,21.8,13.7,20.6,14.6z"/>
		<path fill="#79C693" d="M17.4,13.6L16.8,13c-3.3-3.3-3.3-8.5,0-11.8l0.5-0.5l0.5,0.5c1.6,1.6,2.4,3.7,2.4,5.9
			c0,2.2-0.9,4.3-2.4,5.9L17.4,13.6z M17.4,2.9c-2,2.5-2,6,0,8.5c1-1.2,1.5-2.7,1.5-4.2C18.8,5.6,18.3,4.1,17.4,2.9z"/>
	</g>
	<g>
		<path fill="#79C693" d="M18.8,23.7c-2.2,0-4.3-0.9-5.9-2.4l-0.5-0.5l0.5-0.5c1.6-1.6,3.7-2.4,5.9-2.4c2.2,0,4.3,0.9,5.9,2.4
			l0.5,0.5l-0.5,0.5C23.1,22.8,21,23.7,18.8,23.7z M14.6,20.7c1.2,1,2.7,1.5,4.2,1.5c1.6,0,3-0.5,4.2-1.5c-1.2-1-2.7-1.5-4.2-1.5
			C17.3,19.2,15.8,19.7,14.6,20.7z"/>
		<path fill="#79C693" d="M11.3,19.6l-0.5-0.5c-3.3-3.3-3.3-8.5,0-11.8l0.5-0.5l0.5,0.5c3.3,3.3,3.3,8.5,0,11.8L11.3,19.6z
			 M11.3,8.9c-2,2.5-2,6,0,8.5C13.3,14.9,13.3,11.4,11.3,8.9z"/>
	</g>
	<g>
		<path fill="#79C693" d="M12.8,29.7c-2.2,0-4.3-0.9-5.9-2.4l-0.5-0.5l0.5-0.5c1.6-1.6,3.7-2.4,5.9-2.4c2.2,0,4.3,0.9,5.9,2.4
			l0.5,0.5l-0.5,0.5C17.1,28.8,15,29.7,12.8,29.7z M8.5,26.7c1.2,1,2.7,1.5,4.2,1.5s3-0.5,4.2-1.5c-1.2-1-2.7-1.5-4.2-1.5
			S9.7,25.8,8.5,26.7z"/>
		<path fill="#79C693" d="M5.3,25.7l-0.5-0.5c-3.3-3.3-3.3-8.5,0-11.8l0.5-0.5l0.5,0.5c3.3,3.3,3.3,8.5,0,11.8L5.3,25.7z M5.3,15
			c-1,1.2-1.5,2.7-1.5,4.2c0,1.6,0.5,3,1.5,4.2c1-1.2,1.5-2.7,1.5-4.2C6.7,17.7,6.2,16.2,5.3,15z"/>
	</g>
	
		<rect x="2.1" y="26.9" transform="matrix(0.7071 0.7071 -0.7071 0.7071 21.4592 6.5514)" fill="#79C693" width="1.5" height="4.5"/>
</g>
</svg>
