<?xml version="1.0" encoding="utf-8"?>
<!-- Generator: Adobe Illustrator 18.0.0, SVG Export Plug-In . SVG Version: 6.00 Build 0)  -->
<!DOCTYPE svg PUBLIC "-//W3C//DTD SVG 1.1//EN" "http://www.w3.org/Graphics/SVG/1.1/DTD/svg11.dtd">
<svg version="1.1" id="Layer_1" xmlns="http://www.w3.org/2000/svg" xmlns:xlink="http://www.w3.org/1999/xlink" x="0px" y="0px"
	 viewBox="0 0 32 32" enable-background="new 0 0 32 32" xml:space="preserve">
<g>
	<path fill="#79C693" d="M20.7,31.2h-9.4c-1.6,0-2.9-1.3-2.9-2.9V3.7c0-1.6,1.3-2.9,2.9-2.9h9.4c1.6,0,2.9,1.3,2.9,2.9v24.7
		C23.6,29.9,22.3,31.2,20.7,31.2z M11.3,2.2c-0.8,0-1.4,0.6-1.4,1.4v24.7c0,0.8,0.6,1.4,1.4,1.4h9.4c0.8,0,1.4-0.6,1.4-1.4V3.7
		c0-0.8-0.6-1.4-1.4-1.4H11.3z"/>
	<rect x="15.3" y="4" fill="#79C693" width="1.5" height="3.6"/>
	<g>
		<path fill="#F0F7F7" d="M18.6,27.7h-5.1c-0.8,0-1.4-0.6-1.4-1.4V14.8c0-0.8,0.6-1.4,1.4-1.4h5.1c0.8,0,1.4,0.6,1.4,1.4v11.5
			C19.9,27,19.3,27.7,18.6,27.7z"/>
		<path fill="#8F9BA8" d="M18.6,28.4h-5.1c-1.2,0-2.1-1-2.1-2.1V14.8c0-1.2,1-2.1,2.1-2.1h5.1c1.2,0,2.1,1,2.1,2.1v11.5
			C20.7,27.5,19.7,28.4,18.6,28.4z M13.4,14.2c-0.3,0-0.6,0.3-0.6,0.6v11.5c0,0.3,0.3,0.6,0.6,0.6h5.1c0.3,0,0.6-0.3,0.6-0.6V14.8
			c0-0.3-0.3-0.6-0.6-0.6H13.4z"/>
	</g>
	<g>
		<circle fill="#F0F7F7" cx="16" cy="23.4" r="1.6"/>
		<path fill="#8F9BA8" d="M16,25.8c-1.3,0-2.4-1.1-2.4-2.4c0-1.3,1.1-2.4,2.4-2.4c1.3,0,2.4,1.1,2.4,2.4
			C18.4,24.7,17.3,25.8,16,25.8z M16,22.6c-0.5,0-0.9,0.4-0.9,0.9c0,0.5,0.4,0.9,0.9,0.9c0.5,0,0.9-0.4,0.9-0.9
			C16.9,23,16.5,22.6,16,22.6z"/>
	</g>
</g>
</svg>
