<?xml version="1.0" encoding="utf-8"?>
<!-- Generator: Adobe Illustrator 18.0.0, SVG Export Plug-In . SVG Version: 6.00 Build 0)  -->
<!DOCTYPE svg PUBLIC "-//W3C//DTD SVG 1.1//EN" "http://www.w3.org/Graphics/SVG/1.1/DTD/svg11.dtd">
<svg version="1.1" id="Layer_1" xmlns="http://www.w3.org/2000/svg" xmlns:xlink="http://www.w3.org/1999/xlink" x="0px" y="0px"
	 viewBox="0 0 32 32" enable-background="new 0 0 32 32" xml:space="preserve">
<g>
	<path fill="#DA8C8C" d="M16.9,26.5H3.7L0.4,14.6h31.1l-1.4,3.2C27.9,23.1,22.7,26.5,16.9,26.5z M4.8,25h12.1
		c5.2,0,9.9-3.1,11.9-7.8l0.5-1.1H2.4L4.8,25z"/>
	<g>
		<polygon fill="#FAC2C3" points="5.3,10.2 5.3,15.4 19.3,15.4 17.6,10.2 		"/>
		<path fill="#DA8C8C" d="M20.3,16.1H4.6V9.5h13.6L20.3,16.1z M6.1,14.6h12.2L17.1,11h-11V14.6z"/>
	</g>
	<path fill="#DA8C8C" d="M12.3,11h-5V5.5h5V11z M8.8,9.5h2V7h-2V9.5z"/>
	<g>
		<line fill="#FAC2C3" x1="6.7" y1="18" x2="6.7" y2="19"/>
		<rect x="6" y="18" fill="#DA8C8C" width="1.5" height="1"/>
	</g>
	<g>
		<line fill="#FAC2C3" x1="9.8" y1="18" x2="9.8" y2="19"/>
		<rect x="9" y="18" fill="#DA8C8C" width="1.5" height="1"/>
	</g>
	<g>
		<line fill="#FAC2C3" x1="12.8" y1="18" x2="12.8" y2="19"/>
		<rect x="12.1" y="18" fill="#DA8C8C" width="1.5" height="1"/>
	</g>
	<g>
		<line fill="#FAC2C3" x1="15.9" y1="18" x2="15.9" y2="19"/>
		<rect x="15.1" y="18" fill="#DA8C8C" width="1.5" height="1"/>
	</g>
</g>
</svg>
