<?xml version="1.0" encoding="utf-8"?>
<!-- Generator: Adobe Illustrator 18.0.0, SVG Export Plug-In . SVG Version: 6.00 Build 0)  -->
<!DOCTYPE svg PUBLIC "-//W3C//DTD SVG 1.1//EN" "http://www.w3.org/Graphics/SVG/1.1/DTD/svg11.dtd">
<svg version="1.1" id="Layer_1" xmlns="http://www.w3.org/2000/svg" xmlns:xlink="http://www.w3.org/1999/xlink" x="0px" y="0px"
	 viewBox="0 0 32 32" enable-background="new 0 0 32 32" xml:space="preserve">
<g>
	<path fill="#74B1E0" d="M27.9,31.2H4.1V0.7h23.7V31.2z M5.6,29.7h20.7V2.2H5.6V29.7z"/>
	<g>
		<rect x="13.5" y="25.2" fill="#F2E8B9" width="4.9" height="5.3"/>
		<path fill="#B4A042" d="M19.2,31.2h-6.4v-6.8h6.4V31.2z M14.3,29.7h3.4V26h-3.4V29.7z"/>
	</g>
	<g>
		<line fill="#CDE4F7" x1="9.2" y1="5.5" x2="9.2" y2="6.8"/>
		<rect x="8.5" y="5.5" fill="#8F9BA8" width="1.5" height="1.2"/>
	</g>
	<g>
		<line fill="#CDE4F7" x1="13.7" y1="5.5" x2="13.7" y2="6.8"/>
		<rect x="13" y="5.5" fill="#8F9BA8" width="1.5" height="1.2"/>
	</g>
	<g>
		<line fill="#CDE4F7" x1="18.3" y1="5.5" x2="18.3" y2="6.8"/>
		<rect x="17.5" y="5.5" fill="#8F9BA8" width="1.5" height="1.2"/>
	</g>
	<g>
		<line fill="#CDE4F7" x1="22.8" y1="5.5" x2="22.8" y2="6.8"/>
		<rect x="22" y="5.5" fill="#8F9BA8" width="1.5" height="1.2"/>
	</g>
	<g>
		<line fill="#CDE4F7" x1="9.2" y1="10.3" x2="9.2" y2="11.6"/>
		<rect x="8.5" y="10.3" fill="#8F9BA8" width="1.5" height="1.2"/>
	</g>
	<g>
		<line fill="#CDE4F7" x1="13.7" y1="10.3" x2="13.7" y2="11.6"/>
		<rect x="13" y="10.3" fill="#8F9BA8" width="1.5" height="1.2"/>
	</g>
	<g>
		<line fill="#CDE4F7" x1="18.3" y1="10.3" x2="18.3" y2="11.6"/>
		<rect x="17.5" y="10.3" fill="#8F9BA8" width="1.5" height="1.2"/>
	</g>
	<g>
		<line fill="#CDE4F7" x1="22.8" y1="10.3" x2="22.8" y2="11.6"/>
		<rect x="22" y="10.3" fill="#8F9BA8" width="1.5" height="1.2"/>
	</g>
	<g>
		<line fill="#CDE4F7" x1="9.2" y1="15.1" x2="9.2" y2="16.4"/>
		<rect x="8.5" y="15.1" fill="#8F9BA8" width="1.5" height="1.2"/>
	</g>
	<g>
		<line fill="#CDE4F7" x1="13.7" y1="15.1" x2="13.7" y2="16.4"/>
		<rect x="13" y="15.1" fill="#8F9BA8" width="1.5" height="1.2"/>
	</g>
	<g>
		<line fill="#CDE4F7" x1="18.3" y1="15.1" x2="18.3" y2="16.4"/>
		<rect x="17.5" y="15.1" fill="#8F9BA8" width="1.5" height="1.2"/>
	</g>
	<g>
		<line fill="#CDE4F7" x1="22.8" y1="15.1" x2="22.8" y2="16.4"/>
		<rect x="22" y="15.1" fill="#8F9BA8" width="1.5" height="1.2"/>
	</g>
	<g>
		<line fill="#CDE4F7" x1="9.2" y1="20" x2="9.2" y2="21.2"/>
		<rect x="8.5" y="20" fill="#8F9BA8" width="1.5" height="1.2"/>
	</g>
	<g>
		<line fill="#CDE4F7" x1="13.7" y1="20" x2="13.7" y2="21.2"/>
		<rect x="13" y="20" fill="#8F9BA8" width="1.5" height="1.2"/>
	</g>
	<g>
		<line fill="#CDE4F7" x1="18.3" y1="20" x2="18.3" y2="21.2"/>
		<rect x="17.5" y="20" fill="#8F9BA8" width="1.5" height="1.2"/>
	</g>
	<g>
		<line fill="#CDE4F7" x1="22.8" y1="20" x2="22.8" y2="21.2"/>
		<rect x="22" y="20" fill="#8F9BA8" width="1.5" height="1.2"/>
	</g>
</g>
</svg>
