<?xml version="1.0" encoding="utf-8"?>
<!-- Generator: Adobe Illustrator 18.0.0, SVG Export Plug-In . SVG Version: 6.00 Build 0)  -->
<!DOCTYPE svg PUBLIC "-//W3C//DTD SVG 1.1//EN" "http://www.w3.org/Graphics/SVG/1.1/DTD/svg11.dtd">
<svg version="1.1" id="Layer_1" xmlns="http://www.w3.org/2000/svg" xmlns:xlink="http://www.w3.org/1999/xlink" x="0px" y="0px"
	 viewBox="0 0 32 32" enable-background="new 0 0 32 32" xml:space="preserve">
<g>
	<g>
		<path fill="#8F9BA8" d="M15.7,31.4L0.6,16.3L13.2,3.7c2-2,4.7-3.1,7.6-3.1s5.5,1.1,7.6,3.1c4.2,4.2,4.2,10.9,0,15.1L15.7,31.4z
			 M2.7,16.3l13,13l11.5-11.5c3.6-3.6,3.6-9.4,0-13c-1.7-1.7-4-2.7-6.5-2.7S16,3,14.2,4.8L2.7,16.3z"/>
	</g>
	<g>
		<path fill="#8F9BA8" d="M23.5,11.3c-0.8,0-1.5-0.3-2-0.8c-1.1-1.1-1.1-2.9,0-4c1.1-1.1,2.9-1.1,4,0c1.1,1.1,1.1,2.9,0,4
			C25,11,24.3,11.3,23.5,11.3z M23.5,7.1c-0.4,0-0.7,0.1-0.9,0.4c-0.5,0.5-0.5,1.4,0,1.9c0.5,0.5,1.4,0.5,1.9,0
			c0.5-0.5,0.5-1.4,0-1.9C24.2,7.3,23.9,7.1,23.5,7.1z"/>
	</g>
	<g>
		
			<rect x="8.3" y="13.7" transform="matrix(0.7071 0.7071 -0.7071 0.7071 16.7292 -4.8708)" fill="#FAC2C3" width="11.8" height="8.1"/>
		<path fill="#DA8C8C" d="M15.5,25.9l-9.4-9.4l6.8-6.8l9.4,9.4L15.5,25.9z M8.3,16.5l7.3,7.3l4.7-4.7l-7.3-7.3L8.3,16.5z"/>
	</g>
</g>
</svg>
