<?xml version="1.0" encoding="utf-8"?>
<!-- Generator: Adobe Illustrator 18.0.0, SVG Export Plug-In . SVG Version: 6.00 Build 0)  -->
<!DOCTYPE svg PUBLIC "-//W3C//DTD SVG 1.1//EN" "http://www.w3.org/Graphics/SVG/1.1/DTD/svg11.dtd">
<svg version="1.1" id="Layer_1" xmlns="http://www.w3.org/2000/svg" xmlns:xlink="http://www.w3.org/1999/xlink" x="0px" y="0px"
	 viewBox="0 0 32 32" enable-background="new 0 0 32 32" xml:space="preserve">
<g>
	<path fill="#8F9BA8" d="M22,23.9H11c-0.4,0-0.7-0.3-0.7-0.7c-0.1-1-1-1.8-2-1.8s-1.8,0.8-2,1.8c0,0.4-0.4,0.7-0.7,0.7H4.6
		c-2.1,0-3.9-1.7-3.9-3.9V8.8C0.8,6.7,2.5,5,4.6,5h15.5c1.4,0,2.6,1.2,2.6,2.6v15.6C22.7,23.6,22.4,23.9,22,23.9z M11.6,22.4h9.7
		V7.6c0-0.6-0.5-1.1-1.1-1.1H4.6c-1.3,0-2.4,1.1-2.4,2.4v11.2c0,1.3,1.1,2.4,2.4,2.4h0.3C5.4,21,6.7,20,8.2,20S11.1,21,11.6,22.4z"
		/>
	<g>
		<path fill="#F0F7F7" d="M11,23.2c-0.2-1.4-1.3-2.4-2.7-2.4c-1.4,0-2.5,1.1-2.7,2.4c0,0.1,0,0.2,0,0.3c0,1.5,1.2,2.8,2.8,2.8
			c1.5,0,2.8-1.2,2.8-2.8C11,23.4,11,23.3,11,23.2z"/>
		<path fill="#8F9BA8" d="M8.2,27c-1.9,0-3.5-1.6-3.5-3.5c0-0.1,0-0.2,0-0.4C5,21.3,6.5,20,8.2,20s3.2,1.3,3.5,3.1
			c0,0.2,0,0.3,0,0.4C11.7,25.5,10.2,27,8.2,27z M8.2,21.5c-1,0-1.8,0.8-2,1.8c0,0.1,0,0.2,0,0.3c0,1.1,0.9,2,2,2s2-0.9,2-2
			c0-0.1,0-0.1,0-0.2C10.1,22.3,9.2,21.5,8.2,21.5z"/>
	</g>
	<g>
		<path fill="#F0F7F7" d="M29,23.2c-0.2-1.4-1.3-2.4-2.7-2.4c-1.4,0-2.5,1.1-2.7,2.4c0,0.1,0,0.2,0,0.3c0,1.5,1.2,2.8,2.8,2.8
			c1.5,0,2.8-1.2,2.8-2.8C29,23.4,29,23.3,29,23.2z"/>
		<path fill="#8F9BA8" d="M26.2,27c-1.9,0-3.5-1.6-3.5-3.5c0-0.1,0-0.2,0-0.4c0.2-1.8,1.7-3.1,3.5-3.1c1.8,0,3.2,1.3,3.5,3.1
			c0,0.2,0,0.3,0,0.4C29.7,25.5,28.2,27,26.2,27z M26.2,21.5c-1,0-1.8,0.8-2,1.8c0,0.1,0,0.2,0,0.3c0,1.1,0.9,2,2,2s2-0.9,2-2
			c0-0.1,0-0.1,0-0.2C28.1,22.3,27.2,21.5,26.2,21.5z"/>
	</g>
	<path fill="#8F9BA8" d="M30.5,23.9H29c-0.4,0-0.7-0.3-0.7-0.7c-0.1-1-1-1.8-2-1.8c-1,0-1.8,0.8-2,1.8c0,0.4-0.4,0.7-0.7,0.7H22
		c-0.4,0-0.8-0.3-0.8-0.8v-7.4c0-0.4,0.3-0.8,0.8-0.8h8.5c0.4,0,0.8,0.3,0.8,0.8v7.4C31.3,23.6,30.9,23.9,30.5,23.9z M29.6,22.4h0.2
		v-5.9h-7v5.9h0.2c0.5-1.4,1.8-2.4,3.3-2.4S29.1,21,29.6,22.4z"/>
	<g>
		<polygon fill="#F0F7F7" points="22,9.5 22,15.8 30.5,15.8 28,9.5 		"/>
		<path fill="#8F9BA8" d="M30.5,16.6H22c-0.4,0-0.8-0.3-0.8-0.7V9.5c0-0.4,0.3-0.8,0.8-0.8h6c0.3,0,0.6,0.2,0.7,0.5l2.5,6.3
			c0.1,0.2,0.1,0.5-0.1,0.7C31,16.4,30.7,16.6,30.5,16.6z M22.7,15.1h6.7l-1.9-4.8h-4.7V15.1z"/>
	</g>
</g>
</svg>
