<?xml version="1.0" encoding="utf-8"?>
<!-- Generator: Adobe Illustrator 18.0.0, SVG Export Plug-In . SVG Version: 6.00 Build 0)  -->
<!DOCTYPE svg PUBLIC "-//W3C//DTD SVG 1.1//EN" "http://www.w3.org/Graphics/SVG/1.1/DTD/svg11.dtd">
<svg version="1.1" id="Layer_1" xmlns="http://www.w3.org/2000/svg" xmlns:xlink="http://www.w3.org/1999/xlink" x="0px" y="0px"
	 viewBox="0 0 32 32" enable-background="new 0 0 32 32" xml:space="preserve">
<g>
	<path fill="#DA8C8C" d="M13,12.1l-1.4-1.9c-1-1.3-2.5-2.1-4.2-2.1c-1.6,0-3.2,0.8-4.2,2.1l-1.4,1.9V5.5c0-1.2,1-2.2,2.2-2.2h6.6
		c1.2,0,2.2,1,2.2,2.2V12.1z M4.1,4.8c-0.4,0-0.7,0.3-0.7,0.7V8c1.2-0.9,2.6-1.4,4-1.4c1.5,0,2.9,0.5,4,1.4V5.5
		c0-0.4-0.3-0.7-0.7-0.7H4.1z"/>
	<path fill="#DA8C8C" d="M10.8,28.7H4.1c-1.2,0-2.2-1-2.2-2.2V14.6l1.4,1.9c1,1.3,2.5,2.1,4.2,2.1c1.6,0,3.2-0.8,4.2-2.1l1.4-1.9
		v11.9C13,27.7,12,28.7,10.8,28.7z M3.4,18.7v7.8c0,0.4,0.3,0.7,0.7,0.7h6.6c0.4,0,0.7-0.3,0.7-0.7v-7.8c-1.2,0.9-2.6,1.4-4,1.4
		C6,20,4.6,19.5,3.4,18.7z"/>
	<g>
		<rect x="12.2" y="17.7" fill="#B4A79C" width="3.1" height="1.5"/>
		<rect x="12.5" y="9.6" fill="#B4A79C" width="2.8" height="1.5"/>
	</g>
	<path fill="#B4A79C" d="M29.1,21.5H16.7c-1.2,0-2.1-1-2.1-2.1V9.4c0-1.2,1-2.1,2.1-2.1h12.4c1.2,0,2.1,1,2.1,2.1v9.9
		C31.3,20.5,30.3,21.5,29.1,21.5z M16.7,8.7c-0.4,0-0.6,0.3-0.6,0.6v9.9c0,0.4,0.3,0.6,0.6,0.6h12.4c0.4,0,0.6-0.3,0.6-0.6V9.4
		c0-0.4-0.3-0.6-0.6-0.6H16.7z"/>
	<g>
		<path fill="#F0F7F7" d="M12.2,9.8c-1.1-1.5-2.8-2.4-4.8-2.4s-3.7,1-4.8,2.4c-0.7,1-1.1,2.2-1.1,3.5c0,1.3,0.4,2.5,1.1,3.5
			c1.1,1.5,2.8,2.4,4.8,2.4s3.7-1,4.8-2.4c0.7-1,1.1-2.2,1.1-3.5C13.4,12,12.9,10.8,12.2,9.8z"/>
		<path fill="#8F9BA8" d="M7.4,20c-2.1,0-4.1-1-5.4-2.7c-0.8-1.2-1.3-2.5-1.3-3.9S1.2,10.6,2,9.4c1.3-1.7,3.3-2.7,5.4-2.7
			c2.1,0,4.1,1,5.4,2.7c0.8,1.2,1.3,2.5,1.3,3.9c0,1.4-0.4,2.8-1.3,3.9C11.6,19,9.6,20,7.4,20z M7.4,8.2c-1.6,0-3.2,0.8-4.2,2.1
			c-0.7,0.9-1,2-1,3.1c0,1.1,0.3,2.2,1,3.1c1,1.3,2.5,2.1,4.2,2.1c1.6,0,3.2-0.8,4.2-2.1c0.7-0.9,1-2,1-3.1c0-1.1-0.3-2.2-1-3.1
			C10.6,9,9.1,8.2,7.4,8.2z"/>
	</g>
</g>
</svg>
