<?xml version="1.0" encoding="utf-8"?>
<!-- Generator: Adobe Illustrator 18.0.0, SVG Export Plug-In . SVG Version: 6.00 Build 0)  -->
<!DOCTYPE svg PUBLIC "-//W3C//DTD SVG 1.1//EN" "http://www.w3.org/Graphics/SVG/1.1/DTD/svg11.dtd">
<svg version="1.1" id="Layer_1" xmlns="http://www.w3.org/2000/svg" xmlns:xlink="http://www.w3.org/1999/xlink" x="0px" y="0px"
	 viewBox="0 0 32 32" enable-background="new 0 0 32 32" xml:space="preserve">
<pattern  x="-84" y="-168" width="24.1" height="24.1" patternUnits="userSpaceOnUse" id="New_Pattern_Swatch_1" viewBox="0 -24.1 24.1 24.1" overflow="visible">
	<g>
		<polygon fill="none" points="0,0 24.1,0 24.1,-24.1 0,-24.1 		"/>
		<polygon fill="#FEE99B" points="24.1,0 0,0 0,-24.1 24.1,-24.1 		"/>
	</g>
</pattern>
<pattern  x="-84" y="-168" width="24.1" height="24.1" patternUnits="userSpaceOnUse" id="New_Pattern_Swatch_2" viewBox="0 -24.1 24.1 24.1" overflow="visible">
	<g>
		<polygon fill="none" points="0,0 24.1,0 24.1,-24.1 0,-24.1 		"/>
		<polygon fill="#E0CB81" points="24.1,0 0,0 0,-24.1 24.1,-24.1 		"/>
	</g>
</pattern>
<g>
	<path fill="#8F9BA8" d="M28.1,27.2H3.9c-1.7,0-3.1-1.4-3.1-3.1V9.8c0-1.7,1.4-3.1,3.1-3.1h24.3c1.7,0,3.1,1.4,3.1,3.1v14.3
		C31.3,25.8,29.9,27.2,28.1,27.2z M3.9,8.1C3,8.1,2.3,8.9,2.3,9.8v14.3c0,0.9,0.7,1.6,1.6,1.6h24.3c0.9,0,1.6-0.7,1.6-1.6V9.8
		c0-0.9-0.7-1.6-1.6-1.6H3.9z"/>
	<g>
		<pattern  id="SVGID_1_" xlink:href="#New_Pattern_Swatch_1" patternTransform="matrix(1 0 0 1 -1.5283 -38.3891)">
		</pattern>
		<circle fill="url(#SVGID_1_)" cx="21" cy="16.9" r="5.5"/>
		<pattern  id="SVGID_2_" xlink:href="#New_Pattern_Swatch_2" patternTransform="matrix(1 0 0 1 -1.5283 -38.3891)">
		</pattern>
		<path fill="url(#SVGID_2_)" d="M21,23.1c-3.4,0-6.2-2.8-6.2-6.2c0-3.4,2.8-6.2,6.2-6.2c3.4,0,6.2,2.8,6.2,6.2
			C27.3,20.3,24.5,23.1,21,23.1z M21,12.2c-2.6,0-4.7,2.1-4.7,4.7s2.1,4.7,4.7,4.7c2.6,0,4.7-2.1,4.7-4.7S23.6,12.2,21,12.2z"/>
	</g>
	<rect x="5.2" y="4.8" fill="#8F9BA8" width="1.5" height="2.6"/>
	<rect x="6.4" y="11.2" fill="#8F9BA8" width="4.2" height="1.5"/>
</g>
</svg>
