<?xml version="1.0" encoding="utf-8"?>
<!-- Generator: Adobe Illustrator 18.0.0, SVG Export Plug-In . SVG Version: 6.00 Build 0)  -->
<!DOCTYPE svg PUBLIC "-//W3C//DTD SVG 1.1//EN" "http://www.w3.org/Graphics/SVG/1.1/DTD/svg11.dtd">
<svg version="1.1" id="Layer_1" xmlns="http://www.w3.org/2000/svg" xmlns:xlink="http://www.w3.org/1999/xlink" x="0px" y="0px"
	 viewBox="0 0 32 32" enable-background="new 0 0 32 32" xml:space="preserve">
<g>
	<path fill="#79C693" d="M24.8,25.6c-0.1,0-0.2,0-0.3-0.1l-6-3c-0.3-0.2-0.5-0.6-0.4-0.9l0.7-2.2c0.1-0.2,0.3-0.4,0.5-0.5l2.2-0.7
		c0.4-0.1,0.7,0,0.9,0.4l3,6c0.1,0.3,0.1,0.6-0.1,0.9C25.2,25.5,25,25.6,24.8,25.6z M19.8,21.5l3.4,1.7l-1.7-3.3l-1.3,0.4L19.8,21.5
		z"/>
	<path fill="#79C693" d="M21.8,13.9c-0.1,0-0.2,0-0.2,0l-2.2-0.7c-0.2-0.1-0.4-0.3-0.5-0.5l-0.7-2.2c-0.1-0.4,0-0.7,0.4-0.9l6-3
		c0.3-0.1,0.6-0.1,0.9,0.1c0.2,0.2,0.3,0.6,0.1,0.9l-3,6C22.4,13.7,22.1,13.9,21.8,13.9z M20.2,11.8l1.3,0.4l1.7-3.4l-3.4,1.7
		L20.2,11.8z"/>
	<path fill="#79C693" d="M7.2,25.6c-0.2,0-0.4-0.1-0.5-0.2c-0.2-0.2-0.3-0.6-0.1-0.9l3-6c0.2-0.3,0.6-0.5,0.9-0.4l2.2,0.7
		c0.2,0.1,0.4,0.3,0.5,0.5l0.7,2.2c0.1,0.4,0,0.7-0.4,0.9l-6,3C7.4,25.5,7.3,25.6,7.2,25.6z M10.5,19.8l-1.7,3.4l3.4-1.7l-0.4-1.3
		L10.5,19.8z"/>
	<path fill="#79C693" d="M10.2,13.9c-0.3,0-0.5-0.2-0.7-0.4l-3-6C6.4,7.2,6.4,6.9,6.6,6.6c0.2-0.2,0.6-0.3,0.9-0.1l6,3
		c0.3,0.2,0.5,0.6,0.4,0.9l-0.7,2.2c-0.1,0.2-0.3,0.4-0.5,0.5l-2.2,0.7C10.3,13.9,10.2,13.9,10.2,13.9z M8.9,8.9l1.7,3.3l1.3-0.4
		l0.4-1.3L8.9,8.9z"/>
	<path fill="#8F9BA8" d="M16,31.2c-0.3,0-0.6-0.2-0.7-0.5l-3.5-10.5L1.3,16.7C1,16.6,0.8,16.3,0.8,16c0-0.3,0.2-0.6,0.5-0.7
		l10.5-3.5l3.5-10.5C15.4,1,15.7,0.7,16,0.7l0,0c0.3,0,0.6,0.2,0.7,0.5l3.5,10.5l10.5,3.5c0.3,0.1,0.5,0.4,0.5,0.7
		c0,0.3-0.2,0.6-0.5,0.7l-10.5,3.5l-3.5,10.5C16.6,31,16.3,31.2,16,31.2z M3.9,16l8.7,2.9c0.2,0.1,0.4,0.3,0.5,0.5l2.9,8.7l2.9-8.7
		c0.1-0.2,0.3-0.4,0.5-0.5l8.7-2.9l-8.7-2.9c-0.2-0.1-0.4-0.3-0.5-0.5L16,3.9l-2.9,8.7c-0.1,0.2-0.3,0.4-0.5,0.5L3.9,16z"/>
	<path fill="#DA8C8C" d="M16,19c-1.6,0-3-1.3-3-3c0-1.6,1.3-3,3-3c1.6,0,3,1.3,3,3C19,17.6,17.6,19,16,19z M16,14.5
		c-0.8,0-1.5,0.7-1.5,1.5c0,0.8,0.7,1.5,1.5,1.5c0.8,0,1.5-0.7,1.5-1.5C17.5,15.2,16.8,14.5,16,14.5z"/>
</g>
</svg>
