<?xml version="1.0" encoding="utf-8"?>
<!-- Generator: Adobe Illustrator 18.0.0, SVG Export Plug-In . SVG Version: 6.00 Build 0)  -->
<!DOCTYPE svg PUBLIC "-//W3C//DTD SVG 1.1//EN" "http://www.w3.org/Graphics/SVG/1.1/DTD/svg11.dtd">
<svg version="1.1" id="Layer_1" xmlns="http://www.w3.org/2000/svg" xmlns:xlink="http://www.w3.org/1999/xlink" x="0px" y="0px"
	 viewBox="0 0 32 32" enable-background="new 0 0 32 32" xml:space="preserve">
<g>
	<path fill="#8F9BA8" d="M22.3,25.7c-0.5,0-0.9-0.1-1.4-0.2c-2.8-0.7-4.6-3.5-4-6.3l0.2-0.9c0.1-0.2,0.1-0.4,0.1-0.7l0-0.3
		c0-0.4,0.1-1,0.1-1.7c0-0.8,0-1.5,0-2.1c-0.1-1.7-0.3-3.3-0.4-4.1l-0.3-1.8c-0.3-1.6,0.1-3.1,0.9-4.4c0.9-1.3,2.2-2.1,3.7-2.3
		c0.3-0.1,0.7-0.1,1-0.1c2.8,0,5.2,2,5.6,4.7l0.3,2.6c0.1,1.2,0.3,3.1,0.3,5.2c0,0.9,0,1.8-0.1,2.9c-0.1,0.9-0.1,1.8-0.3,2.7
		c-0.1,0.8-0.3,1.5-0.4,2.1l-0.2,0.8C27,24,24.8,25.7,22.3,25.7z M22.3,2.2c-0.2,0-0.5,0-0.7,0.1c-1.1,0.2-2.1,0.8-2.8,1.8
		S17.8,6.1,18,7.2l0.3,2c0.1,0.8,0.3,2.5,0.4,4.3c0,0.7,0,1.4,0,2.2c0,0.6-0.1,1.2-0.1,1.8l0,0.3c0,0.4-0.1,0.7-0.1,0.8l-0.2,0.8
		c-0.4,2.1,0.9,4.2,3,4.7c0.3,0.1,0.7,0.1,1,0.1c1.8,0,3.5-1.2,3.9-3l0.2-0.8c0.1-0.5,0.3-1.2,0.4-1.9c0.1-0.8,0.2-1.7,0.3-2.5
		c0.1-1,0.1-1.9,0.1-2.8c0-2-0.2-3.9-0.3-5l-0.3-2.5C26.2,3.7,24.4,2.2,22.3,2.2z"/>
	<path fill="#DA8C8C" d="M20.2,16.1c-0.3,0-0.6-0.2-0.7-0.6c-1-4.8,2-8.8,2.1-8.9c0.2-0.3,0.7-0.4,1-0.1c0.2,0.1,4.6,3.3,4.3,9
		c0,0.4-0.4,0.7-0.8,0.7c-0.4,0-0.7-0.4-0.7-0.8c0.2-3.7-2-6.2-3.1-7.2c-0.7,1.2-2.1,4-1.4,7.1c0.1,0.4-0.2,0.8-0.5,0.8
		C20.3,16.1,20.2,16.1,20.2,16.1z"/>
	<path fill="#DA8C8C" d="M22.2,7.7c-0.3,0-0.6-0.2-0.7-0.5L21,5.8c-0.1-0.4,0.1-0.8,0.4-0.9c0.4-0.1,0.8,0.1,0.9,0.4l0.5,1.4
		c0.1,0.4-0.1,0.8-0.4,0.9C22.3,7.7,22.3,7.7,22.2,7.7z"/>
	<path fill="#8F9BA8" d="M9.7,31.2L9.7,31.2c-2.5,0-4.7-1.7-5.3-4.1l-0.2-0.8c-0.2-0.5-0.3-1.2-0.4-2c-0.1-0.9-0.2-1.8-0.3-2.7
		c-0.1-1-0.1-2-0.1-2.9c0-2.1,0.2-3.9,0.3-5.2l0.3-2.6c0.5-2.8,2.8-4.8,5.6-4.8c0.3,0,0.7,0,1,0.1c1.5,0.3,2.8,1.1,3.7,2.3
		c0.9,1.3,1.2,2.8,1,4.3l-0.3,1.9c-0.1,0.8-0.3,2.4-0.4,4.1c0,0.6,0,1.3,0,2.1c0,0.6,0.1,1.2,0.1,1.7l0,0.3c0,0.3,0.1,0.5,0.1,0.6
		l0.2,0.9c0.6,2.8-1.2,5.6-4,6.3C10.6,31.2,10.2,31.2,9.7,31.2z M9.7,7.7c-2.1,0-3.9,1.5-4.2,3.6l-0.3,2.5c-0.1,1.2-0.3,3-0.3,5
		c0,0.8,0,1.8,0.1,2.8c0.1,0.8,0.1,1.7,0.3,2.5c0.1,0.7,0.2,1.4,0.4,1.9l0.2,0.8c0.5,1.8,2.1,3,3.9,3h0c0.3,0,0.7,0,1-0.1
		c2.1-0.5,3.4-2.6,3-4.7l-0.2-0.9c0-0.1-0.1-0.4-0.1-0.8l0-0.3c-0.1-0.6-0.1-1.2-0.1-1.8c0-0.8,0-1.5,0-2.2c0.1-1.8,0.3-3.4,0.4-4.3
		l0.3-1.9c0.2-1.2,0-2.4-0.7-3.3c-0.7-0.9-1.6-1.6-2.8-1.8C10.2,7.8,10,7.7,9.7,7.7z"/>
	<path fill="#DA8C8C" d="M11.8,21.6c-0.1,0-0.1,0-0.2,0c-0.4-0.1-0.6-0.5-0.5-0.8c0.7-3.1-0.7-5.9-1.4-7.1c-1.1,1-3.3,3.5-3.1,7.2
		c0,0.4-0.3,0.7-0.7,0.8c-0.4,0-0.7-0.3-0.8-0.7c-0.4-5.7,4.1-8.8,4.3-9c0.3-0.2,0.7-0.2,1,0.1c0.1,0.2,3.2,4.2,2.1,8.9
		C12.4,21.4,12.1,21.6,11.8,21.6z"/>
	<path fill="#DA8C8C" d="M9.8,13.3c-0.1,0-0.2,0-0.2,0c-0.4-0.1-0.6-0.5-0.4-0.9l0.5-1.4c0.1-0.4,0.5-0.6,0.9-0.4
		c0.4,0.1,0.6,0.5,0.4,0.9l-0.5,1.4C10.4,13.1,10.1,13.3,9.8,13.3z"/>
</g>
</svg>
