<?xml version="1.0" encoding="utf-8"?>
<!-- Generator: Adobe Illustrator 18.0.0, SVG Export Plug-In . SVG Version: 6.00 Build 0)  -->
<!DOCTYPE svg PUBLIC "-//W3C//DTD SVG 1.1//EN" "http://www.w3.org/Graphics/SVG/1.1/DTD/svg11.dtd">
<svg version="1.1" id="Layer_1" xmlns="http://www.w3.org/2000/svg" xmlns:xlink="http://www.w3.org/1999/xlink" x="0px" y="0px"
	 viewBox="0 0 32 32" enable-background="new 0 0 32 32" xml:space="preserve">
<g>
	<path fill="#8F9BA8" d="M16,31.2c-2.3,0-5.2-0.6-5.2-5.7c0-1.6,0.3-3.4,0.8-5.1C9.8,21,8,21.2,6.5,21.2c-5.1,0-5.7-3-5.7-5.2
		s0.6-5.2,5.7-5.2c1.6,0,3.4,0.3,5.1,0.8C11,9.8,10.8,8,10.8,6.5c0-5.1,3-5.7,5.2-5.7s5.2,0.6,5.2,5.7c0,1.6-0.3,3.4-0.8,5.1
		c1.7-0.5,3.5-0.8,5.1-0.8c5.1,0,5.7,3,5.7,5.2s-0.6,5.2-5.7,5.2c-1.6,0-3.4-0.3-5.1-0.8c0.5,1.7,0.8,3.5,0.8,5.1
		C21.2,30.7,18.3,31.2,16,31.2z M12.7,18.5c0.2,0,0.4,0.1,0.5,0.2c0.2,0.2,0.3,0.5,0.2,0.8c-0.7,1.9-1.2,4.1-1.2,6
		c0,3.5,1.4,4.2,3.7,4.2c2.3,0,3.7-0.7,3.7-4.2c0-1.8-0.4-4.1-1.2-6c-0.1-0.3,0-0.6,0.2-0.8c0.2-0.2,0.5-0.3,0.8-0.2
		c1.8,0.7,4.1,1.2,6,1.2c3.5,0,4.2-1.4,4.2-3.7c0-2.3-0.7-3.7-4.2-3.7c-1.9,0-4.1,0.4-6,1.2c-0.3,0.1-0.6,0-0.8-0.2
		c-0.2-0.2-0.3-0.5-0.2-0.8c0.7-1.8,1.2-4.1,1.2-6c0-3.5-1.4-4.2-3.7-4.2c-2.3,0-3.7,0.7-3.7,4.2c0,1.8,0.4,4.1,1.2,6
		c0.1,0.3,0,0.6-0.2,0.8c-0.2,0.2-0.5,0.3-0.8,0.2c-1.9-0.7-4.1-1.2-6-1.2c-3.5,0-4.2,1.4-4.2,3.7c0,2.3,0.7,3.7,4.2,3.7
		c1.9,0,4.1-0.4,6-1.2C12.5,18.6,12.6,18.5,12.7,18.5z"/>
	<path fill="#8F9BA8" d="M16,18.9c-1.6,0-2.9-1.3-2.9-2.9c0-1.6,1.3-2.9,2.9-2.9c1.6,0,2.9,1.3,2.9,2.9C18.9,17.6,17.6,18.9,16,18.9
		z M16,14.6c-0.8,0-1.4,0.6-1.4,1.4s0.6,1.4,1.4,1.4s1.4-0.6,1.4-1.4S16.8,14.6,16,14.6z"/>
</g>
</svg>
