<?xml version="1.0" encoding="utf-8"?>
<!-- Generator: Adobe Illustrator 18.0.0, SVG Export Plug-In . SVG Version: 6.00 Build 0)  -->
<!DOCTYPE svg PUBLIC "-//W3C//DTD SVG 1.1//EN" "http://www.w3.org/Graphics/SVG/1.1/DTD/svg11.dtd">
<svg version="1.1" id="Layer_1" xmlns="http://www.w3.org/2000/svg" xmlns:xlink="http://www.w3.org/1999/xlink" x="0px" y="0px"
	 viewBox="0 0 32 32" enable-background="new 0 0 32 32" xml:space="preserve">
<g>
	<g>
		<path fill="#8F9BA8" d="M26.3,22.7c-0.2,0-0.5-0.1-0.6-0.3c-0.1-0.2-0.2-0.5-0.1-0.7c0.6-1.3,0.8-2.6,0.8-4c0-1.4-0.3-2.8-0.8-4
			c-0.1-0.2-0.1-0.5,0.1-0.7c0.1-0.2,0.4-0.3,0.6-0.3c2.8,0.1,5,2.3,5,5.1C31.3,20.3,29.1,22.6,26.3,22.7
			C26.3,22.7,26.3,22.7,26.3,22.7z M27.4,14.2c0.3,1.1,0.5,2.2,0.5,3.4c0,1.2-0.2,2.3-0.5,3.4c1.4-0.5,2.3-1.8,2.3-3.4
			C29.8,16,28.8,14.7,27.4,14.2z"/>
		<path fill="#8F9BA8" d="M5.7,22.7C5.7,22.7,5.7,22.7,5.7,22.7c-2.8-0.1-5-2.3-5-5.1c0-2.8,2.2-5,5-5.1c0.3,0,0.5,0.1,0.6,0.3
			c0.1,0.2,0.2,0.5,0.1,0.7c-0.6,1.3-0.8,2.6-0.8,4c0,1.4,0.3,2.8,0.8,4c0.1,0.2,0.1,0.5-0.1,0.7C6.2,22.5,6,22.7,5.7,22.7z
			 M4.6,14.2c-1.4,0.5-2.3,1.8-2.3,3.4c0,1.5,1,2.9,2.3,3.4c-0.3-1.1-0.5-2.2-0.5-3.4C4.1,16.4,4.2,15.3,4.6,14.2z"/>
		<path fill="#8F9BA8" d="M16,29.3c-4.8,0-9.1-2.8-11-7.1c-0.6-1.5-1-3-1-4.6c0-1.6,0.3-3.2,1-4.6c1.9-4.3,6.2-7.1,11-7.1
			c4.8,0,9.1,2.8,11,7.1c0.6,1.5,1,3,1,4.6c0,1.6-0.3,3.2-1,4.6C25.1,26.5,20.8,29.3,16,29.3z M16,7.3c-4.2,0-7.9,2.4-9.6,6.2
			c-0.6,1.3-0.8,2.6-0.8,4c0,1.4,0.3,2.8,0.8,4c1.6,3.8,5.4,6.2,9.6,6.2s7.9-2.4,9.6-6.2c0.6-1.3,0.8-2.6,0.8-4c0-1.4-0.3-2.8-0.8-4
			C23.9,9.7,20.2,7.3,16,7.3z"/>
		<g>
			<rect x="19" y="15.1" fill="#8F9BA8" width="1.5" height="1.4"/>
			<rect x="11.5" y="15.1" fill="#8F9BA8" width="1.5" height="1.4"/>
		</g>
		<g>
			<path fill="#8F9BA8" d="M17.9,24.7c-0.1,0-0.2,0-0.3-0.1c-0.2-0.1-0.3-0.3-0.4-0.5c-0.2-0.5-0.6-0.9-1.2-0.9s-1,0.4-1.2,0.9
				c-0.1,0.2-0.2,0.4-0.4,0.5c-0.2,0.1-0.4,0.1-0.6,0c-1.2-0.4-1.9-1.2-1.9-2.1c0-1.4,1.7-2.5,4.1-2.5c2.3,0,4.1,1.1,4.1,2.5
				c0,0.9-0.7,1.7-1.9,2.1C18.1,24.7,18,24.7,17.9,24.7z M16,21.8c0.9,0,1.7,0.4,2.2,1.2c0.2-0.2,0.3-0.3,0.3-0.4c0-0.3-1-1-2.6-1
				s-2.6,0.6-2.6,1c0,0.1,0.1,0.3,0.3,0.4C14.3,22.2,15.1,21.8,16,21.8z"/>
			<path fill="#8F9BA8" d="M16,27.3c-1.5,0-2.8-1.2-2.8-2.8c0-0.3,0-0.5,0.1-0.8c0.4-1.2,1.4-1.9,2.6-1.9s2.3,0.8,2.6,1.9
				c0.1,0.3,0.1,0.6,0.1,0.8C18.8,26,17.5,27.3,16,27.3z M16,23.3c-0.5,0-1,0.4-1.2,0.9c0,0.1-0.1,0.3-0.1,0.4
				c0,0.7,0.6,1.3,1.3,1.3s1.3-0.6,1.3-1.3c0-0.1,0-0.2-0.1-0.4C17,23.6,16.5,23.3,16,23.3z"/>
		</g>
	</g>
	<path fill="#8F9BA8" d="M16,6.9l-1.4-0.6c0-0.1,0.1-0.2,0-0.4c-0.4-0.8-2-1.6-2.4-1.7l0.2-0.6V2.7c0.4,0,2.6,0.9,3.4,2.2
		C16.3,5.7,16.2,6.4,16,6.9z"/>
</g>
</svg>
