<?xml version="1.0" encoding="utf-8"?>
<!-- Generator: Adobe Illustrator 18.0.0, SVG Export Plug-In . SVG Version: 6.00 Build 0)  -->
<!DOCTYPE svg PUBLIC "-//W3C//DTD SVG 1.1//EN" "http://www.w3.org/Graphics/SVG/1.1/DTD/svg11.dtd">
<svg version="1.1" id="Layer_1" xmlns="http://www.w3.org/2000/svg" xmlns:xlink="http://www.w3.org/1999/xlink" x="0px" y="0px"
	 viewBox="0 0 32 32" enable-background="new 0 0 32 32" xml:space="preserve">
<g>
	<path fill="#8F9BA8" d="M16,31.2c-1.3,0-2.5-0.6-3.4-1.6c-0.7-0.9-1.1-2.1-1-3.2c-0.8,1-2.1,1.6-3.4,1.6c-1.2,0-2.2-0.5-3.1-1.3
		c-0.9-0.9-1.4-2.2-1.3-3.5c0.1-1.2,0.7-2.2,1.6-2.9C3,20.6,0.8,18.6,0.8,16c0-2.6,2.3-4.6,4.8-4.3C4.7,11,4.1,9.9,4,8.7
		C3.8,7.4,4.3,6.1,5.2,5.2C6,4.4,7.1,3.9,8.3,3.9c1.3,0,2.6,0.6,3.4,1.6c-0.1-1.2,0.2-2.3,1-3.2c0.8-1,2.1-1.6,3.4-1.6
		c1.3,0,2.5,0.6,3.4,1.6c0.7,0.9,1.1,2.1,1,3.2c0.8-1,2.1-1.6,3.4-1.6c1.2,0,2.2,0.5,3.1,1.3c0.9,0.9,1.4,2.2,1.3,3.5
		c-0.1,1.2-0.7,2.2-1.6,2.9c2.6-0.3,4.8,1.8,4.8,4.3c0,1.2-0.5,2.3-1.3,3.1c-0.8,0.8-1.9,1.3-3,1.3l0,0c-0.2,0-0.3,0-0.5,0
		c0.9,0.7,1.5,1.8,1.6,2.9c0.1,1.3-0.3,2.6-1.3,3.5c-0.8,0.8-1.9,1.3-3.1,1.3c-1.3,0-2.6-0.6-3.4-1.6c0.1,1.2-0.2,2.3-0.9,3.2
		C18.5,30.7,17.3,31.2,16,31.2z M13.2,22.1c0.1,0,0.2,0,0.3,0.1c0.3,0.1,0.5,0.5,0.4,0.8l-0.7,3.4c-0.2,0.8,0,1.7,0.6,2.4
		c0.5,0.7,1.3,1,2.2,1c0.9,0,1.7-0.4,2.2-1c0.5-0.7,0.8-1.5,0.6-2.4L18.1,23c-0.1-0.4,0.1-0.7,0.4-0.8c0.3-0.1,0.7,0,0.9,0.3
		l1.9,2.9c0.5,0.8,1.4,1.3,2.4,1.3c0.8,0,1.5-0.3,2-0.8c0.6-0.6,0.9-1.4,0.8-2.3c-0.1-0.9-0.5-1.6-1.3-2.1l-2.9-1.9
		c-0.3-0.2-0.4-0.6-0.3-0.9c0.1-0.3,0.5-0.5,0.8-0.4l3.4,0.7c0.9,0.2,1.9-0.1,2.6-0.8c0.5-0.5,0.8-1.3,0.8-2c0-1.6-1.3-2.8-2.8-2.8
		c-0.2,0-0.4,0-0.6,0.1L23,13.9c-0.4,0.1-0.7-0.1-0.8-0.4c-0.1-0.3,0-0.7,0.3-0.9l2.9-1.9c0.7-0.5,1.2-1.2,1.3-2.1
		c0.1-0.9-0.2-1.7-0.8-2.3c-0.5-0.5-1.3-0.8-2-0.8c-1,0-1.9,0.5-2.4,1.3l-1.9,2.9c-0.2,0.3-0.6,0.4-0.9,0.3C18.2,9.7,18,9.4,18.1,9
		l0.7-3.4c0.2-0.8,0-1.7-0.6-2.4c-0.5-0.7-1.3-1-2.2-1c-0.9,0-1.7,0.4-2.2,1C13.3,4,13,4.8,13.2,5.7L13.9,9c0.1,0.4-0.1,0.7-0.4,0.8
		c-0.3,0.1-0.7,0-0.9-0.3l-1.9-2.9c-0.5-0.8-1.4-1.3-2.4-1.3c-0.8,0-1.5,0.3-2,0.8C5.7,6.9,5.4,7.7,5.5,8.6c0.1,0.9,0.5,1.6,1.3,2.1
		l2.9,1.9c0.3,0.2,0.4,0.6,0.3,0.9C9.7,13.8,9.4,14,9,13.9l-3.4-0.7c-1.8-0.4-3.4,1-3.4,2.8c0,1.8,1.7,3.1,3.4,2.8L9,18.1
		c0.4-0.1,0.7,0.1,0.8,0.4c0.1,0.3,0,0.7-0.3,0.9l-2.9,1.9c-0.7,0.5-1.2,1.2-1.3,2.1c-0.1,0.9,0.2,1.7,0.8,2.3
		c0.5,0.5,1.3,0.8,2,0.8c1,0,1.9-0.5,2.4-1.3l1.9-2.9C12.7,22.2,12.9,22.1,13.2,22.1z"/>
	<path fill="#8F9BA8" d="M16,20.6c-2.6,0-4.6-2.1-4.6-4.6c0-2.6,2.1-4.6,4.6-4.6c2.6,0,4.6,2.1,4.6,4.6C20.6,18.6,18.6,20.6,16,20.6
		z M16,12.9c-1.7,0-3.1,1.4-3.1,3.1s1.4,3.1,3.1,3.1c1.7,0,3.1-1.4,3.1-3.1S17.7,12.9,16,12.9z"/>
</g>
</svg>
