<?xml version="1.0" encoding="utf-8"?>
<!-- Generator: Adobe Illustrator 18.0.0, SVG Export Plug-In . SVG Version: 6.00 Build 0)  -->
<!DOCTYPE svg PUBLIC "-//W3C//DTD SVG 1.1//EN" "http://www.w3.org/Graphics/SVG/1.1/DTD/svg11.dtd">
<svg version="1.1" id="Layer_1" xmlns="http://www.w3.org/2000/svg" xmlns:xlink="http://www.w3.org/1999/xlink" x="0px" y="0px"
	 viewBox="0 0 32 32" enable-background="new 0 0 32 32" xml:space="preserve">
<g>
	<g>
		<path fill="#8F9BA8" d="M18.3,5.5h-4.7l-0.2-0.4c-0.3-0.4-0.4-1-0.4-1.5c0-1.6,1.3-2.9,2.9-2.9c1.6,0,2.9,1.3,2.9,2.9
			c0,0.5-0.1,1-0.4,1.5L18.3,5.5z M14.6,4h2.8c0-0.1,0-0.2,0-0.3c0-0.8-0.6-1.4-1.4-1.4c-0.8,0-1.4,0.6-1.4,1.4
			C14.6,3.8,14.6,3.9,14.6,4z"/>
	</g>
	<g>
		<path fill="#74B1E0" d="M27.3,31.2H4.7v-25H12v1.1H20V6.3h7.4V31.2z M6.2,29.7h19.6v-22h-4.4v1.1H10.5V7.8H6.2V29.7z"/>
	</g>
	<g>
		<polygon fill="#F0F7F7" points="11.3,4.8 11.3,7 11.3,8.1 20.7,8.1 20.7,7 20.7,4.8 		"/>
		<path fill="#8F9BA8" d="M21.5,8.9H10.5V4h10.9V8.9z M12,7.4H20V5.5H12V7.4z"/>
	</g>
	<g>
		<polygon fill="#74B1E0" points="13.7,23.3 10.8,20.4 11.8,19.3 13.7,21.2 20.1,14.8 21.2,15.8 		"/>
	</g>
</g>
</svg>
