<?xml version="1.0" encoding="utf-8"?>
<!-- Generator: Adobe Illustrator 18.0.0, SVG Export Plug-In . SVG Version: 6.00 Build 0)  -->
<!DOCTYPE svg PUBLIC "-//W3C//DTD SVG 1.1//EN" "http://www.w3.org/Graphics/SVG/1.1/DTD/svg11.dtd">
<svg version="1.1" id="Layer_1" xmlns="http://www.w3.org/2000/svg" xmlns:xlink="http://www.w3.org/1999/xlink" x="0px" y="0px"
	 viewBox="0 0 32 32" enable-background="new 0 0 32 32" xml:space="preserve">
<g>
	<path fill="#8F9BA8" d="M16.8,10.4H5.1V5.9h11.7V10.4z M6.6,8.9h8.7V7.4H6.6V8.9z"/>
	<path fill="#8F9BA8" d="M18.8,7.4H3V2.9c0-1.2,1-2.1,2.1-2.1h11.5c1.2,0,2.1,1,2.1,2.1V7.4z M4.5,5.9h12.7v-3
		c0-0.4-0.3-0.6-0.6-0.6H5.2c-0.4,0-0.6,0.3-0.6,0.6V5.9z"/>
	<path fill="#8F9BA8" d="M17.9,31.2H4c-1.8,0-3.2-1.4-3.2-3.2V12.1c0-1.8,1.4-3.2,3.2-3.2h13.9c1.8,0,3.2,1.4,3.2,3.2v2.6l-0.4,0.2
		c-1.9,1.1-3,3-3,5.2c0,2.1,1.1,4.1,3,5.2l0.4,0.2v2.6C21,29.8,19.6,31.2,17.9,31.2z M4,10.4c-0.9,0-1.7,0.8-1.7,1.7v15.9
		C2.3,29,3,29.7,4,29.7h13.9c0.9,0,1.7-0.8,1.7-1.7v-1.7c-2.1-1.4-3.4-3.7-3.4-6.2c0-2.5,1.3-4.9,3.4-6.2v-1.7
		c0-0.9-0.8-1.7-1.7-1.7H4z"/>
	<g>
		<g>
			<path fill="#F9F8F2" d="M23.7,13.3c-0.4,0-0.7,0-1.1,0.1c-0.2,0-0.4,0.1-0.6,0.1c-0.6,0.2-1.2,0.4-1.7,0.7
				c-2,1.2-3.4,3.3-3.4,5.8l0,0c0,2.5,1.4,4.6,3.4,5.8c0.5,0.3,1.1,0.6,1.7,0.7c0.2,0.1,0.4,0.1,0.6,0.1c0.4,0.1,0.7,0.1,1.1,0.1
				c3.7,0,6.8-3,6.8-6.8l0,0C30.5,16.4,27.4,13.3,23.7,13.3z"/>
			<path fill="#B4A79C" d="M23.7,27.6c-0.4,0-0.8,0-1.2-0.1c-0.2,0-0.5-0.1-0.7-0.1c-0.6-0.2-1.2-0.4-1.9-0.8
				c-2.3-1.4-3.7-3.8-3.7-6.5c0-2.7,1.4-5.1,3.7-6.5c0.6-0.4,1.3-0.6,1.9-0.8c0.2-0.1,0.5-0.1,0.7-0.1c0.4-0.1,0.8-0.1,1.2-0.1
				c4.1,0,7.5,3.4,7.5,7.5C31.2,24.2,27.8,27.6,23.7,27.6z M23.7,14.1c-0.3,0-0.6,0-1,0.1c-0.2,0-0.4,0.1-0.6,0.1
				c-0.5,0.1-1,0.3-1.5,0.6c-1.9,1.1-3,3-3,5.2c0,2.1,1.1,4.1,3,5.2c0.5,0.3,1,0.5,1.5,0.6c0.2,0,0.4,0.1,0.5,0.1
				c0.4,0.1,0.7,0.1,1,0.1c3.3,0,6-2.7,6-6C29.7,16.8,27,14.1,23.7,14.1z"/>
		</g>
		<g>
			<line fill="#F9F8F2" x1="23.7" y1="15.9" x2="23.7" y2="24.3"/>
			<rect x="22.9" y="15.9" fill="#B4A79C" width="1.5" height="8.5"/>
		</g>
		<g>
			<line fill="#F9F8F2" x1="27.9" y1="20.1" x2="19.5" y2="20.1"/>
			<rect x="19.5" y="19.3" fill="#B4A79C" width="8.5" height="1.5"/>
		</g>
	</g>
</g>
</svg>
