<?xml version="1.0" encoding="utf-8"?>
<!-- Generator: Adobe Illustrator 18.0.0, SVG Export Plug-In . SVG Version: 6.00 Build 0)  -->
<!DOCTYPE svg PUBLIC "-//W3C//DTD SVG 1.1//EN" "http://www.w3.org/Graphics/SVG/1.1/DTD/svg11.dtd">
<svg version="1.1" id="Layer_1" xmlns="http://www.w3.org/2000/svg" xmlns:xlink="http://www.w3.org/1999/xlink" x="0px" y="0px"
	 viewBox="0 0 32 32" enable-background="new 0 0 32 32" xml:space="preserve">
<g>
	<path fill="#8F9BA8" d="M24.9,11.4l-4.5-4.5L25,2.2l4.5,4.5L24.9,11.4z M22.5,6.9l2.4,2.4l2.6-2.6L25,4.4L22.5,6.9z"/>
	<path fill="#8F9BA8" d="M8.3,28l-4.5-4.5l2.8-2.8l4.5,4.5L8.3,28z M5.9,23.5l2.4,2.4L9,25.2l-2.4-2.4L5.9,23.5z"/>
	
		<rect x="21.6" y="4.3" transform="matrix(-0.7071 -0.7071 0.7071 -0.7071 42.0739 27.5183)" fill="#8F9BA8" width="10.3" height="1.5"/>
	
		<rect x="3.2" y="24.1" transform="matrix(-0.7071 -0.7071 0.7071 -0.7071 -12.7973 50.1807)" fill="#8F9BA8" width="1.5" height="7.3"/>
	<g>
		
			<rect x="17.8" y="9.2" transform="matrix(-0.707 -0.7072 0.7072 -0.707 25.2053 30.4151)" fill="#8F9BA8" width="2.2" height="1.5"/>
		
			<rect x="14.7" y="12.3" transform="matrix(-0.7071 -0.7071 0.7071 -0.7071 17.7238 33.4409)" fill="#8F9BA8" width="2.2" height="1.5"/>
		
			<rect x="11.6" y="15.3" transform="matrix(-0.7073 -0.7069 0.7069 -0.7073 10.4159 36.3969)" fill="#8F9BA8" width="2.2" height="1.5"/>
		
			<rect x="8.6" y="18.4" transform="matrix(-0.707 -0.7072 0.7072 -0.707 2.9947 39.5927)" fill="#8F9BA8" width="2.2" height="1.5"/>
	</g>
	<path fill="#8F9BA8" d="M12.4,27.5c-0.7,0-1.3-0.3-1.8-0.8L5,21.2c-1-1-1-2.7,0-3.7l14-14l9.2,9.2l-4.9,4.9h-0.5
		c-0.1,0-0.1,0-0.2,0c-0.2,0-0.4,0.1-0.6,0.1c-0.5,0.1-1,0.3-1.5,0.6c-1.7,1-2.8,2.7-3,4.6v0.3l-3.4,3.4
		C13.8,27.2,13.1,27.5,12.4,27.5z M19.1,5.6l-13,13c-0.4,0.4-0.4,1.1,0,1.5l5.5,5.5c0.4,0.4,1.1,0.4,1.5,0l3-3
		c0.3-2.3,1.6-4.3,3.7-5.5c0.6-0.4,1.3-0.6,1.9-0.8c0.2-0.1,0.5-0.1,0.7-0.1c0.1,0,0.2,0,0.2,0l3.5-3.5L19.1,5.6z"/>
	<g>
		<g>
			<path fill="#FAC2C3" d="M23.6,16.9c-0.2,0-0.4,0-0.6,0.1c-0.2,0-0.3,0-0.5,0s-0.4,0.1-0.6,0.1c-0.6,0.2-1.2,0.4-1.7,0.7
				c-1.8,1.1-3.1,3-3.3,5.2c0,0.2,0,0.4,0,0.6l0,0c0,2.5,1.4,4.6,3.4,5.8c0.5,0.3,1.1,0.6,1.7,0.7c0.2,0.1,0.4,0.1,0.6,0.1
				c0.4,0.1,0.7,0.1,1.1,0.1c3.7,0,6.8-3,6.8-6.8l0,0C30.4,19.9,27.4,16.9,23.6,16.9z"/>
			<path fill="#DA8C8C" d="M23.6,31.1c-0.4,0-0.8,0-1.2-0.1c-0.2,0-0.5-0.1-0.7-0.1c-0.6-0.2-1.2-0.4-1.9-0.8
				c-2.3-1.3-3.7-3.8-3.7-6.5c0-0.2,0-0.4,0-0.6c0.2-2.5,1.6-4.7,3.7-5.9c0.6-0.4,1.3-0.6,1.9-0.8c0.2-0.1,0.5-0.1,0.7-0.1
				c0.1,0,0.2,0,0.3,0H23c0.2,0,0.4,0,0.5,0c4.1,0,7.5,3.4,7.5,7.5C31.1,27.8,27.8,31.1,23.6,31.1z M23.6,17.6c-0.1,0-0.2,0-0.4,0
				h-0.4c-0.1,0-0.1,0-0.2,0c-0.2,0-0.4,0.1-0.6,0.1c-0.5,0.1-1,0.3-1.5,0.6c-1.7,1-2.8,2.7-3,4.6V23c0,0.1,0,0.3,0,0.4
				c0,2.1,1.1,4.1,3,5.2c0.5,0.3,1,0.5,1.5,0.6c0.2,0,0.4,0.1,0.5,0.1c0.4,0.1,0.7,0.1,1,0.1c3.3,0,6-2.7,6-6
				C29.6,20.3,26.9,17.6,23.6,17.6z"/>
		</g>
		<g>
			<g>
				<line fill="none" x1="23.6" y1="19.4" x2="23.6" y2="27.9"/>
				<rect x="22.9" y="19.4" fill="#DA8C8C" width="1.5" height="8.5"/>
			</g>
			<g>
				<line fill="none" x1="27.9" y1="23.6" x2="19.4" y2="23.6"/>
				<rect x="19.4" y="22.9" fill="#DA8C8C" width="8.5" height="1.5"/>
			</g>
		</g>
	</g>
</g>
</svg>
