<?xml version="1.0" encoding="utf-8"?>
<!-- Generator: Adobe Illustrator 18.0.0, SVG Export Plug-In . SVG Version: 6.00 Build 0)  -->
<!DOCTYPE svg PUBLIC "-//W3C//DTD SVG 1.1//EN" "http://www.w3.org/Graphics/SVG/1.1/DTD/svg11.dtd">
<svg version="1.1" id="Layer_1" xmlns="http://www.w3.org/2000/svg" xmlns:xlink="http://www.w3.org/1999/xlink" x="0px" y="0px"
	 viewBox="0 0 32 32" enable-background="new 0 0 32 32" xml:space="preserve">
<g>
	<path fill="#8F9BA8" d="M18.8,9.4h-8.6V0.7h8.6V9.4z M11.7,7.9h5.6V2.2h-5.6V7.9z"/>
	<path fill="#8F9BA8" d="M20.1,28.3H0.8V0.7h27.6v19.3l-1.2-0.8c-0.9-0.6-2-0.9-3.1-0.9c-3.1,0-5.7,2.5-5.7,5.7
		c0,1.1,0.3,2.2,0.9,3.1L20.1,28.3z M2.3,26.8h15.2c-0.4-0.9-0.5-1.8-0.5-2.7c0-4,3.2-7.2,7.2-7.2c0.9,0,1.9,0.2,2.7,0.5V2.2H2.3
		V26.8z"/>
	<g>
		<path fill="#CDE4F7" d="M27.6,18.7c-1-0.7-2.2-1-3.5-1c-3.5,0-6.4,2.9-6.4,6.4c0,1.3,0.4,2.5,1,3.5c1.1,1.8,3.1,2.9,5.4,2.9
			c3.5,0,6.4-2.9,6.4-6.4C30.5,21.8,29.3,19.8,27.6,18.7z"/>
		<path fill="#74B1E0" d="M24.1,31.2c-2.4,0-4.7-1.2-6-3.3c-0.8-1.2-1.2-2.5-1.2-3.9c0-4,3.2-7.2,7.2-7.2c1.4,0,2.7,0.4,3.9,1.2
			c2.1,1.3,3.3,3.6,3.3,6C31.3,28,28,31.2,24.1,31.2z M24.1,18.4c-3.1,0-5.7,2.5-5.7,5.7c0,1.1,0.3,2.2,0.9,3.1
			c1.1,1.6,2.8,2.6,4.8,2.6c3.1,0,5.7-2.5,5.7-5.7c0-1.9-1-3.7-2.6-4.8C26.2,18.7,25.2,18.4,24.1,18.4z"/>
	</g>
	<rect x="5.1" y="19.3" fill="#8F9BA8" width="1.5" height="2.6"/>
	<rect x="8.6" y="19.3" fill="#8F9BA8" width="1.5" height="2.6"/>
	<g>
		<g>
			<line fill="#CDE4F7" x1="24.1" y1="20.5" x2="24.1" y2="27.7"/>
			<rect x="23.3" y="20.5" fill="#74B1E0" width="1.5" height="7.2"/>
		</g>
		<g>
			<line fill="#CDE4F7" x1="27.7" y1="24.1" x2="20.5" y2="24.1"/>
			<rect x="20.5" y="23.3" fill="#74B1E0" width="7.2" height="1.5"/>
		</g>
	</g>
</g>
</svg>
