<?xml version="1.0" encoding="utf-8"?>
<!-- Generator: Adobe Illustrator 18.0.0, SVG Export Plug-In . SVG Version: 6.00 Build 0)  -->
<!DOCTYPE svg PUBLIC "-//W3C//DTD SVG 1.1//EN" "http://www.w3.org/Graphics/SVG/1.1/DTD/svg11.dtd">
<svg version="1.1" id="Layer_1" xmlns="http://www.w3.org/2000/svg" xmlns:xlink="http://www.w3.org/1999/xlink" x="0px" y="0px"
	 viewBox="0 0 32 32" enable-background="new 0 0 32 32" xml:space="preserve">
<g>
	<path fill="#DA8C8C" d="M16,31.2C7.6,31.2,0.8,24.4,0.8,16S7.6,0.7,16,0.7c8.4,0,15.3,6.8,15.3,15.3S24.4,31.2,16,31.2z M16,2.2
		C8.4,2.2,2.3,8.4,2.3,16c0,7.6,6.2,13.8,13.8,13.8c7.6,0,13.8-6.2,13.8-13.8C29.8,8.4,23.6,2.2,16,2.2z"/>
	<path fill="#DA8C8C" d="M16,27.6C9.6,27.6,4.4,22.4,4.4,16S9.6,4.4,16,4.4c6.4,0,11.6,5.2,11.6,11.6S22.4,27.6,16,27.6z M16,5.9
		C10.4,5.9,5.9,10.4,5.9,16c0,5.6,4.5,10.1,10.1,10.1c5.6,0,10.1-4.5,10.1-10.1C26.1,10.4,21.6,5.9,16,5.9z"/>
	<polygon fill="#DA8C8C" points="21.5,16.7 15.3,16.7 15.3,9.4 16.8,9.4 16.8,15.2 21.5,15.2 	"/>
</g>
</svg>
