<?xml version="1.0" encoding="utf-8"?>
<!-- Generator: Adobe Illustrator 18.0.0, SVG Export Plug-In . SVG Version: 6.00 Build 0)  -->
<!DOCTYPE svg PUBLIC "-//W3C//DTD SVG 1.1//EN" "http://www.w3.org/Graphics/SVG/1.1/DTD/svg11.dtd">
<svg version="1.1" id="Layer_1" xmlns="http://www.w3.org/2000/svg" xmlns:xlink="http://www.w3.org/1999/xlink" x="0px" y="0px"
	 viewBox="0 0 32 32" enable-background="new 0 0 32 32" xml:space="preserve">
<g>
	<g>
		<g>
			<path fill="#79C693" d="M16,7.6c-1.9,0-3.4-1.5-3.4-3.4s1.5-3.4,3.4-3.4s3.4,1.5,3.4,3.4S17.9,7.6,16,7.6z M16,2.2
				c-1.1,0-1.9,0.9-1.9,1.9s0.9,1.9,1.9,1.9c1.1,0,1.9-0.9,1.9-1.9S17.1,2.2,16,2.2z"/>
			<path fill="#79C693" d="M16,31.2c-1.9,0-3.4-1.5-3.4-3.4c0-1.9,1.5-3.4,3.4-3.4s3.4,1.5,3.4,3.4C19.4,29.7,17.9,31.2,16,31.2z
				 M16,25.9c-1.1,0-1.9,0.9-1.9,1.9c0,1.1,0.9,1.9,1.9,1.9c1.1,0,1.9-0.9,1.9-1.9C17.9,26.8,17.1,25.9,16,25.9z"/>
		</g>
		<g>
			<path fill="#79C693" d="M27.8,19.4c-1.9,0-3.4-1.5-3.4-3.4c0-1.9,1.5-3.4,3.4-3.4c1.9,0,3.4,1.5,3.4,3.4
				C31.3,17.9,29.7,19.4,27.8,19.4z M27.8,14.1c-1.1,0-1.9,0.9-1.9,1.9c0,1.1,0.9,1.9,1.9,1.9c1.1,0,1.9-0.9,1.9-1.9
				S28.9,14.1,27.8,14.1z"/>
			<path fill="#79C693" d="M4.2,19.4c-1.9,0-3.4-1.5-3.4-3.4s1.5-3.4,3.4-3.4c1.9,0,3.4,1.5,3.4,3.4C7.6,17.9,6.1,19.4,4.2,19.4z
				 M4.2,14.1c-1.1,0-1.9,0.9-1.9,1.9c0,1.1,0.9,1.9,1.9,1.9c1.1,0,1.9-0.9,1.9-1.9S5.2,14.1,4.2,14.1z"/>
		</g>
	</g>
	<g>
		<g>
			<path fill="#79C693" d="M24.4,11.1c-0.9,0-1.8-0.4-2.4-1c-1.3-1.3-1.3-3.5,0-4.8c1.3-1.3,3.5-1.3,4.8,0c1.3,1.3,1.3,3.5,0,4.8
				C26.1,10.7,25.3,11.1,24.4,11.1z M24.4,5.7c-0.5,0-1,0.2-1.4,0.6c-0.7,0.7-0.7,2,0,2.7c0.7,0.7,2,0.7,2.7,0c0.7-0.7,0.7-2,0-2.7
				C25.4,5.9,24.9,5.7,24.4,5.7z"/>
			<path fill="#79C693" d="M7.6,27.8c-0.9,0-1.8-0.4-2.4-1c-0.6-0.6-1-1.5-1-2.4c0-0.9,0.4-1.8,1-2.4c1.3-1.3,3.5-1.3,4.8,0
				c0.6,0.6,1,1.5,1,2.4c0,0.9-0.4,1.8-1,2.4C9.4,27.4,8.5,27.8,7.6,27.8z M7.6,22.4c-0.5,0-1,0.2-1.4,0.6c-0.4,0.4-0.6,0.8-0.6,1.4
				c0,0.5,0.2,1,0.6,1.4c0.7,0.7,2,0.7,2.7,0c0.4-0.4,0.6-0.8,0.6-1.4c0-0.5-0.2-1-0.6-1.4C8.6,22.6,8.1,22.4,7.6,22.4z"/>
		</g>
		<g>
			<path fill="#79C693" d="M24.4,27.8c-0.9,0-1.8-0.4-2.4-1c-1.3-1.3-1.3-3.5,0-4.8c1.3-1.3,3.5-1.3,4.8,0c0.6,0.6,1,1.5,1,2.4
				c0,0.9-0.4,1.8-1,2.4C26.1,27.4,25.3,27.8,24.4,27.8z M24.4,22.4c-0.5,0-1,0.2-1.4,0.6c-0.7,0.7-0.7,2,0,2.7c0.7,0.7,2,0.7,2.7,0
				c0.4-0.4,0.6-0.8,0.6-1.4c0-0.5-0.2-1-0.6-1.4C25.4,22.6,24.9,22.4,24.4,22.4z"/>
			<path fill="#79C693" d="M7.6,11.1c-0.9,0-1.8-0.4-2.4-1c-1.3-1.3-1.3-3.5,0-4.8c1.3-1.3,3.5-1.3,4.8,0c0.6,0.6,1,1.5,1,2.4
				c0,0.9-0.4,1.8-1,2.4S8.5,11.1,7.6,11.1z M7.6,5.7c-0.5,0-1,0.2-1.4,0.6C5.5,7,5.5,8.2,6.3,9C7,9.7,8.3,9.7,9,9
				c0.4-0.4,0.6-0.8,0.6-1.4S9.4,6.6,9,6.3C8.6,5.9,8.1,5.7,7.6,5.7z"/>
		</g>
	</g>
</g>
</svg>
