<?xml version="1.0" encoding="utf-8"?>
<!-- Generator: Adobe Illustrator 18.0.0, SVG Export Plug-In . SVG Version: 6.00 Build 0)  -->
<!DOCTYPE svg PUBLIC "-//W3C//DTD SVG 1.1//EN" "http://www.w3.org/Graphics/SVG/1.1/DTD/svg11.dtd">
<svg version="1.1" id="Layer_1" xmlns="http://www.w3.org/2000/svg" xmlns:xlink="http://www.w3.org/1999/xlink" x="0px" y="0px"
	 viewBox="0 0 32 32" enable-background="new 0 0 32 32" xml:space="preserve">
<g>
	<g>
		<rect x="18.1" y="27.7" fill="#74B1E0" width="8.9" height="1.5"/>
		<rect x="5" y="27.7" fill="#74B1E0" width="8.9" height="1.5"/>
	</g>
	<path fill="#74B1E0" d="M16,31.2c-1.5,0-2.8-1.2-2.8-2.8c0-1.5,1.2-2.8,2.8-2.8c1.5,0,2.8,1.2,2.8,2.8C18.8,30,17.5,31.2,16,31.2z
		 M16,27.2c-0.7,0-1.3,0.6-1.3,1.3s0.6,1.3,1.3,1.3c0.7,0,1.3-0.6,1.3-1.3S16.7,27.2,16,27.2z"/>
	<rect x="15.2" y="22.8" fill="#74B1E0" width="1.5" height="3.7"/>
	<path fill="#8F9BA8" d="M25,9.3H7C4.6,9.3,2.7,7.4,2.7,5S4.6,0.7,7,0.7h18c2.4,0,4.3,1.9,4.3,4.3S27.4,9.3,25,9.3z M7,2.2
		C5.5,2.2,4.2,3.5,4.2,5S5.5,7.8,7,7.8h18c1.5,0,2.8-1.3,2.8-2.8S26.5,2.2,25,2.2H7z"/>
	<path fill="#8F9BA8" d="M25,16.4H7c-2.4,0-4.3-1.9-4.3-4.3c0-2.4,1.9-4.3,4.3-4.3h18c2.4,0,4.3,1.9,4.3,4.3
		C29.3,14.5,27.4,16.4,25,16.4z M7,9.3c-1.5,0-2.8,1.3-2.8,2.8s1.3,2.8,2.8,2.8h18c1.5,0,2.8-1.3,2.8-2.8S26.5,9.3,25,9.3H7z"/>
	<path fill="#8F9BA8" d="M25,23.5H7c-2.4,0-4.3-1.9-4.3-4.3c0-2.4,1.9-4.3,4.3-4.3h18c2.4,0,4.3,1.9,4.3,4.3
		C29.3,21.6,27.4,23.5,25,23.5z M7,16.4c-1.5,0-2.8,1.3-2.8,2.8C4.2,20.8,5.5,22,7,22h18c1.5,0,2.8-1.3,2.8-2.8
		c0-1.5-1.3-2.8-2.8-2.8H7z"/>
	<rect x="7.2" y="4.2" fill="#74B1E0" width="1.5" height="1.8"/>
	<rect x="10" y="4.2" fill="#74B1E0" width="1.5" height="1.8"/>
	<rect x="18.4" y="4.3" fill="#74B1E0" width="5.6" height="1.5"/>
	<rect x="7.2" y="11.3" fill="#74B1E0" width="1.5" height="1.8"/>
	<rect x="10" y="11.3" fill="#74B1E0" width="1.5" height="1.8"/>
	<rect x="18.4" y="11.4" fill="#74B1E0" width="5.6" height="1.5"/>
	<rect x="7.2" y="18.4" fill="#74B1E0" width="1.5" height="1.8"/>
	<rect x="10" y="18.4" fill="#74B1E0" width="1.5" height="1.8"/>
	<rect x="18.4" y="18.5" fill="#74B1E0" width="5.6" height="1.5"/>
</g>
</svg>
