<?xml version="1.0" encoding="utf-8"?>
<!-- Generator: Adobe Illustrator 18.0.0, SVG Export Plug-In . SVG Version: 6.00 Build 0)  -->
<!DOCTYPE svg PUBLIC "-//W3C//DTD SVG 1.1//EN" "http://www.w3.org/Graphics/SVG/1.1/DTD/svg11.dtd">
<svg version="1.1" id="Layer_1" xmlns="http://www.w3.org/2000/svg" xmlns:xlink="http://www.w3.org/1999/xlink" x="0px" y="0px"
	 viewBox="0 0 32 32" enable-background="new 0 0 32 32" xml:space="preserve">
<pattern  y="32" width="24.1" height="24.1" patternUnits="userSpaceOnUse" id="SVGID_1_" viewBox="0 -24.1 24.1 24.1" overflow="visible">
	<g>
		<polygon fill="none" points="0,0 24.1,0 24.1,-24.1 0,-24.1 		"/>
		<g>
			<polygon fill="none" points="0,-24.1 24.1,-24.1 24.1,0 0,0 			"/>
			<polygon fill="#E0CB81" points="24.1,-24.1 0,-24.1 0,0 24.1,0 			"/>
		</g>
	</g>
</pattern>
<pattern  y="32" width="24.1" height="24.1" patternUnits="userSpaceOnUse" id="SVGID_2_" viewBox="0 -24.1 24.1 24.1" overflow="visible">
	<g>
		<polygon fill="none" points="0,0 24.1,0 24.1,-24.1 0,-24.1 		"/>
		<g>
			<polygon fill="none" points="0,-24.1 24.1,-24.1 24.1,0 0,0 			"/>
			<polygon fill="#E0CB81" points="24.1,-24.1 0,-24.1 0,0 24.1,0 			"/>
		</g>
	</g>
</pattern>
<g>
	<path fill="#8F9BA8" d="M24.5,25.2h-17c-3.7,0-6.7-3-6.7-6.7c0-2.6,1.5-4.9,3.8-6c0-0.3-0.1-0.6-0.1-0.9c0-3.7,3-6.7,6.7-6.7
		c1,0,2,0.2,3,0.7c1.6-2,4-3.1,6.5-3.1c4.6,0,8.4,3.8,8.4,8.4c0,0.8-0.1,1.6-0.4,2.4c1.6,1.3,2.5,3.2,2.5,5.3
		C31.3,22.2,28.2,25.2,24.5,25.2z M11.2,6.3C8.3,6.3,6,8.7,6,11.6c0,0.4,0,0.8,0.1,1.1l0.1,0.6l-0.6,0.2c-2,0.8-3.4,2.7-3.4,4.9
		c0,2.9,2.3,5.2,5.2,5.2h17c2.9,0,5.2-2.3,5.2-5.2c0-1.8-0.9-3.4-2.3-4.4l-0.5-0.3l0.2-0.6c0.3-0.8,0.4-1.6,0.4-2.4
		c0-3.8-3.1-6.9-6.9-6.9c-2.3,0-4.4,1.1-5.7,3l-0.4,0.6L14,7.1C13.1,6.6,12.2,6.3,11.2,6.3z"/>
	<g>
		<pattern  id="SVGID_3_" xlink:href="#SVGID_1_" patternTransform="matrix(1 0 0 -1 -228.3616 -16165.4961)">
		</pattern>
		<rect x="15.3" y="17.5" fill="url(#SVGID_3_)" width="1.5" height="12"/>
		<pattern  id="SVGID_4_" xlink:href="#SVGID_2_" patternTransform="matrix(1 0 0 -1 -228.3616 -16165.4961)">
		</pattern>
		<polygon fill="url(#SVGID_4_)" points="19.1,21.7 16,18.6 12.9,21.7 11.9,20.6 16,16.5 20.1,20.6 		"/>
	</g>
</g>
</svg>
