<?xml version="1.0" encoding="utf-8"?>
<!-- Generator: Adobe Illustrator 18.0.0, SVG Export Plug-In . SVG Version: 6.00 Build 0)  -->
<!DOCTYPE svg PUBLIC "-//W3C//DTD SVG 1.1//EN" "http://www.w3.org/Graphics/SVG/1.1/DTD/svg11.dtd">
<svg version="1.1" id="Layer_1" xmlns="http://www.w3.org/2000/svg" xmlns:xlink="http://www.w3.org/1999/xlink" x="0px" y="0px"
	 viewBox="0 0 32 32" enable-background="new 0 0 32 32" xml:space="preserve">
<g>
	<g>
		<path fill="#DA8C8C" d="M16,31.2C7.6,31.2,0.8,24.4,0.8,16S7.6,0.7,16,0.7S31.3,7.6,31.3,16S24.4,31.2,16,31.2z M16,2.2
			C8.4,2.2,2.3,8.4,2.3,16S8.4,29.7,16,29.7S29.8,23.6,29.8,16S23.6,2.2,16,2.2z"/>
	</g>
	<g>
		<path fill="#FAC2C3" d="M5.8,17.1c1.6,0.1,1.7,2.5,2.9,3.4C9.4,21,10.3,21,11.1,21c0.4,0,0.9,0,1.2-0.3s0.3-0.7,0.3-1.1
			c0-2-0.1-4-0.1-6c0-0.9-0.1-2-1-2.4C11.1,11,10.6,11,10.2,11c-0.3,0-0.6-0.1-0.8-0.2c-1.5-0.5-1.4-2.5,0-2.9
			c1-0.3,1.9-0.6,2.9-0.9c0.4-0.1,0.8-0.3,1-0.6c0.5-0.6,0.2-1.6-0.2-2.3s-0.8-1.3-1.2-1.9C5.9,3.9,1.5,9.4,1.5,16
			c0,0.7,0.1,1.4,0.2,2.1c1-0.2,2-0.5,3-0.8C5,17.1,5.4,17,5.8,17.1z"/>
		<path fill="#DA8C8C" d="M10.9,21.7C10,21.7,9,21.6,8.3,21c-0.7-0.5-1-1.3-1.4-1.9c-0.4-0.8-0.7-1.3-1.2-1.4
			c-0.3,0-0.5,0.1-0.8,0.2c-0.8,0.3-2,0.6-3.1,0.9L1,19l-0.1-0.8c-0.1-0.8-0.2-1.5-0.2-2.2c0-6.7,4.5-12.7,10.9-14.6l0.5-0.2
			l0.3,0.4c0.5,0.7,0.9,1.4,1.2,2C14.5,5,14.5,6,13.9,6.8c-0.4,0.5-0.9,0.7-1.4,0.9c-0.9,0.3-1.9,0.7-2.9,1c-0.4,0-0.5,0.4-0.5,0.7
			c0,0.1,0,0.5,0.5,0.6c0.2,0.1,0.4,0.1,0.7,0.1c0.1,0,0.2,0,0.3,0c0.4,0,0.9,0,1.3,0.3c1.3,0.7,1.4,2.4,1.4,3.1l0.1,6
			c0,0.4,0,1.1-0.5,1.6c-0.5,0.6-1.3,0.6-1.7,0.6H10.9z M5.6,16.3c0.1,0,0.1,0,0.2,0c1.3,0.1,1.9,1.3,2.3,2.2
			c0.3,0.6,0.6,1.1,0.9,1.4c0.4,0.3,1,0.4,1.7,0.4h0.2c0.4,0,0.6,0,0.6-0.1c0.1-0.1,0.1-0.5,0.1-0.6l-0.1-6c0-0.7-0.1-1.5-0.6-1.8
			c-0.2-0.1-0.4-0.1-0.7-0.1c-0.1,0-0.2,0-0.3,0c-0.3,0-0.7-0.1-1-0.2C8,11.2,7.4,10.4,7.4,9.4S8.1,7.5,9,7.2c1-0.3,1.9-0.6,2.8-0.9
			c0.3-0.1,0.6-0.2,0.7-0.4c0.2-0.2,0.1-0.8-0.3-1.5C12,4,11.7,3.5,11.3,3C5.8,4.9,2,10.2,2,16c0,0.4,0,0.8,0.1,1.2
			c0.8-0.2,1.5-0.4,2.1-0.6C4.8,16.4,5.2,16.3,5.6,16.3z"/>
	</g>
	<g>
		<path fill="#FAC2C3" d="M21.1,5.5c0,0.4,0,0.7,0.3,1s0.8,0.4,1.2,0.4C23.6,7,24.7,7,25.7,7c0.5,0,1-0.1,1.5-0.3
			c-1.6-1.9-3.6-3.3-6-4.2C21,3.4,21,4.5,21.1,5.5z"/>
		<path fill="#DA8C8C" d="M24.5,7.7c-0.7,0-1.4,0-2-0.1c-0.4,0-1.2-0.1-1.7-0.7c-0.4-0.5-0.4-1.1-0.4-1.4c0-1.1-0.1-2.1,0-3.1
			l0.1-0.9l0.9,0.3c2.4,0.9,4.6,2.4,6.3,4.4l0.6,0.7l-0.8,0.4c-0.6,0.3-1.2,0.4-1.8,0.4C25.2,7.7,24.9,7.7,24.5,7.7z M21.8,3.5
			c0,0.6,0,1.2,0,1.9c0,0.2,0,0.5,0.1,0.6s0.3,0.1,0.7,0.2c1,0.1,2,0.1,3,0.1c0,0,0,0,0.1,0C24.5,5.1,23.2,4.2,21.8,3.5z"/>
	</g>
	<g>
		<path fill="#FAC2C3" d="M30.5,16c0-1.2-0.1-2.3-0.4-3.3c-1.4-0.2-2.8-0.7-4.1-1.1c-0.8-0.3-1.6-0.6-2.5-0.8
			c-1.3-0.5-2.9-0.9-4.1-0.2c-1,0.6-1.4,1.8-1.8,3c-0.2,0.7-0.4,1.4-0.1,2c0.5,0.9,1.8,0.9,2.8,1.3c1.5,0.7,2.2,2.5,2,4.2
			c-0.2,1.6-1,3.1-1.7,4.6c-0.7,1.4-1.3,2.9-1.2,4.4C25.7,28.6,30.5,22.9,30.5,16z"/>
		<path fill="#DA8C8C" d="M18.6,31v-0.9c-0.1-1.7,0.6-3.4,1.3-4.8l0.3-0.5c0.7-1.3,1.3-2.5,1.4-3.8s-0.3-2.9-1.5-3.4
			c-0.3-0.1-0.6-0.2-0.9-0.3c-0.8-0.2-1.8-0.5-2.3-1.4s-0.2-2,0-2.6c0.3-1,0.8-2.6,2.1-3.4c0.5-0.3,1.2-0.5,1.9-0.5
			c0.9,0,1.9,0.3,2.8,0.6l2.5,0.8c1.3,0.4,2.7,0.9,4,1.1l0.5,0.1l0.1,0.5c0.3,1.2,0.4,2.4,0.4,3.5c0,7.1-4.8,13.2-11.8,14.8L18.6,31
			z M20.9,10.9c-0.4,0-0.8,0.1-1.1,0.3c-0.8,0.5-1.1,1.5-1.5,2.6c-0.2,0.5-0.3,1.1-0.1,1.4c0.2,0.3,0.6,0.5,1.3,0.7
			c0.4,0.1,0.7,0.2,1.1,0.4c1.9,0.9,2.6,3.2,2.4,5c-0.2,1.6-0.9,3-1.6,4.4L21.2,26c-0.5,1-0.9,2-1.1,3.1c5.7-1.8,9.7-7,9.7-13.1
			c0-0.9-0.1-1.8-0.3-2.7c-1.3-0.2-2.6-0.7-3.8-1.1l-2.5-0.8C22.5,11.2,21.6,10.9,20.9,10.9z"/>
	</g>
</g>
</svg>
