<?xml version="1.0" encoding="utf-8"?>
<!-- Generator: Adobe Illustrator 18.0.0, SVG Export Plug-In . SVG Version: 6.00 Build 0)  -->
<!DOCTYPE svg PUBLIC "-//W3C//DTD SVG 1.1//EN" "http://www.w3.org/Graphics/SVG/1.1/DTD/svg11.dtd">
<svg version="1.1" id="Layer_1" xmlns="http://www.w3.org/2000/svg" xmlns:xlink="http://www.w3.org/1999/xlink" x="0px" y="0px"
	 viewBox="0 0 32 32" enable-background="new 0 0 32 32" xml:space="preserve">
<g>
	<path fill="#8F9BA8" d="M24.5,27.4h-17c-3.7,0-6.7-3-6.7-6.7c0-2.6,1.5-4.9,3.8-6c0-0.3-0.1-0.6-0.1-0.9c0-3.7,3-6.7,6.7-6.7
		c1,0,2,0.2,3,0.7c1.6-2,4-3.1,6.5-3.1c4.6,0,8.4,3.8,8.4,8.4c0,0.8-0.1,1.6-0.4,2.4c1.6,1.3,2.5,3.2,2.5,5.3
		C31.3,24.4,28.2,27.4,24.5,27.4z M11.2,8.5C8.3,8.5,6,10.9,6,13.8c0,0.4,0,0.8,0.1,1.1l0.1,0.6l-0.6,0.2c-2,0.8-3.4,2.7-3.4,4.9
		c0,2.9,2.3,5.2,5.2,5.2h17c2.9,0,5.2-2.3,5.2-5.2c0-1.8-0.9-3.4-2.3-4.4L26.9,16l0.2-0.6c0.3-0.8,0.4-1.6,0.4-2.4
		c0-3.8-3.1-6.9-6.9-6.9c-2.3,0-4.4,1.1-5.7,3l-0.4,0.6L14,9.3C13.1,8.8,12.2,8.5,11.2,8.5z"/>
	<g>
		<g>
			<path fill="#F2E8B9" d="M19.9,20.6h-1.8c-0.4,0-0.7-0.3-0.7-0.7v-5.2c0-0.4,0.3-0.7,0.7-0.7h1.8c0.4,0,0.7,0.3,0.7,0.7v5.2
				C20.6,20.3,20.3,20.6,19.9,20.6z"/>
			<path fill="#B4A042" d="M19.9,21.4h-1.8c-0.8,0-1.5-0.7-1.5-1.5v-5.2c0-0.8,0.7-1.5,1.5-1.5h1.8c0.8,0,1.5,0.7,1.5,1.5v5.2
				C21.4,20.7,20.7,21.4,19.9,21.4z M19.9,14.7l-1.8,0l0,5.2l1.7,0V14.7z"/>
		</g>
		<g>
			<path fill="#F2E8B9" d="M13.9,20.6h-1.8c-0.4,0-0.7-0.3-0.7-0.7v-5.2c0-0.4,0.3-0.7,0.7-0.7h1.8c0.4,0,0.7,0.3,0.7,0.7v5.2
				C14.6,20.3,14.3,20.6,13.9,20.6z"/>
			<path fill="#B4A042" d="M13.9,21.4h-1.8c-0.8,0-1.5-0.7-1.5-1.5v-5.2c0-0.8,0.7-1.5,1.5-1.5h1.8c0.8,0,1.5,0.7,1.5,1.5v5.2
				C15.3,20.7,14.7,21.4,13.9,21.4z M13.8,14.7l-1.8,0l0,5.2l1.7,0V14.7z"/>
		</g>
	</g>
</g>
</svg>
