<?xml version="1.0" encoding="utf-8"?>
<!-- Generator: Adobe Illustrator 18.0.0, SVG Export Plug-In . SVG Version: 6.00 Build 0)  -->
<!DOCTYPE svg PUBLIC "-//W3C//DTD SVG 1.1//EN" "http://www.w3.org/Graphics/SVG/1.1/DTD/svg11.dtd">
<svg version="1.1" id="Layer_1" xmlns="http://www.w3.org/2000/svg" xmlns:xlink="http://www.w3.org/1999/xlink" x="0px" y="0px"
	 viewBox="0 0 32 32" enable-background="new 0 0 32 32" xml:space="preserve">
<g>
	<rect x="18.1" y="27.7" fill="#79C693" width="8.9" height="1.5"/>
	<rect x="5" y="27.7" fill="#79C693" width="8.9" height="1.5"/>
	<path fill="#79C693" d="M16,31.2c-1.5,0-2.8-1.2-2.8-2.8c0-1.5,1.2-2.8,2.8-2.8c1.5,0,2.8,1.2,2.8,2.8C18.8,30,17.5,31.2,16,31.2z
		 M16,27.2c-0.7,0-1.3,0.6-1.3,1.3s0.6,1.3,1.3,1.3s1.3-0.6,1.3-1.3S16.7,27.2,16,27.2z"/>
	<rect x="15.3" y="22.8" fill="#79C693" width="1.5" height="3.7"/>
	<path fill="#8F9BA8" d="M24.5,23.5h-17c-3.7,0-6.7-3-6.7-6.7c0-2.6,1.5-4.9,3.8-6c0-0.3-0.1-0.6-0.1-0.9c0-3.7,3-6.7,6.7-6.7
		c1,0,2,0.2,3,0.7c1.6-2,4-3.1,6.5-3.1c4.6,0,8.4,3.8,8.4,8.4c0,0.8-0.1,1.6-0.4,2.4c1.6,1.3,2.5,3.2,2.5,5.3
		C31.3,20.5,28.2,23.5,24.5,23.5z M11.2,4.7C8.3,4.7,6,7,6,9.9c0,0.4,0,0.8,0.1,1.1l0.1,0.6l-0.6,0.2c-2,0.8-3.4,2.7-3.4,4.9
		c0,2.9,2.3,5.2,5.2,5.2h17c2.9,0,5.2-2.3,5.2-5.2c0-1.8-0.9-3.4-2.3-4.4l-0.5-0.3l0.2-0.6c0.3-0.8,0.4-1.6,0.4-2.4
		c0-3.8-3.1-6.9-6.9-6.9c-2.3,0-4.4,1.1-5.7,3l-0.4,0.6L14,5.5C13.1,4.9,12.2,4.7,11.2,4.7z"/>
	<path fill="#79C693" d="M19.9,17.5h-1.8c-0.8,0-1.5-0.7-1.5-1.5v-5.2c0-0.8,0.7-1.5,1.5-1.5h1.8c0.8,0,1.5,0.7,1.5,1.5v5.2
		C21.4,16.9,20.7,17.5,19.9,17.5z M19.9,10.8l-1.8,0l0,5.2l1.7,0V10.8z"/>
	<path fill="#79C693" d="M13.9,17.5h-1.8c-0.8,0-1.5-0.7-1.5-1.5v-5.2c0-0.8,0.7-1.5,1.5-1.5h1.8c0.8,0,1.5,0.7,1.5,1.5v5.2
		C15.3,16.9,14.7,17.5,13.9,17.5z M13.8,10.8l-1.8,0l0,5.2l1.7,0V10.8z"/>
</g>
</svg>
