<?xml version="1.0" encoding="utf-8"?>
<!-- Generator: Adobe Illustrator 18.0.0, SVG Export Plug-In . SVG Version: 6.00 Build 0)  -->
<!DOCTYPE svg PUBLIC "-//W3C//DTD SVG 1.1//EN" "http://www.w3.org/Graphics/SVG/1.1/DTD/svg11.dtd">
<svg version="1.1" id="Layer_1" xmlns="http://www.w3.org/2000/svg" xmlns:xlink="http://www.w3.org/1999/xlink" x="0px" y="0px"
	 viewBox="0 0 32 32" enable-background="new 0 0 32 32" xml:space="preserve">
<g>
	<g>
		<path fill="#FAC2C3" d="M8.2,13.3c0.9-0.6,2-1,3.2-1c1.1,0,2.2,0.3,3.1,0.9c0.4-0.5,0.8-1,1.3-1.5c1.3-1.1,2.9-1.8,4.8-1.8
			c0.3,0,0.6,0,0.9,0.1c-0.3-0.6-0.8-1.1-1.3-1.5c0.2-0.6,0.3-1.2,0.3-1.8c0-2.9-2.3-5.2-5.2-5.2c-1.3,0-2.5,0.5-3.4,1.2
			c-0.4,0.3-0.7,0.6-0.9,1c-0.6-0.4-1.4-0.6-2.2-0.6C7.8,3.2,7,3.4,6.4,3.8c-1.1,0.7-1.8,2-1.8,3.4c0,0.3,0,0.6,0.1,0.9
			C3.1,8.7,2,10.2,2,12c0,2.2,1.8,4,4,4.1C6.4,14.9,7.2,13.9,8.2,13.3z"/>
		<path fill="#DA8C8C" d="M6.5,16.8l-0.5,0c-2.6-0.1-4.7-2.2-4.7-4.8c0-1.8,1-3.4,2.6-4.3c0-0.1,0-0.3,0-0.4c0-1.6,0.8-3.1,2.2-4
			c1.4-0.9,3.2-1.1,4.6-0.4c0.2-0.2,0.4-0.4,0.7-0.6c1.1-0.9,2.5-1.4,3.9-1.4c3.3,0,6,2.7,6,6c0,0.5-0.1,1-0.2,1.6
			c0.5,0.4,0.8,0.9,1.1,1.4l0.7,1.3l-1.4-0.2c-1.8-0.2-3.7,0.3-5.1,1.5c-0.5,0.4-0.9,0.8-1.2,1.3l-0.4,0.6L14,13.8
			c-1.6-1-3.8-1-5.4,0.1c-0.9,0.6-1.5,1.4-1.9,2.4L6.5,16.8z M8.7,3.9C8,3.9,7.4,4.1,6.8,4.5C5.9,5.1,5.3,6.1,5.3,7.3
			c0,0.2,0,0.5,0.1,0.7l0.1,0.6L4.9,8.8C3.6,9.3,2.8,10.6,2.8,12c0,1.6,1.2,3,2.7,3.3c0.5-1.1,1.3-1.9,2.3-2.6
			c1.9-1.3,4.4-1.4,6.5-0.4c0.3-0.4,0.7-0.7,1-1.1c1.3-1.1,2.8-1.7,4.5-1.9c0,0-0.1-0.1-0.1-0.1l-0.5-0.3l0.2-0.6
			c0.2-0.5,0.3-1,0.3-1.6c0-2.5-2-4.5-4.5-4.5c-1.1,0-2.1,0.4-2.9,1.1c-0.3,0.3-0.6,0.6-0.8,0.9L11,4.8l-0.6-0.4
			C9.9,4.1,9.3,3.9,8.7,3.9z"/>
	</g>
	<path fill="#8F9BA8" d="M24.2,31.2H7.8c-3.6,0-6.5-2.9-6.5-6.5c0-2.5,1.4-4.8,3.6-5.8c0-0.3-0.1-0.5-0.1-0.8c0-0.8,0.1-1.6,0.4-2.3
		c0.5-1.3,1.3-2.4,2.5-3.1c1.9-1.3,4.4-1.4,6.5-0.4c0.3-0.4,0.7-0.7,1-1.1c1.7-1.5,4-2.1,6.2-1.9c4.1,0.5,7.2,3.9,7.2,8.1
		c0,0.8-0.1,1.5-0.3,2.3c1.5,1.2,2.4,3.1,2.4,5.1C30.7,28.3,27.8,31.2,24.2,31.2z M11.4,13.1c-1,0-2,0.3-2.8,0.8
		c-0.9,0.6-1.5,1.4-1.9,2.4c-0.2,0.6-0.3,1.2-0.3,1.8c0,0.4,0,0.7,0.1,1.1l0.1,0.6L6,20c-1.9,0.7-3.2,2.6-3.2,4.7c0,2.8,2.3,5,5,5
		h16.4c2.8,0,5-2.3,5-5c0-1.7-0.8-3.2-2.2-4.2l-0.5-0.3l0.2-0.6c0.3-0.8,0.4-1.5,0.4-2.3c0-3.4-2.5-6.2-5.9-6.6
		c-1.8-0.2-3.7,0.3-5.1,1.5c-0.5,0.4-0.9,0.8-1.2,1.3l-0.4,0.6L14,13.8C13.2,13.3,12.3,13.1,11.4,13.1z"/>
</g>
</svg>
