<?xml version="1.0" encoding="utf-8"?>
<!-- Generator: Adobe Illustrator 18.0.0, SVG Export Plug-In . SVG Version: 6.00 Build 0)  -->
<!DOCTYPE svg PUBLIC "-//W3C//DTD SVG 1.1//EN" "http://www.w3.org/Graphics/SVG/1.1/DTD/svg11.dtd">
<svg version="1.1" id="Layer_1" xmlns="http://www.w3.org/2000/svg" xmlns:xlink="http://www.w3.org/1999/xlink" x="0px" y="0px"
	 viewBox="0 0 32 32" enable-background="new 0 0 32 32" xml:space="preserve">
<g>
	<g>
		<rect x="18.1" y="27.8" fill="#B4A79C" width="8.9" height="1.5"/>
		<rect x="5" y="27.8" fill="#B4A79C" width="8.9" height="1.5"/>
	</g>
	<path fill="#B4A79C" d="M16,31.4c-1.5,0-2.8-1.2-2.8-2.8c0-1.5,1.2-2.8,2.8-2.8c1.5,0,2.8,1.2,2.8,2.8C18.8,30.1,17.5,31.4,16,31.4
		z M16,27.3c-0.7,0-1.3,0.6-1.3,1.3c0,0.7,0.6,1.3,1.3,1.3c0.7,0,1.3-0.6,1.3-1.3C17.3,27.9,16.7,27.3,16,27.3z"/>
	<rect x="15.2" y="22.9" fill="#B4A79C" width="1.5" height="3.7"/>
	<path fill="#8F9BA8" d="M24.6,23.6H7.4V11.3H3.1L16,0.6l12.9,10.7h-4.3V23.6z M8.9,22.1h14.2V9.8h1.7L16,2.6L7.3,9.8h1.7V22.1z"/>
	<g>
		<circle fill="#F2E8B9" cx="16" cy="12.9" r="2.9"/>
		<path fill="#B4A042" d="M16,16.5c-2,0-3.7-1.7-3.7-3.7S14,9.2,16,9.2s3.7,1.6,3.7,3.7S18,16.5,16,16.5z M16,10.7
			c-1.2,0-2.2,1-2.2,2.2s1,2.2,2.2,2.2s2.2-1,2.2-2.2S17.2,10.7,16,10.7z"/>
	</g>
</g>
</svg>
