<?xml version="1.0" encoding="utf-8"?>
<!-- Generator: Adobe Illustrator 18.0.0, SVG Export Plug-In . SVG Version: 6.00 Build 0)  -->
<!DOCTYPE svg PUBLIC "-//W3C//DTD SVG 1.1//EN" "http://www.w3.org/Graphics/SVG/1.1/DTD/svg11.dtd">
<svg version="1.1" id="Layer_1" xmlns="http://www.w3.org/2000/svg" xmlns:xlink="http://www.w3.org/1999/xlink" x="0px" y="0px"
	 viewBox="0 0 32 32" enable-background="new 0 0 32 32" xml:space="preserve">
<g>
	<g>
		<rect x="18.1" y="27.7" fill="#74B1E0" width="8.9" height="1.5"/>
		<rect x="5" y="27.7" fill="#74B1E0" width="8.9" height="1.5"/>
	</g>
	<path fill="#74B1E0" d="M16,31.2c-1.5,0-2.8-1.2-2.8-2.8c0-1.5,1.2-2.8,2.8-2.8c1.5,0,2.8,1.2,2.8,2.8C18.8,30,17.5,31.2,16,31.2z
		 M16,27.2c-0.7,0-1.3,0.6-1.3,1.3s0.6,1.3,1.3,1.3s1.3-0.6,1.3-1.3S16.7,27.2,16,27.2z"/>
	<rect x="15.3" y="22.8" fill="#74B1E0" width="1.5" height="3.7"/>
	<path fill="#8F9BA8" d="M31.3,23.5H0.8V6.4l30.5,0V23.5z M2.3,22h27.5V7.9l-27.5,0V22z"/>
	<g>
		<rect x="1.5" y="1.5" fill="#CDE4F7" width="29" height="5.6"/>
		<path fill="#74B1E0" d="M31.3,7.9l-30.5,0V0.7l30.5,0V7.9z M2.3,6.4l27.5,0V2.3l-27.5,0V6.4z"/>
	</g>
	<g>
		<rect x="17.2" y="3.6" fill="#74B1E0" width="1.5" height="1.3"/>
		<rect x="21.7" y="3.6" fill="#74B1E0" width="1.5" height="1.3"/>
		<rect x="26.3" y="3.6" fill="#74B1E0" width="1.5" height="1.3"/>
	</g>
</g>
</svg>
