<?xml version="1.0" encoding="utf-8"?>
<!-- Generator: Adobe Illustrator 18.0.0, SVG Export Plug-In . SVG Version: 6.00 Build 0)  -->
<!DOCTYPE svg PUBLIC "-//W3C//DTD SVG 1.1//EN" "http://www.w3.org/Graphics/SVG/1.1/DTD/svg11.dtd">
<svg version="1.1" id="Layer_1" xmlns="http://www.w3.org/2000/svg" xmlns:xlink="http://www.w3.org/1999/xlink" x="0px" y="0px"
	 viewBox="0 0 32 32" enable-background="new 0 0 32 32" xml:space="preserve">
<g>
	<path fill="#8F9BA8" d="M24.5,23.5h-3.1l0.3-1c0.7-2.3,0.9-4.5,0.9-5.6c-2.5-0.1-5.1-1.2-6.6-2c-1.5,0.8-4.1,1.9-6.6,2
		c0.1,1.1,0.3,3.3,1,5.6l0.3,1H7.5c-3.7,0-6.7-3-6.7-6.7c0-2.6,1.5-4.9,3.8-6c0-0.3-0.1-0.6-0.1-0.9c0-3.7,3-6.7,6.7-6.7
		c1,0,2,0.2,3,0.7c1.6-2,4-3.1,6.5-3.1c4.6,0,8.4,3.8,8.4,8.4c0,0.8-0.1,1.6-0.4,2.4c1.6,1.3,2.5,3.2,2.5,5.3
		C31.3,20.5,28.2,23.5,24.5,23.5z M23.4,22h1.2c2.9,0,5.2-2.3,5.2-5.2c0-1.8-0.9-3.4-2.3-4.4l-0.5-0.3l0.2-0.6
		c0.3-0.8,0.4-1.6,0.4-2.4c0-3.8-3.1-6.9-6.9-6.9c-2.3,0-4.4,1.1-5.7,3l-0.4,0.6L14,5.5c-0.8-0.5-1.8-0.8-2.8-0.8C8.3,4.7,6,7,6,9.9
		c0,0.4,0,0.8,0.1,1.1l0.1,0.6l-0.6,0.2c-2,0.8-3.4,2.7-3.4,4.9c0,2.9,2.3,5.2,5.2,5.2h1.2c-0.8-3.1-0.8-5.7-0.8-5.9l0-0.8l0.8,0.1
		c2.5,0.2,5.5-1.2,7-2l0.4-0.2l0.4,0.2c1.5,0.8,4.4,2.2,7,2l0.8-0.1l0,0.8C24.1,16.3,24.1,18.9,23.4,22z"/>
	<g>
		<path fill="#FAC2C3" d="M16,14c-1.5,0.8-4.6,2.3-7.4,2.1c0,0,0,3.2,1,6.6c0.9,3.2,2.8,6.6,6.4,7.7c3.6-1,5.5-4.4,6.4-7.7
			c1-3.4,1-6.6,1-6.6C20.6,16.3,17.5,14.9,16,14z"/>
		<path fill="#DA8C8C" d="M16,31.3l-0.2-0.1c-3.2-1-5.6-3.8-6.9-8.2c-1-3.5-1-6.7-1-6.8l0-0.8l0.8,0.1c2.5,0.2,5.5-1.2,7-2l0.4-0.2
			l0.4,0.2c1.5,0.8,4.4,2.2,7,2l0.8-0.1l0,0.8c0,0.1,0,3.4-1,6.8c-1.3,4.5-3.7,7.4-6.9,8.2L16,31.3z M9.4,16.9
			c0.1,1.1,0.3,3.3,1,5.6c1.1,3.8,3,6.2,5.7,7.1c2.6-0.8,4.5-3.2,5.7-7.1c0.7-2.3,0.9-4.5,0.9-5.6c-2.5-0.1-5.1-1.2-6.6-2
			C14.5,15.7,11.9,16.8,9.4,16.9z"/>
	</g>
</g>
</svg>
