<?xml version="1.0" encoding="utf-8"?>
<!-- Generator: Adobe Illustrator 18.0.0, SVG Export Plug-In . SVG Version: 6.00 Build 0)  -->
<!DOCTYPE svg PUBLIC "-//W3C//DTD SVG 1.1//EN" "http://www.w3.org/Graphics/SVG/1.1/DTD/svg11.dtd">
<svg version="1.1" id="Layer_1" xmlns="http://www.w3.org/2000/svg" xmlns:xlink="http://www.w3.org/1999/xlink" x="0px" y="0px"
	 viewBox="0 0 32 32" enable-background="new 0 0 32 32" xml:space="preserve">
<g>
	<g>
		<path fill="#79C693" d="M29.9,31.3H3.3V15.2h26.5v16.1H29.9z M4.8,29.8h23.5V16.7H4.8V29.8z"/>
	</g>
	<g>
		<path fill="#79C693" d="M29.9,16.7H3.3v-5.6h26.5v5.6H29.9z M4.8,15.2h23.5v-2.6H4.8V15.2z"/>
	</g>
	<g>
		
			<rect x="24.6" y="10.5" transform="matrix(-0.6261 -0.7797 0.7797 -0.6261 30.366 42.3845)" fill="#79C693" width="1.5" height="6.8"/>
	</g>
	<g>
		
			<rect x="15.9" y="10.5" transform="matrix(-0.6261 -0.7797 0.7797 -0.6261 16.1778 35.6343)" fill="#79C693" width="1.5" height="6.8"/>
	</g>
	<g>
		
			<rect x="7.1" y="10.5" transform="matrix(-0.6261 -0.7797 0.7797 -0.6261 1.95 28.7097)" fill="#79C693" width="1.5" height="6.8"/>
	</g>
	<g>
		<path fill="#79C693" d="M3.5,12.7L2.1,7.3l25.7-6.6l1.4,5.4L3.5,12.7z M4,8.3l0.6,2.5L27.4,5l-0.6-2.5L4,8.3z"/>
	</g>
	<g>
		
			<rect x="3.8" y="8.1" transform="matrix(-0.9109 -0.4126 0.4126 -0.9109 10.1093 19.8666)" fill="#79C693" width="6.8" height="1.5"/>
	</g>
	<g>
		
			<rect x="12.7" y="5.9" transform="matrix(-0.9109 -0.4125 0.4125 -0.9109 28.0367 19.371)" fill="#79C693" width="6.8" height="1.5"/>
	</g>
	<g>
		
			<rect x="20.7" y="3.8" transform="matrix(-0.9109 -0.4125 0.4125 -0.9109 44.1571 18.5914)" fill="#79C693" width="6.8" height="1.5"/>
	</g>
</g>
</svg>
