<?xml version="1.0" encoding="utf-8"?>
<!-- Generator: Adobe Illustrator 18.0.0, SVG Export Plug-In . SVG Version: 6.00 Build 0)  -->
<!DOCTYPE svg PUBLIC "-//W3C//DTD SVG 1.1//EN" "http://www.w3.org/Graphics/SVG/1.1/DTD/svg11.dtd">
<svg version="1.1" id="Layer_1" xmlns="http://www.w3.org/2000/svg" xmlns:xlink="http://www.w3.org/1999/xlink" x="0px" y="0px"
	 viewBox="0 0 32 32" enable-background="new 0 0 32 32" xml:space="preserve">
<g>
	<g>
		<path fill="#B4A79C" d="M24.5,27.4h-17c-3.7,0-6.7-3-6.7-6.7c0-2.6,1.5-4.9,3.8-6c0-0.3-0.1-0.6-0.1-0.9c0-3.7,3-6.7,6.7-6.7
			c1,0,2,0.2,3,0.7c1.6-2,4-3.1,6.5-3.1c4.6,0,8.4,3.8,8.4,8.4c0,0.8-0.1,1.6-0.4,2.4c1.6,1.3,2.5,3.2,2.5,5.3
			C31.3,24.4,28.2,27.4,24.5,27.4z M11.2,8.5C8.3,8.5,6,10.9,6,13.8c0,0.4,0,0.8,0.1,1.1l0.1,0.6l-0.6,0.2c-2,0.8-3.4,2.7-3.4,4.9
			c0,2.9,2.3,5.2,5.2,5.2h17c2.9,0,5.2-2.3,5.2-5.2c0-1.8-0.9-3.4-2.3-4.4L26.9,16l0.2-0.6c0.3-0.8,0.4-1.6,0.4-2.4
			c0-3.8-3.1-6.9-6.9-6.9c-2.3,0-4.4,1.1-5.7,3l-0.4,0.6L14,9.3C13.1,8.8,12.2,8.5,11.2,8.5z"/>
	</g>
	<rect x="9.5" y="17.2" fill="#B4A79C" width="1.5" height="3"/>
	<rect x="15.3" y="17.2" fill="#B4A79C" width="1.5" height="3"/>
	<rect x="21" y="17.2" fill="#B4A79C" width="1.5" height="3"/>
</g>
</svg>
