<?xml version="1.0" encoding="utf-8"?>
<!-- Generator: Adobe Illustrator 18.0.0, SVG Export Plug-In . SVG Version: 6.00 Build 0)  -->
<!DOCTYPE svg PUBLIC "-//W3C//DTD SVG 1.1//EN" "http://www.w3.org/Graphics/SVG/1.1/DTD/svg11.dtd">
<svg version="1.1" id="Layer_1" xmlns="http://www.w3.org/2000/svg" xmlns:xlink="http://www.w3.org/1999/xlink" x="0px" y="0px"
	 viewBox="0 0 32 32" enable-background="new 0 0 32 32" xml:space="preserve">
<g>
	<path fill="#8F9BA8" d="M24.5,24.7H20c-0.3,0-0.6-0.2-0.7-0.5c-0.1-0.3,0-0.6,0.2-0.8l2.4-2.4l-3.7-0.5c-0.2,0-0.5-0.2-0.6-0.4
		L16,16.7l-1.7,3.4c-0.1,0.2-0.3,0.4-0.6,0.4L10.1,21l2.4,2.4c0.2,0.2,0.3,0.5,0.2,0.8c-0.1,0.3-0.4,0.5-0.7,0.5H7.5
		c-3.7,0-6.7-3-6.7-6.7c0-2.6,1.5-4.9,3.8-6c0-0.3-0.1-0.6-0.1-0.9c0-3.7,3-6.7,6.7-6.7c1,0,2,0.2,3,0.7c1.6-2,4-3.1,6.5-3.1
		c4.6,0,8.4,3.8,8.4,8.4c0,0.8-0.1,1.6-0.4,2.4c1.6,1.3,2.5,3.2,2.5,5.3C31.3,21.6,28.2,24.7,24.5,24.7z M21.9,23.2h2.6
		c2.9,0,5.2-2.3,5.2-5.2c0-1.8-0.9-3.4-2.3-4.4c-0.3-0.2-0.4-0.6-0.3-0.9c0.3-0.8,0.4-1.6,0.4-2.4c0-3.8-3.1-6.9-6.9-6.9
		c-2.3,0-4.4,1.1-5.7,3c-0.2,0.3-0.7,0.4-1,0.2c-0.8-0.5-1.8-0.8-2.8-0.8C8.3,5.8,6,8.2,6,11c0,0.4,0,0.8,0.1,1.1
		C6.2,12.5,6,12.9,5.6,13c-2,0.8-3.4,2.7-3.4,4.9c0,2.9,2.3,5.2,5.2,5.2h2.6L7.9,21c-0.2-0.2-0.3-0.5-0.2-0.8
		c0.1-0.3,0.3-0.5,0.6-0.5l4.8-0.7l2.2-4.4c0.3-0.5,1.1-0.5,1.3,0l2.2,4.4l4.8,0.7c0.3,0,0.5,0.2,0.6,0.5c0.1,0.3,0,0.6-0.2,0.8
		L21.9,23.2z"/>
	<g>
		<polygon fill="#CDE4F7" points="20,23.9 23.5,20.5 18.3,19.8 16,15 13.7,19.8 8.5,20.5 12,23.9 12.2,24.2 11.3,29.4 16,26.9 
			20.7,29.4 19.8,24.2 		"/>
		<path fill="#74B1E0" d="M20.7,30.1c-0.1,0-0.2,0-0.3-0.1L16,27.8L11.7,30c-0.3,0.1-0.6,0.1-0.8-0.1c-0.2-0.2-0.3-0.5-0.3-0.7
			l0.8-4.8L7.9,21c-0.2-0.2-0.3-0.5-0.2-0.8c0.1-0.3,0.3-0.5,0.6-0.5l4.8-0.7l2.2-4.4c0.3-0.5,1.1-0.5,1.3,0l2.2,4.4l4.8,0.7
			c0.3,0,0.5,0.2,0.6,0.5c0.1,0.3,0,0.6-0.2,0.8l-3.5,3.4l0.8,4.8c0,0.3-0.1,0.6-0.3,0.7C21,30.1,20.8,30.1,20.7,30.1z M16,26.2
			c0.1,0,0.2,0,0.3,0.1l3.3,1.7L19,24.3c0-0.2,0-0.5,0.2-0.7l2.7-2.6l-3.7-0.5c-0.2,0-0.5-0.2-0.6-0.4L16,16.7l-1.7,3.4
			c-0.1,0.2-0.3,0.4-0.6,0.4L10.1,21l2.7,2.6c0.2,0.2,0.3,0.4,0.2,0.7L12.3,28l3.3-1.7C15.8,26.2,15.9,26.2,16,26.2z"/>
	</g>
</g>
</svg>
