<?xml version="1.0" encoding="utf-8"?>
<!-- Generator: Adobe Illustrator 18.0.0, SVG Export Plug-In . SVG Version: 6.00 Build 0)  -->
<!DOCTYPE svg PUBLIC "-//W3C//DTD SVG 1.1//EN" "http://www.w3.org/Graphics/SVG/1.1/DTD/svg11.dtd">
<svg version="1.1" id="Layer_1" xmlns="http://www.w3.org/2000/svg" xmlns:xlink="http://www.w3.org/1999/xlink" x="0px" y="0px"
	 viewBox="0 0 32 32" enable-background="new 0 0 32 32" xml:space="preserve">
<g>
	<path fill="#8F9BA8" d="M24.5,25.5h-5.7l1.3-1.3c2.4-2.4,3.6-4.6,3.6-6.7c0-2.2-1.8-4-4-4c-1.2,0-2.4,0.6-3.2,1.6L16,15.8L15.4,15
		c-0.8-1-1.9-1.6-3.2-1.6c-2.2,0-4,1.8-4,4c0,2.1,1.2,4.3,3.6,6.7l1.3,1.3H7.5c-3.7,0-6.7-3-6.7-6.7c0-2.6,1.5-4.9,3.8-6
		c0-0.3-0.1-0.6-0.1-0.9c0-3.7,3-6.7,6.7-6.7c1,0,2,0.2,3,0.7c1.6-2,4-3.1,6.5-3.1c4.6,0,8.4,3.8,8.4,8.4c0,0.8-0.1,1.6-0.4,2.4
		c1.6,1.3,2.5,3.2,2.5,5.3C31.3,22.5,28.2,25.5,24.5,25.5z M22.4,24h2.1c2.9,0,5.2-2.3,5.2-5.2c0-1.8-0.9-3.4-2.3-4.4l-0.5-0.3
		l0.2-0.6c0.3-0.8,0.4-1.6,0.4-2.4c0-3.8-3.1-6.9-6.9-6.9c-2.3,0-4.4,1.1-5.7,3l-0.4,0.6L14,7.4c-0.8-0.5-1.8-0.8-2.8-0.8
		C8.3,6.6,6,9,6,11.9c0,0.4,0,0.8,0.1,1.1l0.1,0.6l-0.6,0.2c-2,0.8-3.4,2.7-3.4,4.9c0,2.9,2.3,5.2,5.2,5.2h2.1
		c-1.9-2.2-2.9-4.4-2.9-6.5c0-3,2.5-5.5,5.5-5.5c1.4,0,2.7,0.5,3.8,1.5c1-0.9,2.3-1.5,3.8-1.5c3,0,5.5,2.5,5.5,5.5
		C25.3,19.6,24.3,21.8,22.4,24z"/>
	<g>
		<path fill="#F2E8B9" d="M19.8,12.7c-1.5,0-2.9,0.7-3.8,1.8c-0.9-1.1-2.2-1.8-3.8-1.8c-2.6,0-4.8,2.1-4.8,4.8
			c0,2.7,1.9,5.3,3.9,7.2c2.3,2.2,4.6,3.7,4.6,3.7s2.4-1.5,4.6-3.7c2-2,3.9-4.5,3.9-7.2C24.5,14.9,22.4,12.7,19.8,12.7z"/>
		<path fill="#B4A042" d="M16,29.3l-0.4-0.2c-0.1-0.1-2.5-1.5-4.8-3.8c-2.7-2.7-4.1-5.3-4.1-7.8c0-3,2.5-5.5,5.5-5.5
			c1.4,0,2.7,0.5,3.8,1.5c1-0.9,2.3-1.5,3.8-1.5c3,0,5.5,2.5,5.5,5.5c0,2.5-1.4,5.1-4.1,7.8c-2.3,2.3-4.7,3.7-4.8,3.8L16,29.3z
			 M12.2,13.5c-2.2,0-4,1.8-4,4c0,2.1,1.2,4.3,3.6,6.7c1.6,1.6,3.4,2.8,4.1,3.3c0.8-0.5,2.5-1.7,4.1-3.3c2.4-2.4,3.6-4.6,3.6-6.7
			c0-2.2-1.8-4-4-4c-1.2,0-2.4,0.6-3.2,1.6L16,15.8L15.4,15C14.6,14.1,13.5,13.5,12.2,13.5z"/>
	</g>
</g>
</svg>
