<?xml version="1.0" encoding="utf-8"?>
<!-- Generator: Adobe Illustrator 18.0.0, SVG Export Plug-In . SVG Version: 6.00 Build 0)  -->
<!DOCTYPE svg PUBLIC "-//W3C//DTD SVG 1.1//EN" "http://www.w3.org/Graphics/SVG/1.1/DTD/svg11.dtd">
<svg version="1.1" id="Layer_1" xmlns="http://www.w3.org/2000/svg" xmlns:xlink="http://www.w3.org/1999/xlink" x="0px" y="0px"
	 viewBox="0 0 32 32" enable-background="new 0 0 32 32" xml:space="preserve">
<g>
	<path fill="#79C693" d="M28.4,9.4c-0.9,0-1.9-0.4-2.6-1.1c-0.8-0.8-2.3-0.8-3.1,0c-1.4,1.4-3.8,1.4-5.2,0c-0.8-0.8-2.3-0.8-3.1,0
		c-1.4,1.4-3.8,1.4-5.2,0C8.4,7.5,7,7.5,6.2,8.4C4.7,9.8,2.4,9.8,1,8.4L2,7.3c0.8,0.8,2.2,0.8,3.1,0c1.4-1.4,3.8-1.4,5.2,0
		c0.8,0.8,2.2,0.8,3.1,0c1.4-1.4,3.8-1.4,5.2,0c0.8,0.8,2.2,0.8,3.1,0c1.4-1.4,3.8-1.4,5.2,0c0.8,0.8,2.2,0.8,3.1,0L31,8.4
		C30.3,9.1,29.4,9.4,28.4,9.4z"/>
	<path fill="#79C693" d="M3.6,14.9C3.6,14.9,3.6,14.9,3.6,14.9c-1,0-1.9-0.4-2.6-1.1L2,12.7c0.4,0.4,1,0.6,1.5,0.6c0,0,0,0,0,0
		c0.6,0,1.1-0.2,1.5-0.6c1.4-1.4,3.8-1.4,5.2,0c0.9,0.8,2.2,0.8,3.1,0c1.4-1.4,3.8-1.4,5.2,0c0.8,0.8,2.2,0.8,3.1,0
		c1.4-1.4,3.8-1.4,5.2,0c0.8,0.8,2.2,0.8,3.1,0l1.1,1.1c-1.4,1.4-3.8,1.4-5.2,0c-0.8-0.8-2.3-0.8-3.1,0c-1.4,1.4-3.8,1.4-5.2,0
		c-0.8-0.8-2.3-0.8-3.1,0c-1.4,1.4-3.8,1.4-5.2,0C8.4,13,7,13,6.2,13.8C5.5,14.5,4.6,14.9,3.6,14.9z"/>
	<path fill="#79C693" d="M3.6,20.3C3.6,20.3,3.6,20.3,3.6,20.3c-1,0-1.9-0.4-2.6-1.1L2,18.2c0.4,0.4,1,0.6,1.5,0.6c0,0,0,0,0,0
		c0.6,0,1.1-0.2,1.5-0.6c1.4-1.4,3.8-1.4,5.2,0c0.8,0.8,2.2,0.8,3.1,0c1.4-1.4,3.8-1.4,5.2,0c0.8,0.8,2.2,0.8,3.1,0
		c0.7-0.7,1.6-1.1,2.6-1.1c0,0,0,0,0,0c1,0,1.9,0.4,2.6,1.1c0.9,0.8,2.2,0.8,3.1,0l1.1,1.1c-1.4,1.4-3.8,1.4-5.2,0
		c-0.4-0.4-1-0.6-1.5-0.6c0,0,0,0,0,0c-0.6,0-1.1,0.2-1.5,0.6c-1.4,1.4-3.8,1.4-5.2,0c-0.8-0.8-2.3-0.8-3.1,0
		c-1.4,1.4-3.8,1.4-5.2,0c-0.4-0.4-1-0.6-1.5-0.6l0,0c-0.6,0-1.1,0.2-1.5,0.6C5.5,19.9,4.6,20.3,3.6,20.3z"/>
	<path fill="#79C693" d="M20.1,25.7c-1,0-1.9-0.4-2.6-1.1c-0.9-0.8-2.2-0.8-3.1,0c-1.4,1.4-3.8,1.4-5.2,0c-0.4-0.4-1-0.6-1.5-0.6
		l0,0c-0.6,0-1.1,0.2-1.5,0.6C4.8,26,2.4,26,1,24.7L2,23.6c0.8,0.8,2.3,0.8,3.1,0c1.4-1.4,3.8-1.4,5.2,0c0.8,0.8,2.2,0.8,3.1,0
		c1.4-1.4,3.8-1.4,5.2,0c0.8,0.8,2.3,0.8,3.1,0c0.7-0.7,1.6-1.1,2.6-1.1c0,0,0,0,0,0c1,0,1.9,0.4,2.6,1.1c0.9,0.8,2.2,0.8,3.1,0
		l1.1,1.1c-1.4,1.4-3.8,1.4-5.2,0c-0.4-0.4-1-0.6-1.5-0.6c0,0,0,0,0,0c-0.6,0-1.1,0.2-1.5,0.6C22,25.4,21.1,25.7,20.1,25.7z"/>
</g>
</svg>
