<?xml version="1.0" encoding="utf-8"?>
<!-- Generator: Adobe Illustrator 18.0.0, SVG Export Plug-In . SVG Version: 6.00 Build 0)  -->
<!DOCTYPE svg PUBLIC "-//W3C//DTD SVG 1.1//EN" "http://www.w3.org/Graphics/SVG/1.1/DTD/svg11.dtd">
<svg version="1.1" id="Layer_1" xmlns="http://www.w3.org/2000/svg" xmlns:xlink="http://www.w3.org/1999/xlink" x="0px" y="0px"
	 viewBox="0 0 32 32" enable-background="new 0 0 32 32" xml:space="preserve">
<g>
	<g>
		<path fill="#FAC2C3" d="M14.4,12.3c0.4-0.6,0.9-1.1,1.4-1.5C16.5,8.5,15.4,6,13.1,5C10.7,4.1,8,5.2,7,7.6
			c-0.7,1.7-0.3,3.6,0.8,4.8c0.9-0.6,2.1-1,3.3-1C12.4,11.4,13.4,11.7,14.4,12.3z"/>
		<path fill="#DA8C8C" d="M7.8,13.4l-0.4-0.5c-1.4-1.6-1.8-3.7-1-5.6c0.8-2,2.8-3.4,5-3.4c0.7,0,1.4,0.1,2,0.4c2.6,1.1,4,4,3.1,6.7
			l-0.1,0.2l-0.2,0.1c-0.5,0.4-0.9,0.9-1.2,1.4l-0.4,0.6L14,13c-1.7-1.1-4-1-5.7,0.1L7.8,13.4z M11.4,5.4c-1.6,0-3,1-3.6,2.4
			C7.3,9,7.4,10.4,8.1,11.4c1.9-1,4.2-1,6.1-0.1c0.3-0.3,0.6-0.7,0.9-1c0.5-1.9-0.4-3.9-2.3-4.7C12.4,5.5,11.9,5.4,11.4,5.4z"/>
	</g>
	<path fill="#8F9BA8" d="M24.5,31h-17c-3.7,0-6.7-3-6.7-6.7c0-2.6,1.5-4.9,3.8-6c0-0.3-0.1-0.6-0.1-0.9c0-2.3,1.1-4.4,3-5.6
		c2-1.3,4.6-1.5,6.7-0.4c0.3-0.4,0.7-0.8,1.1-1.1c1.5-1.3,3.4-2,5.4-2c4.6,0,8.4,3.8,8.4,8.4c0,0.8-0.1,1.6-0.4,2.4
		c1.6,1.3,2.5,3.2,2.5,5.3C31.3,28,28.2,31,24.5,31z M11.2,12.2c-1,0-2,0.3-2.9,0.9C6.8,14,6,15.6,6,17.4c0,0.4,0,0.8,0.1,1.1
		l0.1,0.6l-0.6,0.2c-2,0.8-3.4,2.7-3.4,4.9c0,2.9,2.3,5.2,5.2,5.2h17c2.9,0,5.2-2.3,5.2-5.2c0-1.8-0.9-3.4-2.3-4.4l-0.5-0.3l0.2-0.6
		c0.3-0.8,0.4-1.6,0.4-2.4c0-3.8-3.1-6.9-6.9-6.9c-1.6,0-3.2,0.6-4.5,1.6c-0.5,0.4-0.9,0.9-1.2,1.4l-0.4,0.6L14,13
		C13.1,12.4,12.2,12.2,11.2,12.2z"/>
	<g>
		<line fill="#FAC2C3" x1="13.8" y1="3.4" x2="14.6" y2="1.3"/>
		
			<rect x="13.5" y="1.2" transform="matrix(0.9259 0.3777 -0.3777 0.9259 1.9326 -5.1909)" fill="#DA8C8C" width="1.5" height="2.3"/>
	</g>
	<g>
		<line fill="#FAC2C3" x1="3.3" y1="6" x2="5.4" y2="6.9"/>
		
			<rect x="3.2" y="5.7" transform="matrix(0.9261 0.3773 -0.3773 0.9261 2.7651 -1.1633)" fill="#DA8C8C" width="2.3" height="1.5"/>
	</g>
	<g>
		<line fill="#FAC2C3" x1="17.3" y1="6.8" x2="19.4" y2="6"/>
		
			<rect x="17.6" y="5.2" transform="matrix(0.3879 0.9217 -0.9217 0.3879 17.108 -12.9641)" fill="#DA8C8C" width="1.5" height="2.3"/>
	</g>
	<g>
		<line fill="#FAC2C3" x1="3.3" y1="12.7" x2="5.4" y2="11.8"/>
		<rect x="3.6" y="11.1" transform="matrix(0.388 0.9217 -0.9217 0.388 13.9831 3.4626)" fill="#DA8C8C" width="1.5" height="2.3"/>
	</g>
	<g>
		<line fill="#FAC2C3" x1="8" y1="1.3" x2="8.9" y2="3.4"/>
		
			<rect x="7.3" y="1.6" transform="matrix(0.3878 0.9217 -0.9217 0.3878 7.3334 -6.3124)" fill="#DA8C8C" width="2.3" height="1.5"/>
	</g>
</g>
</svg>
