<?xml version="1.0" encoding="utf-8"?>
<!-- Generator: Adobe Illustrator 18.0.0, SVG Export Plug-In . SVG Version: 6.00 Build 0)  -->
<!DOCTYPE svg PUBLIC "-//W3C//DTD SVG 1.1//EN" "http://www.w3.org/Graphics/SVG/1.1/DTD/svg11.dtd">
<svg version="1.1" id="Layer_1" xmlns="http://www.w3.org/2000/svg" xmlns:xlink="http://www.w3.org/1999/xlink" x="0px" y="0px"
	 viewBox="0 0 32 32" enable-background="new 0 0 32 32" xml:space="preserve">
<g>
	<g>
		<line fill="#F9F8F2" x1="5.6" y1="5.4" x2="7.4" y2="6.1"/>
		<rect x="5.6" y="5" transform="matrix(0.926 0.3775 -0.3775 0.926 2.6397 -2.0284)" fill="#B4A79C" width="1.9" height="1.5"/>
	</g>
	<g>
		<line fill="#F9F8F2" x1="5.7" y1="10.8" x2="7.4" y2="10.1"/>
		<rect x="5.8" y="9.5" transform="matrix(0.388 0.9217 -0.9217 0.388 13.6137 0.3793)" fill="#B4A79C" width="1.5" height="1.9"/>
	</g>
	<g>
		<line fill="#F9F8F2" x1="9.4" y1="1.5" x2="10.2" y2="3.2"/>
		
			<rect x="8.9" y="1.6" transform="matrix(0.3878 0.9218 -0.9218 0.3878 8.1884 -7.5978)" fill="#B4A79C" width="1.9" height="1.5"/>
	</g>
	<g>
		<path fill="#F9F8F2" d="M14.7,10.5c0.3-0.5,0.7-0.9,1.1-1.2c0.6-1.9-0.3-4-2.1-4.7c-1.9-0.8-4.2,0.1-4.9,2.1
			C8.1,8,8.5,9.5,9.4,10.6c0.8-0.5,1.7-0.8,2.7-0.8C13,9.7,13.9,10,14.7,10.5z"/>
		<path fill="#B4A79C" d="M9.3,11.5l-0.4-0.5C7.7,9.7,7.3,7.9,8,6.3c0.7-1.7,2.4-2.8,4.2-2.8c0.6,0,1.2,0.1,1.7,0.3
			c2.2,0.9,3.3,3.4,2.6,5.7l-0.1,0.2l-0.2,0.1c-0.4,0.3-0.7,0.7-1,1.1l-0.4,0.6l-0.6-0.4c-1.4-0.8-3.1-0.8-4.5,0.1L9.3,11.5z
			 M12.2,5C11,5,9.9,5.7,9.4,6.9C9,7.8,9.1,8.8,9.6,9.6c1.5-0.7,3.3-0.8,4.9-0.1c0.2-0.2,0.4-0.5,0.7-0.7c0.4-1.5-0.4-3-1.8-3.6
			C13,5.1,12.6,5,12.2,5z"/>
	</g>
	<path fill="#8F9BA8" d="M23,25.9H9c-3.1,0-5.6-2.5-5.6-5.6c0-2.1,1.2-4.1,3.1-5c0-0.2,0-0.4,0-0.6c0-1.9,0.9-3.6,2.5-4.7
		c1.6-1.1,3.7-1.2,5.5-0.4C14.7,9.2,15,9,15.3,8.7C16.6,7.6,18.2,7,19.8,7c3.9,0,7,3.1,7,7c0,0.6-0.1,1.3-0.3,1.9
		c1.3,1.1,2,2.6,2,4.3C28.6,23.4,26.1,25.9,23,25.9z M12.1,10.5c-0.8,0-1.6,0.2-2.3,0.7C8.6,12,8,13.2,8,14.6c0,0.3,0,0.6,0.1,0.9
		l0.1,0.6l-0.6,0.2C6,17,4.9,18.5,4.9,20.3c0,2.3,1.9,4.1,4.1,4.1H23c2.3,0,4.1-1.9,4.1-4.1c0-1.4-0.7-2.7-1.8-3.4l-0.5-0.3l0.2-0.6
		c0.2-0.6,0.4-1.3,0.4-1.9c0-3-2.5-5.5-5.5-5.5c-1.3,0-2.6,0.5-3.5,1.3c-0.4,0.3-0.7,0.7-1,1.1l-0.4,0.6l-0.6-0.4
		C13.6,10.7,12.9,10.5,12.1,10.5z"/>
	<g>
		<line fill="#F9F8F2" x1="14.2" y1="3.2" x2="14.9" y2="1.5"/>
		
			<rect x="13.8" y="1.4" transform="matrix(0.9259 0.3777 -0.3777 0.9259 1.9595 -5.3157)" fill="#B4A79C" width="1.5" height="1.9"/>
	</g>
	<g>
		<line fill="#F9F8F2" x1="17" y1="6" x2="18.8" y2="5.3"/>
		
			<rect x="17.1" y="4.7" transform="matrix(0.3879 0.9217 -0.9217 0.3879 16.1637 -13.0256)" fill="#B4A79C" width="1.5" height="1.9"/>
	</g>
	<g>
		<g>
			<line fill="#F9F8F2" x1="22.1" y1="27.8" x2="20.6" y2="30.5"/>
			
				<rect x="20.6" y="27.6" transform="matrix(0.8874 0.461 -0.461 0.8874 15.8244 -6.562)" fill="#B4A79C" width="1.5" height="3.1"/>
		</g>
		<g>
			<line fill="#F9F8F2" x1="16.7" y1="27.8" x2="15.3" y2="30.5"/>
			
				<rect x="15.3" y="27.6" transform="matrix(0.8874 0.461 -0.461 0.8874 15.2226 -4.0978)" fill="#B4A79C" width="1.5" height="3.1"/>
		</g>
		<g>
			<line fill="#F9F8F2" x1="11.4" y1="27.8" x2="9.9" y2="30.5"/>
			
				<rect x="9.9" y="27.6" transform="matrix(0.8874 0.461 -0.461 0.8874 14.6207 -1.6335)" fill="#B4A79C" width="1.5" height="3.1"/>
		</g>
	</g>
</g>
</svg>
