<?xml version="1.0" encoding="utf-8"?>
<!-- Generator: Adobe Illustrator 18.0.0, SVG Export Plug-In . SVG Version: 6.00 Build 0)  -->
<!DOCTYPE svg PUBLIC "-//W3C//DTD SVG 1.1//EN" "http://www.w3.org/Graphics/SVG/1.1/DTD/svg11.dtd">
<svg version="1.1" id="Layer_1" xmlns="http://www.w3.org/2000/svg" xmlns:xlink="http://www.w3.org/1999/xlink" x="0px" y="0px"
	 viewBox="0 0 32 32" enable-background="new 0 0 32 32" xml:space="preserve">
<g>
	<path fill="#74B1E0" d="M24.5,27.4h-17c-3.7,0-6.7-3-6.7-6.7c0-2.6,1.5-4.9,3.8-6c0-0.3-0.1-0.6-0.1-0.9c0-2.3,1.1-4.4,3-5.6
		c2-1.3,4.6-1.5,6.7-0.4c0.3-0.4,0.7-0.8,1.1-1.1c1.5-1.3,3.4-2,5.4-2c4.6,0,8.4,3.8,8.4,8.4c0,0.8-0.1,1.6-0.4,2.4
		c1.6,1.3,2.5,3.2,2.5,5.3C31.3,24.4,28.2,27.4,24.5,27.4z M11.2,8.5c-1,0-2,0.3-2.9,0.9C6.8,10.4,6,12,6,13.8c0,0.4,0,0.8,0.1,1.1
		l0.1,0.6l-0.6,0.2c-2,0.8-3.4,2.7-3.4,4.9c0,2.9,2.3,5.2,5.2,5.2h17c2.9,0,5.2-2.3,5.2-5.2c0-1.8-0.9-3.4-2.3-4.4L26.9,16l0.2-0.6
		c0.3-0.8,0.4-1.6,0.4-2.4c0-3.8-3.1-6.9-6.9-6.9c-1.6,0-3.2,0.6-4.5,1.6c-0.5,0.4-0.9,0.9-1.2,1.4l-0.4,0.6L14,9.3
		C13.1,8.8,12.2,8.5,11.2,8.5z"/>
	<polygon fill="#74B1E0" points="15.4,24.3 14.2,23.4 16.6,20.1 12.5,20.1 16.9,13.3 18.2,14.1 15.2,18.6 19.6,18.6 	"/>
</g>
</svg>
