<?xml version="1.0" encoding="utf-8"?>
<!-- Generator: Adobe Illustrator 18.0.0, SVG Export Plug-In . SVG Version: 6.00 Build 0)  -->
<!DOCTYPE svg PUBLIC "-//W3C//DTD SVG 1.1//EN" "http://www.w3.org/Graphics/SVG/1.1/DTD/svg11.dtd">
<svg version="1.1" id="Layer_1" xmlns="http://www.w3.org/2000/svg" xmlns:xlink="http://www.w3.org/1999/xlink" x="0px" y="0px"
	 viewBox="0 0 32 32" enable-background="new 0 0 32 32" xml:space="preserve">
<pattern  y="32" width="24.1" height="24.1" patternUnits="userSpaceOnUse" id="SVGID_1_" viewBox="0 -24.1 24.1 24.1" overflow="visible">
	<g>
		<polygon fill="none" points="0,0 24.1,0 24.1,-24.1 0,-24.1 		"/>
		<g>
			<polygon fill="none" points="0,-24.1 24.1,-24.1 24.1,0 0,0 			"/>
			<polygon fill="#E0CB81" points="24.1,-24.1 0,-24.1 0,0 24.1,0 			"/>
		</g>
	</g>
</pattern>
<pattern  y="32" width="24.1" height="24.1" patternUnits="userSpaceOnUse" id="SVGID_2_" viewBox="0 -24.1 24.1 24.1" overflow="visible">
	<g>
		<polygon fill="none" points="0,0 24.1,0 24.1,-24.1 0,-24.1 		"/>
		<g>
			<polygon fill="none" points="0,-24.1 24.1,-24.1 24.1,0 0,0 			"/>
			<polygon fill="#E0CB81" points="24.1,-24.1 0,-24.1 0,0 24.1,0 			"/>
		</g>
	</g>
</pattern>
<pattern  y="32" width="24.1" height="24.1" patternUnits="userSpaceOnUse" id="SVGID_3_" viewBox="0 -24.1 24.1 24.1" overflow="visible">
	<g>
		<polygon fill="none" points="0,0 24.1,0 24.1,-24.1 0,-24.1 		"/>
		<g>
			<polygon fill="none" points="0,-24.1 24.1,-24.1 24.1,0 0,0 			"/>
			<polygon fill="#E0CB81" points="24.1,-24.1 0,-24.1 0,0 24.1,0 			"/>
		</g>
	</g>
</pattern>
<pattern  y="32" width="24.1" height="24.1" patternUnits="userSpaceOnUse" id="SVGID_4_" viewBox="0 -24.1 24.1 24.1" overflow="visible">
	<g>
		<polygon fill="none" points="0,0 24.1,0 24.1,-24.1 0,-24.1 		"/>
		<g>
			<polygon fill="none" points="0,-24.1 24.1,-24.1 24.1,0 0,0 			"/>
			<polygon fill="#E0CB81" points="24.1,-24.1 0,-24.1 0,0 24.1,0 			"/>
		</g>
	</g>
</pattern>
<pattern  y="32" width="24.1" height="24.1" patternUnits="userSpaceOnUse" id="SVGID_5_" viewBox="0 -24.1 24.1 24.1" overflow="visible">
	<g>
		<polygon fill="none" points="0,0 24.1,0 24.1,-24.1 0,-24.1 		"/>
		<g>
			<polygon fill="none" points="0,-24.1 24.1,-24.1 24.1,0 0,0 			"/>
			<polygon fill="#E0CB81" points="24.1,-24.1 0,-24.1 0,0 24.1,0 			"/>
		</g>
	</g>
</pattern>
<g>
	<g>
		<path fill="#79C693" d="M14.6,12.1H5.3v-1.5h9.2c0.6,0,1.1-0.5,1.1-1.1s-0.5-1.1-1.1-1.1c-0.4,0-0.7,0.3-0.7,0.6h-1.5
			c0-1.2,1-2.1,2.1-2.1c1.5,0,2.7,1.2,2.7,2.6S16,12.1,14.6,12.1z"/>
		<path fill="#79C693" d="M18.4,19.2c-1.5,0-2.7-1.2-2.7-2.6h1.5c0,0.6,0.5,1.1,1.1,1.1c1,0,1.8-0.8,1.8-1.8s-0.8-1.8-1.8-1.8H4.2
			v-1.5h14.2c1.8,0,3.3,1.5,3.3,3.3C21.7,17.7,20.3,19.2,18.4,19.2z"/>
	</g>
	<path fill="#79C693" d="M23.5,21.1h-15c-3.3,0-6-2.7-6-6c0-2.3,1.3-4.3,3.3-5.3c0-0.2,0-0.5,0-0.7c0-2,1-3.9,2.7-5s4-1.3,5.9-0.4
		c0.3-0.3,0.6-0.6,0.9-0.9c1.3-1.2,3-1.8,4.8-1.8c4.1,0,7.4,3.3,7.4,7.4c0,0.7-0.1,1.4-0.3,2.1c1.4,1.1,2.2,2.8,2.2,4.6
		C29.4,18.4,26.7,21.1,23.5,21.1z M11.8,4.6c-0.9,0-1.7,0.3-2.5,0.8c-1.3,0.8-2,2.2-2,3.7c0,0.3,0,0.6,0.1,1l0.1,0.6L7,10.9
		c-1.7,0.7-2.9,2.3-2.9,4.2c0,2.5,2,4.5,4.5,4.5h14.9c2.5,0,4.5-2,4.5-4.5c0-1.5-0.7-2.9-2-3.7L25.4,11l0.2-0.6
		c0.3-0.6,0.4-1.3,0.4-2c0-3.3-2.7-5.9-5.9-5.9c-1.4,0-2.8,0.5-3.8,1.4c-0.4,0.4-0.8,0.7-1.1,1.2l-0.4,0.6l-0.6-0.4
		C13.5,4.8,12.6,4.6,11.8,4.6z"/>
	<g>
		<pattern  id="SVGID_6_" xlink:href="#SVGID_1_" patternTransform="matrix(1 0 0 -1 -259.8183 -16104.8682)">
		</pattern>
		<polygon fill="url(#SVGID_6_)" points="21.6,26.4 20.3,25.7 21.8,22.8 23.2,23.5 		"/>
		<pattern  id="SVGID_7_" xlink:href="#SVGID_2_" patternTransform="matrix(1 0 0 -1 -259.8183 -16104.8682)">
		</pattern>
		<polygon fill="url(#SVGID_7_)" points="15.9,26.4 14.6,25.7 16.1,22.8 17.4,23.5 		"/>
		<pattern  id="SVGID_8_" xlink:href="#SVGID_3_" patternTransform="matrix(1 0 0 -1 -259.8183 -16104.8682)">
		</pattern>
		<polygon fill="url(#SVGID_8_)" points="10.2,26.4 8.8,25.7 10.4,22.8 11.7,23.5 		"/>
	</g>
	<pattern  id="SVGID_9_" xlink:href="#SVGID_4_" patternTransform="matrix(1 0 0 -1 -259.8183 -16104.8682)">
	</pattern>
	<polygon fill="url(#SVGID_9_)" points="18.2,31 16.9,30.4 18.4,27.5 19.7,28.1 	"/>
	<pattern  id="SVGID_10_" xlink:href="#SVGID_5_" patternTransform="matrix(1 0 0 -1 -259.8183 -16104.8682)">
	</pattern>
	<polygon fill="url(#SVGID_10_)" points="12.5,31 11.2,30.4 12.7,27.5 14,28.1 	"/>
</g>
</svg>
