<?xml version="1.0" encoding="utf-8"?>
<!-- Generator: Adobe Illustrator 18.0.0, SVG Export Plug-In . SVG Version: 6.00 Build 0)  -->
<!DOCTYPE svg PUBLIC "-//W3C//DTD SVG 1.1//EN" "http://www.w3.org/Graphics/SVG/1.1/DTD/svg11.dtd">
<svg version="1.1" id="Layer_1" xmlns="http://www.w3.org/2000/svg" xmlns:xlink="http://www.w3.org/1999/xlink" x="0px" y="0px"
	 viewBox="0 0 32 32" enable-background="new 0 0 32 32" xml:space="preserve">
<g>
	<path fill="#DA8C8C" d="M24.5,24.3h-17c-3.7,0-6.7-3-6.7-6.7c0-2.6,1.5-4.9,3.8-6c0-0.3-0.1-0.6-0.1-0.9c0-2.3,1.1-4.4,3-5.6
		c2-1.3,4.6-1.5,6.7-0.4c0.3-0.4,0.7-0.8,1.1-1.1c1.5-1.3,3.4-2,5.4-2c4.6,0,8.4,3.8,8.4,8.4c0,0.8-0.1,1.6-0.4,2.4
		c1.6,1.3,2.5,3.2,2.5,5.3C31.3,21.3,28.2,24.3,24.5,24.3z M11.2,5.5c-1,0-2,0.3-2.9,0.9C6.8,7.3,6,8.9,6,10.7c0,0.4,0,0.8,0.1,1.1
		l0.1,0.6l-0.6,0.2c-2,0.8-3.4,2.7-3.4,4.9c0,2.9,2.3,5.2,5.2,5.2h17c2.9,0,5.2-2.3,5.2-5.2c0-1.8-0.9-3.4-2.3-4.4l-0.5-0.3l0.2-0.6
		c0.3-0.8,0.4-1.6,0.4-2.4c0-3.8-3.1-6.9-6.9-6.9c-1.6,0-3.2,0.6-4.5,1.6C15.7,5.1,15.3,5.6,15,6l-0.4,0.6L14,6.3
		C13.1,5.7,12.2,5.5,11.2,5.5z"/>
	<g>
		
			<rect x="21.8" y="26.6" transform="matrix(0.8873 0.4612 -0.4612 0.8873 15.6647 -7.1943)" fill="#8F9BA8" width="1.5" height="3.7"/>
		
			<rect x="15.3" y="26.6" transform="matrix(0.8873 0.4612 -0.4612 0.8873 14.9262 -4.1728)" fill="#8F9BA8" width="1.5" height="3.7"/>
		
			<rect x="8.7" y="26.6" transform="matrix(0.8873 0.4612 -0.4612 0.8873 14.1869 -1.1514)" fill="#8F9BA8" width="1.5" height="3.7"/>
	</g>
	<g>
		<path fill="#DA8C8C" d="M14.4,14H3.8v-1.5h10.5c0.8,0,1.4-0.6,1.4-1.4c0-0.8-0.6-1.4-1.4-1.4c-0.5,0-0.9,0.4-0.9,0.8H12
			c0-1.3,1.1-2.3,2.3-2.3c1.6,0,2.9,1.3,2.9,2.9C17.3,12.7,16,14,14.4,14z"/>
		<path fill="#DA8C8C" d="M18.8,22.2c-1.6,0-2.9-1.3-2.9-2.9h1.5c0,0.8,0.6,1.4,1.4,1.4c1.2,0,2.2-1,2.2-2.2c0-1.2-1-2.2-2.1-2.2
			H2.5v-1.5h16.3c2,0,3.6,1.6,3.6,3.7S20.8,22.2,18.8,22.2z"/>
	</g>
</g>
</svg>
