<?xml version="1.0" encoding="utf-8"?>
<!-- Generator: Adobe Illustrator 18.0.0, SVG Export Plug-In . SVG Version: 6.00 Build 0)  -->
<!DOCTYPE svg PUBLIC "-//W3C//DTD SVG 1.1//EN" "http://www.w3.org/Graphics/SVG/1.1/DTD/svg11.dtd">
<svg version="1.1" id="Layer_1" xmlns="http://www.w3.org/2000/svg" xmlns:xlink="http://www.w3.org/1999/xlink" x="0px" y="0px"
	 viewBox="0 0 32 32" enable-background="new 0 0 32 32" xml:space="preserve">
<g>
	<path fill="#B4A79C" d="M9.3,11.5l-0.4-0.5C7.7,9.8,7.3,7.9,8,6.3c0.7-1.7,2.4-2.8,4.2-2.8c0.6,0,1.2,0.1,1.7,0.3
		c2.2,0.9,3.3,3.4,2.6,5.7l-0.1,0.2l-0.2,0.1c-0.4,0.3-0.7,0.7-1,1.1l-0.4,0.6l-0.6-0.4c-1.4-0.8-3.1-0.8-4.5,0.1L9.3,11.5z M12.2,5
		C11,5,9.9,5.7,9.4,6.9C9,7.8,9.1,8.8,9.6,9.6c1.5-0.7,3.3-0.8,4.9-0.1c0.2-0.2,0.4-0.5,0.7-0.7c0.4-1.5-0.4-3-1.8-3.6
		C13,5.1,12.6,5,12.2,5z"/>
	<path fill="#8F9BA8" d="M22.9,25.9H9c-3.1,0-5.6-2.5-5.6-5.6c0-2.1,1.2-4.1,3.1-5c0-0.2,0-0.4,0-0.6c0-1.9,0.9-3.6,2.5-4.7
		c1.6-1.1,3.7-1.2,5.5-0.4C14.7,9.2,15,9,15.3,8.7C16.6,7.6,18.2,7,19.8,7c3.9,0,7,3.1,7,7c0,0.6-0.1,1.3-0.3,1.9
		c1.3,1.1,2,2.6,2,4.3C28.6,23.4,26.1,25.9,22.9,25.9z M12.1,10.5c-0.8,0-1.6,0.2-2.3,0.7C8.6,12,8,13.2,8,14.6c0,0.3,0,0.6,0.1,0.9
		l0.1,0.6l-0.6,0.2C6,17,4.9,18.5,4.9,20.3c0,2.3,1.9,4.1,4.1,4.1h13.9c2.3,0,4.1-1.9,4.1-4.1c0-1.4-0.7-2.7-1.8-3.4l-0.5-0.3
		l0.2-0.6c0.2-0.6,0.4-1.3,0.4-1.9c0-3-2.5-5.5-5.5-5.5c-1.3,0-2.6,0.5-3.5,1.3c-0.4,0.3-0.7,0.7-1,1.1l-0.4,0.6l-0.6-0.4
		C13.6,10.7,12.9,10.5,12.1,10.5z"/>
	
		<rect x="13.8" y="1.4" transform="matrix(0.9259 0.3777 -0.3777 0.9259 1.9591 -5.3153)" fill="#B4A79C" width="1.5" height="1.9"/>
	<rect x="5.6" y="5" transform="matrix(0.926 0.3776 -0.3776 0.926 2.6409 -2.029)" fill="#B4A79C" width="1.9" height="1.5"/>
	
		<rect x="17.1" y="4.7" transform="matrix(0.3879 0.9217 -0.9217 0.3879 16.163 -13.0255)" fill="#B4A79C" width="1.5" height="1.9"/>
	<rect x="5.8" y="9.5" transform="matrix(0.3879 0.9217 -0.9217 0.3879 13.6137 0.3797)" fill="#B4A79C" width="1.5" height="1.9"/>
	<rect x="8.9" y="1.6" transform="matrix(0.3875 0.9219 -0.9219 0.3875 8.1903 -7.5983)" fill="#B4A79C" width="1.9" height="1.5"/>
	<g>
		
			<rect x="20.6" y="27.6" transform="matrix(0.8868 0.4622 -0.4622 0.8868 15.8742 -6.5697)" fill="#B4A79C" width="1.5" height="3.1"/>
		
			<rect x="15.2" y="27.6" transform="matrix(0.8873 0.4612 -0.4612 0.8873 15.2315 -4.0977)" fill="#B4A79C" width="1.5" height="3.1"/>
		
			<rect x="9.9" y="27.6" transform="matrix(0.8873 0.4612 -0.4612 0.8873 14.6289 -1.6322)" fill="#B4A79C" width="1.5" height="3.1"/>
	</g>
	<g>
		<path fill="#8F9BA8" d="M14.7,17.5H6.1V16h8.6c0.6,0,1-0.5,1-1c0-0.6-0.5-1-1-1c-0.3,0-0.6,0.2-0.6,0.6h-1.5
			c0-1.1,0.9-2.1,2.1-2.1c1.4,0,2.5,1.1,2.5,2.5C17.2,16.4,16,17.5,14.7,17.5z"/>
		<path fill="#8F9BA8" d="M18.3,24.1c-1.4,0-2.5-1.1-2.5-2.5h1.5c0,0.6,0.4,1,1,1c0.9,0,1.7-0.7,1.7-1.6s-0.7-1.6-1.6-1.6H5v-1.5
			h13.3c1.7,0,3.1,1.4,3.1,3.1C21.4,22.7,20,24.1,18.3,24.1z"/>
	</g>
</g>
</svg>
