<?xml version="1.0" encoding="utf-8"?>
<!-- Generator: Adobe Illustrator 18.0.0, SVG Export Plug-In . SVG Version: 6.00 Build 0)  -->
<!DOCTYPE svg PUBLIC "-//W3C//DTD SVG 1.1//EN" "http://www.w3.org/Graphics/SVG/1.1/DTD/svg11.dtd">
<svg version="1.1" id="Layer_1" xmlns="http://www.w3.org/2000/svg" xmlns:xlink="http://www.w3.org/1999/xlink" x="0px" y="0px"
	 viewBox="0 0 32 32" enable-background="new 0 0 32 32" xml:space="preserve">
<g>
	<g>
		<line fill="#F0F7F7" x1="24.3" y1="11.2" x2="31.3" y2="11.2"/>
		<rect x="24.3" y="10.4" fill="#8F9BA8" width="7" height="1.6"/>
	</g>
	<g>
		<line fill="#F0F7F7" x1="24.3" y1="16" x2="31.3" y2="16"/>
		<rect x="24.3" y="15.2" fill="#8F9BA8" width="7" height="1.6"/>
	</g>
	<g>
		<line fill="#F0F7F7" x1="24.3" y1="20.8" x2="31.3" y2="20.8"/>
		<rect x="24.3" y="20" fill="#8F9BA8" width="7" height="1.6"/>
	</g>
	<g>
		<line fill="#F0F7F7" x1="0.8" y1="11.2" x2="7.7" y2="11.2"/>
		<rect x="0.7" y="10.4" fill="#8F9BA8" width="7" height="1.6"/>
	</g>
	<g>
		<line fill="#F0F7F7" x1="0.8" y1="16" x2="7.7" y2="16"/>
		<rect x="0.7" y="15.2" fill="#8F9BA8" width="7" height="1.6"/>
	</g>
	<g>
		<line fill="#F0F7F7" x1="0.8" y1="20.8" x2="7.7" y2="20.8"/>
		<rect x="0.7" y="20" fill="#8F9BA8" width="7" height="1.6"/>
	</g>
	<g>
		<line fill="#F0F7F7" x1="20.8" y1="24.3" x2="20.8" y2="31.2"/>
		<rect x="20" y="24.3" fill="#8F9BA8" width="1.6" height="7"/>
	</g>
	<g>
		<line fill="#F0F7F7" x1="16" y1="24.3" x2="16" y2="31.2"/>
		<rect x="15.2" y="24.3" fill="#8F9BA8" width="1.6" height="7"/>
	</g>
	<g>
		<line fill="#F0F7F7" x1="11.2" y1="24.3" x2="11.2" y2="31.2"/>
		<rect x="10.4" y="24.3" fill="#8F9BA8" width="1.6" height="7"/>
	</g>
	<g>
		<line fill="#F0F7F7" x1="20.8" y1="0.7" x2="20.8" y2="7.7"/>
		<rect x="20" y="0.8" fill="#8F9BA8" width="1.6" height="7"/>
	</g>
	<g>
		<line fill="#F0F7F7" x1="16" y1="0.7" x2="16" y2="7.7"/>
		<rect x="15.2" y="0.8" fill="#8F9BA8" width="1.6" height="7"/>
	</g>
	<g>
		<line fill="#F0F7F7" x1="11.2" y1="0.7" x2="11.2" y2="7.7"/>
		<rect x="10.4" y="0.8" fill="#8F9BA8" width="1.6" height="7"/>
	</g>
	<g>
		<rect x="7.7" y="7.7" fill="#F0F7F7" width="16.5" height="16.5"/>
		<path fill="#8F9BA8" d="M25.1,25.1H6.9V6.9h18.1V25.1z M8.5,23.5h15v-15h-15V23.5z"/>
	</g>
</g>
</svg>
