<?xml version="1.0" encoding="utf-8"?>
<!-- Generator: Adobe Illustrator 18.0.0, SVG Export Plug-In . SVG Version: 6.00 Build 0)  -->
<!DOCTYPE svg PUBLIC "-//W3C//DTD SVG 1.1//EN" "http://www.w3.org/Graphics/SVG/1.1/DTD/svg11.dtd">
<svg version="1.1" id="Layer_1" xmlns="http://www.w3.org/2000/svg" xmlns:xlink="http://www.w3.org/1999/xlink" x="0px" y="0px"
	 viewBox="0 0 32 32" enable-background="new 0 0 32 32" xml:space="preserve">
<g>
	<path fill="#8F9BA8" d="M24.5,27.4h-17c-3.7,0-6.7-3-6.7-6.7c0-2.6,1.5-4.9,3.8-6c0-0.3-0.1-0.6-0.1-0.9c0-0.8,0.1-1.6,0.4-2.4
		c0.5-1.3,1.4-2.5,2.6-3.2c2-1.3,4.6-1.5,6.7-0.4c0.3-0.4,0.7-0.8,1.1-1.1c1.8-1.5,4.2-2.2,6.4-1.9c4.2,0.5,7.4,4.1,7.4,8.3
		c0,0.8-0.1,1.6-0.4,2.4c1.6,1.3,2.5,3.2,2.5,5.3C31.3,24.4,28.2,27.4,24.5,27.4z M11.2,8.5c-1,0-2,0.3-2.9,0.9
		c-0.9,0.6-1.6,1.5-2,2.5C6.1,12.5,6,13.1,6,13.8c0,0.4,0,0.8,0.1,1.1l0.1,0.6l-0.6,0.2c-2,0.8-3.4,2.7-3.4,4.9
		c0,2.9,2.3,5.2,5.2,5.2h17c2.9,0,5.2-2.3,5.2-5.2c0-1.8-0.9-3.4-2.3-4.4L26.9,16l0.2-0.6c0.3-0.8,0.4-1.6,0.4-2.4
		c0-3.5-2.6-6.4-6.1-6.8c-1.8-0.2-3.8,0.4-5.3,1.6c-0.5,0.4-0.9,0.9-1.2,1.4l-0.4,0.6L14,9.3C13.1,8.8,12.2,8.5,11.2,8.5z"/>
	<g>
		<path fill="#8F9BA8" d="M13.6,17.4H3.1v-1.5h10.5c0.8,0,1.4-0.6,1.4-1.4s-0.6-1.4-1.4-1.4c-0.5,0-0.9,0.4-0.9,0.8h-1.5
			c0-1.3,1.1-2.3,2.3-2.3c1.6,0,2.9,1.3,2.9,2.9S15.2,17.4,13.6,17.4z"/>
		<path fill="#8F9BA8" d="M18.1,25.5c-1.6,0-2.9-1.3-2.9-2.9h1.5c0,0.8,0.6,1.4,1.4,1.4c1.2,0,2.2-1,2.2-2.2c0-1.2-1-2.2-2.2-2.2
			H1.8v-1.5h16.3c2,0,3.7,1.6,3.7,3.7S20.1,25.5,18.1,25.5z"/>
	</g>
</g>
</svg>
