<?xml version="1.0" encoding="utf-8"?>
<!-- Generator: Adobe Illustrator 18.0.0, SVG Export Plug-In . SVG Version: 6.00 Build 0)  -->
<!DOCTYPE svg PUBLIC "-//W3C//DTD SVG 1.1//EN" "http://www.w3.org/Graphics/SVG/1.1/DTD/svg11.dtd">
<svg version="1.1" id="Layer_1" xmlns="http://www.w3.org/2000/svg" xmlns:xlink="http://www.w3.org/1999/xlink" x="0px" y="0px"
	 viewBox="0 0 32 32" enable-background="new 0 0 32 32" xml:space="preserve">
<g>
	<path fill="#8F9BA8" d="M23,31.2H9c-2,0-3.6-1.6-3.6-3.6V4.3c0-2,1.6-3.6,3.6-3.6H23c2,0,3.6,1.6,3.6,3.6v23.4
		C26.6,29.6,25,31.2,23,31.2z M9,2.2c-1.1,0-2.1,0.9-2.1,2.1v23.4c0,1.1,0.9,2.1,2.1,2.1H23c1.1,0,2.1-0.9,2.1-2.1V4.3
		c0-1.1-0.9-2.1-2.1-2.1H9z"/>
	<path fill="#79C693" d="M20.7,16.4h-9.4v-12h9.4V16.4z M12.8,14.9h6.4v-9h-6.4V14.9z"/>
	<g>
		<rect x="11.8" y="17.9" fill="#79C693" width="1.5" height="0.9"/>
		<rect x="15.2" y="17.9" fill="#79C693" width="1.5" height="0.9"/>
		<rect x="18.7" y="17.9" fill="#79C693" width="1.5" height="0.9"/>
	</g>
	<g>
		<g>
			<rect x="10.5" y="22.9" fill="#79C693" width="1.5" height="4.1"/>
			<rect x="9.2" y="24.2" fill="#79C693" width="4.1" height="1.5"/>
		</g>
		<path fill="#79C693" d="M20.7,27.8c-1.6,0-2.8-1.3-2.8-2.8c0-1.6,1.3-2.8,2.8-2.8s2.8,1.3,2.8,2.8C23.6,26.5,22.3,27.8,20.7,27.8z
			 M20.7,23.6c-0.7,0-1.3,0.6-1.3,1.3c0,0.7,0.6,1.3,1.3,1.3c0.7,0,1.3-0.6,1.3-1.3C22.1,24.2,21.5,23.6,20.7,23.6z"/>
	</g>
</g>
</svg>
