<?xml version="1.0" encoding="utf-8"?>
<!-- Generator: Adobe Illustrator 18.0.0, SVG Export Plug-In . SVG Version: 6.00 Build 0)  -->
<!DOCTYPE svg PUBLIC "-//W3C//DTD SVG 1.1//EN" "http://www.w3.org/Graphics/SVG/1.1/DTD/svg11.dtd">
<svg version="1.1" id="Layer_1" xmlns="http://www.w3.org/2000/svg" xmlns:xlink="http://www.w3.org/1999/xlink" x="0px" y="0px"
	 viewBox="0 0 32 32" enable-background="new 0 0 32 32" xml:space="preserve">
<g>
	<g>
		<path fill="#DA8C8C" d="M8.1,19.9c-0.2,0-0.4-0.1-0.5-0.2l-2.4-2.4c-0.2-0.2-0.3-0.6-0.1-0.9l6.6-14c0.5-1.1,1.5-1.8,2.6-1.8
			c0.8,0,1.6,0.4,2.2,1c1.5,1.5,1.8,4.1,0.6,5.7L8.7,19.6C8.6,19.8,8.4,19.9,8.1,19.9C8.2,19.9,8.1,19.9,8.1,19.9z M6.6,16.7L8,18
			l8-11.4c0.7-1,0.5-2.8-0.5-3.8c-0.8-0.8-1.9-0.7-2.4,0.4L6.6,16.7z"/>
		<path fill="#DA8C8C" d="M10.5,22.3c-0.2,0-0.4-0.1-0.5-0.2l-2.4-2.4c-0.3-0.3-0.3-0.7-0.1-1L16,6.6c0.6-0.9,1.6-1.4,2.6-1.4
			c0.9,0,1.8,0.4,2.5,1.1c0.7,0.7,1.2,1.7,1.2,2.8c0,1-0.3,2-1,2.7L11,22.1C10.9,22.2,10.7,22.3,10.5,22.3z M9.1,19.1l1.4,1.4
			l9.8-9.8c0.4-0.4,0.6-1,0.6-1.6c0-0.7-0.3-1.3-0.8-1.7c-0.9-0.9-2.2-0.8-2.9,0.1L9.1,19.1z"/>
		<path fill="#DA8C8C" d="M12.9,24.7c-0.2,0-0.4-0.1-0.5-0.2L10,22.1c-0.3-0.3-0.3-0.8,0-1.1l10.3-10.3c0.7-0.7,1.6-1,2.6-1
			c1.1,0,2.1,0.4,2.9,1.2c0.8,0.8,1.2,1.8,1.1,2.8c-0.1,0.9-0.6,1.8-1.4,2.3l-12.1,8.5C13.2,24.6,13,24.7,12.9,24.7z M11.6,21.6
			L13,23l11.6-8.1c0.4-0.3,0.7-0.7,0.7-1.3c0.1-0.6-0.2-1.2-0.7-1.6c-0.9-0.9-2.5-1-3.3-0.2L11.6,21.6z"/>
		<path fill="#DA8C8C" d="M15.3,27.1c-0.2,0-0.4-0.1-0.5-0.2l-2.4-2.4c-0.2-0.2-0.2-0.4-0.2-0.6c0-0.2,0.1-0.4,0.3-0.5l12.1-8.5
			c0.7-0.5,1.5-0.7,2.4-0.7c1.3,0,2.5,0.5,3.4,1.3c0.8,0.8,1.1,1.8,1,2.7c-0.2,0.9-0.8,1.7-1.7,2.2l-14,6.6
			C15.5,27,15.4,27.1,15.3,27.1z M14,24l1.4,1.4L28.9,19c0.5-0.2,0.8-0.6,0.9-1.1c0.1-0.5-0.1-1-0.6-1.4c-0.6-0.6-1.4-0.9-2.3-0.9
			c-0.6,0-1.1,0.2-1.5,0.4L14,24z"/>
	</g>
	<g>
		<path fill="#FAC2C3" d="M3.1,19.3c-2.4,2.7-2.3,6.7,0.3,9.2s6.6,2.6,9.2,0.3L3.1,19.3z"/>
		<path fill="#DA8C8C" d="M8.2,31.2C8.2,31.2,8.2,31.2,8.2,31.2c-2,0-3.9-0.8-5.3-2.2c-2.8-2.8-2.9-7.3-0.3-10.3
			c0.1-0.2,0.3-0.2,0.5-0.3c0.2,0,0.4,0.1,0.6,0.2l9.5,9.5c0.1,0.1,0.2,0.3,0.2,0.6c0,0.2-0.1,0.4-0.3,0.5
			C11.8,30.6,10,31.2,8.2,31.2z M3.2,20.4c-1.6,2.3-1.3,5.5,0.7,7.6c1.1,1.1,2.6,1.8,4.2,1.8c0,0,0,0,0,0c1.2,0,2.4-0.4,3.4-1
			L3.2,20.4z"/>
	</g>
	<path fill="#DA8C8C" d="M12.7,29.6c-0.2,0-0.4-0.1-0.5-0.2l-9.6-9.6c-0.1-0.1-0.2-0.3-0.2-0.5c0-0.2,0.1-0.4,0.2-0.5l2.5-2.5
		c0.3-0.3,0.8-0.3,1.1,0l9.6,9.6c0.1,0.1,0.2,0.3,0.2,0.5c0,0.2-0.1,0.4-0.2,0.5l-2.5,2.5C13.1,29.5,12.9,29.6,12.7,29.6z M4.2,19.3
		l8.5,8.5l1.5-1.5l-8.5-8.5L4.2,19.3z"/>
</g>
</svg>
