<?xml version="1.0" encoding="utf-8"?>
<!-- Generator: Adobe Illustrator 18.0.0, SVG Export Plug-In . SVG Version: 6.00 Build 0)  -->
<!DOCTYPE svg PUBLIC "-//W3C//DTD SVG 1.1//EN" "http://www.w3.org/Graphics/SVG/1.1/DTD/svg11.dtd">
<svg version="1.1" id="Layer_1" xmlns="http://www.w3.org/2000/svg" xmlns:xlink="http://www.w3.org/1999/xlink" x="0px" y="0px"
	 viewBox="0 0 32 32" enable-background="new 0 0 32 32" xml:space="preserve">
<g>
	<path fill="#8F9BA8" d="M31.3,27.1H0.8V4.9h30.5V27.1z M2.3,25.6h27.5V6.4H2.3V25.6z"/>
	<g>
		<rect x="19.5" y="8.6" fill="#F9F8F2" width="8" height="14.7"/>
		<path fill="#B4A79C" d="M28.3,24.1h-9.5V7.9h9.5V24.1z M20.3,22.6h6.5V9.4h-6.5V22.6z"/>
	</g>
	<g>
		<rect x="4.5" y="8.6" fill="#F9F8F2" width="8" height="14.7"/>
		<path fill="#B4A79C" d="M13.2,24.1H3.8V7.9h9.5V24.1z M5.3,22.6h6.5V9.4H5.3V22.6z"/>
	</g>
	<g>
		<g>
			<line fill="#F9F8F2" x1="14.9" y1="13.2" x2="17.1" y2="13.2"/>
			<rect x="14.9" y="12.5" fill="#B4A79C" width="2.1" height="1.5"/>
		</g>
		<g>
			<line fill="#F9F8F2" x1="14.9" y1="18.8" x2="17.1" y2="18.8"/>
			<rect x="14.9" y="18" fill="#B4A79C" width="2.1" height="1.5"/>
		</g>
	</g>
</g>
</svg>
