<?xml version="1.0" encoding="utf-8"?>
<!-- Generator: Adobe Illustrator 18.0.0, SVG Export Plug-In . SVG Version: 6.00 Build 0)  -->
<!DOCTYPE svg PUBLIC "-//W3C//DTD SVG 1.1//EN" "http://www.w3.org/Graphics/SVG/1.1/DTD/svg11.dtd">
<svg version="1.1" id="Layer_1" xmlns="http://www.w3.org/2000/svg" xmlns:xlink="http://www.w3.org/1999/xlink" x="0px" y="0px"
	 viewBox="0 0 32 32" enable-background="new 0 0 32 32" xml:space="preserve">
<g>
	<g>
		<path fill="#CDE4F7" d="M22.7,6.8c0-2-0.4-3.8-1.1-5.3H10.3C9.6,3,9.3,4.9,9.3,6.8c0,3.5,1.2,6.5,3,8.3c1.3,1.3,2,3.2,1.6,5
			l-0.5,2.6h5.2l-0.5-2.6c-0.4-1.8,0.3-3.7,1.6-5C21.5,13.3,22.7,10.3,22.7,6.8z"/>
		<path fill="#74B1E0" d="M19.5,23.4h-7l0.7-3.5c0.3-1.6-0.2-3.2-1.4-4.3c-2-2-3.3-5.3-3.3-8.8c0-2,0.4-4,1.1-5.6l0.2-0.4h12.3
			l0.2,0.4c0.7,1.7,1.1,3.6,1.1,5.6c0,3.5-1.2,6.8-3.3,8.8c-1.2,1.1-1.7,2.8-1.4,4.3L19.5,23.4z M14.3,21.9h3.4l-0.3-1.7
			c-0.4-2.1,0.3-4.2,1.8-5.7C20.9,12.9,22,10,22,6.8c0-1.6-0.3-3.2-0.8-4.6H10.8c-0.5,1.4-0.8,3-0.8,4.6c0,3.1,1.1,6,2.8,7.7
			c1.5,1.5,2.2,3.6,1.8,5.7L14.3,21.9z"/>
	</g>
	<path fill="#74B1E0" d="M20.4,15.4l-0.6-1.4l6.3-2.9c2.1-1,3.3-3.4,2.8-5.6c-0.2-0.9-0.6-1.5-1.2-1.7c-1.5-0.6-4.1,0.5-4.9,1
		l-0.8-1.3c0.2-0.1,3.8-2.2,6.3-1.1c1.1,0.5,1.8,1.4,2.1,2.8c0.7,2.8-0.9,6-3.6,7.3L20.4,15.4z"/>
	<path fill="#74B1E0" d="M11.6,15.4l-6.3-2.9C2.6,11.3,1,8.1,1.7,5.2c0.3-1.4,1-2.3,2.1-2.8c2.5-1.1,6.1,1,6.3,1.1L9.3,4.9
		c-0.9-0.5-3.4-1.7-4.9-1c-0.6,0.3-1,0.8-1.2,1.7C2.6,7.7,3.9,10.2,6,11.1l6.3,2.9L11.6,15.4z"/>
	<path fill="#8F9BA8" d="M23,31.2H9l1.2-9.3h11.8L23,31.2z M10.6,29.7h10.7l-0.8-6.3h-9.1L10.6,29.7z"/>
</g>
</svg>
