<?xml version="1.0" encoding="utf-8"?>
<!-- Generator: Adobe Illustrator 18.0.0, SVG Export Plug-In . SVG Version: 6.00 Build 0)  -->
<!DOCTYPE svg PUBLIC "-//W3C//DTD SVG 1.1//EN" "http://www.w3.org/Graphics/SVG/1.1/DTD/svg11.dtd">
<svg version="1.1" id="Layer_1" xmlns="http://www.w3.org/2000/svg" xmlns:xlink="http://www.w3.org/1999/xlink" x="0px" y="0px"
	 viewBox="0 0 32 32" enable-background="new 0 0 32 32" xml:space="preserve">
<g>
	<path fill="#8F9BA8" d="M22.7,31.2H9.3V0.7h13.4V31.2z M10.8,29.7h10.4V2.2H10.8V29.7z"/>
	<g>
		<rect x="21.9" y="9.7" fill="#F0F7F7" width="8.6" height="20.8"/>
		<path fill="#8F9BA8" d="M31.3,31.2H21.2V8.9h10.1V31.2z M22.7,29.7h7.1V10.4h-7.1V29.7z"/>
	</g>
	<g>
		<rect x="1.5" y="9.7" fill="#F0F7F7" width="8.6" height="20.8"/>
		<path fill="#8F9BA8" d="M10.8,31.2H0.8V8.9h10.1V31.2z M2.3,29.7h7.1V10.4H2.3V29.7z"/>
	</g>
	<g>
		<rect x="13.5" y="25.9" fill="#F0F7F7" width="5.1" height="4.6"/>
		<path fill="#8F9BA8" d="M19.3,31.2h-6.6v-6.1h6.6V31.2z M14.2,29.7h3.6v-3.1h-3.6V29.7z"/>
	</g>
	<g>
		<rect x="12.6" y="3.4" fill="#8F9BA8" width="0.8" height="1.5"/>
		<rect x="15.6" y="3.4" fill="#8F9BA8" width="0.8" height="1.5"/>
		<rect x="18.5" y="3.4" fill="#8F9BA8" width="0.8" height="1.5"/>
	</g>
	<g>
		<g>
			<rect x="24.3" y="11.6" fill="#8F9BA8" width="0.8" height="1.5"/>
			<rect x="27.3" y="11.6" fill="#8F9BA8" width="0.8" height="1.5"/>
		</g>
		<g>
			<rect x="24.3" y="15.3" fill="#8F9BA8" width="0.8" height="1.5"/>
			<rect x="27.3" y="15.3" fill="#8F9BA8" width="0.8" height="1.5"/>
		</g>
		<g>
			<rect x="24.3" y="18.9" fill="#8F9BA8" width="0.8" height="1.5"/>
			<rect x="27.3" y="18.9" fill="#8F9BA8" width="0.8" height="1.5"/>
		</g>
		<g>
			<rect x="24.3" y="22.5" fill="#8F9BA8" width="0.8" height="1.5"/>
			<rect x="27.3" y="22.5" fill="#8F9BA8" width="0.8" height="1.5"/>
		</g>
		<g>
			<rect x="24.3" y="26.1" fill="#8F9BA8" width="0.8" height="1.5"/>
			<rect x="27.3" y="26.1" fill="#8F9BA8" width="0.8" height="1.5"/>
		</g>
	</g>
	<g>
		<g>
			<rect x="3.9" y="11.6" fill="#8F9BA8" width="0.8" height="1.5"/>
			<rect x="6.8" y="11.6" fill="#8F9BA8" width="0.8" height="1.5"/>
		</g>
		<g>
			<rect x="3.9" y="15.3" fill="#8F9BA8" width="0.8" height="1.5"/>
			<rect x="6.8" y="15.3" fill="#8F9BA8" width="0.8" height="1.5"/>
		</g>
		<g>
			<rect x="3.9" y="18.9" fill="#8F9BA8" width="0.8" height="1.5"/>
			<rect x="6.8" y="18.9" fill="#8F9BA8" width="0.8" height="1.5"/>
		</g>
		<g>
			<rect x="3.9" y="22.5" fill="#8F9BA8" width="0.8" height="1.5"/>
			<rect x="6.8" y="22.5" fill="#8F9BA8" width="0.8" height="1.5"/>
		</g>
		<g>
			<rect x="3.9" y="26.1" fill="#8F9BA8" width="0.8" height="1.5"/>
			<rect x="6.8" y="26.1" fill="#8F9BA8" width="0.8" height="1.5"/>
		</g>
	</g>
	<g>
		<rect x="12.6" y="7.5" fill="#8F9BA8" width="0.8" height="1.5"/>
		<rect x="15.6" y="7.5" fill="#8F9BA8" width="0.8" height="1.5"/>
		<rect x="18.5" y="7.5" fill="#8F9BA8" width="0.8" height="1.5"/>
	</g>
	<g>
		<rect x="12.6" y="11.6" fill="#8F9BA8" width="0.8" height="1.5"/>
		<rect x="15.6" y="11.6" fill="#8F9BA8" width="0.8" height="1.5"/>
		<rect x="18.5" y="11.6" fill="#8F9BA8" width="0.8" height="1.5"/>
	</g>
	<g>
		<rect x="12.6" y="15.7" fill="#8F9BA8" width="0.8" height="1.5"/>
		<rect x="15.6" y="15.7" fill="#8F9BA8" width="0.8" height="1.5"/>
		<rect x="18.5" y="15.7" fill="#8F9BA8" width="0.8" height="1.5"/>
	</g>
	<g>
		<rect x="12.6" y="19.8" fill="#8F9BA8" width="0.8" height="1.5"/>
		<rect x="15.6" y="19.8" fill="#8F9BA8" width="0.8" height="1.5"/>
		<rect x="18.5" y="19.8" fill="#8F9BA8" width="0.8" height="1.5"/>
	</g>
</g>
</svg>
