<?xml version="1.0" encoding="utf-8"?>
<!-- Generator: Adobe Illustrator 18.0.0, SVG Export Plug-In . SVG Version: 6.00 Build 0)  -->
<!DOCTYPE svg PUBLIC "-//W3C//DTD SVG 1.1//EN" "http://www.w3.org/Graphics/SVG/1.1/DTD/svg11.dtd">
<svg version="1.1" id="Layer_1" xmlns="http://www.w3.org/2000/svg" xmlns:xlink="http://www.w3.org/1999/xlink" x="0px" y="0px"
	 viewBox="0 0 32 32" enable-background="new 0 0 32 32" xml:space="preserve">
<g>
	<path fill="#79C693" d="M10,30.4H5.5c-1.2,0-2.2-0.7-2.6-1.8c-0.7-1.8-1.1-4-1.1-6.3c0-3.7,1-7,2.6-9c0.2-0.3,0.3-0.6,0.2-0.9
		c-0.2-0.8-0.4-1.8-0.4-2.7c0-3.4,1.5-6,3.5-6s3.5,2.6,3.5,6c0,1-0.1,1.9-0.4,2.7c-0.1,0.3,0,0.6,0.2,0.9c0.2,0.3,0.4,0.6,0.7,1
		l0.2,0.3L11.8,15c-0.9,2-1.3,4.5-1.3,7.1c0,2.4,0.4,4.7,1.2,6.7c0,0.1,0.1,0.1,0.1,0.2l0.4,0.6l-0.6,0.4C11,30.2,10.5,30.4,10,30.4
		z M7.8,5.2c-0.9,0-2,1.9-2,4.5c0,0.8,0.1,1.6,0.3,2.3c0.2,0.8,0,1.6-0.5,2.3c-1.4,1.7-2.3,4.8-2.3,8c0,2.1,0.3,4.1,1,5.8
		c0.2,0.5,0.7,0.8,1.2,0.8H10c0,0,0,0,0.1,0c-0.7-2-1.1-4.3-1.1-6.8c0-2.7,0.5-5.2,1.3-7.3c-0.1-0.2-0.2-0.3-0.4-0.5
		c-0.5-0.6-0.7-1.5-0.5-2.3c0.2-0.7,0.3-1.5,0.3-2.3C9.7,7.1,8.7,5.2,7.8,5.2z"/>
	<rect x="3.1" y="16.8" fill="#79C693" width="6.9" height="1.5"/>
	<rect x="3.1" y="25.1" fill="#79C693" width="6.9" height="1.5"/>
	<rect x="21.1" y="16.8" fill="#79C693" width="7.7" height="1.5"/>
	<rect x="21.1" y="25.1" fill="#79C693" width="7.7" height="1.5"/>
	<rect x="10.3" y="15.9" fill="#8F9BA8" width="10.7" height="1.5"/>
	<rect x="10.3" y="25.5" fill="#8F9BA8" width="10.7" height="1.5"/>
	<path fill="#79C693" d="M26.5,30.4H22c-0.8,0-1.6-0.4-2.1-1L19.6,29l0.2-0.4c0.7-1.9,1.1-4.2,1.1-6.5c0-2.3-0.4-4.6-1.1-6.4
		l-0.1-0.3l0.1-0.3c0.3-0.7,0.7-1.2,1.1-1.7c0.2-0.3,0.3-0.6,0.2-0.9c-0.2-0.8-0.4-1.8-0.4-2.7c0-3.4,1.5-6,3.5-6c2,0,3.5,2.6,3.5,6
		c0,0.9-0.1,1.9-0.4,2.7c-0.1,0.3,0,0.6,0.2,0.9c1.6,2,2.6,5.3,2.6,9c0,2.3-0.4,4.5-1.1,6.3C28.7,29.7,27.6,30.4,26.5,30.4z
		 M21.3,28.7c0.2,0.1,0.4,0.2,0.7,0.2h4.4c0.5,0,1-0.3,1.2-0.8c0.7-1.7,1-3.6,1-5.8c0-3.3-0.9-6.3-2.3-8c-0.5-0.6-0.7-1.5-0.5-2.3
		c0.2-0.7,0.3-1.5,0.3-2.3c0-2.6-1-4.5-2-4.5c-0.9,0-2,1.9-2,4.5c0,0.8,0.1,1.6,0.3,2.3c0.2,0.8,0,1.6-0.5,2.3
		c-0.3,0.3-0.5,0.7-0.8,1.1c0.7,2,1.1,4.3,1.1,6.7C22.4,24.4,22,26.7,21.3,28.7z"/>
	<path fill="#8F9BA8" d="M18.2,31.2h-5.1c-1.1,0-2.2-0.6-2.7-1.6c-0.1-0.1-0.1-0.3-0.2-0.4c-0.8-2.1-1.3-4.6-1.3-7.2
		c0-2.8,0.5-5.5,1.5-7.7c0.5-1,1-1.9,1.5-2.6c0.3-0.3,0.4-0.7,0.2-1.1c-0.3-1-0.4-2-0.4-3.1c0-3.8,1.7-6.8,3.9-6.8
		c2.2,0,3.9,3,3.9,6.8c0,1.1-0.1,2.2-0.4,3.1c-0.1,0.4,0,0.8,0.2,1.1c0.7,0.9,1.3,2,1.8,3.3c0.8,2.1,1.2,4.5,1.2,7
		c0,2.6-0.4,5-1.2,7.1l0,0.1C20.7,30.5,19.5,31.2,18.2,31.2z M15.7,2.2c-1.1,0-2.4,2.2-2.4,5.3c0,0.9,0.1,1.9,0.4,2.7
		c0.2,0.9,0,1.8-0.5,2.5c-0.5,0.6-0.9,1.3-1.3,2.2c-0.9,2-1.3,4.5-1.3,7.1c0,2.4,0.4,4.7,1.2,6.7c0,0.1,0.1,0.1,0.1,0.2
		c0.3,0.5,0.8,0.8,1.4,0.8h5.1c0.7,0,1.3-0.4,1.5-1l0-0.1c0.7-1.9,1.1-4.2,1.1-6.5c0-2.3-0.4-4.6-1.1-6.4c-0.4-1.2-1-2.1-1.6-2.9
		c-0.6-0.7-0.8-1.6-0.5-2.5c0.2-0.8,0.4-1.8,0.4-2.7C18.1,4.4,16.8,2.2,15.7,2.2z"/>
</g>
</svg>
