<?xml version="1.0" encoding="utf-8"?>
<!-- Generator: Adobe Illustrator 18.0.0, SVG Export Plug-In . SVG Version: 6.00 Build 0)  -->
<!DOCTYPE svg PUBLIC "-//W3C//DTD SVG 1.1//EN" "http://www.w3.org/Graphics/SVG/1.1/DTD/svg11.dtd">
<svg version="1.1" id="Layer_1" xmlns="http://www.w3.org/2000/svg" xmlns:xlink="http://www.w3.org/1999/xlink" x="0px" y="0px"
	 viewBox="0 0 32 32" enable-background="new 0 0 32 32" xml:space="preserve">
<g>
	<g>
		<path fill="#CDE4F7" d="M27.6,13c0,9.6-11.6,17.4-11.6,17.4S4.4,22.6,4.4,13C4.4,6.6,9.6,1.4,16,1.4S27.6,6.6,27.6,13z"/>
		<path fill="#74B1E0" d="M16,31.3L15.6,31c-0.5-0.3-11.9-8.1-11.9-18C3.6,6.2,9.2,0.7,16,0.7c6.8,0,12.4,5.5,12.4,12.4
			c0,9.9-11.4,17.7-11.9,18L16,31.3z M16,2.2C10,2.2,5.1,7,5.1,13c0,8.1,8.8,15,10.8,16.5C18,28,26.9,21.1,26.9,13
			C26.9,7,22,2.2,16,2.2z"/>
	</g>
	<g>
		<circle fill="#FFFFFF" cx="16" cy="13" r="7"/>
		<path fill="#74B1E0" d="M16,20.7c-4.3,0-7.7-3.5-7.7-7.7s3.5-7.7,7.7-7.7c4.3,0,7.7,3.5,7.7,7.7S20.3,20.7,16,20.7z M16,6.8
			c-3.4,0-6.2,2.8-6.2,6.2s2.8,6.2,6.2,6.2s6.2-2.8,6.2-6.2S19.4,6.8,16,6.8z"/>
	</g>
</g>
</svg>
