<?xml version="1.0" encoding="utf-8"?>
<!-- Generator: Adobe Illustrator 18.0.0, SVG Export Plug-In . SVG Version: 6.00 Build 0)  -->
<!DOCTYPE svg PUBLIC "-//W3C//DTD SVG 1.1//EN" "http://www.w3.org/Graphics/SVG/1.1/DTD/svg11.dtd">
<svg version="1.1" id="Layer_1" xmlns="http://www.w3.org/2000/svg" xmlns:xlink="http://www.w3.org/1999/xlink" x="0px" y="0px"
	 viewBox="0 0 32 32" enable-background="new 0 0 32 32" xml:space="preserve">
<g>
	<path fill="#8F9BA8" d="M29.8,12.5H2.2L16,0.7L29.8,12.5z M6.2,11h19.7L16,2.7L6.2,11z"/>
	<path fill="#8F9BA8" d="M16,31.2l-4.1-6.1h-6V11h20.2v14.1h-6L16,31.2z M7.3,23.7h5.3l3.4,5l3.4-5h5.3V12.5H7.3V23.7z"/>
	<g>
		<rect x="13.2" y="15.7" fill="#B4A79C" width="1.2" height="1.5"/>
		<rect x="17.6" y="15.7" fill="#B4A79C" width="1.2" height="1.5"/>
	</g>
	<g>
		<rect x="13.2" y="19" fill="#B4A79C" width="1.2" height="1.5"/>
		<rect x="17.6" y="19" fill="#B4A79C" width="1.2" height="1.5"/>
	</g>
	<path fill="#B4A79C" d="M16,10.3c-1.4,0-2.5-1.1-2.5-2.5c0-1.4,1.1-2.5,2.5-2.5c1.4,0,2.5,1.1,2.5,2.5C18.5,9.2,17.4,10.3,16,10.3z
		 M16,6.8c-0.6,0-1.1,0.5-1.1,1.1c0,0.6,0.5,1.1,1.1,1.1c0.6,0,1.1-0.5,1.1-1.1C17.1,7.2,16.6,6.8,16,6.8z"/>
</g>
</svg>
