<?xml version="1.0" encoding="utf-8"?>
<!-- Generator: Adobe Illustrator 18.0.0, SVG Export Plug-In . SVG Version: 6.00 Build 0)  -->
<!DOCTYPE svg PUBLIC "-//W3C//DTD SVG 1.1//EN" "http://www.w3.org/Graphics/SVG/1.1/DTD/svg11.dtd">
<svg version="1.1" id="Layer_1" xmlns="http://www.w3.org/2000/svg" xmlns:xlink="http://www.w3.org/1999/xlink" x="0px" y="0px"
	 viewBox="0 0 32 32" enable-background="new 0 0 32 32" xml:space="preserve">
<g>
	<path fill="#8F9BA8" d="M13.9,30.9c-1.1,0-2-0.9-2-2c0-1,0.8-1.9,1.8-1.9c5.7-0.5,10-5.2,10-11c0-5.7-4.3-10.4-10-11
		c-1-0.1-1.8-0.9-1.8-1.9c0-1.1,0.9-2,2-2v1.5c-0.3,0-0.5,0.2-0.5,0.5c0,0.3,0.2,0.5,0.4,0.5C20.2,4.2,25.1,9.5,25.1,16
		c0,6.5-4.9,11.8-11.3,12.4c-0.2,0-0.4,0.2-0.4,0.5c0,0.3,0.2,0.5,0.5,0.5V30.9z"/>
	<rect x="9.9" y="3.4" transform="matrix(0.8583 0.5131 -0.5131 0.8583 5.907 -4.2265)" fill="#8F9BA8" width="1.5" height="10.3"/>
	
		<rect x="5.5" y="22.7" transform="matrix(0.5128 0.8585 -0.8585 0.5128 25.2715 2.3032)" fill="#8F9BA8" width="10.3" height="1.5"/>
	<g>
		<g>
			<polygon fill="#CDE4F7" points="26.4,12.2 26.4,19.8 30.2,16 			"/>
			<path fill="#74B1E0" d="M25.7,21.5V10.5l5.5,5.5L25.7,21.5z M27.2,14v4l2-2L27.2,14z"/>
		</g>
		<g>
			<line fill="#CDE4F7" x1="26.4" y1="16" x2="3.3" y2="16"/>
			<rect x="3.3" y="15.3" fill="#74B1E0" width="23.1" height="1.5"/>
		</g>
		<g>
			<g>
				<polygon fill="#CDE4F7" points="9.5,16 3.5,16 2,13 8,13 				"/>
				<path fill="#74B1E0" d="M10.8,16.7H3.1l-2.3-4.5h7.7L10.8,16.7z M4,15.3h4.3l-0.8-1.5H3.2L4,15.3z"/>
			</g>
			<g>
				<polygon fill="#CDE4F7" points="9.5,16 3.5,16 2,19 8,19 				"/>
				<path fill="#74B1E0" d="M8.4,19.7H0.8l2.3-4.5h7.7L8.4,19.7z M3.2,18.3h4.3l0.8-1.5H4L3.2,18.3z"/>
			</g>
		</g>
	</g>
</g>
</svg>
