<?xml version="1.0" encoding="utf-8"?>
<!-- Generator: Adobe Illustrator 18.0.0, SVG Export Plug-In . SVG Version: 6.00 Build 0)  -->
<!DOCTYPE svg PUBLIC "-//W3C//DTD SVG 1.1//EN" "http://www.w3.org/Graphics/SVG/1.1/DTD/svg11.dtd">
<svg version="1.1" id="Layer_1" xmlns="http://www.w3.org/2000/svg" xmlns:xlink="http://www.w3.org/1999/xlink" x="0px" y="0px"
	 viewBox="0 0 32 32" enable-background="new 0 0 32 32" xml:space="preserve">
<g>
	<g>
		<path fill="#C6BCDD" d="M30,21.9l-8-8v4.3h-1.2c-4.3,0-7.8,3.5-7.8,7.9c0,1.5,0.4,2.9,1.2,4.1c1.2-2.6,3.8-4.4,6.7-4.4H22v4.3
			L30,21.9z"/>
		<path fill="#A294C7" d="M21.3,31.7v-5.3h-0.4c-2.5,0-4.9,1.6-6,4l-0.6,1.3l-0.7-1.2c-0.8-1.4-1.3-2.9-1.3-4.5
			c0-4.7,3.9-8.6,8.6-8.6h0.4V12l9.8,9.8L21.3,31.7z M20.9,18.9c-3.9,0-7.1,3.2-7.1,7.1c0,0.9,0.2,1.7,0.5,2.5
			c1.5-2.2,4-3.6,6.6-3.6h1.9v3.2l6.2-6.2l-6.2-6.2v3.2H20.9z"/>
	</g>
	<g>
		<polygon fill="#8F9BA8" points="13.1,25.6 0.9,25.6 0.9,0.3 15.2,0.3 22.8,7.9 22.8,15 21.3,15 21.3,8.5 14.6,1.8 2.4,1.8 
			2.4,24.1 13.1,24.1 		"/>
	</g>
	<g>
		<path fill="#8F9BA8" d="M22,8.9h-7.1c-0.2,0-0.4-0.1-0.5-0.2c-0.1-0.1-0.2-0.3-0.2-0.5l0-7.1c0-0.3,0.2-0.6,0.5-0.7
			c0.3-0.1,0.6-0.1,0.8,0.2l7.1,7.1c0.2,0.2,0.3,0.5,0.2,0.8C22.6,8.7,22.3,8.9,22,8.9z M15.6,7.4h4.6l-4.6-4.6L15.6,7.4z"/>
	</g>
</g>
</svg>
