<?xml version="1.0" encoding="utf-8"?>
<!-- Generator: Adobe Illustrator 18.0.0, SVG Export Plug-In . SVG Version: 6.00 Build 0)  -->
<!DOCTYPE svg PUBLIC "-//W3C//DTD SVG 1.1//EN" "http://www.w3.org/Graphics/SVG/1.1/DTD/svg11.dtd">
<svg version="1.1" id="Layer_1" xmlns="http://www.w3.org/2000/svg" xmlns:xlink="http://www.w3.org/1999/xlink" x="0px" y="0px"
	 viewBox="0 0 32 32" enable-background="new 0 0 32 32" xml:space="preserve">
<g>
	<g>
		<circle fill="#FFFFFF" cx="16" cy="16" r="14.5"/>
		<path fill="#B4A79C" d="M16,31.2C7.6,31.2,0.8,24.4,0.8,16C0.8,7.6,7.6,0.7,16,0.7S31.3,7.6,31.3,16C31.3,24.4,24.4,31.2,16,31.2z
			 M16,2.2C8.4,2.2,2.3,8.4,2.3,16S8.4,29.7,16,29.7S29.8,23.6,29.8,16S23.6,2.2,16,2.2z"/>
	</g>
	<g>
		<line fill="#FFFFFF" x1="13.6" y1="12.2" x2="8.3" y2="3.7"/>
		<rect x="6" y="7.2" transform="matrix(0.5289 0.8487 -0.8487 0.5289 11.9236 -5.5763)" fill="#B4A79C" width="10" height="1.5"/>
	</g>
	<g>
		<line fill="#FFFFFF" x1="23.7" y1="28.3" x2="18.4" y2="19.8"/>
		
			<rect x="16" y="23.3" transform="matrix(0.5289 0.8487 -0.8487 0.5289 30.2992 -6.5066)" fill="#B4A79C" width="10.1" height="1.5"/>
	</g>
	<g>
		<line fill="#FFFFFF" x1="18.4" y1="12.2" x2="23.7" y2="3.7"/>
		
			<rect x="20.3" y="2.9" transform="matrix(0.8488 0.5288 -0.5288 0.8488 7.386 -9.9064)" fill="#B4A79C" width="1.5" height="10.1"/>
	</g>
	<g>
		<line fill="#FFFFFF" x1="8.3" y1="28.3" x2="13.6" y2="19.8"/>
		
			<rect x="10.2" y="19" transform="matrix(0.8488 0.5288 -0.5288 0.8488 14.3767 -2.1718)" fill="#B4A79C" width="1.5" height="10"/>
	</g>
	<g>
		<circle fill="#FFFFFF" cx="16" cy="16" r="4.5"/>
		<path fill="#B4A79C" d="M16,21.2c-2.9,0-5.2-2.3-5.2-5.2c0-2.9,2.3-5.2,5.2-5.2c2.9,0,5.2,2.3,5.2,5.2
			C21.2,18.9,18.9,21.2,16,21.2z M16,12.3c-2.1,0-3.7,1.7-3.7,3.7c0,2.1,1.7,3.7,3.7,3.7c2.1,0,3.7-1.7,3.7-3.7
			C19.7,13.9,18.1,12.3,16,12.3z"/>
	</g>
	<g>
		<circle fill="#FFFFFF" cx="16" cy="16" r="1.6"/>
		<path fill="#B4A79C" d="M16,18.4c-1.3,0-2.4-1.1-2.4-2.4c0-1.3,1.1-2.4,2.4-2.4c1.3,0,2.4,1.1,2.4,2.4
			C18.4,17.3,17.3,18.4,16,18.4z M16,15.1c-0.5,0-0.9,0.4-0.9,0.9c0,0.5,0.4,0.9,0.9,0.9c0.5,0,0.9-0.4,0.9-0.9
			C16.9,15.5,16.5,15.1,16,15.1z"/>
	</g>
</g>
</svg>
