<?xml version="1.0" encoding="utf-8"?>
<!-- Generator: Adobe Illustrator 18.0.0, SVG Export Plug-In . SVG Version: 6.00 Build 0)  -->
<!DOCTYPE svg PUBLIC "-//W3C//DTD SVG 1.1//EN" "http://www.w3.org/Graphics/SVG/1.1/DTD/svg11.dtd">
<svg version="1.1" id="Layer_1" xmlns="http://www.w3.org/2000/svg" xmlns:xlink="http://www.w3.org/1999/xlink" x="0px" y="0px"
	 viewBox="0 0 32 32" enable-background="new 0 0 32 32" xml:space="preserve">
<g>
	<g>
		<path fill="#F0F7F7" d="M29.2,29.5H2.8c-0.7,0-1.3-0.6-1.3-1.3v-8.5c0-0.7,0.6-1.3,1.3-1.3h26.4c0.7,0,1.3,0.6,1.3,1.3v8.5
			C30.5,28.9,29.9,29.5,29.2,29.5z"/>
		<path fill="#8F9BA8" d="M29.2,30.3H2.8c-1.1,0-2.1-0.9-2.1-2.1v-8.5c0-1.1,0.9-2.1,2.1-2.1h26.4c1.1,0,2.1,0.9,2.1,2.1v8.5
			C31.3,29.3,30.3,30.3,29.2,30.3z M2.8,19.1c-0.3,0-0.6,0.3-0.6,0.6v8.5c0,0.3,0.3,0.6,0.6,0.6h26.4c0.3,0,0.6-0.3,0.6-0.6v-8.5
			c0-0.3-0.3-0.6-0.6-0.6H2.8z"/>
	</g>
	<path fill="#8F9BA8" d="M29.1,19.1H2.9l10.8-12l0.6,0.5c1,0.9,2.5,0.9,3.4,0l0.6-0.5L29.1,19.1z M6.3,17.6h19.4l-7.6-8.4
		c-1.3,0.8-3,0.8-4.2,0L6.3,17.6z"/>
	<path fill="#8F9BA8" d="M16,9.8c-1,0-2-0.4-2.7-1.1C12.4,8,12,6.9,12,5.8c0-2.2,1.8-4,4-4c2.2,0,4,1.8,4,4c0,1.1-0.5,2.2-1.3,3
		C18,9.5,17,9.8,16,9.8z M16,3.2c-1.4,0-2.5,1.1-2.5,2.5c0,0.7,0.3,1.4,0.8,1.9c1,0.9,2.5,0.9,3.4,0c0.5-0.5,0.8-1.2,0.8-1.9
		C18.5,4.4,17.4,3.2,16,3.2z"/>
</g>
</svg>
