<?xml version="1.0" encoding="utf-8"?>
<!-- Generator: Adobe Illustrator 18.0.0, SVG Export Plug-In . SVG Version: 6.00 Build 0)  -->
<!DOCTYPE svg PUBLIC "-//W3C//DTD SVG 1.1//EN" "http://www.w3.org/Graphics/SVG/1.1/DTD/svg11.dtd">
<svg version="1.1" id="Layer_1" xmlns="http://www.w3.org/2000/svg" xmlns:xlink="http://www.w3.org/1999/xlink" x="0px" y="0px"
	 viewBox="0 0 32 32" enable-background="new 0 0 32 32" xml:space="preserve">
<g>
	<g>
		<path fill="#8F9BA8" d="M19.8,19.9c-2.2,0-4.1-0.8-5.5-2.2c-3.3-3.3-2.7-9.4,1.3-13.4c2.2-2.2,5.1-3.5,7.9-3.5
			c2.2,0,4.1,0.8,5.5,2.2c3.3,3.3,2.7,9.4-1.3,13.4C25.5,18.6,22.6,19.9,19.8,19.9z M23.6,2.2c-2.4,0-4.9,1.1-6.9,3.1
			c-3.5,3.5-4.1,8.6-1.3,11.3c1.1,1.1,2.7,1.7,4.4,1.7c2.4,0,4.9-1.1,6.9-3.1C30.2,11.8,30.8,6.7,28,4C26.9,2.8,25.4,2.2,23.6,2.2z"
			/>
	</g>
	<g>
		<path fill="none" stroke="#8F9BA8" stroke-width="1.5" stroke-miterlimit="10" d="M18.6,21"/>
	</g>
	<g>
		<g>
			<path fill="#8F9BA8" d="M9.2,23.9l-1-1.1c4.4-4,12-4.4,12.3-4.4l0.1,1.5C20.5,19.8,13.2,20.2,9.2,23.9z"/>
		</g>
		<g>
			<path fill="#8F9BA8" d="M9.3,23.8l-1.1-1c3.7-4,4-11.3,4-11.3l1.5,0.1C13.7,11.8,13.3,19.4,9.3,23.8z"/>
		</g>
	</g>
	<g>
		<path fill="#79C693" d="M3.2,31.2c-0.7,0-1.3-0.3-1.8-0.7c-1-1-1-2.6,0-3.5l4.2-4.2c0.9-0.9,2.6-0.9,3.5,0c1,1,1,2.5,0,3.5L5,30.5
			C4.5,31,3.9,31.2,3.2,31.2z M7.5,23.5c-0.3,0-0.5,0.1-0.7,0.3l-4.2,4.2c-0.4,0.4-0.4,1,0,1.4c0.4,0.4,1,0.4,1.4,0l4.2-4.2
			c0.4-0.4,0.4-1,0-1.4C8,23.6,7.7,23.5,7.5,23.5z"/>
	</g>
</g>
</svg>
