<?xml version="1.0" encoding="utf-8"?>
<!-- Generator: Adobe Illustrator 18.0.0, SVG Export Plug-In . SVG Version: 6.00 Build 0)  -->
<!DOCTYPE svg PUBLIC "-//W3C//DTD SVG 1.1//EN" "http://www.w3.org/Graphics/SVG/1.1/DTD/svg11.dtd">
<svg version="1.1" id="Layer_1" xmlns="http://www.w3.org/2000/svg" xmlns:xlink="http://www.w3.org/1999/xlink" x="0px" y="0px"
	 viewBox="0 0 32 32" enable-background="new 0 0 32 32" xml:space="preserve">
<pattern  x="-42" y="-168" width="24.1" height="24.1" patternUnits="userSpaceOnUse" id="New_Pattern_Swatch_2" viewBox="0 -24.1 24.1 24.1" overflow="visible">
	<g>
		<polygon fill="none" points="0,0 24.1,0 24.1,-24.1 0,-24.1 		"/>
		<polygon fill="#E0CB81" points="24.1,0 0,0 0,-24.1 24.1,-24.1 		"/>
	</g>
</pattern>
<g>
	<g>
		<path fill="#8F9BA8" d="M10.8,9.9H1.1V0.7h9.6V9.9z M2.6,8.4h6.6V2.2H2.6V8.4z"/>
	</g>
	<g>
		<rect x="12.3" y="2.8" fill="#8F9BA8" width="18.6" height="1.5"/>
	</g>
	<g>
		<rect x="12.3" y="6.3" fill="#8F9BA8" width="18.6" height="1.5"/>
	</g>
	<g>
		<rect x="12.3" y="13.5" fill="#8F9BA8" width="18.6" height="1.5"/>
	</g>
	<g>
		<rect x="12.3" y="17" fill="#8F9BA8" width="18.6" height="1.5"/>
	</g>
	<g>
		<rect x="12.3" y="24.2" fill="#8F9BA8" width="18.6" height="1.5"/>
	</g>
	<g>
		<rect x="12.3" y="27.7" fill="#8F9BA8" width="18.6" height="1.5"/>
	</g>
	<g>
		<pattern  id="SVGID_2_" xlink:href="#New_Pattern_Swatch_2" patternTransform="matrix(1 0 0 1 -35.8407 -74.8803)">
		</pattern>
		<path fill="url(#SVGID_2_)" d="M10.8,20.6H1.1v-9.1h9.6V20.6z M2.6,19.1h6.6v-6.1H2.6V19.1z"/>
	</g>
	<g>
		<path fill="#8F9BA8" d="M10.8,31.2H1.1v-9.1h9.6V31.2z M2.6,29.7h6.6v-6.1H2.6V29.7z"/>
	</g>
</g>
</svg>
