<?xml version="1.0" encoding="utf-8"?>
<!-- Generator: Adobe Illustrator 18.0.0, SVG Export Plug-In . SVG Version: 6.00 Build 0)  -->
<!DOCTYPE svg PUBLIC "-//W3C//DTD SVG 1.1//EN" "http://www.w3.org/Graphics/SVG/1.1/DTD/svg11.dtd">
<svg version="1.1" id="Layer_1" xmlns="http://www.w3.org/2000/svg" xmlns:xlink="http://www.w3.org/1999/xlink" x="0px" y="0px"
	 viewBox="0 0 32 32" enable-background="new 0 0 32 32" xml:space="preserve">
<g>
	<g>
		<path fill="#79C693" d="M16,29.6C8.5,29.6,2.4,23.5,2.4,16C2.4,8.5,8.5,2.4,16,2.4c7.5,0,13.6,6.1,13.6,13.6
			C29.5,23.5,23.5,29.6,16,29.6z M16,3.9C9.3,3.9,3.9,9.4,3.9,16c0,6.6,5.4,12.1,12.1,12.1C22.6,28.1,28,22.6,28,16
			C28,9.4,22.6,3.9,16,3.9z"/>
	</g>
	<g>
		<path fill="#79C693" d="M16,19.8c-2.1,0-3.8-1.7-3.8-3.8c0-2.1,1.7-3.8,3.8-3.8c2.1,0,3.8,1.7,3.8,3.8
			C19.8,18.1,18.1,19.8,16,19.8z M16,13.7c-1.3,0-2.3,1.1-2.3,2.3c0,1.3,1.1,2.3,2.3,2.3c1.3,0,2.3-1.1,2.3-2.3
			C18.3,14.7,17.3,13.7,16,13.7z"/>
	</g>
	<g>
		<path fill="#79C693" d="M29,5.3c-1.3,0-2.3-1-2.3-2.3c0-1.3,1-2.3,2.3-2.3c1.3,0,2.3,1,2.3,2.3C31.2,4.3,30.2,5.3,29,5.3z M29,2.2
			c-0.4,0-0.8,0.3-0.8,0.8s0.3,0.8,0.8,0.8s0.8-0.3,0.8-0.8S29.4,2.2,29,2.2z"/>
	</g>
	<g>
		<path fill="#79C693" d="M3,5.3c-1.3,0-2.3-1-2.3-2.3c0-1.3,1-2.3,2.3-2.3c1.3,0,2.3,1,2.3,2.3C5.3,4.3,4.3,5.3,3,5.3z M3,2.2
			C2.6,2.2,2.3,2.6,2.3,3S2.6,3.8,3,3.8S3.8,3.4,3.8,3S3.5,2.2,3,2.2z"/>
	</g>
	<g>
		<path fill="#79C693" d="M29,31.2c-1.3,0-2.3-1-2.3-2.3c0-1.3,1-2.3,2.3-2.3c1.3,0,2.3,1,2.3,2.3C31.2,30.2,30.2,31.2,29,31.2z
			 M29,28.2c-0.4,0-0.8,0.3-0.8,0.8c0,0.4,0.3,0.8,0.8,0.8s0.8-0.3,0.8-0.8C29.7,28.6,29.4,28.2,29,28.2z"/>
	</g>
	<g>
		<path fill="#79C693" d="M3,31.2c-1.3,0-2.3-1-2.3-2.3c0-1.3,1-2.3,2.3-2.3c1.3,0,2.3,1,2.3,2.3C5.3,30.2,4.3,31.2,3,31.2z M3,28.2
			c-0.4,0-0.8,0.3-0.8,0.8c0,0.4,0.3,0.8,0.8,0.8s0.8-0.3,0.8-0.8C3.8,28.6,3.5,28.2,3,28.2z"/>
	</g>
</g>
</svg>
