<?xml version="1.0" encoding="utf-8"?>
<!-- Generator: Adobe Illustrator 18.0.0, SVG Export Plug-In . SVG Version: 6.00 Build 0)  -->
<!DOCTYPE svg PUBLIC "-//W3C//DTD SVG 1.1//EN" "http://www.w3.org/Graphics/SVG/1.1/DTD/svg11.dtd">
<svg version="1.1" id="Layer_1" xmlns="http://www.w3.org/2000/svg" xmlns:xlink="http://www.w3.org/1999/xlink" x="0px" y="0px"
	 viewBox="0 0 32 32" enable-background="new 0 0 32 32" xml:space="preserve">
<g>
	<g>
		<rect x="1.5" y="1.5" fill="#FFFFFF" width="7.8" height="7.8"/>
		<path fill="#8F9BA8" d="M10,10H0.8V0.7H10V10z M2.3,8.5h6.3V2.2H2.3V8.5z"/>
	</g>
	<g>
		<rect x="12.1" y="1.5" fill="#FFFFFF" width="7.8" height="7.8"/>
		<path fill="#8F9BA8" d="M20.6,10h-9.3V0.7h9.3V10z M12.9,8.5h6.3V2.2h-6.3C12.9,2.2,12.9,8.5,12.9,8.5z"/>
	</g>
	<g>
		<rect x="22.7" y="1.5" fill="#FFFFFF" width="7.8" height="7.8"/>
		<path fill="#8F9BA8" d="M31.3,10H22V0.7h9.3V10z M23.5,8.5h6.3V2.2h-6.3V8.5z"/>
	</g>
	<g>
		<rect x="1.5" y="12.1" fill="#FFFFFF" width="7.8" height="7.8"/>
		<path fill="#8F9BA8" d="M10,20.6H0.8v-9.3H10V20.6z M2.3,19.1h6.3v-6.3H2.3V19.1z"/>
	</g>
	<g>
		<rect x="1.5" y="22.7" fill="#FFFFFF" width="7.8" height="7.8"/>
		<path fill="#8F9BA8" d="M10,31.2H0.8V22H10V31.2z M2.3,29.7h6.3v-6.3H2.3V29.7z"/>
	</g>
	<g>
		<rect x="12.1" y="12.1" fill="#F0F7F7" width="7.8" height="7.8"/>
		<path fill="#8F9BA8" d="M20.6,20.6h-9.3v-9.3h9.3V20.6z M12.9,19.1h6.3v-6.3h-6.3C12.9,12.8,12.9,19.1,12.9,19.1z"/>
	</g>
	<g>
		<rect x="12.1" y="22.7" fill="#FFFFFF" width="7.8" height="7.8"/>
		<path fill="#8F9BA8" d="M20.6,31.2h-9.3V22h9.3V31.2z M12.9,29.7h6.3v-6.3h-6.3C12.9,23.4,12.9,29.7,12.9,29.7z"/>
	</g>
	<g>
		<rect x="22.7" y="12.1" fill="#FFFFFF" width="7.8" height="7.8"/>
		<path fill="#8F9BA8" d="M31.3,20.6H22v-9.3h9.3V20.6z M23.5,19.1h6.3v-6.3h-6.3V19.1z"/>
	</g>
	<g>
		<rect x="22.7" y="22.7" fill="#FFFFFF" width="7.8" height="7.8"/>
		<path fill="#8F9BA8" d="M31.3,31.2H22V22h9.3V31.2z M23.5,29.7h6.3v-6.3h-6.3V29.7z"/>
	</g>
</g>
</svg>
