<?xml version="1.0" encoding="utf-8"?>
<!-- Generator: Adobe Illustrator 18.0.0, SVG Export Plug-In . SVG Version: 6.00 Build 0)  -->
<!DOCTYPE svg PUBLIC "-//W3C//DTD SVG 1.1//EN" "http://www.w3.org/Graphics/SVG/1.1/DTD/svg11.dtd">
<svg version="1.1" id="Layer_1" xmlns="http://www.w3.org/2000/svg" xmlns:xlink="http://www.w3.org/1999/xlink" x="0px" y="0px"
	 viewBox="0 0 32 32" enable-background="new 0 0 32 32" xml:space="preserve">
<g>
	<g>
		<path fill="#B4A79C" d="M27.3,31.2H4.7c-2.2,0-4-1.8-4-4V4.7c0-2.2,1.8-4,4-4h22.6c2.2,0,4,1.8,4,4v22.6
			C31.3,29.5,29.5,31.2,27.3,31.2z M4.7,2.2c-1.4,0-2.5,1.1-2.5,2.5v22.6c0,1.4,1.1,2.5,2.5,2.5h22.6c1.4,0,2.5-1.1,2.5-2.5V4.7
			c0-1.4-1.1-2.5-2.5-2.5C27.3,2.2,4.7,2.2,4.7,2.2z"/>
	</g>
	<g>
		
			<rect x="15.2" y="5.9" transform="matrix(-0.7071 -0.7071 0.7071 -0.7071 15.8784 38.5771)" fill="#B4A79C" width="1.5" height="20.3"/>
	</g>
	<g>
		
			<rect x="5.9" y="15.3" transform="matrix(-0.7071 -0.7071 0.7071 -0.7071 16.1206 38.6776)" fill="#B4A79C" width="20.3" height="1.5"/>
	</g>
</g>
</svg>
