<?xml version="1.0" encoding="utf-8"?>
<!-- Generator: Adobe Illustrator 18.0.0, SVG Export Plug-In . SVG Version: 6.00 Build 0)  -->
<!DOCTYPE svg PUBLIC "-//W3C//DTD SVG 1.1//EN" "http://www.w3.org/Graphics/SVG/1.1/DTD/svg11.dtd">
<svg version="1.1" id="Layer_1" xmlns="http://www.w3.org/2000/svg" xmlns:xlink="http://www.w3.org/1999/xlink" x="0px" y="0px"
	 viewBox="0 0 32 32" enable-background="new 0 0 32 32" xml:space="preserve">
<pattern  y="32" width="24.1" height="24.1" patternUnits="userSpaceOnUse" id="SVGID_2_" viewBox="0 -24.1 24.1 24.1" overflow="visible">
	<g>
		<polygon fill="none" points="0,0 24.1,0 24.1,-24.1 0,-24.1 		"/>
		<g>
			<polygon fill="none" points="0,-24.1 24.1,-24.1 24.1,0 0,0 			"/>
			<polygon fill="#E0CB81" points="24.1,-24.1 0,-24.1 0,0 24.1,0 			"/>
		</g>
	</g>
</pattern>
<g>
	<g>
		<path fill="#8F9BA8" d="M27.3,31.2H4.7c-2.2,0-4-1.8-4-4V4.7c0-2.2,1.8-4,4-4h22.6c2.2,0,4,1.8,4,4v22.6
			C31.3,29.5,29.5,31.2,27.3,31.2z M4.7,2.2c-1.4,0-2.5,1.1-2.5,2.5v22.6c0,1.4,1.1,2.5,2.5,2.5h22.6c1.4,0,2.5-1.1,2.5-2.5V4.7
			c0-1.4-1.1-2.5-2.5-2.5C27.3,2.2,4.7,2.2,4.7,2.2z"/>
	</g>
	<g>
		<pattern  id="SVGID_1_" xlink:href="#SVGID_2_" patternTransform="matrix(1 0 0 -1 -315.2442 -16213.4189)">
		</pattern>
		<polygon fill="url(#SVGID_1_)" points="12.2,23.6 6.2,17.6 7.3,16.5 12.2,21.4 24.7,9 25.8,10 		"/>
	</g>
</g>
</svg>
