<?xml version="1.0" encoding="utf-8"?>
<!-- Generator: Adobe Illustrator 18.0.0, SVG Export Plug-In . SVG Version: 6.00 Build 0)  -->
<!DOCTYPE svg PUBLIC "-//W3C//DTD SVG 1.1//EN" "http://www.w3.org/Graphics/SVG/1.1/DTD/svg11.dtd">
<svg version="1.1" id="Layer_1" xmlns="http://www.w3.org/2000/svg" xmlns:xlink="http://www.w3.org/1999/xlink" x="0px" y="0px"
	 viewBox="0 0 32 32" enable-background="new 0 0 32 32" xml:space="preserve">
<g>
	<g>
		<path fill="#79C693" d="M27.3,31.2H4.7c-2.2,0-4-1.8-4-4V4.7c0-2.2,1.8-4,4-4h5.1v1.5H4.7c-1.4,0-2.5,1.1-2.5,2.5v22.6
			c0,1.4,1.1,2.5,2.5,2.5h22.6c1.4,0,2.5-1.1,2.5-2.5V4.7c0-1.4-1.1-2.5-2.5-2.5h-5.1V0.7h5.1c2.2,0,4,1.8,4,4v22.6
			C31.3,29.5,29.5,31.2,27.3,31.2z"/>
	</g>
	<g>
		<line fill="none" x1="16" y1="1.5" x2="16" y2="16.7"/>
		<rect x="15.3" y="1.5" fill="#79C693" width="1.5" height="15.2"/>
	</g>
	<g>
		<polygon fill="#FFFFFF" points="22.4,16.7 16,23.1 9.6,16.7 		"/>
		<path fill="#79C693" d="M16,24.2L7.8,16h16.4L16,24.2z M11.4,17.5l4.6,4.6l4.6-4.6H11.4z"/>
	</g>
</g>
</svg>
