<?xml version="1.0" encoding="utf-8"?>
<!-- Generator: Adobe Illustrator 18.0.0, SVG Export Plug-In . SVG Version: 6.00 Build 0)  -->
<!DOCTYPE svg PUBLIC "-//W3C//DTD SVG 1.1//EN" "http://www.w3.org/Graphics/SVG/1.1/DTD/svg11.dtd">
<svg version="1.1" id="Layer_1" xmlns="http://www.w3.org/2000/svg" xmlns:xlink="http://www.w3.org/1999/xlink" x="0px" y="0px"
	 viewBox="0 0 32 32" enable-background="new 0 0 32 32" xml:space="preserve">
<g>
	<g>
		<polygon fill="#8F9BA8" points="15.7,25.7 0.7,25.7 0.7,0.4 15,0.4 22.6,8 22.6,15.1 21.1,15.1 21.1,8.6 14.4,1.9 2.2,1.9 
			2.2,24.2 15.7,24.2 		"/>
	</g>
	<g>
		<path fill="#8F9BA8" d="M21.9,9h-7.1c-0.2,0-0.4-0.1-0.5-0.2C14.1,8.7,14,8.5,14,8.3l0-7.1c0-0.3,0.2-0.6,0.5-0.7
			c0.3-0.1,0.6-0.1,0.8,0.2l7.1,7.1c0.2,0.2,0.3,0.5,0.2,0.8C22.4,8.8,22.2,9,21.9,9z M15.5,7.5h4.6l-4.6-4.6L15.5,7.5z"/>
	</g>
	<g>
		<path fill="#FBF4B2" d="M21.4,30.6l8-8h-4.3v-1.2c0-4.3-3.5-7.8-7.9-7.8c-1.5,0-2.9,0.4-4.1,1.2c2.6,1.2,4.4,3.8,4.4,6.7v1.2h-4.3
			L21.4,30.6z"/>
		<path fill="#AEA051" d="M21.4,31.6l-9.8-9.8h5.3v-0.4c0-2.5-1.6-4.9-4-6l-1.3-0.6l1.2-0.7c1.4-0.8,2.9-1.3,4.5-1.3
			c4.7,0,8.6,3.9,8.6,8.6v0.4h5.3L21.4,31.6z M15.2,23.3l6.2,6.2l6.2-6.2h-3.2v-1.9c0-3.9-3.2-7.1-7.1-7.1c-0.9,0-1.7,0.2-2.5,0.5
			c2.2,1.5,3.6,4,3.6,6.6v1.9H15.2z"/>
	</g>
</g>
</svg>
