<?xml version="1.0" encoding="utf-8"?>
<!-- Generator: Adobe Illustrator 18.0.0, SVG Export Plug-In . SVG Version: 6.00 Build 0)  -->
<!DOCTYPE svg PUBLIC "-//W3C//DTD SVG 1.1//EN" "http://www.w3.org/Graphics/SVG/1.1/DTD/svg11.dtd">
<svg version="1.1" id="Layer_1" xmlns="http://www.w3.org/2000/svg" xmlns:xlink="http://www.w3.org/1999/xlink" x="0px" y="0px"
	 viewBox="0 0 32 32" enable-background="new 0 0 32 32" xml:space="preserve">
<g>
	<g>
		<path fill="#74B1E0" d="M27.3,31.2H4.7c-2.2,0-4-1.8-4-4V4.7c0-2.2,1.8-4,4-4h22.6c2.2,0,4,1.8,4,4v5.1h-1.5V4.7
			c0-1.4-1.1-2.5-2.5-2.5H4.7c-1.4,0-2.5,1.1-2.5,2.5v22.6c0,1.4,1.1,2.5,2.5,2.5h22.6c1.4,0,2.5-1.1,2.5-2.5v-5.1h1.5v5.1
			C31.3,29.5,29.5,31.2,27.3,31.2z"/>
	</g>
	<g>
		<line fill="none" x1="30.5" y1="16" x2="15.3" y2="16"/>
		<rect x="15.3" y="15.3" fill="#74B1E0" width="15.2" height="1.5"/>
	</g>
	<g>
		<polygon fill="#CDE4F7" points="15.3,22.4 8.9,16 15.3,9.6 		"/>
		<path fill="#74B1E0" d="M16,24.2L7.8,16L16,7.8V24.2z M9.9,16l4.6,4.6v-9.2L9.9,16z"/>
	</g>
</g>
</svg>
