<?xml version="1.0" encoding="utf-8"?>
<!-- Generator: Adobe Illustrator 18.0.0, SVG Export Plug-In . SVG Version: 6.00 Build 0)  -->
<!DOCTYPE svg PUBLIC "-//W3C//DTD SVG 1.1//EN" "http://www.w3.org/Graphics/SVG/1.1/DTD/svg11.dtd">
<svg version="1.1" id="Layer_1" xmlns="http://www.w3.org/2000/svg" xmlns:xlink="http://www.w3.org/1999/xlink" x="0px" y="0px"
	 viewBox="0 0 32 32" enable-background="new 0 0 32 32" xml:space="preserve">
<g>
	<g>
		
			<rect x="3.8" y="10.7" transform="matrix(0.7071 0.7071 -0.7071 0.7071 11.4099 -4.7263)" fill="#B4A79C" width="15.2" height="1.5"/>
	</g>
	<g>
		<polygon fill="#F9F8F2" points="1.5,10.5 1.5,1.5 10.5,1.5 		"/>
		<path fill="#B4A79C" d="M0.8,12.4l0-11.6l11.6,0L0.8,12.4z M2.3,2.2l0,6.5l6.5-6.5L2.3,2.2z"/>
	</g>
	<g>
		<path fill="#B4A79C" d="M27.3,31.2l-22.6,0c-2.2,0-4-1.8-4-4l0-12.2h1.5l0,12.2c0,1.4,1.1,2.5,2.5,2.5l22.6,0
			c1.4,0,2.5-1.1,2.5-2.5l0-22.6c0-1.4-1.1-2.5-2.5-2.5l-12.2,0V0.8l12.2,0c2.2,0,4,1.8,4,4l0,22.6C31.3,29.5,29.5,31.2,27.3,31.2z"
			/>
	</g>
</g>
</svg>
