<?xml version="1.0" encoding="utf-8"?>
<!-- Generator: Adobe Illustrator 18.0.0, SVG Export Plug-In . SVG Version: 6.00 Build 0)  -->
<!DOCTYPE svg PUBLIC "-//W3C//DTD SVG 1.1//EN" "http://www.w3.org/Graphics/SVG/1.1/DTD/svg11.dtd">
<svg version="1.1" id="Layer_1" xmlns="http://www.w3.org/2000/svg" xmlns:xlink="http://www.w3.org/1999/xlink" x="0px" y="0px"
	 viewBox="0 0 32 32" enable-background="new 0 0 32 32" xml:space="preserve">
<g>
	<g>
		<line fill="#F0F7F7" x1="15.2" y1="15.2" x2="26" y2="26"/>
		
			<rect x="13" y="19.8" transform="matrix(0.7071 0.7071 -0.7071 0.7071 20.5895 -8.5286)" fill="#8F9BA8" width="15.2" height="1.5"/>
	</g>
	<g>
		<polygon fill="#F0F7F7" points="30.5,21.5 30.5,30.5 21.5,30.5 		"/>
		<path fill="#8F9BA8" d="M31.2,31.2l-11.6,0l11.6-11.6V31.2z M23.3,29.7l6.5,0v-6.5L23.3,29.7z"/>
	</g>
	<g>
		<path fill="#8F9BA8" d="M16.9,31.2l-12.2,0c-2.2,0-4-1.8-4-4l0-22.6c0-2.2,1.8-4,4-4l22.6,0c2.2,0,4,1.8,4,4l0,12.2h-1.5l0-12.2
			c0-1.4-1.1-2.5-2.5-2.5l-22.6,0c-1.4,0-2.5,1.1-2.5,2.5l0,22.6c0,1.4,1.1,2.5,2.5,2.5l12.2,0V31.2z"/>
	</g>
</g>
</svg>
