<?xml version="1.0" encoding="utf-8"?>
<!-- Generator: Adobe Illustrator 18.0.0, SVG Export Plug-In . SVG Version: 6.00 Build 0)  -->
<!DOCTYPE svg PUBLIC "-//W3C//DTD SVG 1.1//EN" "http://www.w3.org/Graphics/SVG/1.1/DTD/svg11.dtd">
<svg version="1.1" id="Layer_1" xmlns="http://www.w3.org/2000/svg" xmlns:xlink="http://www.w3.org/1999/xlink" x="0px" y="0px"
	 viewBox="0 0 32 32" enable-background="new 0 0 32 32" xml:space="preserve">
<g>
	<g>
		
			<rect x="10.7" y="13" transform="matrix(0.7071 0.7071 -0.7071 0.7071 17.9022 -2.0373)" fill="#79C693" width="1.5" height="15.2"/>
	</g>
	<g>
		<path fill="#79C693" d="M12.4,31.2l-11.6,0V19.6L12.4,31.2z M2.3,29.7l6.5,0l-6.5-6.5V29.7z"/>
	</g>
	<g>
		<path fill="#79C693" d="M27.3,31.3l-12.2,0v-1.5l12.2,0c1.4,0,2.5-1.1,2.5-2.5l0-22.6c0-1.4-1.1-2.5-2.5-2.5l-22.6,0
			c-1.4,0-2.5,1.1-2.5,2.5l0,12.2H0.8l0-12.2c0-2.2,1.8-4,4-4l22.6,0c2.2,0,4,1.8,4,4l0,22.6C31.2,29.5,29.5,31.3,27.3,31.3z"/>
	</g>
</g>
</svg>
