<?xml version="1.0" encoding="utf-8"?>
<!-- Generator: Adobe Illustrator 18.0.0, SVG Export Plug-In . SVG Version: 6.00 Build 0)  -->
<!DOCTYPE svg PUBLIC "-//W3C//DTD SVG 1.1//EN" "http://www.w3.org/Graphics/SVG/1.1/DTD/svg11.dtd">
<svg version="1.1" id="Layer_1" xmlns="http://www.w3.org/2000/svg" xmlns:xlink="http://www.w3.org/1999/xlink" x="0px" y="0px"
	 viewBox="0 0 32 32" enable-background="new 0 0 32 32" xml:space="preserve">
<g>
	<g>
		<line fill="#F2E8B9" x1="1.5" y1="30.5" x2="12.3" y2="19.7"/>
		
			<rect x="6.1" y="17.5" transform="matrix(0.7071 0.7071 -0.7071 0.7071 19.7744 2.4849)" fill="#B4A79C" width="1.5" height="15.2"/>
	</g>
	<g>
		<polygon fill="#F9F8F2" points="7.8,15.2 16.8,15.2 16.8,24.2 		"/>
		<path fill="#B4A79C" d="M17.5,26.1L5.9,14.5h11.6V26.1z M9.6,16l6.5,6.5V16H9.6z"/>
	</g>
	<g>
		<path fill="#B4A79C" d="M27.3,31.2H12.1v-1.5h15.2c1.4,0,2.5-1.1,2.5-2.5V4.7c0-1.4-1.1-2.5-2.5-2.5H4.7c-1.4,0-2.5,1.1-2.5,2.5
			v15.2H0.8V4.7c0-2.2,1.8-4,4-4h22.6c2.2,0,4,1.8,4,4v22.6C31.3,29.5,29.5,31.2,27.3,31.2z"/>
	</g>
</g>
</svg>
