<?xml version="1.0" encoding="utf-8"?>
<!-- Generator: Adobe Illustrator 18.0.0, SVG Export Plug-In . SVG Version: 6.00 Build 0)  -->
<!DOCTYPE svg PUBLIC "-//W3C//DTD SVG 1.1//EN" "http://www.w3.org/Graphics/SVG/1.1/DTD/svg11.dtd">
<svg version="1.1" id="Layer_1" xmlns="http://www.w3.org/2000/svg" xmlns:xlink="http://www.w3.org/1999/xlink" x="0px" y="0px"
	 viewBox="0 0 32 32" enable-background="new 0 0 32 32" xml:space="preserve">
<g>
	<g>
		<line fill="#F9F8F2" x1="30.5" y1="1.5" x2="19.7" y2="12.3"/>
		
			<rect x="24.4" y="-0.7" transform="matrix(0.7071 0.7071 -0.7071 0.7071 12.2252 -15.7399)" fill="#B4A79C" width="1.5" height="15.2"/>
	</g>
	<g>
		<polygon fill="#F9F8F2" points="24.2,16.8 15.2,16.8 15.2,7.8 		"/>
		<path fill="#B4A79C" d="M14.5,17.5V5.9l11.6,11.6L14.5,17.5z M16,9.6V16l6.5,0L16,9.6z"/>
	</g>
	<g>
		<path fill="#B4A79C" d="M4.7,31.3c-2.2,0-4-1.8-4-4V4.7c0-2.2,1.8-4,4-4l15.2,0v1.5l-15.2,0c-1.4,0-2.5,1.1-2.5,2.5v22.6
			c0,1.4,1.1,2.5,2.5,2.5l22.6,0c1.4,0,2.5-1.1,2.5-2.5V12.1h1.5v15.2c0,2.2-1.8,4-4,4L4.7,31.3z"/>
	</g>
</g>
</svg>
