<?xml version="1.0" encoding="utf-8"?>
<!-- Generator: Adobe Illustrator 18.0.0, SVG Export Plug-In . SVG Version: 6.00 Build 0)  -->
<!DOCTYPE svg PUBLIC "-//W3C//DTD SVG 1.1//EN" "http://www.w3.org/Graphics/SVG/1.1/DTD/svg11.dtd">
<svg version="1.1" id="Layer_1" xmlns="http://www.w3.org/2000/svg" xmlns:xlink="http://www.w3.org/1999/xlink" x="0px" y="0px"
	 viewBox="0 0 32 32" enable-background="new 0 0 32 32" xml:space="preserve">
<g>
	<g>
		<path fill="#8F9BA8" d="M22.3,9.3L22.3,9.3l-7.1,0c-0.2,0-0.4-0.1-0.5-0.2c-0.1-0.1-0.2-0.3-0.2-0.5l0-7.1c0-0.3,0.2-0.6,0.5-0.7
			c0.3-0.1,0.6-0.1,0.8,0.2l7.1,7.1C23,8.3,23.1,8.6,23,8.9C22.9,9.2,22.6,9.3,22.3,9.3z M15.9,7.8l4.5,0l-4.5-4.5L15.9,7.8z"/>
	</g>
	<g>
		<polygon fill="#8F9BA8" points="16.8,26 1.2,26 1.2,0.8 15.5,0.8 23,8.3 23,17.9 21.5,17.9 21.5,8.9 14.9,2.3 2.7,2.3 2.7,24.5 
			16.8,24.5 		"/>
	</g>
	<g>
		<circle fill="#C2E3C8" cx="23.4" cy="23.9" r="6.6"/>
		<path fill="#29AB5E" d="M23.4,31.3c-4.1,0-7.3-3.3-7.3-7.3c0-4.1,3.3-7.3,7.3-7.3c4.1,0,7.3,3.3,7.3,7.3
			C30.8,28,27.5,31.3,23.4,31.3z M23.4,18.1c-3.2,0-5.8,2.6-5.8,5.8c0,3.2,2.6,5.8,5.8,5.8s5.8-2.6,5.8-5.8
			C29.3,20.7,26.6,18.1,23.4,18.1z"/>
	</g>
	<g>
		<rect x="22.7" y="20.3" fill="#29AB5E" width="1.5" height="7.2"/>
	</g>
	<g>
		<rect x="19.8" y="23.2" fill="#29AB5E" width="7.2" height="1.5"/>
	</g>
</g>
</svg>
