<?xml version="1.0" encoding="utf-8"?>
<!-- Generator: Adobe Illustrator 18.0.0, SVG Export Plug-In . SVG Version: 6.00 Build 0)  -->
<!DOCTYPE svg PUBLIC "-//W3C//DTD SVG 1.1//EN" "http://www.w3.org/Graphics/SVG/1.1/DTD/svg11.dtd">
<svg version="1.1" id="Layer_1" xmlns="http://www.w3.org/2000/svg" xmlns:xlink="http://www.w3.org/1999/xlink" x="0px" y="0px"
	 viewBox="0 0 32 32" enable-background="new 0 0 32 32" xml:space="preserve">
<g>
	<g>
		<path fill="#79C693" d="M27.3,31.2h-5.1v-1.5h5.1c1.4,0,2.5-1.1,2.5-2.5V4.7c0-1.4-1.1-2.5-2.5-2.5H4.7c-1.4,0-2.5,1.1-2.5,2.5
			v22.6c0,1.4,1.1,2.5,2.5,2.5h5.1v1.5H4.7c-2.2,0-4-1.8-4-4V4.7c0-2.2,1.8-4,4-4h22.6c2.2,0,4,1.8,4,4v22.6
			C31.3,29.5,29.5,31.2,27.3,31.2z"/>
	</g>
	<g>
		<rect x="15.3" y="15.3" fill="#79C693" width="1.5" height="15.2"/>
	</g>
	<g>
		<path fill="#79C693" d="M24.2,16H7.8L16,7.8L24.2,16z M11.4,14.5h9.2L16,9.9L11.4,14.5z"/>
	</g>
</g>
</svg>
