<?xml version="1.0" encoding="utf-8"?>
<!-- Generator: Adobe Illustrator 18.0.0, SVG Export Plug-In . SVG Version: 6.00 Build 0)  -->
<!DOCTYPE svg PUBLIC "-//W3C//DTD SVG 1.1//EN" "http://www.w3.org/Graphics/SVG/1.1/DTD/svg11.dtd">
<svg version="1.1" id="Layer_1" xmlns="http://www.w3.org/2000/svg" xmlns:xlink="http://www.w3.org/1999/xlink" x="0px" y="0px"
	 viewBox="0 0 32 32" enable-background="new 0 0 32 32" xml:space="preserve">
<g>
	<g>
		<path fill="#B4A79C" d="M16,31.2C7.6,31.2,0.8,24.4,0.8,16C0.8,7.6,7.6,0.7,16,0.7S31.3,7.6,31.3,16C31.3,24.4,24.4,31.2,16,31.2z
			 M16,2.2C8.4,2.2,2.3,8.4,2.3,16c0,7.6,6.2,13.7,13.8,13.7S29.8,23.6,29.8,16C29.8,8.4,23.6,2.2,16,2.2z"/>
	</g>
	<g>
		<line fill="#F9F8F2" x1="16" y1="19.4" x2="16" y2="6.6"/>
		<rect x="15.3" y="6.6" fill="#B4A79C" width="1.5" height="12.9"/>
	</g>
	<g>
		<polygon fill="#F9F8F2" points="10.2,19.4 16,25.4 21.8,19.4 		"/>
		<path fill="#B4A79C" d="M16,26.5l-7.5-7.8h15.1L16,26.5z M12,20.2l4,4.1l4-4.1H12z"/>
	</g>
</g>
</svg>
