<?xml version="1.0" encoding="utf-8"?>
<!-- Generator: Adobe Illustrator 18.0.0, SVG Export Plug-In . SVG Version: 6.00 Build 0)  -->
<!DOCTYPE svg PUBLIC "-//W3C//DTD SVG 1.1//EN" "http://www.w3.org/Graphics/SVG/1.1/DTD/svg11.dtd">
<svg version="1.1" id="Layer_1" xmlns="http://www.w3.org/2000/svg" xmlns:xlink="http://www.w3.org/1999/xlink" x="0px" y="0px"
	 viewBox="0 0 32 32" enable-background="new 0 0 32 32" xml:space="preserve">
<g>
	<g>
		<path fill="#DA8C8C" d="M16,31.3C7.6,31.3,0.8,24.4,0.8,16C0.8,7.6,7.6,0.7,16,0.7S31.2,7.6,31.2,16C31.2,24.4,24.4,31.3,16,31.3z
			 M16,2.2C8.4,2.2,2.3,8.4,2.3,16c0,7.6,6.2,13.8,13.8,13.8c7.6,0,13.7-6.2,13.7-13.8C29.7,8.4,23.6,2.2,16,2.2z"/>
	</g>
	<g>
		<rect x="15.3" y="12.6" fill="#DA8C8C" width="1.5" height="12.9"/>
	</g>
	<g>
		<path fill="#DA8C8C" d="M23.5,13.3H8.5L16,5.5L23.5,13.3z M12,11.8h8l-4-4.1L12,11.8z"/>
	</g>
</g>
</svg>
