<?xml version="1.0" encoding="utf-8"?>
<!-- Generator: Adobe Illustrator 18.0.0, SVG Export Plug-In . SVG Version: 6.00 Build 0)  -->
<!DOCTYPE svg PUBLIC "-//W3C//DTD SVG 1.1//EN" "http://www.w3.org/Graphics/SVG/1.1/DTD/svg11.dtd">
<svg version="1.1" id="Layer_1" xmlns="http://www.w3.org/2000/svg" xmlns:xlink="http://www.w3.org/1999/xlink" x="0px" y="0px"
	 viewBox="0 0 32 32" enable-background="new 0 0 32 32" xml:space="preserve">
<g>
	<g>
		<path fill="#B4A79C" d="M16,31.2C7.6,31.2,0.8,24.4,0.8,16S7.6,0.8,16,0.8S31.3,7.6,31.3,16S24.4,31.2,16,31.2z M16,2.3
			C8.4,2.3,2.3,8.4,2.3,16s6.2,13.8,13.8,13.8S29.9,23.6,29.9,16C29.8,8.4,23.6,2.3,16,2.3z"/>
	</g>
	<g>
		<rect x="6.6" y="15.2" fill="#B4A79C" width="12.9" height="1.5"/>
	</g>
	<g>
		<polygon fill="#F9F8F2" points="19.4,21.8 25.4,16 19.4,10.2 		"/>
		<path fill="#B4A79C" d="M18.7,23.5v-15l7.8,7.5L18.7,23.5z M20.2,12v8l4.1-4L20.2,12z"/>
	</g>
</g>
</svg>
