<?xml version="1.0" encoding="utf-8"?>
<!-- Generator: Adobe Illustrator 18.0.0, SVG Export Plug-In . SVG Version: 6.00 Build 0)  -->
<!DOCTYPE svg PUBLIC "-//W3C//DTD SVG 1.1//EN" "http://www.w3.org/Graphics/SVG/1.1/DTD/svg11.dtd">
<svg version="1.1" id="Layer_1" xmlns="http://www.w3.org/2000/svg" xmlns:xlink="http://www.w3.org/1999/xlink" x="0px" y="0px"
	 viewBox="0 0 32 32" enable-background="new 0 0 32 32" xml:space="preserve">
<g>
	<g>
		<path fill="#74B1E0" d="M16,31.2L16,31.2C7.6,31.2,0.7,24.4,0.7,16S7.6,0.8,16,0.8S31.3,7.6,31.3,16S24.4,31.2,16,31.2z M16,2.3
			C8.4,2.3,2.2,8.4,2.2,16S8.4,29.7,16,29.8c7.6,0,13.8-6.2,13.8-13.8S23.6,2.3,16,2.3z"/>
	</g>
	<g>
		<polygon fill="#CDE4F7" points="12.6,10.2 6.6,16 12.6,21.8 		"/>
		<path fill="#74B1E0" d="M13.3,23.5L5.5,16l7.8-7.5V23.5z M7.7,16l4.1,4v-8L7.7,16z"/>
	</g>
	<g>
		<line fill="none" x1="12.6" y1="16" x2="25.4" y2="16"/>
		<rect x="12.6" y="15.2" fill="#74B1E0" width="12.9" height="1.5"/>
	</g>
</g>
</svg>
