<?xml version="1.0" encoding="utf-8"?>
<!-- Generator: Adobe Illustrator 18.0.0, SVG Export Plug-In . SVG Version: 6.00 Build 0)  -->
<!DOCTYPE svg PUBLIC "-//W3C//DTD SVG 1.1//EN" "http://www.w3.org/Graphics/SVG/1.1/DTD/svg11.dtd">
<svg version="1.1" id="Layer_1" xmlns="http://www.w3.org/2000/svg" xmlns:xlink="http://www.w3.org/1999/xlink" x="0px" y="0px"
	 viewBox="0 0 32 32" enable-background="new 0 0 32 32" xml:space="preserve">
<g>
	<g>
		
			<rect x="17.4" y="7.5" transform="matrix(0.7071 0.7071 -0.7071 0.7071 15.1263 -8.7391)" fill="#79C693" width="1.5" height="12.9"/>
	</g>
	<g>
		<path fill="#79C693" d="M16,31.3c-4.1,0-7.9-1.6-10.8-4.5C2.3,23.9,0.7,20.1,0.8,16c0-4.1,1.6-7.9,4.5-10.8
			C8.1,2.3,11.9,0.7,16,0.7c4.1,0,7.9,1.6,10.8,4.5c2.9,2.9,4.5,6.7,4.5,10.8c0,4.1-1.6,7.9-4.5,10.8C23.9,29.7,20.1,31.3,16,31.3z
			 M16,2.2c-3.7,0-7.1,1.4-9.7,4c-2.6,2.6-4,6.1-4,9.7c0,3.7,1.4,7.1,4,9.7c2.6,2.6,6,4,9.7,4c3.7,0,7.1-1.4,9.7-4
			c2.6-2.6,4-6.1,4-9.7c0-3.7-1.4-7.1-4-9.7C23.1,3.7,19.7,2.2,16,2.2z"/>
	</g>
	<g>
		<path fill="#79C693" d="M8.6,23.4l0.2-10.8l10.7,10.7L8.6,23.4z M10.2,16.1l-0.1,5.8l5.8-0.1L10.2,16.1z"/>
	</g>
</g>
</svg>
