<?xml version="1.0" encoding="utf-8"?>
<!-- Generator: Adobe Illustrator 18.0.0, SVG Export Plug-In . SVG Version: 6.00 Build 0)  -->
<!DOCTYPE svg PUBLIC "-//W3C//DTD SVG 1.1//EN" "http://www.w3.org/Graphics/SVG/1.1/DTD/svg11.dtd">
<svg version="1.1" id="Layer_1" xmlns="http://www.w3.org/2000/svg" xmlns:xlink="http://www.w3.org/1999/xlink" x="0px" y="0px"
	 viewBox="0 0 32 32" enable-background="new 0 0 32 32" xml:space="preserve">
<pattern  y="32" width="24.1" height="24.1" patternUnits="userSpaceOnUse" id="SVGID_4_" viewBox="0 -24.1 24.1 24.1" overflow="visible">
	<g>
		<polygon fill="none" points="0,0 24.1,0 24.1,-24.1 0,-24.1 		"/>
		<g>
			<polygon fill="none" points="0,-24.1 24.1,-24.1 24.1,0 0,0 			"/>
			<polygon fill="#E0CB81" points="24.1,-24.1 0,-24.1 0,0 24.1,0 			"/>
		</g>
	</g>
</pattern>
<pattern  y="32" width="24.1" height="24.1" patternUnits="userSpaceOnUse" id="SVGID_6_" viewBox="0 -24.1 24.1 24.1" overflow="visible">
	<g>
		<polygon fill="none" points="0,0 24.1,0 24.1,-24.1 0,-24.1 		"/>
		<g>
			<polygon fill="none" points="0,-24.1 24.1,-24.1 24.1,0 0,0 			"/>
			<polygon fill="#E0CB81" points="24.1,-24.1 0,-24.1 0,0 24.1,0 			"/>
		</g>
	</g>
</pattern>
<g>
	<g>
		<g>
			<g>
				<defs>
					<line id="SVGID_1_" x1="18.4" y1="18.4" x2="9.3" y2="9.3"/>
				</defs>
				<clipPath id="SVGID_2_">
					<use xlink:href="#SVGID_1_"  overflow="visible"/>
				</clipPath>
				<g clip-path="url(#SVGID_2_)">
					<rect x="1.5" y="9" fill="none" width="24.1" height="24.1"/>
					<rect x="1.5" y="9" fill="#FEE99B" width="24.1" height="24.1"/>
				</g>
			</g>
		</g>
		<pattern  id="SVGID_3_" xlink:href="#SVGID_4_" patternTransform="matrix(1 0 0 -1 -283.7875 -16080.5322)">
		</pattern>
		<polygon fill="url(#SVGID_3_)" points="17.9,19 8.8,9.9 9.9,8.8 19,17.9 		"/>
	</g>
	<g>
		<path fill="#8F9BA8" d="M16,31.2c-4.1,0-7.9-1.6-10.8-4.5C2.3,23.9,0.8,20.1,0.8,16S2.4,8.1,5.3,5.2C8.1,2.3,11.9,0.7,16,0.7
			s7.9,1.6,10.8,4.5s4.5,6.7,4.5,10.8s-1.6,7.9-4.5,10.8S20.1,31.2,16,31.2z M16,2.2c-3.7,0-7.1,1.4-9.7,4s-4,6-4,9.7s1.4,7.1,4,9.7
			s6.1,4,9.7,4c3.7,0,7.1-1.4,9.7-4s4-6,4-9.7s-1.4-7.1-4-9.7C23.1,3.7,19.7,2.2,16,2.2z"/>
	</g>
	<g>
		<g>
			<g>
				<defs>
					<polygon id="SVGID_5_" points="14.4,22.5 22.7,22.7 22.5,14.4 					"/>
				</defs>
				<clipPath id="SVGID_7_">
					<use xlink:href="#SVGID_5_"  overflow="visible"/>
				</clipPath>
				<g clip-path="url(#SVGID_7_)">
					<rect x="1.5" y="9" fill="none" width="24.1" height="24.1"/>
					<rect x="1.5" y="9" fill="#FEE99B" width="24.1" height="24.1"/>
				</g>
			</g>
		</g>
		<pattern  id="SVGID_8_" xlink:href="#SVGID_6_" patternTransform="matrix(1 0 0 -1 -283.7875 -16080.5322)">
		</pattern>
		<path fill="url(#SVGID_8_)" d="M23.4,23.4l-10.8-0.2l10.7-10.7L23.4,23.4z M16.1,21.8l5.8,0.1l-0.1-5.8L16.1,21.8z"/>
	</g>
</g>
</svg>
