<?xml version="1.0" encoding="utf-8"?>
<!-- Generator: Adobe Illustrator 18.0.0, SVG Export Plug-In . SVG Version: 6.00 Build 0)  -->
<!DOCTYPE svg PUBLIC "-//W3C//DTD SVG 1.1//EN" "http://www.w3.org/Graphics/SVG/1.1/DTD/svg11.dtd">
<svg version="1.1" id="Layer_1" xmlns="http://www.w3.org/2000/svg" xmlns:xlink="http://www.w3.org/1999/xlink" x="0px" y="0px"
	 viewBox="0 0 32 32" enable-background="new 0 0 32 32" xml:space="preserve">
<g>
	<g>
		<line fill="#FAC2C3" x1="13.6" y1="13.6" x2="22.6" y2="22.6"/>
		
			<rect x="11.7" y="17.4" transform="matrix(0.7056 0.7086 -0.7086 0.7056 18.1541 -7.4914)" fill="#DA8C8C" width="12.8" height="1.5"/>
	</g>
	<g>
		<path fill="#DA8C8C" d="M15.9,31.3c-4,0-7.8-1.6-10.6-4.4c-5.9-5.9-5.9-15.6,0-21.6C8.2,2.4,12,0.7,16.1,0.7c4,0,7.8,1.6,10.6,4.4
			c5.9,5.9,5.9,15.6,0,21.6C23.8,29.6,20,31.3,15.9,31.3z M16.1,2.2c-3.7,0-7.1,1.4-9.7,4.1c-5.3,5.4-5.3,14.1,0,19.5
			c2.6,2.6,6,4,9.6,4c3.7,0,7.1-1.4,9.7-4.1c5.3-5.4,5.3-14.1,0-19.5C23.1,3.7,19.7,2.2,16.1,2.2z"/>
	</g>
	<g>
		<polygon fill="#FAC2C3" points="17.6,9.5 9.4,9.4 9.5,17.7 		"/>
		<path fill="#DA8C8C" d="M8.8,19.5L8.6,8.6l10.8,0.1L8.8,19.5z M10.2,10.1l0.1,5.7l5.6-5.7L10.2,10.1z"/>
	</g>
</g>
</svg>
