<?xml version="1.0" encoding="utf-8"?>
<!-- Generator: Adobe Illustrator 18.0.0, SVG Export Plug-In . SVG Version: 6.00 Build 0)  -->
<!DOCTYPE svg PUBLIC "-//W3C//DTD SVG 1.1//EN" "http://www.w3.org/Graphics/SVG/1.1/DTD/svg11.dtd">
<svg version="1.1" id="Layer_1" xmlns="http://www.w3.org/2000/svg" xmlns:xlink="http://www.w3.org/1999/xlink" x="0px" y="0px"
	 viewBox="0 0 32 32" enable-background="new 0 0 32 32" xml:space="preserve">
<g>
	<g>
		<path fill="#8F9BA8" d="M22.3,9.3L22.3,9.3l-7.1,0c-0.2,0-0.4-0.1-0.5-0.2c-0.1-0.1-0.2-0.3-0.2-0.5l0-7.1c0-0.3,0.2-0.6,0.5-0.7
			c0.3-0.1,0.6-0.1,0.8,0.2L22.8,8C23,8.2,23.1,8.6,23,8.8C22.9,9.1,22.6,9.3,22.3,9.3z M15.9,7.8l4.5,0l-4.5-4.5L15.9,7.8z"/>
	</g>
	<g>
		<polygon fill="#8F9BA8" points="14.9,25.9 1.2,25.9 1.2,0.7 15.5,0.7 23,8.3 23,17.8 21.5,17.8 21.5,8.9 14.9,2.2 2.7,2.2 
			2.7,24.4 14.9,24.4 		"/>
	</g>
	<g>
		<polygon fill="#F9F8F2" points="14.6,25.7 14.2,30.5 19,30.1 19.3,29.8 14.9,25.4 		"/>
		<path fill="#B4A79C" d="M13.4,31.3l0.5-5.9l1-1l5.5,5.5l-1,1L13.4,31.3z M15.3,26.9L15,29.6l2.8-0.2L15.3,26.9z"/>
	</g>
	<g>
		<path fill="#B4A79C" d="M19.3,30.9l-5.5-5.5l9.4-9.4l5.5,5.5L19.3,30.9z M15.9,25.4l3.3,3.3l7.3-7.3l-3.3-3.3L15.9,25.4z"/>
	</g>
	<g>
		<path fill="#F9F8F2" d="M29.7,17.9L26.8,15c-0.4-0.4-1.1-0.4-1.5,0l-2,2l4.4,4.4l2-2C30.1,19,30.1,18.3,29.7,17.9z"/>
		<path fill="#B4A79C" d="M27.7,22.5L22.2,17l2.6-2.6c0.3-0.3,0.8-0.5,1.3-0.5l0,0c0.5,0,0.9,0.2,1.3,0.5l2.9,2.9
			c0.7,0.7,0.7,1.8,0,2.6L27.7,22.5z M24.3,17l3.3,3.3l1.5-1.5c0.1-0.1,0.1-0.3,0-0.4l-2.9-2.9c-0.2-0.2-0.3-0.2-0.4,0L24.3,17z"/>
	</g>
</g>
</svg>
