<?xml version="1.0" encoding="utf-8"?>
<!-- Generator: Adobe Illustrator 18.0.0, SVG Export Plug-In . SVG Version: 6.00 Build 0)  -->
<!DOCTYPE svg PUBLIC "-//W3C//DTD SVG 1.1//EN" "http://www.w3.org/Graphics/SVG/1.1/DTD/svg11.dtd">
<svg version="1.1" id="Layer_1" xmlns="http://www.w3.org/2000/svg" xmlns:xlink="http://www.w3.org/1999/xlink" x="0px" y="0px"
	 viewBox="0 0 32 32" enable-background="new 0 0 32 32" xml:space="preserve">
<g>
	<g>
		<polygon fill="#F0F7F7" points="7.8,10.2 7.8,21.8 19.1,27.5 19.1,4.5 		"/>
		<path fill="#8F9BA8" d="M19.8,28.7L7.1,22.2V9.8l12.7-6.5V28.7z M8.6,21.3l9.7,5V5.7l-9.7,5V21.3z"/>
	</g>
	<g>
		<path fill="#8F9BA8" d="M8.6,22.5H4.5c-2,0-3.7-1.6-3.7-3.7v-5.7c0-2,1.6-3.7,3.7-3.7h4.1V22.5z M4.5,11c-1.2,0-2.2,1-2.2,2.2v5.7
			c0,1.2,1,2.2,2.2,2.2h2.6V11H4.5z"/>
	</g>
	<g>
		
			<rect x="25.8" y="10.3" transform="matrix(0.7071 0.7071 -0.7071 0.7071 19.0991 -14.1063)" fill="#DA8C8C" width="1.5" height="11.4"/>
	</g>
	<g>
		
			<rect x="20.9" y="15.3" transform="matrix(0.7071 0.7071 -0.7071 0.7071 19.0974 -14.1058)" fill="#DA8C8C" width="11.4" height="1.5"/>
	</g>
</g>
</svg>
