<?xml version="1.0" encoding="utf-8"?>
<!-- Generator: Adobe Illustrator 18.0.0, SVG Export Plug-In . SVG Version: 6.00 Build 0)  -->
<!DOCTYPE svg PUBLIC "-//W3C//DTD SVG 1.1//EN" "http://www.w3.org/Graphics/SVG/1.1/DTD/svg11.dtd">
<svg version="1.1" id="Layer_1" xmlns="http://www.w3.org/2000/svg" xmlns:xlink="http://www.w3.org/1999/xlink" x="0px" y="0px"
	 viewBox="0 0 32 32" enable-background="new 0 0 32 32" xml:space="preserve">
<g>
	<g>
		<path fill="#79C693" d="M24.5,31.7l-15.6-8V8.3l15.6-8V31.7z M10.4,22.8L23,29.2V2.8L10.4,9.2V22.8z"/>
	</g>
	<g>
		<path fill="#79C693" d="M10.4,24H5.5c-2.4,0-4.4-2-4.4-4.4v-7.2C1.1,10,3.1,8,5.5,8h4.9V24z M5.5,9.5c-1.6,0-2.9,1.3-2.9,2.9v7.2
			c0,1.6,1.3,2.9,2.9,2.9h3.4v-13H5.5z"/>
	</g>
	<g>
		<rect x="26.5" y="8.2" fill="#DA8C8C" width="4.4" height="1.5"/>
	</g>
	<g>
		<rect x="26.5" y="15.2" fill="#DA8C8C" width="4.4" height="1.5"/>
	</g>
	<g>
		<rect x="26.5" y="22.3" fill="#DA8C8C" width="4.4" height="1.5"/>
	</g>
</g>
</svg>
