<?xml version="1.0" encoding="utf-8"?>
<!-- Generator: Adobe Illustrator 18.0.0, SVG Export Plug-In . SVG Version: 6.00 Build 0)  -->
<!DOCTYPE svg PUBLIC "-//W3C//DTD SVG 1.1//EN" "http://www.w3.org/Graphics/SVG/1.1/DTD/svg11.dtd">
<svg version="1.1" id="Layer_1" xmlns="http://www.w3.org/2000/svg" xmlns:xlink="http://www.w3.org/1999/xlink" x="0px" y="0px"
	 viewBox="0 0 32 32" enable-background="new 0 0 32 32" xml:space="preserve">
<g>
	<g>
		<path fill="#8F9BA8" d="M28.9,31.7L11,23.7V8.3l17.9-7.9V31.7z M12.5,22.8l14.9,6.6V2.7L12.5,9.2V22.8z"/>
	</g>
	<g>
		<path fill="#F0F7F7" d="M7.5,23.3h4.2V8.7H7.5c-2,0-3.7,1.6-3.7,3.7v7.2C3.9,21.6,5.5,23.3,7.5,23.3z"/>
		<path fill="#8F9BA8" d="M12.5,24H7.5c-2.4,0-4.4-2-4.4-4.4v-7.2C3.1,10,5.1,8,7.5,8h4.9V24z M7.5,9.5c-1.6,0-2.9,1.3-2.9,2.9v7.2
			c0,1.6,1.3,2.9,2.9,2.9H11V9.5H7.5z"/>
	</g>
</g>
</svg>
