<?xml version="1.0" encoding="utf-8"?>
<!-- Generator: Adobe Illustrator 18.0.0, SVG Export Plug-In . SVG Version: 6.00 Build 0)  -->
<!DOCTYPE svg PUBLIC "-//W3C//DTD SVG 1.1//EN" "http://www.w3.org/Graphics/SVG/1.1/DTD/svg11.dtd">
<svg version="1.1" id="Layer_1" xmlns="http://www.w3.org/2000/svg" xmlns:xlink="http://www.w3.org/1999/xlink" x="0px" y="0px"
	 viewBox="0 0 32 32" enable-background="new 0 0 32 32" xml:space="preserve">
<g>
	<g>
		<polygon fill="#F9F8F2" points="5.7,19.1 3,27.6 11.5,24.8 		"/>
		<path fill="#B4A79C" d="M3,28.3c-0.2,0-0.4-0.1-0.5-0.2c-0.2-0.2-0.3-0.5-0.2-0.8L5,18.8c0.1-0.2,0.3-0.4,0.5-0.5
			c0.3-0.1,0.5,0,0.7,0.2l5.7,5.7c0.2,0.2,0.3,0.5,0.2,0.7c-0.1,0.3-0.2,0.5-0.5,0.5l-8.5,2.8C3.1,28.3,3,28.3,3,28.3z M6.1,20.5
			l-1.9,6l6-1.9L6.1,20.5z"/>
	</g>
	<g>
		<path fill="#B4A79C" d="M11.5,25.6L11.5,25.6c-0.2,0-0.4-0.1-0.5-0.2l-5.7-5.7c-0.3-0.3-0.3-0.8,0-1.1L20,3.7
			c0.3-0.3,0.8-0.3,1.1,0l5.7,5.7c0.1,0.1,0.2,0.3,0.2,0.5s-0.1,0.4-0.2,0.5L12,25.3C11.9,25.5,11.7,25.6,11.5,25.6z M6.8,19.1
			l4.7,4.7L25.2,10l-4.7-4.7L6.8,19.1z"/>
	</g>
	<g>
		
			<rect x="22.9" y="1.7" transform="matrix(0.7072 -0.7071 0.7071 0.7072 3.2098 19.2124)" fill="#F9F8F2" width="3.9" height="8.1"/>
		<path fill="#B4A79C" d="M26.3,10.7c-0.2,0-0.4-0.1-0.5-0.2L20,4.8c-0.1-0.1-0.2-0.3-0.2-0.5c0-0.2,0.1-0.4,0.2-0.5L22.8,1
			c0.3-0.3,0.8-0.3,1.1,0l5.7,5.7c0.3,0.3,0.3,0.8,0,1.1l-2.7,2.7C26.7,10.6,26.5,10.7,26.3,10.7z M21.6,4.2l4.7,4.7L28,7.2
			l-4.7-4.7L21.6,4.2z"/>
	</g>
	<g>
		<rect x="3" y="29.7" fill="#8F9BA8" width="26.8" height="1.5"/>
	</g>
</g>
</svg>
