<?xml version="1.0" encoding="utf-8"?>
<!-- Generator: Adobe Illustrator 18.0.0, SVG Export Plug-In . SVG Version: 6.00 Build 0)  -->
<!DOCTYPE svg PUBLIC "-//W3C//DTD SVG 1.1//EN" "http://www.w3.org/Graphics/SVG/1.1/DTD/svg11.dtd">
<svg version="1.1" id="Layer_1" xmlns="http://www.w3.org/2000/svg" xmlns:xlink="http://www.w3.org/1999/xlink" x="0px" y="0px"
	 viewBox="0 0 32 32" enable-background="new 0 0 32 32" xml:space="preserve">
<g>
	<g>
		<polygon fill="#F0F7F7" points="1.5,1.5 1.5,30.5 8.6,30.5 8.6,24 13.7,24 13.7,30.5 20.8,30.5 20.8,1.5 		"/>
		<path fill="#8F9BA8" d="M20.8,31.2h-7.1c-0.4,0-0.8-0.3-0.8-0.8v-5.7H9.3v5.7c0,0.4-0.3,0.8-0.8,0.8H1.5c-0.4,0-0.8-0.3-0.8-0.8
			v-29c0-0.4,0.3-0.8,0.8-0.8h19.3c0.4,0,0.8,0.3,0.8,0.8v29C21.6,30.9,21.2,31.2,20.8,31.2z M14.5,29.7h5.6V2.2H2.3v27.5h5.6V24
			c0-0.4,0.3-0.8,0.7-0.8h5.2c0.4,0,0.8,0.3,0.8,0.8V29.7z"/>
	</g>
	<g>
		<polygon fill="#F0F7F7" points="20.8,16.7 20.8,30.5 24,30.5 24,26.2 27.3,26.2 27.3,30.5 30.5,30.5 30.5,16.7 		"/>
		<path fill="#8F9BA8" d="M31.3,31.2h-4.7V27h-1.7v4.3h-4.7V16h11.2V31.2z M28,29.7h1.7V17.5h-8.2v12.3h1.7v-4.3H28V29.7z"/>
	</g>
	<g>
		<rect x="5.7" y="5.9" fill="#8F9BA8" width="1.5" height="13.8"/>
	</g>
	<g>
		<rect x="10.4" y="5.9" fill="#8F9BA8" width="1.5" height="13.8"/>
	</g>
	<g>
		<rect x="15.1" y="5.9" fill="#8F9BA8" width="1.5" height="13.8"/>
	</g>
</g>
</svg>
