<?xml version="1.0" encoding="utf-8"?>
<!-- Generator: Adobe Illustrator 18.0.0, SVG Export Plug-In . SVG Version: 6.00 Build 0)  -->
<!DOCTYPE svg PUBLIC "-//W3C//DTD SVG 1.1//EN" "http://www.w3.org/Graphics/SVG/1.1/DTD/svg11.dtd">
<svg version="1.1" id="Layer_1" xmlns="http://www.w3.org/2000/svg" xmlns:xlink="http://www.w3.org/1999/xlink" x="0px" y="0px"
	 viewBox="0 0 32 32" enable-background="new 0 0 32 32" xml:space="preserve">
<g>
	<g>
		<polygon fill="#CDE4F7" points="4.4,21.2 1.3,30.7 10.8,27.6 		"/>
		<path fill="#74B1E0" d="M1.3,31.4c-0.2,0-0.4-0.1-0.5-0.2c-0.2-0.2-0.3-0.5-0.2-0.8L3.7,21c0.1-0.2,0.3-0.4,0.5-0.5
			c0.3-0.1,0.5,0,0.7,0.2l6.4,6.4c0.2,0.2,0.3,0.5,0.2,0.7c-0.1,0.3-0.2,0.5-0.5,0.5l-9.5,3.1C1.5,31.4,1.4,31.4,1.3,31.4z
			 M4.8,22.6l-2.2,6.9l6.9-2.2L4.8,22.6z"/>
	</g>
	<g>
		<path fill="#74B1E0" d="M10.8,28.3c-0.2,0-0.4-0.1-0.5-0.2l-6.4-6.4c-0.1-0.1-0.2-0.3-0.2-0.5s0.1-0.4,0.2-0.5L20.4,4.2
			c0.3-0.3,0.8-0.3,1.1,0l6.4,6.4c0.3,0.3,0.3,0.8,0,1.1L11.3,28.1C11.2,28.2,11,28.3,10.8,28.3z M5.5,21.2l5.3,5.3l15.4-15.4
			l-5.3-5.3L5.5,21.2z"/>
	</g>
	<g>
		<rect x="23.5" y="1.8" transform="matrix(0.7071 -0.7071 0.7071 0.7071 3.0105 19.9886)" fill="#CDE4F7" width="4.3" height="9"/>
		<path fill="#74B1E0" d="M27.3,12.1l-7.4-7.4L24,0.6L31.4,8L27.3,12.1z M22,4.7l5.3,5.3l2-2L24,2.7L22,4.7z"/>
	</g>
</g>
</svg>
