<?xml version="1.0" encoding="utf-8"?>
<!-- Generator: Adobe Illustrator 18.0.0, SVG Export Plug-In . SVG Version: 6.00 Build 0)  -->
<!DOCTYPE svg PUBLIC "-//W3C//DTD SVG 1.1//EN" "http://www.w3.org/Graphics/SVG/1.1/DTD/svg11.dtd">
<svg version="1.1" id="Layer_1" xmlns="http://www.w3.org/2000/svg" xmlns:xlink="http://www.w3.org/1999/xlink" x="0px" y="0px"
	 viewBox="0 0 32 32" enable-background="new 0 0 32 32" xml:space="preserve">
<g>
	<g>
		<path fill="#79C693" d="M29.4,31.2h-9.2l0-0.8v-7c0-2.3-1.9-4.2-4.2-4.2c-2.3,0-4.2,2-4.2,4.4v7.6l-0.8,0H1.8l0-0.8V11.9L15.7,0.8
			l0.5,0l0.2,0.2l13.7,11l0,0.4v19L29.4,31.2z M21.7,29.7h7V12.6L16,2.5L3.3,12.6v17.1h7v-6.1c0-3.2,2.5-5.8,5.6-5.9h0
			c3.2,0,5.8,2.6,5.8,5.7V29.7z"/>
	</g>
</g>
</svg>
