<?xml version="1.0" encoding="utf-8"?>
<!-- Generator: Adobe Illustrator 18.0.0, SVG Export Plug-In . SVG Version: 6.00 Build 0)  -->
<!DOCTYPE svg PUBLIC "-//W3C//DTD SVG 1.1//EN" "http://www.w3.org/Graphics/SVG/1.1/DTD/svg11.dtd">
<svg version="1.1" id="Layer_1" xmlns="http://www.w3.org/2000/svg" xmlns:xlink="http://www.w3.org/1999/xlink" x="0px" y="0px"
	 viewBox="0 0 32 32" enable-background="new 0 0 32 32" xml:space="preserve">
<g>
	<g>
		<path fill="#8F9BA8" d="M16,27.5C9.6,27.5,4.5,22.4,4.5,16S9.6,4.5,16,4.5S27.5,9.7,27.5,16S22.4,27.5,16,27.5z M16,6
			C10.5,6,6,10.5,6,16s4.5,10,10,10s10-4.5,10-10S21.5,6,16,6z"/>
	</g>
	<g>
		<line fill="none" x1="26.7" y1="16" x2="31.2" y2="16"/>
		<rect x="26.7" y="15.2" fill="#8F9BA8" width="4.5" height="1.6"/>
	</g>
	<g>
		<line fill="none" x1="0.7" y1="16" x2="5.3" y2="16"/>
		<rect x="0.8" y="15.2" fill="#8F9BA8" width="4.5" height="1.6"/>
	</g>
	<g>
		<line fill="none" x1="16" y1="26.7" x2="16" y2="31.2"/>
		<rect x="15.2" y="26.7" fill="#8F9BA8" width="1.6" height="4.5"/>
	</g>
	<g>
		<line fill="none" x1="16" y1="0.7" x2="16" y2="5.3"/>
		<rect x="15.2" y="0.8" fill="#8F9BA8" width="1.6" height="4.5"/>
	</g>
	<g>
		<circle fill="#F2E8B9" cx="16" cy="16" r="3.9"/>
		<path fill="#B4A042" d="M16,20.7c-2.6,0-4.7-2.1-4.7-4.7s2.1-4.7,4.7-4.7s4.7,2.1,4.7,4.7S18.6,20.7,16,20.7z M16,12.9
			c-1.7,0-3.1,1.4-3.1,3.1s1.4,3.1,3.1,3.1s3.1-1.4,3.1-3.1S17.7,12.9,16,12.9z"/>
	</g>
</g>
</svg>
