<?xml version="1.0" encoding="utf-8"?>
<!-- Generator: Adobe Illustrator 18.0.0, SVG Export Plug-In . SVG Version: 6.00 Build 0)  -->
<!DOCTYPE svg PUBLIC "-//W3C//DTD SVG 1.1//EN" "http://www.w3.org/Graphics/SVG/1.1/DTD/svg11.dtd">
<svg version="1.1" id="Layer_1" xmlns="http://www.w3.org/2000/svg" xmlns:xlink="http://www.w3.org/1999/xlink" x="0px" y="0px"
	 viewBox="0 0 32 32" enable-background="new 0 0 32 32" xml:space="preserve">
<g>
	<g>
		<path fill="#DA8C8C" d="M24.1,10.7c-2.7,0-5-2.2-5-5c0-2.7,2.2-5,5-5c2.7,0,5,2.2,5,5C29.1,8.5,26.9,10.7,24.1,10.7z M24.1,2.2
			c-1.9,0-3.5,1.6-3.5,3.5c0,1.9,1.6,3.5,3.5,3.5c1.9,0,3.5-1.6,3.5-3.5C27.6,3.8,26,2.2,24.1,2.2z"/>
	</g>
	<g>
		<circle fill="#FAC2C3" cx="24.1" cy="26.3" r="4.2"/>
		<path fill="#DA8C8C" d="M24.1,31.2c-2.7,0-5-2.2-5-5s2.2-5,5-5c2.7,0,5,2.2,5,5S26.9,31.2,24.1,31.2z M24.1,22.8
			c-1.9,0-3.5,1.6-3.5,3.5c0,1.9,1.6,3.5,3.5,3.5c1.9,0,3.5-1.6,3.5-3.5C27.6,24.4,26,22.8,24.1,22.8z"/>
	</g>
	<g>
		<path fill="#DA8C8C" d="M7.9,21c-2.7,0-5-2.2-5-5c0-2.7,2.2-5,5-5c2.7,0,5,2.2,5,5C12.9,18.7,10.6,21,7.9,21z M7.9,12.5
			c-1.9,0-3.5,1.6-3.5,3.5c0,1.9,1.6,3.5,3.5,3.5s3.5-1.6,3.5-3.5C11.4,14.1,9.8,12.5,7.9,12.5z"/>
	</g>
	<g>
		<line fill="#FAC2C3" x1="24.1" y1="10" x2="24.1" y2="22"/>
		<rect x="23.4" y="10" fill="#DA8C8C" width="1.5" height="12.1"/>
	</g>
	<g>
		<line fill="#FAC2C3" x1="10.9" y1="18.9" x2="20.7" y2="23.9"/>
		
			<rect x="10.3" y="20.7" transform="matrix(0.8931 0.4499 -0.4499 0.8931 11.3158 -4.8107)" fill="#DA8C8C" width="10.9" height="1.5"/>
	</g>
</g>
</svg>
