<?xml version="1.0" encoding="utf-8"?>
<!-- Generator: Adobe Illustrator 18.0.0, SVG Export Plug-In . SVG Version: 6.00 Build 0)  -->
<!DOCTYPE svg PUBLIC "-//W3C//DTD SVG 1.1//EN" "http://www.w3.org/Graphics/SVG/1.1/DTD/svg11.dtd">
<svg version="1.1" id="Layer_1" xmlns="http://www.w3.org/2000/svg" xmlns:xlink="http://www.w3.org/1999/xlink" x="0px" y="0px"
	 viewBox="0 0 32 32" enable-background="new 0 0 32 32" xml:space="preserve">
<g>
	<g>
		<path fill="#B4A79C" d="M16,31.2L16,31.2c-0.3,0-0.6-0.2-0.7-0.4l-4.5-9.6l-9.6-4.5c-0.3-0.1-0.4-0.4-0.4-0.7s0.2-0.6,0.4-0.7
			l9.6-4.5l4.5-9.6c0.2-0.5,1.1-0.5,1.4,0l4.5,9.6l9.6,4.5c0.3,0.1,0.4,0.4,0.4,0.7s-0.2,0.6-0.4,0.7l-9.6,4.5l-4.5,9.6
			C16.6,31.1,16.3,31.2,16,31.2z M3.3,16l8.4,3.9c0.2,0.1,0.3,0.2,0.4,0.4l3.9,8.4l3.9-8.4c0.1-0.2,0.2-0.3,0.4-0.4l8.4-3.9L20.3,12
			c-0.2-0.1-0.3-0.2-0.4-0.4L16,3.3l-3.9,8.4C12,11.8,11.9,12,11.7,12L3.3,16z"/>
	</g>
</g>
</svg>
