<?xml version="1.0" encoding="utf-8"?>
<!-- Generator: Adobe Illustrator 18.0.0, SVG Export Plug-In . SVG Version: 6.00 Build 0)  -->
<!DOCTYPE svg PUBLIC "-//W3C//DTD SVG 1.1//EN" "http://www.w3.org/Graphics/SVG/1.1/DTD/svg11.dtd">
<svg version="1.1" id="Layer_1" xmlns="http://www.w3.org/2000/svg" xmlns:xlink="http://www.w3.org/1999/xlink" x="0px" y="0px"
	 viewBox="0 0 32 32" enable-background="new 0 0 32 32" xml:space="preserve">
<g>
	<g>
		<path fill="#74B1E0" d="M27.9,30.9H4.1c-1.9,0-3.4-1.5-3.4-3.4V9.6h30.5v17.9C31.3,29.4,29.7,30.9,27.9,30.9z M2.3,11.1v16.4
			c0,1,0.8,1.9,1.9,1.9h23.8c1,0,1.9-0.8,1.9-1.9V11.1H2.3z"/>
	</g>
	<g>
		<line fill="#CDE4F7" x1="11.5" y1="15.6" x2="20.5" y2="24.5"/>
		
			<rect x="9.7" y="19.3" transform="matrix(0.7071 0.7071 -0.7071 0.7071 18.8541 -5.4456)" fill="#DA8C8C" width="12.7" height="1.5"/>
	</g>
	<g>
		<line fill="#CDE4F7" x1="20.5" y1="15.6" x2="11.5" y2="24.5"/>
		
			<rect x="15.3" y="13.7" transform="matrix(0.7071 0.7071 -0.7071 0.7071 18.8541 -5.4456)" fill="#DA8C8C" width="1.5" height="12.7"/>
	</g>
	<g>
		<path fill="#CDE4F7" d="M30.5,6c0-1.4-1.2-2.6-2.6-2.6H4.1C2.7,3.4,1.5,4.5,1.5,6v4.4h29V6z"/>
		<path fill="#74B1E0" d="M31.3,11.1H0.8V6c0-1.9,1.5-3.4,3.4-3.4h23.8c1.9,0,3.4,1.5,3.4,3.4V11.1z M2.3,9.6h27.5V6
			c0-1-0.8-1.9-1.9-1.9H4.1C3.1,4.1,2.3,5,2.3,6V9.6z"/>
	</g>
	<g>
		<line fill="#CDE4F7" x1="25.6" y1="1.1" x2="25.6" y2="5.6"/>
		<rect x="24.8" y="1.1" fill="#74B1E0" width="1.5" height="4.5"/>
	</g>
	<g>
		<line fill="#CDE4F7" x1="19.2" y1="1.1" x2="19.2" y2="5.6"/>
		<rect x="18.4" y="1.1" fill="#74B1E0" width="1.5" height="4.5"/>
	</g>
	<g>
		<line fill="#CDE4F7" x1="12.8" y1="1.1" x2="12.8" y2="5.6"/>
		<rect x="12.1" y="1.1" fill="#74B1E0" width="1.5" height="4.5"/>
	</g>
	<g>
		<line fill="#CDE4F7" x1="6.4" y1="1.1" x2="6.4" y2="5.6"/>
		<rect x="5.7" y="1.1" fill="#74B1E0" width="1.5" height="4.5"/>
	</g>
</g>
</svg>
