<?xml version="1.0" encoding="utf-8"?>
<!-- Generator: Adobe Illustrator 18.0.0, SVG Export Plug-In . SVG Version: 6.00 Build 0)  -->
<!DOCTYPE svg PUBLIC "-//W3C//DTD SVG 1.1//EN" "http://www.w3.org/Graphics/SVG/1.1/DTD/svg11.dtd">
<svg version="1.1" id="Layer_1" xmlns="http://www.w3.org/2000/svg" xmlns:xlink="http://www.w3.org/1999/xlink" x="0px" y="0px"
	 viewBox="0 0 32 32" enable-background="new 0 0 32 32" xml:space="preserve">
<g>
	<g>
		<path fill="#79C693" d="M16,31.2C7.6,31.2,0.8,24.4,0.8,16S7.6,0.7,16,0.7c8.4,0,15.3,6.8,15.3,15.3S24.4,31.2,16,31.2z M16,2.2
			C8.4,2.2,2.3,8.4,2.3,16S8.4,29.7,16,29.7c7.6,0,13.8-6.2,13.8-13.7S23.6,2.2,16,2.2z"/>
	</g>
	<g>
		<path fill="#79C693" d="M16,25.8v-1.5c4.6,0,8.3-3.7,8.3-8.3h1.5C25.8,21.4,21.4,25.8,16,25.8z"/>
	</g>
	<g>
		<path fill="#79C693" d="M7.7,16H6.2c0-5.4,4.4-9.8,9.8-9.8v1.5C11.4,7.7,7.7,11.4,7.7,16z"/>
	</g>
	<g>
		<polygon fill="#79C693" points="26.5,19 25,17.1 23.1,18.5 22.2,17.3 25.3,15 27.7,18.1 		"/>
	</g>
	<g>
		<polygon fill="#79C693" points="6.8,17 4.3,14 5.5,13.1 7,15 8.9,13.5 9.8,14.7 		"/>
	</g>
</g>
</svg>
