<?xml version="1.0" encoding="utf-8"?>
<!-- Generator: Adobe Illustrator 18.0.0, SVG Export Plug-In . SVG Version: 6.00 Build 0)  -->
<!DOCTYPE svg PUBLIC "-//W3C//DTD SVG 1.1//EN" "http://www.w3.org/Graphics/SVG/1.1/DTD/svg11.dtd">
<svg version="1.1" id="Layer_1" xmlns="http://www.w3.org/2000/svg" xmlns:xlink="http://www.w3.org/1999/xlink" x="0px" y="0px"
	 viewBox="0 0 32 32" enable-background="new 0 0 32 32" xml:space="preserve">
<g>
	<g>
		<path fill="#79C693" d="M7.7,22.2c-3.4,0-6.2-2.8-6.2-6.2s2.8-6.2,6.2-6.2c3.4,0,6.2,2.8,6.2,6.2S11.1,22.2,7.7,22.2z M7.7,11.4
			c-2.5,0-4.6,2.1-4.6,4.6c0,2.5,2.1,4.6,4.6,4.6c2.5,0,4.6-2.1,4.6-4.6C12.3,13.5,10.2,11.4,7.7,11.4z"/>
	</g>
	<g>
		<path fill="#79C693" d="M24.3,22.2c-3.4,0-6.2-2.8-6.2-6.2s2.8-6.2,6.2-6.2c3.4,0,6.2,2.8,6.2,6.2S27.7,22.2,24.3,22.2z
			 M24.3,11.4c-2.5,0-4.6,2.1-4.6,4.6c0,2.5,2.1,4.6,4.6,4.6c2.5,0,4.6-2.1,4.6-4.6C28.9,13.5,26.8,11.4,24.3,11.4z"/>
	</g>
	<g>
		<path fill="#79C693" d="M19.7,15.5h-1.6c0-1.2-1-2.2-2.2-2.2c-1.2,0-2.2,1-2.2,2.2h-1.6c0-2.1,1.7-3.7,3.7-3.7
			C18.1,11.7,19.7,13.4,19.7,15.5z"/>
	</g>
	<g>
		<rect x="29" y="12.9" fill="#79C693" width="2.2" height="1.6"/>
	</g>
	<g>
		<rect x="0.8" y="12.9" fill="#79C693" width="2.2" height="1.6"/>
	</g>
</g>
</svg>
