<?xml version="1.0" encoding="utf-8"?>
<!-- Generator: Adobe Illustrator 18.0.0, SVG Export Plug-In . SVG Version: 6.00 Build 0)  -->
<!DOCTYPE svg PUBLIC "-//W3C//DTD SVG 1.1//EN" "http://www.w3.org/Graphics/SVG/1.1/DTD/svg11.dtd">
<svg version="1.1" id="Layer_1" xmlns="http://www.w3.org/2000/svg" xmlns:xlink="http://www.w3.org/1999/xlink" x="0px" y="0px"
	 viewBox="0 0 32 32" enable-background="new 0 0 32 32" xml:space="preserve">
<g>
	<g>
		<path fill="#8F9BA8" d="M15.9,31.4c-8.4,0-15.3-6.9-15.3-15.3c0-7.9,5.9-14.4,13.8-15.2l2.3-0.2L15,2.2c-2.3,2-3.6,4.9-3.6,7.9
			c0,5.8,4.7,10.5,10.5,10.5c3,0,5.9-1.3,7.9-3.6l1.5-1.8l-0.2,2.3C30.4,25.4,23.8,31.4,15.9,31.4z M12.4,2.7
			C6.4,4.3,2.1,9.7,2.1,16.1c0,7.6,6.2,13.8,13.8,13.8c6.4,0,11.8-4.3,13.3-10.3c-2.1,1.6-4.7,2.5-7.4,2.5c-6.6,0-12-5.4-12-12
			C9.9,7.4,10.8,4.8,12.4,2.7z"/>
	</g>
</g>
</svg>
