<?xml version="1.0" encoding="utf-8"?>
<!-- Generator: Adobe Illustrator 18.0.0, SVG Export Plug-In . SVG Version: 6.00 Build 0)  -->
<!DOCTYPE svg PUBLIC "-//W3C//DTD SVG 1.1//EN" "http://www.w3.org/Graphics/SVG/1.1/DTD/svg11.dtd">
<svg version="1.1" id="Layer_1" xmlns="http://www.w3.org/2000/svg" xmlns:xlink="http://www.w3.org/1999/xlink" x="0px" y="0px"
	 viewBox="0 0 32 32" enable-background="new 0 0 32 32" xml:space="preserve">
<g>
	<g>
		<circle fill="#FAC2C3" cx="16" cy="16" r="8.4"/>
		<path fill="#DA8C8C" d="M16,25.2c-5.1,0-9.2-4.1-9.2-9.2s4.1-9.2,9.2-9.2c5.1,0,9.2,4.1,9.2,9.2S21.1,25.2,16,25.2z M16,8.4
			c-4.2,0-7.6,3.4-7.6,7.6s3.4,7.6,7.6,7.6c4.2,0,7.6-3.4,7.6-7.6S20.2,8.4,16,8.4z"/>
	</g>
	<g>
		<rect x="26.7" y="15.2" fill="#DA8C8C" width="4.5" height="1.6"/>
	</g>
	<g>
		<rect x="0.8" y="15.2" fill="#DA8C8C" width="4.5" height="1.6"/>
	</g>
	<g>
		<rect x="15.2" y="0.7" fill="#DA8C8C" width="1.6" height="4.5"/>
	</g>
	<g>
		<rect x="15.2" y="26.7" fill="#DA8C8C" width="1.6" height="4.5"/>
	</g>
	<g>
		
			<rect x="22.9" y="24.4" transform="matrix(0.7071 0.7071 -0.7071 0.7071 25.1803 -10.4296)" fill="#DA8C8C" width="4.5" height="1.6"/>
	</g>
	<g>
		<rect x="4.6" y="6" transform="matrix(0.7071 0.7071 -0.7071 0.7071 6.8208 -2.8254)" fill="#DA8C8C" width="4.5" height="1.6"/>
	</g>
	<g>
		
			<rect x="24.4" y="4.6" transform="matrix(0.7071 0.7071 -0.7071 0.7071 12.1978 -15.8066)" fill="#DA8C8C" width="1.6" height="4.5"/>
	</g>
	<g>
		<rect x="6" y="22.9" transform="matrix(0.7071 0.7071 -0.7071 0.7071 19.8021 2.5518)" fill="#DA8C8C" width="1.6" height="4.5"/>
	</g>
</g>
</svg>
