<?xml version="1.0" encoding="utf-8"?>
<!-- Generator: Adobe Illustrator 18.0.0, SVG Export Plug-In . SVG Version: 6.00 Build 0)  -->
<!DOCTYPE svg PUBLIC "-//W3C//DTD SVG 1.1//EN" "http://www.w3.org/Graphics/SVG/1.1/DTD/svg11.dtd">
<svg version="1.1" id="Layer_1" xmlns="http://www.w3.org/2000/svg" xmlns:xlink="http://www.w3.org/1999/xlink" x="0px" y="0px"
	 viewBox="0 0 32 32" enable-background="new 0 0 32 32" xml:space="preserve">
<g>
	<g>
		<path fill="#B4A79C" d="M26.4,26.1H5.6c-2.7,0-4.9-2.2-4.9-4.9c0-1.8,1-3.5,2.6-4.3c-0.1-0.4-0.1-0.7-0.1-1c0-3.6,2.9-6.6,6.6-6.6
			c0.1,0,0.1,0,0.2,0c1.6-2.1,4-3.4,6.7-3.4c3.3,0,6.1,1.9,7.5,4.8c3,0.3,5.3,2.8,5.3,5.9c0,0.3,0,0.6-0.1,0.9
			c1.1,0.9,1.8,2.3,1.8,3.8C31.3,23.9,29.1,26.1,26.4,26.1z M9.8,10.8c-2.8,0-5.1,2.3-5.1,5.1c0,0.4,0.1,0.8,0.2,1.3l0.2,0.7L4.4,18
			c-1.3,0.5-2.2,1.8-2.2,3.2c0,1.9,1.5,3.4,3.4,3.4h20.7c1.9,0,3.4-1.5,3.4-3.4c0-1.2-0.6-2.2-1.6-2.9l-0.4-0.3l0.1-0.5
			c0.1-0.3,0.1-0.7,0.1-1c0-2.4-1.9-4.4-4.3-4.4l-0.5,0L23,11.7c-1-2.6-3.5-4.3-6.3-4.3c-2.3,0-4.4,1.2-5.7,3.1l-0.2,0.4l-0.5,0
			C10.1,10.8,10,10.8,9.8,10.8z"/>
	</g>
</g>
</svg>
