<?xml version="1.0" encoding="utf-8"?>
<!-- Generator: Adobe Illustrator 18.0.0, SVG Export Plug-In . SVG Version: 6.00 Build 0)  -->
<!DOCTYPE svg PUBLIC "-//W3C//DTD SVG 1.1//EN" "http://www.w3.org/Graphics/SVG/1.1/DTD/svg11.dtd">
<svg version="1.1" id="Layer_1" xmlns="http://www.w3.org/2000/svg" xmlns:xlink="http://www.w3.org/1999/xlink" x="0px" y="0px"
	 viewBox="0 0 32 32" enable-background="new 0 0 32 32" xml:space="preserve">
<g>
	<g>
		<path fill="#74B1E0" d="M26.9,29.6H5.1c-2.4,0-4.3-1.9-4.3-4.3V9.3h30.5v15.9C31.3,27.7,29.3,29.6,26.9,29.6z M2.3,10.8v14.4
			c0,1.6,1.3,2.8,2.8,2.8h21.8c1.6,0,2.8-1.3,2.8-2.8V10.8H2.3z"/>
	</g>
	<g>
		<path fill="#8F9BA8" d="M16.7,24.4h-6.6c-0.3,0-0.6-0.2-0.7-0.5c-0.1-0.3,0-0.6,0.2-0.8l4.5-3.6c0.6-0.6,1-1.1,1.2-1.5
			c0.2-0.3,0.3-0.7,0.3-1c0-0.7-0.2-1.1-0.6-1.5c-0.5-0.4-1-0.6-1.6-0.6c-0.7,0-1.2,0.1-1.6,0.4c-0.4,0.3-0.8,0.7-1.2,1.3l-1.3-0.8
			c0.5-0.8,1-1.4,1.6-1.8c0.6-0.4,1.5-0.6,2.4-0.6c1,0,1.9,0.3,2.6,0.9c0.8,0.7,1.2,1.6,1.2,2.7c0,0.6-0.2,1.2-0.5,1.7
			c-0.3,0.5-0.8,1.1-1.5,1.8c0,0,0,0-0.1,0.1l-2.9,2.3h4.4V24.4z"/>
	</g>
	<g>
		<path fill="#8F9BA8" d="M22.8,24.4h-1.5v-9.5h-1.7v-1.5h2.4c0.4,0,0.8,0.3,0.8,0.8V24.4z"/>
	</g>
	<g>
		<path fill="#CDE4F7" d="M30.5,6.7c0-2-1.6-3.6-3.6-3.6H5.1c-2,0-3.6,1.6-3.6,3.6v3.4h29V6.7z"/>
		<path fill="#74B1E0" d="M31.3,10.8H0.8V6.7c0-2.4,1.9-4.3,4.3-4.3h21.8c2.4,0,4.3,1.9,4.3,4.3V10.8z M2.3,9.3h27.5V6.7
			c0-1.6-1.3-2.8-2.8-2.8H5.1c-1.6,0-2.8,1.3-2.8,2.8V9.3z"/>
	</g>
	<g>
		<line fill="#CDE4F7" x1="7.8" y1="6.6" x2="11" y2="6.6"/>
		<rect x="7.8" y="5.9" fill="#74B1E0" width="3.1" height="1.5"/>
	</g>
	<g>
		<line fill="#CDE4F7" x1="20.9" y1="6.6" x2="24.1" y2="6.6"/>
		<rect x="20.9" y="5.9" fill="#74B1E0" width="3.1" height="1.5"/>
	</g>
</g>
</svg>
