<?xml version="1.0" encoding="utf-8"?>
<!-- Generator: Adobe Illustrator 18.0.0, SVG Export Plug-In . SVG Version: 6.00 Build 0)  -->
<!DOCTYPE svg PUBLIC "-//W3C//DTD SVG 1.1//EN" "http://www.w3.org/Graphics/SVG/1.1/DTD/svg11.dtd">
<svg version="1.1" id="Layer_1" xmlns="http://www.w3.org/2000/svg" xmlns:xlink="http://www.w3.org/1999/xlink" x="0px" y="0px"
	 viewBox="0 0 32 32" enable-background="new 0 0 32 32" xml:space="preserve">
<g>
	<g>
		<path fill="#8F9BA8" d="M25.3,31.2H6.7c-1.6,0-2.9-1.3-2.9-2.9V3.7c0-1.6,1.3-2.9,2.9-2.9h18.6c1.6,0,2.9,1.3,2.9,2.9v24.7
			C28.2,29.9,26.9,31.2,25.3,31.2z M6.7,2.2c-0.8,0-1.4,0.6-1.4,1.4v24.7c0,0.8,0.6,1.4,1.4,1.4h18.6c0.8,0,1.4-0.6,1.4-1.4V3.7
			c0-0.8-0.6-1.4-1.4-1.4H6.7V2.2z"/>
	</g>
	<g>
		<rect x="7.5" y="4.8" fill="#F0F7F7" width="17" height="4.9"/>
		<path fill="#8F9BA8" d="M25.3,10.4H6.7V4h18.5L25.3,10.4L25.3,10.4z M8.2,8.9h15.5V5.5H8.2V8.9z"/>
	</g>
	<g>
		<rect x="7.6" y="12.2" fill="#8F9BA8" width="2.2" height="1.5"/>
	</g>
	<g>
		<rect x="7.6" y="16.9" fill="#8F9BA8" width="2.2" height="1.5"/>
	</g>
	<g>
		<rect x="7.6" y="21.7" fill="#8F9BA8" width="2.2" height="1.5"/>
	</g>
	<g>
		<rect x="7.6" y="26.5" fill="#8F9BA8" width="2.2" height="1.5"/>
	</g>
	<g>
		<rect x="12.5" y="12.2" fill="#8F9BA8" width="2.2" height="1.5"/>
	</g>
	<g>
		<rect x="12.5" y="16.9" fill="#8F9BA8" width="2.2" height="1.5"/>
	</g>
	<g>
		<rect x="12.5" y="21.7" fill="#8F9BA8" width="2.2" height="1.5"/>
	</g>
	<g>
		<rect x="12.5" y="26.5" fill="#8F9BA8" width="2.2" height="1.5"/>
	</g>
	<g>
		<rect x="17.4" y="12.2" fill="#8F9BA8" width="2.2" height="1.5"/>
	</g>
	<g>
		<rect x="17.4" y="16.9" fill="#8F9BA8" width="2.2" height="1.5"/>
	</g>
	<g>
		<rect x="17.4" y="21.7" fill="#8F9BA8" width="2.2" height="1.5"/>
	</g>
	<g>
		<rect x="17.4" y="26.5" fill="#8F9BA8" width="2.2" height="1.5"/>
	</g>
	<g>
		<rect x="22.3" y="12.2" fill="#8F9BA8" width="2.2" height="1.5"/>
	</g>
	<g>
		<rect x="22.3" y="16.9" fill="#8F9BA8" width="2.2" height="1.5"/>
	</g>
	<g>
		<rect x="22.3" y="21.7" fill="#8F9BA8" width="2.2" height="1.5"/>
	</g>
	<g>
		<rect x="22.3" y="26.5" fill="#8F9BA8" width="2.2" height="1.5"/>
	</g>
</g>
</svg>
