<?xml version="1.0" encoding="utf-8"?>
<!-- Generator: Adobe Illustrator 18.0.0, SVG Export Plug-In . SVG Version: 6.00 Build 0)  -->
<!DOCTYPE svg PUBLIC "-//W3C//DTD SVG 1.1//EN" "http://www.w3.org/Graphics/SVG/1.1/DTD/svg11.dtd">
<svg version="1.1" id="Layer_1" xmlns="http://www.w3.org/2000/svg" xmlns:xlink="http://www.w3.org/1999/xlink" x="0px" y="0px"
	 viewBox="0 0 32 32" enable-background="new 0 0 32 32" xml:space="preserve">
<g>
	<g>
		<path fill="#8F9BA8" d="M19.2,21.6h-5.9v-6.2h5.9V21.6z M14.8,20.1h2.9v-3.2h-2.9V20.1z"/>
	</g>
	<g>
		<path fill="#B4A79C" d="M28.1,30H3.9c-1.7,0-3.2-1.4-3.2-3.2V15.3h30.5v11.5C31.3,28.6,29.8,30,28.1,30z M2.3,16.8v10
			c0,0.9,0.7,1.7,1.7,1.7h24.2c0.9,0,1.7-0.7,1.7-1.7v-10H2.3z"/>
	</g>
	<g>
		<path fill="#8F9BA8" d="M22.5,8.4H9.5L10.4,2h11.2L22.5,8.4z M11.2,6.9h9.6l-0.5-3.4h-8.6L11.2,6.9z"/>
	</g>
	<g>
		<path fill="#F9F8F2" d="M30.5,10c0-1.3-1.1-2.4-2.4-2.4H3.9c-1.3,0-2.4,1.1-2.4,2.4v6h29V10z"/>
		<path fill="#B4A79C" d="M31.3,16.8H0.8V10c0-1.7,1.4-3.2,3.2-3.2h24.2c1.7,0,3.2,1.4,3.2,3.2V16.8z M2.3,15.3h27.5V10
			c0-0.9-0.7-1.7-1.7-1.7H3.9C3,8.4,2.3,9.1,2.3,10V15.3z"/>
	</g>
</g>
</svg>
