<?xml version="1.0" encoding="utf-8"?>
<!-- Generator: Adobe Illustrator 18.0.0, SVG Export Plug-In . SVG Version: 6.00 Build 0)  -->
<!DOCTYPE svg PUBLIC "-//W3C//DTD SVG 1.1//EN" "http://www.w3.org/Graphics/SVG/1.1/DTD/svg11.dtd">
<svg version="1.1" id="Layer_1" xmlns="http://www.w3.org/2000/svg" xmlns:xlink="http://www.w3.org/1999/xlink" x="0px" y="0px"
	 viewBox="0 0 32 32" enable-background="new 0 0 32 32" xml:space="preserve">
<g>
	<g>
		<circle fill="#CDE4F7" cx="12.6" cy="27.3" r="3.2"/>
		<path fill="#74B1E0" d="M12.6,31.2c-1.1,0-2.1-0.4-2.8-1.2c-1.5-1.5-1.5-4.1,0-5.6c1.5-1.5,4.1-1.5,5.6,0c1.5,1.5,1.5,4.1,0,5.6
			C14.6,30.8,13.6,31.2,12.6,31.2z M12.6,24.8c-0.7,0-1.3,0.3-1.7,0.7c-1,1-1,2.5,0,3.5c0.9,0.9,2.6,0.9,3.5,0c1-1,1-2.5,0-3.5
			C13.9,25.1,13.2,24.8,12.6,24.8z"/>
	</g>
	<g>
		<path fill="#74B1E0" d="M27,7.8c-0.9,0-1.8-0.4-2.5-1c-1.4-1.4-1.4-3.6,0-5c1.3-1.3,3.6-1.3,5,0c0.7,0.7,1,1.5,1,2.5
			s-0.4,1.8-1,2.5C28.8,7.4,27.9,7.8,27,7.8z M27,2.2c-0.5,0-1,0.2-1.4,0.6c-0.8,0.8-0.8,2.1,0,2.8c0.8,0.8,2.1,0.8,2.8,0
			C28.8,5.3,29,4.8,29,4.2c0-0.5-0.2-1-0.6-1.4C28,2.4,27.5,2.2,27,2.2z"/>
	</g>
	<g>
		<path fill="#CDE4F7" d="M23.8,19.5l1-1c3.3-3.3,3.6-8.8,0.3-12.2c-3.3-3.5-8.9-3.5-12.2-0.1l-1.2,1.2c-2.4,2.4-5.3,4.4-8.6,5.1
			c-0.2,0-0.4,0.1-0.5,0.3c-1.2,1.2,1.4,5.8,5.7,10.1c4.4,4.4,8.9,7,10.1,5.7c0.1-0.1,0.2-0.3,0.3-0.5
			C19.4,24.8,21.4,21.9,23.8,19.5z"/>
		<path fill="#74B1E0" d="M17.6,29.7C17.6,29.7,17.6,29.7,17.6,29.7c-2.1,0-6.1-2.5-9.8-6.3c-2.2-2.2-4-4.5-5.1-6.4
			c-1.3-2.3-1.5-3.9-0.7-4.8C2.3,12,2.6,11.8,3,11.7c2.8-0.6,5.5-2.2,8.2-4.9l1.2-1.2c1.8-1.8,4.1-2.7,6.6-2.7c2.6,0,4.9,1,6.7,2.9
			c3.5,3.6,3.4,9.6-0.3,13.3l-1,1c-2.7,2.7-4.3,5.4-4.9,8.2c-0.1,0.4-0.2,0.7-0.5,0.9C18.7,29.5,18.2,29.7,17.6,29.7z M18.9,4.4
			c-2.1,0-4.1,0.8-5.5,2.3l-1.2,1.2c-2.9,2.9-5.9,4.7-9,5.3c-0.1,0-0.1,0-0.1,0.1c-0.1,0.1-0.2,1,0.9,3c1.1,1.9,2.8,4,4.9,6.1
			c3.8,3.8,7.3,5.8,8.7,5.8l0,0c0.2,0,0.3,0,0.3-0.1c0,0,0.1-0.1,0.1-0.1c0.6-3.1,2.4-6.1,5.3-9l1-1c3.1-3.1,3.2-8.1,0.3-11.2
			C23.1,5.3,21.1,4.4,18.9,4.4z"/>
	</g>
</g>
</svg>
