<?xml version="1.0" encoding="utf-8"?>
<!-- Generator: Adobe Illustrator 18.0.0, SVG Export Plug-In . SVG Version: 6.00 Build 0)  -->
<!DOCTYPE svg PUBLIC "-//W3C//DTD SVG 1.1//EN" "http://www.w3.org/Graphics/SVG/1.1/DTD/svg11.dtd">
<svg version="1.1" id="Layer_1" xmlns="http://www.w3.org/2000/svg" xmlns:xlink="http://www.w3.org/1999/xlink" x="0px" y="0px"
	 viewBox="0 0 32 32" enable-background="new 0 0 32 32" xml:space="preserve">
<g>
	<g>
		<path fill="#8F9BA8" d="M17,23.7H5c-0.3,0-0.5-0.1-0.6-0.4c-0.1-0.2-0.1-0.5,0-0.7l12-20.7c0.2-0.3,0.5-0.4,0.8-0.3
			c0.3,0.1,0.5,0.4,0.5,0.7V23C17.7,23.4,17.4,23.7,17,23.7z M6.3,22.3h10V5L6.3,22.3z"/>
	</g>
	<g>
		<path fill="#8F9BA8" d="M27,23.7H17c-0.4,0-0.7-0.3-0.7-0.7V5.6c0-0.3,0.2-0.6,0.5-0.7c0.3-0.1,0.7,0.1,0.8,0.3l10,17.4
			c0.1,0.2,0.1,0.5,0,0.7C27.5,23.6,27.3,23.7,27,23.7z M17.7,22.3h8.1l-8.1-14V22.3z"/>
	</g>
	<g>
		<path fill="#F0F7F7" d="M30.1,23L30.1,23L1.9,23l0,0c2,4.1,6.1,6.8,10.7,6.8h6.7C23.9,29.7,28.1,27.1,30.1,23z"/>
		<path fill="#8F9BA8" d="M19.4,30.5h-6.7c-4.8,0-9.3-2.8-11.4-7.2l-0.5-1h30.5l-0.5,1C28.7,27.7,24.2,30.5,19.4,30.5z M3.1,23.7
			c2,3.2,5.6,5.3,9.5,5.3h6.7c3.9,0,7.5-2,9.5-5.3L3.1,23.7z"/>
	</g>
</g>
</svg>
