<?xml version="1.0" encoding="utf-8"?>
<!-- Generator: Adobe Illustrator 18.0.0, SVG Export Plug-In . SVG Version: 6.00 Build 0)  -->
<!DOCTYPE svg PUBLIC "-//W3C//DTD SVG 1.1//EN" "http://www.w3.org/Graphics/SVG/1.1/DTD/svg11.dtd">
<svg version="1.1" id="Layer_1" xmlns="http://www.w3.org/2000/svg" xmlns:xlink="http://www.w3.org/1999/xlink" x="0px" y="0px"
	 viewBox="0 0 32 32" enable-background="new 0 0 32 32" xml:space="preserve">
<g>
	<g>
		<rect x="15.3" y="1.1" fill="#79C693" width="1.5" height="18"/>
	</g>
	<g>
		<path fill="#79C693" d="M13.6,30.9c-1.8,0-3.2-1.4-3.2-3.1h1.5c0,0.9,0.8,1.6,1.7,1.6c0.9,0,1.7-0.7,1.7-1.6v-9.7h1.5v9.7
			C16.8,29.5,15.3,30.9,13.6,30.9z"/>
	</g>
	<g>
		<path fill="#79C693" d="M8.4,18.6c-0.2,0-0.5-0.1-0.6-0.3c-0.7-1-1.8-1.5-3-1.5c-1,0-2,0.4-2.7,1.2c-0.2,0.2-0.5,0.3-0.8,0.2
			c-0.3-0.1-0.5-0.4-0.5-0.7C1.1,9.3,7.7,3,16,3c0.4,0,0.8,0.3,0.8,0.8S16.4,4.5,16,4.5c-3.4,0-6.3,5.8-6.9,13.5
			c0,0.3-0.2,0.6-0.5,0.7C8.5,18.6,8.4,18.6,8.4,18.6z M4.8,15.3c1.1,0,2.1,0.3,3,1c0.6-4.9,2.1-8.9,4.2-11.2
			c-5,1.5-8.7,5.6-9.5,10.8C3.1,15.5,3.9,15.3,4.8,15.3z"/>
	</g>
	<g>
		<path fill="#79C693" d="M23.6,18.6c-0.1,0-0.1,0-0.2,0c-0.3-0.1-0.5-0.4-0.5-0.7C22.3,10.3,19.4,4.5,16,4.5
			c-0.4,0-0.7-0.3-0.7-0.7S15.6,3,16,3c8.3,0,14.9,6.3,15.2,14.4c0,0.3-0.2,0.6-0.5,0.7c-0.3,0.1-0.6,0-0.8-0.2
			c-0.7-0.8-1.7-1.2-2.7-1.2c-1.2,0-2.3,0.6-3,1.5C24.1,18.5,23.9,18.6,23.6,18.6z M20.1,5.1c2.1,2.3,3.6,6.3,4.2,11.2
			c1.5-1.1,3.7-1.2,5.3-0.4C28.8,10.7,25,6.5,20.1,5.1z"/>
	</g>
	<g>
		<path fill="#79C693" d="M8.5,18.8L8.5,18.8c-0.3,0-0.5-0.1-0.6-0.3l-0.1-0.1c-0.1-0.1-0.2-0.4-0.2-0.6C8.2,9.2,11.8,3,16,3
			c0.4,0,0.8,0.3,0.8,0.8v14.4c0,0.3-0.2,0.6-0.5,0.7c-0.3,0.1-0.7,0-0.8-0.3c-0.7-1.1-1.8-1.7-3.1-1.7c-1.3,0-2.4,0.6-3.1,1.7
			C9,18.7,8.8,18.8,8.5,18.8z M12.3,15.3c1.1,0,2.1,0.3,3,0.9V4.6c-2.8,0.7-5.2,5.4-6,11.6C10.1,15.6,11.2,15.3,12.3,15.3z"/>
	</g>
	<g>
		<path fill="#79C693" d="M16,18.8c-0.1,0-0.1,0-0.2,0c-0.3-0.1-0.5-0.4-0.5-0.7V3.7C15.3,3.3,15.6,3,16,3c4.2,0,7.8,6.2,8.4,14.8
			c0,0.2,0,0.4-0.1,0.5c0,0-0.1,0.1-0.1,0.1l-0.1,0.1c-0.1,0.2-0.4,0.3-0.6,0.3h0c-0.3,0-0.5-0.1-0.6-0.3c-0.7-1.1-1.8-1.7-3.1-1.7
			c-1.3,0-2.4,0.6-3.1,1.7C16.5,18.7,16.3,18.8,16,18.8z M16.8,4.6v11.7c1.7-1.2,4.3-1.2,6,0C22,10,19.6,5.3,16.8,4.6z"/>
	</g>
</g>
</svg>
