<?xml version="1.0" encoding="utf-8"?>
<!-- Generator: Adobe Illustrator 18.0.0, SVG Export Plug-In . SVG Version: 6.00 Build 0)  -->
<!DOCTYPE svg PUBLIC "-//W3C//DTD SVG 1.1//EN" "http://www.w3.org/Graphics/SVG/1.1/DTD/svg11.dtd">
<svg version="1.1" id="Layer_1" xmlns="http://www.w3.org/2000/svg" xmlns:xlink="http://www.w3.org/1999/xlink" x="0px" y="0px"
	 viewBox="0 0 32 32" enable-background="new 0 0 32 32" xml:space="preserve">
<g>
	<g>
		<rect x="5.6" y="6.8" fill="#F2E8B9" width="20.8" height="23.7"/>
		<path fill="#B4A042" d="M26.4,31.2H5.6c-0.4,0-0.8-0.3-0.8-0.8V6.8C4.8,6.4,5.2,6,5.6,6h20.8c0.4,0,0.8,0.3,0.8,0.8v23.7
			C27.2,30.9,26.8,31.2,26.4,31.2z M6.3,29.7h19.3V7.5H6.3V29.7z"/>
	</g>
	<g>
		<polygon fill="#FFFFFF" points="22.4,25.2 5.6,30.5 5.6,6.8 22.4,1.5 		"/>
		<path fill="#8F9BA8" d="M5.6,31.2c-0.2,0-0.3,0-0.4-0.1C5,31,4.8,30.7,4.8,30.5V6.8c0-0.3,0.2-0.6,0.5-0.7l16.8-5.3
			c0.2-0.1,0.5,0,0.7,0.1c0.2,0.1,0.3,0.4,0.3,0.6v23.7c0,0.3-0.2,0.6-0.5,0.7L5.8,31.2C5.7,31.2,5.7,31.2,5.6,31.2z M6.3,7.3v22.2
			l15.3-4.8V2.5L6.3,7.3z"/>
	</g>
</g>
</svg>
