<?xml version="1.0" encoding="utf-8"?>
<!-- Generator: Adobe Illustrator 18.0.0, SVG Export Plug-In . SVG Version: 6.00 Build 0)  -->
<!DOCTYPE svg PUBLIC "-//W3C//DTD SVG 1.1//EN" "http://www.w3.org/Graphics/SVG/1.1/DTD/svg11.dtd">
<svg version="1.1" id="Layer_1" xmlns="http://www.w3.org/2000/svg" xmlns:xlink="http://www.w3.org/1999/xlink" x="0px" y="0px"
	 viewBox="0 0 32 32" enable-background="new 0 0 32 32" xml:space="preserve">
<g>
	<g>
		<rect x="1.5" y="0.8" fill="#8F9BA8" width="29" height="1.5"/>
	</g>
	<g>
		<rect x="24.3" y="1.5" fill="#8F9BA8" width="1.5" height="7.8"/>
	</g>
	<g>
		<rect x="6.2" y="1.5" fill="#8F9BA8" width="1.5" height="7.8"/>
	</g>
	<g>
		<path fill="#DA8C8C" d="M30.5,31.3h-29c-0.4,0-0.8-0.3-0.8-0.8V9.3c0-0.4,0.3-0.8,0.8-0.8h29c0.4,0,0.8,0.3,0.8,0.8v21.2
			C31.3,30.9,30.9,31.3,30.5,31.3z M2.3,29.8h27.5V10H2.3V29.8z"/>
	</g>
	<g>
		<rect x="11.9" y="14.6" fill="#DA8C8C" width="1.5" height="10.6"/>
	</g>
	<g>
		<rect x="18.6" y="14.6" fill="#DA8C8C" width="1.5" height="10.6"/>
	</g>
	<g>
		<rect x="12.7" y="19.1" fill="#DA8C8C" width="6.6" height="1.5"/>
	</g>
</g>
</svg>
