<?xml version="1.0" encoding="utf-8"?>
<!-- Generator: Adobe Illustrator 18.0.0, SVG Export Plug-In . SVG Version: 6.00 Build 0)  -->
<!DOCTYPE svg PUBLIC "-//W3C//DTD SVG 1.1//EN" "http://www.w3.org/Graphics/SVG/1.1/DTD/svg11.dtd">
<svg version="1.1" id="Layer_1" xmlns="http://www.w3.org/2000/svg" xmlns:xlink="http://www.w3.org/1999/xlink" x="0px" y="0px"
	 viewBox="0 0 32 32" enable-background="new 0 0 32 32" xml:space="preserve">
<g>
	<g>
		<line fill="#F9F8F2" x1="16" y1="8.8" x2="16" y2="5.9"/>
		<rect x="15.3" y="5.9" fill="#8F9BA8" width="1.5" height="3"/>
	</g>
	<g>
		<line fill="#F9F8F2" x1="13.2" y1="5.9" x2="18.8" y2="5.9"/>
		<rect x="13.2" y="5.1" fill="#8F9BA8" width="5.5" height="1.5"/>
	</g>
	<g>
		<path fill="#B4A79C" d="M27.5,22.6H4.4c-0.4,0-0.7-0.3-0.7-0.7c-0.1-0.5-0.1-1-0.1-1.5C3.6,13.7,9.2,8.1,16,8.1
			c6.8,0,12.4,5.6,12.4,12.4c0,0.5,0,0.9-0.1,1.5C28.3,22.3,27.9,22.6,27.5,22.6z M5.1,21.1h21.7c0-0.2,0-0.4,0-0.6
			c0-6-4.9-10.9-10.9-10.9S5.1,14.5,5.1,20.5C5.1,20.7,5.1,20.9,5.1,21.1z"/>
	</g>
	<g>
		<path fill="#F9F8F2" d="M28.4,26.1H3.6c-1.2,0-2.1-0.9-2.1-2.1l0,0c0-1.2,0.9-2.1,2.1-2.1h24.8c1.2,0,2.1,0.9,2.1,2.1l0,0
			C30.5,25.2,29.6,26.1,28.4,26.1z"/>
		<path fill="#B4A79C" d="M28.4,26.9H3.6c-1.6,0-2.9-1.3-2.9-2.9c0-1.6,1.3-2.9,2.9-2.9h24.8c1.6,0,2.9,1.3,2.9,2.9
			C31.3,25.6,30,26.9,28.4,26.9z M3.6,22.6c-0.8,0-1.4,0.6-1.4,1.4c0,0.8,0.6,1.4,1.4,1.4h24.8c0.8,0,1.4-0.6,1.4-1.4
			c0-0.8-0.6-1.4-1.4-1.4H3.6z"/>
	</g>
</g>
</svg>
