<?xml version="1.0" encoding="utf-8"?>
<!-- Generator: Adobe Illustrator 18.0.0, SVG Export Plug-In . SVG Version: 6.00 Build 0)  -->
<!DOCTYPE svg PUBLIC "-//W3C//DTD SVG 1.1//EN" "http://www.w3.org/Graphics/SVG/1.1/DTD/svg11.dtd">
<svg version="1.1" id="Layer_1" xmlns="http://www.w3.org/2000/svg" xmlns:xlink="http://www.w3.org/1999/xlink" x="0px" y="0px"
	 viewBox="0 0 32 32" enable-background="new 0 0 32 32" xml:space="preserve">
<g>
	<g>
		<path fill="#FFFFFF" d="M1.5,14.5v5.9c0,1.7,1.4,3.1,3.1,3.1h22.7c1.7,0,3.1-1.4,3.1-3.1v-5.9H1.5z"/>
		<path fill="#8F9BA8" d="M27.4,24.2H4.6c-2.1,0-3.9-1.7-3.9-3.9v-6.7h30.5v6.7C31.3,22.5,29.5,24.2,27.4,24.2z M2.3,15.2v5.2
			c0,1.3,1.1,2.4,2.4,2.4h22.7c1.3,0,2.4-1.1,2.4-2.4v-5.2H2.3z"/>
	</g>
	<g>
		<rect x="7.6" y="6.1" fill="#CDE4F7" width="7.1" height="8.3"/>
		<path fill="#74B1E0" d="M15.4,15.2H6.9V5.4h8.6V15.2z M8.4,13.7h5.6V6.9H8.4V13.7z"/>
	</g>
	<g>
		<path fill="#CDE4F7" d="M4.6,6.1c-1.7,0-3.1,1.4-3.1,3.1v5.2h6.1V6.1H4.6z"/>
		<path fill="#74B1E0" d="M8.4,15.2H0.8V9.3c0-2.1,1.7-3.9,3.9-3.9h3.7V15.2z M2.3,13.7h4.6V6.9H4.6c-1.3,0-2.4,1.1-2.4,2.4V13.7z"
			/>
	</g>
	<g>
		<rect x="14.7" y="6.1" fill="#CDE4F7" width="7.1" height="8.3"/>
		<path fill="#74B1E0" d="M22.5,15.2h-8.6V5.4h8.6V15.2z M15.4,13.7H21V6.9h-5.6V13.7z"/>
	</g>
	<g>
		<path fill="#CDE4F7" d="M30.5,13c0-3.8-3.1-6.9-6.9-6.9h-1.9v8.3h8.8V13z"/>
		<path fill="#74B1E0" d="M31.3,15.2H21V5.4h2.6c4.2,0,7.6,3.4,7.6,7.6V15.2z M22.5,13.7h7.3V13c0-3.4-2.8-6.1-6.1-6.1h-1.1V13.7z"
			/>
	</g>
	<g>
		<circle fill="#FFFFFF" cx="7.6" cy="22.8" r="3.1"/>
		<path fill="#8F9BA8" d="M7.6,26.6c-2.1,0-3.8-1.7-3.8-3.8c0-2.1,1.7-3.8,3.8-3.8s3.8,1.7,3.8,3.8C11.4,24.9,9.7,26.6,7.6,26.6z
			 M7.6,20.5c-1.3,0-2.3,1-2.3,2.3c0,1.3,1,2.3,2.3,2.3s2.3-1,2.3-2.3C9.9,21.6,8.9,20.5,7.6,20.5z"/>
	</g>
	<g>
		<circle fill="#FFFFFF" cx="23.9" cy="22.8" r="3.1"/>
		<path fill="#8F9BA8" d="M23.9,26.6c-2.1,0-3.8-1.7-3.8-3.8c0-2.1,1.7-3.8,3.8-3.8s3.8,1.7,3.8,3.8C27.7,24.9,26,26.6,23.9,26.6z
			 M23.9,20.5c-1.3,0-2.3,1-2.3,2.3c0,1.3,1,2.3,2.3,2.3c1.3,0,2.3-1,2.3-2.3C26.2,21.6,25.1,20.5,23.9,20.5z"/>
	</g>
</g>
</svg>
