<?xml version="1.0" encoding="utf-8"?>
<!-- Generator: Adobe Illustrator 18.0.0, SVG Export Plug-In . SVG Version: 6.00 Build 0)  -->
<!DOCTYPE svg PUBLIC "-//W3C//DTD SVG 1.1//EN" "http://www.w3.org/Graphics/SVG/1.1/DTD/svg11.dtd">
<svg version="1.1" id="Layer_1" xmlns="http://www.w3.org/2000/svg" xmlns:xlink="http://www.w3.org/1999/xlink" x="0px" y="0px"
	 viewBox="0 0 32 32" enable-background="new 0 0 32 32" xml:space="preserve">
<g>
	<g>
		<circle fill="#F0F7F7" cx="18.1" cy="11" r="9.5"/>
		<path fill="#8F9BA8" d="M18.1,21.3c-5.7,0-10.3-4.6-10.3-10.3c0-5.7,4.6-10.3,10.3-10.3c5.7,0,10.3,4.6,10.3,10.3
			C28.4,16.7,23.8,21.3,18.1,21.3z M18.1,2.3c-4.8,0-8.7,3.9-8.7,8.7s3.9,8.7,8.7,8.7c4.8,0,8.7-3.9,8.7-8.7S22.9,2.3,18.1,2.3z"/>
	</g>
	<g>
		<path fill="#8F9BA8" d="M18.1,25.6c-3.7,0-7.4-1.4-10.3-4.2c-5.7-5.7-5.7-14.9,0-20.6L9,1.9C3.9,6.9,3.9,15.1,9,20.2
			c5.1,5.1,13.3,5.1,18.3,0l1.1,1.1C25.6,24.1,21.8,25.6,18.1,25.6z"/>
	</g>
	<g>
		<ellipse fill="#F0F7F7" cx="18.1" cy="11" rx="5.3" ry="9.5"/>
		<path fill="#8F9BA8" d="M18.1,21.3c-3.4,0-6.1-4.5-6.1-10.3s2.7-10.3,6.1-10.3c3.4,0,6.1,4.5,6.1,10.3S21.5,21.3,18.1,21.3z
			 M18.1,2.3c-2.5,0-4.5,4-4.5,8.7c0,4.7,2.1,8.7,4.5,8.7c2.5,0,4.5-4,4.5-8.7C22.6,6.3,20.6,2.3,18.1,2.3z"/>
	</g>
	<g>
		<line fill="#FFFFFF" x1="18.1" y1="1.5" x2="18.1" y2="20.5"/>
		<rect x="17.3" y="1.5" fill="#8F9BA8" width="1.6" height="19"/>
	</g>
	<g>
		<line fill="#F0F7F7" x1="8.6" y1="11" x2="27.6" y2="11"/>
		<rect x="8.6" y="10.3" fill="#8F9BA8" width="19" height="1.6"/>
	</g>
	<g>
		<rect x="16.7" y="24.8" fill="#8F9BA8" width="1.6" height="5.7"/>
	</g>
	<g>
		<rect x="9.6" y="29.7" fill="#8F9BA8" width="15.8" height="1.6"/>
	</g>
</g>
</svg>
