<?xml version="1.0" encoding="utf-8"?>
<!-- Generator: Adobe Illustrator 18.0.0, SVG Export Plug-In . SVG Version: 6.00 Build 0)  -->
<!DOCTYPE svg PUBLIC "-//W3C//DTD SVG 1.1//EN" "http://www.w3.org/Graphics/SVG/1.1/DTD/svg11.dtd">
<svg version="1.1" id="Layer_1" xmlns="http://www.w3.org/2000/svg" xmlns:xlink="http://www.w3.org/1999/xlink" x="0px" y="0px"
	 viewBox="0 0 32 32" enable-background="new 0 0 32 32" xml:space="preserve">
<g>
	<g>
		<path fill="#8F9BA8" d="M7.7,10.9l-1.9-7L1,2.2l0.5-1.4l5.2,1.8c0.2,0.1,0.4,0.3,0.5,0.5l2,7.4L7.7,10.9z"/>
	</g>
	<g>
		<rect x="12.6" y="19.9" fill="#79C693" width="1.5" height="10.5"/>
	</g>
	<g>
		<rect x="9.3" y="29.7" fill="#79C693" width="8" height="1.5"/>
	</g>
	<g>
		<rect x="6.8" y="13.9" fill="#79C693" width="13" height="1.5"/>
	</g>
	<g>
		<path fill="#F0F7F7" d="M24.6,5C21.5,5,19,7.5,19,10.7h5.6l-4.4,3.6c1,1.3,2.6,2.1,4.4,2.1c3.1,0,5.6-2.6,5.6-5.7
			C30.2,7.5,27.7,5,24.6,5z"/>
		<path fill="#8F9BA8" d="M24.6,17.2c-1.9,0-3.7-0.9-5-2.4c-0.3-0.3-0.2-0.8,0.1-1l2.7-2.2H19c-0.4,0-0.8-0.3-0.8-0.8
			c0-3.6,2.9-6.5,6.4-6.5c3.5,0,6.4,2.9,6.4,6.5S28.1,17.2,24.6,17.2z M21.4,14.4c0.9,0.8,2.1,1.3,3.3,1.3c2.7,0,4.9-2.2,4.9-5
			c0-2.7-2.2-5-4.9-5c-2.4,0-4.4,1.8-4.8,4.2h4.8c0.3,0,0.6,0.2,0.7,0.5c0.1,0.3,0,0.6-0.2,0.8L21.4,14.4z"/>
	</g>
	<g>
		<path fill="#79C693" d="M13.3,20.7c-0.2,0-0.3-0.1-0.5-0.2L1.5,11.3c-0.2-0.2-0.3-0.5-0.2-0.8C1.4,10.1,1.7,10,2,10h22.6
			c0.3,0,0.6,0.2,0.7,0.5c0.1,0.3,0,0.6-0.2,0.8l-11.3,9.2C13.7,20.6,13.5,20.7,13.3,20.7z M4.1,11.5l9.2,7.5l9.2-7.5H4.1z"/>
	</g>
</g>
<g>
	<g>
		<g>
			<defs>
				<circle id="SVGID_9_" cx="46.6" cy="27.4" r="3.1"/>
			</defs>
			<clipPath id="SVGID_2_">
				<use xlink:href="#SVGID_9_"  overflow="visible"/>
			</clipPath>
			<g clip-path="url(#SVGID_2_)">
				<rect x="28.9" y="9.4" fill="none" width="24.1" height="24.1"/>
				<rect x="28.9" y="9.4" fill="#FEE99B" width="24.1" height="24.1"/>
			</g>
		</g>
	</g>
</g>
</svg>
