<?xml version="1.0" encoding="utf-8"?>
<!-- Generator: Adobe Illustrator 18.0.0, SVG Export Plug-In . SVG Version: 6.00 Build 0)  -->
<!DOCTYPE svg PUBLIC "-//W3C//DTD SVG 1.1//EN" "http://www.w3.org/Graphics/SVG/1.1/DTD/svg11.dtd">
<svg version="1.1" id="Layer_1" xmlns="http://www.w3.org/2000/svg" xmlns:xlink="http://www.w3.org/1999/xlink" x="0px" y="0px"
	 viewBox="0 0 32 32" enable-background="new 0 0 32 32" xml:space="preserve">
<g>
	<g>
		<rect x="1.5" y="6.7" fill="#FFFFFF" width="29" height="18.5"/>
		<path fill="#8F9BA8" d="M30.5,26h-29c-0.4,0-0.8-0.3-0.8-0.8V6.7C0.8,6.3,1.1,6,1.5,6h29c0.4,0,0.8,0.3,0.8,0.8v18.5
			C31.3,25.7,30.9,26,30.5,26z M2.3,24.5h27.5v-17H2.3V24.5z"/>
	</g>
	<g>
		<line fill="none" x1="30.5" y1="25.3" x2="20" y2="15.7"/>
		
			<rect x="18.1" y="19.7" transform="matrix(-0.7379 -0.6749 0.6749 -0.7379 30.0528 52.5107)" fill="#8F9BA8" width="14.2" height="1.5"/>
	</g>
	<g>
		<line fill="none" x1="1.5" y1="25.3" x2="12" y2="15.7"/>
		
			<rect x="6" y="13.3" transform="matrix(-0.675 -0.7378 0.7378 -0.675 -3.6812 39.219)" fill="#8F9BA8" width="1.5" height="14.2"/>
	</g>
	<g>
		<polygon fill="#CDE4F7" points="1.5,6.7 16,19.1 30.5,6.7 30.5,6.7 		"/>
		<path fill="#74B1E0" d="M16,19.8c-0.2,0-0.3-0.1-0.5-0.2L1.1,7.3C0.8,7.1,0.7,6.8,0.8,6.5S1.2,6,1.5,6h28.9c0.3,0,0.6,0.2,0.7,0.5
			s0,0.6-0.2,0.8L16.5,19.6C16.3,19.8,16.2,19.8,16,19.8z M3.6,7.5L16,18.1L28.4,7.5H3.6z"/>
	</g>
</g>
</svg>
