<?xml version="1.0" encoding="utf-8"?>
<!-- Generator: Adobe Illustrator 18.0.0, SVG Export Plug-In . SVG Version: 6.00 Build 0)  -->
<!DOCTYPE svg PUBLIC "-//W3C//DTD SVG 1.1//EN" "http://www.w3.org/Graphics/SVG/1.1/DTD/svg11.dtd">
<svg version="1.1" id="Layer_1" xmlns="http://www.w3.org/2000/svg" xmlns:xlink="http://www.w3.org/1999/xlink" x="0px" y="0px"
	 viewBox="0 0 32 32" enable-background="new 0 0 32 32" xml:space="preserve">
<g>
	<g>
		<circle fill="#FFFFFF" cx="16" cy="16" r="14.5"/>
		<path fill="#DA8C8C" d="M16,31.3C7.6,31.3,0.8,24.4,0.8,16C0.8,7.6,7.6,0.8,16,0.8S31.3,7.6,31.3,16C31.3,24.4,24.4,31.3,16,31.3z
			 M16,2.3C8.4,2.3,2.3,8.4,2.3,16S8.4,29.8,16,29.8S29.8,23.6,29.8,16S23.6,2.3,16,2.3z"/>
	</g>
	<g>
		<circle fill="#FFFFFF" cx="16" cy="16" r="9.7"/>
		<path fill="#79C693" d="M16,26.5c-5.8,0-10.5-4.7-10.5-10.5c0-5.8,4.7-10.5,10.5-10.5c5.8,0,10.5,4.7,10.5,10.5
			C26.5,21.8,21.8,26.5,16,26.5z M16,7c-4.9,0-9,4-9,9c0,4.9,4,9,9,9c4.9,0,9-4,9-9C25,11.1,20.9,7,16,7z"/>
	</g>
	<g>
		<circle fill="#F9F8F2" cx="16" cy="16" r="5"/>
		<path fill="#74B1E0" d="M16,21.8c-3.2,0-5.8-2.6-5.8-5.8c0-3.2,2.6-5.8,5.8-5.8c3.2,0,5.8,2.6,5.8,5.8
			C21.8,19.2,19.2,21.8,16,21.8z M16,11.7c-2.4,0-4.3,1.9-4.3,4.3c0,2.4,1.9,4.3,4.3,4.3c2.4,0,4.3-1.9,4.3-4.3
			C20.3,13.6,18.4,11.7,16,11.7z"/>
	</g>
	<g>
		<line fill="#F9F8F2" x1="16" y1="15.1" x2="16" y2="16.9"/>
		<rect x="15.3" y="15.1" fill="#74B1E0" width="1.5" height="1.7"/>
	</g>
</g>
</svg>
