<?xml version="1.0" encoding="utf-8"?>
<!-- Generator: Adobe Illustrator 18.0.0, SVG Export Plug-In . SVG Version: 6.00 Build 0)  -->
<!DOCTYPE svg PUBLIC "-//W3C//DTD SVG 1.1//EN" "http://www.w3.org/Graphics/SVG/1.1/DTD/svg11.dtd">
<svg version="1.1" id="Layer_1" xmlns="http://www.w3.org/2000/svg" xmlns:xlink="http://www.w3.org/1999/xlink" x="0px" y="0px"
	 viewBox="0 0 32 32" enable-background="new 0 0 32 32" xml:space="preserve">
<g>
	<g>
		<polygon fill="#FAC2C3" points="27.9,18.4 30.2,16 27.9,13.6 29.1,10.6 26,9.3 26,6 22.7,6 21.4,2.9 18.4,4.1 16,1.8 13.6,4.1 
			10.6,2.9 9.3,6 6,6 6,9.3 2.9,10.6 4.1,13.6 1.8,16 4.1,18.4 2.9,21.4 6,22.7 6,26 9.3,26 10.6,29.1 13.6,27.9 16,30.2 18.4,27.9 
			21.4,29.1 22.7,26 26,26 26,22.7 29.1,21.4 		"/>
		<path fill="#DA8C8C" d="M16,31.2l-2.5-2.5l-3.3,1.4l-1.4-3.3H5.2v-3.6l-3.3-1.4l1.4-3.3L0.8,16l2.5-2.5l-1.4-3.3l3.3-1.4V5.2h3.6
			l1.4-3.3l3.3,1.4L16,0.8l2.5,2.5l3.3-1.4l1.4,3.3h3.6v3.6l3.3,1.4l-1.4,3.3l2.5,2.5l-2.5,2.5l1.4,3.3l-3.3,1.4v3.6l-3.6,0
			l-1.4,3.3l-3.3-1.4L16,31.2z M13.8,27l2.2,2.2l2.2-2.2l2.9,1.2l1.2-2.9l3.1,0v-3.1l2.9-1.2L27,18.2l2.2-2.2L27,13.8l1.2-2.9
			l-2.9-1.2V6.7h-3.1L21,3.8L18.2,5L16,2.8L13.8,5L11,3.8L9.8,6.7H6.7v3.1L3.8,11L5,13.8L2.8,16L5,18.2L3.8,21l2.9,1.2v3.1h3.1
			l1.2,2.9L13.8,27z"/>
	</g>
	<g>
		<circle fill="#FFFFFF" cx="16" cy="16" r="8.7"/>
		<path fill="#DA8C8C" d="M16,25.4c-5.2,0-9.4-4.2-9.4-9.4c0-5.2,4.2-9.4,9.4-9.4c5.2,0,9.4,4.2,9.4,9.4
			C25.4,21.2,21.2,25.4,16,25.4z M16,8.1c-4.4,0-7.9,3.6-7.9,7.9c0,4.4,3.6,7.9,7.9,7.9c4.4,0,7.9-3.6,7.9-7.9
			C23.9,11.6,20.4,8.1,16,8.1z"/>
	</g>
</g>
</svg>
