<?xml version="1.0" encoding="utf-8"?>
<!-- Generator: Adobe Illustrator 18.0.0, SVG Export Plug-In . SVG Version: 6.00 Build 0)  -->
<!DOCTYPE svg PUBLIC "-//W3C//DTD SVG 1.1//EN" "http://www.w3.org/Graphics/SVG/1.1/DTD/svg11.dtd">
<svg version="1.1" id="Layer_1" xmlns="http://www.w3.org/2000/svg" xmlns:xlink="http://www.w3.org/1999/xlink" x="0px" y="0px"
	 viewBox="0 0 32 32" enable-background="new 0 0 32 32" xml:space="preserve">
<g>
	<g>
		<path fill="#8F9BA8" d="M10.5,20.3c-0.1,0-0.3,0-0.4,0c-4.7-0.2-8.3-4.2-8.3-9V6c0-2.1,1.7-3.9,3.9-3.9v1.5C4.3,3.6,3.2,4.7,3.2,6
			v5.3c0,4,3,7.3,6.9,7.5c2,0.1,3.9-0.6,5.4-2s2.3-3.3,2.3-5.3V6c0-1.3-1.1-2.4-2.4-2.4V2.1c2.1,0,3.9,1.7,3.9,3.9v5.5
			c0,2.4-1,4.7-2.7,6.3C14.9,19.5,12.7,20.3,10.5,20.3z"/>
	</g>
	<g>
		<circle fill="#F9F8F2" cx="13.6" cy="2.9" r="1.4"/>
		<path fill="#B4A79C" d="M13.6,5c-1.2,0-2.1-1-2.1-2.1c0-1.2,1-2.1,2.1-2.1s2.1,1,2.1,2.1C15.8,4.1,14.8,5,13.6,5z M13.6,2.3
			c-0.4,0-0.6,0.3-0.6,0.6s0.3,0.6,0.6,0.6c0.4,0,0.6-0.3,0.6-0.6S14,2.3,13.6,2.3z"/>
	</g>
	<g>
		<circle fill="#F9F8F2" cx="6.9" cy="2.9" r="1.4"/>
		<path fill="#B4A79C" d="M6.9,5C5.7,5,4.8,4,4.8,2.9c0-1.2,1-2.1,2.1-2.1c1.2,0,2.1,1,2.1,2.1C9,4.1,8.1,5,6.9,5z M6.9,2.3
			c-0.4,0-0.6,0.3-0.6,0.6s0.3,0.6,0.6,0.6c0.4,0,0.6-0.3,0.6-0.6S7.3,2.3,6.9,2.3z"/>
	</g>
	<g>
		<path fill="#8F9BA8" d="M18.3,31.3c-4.7,0-8.6-3.9-8.6-8.6v-3.1h1.5v3.1c0,3.9,3.2,7.1,7.1,7.1s7.1-3.2,7.1-7.1v-1.3h1.5v1.3
			C26.9,27.4,23.1,31.3,18.3,31.3z"/>
	</g>
	<g>
		<circle fill="#F9F8F2" cx="26.2" cy="18.3" r="3.4"/>
		<path fill="#B4A79C" d="M26.2,22.4c-2.3,0-4.1-1.9-4.1-4.1c0-2.3,1.9-4.1,4.1-4.1c2.3,0,4.1,1.9,4.1,4.1
			C30.3,20.5,28.4,22.4,26.2,22.4z M26.2,15.6c-1.5,0-2.6,1.2-2.6,2.6c0,1.5,1.2,2.6,2.6,2.6c1.5,0,2.6-1.2,2.6-2.6
			C28.8,16.8,27.6,15.6,26.2,15.6z"/>
	</g>
</g>
</svg>
