<?xml version="1.0" encoding="utf-8"?>
<!-- Generator: Adobe Illustrator 18.0.0, SVG Export Plug-In . SVG Version: 6.00 Build 0)  -->
<!DOCTYPE svg PUBLIC "-//W3C//DTD SVG 1.1//EN" "http://www.w3.org/Graphics/SVG/1.1/DTD/svg11.dtd">
<svg version="1.1" id="Layer_1" xmlns="http://www.w3.org/2000/svg" xmlns:xlink="http://www.w3.org/1999/xlink" x="0px" y="0px"
	 viewBox="0 0 32 32" enable-background="new 0 0 32 32" xml:space="preserve">
<g>
	<g>
		<path fill="#74B1E0" d="M28,31.3H4c-1.8,0-3.2-1.4-3.2-3.2V4c0-1.8,1.4-3.2,3.2-3.2H28c1.8,0,3.2,1.4,3.2,3.2V28
			C31.3,29.8,29.8,31.3,28,31.3z M4,2.3C3,2.3,2.3,3,2.3,4V28c0,1,0.8,1.7,1.7,1.7H28c1,0,1.7-0.8,1.7-1.7V4c0-1-0.8-1.7-1.7-1.7H4z
			"/>
	</g>
	<g>
		<path fill="#CDE4F7" d="M20.2,5.5h4.7v21.1h-4.7v-8.3h-8.4v8.3H7.1V5.5h4.7v8.8h8.4V5.5z"/>
		<path fill="#74B1E0" d="M25.6,27.3h-6.2V19h-6.9v8.3H6.4V4.7h6.2v8.8h6.9V4.7h6.2V27.3z M20.9,25.8h3.2V6.2h-3.2V15h-9.9V6.2H7.9
			v19.6h3.2v-8.3h9.9V25.8z"/>
	</g>
</g>
</svg>
