<?xml version="1.0" encoding="utf-8"?>
<!-- Generator: Adobe Illustrator 18.0.0, SVG Export Plug-In . SVG Version: 6.00 Build 0)  -->
<!DOCTYPE svg PUBLIC "-//W3C//DTD SVG 1.1//EN" "http://www.w3.org/Graphics/SVG/1.1/DTD/svg11.dtd">
<svg version="1.1" id="Layer_1" xmlns="http://www.w3.org/2000/svg" xmlns:xlink="http://www.w3.org/1999/xlink" x="0px" y="0px"
	 viewBox="0 0 32 32" enable-background="new 0 0 32 32" xml:space="preserve">
<g>
	<g>
		<path fill="#8F9BA8" d="M27.5,24.5H4.5v-0.8c0-1.7-1.4-3-3-3H0.8v-9.4h0.8c1.7,0,3-1.4,3-3V7.5h22.9v0.8c0,1.7,1.4,3,3,3h0.8v9.4
			h-0.8c-1.7,0-3,1.4-3,3V24.5z M6,23H26c0.3-1.9,1.8-3.4,3.7-3.7v-6.5c-1.9-0.3-3.4-1.8-3.7-3.7H6c-0.3,1.9-1.8,3.4-3.7,3.7v6.5
			C4.1,19.6,5.6,21.1,6,23z"/>
	</g>
	<g>
		<path fill="#F0F7F7" d="M5.3,8.3H1.5v3.8C3.6,12.1,5.3,10.4,5.3,8.3z"/>
		<path fill="#8F9BA8" d="M1.5,12.8H0.8V7.5H6v0.8C6,10.8,4,12.8,1.5,12.8z M2.3,9v2.2C3.3,11,4.2,10.1,4.4,9H2.3z"/>
	</g>
	<g>
		<path fill="#F0F7F7" d="M1.5,19.9v3.8h3.8C5.3,21.6,3.6,19.9,1.5,19.9z"/>
		<path fill="#8F9BA8" d="M6,24.5H0.8v-5.3h0.8c2.5,0,4.5,2,4.5,4.5V24.5z M2.3,23h2.2c-0.3-1.1-1.1-1.9-2.2-2.2V23z"/>
	</g>
	<g>
		<path fill="#F0F7F7" d="M30.5,12.1V8.3h-3.8C26.7,10.4,28.4,12.1,30.5,12.1z"/>
		<path fill="#8F9BA8" d="M31.3,12.8h-0.8c-2.5,0-4.5-2-4.5-4.5V7.5h5.3V12.8z M27.6,9c0.3,1.1,1.1,1.9,2.2,2.2V9H27.6z"/>
	</g>
	<g>
		<path fill="#F0F7F7" d="M30.5,19.9c-2.1,0-3.8,1.7-3.8,3.8h3.8V19.9z"/>
		<path fill="#8F9BA8" d="M31.3,24.5H26v-0.8c0-2.5,2-4.5,4.5-4.5h0.8V24.5z M27.6,23h2.2v-2.2C28.7,21,27.8,21.9,27.6,23z"/>
	</g>
	<g>
		<ellipse fill="#F0F7F7" cx="16" cy="16" rx="3.9" ry="5.2"/>
		<path fill="#8F9BA8" d="M16,22c-2.6,0-4.7-2.7-4.7-6c0-3.3,2.1-6,4.7-6c2.6,0,4.7,2.7,4.7,6C20.7,19.3,18.6,22,16,22z M16,11.5
			c-1.7,0-3.2,2-3.2,4.5c0,2.5,1.4,4.5,3.2,4.5c1.7,0,3.2-2,3.2-4.5C19.2,13.5,17.7,11.5,16,11.5z"/>
	</g>
</g>
</svg>
