<?xml version="1.0" encoding="utf-8"?>
<!-- Generator: Adobe Illustrator 18.0.0, SVG Export Plug-In . SVG Version: 6.00 Build 0)  -->
<!DOCTYPE svg PUBLIC "-//W3C//DTD SVG 1.1//EN" "http://www.w3.org/Graphics/SVG/1.1/DTD/svg11.dtd">
<svg version="1.1" id="Layer_1" xmlns="http://www.w3.org/2000/svg" xmlns:xlink="http://www.w3.org/1999/xlink" x="0px" y="0px"
	 viewBox="0 0 32 32" enable-background="new 0 0 32 32" xml:space="preserve">
<g>
	<g>
		<path fill="#79C693" d="M13.9,27H3.6c-1.6,0-2.9-1.3-2.9-2.9V7.9C0.8,6.3,2,5,3.6,5h10.2c1.6,0,2.9,1.3,2.9,2.9v16.3
			C16.8,25.7,15.5,27,13.9,27z M3.6,6.5c-0.8,0-1.4,0.6-1.4,1.4v16.3c0,0.8,0.6,1.4,1.4,1.4h10.2c0.8,0,1.4-0.6,1.4-1.4V7.9
			c0-0.8-0.6-1.4-1.4-1.4H3.6z"/>
	</g>
	<g>
		<path fill="#79C693" d="M28.4,27H18.1c-1.6,0-2.9-1.3-2.9-2.9V7.9c0-1.6,1.3-2.9,2.9-2.9h10.2c1.6,0,2.9,1.3,2.9,2.9v16.3
			C31.3,25.7,30,27,28.4,27z M18.1,6.5c-0.8,0-1.4,0.6-1.4,1.4v16.3c0,0.8,0.6,1.4,1.4,1.4h10.2c0.8,0,1.4-0.6,1.4-1.4V7.9
			c0-0.8-0.6-1.4-1.4-1.4H18.1z"/>
	</g>
	<g>
		<rect x="19.4" y="9.3" fill="#FAC2C3" width="7.8" height="1.5"/>
	</g>
	<g>
		<rect x="19.4" y="15.2" fill="#FAC2C3" width="7.8" height="1.5"/>
	</g>
	<g>
		<rect x="19.4" y="21.2" fill="#FAC2C3" width="7.8" height="1.5"/>
	</g>
	<g>
		<rect x="4.9" y="9.3" fill="#FAC2C3" width="7.8" height="1.5"/>
	</g>
	<g>
		<rect x="4.9" y="15.2" fill="#FAC2C3" width="7.8" height="1.5"/>
	</g>
	<g>
		<rect x="4.9" y="21.2" fill="#FAC2C3" width="7.8" height="1.5"/>
	</g>
</g>
</svg>
