<?xml version="1.0" encoding="utf-8"?>
<!-- Generator: Adobe Illustrator 18.0.0, SVG Export Plug-In . SVG Version: 6.00 Build 0)  -->
<!DOCTYPE svg PUBLIC "-//W3C//DTD SVG 1.1//EN" "http://www.w3.org/Graphics/SVG/1.1/DTD/svg11.dtd">
<svg version="1.1" id="Layer_1" xmlns="http://www.w3.org/2000/svg" xmlns:xlink="http://www.w3.org/1999/xlink" x="0px" y="0px"
	 viewBox="0 0 32 32" enable-background="new 0 0 32 32" xml:space="preserve">
<g>
	<g>
		<path fill="#B4A79C" d="M25.1,25.4l-9.2,0l-9.1,0l-0.7,0l0-0.1c-3-0.4-5.3-3-5.3-6.1c0-2.3,1.2-4.3,3.2-5.4
			c-0.1-0.6-0.2-1.2-0.2-1.7C3.7,8.2,6.9,5,10.8,5c0.7,0,1.4,0.1,2,0.3C14.4,3.8,16.5,3,18.7,3c4.8,0,8.7,3.9,8.7,8.7
			c0,0.6-0.1,1.2-0.2,1.8c2.4,0.9,4,3.2,4,5.8C31.3,22.6,28.5,25.4,25.1,25.4z M16,23.9l9.1,0c2.6,0,4.7-2.1,4.7-4.7
			c0-2.2-1.5-4-3.6-4.6l-0.8-0.2l0.2-0.8c0.2-0.7,0.3-1.4,0.3-2.1c0-4-3.2-7.2-7.2-7.2c-2,0-3.8,0.8-5.2,2.2L13.2,7l-0.5-0.2
			c-0.6-0.2-1.3-0.4-2-0.4c-3.1,0-5.6,2.5-5.6,5.6c0,0.6,0.1,1.3,0.3,1.9l0.2,0.7l-0.7,0.3c-1.7,0.7-2.9,2.4-2.9,4.3
			c0,2.5,2,4.6,4.5,4.7l0.2,0L16,23.9z"/>
	</g>
	<g>
		<rect x="15.9" y="17.4" fill="#B4A79C" width="1.5" height="11.7"/>
	</g>
	<g>
		<polygon fill="#B4A79C" points="20.1,21.6 16.6,18.4 13.2,21.6 12.1,20.6 16.6,16.3 21.1,20.6 		"/>
	</g>
</g>
</svg>
