<?xml version="1.0" encoding="utf-8"?>
<!-- Generator: Adobe Illustrator 18.0.0, SVG Export Plug-In . SVG Version: 6.00 Build 0)  -->
<!DOCTYPE svg PUBLIC "-//W3C//DTD SVG 1.1//EN" "http://www.w3.org/Graphics/SVG/1.1/DTD/svg11.dtd">
<svg version="1.1" id="Layer_1" xmlns="http://www.w3.org/2000/svg" xmlns:xlink="http://www.w3.org/1999/xlink" x="0px" y="0px"
	 viewBox="0 0 32 32" enable-background="new 0 0 32 32" xml:space="preserve">
<g>
	<g>
		<path fill="#74B1E0" d="M25.1,23.2l-9.2,0l-9.1,0l-0.7,0l0-0.1c-3-0.4-5.3-3-5.3-6.1c0-2.3,1.2-4.3,3.2-5.4
			C3.8,11,3.7,10.5,3.7,9.9c0-3.9,3.2-7.1,7.1-7.1c0.7,0,1.4,0.1,2,0.3c1.6-1.5,3.7-2.3,5.9-2.3c4.8,0,8.7,3.9,8.7,8.7
			c0,0.6-0.1,1.2-0.2,1.8c2.4,0.9,4,3.2,4,5.8C31.3,20.4,28.5,23.2,25.1,23.2z M16,21.7l9.1,0c2.6,0,4.7-2.1,4.7-4.7
			c0-2.2-1.5-4-3.6-4.6l-0.8-0.2l0.2-0.8c0.2-0.7,0.3-1.4,0.3-2.1c0-4-3.2-7.2-7.2-7.2c-2,0-3.8,0.8-5.2,2.2l-0.3,0.4l-0.5-0.2
			c-0.6-0.2-1.3-0.4-2-0.4c-3.1,0-5.6,2.5-5.6,5.6c0,0.6,0.1,1.3,0.3,1.9l0.2,0.7l-0.7,0.3c-1.7,0.7-2.9,2.4-2.9,4.3
			c0,2.5,2,4.6,4.5,4.7l0.3,0L16,21.7z"/>
	</g>
	<g>
		<rect x="15.9" y="18.5" fill="#74B1E0" width="1.5" height="11.7"/>
	</g>
	<g>
		<polygon fill="#74B1E0" points="16.6,31.2 12.2,27 13.2,25.9 16.6,29.2 20.1,25.9 21.1,27 		"/>
	</g>
</g>
</svg>
