<?xml version="1.0" encoding="utf-8"?>
<!-- Generator: Adobe Illustrator 18.0.0, SVG Export Plug-In . SVG Version: 6.00 Build 0)  -->
<!DOCTYPE svg PUBLIC "-//W3C//DTD SVG 1.1//EN" "http://www.w3.org/Graphics/SVG/1.1/DTD/svg11.dtd">
<svg version="1.1" id="Layer_1" xmlns="http://www.w3.org/2000/svg" xmlns:xlink="http://www.w3.org/1999/xlink" x="0px" y="0px"
	 viewBox="0 0 32 32" enable-background="new 0 0 32 32" xml:space="preserve">
<g>
	<g>
		<path fill="#8F9BA8" d="M16,31.3C7.6,31.3,0.8,24.4,0.8,16C0.8,7.6,7.6,0.8,16,0.8c8.4,0,15.3,6.8,15.3,15.3
			C31.3,24.4,24.4,31.3,16,31.3z M16,2.3C8.4,2.3,2.3,8.4,2.3,16S8.4,29.8,16,29.8c7.6,0,13.8-6.2,13.8-13.8S23.6,2.3,16,2.3z"/>
	</g>
	<g>
		<path fill="#8F9BA8" d="M16.8,22.1h-1.5v-0.3c0-2.2,1.2-4.2,3.1-5.5c1.3-0.8,2.1-2.3,2.1-3.9c0-2.4-2.1-4.4-4.4-4.4c0,0,0,0-0.1,0
			c-1.2,0-2.3,0.5-3.2,1.3c-0.9,0.9-1.3,2-1.3,3.2H10c0-1.6,0.6-3.1,1.8-4.3c1.1-1.1,2.6-1.7,4.3-1.7c3.2,0,5.9,2.7,5.9,5.9
			c0,2.1-1,4-2.8,5.1c-1.5,1-2.5,2.5-2.5,4.2V22.1z"/>
	</g>
	<g>
		<rect x="15.3" y="23.2" fill="#8F9BA8" width="1.5" height="1.4"/>
	</g>
</g>
</svg>
