<?xml version="1.0" encoding="utf-8"?>
<!-- Generator: Adobe Illustrator 18.0.0, SVG Export Plug-In . SVG Version: 6.00 Build 0)  -->
<!DOCTYPE svg PUBLIC "-//W3C//DTD SVG 1.1//EN" "http://www.w3.org/Graphics/SVG/1.1/DTD/svg11.dtd">
<svg version="1.1" id="Layer_1" xmlns="http://www.w3.org/2000/svg" xmlns:xlink="http://www.w3.org/1999/xlink" x="0px" y="0px"
	 viewBox="0 0 32 32" enable-background="new 0 0 32 32" xml:space="preserve">
<g>
	<g>
		<path fill="#74B1E0" d="M25,30.5c-0.1,0-0.2,0-0.3-0.1L16,25.9l-8.6,4.5c-0.3,0.1-0.6,0.1-0.8-0.1c-0.2-0.2-0.3-0.5-0.3-0.7
			l1.6-9.6l-7-6.8c-0.2-0.2-0.3-0.5-0.2-0.8C0.9,12.2,1.1,12,1.4,12l9.6-1.4l4.3-8.7c0.1-0.3,0.4-0.4,0.7-0.4l0,0
			c0.3,0,0.5,0.2,0.7,0.4l4.3,8.7l9.6,1.4c0.3,0,0.5,0.2,0.6,0.5c0.1,0.3,0,0.6-0.2,0.8l-7,6.8l1.6,9.6c0,0.3-0.1,0.6-0.3,0.7
			C25.3,30.5,25.1,30.5,25,30.5z M16,24.3c0.1,0,0.2,0,0.3,0.1l7.6,4l-1.5-8.5c0-0.2,0-0.5,0.2-0.7l6.2-6L20.4,12
			c-0.2,0-0.5-0.2-0.6-0.4L16,3.9l-3.8,7.7c-0.1,0.2-0.3,0.4-0.6,0.4l-8.5,1.2l6.2,6c0.2,0.2,0.3,0.4,0.2,0.7L8,28.4l7.6-4
			C15.8,24.4,15.9,24.3,16,24.3z"/>
	</g>
</g>
</svg>
