<?xml version="1.0" encoding="utf-8"?>
<!-- Generator: Adobe Illustrator 18.0.0, SVG Export Plug-In . SVG Version: 6.00 Build 0)  -->
<!DOCTYPE svg PUBLIC "-//W3C//DTD SVG 1.1//EN" "http://www.w3.org/Graphics/SVG/1.1/DTD/svg11.dtd">
<svg version="1.1" id="Layer_1" xmlns="http://www.w3.org/2000/svg" xmlns:xlink="http://www.w3.org/1999/xlink" x="0px" y="0px"
	 viewBox="0 0 32 32" enable-background="new 0 0 32 32" xml:space="preserve">
<g>
	<g>
		<rect x="3.1" y="3.2" fill="#79C693" width="1.5" height="27.3"/>
	</g>
	<g>
		<rect x="1.1" y="29.7" fill="#79C693" width="5.5" height="1.5"/>
	</g>
	<g>
		<path fill="#79C693" d="M24.6,20.1L24.6,20.1c-2.6,0-5.3-0.8-7.8-1.6c-2.5-0.8-5-1.5-7.4-1.5c-1.9,0-3.6,0.5-5.2,1.4l-1.1,0.7V2.6
			l0.4-0.2c1.8-1.1,3.8-1.6,5.9-1.6c2.6,0,5.3,0.8,7.8,1.6c2.5,0.8,5,1.5,7.4,1.5c1.9,0,3.6-0.5,5.2-1.4l1.1-0.7v16.5l-0.4,0.2
			C28.7,19.5,26.7,20.1,24.6,20.1z M9.4,15.5c2.6,0,5.3,0.8,7.8,1.6c2.5,0.8,4.9,1.5,7.4,1.5h0c1.8,0,3.3-0.4,4.8-1.2V4.3
			c-1.5,0.7-3.1,1-4.8,1c-2.6,0-5.3-0.8-7.8-1.6C14.2,3,11.8,2.3,9.4,2.3c-1.8,0-3.3,0.4-4.8,1.2v13.1C6.1,15.9,7.7,15.5,9.4,15.5z"
			/>
	</g>
</g>
</svg>
