<?xml version="1.0" encoding="utf-8"?>
<!-- Generator: Adobe Illustrator 18.0.0, SVG Export Plug-In . SVG Version: 6.00 Build 0)  -->
<!DOCTYPE svg PUBLIC "-//W3C//DTD SVG 1.1//EN" "http://www.w3.org/Graphics/SVG/1.1/DTD/svg11.dtd">
<svg version="1.1" id="Layer_1" xmlns="http://www.w3.org/2000/svg" xmlns:xlink="http://www.w3.org/1999/xlink" x="0px" y="0px"
	 viewBox="0 0 32 32" enable-background="new 0 0 32 32" xml:space="preserve">
<g>
	<g>
		<path fill="#DA8C8C" d="M24.1,23.2L24.1,23.2c-1.6,0-3.1-0.5-4.4-1.5c-1-0.8-2.4-1.3-3.7-1.3c-1.4,0-2.7,0.4-3.7,1.2
			c-1.3,1-2.8,1.5-4.4,1.5c-3.9,0-7.1-3.2-7.2-7c0-1.9,0.7-3.7,2.1-5.1c1.4-1.4,3.3-2.2,5.3-2.2h16c2,0,3.8,0.8,5.2,2.2
			c1.4,1.4,2.1,3.3,2,5.3c-0.2,3.5-3,6.4-6.5,6.7C24.5,23.2,24.3,23.2,24.1,23.2z M16,18.9c1.7,0,3.3,0.6,4.6,1.6
			c1,0.8,2.2,1.2,3.4,1.2h0c0.2,0,0.3,0,0.5,0c2.8-0.2,5-2.5,5.2-5.3c0.1-1.6-0.5-3.1-1.5-4.2c-1.1-1.1-2.5-1.8-4.1-1.8h-16
			c-1.6,0-3.1,0.6-4.2,1.8c-1.1,1.1-1.6,2.5-1.6,4c0.1,3.1,2.6,5.6,5.7,5.6c1.3,0,2.5-0.4,3.5-1.2C12.7,19.5,14.3,18.9,16,18.9z"/>
	</g>
	<g>
		<line fill="#FAC2C3" x1="24.8" y1="13" x2="23.6" y2="14.1"/>
		
			<rect x="23.5" y="12.7" transform="matrix(0.7071 0.7071 -0.7071 0.7071 16.6692 -13.1451)" fill="#DA8C8C" width="1.5" height="1.6"/>
	</g>
	<g>
		<line fill="#FAC2C3" x1="27.2" y1="15.4" x2="26.1" y2="16.6"/>
		
			<rect x="25.9" y="15.2" transform="matrix(0.7071 0.7071 -0.7071 0.7071 19.1202 -14.1604)" fill="#DA8C8C" width="1.5" height="1.6"/>
	</g>
	<g>
		<line fill="#FAC2C3" x1="22.3" y1="15.4" x2="21.2" y2="16.6"/>
		
			<rect x="21" y="15.2" transform="matrix(0.7071 0.7071 -0.7071 0.7071 17.6836 -10.6922)" fill="#DA8C8C" width="1.5" height="1.6"/>
	</g>
	<g>
		<line fill="#FAC2C3" x1="24.8" y1="17.9" x2="23.6" y2="19"/>
		
			<rect x="23.5" y="17.6" transform="matrix(0.7071 0.7071 -0.7071 0.7071 20.1375 -11.7084)" fill="#DA8C8C" width="1.5" height="1.6"/>
	</g>
	<g>
		<line fill="#FAC2C3" x1="7.3" y1="13.3" x2="7.3" y2="18.7"/>
		<rect x="6.5" y="13.3" fill="#DA8C8C" width="1.5" height="5.5"/>
	</g>
	<g>
		<line fill="#FAC2C3" x1="10" y1="16" x2="4.6" y2="16"/>
		<rect x="4.6" y="15.3" fill="#DA8C8C" width="5.5" height="1.5"/>
	</g>
	<g>
		<line fill="#FAC2C3" x1="15.2" y1="12.5" x2="16.8" y2="12.5"/>
		<rect x="15.2" y="11.8" fill="#DA8C8C" width="1.6" height="1.5"/>
	</g>
	<g>
		<line fill="#FAC2C3" x1="15.2" y1="15.7" x2="16.8" y2="15.7"/>
		<rect x="15.2" y="15" fill="#DA8C8C" width="1.6" height="1.5"/>
	</g>
</g>
<g>
	<g>
		<g>
			<defs>
				<path id="SVGID_15_" d="M70.4,1.5H50.4c-1.1,0-2.1,0.9-2.1,2.1v2.8h17.3c1.1,0,2.1,0.9,2.1,2.1v17.3h2.8c1.1,0,2.1-0.9,2.1-2.1
					V3.6C72.5,2.4,71.6,1.5,70.4,1.5z"/>
			</defs>
			<clipPath id="SVGID_2_">
				<use xlink:href="#SVGID_15_"  overflow="visible"/>
			</clipPath>
			<g clip-path="url(#SVGID_2_)">
				<rect x="24.4" y="-2.1" fill="none" width="24.1" height="24.1"/>
				<rect x="24.4" y="-2.1" fill="#FEE99B" width="24.1" height="24.1"/>
			</g>
			<g clip-path="url(#SVGID_2_)">
				<rect x="24.4" y="22" fill="none" width="24.1" height="24.1"/>
				<rect x="24.4" y="22" fill="#FEE99B" width="24.1" height="24.1"/>
			</g>
		</g>
	</g>
</g>
</svg>
