<?xml version="1.0" encoding="utf-8"?>
<!-- Generator: Adobe Illustrator 18.0.0, SVG Export Plug-In . SVG Version: 6.00 Build 0)  -->
<!DOCTYPE svg PUBLIC "-//W3C//DTD SVG 1.1//EN" "http://www.w3.org/Graphics/SVG/1.1/DTD/svg11.dtd">
<svg version="1.1" id="Layer_1" xmlns="http://www.w3.org/2000/svg" xmlns:xlink="http://www.w3.org/1999/xlink" x="0px" y="0px"
	 viewBox="0 0 32 32" enable-background="new 0 0 32 32" xml:space="preserve">
<pattern  y="32" width="24.1" height="24.1" patternUnits="userSpaceOnUse" id="SVGID_4_" viewBox="0 -24.1 24.1 24.1" overflow="visible">
	<g>
		<polygon fill="none" points="0,0 24.1,0 24.1,-24.1 0,-24.1 		"/>
		<g>
			<polygon fill="none" points="0,-24.1 24.1,-24.1 24.1,0 0,0 			"/>
			<polygon fill="#E0CB81" points="24.1,-24.1 0,-24.1 0,0 24.1,0 			"/>
		</g>
	</g>
</pattern>
<g>
	<g>
		<g>
			<g>
				<defs>
					<path id="SVGID_1_" d="M28.4,1.5h-20c-1.1,0-2.1,0.9-2.1,2.1v2.8h17.3c1.1,0,2.1,0.9,2.1,2.1v17.3h2.8c1.1,0,2.1-0.9,2.1-2.1
						V3.6C30.5,2.4,29.6,1.5,28.4,1.5z"/>
				</defs>
				<clipPath id="SVGID_2_">
					<use xlink:href="#SVGID_1_"  overflow="visible"/>
				</clipPath>
				<g clip-path="url(#SVGID_2_)">
					<rect x="6.6" y="-2.1" fill="none" width="24.1" height="24.1"/>
					<rect x="6.6" y="-2.1" fill="#FEE99B" width="24.1" height="24.1"/>
				</g>
			</g>
			<g>
				<defs>
					<path id="SVGID_3_" d="M28.4,1.5h-20c-1.1,0-2.1,0.9-2.1,2.1v2.8h17.3c1.1,0,2.1,0.9,2.1,2.1v17.3h2.8c1.1,0,2.1-0.9,2.1-2.1
						V3.6C30.5,2.4,29.6,1.5,28.4,1.5z"/>
				</defs>
				<clipPath id="SVGID_5_">
					<use xlink:href="#SVGID_3_"  overflow="visible"/>
				</clipPath>
				<g clip-path="url(#SVGID_5_)">
					<rect x="6.6" y="22" fill="none" width="24.1" height="24.1"/>
					<rect x="6.6" y="22" fill="#FEE99B" width="24.1" height="24.1"/>
				</g>
			</g>
			<g>
				<defs>
					<path id="SVGID_6_" d="M28.4,1.5h-20c-1.1,0-2.1,0.9-2.1,2.1v2.8h17.3c1.1,0,2.1,0.9,2.1,2.1v17.3h2.8c1.1,0,2.1-0.9,2.1-2.1
						V3.6C30.5,2.4,29.6,1.5,28.4,1.5z"/>
				</defs>
				<clipPath id="SVGID_7_">
					<use xlink:href="#SVGID_6_"  overflow="visible"/>
				</clipPath>
				<g clip-path="url(#SVGID_7_)">
					<rect x="-17.6" y="-2.1" fill="none" width="24.1" height="24.1"/>
					<rect x="-17.6" y="-2.1" fill="#FEE99B" width="24.1" height="24.1"/>
				</g>
			</g>
			<g>
				<defs>
					<path id="SVGID_8_" d="M28.4,1.5h-20c-1.1,0-2.1,0.9-2.1,2.1v2.8h17.3c1.1,0,2.1,0.9,2.1,2.1v17.3h2.8c1.1,0,2.1-0.9,2.1-2.1
						V3.6C30.5,2.4,29.6,1.5,28.4,1.5z"/>
				</defs>
				<clipPath id="SVGID_9_">
					<use xlink:href="#SVGID_8_"  overflow="visible"/>
				</clipPath>
				<g clip-path="url(#SVGID_9_)">
					<rect x="-17.6" y="22" fill="none" width="24.1" height="24.1"/>
					<rect x="-17.6" y="22" fill="#FEE99B" width="24.1" height="24.1"/>
				</g>
			</g>
		</g>
		<pattern  id="SVGID_10_" xlink:href="#SVGID_4_" patternTransform="matrix(1 0 0 -1 -85.5684 -16383.2754)">
		</pattern>
		<path fill="url(#SVGID_10_)" d="M28.4,26.4h-3.5v-18c0-0.7-0.6-1.3-1.3-1.3h-18V3.6c0-1.5,1.3-2.8,2.8-2.8h20.1
			c1.5,0,2.8,1.3,2.8,2.8v20.1C31.3,25.2,30,26.4,28.4,26.4z M26.4,24.9h2c0.7,0,1.3-0.6,1.3-1.3v-20c0-0.7-0.6-1.3-1.3-1.3h-20
			c-0.7,0-1.3,0.6-1.3,1.3v2h16.6c1.5,0,2.8,1.3,2.8,2.8v16.5H26.4z"/>
	</g>
	<g>
		<path fill="#B4A79C" d="M26.4,25.8H0.8V8.4c0-1.5,1.3-2.8,2.8-2.8h20.1c1.5,0,2.8,1.3,2.8,2.8v17.4H26.4z M2.3,24.3H25v-16
			C25,7.6,24.4,7,23.7,7H3.6C2.9,7,2.3,7.6,2.3,8.3V24.3z"/>
	</g>
	<g>
		<polygon fill="#FAC2C3" points="17.3,18.7 13.9,22.1 16.3,25.1 23.8,25.1 		"/>
		<path fill="#DA8C8C" d="M23.8,25.8h-7.5c-0.2,0-0.4-0.1-0.6-0.3l-2.4-3c-0.2-0.3-0.2-0.7,0.1-1l3.5-3.5c0.3-0.3,0.8-0.3,1.1,0
			l6.4,6.4c0.2,0.2,0.3,0.5,0.2,0.8C24.3,25.7,24.1,25.8,23.8,25.8z M16.6,24.3H22l-4.6-4.6L15,22.1L16.6,24.3z"/>
	</g>
	<g>
		<polygon fill="#FAC2C3" points="13.9,22.1 9.9,17.1 3.4,25.1 10.9,25.1 16.3,25.1 		"/>
		<path fill="#DA8C8C" d="M16.3,25.8H3.4c-0.3,0-0.6-0.2-0.7-0.4c-0.1-0.3-0.1-0.6,0.1-0.8l6.4-8c0.3-0.4,0.9-0.4,1.2,0l6.4,8
			c0.2,0.2,0.2,0.5,0.1,0.8C16.8,25.7,16.6,25.8,16.3,25.8z M5,24.3h9.7l-4.9-6L5,24.3z"/>
	</g>
	<g>
		<circle fill="#F2E8B9" cx="13.9" cy="13" r="2.7"/>
		<path fill="#B4A042" d="M13.9,16.4c-1.9,0-3.4-1.5-3.4-3.4s1.5-3.4,3.4-3.4s3.4,1.5,3.4,3.4S15.8,16.4,13.9,16.4z M13.9,11.1
			C12.8,11.1,12,12,12,13c0,1.1,0.9,1.9,1.9,1.9s1.9-0.9,1.9-1.9C15.8,11.9,15,11.1,13.9,11.1z"/>
	</g>
	<g>
		<path fill="#B4A79C" d="M23.6,31.3h-20c-1.5,0-2.8-1.3-2.8-2.8v-4.1h25.7v4.1C26.4,30,25.2,31.3,23.6,31.3z M2.3,25.8v2.6
			c0,0.7,0.6,1.3,1.3,1.3h20.1c0.7,0,1.3-0.6,1.3-1.3v-2.6H2.3z"/>
	</g>
</g>
</svg>
