<?xml version="1.0" encoding="utf-8"?>
<!-- Generator: Adobe Illustrator 18.0.0, SVG Export Plug-In . SVG Version: 6.00 Build 0)  -->
<!DOCTYPE svg PUBLIC "-//W3C//DTD SVG 1.1//EN" "http://www.w3.org/Graphics/SVG/1.1/DTD/svg11.dtd">
<svg version="1.1" id="Layer_1" xmlns="http://www.w3.org/2000/svg" xmlns:xlink="http://www.w3.org/1999/xlink" x="0px" y="0px"
	 viewBox="0 0 32 32" enable-background="new 0 0 32 32" xml:space="preserve">
<g>
	<g>
		<path fill="#8F9BA8" d="M16,31.3c-3.5,0-7.1-1.2-7.1-3.4c0-1.5,1.8-2.7,4.7-3.2l0.4-0.1l0.3,0.3c0.7,0.9,1.4,1.7,1.8,2.2
			c0.4-0.5,1-1.2,1.8-2.2l0.3-0.3l0.4,0.1c2.9,0.5,4.7,1.7,4.7,3.2C23.1,30.1,19.5,31.3,16,31.3z M13.3,26.3c-2,0.4-3,1.2-3,1.6
			c0,0.7,2.2,1.9,5.6,1.9s5.6-1.1,5.6-1.9c0-0.4-0.9-1.2-3-1.6c-1.2,1.5-2.1,2.5-2.1,2.5L16,29.4l-0.6-0.6
			C15.4,28.8,14.5,27.8,13.3,26.3z"/>
	</g>
	<g>
		<path fill="#CDE4F7" d="M16,1.5c-5.5,0-10,4.5-10,10c0,3.8,4.7,10.3,7.6,14c1.4,1.7,2.4,2.8,2.4,2.8s1-1.1,2.4-2.8
			c3-3.7,7.6-10.2,7.6-14C26,6,21.5,1.5,16,1.5z"/>
		<path fill="#74B1E0" d="M16,29.4l-0.6-0.6c0,0-1-1.2-2.4-2.9c-3.6-4.5-7.8-10.6-7.8-14.4C5.2,5.6,10.1,0.8,16,0.8
			c5.9,0,10.8,4.8,10.8,10.8c0,3.8-4.2,10-7.8,14.4c-1.4,1.7-2.3,2.8-2.4,2.9L16,29.4z M16,2.3c-5.1,0-9.3,4.1-9.3,9.3
			c0,2.6,2.7,7.5,7.5,13.5c0.7,0.9,1.4,1.7,1.8,2.2c0.4-0.5,1-1.2,1.8-2.2c4.8-6,7.5-10.9,7.5-13.5C25.3,6.4,21.1,2.3,16,2.3z"/>
	</g>
	<g>
		<circle fill="#FFFFFF" cx="16" cy="10.6" r="4.1"/>
		<path fill="#74B1E0" d="M16,15.5c-2.7,0-4.9-2.2-4.9-4.9s2.2-4.9,4.9-4.9s4.9,2.2,4.9,4.9S18.7,15.5,16,15.5z M16,7.3
			c-1.9,0-3.4,1.5-3.4,3.4c0,1.9,1.5,3.4,3.4,3.4s3.4-1.5,3.4-3.4C19.4,8.8,17.9,7.3,16,7.3z"/>
	</g>
</g>
</svg>
