<?xml version="1.0" encoding="utf-8"?>
<!-- Generator: Adobe Illustrator 18.0.0, SVG Export Plug-In . SVG Version: 6.00 Build 0)  -->
<!DOCTYPE svg PUBLIC "-//W3C//DTD SVG 1.1//EN" "http://www.w3.org/Graphics/SVG/1.1/DTD/svg11.dtd">
<svg version="1.1" id="Layer_1" xmlns="http://www.w3.org/2000/svg" xmlns:xlink="http://www.w3.org/1999/xlink" x="0px" y="0px"
	 viewBox="0 0 32 32" enable-background="new 0 0 32 32" xml:space="preserve">
<g>
	<g>
		<rect x="1.5" y="17.6" fill="#FFFFFF" width="4.2" height="12.9"/>
		<path fill="#8F9BA8" d="M6.4,31.3H0.8V16.9h5.7V31.3z M2.3,29.8h2.7V18.4H2.3V29.8z"/>
	</g>
	<g>
		<rect x="9.8" y="13.6" fill="#F0F7F7" width="4.2" height="16.9"/>
		<path fill="#8F9BA8" d="M14.7,31.3H9V12.9h5.7V31.3z M10.5,29.8h2.7V14.4h-2.7V29.8z"/>
	</g>
	<g>
		<rect x="18" y="8.4" fill="#FFFFFF" width="4.2" height="22.1"/>
		<path fill="#8F9BA8" d="M23,31.3h-5.7V7.6H23V31.3z M18.8,29.8h2.7V9.1h-2.7V29.8z"/>
	</g>
	<g>
		<rect x="26.3" y="1.5" fill="#F0F7F7" width="4.2" height="29"/>
		<path fill="#8F9BA8" d="M31.3,31.3h-5.7V0.8h5.7V31.3z M27.1,29.8h2.7V2.3h-2.7V29.8z"/>
	</g>
</g>
</svg>
