<?xml version="1.0" encoding="utf-8"?>
<!-- Generator: Adobe Illustrator 18.0.0, SVG Export Plug-In . SVG Version: 6.00 Build 0)  -->
<!DOCTYPE svg PUBLIC "-//W3C//DTD SVG 1.1//EN" "http://www.w3.org/Graphics/SVG/1.1/DTD/svg11.dtd">
<svg version="1.1" id="Layer_1" xmlns="http://www.w3.org/2000/svg" xmlns:xlink="http://www.w3.org/1999/xlink" x="0px" y="0px"
	 viewBox="0 0 32 32" enable-background="new 0 0 32 32" xml:space="preserve">
<g>
	<g>
		<path fill="#DA8C8C" d="M18.4,31.3h-3.7v-2.6c-3.1-0.4-5.9-1.8-8.3-3.9l-0.6-0.5L9.2,20l0.6,0.5c1.6,1.4,3.2,2.3,4.8,2.7v-5.3
			c-2.5-0.6-4.3-1.5-5.5-2.5C7.7,14.3,7,12.5,7,10.3c0-2.2,0.8-4.1,2.4-5.5c1.4-1.3,3.2-2,5.3-2.2V0.8h3.7v1.9
			c2.4,0.3,4.8,1.2,6.9,2.7l0.6,0.4l-3.1,4.5l-0.6-0.4C21,8.9,19.7,8.3,18.4,8v5.1c2.6,0.6,4.5,1.5,5.8,2.6c1.4,1.2,2.2,3,2.2,5.2
			c0,2.3-0.8,4.1-2.4,5.5c-1.4,1.3-3.3,2-5.5,2.2V31.3z M16.1,29.8h0.7v-2.5l0.7,0c2.2-0.1,4-0.8,5.3-1.9c1.3-1.1,1.9-2.6,1.9-4.4
			c0-1.8-0.5-3.2-1.6-4.1c-1.1-1-3-1.8-5.5-2.4h-0.8V6.2l0.9,0.1c1.7,0.2,3.2,0.8,4.7,1.7l1.4-2c-2-1.2-4.1-1.9-6.3-2.1L16.9,4V2.3
			h-0.7V4l-0.7,0c-2.1,0.1-3.8,0.7-5,1.9C9.1,7,8.5,8.5,8.5,10.3c0,1.8,0.5,3.1,1.6,4c1.1,0.9,3,1.7,5.5,2.3l0.6,0.1V25l-0.9-0.1
			c-2-0.3-4-1.2-5.8-2.7L7.8,24c2.3,1.8,4.8,2.9,7.6,3.2l0.7,0.1V29.8z M16.9,25.1v-8.1l1,0.3c1.5,0.5,2.6,1,3.2,1.5
			c0.7,0.6,1,1.5,1,2.5c0,1-0.4,1.9-1.3,2.6c-0.8,0.6-1.8,1-3.1,1.1L16.9,25.1z M18.4,19v4.4c0.6-0.1,1.1-0.4,1.4-0.7
			c0.5-0.4,0.7-0.9,0.7-1.4c0-0.6-0.2-1.1-0.5-1.4C19.7,19.6,19.3,19.3,18.4,19z M16.1,14.1l-1-0.3c-1.4-0.5-2.4-0.9-3-1.5
			c-0.6-0.6-0.9-1.4-0.9-2.4c0-1,0.4-1.8,1.1-2.5c0.7-0.6,1.7-1,2.9-1.1l0.8-0.1V14.1z M14.6,7.9c-0.5,0.1-0.9,0.3-1.2,0.6
			c-0.4,0.4-0.6,0.8-0.6,1.4c0,0.6,0.2,1,0.5,1.3c0.2,0.2,0.6,0.5,1.4,0.8V7.9z"/>
	</g>
</g>
</svg>
