<?xml version="1.0" encoding="utf-8"?>
<!-- Generator: Adobe Illustrator 18.0.0, SVG Export Plug-In . SVG Version: 6.00 Build 0)  -->
<!DOCTYPE svg PUBLIC "-//W3C//DTD SVG 1.1//EN" "http://www.w3.org/Graphics/SVG/1.1/DTD/svg11.dtd">
<svg version="1.1" id="Layer_1" xmlns="http://www.w3.org/2000/svg" xmlns:xlink="http://www.w3.org/1999/xlink" x="0px" y="0px"
	 viewBox="0 0 32 32" enable-background="new 0 0 32 32" xml:space="preserve">
<g>
	<g>
		<path fill="#8F9BA8" d="M16,26.4c-4.8,0-8.7-3.9-8.7-8.7v-7.6h1.5v7.6c0,4,3.2,7.2,7.2,7.2c4,0,7.2-3.2,7.2-7.2v-7.6h1.5v7.6
			C24.7,22.5,20.8,26.4,16,26.4z"/>
	</g>
	<g>
		<rect x="15.2" y="25.6" fill="#8F9BA8" width="1.5" height="4.9"/>
	</g>
	<g>
		<rect x="11.5" y="29.8" fill="#8F9BA8" width="9" height="1.5"/>
	</g>
	<g>
		<path fill="#B4A79C" d="M21.6,14H10.4V6.4c0-3.1,2.5-5.6,5.6-5.6c3.1,0,5.6,2.5,5.6,5.6V14z M11.9,12.5h8.3V6.4
			c0-2.3-1.9-4.1-4.1-4.1c-2.3,0-4.1,1.9-4.1,4.1V12.5z"/>
	</g>
	<g>
		<path fill="#F9F8F2" d="M11.1,13.3v4.4c0,2.7,2.2,4.9,4.9,4.9c2.7,0,4.9-2.2,4.9-4.9v-4.4H11.1z"/>
		<path fill="#B4A79C" d="M16,23.3c-3.1,0-5.6-2.5-5.6-5.6v-5.1h11.3v5.1C21.6,20.8,19.1,23.3,16,23.3z M11.9,14v3.6
			c0,2.3,1.9,4.1,4.1,4.1c2.3,0,4.1-1.9,4.1-4.1V14H11.9z"/>
	</g>
	<g>
		<rect x="13.5" y="1.9" fill="#B4A79C" width="1.5" height="4"/>
	</g>
	<g>
		<rect x="17" y="1.9" fill="#B4A79C" width="1.5" height="4"/>
	</g>
</g>
</svg>
