<?xml version="1.0" encoding="utf-8"?>
<!-- Generator: Adobe Illustrator 18.0.0, SVG Export Plug-In . SVG Version: 6.00 Build 0)  -->
<!DOCTYPE svg PUBLIC "-//W3C//DTD SVG 1.1//EN" "http://www.w3.org/Graphics/SVG/1.1/DTD/svg11.dtd">
<svg version="1.1" id="Layer_1" xmlns="http://www.w3.org/2000/svg" xmlns:xlink="http://www.w3.org/1999/xlink" x="0px" y="0px"
	 viewBox="0 0 32 32" enable-background="new 0 0 32 32" xml:space="preserve">
<g>
	<g>
		<path fill="#8F9BA8" d="M19.9,23.1c-2.9,0-5.7-1.1-7.7-3.2c-2.1-2.1-3.2-4.8-3.2-7.7c0-2.9,1.1-5.7,3.2-7.7
			c2.1-2.1,4.8-3.2,7.7-3.2c2.9,0,5.7,1.1,7.7,3.2c4.3,4.3,4.3,11.2,0,15.5C25.6,21.9,22.8,23.1,19.9,23.1z M19.9,2.6
			c-2.5,0-4.9,1-6.7,2.8c-1.8,1.8-2.8,4.2-2.8,6.7c0,2.5,1,4.9,2.8,6.7c1.8,1.8,4.2,2.8,6.7,2.8c2.5,0,4.9-1,6.7-2.8
			c3.7-3.7,3.7-9.7,0-13.4C24.8,3.6,22.4,2.6,19.9,2.6z"/>
	</g>
	<g>
		
			<rect x="11" y="18.9" transform="matrix(0.7071 0.7071 -0.7071 0.7071 17.7648 -2.3721)" fill="#8F9BA8" width="1.5" height="2.7"/>
	</g>
	<g>
		<path fill="#DA8C8C" d="M3.8,30.9c-0.7,0-1.4-0.3-1.9-0.8c-1-1-1-2.7,0-3.8l5.7-5.7c1-1,2.7-1,3.8,0c1,1,1,2.7,0,3.8l-5.7,5.7
			C5.2,30.6,4.5,30.9,3.8,30.9z M9.5,21.4c-0.3,0-0.6,0.1-0.8,0.3L3,27.4c-0.4,0.4-0.4,1.2,0,1.6c0.4,0.4,1.2,0.4,1.6,0l5.7-5.7
			c0.4-0.4,0.4-1.2,0-1.6C10.1,21.5,9.8,21.4,9.5,21.4z"/>
	</g>
</g>
</svg>
