<?xml version="1.0" encoding="utf-8"?>
<!-- Generator: Adobe Illustrator 18.0.0, SVG Export Plug-In . SVG Version: 6.00 Build 0)  -->
<!DOCTYPE svg PUBLIC "-//W3C//DTD SVG 1.1//EN" "http://www.w3.org/Graphics/SVG/1.1/DTD/svg11.dtd">
<svg version="1.1" id="Layer_1" xmlns="http://www.w3.org/2000/svg" xmlns:xlink="http://www.w3.org/1999/xlink" x="0px" y="0px"
	 viewBox="0 0 32 32" enable-background="new 0 0 32 32" xml:space="preserve">
<g>
	<g>
		<rect x="1.5" y="1.5" fill="#CDE4F7" width="6.5" height="29"/>
		<path fill="#74B1E0" d="M8.8,31.3h-8V0.8h8V31.3z M2.3,29.8h5V2.3h-5V29.8z"/>
	</g>
	<g>
		<rect x="24" y="1.5" fill="#CDE4F7" width="6.5" height="29"/>
		<path fill="#74B1E0" d="M31.3,31.3h-8V0.8h8V31.3z M24.7,29.8h5V2.3h-5V29.8z"/>
	</g>
	<g>
		<rect x="8" y="1.5" fill="#FFFFFF" width="16" height="29"/>
		<path fill="#74B1E0" d="M24.7,31.3H7.3V0.8h17.5V31.3z M8.8,29.8h14.5V2.3H8.8V29.8z"/>
	</g>
	<g>
		<line fill="#CDE4F7" x1="26.4" y1="5.3" x2="28.1" y2="5.3"/>
		<rect x="26.4" y="4.5" fill="#74B1E0" width="1.7" height="1.5"/>
	</g>
	<g>
		<line fill="#CDE4F7" x1="26.4" y1="9.6" x2="28.1" y2="9.6"/>
		<rect x="26.4" y="8.8" fill="#74B1E0" width="1.7" height="1.5"/>
	</g>
	<g>
		<line fill="#CDE4F7" x1="26.4" y1="13.9" x2="28.1" y2="13.9"/>
		<rect x="26.4" y="13.1" fill="#74B1E0" width="1.7" height="1.5"/>
	</g>
	<g>
		<line fill="#CDE4F7" x1="26.4" y1="18.1" x2="28.1" y2="18.1"/>
		<rect x="26.4" y="17.4" fill="#74B1E0" width="1.7" height="1.5"/>
	</g>
	<g>
		<line fill="#CDE4F7" x1="26.4" y1="22.4" x2="28.1" y2="22.4"/>
		<rect x="26.4" y="21.7" fill="#74B1E0" width="1.7" height="1.5"/>
	</g>
	<g>
		<line fill="#CDE4F7" x1="26.4" y1="26.7" x2="28.1" y2="26.7"/>
		<rect x="26.4" y="26" fill="#74B1E0" width="1.7" height="1.5"/>
	</g>
	<g>
		<line fill="#CDE4F7" x1="3.9" y1="5.3" x2="5.6" y2="5.3"/>
		<rect x="3.9" y="4.5" fill="#74B1E0" width="1.7" height="1.5"/>
	</g>
	<g>
		<line fill="#CDE4F7" x1="3.9" y1="9.6" x2="5.6" y2="9.6"/>
		<rect x="3.9" y="8.8" fill="#74B1E0" width="1.7" height="1.5"/>
	</g>
	<g>
		<line fill="#CDE4F7" x1="3.9" y1="13.9" x2="5.6" y2="13.9"/>
		<rect x="3.9" y="13.1" fill="#74B1E0" width="1.7" height="1.5"/>
	</g>
	<g>
		<line fill="#CDE4F7" x1="3.9" y1="18.1" x2="5.6" y2="18.1"/>
		<rect x="3.9" y="17.4" fill="#74B1E0" width="1.7" height="1.5"/>
	</g>
	<g>
		<line fill="#CDE4F7" x1="3.9" y1="22.4" x2="5.6" y2="22.4"/>
		<rect x="3.9" y="21.7" fill="#74B1E0" width="1.7" height="1.5"/>
	</g>
	<g>
		<line fill="#CDE4F7" x1="3.9" y1="26.7" x2="5.6" y2="26.7"/>
		<rect x="3.9" y="26" fill="#74B1E0" width="1.7" height="1.5"/>
	</g>
	<g>
		<line fill="#CDE4F7" x1="8" y1="16" x2="24" y2="16"/>
		<rect x="8" y="15.3" fill="#74B1E0" width="16" height="1.5"/>
	</g>
</g>
</svg>
