<?xml version="1.0" encoding="utf-8"?>
<!-- Generator: Adobe Illustrator 18.0.0, SVG Export Plug-In . SVG Version: 6.00 Build 0)  -->
<!DOCTYPE svg PUBLIC "-//W3C//DTD SVG 1.1//EN" "http://www.w3.org/Graphics/SVG/1.1/DTD/svg11.dtd">
<svg version="1.1" id="Layer_1" xmlns="http://www.w3.org/2000/svg" xmlns:xlink="http://www.w3.org/1999/xlink" x="0px" y="0px"
	 viewBox="0 0 32 32" enable-background="new 0 0 32 32" xml:space="preserve">
<g>
	<g>
		<path fill="#8F9BA8" d="M28.2,30.2H3.8c-1.7,0-3.1-1.4-3.1-3.1V14c0-1.7,1.4-3.1,3.1-3.1h24.3c1.7,0,3.1,1.4,3.1,3.1v13.1
			C31.3,28.8,29.9,30.2,28.2,30.2z M3.8,12.4c-0.9,0-1.6,0.7-1.6,1.6v13.1c0,0.9,0.7,1.6,1.6,1.6h24.3c0.9,0,1.6-0.7,1.6-1.6V14
			c0-0.9-0.7-1.6-1.6-1.6H3.8z"/>
	</g>
	<g>
		<rect x="23" y="8.8" fill="#8F9BA8" width="1.5" height="2.9"/>
	</g>
	<g>
		<rect x="6.8" y="8.8" fill="#8F9BA8" width="1.5" height="2.9"/>
	</g>
	<g>
		<rect x="23" y="1.8" fill="#DA8C8C" width="1.5" height="4.9"/>
	</g>
	<g>
		<rect x="21.3" y="3.5" fill="#DA8C8C" width="4.9" height="1.5"/>
	</g>
	<g>
		<rect x="5.1" y="3.5" fill="#DA8C8C" width="4.9" height="1.5"/>
	</g>
	<g>
		<path fill="#8F9BA8" d="M16.4,25.7l-1.3-0.8l2.3-3.6h-4.3c-0.3,0-0.5-0.1-0.7-0.4c-0.1-0.2-0.1-0.5,0-0.8l3-4.7l1.3,0.8l-2.3,3.5
			h4.3c0.3,0,0.5,0.2,0.7,0.4c0.1,0.2,0.1,0.5,0,0.8L16.4,25.7z"/>
	</g>
</g>
</svg>
