<?xml version="1.0" encoding="utf-8"?>
<!-- Generator: Adobe Illustrator 18.0.0, SVG Export Plug-In . SVG Version: 6.00 Build 0)  -->
<!DOCTYPE svg PUBLIC "-//W3C//DTD SVG 1.1//EN" "http://www.w3.org/Graphics/SVG/1.1/DTD/svg11.dtd">
<svg version="1.1" id="Layer_1" xmlns="http://www.w3.org/2000/svg" xmlns:xlink="http://www.w3.org/1999/xlink" x="0px" y="0px"
	 viewBox="0 0 32 32" enable-background="new 0 0 32 32" xml:space="preserve">
<g>
	<g>
		<polygon fill="#CDE4F7" points="19.6,19.5 9.9,18.3 9.9,14.6 1.9,21.2 9.9,27.9 9.9,24.2 19.6,22.9 		"/>
		<path fill="#74B1E0" d="M10.7,29.4l-9.9-8.2l9.9-8.2v4.6l9.6,1.3v4.7l-9.6,1.3V29.4z M3,21.2l6.2,5.1v-2.8l9.6-1.3v-2.1l-9.6-1.3
			v-2.8L3,21.2z"/>
	</g>
	<g>
		<path fill="#79C693" d="M21.3,19v-4.6l-9.6-1.3V8.5l9.6-1.3V2.6l9.9,8.2L21.3,19z M13.2,11.8l9.6,1.3v2.8l6.2-5.1l-6.2-5.1v2.8
			l-9.6,1.3V11.8z"/>
	</g>
</g>
<g>
	<g>
		<g>
			<defs>
				<path id="SVGID_15_" d="M70.4-40.5H50.4c-1.1,0-2.1,0.9-2.1,2.1v2.8h17.3c1.1,0,2.1,0.9,2.1,2.1v17.3h2.8c1.1,0,2.1-0.9,2.1-2.1
					v-20.1C72.5-39.6,71.6-40.5,70.4-40.5z"/>
			</defs>
			<clipPath id="SVGID_2_">
				<use xlink:href="#SVGID_15_"  overflow="visible"/>
			</clipPath>
			<g clip-path="url(#SVGID_2_)">
				<rect x="24.4" y="-20" fill="none" width="24.1" height="24.1"/>
				<rect x="24.4" y="-20" fill="#FEE99B" width="24.1" height="24.1"/>
			</g>
		</g>
	</g>
</g>
</svg>
