<?xml version="1.0" encoding="utf-8"?>
<!-- Generator: Adobe Illustrator 18.0.0, SVG Export Plug-In . SVG Version: 6.00 Build 0)  -->
<!DOCTYPE svg PUBLIC "-//W3C//DTD SVG 1.1//EN" "http://www.w3.org/Graphics/SVG/1.1/DTD/svg11.dtd">
<svg version="1.1" id="Layer_1" xmlns="http://www.w3.org/2000/svg" xmlns:xlink="http://www.w3.org/1999/xlink" x="0px" y="0px"
	 viewBox="0 0 32 32" enable-background="new 0 0 32 32" xml:space="preserve">
<g>
	<g>
		<path fill="#B4A79C" d="M21.1,31.3H10.9c-2,0-3.6-1.6-3.6-3.6V6.1c0-3,2.4-5.4,5.4-5.4h6.6c3,0,5.4,2.4,5.4,5.4v21.5
			C24.7,29.7,23.1,31.3,21.1,31.3z M12.7,2.3c-2.2,0-3.9,1.7-3.9,3.9v21.5c0,1.1,0.9,2.1,2.1,2.1h10.3c1.1,0,2.1-0.9,2.1-2.1V6.1
			c0-2.2-1.7-3.9-3.9-3.9H12.7z"/>
	</g>
	<g>
		<path fill="#FAC2C3" d="M21.3,13.9V9.6c-1.6-0.6-3.4-1-5.3-1c-1.9,0-3.7,0.4-5.3,1v4.3c1.5-0.9,3.4-1.4,5.3-1.4
			C18,12.5,19.8,13,21.3,13.9z"/>
		<path fill="#DA8C8C" d="M10.7,14.7c-0.1,0-0.3,0-0.4-0.1c-0.2-0.1-0.4-0.4-0.4-0.6V9.6c0-0.3,0.2-0.6,0.5-0.7
			c3.5-1.4,7.6-1.4,11.2,0c0.3,0.1,0.5,0.4,0.5,0.7v4.3c0,0.3-0.1,0.5-0.4,0.6c-0.2,0.1-0.5,0.1-0.8,0c-3-1.7-6.9-1.7-9.9,0
			C10.9,14.6,10.8,14.7,10.7,14.7z M16,11.8c1.6,0,3.1,0.3,4.6,1v-2.6c-2.9-1-6.2-1-9.1,0v2.6C12.9,12.1,14.4,11.8,16,11.8z"/>
	</g>
	<g>
		<path fill="#FAC2C3" d="M21.3,25.9v-4.6c-1.6-0.6-3.4-1-5.3-1c-1.9,0-3.7,0.4-5.3,1v4.6c1.6,0.6,3.4,1,5.3,1
			C17.9,26.9,19.7,26.6,21.3,25.9z"/>
		<path fill="#DA8C8C" d="M16,27.7L16,27.7c-1.9,0-3.8-0.4-5.6-1.1c-0.3-0.1-0.5-0.4-0.5-0.7v-4.6c0-0.3,0.2-0.6,0.5-0.7
			c3.5-1.4,7.6-1.4,11.2,0c0.3,0.1,0.5,0.4,0.5,0.7v4.6c0,0.3-0.2,0.6-0.5,0.7C19.8,27.3,17.9,27.7,16,27.7z M11.4,25.4
			c2.9,1,6.2,1,9.1,0v-3.5c-2.9-1-6.2-1-9.1,0V25.4z"/>
	</g>
	<g>
		<line fill="#F9F8F2" x1="24" y1="8.9" x2="29.2" y2="12.7"/>
		
			<rect x="23.3" y="10.1" transform="matrix(0.8061 0.5917 -0.5917 0.8061 11.5542 -13.6274)" fill="#B4A79C" width="6.5" height="1.5"/>
	</g>
	<g>
		<line fill="#F9F8F2" x1="24" y1="19.3" x2="29.2" y2="23.1"/>
		
			<rect x="23.3" y="20.4" transform="matrix(0.8061 0.5917 -0.5917 0.8061 17.6853 -11.6192)" fill="#B4A79C" width="6.5" height="1.5"/>
	</g>
	<g>
		<line fill="#F9F8F2" x1="2.8" y1="23.1" x2="8" y2="19.3"/>
		
			<rect x="4.7" y="17.9" transform="matrix(0.5918 0.8061 -0.8061 0.5918 19.2865 4.2719)" fill="#B4A79C" width="1.5" height="6.5"/>
	</g>
	<g>
		<line fill="#F9F8F2" x1="2.8" y1="12.7" x2="8" y2="8.9"/>
		
			<rect x="4.7" y="7.6" transform="matrix(0.5918 0.8061 -0.8061 0.5918 10.9357 4.335702e-002)" fill="#B4A79C" width="1.5" height="6.5"/>
	</g>
</g>
<g>
	<g>
		<g>
			<defs>
				<path id="SVGID_15_" d="M28.4-40.5H8.4c-1.1,0-2.1,0.9-2.1,2.1v2.8h17.3c1.1,0,2.1,0.9,2.1,2.1v17.3h2.8c1.1,0,2.1-0.9,2.1-2.1
					v-20.1C30.5-39.6,29.6-40.5,28.4-40.5z"/>
			</defs>
			<clipPath id="SVGID_2_">
				<use xlink:href="#SVGID_15_"  overflow="visible"/>
			</clipPath>
			<g clip-path="url(#SVGID_2_)">
				<rect x="6.6" y="-20" fill="none" width="24.1" height="24.1"/>
				<rect x="6.6" y="-20" fill="#FEE99B" width="24.1" height="24.1"/>
			</g>
			<g clip-path="url(#SVGID_2_)">
				<rect x="-17.6" y="-20" fill="none" width="24.1" height="24.1"/>
				<rect x="-17.6" y="-20" fill="#FEE99B" width="24.1" height="24.1"/>
			</g>
		</g>
	</g>
</g>
</svg>
