<?xml version="1.0" encoding="utf-8"?>
<!-- Generator: Adobe Illustrator 18.0.0, SVG Export Plug-In . SVG Version: 6.00 Build 0)  -->
<!DOCTYPE svg PUBLIC "-//W3C//DTD SVG 1.1//EN" "http://www.w3.org/Graphics/SVG/1.1/DTD/svg11.dtd">
<svg version="1.1" id="Layer_1" xmlns="http://www.w3.org/2000/svg" xmlns:xlink="http://www.w3.org/1999/xlink" x="0px" y="0px"
	 viewBox="0 0 32 32" enable-background="new 0 0 32 32" xml:space="preserve">
<g>
	<g>
		<path fill="#8F9BA8" d="M24.3,31.3H13.5c-0.4,0-0.7-0.3-0.7-0.6l-2.3-16.4c0-0.2,0-0.4,0.2-0.6c0.1-0.2,0.3-0.3,0.6-0.3h15.4
			c0.2,0,0.4,0.1,0.6,0.3c0.1,0.2,0.2,0.4,0.2,0.6l-2.3,16.4C25,31,24.7,31.3,24.3,31.3z M14.2,29.8h9.5l2.1-14.9H12.1L14.2,29.8z"
			/>
	</g>
	<g>
		<line fill="none" x1="7" y1="30.5" x2="30.9" y2="30.5"/>
		<rect x="7" y="29.8" fill="#8F9BA8" width="23.9" height="1.5"/>
	</g>
	<g>
		<path fill="#8F9BA8" d="M4.7,27.5c-2,0-3.6-1.7-3.6-3.9V11.8c0-2.7,1-5.3,2.7-7.3L6,2.1l1.1,1L5,5.5c-1.5,1.6-2.3,3.9-2.3,6.3
			v11.8c0,1.3,0.9,2.4,2.1,2.4s2.1-1.1,2.1-2.4v-9c0-2.7,2-4.9,4.5-4.9v1.5c-1.6,0-3,1.5-3,3.4v9C8.2,25.8,6.6,27.5,4.7,27.5z"/>
	</g>
	<g>
		
			<rect x="2.7" y="7.2" transform="matrix(-0.7962 -0.6051 0.6051 -0.7962 1.9142 16.5797)" fill="#8F9BA8" width="2.1" height="1.5"/>
	</g>
	<g>
		<rect x="11.2" y="1.5" fill="#CDE4F7" width="15.4" height="12.6"/>
		<path fill="#74B1E0" d="M27.4,14.9h-17V0.8h16.9v14.1H27.4z M11.9,13.4h13.9V2.3H11.9V13.4z"/>
	</g>
	<g>
		<line fill="none" x1="16" y1="6.4" x2="16" y2="9.2"/>
		<rect x="15.2" y="6.4" fill="#74B1E0" width="1.5" height="2.8"/>
	</g>
	<g>
		<line fill="none" x1="18.9" y1="6.4" x2="18.9" y2="9.2"/>
		<rect x="18.2" y="6.4" fill="#74B1E0" width="1.5" height="2.8"/>
	</g>
	<g>
		<line fill="none" x1="21.9" y1="6.4" x2="21.9" y2="9.2"/>
		<rect x="21.1" y="6.4" fill="#74B1E0" width="1.5" height="2.8"/>
	</g>
</g>
</svg>
