<?xml version="1.0" encoding="utf-8"?>
<!-- Generator: Adobe Illustrator 18.0.0, SVG Export Plug-In . SVG Version: 6.00 Build 0)  -->
<!DOCTYPE svg PUBLIC "-//W3C//DTD SVG 1.1//EN" "http://www.w3.org/Graphics/SVG/1.1/DTD/svg11.dtd">
<svg version="1.1" id="Layer_1" xmlns="http://www.w3.org/2000/svg" xmlns:xlink="http://www.w3.org/1999/xlink" x="0px" y="0px"
	 viewBox="0 0 32 32" enable-background="new 0 0 32 32" xml:space="preserve">
<g>
	<g>
		<rect x="1.6" y="2.9" fill="#F0F7F7" width="9.9" height="27.6"/>
		<path fill="#8F9BA8" d="M12.2,31.3H0.8V2.2h11.4V31.3z M2.3,29.8h8.4V3.7H2.3V29.8z"/>
	</g>
	<g>
		<circle fill="#FFFFFF" cx="6.5" cy="25.6" r="1.8"/>
		<path fill="#8F9BA8" d="M6.5,28.2c-1.4,0-2.6-1.2-2.6-2.6S5.1,23,6.5,23c1.4,0,2.6,1.2,2.6,2.6S7.9,28.2,6.5,28.2z M6.5,24.5
			c-0.6,0-1.1,0.5-1.1,1.1s0.5,1.1,1.1,1.1c0.6,0,1.1-0.5,1.1-1.1S7.1,24.5,6.5,24.5z"/>
	</g>
	<g>
		<line fill="#F0F7F7" x1="4.7" y1="6" x2="8.3" y2="6"/>
		<rect x="4.7" y="5.3" fill="#8F9BA8" width="3.6" height="1.5"/>
	</g>
	<g>
		<line fill="#F0F7F7" x1="4.7" y1="8.9" x2="8.3" y2="8.9"/>
		<rect x="4.7" y="8.1" fill="#8F9BA8" width="3.6" height="1.5"/>
	</g>
	<g>
		<path fill="#79C693" d="M20,31.4L14.3,2.9l11.2-2.3l5.8,28.5L20,31.4z M16,4l5.2,25.6l8.2-1.7L24.3,2.4L16,4z"/>
	</g>
	<g>
		<path fill="#79C693" d="M24.5,27.3c-1.2,0-2.3-0.9-2.5-2.1c-0.1-0.7,0-1.4,0.4-1.9c0.4-0.6,1-1,1.6-1.1c1.4-0.3,2.8,0.7,3.1,2
			c0.1,0.7,0,1.4-0.4,1.9c-0.4,0.6-1,1-1.6,1.1C24.8,27.3,24.7,27.3,24.5,27.3z M24.5,23.7c-0.1,0-0.1,0-0.2,0
			c-0.3,0.1-0.5,0.2-0.7,0.5c-0.2,0.2-0.2,0.5-0.2,0.8c0.1,0.6,0.7,1,1.3,0.9c0.3-0.1,0.5-0.2,0.7-0.5c0.2-0.2,0.2-0.5,0.2-0.8
			C25.5,24,25,23.7,24.5,23.7z"/>
	</g>
	<g>
		
			<rect x="19.9" y="3.7" transform="matrix(0.1979 0.9802 -0.9802 0.1979 21.9396 -15.7848)" fill="#79C693" width="1.5" height="3.6"/>
	</g>
	<g>
		
			<rect x="20.4" y="6.5" transform="matrix(0.1979 0.9802 -0.9802 0.1979 25.1436 -14.0899)" fill="#79C693" width="1.5" height="3.6"/>
	</g>
</g>
</svg>
