<?xml version="1.0" encoding="utf-8"?>
<!-- Generator: Adobe Illustrator 18.0.0, SVG Export Plug-In . SVG Version: 6.00 Build 0)  -->
<!DOCTYPE svg PUBLIC "-//W3C//DTD SVG 1.1//EN" "http://www.w3.org/Graphics/SVG/1.1/DTD/svg11.dtd">
<svg version="1.1" id="Layer_1" xmlns="http://www.w3.org/2000/svg" xmlns:xlink="http://www.w3.org/1999/xlink" x="0px" y="0px"
	 viewBox="0 0 32 32" enable-background="new 0 0 32 32" xml:space="preserve">
<g>
	<g>
		<polyline fill="#F0F7F7" points="26,5.2 28.8,5.2 28.8,9.3 26,9.3 		"/>
		<polygon fill="#8F9BA8" points="29.6,10.1 26,10.1 26,8.6 28.1,8.6 28.1,5.9 26,5.9 26,4.4 29.6,4.4 		"/>
	</g>
	<g>
		<polyline fill="#F0F7F7" points="26,12.3 28.8,12.3 28.8,16.5 26,16.5 		"/>
		<polygon fill="#8F9BA8" points="29.6,17.2 26,17.2 26,15.7 28.1,15.7 28.1,13.1 26,13.1 26,11.6 29.6,11.6 		"/>
	</g>
	<g>
		<polyline fill="#F0F7F7" points="26,19.5 28.8,19.5 28.8,23.6 26,23.6 		"/>
		<polygon fill="#8F9BA8" points="29.6,24.4 26,24.4 26,22.9 28.1,22.9 28.1,20.2 26,20.2 26,18.7 29.6,18.7 		"/>
	</g>
	<g>
		<path fill="#B4A79C" d="M23,31.3H7.3c-2,0-3.7-1.7-3.7-3.7V4.4c0-2,1.7-3.7,3.7-3.7H23c2,0,3.7,1.7,3.7,3.7v23.1
			C26.7,29.6,25.1,31.3,23,31.3z M7.3,2.3c-1.2,0-2.2,1-2.2,2.2v23.1c0,1.2,1,2.2,2.2,2.2H23c1.2,0,2.2-1,2.2-2.2V4.4
			c0-1.2-1-2.2-2.2-2.2H7.3z"/>
	</g>
	<g>
		<rect x="2.4" y="4.4" fill="#B4A79C" width="4" height="1.5"/>
	</g>
	<g>
		<rect x="2.4" y="9.8" fill="#B4A79C" width="4" height="1.5"/>
	</g>
	<g>
		<rect x="2.4" y="15.3" fill="#B4A79C" width="4" height="1.5"/>
	</g>
	<g>
		<rect x="2.4" y="20.7" fill="#B4A79C" width="4" height="1.5"/>
	</g>
	<g>
		<rect x="2.4" y="26.1" fill="#B4A79C" width="4" height="1.5"/>
	</g>
</g>
</svg>
