<?xml version="1.0" encoding="utf-8"?>
<!-- Generator: Adobe Illustrator 18.0.0, SVG Export Plug-In . SVG Version: 6.00 Build 0)  -->
<!DOCTYPE svg PUBLIC "-//W3C//DTD SVG 1.1//EN" "http://www.w3.org/Graphics/SVG/1.1/DTD/svg11.dtd">
<svg version="1.1" id="Layer_1" xmlns="http://www.w3.org/2000/svg" xmlns:xlink="http://www.w3.org/1999/xlink" x="0px" y="0px"
	 viewBox="0 0 32 32" enable-background="new 0 0 32 32" xml:space="preserve">
<g>
	<g>
		<path fill="#79C693" d="M31.3,20.2H0.8V3.9c0-1.7,1.4-3.1,3.1-3.1h24.3c1.7,0,3.1,1.4,3.1,3.1V20.2z M2.3,18.7h27.5V3.9
			c0-0.9-0.7-1.6-1.6-1.6H3.9C3,2.3,2.3,3,2.3,3.9V18.7z"/>
	</g>
	<g>
		<path fill="#8F9BA8" d="M22,31.2H10v-7H22V31.2z M11.5,29.7h9.1v-4h-9.1V29.7z"/>
	</g>
	<g>
		<rect x="6.2" y="29.7" fill="#8F9BA8" width="19.7" height="1.5"/>
	</g>
	<g>
		<path fill="#F0F7F7" d="M1.5,19.4v3.2c0,1.3,1.1,2.4,2.4,2.4h24.3c1.3,0,2.4-1.1,2.4-2.4v-3.2H1.5z"/>
		<path fill="#8F9BA8" d="M28.1,25.7H3.9c-1.7,0-3.1-1.4-3.1-3.1v-3.9h30.5v3.9C31.3,24.3,29.9,25.7,28.1,25.7z M2.3,20.2v2.4
			c0,0.9,0.7,1.6,1.6,1.6h24.3c0.9,0,1.6-0.7,1.6-1.6v-2.4H2.3z"/>
	</g>
</g>
</svg>
