<?xml version="1.0" encoding="utf-8"?>
<!-- Generator: Adobe Illustrator 18.0.0, SVG Export Plug-In . SVG Version: 6.00 Build 0)  -->
<!DOCTYPE svg PUBLIC "-//W3C//DTD SVG 1.1//EN" "http://www.w3.org/Graphics/SVG/1.1/DTD/svg11.dtd">
<svg version="1.1" id="Layer_1" xmlns="http://www.w3.org/2000/svg" xmlns:xlink="http://www.w3.org/1999/xlink" x="0px" y="0px"
	 viewBox="0 0 32 32" enable-background="new 0 0 32 32" xml:space="preserve">
<g>
	<g>
		<path fill="#79C693" d="M16,31.2c-0.1,0-0.3,0-0.4-0.1C15,30.7,0.8,21.4,0.8,10.7c0-5.5,3.9-10,8.8-10C12,0.7,14.3,2,16,4
			c1.7-2.1,4-3.3,6.5-3.3c4.8,0,8.8,4.5,8.8,10c0,10.6-14.2,20-14.8,20.4C16.3,31.2,16.1,31.2,16,31.2z M9.5,2.2
			c-4,0-7.3,3.8-7.3,8.5C2.3,19.6,13.7,28,16,29.6c2.3-1.6,13.8-10,13.8-18.9c0-4.7-3.3-8.5-7.3-8.5c-2.3,0-4.4,1.3-5.8,3.4
			c-0.3,0.4-1,0.4-1.3,0C14,3.5,11.8,2.2,9.5,2.2z"/>
	</g>
</g>
</svg>
