<?xml version="1.0" encoding="utf-8"?>
<!-- Generator: Adobe Illustrator 18.0.0, SVG Export Plug-In . SVG Version: 6.00 Build 0)  -->
<!DOCTYPE svg PUBLIC "-//W3C//DTD SVG 1.1//EN" "http://www.w3.org/Graphics/SVG/1.1/DTD/svg11.dtd">
<svg version="1.1" id="Layer_1" xmlns="http://www.w3.org/2000/svg" xmlns:xlink="http://www.w3.org/1999/xlink" x="0px" y="0px"
	 viewBox="0 0 32 32" enable-background="new 0 0 32 32" xml:space="preserve">
<g>
	<g>
		<path fill="#8F9BA8" d="M18.1,14.2h-1.5v-2.1c0-1.1-0.9-2-2-2H8.5c-1.9,0-3.4-1.5-3.4-3.4s1.5-3.4,3.4-3.4h14.1v1.5H8.5
			c-1.1,0-1.9,0.9-1.9,1.9s0.9,1.9,1.9,1.9h6.1c1.9,0,3.5,1.5,3.5,3.5V14.2z"/>
	</g>
	<g>
		<path fill="#79C693" d="M31.3,28.7H0.8V13.5h30.5V28.7z M2.3,27.2h27.5V15H2.3V27.2z"/>
	</g>
	<g>
		<rect x="4.1" y="17" fill="#79C693" width="1.7" height="1.5"/>
	</g>
	<g>
		<rect x="8.5" y="17" fill="#79C693" width="1.7" height="1.5"/>
	</g>
	<g>
		<rect x="12.9" y="17" fill="#79C693" width="1.7" height="1.5"/>
	</g>
	<g>
		<rect x="17.3" y="17" fill="#79C693" width="1.7" height="1.5"/>
	</g>
	<g>
		<rect x="21.7" y="17" fill="#79C693" width="1.7" height="1.5"/>
	</g>
	<g>
		<rect x="26.1" y="17" fill="#79C693" width="1.7" height="1.5"/>
	</g>
	<g>
		<rect x="4.1" y="20.4" fill="#79C693" width="1.7" height="1.5"/>
	</g>
	<g>
		<rect x="8.5" y="20.4" fill="#79C693" width="1.7" height="1.5"/>
	</g>
	<g>
		<rect x="12.9" y="20.4" fill="#79C693" width="1.7" height="1.5"/>
	</g>
	<g>
		<rect x="17.3" y="20.4" fill="#79C693" width="1.7" height="1.5"/>
	</g>
	<g>
		<rect x="21.7" y="20.4" fill="#79C693" width="1.7" height="1.5"/>
	</g>
	<g>
		<rect x="26.1" y="20.4" fill="#79C693" width="1.7" height="1.5"/>
	</g>
	<g>
		<rect x="4.1" y="23.7" fill="#79C693" width="1.7" height="1.5"/>
	</g>
	<g>
		<rect x="8.5" y="23.7" fill="#8F9BA8" width="10.5" height="1.5"/>
	</g>
	<g>
		<rect x="21.7" y="23.7" fill="#79C693" width="1.7" height="1.5"/>
	</g>
	<g>
		<rect x="26.1" y="23.7" fill="#79C693" width="1.7" height="1.5"/>
	</g>
</g>
<g>
	<g>
		<g>
			<defs>
				<line id="SVGID_1_" x1="-15.6" y1="10.6" x2="-15.6" y2="12.3"/>
			</defs>
			<clipPath id="SVGID_2_">
				<use xlink:href="#SVGID_1_"  overflow="visible"/>
			</clipPath>
			<g clip-path="url(#SVGID_2_)">
				<rect x="-20.8" y="9.8" fill="none" width="24.1" height="24.1"/>
				<rect x="-20.8" y="9.8" fill="#FEE99B" width="24.1" height="24.1"/>
			</g>
		</g>
	</g>
	<g>
		<g>
			<defs>
				<line id="SVGID_3_" x1="-18.7" y1="10.6" x2="-18.7" y2="12.3"/>
			</defs>
			<clipPath id="SVGID_4_">
				<use xlink:href="#SVGID_3_"  overflow="visible"/>
			</clipPath>
			<g clip-path="url(#SVGID_4_)">
				<rect x="-20.8" y="9.8" fill="none" width="24.1" height="24.1"/>
				<rect x="-20.8" y="9.8" fill="#FEE99B" width="24.1" height="24.1"/>
			</g>
		</g>
	</g>
</g>
</svg>
