<?xml version="1.0" encoding="utf-8"?>
<!-- Generator: Adobe Illustrator 18.0.0, SVG Export Plug-In . SVG Version: 6.00 Build 0)  -->
<!DOCTYPE svg PUBLIC "-//W3C//DTD SVG 1.1//EN" "http://www.w3.org/Graphics/SVG/1.1/DTD/svg11.dtd">
<svg version="1.1" id="Layer_1" xmlns="http://www.w3.org/2000/svg" xmlns:xlink="http://www.w3.org/1999/xlink" x="0px" y="0px"
	 viewBox="0 0 32 32" enable-background="new 0 0 32 32" xml:space="preserve">
<g>
	<g>
		<line fill="#C2E3C8" x1="25" y1="19.7" x2="21.8" y2="30.6"/>
		
			<rect x="22.6" y="19.5" transform="matrix(0.9581 0.2864 -0.2864 0.9581 8.1928 -5.6403)" fill="#B4A79C" width="1.5" height="11.4"/>
	</g>
	<g>
		<line fill="#C2E3C8" x1="24" y1="15.1" x2="17.3" y2="7.3"/>
		
			<rect x="15.5" y="10.5" transform="matrix(0.6495 0.7604 -0.7604 0.6495 15.7572 -11.7453)" fill="#B4A79C" width="10.3" height="1.5"/>
	</g>
	<g>
		<polygon fill="#F9F8F2" points="13.7,13 8.1,8.4 15.1,1.6 18.9,4.7 		"/>
		<path fill="#B4A79C" d="M13.8,14.1L7,8.5l8.1-7.9l4.8,3.9L13.8,14.1z M9.2,8.4l4.2,3.5l4.4-7l-2.8-2.3L9.2,8.4z"/>
	</g>
	<g>
		<rect x="3.6" y="29.9" fill="#B4A79C" width="24.1" height="1.5"/>
	</g>
	<g>
		<path fill="#B4A79C" d="M25.2,20.5c-1.8,0-3.2-1.4-3.2-3.2c0-1.8,1.4-3.2,3.2-3.2c1.8,0,3.2,1.4,3.2,3.2
			C28.4,19.1,27,20.5,25.2,20.5z M25.2,15.6c-0.9,0-1.7,0.8-1.7,1.7c0,0.9,0.8,1.7,1.7,1.7c0.9,0,1.7-0.8,1.7-1.7
			C26.9,16.3,26.2,15.6,25.2,15.6z"/>
	</g>
</g>
</svg>
