<?xml version="1.0" encoding="utf-8"?>
<!-- Generator: Adobe Illustrator 18.0.0, SVG Export Plug-In . SVG Version: 6.00 Build 0)  -->
<!DOCTYPE svg PUBLIC "-//W3C//DTD SVG 1.1//EN" "http://www.w3.org/Graphics/SVG/1.1/DTD/svg11.dtd">
<svg version="1.1" id="Layer_1" xmlns="http://www.w3.org/2000/svg" xmlns:xlink="http://www.w3.org/1999/xlink" x="0px" y="0px"
	 viewBox="0 0 32 32" enable-background="new 0 0 32 32" xml:space="preserve">
<g>
	<g>
		<path fill="#74B1E0" d="M24.1,10.8c-0.8,0-1.5-0.3-2.1-0.9c-0.6-0.6-0.9-1.3-0.9-2.1c0-0.8,0.3-1.5,0.9-2.1c1.1-1.1,3.1-1.1,4.2,0
			c1.1,1.1,1.1,3,0,4.2C25.6,10.5,24.9,10.8,24.1,10.8z M24.1,6.4c-0.4,0-0.8,0.2-1,0.4c-0.3,0.3-0.4,0.6-0.4,1c0,0.4,0.2,0.8,0.4,1
			c0.5,0.5,1.5,0.5,2,0c0.6-0.6,0.6-1.5,0-2C24.8,6.6,24.5,6.4,24.1,6.4z"/>
	</g>
	<g>
		<path fill="#74B1E0" d="M1.7,31.3l-0.9-6.5l10.9-10.9c-1.2-3.6-0.3-7.5,2.4-10.2c1.9-1.9,4.4-2.9,7.1-2.9c2.7,0,5.2,1,7.1,2.9
			c3.9,3.9,3.9,10.3,0,14.2c-1.9,1.9-4.4,2.9-7.1,2.9l0,0c-1.1,0-2.1-0.2-3.1-0.5L7.2,31.1L1.7,31.3z M2.4,25.3L3,29.7l3.6-0.1
			l11.1-11.1l0.5,0.2c1,0.4,2,0.6,3.1,0.6c2.3,0,4.4-0.9,6-2.5c3.3-3.3,3.3-8.7,0-12c-1.6-1.6-3.7-2.5-6-2.5c-2.3,0-4.4,0.9-6,2.5
			c-2.4,2.4-3.1,5.9-1.9,9.1l0.2,0.5L2.4,25.3z"/>
	</g>
	<g>
		
			<rect x="9.2" y="17.4" transform="matrix(0.7071 0.7071 -0.7071 0.7071 18.9755 -0.3535)" fill="#8F9BA8" width="1.5" height="10.8"/>
	</g>
</g>
</svg>
