<?xml version="1.0" encoding="utf-8"?>
<!-- Generator: Adobe Illustrator 18.0.0, SVG Export Plug-In . SVG Version: 6.00 Build 0)  -->
<!DOCTYPE svg PUBLIC "-//W3C//DTD SVG 1.1//EN" "http://www.w3.org/Graphics/SVG/1.1/DTD/svg11.dtd">
<svg version="1.1" id="Layer_1" xmlns="http://www.w3.org/2000/svg" xmlns:xlink="http://www.w3.org/1999/xlink" x="0px" y="0px"
	 viewBox="0 0 32 32" enable-background="new 0 0 32 32" xml:space="preserve">
<g>
	<g>
		<rect x="21.7" y="28.8" fill="#B4A79C" width="1.5" height="2.5"/>
	</g>
	<g>
		<rect x="8.7" y="28.8" fill="#B4A79C" width="1.5" height="2.5"/>
	</g>
	<g>
		<rect x="6.6" y="1.5" fill="#F9F8F2" width="18.7" height="13.6"/>
		<path fill="#B4A79C" d="M26.1,15.9H5.9V0.8h20.3V15.9z M7.4,14.4h17.2V2.3H7.4V14.4z"/>
	</g>
	<g>
		<rect x="6.6" y="15.2" fill="#F9F8F2" width="18.7" height="13.6"/>
		<path fill="#B4A79C" d="M26.1,29.6H5.9V14.4h20.3V29.6z M7.4,28h17.2V15.9H7.4V28z"/>
	</g>
	<g>
		<path fill="#F9F8F2" d="M19.9,7.7c0,0.7-0.6,1.3-1.3,1.3h-5.2c-0.7,0-1.3-0.6-1.3-1.3"/>
		<path fill="#B4A79C" d="M18.6,9.8h-5.2c-1.1,0-2.1-0.9-2.1-2.1h1.5c0,0.3,0.2,0.5,0.5,0.5h5.2c0.3,0,0.5-0.2,0.5-0.5h1.5
			C20.7,8.8,19.7,9.8,18.6,9.8z"/>
	</g>
	<g>
		<path fill="#F9F8F2" d="M19.9,21.3c0,0.7-0.6,1.3-1.3,1.3h-5.2c-0.7,0-1.3-0.6-1.3-1.3"/>
		<path fill="#B4A79C" d="M18.6,23.4h-5.2c-1.1,0-2.1-0.9-2.1-2.1h1.5c0,0.3,0.2,0.5,0.5,0.5h5.2c0.3,0,0.5-0.2,0.5-0.5h1.5
			C20.7,22.5,19.7,23.4,18.6,23.4z"/>
	</g>
</g>
</svg>
