<?xml version="1.0" encoding="utf-8"?>
<!-- Generator: Adobe Illustrator 18.0.0, SVG Export Plug-In . SVG Version: 6.00 Build 0)  -->
<!DOCTYPE svg PUBLIC "-//W3C//DTD SVG 1.1//EN" "http://www.w3.org/Graphics/SVG/1.1/DTD/svg11.dtd">
<svg version="1.1" id="Layer_1" xmlns="http://www.w3.org/2000/svg" xmlns:xlink="http://www.w3.org/1999/xlink" x="0px" y="0px"
	 viewBox="0 0 32 32" enable-background="new 0 0 32 32" xml:space="preserve">
<g>
	<g>
		<path fill="#74B1E0" d="M28.5,30.9H3.5c-1.5,0-2.7-1.2-2.7-2.7V12.5C0.8,11,2,9.8,3.5,9.8h25.1c1.5,0,2.7,1.2,2.7,2.7v15.7
			C31.3,29.7,30,30.9,28.5,30.9z M3.5,11.3c-0.7,0-1.2,0.5-1.2,1.2v15.7c0,0.7,0.5,1.2,1.2,1.2h25.1c0.7,0,1.2-0.5,1.2-1.2V12.5
			c0-0.7-0.5-1.2-1.2-1.2H3.5z"/>
	</g>
	<g>
		<rect x="15.3" y="1.1" fill="#74B1E0" width="1.5" height="21"/>
	</g>
	<g>
		<polygon fill="#74B1E0" points="16,23.9 9.4,17.3 10.5,16.3 16,21.8 21.5,16.3 22.6,17.3 		"/>
	</g>
</g>
</svg>
