<?xml version="1.0" encoding="utf-8"?>
<!-- Generator: Adobe Illustrator 18.0.0, SVG Export Plug-In . SVG Version: 6.00 Build 0)  -->
<!DOCTYPE svg PUBLIC "-//W3C//DTD SVG 1.1//EN" "http://www.w3.org/Graphics/SVG/1.1/DTD/svg11.dtd">
<svg version="1.1" id="Layer_1" xmlns="http://www.w3.org/2000/svg" xmlns:xlink="http://www.w3.org/1999/xlink" x="0px" y="0px"
	 viewBox="0 0 32 32" enable-background="new 0 0 32 32" xml:space="preserve">
<g>
	<g>
		<path fill="#8F9BA8" d="M4.8,29.2v-5H3.7c-1.6,0-2.9-1.3-2.9-2.9V10.5c0-1.6,1.3-2.9,2.9-2.9h11v5.8c0,0.5,0.4,0.9,0.9,0.9h8.8
			v7.1c0,1.6-1.3,2.9-2.9,2.9H9.8L4.8,29.2z M3.7,9c-0.8,0-1.4,0.6-1.4,1.4v10.8c0,0.8,0.6,1.4,1.4,1.4h2.6v2.8l2.8-2.8h12.3
			c0.8,0,1.4-0.6,1.4-1.4v-5.6h-7.3c-1.3,0-2.4-1.1-2.4-2.4V9H3.7z"/>
	</g>
	<g>
		<path fill="#C6BCDD" d="M28.9,3.5H15.6c-0.9,0-1.6,0.7-1.6,1.6v3.1v5c0,0.9,0.7,1.6,1.6,1.6h8h0.9l2.9,2.9v-2.9h1.4
			c0.9,0,1.6-0.7,1.6-1.6V5.2C30.5,4.3,29.8,3.5,28.9,3.5z"/>
		<path fill="#A294C7" d="M28.2,19.7l-4-4h-8.6c-1.3,0-2.4-1.1-2.4-2.4V5.2c0-1.3,1.1-2.4,2.4-2.4h13.3c1.3,0,2.4,1.1,2.4,2.4v8.1
			c0,1.3-1.1,2.4-2.4,2.4h-0.7V19.7z M15.6,4.3c-0.5,0-0.9,0.4-0.9,0.9v8.1c0,0.5,0.4,0.9,0.9,0.9h9.3l1.9,1.9v-1.9h2.2
			c0.5,0,0.9-0.4,0.9-0.9V5.2c0-0.5-0.4-0.9-0.9-0.9H15.6z"/>
	</g>
</g>
</svg>
