<?xml version="1.0" encoding="utf-8"?>
<!-- Generator: Adobe Illustrator 18.0.0, SVG Export Plug-In . SVG Version: 6.00 Build 0)  -->
<!DOCTYPE svg PUBLIC "-//W3C//DTD SVG 1.1//EN" "http://www.w3.org/Graphics/SVG/1.1/DTD/svg11.dtd">
<svg version="1.1" id="Layer_1" xmlns="http://www.w3.org/2000/svg" xmlns:xlink="http://www.w3.org/1999/xlink" x="0px" y="0px"
	 viewBox="0 0 32 32" enable-background="new 0 0 32 32" xml:space="preserve">
<g>
	<g>
		<path fill="#79C693" d="M16,31.3C7.6,31.3,0.8,24.4,0.8,16S7.6,0.8,16,0.8S31.3,7.6,31.3,16S24.4,31.3,16,31.3z M16,2.3
			C8.4,2.3,2.3,8.4,2.3,16S8.4,29.8,16,29.8S29.8,23.6,29.8,16S23.6,2.3,16,2.3z"/>
	</g>
	<g>
		
			<rect x="15.2" y="9.6" transform="matrix(0.7071 0.7071 -0.7071 0.7071 15.9993 -6.627)" fill="#79C693" width="1.5" height="12.8"/>
	</g>
	<g>
		
			<rect x="9.6" y="15.2" transform="matrix(0.7071 0.7071 -0.7071 0.7071 15.9987 -6.6275)" fill="#79C693" width="12.8" height="1.5"/>
	</g>
</g>
</svg>
