<?xml version="1.0" encoding="utf-8"?>
<!-- Generator: Adobe Illustrator 18.0.0, SVG Export Plug-In . SVG Version: 6.00 Build 0)  -->
<!DOCTYPE svg PUBLIC "-//W3C//DTD SVG 1.1//EN" "http://www.w3.org/Graphics/SVG/1.1/DTD/svg11.dtd">
<svg version="1.1" id="Layer_1" xmlns="http://www.w3.org/2000/svg" xmlns:xlink="http://www.w3.org/1999/xlink" x="0px" y="0px"
	 viewBox="0 0 32 32" enable-background="new 0 0 32 32" xml:space="preserve">
<g>
	<g>
		<path fill="#8F9BA8" d="M13.6,31.3c-3.4,0-6.6-1.3-9.1-3.8c-2.4-2.4-3.8-5.6-3.8-9.1s1.3-6.6,3.8-9.1c2.4-2.4,5.6-3.8,9.1-3.8
			c3.4,0,6.6,1.3,9.1,3.8c5,5,5,13.1,0,18.1C20.2,29.9,17,31.3,13.6,31.3z M13.6,7.2c-3,0-5.8,1.2-8,3.3c-2.1,2.1-3.3,5-3.3,8
			s1.2,5.8,3.3,8c2.1,2.1,5,3.3,8,3.3c3,0,5.8-1.2,8-3.3c4.4-4.4,4.4-11.5,0-15.9C19.4,8.3,16.6,7.2,13.6,7.2z"/>
	</g>
	<g>
		<path fill="#8F9BA8" d="M13.6,27.1c-2.3,0-4.5-0.9-6.1-2.5c-1.6-1.6-2.5-3.8-2.5-6.1c0-2.3,0.9-4.5,2.5-6.1
			c1.6-1.6,3.8-2.5,6.1-2.5c2.3,0,4.5,0.9,6.1,2.5c3.4,3.4,3.4,8.8,0,12.2C18,26.2,15.9,27.1,13.6,27.1z M13.6,11.4
			c-1.9,0-3.7,0.7-5,2.1c-1.3,1.3-2.1,3.1-2.1,5s0.7,3.7,2.1,5c1.3,1.3,3.1,2.1,5,2.1c1.9,0,3.7-0.7,5-2.1c2.8-2.8,2.8-7.3,0-10
			C17.2,12.1,15.4,11.4,13.6,11.4z"/>
	</g>
	<g>
		<circle fill="#F2E8B9" cx="13.6" cy="18.4" r="4.2"/>
		<path fill="#B4A042" d="M13.6,23.4c-1.3,0-2.6-0.5-3.5-1.5c-0.9-0.9-1.5-2.2-1.5-3.5s0.5-2.6,1.5-3.5c0.9-0.9,2.2-1.5,3.5-1.5
			c1.3,0,2.6,0.5,3.5,1.5c0.9,0.9,1.5,2.2,1.5,3.5c0,1.3-0.5,2.6-1.5,3.5C16.1,22.9,14.9,23.4,13.6,23.4z M13.6,15
			c-0.9,0-1.8,0.4-2.4,1c-0.7,0.7-1,1.5-1,2.4c0,0.9,0.4,1.8,1,2.4c1.3,1.3,3.6,1.3,4.9,0c0.7-0.7,1-1.5,1-2.4c0-0.9-0.4-1.8-1-2.4
			C15.3,15.3,14.5,15,13.6,15z"/>
	</g>
	<g>
		<line fill="#E8E37E" x1="13.6" y1="18.4" x2="27.3" y2="4.7"/>
		
			<rect x="19.6" y="1.9" transform="matrix(0.7071 0.7071 -0.7071 0.7071 14.1729 -11.0382)" fill="#B4A042" width="1.5" height="19.4"/>
	</g>
	<g>
		<line fill="#E8E37E" x1="23.8" y1="8.2" x2="23.8" y2="3.9"/>
		<rect x="23" y="3.9" fill="#B4A042" width="1.5" height="4.4"/>
	</g>
	<g>
		<line fill="#E8E37E" x1="26.9" y1="5.1" x2="26.9" y2="0.8"/>
		<rect x="26.1" y="0.8" fill="#B4A042" width="1.5" height="4.4"/>
	</g>
	<g>
		<line fill="#E8E37E" x1="23.8" y1="8.2" x2="28.1" y2="8.2"/>
		<rect x="23.8" y="7.5" fill="#B4A042" width="4.4" height="1.5"/>
	</g>
	<g>
		<line fill="#E8E37E" x1="26.9" y1="5.1" x2="31.2" y2="5.1"/>
		<rect x="26.9" y="4.3" fill="#B4A042" width="4.4" height="1.5"/>
	</g>
</g>
</svg>
