<?xml version="1.0" encoding="utf-8"?>
<!-- Generator: Adobe Illustrator 18.0.0, SVG Export Plug-In . SVG Version: 6.00 Build 0)  -->
<!DOCTYPE svg PUBLIC "-//W3C//DTD SVG 1.1//EN" "http://www.w3.org/Graphics/SVG/1.1/DTD/svg11.dtd">
<svg version="1.1" id="Layer_1" xmlns="http://www.w3.org/2000/svg" xmlns:xlink="http://www.w3.org/1999/xlink" x="0px" y="0px"
	 viewBox="0 0 32 32" enable-background="new 0 0 32 32" xml:space="preserve">
<g>
	<g>
		<path fill="#8F9BA8" d="M22.2,26.3L11,20.9v-9.8l11.1-5.4V26.3z M12.5,19.9l8.1,4V8.1l-8.1,4V19.9z"/>
	</g>
	<g>
		<path fill="#F0F7F7" d="M8.9,20.3h2.9v-8.6H8.9c-1,0-1.9,0.8-1.9,1.9v4.9C7.1,19.5,7.9,20.3,8.9,20.3z"/>
		<path fill="#8F9BA8" d="M12.5,21H8.9c-1.4,0-2.6-1.2-2.6-2.6v-4.9c0-1.4,1.2-2.6,2.6-2.6h3.6V21z M8.9,12.5
			c-0.6,0-1.1,0.5-1.1,1.1v4.9c0,0.6,0.5,1.1,1.1,1.1H11v-7.1H8.9z"/>
	</g>
	<g>
		<path fill="#B4A79C" d="M16,31.3C7.6,31.3,0.8,24.4,0.8,16S7.6,0.8,16,0.8S31.3,7.6,31.3,16S24.4,31.3,16,31.3z M16,2.3
			C8.4,2.3,2.3,8.4,2.3,16S8.4,29.8,16,29.8c7.6,0,13.8-6.2,13.8-13.8S23.6,2.3,16,2.3z"/>
	</g>
	<g>
		<rect x="15.3" y="1.5" transform="matrix(0.7071 0.7071 -0.7071 0.7071 16.0017 -6.63)" fill="#B4A79C" width="1.5" height="29"/>
	</g>
</g>
</svg>
