<?xml version="1.0" encoding="utf-8"?>
<!-- Generator: Adobe Illustrator 18.0.0, SVG Export Plug-In . SVG Version: 6.00 Build 0)  -->
<!DOCTYPE svg PUBLIC "-//W3C//DTD SVG 1.1//EN" "http://www.w3.org/Graphics/SVG/1.1/DTD/svg11.dtd">
<svg version="1.1" id="Layer_1" xmlns="http://www.w3.org/2000/svg" xmlns:xlink="http://www.w3.org/1999/xlink" x="0px" y="0px"
	 viewBox="0 0 32 32" enable-background="new 0 0 32 32" xml:space="preserve">
<g>
	<g>
		<path fill="#74B1E0" d="M16,31.3c-0.5,0-1.1,0-1.6-0.1c-6.2-0.7-11.2-5.7-12-11.9c-0.7-5.6,2-10.9,6.9-13.6
			c0.4-0.2,0.8-0.3,1.3-0.3c1.4,0,2.6,1.2,2.6,2.6c0,0.9-0.5,1.8-1.4,2.3c-2.7,1.5-4.3,4.3-4.3,7.3c0,2.2,0.9,4.4,2.5,6
			c1.8,1.8,4.3,2.7,6.9,2.4c3.7-0.4,6.8-3.4,7.4-7.1c0.5-3.5-1.2-6.9-4.2-8.6c-0.8-0.5-1.4-1.4-1.4-2.3c0-1.4,1.2-2.6,2.6-2.6
			c0.4,0,0.9,0.1,1.3,0.3c4.3,2.4,7,7,7,11.9c0,3.6-1.4,7.1-4,9.7C23.1,29.8,19.6,31.3,16,31.3z M10.6,6.8c-0.2,0-0.4,0-0.6,0.1
			c-4.3,2.4-6.8,7.2-6.2,12.1c0.7,5.5,5.1,9.9,10.7,10.5c3.7,0.4,7.4-0.9,10-3.5c2.3-2.3,3.6-5.3,3.6-8.6c0-4.4-2.4-8.5-6.2-10.6
			c-0.7-0.4-1.7,0-1.7,1c0,0.4,0.2,0.8,0.6,1c3.6,2,5.6,6,5,10.1c-0.6,4.4-4.3,7.9-8.7,8.4c-3.1,0.3-6-0.7-8.1-2.8
			c-1.9-1.9-2.9-4.4-2.9-7c0-3.6,1.9-6.9,5.1-8.7c0.4-0.2,0.6-0.6,0.6-1C11.8,7.3,11.2,6.8,10.6,6.8z"/>
	</g>
	<g>
		<path fill="#F0F7F7" d="M16,12.4L16,12.4c-0.9,0-1.6-0.7-1.6-1.6V3.1c0-0.9,0.7-1.6,1.6-1.6l0,0c0.9,0,1.6,0.7,1.6,1.6v7.6
			C17.6,11.7,16.9,12.4,16,12.4z"/>
		<path fill="#8F9BA8" d="M16,13.1c-1.3,0-2.4-1.1-2.4-2.4V3.1c0-1.3,1.1-2.4,2.4-2.4c1.3,0,2.4,1.1,2.4,2.4v7.6
			C18.4,12.1,17.3,13.1,16,13.1z M16,2.3c-0.5,0-0.9,0.4-0.9,0.9v7.6c0,0.5,0.4,0.9,0.9,0.9c0.5,0,0.9-0.4,0.9-0.9V3.1
			C16.9,2.7,16.5,2.3,16,2.3z"/>
	</g>
</g>
</svg>
