<?xml version="1.0" encoding="utf-8"?>
<!-- Generator: Adobe Illustrator 18.0.0, SVG Export Plug-In . SVG Version: 6.00 Build 0)  -->
<!DOCTYPE svg PUBLIC "-//W3C//DTD SVG 1.1//EN" "http://www.w3.org/Graphics/SVG/1.1/DTD/svg11.dtd">
<svg version="1.1" id="Layer_1" xmlns="http://www.w3.org/2000/svg" xmlns:xlink="http://www.w3.org/1999/xlink" x="0px" y="0px"
	 viewBox="0 0 32 32" enable-background="new 0 0 32 32" xml:space="preserve">
<g>
	<g>
		<path fill="#DA8C8C" d="M27.2,31.3H4.8c-2.2,0-4-1.8-4-4V4.8c0-2.2,1.8-4,4-4h22.5c2.2,0,4,1.8,4,4v22.5
			C31.3,29.5,29.5,31.3,27.2,31.3z M4.8,2.3c-1.4,0-2.5,1.1-2.5,2.5v22.5c0,1.4,1.1,2.5,2.5,2.5h22.5c1.4,0,2.5-1.1,2.5-2.5V4.8
			c0-1.4-1.1-2.5-2.5-2.5C27.3,2.3,4.8,2.3,4.8,2.3z"/>
	</g>
	<g>
		<rect x="5.5" y="6.7" fill="#DA8C8C" width="1.5" height="18.6"/>
	</g>
	<g>
		<rect x="12" y="6.7" fill="#DA8C8C" width="1.5" height="18.6"/>
	</g>
	<g>
		<rect x="18.5" y="6.7" fill="#DA8C8C" width="1.5" height="18.6"/>
	</g>
	<g>
		<rect x="25" y="6.7" fill="#DA8C8C" width="1.5" height="18.6"/>
	</g>
	<g>
		<rect x="4.2" y="8.9" fill="#DA8C8C" width="4.1" height="1.5"/>
	</g>
	<g>
		<rect x="10.7" y="14.4" fill="#DA8C8C" width="4.1" height="1.5"/>
	</g>
	<g>
		<rect x="23.7" y="11.8" fill="#DA8C8C" width="4.1" height="1.5"/>
	</g>
	<g>
		<rect x="17.2" y="18.1" fill="#DA8C8C" width="4.1" height="1.5"/>
	</g>
</g>
</svg>
