<?xml version="1.0" encoding="utf-8"?>
<!-- Generator: Adobe Illustrator 18.0.0, SVG Export Plug-In . SVG Version: 6.00 Build 0)  -->
<!DOCTYPE svg PUBLIC "-//W3C//DTD SVG 1.1//EN" "http://www.w3.org/Graphics/SVG/1.1/DTD/svg11.dtd">
<svg version="1.1" id="Layer_1" xmlns="http://www.w3.org/2000/svg" xmlns:xlink="http://www.w3.org/1999/xlink" x="0px" y="0px"
	 viewBox="0 0 32 32" enable-background="new 0 0 32 32" xml:space="preserve">
<pattern  y="32" width="24.1" height="24.1" patternUnits="userSpaceOnUse" id="SVGID_4_" viewBox="0 -24.1 24.1 24.1" overflow="visible">
	<g>
		<polygon fill="none" points="0,0 24.1,0 24.1,-24.1 0,-24.1 		"/>
		<g>
			<polygon fill="none" points="0,-24.1 24.1,-24.1 24.1,0 0,0 			"/>
			<polygon fill="#E0CB81" points="24.1,-24.1 0,-24.1 0,0 24.1,0 			"/>
		</g>
	</g>
</pattern>
<g>
	<g>
		<path fill="#8F9BA8" d="M26.8,31.3H5.2V12.7L16,6.1l10.8,6.6V31.3z M6.7,29.8h18.6V13.5L16,7.8l-9.3,5.7V29.8z"/>
	</g>
	<g>
		<polygon fill="#FAC2C3" points="26,7.7 23.7,6.3 16,1.6 8.3,6.3 6,7.7 1.5,10.4 3.9,14.4 6,13.1 16,6.9 26,13.1 28.1,14.4 
			30.5,10.4 		"/>
		<path fill="#DA8C8C" d="M28.4,15.4L16,7.8L3.6,15.4l-3.2-5.2L16,0.7l15.5,9.5L28.4,15.4z M16,6.1l11.9,7.2l1.6-2.6L16,2.4
			L2.5,10.7l1.6,2.6L16,6.1z"/>
	</g>
	<g>
		<g>
			<g>
				<defs>
					<path id="SVGID_1_" d="M19.4,30.6h-6.7v-5.2c0-1.9,1.5-3.4,3.4-3.4l0,0c1.9,0,3.4,1.5,3.4,3.4v5.2H19.4z"/>
				</defs>
				<clipPath id="SVGID_2_">
					<use xlink:href="#SVGID_1_"  overflow="visible"/>
				</clipPath>
				<g clip-path="url(#SVGID_2_)">
					<rect x="8.8" y="19.9" fill="none" width="24.1" height="24.1"/>
					<rect x="8.8" y="19.9" fill="#FEE99B" width="24.1" height="24.1"/>
				</g>
			</g>
		</g>
		<pattern  id="SVGID_3_" xlink:href="#SVGID_4_" patternTransform="matrix(1 0 0 -1 -204.0428 -16381.2197)">
		</pattern>
		<path fill="url(#SVGID_3_)" d="M20.1,31.3h-8.2v-5.9c0-2.3,1.8-4.1,4.1-4.1s4.1,1.8,4.1,4.1V31.3z M13.4,29.8h5.2v-4.4
			c0-1.4-1.2-2.6-2.6-2.6s-2.6,1.2-2.6,2.6C13.4,25.4,13.4,29.8,13.4,29.8z"/>
	</g>
</g>
</svg>
