<?xml version="1.0" encoding="utf-8"?>
<!-- Generator: Adobe Illustrator 18.0.0, SVG Export Plug-In . SVG Version: 6.00 Build 0)  -->
<!DOCTYPE svg PUBLIC "-//W3C//DTD SVG 1.1//EN" "http://www.w3.org/Graphics/SVG/1.1/DTD/svg11.dtd">
<svg version="1.1" id="Layer_1" xmlns="http://www.w3.org/2000/svg" xmlns:xlink="http://www.w3.org/1999/xlink" x="0px" y="0px"
	 viewBox="0 0 32 32" enable-background="new 0 0 32 32" xml:space="preserve">
<g>
	<g>
		<path fill="#74B1E0" d="M16,31.3C7.6,31.3,0.8,24.4,0.8,16S7.6,0.8,16,0.8S31.3,7.6,31.3,16S24.4,31.3,16,31.3z M16,2.3
			C8.4,2.3,2.3,8.4,2.3,16S8.4,29.8,16,29.8S29.8,23.6,29.8,16S23.6,2.3,16,2.3z"/>
	</g>
	<g>
		<rect x="15.3" y="1.5" fill="#74B1E0" width="1.5" height="4.4"/>
	</g>
	<g>
		<rect x="15.3" y="26.1" fill="#74B1E0" width="1.5" height="4.4"/>
	</g>
	<g>
		<rect x="26.1" y="15.2" fill="#74B1E0" width="4.4" height="1.5"/>
	</g>
	<g>
		<rect x="1.5" y="15.2" fill="#74B1E0" width="4.4" height="1.5"/>
	</g>
	<g>
		<rect x="15.2" y="12.6" fill="#74B1E0" width="1.5" height="6.7"/>
	</g>
	<g>
		<rect x="12.6" y="15.2" fill="#74B1E0" width="6.7" height="1.5"/>
	</g>
</g>
</svg>
