<?xml version="1.0" encoding="utf-8"?>
<!-- Generator: Adobe Illustrator 18.0.0, SVG Export Plug-In . SVG Version: 6.00 Build 0)  -->
<!DOCTYPE svg PUBLIC "-//W3C//DTD SVG 1.1//EN" "http://www.w3.org/Graphics/SVG/1.1/DTD/svg11.dtd">
<svg version="1.1" id="Layer_1" xmlns="http://www.w3.org/2000/svg" xmlns:xlink="http://www.w3.org/1999/xlink" x="0px" y="0px"
	 viewBox="0 0 32 32" enable-background="new 0 0 32 32" xml:space="preserve">
<g>
	<g>
		
			<rect x="15.1" y="8.6" transform="matrix(0.7071 0.7071 -0.7071 0.7071 16.0759 -6.447)" fill="#8F9BA8" width="1.5" height="15.2"/>
	</g>
	<g>
		<polygon fill="#8F9BA8" points="22.3,16.6 20.8,16.6 20.8,11.2 15.4,11.2 15.4,9.7 22.3,9.7 		"/>
	</g>
	<g>
		<path fill="#8F9BA8" d="M16,31.3L16,31.3c-4.1,0-7.9-1.6-10.8-4.5C2.3,23.9,0.8,20.1,0.8,16C0.8,7.6,7.6,0.7,16,0.7
			c4.1,0,7.9,1.6,10.8,4.5c2.9,2.9,4.5,6.7,4.5,10.8C31.2,24.4,24.4,31.3,16,31.3z M16,2.2C8.4,2.2,2.3,8.4,2.3,16
			c0,3.7,1.4,7.1,4,9.7c2.6,2.6,6,4,9.7,4c7.6,0,13.7-6.2,13.7-13.8c0-3.7-1.4-7.1-4-9.7C23.1,3.7,19.7,2.2,16,2.2z"/>
	</g>
</g>
</svg>
