<?xml version="1.0" encoding="utf-8"?>
<!-- Generator: Adobe Illustrator 18.0.0, SVG Export Plug-In . SVG Version: 6.00 Build 0)  -->
<!DOCTYPE svg PUBLIC "-//W3C//DTD SVG 1.1//EN" "http://www.w3.org/Graphics/SVG/1.1/DTD/svg11.dtd">
<svg version="1.1" id="Layer_1" xmlns="http://www.w3.org/2000/svg" xmlns:xlink="http://www.w3.org/1999/xlink" x="0px" y="0px"
	 viewBox="0 0 32 32" enable-background="new 0 0 32 32" xml:space="preserve">
<pattern  x="-84" y="-252" width="24.1" height="24.1" patternUnits="userSpaceOnUse" id="New_Pattern_Swatch_2" viewBox="0 -24.1 24.1 24.1" overflow="visible">
	<g>
		<polygon fill="none" points="0,0 24.1,0 24.1,-24.1 0,-24.1 		"/>
		<polygon fill="#E0CB81" points="24.1,0 0,0 0,-24.1 24.1,-24.1 		"/>
	</g>
</pattern>
<g>
	<g>
		<pattern  id="SVGID_2_" xlink:href="#New_Pattern_Swatch_2" patternTransform="matrix(1 0 0 1 -1.5283 10.392)">
		</pattern>
		<polygon fill="url(#SVGID_2_)" points="20.6,21.7 9.9,11 11,9.9 21.7,20.6 		"/>
	</g>
	<g>
		<pattern  id="SVGID_4_" xlink:href="#New_Pattern_Swatch_2" patternTransform="matrix(1 0 0 1 -1.5283 10.392)">
		</pattern>
		<polygon fill="url(#SVGID_4_)" points="15.4,22.3 15.4,20.8 20.8,20.8 20.8,15.4 22.3,15.4 22.3,22.3 		"/>
	</g>
	<g>
		<path fill="#8F9BA8" d="M16,31.3L16,31.3C7.6,31.3,0.8,24.4,0.8,16C0.8,7.6,7.6,0.7,16,0.7c8.4,0,15.2,6.8,15.3,15.3
			c0,4.1-1.6,7.9-4.5,10.8C23.9,29.7,20.1,31.3,16,31.3z M16,2.2C8.4,2.2,2.3,8.4,2.3,16c0,7.6,6.2,13.8,13.8,13.8
			c3.7,0,7.1-1.4,9.7-4c2.6-2.6,4-6.1,4-9.7C29.7,8.4,23.6,2.2,16,2.2z"/>
	</g>
</g>
</svg>
