<?xml version="1.0" encoding="utf-8"?>
<!-- Generator: Adobe Illustrator 18.0.0, SVG Export Plug-In . SVG Version: 6.00 Build 0)  -->
<!DOCTYPE svg PUBLIC "-//W3C//DTD SVG 1.1//EN" "http://www.w3.org/Graphics/SVG/1.1/DTD/svg11.dtd">
<svg version="1.1" id="Layer_1" xmlns="http://www.w3.org/2000/svg" xmlns:xlink="http://www.w3.org/1999/xlink" x="0px" y="0px"
	 viewBox="0 0 32 32" enable-background="new 0 0 32 32" xml:space="preserve">
<g>
	<g>
		<path fill="#FAC2C3" d="M21.7,10.2c-1.3-0.1-2.7,0.2-3.9,1c-1,0.6-2.5,0.6-3.5,0c-1.2-0.8-2.6-1.1-3.9-1c-4,0.4-6.5,5.3-5.6,10.9
			c1,5.6,5,9.8,9.1,9.4c0.8-0.1,1.5-0.3,2.2-0.7c0.7,0.4,1.4,0.6,2.2,0.7c4,0.4,8.1-3.8,9.1-9.4C28.2,15.5,25.7,10.6,21.7,10.2z"/>
		<path fill="#DA8C8C" d="M18.7,31.3L18.7,31.3c-0.2,0-0.4,0-0.6,0c-0.7-0.1-1.4-0.3-2.1-0.6c-0.7,0.3-1.4,0.5-2.1,0.6
			c-4.5,0.5-8.9-4-9.9-10c-0.6-3.5,0.1-6.9,1.8-9.2c1.2-1.5,2.7-2.4,4.4-2.6c1.5-0.1,3,0.2,4.4,1.1c0.8,0.5,2,0.5,2.7,0
			c1.4-0.9,2.9-1.3,4.4-1.1c1.8,0.2,3.3,1.1,4.4,2.6c1.7,2.3,2.4,5.7,1.8,9.2C27,27,23,31.3,18.7,31.3z M16,28.9l0.4,0.2
			c0.6,0.3,1.2,0.6,1.9,0.6c3.7,0.4,7.4-3.6,8.3-8.8c0.5-3.1,0-6.1-1.5-8c-0.9-1.2-2.1-1.9-3.4-2c-1.2-0.1-2.3,0.2-3.5,0.9
			c-1.3,0.8-3.1,0.8-4.3,0c-1.1-0.7-2.3-1-3.5-0.9c-1.3,0.1-2.5,0.8-3.4,2c-1.5,1.9-2,4.9-1.5,8c0.9,5.2,4.6,9.2,8.3,8.8
			c0.7-0.1,1.3-0.3,1.9-0.6L16,28.9z"/>
	</g>
	<g>
		<path fill="#DA8C8C" d="M16.7,11.8l-1.5-0.2c0-0.3,0.9-6.7,5.3-6.9l0.1,1.5C17.5,6.4,16.8,11.8,16.7,11.8z"/>
	</g>
	<g>
		<path fill="#79C693" d="M15.2,9.8l-2.3-0.4c-1.5-0.3-2.7-1.1-3.6-2.3C8.4,5.9,8.1,4.4,8.3,3l0.4-2.3L11,1.1c3,0.5,5.1,3.4,4.5,6.4
			L15.2,9.8z M9.9,2.4L9.8,3.2c-0.2,1.1,0.1,2.1,0.7,3c0.6,0.9,1.6,1.5,2.6,1.7l0.8,0.1l0.1-0.8C14.4,5,13,2.9,10.7,2.6L9.9,2.4z"/>
	</g>
</g>
</svg>
