<?xml version="1.0" encoding="utf-8"?>
<!-- Generator: Adobe Illustrator 18.0.0, SVG Export Plug-In . SVG Version: 6.00 Build 0)  -->
<!DOCTYPE svg PUBLIC "-//W3C//DTD SVG 1.1//EN" "http://www.w3.org/Graphics/SVG/1.1/DTD/svg11.dtd">
<svg version="1.1" id="Layer_1" xmlns="http://www.w3.org/2000/svg" xmlns:xlink="http://www.w3.org/1999/xlink" x="0px" y="0px"
	 viewBox="0 0 32 32" enable-background="new 0 0 32 32" xml:space="preserve">
<g>
	<g>
		<rect x="8.7" y="15.3" fill="#B4A79C" width="15.2" height="1.5"/>
	</g>
	<g>
		<polygon fill="#B4A79C" points="12,20.9 7.1,16 12,11.1 13.1,12.2 9.2,16 13.1,19.8 		"/>
	</g>
	<g>
		<path fill="#B4A79C" d="M16,31.3c-4.1,0-7.9-1.6-10.8-4.5c-5.9-5.9-5.9-15.6,0-21.6C8.1,2.3,11.9,0.7,16,0.7
			c4.1,0,7.9,1.6,10.8,4.5c5.9,5.9,5.9,15.6,0,21.6C23.9,29.7,20.1,31.3,16,31.3z M16,2.2c-3.7,0-7.1,1.4-9.7,4
			c-5.4,5.4-5.4,14.1,0,19.4c2.6,2.6,6.1,4,9.7,4c3.7,0,7.1-1.4,9.7-4c5.4-5.4,5.4-14.1,0-19.4C23.1,3.7,19.7,2.2,16,2.2z"/>
	</g>
</g>
</svg>
