<?xml version="1.0" encoding="utf-8"?>
<!-- Generator: Adobe Illustrator 18.0.0, SVG Export Plug-In . SVG Version: 6.00 Build 0)  -->
<!DOCTYPE svg PUBLIC "-//W3C//DTD SVG 1.1//EN" "http://www.w3.org/Graphics/SVG/1.1/DTD/svg11.dtd">
<svg version="1.1" id="Layer_1" xmlns="http://www.w3.org/2000/svg" xmlns:xlink="http://www.w3.org/1999/xlink" x="0px" y="0px"
	 viewBox="0 0 32 32" enable-background="new 0 0 32 32" xml:space="preserve">
<g>
	<g>
		<polyline fill="#F0F7F7" points="8.4,24.9 8.4,30.5 23.6,30.5 23.6,24.9 		"/>
		<polygon fill="#8F9BA8" points="24.4,31.3 7.6,31.3 7.6,24.9 9.1,24.9 9.1,29.8 22.9,29.8 22.9,24.9 24.4,24.9 		"/>
	</g>
	<g>
		<polyline fill="#F0F7F7" points="23.6,7.1 23.6,1.5 8.4,1.5 8.4,7.1 		"/>
		<polygon fill="#8F9BA8" points="24.4,7.1 22.9,7.1 22.9,2.3 9.1,2.3 9.1,7.1 7.6,7.1 7.6,0.8 24.4,0.8 		"/>
	</g>
	<g>
		<circle fill="#FFFFFF" cx="16" cy="16" r="11.7"/>
		<path fill="#79C693" d="M16,28.5C9.1,28.5,3.5,22.9,3.5,16S9.1,3.5,16,3.5S28.5,9.1,28.5,16S22.9,28.5,16,28.5z M16,5
			C10,5,5,10,5,16s4.9,11,11,11s11-5,11-11S22,5,16,5z"/>
	</g>
	<g>
		<line fill="none" x1="16" y1="6.7" x2="16" y2="8"/>
		<rect x="15.3" y="6.7" fill="#79C693" width="1.5" height="1.3"/>
	</g>
	<g>
		<line fill="none" x1="16" y1="24" x2="16" y2="25.3"/>
		<rect x="15.3" y="24" fill="#79C693" width="1.5" height="1.3"/>
	</g>
	<g>
		<line fill="none" x1="16" y1="6.7" x2="16" y2="8"/>
		<rect x="15.3" y="6.7" fill="#79C693" width="1.5" height="1.3"/>
	</g>
	<g>
		<line fill="none" x1="16" y1="24" x2="16" y2="25.3"/>
		<rect x="15.3" y="24" fill="#79C693" width="1.5" height="1.3"/>
	</g>
	<g>
		<line fill="none" x1="11.4" y1="8" x2="12" y2="9.1"/>
		
			<rect x="11" y="7.8" transform="matrix(-0.5003 -0.8658 0.8658 -0.5003 10.0955 23.0136)" fill="#79C693" width="1.3" height="1.5"/>
	</g>
	<g>
		<line fill="none" x1="20" y1="22.9" x2="20.6" y2="24"/>
		
			<rect x="19.7" y="22.7" transform="matrix(-0.4997 -0.8662 0.8662 -0.4997 10.1897 52.87)" fill="#79C693" width="1.3" height="1.5"/>
	</g>
	<g>
		<line fill="none" x1="8" y1="11.4" x2="9.1" y2="12"/>
		<rect x="7.9" y="10.9" transform="matrix(-0.866 -0.5 0.5 -0.866 10.1389 26.056)" fill="#79C693" width="1.3" height="1.5"/>
	</g>
	<g>
		<line fill="none" x1="22.9" y1="20" x2="24" y2="20.6"/>
		<rect x="22.9" y="19.6" transform="matrix(-0.866 -0.5 0.5 -0.866 33.71 49.7916)" fill="#79C693" width="1.3" height="1.5"/>
	</g>
	<g>
		<line fill="none" x1="6.7" y1="16" x2="8" y2="16"/>
		<rect x="6.7" y="15.3" fill="#79C693" width="1.3" height="1.5"/>
	</g>
	<g>
		<line fill="none" x1="24" y1="16" x2="25.3" y2="16"/>
		<rect x="24" y="15.3" fill="#79C693" width="1.3" height="1.5"/>
	</g>
	<g>
		<line fill="none" x1="8" y1="20.6" x2="9.1" y2="20"/>
		<rect x="7.8" y="19.7" transform="matrix(-0.5 -0.866 0.866 -0.5 -4.8718 37.9099)" fill="#79C693" width="1.5" height="1.3"/>
	</g>
	<g>
		<line fill="none" x1="22.9" y1="12" x2="24" y2="11.4"/>
		
			<rect x="22.7" y="11" transform="matrix(-0.5001 -0.866 0.866 -0.5001 24.989 37.8033)" fill="#79C693" width="1.5" height="1.3"/>
	</g>
	<g>
		<line fill="none" x1="11.4" y1="24" x2="12" y2="22.9"/>
		
			<rect x="10.9" y="22.9" transform="matrix(-0.8658 -0.5003 0.5003 -0.8658 9.9111 49.7062)" fill="#79C693" width="1.5" height="1.3"/>
	</g>
	<g>
		<line fill="none" x1="20" y1="9.1" x2="20.6" y2="8"/>
		
			<rect x="19.6" y="7.9" transform="matrix(-0.8661 -0.4998 0.4998 -0.8661 33.6596 26.1358)" fill="#79C693" width="1.5" height="1.3"/>
	</g>
	<g>
		<polyline fill="#FFFFFF" points="16,10 16,16 19.5,16 		"/>
		<polygon fill="#79C693" points="19.5,16.8 15.3,16.8 15.3,10 16.8,10 16.8,15.3 19.5,15.3 		"/>
	</g>
</g>
</svg>
