<?xml version="1.0" encoding="utf-8"?>
<!-- Generator: Adobe Illustrator 18.0.0, SVG Export Plug-In . SVG Version: 6.00 Build 0)  -->
<!DOCTYPE svg PUBLIC "-//W3C//DTD SVG 1.1//EN" "http://www.w3.org/Graphics/SVG/1.1/DTD/svg11.dtd">
<svg version="1.1" id="Layer_1" xmlns="http://www.w3.org/2000/svg" xmlns:xlink="http://www.w3.org/1999/xlink" x="0px" y="0px"
	 viewBox="0 0 32 32" enable-background="new 0 0 32 32" xml:space="preserve">
<g>
	<g>
		<path fill="#8F9BA8" d="M9.4,31.2c-0.9,0-1.8-0.3-2.5-0.8c-1.2-0.8-1.8-2.1-1.9-3.5c-1.4,0-2.7-0.7-3.5-1.9
			c-1.1-1.5-1-3.6,0.1-5.1c1-1.4,2.8-2,4.4-1.7c0.8,0.2,1.6,0,2.2-0.6l2.3-2.3c0.1-0.1,0.3-0.2,0.5-0.2h0c0.2,0,0.4,0.1,0.5,0.2l5,5
			c0.3,0.3,0.3,0.8,0,1.1l-2.3,2.3c-0.5,0.5-0.8,1.3-0.6,2.2c0.4,1.7-0.3,3.4-1.7,4.4C11.3,30.9,10.3,31.2,9.4,31.2z M5.9,25.4
			c0.2,0,0.4,0.1,0.5,0.2c0.2,0.2,0.3,0.4,0.2,0.7c-0.2,1.1,0.2,2.3,1.2,2.9c1,0.7,2.4,0.7,3.3,0c0.9-0.7,1.3-1.8,1.1-2.9
			c-0.3-1.3,0.1-2.7,1-3.5l1.8-1.8L11.1,17l-1.8,1.8c-0.9,0.9-2.2,1.3-3.5,1c-1.1-0.2-2.2,0.2-2.9,1.1c-0.7,1-0.7,2.3,0,3.3
			c0.7,1,1.8,1.4,2.9,1.2C5.8,25.4,5.8,25.4,5.9,25.4z"/>
	</g>
	<g>
		<path fill="#8F9BA8" d="M21,16.7L21,16.7c-0.2,0-0.4-0.1-0.5-0.2l-5-5c-0.3-0.3-0.3-0.8,0-1.1l2.2-2.2c0.5-0.5,0.8-1.3,0.6-2.2
			c-0.4-1.7,0.3-3.4,1.7-4.4c1.4-1.1,3.6-1.1,5.1-0.1c1.2,0.8,1.8,2.1,1.9,3.5c1.4,0,2.7,0.7,3.5,1.9c1.1,1.5,1,3.6-0.1,5.1
			c-1,1.4-2.8,2-4.4,1.7c-0.8-0.2-1.6,0-2.2,0.6l-2.2,2.2C21.4,16.7,21.2,16.7,21,16.7z M17.1,11l3.9,3.9l1.7-1.7
			c0.9-0.9,2.2-1.3,3.5-1c1.1,0.2,2.2-0.2,2.9-1.1c0.7-1,0.7-2.3,0-3.3c-0.7-1-1.8-1.4-2.9-1.2c-0.2,0.1-0.5,0-0.7-0.2
			c-0.2-0.2-0.3-0.4-0.2-0.7c0.2-1.1-0.2-2.3-1.2-2.9c-1-0.7-2.4-0.6-3.3,0c-0.9,0.7-1.3,1.8-1.1,2.9c0.3,1.3-0.1,2.7-1,3.5L17.1,11
			z"/>
	</g>
	<g>
		<path fill="#B4A79C" d="M22.6,31.2c-0.9,0-1.9-0.3-2.6-0.9c-1.4-1-2-2.7-1.7-4.4c0.2-0.8,0-1.6-0.6-2.2l-9.5-9.5
			c-0.5-0.5-1.4-0.8-2.2-0.6c-1.7,0.4-3.4-0.3-4.4-1.7c-1.1-1.5-1.1-3.6-0.1-5.1C2.4,5.7,3.7,5,5.1,5c0-1.4,0.7-2.7,1.9-3.5
			c1.5-1,3.6-1,5.1,0.1c1.4,1,2,2.7,1.7,4.4c-0.2,0.8,0,1.6,0.6,2.2l9.5,9.5c0.5,0.5,1.4,0.8,2.2,0.6c1.7-0.4,3.4,0.3,4.4,1.7
			c1.1,1.5,1.1,3.6,0.1,5.1c-0.8,1.2-2.1,1.8-3.5,1.9c0,1.4-0.7,2.7-1.9,3.5C24.4,30.9,23.5,31.2,22.6,31.2z M6.7,12.1
			c1,0,2,0.4,2.7,1.1l9.5,9.5c0.9,0.9,1.3,2.2,1,3.6c-0.2,1.1,0.2,2.2,1.1,2.9c0.9,0.7,2.4,0.7,3.3,0.1c1-0.7,1.4-1.8,1.2-2.9
			c-0.1-0.2,0-0.5,0.2-0.7c0.2-0.2,0.4-0.3,0.7-0.2c1.1,0.2,2.3-0.2,2.9-1.2c0.7-1,0.7-2.3,0-3.3c-0.7-0.9-1.8-1.4-2.9-1.1
			c-1.3,0.3-2.7-0.1-3.5-1l-9.5-9.5c-0.9-0.9-1.3-2.2-1-3.6c0.2-1.1-0.2-2.2-1.1-2.9c-0.9-0.7-2.4-0.7-3.3-0.1
			c-1,0.7-1.4,1.8-1.2,2.9c0.1,0.2,0,0.5-0.2,0.7C6.3,6.5,6,6.6,5.8,6.6C4.7,6.3,3.5,6.8,2.8,7.7c-0.7,1-0.7,2.3,0,3.3
			c0.7,0.9,1.8,1.4,2.9,1.1C6.1,12.1,6.4,12.1,6.7,12.1z"/>
	</g>
</g>
</svg>
