<?xml version="1.0" encoding="utf-8"?>
<!-- Generator: Adobe Illustrator 18.0.0, SVG Export Plug-In . SVG Version: 6.00 Build 0)  -->
<!DOCTYPE svg PUBLIC "-//W3C//DTD SVG 1.1//EN" "http://www.w3.org/Graphics/SVG/1.1/DTD/svg11.dtd">
<svg version="1.1" id="Layer_1" xmlns="http://www.w3.org/2000/svg" xmlns:xlink="http://www.w3.org/1999/xlink" x="0px" y="0px"
	 viewBox="0 0 32 32" enable-background="new 0 0 32 32" xml:space="preserve">
<g>
	<g>
		<path fill="#CDE4F7" d="M27,23.6V11.2c0-1.5-1.2-2.7-2.7-2.7H12.9c-0.8,0-1.6-0.4-2.1-1.1l-0.5-0.7C9.7,6.1,8.9,5.7,8.1,5.7H4.2
			c-1.5,0-2.7,1.2-2.7,2.7v15.3c0,1.5,1.2,2.7,2.7,2.7h20.1C25.8,26.3,27,25.1,27,23.6z"/>
		<path fill="#74B1E0" d="M24.3,27.1H4.2c-1.9,0-3.4-1.5-3.4-3.4V8.4c0-1.9,1.5-3.4,3.4-3.4h3.9c1.1,0,2.1,0.5,2.7,1.4L11.4,7
			c0.4,0.5,0.9,0.8,1.5,0.8h11.4c1.9,0,3.4,1.5,3.4,3.4v12.4C27.7,25.5,26.2,27.1,24.3,27.1z M4.2,6.4c-1.1,0-1.9,0.9-1.9,1.9v15.3
			c0,1.1,0.9,1.9,1.9,1.9h20.1c1.1,0,1.9-0.9,1.9-1.9V11.2c0-1.1-0.9-1.9-1.9-1.9H12.9c-1.1,0-2.1-0.5-2.7-1.4L9.6,7.2
			C9.2,6.7,8.7,6.4,8.1,6.4H4.2z"/>
	</g>
	<g>
		<path fill="#FFFFFF" d="M5.4,13.9l-2.8,8.9c-0.5,1.7,0.7,3.5,2.5,3.5H25c1.2,0,2.2-0.8,2.5-1.9l2.8-8.9c0.5-1.7-0.7-3.5-2.5-3.5H8
			C6.8,12,5.8,12.8,5.4,13.9z"/>
		<path fill="#8F9BA8" d="M25,27.1H5.2c-1.1,0-2.1-0.5-2.8-1.4c-0.7-0.9-0.8-2-0.5-3.1l2.8-8.9c0.5-1.4,1.8-2.4,3.3-2.4h19.8
			c1.1,0,2.1,0.5,2.8,1.4c0.7,0.9,0.8,2,0.5,3.1l-2.8,8.9C27.8,26.1,26.5,27.1,25,27.1z M8,12.8c-0.8,0-1.6,0.5-1.8,1.3l-2.8,8.9
			c-0.2,0.6-0.1,1.2,0.3,1.7c0.4,0.5,0.9,0.8,1.6,0.8H25c0.8,0,1.6-0.5,1.8-1.3l2.8-8.9c0.2-0.6,0.1-1.2-0.3-1.7
			c-0.4-0.5-0.9-0.8-1.6-0.8H8z"/>
	</g>
</g>
</svg>
