<?xml version="1.0" encoding="utf-8"?>
<!-- Generator: Adobe Illustrator 18.0.0, SVG Export Plug-In . SVG Version: 6.00 Build 0)  -->
<!DOCTYPE svg PUBLIC "-//W3C//DTD SVG 1.1//EN" "http://www.w3.org/Graphics/SVG/1.1/DTD/svg11.dtd">
<svg version="1.1" id="Layer_1" xmlns="http://www.w3.org/2000/svg" xmlns:xlink="http://www.w3.org/1999/xlink" x="0px" y="0px"
	 viewBox="0 0 32 32" enable-background="new 0 0 32 32" xml:space="preserve">
<g>
	<g>
		<polygon fill="#8F9BA8" points="14.3,22.2 12.8,22.2 12.8,17.7 29.2,12.5 29.2,6.3 24.4,6.3 24.4,4.8 30.7,4.8 30.7,13.6 
			14.3,18.8 		"/>
	</g>
	<g>
		<path fill="#8F9BA8" d="M13.6,31.3c-1.6,0-3-1.3-3-3v-3.8c0-1.6,1.3-3,3-3c1.6,0,3,1.3,3,3v3.8C16.5,29.9,15.2,31.3,13.6,31.3z
			 M13.6,23c-0.8,0-1.5,0.7-1.5,1.5v3.8c0,0.8,0.7,1.5,1.5,1.5s1.5-0.7,1.5-1.5v-3.8C15,23.6,14.4,23,13.6,23z"/>
	</g>
	<g>
		<path fill="#FAC2C3" d="M22.3,9.5H4.2C3,9.5,2,8.6,2,7.4V3.6c0-1.2,1-2.1,2.1-2.1h18.1c1.2,0,2.1,1,2.1,2.1v3.8
			C24.4,8.6,23.5,9.5,22.3,9.5z"/>
		<path fill="#DA8C8C" d="M22.3,10.3H4.2c-1.6,0-2.9-1.3-2.9-2.9V3.6c0-1.6,1.3-2.9,2.9-2.9h18.1c1.6,0,2.9,1.3,2.9,2.9v3.8
			C25.2,9,23.9,10.3,22.3,10.3z M4.2,2.3c-0.8,0-1.4,0.6-1.4,1.4v3.8c0,0.8,0.6,1.4,1.4,1.4h18.1c0.8,0,1.4-0.6,1.4-1.4V3.6
			c0-0.8-0.6-1.4-1.4-1.4H4.2V2.3z"/>
	</g>
</g>
</svg>
