<?xml version="1.0" encoding="utf-8"?>
<!-- Generator: Adobe Illustrator 18.0.0, SVG Export Plug-In . SVG Version: 6.00 Build 0)  -->
<!DOCTYPE svg PUBLIC "-//W3C//DTD SVG 1.1//EN" "http://www.w3.org/Graphics/SVG/1.1/DTD/svg11.dtd">
<svg version="1.1" id="Layer_1" xmlns="http://www.w3.org/2000/svg" xmlns:xlink="http://www.w3.org/1999/xlink" x="0px" y="0px"
	 viewBox="0 0 32 32" enable-background="new 0 0 32 32" xml:space="preserve">
<g>
	<g>
		<polygon fill="#F9F8F2" points="26.9,18.2 30.5,16 26.9,13.8 29.4,10.4 25.2,9.8 26.3,5.7 22.2,6.8 21.5,2.6 18.2,5.1 16,1.5 
			13.8,5.1 10.5,2.6 9.8,6.8 5.7,5.7 6.8,9.8 2.6,10.4 5.1,13.8 1.5,16 5.1,18.2 2.6,21.5 6.8,22.2 5.7,26.2 9.8,25.2 10.5,29.4 
			13.8,26.9 16,30.5 18.2,26.9 21.5,29.4 22.2,25.2 26.3,26.2 25.2,22.2 29.4,21.5 		"/>
		<path fill="#B4A79C" d="M16,31.2c-0.3,0-0.5-0.1-0.6-0.4L13.6,28l-2.7,2c-0.2,0.2-0.5,0.2-0.7,0.1c-0.2-0.1-0.4-0.3-0.5-0.6
			l-0.5-3.4L5.9,27c-0.3,0.1-0.5,0-0.7-0.2C5,26.6,5,26.3,5,26.1l0.8-3.3l-3.4-0.5c-0.3,0-0.5-0.2-0.6-0.5c-0.1-0.2-0.1-0.5,0.1-0.7
			l2-2.7l-2.9-1.7c-0.2-0.1-0.4-0.4-0.4-0.6c0-0.3,0.1-0.5,0.4-0.6L4,13.6l-2-2.7c-0.2-0.2-0.2-0.5-0.1-0.7C2,9.9,2.2,9.7,2.5,9.7
			l3.4-0.5L5,5.9C5,5.7,5,5.4,5.2,5.2C5.4,5,5.7,4.9,5.9,5l3.3,0.8l0.5-3.4c0-0.3,0.2-0.5,0.5-0.6c0.2-0.1,0.5-0.1,0.7,0.1l2.7,2
			l1.7-2.9c0.3-0.5,1-0.5,1.3,0L18.4,4l2.7-2c0.2-0.2,0.5-0.2,0.7-0.1c0.2,0.1,0.4,0.3,0.5,0.6l0.5,3.4L26.1,5
			c0.3-0.1,0.5,0,0.7,0.2C27,5.4,27,5.7,27,5.9l-0.8,3.3l3.4,0.5c0.3,0,0.5,0.2,0.6,0.5c0.1,0.2,0.1,0.5-0.1,0.7l-2,2.7l2.9,1.7
			c0.2,0.1,0.4,0.4,0.4,0.6s-0.1,0.5-0.4,0.6L28,18.4l2,2.7c0.2,0.2,0.2,0.5,0.1,0.7c-0.1,0.2-0.3,0.4-0.6,0.5l-3.4,0.5l0.8,3.3
			c0.1,0.3,0,0.5-0.2,0.7C26.6,27,26.3,27,26.1,27l-3.3-0.8l-0.5,3.4c0,0.3-0.2,0.5-0.5,0.6c-0.2,0.1-0.5,0.1-0.7-0.1l-2.7-2
			l-1.7,2.9C16.5,31.1,16.3,31.2,16,31.2z M13.8,26.1c0,0,0.1,0,0.1,0c0.2,0,0.4,0.2,0.5,0.4L16,29l1.5-2.5c0.1-0.2,0.3-0.3,0.5-0.4
			c0.2,0,0.4,0,0.6,0.1L21,28l0.4-2.9c0-0.2,0.1-0.4,0.3-0.5c0.2-0.1,0.4-0.2,0.6-0.1l2.9,0.7l-0.7-2.9c-0.1-0.2,0-0.4,0.1-0.6
			c0.1-0.2,0.3-0.3,0.5-0.3L28,21l-1.8-2.4c-0.1-0.2-0.2-0.4-0.1-0.6c0-0.2,0.2-0.4,0.4-0.5L29,16l-2.5-1.5
			c-0.2-0.1-0.3-0.3-0.4-0.5c0-0.2,0-0.4,0.1-0.6L28,11l-2.9-0.4c-0.2,0-0.4-0.1-0.5-0.3c-0.1-0.2-0.2-0.4-0.1-0.6l0.7-2.9l-2.9,0.7
			c-0.2,0.1-0.4,0-0.6-0.1c-0.2-0.1-0.3-0.3-0.3-0.5L21,3.9l-2.4,1.8c-0.2,0.1-0.4,0.2-0.6,0.1c-0.2,0-0.4-0.2-0.5-0.4L16,2.9
			l-1.5,2.5c-0.1,0.2-0.3,0.3-0.5,0.4c-0.2,0-0.4,0-0.6-0.1L11,3.9l-0.4,2.9c0,0.2-0.1,0.4-0.3,0.5c-0.2,0.1-0.4,0.2-0.6,0.1
			L6.8,6.8l0.7,2.9c0.1,0.2,0,0.4-0.1,0.6c-0.1,0.2-0.3,0.3-0.5,0.3L4,11l1.8,2.4c0.1,0.2,0.2,0.4,0.1,0.6c0,0.2-0.2,0.4-0.4,0.5
			L3,16l2.5,1.5c0.2,0.1,0.3,0.3,0.4,0.5c0,0.2,0,0.4-0.1,0.6L4,21l2.9,0.4c0.2,0,0.4,0.1,0.5,0.3c0.1,0.2,0.2,0.4,0.1,0.6l-0.7,2.9
			l2.9-0.7c0.2-0.1,0.4,0,0.6,0.1c0.2,0.1,0.3,0.3,0.3,0.5L11,28l2.4-1.8C13.5,26.2,13.7,26.1,13.8,26.1z"/>
	</g>
	<g>
		<rect x="15.2" y="8.5" fill="#B4A79C" width="1.5" height="10"/>
	</g>
	<g>
		<rect x="15.2" y="21" fill="#B4A79C" width="1.5" height="2.5"/>
	</g>
</g>
<g>
	<g>
		<g>
			<defs>
				<polygon id="SVGID_5_" points="11.4,64.2 18.2,58 11.4,51.8 				"/>
			</defs>
			<clipPath id="SVGID_2_">
				<use xlink:href="#SVGID_5_"  overflow="visible"/>
			</clipPath>
			<g clip-path="url(#SVGID_2_)">
				<rect x="6.6" y="28.1" fill="none" width="24.1" height="24.1"/>
				<rect x="6.6" y="28.1" fill="#FEE99B" width="24.1" height="24.1"/>
			</g>
		</g>
	</g>
</g>
</svg>
