<?xml version="1.0" encoding="utf-8"?>
<!-- Generator: Adobe Illustrator 18.0.0, SVG Export Plug-In . SVG Version: 6.00 Build 0)  -->
<!DOCTYPE svg PUBLIC "-//W3C//DTD SVG 1.1//EN" "http://www.w3.org/Graphics/SVG/1.1/DTD/svg11.dtd">
<svg version="1.1" id="Layer_1" xmlns="http://www.w3.org/2000/svg" xmlns:xlink="http://www.w3.org/1999/xlink" x="0px" y="0px"
	 viewBox="0 0 32 32" enable-background="new 0 0 32 32" xml:space="preserve">
<g>
	<g>
		<path fill="#CDE4F7" d="M5.2,22.8h4.6V9.2H5.2c-1.6,0-3,1.3-3,3v7.7C2.2,21.5,3.5,22.8,5.2,22.8z"/>
		<path fill="#74B1E0" d="M10.5,23.6H5.2c-2.1,0-3.7-1.7-3.7-3.7v-7.7c0-2.1,1.7-3.7,3.7-3.7h5.3V23.6z M5.2,9.9
			C4,9.9,3,10.9,3,12.1v7.7C3,21,4,22,5.2,22H9V9.9H5.2z"/>
	</g>
	<g>
		<path fill="#74B1E0" d="M25,31.2c-0.1,0-0.2,0-0.3-0.1L9.4,23.7C9.1,23.6,9,23.3,9,23V9c0-0.3,0.2-0.5,0.4-0.7l15.3-7.5
			c0.2-0.1,0.5-0.1,0.7,0s0.4,0.4,0.4,0.6v29c0,0.3-0.1,0.5-0.4,0.6C25.3,31.2,25.2,31.2,25,31.2z M10.5,22.5l13.8,6.8V2.7L10.5,9.5
			V22.5z"/>
	</g>
	<g>
		
			<rect x="24.3" y="8.9" transform="matrix(-0.7071 -0.7071 0.7071 -0.7071 31.503 45.0178)" fill="#74B1E0" width="1.5" height="14.1"/>
	</g>
	<g>
		
			<rect x="18" y="15.3" transform="matrix(-0.7071 -0.7071 0.7071 -0.7071 31.3386 45.0883)" fill="#74B1E0" width="14.1" height="1.5"/>
	</g>
</g>
</svg>
