<?xml version="1.0" encoding="utf-8"?>
<!-- Generator: Adobe Illustrator 18.0.0, SVG Export Plug-In . SVG Version: 6.00 Build 0)  -->
<!DOCTYPE svg PUBLIC "-//W3C//DTD SVG 1.1//EN" "http://www.w3.org/Graphics/SVG/1.1/DTD/svg11.dtd">
<svg version="1.1" id="Layer_1" xmlns="http://www.w3.org/2000/svg" xmlns:xlink="http://www.w3.org/1999/xlink" x="0px" y="0px"
	 viewBox="0 0 32 32" enable-background="new 0 0 32 32" xml:space="preserve">
<g>
	<g>
		<path fill="#8F9BA8" d="M16,31.2C16,31.2,16,31.2,16,31.2L16,31.2C7.6,31.2,0.7,24.4,0.7,16c0-4.1,1.6-7.9,4.5-10.8
			C8.1,2.3,11.9,0.8,16,0.8c0,0,0,0,0,0c8.4,0,15.3,6.8,15.3,15.3c0,4.1-1.6,7.9-4.5,10.8C23.9,29.7,20.1,31.2,16,31.2z M16,29.7
			C16,29.7,16,29.7,16,29.7c3.7,0,7.1-1.4,9.7-4c2.6-2.6,4-6,4-9.7c0-7.6-6.2-13.8-13.8-13.8c0,0,0,0,0,0c-3.7,0-7.1,1.4-9.7,4
			c-2.6,2.6-4,6-4,9.7C2.2,23.6,8.4,29.7,16,29.7L16,29.7z"/>
	</g>
	<g>
		<polygon fill="#F0F7F7" points="15.8,9.8 9,16 15.8,22.2 		"/>
		<path fill="#8F9BA8" d="M15.8,22.9c-0.2,0-0.4-0.1-0.5-0.2l-6.8-6.2c-0.2-0.1-0.2-0.3-0.2-0.6c0-0.2,0.1-0.4,0.2-0.6l6.8-6.2
			c0.2-0.2,0.5-0.3,0.8-0.1c0.3,0.1,0.4,0.4,0.4,0.7v12.3c0,0.3-0.2,0.6-0.4,0.7C16,22.9,15.9,22.9,15.8,22.9z M10.1,16l4.9,4.5
			v-8.9L10.1,16z"/>
	</g>
	<g>
		<polygon fill="#F0F7F7" points="15.8,14.3 15.8,17.7 20.7,22.2 20.7,9.8 		"/>
		<path fill="#8F9BA8" d="M20.7,22.9c-0.2,0-0.4-0.1-0.5-0.2l-4.9-4.5c-0.2-0.1-0.2-0.3-0.2-0.6v-3.4c0-0.2,0.1-0.4,0.2-0.6l4.9-4.5
			C20.4,9.1,20.7,9,21,9.2c0.3,0.1,0.4,0.4,0.4,0.7v12.3c0,0.3-0.2,0.6-0.4,0.7C20.9,22.9,20.8,22.9,20.7,22.9z M16.5,17.4l3.4,3.1
			v-8.9l-3.4,3.1V17.4z"/>
	</g>
</g>
</svg>
