<?xml version="1.0" encoding="utf-8"?>
<!-- Generator: Adobe Illustrator 18.0.0, SVG Export Plug-In . SVG Version: 6.00 Build 0)  -->
<!DOCTYPE svg PUBLIC "-//W3C//DTD SVG 1.1//EN" "http://www.w3.org/Graphics/SVG/1.1/DTD/svg11.dtd">
<svg version="1.1" id="Layer_1" xmlns="http://www.w3.org/2000/svg" xmlns:xlink="http://www.w3.org/1999/xlink" x="0px" y="0px"
	 viewBox="0 0 32 32" enable-background="new 0 0 32 32" xml:space="preserve">
<g>
	<g>
		<path fill="#79C693" d="M16,31.2C16,31.2,16,31.2,16,31.2L16,31.2C7.6,31.2,0.7,24.4,0.7,16c0-4.1,1.6-7.9,4.5-10.8
			C8.1,2.3,11.9,0.8,16,0.8c0,0,0,0,0,0c8.4,0,15.3,6.8,15.3,15.3c0,4.1-1.6,7.9-4.5,10.8C23.9,29.7,20.1,31.2,16,31.2z M16,29.7
			L16,29.7c3.7,0,7.1-1.4,9.7-4s4-6,4-9.7c0-7.6-6.2-13.8-13.8-13.8h0c-3.7,0-7.1,1.4-9.7,4c-2.6,2.6-4,6-4,9.7
			C2.2,23.6,8.4,29.7,16,29.7L16,29.7z"/>
	</g>
</g>
<g>
	<rect x="14.2" y="10.9" fill="#F0F7F7" width="3.6" height="10.3"/>
	<path fill="#8F9BA8" d="M18.6,21.9h-5.1V10.1h5.1V21.9z M14.9,20.4h2.1v-8.8h-2.1V20.4z"/>
</g>
<g>
	<rect x="14.2" y="10.9" fill="#F0F7F7" width="3.6" height="10.3"/>
	<path fill="#8F9BA8" d="M18.6,21.9h-5.1V10.1h5.1V21.9z M14.9,20.4h2.1v-8.8h-2.1V20.4z"/>
</g>
</svg>
