<?xml version="1.0" encoding="utf-8"?>
<!-- Generator: Adobe Illustrator 18.0.0, SVG Export Plug-In . SVG Version: 6.00 Build 0)  -->
<!DOCTYPE svg PUBLIC "-//W3C//DTD SVG 1.1//EN" "http://www.w3.org/Graphics/SVG/1.1/DTD/svg11.dtd">
<svg version="1.1" id="Layer_1" xmlns="http://www.w3.org/2000/svg" xmlns:xlink="http://www.w3.org/1999/xlink" x="0px" y="0px"
	 viewBox="0 0 32 32" enable-background="new 0 0 32 32" xml:space="preserve">
<g>
	<g>
		<path fill="#8F9BA8" d="M16,31.2L16,31.2L16,31.2C7.6,31.2,0.7,24.4,0.7,16c0-4.1,1.6-7.9,4.5-10.8S11.9,0.8,16,0.8l0,0
			c8.4,0,15.3,6.8,15.3,15.3c0,4.1-1.6,7.9-4.5,10.8C23.9,29.7,20.1,31.2,16,31.2z M16,29.7L16,29.7c3.7,0,7.1-1.4,9.7-4s4-6,4-9.7
			c0-7.6-6.2-13.8-13.8-13.8l0,0c-3.7,0-7.1,1.4-9.7,4s-4,6-4,9.7C2.2,23.6,8.4,29.7,16,29.7L16,29.7z"/>
	</g>
	<g>
		<polygon fill="#F0F7F7" points="12.3,22.2 21.9,16 12.3,9.8 		"/>
		<path fill="#8F9BA8" d="M12.3,22.9c-0.1,0-0.2,0-0.4-0.1s-0.4-0.4-0.4-0.7V9.8c0-0.3,0.1-0.5,0.4-0.7c0.2-0.1,0.5-0.1,0.8,0
			l9.6,6.2c0.2,0.1,0.3,0.4,0.3,0.6c0,0.3-0.1,0.5-0.3,0.6l-9.6,6.2C12.6,22.9,12.5,22.9,12.3,22.9z M13.1,11.2v9.6l7.5-4.8
			L13.1,11.2z"/>
	</g>
</g>
</svg>
