<?xml version="1.0" encoding="utf-8"?>
<!-- Generator: Adobe Illustrator 18.0.0, SVG Export Plug-In . SVG Version: 6.00 Build 0)  -->
<!DOCTYPE svg PUBLIC "-//W3C//DTD SVG 1.1//EN" "http://www.w3.org/Graphics/SVG/1.1/DTD/svg11.dtd">
<svg version="1.1" id="Layer_1" xmlns="http://www.w3.org/2000/svg" xmlns:xlink="http://www.w3.org/1999/xlink" x="0px" y="0px"
	 viewBox="0 0 32 32" enable-background="new 0 0 32 32" xml:space="preserve">
<g>
	<g>
		<path fill="#8F9BA8" d="M24,9.2H17c-0.4,0-0.8-0.3-0.8-0.8V1.5c0-0.3,0.2-0.6,0.5-0.7C17,0.7,17.3,0.8,17.5,1l6.9,6.9
			c0.2,0.2,0.3,0.5,0.2,0.8C24.5,9,24.3,9.2,24,9.2z M17.8,7.7h4.4l-4.4-4.4V7.7z"/>
	</g>
	<g>
		<path fill="#8F9BA8" d="M24,31.3H1.5c-0.4,0-0.8-0.3-0.8-0.8v-29c0-0.4,0.3-0.8,0.8-0.8H17c0.4,0,0.8,0.3,0.8,0.8v6.2H24
			c0.4,0,0.8,0.3,0.8,0.8v4.5c0,0.2-0.1,0.4-0.2,0.5c-0.1,0.1-0.3,0.2-0.5,0.2l-0.2,0v-0.7h-0.5V9.2H17c-0.4,0-0.8-0.3-0.8-0.8V2.3
			h-14v27.5h21v-3.3h0.5v-0.7l0.2,0c0.2,0,0.4,0.1,0.5,0.2c0.1,0.1,0.2,0.3,0.2,0.5v4C24.7,30.9,24.4,31.3,24,31.3z"/>
	</g>
	<g>
		<path fill="#FAC2C3" d="M24,12.9c-0.1,0-0.2,0-0.3,0c-3.8,0-6.8,3-6.8,6.8c0,3.8,3,6.8,6.8,6.8c0.1,0,0.2,0,0.3,0
			c3.6-0.1,6.5-3.1,6.5-6.8C30.5,16,27.6,13,24,12.9z"/>
		<path fill="#DA8C8C" d="M23.7,27.2c-4.2,0-7.5-3.4-7.5-7.5c0-4.2,3.4-7.5,7.5-7.5c0.1,0,0.1,0,0.2,0c4.2,0.2,7.3,3.5,7.3,7.5
			s-3.2,7.4-7.3,7.5C23.8,27.2,23.8,27.2,23.7,27.2z M23.7,13.6c-3.3,0-6,2.7-6,6c0,3.3,2.7,6,6,6l0.2,0c3.3-0.1,5.8-2.8,5.8-6
			s-2.6-5.9-5.8-6L23.7,13.6z"/>
	</g>
	<g>
		<line fill="#FAC2C3" x1="23.7" y1="16" x2="23.7" y2="23.1"/>
		<rect x="23" y="16" fill="#DA8C8C" width="1.5" height="7.1"/>
	</g>
	<g>
		<line fill="#FAC2C3" x1="27.3" y1="19.6" x2="20.1" y2="19.6"/>
		<rect x="20.1" y="18.8" fill="#DA8C8C" width="7.1" height="1.5"/>
	</g>
</g>
</svg>
