<?xml version="1.0" encoding="utf-8"?>
<!-- Generator: Adobe Illustrator 18.0.0, SVG Export Plug-In . SVG Version: 6.00 Build 0)  -->
<!DOCTYPE svg PUBLIC "-//W3C//DTD SVG 1.1//EN" "http://www.w3.org/Graphics/SVG/1.1/DTD/svg11.dtd">
<svg version="1.1" id="Layer_1" xmlns="http://www.w3.org/2000/svg" xmlns:xlink="http://www.w3.org/1999/xlink" x="0px" y="0px"
	 viewBox="0 0 32 32" enable-background="new 0 0 32 32" xml:space="preserve">
<g>
	<g>
		<path fill="#8F9BA8" d="M24,9.2h-7c-0.4,0-0.8-0.3-0.8-0.8V1.5c0-0.3,0.2-0.6,0.5-0.7s0.6,0,0.8,0.2l6.9,6.9
			c0.2,0.2,0.3,0.5,0.2,0.8C24.5,9,24.3,9.2,24,9.2z M17.8,7.7h4.4l-4.4-4.4V7.7z"/>
	</g>
	<g>
		<path fill="#8F9BA8" d="M24,31.3H1.5c-0.4,0-0.8-0.3-0.8-0.8v-29c0-0.4,0.3-0.8,0.8-0.8H17c0.4,0,0.8,0.3,0.8,0.8v6.2H24
			c0.4,0,0.8,0.3,0.8,0.8V13c0,0.2-0.1,0.4-0.2,0.5s-0.3,0.2-0.5,0.2h-0.2c-3.3,0-6,2.7-6,6s2.7,6,6,6h0.2c0.2,0,0.4,0.1,0.5,0.2
			s0.2,0.3,0.2,0.5v4C24.7,30.9,24.4,31.3,24,31.3z M2.3,29.8h21v-2.5c-3.9-0.3-7.1-3.5-7.1-7.5s3.1-7.3,7.1-7.5v-3H17
			c-0.4,0-0.8-0.3-0.8-0.8V2.3h-14L2.3,29.8L2.3,29.8z"/>
	</g>
	<g>
		<path fill="#F9F8F2" d="M24,12.9c-0.1,0-0.2,0-0.3,0c-3.8,0-6.8,3-6.8,6.8s3,6.8,6.8,6.8c0.1,0,0.2,0,0.3,0
			c3.6-0.1,6.5-3.1,6.5-6.8S27.6,13,24,12.9z"/>
		<path fill="#B4A79C" d="M23.7,27.2c-4.2,0-7.5-3.4-7.5-7.5c0-4.2,3.4-7.5,7.5-7.5c0.1,0,0.1,0,0.2,0c4.2,0.2,7.3,3.5,7.3,7.5
			s-3.2,7.4-7.3,7.5C23.8,27.2,23.8,27.2,23.7,27.2z M23.7,13.6c-3.3,0-6,2.7-6,6s2.7,6,6,6h0.2c3.3-0.1,5.8-2.8,5.8-6
			s-2.6-5.9-5.8-6H23.7z"/>
	</g>
	<g>
		<line fill="none" x1="26.2" y1="17" x2="21.2" y2="22.1"/>
		
			<rect x="23" y="16" transform="matrix(-0.7071 -0.7071 0.7071 -0.7071 26.6976 50.2316)" fill="#B4A79C" width="1.5" height="7.1"/>
	</g>
	<g>
		<line fill="none" x1="26.2" y1="22.1" x2="21.2" y2="17"/>
		
			<rect x="20.1" y="18.8" transform="matrix(-0.7072 -0.707 0.707 -0.7072 26.6334 50.0611)" fill="#B4A79C" width="7.1" height="1.5"/>
	</g>
</g>
</svg>
