<?xml version="1.0" encoding="utf-8"?>
<!-- Generator: Adobe Illustrator 18.0.0, SVG Export Plug-In . SVG Version: 6.00 Build 0)  -->
<!DOCTYPE svg PUBLIC "-//W3C//DTD SVG 1.1//EN" "http://www.w3.org/Graphics/SVG/1.1/DTD/svg11.dtd">
<svg version="1.1" id="Layer_1" xmlns="http://www.w3.org/2000/svg" xmlns:xlink="http://www.w3.org/1999/xlink" x="0px" y="0px"
	 viewBox="0 0 32 32" enable-background="new 0 0 32 32" xml:space="preserve">
<g>
	<g>
		<path fill="#FFFFFF" d="M29.4,14.8C22,6.3,10,6.3,2.6,14.8L1.5,16l1.1,1.2c7.4,8.5,19.5,8.5,26.9,0l1.1-1.2L29.4,14.8z"/>
		<path fill="#8F9BA8" d="M16,24.3C16,24.3,16,24.3,16,24.3c-5.3,0-10.3-2.4-14-6.6L0.5,16L2,14.3c3.7-4.3,8.7-6.6,14-6.6
			c5.3,0,10.3,2.4,14,6.6l1.5,1.7L30,17.7C26.3,22,21.3,24.3,16,24.3z M2.5,16l0.6,0.7c3.4,3.9,8,6.1,12.9,6.1h0
			c4.9,0,9.4-2.2,12.9-6.1l0.6-0.7l-0.6-0.7c-3.4-3.9-8-6.1-12.9-6.1c-4.9,0-9.4,2.2-12.9,6.1L2.5,16z"/>
	</g>
	<g>
		<circle fill="#FAC2C3" cx="16" cy="16" r="5"/>
		<path fill="#DA8C8C" d="M16,21.7c-3.2,0-5.7-2.6-5.7-5.7c0-3.2,2.6-5.7,5.7-5.7c3.2,0,5.7,2.6,5.7,5.7
			C21.7,19.2,19.2,21.7,16,21.7z M16,11.8c-2.3,0-4.2,1.9-4.2,4.2c0,2.3,1.9,4.2,4.2,4.2c2.3,0,4.2-1.9,4.2-4.2
			C20.2,13.7,18.3,11.8,16,11.8z"/>
	</g>
	<g>
		<circle fill="#FFFFFF" cx="16" cy="16" r="1.7"/>
		<path fill="#DA8C8C" d="M16,18.5c-1.4,0-2.5-1.1-2.5-2.5c0-1.4,1.1-2.5,2.5-2.5c1.4,0,2.5,1.1,2.5,2.5
			C18.5,17.4,17.4,18.5,16,18.5z M16,15c-0.5,0-1,0.4-1,1c0,0.5,0.4,1,1,1c0.5,0,1-0.4,1-1C17,15.5,16.5,15,16,15z"/>
	</g>
</g>
</svg>
