<?xml version="1.0" encoding="utf-8"?>
<!-- Generator: Adobe Illustrator 18.0.0, SVG Export Plug-In . SVG Version: 6.00 Build 0)  -->
<!DOCTYPE svg PUBLIC "-//W3C//DTD SVG 1.1//EN" "http://www.w3.org/Graphics/SVG/1.1/DTD/svg11.dtd">
<svg version="1.1" id="Layer_1" xmlns="http://www.w3.org/2000/svg" xmlns:xlink="http://www.w3.org/1999/xlink" x="0px" y="0px"
	 viewBox="0 0 32 32" enable-background="new 0 0 32 32" xml:space="preserve">
<g>
	<g>
		<polygon fill="#FFFFFF" points="20.3,1.5 4.8,1.5 4.8,30.5 27.2,30.5 27.2,8.4 20.3,8.4 		"/>
		<path fill="#74B1E0" d="M27.2,31.3H4.8c-0.4,0-0.8-0.3-0.8-0.8v-29c0-0.4,0.3-0.8,0.8-0.8h15.5c0.4,0,0.8,0.3,0.8,0.8v6.2h6.2
			C27.6,7.7,28,8,28,8.4v22.1C28,30.9,27.6,31.3,27.2,31.3z M5.5,29.8h21V9.2h-6.2c-0.4,0-0.8-0.3-0.8-0.8V2.3h-14V29.8z"/>
	</g>
	<g>
		<polygon fill="#CDE4F7" points="20.3,1.5 20.3,8.4 27.2,8.4 		"/>
		<path fill="#74B1E0" d="M27.2,9.2h-6.9c-0.4,0-0.8-0.3-0.8-0.8V1.5c0-0.3,0.2-0.6,0.5-0.7c0.3-0.1,0.6-0.1,0.8,0.2l6.9,6.9
			C28,8.1,28,8.5,27.9,8.7C27.8,9,27.5,9.2,27.2,9.2z M21,7.7h4.4L21,3.3V7.7z"/>
	</g>
</g>
</svg>
