<?xml version="1.0" encoding="utf-8"?>
<!-- Generator: Adobe Illustrator 18.0.0, SVG Export Plug-In . SVG Version: 6.00 Build 0)  -->
<!DOCTYPE svg PUBLIC "-//W3C//DTD SVG 1.1//EN" "http://www.w3.org/Graphics/SVG/1.1/DTD/svg11.dtd">
<svg version="1.1" id="Layer_1" xmlns="http://www.w3.org/2000/svg" xmlns:xlink="http://www.w3.org/1999/xlink" x="0px" y="0px"
	 viewBox="0 0 32 32" enable-background="new 0 0 32 32" xml:space="preserve">
<g>
	<g>
		<path fill="#8F9BA8" d="M16,31.2L16,31.2L16,31.2C7.6,31.2,0.7,24.4,0.7,16c0-4.1,1.6-7.9,4.5-10.8S11.9,0.8,16,0.8l0,0
			c8.4,0,15.3,6.8,15.3,15.3c0,4.1-1.6,7.9-4.5,10.8C23.9,29.7,20.1,31.2,16,31.2z M16,29.7L16,29.7c3.7,0,7.1-1.4,9.7-4s4-6,4-9.7
			c0-7.6-6.2-13.8-13.8-13.8l0,0c-3.7,0-7.1,1.4-9.7,4s-4,6-4,9.7C2.2,23.6,8.4,29.7,16,29.7L16,29.7z"/>
	</g>
	<g>
		<rect x="11.4" y="11.4" fill="#F0F7F7" width="9.1" height="9.1"/>
		<path fill="#8F9BA8" d="M21.3,21.3H10.7V10.7h10.6V21.3z M12.2,19.8h7.6v-7.6h-7.6C12.2,12.2,12.2,19.8,12.2,19.8z"/>
	</g>
</g>
</svg>
