<?xml version="1.0" encoding="utf-8"?>
<!-- Generator: Adobe Illustrator 18.0.0, SVG Export Plug-In . SVG Version: 6.00 Build 0)  -->
<!DOCTYPE svg PUBLIC "-//W3C//DTD SVG 1.1//EN" "http://www.w3.org/Graphics/SVG/1.1/DTD/svg11.dtd">
<svg version="1.1" id="Layer_1" xmlns="http://www.w3.org/2000/svg" xmlns:xlink="http://www.w3.org/1999/xlink" x="0px" y="0px"
	 viewBox="0 0 32 32" enable-background="new 0 0 32 32" xml:space="preserve">
<pattern  y="32" width="24.1" height="24.1" patternUnits="userSpaceOnUse" id="SVGID_4_" viewBox="0 -24.1 24.1 24.1" overflow="visible">
	<g>
		<polygon fill="none" points="0,0 24.1,0 24.1,-24.1 0,-24.1 		"/>
		<g>
			<polygon fill="none" points="0,-24.1 24.1,-24.1 24.1,0 0,0 			"/>
			<polygon fill="#E0CB81" points="24.1,-24.1 0,-24.1 0,0 24.1,0 			"/>
		</g>
	</g>
</pattern>
<pattern  y="32" width="24.1" height="24.1" patternUnits="userSpaceOnUse" id="SVGID_8_" viewBox="0 -24.1 24.1 24.1" overflow="visible">
	<g>
		<polygon fill="none" points="0,0 24.1,0 24.1,-24.1 0,-24.1 		"/>
		<g>
			<polygon fill="none" points="0,-24.1 24.1,-24.1 24.1,0 0,0 			"/>
			<polygon fill="#E0CB81" points="24.1,-24.1 0,-24.1 0,0 24.1,0 			"/>
		</g>
	</g>
</pattern>
<g>
	<g>
		<path fill="#8F9BA8" d="M16,31.2L16,31.2L16,31.2C7.6,31.2,0.7,24.4,0.7,16c0-4.1,1.6-7.9,4.5-10.8S11.9,0.8,16,0.8l0,0
			c8.4,0,15.3,6.8,15.3,15.3c0,4.1-1.6,7.9-4.5,10.8C23.9,29.7,20.1,31.2,16,31.2z M16,2.3c-3.7,0-7.1,1.4-9.7,4s-4,6-4,9.7
			c0,7.6,6.2,13.8,13.8,13.8v0.8v-0.8c3.7,0,7.1-1.4,9.7-4s4-6,4-9.7C29.8,8.4,23.6,2.3,16,2.3L16,2.3z"/>
	</g>
	<g>
		<g>
			<g>
				<defs>
					<polygon id="SVGID_1_" points="11.4,22.2 18.2,16 11.4,9.8 					"/>
				</defs>
				<clipPath id="SVGID_2_">
					<use xlink:href="#SVGID_1_"  overflow="visible"/>
				</clipPath>
				<g clip-path="url(#SVGID_2_)">
					<rect x="6.6" y="-13.9" fill="none" width="24.1" height="24.1"/>
					<rect x="6.6" y="-13.9" fill="#FEE99B" width="24.1" height="24.1"/>
				</g>
			</g>
			<g>
				<defs>
					<polygon id="SVGID_3_" points="11.4,22.2 18.2,16 11.4,9.8 					"/>
				</defs>
				<clipPath id="SVGID_5_">
					<use xlink:href="#SVGID_3_"  overflow="visible"/>
				</clipPath>
				<g clip-path="url(#SVGID_5_)">
					<rect x="6.6" y="10.3" fill="none" width="24.1" height="24.1"/>
					<rect x="6.6" y="10.3" fill="#FEE99B" width="24.1" height="24.1"/>
				</g>
			</g>
		</g>
		<pattern  id="SVGID_6_" xlink:href="#SVGID_4_" patternTransform="matrix(1 0 0 -1 -85.5284 -16130.0918)">
		</pattern>
		<path fill="url(#SVGID_6_)" d="M11.4,22.9c-0.1,0-0.2,0-0.3-0.1c-0.3-0.1-0.4-0.4-0.4-0.7V9.8c0-0.3,0.2-0.6,0.4-0.7
			c0.3-0.1,0.6,0,0.9,0.2l6.8,6.2c0.2,0.1,0.2,0.3,0.2,0.6c0,0.2-0.1,0.4-0.2,0.6l-6.8,6C11.8,22.8,11.6,22.9,11.4,22.9z M12.2,11.5
			v8.9l4.9-4.5L12.2,11.5z"/>
	</g>
	<g>
		<g>
			<g>
				<defs>
					<line id="SVGID_7_" x1="21.4" y1="21.5" x2="21.4" y2="10.5"/>
				</defs>
				<clipPath id="SVGID_9_">
					<use xlink:href="#SVGID_7_"  overflow="visible"/>
				</clipPath>
				<g clip-path="url(#SVGID_9_)">
					<rect x="6.6" y="10.3" fill="none" width="24.1" height="24.1"/>
					<rect x="6.6" y="10.3" fill="#FEE99B" width="24.1" height="24.1"/>
				</g>
			</g>
		</g>
		<pattern  id="SVGID_10_" xlink:href="#SVGID_8_" patternTransform="matrix(1 0 0 -1 -85.5284 -16130.0918)">
		</pattern>
		<rect x="20.7" y="10.5" fill="url(#SVGID_10_)" width="1.5" height="11"/>
	</g>
</g>
</svg>
