<?xml version="1.0" encoding="utf-8"?>
<!-- Generator: Adobe Illustrator 18.0.0, SVG Export Plug-In . SVG Version: 6.00 Build 0)  -->
<!DOCTYPE svg PUBLIC "-//W3C//DTD SVG 1.1//EN" "http://www.w3.org/Graphics/SVG/1.1/DTD/svg11.dtd">
<svg version="1.1" id="Layer_1" xmlns="http://www.w3.org/2000/svg" xmlns:xlink="http://www.w3.org/1999/xlink" x="0px" y="0px"
	 viewBox="0 0 32 32" enable-background="new 0 0 32 32" xml:space="preserve">
<g>
	<g>
		<path fill="#DA8C8C" d="M28,25.7H4c-1.8,0-3.2-1.4-3.2-3.2V11.8h30.5v10.7C31.3,24.2,29.8,25.7,28,25.7z M2.3,13.3v9.2
			c0,0.9,0.8,1.7,1.7,1.7H28c0.9,0,1.7-0.8,1.7-1.7v-9.2H2.3z"/>
	</g>
	<g>
		<line fill="#8F9BA8" x1="6.4" y1="19.3" x2="9.4" y2="19.3"/>
		<rect x="6.4" y="18.5" fill="#8F9BA8" width="2.9" height="1.5"/>
	</g>
	<g>
		<path fill="#FAC2C3" d="M30.5,9.5c0-1.4-1.1-2.5-2.5-2.5H4c-1.4,0-2.5,1.1-2.5,2.5v3h29V9.5z"/>
		<path fill="#DA8C8C" d="M31.3,13.3H0.8V9.5c0-1.8,1.4-3.2,3.2-3.2H28c1.8,0,3.2,1.4,3.2,3.2V13.3z M2.3,11.8h27.5V9.5
			c0-0.9-0.8-1.7-1.7-1.7H4C3,7.8,2.3,8.6,2.3,9.5V11.8z"/>
	</g>
</g>
</svg>
