<?xml version="1.0" encoding="utf-8"?>
<!-- Generator: Adobe Illustrator 18.0.0, SVG Export Plug-In . SVG Version: 6.00 Build 0)  -->
<!DOCTYPE svg PUBLIC "-//W3C//DTD SVG 1.1//EN" "http://www.w3.org/Graphics/SVG/1.1/DTD/svg11.dtd">
<svg version="1.1" id="Layer_1" xmlns="http://www.w3.org/2000/svg" xmlns:xlink="http://www.w3.org/1999/xlink" x="0px" y="0px"
	 viewBox="0 0 32 32" enable-background="new 0 0 32 32" xml:space="preserve">
<g>
	<g>
		<path fill="#8F9BA8" d="M30.5,31.3h-29c-0.4,0-0.7-0.3-0.7-0.8V12.3c0-0.3,0.2-0.5,0.4-0.7c0.3-0.1,0.6-0.1,0.8,0.1L16,22
			l14.1-10.3c0.2-0.2,0.5-0.2,0.8-0.1c0.3,0.1,0.4,0.4,0.4,0.7v18.2C31.3,30.9,30.9,31.3,30.5,31.3z M2.3,29.8h27.5v-16l-13.3,9.8
			c-0.3,0.2-0.6,0.2-0.9,0L2.3,13.8V29.8z"/>
	</g>
	<g>
		
			<rect x="18.2" y="24.3" transform="matrix(-0.6732 -0.7394 0.7394 -0.6732 24.2283 60.8172)" fill="#8F9BA8" width="14.7" height="1.5"/>
	</g>
	<g>
		
			<rect x="5.7" y="17.7" transform="matrix(-0.7395 -0.6731 0.6731 -0.7395 -5.6281 47.9155)" fill="#8F9BA8" width="1.5" height="14.7"/>
	</g>
	<g>
		<polygon fill="#F9F8F2" points="30.5,12.3 16,1.5 1.5,12.3 16,23 		"/>
		<path fill="#B4A79C" d="M16,23.7c-0.2,0-0.3,0-0.4-0.1L1.1,13c-0.2-0.1-0.3-0.4-0.3-0.6c0-0.2,0.1-0.5,0.3-0.6L15.6,0.9
			c0.3-0.2,0.6-0.2,0.9,0L31,11.7c0.2,0.1,0.3,0.4,0.3,0.6c0,0.2-0.1,0.5-0.3,0.6L16.4,23.6C16.3,23.7,16.2,23.7,16,23.7z M2.8,12.3
			L16,22l13.2-9.7L16,2.4L2.8,12.3z"/>
	</g>
	<g>
		<polyline fill="#F9F8F2" points="19.6,10.2 16,6.5 12.4,10.2 		"/>
		<polygon fill="#B4A79C" points="19.1,10.7 16,7.6 12.9,10.7 11.8,9.7 16,5.5 20.2,9.7 		"/>
	</g>
	<g>
		<line fill="none" x1="16" y1="6.5" x2="16" y2="16.6"/>
		<rect x="15.3" y="6.5" fill="#B4A79C" width="1.5" height="10.1"/>
	</g>
</g>
</svg>
