<?xml version="1.0" encoding="utf-8"?>
<!-- Generator: Adobe Illustrator 18.0.0, SVG Export Plug-In . SVG Version: 6.00 Build 0)  -->
<!DOCTYPE svg PUBLIC "-//W3C//DTD SVG 1.1//EN" "http://www.w3.org/Graphics/SVG/1.1/DTD/svg11.dtd">
<svg version="1.1" id="Layer_1" xmlns="http://www.w3.org/2000/svg" xmlns:xlink="http://www.w3.org/1999/xlink" x="0px" y="0px"
	 viewBox="0 0 32 32" enable-background="new 0 0 32 32" xml:space="preserve">
<g>
	<g>
		<path fill="#F0F7F7" d="M12.6,16.4l-9.8,8.2c-1.6,1.3-1.6,3.7-0.1,5.1l0,0c1.4,1.2,3.5,1.1,4.8-0.3l8.2-9.3L12.6,16.4z"/>
		<path fill="#8F9BA8" d="M4.9,31.3L4.9,31.3c-1,0-2-0.4-2.7-1c-0.9-0.8-1.4-1.9-1.4-3.1c0-1.2,0.6-2.3,1.5-3.1l9.8-8.2
			c0.2-0.1,0.4-0.2,0.5-0.2c0.2,0,0.4,0.1,0.5,0.3l3,3.6c0.2,0.3,0.2,0.7,0,1L8,29.8C7.2,30.7,6.1,31.3,4.9,31.3z M12.5,17.4
			l-9.3,7.7c-0.6,0.5-0.9,1.2-0.9,2c0,0.8,0.3,1.5,0.9,2c0.5,0.4,1.1,0.7,1.7,0.7l0,0c0.8,0,1.5-0.3,2-0.9l7.7-8.9L12.5,17.4z"/>
	</g>
	<g>
		<line fill="#F0F7F7" x1="4.4" y1="27.2" x2="5.9" y2="25.9"/>
		<rect x="4.4" y="25.6" transform="matrix(0.6395 0.7688 -0.7688 0.6395 22.2807 5.5794)" fill="#8F9BA8" width="1.5" height="2"/>
	</g>
	<g>
		<path fill="#FFFFFF" d="M17.9,22.8C29.7,12.9,30.5,1.5,30.5,1.5L12.6,16.4L17.9,22.8z"/>
		<path fill="#8F9BA8" d="M17.9,23.5c-0.2,0-0.4-0.1-0.6-0.3L12,16.8c-0.1-0.2-0.2-0.3-0.2-0.5c0-0.2,0.1-0.4,0.3-0.5L30,0.9
			c0.2-0.2,0.6-0.2,0.8-0.1c0.3,0.1,0.4,0.4,0.4,0.7c0,0.5-0.9,11.9-12.8,21.8C18.3,23.5,18.1,23.5,17.9,23.5z M13.6,16.5l4.4,5.2
			c8.2-7,10.7-14.8,11.4-18.4L13.6,16.5z"/>
	</g>
</g>
</svg>
