<?xml version="1.0" encoding="utf-8"?>
<!-- Generator: Adobe Illustrator 18.0.0, SVG Export Plug-In . SVG Version: 6.00 Build 0)  -->
<!DOCTYPE svg PUBLIC "-//W3C//DTD SVG 1.1//EN" "http://www.w3.org/Graphics/SVG/1.1/DTD/svg11.dtd">
<svg version="1.1" id="Layer_1" xmlns="http://www.w3.org/2000/svg" xmlns:xlink="http://www.w3.org/1999/xlink" x="0px" y="0px"
	 viewBox="0 0 32 32" enable-background="new 0 0 32 32" xml:space="preserve">
<g>
	<g>
		<path fill="#79C693" d="M16,31.3c-4.3,0-7.7-6.7-7.7-15.3S11.7,0.8,16,0.8c4.3,0,7.7,6.7,7.7,15.3S20.3,31.3,16,31.3z M16,2.3
			c-3.4,0-6.2,6.3-6.2,13.8s2.8,13.8,6.2,13.8s6.2-6.3,6.2-13.8S19.4,2.3,16,2.3z"/>
	</g>
	<g>
		<path fill="#79C693" d="M6.6,26.6c-2,0-3.6-0.6-4.5-1.6c-0.7-0.8-0.9-1.9-0.7-3.1C2,18.5,5.9,14,11.5,10.4c4.9-3.1,10.1-5,13.9-5
			c2,0,3.6,0.6,4.5,1.6c0.7,0.8,0.9,1.9,0.7,3.1C30,13.5,26.1,18,20.5,21.6C15.6,24.7,10.4,26.6,6.6,26.6z M25.4,6.9
			c-3.5,0-8.5,1.8-13.1,4.7c-5.2,3.3-9,7.5-9.4,10.5c-0.1,0.8,0,1.4,0.4,1.9c0.6,0.7,1.7,1.1,3.3,1.1c3.5,0,8.5-1.8,13.1-4.7
			c5.2-3.3,9-7.5,9.4-10.5c0.1-0.8,0-1.4-0.4-1.9C28.1,7.3,27,6.9,25.4,6.9z"/>
	</g>
	<g>
		<path fill="#79C693" d="M25.4,26.6L25.4,26.6c-3.8,0-9-1.9-13.9-5C5.9,18.1,2,13.5,1.4,10.1C1.2,8.9,1.5,7.8,2.1,7
			C3,6,4.6,5.4,6.6,5.4c3.8,0,9,1.9,13.9,5c5.6,3.6,9.6,8.1,10.1,11.5c0.2,1.2-0.1,2.3-0.7,3.1C29,26,27.4,26.6,25.4,26.6z M6.6,6.9
			C5,6.9,3.9,7.3,3.3,8C2.9,8.5,2.8,9.1,2.9,9.9c0.5,2.9,4.3,7.2,9.4,10.5c4.6,2.9,9.6,4.7,13.1,4.7h0c1.6,0,2.7-0.4,3.3-1.1
			c0.4-0.5,0.5-1.1,0.4-1.9c-0.5-2.9-4.3-7.2-9.4-10.5C15.1,8.7,10.1,6.9,6.6,6.9z"/>
	</g>
	<g>
		<path fill="#79C693" d="M16,19.7c-2.1,0-3.8-1.7-3.8-3.7s1.7-3.7,3.8-3.7c2.1,0,3.8,1.7,3.8,3.7S18.1,19.7,16,19.7z M16,13.8
			c-1.3,0-2.3,1-2.3,2.2c0,1.2,1,2.2,2.3,2.2c1.3,0,2.3-1,2.3-2.2C18.3,14.8,17.3,13.8,16,13.8z"/>
	</g>
</g>
</svg>
