<?xml version="1.0" encoding="utf-8"?>
<!-- Generator: Adobe Illustrator 18.0.0, SVG Export Plug-In . SVG Version: 6.00 Build 0)  -->
<!DOCTYPE svg PUBLIC "-//W3C//DTD SVG 1.1//EN" "http://www.w3.org/Graphics/SVG/1.1/DTD/svg11.dtd">
<svg version="1.1" id="Layer_1" xmlns="http://www.w3.org/2000/svg" xmlns:xlink="http://www.w3.org/1999/xlink" x="0px" y="0px"
	 viewBox="0 0 32 32" enable-background="new 0 0 32 32" xml:space="preserve">
<g>
	<g>
		<path fill="#8F9BA8" d="M5.7,31.3c-1.3,0-2.6-0.5-3.5-1.5c-1.9-1.9-1.9-5.1,0-7.1c0.9-0.9,2.2-1.5,3.5-1.5s2.6,0.5,3.5,1.5
			c0.9,0.9,1.5,2.2,1.5,3.5c0,1.3-0.5,2.6-1.5,3.5C8.3,30.7,7.1,31.3,5.7,31.3z M5.7,22.8c-0.9,0-1.8,0.4-2.5,1
			c-1.4,1.4-1.4,3.6,0,4.9c1.3,1.3,3.6,1.3,4.9,0c0.7-0.7,1-1.5,1-2.5c0-0.9-0.4-1.8-1-2.5C7.6,23.1,6.7,22.8,5.7,22.8z"/>
	</g>
	<g>
		<path fill="#8F9BA8" d="M3.3,23.7l-1.2-0.9c9.5-12.1,13-14.2,13.2-14.2l0.7,1.3l-0.4-0.7l0.4,0.6C16,9.9,12.5,12,3.3,23.7z"/>
	</g>
	<g>
		<path fill="#8F9BA8" d="M9.2,29.8l-0.9-1.2C20,19.5,22.1,16,22.2,15.9l1.3,0.7C23.4,16.8,21.3,20.4,9.2,29.8z"/>
	</g>
	<g>
		<path fill="#F9F8F2" d="M22.7,16.3l-7-7c-0.7-0.7-0.7-1.7,0-2.4l3.5-3.5c2.6-2.6,6.8-2.6,9.4,0h0c2.6,2.6,2.6,6.8,0,9.4l-3.5,3.5
			C24.4,17,23.3,17,22.7,16.3z"/>
		<path fill="#B4A79C" d="M23.9,17.6c-0.7,0-1.3-0.3-1.7-0.7l-7-7c-0.5-0.5-0.7-1.1-0.7-1.7c0-0.7,0.3-1.3,0.7-1.7l3.5-3.5
			c1.4-1.4,3.3-2.2,5.2-2.2c2,0,3.8,0.8,5.2,2.2c2.9,2.9,2.9,7.6,0,10.4l-3.5,3.5C25.1,17.3,24.5,17.6,23.9,17.6z M23.9,2.2
			c-1.6,0-3.1,0.6-4.2,1.7l-3.5,3.5c-0.2,0.2-0.3,0.4-0.3,0.7c0,0.3,0.1,0.5,0.3,0.7l7,7c0.4,0.4,1,0.4,1.3,0l3.5-3.5
			c2.3-2.3,2.3-6,0-8.3C26.9,2.9,25.4,2.2,23.9,2.2z"/>
	</g>
	<g>
		<circle fill="#FFFFFF" cx="23.3" cy="8.7" r="2.6"/>
		<path fill="#B4A79C" d="M23.3,12.1c-0.9,0-1.8-0.4-2.4-1c-0.6-0.6-1-1.5-1-2.4c0-0.9,0.4-1.8,1-2.4c1.3-1.3,3.5-1.3,4.8,0
			c0.6,0.6,1,1.5,1,2.4c0,0.9-0.4,1.8-1,2.4C25,11.8,24.2,12.1,23.3,12.1z M23.3,6.8c-0.5,0-1,0.2-1.3,0.6c-0.4,0.4-0.6,0.8-0.6,1.3
			s0.2,1,0.6,1.3c0.7,0.7,1.9,0.7,2.7,0c0.4-0.4,0.6-0.8,0.6-1.3s-0.2-1-0.6-1.3C24.2,7,23.8,6.8,23.3,6.8z"/>
	</g>
	<g>
		<line fill="#F2E8B9" x1="21.4" y1="10.6" x2="19.2" y2="12.8"/>
		
			<rect x="19.5" y="10.1" transform="matrix(0.7071 0.7071 -0.7071 0.7071 14.2221 -10.9177)" fill="#B4A79C" width="1.5" height="3.2"/>
	</g>
</g>
</svg>
