<?xml version="1.0" encoding="utf-8"?>
<!-- Generator: Adobe Illustrator 18.0.0, SVG Export Plug-In . SVG Version: 6.00 Build 0)  -->
<!DOCTYPE svg PUBLIC "-//W3C//DTD SVG 1.1//EN" "http://www.w3.org/Graphics/SVG/1.1/DTD/svg11.dtd">
<svg version="1.1" id="Layer_1" xmlns="http://www.w3.org/2000/svg" xmlns:xlink="http://www.w3.org/1999/xlink" x="0px" y="0px"
	 viewBox="0 0 32 32" enable-background="new 0 0 32 32" xml:space="preserve">
<g>
	<g>
		<path fill="#CDE4F7" d="M10.4,13.9c1.2-0.9,1.3-2.7,0.2-3.8L6.7,6.2C5.5,5,3.4,5.3,2.6,6.9c0,0,0,0.1-0.1,0.1
			c-1.9,3.8-1.1,8.4,1.9,11.5l9.1,9.1c3,3,7.6,3.8,11.5,1.9c0,0,0.1,0,0.1-0.1c1.6-0.8,2-2.9,0.7-4.2L22,21.4
			c-1.1-1.1-2.9-1-3.8,0.2c-1,1.2-2.8,1.3-3.9,0.2l-4.1-4.1C9.1,16.7,9.2,14.8,10.4,13.9z"/>
		<path fill="#74B1E0" d="M20.6,31.2c-2.8,0-5.6-1.2-7.6-3.2L3.9,19c-3.3-3.3-4.1-8.2-2.1-12.3l0.1-0.1c0.6-1.2,1.7-1.9,3-1.9
			c0.9,0,1.7,0.3,2.3,1l3.8,3.8c0.7,0.7,1,1.6,1,2.6c-0.1,0.9-0.5,1.8-1.2,2.4c-0.4,0.3-0.7,0.8-0.7,1.3c0,0.5,0.2,1,0.5,1.4
			l4.1,4.1c0.8,0.8,2.1,0.7,2.8-0.2c0.6-0.8,1.5-1.2,2.6-1.2c0.9,0,1.8,0.4,2.4,1l3.8,3.8c0.8,0.8,1.1,1.8,0.9,2.9
			c-0.2,1.1-0.8,2-1.8,2.5l-0.1,0.1C23.9,30.9,22.3,31.2,20.6,31.2z M4.9,6.2c-0.7,0-1.4,0.4-1.7,1l0,0.1c-1.7,3.5-1,7.8,1.8,10.6
			l9.1,9.1c1.7,1.7,4.1,2.7,6.6,2.7c1.4,0,2.8-0.3,4-0.9l0.1,0c0.6-0.3,0.9-0.8,1-1.4c0.1-0.6-0.1-1.2-0.5-1.6L21.4,22
			c-0.7-0.7-2.1-0.7-2.7,0.1c-0.6,0.8-1.6,1.3-2.6,1.3c-0.9,0-1.7-0.3-2.4-1l-4.1-4.1c-0.7-0.7-1-1.6-1-2.6c0.1-1,0.5-1.8,1.3-2.4
			c0.4-0.3,0.6-0.8,0.7-1.3c0-0.5-0.2-1.1-0.5-1.4L6.2,6.7C5.9,6.4,5.4,6.2,4.9,6.2z"/>
	</g>
	<g>
		<path fill="#FFFFFF" d="M15.4,1.5c8.4,0,15.1,6.8,15.1,15.1"/>
		<path fill="#8F9BA8" d="M31.3,16.6h-1.5c0-7.9-6.5-14.4-14.4-14.4V0.7C24.1,0.7,31.3,7.9,31.3,16.6z"/>
	</g>
	<g>
		<path fill="#FFFFFF" d="M15.4,6.4c5.6,0,10.2,4.6,10.2,10.2"/>
		<path fill="#8F9BA8" d="M26.3,16.6h-1.5c0-2.5-1-4.9-2.8-6.7c-1.8-1.8-4.2-2.8-6.7-2.8V5.7c2.9,0,5.7,1.1,7.8,3.2
			C25.2,11,26.3,13.7,26.3,16.6z"/>
	</g>
	<g>
		<path fill="#FFFFFF" d="M15.4,11.8c2.7,0,4.9,2.2,4.9,4.9"/>
		<path fill="#8F9BA8" d="M21,16.6h-1.5c0-2.3-1.9-4.1-4.1-4.1V11C18.5,11,21,13.5,21,16.6z"/>
	</g>
</g>
</svg>
