<?xml version="1.0" encoding="utf-8"?>
<!-- Generator: Adobe Illustrator 18.0.0, SVG Export Plug-In . SVG Version: 6.00 Build 0)  -->
<!DOCTYPE svg PUBLIC "-//W3C//DTD SVG 1.1//EN" "http://www.w3.org/Graphics/SVG/1.1/DTD/svg11.dtd">
<svg version="1.1" id="Layer_1" xmlns="http://www.w3.org/2000/svg" xmlns:xlink="http://www.w3.org/1999/xlink" x="0px" y="0px"
	 viewBox="0 0 32 32" enable-background="new 0 0 32 32" xml:space="preserve">
<g>
	<g>
		<path fill="#DA8C8C" d="M20.9,31.3h-9.8V20.9H0.8v-9.8h10.3V0.8h9.8v10.3h10.3v9.8H20.9C20.9,20.9,20.9,31.3,20.9,31.3z
			 M12.6,29.8h6.8V19.4h10.3v-6.8H19.4V2.3h-6.8v10.3H2.3v6.8h10.3C12.6,19.4,12.6,29.8,12.6,29.8z"/>
	</g>
	<g>
		<polygon fill="#DA8C8C" points="26.6,18.2 25.5,17.1 26.6,16 25.5,14.9 26.6,13.8 28.8,16 		"/>
	</g>
	<g>
		<polygon fill="#DA8C8C" points="5.4,18.2 3.2,16 5.4,13.8 6.5,14.9 5.4,16 6.5,17.1 		"/>
	</g>
	<g>
		<polygon fill="#DA8C8C" points="16,28.8 13.8,26.6 14.9,25.5 16,26.6 17.1,25.5 18.2,26.6 		"/>
	</g>
	<g>
		<polygon fill="#DA8C8C" points="14.9,6.5 13.8,5.4 16,3.2 18.2,5.4 17.1,6.5 16,5.4 		"/>
	</g>
</g>
</svg>
