<?xml version="1.0" encoding="utf-8"?>
<!-- Generator: Adobe Illustrator 18.0.0, SVG Export Plug-In . SVG Version: 6.00 Build 0)  -->
<!DOCTYPE svg PUBLIC "-//W3C//DTD SVG 1.1//EN" "http://www.w3.org/Graphics/SVG/1.1/DTD/svg11.dtd">
<svg version="1.1" id="Layer_1" xmlns="http://www.w3.org/2000/svg" xmlns:xlink="http://www.w3.org/1999/xlink" x="0px" y="0px"
	 viewBox="0 0 32 32" enable-background="new 0 0 32 32" xml:space="preserve">
<g>
	<g>
		<path fill="#FAC2C3" d="M24.2,30.5H7.8c-1.1,0-2-0.9-2-2v-25c0-1.1,0.9-2,2-2h16.4c1.1,0,2,0.9,2,2v24.9
			C26.2,29.6,25.3,30.5,24.2,30.5z"/>
		<path fill="#DA8C8C" d="M24.2,31.3H7.8C6.2,31.3,5,30,5,28.5v-25C5,2,6.2,0.8,7.8,0.8h16.4C25.8,0.8,27,2,27,3.5v24.9
			C27,30,25.8,31.3,24.2,31.3z M7.8,2.3c-0.7,0-1.3,0.6-1.3,1.3v24.9c0,0.7,0.6,1.3,1.3,1.3h16.4c0.7,0,1.3-0.6,1.3-1.3v-25
			c0-0.7-0.6-1.3-1.3-1.3L7.8,2.3L7.8,2.3z"/>
	</g>
	<g>
		<path fill="#F2E8B9" d="M16,8.4c0,0-6.5,3.4-6.5,8.4c0,1.9,1.5,3.4,3.4,3.4c0.8,0,1.4-0.2,2-0.7l-1.2,4.1h4.6l-1.2-4.1
			c0.6,0.4,1.3,0.7,2,0.7c1.9,0,3.4-1.5,3.4-3.4C22.5,11.8,16,8.4,16,8.4z"/>
		<path fill="#B4A042" d="M18.3,24.4h-4.6c-0.2,0-0.5-0.1-0.6-0.3c-0.1-0.2-0.2-0.4-0.1-0.7l0.8-2.6c-0.3,0.1-0.5,0.1-0.8,0.1
			c-2.3,0-4.2-1.9-4.2-4.2c0-5.3,6.6-8.9,6.9-9c0.2-0.1,0.5-0.1,0.7,0c0.3,0.1,6.9,3.7,6.9,9c0,2.3-1.9,4.2-4.2,4.2
			c-0.3,0-0.6,0-0.8-0.1l0.8,2.6c0.1,0.2,0,0.5-0.1,0.7C18.8,24.3,18.5,24.4,18.3,24.4z M14.7,22.9h2.6l-0.9-3.1
			c-0.1-0.3,0-0.6,0.3-0.8c0.3-0.2,0.6-0.2,0.9,0c0.5,0.3,1,0.5,1.6,0.5c1.5,0,2.7-1.2,2.7-2.7c0-3.8-4.5-6.8-5.8-7.5
			c-1.3,0.8-5.8,3.7-5.8,7.5c0,1.5,1.2,2.7,2.7,2.7c0.6,0,1.1-0.2,1.6-0.5c0.3-0.2,0.6-0.2,0.9,0c0.3,0.2,0.4,0.5,0.3,0.8L14.7,22.9
			z"/>
	</g>
</g>
</svg>
