<?xml version="1.0" encoding="utf-8"?>
<!-- Generator: Adobe Illustrator 18.0.0, SVG Export Plug-In . SVG Version: 6.00 Build 0)  -->
<!DOCTYPE svg PUBLIC "-//W3C//DTD SVG 1.1//EN" "http://www.w3.org/Graphics/SVG/1.1/DTD/svg11.dtd">
<svg version="1.1" id="Layer_1" xmlns="http://www.w3.org/2000/svg" xmlns:xlink="http://www.w3.org/1999/xlink" x="0px" y="0px"
	 viewBox="0 0 32 32" enable-background="new 0 0 32 32" xml:space="preserve">
<g>
	<g>
		<path fill="#CDE4F7" d="M24.2,30.5H7.8c-1.1,0-2-0.9-2-2V3.5c0-1.1,0.9-2,2-2h16.4c1.1,0,2,0.9,2,2v24.9
			C26.2,29.6,25.3,30.5,24.2,30.5z"/>
		<path fill="#74B1E0" d="M24.2,31.3H7.8C6.2,31.3,5,30,5,28.5V3.5C5,2,6.2,0.8,7.8,0.8h16.4C25.8,0.8,27,2,27,3.5v24.9
			C27,30,25.8,31.3,24.2,31.3z M7.8,2.3c-0.7,0-1.3,0.6-1.3,1.3v24.9c0,0.7,0.6,1.3,1.3,1.3h16.4c0.7,0,1.3-0.6,1.3-1.3V3.5
			c0-0.7-0.6-1.3-1.3-1.3H7.8z"/>
	</g>
	<g>
		<path fill="#F0F7F7" d="M19.1,10.1c-1.3,0-2.5,0.8-3.1,1.9c-0.6-1.1-1.7-1.9-3.1-1.9c-1.9,0-3.4,1.5-3.4,3.4c0,5,6.5,8.4,6.5,8.4
			s6.5-3.4,6.5-8.4C22.5,11.6,21,10.1,19.1,10.1z"/>
		<path fill="#8F9BA8" d="M16,22.7c-0.1,0-0.2,0-0.3-0.1c-0.3-0.1-6.9-3.7-6.9-9c0-2.3,1.9-4.2,4.2-4.2c1.2,0,2.3,0.5,3.1,1.3
			c0.8-0.8,1.9-1.3,3.1-1.3c2.3,0,4.2,1.9,4.2,4.2c0,5.3-6.6,8.9-6.9,9C16.2,22.6,16.1,22.7,16,22.7z M12.9,10.8
			c-1.5,0-2.7,1.2-2.7,2.7c0,3.8,4.5,6.8,5.8,7.5c1.3-0.8,5.8-3.7,5.8-7.5c0-1.5-1.2-2.7-2.7-2.7c-1,0-1.9,0.6-2.4,1.5
			c-0.3,0.5-1.1,0.5-1.3,0C14.9,11.4,13.9,10.8,12.9,10.8z"/>
	</g>
</g>
</svg>
