<?xml version="1.0" encoding="utf-8"?>
<!-- Generator: Adobe Illustrator 18.0.0, SVG Export Plug-In . SVG Version: 6.00 Build 0)  -->
<!DOCTYPE svg PUBLIC "-//W3C//DTD SVG 1.1//EN" "http://www.w3.org/Graphics/SVG/1.1/DTD/svg11.dtd">
<svg version="1.1" id="Layer_1" xmlns="http://www.w3.org/2000/svg" xmlns:xlink="http://www.w3.org/1999/xlink" x="0px" y="0px"
	 viewBox="0 0 32 32" enable-background="new 0 0 32 32" xml:space="preserve">
<g>
	<g>
		<path fill="#79C693" d="M24.2,31.3H7.8C6.2,31.3,5,30,5,28.5V3.5C5,2,6.2,0.8,7.8,0.8h16.4C25.8,0.8,27,2,27,3.5v24.9
			C27,30,25.8,31.3,24.2,31.3z M7.8,2.3c-0.7,0-1.3,0.6-1.3,1.3v24.9c0,0.7,0.6,1.3,1.3,1.3h16.4c0.7,0,1.3-0.6,1.3-1.3V3.5
			c0-0.7-0.6-1.3-1.3-1.3H7.8z"/>
	</g>
	<g>
		<path fill="#F0F7F7" d="M19.3,12.9c0.3-0.6,0.5-1.2,0.5-1.9c0-2.1-1.7-3.8-3.8-3.8c-2.1,0-3.8,1.7-3.8,3.8c0,0.7,0.2,1.3,0.5,1.9
			C10.7,13,9,14.6,9,16.7c0,2.1,1.7,3.8,3.8,3.8c0.8,0,1.5-0.2,2-0.6l-1.5,4.9h5.3l-1.5-4.9c0.6,0.4,1.3,0.6,2,0.6
			c2.1,0,3.8-1.7,3.8-3.8C23,14.6,21.3,13,19.3,12.9z"/>
		<path fill="#8F9BA8" d="M18.6,25.5h-5.3c-0.2,0-0.5-0.1-0.6-0.3c-0.1-0.2-0.2-0.4-0.1-0.7l1-3.4c-0.3,0.1-0.6,0.1-0.9,0.1
			c-2.5,0-4.5-2-4.5-4.5c0-2.1,1.5-3.9,3.4-4.4c-0.1-0.4-0.2-0.8-0.2-1.3c0-2.5,2-4.5,4.5-4.5c2.5,0,4.5,2,4.5,4.5
			c0,0.4-0.1,0.9-0.2,1.3c1.9,0.5,3.4,2.3,3.4,4.4c0,2.5-2,4.5-4.5,4.5c-0.3,0-0.6,0-0.9-0.1l1,3.4c0.1,0.2,0,0.5-0.1,0.7
			C19.1,25.4,18.9,25.5,18.6,25.5z M14.4,24h3.2l-1.2-3.9c-0.1-0.3,0-0.6,0.3-0.8c0.3-0.2,0.6-0.2,0.9,0c0.5,0.3,1.1,0.5,1.6,0.5
			c1.7,0,3-1.4,3-3c0-1.6-1.3-3-3-3c-0.3,0-0.5-0.1-0.6-0.4c-0.1-0.2-0.1-0.5,0-0.7c0.3-0.5,0.4-1,0.4-1.5c0-1.7-1.4-3-3-3
			c-1.7,0-3,1.4-3,3c0,0.5,0.1,1,0.4,1.5c0.1,0.2,0.1,0.5,0,0.7c-0.1,0.2-0.4,0.4-0.6,0.4c-1.6,0-3,1.4-3,3c0,1.7,1.4,3,3,3
			c0.6,0,1.1-0.2,1.6-0.5c0.3-0.2,0.6-0.2,0.9,0c0.3,0.2,0.4,0.5,0.3,0.8L14.4,24z"/>
	</g>
</g>
</svg>
