<?xml version="1.0" encoding="utf-8"?>
<!-- Generator: Adobe Illustrator 18.0.0, SVG Export Plug-In . SVG Version: 6.00 Build 0)  -->
<!DOCTYPE svg PUBLIC "-//W3C//DTD SVG 1.1//EN" "http://www.w3.org/Graphics/SVG/1.1/DTD/svg11.dtd">
<svg version="1.1" id="Layer_1" xmlns="http://www.w3.org/2000/svg" xmlns:xlink="http://www.w3.org/1999/xlink" x="0px" y="0px"
	 viewBox="0 0 32 32" enable-background="new 0 0 32 32" xml:space="preserve">
<g>
	<g>
		<path fill="#B4A79C" d="M24.2,31.3H7.8C6.2,31.3,5,30,5,28.5V3.5C5,2,6.2,0.8,7.8,0.8h16.4C25.8,0.8,27,2,27,3.5v24.9
			C27,30,25.8,31.3,24.2,31.3z M7.8,2.3c-0.7,0-1.3,0.6-1.3,1.3v24.9c0,0.7,0.6,1.3,1.3,1.3h16.4c0.7,0,1.3-0.6,1.3-1.3V3.5
			c0-0.7-0.6-1.3-1.3-1.3H7.8z"/>
	</g>
	<g>
		<polygon fill="#FAC2C3" points="16,8.4 10.7,16 16,23.6 21.3,16 		"/>
		<path fill="#DA8C8C" d="M16,24.3L16,24.3c-0.2,0-0.5-0.1-0.6-0.3L10,16.4c-0.2-0.3-0.2-0.6,0-0.9L15.4,8c0.1-0.2,0.4-0.3,0.6-0.3
			l0,0c0.2,0,0.5,0.1,0.6,0.3l5.3,7.6c0.2,0.3,0.2,0.6,0,0.9L16.6,24C16.5,24.2,16.2,24.3,16,24.3z M11.6,16l4.4,6.3l4.4-6.3L16,9.7
			L11.6,16z"/>
	</g>
</g>
</svg>
