<?xml version="1.0" encoding="utf-8"?>
<!-- Generator: Adobe Illustrator 18.0.0, SVG Export Plug-In . SVG Version: 6.00 Build 0)  -->
<!DOCTYPE svg PUBLIC "-//W3C//DTD SVG 1.1//EN" "http://www.w3.org/Graphics/SVG/1.1/DTD/svg11.dtd">
<svg version="1.1" id="Layer_1" xmlns="http://www.w3.org/2000/svg" xmlns:xlink="http://www.w3.org/1999/xlink" x="0px" y="0px"
	 viewBox="0 0 32 32" enable-background="new 0 0 32 32" xml:space="preserve">
<g>
	<g>
		<path fill="#8F9BA8" d="M21.3,9.4H10.7C10.3,9.4,10,9,10,8.6V3.7C10,3.3,10.3,3,10.7,3h10.6C21.7,3,22,3.3,22,3.7v4.9
			C22,9,21.7,9.4,21.3,9.4z M11.5,7.9h9.1V4.5h-9.1V7.9z"/>
	</g>
	<g>
		<path fill="#74B1E0" d="M27.7,28.2H4.3c-1.9,0-3.5-1.6-3.5-3.5V11.4c0-1.9,1.6-3.5,3.5-3.5h23.5c1.9,0,3.5,1.6,3.5,3.5v13.3
			C31.3,26.6,29.7,28.2,27.7,28.2z M4.3,9.4c-1.1,0-2,0.9-2,2v13.3c0,1.1,0.9,2,2,2h23.5c1.1,0,2-0.9,2-2V11.4c0-1.1-0.9-2-2-2H4.3z
			"/>
	</g>
	<g>
		<circle fill="#CDE4F7" cx="16" cy="18" r="4.4"/>
		<path fill="#74B1E0" d="M16,23.2c-2.9,0-5.2-2.3-5.2-5.2s2.3-5.2,5.2-5.2s5.2,2.3,5.2,5.2S18.9,23.2,16,23.2z M16,14.3
			c-2,0-3.7,1.7-3.7,3.7c0,2,1.7,3.7,3.7,3.7c2,0,3.7-1.7,3.7-3.7C19.7,16,18,14.3,16,14.3z"/>
	</g>
	<g>
		<line fill="#CDE4F7" x1="16" y1="13.6" x2="16" y2="11.7"/>
		<rect x="15.3" y="11.7" fill="#74B1E0" width="1.5" height="1.9"/>
	</g>
	<g>
		<line fill="#CDE4F7" x1="16" y1="24.4" x2="16" y2="22.5"/>
		<rect x="15.3" y="22.5" fill="#74B1E0" width="1.5" height="1.9"/>
	</g>
	<g>
		<line fill="#CDE4F7" x1="20.4" y1="18" x2="22.3" y2="18"/>
		<rect x="20.4" y="17.3" fill="#74B1E0" width="1.9" height="1.5"/>
	</g>
	<g>
		<line fill="#CDE4F7" x1="9.7" y1="18" x2="11.6" y2="18"/>
		<rect x="9.7" y="17.3" fill="#74B1E0" width="1.9" height="1.5"/>
	</g>
	<g>
		<line fill="#CDE4F7" x1="19.1" y1="14.9" x2="20.5" y2="13.5"/>
		
			<rect x="19.1" y="13.3" transform="matrix(0.7071 0.7071 -0.7071 0.7071 15.8593 -9.8421)" fill="#74B1E0" width="1.5" height="1.9"/>
	</g>
	<g>
		<line fill="#CDE4F7" x1="11.5" y1="22.5" x2="12.9" y2="21.2"/>
		
			<rect x="11.4" y="20.9" transform="matrix(0.7071 0.7071 -0.7071 0.7071 19.0143 -2.2228)" fill="#74B1E0" width="1.5" height="1.9"/>
	</g>
	<g>
		<line fill="#CDE4F7" x1="19.1" y1="21.2" x2="20.5" y2="22.5"/>
		
			<rect x="18.9" y="21.1" transform="matrix(0.7072 0.707 -0.707 0.7072 21.2439 -7.6105)" fill="#74B1E0" width="1.9" height="1.5"/>
	</g>
	<g>
		<line fill="#CDE4F7" x1="11.5" y1="13.5" x2="12.9" y2="14.9"/>
		
			<rect x="11.2" y="13.5" transform="matrix(0.7072 0.707 -0.707 0.7072 13.6255 -4.4543)" fill="#74B1E0" width="1.9" height="1.5"/>
	</g>
	<g>
		<line fill="#CDE4F7" x1="16" y1="17.3" x2="16" y2="18.8"/>
		<rect x="15.3" y="17.3" fill="#74B1E0" width="1.5" height="1.5"/>
	</g>
	<g>
		<rect x="25.1" y="27.4" fill="#74B1E0" width="1.5" height="1.6"/>
	</g>
	<g>
		<rect x="5.4" y="27.4" fill="#74B1E0" width="1.5" height="1.6"/>
	</g>
</g>
</svg>
