<?xml version="1.0" encoding="utf-8"?>
<!-- Generator: Adobe Illustrator 18.0.0, SVG Export Plug-In . SVG Version: 6.00 Build 0)  -->
<!DOCTYPE svg PUBLIC "-//W3C//DTD SVG 1.1//EN" "http://www.w3.org/Graphics/SVG/1.1/DTD/svg11.dtd">
<svg version="1.1" id="Layer_1" xmlns="http://www.w3.org/2000/svg" xmlns:xlink="http://www.w3.org/1999/xlink" x="0px" y="0px"
	 viewBox="0 0 32 32" enable-background="new 0 0 32 32" xml:space="preserve">
<g>
	<g>
		<path fill="#F0F7F7" d="M27.7,27.4H4.3c-1.5,0-2.8-1.2-2.8-2.8V11.4c0-1.5,1.2-2.8,2.8-2.8h23.5c1.5,0,2.8,1.2,2.8,2.8v13.3
			C30.5,26.2,29.3,27.4,27.7,27.4z"/>
		<path fill="#8F9BA8" d="M27.7,28.2H4.3c-1.9,0-3.5-1.6-3.5-3.5V11.4c0-1.9,1.6-3.5,3.5-3.5h23.5c1.9,0,3.5,1.6,3.5,3.5v13.3
			C31.3,26.6,29.7,28.2,27.7,28.2z M4.3,9.4c-1.1,0-2,0.9-2,2v13.3c0,1.1,0.9,2,2,2h23.5c1.1,0,2-0.9,2-2V11.4c0-1.1-0.9-2-2-2H4.3z
			"/>
	</g>
	<g>
		<path fill="#8F9BA8" d="M21.3,9.4H10.7C10.3,9.4,10,9,10,8.6V3.7C10,3.3,10.3,3,10.7,3h10.6C21.7,3,22,3.3,22,3.7v4.9
			C22,9,21.7,9.4,21.3,9.4z M11.5,7.9h9.1V4.5h-9.1V7.9z"/>
	</g>
	<g>
		<rect x="15.3" y="14.1" fill="#8F9BA8" width="1.5" height="7.8"/>
	</g>
	<g>
		<rect x="12.1" y="17.3" fill="#8F9BA8" width="7.8" height="1.5"/>
	</g>
	<g>
		<rect x="25.1" y="27.4" fill="#8F9BA8" width="1.5" height="1.6"/>
	</g>
	<g>
		<rect x="5.4" y="27.4" fill="#8F9BA8" width="1.5" height="1.6"/>
	</g>
</g>
</svg>
