<?xml version="1.0" encoding="utf-8"?>
<!-- Generator: Adobe Illustrator 18.0.0, SVG Export Plug-In . SVG Version: 6.00 Build 0)  -->
<!DOCTYPE svg PUBLIC "-//W3C//DTD SVG 1.1//EN" "http://www.w3.org/Graphics/SVG/1.1/DTD/svg11.dtd">
<svg version="1.1" id="Layer_1" xmlns="http://www.w3.org/2000/svg" xmlns:xlink="http://www.w3.org/1999/xlink" x="0px" y="0px"
	 viewBox="0 0 32 32" enable-background="new 0 0 32 32" xml:space="preserve">
<g>
	<g>
		<path fill="#79C693" d="M16,31.3C7.6,31.3,0.8,24.4,0.8,16S7.6,0.8,16,0.8S31.3,7.6,31.3,16S24.4,31.3,16,31.3z M16,2.3
			C8.4,2.3,2.3,8.4,2.3,16S8.4,29.8,16,29.8S29.8,23.6,29.8,16S23.6,2.3,16,2.3z"/>
	</g>
	<g>
		<rect x="1.5" y="15.3" fill="#79C693" width="6" height="1.5"/>
	</g>
	<g>
		<rect x="24.5" y="15.3" fill="#79C693" width="6" height="1.5"/>
	</g>
	<g>
		<rect x="15.3" y="1.5" fill="#79C693" width="1.5" height="6"/>
	</g>
	<g>
		<rect x="15.3" y="24.5" fill="#79C693" width="1.5" height="6"/>
	</g>
	<g>
		<rect x="4.9" y="7.1" transform="matrix(0.7071 0.7071 -0.7071 0.7071 7.861 -3.2562)" fill="#79C693" width="6" height="1.5"/>
	</g>
	<g>
		
			<rect x="21.2" y="23.4" transform="matrix(0.7071 0.7071 -0.7071 0.7071 24.1397 -9.9991)" fill="#79C693" width="6" height="1.5"/>
	</g>
	<g>
		
			<rect x="23.4" y="4.9" transform="matrix(0.7071 0.7071 -0.7071 0.7071 12.6302 -14.7667)" fill="#79C693" width="1.5" height="6"/>
	</g>
	<g>
		<rect x="7.1" y="21.2" transform="matrix(0.7071 0.7071 -0.7071 0.7071 19.3746 1.5132)" fill="#79C693" width="1.5" height="6"/>
	</g>
	<g>
		<path fill="#79C693" d="M16,25.3c-5.1,0-9.3-4.2-9.3-9.3s4.2-9.3,9.3-9.3s9.3,4.2,9.3,9.3S21.1,25.3,16,25.3z M16,8.2
			c-4.3,0-7.8,3.5-7.8,7.8s3.5,7.8,7.8,7.8s7.8-3.5,7.8-7.8S20.3,8.2,16,8.2z"/>
	</g>
	<g>
		<path fill="#79C693" d="M16.7,20.4h-3.9v-8.8h3.9V20.4z M14.4,18.9h0.9v-5.8h-0.9V18.9z"/>
	</g>
	<g>
		<path fill="#79C693" d="M21.2,20.4h-3.9v-8.8h3.9V20.4z M18.8,18.9h0.9v-5.8h-0.9V18.9z"/>
	</g>
	<g>
		<rect x="10.8" y="11.6" fill="#79C693" width="1.5" height="8.8"/>
	</g>
</g>
</svg>
