<?xml version="1.0" encoding="utf-8"?>
<!-- Generator: Adobe Illustrator 18.0.0, SVG Export Plug-In . SVG Version: 6.00 Build 0)  -->
<!DOCTYPE svg PUBLIC "-//W3C//DTD SVG 1.1//EN" "http://www.w3.org/Graphics/SVG/1.1/DTD/svg11.dtd">
<svg version="1.1" id="Layer_1" xmlns="http://www.w3.org/2000/svg" xmlns:xlink="http://www.w3.org/1999/xlink" x="0px" y="0px"
	 viewBox="0 0 32 32" enable-background="new 0 0 32 32" xml:space="preserve">
<g>
	<g>
		<path fill="#8F9BA8" d="M16,31.3C7.6,31.3,0.8,24.4,0.8,16C0.8,7.6,7.6,0.8,16,0.8S31.3,7.6,31.3,16C31.3,24.4,24.4,31.3,16,31.3z
			 M16,2.3C8.4,2.3,2.3,8.4,2.3,16S8.4,29.8,16,29.8S29.8,23.6,29.8,16S23.6,2.3,16,2.3z"/>
	</g>
	<g>
		
			<rect x="18.4" y="1.9" transform="matrix(0.9361 0.3518 -0.3518 0.9361 2.9062 -6.446)" fill="#8F9BA8" width="1.5" height="5.8"/>
	</g>
	<g>
		<rect x="9.9" y="4" transform="matrix(0.3518 0.9361 -0.9361 0.3518 12.7727 -8.8976)" fill="#8F9BA8" width="5.8" height="1.5"/>
	</g>
	<g>
		
			<rect x="12.1" y="24.3" transform="matrix(0.9361 0.3518 -0.3518 0.9361 10.3979 -2.7665)" fill="#8F9BA8" width="1.5" height="5.8"/>
	</g>
	<g>
		
			<rect x="16.3" y="26.5" transform="matrix(0.3517 0.9361 -0.9361 0.3517 37.9281 -0.3122)" fill="#8F9BA8" width="5.8" height="1.5"/>
	</g>
	<g>
		
			<rect x="24.3" y="18.4" transform="matrix(0.9361 0.3518 -0.3518 0.9361 8.4918 -8.3519)" fill="#8F9BA8" width="5.8" height="1.5"/>
	</g>
	<g>
		
			<rect x="26.5" y="9.9" transform="matrix(0.3516 0.9362 -0.9362 0.3516 29.6475 -17.182)" fill="#8F9BA8" width="1.5" height="5.8"/>
	</g>
	<g>
		
			<rect x="1.9" y="12.1" transform="matrix(0.9361 0.3518 -0.3518 0.9361 4.8124 -0.8604)" fill="#8F9BA8" width="5.8" height="1.5"/>
	</g>
	<g>
		<rect x="4" y="16.3" transform="matrix(0.3516 0.9362 -0.9362 0.3516 21.0601 7.9744)" fill="#8F9BA8" width="1.5" height="5.8"/>
	</g>
	<g>
		<path fill="#8F9BA8" d="M16,25.3c-5.1,0-9.3-4.2-9.3-9.3c0-5.1,4.2-9.3,9.3-9.3s9.3,4.2,9.3,9.3C25.3,21.1,21.1,25.3,16,25.3z
			 M16,8.2c-4.3,0-7.8,3.5-7.8,7.8c0,4.3,3.5,7.8,7.8,7.8c4.3,0,7.8-3.5,7.8-7.8C23.8,11.7,20.3,8.2,16,8.2z"/>
	</g>
	<g>
		<polygon fill="#B4A042" points="15.7,20.4 10.2,20.4 10.2,18.4 11.7,18.4 11.7,18.9 14.2,18.9 14.2,16.5 10.2,16.5 10.2,11.6 
			15.7,11.6 15.7,13.4 14.2,13.4 14.2,13.1 11.7,13.1 11.7,15 15.7,15 		"/>
	</g>
	<g>
		<path fill="#B4A042" d="M21.8,20.4h-5.5v-8.8h5.5V20.4z M17.8,18.9h2.5v-5.8h-2.5V18.9z"/>
	</g>
</g>
</svg>
