<?xml version="1.0" encoding="utf-8"?>
<!-- Generator: Adobe Illustrator 18.0.0, SVG Export Plug-In . SVG Version: 6.00 Build 0)  -->
<!DOCTYPE svg PUBLIC "-//W3C//DTD SVG 1.1//EN" "http://www.w3.org/Graphics/SVG/1.1/DTD/svg11.dtd">
<svg version="1.1" id="Layer_1" xmlns="http://www.w3.org/2000/svg" xmlns:xlink="http://www.w3.org/1999/xlink" x="0px" y="0px"
	 viewBox="0 0 32 32" enable-background="new 0 0 32 32" xml:space="preserve">
<g>
	<g>
		<path fill="#F9F8F2" d="M26.9,10.8c1-1,1.2-2.5,0.4-3.3C26.5,6.7,25,6.9,24,7.9L23.9,8c-4-2.2-10.1-0.6-14.7,3.9
			c-4.6,4.6-6.1,10.7-3.9,14.7l-0.1,0.1c-1,1-1.2,2.5-0.4,3.3s2.3,0.6,3.3-0.4l0.1-0.1c4,2.1,10.1,0.6,14.7-3.9
			C27.4,21,28.9,14.9,26.9,10.8C26.8,10.8,26.8,10.8,26.9,10.8z"/>
		<path fill="#B4A79C" d="M6,31.3c-0.7,0-1.4-0.3-1.8-0.7c-0.5-0.5-0.8-1.4-0.7-2.2c0.1-0.7,0.4-1.3,0.8-1.9C2.3,22,4,15.9,8.6,11.3
			c3.2-3.2,7.4-5.1,11.1-5.1c1.5,0,2.8,0.3,4,0.8c1.3-1,3.1-1.1,4.1-0.1c0.5,0.5,0.8,1.4,0.7,2.2c-0.1,0.7-0.4,1.3-0.8,1.9
			c2,4.4,0.3,10.5-4.3,15.1c-3.2,3.2-7.4,5.1-11.1,5.1l0,0c-1.4,0-2.8-0.3-4-0.8C7.6,30.9,6.8,31.3,6,31.3z M19.8,7.7
			c-3.4,0-7.2,1.7-10.1,4.7c-4.2,4.2-5.8,10-3.8,13.8l0.3,0.5l-0.4,0.4c-0.5,0.5-0.8,1-0.8,1.4c0,0.2,0,0.7,0.3,1
			c0.2,0.2,0.5,0.3,0.8,0.3c0.5,0,1.1-0.3,1.5-0.7L8,28.7l0.6,0.2c1.1,0.6,2.3,0.9,3.7,0.9l0,0c3.4,0,7.2-1.7,10.1-4.7
			c4.2-4.2,5.8-10,3.8-13.8l-0.3-0.5l0.4-0.4l0.6,0.5l-0.5-0.5c0.3-0.5,0.6-1,0.6-1.5c0-0.2,0-0.7-0.3-1c-0.2-0.2-0.5-0.3-0.8-0.3
			c-0.5,0-1.1,0.3-1.5,0.7L24,8.7l-0.6-0.2C22.4,8,21.2,7.7,19.8,7.7z"/>
	</g>
	<g>
		<path fill="#FAC2C3" d="M8.2,2.2c2.3,6.7,9.6,10.3,16.3,8l0,0C22.2,3.5,14.9-0.1,8.2,2.2z"/>
		<path fill="#DA8C8C" d="M20.3,11.6L20.3,11.6c-5.8,0-11-3.7-12.9-9.2L7.2,1.7L8,1.5c1.4-0.5,2.9-0.7,4.4-0.7
			c5.8,0,11,3.7,12.9,9.2l0.2,0.7l-0.7,0.2C23.3,11.4,21.9,11.6,20.3,11.6z M9.2,2.7c1.9,4.5,6.3,7.4,11.2,7.4l0,0
			c1.1,0,2.2-0.1,3.2-0.4c-1.9-4.5-6.3-7.4-11.2-7.4C11.3,2.3,10.2,2.4,9.2,2.7z"/>
	</g>
</g>
</svg>
