<?xml version="1.0" encoding="utf-8"?>
<!-- Generator: Adobe Illustrator 18.0.0, SVG Export Plug-In . SVG Version: 6.00 Build 0)  -->
<!DOCTYPE svg PUBLIC "-//W3C//DTD SVG 1.1//EN" "http://www.w3.org/Graphics/SVG/1.1/DTD/svg11.dtd">
<svg version="1.1" id="Layer_1" xmlns="http://www.w3.org/2000/svg" xmlns:xlink="http://www.w3.org/1999/xlink" x="0px" y="0px"
	 viewBox="0 0 32 32" enable-background="new 0 0 32 32" xml:space="preserve">
<g>
	<g>
		<polygon fill="#FFFFFF" points="20.1,1.5 3.5,1.5 3.5,30.5 28.5,30.5 28.5,9.9 		"/>
		<path fill="#8F9BA8" d="M29.2,31.2H2.8V0.7h17.6l8.8,8.8V31.2z M4.3,29.7h23.4V10.2l-8-8H4.3V29.7z"/>
	</g>
	<g>
		<path fill="#8F9BA8" d="M28.5,10.7h-8.4c-0.4,0-0.8-0.3-0.8-0.8V1.5c0-0.3,0.2-0.6,0.5-0.7c0.3-0.1,0.6-0.1,0.8,0.2L29,9.4
			c0.2,0.2,0.3,0.5,0.2,0.8C29,10.5,28.8,10.7,28.5,10.7z M20.8,9.2h5.8l-5.8-5.8V9.2z"/>
	</g>
	<g>
		<line fill="#F0F7F7" x1="9" y1="7.5" x2="14.7" y2="7.5"/>
		<rect x="9" y="6.8" fill="#B4A79C" width="5.7" height="1.5"/>
	</g>
	<g>
		<line fill="#F0F7F7" x1="9" y1="11.8" x2="14.7" y2="11.8"/>
		<rect x="9" y="11" fill="#B4A79C" width="5.7" height="1.5"/>
	</g>
	<g>
		<line fill="#F0F7F7" x1="9" y1="16" x2="23" y2="16"/>
		<rect x="9" y="15.2" fill="#B4A79C" width="14" height="1.5"/>
	</g>
	<g>
		<line fill="#F0F7F7" x1="9" y1="20.2" x2="23" y2="20.2"/>
		<rect x="9" y="19.5" fill="#B4A79C" width="14" height="1.5"/>
	</g>
	<g>
		<line fill="#F0F7F7" x1="9" y1="24.5" x2="23" y2="24.5"/>
		<rect x="9" y="23.7" fill="#B4A79C" width="14" height="1.5"/>
	</g>
</g>
</svg>
