<?xml version="1.0" encoding="utf-8"?>
<!-- Generator: Adobe Illustrator 18.0.0, SVG Export Plug-In . SVG Version: 6.00 Build 0)  -->
<!DOCTYPE svg PUBLIC "-//W3C//DTD SVG 1.1//EN" "http://www.w3.org/Graphics/SVG/1.1/DTD/svg11.dtd">
<svg version="1.1" id="Layer_1" xmlns="http://www.w3.org/2000/svg" xmlns:xlink="http://www.w3.org/1999/xlink" x="0px" y="0px"
	 viewBox="0 0 32 32" enable-background="new 0 0 32 32" xml:space="preserve">
<g>
	<g>
		<path fill="#F0F7F7" d="M30.5,17.7v-3.5L27.7,14c-0.3-1.8-1-3.4-2-4.9L27.5,7L25,4.5l-2.1,1.8c-1.4-1-3.1-1.7-4.9-2l-0.3-2.7h-3.5
			L14,4.2c-1.8,0.3-3.4,1-4.9,2L7,4.5L4.5,7l1.8,2.1c-1,1.4-1.7,3.1-2,4.9l-2.7,0.3v3.5L4.2,18c0.3,1.8,1,3.4,2,4.9L4.5,25L7,27.5
			l2.1-1.8c1.4,1,3.1,1.7,4.9,2l0.3,2.7h3.5l0.3-2.7c1.8-0.3,3.4-1,4.9-2l2.1,1.8l2.5-2.5l-1.8-2.1c1-1.4,1.7-3.1,2-4.9L30.5,17.7z"
			/>
		<path fill="#8F9BA8" d="M18.4,31.3h-4.8l-0.3-2.9c-1.5-0.3-2.9-0.9-4.1-1.7L7,28.5l-3.4-3.4l1.8-2.2c-0.8-1.3-1.4-2.7-1.7-4.1
			l-2.9-0.3v-4.8l2.9-0.3c0.3-1.5,0.9-2.9,1.7-4.1L3.5,6.9l3.4-3.4l2.2,1.8c1.3-0.8,2.7-1.4,4.1-1.7l0.3-2.9h4.8l0.3,2.9
			c1.5,0.3,2.9,0.9,4.1,1.7l2.2-1.8l3.4,3.4l-1.8,2.2c0.8,1.3,1.4,2.7,1.7,4.1l2.9,0.3v4.8l-2.9,0.3c-0.3,1.5-0.9,2.9-1.7,4.1
			l1.8,2.2l-3.4,3.4l-2.2-1.8c-1.3,0.8-2.7,1.4-4.1,1.7L18.4,31.3z M14.9,29.8H17l0.3-2.6l0.6-0.1c1.7-0.3,3.2-0.9,4.6-1.9l0.5-0.3
			l2.1,1.7l1.5-1.5L24.9,23l0.3-0.5c1-1.4,1.6-2.9,1.9-4.6l0.1-0.6l2.6-0.3v-2.1l-2.6-0.3L27,14.1c-0.3-1.7-0.9-3.2-1.9-4.6L24.8,9
			l1.7-2L25,5.5l-2.1,1.7l-0.5-0.3c-1.4-1-2.9-1.6-4.6-1.9l-0.6-0.1l-0.3-2.6h-2.1l-0.3,2.6L14.1,5c-1.7,0.3-3.2,0.9-4.6,1.9
			L9.1,7.2L7,5.5L5.5,7l1.7,2.1L6.9,9.6c-1,1.4-1.6,2.9-1.9,4.6l-0.1,0.6l-2.6,0.3v2.1l2.6,0.3L5,17.9c0.3,1.7,0.9,3.2,1.9,4.6
			L7.2,23l-1.7,2L7,26.5l2.1-1.7l0.5,0.3c1.4,1,2.9,1.6,4.6,1.9l0.6,0.1L14.9,29.8z"/>
	</g>
	<g>
		<circle fill="#FFFFFF" cx="16" cy="16" r="6.6"/>
		<path fill="#8F9BA8" d="M16,23.4c-4.1,0-7.4-3.3-7.4-7.4s3.3-7.4,7.4-7.4s7.4,3.3,7.4,7.4S20.1,23.4,16,23.4z M16,10.1
			c-3.3,0-5.9,2.6-5.9,5.9s2.6,5.9,5.9,5.9s5.9-2.6,5.9-5.9S19.3,10.1,16,10.1z"/>
	</g>
</g>
</svg>
