<?xml version="1.0" encoding="utf-8"?>
<!-- Generator: Adobe Illustrator 18.0.0, SVG Export Plug-In . SVG Version: 6.00 Build 0)  -->
<!DOCTYPE svg PUBLIC "-//W3C//DTD SVG 1.1//EN" "http://www.w3.org/Graphics/SVG/1.1/DTD/svg11.dtd">
<svg version="1.1" id="Layer_1" xmlns="http://www.w3.org/2000/svg" xmlns:xlink="http://www.w3.org/1999/xlink" x="0px" y="0px"
	 viewBox="0 0 32 32" enable-background="new 0 0 32 32" xml:space="preserve">
<g>
	<g>
		<path fill="#74B1E0" d="M16,31.3C7.6,31.3,0.8,24.4,0.8,16C0.8,7.6,7.6,0.8,16,0.8c8.4,0,15.3,6.8,15.3,15.3
			C31.3,24.4,24.4,31.3,16,31.3z M16,2.3C8.4,2.3,2.3,8.4,2.3,16S8.4,29.8,16,29.8c7.6,0,13.8-6.2,13.8-13.8S23.6,2.3,16,2.3z"/>
	</g>
	<g>
		<circle fill="#CDE4F7" cx="14.7" cy="7.9" r="2.3"/>
		<path fill="#74B1E0" d="M14.7,10.9c-1.7,0-3-1.4-3-3s1.4-3,3-3c1.7,0,3,1.4,3,3S16.4,10.9,14.7,10.9z M14.7,6.3
			c-0.8,0-1.5,0.7-1.5,1.5c0,0.8,0.7,1.5,1.5,1.5c0.8,0,1.5-0.7,1.5-1.5C16.2,7,15.6,6.3,14.7,6.3z"/>
	</g>
	<g>
		<circle fill="#CDE4F7" cx="8.3" cy="12.4" r="2.3"/>
		<path fill="#74B1E0" d="M8.3,15.5c-1.7,0-3-1.4-3-3s1.4-3,3-3c1.7,0,3,1.4,3,3S10,15.5,8.3,15.5z M8.3,10.9
			c-0.8,0-1.5,0.7-1.5,1.5c0,0.8,0.7,1.5,1.5,1.5s1.5-0.7,1.5-1.5C9.8,11.6,9.1,10.9,8.3,10.9z"/>
	</g>
	<g>
		<circle fill="#CDE4F7" cx="15" cy="15" r="2.3"/>
		<path fill="#74B1E0" d="M15,18c-1.7,0-3-1.4-3-3c0-1.7,1.4-3,3-3c1.7,0,3,1.4,3,3C18,16.7,16.7,18,15,18z M15,13.5
			c-0.8,0-1.5,0.7-1.5,1.5c0,0.8,0.7,1.5,1.5,1.5s1.5-0.7,1.5-1.5C16.5,14.2,15.8,13.5,15,13.5z"/>
	</g>
</g>
</svg>
