<?xml version="1.0" encoding="utf-8"?>
<!-- Generator: Adobe Illustrator 18.0.0, SVG Export Plug-In . SVG Version: 6.00 Build 0)  -->
<!DOCTYPE svg PUBLIC "-//W3C//DTD SVG 1.1//EN" "http://www.w3.org/Graphics/SVG/1.1/DTD/svg11.dtd">
<svg version="1.1" id="Layer_1" xmlns="http://www.w3.org/2000/svg" xmlns:xlink="http://www.w3.org/1999/xlink" x="0px" y="0px"
	 viewBox="0 0 32 32" enable-background="new 0 0 32 32" xml:space="preserve">
<g>
	<g>
		<path fill="#B4A79C" d="M31.3,31.3H0.8V0.8h30.5V31.3z M2.3,29.8h27.5V2.3H2.3V29.8z"/>
	</g>
	<g>
		<path fill="#B4A79C" d="M7.8,10.7c-1.6,0-2.9-1.3-2.9-2.9s1.3-2.9,2.9-2.9c1.6,0,2.9,1.3,2.9,2.9S9.4,10.7,7.8,10.7z M7.8,6.4
			C7,6.4,6.4,7,6.4,7.8c0,0.8,0.6,1.4,1.4,1.4c0.8,0,1.4-0.6,1.4-1.4C9.2,7,8.5,6.4,7.8,6.4z"/>
	</g>
	<g>
		<path fill="#B4A79C" d="M7.8,27.1c-1.6,0-2.9-1.3-2.9-2.9c0-1.6,1.3-2.9,2.9-2.9c1.6,0,2.9,1.3,2.9,2.9
			C10.7,25.8,9.4,27.1,7.8,27.1z M7.8,22.8c-0.8,0-1.4,0.6-1.4,1.4c0,0.8,0.6,1.4,1.4,1.4c0.8,0,1.4-0.6,1.4-1.4
			C9.2,23.5,8.5,22.8,7.8,22.8z"/>
	</g>
	<g>
		<path fill="#B4A79C" d="M24.2,10.7c-1.6,0-2.9-1.3-2.9-2.9s1.3-2.9,2.9-2.9c1.6,0,2.9,1.3,2.9,2.9S25.8,10.7,24.2,10.7z M24.2,6.4
			c-0.8,0-1.4,0.6-1.4,1.4c0,0.8,0.6,1.4,1.4,1.4c0.8,0,1.4-0.6,1.4-1.4C25.6,7,25,6.4,24.2,6.4z"/>
	</g>
	<g>
		<path fill="#B4A79C" d="M16,18.9c-1.6,0-2.9-1.3-2.9-2.9c0-1.6,1.3-2.9,2.9-2.9c1.6,0,2.9,1.3,2.9,2.9
			C18.9,17.6,17.6,18.9,16,18.9z M16,14.6c-0.8,0-1.4,0.6-1.4,1.4c0,0.8,0.6,1.4,1.4,1.4c0.8,0,1.4-0.6,1.4-1.4
			C17.4,15.2,16.8,14.6,16,14.6z"/>
	</g>
	<g>
		<path fill="#B4A79C" d="M24.2,27.1c-1.6,0-2.9-1.3-2.9-2.9c0-1.6,1.3-2.9,2.9-2.9c1.6,0,2.9,1.3,2.9,2.9
			C27.1,25.8,25.8,27.1,24.2,27.1z M24.2,22.8c-0.8,0-1.4,0.6-1.4,1.4c0,0.8,0.6,1.4,1.4,1.4c0.8,0,1.4-0.6,1.4-1.4
			C25.6,23.5,25,22.8,24.2,22.8z"/>
	</g>
</g>
</svg>
