<?xml version="1.0" encoding="utf-8"?>
<!-- Generator: Adobe Illustrator 18.0.0, SVG Export Plug-In . SVG Version: 6.00 Build 0)  -->
<!DOCTYPE svg PUBLIC "-//W3C//DTD SVG 1.1//EN" "http://www.w3.org/Graphics/SVG/1.1/DTD/svg11.dtd">
<svg version="1.1" id="Layer_1" xmlns="http://www.w3.org/2000/svg" xmlns:xlink="http://www.w3.org/1999/xlink" x="0px" y="0px"
	 viewBox="0 0 32 32" enable-background="new 0 0 32 32" xml:space="preserve">
<g>
	<g>
		<path fill="#F0F7F7" d="M20,1.5l-8.1,0c-4.4,0-8.5,2.6-10.2,6.7C1.7,8.3,1.7,8.5,1.6,8.7c-0.5,1.4,0.5,2.9,2.1,2.9l4.2,0
			c1.3,0,2.5-1.2,2.3-2.5c-0.3-1.4,0.8-2.6,2.2-2.6l7.3,0c1.3,0,2.5,1.2,2.3,2.5c-0.3,1.4,0.8,2.6,2.2,2.6h4.3
			c1.5,0,2.6-1.5,2.1-2.9c-0.1-0.2-0.1-0.3-0.2-0.5C28.6,4.1,24.4,1.5,20,1.5z"/>
		<path fill="#8F9BA8" d="M3.7,12.3L3.7,12.3c-1,0-1.9-0.5-2.4-1.3c-0.6-0.8-0.7-1.8-0.4-2.7C1,8.2,1,8.1,1.1,7.9
			C2.8,3.6,7.2,0.8,12,0.8H20c4.8,0,9.2,2.9,10.9,7.2C31,8.1,31,8.2,31.1,8.4c0.3,0.9,0.2,1.9-0.4,2.7c-0.6,0.8-1.5,1.3-2.4,1.3H24
			c-0.9,0-1.7-0.4-2.3-1.1c-0.6-0.7-0.8-1.6-0.6-2.4c0.1-0.4,0-0.7-0.3-1.1c-0.3-0.4-0.8-0.6-1.2-0.6h-7.3c-0.4,0-0.8,0.2-1.1,0.5
			c-0.3,0.3-0.4,0.8-0.3,1.2c0.2,0.8-0.1,1.6-0.6,2.3c-0.6,0.7-1.5,1.1-2.4,1.1L3.7,12.3z M12,2.3c-4.2,0-8,2.5-9.5,6.2
			C2.4,8.6,2.4,8.8,2.3,8.9c-0.2,0.4-0.1,0.9,0.2,1.3c0.3,0.4,0.7,0.6,1.2,0.6l4.2,0c0.5,0,0.9-0.2,1.2-0.6C9.4,10,9.5,9.6,9.4,9.2
			C9.3,8.4,9.5,7.5,10,6.8c0.6-0.7,1.4-1.1,2.3-1.1h7.3c0.9,0,1.8,0.4,2.4,1.1c0.5,0.6,0.8,1.5,0.6,2.3c-0.1,0.4,0,0.9,0.3,1.2
			c0.3,0.3,0.7,0.5,1.1,0.5h4.3c0.5,0,0.9-0.2,1.2-0.6c0.3-0.4,0.3-0.9,0.2-1.3c-0.1-0.1-0.1-0.3-0.2-0.4C28,4.8,24.2,2.3,20,2.3H12
			z"/>
	</g>
	<g>
		<path fill="#8F9BA8" d="M16,31.3c-5.3,0-9.6-4.3-9.6-9.6s4.3-9.6,9.6-9.6s9.6,4.3,9.6,9.6S21.3,31.3,16,31.3z M16,13.6
			c-4.5,0-8.1,3.6-8.1,8.1c0,4.5,3.6,8.1,8.1,8.1s8.1-3.6,8.1-8.1C24.1,17.2,20.5,13.6,16,13.6z"/>
	</g>
	<g>
		
			<rect x="15.2" y="12.8" transform="matrix(0.7071 0.7071 -0.7071 0.7071 20.0077 -4.9664)" fill="#8F9BA8" width="1.5" height="17.7"/>
	</g>
</g>
</svg>
