<?xml version="1.0" encoding="utf-8"?>
<!-- Generator: Adobe Illustrator 18.0.0, SVG Export Plug-In . SVG Version: 6.00 Build 0)  -->
<!DOCTYPE svg PUBLIC "-//W3C//DTD SVG 1.1//EN" "http://www.w3.org/Graphics/SVG/1.1/DTD/svg11.dtd">
<svg version="1.1" id="Layer_1" xmlns="http://www.w3.org/2000/svg" xmlns:xlink="http://www.w3.org/1999/xlink" x="0px" y="0px"
	 viewBox="0 0 32 32" enable-background="new 0 0 32 32" xml:space="preserve">
<g>
	<g>
		<path fill="#79C693" d="M23.1,31.3C23.1,31.3,23.1,31.3,23.1,31.3c-3.9,0-7.8-1.6-10.6-4.4l-7.3-7.3C0.9,15.2-0.4,8.7,1.9,3.4
			C2,3.2,2.1,3,2.1,2.8c0.6-1.3,1.8-2,3.2-2c0.9,0,1.8,0.4,2.5,1l3.9,3.9c0.8,0.8,1.1,1.8,1,2.8c-0.1,1.1-0.7,2-1.5,2.6
			c-0.4,0.3-0.7,0.8-0.8,1.4c-0.1,0.7,0.2,1.3,0.6,1.8l6.6,6.6c0.9,0.9,2.5,0.7,3.2-0.3c0.6-0.9,1.7-1.4,2.8-1.4c1,0,2,0.4,2.7,1.1
			l3.8,3.8c0.8,0.8,1.2,2,1,3.1c-0.2,1.1-0.9,2.1-2,2.6c-0.2,0.1-0.4,0.2-0.6,0.3C26.9,30.9,25,31.3,23.1,31.3z M5.4,2.3
			c-0.8,0-1.5,0.5-1.9,1.2C3.4,3.6,3.3,3.8,3.3,4c-2.1,4.8-0.9,10.6,3,14.5l7.3,7.3c2.5,2.5,6,4,9.5,4c1.7,0,3.4-0.3,4.9-1
			c0.2-0.1,0.4-0.2,0.5-0.2c0.6-0.3,1-0.8,1.2-1.5c0.1-0.7-0.1-1.3-0.6-1.8l-3.8-3.8c-0.4-0.4-1-0.7-1.6-0.7c-0.7,0-1.2,0.3-1.6,0.8
			c-0.7,1-1.8,1.6-2.9,1.6c-0.9,0-1.8-0.4-2.5-1l-6.6-6.6c-0.8-0.8-1.2-1.9-1.1-3c0.1-1,0.6-1.9,1.4-2.5c0.5-0.3,0.8-0.9,0.9-1.5
			c0.1-0.6-0.2-1.2-0.6-1.6L6.8,2.9C6.4,2.5,5.9,2.3,5.4,2.3z"/>
	</g>
	<g>
		<rect x="18.3" y="4" fill="#8F9BA8" width="7.8" height="1.5"/>
	</g>
	<g>
		<polygon fill="#8F9BA8" points="21,8.5 17.2,4.7 21,1 22,2 19.3,4.7 22,7.4 		"/>
	</g>
	<g>
		<rect x="18.3" y="11.9" fill="#8F9BA8" width="7.8" height="1.5"/>
	</g>
	<g>
		<polygon fill="#8F9BA8" points="23.3,16.4 22.3,15.4 25,12.7 22.3,10 23.3,8.9 27.1,12.7 		"/>
	</g>
</g>
</svg>
