<?xml version="1.0" encoding="utf-8"?>
<!-- Generator: Adobe Illustrator 18.0.0, SVG Export Plug-In . SVG Version: 6.00 Build 0)  -->
<!DOCTYPE svg PUBLIC "-//W3C//DTD SVG 1.1//EN" "http://www.w3.org/Graphics/SVG/1.1/DTD/svg11.dtd">
<svg version="1.1" id="Layer_1" xmlns="http://www.w3.org/2000/svg" xmlns:xlink="http://www.w3.org/1999/xlink" x="0px" y="0px"
	 viewBox="0 0 32 32" enable-background="new 0 0 32 32" xml:space="preserve">
<g>
	<g>
		<rect x="8.7" y="10.9" fill="#8F9BA8" width="3.7" height="1.5"/>
	</g>
	<g>
		<rect x="8.7" y="22.8" fill="#8F9BA8" width="3.7" height="1.5"/>
	</g>
	<g>
		<rect x="19.6" y="10.9" fill="#8F9BA8" width="3.7" height="1.5"/>
	</g>
	<g>
		<rect x="19.6" y="22.8" fill="#8F9BA8" width="3.7" height="1.5"/>
	</g>
	<g>
		<path fill="#8F9BA8" d="M8.7,31.3H1.5c-0.4,0-0.8-0.3-0.8-0.8V7.7c0-0.1,0-0.3,0.1-0.4l3.6-6.2c0.3-0.5,1-0.5,1.3,0l3.6,6.2
			c0.1,0.1,0.1,0.2,0.1,0.4v22.8C9.4,30.9,9.1,31.3,8.7,31.3z M2.3,29.8h5.7V7.9L5.1,3L2.3,7.9V29.8z"/>
	</g>
	<g>
		<path fill="#8F9BA8" d="M30.5,31.3h-7.2c-0.4,0-0.8-0.3-0.8-0.8V7.7c0-0.1,0-0.3,0.1-0.4l3.6-6.2c0.3-0.5,1-0.5,1.3,0l3.6,6.2
			c0.1,0.1,0.1,0.2,0.1,0.4v22.8C31.3,30.9,30.9,31.3,30.5,31.3z M24.1,29.8h5.7V7.9L26.9,3l-2.8,4.9V29.8z"/>
	</g>
	<g>
		<rect x="25.9" y="10.9" fill="#8F9BA8" width="1.9" height="1.5"/>
	</g>
	<g>
		<rect x="25.9" y="22.8" fill="#8F9BA8" width="1.9" height="1.5"/>
	</g>
	<g>
		<rect x="4.1" y="10.9" fill="#8F9BA8" width="1.9" height="1.5"/>
	</g>
	<g>
		<rect x="4.1" y="22.8" fill="#8F9BA8" width="1.9" height="1.5"/>
	</g>
	<g>
		<polygon fill="#FAC2C3" points="16,1.5 12.4,7.7 12.4,30.5 16,30.5 19.6,30.5 19.6,7.7 		"/>
		<path fill="#DA8C8C" d="M19.6,31.3h-7.2c-0.4,0-0.8-0.3-0.8-0.8V7.7c0-0.1,0-0.3,0.1-0.4l3.6-6.2c0.1-0.2,0.4-0.4,0.7-0.4l0,0
			c0.3,0,0.5,0.1,0.7,0.4l3.6,6.2c0.1,0.1,0.1,0.2,0.1,0.4v22.8C20.3,30.9,20,31.3,19.6,31.3z M13.2,29.8h5.7V7.9L16,3l-2.8,4.9
			V29.8z"/>
	</g>
	<g>
		<line fill="#FAC2C3" x1="15" y1="11.6" x2="17" y2="11.6"/>
		<rect x="15" y="10.9" fill="#DA8C8C" width="1.9" height="1.5"/>
	</g>
	<g>
		<line fill="#FAC2C3" x1="15" y1="23.5" x2="17" y2="23.5"/>
		<rect x="15" y="22.8" fill="#DA8C8C" width="1.9" height="1.5"/>
	</g>
</g>
</svg>
