<?xml version="1.0" encoding="utf-8"?>
<!-- Generator: Adobe Illustrator 18.0.0, SVG Export Plug-In . SVG Version: 6.00 Build 0)  -->
<!DOCTYPE svg PUBLIC "-//W3C//DTD SVG 1.1//EN" "http://www.w3.org/Graphics/SVG/1.1/DTD/svg11.dtd">
<svg version="1.1" id="Layer_1" xmlns="http://www.w3.org/2000/svg" xmlns:xlink="http://www.w3.org/1999/xlink" x="0px" y="0px"
	 viewBox="0 0 32 32" enable-background="new 0 0 32 32" xml:space="preserve">
<g>
	<g>
		<path fill="#8F9BA8" d="M20.9,5.6h-9.8l1.1-4.8h7.6L20.9,5.6z M13,4.1H19l-0.4-1.8h-5.2L13,4.1z"/>
	</g>
	<g>
		<path fill="#8F9BA8" d="M22.1,31.3H9.9C8.3,31.3,7,30,7,28.4V9.3h18v19.1C25,30,23.7,31.3,22.1,31.3z M8.5,10.8v17.6
			c0,0.8,0.6,1.4,1.4,1.4h12.2c0.8,0,1.4-0.6,1.4-1.4V10.8H8.5z"/>
	</g>
	<g>
		<path fill="#FAC2C3" d="M24.5,10.1h-17c-1.5,0-2.6-1.2-2.6-2.6l0,0C4.9,6,6,4.8,7.5,4.8h17c1.5,0,2.6,1.2,2.6,2.6l0,0
			C27.1,8.9,26,10.1,24.5,10.1z"/>
		<path fill="#DA8C8C" d="M24.5,10.8h-17c-1.9,0-3.4-1.5-3.4-3.4c0-1.9,1.5-3.4,3.4-3.4h17c1.9,0,3.4,1.5,3.4,3.4
			C27.9,9.3,26.4,10.8,24.5,10.8z M7.5,5.6c-1,0-1.9,0.8-1.9,1.9c0,1,0.8,1.9,1.9,1.9h17c1,0,1.9-0.8,1.9-1.9c0-1-0.8-1.9-1.9-1.9
			H7.5z"/>
	</g>
	<g>
		<rect x="19.2" y="14.9" fill="#8F9BA8" width="1.5" height="10.8"/>
	</g>
	<g>
		<rect x="14.9" y="14.9" fill="#8F9BA8" width="1.5" height="10.8"/>
	</g>
	<g>
		<rect x="10.6" y="14.9" fill="#8F9BA8" width="1.5" height="10.8"/>
	</g>
</g>
</svg>
