<?xml version="1.0" encoding="utf-8"?>
<!-- Generator: Adobe Illustrator 18.0.0, SVG Export Plug-In . SVG Version: 6.00 Build 0)  -->
<!DOCTYPE svg PUBLIC "-//W3C//DTD SVG 1.1//EN" "http://www.w3.org/Graphics/SVG/1.1/DTD/svg11.dtd">
<svg version="1.1" id="Layer_1" xmlns="http://www.w3.org/2000/svg" xmlns:xlink="http://www.w3.org/1999/xlink" x="0px" y="0px"
	 viewBox="0 0 32 32" enable-background="new 0 0 32 32" xml:space="preserve">
<g>
	<g>
		<path fill="#DA8C8C" d="M24.3,31.3H7.7c-2,0-3.7-1.6-3.7-3.7V4.4c0-2,1.6-3.7,3.7-3.7h16.6c2,0,3.7,1.6,3.7,3.7v23.2
			C27.9,29.6,26.3,31.3,24.3,31.3z M7.7,2.3c-1.2,0-2.2,1-2.2,2.2v23.2c0,1.2,1,2.2,2.2,2.2h16.6c1.2,0,2.2-1,2.2-2.2V4.4
			c0-1.2-1-2.2-2.2-2.2H7.7z"/>
	</g>
	<g>
		<circle fill="#F9F8F2" cx="16" cy="20.6" r="6.7"/>
		<path fill="#B4A79C" d="M16,28c-4.1,0-7.4-3.3-7.4-7.4s3.3-7.4,7.4-7.4s7.4,3.3,7.4,7.4S20.1,28,16,28z M16,14.7
			c-3.3,0-5.9,2.7-5.9,5.9s2.7,5.9,5.9,5.9s5.9-2.7,5.9-5.9S19.3,14.7,16,14.7z"/>
	</g>
	<g>
		<circle fill="#F9F8F2" cx="16" cy="20.6" r="2.7"/>
		<path fill="#B4A79C" d="M16,24.1c-1.9,0-3.5-1.6-3.5-3.5c0-1.9,1.6-3.5,3.5-3.5c1.9,0,3.5,1.6,3.5,3.5
			C19.5,22.5,17.9,24.1,16,24.1z M16,18.6c-1.1,0-2,0.9-2,2c0,1.1,0.9,2,2,2c1.1,0,2-0.9,2-2C18,19.5,17.1,18.6,16,18.6z"/>
	</g>
	<g>
		<circle fill="#F9F8F2" cx="16" cy="7.3" r="2.6"/>
		<path fill="#B4A79C" d="M16,10.6c-1.9,0-3.4-1.5-3.4-3.4s1.5-3.4,3.4-3.4s3.4,1.5,3.4,3.4S17.9,10.6,16,10.6z M16,5.4
			c-1,0-1.9,0.8-1.9,1.9S15,9.1,16,9.1s1.9-0.8,1.9-1.9S17,5.4,16,5.4z"/>
	</g>
</g>
</svg>
