<?xml version="1.0" encoding="utf-8"?>
<!-- Generator: Adobe Illustrator 18.0.0, SVG Export Plug-In . SVG Version: 6.00 Build 0)  -->
<!DOCTYPE svg PUBLIC "-//W3C//DTD SVG 1.1//EN" "http://www.w3.org/Graphics/SVG/1.1/DTD/svg11.dtd">
<svg version="1.1" id="Layer_1" xmlns="http://www.w3.org/2000/svg" xmlns:xlink="http://www.w3.org/1999/xlink" x="0px" y="0px"
	 viewBox="0 0 32 32" enable-background="new 0 0 32 32" xml:space="preserve">
<g>
	<g>
		<path fill="#F0F7F7" d="M26.3,15.7c1.4-5.1,1.3-9.2,1.3-9.2c-5.1-1-9.2-3.3-11.6-5v14.2H26.3z"/>
		<path fill="#74B1E0" d="M26.3,16.5H16c-0.4,0-0.8-0.3-0.8-0.8V1.5c0-0.3,0.2-0.5,0.4-0.7c0.2-0.1,0.5-0.1,0.8,0
			c2.5,1.7,6.4,3.9,11.3,4.9c0.3,0.1,0.6,0.4,0.6,0.7c0,0.2,0.1,4.3-1.3,9.4C26.9,16.2,26.6,16.5,26.3,16.5z M16.8,15h9
			c0.9-3.6,1.1-6.6,1.1-7.8c-4.2-0.9-7.6-2.7-10.1-4.2V15z"/>
	</g>
	<g>
		<path fill="#F0F7F7" d="M5.7,15.7c1.4,5,4.3,10.9,10.3,14.8V15.7H5.7z"/>
		<path fill="#74B1E0" d="M16,31.2c-0.1,0-0.3,0-0.4-0.1C10.5,27.8,6.9,22.6,5,15.9c-0.1-0.2,0-0.5,0.1-0.7C5.3,15.1,5.5,15,5.7,15
			H16c0.4,0,0.8,0.3,0.8,0.8v14.8c0,0.3-0.2,0.5-0.4,0.7C16.2,31.2,16.1,31.2,16,31.2z M6.7,16.5c1.7,5.4,4.6,9.6,8.5,12.6V16.5H6.7
			z"/>
	</g>
	<g>
		<path fill="#74B1E0" d="M16,31.2c-0.1,0-0.2,0-0.4-0.1c-0.2-0.1-0.4-0.4-0.4-0.7V15.7c0-0.4,0.3-0.8,0.8-0.8h10.3
			c0.2,0,0.5,0.1,0.6,0.3c0.1,0.2,0.2,0.4,0.1,0.7c-1.9,6.7-5.5,11.9-10.6,15.2C16.3,31.2,16.1,31.2,16,31.2z M16.8,16.5v12.6
			c4-3,6.8-7.2,8.5-12.6H16.8z"/>
	</g>
	<g>
		<path fill="#74B1E0" d="M16,16.5H5.7c-0.3,0-0.6-0.2-0.7-0.5c-1.4-5.1-1.3-9.3-1.3-9.4c0-0.3,0.3-0.6,0.6-0.7
			c4.9-1,8.9-3.2,11.3-4.9c0.2-0.2,0.5-0.2,0.8,0c0.2,0.1,0.4,0.4,0.4,0.7v14.2C16.8,16.1,16.4,16.5,16,16.5z M6.3,15h9V2.9
			C12.8,4.4,9.3,6.2,5.2,7.1C5.2,8.3,5.3,11.4,6.3,15z"/>
	</g>
</g>
</svg>
