<?xml version="1.0" encoding="utf-8"?>
<!-- Generator: Adobe Illustrator 18.0.0, SVG Export Plug-In . SVG Version: 6.00 Build 0)  -->
<!DOCTYPE svg PUBLIC "-//W3C//DTD SVG 1.1//EN" "http://www.w3.org/Graphics/SVG/1.1/DTD/svg11.dtd">
<svg version="1.1" id="Layer_1" xmlns="http://www.w3.org/2000/svg" xmlns:xlink="http://www.w3.org/1999/xlink" x="0px" y="0px"
	 viewBox="0 0 32 32" enable-background="new 0 0 32 32" xml:space="preserve">
<g>
	<g>
		<path fill="#79C693" d="M28.3,28.8H3.7c-1.6,0-3-1.3-3-3V8.5c0-1.6,1.3-3,3-3h24.5c1.6,0,3,1.3,3,3v17.4
			C31.3,27.5,29.9,28.8,28.3,28.8z M3.7,7C2.9,7,2.3,7.6,2.3,8.5v17.4c0,0.8,0.7,1.5,1.5,1.5h24.5c0.8,0,1.5-0.7,1.5-1.5V8.5
			c0-0.8-0.7-1.5-1.5-1.5H3.7z"/>
	</g>
	<g>
		<circle fill="#F0F7F7" cx="20.2" cy="17.2" r="6.4"/>
		<path fill="#8F9BA8" d="M20.2,24.3c-3.9,0-7.1-3.2-7.1-7.1c0-3.9,3.2-7.1,7.1-7.1c3.9,0,7.1,3.2,7.1,7.1
			C27.3,21.1,24.1,24.3,20.2,24.3z M20.2,11.5c-3.1,0-5.6,2.5-5.6,5.6s2.5,5.6,5.6,5.6s5.6-2.5,5.6-5.6S23.3,11.5,20.2,11.5z"/>
	</g>
	<g>
		<rect x="5" y="9.4" fill="#79C693" width="5.6" height="1.5"/>
	</g>
	<g>
		<rect x="6.5" y="3.2" fill="#79C693" width="1.5" height="3.1"/>
	</g>
	<g>
		<circle fill="#F0F7F7" cx="20.2" cy="17.2" r="2.2"/>
		<path fill="#8F9BA8" d="M20.2,20.1c-1.7,0-3-1.3-3-3c0-1.7,1.3-3,3-3c1.7,0,3,1.3,3,3C23.1,18.8,21.8,20.1,20.2,20.1z M20.2,15.7
			c-0.8,0-1.5,0.7-1.5,1.5c0,0.8,0.7,1.5,1.5,1.5c0.8,0,1.5-0.7,1.5-1.5C21.6,16.3,21,15.7,20.2,15.7z"/>
	</g>
</g>
</svg>
