<?xml version="1.0" encoding="utf-8"?>
<!-- Generator: Adobe Illustrator 18.0.0, SVG Export Plug-In . SVG Version: 6.00 Build 0)  -->
<!DOCTYPE svg PUBLIC "-//W3C//DTD SVG 1.1//EN" "http://www.w3.org/Graphics/SVG/1.1/DTD/svg11.dtd">
<svg version="1.1" id="Layer_1" xmlns="http://www.w3.org/2000/svg" xmlns:xlink="http://www.w3.org/1999/xlink" x="0px" y="0px"
	 viewBox="0 0 32 32" enable-background="new 0 0 32 32" xml:space="preserve">
<g>
	<g>
		<path fill="#F9F8F2" d="M15.7,20.5l-9.1,9.1c-1.2,1.2-3,1.2-4.2,0l0,0c-1.2-1.2-1.2-3,0-4.2l9.1-9.1"/>
		<path fill="#B4A79C" d="M4.5,31.2c-0.9,0-1.9-0.4-2.6-1.1c-1.4-1.4-1.4-3.8,0-5.2l9.1-9.1l1.1,1.1L2.9,26c-0.9,0.9-0.9,2.3,0,3.1
			C3.8,30,5.2,30,6,29.1l9.1-9.1l1.1,1.1l-9.1,9.1C6.3,30.9,5.4,31.2,4.5,31.2z"/>
	</g>
	<g>
		<path fill="#B4A79C" d="M20.2,22.8c-2.9,0-5.7-1.1-7.8-3.2C8.1,15.3,8.1,8.3,12.4,4c2.1-2.1,4.9-3.2,7.8-3.2S25.9,1.9,28,4
			c4.3,4.3,4.3,11.3,0,15.6C25.9,21.7,23.2,22.8,20.2,22.8z M20.2,2.3c-2.5,0-4.9,1-6.7,2.8c-3.7,3.7-3.7,9.8,0,13.5
			c1.8,1.8,4.2,2.8,6.7,2.8c2.5,0,4.9-1,6.7-2.8c3.7-3.7,3.7-9.8,0-13.5C25.2,3.2,22.8,2.3,20.2,2.3z"/>
	</g>
	<g>
		
			<rect x="19.5" y="6.7" transform="matrix(0.7071 0.7071 -0.7071 0.7071 14.2513 -10.8524)" fill="#B4A042" width="1.5" height="10.2"/>
	</g>
	<g>
		
			<rect x="15.1" y="11" transform="matrix(0.7071 0.7071 -0.7071 0.7071 14.2507 -10.8521)" fill="#B4A042" width="10.2" height="1.5"/>
	</g>
</g>
</svg>
