<?xml version="1.0" encoding="utf-8"?>
<!-- Generator: Adobe Illustrator 18.0.0, SVG Export Plug-In . SVG Version: 6.00 Build 0)  -->
<!DOCTYPE svg PUBLIC "-//W3C//DTD SVG 1.1//EN" "http://www.w3.org/Graphics/SVG/1.1/DTD/svg11.dtd">
<svg version="1.1" id="Layer_1" xmlns="http://www.w3.org/2000/svg" xmlns:xlink="http://www.w3.org/1999/xlink" x="0px" y="0px"
	 viewBox="0 0 32 32" enable-background="new 0 0 32 32" xml:space="preserve">
<g>
	<g>
		<path fill="#F0F7F7" d="M15.7,20.5l-9.1,9.1c-1.2,1.2-3,1.2-4.2,0l0,0c-1.2-1.2-1.2-3,0-4.2l9.1-9.1"/>
		<path fill="#8F9BA8" d="M4.5,31.2c-0.9,0-1.9-0.4-2.6-1.1c-0.7-0.7-1.1-1.6-1.1-2.6c0-1,0.4-1.9,1.1-2.6l9.1-9.1l1.1,1.1L2.9,26
			c-0.4,0.4-0.6,1-0.6,1.6s0.2,1.1,0.6,1.6c0.8,0.8,2.3,0.8,3.1,0l9.1-9.1l1.1,1.1l-9.1,9.1C6.3,30.9,5.4,31.2,4.5,31.2z"/>
	</g>
	<g>
		<path fill="#DA8C8C" d="M20.2,22.8c-2.9,0-5.7-1.1-7.8-3.2C8.1,15.3,8.1,8.3,12.4,4c2.1-2.1,4.9-3.2,7.8-3.2
			c2.9,0,5.7,1.1,7.8,3.2c4.3,4.3,4.3,11.3,0,15.6C25.9,21.7,23.2,22.8,20.2,22.8z M20.2,2.3c-2.5,0-4.9,1-6.7,2.8
			c-3.7,3.7-3.7,9.8,0,13.5c1.8,1.8,4.2,2.8,6.7,2.8c2.5,0,4.9-1,6.7-2.8c3.7-3.7,3.7-9.8,0-13.5C25.2,3.2,22.8,2.3,20.2,2.3z"/>
	</g>
	<g>
		<line fill="#FAC2C3" x1="25.3" y1="11.8" x2="15.1" y2="11.8"/>
		<rect x="15.1" y="11" fill="#DA8C8C" width="10.2" height="1.5"/>
	</g>
</g>
</svg>
