<?xml version="1.0" encoding="utf-8"?>
<!-- Generator: Adobe Illustrator 18.0.0, SVG Export Plug-In . SVG Version: 6.00 Build 0)  -->
<!DOCTYPE svg PUBLIC "-//W3C//DTD SVG 1.1//EN" "http://www.w3.org/Graphics/SVG/1.1/DTD/svg11.dtd">
<svg version="1.1" id="Layer_1" xmlns="http://www.w3.org/2000/svg" xmlns:xlink="http://www.w3.org/1999/xlink" x="0px" y="0px"
	 viewBox="0 0 32 32" enable-background="new 0 0 32 32" xml:space="preserve">
<g>
	<g>
		<path fill="#B4A79C" d="M16,16.7H8.3c-0.4,0-0.7-0.3-0.8-0.7c0-3-1.5-5.7-4-7.3C3.3,8.6,3.2,8.4,3.2,8.2c0-0.2,0-0.4,0.1-0.6
			C6.1,3.3,10.9,0.8,16,0.8c0.4,0,0.8,0.3,0.8,0.8V16C16.8,16.4,16.4,16.7,16,16.7z M9,15.2h6.3v-13C11.1,2.5,7.4,4.5,4.9,7.8
			C7.3,9.6,8.8,12.3,9,15.2z"/>
	</g>
	<g>
		<path fill="#B4A79C" d="M16,31.3c-5.1,0-9.9-2.6-12.7-6.9c-0.1-0.2-0.1-0.4-0.1-0.6c0-0.2,0.2-0.4,0.3-0.5c2.5-1.6,4-4.3,4-7.3
			c0-0.4,0.3-0.8,0.8-0.8h15.5c0.4,0,0.8,0.3,0.8,0.8c0,3,1.5,5.7,4,7.3c0.2,0.1,0.3,0.3,0.3,0.5s0,0.4-0.1,0.6
			C25.9,28.7,21.1,31.3,16,31.3z M16.8,16.7v13c4.1-0.2,7.9-2.3,10.3-5.6c-2.4-1.8-3.9-4.5-4.1-7.4H16.8z M4.9,24.2
			c2.4,3.3,6.2,5.4,10.3,5.6v-13H9C8.8,19.7,7.3,22.4,4.9,24.2z"/>
	</g>
	<g>
		<path fill="#B4A79C" d="M23.7,16.7H16c-0.4,0-0.8-0.3-0.8-0.8V1.5c0-0.4,0.3-0.8,0.8-0.8c5.1,0,9.9,2.6,12.7,6.9
			c0.1,0.2,0.1,0.4,0.1,0.6c0,0.2-0.2,0.4-0.3,0.5c-2.5,1.6-4,4.3-4,7.3C24.5,16.4,24.1,16.7,23.7,16.7z M16.8,15.2H23
			c0.2-2.9,1.7-5.6,4.1-7.4c-2.4-3.3-6.2-5.4-10.3-5.6V15.2z"/>
	</g>
	<g>
		<path fill="#B4A79C" d="M28.1,24.7c-0.1,0-0.3,0-0.4-0.1c-3-1.9-4.7-5.1-4.7-8.6c0,0,0,0,0,0c0-3.5,1.8-6.7,4.7-8.6
			c0.3-0.2,0.8-0.1,1,0.2c1.6,2.5,2.5,5.4,2.5,8.4c0,3-0.9,5.9-2.5,8.4C28.6,24.6,28.4,24.7,28.1,24.7z M24.5,16.7
			c0.2,2.4,1.4,4.7,3.4,6.2c1.1-1.9,1.7-4,1.8-6.2H24.5z M24.5,15.2h5.2c-0.1-2.2-0.7-4.3-1.8-6.1C25.9,10.6,24.7,12.8,24.5,15.2z"
			/>
	</g>
	<g>
		<path fill="#B4A79C" d="M3.9,24.7c-0.2,0-0.5-0.1-0.6-0.3C1.6,21.9,0.8,19,0.8,16c0-3,0.9-5.9,2.5-8.4c0.2-0.3,0.7-0.4,1-0.2
			C7.2,9.3,9,12.5,9,16c0,0,0,0,0,0c0,3.5-1.8,6.7-4.7,8.6C4.2,24.7,4,24.7,3.9,24.7z M2.3,16.7C2.4,18.9,3,21,4.1,22.9
			c2-1.5,3.2-3.7,3.4-6.2H2.3z M2.3,15.2h5.2c-0.2-2.4-1.4-4.6-3.4-6.1C3,11,2.4,13.1,2.3,15.2z"/>
	</g>
</g>
</svg>
