<?xml version="1.0" encoding="utf-8"?>
<!-- Generator: Adobe Illustrator 18.0.0, SVG Export Plug-In . SVG Version: 6.00 Build 0)  -->
<!DOCTYPE svg PUBLIC "-//W3C//DTD SVG 1.1//EN" "http://www.w3.org/Graphics/SVG/1.1/DTD/svg11.dtd">
<svg version="1.1" id="Layer_1" xmlns="http://www.w3.org/2000/svg" xmlns:xlink="http://www.w3.org/1999/xlink" x="0px" y="0px"
	 viewBox="0 0 32 32" enable-background="new 0 0 32 32" xml:space="preserve">
<g>
	<g>
		<path fill="#79C693" d="M31.3,20.3h-5v-8.6h5V20.3z M27.8,18.8h2v-5.6h-2V18.8z"/>
	</g>
	<g>
		<path fill="#79C693" d="M8.5,24h-5c-1.5,0-2.7-1.2-2.7-2.7V10.7C0.8,9.2,2,8,3.4,8h5V24z M3.4,9.5c-0.7,0-1.2,0.5-1.2,1.2v10.7
			c0,0.7,0.5,1.2,1.2,1.2H7V9.5H3.4z"/>
	</g>
	<g>
		<path fill="#79C693" d="M25.1,24H13.5V8h11.6c1.5,0,2.7,1.2,2.7,2.7v10.7C27.8,22.8,26.6,24,25.1,24z M15,22.5h10.1
			c0.7,0,1.2-0.5,1.2-1.2V10.7c0-0.7-0.5-1.2-1.2-1.2H15V22.5z"/>
	</g>
	<g>
		<path fill="none" stroke="#79C693" stroke-width="1.5" stroke-miterlimit="10" d="M20.8,23.3"/>
	</g>
	<g>
		<path fill="none" stroke="#79C693" stroke-width="1.5" stroke-miterlimit="10" d="M20.8,8.7"/>
	</g>
	<g>
		<path fill="#79C693" d="M15,24H7V8h8V24z M8.5,22.5h5V9.5h-5V22.5z"/>
	</g>
</g>
</svg>
