<?xml version="1.0" encoding="utf-8"?>
<!-- Generator: Adobe Illustrator 18.0.0, SVG Export Plug-In . SVG Version: 6.00 Build 0)  -->
<!DOCTYPE svg PUBLIC "-//W3C//DTD SVG 1.1//EN" "http://www.w3.org/Graphics/SVG/1.1/DTD/svg11.dtd">
<svg version="1.1" id="Layer_1" xmlns="http://www.w3.org/2000/svg" xmlns:xlink="http://www.w3.org/1999/xlink" x="0px" y="0px"
	 viewBox="0 0 32 32" enable-background="new 0 0 32 32" xml:space="preserve">
<g>
	<g>
		<path fill="#79C693" d="M16,31.3l-0.3-0.1C2.2,25.9,2.6,6.3,2.6,5.5l0-0.4l0.5-0.3C6.9,2.1,11.4,0.7,16,0.7
			c4.6,0,9.1,1.4,12.9,4.1l0.5,0.3l0,0.4c0,0.8,0.5,20.4-13.1,25.7L16,31.3z M4.1,5.9C4.1,8.6,4.7,25,16,29.7
			C27.3,25,27.9,8.6,27.9,5.9C24.4,3.5,20.3,2.2,16,2.2C11.7,2.2,7.6,3.5,4.1,5.9z"/>
	</g>
	<g>
		<polygon fill="#79C693" points="14.2,18.8 11.2,15.8 12.3,14.8 14.2,16.7 19.7,11.1 20.8,12.2 		"/>
	</g>
</g>
</svg>
