<?xml version="1.0" encoding="utf-8"?>
<!-- Generator: Adobe Illustrator 18.0.0, SVG Export Plug-In . SVG Version: 6.00 Build 0)  -->
<!DOCTYPE svg PUBLIC "-//W3C//DTD SVG 1.1//EN" "http://www.w3.org/Graphics/SVG/1.1/DTD/svg11.dtd">
<svg version="1.1" id="Layer_1" xmlns="http://www.w3.org/2000/svg" xmlns:xlink="http://www.w3.org/1999/xlink" x="0px" y="0px"
	 viewBox="0 0 32 32" enable-background="new 0 0 32 32" xml:space="preserve">
<g>
	<g>
		<path fill="#B4A042" d="M16,22.1c-3.4,0-6.1-2.8-6.1-6.1c0-3.4,2.8-6.1,6.1-6.1s6.1,2.8,6.1,6.1C22.1,19.4,19.4,22.1,16,22.1z
			 M16,11.4c-2.6,0-4.6,2.1-4.6,4.6c0,2.6,2.1,4.6,4.6,4.6s4.6-2.1,4.6-4.6C20.6,13.4,18.6,11.4,16,11.4z"/>
	</g>
	<g>
		<path fill="#B4A79C" d="M19.1,31.3h-6.3v-3.1c-1.1-0.3-2.2-0.7-3.2-1.4L7.4,29L3,24.6l2.2-2.2c-0.6-1-1.1-2.1-1.4-3.2H0.8v-6.3
			h3.1c0.3-1.1,0.7-2.2,1.4-3.2L3,7.4L7.4,3l2.2,2.2c1-0.6,2.1-1.1,3.2-1.4V0.8h6.3v3.1c1.1,0.3,2.2,0.7,3.2,1.4L24.6,3L29,7.4
			l-2.2,2.2c0.6,1,1.1,2.1,1.4,3.2h3.1v6.3h-3.1c-0.3,1.1-0.7,2.2-1.4,3.2l2.2,2.2L24.6,29l-2.2-2.2c-1,0.6-2.1,1.1-3.2,1.4V31.3z
			 M14.4,29.8h3.3v-2.8l0.6-0.1c1.4-0.3,2.7-0.8,3.8-1.6l0.5-0.3l2,2l2.3-2.3l-2-2l0.3-0.5c0.8-1.2,1.3-2.5,1.6-3.8l0.1-0.6h2.8
			v-3.3h-2.8l-0.1-0.6c-0.3-1.4-0.8-2.7-1.6-3.8l-0.3-0.5l2-2l-2.3-2.3l-2,2l-0.5-0.3c-1.2-0.8-2.5-1.3-3.8-1.6l-0.6-0.1V2.3h-3.3
			v2.8l-0.6,0.1C12.4,5.5,11.1,6,9.9,6.8L9.4,7.1l-2-2L5.1,7.4l2,2L6.8,9.9c-0.8,1.2-1.3,2.5-1.6,3.8l-0.1,0.6H2.3v3.3h2.8l0.1,0.6
			c0.3,1.4,0.8,2.7,1.6,3.8l0.3,0.5l-2,2l2.3,2.3l2-2l0.5,0.3c1.2,0.8,2.5,1.3,3.8,1.6l0.6,0.1V29.8z"/>
	</g>
</g>
</svg>
