<?xml version="1.0" encoding="utf-8"?>
<!-- Generator: Adobe Illustrator 18.0.0, SVG Export Plug-In . SVG Version: 6.00 Build 0)  -->
<!DOCTYPE svg PUBLIC "-//W3C//DTD SVG 1.1//EN" "http://www.w3.org/Graphics/SVG/1.1/DTD/svg11.dtd">
<svg version="1.1" id="Layer_1" xmlns="http://www.w3.org/2000/svg" xmlns:xlink="http://www.w3.org/1999/xlink" x="0px" y="0px"
	 viewBox="0 0 32 32" enable-background="new 0 0 32 32" xml:space="preserve">
<g>
	<g>
		<path fill="#8F9BA8" d="M16.8,31.3h-1.5c0-1.7,1.4-3.1,3.1-3.1h6c0.8,0,1.5-0.7,1.5-1.5v-1.5h1.5v1.5c0,1.7-1.4,3.1-3.1,3.1h-6
			C17.5,29.7,16.8,30.4,16.8,31.3z"/>
	</g>
	<g>
		<path fill="#FAC2C3" d="M26.6,25.1L26.6,25.1c-1.2,0-2.1-0.9-2.1-2.1v-5.3c0-1.2,0.9-2.1,2.1-2.1l0,0c1.2,0,2.1,0.9,2.1,2.1V23
			C28.7,24.2,27.8,25.1,26.6,25.1z"/>
		<path fill="#DA8C8C" d="M26.6,25.9c-1.6,0-2.9-1.3-2.9-2.9v-5.3c0-1.6,1.3-2.9,2.9-2.9s2.9,1.3,2.9,2.9V23
			C29.5,24.6,28.2,25.9,26.6,25.9z M26.6,16.3c-0.7,0-1.3,0.6-1.3,1.3V23c0,0.7,0.6,1.3,1.3,1.3c0.7,0,1.3-0.6,1.3-1.3v-5.3
			C28,16.9,27.4,16.3,26.6,16.3z"/>
	</g>
	<g>
		<rect x="28.7" y="19.6" fill="#DA8C8C" width="2.1" height="1.5"/>
	</g>
	<g>
		<path fill="#FAC2C3" d="M5.3,15.6L5.3,15.6c1.2,0,2.2,0.9,2.2,2.1V23c0,1.1-0.9,2.1-2.1,2.1H5.3c-1.1,0-2.1-0.9-2.1-2.1v-5.4
			C3.3,16.5,4.2,15.6,5.3,15.6z"/>
		<path fill="#DA8C8C" d="M5.4,25.9c-1.6,0-2.9-1.3-2.9-2.9v-5.3c0-1.6,1.3-2.9,2.9-2.9s2.9,1.3,2.9,2.9V23
			C8.3,24.6,7,25.9,5.4,25.9z M5.4,16.3c-0.7,0-1.3,0.6-1.3,1.3V23c0,0.7,0.6,1.3,1.3,1.3s1.3-0.6,1.3-1.3v-5.3
			C6.7,16.9,6.1,16.3,5.4,16.3z"/>
	</g>
	<g>
		<rect x="1.1" y="19.6" fill="#DA8C8C" width="2.1" height="1.5"/>
	</g>
	<g>
		<path fill="#DA8C8C" d="M27.4,15.6h-1.5v-3.4c0-5.4-4.4-9.8-9.8-9.8s-9.8,4.4-9.8,9.8v3.4H4.6v-3.4C4.6,5.9,9.7,0.8,16,0.8
			s11.4,5.1,11.4,11.4V15.6z"/>
	</g>
</g>
</svg>
