<?xml version="1.0" encoding="utf-8"?>
<!-- Generator: Adobe Illustrator 18.0.0, SVG Export Plug-In . SVG Version: 6.00 Build 0)  -->
<!DOCTYPE svg PUBLIC "-//W3C//DTD SVG 1.1//EN" "http://www.w3.org/Graphics/SVG/1.1/DTD/svg11.dtd">
<svg version="1.1" id="Layer_1" xmlns="http://www.w3.org/2000/svg" xmlns:xlink="http://www.w3.org/1999/xlink" x="0px" y="0px"
	 viewBox="0 0 32 32" enable-background="new 0 0 32 32" xml:space="preserve">
<g>
	<g>
		<path fill="#B4A79C" d="M13.6,30.7L13.6,30.7c-0.7,0-1.4-0.2-2.1-0.5l-8.3-4.3c-1.1-0.6-1.9-1.5-2.2-2.6c-0.4-1.1-0.3-2.4,0.3-3.4
			l4.8-9.2l16.2,8.4l-4.8,9.2C16.8,29.8,15.2,30.7,13.6,30.7z M6.7,12.7l-4.1,7.9c-0.4,0.7-0.4,1.5-0.2,2.3s0.8,1.4,1.5,1.8l8.3,4.3
			c0.4,0.2,0.9,0.3,1.4,0.3c1.1,0,2.1-0.6,2.7-1.6l4.1-7.9L6.7,12.7z"/>
	</g>
	<g>
		<path fill="#B4A79C" d="M14.5,15.9l-1.3-0.7l5.1-9.8C19.5,3,22.5,2,24.9,3.3c0.8,0.4,1.8,0.5,2.6,0.2c0.9-0.3,1.6-0.9,2-1.7
			l0.3-0.5L31.2,2l-0.3,0.5c-0.6,1.2-1.6,2-2.9,2.4s-2.6,0.3-3.8-0.3c-0.8-0.4-1.8-0.5-2.6-0.2c-0.9,0.3-1.6,0.9-2,1.7L14.5,15.9z"
			/>
	</g>
	<g>
		<path fill="#B4A79C" d="M21.6,20.4l-8.8-4.6l5.4-10.4l0.7,0.3c4.5,2.3,6.2,7.9,3.9,12.3L21.6,20.4z M14.9,15.2l6.1,3.2l0.5-0.9
			c1.8-3.5,0.6-7.8-2.6-9.9L14.9,15.2z"/>
	</g>
	<g>
		<path fill="#F9F8F2" d="M7.2,10.1l-0.8,1.6l7.5,3.9l4.7-9C14.4,4.4,9.4,6,7.2,10.1z"/>
		<path fill="#B4A79C" d="M13.9,16.3c-0.1,0-0.2,0-0.3-0.1l-7.5-3.9c-0.4-0.2-0.5-0.6-0.3-1l0.8-1.6c1.6-3,4.7-4.9,8.1-4.9
			c1.5,0,2.9,0.4,4.2,1c0.4,0.2,0.5,0.6,0.3,1l-4.7,9c-0.1,0.2-0.2,0.3-0.4,0.4C14,16.3,13.9,16.3,13.9,16.3z M7.4,11.3l6.1,3.2
			l4-7.7c-0.9-0.4-1.9-0.5-2.8-0.5c-2.9,0-5.5,1.6-6.8,4.1L7.4,11.3z"/>
	</g>
</g>
</svg>
