<?xml version="1.0" encoding="utf-8"?>
<!-- Generator: Adobe Illustrator 18.0.0, SVG Export Plug-In . SVG Version: 6.00 Build 0)  -->
<!DOCTYPE svg PUBLIC "-//W3C//DTD SVG 1.1//EN" "http://www.w3.org/Graphics/SVG/1.1/DTD/svg11.dtd">
<svg version="1.1" id="Layer_1" xmlns="http://www.w3.org/2000/svg" xmlns:xlink="http://www.w3.org/1999/xlink" x="0px" y="0px"
	 viewBox="0 0 32 32" enable-background="new 0 0 32 32" xml:space="preserve">
<g>
	<g>
		<path fill="#B4A79C" d="M20.9,10.2l-1.1-1C21,8,21,6,19.7,4.8l1-1.1C22.6,5.4,22.6,8.3,20.9,10.2z"/>
	</g>
	<g>
		<path fill="#B4A79C" d="M23.3,12.5l-1.1-1c1.2-1.2,1.8-2.9,1.8-4.6s-0.7-3.3-2-4.5l1-1.1c1.5,1.5,2.4,3.5,2.4,5.6
			C25.5,9,24.8,11,23.3,12.5z"/>
	</g>
	<g>
		<path fill="#B4A79C" d="M11.1,10.2c-1.8-1.8-1.7-4.8,0.1-6.5l1,1.1C11,6,10.9,8,12.1,9.2L11.1,10.2z"/>
	</g>
	<g>
		<path fill="#B4A79C" d="M8.7,12.5C7.2,11,6.5,9,6.5,6.8c0-2.1,0.9-4.1,2.4-5.6l1,1.1C8.7,3.5,8,5.1,8,6.9c0,1.7,0.6,3.4,1.8,4.6
			L8.7,12.5z"/>
	</g>
	<g>
		<rect x="15.3" y="9.9" fill="#B4A79C" width="1.5" height="10.2"/>
	</g>
	<g>
		<rect x="15.3" y="5.8" fill="#B4A79C" width="1.5" height="2.1"/>
	</g>
	<g>
		<path fill="#B4A79C" d="M28.2,29.4H3.8c-1.7,0-3.1-1.4-3.1-3.1v-3.9c0-1.7,1.4-3.1,3.1-3.1h24.3c1.7,0,3.1,1.4,3.1,3.1v3.9
			C31.3,28,29.9,29.4,28.2,29.4z M3.8,20.8c-0.9,0-1.6,0.7-1.6,1.6v3.9c0,0.9,0.7,1.6,1.6,1.6h24.3c0.9,0,1.6-0.7,1.6-1.6v-3.9
			c0-0.9-0.7-1.6-1.6-1.6H3.8z"/>
	</g>
	<g>
		<circle fill="#F2E8B9" cx="25" cy="24.4" r="1.9"/>
		<path fill="#B4A042" d="M25,27.1c-1.5,0-2.7-1.2-2.7-2.7s1.2-2.7,2.7-2.7s2.7,1.2,2.7,2.7S26.4,27.1,25,27.1z M25,23.2
			c-0.7,0-1.2,0.5-1.2,1.2s0.5,1.2,1.2,1.2s1.2-0.5,1.2-1.2S25.6,23.2,25,23.2z"/>
	</g>
	<g>
		<line fill="none" x1="4.9" y1="23.6" x2="4.9" y2="25.2"/>
		<rect x="4.2" y="23.6" fill="#B4A042" width="1.5" height="1.6"/>
	</g>
	<g>
		<line fill="none" x1="8.4" y1="23.6" x2="8.4" y2="25.2"/>
		<rect x="7.7" y="23.6" fill="#B4A042" width="1.5" height="1.6"/>
	</g>
	<g>
		<line fill="none" x1="12" y1="23.6" x2="12" y2="25.2"/>
		<rect x="11.2" y="23.6" fill="#B4A042" width="1.5" height="1.6"/>
	</g>
	<g>
		<rect x="24.7" y="28.7" fill="#B4A79C" width="1.5" height="2.1"/>
	</g>
	<g>
		<rect x="5.8" y="28.7" fill="#B4A79C" width="1.5" height="2.1"/>
	</g>
</g>
</svg>
