<?xml version="1.0" encoding="utf-8"?>
<!-- Generator: Adobe Illustrator 18.0.0, SVG Export Plug-In . SVG Version: 6.00 Build 0)  -->
<!DOCTYPE svg PUBLIC "-//W3C//DTD SVG 1.1//EN" "http://www.w3.org/Graphics/SVG/1.1/DTD/svg11.dtd">
<svg version="1.1" id="Layer_1" xmlns="http://www.w3.org/2000/svg" xmlns:xlink="http://www.w3.org/1999/xlink" x="0px" y="0px"
	 viewBox="0 0 32 32" enable-background="new 0 0 32 32" xml:space="preserve">
<g>
	<g>
		<path fill="#74B1E0" d="M27.2,20.1H4.8c-1,0-1.9-0.8-1.9-1.9V5c0-1,0.8-1.9,1.9-1.9h22.5c1,0,1.9,0.8,1.9,1.9v13.2
			C29.1,19.2,28.3,20.1,27.2,20.1z M4.8,4.6C4.6,4.6,4.4,4.8,4.4,5v13.2c0,0.2,0.2,0.4,0.4,0.4h22.5c0.2,0,0.4-0.2,0.4-0.4V5
			c0-0.2-0.2-0.4-0.4-0.4H4.8z"/>
	</g>
	<g>
		<path fill="#F0F7F7" d="M28.7,28.1H3.3c-1,0-1.8-0.8-1.8-1.8v-2.8h29v2.8C30.5,27.3,29.7,28.1,28.7,28.1z"/>
		<path fill="#74B1E0" d="M28.7,28.9H3.3c-1.4,0-2.6-1.2-2.6-2.6v-3.6h30.5v3.6C31.3,27.7,30.1,28.9,28.7,28.9z M2.3,24.2v2.1
			c0,0.6,0.5,1.1,1.1,1.1h25.3c0.6,0,1.1-0.5,1.1-1.1v-2.1H2.3z"/>
	</g>
</g>
</svg>
