<?xml version="1.0" encoding="utf-8"?>
<!-- Generator: Adobe Illustrator 18.0.0, SVG Export Plug-In . SVG Version: 6.00 Build 0)  -->
<!DOCTYPE svg PUBLIC "-//W3C//DTD SVG 1.1//EN" "http://www.w3.org/Graphics/SVG/1.1/DTD/svg11.dtd">
<svg version="1.1" id="Layer_1" xmlns="http://www.w3.org/2000/svg" xmlns:xlink="http://www.w3.org/1999/xlink" x="0px" y="0px"
	 viewBox="0 0 32 32" enable-background="new 0 0 32 32" xml:space="preserve">
<pattern  y="32" width="24.1" height="24.1" patternUnits="userSpaceOnUse" id="SVGID_2_" viewBox="0 -24.1 24.1 24.1" overflow="visible">
	<g>
		<polygon fill="none" points="0,0 24.1,0 24.1,-24.1 0,-24.1 		"/>
		<g>
			<polygon fill="none" points="0,-24.1 24.1,-24.1 24.1,0 0,0 			"/>
			<polygon fill="#E0CB81" points="24.1,-24.1 0,-24.1 0,0 24.1,0 			"/>
		</g>
	</g>
</pattern>
<pattern  y="32" width="24.1" height="24.1" patternUnits="userSpaceOnUse" id="SVGID_4_" viewBox="0 -24.1 24.1 24.1" overflow="visible">
	<g>
		<polygon fill="none" points="0,0 24.1,0 24.1,-24.1 0,-24.1 		"/>
		<g>
			<polygon fill="none" points="0,-24.1 24.1,-24.1 24.1,0 0,0 			"/>
			<polygon fill="#E0CB81" points="24.1,-24.1 0,-24.1 0,0 24.1,0 			"/>
		</g>
	</g>
</pattern>
<g>
	<g>
		<path fill="#8F9BA8" d="M16,31.3l-0.3-0.1C2.2,25.9,2.6,6.3,2.6,5.5V5.1l0.5-0.3C6.9,2.1,11.4,0.7,16,0.7s9.1,1.4,12.9,4.1
			l0.5,0.3v0.4c0,0.8,0.5,20.4-13.1,25.7L16,31.3z M4.1,5.9C4.1,8.6,4.7,25,16,29.7C27.3,25,27.9,8.6,27.9,5.9
			C24.4,3.5,20.3,2.2,16,2.2S7.6,3.5,4.1,5.9z"/>
	</g>
	<g>
		<pattern  id="SVGID_1_" xlink:href="#SVGID_2_" patternTransform="matrix(1 0 0 -1 -85.5283 -16330.418)">
		</pattern>
		<polygon fill="url(#SVGID_1_)" points="18.5,18.3 12.4,12.2 13.5,11.1 19.6,17.2 		"/>
	</g>
	<g>
		<pattern  id="SVGID_3_" xlink:href="#SVGID_4_" patternTransform="matrix(1 0 0 -1 -85.5283 -16330.418)">
		</pattern>
		<polygon fill="url(#SVGID_3_)" points="13.5,18.3 12.4,17.2 18.5,11.1 19.6,12.2 		"/>
	</g>
</g>
</svg>
