<?xml version="1.0" encoding="utf-8"?>
<!-- Generator: Adobe Illustrator 18.0.0, SVG Export Plug-In . SVG Version: 6.00 Build 0)  -->
<!DOCTYPE svg PUBLIC "-//W3C//DTD SVG 1.1//EN" "http://www.w3.org/Graphics/SVG/1.1/DTD/svg11.dtd">
<svg version="1.1" id="Layer_1" xmlns="http://www.w3.org/2000/svg" xmlns:xlink="http://www.w3.org/1999/xlink" x="0px" y="0px"
	 viewBox="0 0 32 32" enable-background="new 0 0 32 32" xml:space="preserve">
<g>
	<g>
		<path fill="#8F9BA8" d="M22.4,18.4c-2.4,0-4.6-0.9-6.2-2.6c-1.7-1.7-2.6-3.9-2.6-6.2c0-2.4,0.9-4.6,2.6-6.2
			c1.7-1.7,3.9-2.6,6.2-2.6s4.6,0.9,6.2,2.6c1.7,1.7,2.6,3.9,2.6,6.2c0,2.4-0.9,4.6-2.6,6.2C27,17.5,24.8,18.4,22.4,18.4z M22.4,2.2
			c-2,0-3.8,0.8-5.2,2.1c-1.4,1.4-2.1,3.2-2.1,5.2c0,2,0.8,3.8,2.1,5.2c1.4,1.4,3.2,2.1,5.2,2.1c2,0,3.8-0.8,5.2-2.1
			c1.4-1.4,2.1-3.2,2.1-5.2S29,5.8,27.6,4.4C26.2,3,24.4,2.2,22.4,2.2z"/>
	</g>
	<g>
		<line fill="#F0F7F7" x1="16.7" y1="15.3" x2="14.3" y2="17.7"/>
		
			<rect x="14.8" y="14.8" transform="matrix(0.7071 0.7071 -0.7071 0.7071 16.1959 -6.1555)" fill="#8F9BA8" width="1.5" height="3.4"/>
	</g>
	<g>
		<path fill="#F0F7F7" d="M2.2,29.8L2.2,29.8c-0.9-0.9-0.9-2.4,0-3.3l9.1-9.1c0.9-0.9,2.4-0.9,3.3,0l0,0c0.9,0.9,0.9,2.4,0,3.3
			l-9.1,9.1C4.6,30.7,3.1,30.7,2.2,29.8z"/>
		<path fill="#8F9BA8" d="M3.8,31.3c-0.8,0-1.6-0.3-2.2-0.9c-0.6-0.6-0.9-1.4-0.9-2.2c0-0.8,0.3-1.6,0.9-2.2l9.1-9.1
			c1.2-1.2,3.2-1.2,4.4,0c0.6,0.6,0.9,1.4,0.9,2.2c0,0.8-0.3,1.6-0.9,2.2L6,30.3C5.4,30.9,4.7,31.3,3.8,31.3z M12.9,17.5
			c-0.4,0-0.8,0.2-1.1,0.5l-9.1,9.1c-0.3,0.3-0.5,0.7-0.5,1.1c0,0.4,0.2,0.8,0.5,1.1c0.6,0.6,1.6,0.6,2.2,0l9.1-9.1
			c0.3-0.3,0.5-0.7,0.5-1.1c0-0.4-0.2-0.8-0.5-1.1C13.7,17.7,13.3,17.5,12.9,17.5z"/>
	</g>
</g>
</svg>
