<?xml version="1.0" encoding="utf-8"?>
<!-- Generator: Adobe Illustrator 18.0.0, SVG Export Plug-In . SVG Version: 6.00 Build 0)  -->
<!DOCTYPE svg PUBLIC "-//W3C//DTD SVG 1.1//EN" "http://www.w3.org/Graphics/SVG/1.1/DTD/svg11.dtd">
<svg version="1.1" id="Layer_1" xmlns="http://www.w3.org/2000/svg" xmlns:xlink="http://www.w3.org/1999/xlink" x="0px" y="0px"
	 viewBox="0 0 32 32" enable-background="new 0 0 32 32" xml:space="preserve">
<g>
	<g>
		<line fill="#F0F7F7" x1="16.2" y1="5.3" x2="16.2" y2="0.8"/>
		<rect x="15.5" y="0.8" fill="#8F9BA8" width="1.5" height="4.6"/>
	</g>
	<g>
		<path fill="#8F9BA8" d="M18.3,31.3h-12c-1.8,0-3.3-1.5-3.3-3.3v-13h18.6v13C21.6,29.8,20.1,31.3,18.3,31.3z M4.5,16.5v11.5
			c0,1,0.8,1.8,1.8,1.8h12c1,0,1.8-0.8,1.8-1.8V16.5H4.5z"/>
	</g>
	<g>
		<line fill="#F0F7F7" x1="6.1" y1="18.7" x2="8.2" y2="18.7"/>
		<rect x="6.1" y="18" fill="#8F9BA8" width="2.1" height="1.5"/>
	</g>
	<g>
		<line fill="#F0F7F7" x1="11.2" y1="18.7" x2="13.3" y2="18.7"/>
		<rect x="11.2" y="18" fill="#8F9BA8" width="2.1" height="1.5"/>
	</g>
	<g>
		<line fill="#F0F7F7" x1="16.4" y1="18.7" x2="18.5" y2="18.7"/>
		<rect x="16.4" y="18" fill="#8F9BA8" width="2.1" height="1.5"/>
	</g>
	<g>
		<line fill="#F0F7F7" x1="6.1" y1="23.1" x2="8.2" y2="23.1"/>
		<rect x="6.1" y="22.3" fill="#8F9BA8" width="2.1" height="1.5"/>
	</g>
	<g>
		<line fill="#F0F7F7" x1="11.2" y1="23.1" x2="13.3" y2="23.1"/>
		<rect x="11.2" y="22.3" fill="#8F9BA8" width="2.1" height="1.5"/>
	</g>
	<g>
		<line fill="#F0F7F7" x1="16.4" y1="23.1" x2="18.5" y2="23.1"/>
		<rect x="16.4" y="22.3" fill="#8F9BA8" width="2.1" height="1.5"/>
	</g>
	<g>
		<line fill="#F0F7F7" x1="6.1" y1="27.4" x2="8.2" y2="27.4"/>
		<rect x="6.1" y="26.7" fill="#8F9BA8" width="2.1" height="1.5"/>
	</g>
	<g>
		<line fill="#F0F7F7" x1="11.2" y1="27.4" x2="13.3" y2="27.4"/>
		<rect x="11.2" y="26.7" fill="#8F9BA8" width="2.1" height="1.5"/>
	</g>
	<g>
		<line fill="#F0F7F7" x1="16.4" y1="27.4" x2="18.5" y2="27.4"/>
		<rect x="16.4" y="26.7" fill="#8F9BA8" width="2.1" height="1.5"/>
	</g>
	<g>
		<path fill="#8F9BA8" d="M24.2,13.2l-1.1-1.1c1.2-1.3,1.2-3.3-0.1-4.5l1.1-1.1C26,8.3,26.1,11.3,24.2,13.2z"/>
	</g>
	<g>
		<path fill="#8F9BA8" d="M26.7,15.6l-1.1-1.1c1.2-1.3,1.9-3,1.9-4.7c0-1.8-0.8-3.4-2-4.7L26.5,4C28.1,5.5,29,7.6,29,9.8
			C29,11.9,28.2,14,26.7,15.6z"/>
	</g>
	<g>
		<path fill="#F0F7F7" d="M20.8,7.8c0-1.4-1.1-2.5-2.5-2.5h-12c-1.4,0-2.5,1.1-2.5,2.5v7.8h17.1V7.8z"/>
		<path fill="#8F9BA8" d="M21.6,16.5H3V7.8C3,6,4.5,4.5,6.3,4.5h12c1.8,0,3.3,1.5,3.3,3.3V16.5z M4.5,14.9H20V7.8
			c0-1-0.8-1.8-1.8-1.8h-12c-1,0-1.8,0.8-1.8,1.8V14.9z"/>
	</g>
</g>
</svg>
