<?xml version="1.0" encoding="utf-8"?>
<!-- Generator: Adobe Illustrator 18.0.0, SVG Export Plug-In . SVG Version: 6.00 Build 0)  -->
<!DOCTYPE svg PUBLIC "-//W3C//DTD SVG 1.1//EN" "http://www.w3.org/Graphics/SVG/1.1/DTD/svg11.dtd">
<svg version="1.1" id="Layer_1" xmlns="http://www.w3.org/2000/svg" xmlns:xlink="http://www.w3.org/1999/xlink" x="0px" y="0px"
	 viewBox="0 0 32 32" enable-background="new 0 0 32 32" xml:space="preserve">
<g>
	<g>
		<path fill="#79C693" d="M21.1,17.7c-1.8,0-3.5-0.7-4.8-2c-2.6-2.6-2.6-6.9,0-9.5l3.4-3.4c1.3-1.3,3-2,4.8-2c1.8,0,3.5,0.7,4.8,2
			c1.3,1.3,2,3,2,4.8c0,1.8-0.7,3.5-2,4.8l-3.4,3.4C24.6,17,22.9,17.7,21.1,17.7z M24.5,2.3c-1.4,0-2.7,0.5-3.7,1.5l-3.4,3.4
			c-2,2-2,5.4,0,7.4c1,1,2.3,1.5,3.7,1.5c1.4,0,2.7-0.5,3.7-1.5l3.4-3.4c1-1,1.5-2.3,1.5-3.7c0-1.4-0.5-2.7-1.5-3.7
			C27.2,2.8,25.9,2.3,24.5,2.3z"/>
	</g>
	<g>
		<path fill="#79C693" d="M7.5,31.2c-1.8,0-3.5-0.7-4.8-2c-2.6-2.6-2.6-6.9,0-9.5l3.4-3.4c1.3-1.3,3-2,4.8-2c1.8,0,3.5,0.7,4.8,2
			c2.6,2.6,2.6,6.9,0,9.5l-3.4,3.4C11,30.5,9.3,31.2,7.5,31.2z M10.9,15.8c-1.4,0-2.7,0.5-3.7,1.5l-3.4,3.4c-2,2-2,5.4,0,7.4
			c1,1,2.3,1.5,3.7,1.5c1.4,0,2.7-0.5,3.7-1.5l3.4-3.4c2-2,2-5.4,0-7.4C13.6,16.4,12.3,15.8,10.9,15.8z"/>
	</g>
	<g>
		
			<rect x="15.2" y="7.6" transform="matrix(0.7071 0.7071 -0.7071 0.7071 15.9995 -6.6261)" fill="#79C693" width="1.5" height="16.8"/>
	</g>
</g>
</svg>
