<?xml version="1.0" encoding="utf-8"?>
<!-- Generator: Adobe Illustrator 18.0.0, SVG Export Plug-In . SVG Version: 6.00 Build 0)  -->
<!DOCTYPE svg PUBLIC "-//W3C//DTD SVG 1.1//EN" "http://www.w3.org/Graphics/SVG/1.1/DTD/svg11.dtd">
<svg version="1.1" id="Layer_1" xmlns="http://www.w3.org/2000/svg" xmlns:xlink="http://www.w3.org/1999/xlink" x="0px" y="0px"
	 viewBox="0 0 32 32" enable-background="new 0 0 32 32" xml:space="preserve">
<g>
	<g>
		<rect x="11.2" y="1.5" fill="#F9F8F2" width="9.7" height="7.3"/>
		<path fill="#B4A79C" d="M21.6,9.5H10.4V0.8h11.2C21.6,0.8,21.6,9.5,21.6,9.5z M11.9,8h8.2V2.3h-8.2C11.9,2.3,11.9,8,11.9,8z"/>
	</g>
	<g>
		<rect x="20.8" y="1.5" fill="#FFFFFF" width="9.7" height="7.3"/>
		<path fill="#B4A79C" d="M31.3,9.5H20.1V0.8h11.2V9.5z M21.6,8h8.2V2.3h-8.2C21.6,2.3,21.6,8,21.6,8z"/>
	</g>
	<g>
		<rect x="6.3" y="8.7" fill="#F9F8F2" width="9.7" height="7.3"/>
		<path fill="#B4A79C" d="M16.8,16.8H5.6V8h11.2V16.8z M7.1,15.3h8.2V9.5H7.1V15.3z"/>
	</g>
	<g>
		<rect x="1.5" y="16" fill="#FFFFFF" width="9.7" height="7.3"/>
		<path fill="#B4A79C" d="M11.9,24H0.8v-8.8H12V24H11.9z M2.3,22.5h8.2v-5.8H2.3V22.5z"/>
	</g>
	<g>
		<rect x="11.2" y="16" fill="#F9F8F2" width="9.7" height="7.3"/>
		<path fill="#B4A79C" d="M21.6,24H10.4v-8.8h11.2C21.6,15.2,21.6,24,21.6,24z M11.9,22.5h8.2v-5.8h-8.2
			C11.9,16.7,11.9,22.5,11.9,22.5z"/>
	</g>
	<g>
		<rect x="20.8" y="16" fill="#FFFFFF" width="9.7" height="7.3"/>
		<path fill="#B4A79C" d="M31.3,24H20.1v-8.8h11.2V24z M21.6,22.5h8.2v-5.8h-8.2C21.6,16.7,21.6,22.5,21.6,22.5z"/>
	</g>
	<g>
		<rect x="16" y="23.2" fill="#FFFFFF" width="9.7" height="7.3"/>
		<path fill="#B4A79C" d="M26.4,31.3H15.3v-8.8h11.2v8.8H26.4z M16.8,29.8H25V24h-8.2V29.8z"/>
	</g>
	<g>
		<rect x="1.5" y="8.7" fill="#FFFFFF" width="4.8" height="7.3"/>
		<path fill="#B4A79C" d="M7.1,16.8H0.8V8h6.3C7.1,8,7.1,16.8,7.1,16.8z M2.3,15.3h3.3V9.5H2.3V15.3z"/>
	</g>
	<g>
		<rect x="1.5" y="23.2" fill="#FFFFFF" width="4.8" height="7.3"/>
		<path fill="#B4A79C" d="M7.1,31.3H0.8v-8.8h6.3C7.1,22.5,7.1,31.3,7.1,31.3z M2.3,29.8h3.3V24H2.3V29.8z"/>
	</g>
	<g>
		<rect x="25.7" y="8.7" fill="#F9F8F2" width="4.8" height="7.3"/>
		<path fill="#B4A79C" d="M31.3,16.8H25V8h6.3V16.8z M26.4,15.3h3.3V9.5h-3.3V15.3z"/>
	</g>
	<g>
		<rect x="25.7" y="23.2" fill="#F9F8F2" width="4.8" height="7.3"/>
		<path fill="#B4A79C" d="M31.3,31.3H25v-8.8h6.3V31.3z M26.4,29.8h3.3V24h-3.3V29.8z"/>
	</g>
	<g>
		<rect x="16" y="8.7" fill="#FFFFFF" width="9.7" height="7.3"/>
		<path fill="#B4A79C" d="M26.4,16.8H15.3V8h11.2v8.8H26.4z M16.8,15.3H25V9.5h-8.2V15.3z"/>
	</g>
	<g>
		<rect x="1.5" y="1.5" fill="#FFFFFF" width="9.7" height="7.3"/>
		<path fill="#B4A79C" d="M11.9,9.5H0.8V0.8H12v8.7H11.9z M2.3,8h8.2V2.3H2.3V8z"/>
	</g>
	<g>
		<rect x="6.3" y="23.2" fill="#F9F8F2" width="9.7" height="7.3"/>
		<path fill="#B4A79C" d="M16.8,31.3H5.6v-8.8h11.2V31.3z M7.1,29.8h8.2V24H7.1V29.8z"/>
	</g>
</g>
</svg>
