<?xml version="1.0" encoding="utf-8"?>
<!-- Generator: Adobe Illustrator 18.0.0, SVG Export Plug-In . SVG Version: 6.00 Build 0)  -->
<!DOCTYPE svg PUBLIC "-//W3C//DTD SVG 1.1//EN" "http://www.w3.org/Graphics/SVG/1.1/DTD/svg11.dtd">
<svg version="1.1" id="Layer_1" xmlns="http://www.w3.org/2000/svg" xmlns:xlink="http://www.w3.org/1999/xlink" x="0px" y="0px"
	 viewBox="0 0 32 32" enable-background="new 0 0 32 32" xml:space="preserve">
<g>
	<g>
		<line fill="#F9F8F2" x1="5.3" y1="10.7" x2="25.1" y2="1.5"/>
		
			<rect x="14.4" y="-4.8" transform="matrix(0.4231 0.9061 -0.9061 0.4231 14.2714 -10.2318)" fill="#B4A79C" width="1.5" height="21.9"/>
	</g>
	<g>
		<path fill="#DA8C8C" d="M28.7,31.2H3.3c-1.4,0-2.5-1.1-2.5-2.5V12.5c0-1.4,1.1-2.5,2.5-2.5h25.4c1.4,0,2.5,1.1,2.5,2.5v16.2
			C31.3,30.1,30.1,31.2,28.7,31.2z M3.3,11.5c-0.6,0-1,0.5-1,1v16.2c0,0.6,0.5,1,1,1h25.4c0.6,0,1-0.5,1-1V12.5c0-0.6-0.5-1-1-1H3.3
			z"/>
	</g>
	<g>
		<line fill="#F9F8F2" x1="4" y1="14.3" x2="28" y2="14.3"/>
		<rect x="4" y="13.5" fill="#B4A79C" width="23.9" height="1.5"/>
	</g>
	<g>
		<line fill="#F9F8F2" x1="25.1" y1="12.7" x2="25.1" y2="15.8"/>
		<rect x="24.3" y="12.7" fill="#B4A79C" width="1.5" height="3.2"/>
	</g>
	<g>
		<ellipse fill="#F9F8F2" cx="9.3" cy="22.8" rx="4.9" ry="5"/>
		<path fill="#B4A79C" d="M9.3,28.6c-3.1,0-5.6-2.6-5.6-5.7s2.5-5.7,5.6-5.7s5.6,2.6,5.6,5.7S12.4,28.6,9.3,28.6z M9.3,18.6
			c-2.3,0-4.1,1.9-4.1,4.2c0,2.3,1.9,4.2,4.1,4.2c2.3,0,4.1-1.9,4.1-4.2C13.4,20.5,11.5,18.6,9.3,18.6z"/>
	</g>
	<g>
		<ellipse fill="#F9F8F2" cx="25.8" cy="25.9" rx="1.8" ry="1.9"/>
		<path fill="#B4A79C" d="M25.8,28.6c-1.4,0-2.6-1.2-2.6-2.6c0-1.4,1.2-2.6,2.6-2.6c1.4,0,2.6,1.2,2.6,2.6
			C28.4,27.4,27.2,28.6,25.8,28.6z M25.8,24.8c-0.6,0-1.1,0.5-1.1,1.1c0,0.6,0.5,1.1,1.1,1.1c0.6,0,1.1-0.5,1.1-1.1
			C26.9,25.3,26.4,24.8,25.8,24.8z"/>
	</g>
	<g>
		<ellipse fill="#F9F8F2" cx="25.8" cy="20.1" rx="1.8" ry="1.9"/>
		<path fill="#B4A79C" d="M25.8,22.8c-1.4,0-2.6-1.2-2.6-2.6c0-1.4,1.2-2.6,2.6-2.6c1.4,0,2.6,1.2,2.6,2.6
			C28.4,21.6,27.2,22.8,25.8,22.8z M25.8,19c-0.6,0-1.1,0.5-1.1,1.1c0,0.6,0.5,1.1,1.1,1.1c0.6,0,1.1-0.5,1.1-1.1
			C26.9,19.5,26.4,19,25.8,19z"/>
	</g>
</g>
</svg>
