<?xml version="1.0" encoding="utf-8"?>
<!-- Generator: Adobe Illustrator 18.0.0, SVG Export Plug-In . SVG Version: 6.00 Build 0)  -->
<!DOCTYPE svg PUBLIC "-//W3C//DTD SVG 1.1//EN" "http://www.w3.org/Graphics/SVG/1.1/DTD/svg11.dtd">
<svg version="1.1" id="Layer_1" xmlns="http://www.w3.org/2000/svg" xmlns:xlink="http://www.w3.org/1999/xlink" x="0px" y="0px"
	 viewBox="0 0 32 32" enable-background="new 0 0 32 32" xml:space="preserve">
<g>
	<g>
		<path fill="#B4A79C" d="M31.3,30.9H0.8V9.5h30.5V30.9z M2.3,29.4h27.5V11H2.3V29.4z"/>
	</g>
	<g>
		<polygon fill="#8F9BA8" points="14.8,26.6 7.5,26.6 7.5,24 9,24 9,25.1 13.3,25.1 13.3,15.2 9,15.2 9,16.3 7.5,16.3 7.5,13.7 
			14.8,13.7 		"/>
	</g>
	<g>
		<path fill="#8F9BA8" d="M24.5,26.6h-7.3V13.7h7.3V26.6z M18.7,25.1H23v-9.9h-4.3V25.1z"/>
	</g>
	<g>
		<rect x="9.5" y="19.4" fill="#8F9BA8" width="4.6" height="1.5"/>
	</g>
	<g>
		<rect x="1.5" y="4.1" fill="#F9F8F2" width="29" height="6.1"/>
		<path fill="#B4A79C" d="M31.3,11H0.8V3.3h30.5V11z M2.3,9.5h27.5V4.8H2.3V9.5z"/>
	</g>
	<g>
		<line fill="#F9F8F2" x1="5.8" y1="1.1" x2="5.8" y2="6.4"/>
		<rect x="5.1" y="1.1" fill="#B4A79C" width="1.5" height="5.2"/>
	</g>
	<g>
		<line fill="#F9F8F2" x1="12.6" y1="1.1" x2="12.6" y2="6.4"/>
		<rect x="11.9" y="1.1" fill="#B4A79C" width="1.5" height="5.2"/>
	</g>
	<g>
		<line fill="#F9F8F2" x1="19.4" y1="1.1" x2="19.4" y2="6.4"/>
		<rect x="18.6" y="1.1" fill="#B4A79C" width="1.5" height="5.2"/>
	</g>
	<g>
		<line fill="#F9F8F2" x1="26.2" y1="1.1" x2="26.2" y2="6.4"/>
		<rect x="25.4" y="1.1" fill="#B4A79C" width="1.5" height="5.2"/>
	</g>
</g>
</svg>
