<?xml version="1.0" encoding="utf-8"?>
<!-- Generator: Adobe Illustrator 18.0.0, SVG Export Plug-In . SVG Version: 6.00 Build 0)  -->
<!DOCTYPE svg PUBLIC "-//W3C//DTD SVG 1.1//EN" "http://www.w3.org/Graphics/SVG/1.1/DTD/svg11.dtd">
<svg version="1.1" id="Layer_1" xmlns="http://www.w3.org/2000/svg" xmlns:xlink="http://www.w3.org/1999/xlink" x="0px" y="0px"
	 viewBox="0 0 32 32" enable-background="new 0 0 32 32" xml:space="preserve">
<g>
	<g>
		<polygon fill="#CDE4F7" points="26.6,18.5 30.5,16.5 30.5,10.9 18.6,10.9 18.6,24.6 26.6,24.6 		"/>
		<path fill="#74B1E0" d="M27.3,25.4h-9.5V10.1h13.4V17l-3.9,1.9V25.4z M19.3,23.9h6.5V18l3.9-1.9v-4.5H19.3V23.9z"/>
	</g>
	<g>
		<line fill="#CDE4F7" x1="24.3" y1="12.6" x2="24.3" y2="13.6"/>
		<rect x="23.6" y="12.6" fill="#74B1E0" width="1.5" height="1"/>
	</g>
	<g>
		<line fill="#CDE4F7" x1="28.2" y1="12.6" x2="28.2" y2="13.6"/>
		<rect x="27.5" y="12.6" fill="#74B1E0" width="1.5" height="1"/>
	</g>
	<g>
		<line fill="#CDE4F7" x1="24.3" y1="21.8" x2="24.3" y2="22.8"/>
		<rect x="23.6" y="21.8" fill="#74B1E0" width="1.5" height="1"/>
	</g>
	<g>
		<rect x="1.5" y="5" fill="#CDE4F7" width="17.1" height="4"/>
		<path fill="#74B1E0" d="M19.3,9.7H0.8V4.2h18.6V9.7z M2.3,8.2h15.6V5.7H2.3V8.2z"/>
	</g>
	<g>
		<rect x="1.5" y="26.5" fill="#CDE4F7" width="17.1" height="4"/>
		<path fill="#74B1E0" d="M19.3,31.3H0.8v-5.5h18.6V31.3z M2.3,29.8h15.6v-2.5H2.3V29.8z"/>
	</g>
	<g>
		<path fill="#74B1E0" d="M19.3,27.2H0.8v-19h18.6V27.2z M2.3,25.7h15.6v-16H2.3V25.7z"/>
	</g>
	<g>
		<path fill="#74B1E0" d="M14.1,5.7H6v-5h8.1V5.7z M7.5,4.2h5.1v-2H7.5V4.2z"/>
	</g>
	<g>
		<line fill="#CDE4F7" x1="20.8" y1="12.1" x2="20.8" y2="13.1"/>
		<rect x="20.1" y="12.1" fill="#74B1E0" width="1.5" height="1"/>
	</g>
	<g>
		<line fill="#CDE4F7" x1="20.8" y1="21.3" x2="20.8" y2="22.3"/>
		<rect x="20.1" y="21.3" fill="#74B1E0" width="1.5" height="1"/>
	</g>
</g>
</svg>
