<?xml version="1.0" encoding="utf-8"?>
<!-- Generator: Adobe Illustrator 18.0.0, SVG Export Plug-In . SVG Version: 6.00 Build 0)  -->
<!DOCTYPE svg PUBLIC "-//W3C//DTD SVG 1.1//EN" "http://www.w3.org/Graphics/SVG/1.1/DTD/svg11.dtd">
<svg version="1.1" id="Layer_1" xmlns="http://www.w3.org/2000/svg" xmlns:xlink="http://www.w3.org/1999/xlink" x="0px" y="0px"
	 viewBox="0 0 32 32" enable-background="new 0 0 32 32" xml:space="preserve">
<g>
	<g>
		<rect x="15.3" y="22.1" fill="#8F9BA8" width="1.5" height="8.4"/>
	</g>
	<g>
		<rect x="6.1" y="29.8" fill="#8F9BA8" width="19.7" height="1.5"/>
	</g>
	<g>
		<path fill="#8F9BA8" d="M28.8,22.9H3.2c-1.4,0-2.5-1.1-2.5-2.5V3.2c0-1.4,1.1-2.5,2.5-2.5h7.4c1.4,0,2.5,1.1,2.5,2.5
			c0,0.5,0.4,1,1,1h14.8c1.4,0,2.5,1.1,2.5,2.5v13.9C31.3,21.8,30.2,22.9,28.8,22.9z M3.2,2.3c-0.5,0-1,0.4-1,1v17.3
			c0,0.5,0.4,1,1,1h25.6c0.5,0,1-0.4,1-1V6.6c0-0.5-0.4-1-1-1H14c-1.4,0-2.5-1.1-2.5-2.5c0-0.5-0.4-1-1-1H3.2z"/>
	</g>
</g>
</svg>
