<?xml version="1.0" encoding="utf-8"?>
<!-- Generator: Adobe Illustrator 18.0.0, SVG Export Plug-In . SVG Version: 6.00 Build 0)  -->
<!DOCTYPE svg PUBLIC "-//W3C//DTD SVG 1.1//EN" "http://www.w3.org/Graphics/SVG/1.1/DTD/svg11.dtd">
<svg version="1.1" id="Layer_1" xmlns="http://www.w3.org/2000/svg" xmlns:xlink="http://www.w3.org/1999/xlink" x="0px" y="0px"
	 viewBox="0 0 32 32" enable-background="new 0 0 32 32" xml:space="preserve">
<g>
	<g>
		
			<rect x="14.1" y="6.8" transform="matrix(0.7071 0.7071 -0.7071 0.7071 13.2566 -13.2503)" fill="#F0F7F7" width="17" height="5.2"/>
		<path fill="#8F9BA8" d="M26.8,18.3L13.7,5.2l4.7-4.7l13.1,13.1L26.8,18.3z M15.8,5.2l11,11l2.6-2.6l-11-11L15.8,5.2z"/>
	</g>
	<g>
		<path fill="#F9F8F2" d="M22.8,13.2l4,4l-8.5,8.5c-1.1,1.1-2.9,1.1-4,0l0,0c-1.1-1.1-1.1-2.9,0-4L22.8,13.2z"/>
		<path fill="#B4A79C" d="M16.3,27.3c-1,0-1.9-0.4-2.5-1c-0.7-0.7-1-1.6-1-2.5c0-1,0.4-1.9,1-2.5l8.5-8.5c0.3-0.3,0.8-0.3,1.1,0l4,4
			c0.1,0.1,0.2,0.3,0.2,0.5c0,0.2-0.1,0.4-0.2,0.5l-8.5,8.5C18.1,27,17.2,27.3,16.3,27.3z M22.8,14.3l-8,8c-0.4,0.4-0.6,0.9-0.6,1.5
			c0,0.6,0.2,1.1,0.6,1.5c0.8,0.8,2.2,0.8,2.9,0l8-8L22.8,14.3z"/>
	</g>
	<g>
		<path fill="#F9F8F2" d="M18.8,9.2l4,4l-8.5,8.5c-1.1,1.1-2.9,1.1-4,0l0,0c-1.1-1.1-1.1-2.9,0-4L18.8,9.2z"/>
		<path fill="#B4A79C" d="M12.3,23.3c-1,0-1.9-0.4-2.5-1c-1.4-1.4-1.4-3.7,0-5.1l8.5-8.5c0.3-0.3,0.8-0.3,1.1,0l4,4
			c0.3,0.3,0.3,0.8,0,1.1l-8.5,8.5C14.1,23,13.2,23.3,12.3,23.3z M18.8,10.3l-8,8c-0.8,0.8-0.8,2.1,0,2.9c0.8,0.8,2.2,0.8,2.9,0l8-8
			L18.8,10.3z"/>
	</g>
	<g>
		<path fill="#F9F8F2" d="M14.8,5.2l4,4l-8.5,8.5c-1.1,1.1-2.9,1.1-4,0l0,0c-1.1-1.1-1.1-2.9,0-4L14.8,5.2z"/>
		<path fill="#B4A79C" d="M8.2,19.3c-1,0-1.9-0.4-2.5-1c-1.4-1.4-1.4-3.7,0-5.1l8.5-8.5c0.3-0.3,0.8-0.3,1.1,0l4,4
			c0.3,0.3,0.3,0.8,0,1.1l-8.5,8.5C10.1,18.9,9.2,19.3,8.2,19.3z M14.8,6.3l-8,8c-0.8,0.8-0.8,2.1,0,2.9c0.8,0.8,2.2,0.8,2.9,0l8-8
			L14.8,6.3z"/>
	</g>
	<g>
		<path fill="#B4A79C" d="M1.5,31.3c-0.2,0-0.4-0.1-0.5-0.2c-0.2-0.2-0.3-0.4-0.2-0.7l3.5-15.5c0-0.1,0.1-0.3,0.2-0.4l1.3-1.3
			c0.3-0.3,0.8-0.3,1.1,0c0.3,0.3,0.3,0.8,0,1.1l-1.1,1.1L2.5,29.5l14.2-3.2l1.1-1.1c0.3-0.3,0.8-0.3,1.1,0c0.3,0.3,0.3,0.8,0,1.1
			l-1.3,1.3c-0.1,0.1-0.2,0.2-0.4,0.2L1.6,31.3C1.6,31.3,1.5,31.3,1.5,31.3z"/>
	</g>
	<g>
		<polygon fill="#F9F8F2" points="3.5,21.7 1.5,30.5 10.3,28.5 		"/>
		<path fill="#B4A79C" d="M0.5,31.5L3,20.2l8.8,8.8L0.5,31.5z M3.9,23.2l-1.4,6.4l6.4-1.4L3.9,23.2z"/>
	</g>
</g>
</svg>
