<?xml version="1.0" encoding="utf-8"?>
<!-- Generator: Adobe Illustrator 18.0.0, SVG Export Plug-In . SVG Version: 6.00 Build 0)  -->
<!DOCTYPE svg PUBLIC "-//W3C//DTD SVG 1.1//EN" "http://www.w3.org/Graphics/SVG/1.1/DTD/svg11.dtd">
<svg version="1.1" id="Layer_1" xmlns="http://www.w3.org/2000/svg" xmlns:xlink="http://www.w3.org/1999/xlink" x="0px" y="0px"
	 viewBox="0 0 32 32" enable-background="new 0 0 32 32" xml:space="preserve">
<g>
	<g>
		<line fill="#F9F8F2" x1="19.9" y1="5.3" x2="19.9" y2="0.8"/>
		<rect x="19.2" y="0.8" fill="#B4A79C" width="1.5" height="4.6"/>
	</g>
	<g>
		<path fill="#B4A79C" d="M22,31.3H10c-1.8,0-3.3-1.5-3.3-3.3v-13h18.6v13C25.3,29.8,23.8,31.3,22,31.3z M8.2,16.5v11.5
			c0,1,0.8,1.8,1.8,1.8h12c1,0,1.8-0.8,1.8-1.8V16.5H8.2z"/>
	</g>
	<g>
		<line fill="#F9F8F2" x1="10.4" y1="18.7" x2="12.3" y2="18.7"/>
		<rect x="10.4" y="17.9" fill="#B4A042" width="1.9" height="1.5"/>
	</g>
	<g>
		<line fill="#F9F8F2" x1="15.1" y1="18.7" x2="16.9" y2="18.7"/>
		<rect x="15.1" y="17.9" fill="#B4A042" width="1.9" height="1.5"/>
	</g>
	<g>
		<line fill="#F9F8F2" x1="19.7" y1="18.7" x2="21.6" y2="18.7"/>
		<rect x="19.7" y="17.9" fill="#B4A042" width="1.9" height="1.5"/>
	</g>
	<g>
		<line fill="#F9F8F2" x1="10.4" y1="23.1" x2="12.3" y2="23.1"/>
		<rect x="10.4" y="22.3" fill="#B4A042" width="1.9" height="1.5"/>
	</g>
	<g>
		<line fill="#F9F8F2" x1="15.1" y1="23.1" x2="16.9" y2="23.1"/>
		<rect x="15.1" y="22.3" fill="#B4A042" width="1.9" height="1.5"/>
	</g>
	<g>
		<line fill="#F9F8F2" x1="19.7" y1="23.1" x2="21.6" y2="23.1"/>
		<rect x="19.7" y="22.3" fill="#B4A042" width="1.9" height="1.5"/>
	</g>
	<g>
		<line fill="#F9F8F2" x1="10.4" y1="27.5" x2="12.3" y2="27.5"/>
		<rect x="10.4" y="26.7" fill="#B4A042" width="1.9" height="1.5"/>
	</g>
	<g>
		<line fill="#F9F8F2" x1="15.1" y1="27.5" x2="16.9" y2="27.5"/>
		<rect x="15.1" y="26.7" fill="#B4A042" width="1.9" height="1.5"/>
	</g>
	<g>
		<line fill="#F9F8F2" x1="19.7" y1="27.5" x2="21.6" y2="27.5"/>
		<rect x="19.7" y="26.7" fill="#B4A042" width="1.9" height="1.5"/>
	</g>
	<g>
		<path fill="#F9F8F2" d="M24.5,7.8c0-1.4-1.1-2.5-2.5-2.5H10c-1.4,0-2.5,1.1-2.5,2.5v7.8h17.1V7.8z"/>
		<path fill="#B4A79C" d="M25.3,16.5H6.7V7.8C6.7,6,8.2,4.5,10,4.5h12c1.8,0,3.3,1.5,3.3,3.3V16.5z M8.2,14.9h15.5V7.8
			c0-1-0.8-1.8-1.8-1.8H10c-1,0-1.8,0.8-1.8,1.8V14.9z"/>
	</g>
</g>
</svg>
