<?xml version="1.0" encoding="utf-8"?>
<!-- Generator: Adobe Illustrator 18.0.0, SVG Export Plug-In . SVG Version: 6.00 Build 0)  -->
<!DOCTYPE svg PUBLIC "-//W3C//DTD SVG 1.1//EN" "http://www.w3.org/Graphics/SVG/1.1/DTD/svg11.dtd">
<svg version="1.1" id="Layer_1" xmlns="http://www.w3.org/2000/svg" xmlns:xlink="http://www.w3.org/1999/xlink" x="0px" y="0px"
	 viewBox="0 0 32 32" enable-background="new 0 0 32 32" xml:space="preserve">
<g>
	<g>
		<line fill="none" x1="16" y1="25.1" x2="16" y2="30.5"/>
		<rect x="15.3" y="25.1" fill="#8F9BA8" width="1.5" height="5.4"/>
	</g>
	<g>
		<line fill="none" x1="6.1" y1="30.5" x2="25.9" y2="30.5"/>
		<rect x="6.1" y="29.8" fill="#8F9BA8" width="19.7" height="1.5"/>
	</g>
	<g>
		<path fill="#74B1E0" d="M26.6,10.1H5.4c-2.6,0-4.7-2.1-4.7-4.7s2.1-4.7,4.7-4.7h21.1c2.6,0,4.7,2.1,4.7,4.7
			C31.3,8,29.1,10.1,26.6,10.1z M5.4,2.3c-1.8,0-3.2,1.4-3.2,3.2s1.4,3.2,3.2,3.2h21.1c1.8,0,3.2-1.4,3.2-3.2s-1.4-3.2-3.2-3.2H5.4z
			"/>
	</g>
	<g>
		<path fill="#74B1E0" d="M26.6,25.8H5.4c-2.6,0-4.7-2.1-4.7-4.7s2.1-4.7,4.7-4.7h21.1c2.6,0,4.7,2.1,4.7,4.7
			C31.3,23.7,29.1,25.8,26.6,25.8z M5.4,18c-1.8,0-3.2,1.4-3.2,3.2c0,1.8,1.4,3.2,3.2,3.2h21.1c1.8,0,3.2-1.4,3.2-3.2
			c0-1.8-1.4-3.2-3.2-3.2H5.4z"/>
	</g>
	<g>
		<line fill="none" x1="21.3" y1="5.4" x2="27" y2="5.4"/>
		<rect x="21.3" y="4.7" fill="#8F9BA8" width="5.7" height="1.5"/>
	</g>
	<g>
		<line fill="none" x1="21.3" y1="21.2" x2="27" y2="21.2"/>
		<rect x="21.3" y="20.4" fill="#8F9BA8" width="5.7" height="1.5"/>
	</g>
	<g>
		<line fill="none" x1="5.7" y1="5.4" x2="7.6" y2="5.4"/>
		<rect x="5.7" y="4.7" fill="#8F9BA8" width="1.9" height="1.5"/>
	</g>
	<g>
		<line fill="none" x1="9.6" y1="5.4" x2="11.5" y2="5.4"/>
		<rect x="9.6" y="4.7" fill="#8F9BA8" width="1.9" height="1.5"/>
	</g>
	<g>
		<line fill="none" x1="5.7" y1="21.2" x2="7.6" y2="21.2"/>
		<rect x="5.7" y="20.4" fill="#8F9BA8" width="1.9" height="1.5"/>
	</g>
	<g>
		<line fill="none" x1="9.6" y1="21.2" x2="11.5" y2="21.2"/>
		<rect x="9.6" y="20.4" fill="#8F9BA8" width="1.9" height="1.5"/>
	</g>
	<g>
		<path fill="#CDE4F7" d="M26.6,17.2H5.4c-2.2,0-3.9-1.8-3.9-3.9l0,0c0-2.2,1.8-3.9,3.9-3.9h21.1c2.2,0,3.9,1.8,3.9,3.9l0,0
			C30.5,15.5,28.7,17.2,26.6,17.2z"/>
		<path fill="#74B1E0" d="M26.6,18H5.4c-2.6,0-4.7-2.1-4.7-4.7s2.1-4.7,4.7-4.7h21.1c2.6,0,4.7,2.1,4.7,4.7
			C31.3,15.9,29.1,18,26.6,18z M5.4,10.1c-1.8,0-3.2,1.4-3.2,3.2s1.4,3.2,3.2,3.2h21.1c1.8,0,3.2-1.4,3.2-3.2s-1.4-3.2-3.2-3.2H5.4z
			"/>
	</g>
	<g>
		<line fill="none" x1="21.3" y1="13.3" x2="27" y2="13.3"/>
		<rect x="21.3" y="12.5" fill="#74B1E0" width="5.7" height="1.5"/>
	</g>
	<g>
		<line fill="none" x1="5.7" y1="13.3" x2="7.6" y2="13.3"/>
		<rect x="5.7" y="12.5" fill="#74B1E0" width="1.9" height="1.5"/>
	</g>
	<g>
		<line fill="none" x1="9.6" y1="13.3" x2="11.5" y2="13.3"/>
		<rect x="9.6" y="12.5" fill="#74B1E0" width="1.9" height="1.5"/>
	</g>
</g>
</svg>
