<?xml version="1.0" encoding="utf-8"?>
<!-- Generator: Adobe Illustrator 18.0.0, SVG Export Plug-In . SVG Version: 6.00 Build 0)  -->
<!DOCTYPE svg PUBLIC "-//W3C//DTD SVG 1.1//EN" "http://www.w3.org/Graphics/SVG/1.1/DTD/svg11.dtd">
<svg version="1.1" id="Layer_1" xmlns="http://www.w3.org/2000/svg" xmlns:xlink="http://www.w3.org/1999/xlink" x="0px" y="0px"
	 viewBox="0 0 32 32" enable-background="new 0 0 32 32" xml:space="preserve">
<g>
	<g>
		<rect x="15.3" y="25.1" fill="#8F9BA8" width="1.5" height="5.4"/>
	</g>
	<g>
		<rect x="6.1" y="29.8" fill="#8F9BA8" width="19.7" height="1.5"/>
	</g>
	<g>
		<path fill="#8F9BA8" d="M16,25.8c-6.9,0-12.5-5.6-12.5-12.5C3.5,6.4,9.1,0.8,16,0.8s12.5,5.6,12.5,12.5
			C28.5,20.2,22.9,25.8,16,25.8z M16,2.3c-6.1,0-11,5-11,11s5,11,11,11s11-5,11-11S22.1,2.3,16,2.3z"/>
	</g>
	<g>
		<path fill="#8F9BA8" d="M16,25.8c-3.6,0-6.4-5.5-6.4-12.5c0-7,2.8-12.5,6.4-12.5s6.4,5.5,6.4,12.5C22.4,20.3,19.6,25.8,16,25.8z
			 M16,2.3c-2.4,0-4.9,4.4-4.9,11s2.5,11,4.9,11s4.9-4.4,4.9-11S18.4,2.3,16,2.3z"/>
	</g>
	<g>
		<rect x="4.2" y="12.5" fill="#8F9BA8" width="23.6" height="1.5"/>
	</g>
	<g>
		<rect x="15.3" y="1.5" fill="#8F9BA8" width="1.5" height="23.6"/>
	</g>
</g>
</svg>
