<?xml version="1.0" encoding="utf-8"?>
<!-- Generator: Adobe Illustrator 18.0.0, SVG Export Plug-In . SVG Version: 6.00 Build 0)  -->
<!DOCTYPE svg PUBLIC "-//W3C//DTD SVG 1.1//EN" "http://www.w3.org/Graphics/SVG/1.1/DTD/svg11.dtd">
<svg version="1.1" id="Layer_1" xmlns="http://www.w3.org/2000/svg" xmlns:xlink="http://www.w3.org/1999/xlink" x="0px" y="0px"
	 viewBox="0 0 32 32" enable-background="new 0 0 32 32" xml:space="preserve">
<g>
	<g>
		<path fill="#8F9BA8" d="M16,29.7l-0.4-0.3C15,29.1,0.8,20,0.8,10.7c0-4.6,3.8-8.4,8.4-8.4c2.8,0,5.3,1.3,6.8,3.5
			c1.6-2.2,4.1-3.5,6.8-3.5c4.6,0,8.4,3.8,8.4,8.4c0,2.3-0.9,4.9-2.7,7.5l-0.4,0.6l-0.6-0.5c-0.9-0.7-2-1-3.1-1
			c-3,0-5.4,2.4-5.4,5.4c0,1.2,0.4,2.3,1.1,3.2l0.4,0.6L19.9,27c-2,1.6-3.5,2.5-3.5,2.5L16,29.7z M9.2,3.8c-3.8,0-6.9,3.1-6.9,6.9
			c0,7.7,11.4,15.7,13.8,17.3c0.5-0.3,1.4-0.9,2.5-1.8c-0.6-1.1-0.9-2.2-0.9-3.5c0-3.8,3.1-6.9,6.9-6.9c1.2,0,2.3,0.3,3.3,0.9
			c1.3-2.2,2-4.2,2-6c0-3.8-3.1-6.9-6.9-6.9c-2.6,0-5,1.5-6.2,3.8L16,9l-0.7-1.3C14.1,5.2,11.8,3.8,9.2,3.8z"/>
	</g>
	<g>
		<path fill="#79C693" d="M24.4,29.6c-2.2,0-4.2-1-5.5-2.8c-0.9-1.2-1.4-2.6-1.4-4.1c0-3.8,3.1-6.9,6.9-6.9c1.4,0,2.8,0.4,4,1.3
			c1.8,1.3,2.9,3.4,2.9,5.6C31.3,26.5,28.2,29.6,24.4,29.6z M24.4,17.4c-3,0-5.4,2.4-5.4,5.4c0,1.2,0.4,2.3,1.1,3.2
			c1,1.4,2.6,2.2,4.3,2.2c3,0,5.4-2.4,5.4-5.4c0-1.7-0.8-3.3-2.2-4.4C26.6,17.7,25.5,17.4,24.4,17.4z"/>
	</g>
	<g>
		<rect x="23.6" y="19.6" fill="#79C693" width="1.5" height="6.2"/>
	</g>
	<g>
		<rect x="21.3" y="22" fill="#79C693" width="6.2" height="1.5"/>
	</g>
</g>
</svg>
