<?xml version="1.0" encoding="utf-8"?>
<!-- Generator: Adobe Illustrator 18.0.0, SVG Export Plug-In . SVG Version: 6.00 Build 0)  -->
<!DOCTYPE svg PUBLIC "-//W3C//DTD SVG 1.1//EN" "http://www.w3.org/Graphics/SVG/1.1/DTD/svg11.dtd">
<svg version="1.1" id="Layer_1" xmlns="http://www.w3.org/2000/svg" xmlns:xlink="http://www.w3.org/1999/xlink" x="0px" y="0px"
	 viewBox="0 0 32 32" enable-background="new 0 0 32 32" xml:space="preserve">
<g>
	<g>
		<polygon fill="#8F9BA8" points="8.5,20.7 4.7,2.4 1.4,2.4 1.4,0.9 5.9,0.9 9.9,20.4 		"/>
	</g>
	<g>
		<polygon fill="#CDE4F7" points="6.5,7.6 9.2,20.5 25,20.5 29.6,7.6 		"/>
		<path fill="#74B1E0" d="M25.5,21.3H8.6l-3-14.5h25.1L25.5,21.3z M9.8,19.8h14.7l4-11.5H7.4L9.8,19.8z"/>
	</g>
	<g>
		<path fill="#74B1E0" d="M26.7,24.5H9.2V23h17.5c0.5,0,0.9-0.4,0.9-0.9s-0.4-0.9-0.9-0.9H25v-1.5h1.6c1.3,0,2.4,1.1,2.4,2.4
			S28,24.5,26.7,24.5z"/>
	</g>
	<g>
		<path fill="#8F9BA8" d="M25.6,31.4c-1.6,0-2.8-1.3-2.8-2.8c0-1.6,1.3-2.8,2.8-2.8c1.6,0,2.8,1.3,2.8,2.8S27.1,31.4,25.6,31.4z
			 M25.6,27.2c-0.7,0-1.3,0.6-1.3,1.3c0,0.7,0.6,1.3,1.3,1.3s1.3-0.6,1.3-1.3C26.9,27.8,26.3,27.2,25.6,27.2z"/>
	</g>
	<g>
		<path fill="#8F9BA8" d="M12,31.4c-1.6,0-2.8-1.3-2.8-2.8c0-1.6,1.3-2.8,2.8-2.8c1.6,0,2.8,1.3,2.8,2.8S13.5,31.4,12,31.4z
			 M12,27.2c-0.7,0-1.3,0.6-1.3,1.3c0,0.7,0.6,1.3,1.3,1.3s1.3-0.6,1.3-1.3C13.3,27.8,12.7,27.2,12,27.2z"/>
	</g>
	<g>
		<rect x="17" y="1.7" fill="#8F9BA8" width="1.5" height="9.7"/>
	</g>
	<g>
		<polygon fill="#8F9BA8" points="19.8,4.8 17.7,2.7 15.6,4.8 14.5,3.8 17.7,0.6 20.9,3.8 		"/>
	</g>
</g>
</svg>
