<?xml version="1.0" encoding="utf-8"?>
<!-- Generator: Adobe Illustrator 18.0.0, SVG Export Plug-In . SVG Version: 6.00 Build 0)  -->
<!DOCTYPE svg PUBLIC "-//W3C//DTD SVG 1.1//EN" "http://www.w3.org/Graphics/SVG/1.1/DTD/svg11.dtd">
<svg version="1.1" id="Layer_1" xmlns="http://www.w3.org/2000/svg" xmlns:xlink="http://www.w3.org/1999/xlink" x="0px" y="0px"
	 viewBox="0 0 32 32" enable-background="new 0 0 32 32" xml:space="preserve">
<g>
	<g>
		<polygon fill="#74B1E0" points="8.5,20.5 4.7,2.3 1.4,2.3 1.4,0.8 5.9,0.8 9.9,20.2 		"/>
	</g>
	<g>
		<polygon fill="#F0F7F7" points="6.5,7.4 9.2,20.4 25,20.4 29.6,7.4 		"/>
		<path fill="#8F9BA8" d="M25.5,21.1H8.6l-3-14.5h25.1L25.5,21.1z M9.8,19.6h14.7l4-11.5H7.4L9.8,19.6z"/>
	</g>
	<g>
		<path fill="#8F9BA8" d="M26.7,24.3H9.2v-1.5h17.5c0.5,0,0.9-0.4,0.9-0.9c0-0.5-0.4-0.9-0.9-0.9H25v-1.5h1.6c1.3,0,2.4,1.1,2.4,2.4
			C29,23.3,28,24.3,26.7,24.3z"/>
	</g>
	<g>
		<path fill="#74B1E0" d="M25.6,31.3c-1.6,0-2.8-1.3-2.8-2.8c0-1.6,1.3-2.8,2.8-2.8c1.6,0,2.8,1.3,2.8,2.8
			C28.4,30,27.1,31.3,25.6,31.3z M25.6,27.1c-0.7,0-1.3,0.6-1.3,1.3c0,0.7,0.6,1.3,1.3,1.3c0.7,0,1.3-0.6,1.3-1.3
			C26.9,27.7,26.3,27.1,25.6,27.1z"/>
	</g>
	<g>
		<path fill="#74B1E0" d="M12,31.3c-1.6,0-2.8-1.3-2.8-2.8c0-1.6,1.3-2.8,2.8-2.8c1.6,0,2.8,1.3,2.8,2.8C14.8,30,13.5,31.3,12,31.3z
			 M12,27.1c-0.7,0-1.3,0.6-1.3,1.3c0,0.7,0.6,1.3,1.3,1.3c0.7,0,1.3-0.6,1.3-1.3C13.3,27.7,12.7,27.1,12,27.1z"/>
	</g>
	<g>
		<rect x="17" y="3.7" fill="#74B1E0" width="1.5" height="9.7"/>
	</g>
	<g>
		<polygon fill="#74B1E0" points="17.7,14.4 14.5,11.2 15.6,10.2 17.7,12.3 19.8,10.2 20.9,11.2 		"/>
	</g>
</g>
</svg>
