<?xml version="1.0" encoding="utf-8"?>
<!-- Generator: Adobe Illustrator 18.0.0, SVG Export Plug-In . SVG Version: 6.00 Build 0)  -->
<!DOCTYPE svg PUBLIC "-//W3C//DTD SVG 1.1//EN" "http://www.w3.org/Graphics/SVG/1.1/DTD/svg11.dtd">
<svg version="1.1" id="Layer_1" xmlns="http://www.w3.org/2000/svg" xmlns:xlink="http://www.w3.org/1999/xlink" x="0px" y="0px"
	 viewBox="0 0 32 32" enable-background="new 0 0 32 32" xml:space="preserve">
<g>
	<g>
		<path fill="#8F9BA8" d="M26.7,24.5h-1.1c-0.3,0-0.5-0.1-0.6-0.4c-0.1-0.2-0.2-0.5,0-0.7c0.3-0.7,0.6-1.5,0.9-2.3
			c-6.2-2-9.1-6.7-10.3-9.2c-2.6,4.2-6.7,6.3-9.4,7.3c0.2,1.4,0.6,2.8,1.2,4c0.1,0.1,0.2,0.3,0.2,0.5c0,0.4-0.4,0.8-0.8,0.7
			c0,0,0,0,0,0H5.3C3,24.5,1.1,23,0.9,21c-0.1-0.8-0.1-1.6-0.1-2.4C0.8,8.7,7.6,0.8,16,0.8s15.3,8,15.3,17.8c0,0.8,0,1.6-0.1,2.4
			C30.9,23,29,24.5,26.7,24.5z M16,2.3C8.4,2.3,2.3,9.6,2.3,18.6c0,0.8,0,1.5,0.1,2.2C2.5,22.1,3.8,23,5.3,23h0.3
			c-0.5-1.3-0.9-2.7-1.1-4.2c0-0.4,0.2-0.7,0.5-0.8c2.7-0.9,7.5-3.1,9.9-8.1c0.1-0.3,0.4-0.4,0.7-0.4c0.3,0,0.6,0.2,0.7,0.5
			c0,0.1,2.5,7.6,10.6,9.9c0.4,0.1,0.6,0.5,0.5,0.9c-0.2,0.7-0.4,1.5-0.7,2.2c1.5,0,2.7-1,2.9-2.2c0.1-0.7,0.1-1.5,0.1-2.2
			C29.8,9.6,23.6,2.3,16,2.3z"/>
	</g>
	<g>
		<path fill="#CDE4F7" d="M15.6,10.3c-2.5,5.2-7.5,7.6-10.3,8.5c0.2,1.8,0.7,3.5,1.5,5c1.9,4,5.4,6.7,9.4,6.7c4,0,7.5-2.7,9.4-6.7
			c0.5-1,0.8-2,1.1-3.1C18.1,18.2,15.6,10.3,15.6,10.3z"/>
		<path fill="#74B1E0" d="M16.2,31.3c-4.2,0-8-2.7-10.1-7.2c-0.8-1.6-1.3-3.4-1.5-5.2c0-0.4,0.2-0.7,0.5-0.8
			c2.7-0.9,7.5-3.1,9.9-8.1c0.1-0.3,0.4-0.4,0.7-0.4c0.3,0,0.6,0.2,0.7,0.5c0,0.1,2.5,7.6,10.6,9.9c0.4,0.1,0.6,0.5,0.5,0.9
			c-0.3,1.1-0.7,2.2-1.2,3.3C24.1,28.6,20.4,31.3,16.2,31.3z M6.1,19.3c0.2,1.5,0.7,2.9,1.3,4.2c1.9,4,5.2,6.3,8.7,6.3
			c3.6,0,6.9-2.4,8.8-6.3c0.3-0.7,0.6-1.5,0.9-2.3c-6.2-2-9.1-6.7-10.3-9.2C12.9,16.2,8.8,18.3,6.1,19.3z"/>
	</g>
	<g>
		<g>
			<rect x="18.2" y="19.8" fill="#74B1E0" width="1.5" height="1.1"/>
		</g>
		<g>
			<rect x="12.3" y="19.8" fill="#74B1E0" width="1.5" height="1.1"/>
		</g>
	</g>
	<g>
		<path fill="#74B1E0" d="M16,27.1c-1.4,0-2.5-0.8-2.5-1.9H15c0,0.1,0.3,0.4,1,0.4c0.6,0,1-0.3,1-0.4h1.5
			C18.5,26.3,17.4,27.1,16,27.1z"/>
	</g>
</g>
</svg>
