<?xml version="1.0" encoding="utf-8"?>
<!-- Generator: Adobe Illustrator 18.0.0, SVG Export Plug-In . SVG Version: 6.00 Build 0)  -->
<!DOCTYPE svg PUBLIC "-//W3C//DTD SVG 1.1//EN" "http://www.w3.org/Graphics/SVG/1.1/DTD/svg11.dtd">
<svg version="1.1" id="Layer_1" xmlns="http://www.w3.org/2000/svg" xmlns:xlink="http://www.w3.org/1999/xlink" x="0px" y="0px"
	 viewBox="0 0 32 32" enable-background="new 0 0 32 32" xml:space="preserve">
<g>
	<g>
		<path fill="#F0F7F7" d="M5.9,25.8v2.6c0,1.2,0.9,2.1,2.1,2.1H24c1.2,0,2.1-0.9,2.1-2.1v-2.6H5.9z"/>
		<path fill="#8F9BA8" d="M24,31.3H8c-1.6,0-2.8-1.3-2.8-2.8v-3.3h21.8v3.3C26.9,30,25.6,31.3,24,31.3z M6.6,26.6v1.8
			c0,0.7,0.6,1.3,1.3,1.3H24c0.7,0,1.3-0.6,1.3-1.3v-1.8H6.6z"/>
	</g>
	<g>
		<path fill="#F0F7F7" d="M26.1,3.6c0-1.2-0.9-2.1-2.1-2.1H8c-1.2,0-2.1,0.9-2.1,2.1v2.6h20.3V3.6z"/>
		<path fill="#8F9BA8" d="M26.9,7H5.1V3.6C5.1,2,6.4,0.8,8,0.8H24c1.6,0,2.8,1.3,2.8,2.8V7z M6.6,5.5h18.8V3.6
			c0-0.7-0.6-1.3-1.3-1.3H8c-0.7,0-1.3,0.6-1.3,1.3V5.5z"/>
	</g>
	<g>
		<path fill="#8F9BA8" d="M26.9,26.6H5.1V5.5h21.8V26.6z M6.6,25.1h18.8V7H6.6V25.1z"/>
	</g>
	<g>
		<line fill="#F0F7F7" x1="15" y1="28.2" x2="17" y2="28.2"/>
		<rect x="15" y="27.4" fill="#8F9BA8" width="1.9" height="1.5"/>
	</g>
	<g>
		<rect x="14.2" y="3.1" fill="#8F9BA8" width="3.6" height="1.5"/>
	</g>
</g>
</svg>
