<?xml version="1.0" encoding="utf-8"?>
<!-- Generator: Adobe Illustrator 18.0.0, SVG Export Plug-In . SVG Version: 6.00 Build 0)  -->
<!DOCTYPE svg PUBLIC "-//W3C//DTD SVG 1.1//EN" "http://www.w3.org/Graphics/SVG/1.1/DTD/svg11.dtd">
<svg version="1.1" id="Layer_1" xmlns="http://www.w3.org/2000/svg" xmlns:xlink="http://www.w3.org/1999/xlink" x="0px" y="0px"
	 viewBox="0 0 32 32" enable-background="new 0 0 32 32" xml:space="preserve">
<g>
	<g>
		<polygon fill="#8F9BA8" points="8.5,20.5 4.7,2.3 1.4,2.3 1.4,0.8 5.9,0.8 9.9,20.2 		"/>
	</g>
	<g>
		<path fill="#8F9BA8" d="M26.7,24.3H9.2v-1.5h17.5c0.5,0,0.9-0.4,0.9-0.9c0-0.5-0.4-0.9-0.9-0.9H25v-1.5h1.6c1.3,0,2.4,1.1,2.4,2.4
			C29,23.3,28,24.3,26.7,24.3z"/>
	</g>
	<g>
		<circle fill="#F0F7F7" cx="25.6" cy="28.4" r="2.1"/>
		<path fill="#8F9BA8" d="M25.6,31.3c-1.6,0-2.8-1.3-2.8-2.8c0-1.6,1.3-2.8,2.8-2.8c1.6,0,2.8,1.3,2.8,2.8
			C28.4,30,27.1,31.3,25.6,31.3z M25.6,27.1c-0.7,0-1.3,0.6-1.3,1.3c0,0.7,0.6,1.3,1.3,1.3c0.7,0,1.3-0.6,1.3-1.3
			C26.9,27.7,26.3,27.1,25.6,27.1z"/>
	</g>
	<g>
		<circle fill="#F0F7F7" cx="12" cy="28.4" r="2.1"/>
		<path fill="#8F9BA8" d="M12,31.3c-1.6,0-2.8-1.3-2.8-2.8c0-1.6,1.3-2.8,2.8-2.8c1.6,0,2.8,1.3,2.8,2.8C14.8,30,13.5,31.3,12,31.3z
			 M12,27.1c-0.7,0-1.3,0.6-1.3,1.3c0,0.7,0.6,1.3,1.3,1.3c0.7,0,1.3-0.6,1.3-1.3C13.3,27.7,12.7,27.1,12,27.1z"/>
	</g>
	<g>
		<path fill="#8F9BA8" d="M25.5,21.1H8.6l-3-14.5h9.9l0,0.7c0,2.5,2.1,4.5,4.6,4.5s4.5-2,4.6-4.5l0-0.7h6.1L25.5,21.1z M9.8,19.6
			h14.7l4-11.5H26c-0.4,3-2.9,5.3-6,5.3c-3.1,0-5.6-2.3-6-5.3H7.4L9.8,19.6z"/>
	</g>
	<g>
		<path fill="#FAC2C3" d="M20,2c-2.9,0-5.3,2.4-5.3,5.3c0,0,0,0,0,0.1c0,2.9,2.4,5.3,5.3,5.3c2.9,0,5.3-2.4,5.3-5.3c0,0,0,0,0-0.1
			C25.3,4.4,23,2,20,2z"/>
		<path fill="#DA8C8C" d="M20,13.4c-3.3,0-6-2.7-6.1-6c0-3.4,2.7-6.1,6.1-6.1s6.1,2.7,6.1,6.1l0,0.1C26,10.7,23.3,13.4,20,13.4z
			 M20,2.8c-2.5,0-4.6,2-4.6,4.6c0,2.5,2.1,4.6,4.6,4.6s4.5-2,4.6-4.5l0-0.1C24.6,4.8,22.5,2.8,20,2.8z"/>
	</g>
	<g>
		<line fill="#FAC2C3" x1="23.1" y1="7.3" x2="17" y2="7.3"/>
		<rect x="17" y="6.6" fill="#DA8C8C" width="6.1" height="1.5"/>
	</g>
</g>
</svg>
