<?xml version="1.0" encoding="utf-8"?>
<!-- Generator: Adobe Illustrator 18.0.0, SVG Export Plug-In . SVG Version: 6.00 Build 0)  -->
<!DOCTYPE svg PUBLIC "-//W3C//DTD SVG 1.1//EN" "http://www.w3.org/Graphics/SVG/1.1/DTD/svg11.dtd">
<svg version="1.1" id="Layer_1" xmlns="http://www.w3.org/2000/svg" xmlns:xlink="http://www.w3.org/1999/xlink" x="0px" y="0px"
	 viewBox="0 0 32 32" enable-background="new 0 0 32 32" xml:space="preserve">
<g>
	<g>
		<rect x="15.2" y="0.8" fill="#74B1E0" width="1.6" height="30.5"/>
	</g>
	<g>
		<polygon fill="#74B1E0" points="16,7.1 11.1,2.2 12.2,1.1 16,4.9 19.8,1.1 20.9,2.2 		"/>
	</g>
	<g>
		<polygon fill="#74B1E0" points="19.8,30.9 16,27.1 12.2,30.9 11.1,29.8 16,24.9 20.9,29.8 		"/>
	</g>
	<g>
		<rect x="0.8" y="15.2" fill="#74B1E0" width="30.5" height="1.6"/>
	</g>
	<g>
		<polygon fill="#74B1E0" points="29.8,20.9 24.9,16 29.8,11.1 30.9,12.2 27.1,16 30.9,19.8 		"/>
	</g>
	<g>
		<polygon fill="#74B1E0" points="2.2,20.9 1.1,19.8 4.9,16 1.1,12.2 2.2,11.1 7.1,16 		"/>
	</g>
	<g>
		
			<rect x="15.2" y="0.8" transform="matrix(0.7071 0.7071 -0.7071 0.7071 15.9995 -6.6276)" fill="#74B1E0" width="1.6" height="30.5"/>
	</g>
	<g>
		<polygon fill="#74B1E0" points="29.2,9.7 22.3,9.7 22.3,2.8 23.9,2.8 23.9,8.1 29.2,8.1 		"/>
	</g>
	<g>
		<polygon fill="#74B1E0" points="9.7,29.2 8.1,29.2 8.1,23.9 2.8,23.9 2.8,22.3 9.7,22.3 		"/>
	</g>
	<g>
		
			<rect x="0.8" y="15.2" transform="matrix(0.7071 0.7071 -0.7071 0.7071 16.0011 -6.6279)" fill="#74B1E0" width="30.5" height="1.6"/>
	</g>
	<g>
		<polygon fill="#74B1E0" points="22.3,29.2 22.3,22.3 29.2,22.3 29.2,23.9 23.9,23.9 23.9,29.2 		"/>
	</g>
	<g>
		<polygon fill="#74B1E0" points="9.7,9.7 2.8,9.7 2.8,8.1 8.1,8.1 8.1,2.8 9.7,2.8 		"/>
	</g>
</g>
</svg>
