<?xml version="1.0" encoding="utf-8"?>
<!-- Generator: Adobe Illustrator 18.0.0, SVG Export Plug-In . SVG Version: 6.00 Build 0)  -->
<!DOCTYPE svg PUBLIC "-//W3C//DTD SVG 1.1//EN" "http://www.w3.org/Graphics/SVG/1.1/DTD/svg11.dtd">
<svg version="1.1" id="Layer_1" xmlns="http://www.w3.org/2000/svg" xmlns:xlink="http://www.w3.org/1999/xlink" x="0px" y="0px"
	 viewBox="0 0 32 32" enable-background="new 0 0 32 32" xml:space="preserve">
<g>
	<g>
		<path fill="#8F9BA8" d="M18.4,25.5c-0.6,0-1.2-0.2-1.6-0.7l-9.6-9.6c-0.9-0.9-0.9-2.4,0-3.3l4.8-4.7c0.9-0.9,2.4-0.9,3.3,0
			l9.6,9.6c0.4,0.4,0.7,1,0.7,1.6c0,0.6-0.2,1.2-0.7,1.6l-4.7,4.7C19.6,25.3,19,25.5,18.4,25.5z M13.6,8c-0.2,0-0.4,0.1-0.6,0.2
			L8.2,13c-0.3,0.3-0.3,0.8,0,1.2l9.6,9.6c0.3,0.3,0.9,0.3,1.2,0l4.7-4.7c0.2-0.2,0.2-0.4,0.2-0.6c0-0.2-0.1-0.4-0.2-0.6l-9.6-9.6
			C14,8.1,13.8,8,13.6,8z"/>
	</g>
	<g>
		<path fill="#F0F7F7" d="M26.5,26.5c-2.2,2.2-2.4,5.4-4.6,3.3c-2.2-2.2-2.2-5.7,0-7.9c2.2-2.2,5.7-2.2,7.9,0
			C32,24.1,28.7,24.3,26.5,26.5z"/>
		<path fill="#8F9BA8" d="M23.2,31.3c-0.6,0-1.1-0.3-1.8-0.9c-1.2-1.2-1.9-2.8-1.9-4.5c0-1.7,0.7-3.3,1.8-4.5
			c1.2-1.2,2.8-1.8,4.5-1.8c1.7,0,3.3,0.7,4.5,1.9c0.4,0.4,1,1.1,0.9,2c-0.1,1-1,1.5-2.1,2.1c-0.7,0.4-1.5,0.9-2.1,1.6
			c-0.7,0.7-1.1,1.4-1.6,2.1C24.9,30.2,24.2,31.3,23.2,31.3z M25.8,21c-1.3,0-2.5,0.5-3.4,1.4c-0.9,0.9-1.4,2.1-1.4,3.4
			c0,1.3,0.5,2.5,1.4,3.4c0.5,0.5,0.7,0.5,0.7,0.5c0.2,0,0.7-0.8,1-1.3c0.4-0.7,1-1.6,1.8-2.4c0.8-0.8,1.7-1.3,2.4-1.8
			c0.5-0.3,1.3-0.8,1.3-1c0,0,0-0.2-0.5-0.7C28.3,21.5,27.1,21,25.8,21z"/>
	</g>
	<g>
		<path fill="#F0F7F7" d="M5.5,5.5C3.3,7.7,0,7.9,2.2,10.1c2.2,2.2,5.7,2.2,7.9,0c2.2-2.2,2.2-5.7,0-7.9C7.9,0,7.7,3.3,5.5,5.5z"/>
		<path fill="#8F9BA8" d="M6.2,12.5C6.2,12.5,6.2,12.5,6.2,12.5c-1.7,0-3.3-0.7-4.5-1.9c-0.4-0.4-1-1.1-0.9-2c0.1-1,1-1.5,2.1-2.1
			C3.5,6.1,4.3,5.6,5,5c0.7-0.7,1.1-1.4,1.6-2.1c0.6-1.1,1.2-2.1,2.3-2.1c0.6,0,1.1,0.3,1.8,0.9c2.5,2.5,2.5,6.5,0,8.9
			C9.4,11.8,7.9,12.5,6.2,12.5z M8.8,2.3c-0.2,0-0.7,0.8-1,1.3C7.3,4.3,6.8,5.2,6,6C5.2,6.8,4.3,7.3,3.6,7.8c-0.5,0.3-1.3,0.8-1.3,1
			c0,0,0,0.2,0.5,0.7C3.7,10.5,4.9,11,6.2,11c1.3,0,2.5-0.5,3.4-1.4c1.9-1.9,1.9-4.9,0-6.8C9.1,2.3,8.8,2.3,8.8,2.3z"/>
	</g>
</g>
</svg>
