<?xml version="1.0" encoding="utf-8"?>
<!-- Generator: Adobe Illustrator 18.0.0, SVG Export Plug-In . SVG Version: 6.00 Build 0)  -->
<!DOCTYPE svg PUBLIC "-//W3C//DTD SVG 1.1//EN" "http://www.w3.org/Graphics/SVG/1.1/DTD/svg11.dtd">
<svg version="1.1" id="Layer_1" xmlns="http://www.w3.org/2000/svg" xmlns:xlink="http://www.w3.org/1999/xlink" x="0px" y="0px"
	 viewBox="0 0 32 32" enable-background="new 0 0 32 32" xml:space="preserve">
<g>
	<g>
		<rect x="15.2" y="18.4" fill="#8F9BA8" width="1.5" height="12.9"/>
	</g>
	<g>
		<path fill="#79C693" d="M16,19.2c-5.1,0-9.2-4.1-9.2-9.2c0-5.1,4.1-9.2,9.2-9.2c5.1,0,9.2,4.1,9.2,9.2C25.2,15,21.1,19.2,16,19.2z
			 M16,2.3c-4.2,0-7.7,3.4-7.7,7.7c0,4.2,3.4,7.7,7.7,7.7c4.2,0,7.7-3.4,7.7-7.7C23.7,5.7,20.2,2.3,16,2.3z"/>
	</g>
	<g>
		<path fill="#79C693" d="M20.4,17.8c-0.2,0-0.4-0.1-0.5-0.2c-0.3-0.3-0.3-0.8-0.1-1.1c2-2.3,2.3-5.4,0.7-7.6
			c-1.3-1.6-2.6-2.4-4.1-2.5c-2.1-0.1-4.5,0.9-4.8,3.4c-0.2,1,0,2.1,0.6,2.8c0.4,0.5,1,0.8,1.7,0.9c0.5,0,1.3-0.2,1.5-0.9
			c0-0.1,0-0.2-0.1-0.3c-0.1-0.1-0.2-0.1-0.3-0.1c-0.4,0-0.8-0.4-0.8-0.8c0-0.4,0.3-0.7,0.8-0.8c0.6,0,1.1,0.3,1.5,0.7
			c0.3,0.4,0.5,1,0.4,1.6c-0.4,1.4-1.8,2.1-3,2.1c-1.2-0.1-2.1-0.6-2.8-1.5c-0.8-1.1-1.2-2.6-0.9-4c0.5-3.2,3.6-4.8,6.4-4.6
			C19.1,5,20.8,6.7,21.8,8c2,2.9,1.7,6.7-0.8,9.6C20.8,17.7,20.6,17.8,20.4,17.8z"/>
	</g>
</g>
</svg>
