<?xml version="1.0" encoding="utf-8"?>
<!-- Generator: Adobe Illustrator 18.0.0, SVG Export Plug-In . SVG Version: 6.00 Build 0)  -->
<!DOCTYPE svg PUBLIC "-//W3C//DTD SVG 1.1//EN" "http://www.w3.org/Graphics/SVG/1.1/DTD/svg11.dtd">
<svg version="1.1" id="Layer_1" xmlns="http://www.w3.org/2000/svg" xmlns:xlink="http://www.w3.org/1999/xlink" x="0px" y="0px"
	 viewBox="0 0 32 32" enable-background="new 0 0 32 32" xml:space="preserve">
<g>
	<g>
		<line fill="#FAC2C3" x1="7.9" y1="23.7" x2="7.9" y2="30.5"/>
		<rect x="7.1" y="23.7" fill="#DA8C8C" width="1.5" height="6.8"/>
	</g>
	<g>
		<line fill="#FAC2C3" x1="3.6" y1="30.5" x2="12.2" y2="30.5"/>
		<rect x="3.6" y="29.8" fill="#DA8C8C" width="8.6" height="1.5"/>
	</g>
	<g>
		<path fill="#FAC2C3" d="M2.9,1.5C2,5.3,1.5,9.8,1.5,13.5c0,8.6,2.8,10.1,6.4,10.1c3.5,0,6.4-1.6,6.4-10.1c0-3.7-0.5-8.2-1.4-12
			H2.9z"/>
		<path fill="#DA8C8C" d="M7.9,24.4c-5,0-7.1-3.3-7.1-10.9c0-3.7,0.5-8.3,1.5-12.2l0.1-0.6h11l0.1,0.6C14.4,5.2,15,9.8,15,13.5
			C15,21.2,12.9,24.4,7.9,24.4z M3.5,2.3c-0.8,3.7-1.3,7.8-1.3,11.3c0,8.7,2.9,9.4,5.6,9.4s5.6-0.7,5.6-9.4c0-3.5-0.5-7.6-1.3-11.3
			H3.5z"/>
	</g>
	<g>
		<path fill="#F9F8F2" d="M19.2,1.5c-0.9,3.8-1.4,8.3-1.4,12c0,8.6,2.8,10.1,6.4,10.1c3.5,0,6.4-1.6,6.4-10.1c0-3.7-0.5-8.2-1.4-12
			H19.2z"/>
		<path fill="#B4A79C" d="M24.1,24.4c-5,0-7.1-3.3-7.1-10.9c0-3.7,0.5-8.3,1.5-12.2l0.1-0.6h11l0.1,0.6c0.9,3.9,1.5,8.5,1.5,12.2
			C31.3,21.2,29.1,24.4,24.1,24.4z M19.8,2.3c-0.8,3.7-1.3,7.8-1.3,11.3c0,8.7,2.9,9.4,5.6,9.4c2.7,0,5.6-0.7,5.6-9.4
			c0-3.5-0.5-7.6-1.3-11.3H19.8z"/>
	</g>
	<g>
		<line fill="#F9F8F2" x1="24.1" y1="23.7" x2="24.1" y2="30.5"/>
		<rect x="23.4" y="23.7" fill="#B4A79C" width="1.5" height="6.8"/>
	</g>
	<g>
		<line fill="#F9F8F2" x1="19.8" y1="30.5" x2="28.4" y2="30.5"/>
		<rect x="19.8" y="29.8" fill="#B4A79C" width="8.6" height="1.5"/>
	</g>
</g>
</svg>
