<?xml version="1.0" encoding="utf-8"?>
<!-- Generator: Adobe Illustrator 18.0.0, SVG Export Plug-In . SVG Version: 6.00 Build 0)  -->
<!DOCTYPE svg PUBLIC "-//W3C//DTD SVG 1.1//EN" "http://www.w3.org/Graphics/SVG/1.1/DTD/svg11.dtd">
<svg version="1.1" id="Layer_1" xmlns="http://www.w3.org/2000/svg" xmlns:xlink="http://www.w3.org/1999/xlink" x="0px" y="0px"
	 viewBox="0 0 32 32" enable-background="new 0 0 32 32" xml:space="preserve">
<g>
	<g>
		<polygon fill="#F0F7F7" points="6,24.3 26,24.3 19.6,18 12.4,18 		"/>
		<path fill="#8F9BA8" d="M27.8,25.1H4.2l7.8-7.8h7.9L27.8,25.1z M7.8,23.6h16.3l-4.8-4.8h-6.6L7.8,23.6z"/>
	</g>
	<g>
		<polygon fill="#F0F7F7" points="19.6,11.6 12.4,11.6 6,18 12.4,18 19.6,18 26,18 		"/>
		<path fill="#8F9BA8" d="M27.8,18.7H4.2l7.8-7.8h7.9L27.8,18.7z M7.8,17.2h16.3l-4.8-4.8h-6.6L7.8,17.2z"/>
	</g>
	<g>
		<line fill="#F0F7F7" x1="16" y1="24.3" x2="16" y2="30.7"/>
		<rect x="15.2" y="24.3" fill="#8F9BA8" width="1.5" height="6.4"/>
	</g>
	<g>
		<line fill="#F0F7F7" x1="10.4" y1="30.7" x2="21.6" y2="30.7"/>
		<rect x="10.4" y="29.9" fill="#8F9BA8" width="11.2" height="1.5"/>
	</g>
	<g>
		<path fill="#8F9BA8" d="M27.8,12.4H4.2L16,0.6L27.8,12.4z M7.8,10.9h16.3L16,2.7L7.8,10.9z"/>
	</g>
</g>
</svg>
