<?xml version="1.0" encoding="utf-8"?>
<!-- Generator: Adobe Illustrator 18.0.0, SVG Export Plug-In . SVG Version: 6.00 Build 0)  -->
<!DOCTYPE svg PUBLIC "-//W3C//DTD SVG 1.1//EN" "http://www.w3.org/Graphics/SVG/1.1/DTD/svg11.dtd">
<svg version="1.1" id="Layer_1" xmlns="http://www.w3.org/2000/svg" xmlns:xlink="http://www.w3.org/1999/xlink" x="0px" y="0px"
	 viewBox="0 0 32 32" enable-background="new 0 0 32 32" xml:space="preserve">
<g>
	<g>
		<path fill="#79C693" d="M16,23.1c-6.5,0-10.1-3.8-10.1-10.8c0-3.6,1-7.8,2.6-11.2l0.2-0.4h14.5l0.2,0.4c1.6,3.4,2.6,7.5,2.6,11.2
			C26.1,19.3,22.5,23.1,16,23.1z M9.7,2.3C8.3,5.3,7.4,9.1,7.4,12.3c0,7.7,4.7,9.3,8.6,9.3c3.9,0,8.6-1.6,8.6-9.3
			c0-3.3-0.8-7-2.3-10.1H9.7z"/>
	</g>
	<g>
		<rect x="15.2" y="22.4" fill="#79C693" width="1.5" height="8.1"/>
	</g>
	<g>
		<rect x="12.3" y="29.8" fill="#79C693" width="7.5" height="1.5"/>
	</g>
</g>
</svg>
