<?xml version="1.0" encoding="utf-8"?>
<!-- Generator: Adobe Illustrator 18.0.0, SVG Export Plug-In . SVG Version: 6.00 Build 0)  -->
<!DOCTYPE svg PUBLIC "-//W3C//DTD SVG 1.1//EN" "http://www.w3.org/Graphics/SVG/1.1/DTD/svg11.dtd">
<svg version="1.1" id="Layer_1" xmlns="http://www.w3.org/2000/svg" xmlns:xlink="http://www.w3.org/1999/xlink" x="0px" y="0px"
	 viewBox="0 0 32 32" enable-background="new 0 0 32 32" xml:space="preserve">
<g>
	<g>
		<path fill="#8F9BA8" d="M31.3,24.4h-4.9l0.1-0.9c0-0.1,0-0.3,0-0.4c0-1.4-1.1-2.5-2.5-2.5c-1.4,0-2.5,1.1-2.5,2.5
			c0,0.1,0,0.3,0,0.4l0.1,0.9H10.2l0.1-0.9c0-0.1,0-0.3,0-0.4c0-1.4-1.1-2.5-2.5-2.5s-2.5,1.1-2.5,2.5c0,0.1,0,0.3,0,0.4l0.1,0.9
			H0.8v-5.5c0-3.1,2.4-5.1,6.1-5.1h18.3c3.7,0,6.1,2,6.1,5.1V24.4z M28,22.9h1.7v-4c0-3.4-3.5-3.6-4.6-3.6H6.9
			c-1.1,0-4.6,0.3-4.6,3.6v4H4c0.1-2.1,1.8-3.7,4-3.7s3.8,1.7,4,3.7h8.2c0.1-2.1,1.8-3.7,4-3.7S27.9,20.8,28,22.9z"/>
	</g>
	<g>
		<path fill="#B4A042" d="M24.1,27.1c-1.9,0-3.6-1.4-3.9-3.3c0-0.2-0.1-0.4-0.1-0.6c0-2.2,1.8-4,4-4s4,1.8,4,4c0,0.2,0,0.4-0.1,0.6
			C27.7,25.7,26,27.1,24.1,27.1z M24.1,20.6c-1.4,0-2.5,1.1-2.5,2.5c0,0.1,0,0.3,0,0.4c0.2,1.2,1.2,2.1,2.4,2.1
			c1.2,0,2.2-0.9,2.4-2.1c0-0.1,0-0.3,0-0.4C26.5,21.7,25.4,20.6,24.1,20.6z"/>
	</g>
	<g>
		<path fill="#B4A042" d="M7.9,27.1c-1.9,0-3.6-1.4-3.9-3.3C4,23.5,4,23.3,4,23.1c0-2.2,1.8-4,4-4s4,1.8,4,4c0,0.2,0,0.4-0.1,0.6
			C11.5,25.7,9.9,27.1,7.9,27.1z M7.9,20.6c-1.4,0-2.5,1.1-2.5,2.5c0,0.1,0,0.3,0,0.4c0.2,1.2,1.2,2.1,2.4,2.1s2.2-0.9,2.4-2.1
			c0-0.1,0-0.3,0-0.4C10.4,21.7,9.3,20.6,7.9,20.6z"/>
	</g>
	<g>
		<path fill="#8F9BA8" d="M26.4,15.2H5.6l0.1-0.8c0.5-5.3,5-9.5,10.4-9.5c5.3,0,9.9,4.2,10.4,9.5L26.4,15.2z M7.3,13.7h17.5
			C24,9.6,20.3,6.4,16,6.4C11.7,6.4,8,9.6,7.3,13.7z"/>
	</g>
	<g>
		<path fill="#F2E8B9" stroke="#B4A042" stroke-width="1.5" stroke-miterlimit="10" d="M30.5,18.8"/>
	</g>
	<g>
		<line fill="#F2E8B9" x1="17.5" y1="14.5" x2="15.7" y2="10.1"/>
		
			<rect x="14.2" y="11.5" transform="matrix(0.3828 0.9238 -0.9238 0.3828 21.5993 -7.7789)" fill="#8F9BA8" width="4.8" height="1.5"/>
	</g>
</g>
</svg>
