<?xml version="1.0" encoding="utf-8"?>
<!-- Generator: Adobe Illustrator 18.0.0, SVG Export Plug-In . SVG Version: 6.00 Build 0)  -->
<!DOCTYPE svg PUBLIC "-//W3C//DTD SVG 1.1//EN" "http://www.w3.org/Graphics/SVG/1.1/DTD/svg11.dtd">
<svg version="1.1" id="Layer_1" xmlns="http://www.w3.org/2000/svg" xmlns:xlink="http://www.w3.org/1999/xlink" x="0px" y="0px"
	 viewBox="0 0 32 32" enable-background="new 0 0 32 32" xml:space="preserve">
<g>
	<g>
		<path fill="#F0F7F7" d="M24.1,9.6c0-1.3-1-2.3-2.3-2.3H10.3c-1.3,0-2.3,1-2.3,2.3v9.3h16.1V9.6z"/>
		<path fill="#8F9BA8" d="M24.8,19.7H7.2v-10c0-1.7,1.4-3.1,3.1-3.1h11.5c1.7,0,3.1,1.4,3.1,3.1V19.7z M8.7,18.1h14.6V9.6
			c0-0.9-0.7-1.5-1.5-1.5H10.3c-0.9,0-1.5,0.7-1.5,1.5V18.1z"/>
	</g>
	<g>
		<path fill="#8F9BA8" d="M21.7,29.8H10.3c-1.7,0-3.1-1.4-3.1-3.1v-8.6h17.7v8.6C24.8,28.4,23.4,29.8,21.7,29.8z M8.7,19.7v7
			c0,0.9,0.7,1.5,1.5,1.5h11.5c0.9,0,1.5-0.7,1.5-1.5v-7H8.7z"/>
	</g>
	<g>
		<path fill="#8F9BA8" d="M16,24.5c-3.1,0-5.6-2.5-5.7-5.6l0-0.8h11.4l0,0.8C21.6,22,19.1,24.5,16,24.5z M12,19.7
			c0.4,1.9,2.1,3.3,4,3.3c2,0,3.7-1.4,4-3.3H12z"/>
	</g>
	<g>
		<polygon fill="#8F9BA8" points="20,7.3 18.4,7.3 18.4,2.3 13.6,2.3 13.6,7.3 12,7.3 12,0.8 20,0.8 		"/>
	</g>
	<g>
		<rect x="20.2" y="29" fill="#8F9BA8" width="1.5" height="2.2"/>
	</g>
	<g>
		<rect x="10.2" y="29" fill="#8F9BA8" width="1.5" height="2.2"/>
	</g>
</g>
</svg>
