<?xml version="1.0" encoding="utf-8"?>
<!-- Generator: Adobe Illustrator 18.0.0, SVG Export Plug-In . SVG Version: 6.00 Build 0)  -->
<!DOCTYPE svg PUBLIC "-//W3C//DTD SVG 1.1//EN" "http://www.w3.org/Graphics/SVG/1.1/DTD/svg11.dtd">
<svg version="1.1" id="Layer_1" xmlns="http://www.w3.org/2000/svg" xmlns:xlink="http://www.w3.org/1999/xlink" x="0px" y="0px"
	 viewBox="0 0 32 32" enable-background="new 0 0 32 32" xml:space="preserve">
<g>
	<g>
		<path fill="#79C693" d="M25.4,15.8l-9.2-9.2L22,0.8l9.2,9.2L25.4,15.8z M18.3,6.6l7.1,7.1l3.8-3.8L22,2.8L18.3,6.6z"/>
	</g>
	<g>
		
			<rect x="21.8" y="5.2" transform="matrix(-0.7071 -0.7071 0.7071 -0.7071 34.2536 26.1661)" fill="#79C693" width="1.5" height="1.6"/>
	</g>
	<g>
		
			<rect x="25.3" y="8.7" transform="matrix(-0.7071 -0.7071 0.7071 -0.7071 37.7869 34.6153)" fill="#79C693" width="1.5" height="1.6"/>
	</g>
	<g>
		<path fill="#79C693" d="M11.7,31.3c-0.9,0-1.8-0.4-2.5-1l-7.5-7.5c-1.4-1.4-1.4-3.6,0-4.9l13.9-14L28,16.4L14.2,30.2
			C13.5,30.9,12.7,31.3,11.7,31.3z M15.6,6L2.8,18.8c-0.8,0.8-0.8,2,0,2.8l7.5,7.5c0.8,0.8,2.1,0.8,2.8,0L26,16.4L15.6,6z"/>
	</g>
</g>
</svg>
