<?xml version="1.0" encoding="utf-8"?>
<!-- Generator: Adobe Illustrator 18.0.0, SVG Export Plug-In . SVG Version: 6.00 Build 0)  -->
<!DOCTYPE svg PUBLIC "-//W3C//DTD SVG 1.1//EN" "http://www.w3.org/Graphics/SVG/1.1/DTD/svg11.dtd">
<svg version="1.1" id="Layer_1" xmlns="http://www.w3.org/2000/svg" xmlns:xlink="http://www.w3.org/1999/xlink" x="0px" y="0px"
	 viewBox="0 0 32 32" enable-background="new 0 0 32 32" xml:space="preserve">
<g>
	<g>
		<rect x="27.6" y="12.6" fill="#8F9BA8" width="2.9" height="1.5"/>
	</g>
	<g>
		<path fill="#8F9BA8" d="M23.1,26.6v-1.5c3.7,0,6.6-3,6.6-6.6v-15h1.5v15C31.3,23,27.6,26.6,23.1,26.6z"/>
	</g>
	<g>
		<path fill="#FAC2C3" d="M20.8,6.9H8.5c-3.6,0-6.8,2.7-7,6.4c-0.3,4,2.9,7.3,6.8,7.3c1.2,0,2.4-0.3,3.4-0.9c1.8-1,3.9-1.1,5.6-0.1
			c1.3,0.8,2.8,1.1,4.5,0.9c3-0.4,5.5-2.9,5.8-6C28,10.4,24.8,6.9,20.8,6.9z"/>
		<path fill="#DA8C8C" d="M20.8,21.3c-1.4,0-2.7-0.4-3.9-1.1c-1.4-0.9-3.3-0.8-4.9,0.1c-1.1,0.6-2.4,1-3.7,1c-2.1,0-4.1-0.9-5.5-2.4
			c-1.4-1.5-2.2-3.6-2-5.7c0.3-4,3.7-7.1,7.8-7.1h12.2c2.1,0,4.2,0.9,5.6,2.5c1.4,1.6,2.1,3.8,1.9,5.9c-0.4,3.4-3.1,6.2-6.4,6.6
			C21.5,21.2,21.1,21.3,20.8,21.3z M14.6,18.1c1.1,0,2.1,0.3,3.1,0.8c1.2,0.7,2.6,1,4,0.8c2.7-0.4,4.9-2.6,5.2-5.3
			c0.2-1.8-0.3-3.4-1.5-4.7c-1.1-1.3-2.8-2-4.5-2H8.5c-3.3,0-6.1,2.5-6.3,5.7c-0.1,1.7,0.5,3.3,1.6,4.6c1.2,1.2,2.7,1.9,4.4,1.9
			c1,0,2.1-0.3,3-0.8C12.3,18.4,13.5,18.1,14.6,18.1z"/>
	</g>
	<g>
		<path fill="#8F9BA8" d="M19.5,28.5c-1.4,0-2.5-1.2-2.5-2.7c0-1.5,1.1-2.7,2.5-2.7c1.1,0,4.3,0.9,4.3,2.7
			C23.9,27.6,20.6,28.5,19.5,28.5z M19.5,24.6c-0.6,0-1,0.5-1,1.2c0,0.7,0.5,1.2,1,1.2c0.9,0,2.7-0.8,2.8-1.2
			C22.2,25.4,20.4,24.6,19.5,24.6z"/>
	</g>
</g>
</svg>
