<?xml version="1.0" encoding="utf-8"?>
<!-- Generator: Adobe Illustrator 18.0.0, SVG Export Plug-In . SVG Version: 6.00 Build 0)  -->
<!DOCTYPE svg PUBLIC "-//W3C//DTD SVG 1.1//EN" "http://www.w3.org/Graphics/SVG/1.1/DTD/svg11.dtd">
<svg version="1.1" id="Layer_1" xmlns="http://www.w3.org/2000/svg" xmlns:xlink="http://www.w3.org/1999/xlink" x="0px" y="0px"
	 viewBox="0 0 32 32" enable-background="new 0 0 32 32" xml:space="preserve">
<g>
	<g>
		<rect x="15.3" y="6.6" fill="#B4A79C" width="1.5" height="23.9"/>
	</g>
	<g>
		<path fill="#B4A79C" d="M16,31.3c-5.1,0-9.2-4.1-9.2-9.2h1.5c0,4.3,3.5,7.7,7.7,7.7c4.3,0,7.7-3.5,7.7-7.7h1.5
			C25.2,27.1,21.1,31.3,16,31.3z"/>
	</g>
	<g>
		<rect x="12.8" y="9.7" fill="#B4A79C" width="6.3" height="1.5"/>
	</g>
	<g>
		<polygon fill="#B4A79C" points="25.8,25 24.4,23.1 22.7,24.5 21.7,23.3 24.7,20.9 27.1,24.2 		"/>
	</g>
	<g>
		<polygon fill="#B4A79C" points="6.2,25 4.9,24.2 7.3,20.9 10.3,23.3 9.3,24.5 7.6,23.1 		"/>
	</g>
	<g>
		<path fill="#B4A79C" d="M16,7.4c-1.8,0-3.3-1.5-3.3-3.3s1.5-3.3,3.3-3.3s3.3,1.5,3.3,3.3S17.8,7.4,16,7.4z M16,2.3
			c-1,0-1.8,0.8-1.8,1.8S15,5.9,16,5.9s1.8-0.8,1.8-1.8S17,2.3,16,2.3z"/>
	</g>
</g>
</svg>
