<?xml version="1.0" encoding="utf-8"?>
<!-- Generator: Adobe Illustrator 18.0.0, SVG Export Plug-In . SVG Version: 6.00 Build 0)  -->
<!DOCTYPE svg PUBLIC "-//W3C//DTD SVG 1.1//EN" "http://www.w3.org/Graphics/SVG/1.1/DTD/svg11.dtd">
<svg version="1.1" id="Layer_1" xmlns="http://www.w3.org/2000/svg" xmlns:xlink="http://www.w3.org/1999/xlink" x="0px" y="0px"
	 viewBox="0 0 32 32" enable-background="new 0 0 32 32" xml:space="preserve">
<g>
	<g>
		<path fill="#CDE4F7" d="M1.5,20.1c0,0,2.2,5.4,1.1,9.6h6.8c3.8-7.5,5.6-20.3,6.3-26.2C12.6,8.4,6.9,16.8,1.5,20.1z"/>
		<path fill="#74B1E0" d="M9.4,30.4H2.6c-0.2,0-0.5-0.1-0.6-0.3c-0.1-0.2-0.2-0.4-0.1-0.6c1-3.9-1.1-9.1-1.1-9.1
			c-0.1-0.3,0-0.7,0.3-0.9c5.3-3.2,11-11.6,13.9-16.3c0.2-0.3,0.5-0.4,0.9-0.3c0.3,0.1,0.5,0.4,0.5,0.8c-0.7,6.7-2.6,18.9-6.4,26.4
			C10,30.3,9.7,30.4,9.4,30.4z M3.5,28.9H9c3.1-6.3,4.8-16.1,5.6-22.2c-3.1,4.7-7.7,10.7-12.1,13.7C2.9,21.8,4.1,25.5,3.5,28.9z"/>
	</g>
	<g>
		<path fill="#CDE4F7" d="M30.5,20.1C25.1,16.8,19.4,8.4,16.3,3.5c0.7,5.9,2.4,18.6,6.3,26.2h6.8C28.3,25.5,30.5,20.1,30.5,20.1z"/>
		<path fill="#74B1E0" d="M29.4,30.4h-6.8c-0.3,0-0.5-0.2-0.7-0.4c-3.8-7.5-5.6-19.8-6.4-26.4c0-0.3,0.2-0.7,0.5-0.8
			c0.3-0.1,0.7,0,0.9,0.3c2.9,4.7,8.6,13.1,13.9,16.3c0.3,0.2,0.4,0.6,0.3,0.9c0,0.1-2.1,5.2-1.1,9.1c0.1,0.2,0,0.5-0.1,0.6
			C29.8,30.3,29.6,30.4,29.4,30.4z M23,28.9h5.4c-0.5-3.4,0.6-7.1,1.1-8.5c-4.5-3-9-9-12.1-13.7C18.3,12.8,20,22.6,23,28.9z"/>
	</g>
	<g>
		<path fill="#74B1E0" d="M23.8,30.4H8.2l0.6-1.1c3.8-7.5,5.6-20.6,6.2-25.9l0-0.2l1-1.7l1,1.7l0,0.2c0.6,5.3,2.4,18.4,6.2,25.9
			L23.8,30.4z M10.6,28.9h10.8c-2.9-6.3-4.5-15.3-5.4-21.8C15.1,13.6,13.5,22.6,10.6,28.9z"/>
	</g>
</g>
</svg>
