<?xml version="1.0" encoding="utf-8"?>
<!-- Generator: Adobe Illustrator 18.0.0, SVG Export Plug-In . SVG Version: 6.00 Build 0)  -->
<!DOCTYPE svg PUBLIC "-//W3C//DTD SVG 1.1//EN" "http://www.w3.org/Graphics/SVG/1.1/DTD/svg11.dtd">
<svg version="1.1" id="Layer_1" xmlns="http://www.w3.org/2000/svg" xmlns:xlink="http://www.w3.org/1999/xlink" x="0px" y="0px"
	 viewBox="0 0 32 32" enable-background="new 0 0 32 32" xml:space="preserve">
<g>
	<g>
		<path fill="#8F9BA8" d="M16,31.3C7.6,31.3,0.8,24.4,0.8,16C0.8,7.6,7.6,0.8,16,0.8S31.3,7.6,31.3,16C31.3,24.4,24.4,31.3,16,31.3z
			 M16,2.3C8.4,2.3,2.3,8.4,2.3,16S8.4,29.8,16,29.8S29.8,23.6,29.8,16S23.6,2.3,16,2.3z"/>
	</g>
	<g>
		<path fill="#DA8C8C" d="M16,9.9c-1.7,0-3.1-1.4-3.1-3.1s1.4-3.1,3.1-3.1s3.1,1.4,3.1,3.1S17.7,9.9,16,9.9z M16,5.2
			c-0.9,0-1.6,0.7-1.6,1.6s0.7,1.6,1.6,1.6c0.9,0,1.6-0.7,1.6-1.6S16.9,5.2,16,5.2z"/>
	</g>
	<g>
		<path fill="#FAC2C3" d="M18.9,17c0,4.3-1.3,10.6-2.9,10.6c-1.6,0-2.9-6.2-2.9-10.6s1.3-5.2,2.9-5.2C17.6,11.8,18.9,12.6,18.9,17z"
			/>
		<path fill="#DA8C8C" d="M16,28.3c-2.8,0-3.7-8.4-3.7-11.3c0-4.1,1.1-5.9,3.7-5.9s3.7,1.8,3.7,5.9C19.7,19.9,18.8,28.3,16,28.3z
			 M16,12.6c-0.8,0-2.2,0-2.2,4.4c0,4.6,1.3,9.4,2.2,9.8c0.8-0.4,2.2-5.2,2.2-9.8C18.2,12.6,16.8,12.6,16,12.6z"/>
	</g>
</g>
</svg>
