<?xml version="1.0" encoding="utf-8"?>
<!-- Generator: Adobe Illustrator 18.0.0, SVG Export Plug-In . SVG Version: 6.00 Build 0)  -->
<!DOCTYPE svg PUBLIC "-//W3C//DTD SVG 1.1//EN" "http://www.w3.org/Graphics/SVG/1.1/DTD/svg11.dtd">
<svg version="1.1" id="Layer_1" xmlns="http://www.w3.org/2000/svg" xmlns:xlink="http://www.w3.org/1999/xlink" x="0px" y="0px"
	 viewBox="0 0 32 32" enable-background="new 0 0 32 32" xml:space="preserve">
<g>
	<g>
		<path fill="#DA8C8C" d="M28.2,11.9H3.8c-1.7,0-3.1-1.4-3.1-3.1v-5c0-1.7,1.4-3.1,3.1-3.1h24.3c1.7,0,3.1,1.4,3.1,3.1v5
			C31.3,10.5,29.9,11.9,28.2,11.9z M3.8,2.3C3,2.3,2.3,3,2.3,3.8v5c0,0.9,0.7,1.6,1.6,1.6h24.3c0.9,0,1.6-0.7,1.6-1.6v-5
			c0-0.9-0.7-1.6-1.6-1.6H3.8z"/>
	</g>
	<g>
		<path fill="#DA8C8C" d="M28.2,31.3H3.8c-1.7,0-3.1-1.4-3.1-3.1v-5c0-1.7,1.4-3.1,3.1-3.1h24.3c1.7,0,3.1,1.4,3.1,3.1v5
			C31.3,29.9,29.9,31.3,28.2,31.3z M3.8,21.6c-0.9,0-1.6,0.7-1.6,1.6v5c0,0.9,0.7,1.6,1.6,1.6h24.3c0.9,0,1.6-0.7,1.6-1.6v-5
			c0-0.9-0.7-1.6-1.6-1.6H3.8z"/>
	</g>
	<g>
		<path fill="#DA8C8C" d="M18.5,8.1h-5c-1.5,0-2.8-1.2-2.8-2.8h1.5c0,0.7,0.6,1.3,1.3,1.3h5c0.7,0,1.3-0.6,1.3-1.3h1.5
			C21.3,6.9,20,8.1,18.5,8.1z"/>
	</g>
	<g>
		<path fill="#DA8C8C" d="M18.5,27.4h-5c-1.5,0-2.8-1.2-2.8-2.8h1.5c0,0.7,0.6,1.3,1.3,1.3h5c0.7,0,1.3-0.6,1.3-1.3h1.5
			C21.3,26.2,20,27.4,18.5,27.4z"/>
	</g>
	<g>
		<path fill="#FAC2C3" d="M28.2,20.8H3.8c-1.3,0-2.3-1-2.3-2.3v-5c0-1.3,1-2.3,2.3-2.3h24.3c1.3,0,2.3,1,2.3,2.3v5
			C30.5,19.8,29.5,20.8,28.2,20.8z"/>
		<path fill="#DA8C8C" d="M28.2,21.6H3.8c-1.7,0-3.1-1.4-3.1-3.1v-5c0-1.7,1.4-3.1,3.1-3.1h24.3c1.7,0,3.1,1.4,3.1,3.1v5
			C31.3,20.2,29.9,21.6,28.2,21.6z M3.8,11.9c-0.9,0-1.6,0.7-1.6,1.6v5c0,0.9,0.7,1.6,1.6,1.6h24.3c0.9,0,1.6-0.7,1.6-1.6v-5
			c0-0.9-0.7-1.6-1.6-1.6H3.8z"/>
	</g>
	<g>
		<path fill="#DA8C8C" d="M18.5,17.8h-5c-1.5,0-2.8-1.2-2.8-2.8h1.5c0,0.7,0.6,1.3,1.3,1.3h5c0.7,0,1.3-0.6,1.3-1.3h1.5
			C21.3,16.5,20,17.8,18.5,17.8z"/>
	</g>
</g>
</svg>
