<?xml version="1.0" encoding="utf-8"?>
<!-- Generator: Adobe Illustrator 18.0.0, SVG Export Plug-In . SVG Version: 6.00 Build 0)  -->
<!DOCTYPE svg PUBLIC "-//W3C//DTD SVG 1.1//EN" "http://www.w3.org/Graphics/SVG/1.1/DTD/svg11.dtd">
<svg version="1.1" id="Layer_1" xmlns="http://www.w3.org/2000/svg" xmlns:xlink="http://www.w3.org/1999/xlink" x="0px" y="0px"
	 viewBox="0 0 32 32" enable-background="new 0 0 32 32" xml:space="preserve">
<g>
	<g>
		<path fill="#F9F8F2" d="M24.8,1.5H7.2c-1,0-1.9,0.8-1.9,1.9c0-1,0.9-1.7,1.9-1.5l10.5,1.8c1.2,0.2,2,1.2,2,2.4v22.1
			c0,0.1,0,0.2,0,0.4h1.4c1,0,1.9-0.8,1.9-1.9V12c0-1,0.8-1.9,1.9-1.9c1,0,1.9-0.8,1.9-1.9V3.4C26.7,2.3,25.9,1.5,24.8,1.5z"/>
		<path fill="#B4A79C" d="M21.1,29.2h-2.2l0.1-0.9c0-0.1,0-0.2,0-0.3V6c0-0.8-0.6-1.5-1.4-1.6L7.1,2.6c-0.6-0.1-1,0.2-1,0.8l0,0l0,0
			l-1.5,0l0,0l0,0c0,0,0,0,0,0c0,0,0,0,0,0c0-1.4,1.2-2.6,2.6-2.6h17.6c1.4,0,2.6,1.2,2.6,2.6v4.8c0,1.4-1.2,2.6-2.6,2.6
			c-0.6,0-1.1,0.5-1.1,1.1v14.6C23.7,28,22.5,29.2,21.1,29.2z M20.5,27.7h0.6c0.6,0,1.1-0.5,1.1-1.1V12c0-1.4,1.2-2.6,2.6-2.6
			c0.6,0,1.1-0.5,1.1-1.1V3.4c0-0.6-0.5-1.1-1.1-1.1H14.1l3.8,0.7c1.5,0.3,2.6,1.6,2.6,3.1V27.7z M4.6,3.4L4.6,3.4l1.5,0h0l0,0
			L4.6,3.4z M6.1,3.4l-1.5,0L6.1,3.4L6.1,3.4L6.1,3.4z"/>
	</g>
	<g>
		<path fill="#B4A79C" d="M17.3,31.3L17.3,31.3c-0.2,0-0.4,0-0.5,0l-9.7-1.7c-1.4-0.2-2.5-1.5-2.5-2.9V3.4c0-1.5,1.2-2.6,2.8-2.3
			l10.5,1.8c1.5,0.3,2.6,1.6,2.6,3.1v22.1c0,0.2,0,0.3,0,0.5C20.2,30.1,18.9,31.3,17.3,31.3z M6.9,2.5c-0.5,0-0.8,0.3-0.8,0.8v23.2
			c0,0.7,0.6,1.3,1.3,1.5l9.7,1.7c0.9,0.2,1.8-0.5,1.9-1.4c0-0.1,0-0.2,0-0.3V6c0-0.8-0.6-1.5-1.4-1.6L7.1,2.6
			C7,2.6,6.9,2.5,6.9,2.5z"/>
	</g>
</g>
</svg>
