<?xml version="1.0" encoding="utf-8"?>
<!-- Generator: Adobe Illustrator 18.0.0, SVG Export Plug-In . SVG Version: 6.00 Build 0)  -->
<!DOCTYPE svg PUBLIC "-//W3C//DTD SVG 1.1//EN" "http://www.w3.org/Graphics/SVG/1.1/DTD/svg11.dtd">
<svg version="1.1" id="Layer_1" xmlns="http://www.w3.org/2000/svg" xmlns:xlink="http://www.w3.org/1999/xlink" x="0px" y="0px"
	 viewBox="0 0 32 32" enable-background="new 0 0 32 32" xml:space="preserve">
<g>
	<g>
		<rect x="15.4" y="15.8" fill="#8F9BA8" width="1.5" height="6.7"/>
	</g>
	<g>
		<polygon fill="#8F9BA8" points="20.8,25.9 16.1,22.8 11.5,25.9 10.7,24.6 16.1,21 21.6,24.6 		"/>
	</g>
	<g>
		<path fill="#CDE4F7" d="M21.7,14.5c-0.9-3.3-3.1-5.5-5.6-5.5c-2.5,0-4.7,2.3-5.6,5.5c1.6,0.8,3.5,1.3,5.6,1.3
			C18.2,15.8,20.2,15.3,21.7,14.5z"/>
		<path fill="#74B1E0" d="M16.1,16.6c-2.1,0-4.2-0.5-5.9-1.4l-0.5-0.3l0.2-0.6c1-3.7,3.5-6.1,6.3-6.1s5.3,2.4,6.3,6.1l0.2,0.6
			l-0.5,0.3C20.3,16.1,18.3,16.6,16.1,16.6z M11.4,14.1c2.8,1.3,6.6,1.3,9.4,0c-0.9-2.7-2.7-4.4-4.7-4.4S12.4,11.4,11.4,14.1z"/>
	</g>
	<g>
		<path fill="#8F9BA8" d="M16.1,7.2c-1.7,0-3-1.5-3-3.2s1.4-3.2,3-3.2s3,1.5,3,3.2S17.8,7.2,16.1,7.2z M16.1,2.3
			c-0.8,0-1.5,0.8-1.5,1.7c0,1,0.7,1.7,1.5,1.7s1.5-0.8,1.5-1.7C17.7,3,17,2.3,16.1,2.3z"/>
	</g>
	<g>
		<path fill="#CDE4F7" d="M30.5,29.2c-0.9-3.3-3.1-5.5-5.6-5.5c-2.5,0-4.7,2.3-5.6,5.5c1.6,0.8,3.5,1.3,5.6,1.3
			C27,30.5,28.9,30,30.5,29.2z"/>
		<path fill="#74B1E0" d="M24.9,31.3c-2.1,0-4.2-0.5-5.9-1.4l-0.5-0.3l0.2-0.6c1-3.7,3.5-6.1,6.3-6.1s5.3,2.4,6.3,6.1l0.2,0.6
			l-0.5,0.3C29.1,30.8,27.1,31.3,24.9,31.3z M20.2,28.8c2.8,1.3,6.6,1.3,9.4,0c-0.9-2.7-2.7-4.4-4.7-4.4S21.1,26.1,20.2,28.8z"/>
	</g>
	<g>
		<path fill="#8F9BA8" d="M24.9,21.9c-1.7,0-3-1.5-3-3.2c0-1.8,1.4-3.2,3-3.2s3,1.5,3,3.2C27.9,20.4,26.6,21.9,24.9,21.9z
			 M24.9,16.9c-0.8,0-1.5,0.8-1.5,1.7c0,1,0.7,1.7,1.5,1.7s1.5-0.8,1.5-1.7C26.4,17.7,25.8,16.9,24.9,16.9z"/>
	</g>
	<g>
		<path fill="#CDE4F7" d="M12.7,29.2c-0.9-3.3-3.1-5.5-5.6-5.5c-2.5,0-4.7,2.3-5.6,5.5C3.1,30,5,30.5,7.1,30.5
			C9.2,30.5,11.1,30,12.7,29.2z"/>
		<path fill="#74B1E0" d="M7.1,31.3c-2.1,0-4.2-0.5-5.9-1.4l-0.5-0.3L0.8,29c1-3.7,3.5-6.1,6.3-6.1s5.3,2.4,6.3,6.1l0.2,0.6L13,29.8
			C11.3,30.8,9.2,31.3,7.1,31.3z M2.4,28.8c2.8,1.3,6.6,1.3,9.4,0c-0.9-2.7-2.7-4.4-4.7-4.4S3.3,26.1,2.4,28.8z"/>
	</g>
	<g>
		<path fill="#8F9BA8" d="M7.1,21.9c-1.7,0-3-1.5-3-3.2c0-1.8,1.4-3.2,3-3.2s3,1.5,3,3.2C10.1,20.4,8.8,21.9,7.1,21.9z M7.1,16.9
			c-0.8,0-1.5,0.8-1.5,1.7c0,1,0.7,1.7,1.5,1.7s1.5-0.8,1.5-1.7C8.6,17.7,7.9,16.9,7.1,16.9z"/>
	</g>
</g>
</svg>
