<?xml version="1.0" encoding="utf-8"?>
<!-- Generator: Adobe Illustrator 18.0.0, SVG Export Plug-In . SVG Version: 6.00 Build 0)  -->
<!DOCTYPE svg PUBLIC "-//W3C//DTD SVG 1.1//EN" "http://www.w3.org/Graphics/SVG/1.1/DTD/svg11.dtd">
<svg version="1.1" id="Layer_1" xmlns="http://www.w3.org/2000/svg" xmlns:xlink="http://www.w3.org/1999/xlink" x="0px" y="0px"
	 viewBox="0 0 32 32" enable-background="new 0 0 32 32" xml:space="preserve">
<g>
	<g>
		<path fill="#B4A79C" d="M16,31.3C7.6,31.3,0.8,24.4,0.8,16S7.6,0.8,16,0.8c8.4,0,15.3,6.8,15.3,15.3S24.4,31.3,16,31.3z M16,2.3
			C8.4,2.3,2.3,8.4,2.3,16c0,7.6,6.2,13.8,13.8,13.8c7.6,0,13.8-6.2,13.8-13.8C29.8,8.4,23.6,2.3,16,2.3z"/>
	</g>
	<g>
		
			<rect x="21.4" y="3.7" transform="matrix(0.937 0.3494 -0.3494 0.937 4.9101 -7.0918)" fill="#B4A79C" width="1.5" height="12.7"/>
	</g>
	<g>
		
			<rect x="9.1" y="15.6" transform="matrix(0.9369 0.3495 -0.3495 0.9369 8.2893 -2.0718)" fill="#B4A79C" width="1.5" height="12.7"/>
	</g>
	<g>
		
			<rect x="15.6" y="21.4" transform="matrix(0.9369 0.3495 -0.3495 0.9369 9.1121 -6.2721)" fill="#B4A79C" width="12.7" height="1.5"/>
	</g>
	<g>
		
			<rect x="3.7" y="9.1" transform="matrix(0.9369 0.3495 -0.3495 0.9369 4.0902 -2.8939)" fill="#B4A79C" width="12.7" height="1.5"/>
	</g>
	<g>
		
			<rect x="23.8" y="9.8" transform="matrix(0.4155 0.9096 -0.9096 0.4155 29.0007 -12.8773)" fill="#B4A79C" width="1.5" height="12.7"/>
	</g>
	<g>
		
			<rect x="6.7" y="9.5" transform="matrix(0.4154 0.9096 -0.9096 0.4154 18.8119 2.476)" fill="#B4A79C" width="1.5" height="12.7"/>
	</g>
	<g>
		
			<rect x="9.5" y="23.8" transform="matrix(0.4154 0.9097 -0.9097 0.4154 31.5858 -0.105)" fill="#B4A79C" width="12.7" height="1.5"/>
	</g>
	<g>
		
			<rect x="9.8" y="6.7" transform="matrix(0.4154 0.9097 -0.9097 0.4154 16.2323 -10.2955)" fill="#B4A79C" width="12.7" height="1.5"/>
	</g>
	<g>
		<circle fill="#F9F8F2" cx="16" cy="16" r="3.9"/>
		<path fill="#B4A79C" d="M16,20.6c-2.6,0-4.6-2.1-4.6-4.6c0-2.6,2.1-4.6,4.6-4.6c2.6,0,4.6,2.1,4.6,4.6
			C20.6,18.6,18.6,20.6,16,20.6z M16,12.9c-1.7,0-3.1,1.4-3.1,3.1c0,1.7,1.4,3.1,3.1,3.1c1.7,0,3.1-1.4,3.1-3.1
			C19.1,14.3,17.7,12.9,16,12.9z"/>
	</g>
</g>
</svg>
