<?xml version="1.0" encoding="utf-8"?>
<!-- Generator: Adobe Illustrator 18.0.0, SVG Export Plug-In . SVG Version: 6.00 Build 0)  -->
<!DOCTYPE svg PUBLIC "-//W3C//DTD SVG 1.1//EN" "http://www.w3.org/Graphics/SVG/1.1/DTD/svg11.dtd">
<svg version="1.1" id="Layer_1" xmlns="http://www.w3.org/2000/svg" xmlns:xlink="http://www.w3.org/1999/xlink" x="0px" y="0px"
	 viewBox="0 0 32 32" enable-background="new 0 0 32 32" xml:space="preserve">
<g>
	<g>
		<path fill="#8F9BA8" d="M28.3,24.3h-3c-0.4,0-0.8-0.3-0.8-0.8c0-0.4,0.3-0.8,0.8-0.8h3c0.4,0,0.8,0.3,0.8,0.8
			C29.1,24,28.7,24.3,28.3,24.3z"/>
	</g>
	<g>
		<path fill="#8F9BA8" d="M28.3,15.6h-3c-0.4,0-0.8-0.3-0.8-0.8c0-0.4,0.3-0.8,0.8-0.8h3c0.4,0,0.8,0.3,0.8,0.8
			C29.1,15.2,28.7,15.6,28.3,15.6z"/>
	</g>
	<g>
		<path fill="#8F9BA8" d="M28.3,19.9h-3c-0.4,0-0.8-0.3-0.8-0.8s0.3-0.8,0.8-0.8h3c0.4,0,0.8,0.3,0.8,0.8S28.7,19.9,28.3,19.9z"/>
	</g>
	<g>
		<path fill="#8F9BA8" d="M28.3,28.7h-4.9c-3.3,0-6.7-0.3-10-0.9l-5.3-0.9V11.5l1.5-0.3c1.5-0.3,2.8-1.2,3.5-2.6l2.6-5.2
			c0.5-1.1,1.6-1.7,2.8-1.7c0.7,0,1.4,0.2,2,0.7c1.2,0.9,1.5,2.6,0.8,3.9l-1.7,3.4c1.3,0,2.5,0,3.7,0h4.8c1.4,0,2.7,1,2.9,2.3
			c0.2,0.9,0,1.8-0.6,2.5c-0.1,0.1-0.2,0.2-0.3,0.3c0.6,0.5,1,1.3,1,2.2c0,0.9-0.4,1.6-1,2.2c0.6,0.5,1,1.3,1,2.2
			c0,0.9-0.4,1.6-1,2.2c0.1,0.1,0.2,0.2,0.3,0.3c0.6,0.7,0.8,1.6,0.6,2.5C30.9,27.7,29.7,28.7,28.3,28.7z M9.6,25.6l4,0.7
			c3.2,0.6,6.5,0.8,9.7,0.8h4.9c0.7,0,1.3-0.5,1.5-1.1c0.1-0.4,0-0.9-0.3-1.2c-0.3-0.3-0.7-0.5-1.1-0.5v-1.5c0.8,0,1.4-0.6,1.4-1.4
			c0-0.8-0.6-1.4-1.4-1.4v-1.5c0.8,0,1.4-0.6,1.4-1.4c0-0.8-0.6-1.4-1.4-1.4v-1.5c0.4,0,0.8-0.2,1.1-0.5c0.3-0.3,0.4-0.8,0.3-1.2
			c-0.1-0.7-0.7-1.1-1.5-1.1h-4.8c-1.2,0-2.4,0-3.6,0.1l-0.1,0c-0.5,0-1-0.3-1.3-0.7c-0.3-0.5-0.3-1-0.1-1.5l1.7-3.4
			c0.4-0.7,0.2-1.6-0.4-2.1c-0.8-0.6-2.1-0.4-2.5,0.5l-2.6,5.2c-0.9,1.8-2.6,3.1-4.6,3.4l-0.3,0.1V25.6z"/>
	</g>
	<g>
		<path fill="#F9F8F2" d="M6.4,29.6H4c-1.4,0-2.5-1.1-2.5-2.5V11.3c0-1.4,1.1-2.5,2.5-2.5h2.5c1.4,0,2.5,1.1,2.5,2.5v15.8
			C8.9,28.5,7.8,29.6,6.4,29.6z"/>
		<path fill="#B4A79C" d="M6.4,30.3H4c-1.8,0-3.2-1.4-3.2-3.2V11.3c0-1.8,1.4-3.2,3.2-3.2h2.5c1.8,0,3.2,1.4,3.2,3.2v15.8
			C9.6,28.9,8.2,30.3,6.4,30.3z M4,9.6c-0.9,0-1.7,0.8-1.7,1.7v15.8C2.3,28,3,28.8,4,28.8h2.5c0.9,0,1.7-0.8,1.7-1.7V11.3
			c0-0.9-0.8-1.7-1.7-1.7H4z"/>
	</g>
</g>
</svg>
