<?xml version="1.0" encoding="utf-8"?>
<!-- Generator: Adobe Illustrator 18.0.0, SVG Export Plug-In . SVG Version: 6.00 Build 0)  -->
<!DOCTYPE svg PUBLIC "-//W3C//DTD SVG 1.1//EN" "http://www.w3.org/Graphics/SVG/1.1/DTD/svg11.dtd">
<svg version="1.1" id="Layer_1" xmlns="http://www.w3.org/2000/svg" xmlns:xlink="http://www.w3.org/1999/xlink" x="0px" y="0px"
	 viewBox="0 0 32 32" enable-background="new 0 0 32 32" xml:space="preserve">
<g>
	<g>
		<path fill="#F0F7F7" d="M8.9,17.8c-2.4,3.3-4.2,7.1-5.4,11.1c1.6-1.4,3.3-2.5,5-3.5c0.9,1.8,1.9,3.5,3,5.1
			c0.3-3.3,1.1-6.7,2.5-9.8C12,20.3,10.2,19.2,8.9,17.8z"/>
		<path fill="#8F9BA8" d="M11.6,31.3c-0.2,0-0.5-0.1-0.6-0.3c-1-1.4-1.9-2.9-2.7-4.5c-1.5,0.9-2.9,1.9-4.2,3c-0.3,0.2-0.6,0.2-0.9,0
			c-0.3-0.2-0.4-0.5-0.3-0.8c1.2-4.1,3.1-7.9,5.5-11.4C8.4,17.1,8.6,17,8.8,17c0.2,0,0.4,0.1,0.6,0.2c1.3,1.4,3,2.3,4.8,2.7
			c0.2,0,0.4,0.2,0.5,0.4c0.1,0.2,0.1,0.4,0,0.6c-1.4,3.1-2.2,6.3-2.5,9.6c0,0.3-0.2,0.6-0.5,0.7C11.7,31.2,11.6,31.3,11.6,31.3z
			 M8.5,24.7c0.1,0,0.2,0,0.2,0c0.2,0.1,0.4,0.2,0.4,0.4c0.5,1.2,1.2,2.3,1.8,3.3c0.4-2.5,1-4.9,2-7.2c-1.5-0.4-2.9-1.2-4.1-2.3
			c-1.7,2.5-3,5.1-4,7.9c1-0.7,2.1-1.4,3.2-2C8.3,24.7,8.4,24.7,8.5,24.7z"/>
	</g>
	<g>
		<path fill="#F0F7F7" d="M23.1,17.8c-1.4,1.5-3.2,2.5-5.2,2.9c1.4,3.1,2.2,6.5,2.5,9.8c1.1-1.5,2.2-3.2,3-5.1c1.7,1,3.4,2.1,5,3.5
			C27.3,24.8,25.5,21.1,23.1,17.8z"/>
		<path fill="#8F9BA8" d="M20.4,31.3c-0.1,0-0.1,0-0.2,0c-0.3-0.1-0.5-0.3-0.5-0.7c-0.3-3.3-1.1-6.5-2.5-9.6c-0.1-0.2-0.1-0.4,0-0.6
			c0.1-0.2,0.3-0.3,0.5-0.4c1.9-0.4,3.5-1.3,4.8-2.7c0.2-0.2,0.4-0.3,0.6-0.2c0.2,0,0.4,0.1,0.6,0.3c2.5,3.5,4.3,7.3,5.5,11.4
			c0.1,0.3,0,0.7-0.3,0.8c-0.3,0.2-0.6,0.2-0.9,0c-1.3-1.1-2.8-2.1-4.2-3c-0.8,1.6-1.7,3.1-2.7,4.5C20.9,31.1,20.7,31.3,20.4,31.3z
			 M19,21.2c1,2.3,1.6,4.8,2,7.2c0.7-1.1,1.3-2.2,1.8-3.3c0.1-0.2,0.3-0.3,0.4-0.4c0.2-0.1,0.4,0,0.6,0.1c1.1,0.6,2.2,1.3,3.2,2
			c-1-2.8-2.4-5.4-4-7.9C21.8,20,20.5,20.8,19,21.2z"/>
	</g>
	<g>
		<path fill="#74B1E0" d="M16,21.6c-0.7,0-1.4-0.1-2.1-0.2c-2.2-0.4-4.1-1.5-5.6-3.2c-1.8-1.9-2.8-4.4-2.8-7.1
			C5.6,5.4,10.2,0.8,16,0.8c5.8,0,10.4,4.7,10.4,10.4c0,2.6-1,5.1-2.8,7.1c-1.5,1.6-3.4,2.7-5.6,3.2C17.4,21.6,16.7,21.6,16,21.6z
			 M16,2.3c-4.9,0-8.9,4-8.9,8.9c0,2.3,0.8,4.4,2.4,6.1c1.3,1.4,3,2.3,4.8,2.7c1.2,0.2,2.4,0.2,3.5,0c1.9-0.4,3.5-1.3,4.8-2.7
			c1.5-1.7,2.4-3.8,2.4-6.1C24.9,6.3,20.9,2.3,16,2.3z"/>
	</g>
</g>
</svg>
