<?xml version="1.0" encoding="utf-8"?>
<!-- Generator: Adobe Illustrator 18.0.0, SVG Export Plug-In . SVG Version: 6.00 Build 0)  -->
<!DOCTYPE svg PUBLIC "-//W3C//DTD SVG 1.1//EN" "http://www.w3.org/Graphics/SVG/1.1/DTD/svg11.dtd">
<svg version="1.1" id="Layer_1" xmlns="http://www.w3.org/2000/svg" xmlns:xlink="http://www.w3.org/1999/xlink" x="0px" y="0px"
	 viewBox="0 0 32 32" enable-background="new 0 0 32 32" xml:space="preserve">
<g>
	<g>
		
			<rect x="-0.9" y="6.6" transform="matrix(0.7071 0.7071 -0.7071 0.7071 7.3806 -3.0571)" fill="#8F9BA8" width="16.6" height="1.5"/>
	</g>
	<g>
		<polygon fill="#8F9BA8" points="14,14 3.6,14 3.6,12.5 12.5,12.5 12.5,3.6 14,3.6 		"/>
	</g>
	<g>
		
			<rect x="16.3" y="23.9" transform="matrix(0.7071 0.7071 -0.7071 0.7071 24.6187 -10.1979)" fill="#8F9BA8" width="16.6" height="1.5"/>
	</g>
	<g>
		<polygon fill="#8F9BA8" points="19.5,28.4 18,28.4 18,18 28.4,18 28.4,19.5 19.5,19.5 		"/>
	</g>
	<g>
		
			<rect x="6.6" y="16.3" transform="matrix(0.7071 0.7071 -0.7071 0.7071 19.5708 1.9922)" fill="#8F9BA8" width="1.5" height="16.6"/>
	</g>
	<g>
		<polygon fill="#8F9BA8" points="14,28.4 12.5,28.4 12.5,19.5 3.6,19.5 3.6,18 14,18 		"/>
	</g>
	<g>
		
			<rect x="23.9" y="-0.9" transform="matrix(0.7071 0.7071 -0.7071 0.7071 12.4298 -15.247)" fill="#8F9BA8" width="1.5" height="16.6"/>
	</g>
	<g>
		<polygon fill="#8F9BA8" points="28.4,14 18,14 18,3.6 19.5,3.6 19.5,12.5 28.4,12.5 		"/>
	</g>
</g>
</svg>
