<?xml version="1.0" encoding="utf-8"?>
<!-- Generator: Adobe Illustrator 18.0.0, SVG Export Plug-In . SVG Version: 6.00 Build 0)  -->
<!DOCTYPE svg PUBLIC "-//W3C//DTD SVG 1.1//EN" "http://www.w3.org/Graphics/SVG/1.1/DTD/svg11.dtd">
<svg version="1.1" id="Layer_1" xmlns="http://www.w3.org/2000/svg" xmlns:xlink="http://www.w3.org/1999/xlink" x="0px" y="0px"
	 viewBox="0 0 32 32" enable-background="new 0 0 32 32" xml:space="preserve">
<g>
	<g>
		<rect x="15.3" y="1.5" fill="#79C693" width="1.5" height="11.8"/>
	</g>
	<g>
		<polygon fill="#79C693" points="20.3,6.9 16,2.5 11.7,6.9 10.6,5.8 16,0.4 21.4,5.8 		"/>
	</g>
	<g>
		<rect x="15.2" y="18.7" fill="#79C693" width="1.5" height="11.8"/>
	</g>
	<g>
		<polygon fill="#79C693" points="16,31.6 10.6,26.2 11.7,25.1 16,29.5 20.3,25.1 21.4,26.2 		"/>
	</g>
	<g>
		<rect x="18.7" y="15.3" fill="#79C693" width="11.8" height="1.5"/>
	</g>
	<g>
		<polygon fill="#79C693" points="26.2,21.4 25.1,20.3 29.5,16 25.1,11.7 26.2,10.6 31.6,16 		"/>
	</g>
	<g>
		<rect x="1.5" y="15.2" fill="#79C693" width="11.8" height="1.5"/>
	</g>
	<g>
		<polygon fill="#79C693" points="5.8,21.4 0.4,16 5.8,10.6 6.9,11.7 2.5,16 6.9,20.3 		"/>
	</g>
</g>
</svg>
