<?xml version="1.0" encoding="utf-8"?>
<!-- Generator: Adobe Illustrator 18.0.0, SVG Export Plug-In . SVG Version: 6.00 Build 0)  -->
<!DOCTYPE svg PUBLIC "-//W3C//DTD SVG 1.1//EN" "http://www.w3.org/Graphics/SVG/1.1/DTD/svg11.dtd">
<svg version="1.1" id="Layer_1" xmlns="http://www.w3.org/2000/svg" xmlns:xlink="http://www.w3.org/1999/xlink" x="0px" y="0px"
	 viewBox="0 0 32 32" enable-background="new 0 0 32 32" xml:space="preserve">
<g>
	<g>
		<path fill="#B4A79C" d="M30.5,31.3L30.5,31.3l-29,0c-0.2,0-0.4-0.1-0.5-0.2s-0.2-0.3-0.2-0.5l0-29c0-0.4,0.3-0.8,0.8-0.8l0,0l29,0
			c0.2,0,0.4,0.1,0.5,0.2s0.2,0.3,0.2,0.5l0,29C31.2,30.9,30.9,31.3,30.5,31.3z M2.2,29.7l27.5,0l0-27.5l-27.5,0L2.2,29.7z"/>
	</g>
	<g>
		
			<rect x="16.5" y="21.6" transform="matrix(0.7071 0.7071 -0.7071 0.7071 22.3596 -9.2608)" fill="#B4A79C" width="11.8" height="1.5"/>
	</g>
	<g>
		<path fill="#B4A79C" d="M17.4,25.1l0-6.9c0-0.2,0.1-0.4,0.2-0.5c0.1-0.1,0.3-0.2,0.5-0.2h6.9v1.5h-6.1l0,6.1H17.4z"/>
	</g>
	<g>
		
			<rect x="3.7" y="8.9" transform="matrix(0.7071 0.7071 -0.7071 0.7071 9.6426 -3.9941)" fill="#B4A79C" width="11.8" height="1.5"/>
	</g>
	<g>
		<path fill="#B4A79C" d="M13.8,14.6L13.8,14.6l-6.9,0v-1.5l6.1,0V6.9h1.5v6.9c0,0.2-0.1,0.4-0.2,0.5C14.2,14.5,14,14.6,13.8,14.6z"
			/>
	</g>
</g>
</svg>
