<?xml version="1.0" encoding="utf-8"?>
<!-- Generator: Adobe Illustrator 18.0.0, SVG Export Plug-In . SVG Version: 6.00 Build 0)  -->
<!DOCTYPE svg PUBLIC "-//W3C//DTD SVG 1.1//EN" "http://www.w3.org/Graphics/SVG/1.1/DTD/svg11.dtd">
<svg version="1.1" id="Layer_1" xmlns="http://www.w3.org/2000/svg" xmlns:xlink="http://www.w3.org/1999/xlink" x="0px" y="0px"
	 viewBox="0 0 32 32" enable-background="new 0 0 32 32" xml:space="preserve">
<g>
	<g>
		<path fill="#DA8C8C" d="M30.5,31.3h-29c-0.4,0-0.8-0.3-0.8-0.8v-29c0-0.4,0.3-0.8,0.8-0.8h29c0.4,0,0.8,0.3,0.8,0.8v29
			C31.3,30.9,30.9,31.3,30.5,31.3z M2.3,29.8h27.5V2.3H2.3V29.8z"/>
	</g>
	<g>
		
			<rect x="16.5" y="21.6" transform="matrix(0.7071 0.7071 -0.7071 0.7071 22.3584 -9.2607)" fill="#DA8C8C" width="11.8" height="1.5"/>
	</g>
	<g>
		<polygon fill="#DA8C8C" points="27.3,27.3 19.6,27.3 19.6,25.8 25.8,25.8 25.8,19.6 27.3,19.6 		"/>
	</g>
	<g>
		
			<rect x="3.7" y="8.9" transform="matrix(0.7071 0.7071 -0.7071 0.7071 9.6423 -3.9942)" fill="#DA8C8C" width="11.8" height="1.5"/>
	</g>
	<g>
		<polygon fill="#DA8C8C" points="6.2,12.4 4.7,12.4 4.7,4.7 12.4,4.7 12.4,6.2 6.2,6.2 		"/>
	</g>
</g>
</svg>
