<?xml version="1.0" encoding="utf-8"?>
<!-- Generator: Adobe Illustrator 18.0.0, SVG Export Plug-In . SVG Version: 6.00 Build 0)  -->
<!DOCTYPE svg PUBLIC "-//W3C//DTD SVG 1.1//EN" "http://www.w3.org/Graphics/SVG/1.1/DTD/svg11.dtd">
<svg version="1.1" id="Layer_1" xmlns="http://www.w3.org/2000/svg" xmlns:xlink="http://www.w3.org/1999/xlink" x="0px" y="0px"
	 viewBox="0 0 32 32" enable-background="new 0 0 32 32" xml:space="preserve">
<g>
	<g>
		<path fill="#B4A79C" d="M30.5,31.3h-29c-0.4,0-0.8-0.3-0.8-0.8V8.1c0-0.4,0.3-0.8,0.8-0.8h29c0.4,0,0.8,0.3,0.8,0.8v22.4
			C31.3,30.9,30.9,31.3,30.5,31.3z M2.3,29.8h27.5V8.8H2.3V29.8z"/>
	</g>
	<g>
		<line fill="#F9F8F2" x1="5.6" y1="11.9" x2="14.6" y2="11.9"/>
		<rect x="5.6" y="11.1" fill="#B4A79C" width="9" height="1.5"/>
	</g>
	<g>
		<line fill="#F9F8F2" x1="13.5" y1="15.7" x2="22.5" y2="15.7"/>
		<rect x="13.5" y="14.9" fill="#B4A79C" width="9" height="1.5"/>
	</g>
	<g>
		<line fill="#F9F8F2" x1="9" y1="22.2" x2="18" y2="22.2"/>
		<rect x="9" y="21.5" fill="#B4A79C" width="9" height="1.5"/>
	</g>
	<g>
		<line fill="#F9F8F2" x1="14.6" y1="26.2" x2="23.6" y2="26.2"/>
		<rect x="14.6" y="25.4" fill="#B4A79C" width="9" height="1.5"/>
	</g>
	<g>
		<rect x="1.5" y="1.5" fill="#F9F8F2" width="29" height="6.6"/>
		<path fill="#B4A79C" d="M31.3,8.8H0.8V0.8h30.5V8.8z M2.3,7.3h27.5V2.3H2.3V7.3z"/>
	</g>
	<g>
		<line fill="#F9F8F2" x1="4.9" y1="3.8" x2="4.9" y2="5.4"/>
		<rect x="4.2" y="3.8" fill="#B4A79C" width="1.5" height="1.6"/>
	</g>
	<g>
		<line fill="#F9F8F2" x1="8.4" y1="3.8" x2="8.4" y2="5.4"/>
		<rect x="7.7" y="3.8" fill="#B4A79C" width="1.5" height="1.6"/>
	</g>
	<g>
		<line fill="#F9F8F2" x1="11.9" y1="3.8" x2="11.9" y2="5.4"/>
		<rect x="11.2" y="3.8" fill="#B4A79C" width="1.5" height="1.6"/>
	</g>
</g>
</svg>
