<?xml version="1.0" encoding="utf-8"?>
<!-- Generator: Adobe Illustrator 18.0.0, SVG Export Plug-In . SVG Version: 6.00 Build 0)  -->
<!DOCTYPE svg PUBLIC "-//W3C//DTD SVG 1.1//EN" "http://www.w3.org/Graphics/SVG/1.1/DTD/svg11.dtd">
<svg version="1.1" id="Layer_1" xmlns="http://www.w3.org/2000/svg" xmlns:xlink="http://www.w3.org/1999/xlink" x="0px" y="0px"
	 viewBox="0 0 32 32" enable-background="new 0 0 32 32" xml:space="preserve">
<g>
	<g>
		<path fill="#74B1E0" d="M16,31.2C7.6,31.2,0.8,24.4,0.8,16C0.8,8.7,6,2.4,13.2,1C13.6,0.9,14,1.2,14,1.6l2.6,13.9l12.2,7.2
			c0.2,0.1,0.3,0.3,0.3,0.5c0,0.2,0,0.4-0.1,0.6C26.4,28.4,21.4,31.2,16,31.2z M12.7,2.7C6.6,4.2,2.3,9.6,2.3,16
			c0,7.6,6.2,13.7,13.8,13.7c4.6,0,8.9-2.3,11.4-6.1l-11.8-7c-0.2-0.1-0.3-0.3-0.4-0.5L12.7,2.7z"/>
	</g>
	<g>
		<path fill="#CDE4F7" d="M26.2,5.7C23.6,3.1,20,1.5,16,1.5c-0.9,0-1.8,0.1-2.7,0.3L16,16L26.2,5.7z"/>
		<path fill="#74B1E0" d="M16,16.7c-0.1,0-0.1,0-0.2,0c-0.3-0.1-0.5-0.3-0.5-0.6L12.6,1.9c0-0.2,0-0.4,0.1-0.6
			C12.8,1.2,13,1.1,13.2,1c5-0.9,10.1,0.6,13.6,4.2c0.3,0.3,0.3,0.8,0,1.1L16.5,16.5C16.4,16.7,16.2,16.7,16,16.7z M14.2,2.4
			l2.3,12.1l8.7-8.7C22.2,3.1,18.2,1.8,14.2,2.4z"/>
	</g>
	<g>
		<path fill="#CDE4F7" d="M28.5,23.4c1.3-2.2,2-4.7,2-7.4c0-4-1.6-7.7-4.3-10.3L16,16L28.5,23.4z"/>
		<path fill="#74B1E0" d="M28.5,24.1c-0.1,0-0.3,0-0.4-0.1l-12.5-7.4c-0.2-0.1-0.3-0.3-0.4-0.6c0-0.2,0-0.5,0.2-0.6L25.7,5.2
			c0.3-0.3,0.8-0.3,1.1,0c2.9,2.9,4.5,6.7,4.5,10.8c0,2.7-0.7,5.4-2.1,7.7C29,24,28.7,24.1,28.5,24.1z M17.2,15.8l11,6.5
			c1-1.9,1.5-4.1,1.5-6.3c0-3.4-1.2-6.7-3.5-9.2L17.2,15.8z"/>
	</g>
</g>
</svg>
