<?xml version="1.0" encoding="utf-8"?>
<!-- Generator: Adobe Illustrator 18.0.0, SVG Export Plug-In . SVG Version: 6.00 Build 0)  -->
<!DOCTYPE svg PUBLIC "-//W3C//DTD SVG 1.1//EN" "http://www.w3.org/Graphics/SVG/1.1/DTD/svg11.dtd">
<svg version="1.1" id="Layer_1" xmlns="http://www.w3.org/2000/svg" xmlns:xlink="http://www.w3.org/1999/xlink" x="0px" y="0px"
	 viewBox="0 0 32 32" enable-background="new 0 0 32 32" xml:space="preserve">
<g>
	<g>
		<path fill="#8F9BA8" d="M5.5,27.4H4v-22c0-2.6,2.1-4.7,4.7-4.7h18.5C27.6,0.7,28,1,28,1.5v22.8h-1.5v-22H8.7
			C7,2.3,5.5,3.7,5.5,5.4V27.4z"/>
	</g>
	<g>
		<path fill="#F0F7F7" d="M27.2,24.3H7.9c-1.7,0-3.1,1.4-3.1,3.1l0,0c0,1.7,1.4,3.1,3.1,3.1h19.3C25.7,27.4,27.2,24.3,27.2,24.3z"/>
		<path fill="#8F9BA8" d="M27.2,31.3H7.9c-2.1,0-3.9-1.7-3.9-3.9s1.7-3.9,3.9-3.9h19.3c0.3,0,0.5,0.1,0.6,0.4c0.1,0.2,0.1,0.5,0,0.7
			c0,0-1.4,2.8,0,5.6c0.1,0.2,0.1,0.5,0,0.7C27.7,31.1,27.5,31.3,27.2,31.3z M7.9,25c-1.3,0-2.4,1.1-2.4,2.4s1.1,2.4,2.4,2.4h18.2
			c-0.6-1.9-0.3-3.6,0-4.7L7.9,25L7.9,25z"/>
	</g>
	<g>
		<line fill="none" x1="9.8" y1="6.7" x2="22.2" y2="6.7"/>
		<rect x="9.8" y="5.9" fill="#8F9BA8" width="12.4" height="1.5"/>
	</g>
	<g>
		<line fill="none" x1="9.8" y1="11.4" x2="22.2" y2="11.4"/>
		<rect x="9.8" y="10.6" fill="#8F9BA8" width="12.4" height="1.5"/>
	</g>
	<g>
		<line fill="none" x1="9.8" y1="16.1" x2="22.2" y2="16.1"/>
		<rect x="9.8" y="15.3" fill="#8F9BA8" width="12.4" height="1.5"/>
	</g>
</g>
</svg>
