<?xml version="1.0" encoding="utf-8"?>
<!-- Generator: Adobe Illustrator 18.0.0, SVG Export Plug-In . SVG Version: 6.00 Build 0)  -->
<!DOCTYPE svg PUBLIC "-//W3C//DTD SVG 1.1//EN" "http://www.w3.org/Graphics/SVG/1.1/DTD/svg11.dtd">
<svg version="1.1" id="Layer_1" xmlns="http://www.w3.org/2000/svg" xmlns:xlink="http://www.w3.org/1999/xlink" x="0px" y="0px"
	 viewBox="0 0 32 32" enable-background="new 0 0 32 32" xml:space="preserve">
<g>
	<g>
		<path fill="#79C693" d="M27.5,31.3h-23c-2.1,0-3.7-1.7-3.7-3.7v-23c0-2.1,1.7-3.7,3.7-3.7h23c2.1,0,3.7,1.7,3.7,3.7v23
			C31.3,29.6,29.6,31.3,27.5,31.3z M4.5,2.3c-1.2,0-2.2,1-2.2,2.2v23c0,1.2,1,2.2,2.2,2.2h23c1.2,0,2.2-1,2.2-2.2v-23
			c0-1.2-1-2.2-2.2-2.2H4.5z"/>
	</g>
	<g>
		<path fill="#79C693" d="M16,25.6c-5.3,0-9.6-4.3-9.6-9.6s4.3-9.6,9.6-9.6c5.3,0,9.6,4.3,9.6,9.6S21.3,25.6,16,25.6z M16,7.9
			c-4.5,0-8.1,3.6-8.1,8.1s3.6,8.1,8.1,8.1c4.5,0,8.1-3.6,8.1-8.1S20.5,7.9,16,7.9z"/>
	</g>
	<g>
		<rect x="11.7" y="14.9" fill="#79C693" width="1.5" height="2.1"/>
	</g>
	<g>
		<rect x="18.8" y="14.9" fill="#79C693" width="1.5" height="2.1"/>
	</g>
</g>
</svg>
