<?xml version="1.0" encoding="utf-8"?>
<!-- Generator: Adobe Illustrator 18.0.0, SVG Export Plug-In . SVG Version: 6.00 Build 0)  -->
<!DOCTYPE svg PUBLIC "-//W3C//DTD SVG 1.1//EN" "http://www.w3.org/Graphics/SVG/1.1/DTD/svg11.dtd">
<svg version="1.1" id="Layer_1" xmlns="http://www.w3.org/2000/svg" xmlns:xlink="http://www.w3.org/1999/xlink" x="0px" y="0px"
	 viewBox="0 0 32 32" enable-background="new 0 0 32 32" xml:space="preserve">
<g>
	<g>
		<path fill="#8F9BA8" d="M11.1,31.3L11.1,31.3c-2.7,0-5.6-0.4-8.7-1.1C2.2,30,2,29.8,1.9,29.6C-0.3,20.8,0.7,13,4.8,7.8
			c3.6-4.6,9.1-7,16.1-7c2.7,0,5.6,0.4,8.7,1.1C29.8,2,30,2.2,30.1,2.4c2.2,8.8,1.2,16.5-2.9,21.8C23.6,28.8,18,31.3,11.1,31.3z
			 M3.2,28.8c2.7,0.7,5.4,1,7.8,1c6.5,0,11.6-2.2,14.9-6.4c3.7-4.8,4.7-11.9,2.8-20.1c-2.7-0.7-5.4-1-7.8-1C14.4,2.3,9.3,4.5,6,8.7
			C2.3,13.5,1.3,20.6,3.2,28.8z"/>
	</g>
	<g>
		
			<rect x="15.3" y="-2.9" transform="matrix(-0.7071 -0.7071 0.7071 -0.7071 16.0374 38.7132)" fill="#8F9BA8" width="1.5" height="37.8"/>
	</g>
	<g>
		<g>
			
				<rect x="17.8" y="10.8" transform="matrix(-0.7072 -0.707 0.707 -0.7072 26.7125 34.0828)" fill="#8F9BA8" width="5.2" height="1.5"/>
		</g>
		<g>
			
				<rect x="14.9" y="13.8" transform="matrix(-0.7071 -0.7071 0.7071 -0.7071 19.5367 37.1929)" fill="#8F9BA8" width="5.2" height="1.5"/>
		</g>
		<g>
			
				<rect x="11.9" y="16.7" transform="matrix(-0.7071 -0.7071 0.7071 -0.7071 12.465 40.0617)" fill="#8F9BA8" width="5.2" height="1.5"/>
		</g>
		<g>
			
				<rect x="8.9" y="19.7" transform="matrix(-0.7072 -0.707 0.707 -0.7072 5.226 43.0017)" fill="#8F9BA8" width="5.2" height="1.5"/>
		</g>
	</g>
</g>
</svg>
