<?xml version="1.0" encoding="utf-8"?>
<!-- Generator: Adobe Illustrator 18.0.0, SVG Export Plug-In . SVG Version: 6.00 Build 0)  -->
<!DOCTYPE svg PUBLIC "-//W3C//DTD SVG 1.1//EN" "http://www.w3.org/Graphics/SVG/1.1/DTD/svg11.dtd">
<svg version="1.1" id="Layer_1" xmlns="http://www.w3.org/2000/svg" xmlns:xlink="http://www.w3.org/1999/xlink" x="0px" y="0px"
	 viewBox="0 0 32 32" enable-background="new 0 0 32 32" xml:space="preserve">
<g>
	<g>
		<path fill="#8F9BA8" d="M23.7,31.3H8.3c-1.5,0-2.7-1.2-2.7-2.7V8.8h20.8v19.8C26.4,30.1,25.2,31.3,23.7,31.3z M7.1,10.3v18.3
			c0,0.6,0.5,1.2,1.2,1.2h15.5c0.6,0,1.2-0.5,1.2-1.2V10.3H7.1z"/>
	</g>
	<g>
		<path fill="#8F9BA8" d="M20.6,5.4h-9.3l1.3-4.6h6.6L20.6,5.4z M13.4,3.9h5.3l-0.5-1.6h-4.3L13.4,3.9z"/>
	</g>
	<g>
		<line fill="#FFFFFF" x1="20.7" y1="12.8" x2="20.7" y2="27.3"/>
		<rect x="20" y="12.8" fill="#8F9BA8" width="1.5" height="14.5"/>
	</g>
	<g>
		<line fill="#FFFFFF" x1="16" y1="12.8" x2="16" y2="27.3"/>
		<rect x="15.3" y="12.8" fill="#8F9BA8" width="1.5" height="14.5"/>
	</g>
	<g>
		<line fill="#FFFFFF" x1="11.3" y1="12.8" x2="11.3" y2="27.3"/>
		<rect x="10.5" y="12.8" fill="#8F9BA8" width="1.5" height="14.5"/>
	</g>
	<g>
		<path fill="#FAC2C3" d="M26.4,9.6H5.6c-0.6,0-1-0.5-1-1V5.7c0-0.6,0.5-1,1-1h20.8c0.6,0,1,0.5,1,1v2.9C27.4,9.1,27,9.6,26.4,9.6z"
			/>
		<path fill="#DA8C8C" d="M26.4,10.3H5.6c-1,0-1.8-0.8-1.8-1.8V5.7c0-1,0.8-1.8,1.8-1.8h20.8c1,0,1.8,0.8,1.8,1.8v2.9
			C28.2,9.5,27.4,10.3,26.4,10.3z M5.6,5.4c-0.2,0-0.3,0.1-0.3,0.3v2.9c0,0.2,0.1,0.3,0.3,0.3h20.8c0.2,0,0.3-0.1,0.3-0.3V5.7
			c0-0.2-0.1-0.3-0.3-0.3H5.6z"/>
	</g>
</g>
</svg>
