<?xml version="1.0" encoding="utf-8"?>
<!-- Generator: Adobe Illustrator 18.0.0, SVG Export Plug-In . SVG Version: 6.00 Build 0)  -->
<!DOCTYPE svg PUBLIC "-//W3C//DTD SVG 1.1//EN" "http://www.w3.org/Graphics/SVG/1.1/DTD/svg11.dtd">
<svg version="1.1" id="Layer_1" xmlns="http://www.w3.org/2000/svg" xmlns:xlink="http://www.w3.org/1999/xlink" x="0px" y="0px"
	 viewBox="0 0 32 32" enable-background="new 0 0 32 32" xml:space="preserve">
<g>
	<g>
		<path fill="#79C693" d="M24.5,31.3H9.9c-0.4,0-0.8-0.3-0.8-0.8v-29c0-0.4,0.3-0.7,0.8-0.7h14.6c2,0,3.7,1.6,3.7,3.7v23.2
			C28.2,29.6,26.6,31.3,24.5,31.3z M10.7,29.8h13.9c1.2,0,2.2-1,2.2-2.2V4.4c0-1.2-1-2.2-2.2-2.2H10.7V29.8z"/>
	</g>
	<g>
		<polygon fill="#F0F7F7" points="15.9,1.5 15.9,15.1 18.7,12.2 21.3,14.7 21.3,1.5 		"/>
		<path fill="#8F9BA8" d="M15.1,16.9V0.8H22v15.8l-3.3-3.3L15.1,16.9z M16.6,2.3v11l2.1-2.1l1.8,1.8V2.3H16.6z"/>
	</g>
	<g>
		<path fill="#79C693" d="M9.9,31.3H7.5c-2,0-3.7-1.6-3.7-3.7V4.4c0-2,1.6-3.7,3.7-3.7h2.5c0.4,0,0.8,0.3,0.8,0.7v29
			C10.7,30.9,10.3,31.3,9.9,31.3z M7.5,2.3c-1.2,0-2.2,1-2.2,2.2v23.2c0,1.2,1,2.2,2.2,2.2h1.7V2.3H7.5z"/>
	</g>
</g>
</svg>
