<?xml version="1.0" encoding="utf-8"?>
<!-- Generator: Adobe Illustrator 18.0.0, SVG Export Plug-In . SVG Version: 6.00 Build 0)  -->
<!DOCTYPE svg PUBLIC "-//W3C//DTD SVG 1.1//EN" "http://www.w3.org/Graphics/SVG/1.1/DTD/svg11.dtd">
<svg version="1.1" id="Layer_1" xmlns="http://www.w3.org/2000/svg" xmlns:xlink="http://www.w3.org/1999/xlink" x="0px" y="0px"
	 viewBox="0 0 32 32" enable-background="new 0 0 32 32" xml:space="preserve">
<g>
	<g>
		<path fill="#B4A79C" d="M27.9,14.4H4.1c-0.2,0-0.5-0.1-0.6-0.3s-0.2-0.4-0.1-0.7L6.6,4C6.7,3.7,7,3.5,7.3,3.5h17.4
			c0.3,0,0.6,0.2,0.7,0.5l3.2,9.5c0.1,0.2,0,0.5-0.1,0.7C28.3,14.3,28.1,14.4,27.9,14.4z M5.2,12.9h21.7l-2.7-8H7.8L5.2,12.9z"/>
	</g>
	<g>
		<path fill="#B4A79C" d="M25.9,28.5h-2.8c-1.2,0-2.1-0.9-2.1-2.1v-2.6c0-0.4,0.3-0.8,0.8-0.8h5.5c0.4,0,0.8,0.3,0.8,0.8v2.6
			C28,27.6,27,28.5,25.9,28.5z M22.5,24.5v1.9c0,0.3,0.3,0.6,0.6,0.6h2.8c0.3,0,0.6-0.3,0.6-0.6v-1.9H22.5z"/>
	</g>
	<g>
		<path fill="#B4A79C" d="M8.9,28.5H6.1C5,28.5,4,27.6,4,26.4v-2.6C4,23.4,4.4,23,4.8,23h5.5c0.4,0,0.8,0.3,0.8,0.8v2.6
			C11,27.6,10.1,28.5,8.9,28.5z M5.5,24.5v1.9c0,0.3,0.3,0.6,0.6,0.6h2.8c0.3,0,0.6-0.3,0.6-0.6v-1.9H5.5z"/>
	</g>
	<g>
		<path fill="#F0F7F7" d="M28.7,23.8H3.3c-1,0-1.8-0.8-1.8-1.8v-6.6c0-1,0.8-1.8,1.8-1.8h25.5c1,0,1.8,0.8,1.8,1.8V22
			C30.5,23,29.7,23.8,28.7,23.8z"/>
		<path fill="#8F9BA8" d="M28.7,24.5H3.3c-1.4,0-2.5-1.1-2.5-2.5v-6.6c0-1.4,1.1-2.5,2.5-2.5h25.5c1.4,0,2.5,1.1,2.5,2.5V22
			C31.3,23.4,30.1,24.5,28.7,24.5z M3.3,14.4c-0.6,0-1,0.4-1,1V22c0,0.6,0.4,1,1,1h25.5c0.6,0,1-0.4,1-1v-6.6c0-0.6-0.4-1-1-1H3.3z"
			/>
	</g>
	<g>
		<circle fill="#F0F7F7" cx="25.4" cy="18.7" r="2.2"/>
		<path fill="#8F9BA8" d="M25.4,21.7c-1.6,0-2.9-1.3-2.9-2.9s1.3-2.9,2.9-2.9s2.9,1.3,2.9,2.9C28.3,20.4,27,21.7,25.4,21.7z
			 M25.4,17.3c-0.8,0-1.4,0.6-1.4,1.4s0.6,1.4,1.4,1.4s1.4-0.6,1.4-1.4S26.2,17.3,25.4,17.3z"/>
	</g>
	<g>
		<circle fill="#F0F7F7" cx="6.7" cy="18.7" r="2.2"/>
		<path fill="#8F9BA8" d="M6.7,21.7c-1.6,0-2.9-1.3-2.9-2.9s1.3-2.9,2.9-2.9s2.9,1.3,2.9,2.9C9.6,20.4,8.3,21.7,6.7,21.7z M6.7,17.3
			c-0.8,0-1.4,0.6-1.4,1.4s0.6,1.4,1.4,1.4s1.4-0.6,1.4-1.4S7.4,17.3,6.7,17.3z"/>
	</g>
	<g>
		<line fill="none" x1="12.7" y1="18.7" x2="19.3" y2="18.7"/>
		<rect x="12.7" y="18" fill="#8F9BA8" width="6.6" height="1.5"/>
	</g>
</g>
</svg>
