<?xml version="1.0" encoding="utf-8"?>
<!-- Generator: Adobe Illustrator 18.0.0, SVG Export Plug-In . SVG Version: 6.00 Build 0)  -->
<!DOCTYPE svg PUBLIC "-//W3C//DTD SVG 1.1//EN" "http://www.w3.org/Graphics/SVG/1.1/DTD/svg11.dtd">
<svg version="1.1" id="Layer_1" xmlns="http://www.w3.org/2000/svg" xmlns:xlink="http://www.w3.org/1999/xlink" x="0px" y="0px"
	 viewBox="0 0 32 32" enable-background="new 0 0 32 32" xml:space="preserve">
<g>
	<g>
		<path fill="#DA8C8C" d="M25.2,31.3H6.8c-1.8,0-3.2-1.5-3.2-3.2V4c0-1.8,1.4-3.2,3.2-3.2h18.4c1.8,0,3.2,1.4,3.2,3.2v24
			C28.4,29.8,27,31.3,25.2,31.3z M6.8,2.3C5.8,2.3,5.1,3,5.1,4v24c0,1,0.8,1.7,1.7,1.7h18.4c1,0,1.7-0.8,1.7-1.7V4
			c0-1-0.8-1.7-1.7-1.7H6.8z"/>
	</g>
	<g>
		<circle fill="#F9F8F2" cx="16" cy="13.2" r="7.8"/>
		<path fill="#B4A79C" d="M16,21.7c-4.7,0-8.6-3.8-8.6-8.6s3.8-8.6,8.6-8.6c4.7,0,8.6,3.8,8.6,8.6S20.7,21.7,16,21.7z M16,6.1
			c-3.9,0-7.1,3.2-7.1,7.1s3.2,7.1,7.1,7.1c3.9,0,7.1-3.2,7.1-7.1S19.9,6.1,16,6.1z"/>
	</g>
	<g>
		<ellipse fill="#F9F8F2" cx="16" cy="13.2" rx="3.3" ry="7.8"/>
		<path fill="#B4A79C" d="M16,21.7c-2.6,0-4-4.4-4-8.6s1.4-8.6,4-8.6c2.6,0,4,4.4,4,8.6S18.6,21.7,16,21.7z M16,6.1
			c-1.1,0-2.5,2.7-2.5,7.1s1.5,7.1,2.5,7.1s2.5-2.7,2.5-7.1S17.1,6.1,16,6.1z"/>
	</g>
	<g>
		<line fill="#F9F8F2" x1="8.2" y1="13.2" x2="23.8" y2="13.2"/>
		<rect x="8.2" y="12.4" fill="#B4A79C" width="15.6" height="1.5"/>
	</g>
	<g>
		<line fill="#F9F8F2" x1="10.5" y1="25.6" x2="21.5" y2="25.6"/>
		<rect x="10.5" y="24.8" fill="#B4A79C" width="11" height="1.5"/>
	</g>
</g>
</svg>
