<?xml version="1.0" encoding="utf-8"?>
<!-- Generator: Adobe Illustrator 18.0.0, SVG Export Plug-In . SVG Version: 6.00 Build 0)  -->
<!DOCTYPE svg PUBLIC "-//W3C//DTD SVG 1.1//EN" "http://www.w3.org/Graphics/SVG/1.1/DTD/svg11.dtd">
<svg version="1.1" id="Layer_1" xmlns="http://www.w3.org/2000/svg" xmlns:xlink="http://www.w3.org/1999/xlink" x="0px" y="0px"
	 viewBox="0 0 32 32" enable-background="new 0 0 32 32" xml:space="preserve">
<g>
	<g>
		<path fill="#B4A79C" d="M28.6,29.2H5.6C4.2,29.2,3,28,3,26.5V3.6c0-1.5,1.2-2.7,2.7-2.7h22.9c1.5,0,2.7,1.2,2.7,2.7v22.9
			C31.3,28,30,29.2,28.6,29.2z M5.6,2.4C5,2.4,4.5,2.9,4.5,3.6v22.9c0,0.6,0.5,1.2,1.2,1.2h22.9c0.6,0,1.2-0.5,1.2-1.2V3.6
			c0-0.6-0.5-1.2-1.2-1.2H5.6z"/>
	</g>
	<g>
		<rect x="25.4" y="28.4" fill="#B4A79C" width="1.5" height="2.7"/>
	</g>
	<g>
		<rect x="6.6" y="28.4" fill="#B4A79C" width="1.5" height="2.7"/>
	</g>
	<g>
		<rect x="0.7" y="6" fill="#B4A79C" width="5.9" height="1.5"/>
	</g>
	<g>
		<rect x="0.7" y="22.5" fill="#B4A79C" width="5.9" height="1.5"/>
	</g>
	<g>
		<circle fill="#F2E8B9" cx="20.6" cy="15" r="2.9"/>
		<path fill="#B4A042" d="M20.6,18.7c-2,0-3.7-1.7-3.7-3.7s1.7-3.7,3.7-3.7s3.7,1.7,3.7,3.7S22.6,18.7,20.6,18.7z M20.6,12.9
			c-1.2,0-2.2,1-2.2,2.2c0,1.2,1,2.2,2.2,2.2c1.2,0,2.2-1,2.2-2.2C22.7,13.8,21.8,12.9,20.6,12.9z"/>
	</g>
	<g>
		<line fill="#FFFFFF" x1="20.6" y1="12.1" x2="20.6" y2="10.1"/>
		<rect x="19.8" y="10.1" fill="#B4A042" width="1.5" height="2"/>
	</g>
	<g>
		<line fill="#FFFFFF" x1="20.6" y1="20" x2="20.6" y2="18"/>
		<rect x="19.8" y="18" fill="#B4A042" width="1.5" height="2"/>
	</g>
	<g>
		<line fill="#FFFFFF" x1="17.6" y1="15" x2="15.6" y2="15"/>
		<rect x="15.6" y="14.3" fill="#B4A042" width="2" height="1.5"/>
	</g>
	<g>
		<line fill="#FFFFFF" x1="25.5" y1="15" x2="23.5" y2="15"/>
		<rect x="23.5" y="14.3" fill="#B4A042" width="2" height="1.5"/>
	</g>
	<g>
		<line fill="#FFFFFF" x1="18.5" y1="13" x2="17.1" y2="11.5"/>
		<rect x="16.8" y="11.5" transform="matrix(0.707 0.7072 -0.7072 0.707 13.8666 -8.9813)" fill="#B4A042" width="2" height="1.5"/>
	</g>
	<g>
		<line fill="#FFFFFF" x1="24.1" y1="18.5" x2="22.6" y2="17.1"/>
		
			<rect x="22.3" y="17.1" transform="matrix(0.7071 0.7071 -0.7071 0.7071 19.4414 -11.2914)" fill="#B4A042" width="2" height="1.5"/>
	</g>
	<g>
		<line fill="#FFFFFF" x1="18.5" y1="17.1" x2="17.1" y2="18.5"/>
		<rect x="17" y="16.8" transform="matrix(0.7071 0.7071 -0.7071 0.7071 17.8086 -7.3467)" fill="#B4A042" width="1.5" height="2"/>
	</g>
	<g>
		<line fill="#FFFFFF" x1="24.1" y1="11.5" x2="22.6" y2="13"/>
		
			<rect x="22.6" y="11.2" transform="matrix(0.7071 0.7071 -0.7071 0.7071 15.4955 -12.9248)" fill="#B4A042" width="1.5" height="2"/>
	</g>
</g>
</svg>
