<?xml version="1.0" encoding="utf-8"?>
<!-- Generator: Adobe Illustrator 18.0.0, SVG Export Plug-In . SVG Version: 6.00 Build 0)  -->
<!DOCTYPE svg PUBLIC "-//W3C//DTD SVG 1.1//EN" "http://www.w3.org/Graphics/SVG/1.1/DTD/svg11.dtd">
<svg version="1.1" id="Layer_1" xmlns="http://www.w3.org/2000/svg" xmlns:xlink="http://www.w3.org/1999/xlink" x="0px" y="0px"
	 viewBox="0 0 32 32" enable-background="new 0 0 32 32" xml:space="preserve">
<g>
	<g>
		<path fill="#F0F7F7" d="M21,30.5v-1.9c0-2.7-2.2-5-5-5c-2.7,0-5,2.2-5,5v1.9H21z"/>
		<path fill="#8F9BA8" d="M21,31.3H11c-0.4,0-0.8-0.3-0.8-0.8v-1.9c0-3.2,2.6-5.7,5.7-5.7c3.2,0,5.7,2.6,5.7,5.7v1.9
			C21.7,30.9,21.4,31.3,21,31.3z M11.8,29.8h8.4v-1.1c0-2.3-1.9-4.2-4.2-4.2s-4.2,1.9-4.2,4.2V29.8z"/>
	</g>
	<g>
		<path fill="#74B1E0" d="M16,24.4c-6.5,0-11.8-5.3-11.8-11.8S9.5,0.8,16,0.8s11.8,5.3,11.8,11.8S22.5,24.4,16,24.4z M16,2.3
			c-5.7,0-10.3,4.6-10.3,10.3S10.3,22.9,16,22.9s10.3-4.6,10.3-10.3S21.7,2.3,16,2.3z"/>
	</g>
	<g>
		<circle fill="#CDE4F7" cx="16" cy="12.6" r="4.2"/>
		<path fill="#74B1E0" d="M16,17.5c-2.7,0-5-2.2-5-5s2.2-5,5-5s5,2.2,5,5S18.7,17.5,16,17.5z M16,9.1c-1.9,0-3.5,1.6-3.5,3.5
			S14.1,16,16,16s3.5-1.6,3.5-3.5S17.9,9.1,16,9.1z"/>
	</g>
	<g>
		<line fill="none" x1="15.3" y1="12.6" x2="16.7" y2="12.6"/>
		<rect x="15.3" y="11.8" fill="#74B1E0" width="1.3" height="1.5"/>
	</g>
</g>
</svg>
