<?xml version="1.0" encoding="utf-8"?>
<!-- Generator: Adobe Illustrator 18.0.0, SVG Export Plug-In . SVG Version: 6.00 Build 0)  -->
<!DOCTYPE svg PUBLIC "-//W3C//DTD SVG 1.1//EN" "http://www.w3.org/Graphics/SVG/1.1/DTD/svg11.dtd">
<svg version="1.1" id="Layer_1" xmlns="http://www.w3.org/2000/svg" xmlns:xlink="http://www.w3.org/1999/xlink" x="0px" y="0px"
	 viewBox="0 0 32 32" enable-background="new 0 0 32 32" xml:space="preserve">
<g>
	<g>
		<path fill="#8F9BA8" d="M27.3,25.8H4.7c-2.2,0-4-1.8-4-4V10.1c0-2.2,1.8-4,4-4h22.6c2.2,0,4,1.8,4,4v11.7
			C31.3,24,29.5,25.8,27.3,25.8z M4.7,7.7c-1.4,0-2.5,1.1-2.5,2.5v11.7c0,1.4,1.1,2.5,2.5,2.5h22.6c1.4,0,2.5-1.1,2.5-2.5V10.1
			c0-1.4-1.1-2.5-2.5-2.5H4.7z"/>
	</g>
	<g>
		<line fill="#CDE4F7" x1="4.9" y1="21.3" x2="12.5" y2="21.3"/>
		<rect x="4.9" y="20.5" fill="#74B1E0" width="7.6" height="1.5"/>
	</g>
	<g>
		<line fill="#CDE4F7" x1="15.4" y1="21.3" x2="18" y2="21.3"/>
		<rect x="15.4" y="20.5" fill="#74B1E0" width="2.6" height="1.5"/>
	</g>
	<g>
		<rect x="17.6" y="11.1" fill="#CDE4F7" width="8.7" height="4.2"/>
		<path fill="#74B1E0" d="M27,16.1H16.8v-5.7H27V16.1z M18.3,14.6h7.2v-2.7h-7.2V14.6z"/>
	</g>
</g>
</svg>
