<?xml version="1.0" encoding="utf-8"?>
<!-- Generator: Adobe Illustrator 18.0.0, SVG Export Plug-In . SVG Version: 6.00 Build 0)  -->
<!DOCTYPE svg PUBLIC "-//W3C//DTD SVG 1.1//EN" "http://www.w3.org/Graphics/SVG/1.1/DTD/svg11.dtd">
<svg version="1.1" id="Layer_1" xmlns="http://www.w3.org/2000/svg" xmlns:xlink="http://www.w3.org/1999/xlink" x="0px" y="0px"
	 viewBox="0 0 32 32" enable-background="new 0 0 32 32" xml:space="preserve">
<g>
	<g>
		<path fill="#79C693" d="M3.3,29c-0.7,0-1.3-0.1-2-0.2C1,28.7,0.7,28.4,0.8,28s0.2-0.7,0.6-0.7c2.2-0.5,4-1.8,4.9-3.6
			c-3-2.3-4.8-5.4-4.8-8.7C1.5,8.4,8.2,3,16.4,3S31.3,8.4,31.3,15c0,6.6-6.7,11.9-14.9,11.9c-2,0-3.9-0.3-5.7-0.9
			C8.6,27.9,6,29,3.3,29z M16.4,4.5C9,4.5,3,9.2,3,15c0,3,1.7,5.9,4.6,7.9C7.9,23,8,23.4,7.9,23.7c-0.6,1.4-1.6,2.7-2.8,3.6
			c1.8-0.4,3.5-1.3,4.8-2.7c0.2-0.2,0.5-0.3,0.8-0.2c1.8,0.7,3.7,1,5.7,1c7.4,0,13.4-4.7,13.4-10.4C29.8,9.2,23.8,4.5,16.4,4.5z"/>
	</g>
	<g>
		<rect x="7.9" y="13.6" fill="#79C693" width="1.5" height="3.2"/>
	</g>
	<g>
		<rect x="15.3" y="13.6" fill="#79C693" width="1.5" height="3.2"/>
	</g>
	<g>
		<rect x="22.6" y="13.6" fill="#79C693" width="1.5" height="3.2"/>
	</g>
</g>
</svg>
