<?xml version="1.0" encoding="utf-8"?>
<!-- Generator: Adobe Illustrator 18.0.0, SVG Export Plug-In . SVG Version: 6.00 Build 0)  -->
<!DOCTYPE svg PUBLIC "-//W3C//DTD SVG 1.1//EN" "http://www.w3.org/Graphics/SVG/1.1/DTD/svg11.dtd">
<svg version="1.1" id="Layer_1" xmlns="http://www.w3.org/2000/svg" xmlns:xlink="http://www.w3.org/1999/xlink" x="0px" y="0px"
	 viewBox="0 0 32 32" enable-background="new 0 0 32 32" xml:space="preserve">
<g>
	<g>
		<path fill="#8F9BA8" d="M28.6,26.3H3.4c-1.5,0-2.7-1.2-2.7-2.7V8.4c0-1.5,1.2-2.7,2.7-2.7h25.1c1.5,0,2.7,1.2,2.7,2.7v15.2
			C31.3,25.1,30,26.3,28.6,26.3z M3.4,7.2c-0.7,0-1.2,0.5-1.2,1.2v15.2c0,0.7,0.5,1.2,1.2,1.2h25.1c0.7,0,1.2-0.5,1.2-1.2V8.4
			c0-0.7-0.5-1.2-1.2-1.2H3.4z"/>
	</g>
	<g>
		<rect x="6" y="10" fill="#F9F8F2" width="7.6" height="9.5"/>
		<path fill="#B4A79C" d="M14.3,20.2H5.2v-11h9.1V20.2z M6.7,18.7h6.1v-8H6.7V18.7z"/>
	</g>
	<g>
		<line fill="#F2E8B9" x1="18.4" y1="10.8" x2="26.9" y2="10.8"/>
		<rect x="18.4" y="10.1" fill="#B4A042" width="8.4" height="1.5"/>
	</g>
	<g>
		<line fill="#F2E8B9" x1="18.4" y1="15.4" x2="26.9" y2="15.4"/>
		<rect x="18.4" y="14.6" fill="#B4A042" width="8.4" height="1.5"/>
	</g>
	<g>
		<line fill="#F2E8B9" x1="18.4" y1="19.9" x2="26.9" y2="19.9"/>
		<rect x="18.4" y="19.2" fill="#B4A042" width="8.4" height="1.5"/>
	</g>
</g>
</svg>
