<?xml version="1.0" encoding="utf-8"?>
<!-- Generator: Adobe Illustrator 18.0.0, SVG Export Plug-In . SVG Version: 6.00 Build 0)  -->
<!DOCTYPE svg PUBLIC "-//W3C//DTD SVG 1.1//EN" "http://www.w3.org/Graphics/SVG/1.1/DTD/svg11.dtd">
<svg version="1.1" id="Layer_1" xmlns="http://www.w3.org/2000/svg" xmlns:xlink="http://www.w3.org/1999/xlink" x="0px" y="0px"
	 viewBox="0 0 32 32" enable-background="new 0 0 32 32" xml:space="preserve">
<g>
	<g>
		<path fill="#B4A79C" d="M29.5,28.9h-27V14.5L16,19l13.5-4.5V28.9z M4,27.4h24V16.6l-12,4l-12-4V27.4z"/>
	</g>
	<g>
		<line fill="#F7DCE5" x1="16" y1="19.8" x2="16" y2="24.8"/>
		<rect x="15.3" y="19.8" fill="#CF817F" width="1.5" height="5"/>
	</g>
	<g>
		<line fill="#F7DCE5" x1="14.7" y1="22.7" x2="17.3" y2="22.7"/>
		<rect x="14.7" y="22" fill="#CF817F" width="2.7" height="1.5"/>
	</g>
	<g>
		<polygon fill="#B4A79C" points="12.3,7.2 10.8,6.8 12,3.1 20,3.1 21.2,6.8 19.7,7.2 18.9,4.6 13.1,4.6 		"/>
	</g>
	<g>
		<polygon fill="#F7DCE5" points="1.5,7.4 1.5,15 3.3,15.6 16,19.8 28.7,15.6 30.5,15 30.5,7.4 		"/>
		<path fill="#CF817F" d="M16,20.5c-0.1,0-0.2,0-0.2,0L1.3,15.7C1,15.6,0.8,15.3,0.8,15V7.4c0-0.4,0.3-0.8,0.8-0.8h29
			c0.4,0,0.8,0.3,0.8,0.8V15c0,0.3-0.2,0.6-0.5,0.7l-14.5,4.8C16.2,20.5,16.1,20.5,16,20.5z M2.3,14.5L16,19l13.8-4.5V8.2H2.3V14.5z
			"/>
	</g>
</g>
<g>
	<g>
		<g>
			<defs>
				<rect id="SVGID_1_" x="12.4" y="43.5" width="7.1" height="7.1"/>
			</defs>
			<clipPath id="SVGID_2_">
				<use xlink:href="#SVGID_1_"  overflow="visible"/>
			</clipPath>
			<g clip-path="url(#SVGID_2_)">
				<rect x="11" y="27" fill="none" width="24.1" height="24.1"/>
				<rect x="11" y="27" fill="#FEE99B" width="24.1" height="24.1"/>
			</g>
		</g>
	</g>
</g>
</svg>
