<?xml version="1.0" encoding="utf-8"?>
<!-- Generator: Adobe Illustrator 18.0.0, SVG Export Plug-In . SVG Version: 6.00 Build 0)  -->
<!DOCTYPE svg PUBLIC "-//W3C//DTD SVG 1.1//EN" "http://www.w3.org/Graphics/SVG/1.1/DTD/svg11.dtd">
<svg version="1.1" id="Layer_1" xmlns="http://www.w3.org/2000/svg" xmlns:xlink="http://www.w3.org/1999/xlink" x="0px" y="0px"
	 viewBox="0 0 32 32" enable-background="new 0 0 32 32" xml:space="preserve">
<g>
	<g>
		<rect x="11.6" y="11" fill="#74B1E0" width="1.5" height="14.6"/>
	</g>
	<g>
		<rect x="29.8" y="6" fill="#74B1E0" width="1.5" height="14.6"/>
	</g>
	<g>
		<path fill="#74B1E0" d="M11.6,12V6.1l19.6-5.5v5.9L11.6,12z M13.1,7.2V10l16.6-4.6V2.6L13.1,7.2z"/>
	</g>
	<g>
		<path fill="#CDE4F7" d="M11.8,23.9c-1.5-1.6-6.2-1.1-8.4,0.1c-2.1,1.2-2.6,3.4-1.1,5.1c1.5,1.6,4.5,2,6.7,0.8
			C11.2,28.8,13.4,25.6,11.8,23.9z"/>
		<path fill="#74B1E0" d="M6.3,31.4L6.3,31.4c-1.8,0-3.4-0.6-4.4-1.8c-0.9-0.9-1.2-2-1.1-3.2c0.2-1.2,1-2.4,2.3-3.1s3.4-1.2,5.3-1.2
			c1.3,0,3,0.2,4,1.3c0.6,0.6,0.8,1.5,0.7,2.4c-0.3,2-2.1,3.9-3.7,4.7C8.5,31.1,7.4,31.4,6.3,31.4z M8.4,23.7c-1.6,0-3.5,0.4-4.6,1
			c-0.9,0.5-1.5,1.2-1.6,2c-0.1,0.7,0.1,1.4,0.7,1.9c0.8,0.8,2,1.3,3.3,1.3l0,0c0.9,0,1.7-0.2,2.4-0.6c1.4-0.8,2.7-2.4,2.9-3.7
			c0.1-0.5,0-0.9-0.3-1.2C10.8,24,9.8,23.7,8.4,23.7z"/>
	</g>
	<g>
		<path fill="#CDE4F7" d="M30,18.9c-1.5-1.6-6.2-1.1-8.4,0.1c-2.1,1.2-2.6,3.4-1.1,5.1c1.5,1.6,4.5,2,6.7,0.8
			C29.3,23.7,31.5,20.5,30,18.9z"/>
		<path fill="#74B1E0" d="M24.4,26.3L24.4,26.3c-1.8,0-3.4-0.6-4.4-1.8c-0.9-0.9-1.2-2-1.1-3.2c0.2-1.2,1-2.4,2.3-3.1
			s3.4-1.2,5.3-1.2c1.3,0,3,0.2,4,1.3c0.6,0.6,0.8,1.5,0.7,2.4c-0.3,2-2.1,3.9-3.7,4.7C26.6,26.1,25.5,26.3,24.4,26.3z M26.6,18.6
			c-1.6,0-3.5,0.4-4.6,1c-0.9,0.5-1.5,1.2-1.6,2c-0.1,0.7,0.1,1.4,0.7,1.9c0.8,0.8,2,1.3,3.3,1.3l0,0c0.9,0,1.7-0.2,2.4-0.6
			c1.4-0.8,2.7-2.4,2.9-3.7c0.1-0.5,0-0.9-0.3-1.2C29,18.9,27.9,18.6,26.6,18.6z"/>
	</g>
</g>
</svg>
