<?xml version="1.0" encoding="utf-8"?>
<!-- Generator: Adobe Illustrator 18.0.0, SVG Export Plug-In . SVG Version: 6.00 Build 0)  -->
<!DOCTYPE svg PUBLIC "-//W3C//DTD SVG 1.1//EN" "http://www.w3.org/Graphics/SVG/1.1/DTD/svg11.dtd">
<svg version="1.1" id="Layer_1" xmlns="http://www.w3.org/2000/svg" xmlns:xlink="http://www.w3.org/1999/xlink" x="0px" y="0px"
	 viewBox="0 0 32 32" enable-background="new 0 0 32 32" xml:space="preserve">
<g>
	<g>
		<path fill="#8F9BA8" d="M31.3,26.9h-3.9l-0.2-0.5c-0.4-1-1.3-1.6-2.3-1.6s-2,0.7-2.3,1.6l-0.2,0.5h-3.1V12.3h6.2l5.8,8.2V26.9z
			 M28.4,25.4h1.3V21l-5.1-7.2h-3.9v11.6h0.6c0.7-1.3,2-2.1,3.5-2.1S27.7,24.1,28.4,25.4z"/>
	</g>
	<g>
		<path fill="#8F9BA8" d="M24.9,31.3c-2.2,0-4-1.8-4-4c0-0.4,0.1-0.9,0.3-1.4c0.6-1.6,2.1-2.6,3.7-2.6c1.7,0,3.2,1.1,3.7,2.6
			c0.2,0.5,0.3,0.9,0.3,1.4C28.9,29.5,27.1,31.3,24.9,31.3z M24.9,24.8c-1,0-2,0.7-2.3,1.6c-0.1,0.3-0.2,0.6-0.2,0.8
			c0,1.4,1.1,2.5,2.5,2.5s2.5-1.1,2.5-2.5c0-0.3-0.1-0.6-0.2-0.8C26.9,25.4,25.9,24.8,24.9,24.8z"/>
	</g>
	<g>
		<rect x="20" y="20" fill="#8F9BA8" width="10.5" height="1.5"/>
	</g>
	<g>
		<path fill="#8F9BA8" d="M20.8,26.9H10l-0.2-0.5c-0.4-1-1.3-1.6-2.3-1.6s-2,0.7-2.3,1.6L5,26.9H0.8V8.2h5L6,8.7
			c0.6,2.1,2.6,3.6,4.8,3.6s4.2-1.5,4.8-3.6l0.2-0.5h5V26.9z M11,25.4h8.3V9.7h-2.4c-1,2.5-3.4,4.1-6.1,4.1s-5.1-1.7-6.1-4.1H2.3
			v15.7H4c0.7-1.3,2-2.1,3.5-2.1C9,23.3,10.3,24.1,11,25.4z"/>
	</g>
	<g>
		<path fill="#F9F8F2" d="M10.8,1.5C7.6,1.5,5,4.1,5,7.3c0,0.6,0.1,1.1,0.2,1.6c0.7,2.4,2.9,4.1,5.5,4.1s4.8-1.7,5.5-4.1
			c0.2-0.5,0.2-1.1,0.2-1.6C16.5,4.1,13.9,1.5,10.8,1.5z"/>
		<path fill="#B4A79C" d="M10.8,13.8c-2.9,0-5.4-1.9-6.3-4.7C4.3,8.5,4.2,7.9,4.2,7.3c0-3.6,2.9-6.5,6.5-6.5s6.5,2.9,6.5,6.5
			c0,0.6-0.1,1.2-0.3,1.9C16.2,11.9,13.6,13.8,10.8,13.8z M10.8,2.3c-2.8,0-5,2.3-5,5c0,0.5,0.1,1,0.2,1.4c0.6,2.1,2.6,3.6,4.8,3.6
			s4.2-1.5,4.8-3.6c0.1-0.5,0.2-0.9,0.2-1.4C15.8,4.5,13.5,2.3,10.8,2.3z"/>
	</g>
	<g>
		<polyline fill="#F9F8F2" points="10.8,2.9 10.8,7.3 12.6,9.1 		"/>
		<polygon fill="#B4A79C" points="12.1,9.7 10,7.6 10,2.9 11.5,2.9 11.5,7 13.1,8.6 		"/>
	</g>
	<g>
		<path fill="#8F9BA8" d="M7.5,31.3c-2.2,0-4-1.8-4-4c0-0.4,0.1-0.9,0.3-1.4c0.6-1.6,2.1-2.6,3.7-2.6c1.7,0,3.2,1.1,3.7,2.6
			c0.2,0.5,0.3,0.9,0.3,1.4C11.5,29.5,9.7,31.3,7.5,31.3z M7.5,24.8c-1,0-2,0.7-2.3,1.6C5,26.7,5,27,5,27.3c0,1.4,1.1,2.5,2.5,2.5
			s2.5-1.1,2.5-2.5c0-0.3-0.1-0.6-0.2-0.8C9.4,25.4,8.5,24.8,7.5,24.8z"/>
	</g>
</g>
</svg>
