<?xml version="1.0" encoding="utf-8"?>
<!-- Generator: Adobe Illustrator 18.0.0, SVG Export Plug-In . SVG Version: 6.00 Build 0)  -->
<!DOCTYPE svg PUBLIC "-//W3C//DTD SVG 1.1//EN" "http://www.w3.org/Graphics/SVG/1.1/DTD/svg11.dtd">
<svg version="1.1" id="Layer_1" xmlns="http://www.w3.org/2000/svg" xmlns:xlink="http://www.w3.org/1999/xlink" x="0px" y="0px"
	 viewBox="0 0 32 32" enable-background="new 0 0 32 32" xml:space="preserve">
<g>
	<g>
		<path fill="#79C693" d="M16,30c-0.1,0-0.3,0-0.4-0.1C15,29.5,0.8,20.5,0.8,10.6C0.8,5.8,4.6,2,9.3,2c2.6,0,5,1.2,6.7,3.2
			c1.6-2,4-3.2,6.7-3.2c4.7,0,8.6,3.9,8.6,8.6c0,9.9-14.2,18.9-14.9,19.3C16.3,30,16.1,30,16,30z M9.3,3.5c-3.9,0-7.1,3.2-7.1,7.1
			c0,8.2,11.5,16.2,13.8,17.8c2.3-1.5,13.8-9.6,13.8-17.8c0-3.9-3.2-7.1-7.1-7.1c-2.5,0-4.7,1.3-6,3.4c-0.1,0.2-0.4,0.4-0.6,0.4l0,0
			c-0.3,0-0.5-0.1-0.6-0.4C14.1,4.8,11.8,3.5,9.3,3.5z"/>
	</g>
	<g>
		<path fill="#79C693" d="M16.7,18l-1.3-0.7l2.4-4.2l-4.2-0.6c-0.2,0-0.4-0.2-0.6-0.4c-0.1-0.2-0.1-0.5,0-0.7l2.3-5.3l1.4,0.6
			l-1.9,4.4l4.3,0.6c0.2,0,0.5,0.2,0.6,0.4c0.1,0.2,0.1,0.5,0,0.7L16.7,18z"/>
	</g>
</g>
</svg>
