<?xml version="1.0" encoding="utf-8"?>
<!-- Generator: Adobe Illustrator 18.0.0, SVG Export Plug-In . SVG Version: 6.00 Build 0)  -->
<!DOCTYPE svg PUBLIC "-//W3C//DTD SVG 1.1//EN" "http://www.w3.org/Graphics/SVG/1.1/DTD/svg11.dtd">
<svg version="1.1" id="Layer_1" xmlns="http://www.w3.org/2000/svg" xmlns:xlink="http://www.w3.org/1999/xlink" x="0px" y="0px"
	 viewBox="0 0 32 32" enable-background="new 0 0 32 32" xml:space="preserve">
<g>
	<g>
		<path fill="#8F9BA8" d="M16,29.3c-0.1,0-0.2,0-0.3,0c-0.3-0.1-0.5-0.4-0.5-0.7v-21c0-2.7,2.2-4.9,4.9-4.9h10.4
			c0.4,0,0.8,0.3,0.8,0.8v23.6c0,0.4-0.3,0.8-0.8,0.8H19.2c-1,0-2,0.4-2.7,1.2C16.4,29.2,16.2,29.3,16,29.3z M20.1,4.2
			c-1.9,0-3.4,1.5-3.4,3.4V27c0.7-0.4,1.6-0.7,2.5-0.7h10.5V4.2H20.1z"/>
	</g>
	<g>
		<path fill="#8F9BA8" d="M16,29.3c-0.2,0-0.4-0.1-0.6-0.3c-0.7-0.8-1.6-1.2-2.7-1.2H1.5c-0.4,0-0.8-0.3-0.8-0.8V3.4
			C0.7,3,1,2.6,1.5,2.6h10.4c2.7,0,4.9,2.2,4.9,4.9v21c0,0.3-0.2,0.6-0.5,0.7C16.2,29.3,16.1,29.3,16,29.3z M2.3,26.3h10.5
			c0.9,0,1.7,0.2,2.5,0.7V7.6c0-1.9-1.5-3.4-3.4-3.4H2.3V26.3z"/>
	</g>
	<g>
		<rect x="20.2" y="8.2" fill="#8F9BA8" width="6.9" height="1.5"/>
	</g>
	<g>
		<rect x="20.2" y="14.8" fill="#8F9BA8" width="6.9" height="1.5"/>
	</g>
	<g>
		<rect x="20.2" y="21.5" fill="#8F9BA8" width="6.9" height="1.5"/>
	</g>
	<g>
		<line fill="none" x1="5.3" y1="8.9" x2="12.2" y2="8.9"/>
		<rect x="5.3" y="8.2" fill="#8F9BA8" width="6.9" height="1.5"/>
	</g>
	<g>
		<line fill="none" x1="5.3" y1="15.6" x2="12.2" y2="15.6"/>
		<rect x="5.3" y="14.8" fill="#8F9BA8" width="6.9" height="1.5"/>
	</g>
	<g>
		<line fill="none" x1="5.3" y1="22.2" x2="12.2" y2="22.2"/>
		<rect x="5.3" y="21.5" fill="#8F9BA8" width="6.9" height="1.5"/>
	</g>
</g>
</svg>
