<?xml version="1.0" encoding="utf-8"?>
<!-- Generator: Adobe Illustrator 18.0.0, SVG Export Plug-In . SVG Version: 6.00 Build 0)  -->
<!DOCTYPE svg PUBLIC "-//W3C//DTD SVG 1.1//EN" "http://www.w3.org/Graphics/SVG/1.1/DTD/svg11.dtd">
<svg version="1.1" id="Layer_1" xmlns="http://www.w3.org/2000/svg" xmlns:xlink="http://www.w3.org/1999/xlink" x="0px" y="0px"
	 viewBox="0 0 32 32" enable-background="new 0 0 32 32" xml:space="preserve">
<g>
	<g>
		<path fill="#DA8C8C" d="M16,31.3c-2,0-3.7-1.6-3.7-3.7c0-0.6,0.2-1.2,0.5-1.7c0.1-0.3,0.4-0.4,0.7-0.4c1.7,0.1,3.3,0.1,4.9,0
			c0.3,0,0.6,0.1,0.7,0.4c0.3,0.6,0.5,1.1,0.5,1.7C19.7,29.6,18,31.3,16,31.3z M14,27c-0.1,0.2-0.1,0.4-0.1,0.6c0,1.2,1,2.1,2.1,2.1
			c1.2,0,2.1-1,2.1-2.1c0-0.2,0-0.4-0.1-0.6C16.7,27.1,15.3,27.1,14,27z"/>
	</g>
	<g>
		<path fill="#FAC2C3" d="M26.8,21.8c-2.1-1.8-3.5-4.3-3.5-7.1v0c0-4.1-3.2-7.5-7.2-7.6C12,7,8.6,10.3,8.6,14.4v0.2
			c0,2.8-1.3,5.3-3.5,7.1c-0.4,0.4-0.7,0.7-0.7,1.1c0,1.1,1.6,2,4.1,2.6c1.4,0.3,3,0.6,4.8,0.7c0.8,0.1,1.7,0.1,2.5,0.1
			c0.9,0,1.7,0,2.5-0.1c1.8-0.1,3.5-0.4,4.8-0.7c2.5-0.6,4.1-1.6,4.1-2.6C27.5,22.5,27.3,22.1,26.8,21.8z"/>
		<path fill="#DA8C8C" d="M16,27.1c-0.8,0-1.7,0-2.6-0.1c-1.8-0.1-3.6-0.4-5-0.7c-3.1-0.8-4.7-1.9-4.7-3.4c0-0.4,0.2-1.1,0.9-1.7
			c2-1.7,3.2-4.1,3.2-6.5v-0.2c0-4.5,3.7-8.1,8.1-8.1l0.2,0c4.4,0.1,8,3.8,8,8.4c0,2.4,1.2,4.8,3.2,6.5c0.8,0.6,0.9,1.3,0.9,1.7
			c0,1.4-1.6,2.6-4.7,3.4c-1.4,0.4-3.2,0.6-5,0.7C17.7,27,16.8,27.1,16,27.1z M16,7.8c-3.6,0-6.6,3-6.6,6.6v0.2
			c0,2.9-1.4,5.7-3.7,7.7c-0.2,0.2-0.4,0.4-0.4,0.5c0,0.4,0.9,1.2,3.5,1.9c1.3,0.3,3,0.6,4.7,0.7c1.7,0.1,3.3,0.1,4.9,0
			c1.7-0.1,3.4-0.4,4.7-0.7c2.6-0.6,3.5-1.5,3.5-1.9c0-0.1-0.1-0.3-0.4-0.5c-2.4-2-3.7-4.8-3.7-7.7c0-3.7-2.9-6.8-6.5-6.8L16,7.8z"
			/>
	</g>
	<g>
		<line fill="#FAC2C3" x1="16.1" y1="7" x2="16.1" y2="0.8"/>
		<rect x="15.4" y="0.8" fill="#DA8C8C" width="1.5" height="6.3"/>
	</g>
</g>
</svg>
