<?xml version="1.0" encoding="utf-8"?>
<!-- Generator: Adobe Illustrator 18.0.0, SVG Export Plug-In . SVG Version: 6.00 Build 0)  -->
<!DOCTYPE svg PUBLIC "-//W3C//DTD SVG 1.1//EN" "http://www.w3.org/Graphics/SVG/1.1/DTD/svg11.dtd">
<svg version="1.1" id="Layer_1" xmlns="http://www.w3.org/2000/svg" xmlns:xlink="http://www.w3.org/1999/xlink" x="0px" y="0px"
	 viewBox="0 0 32 32" enable-background="new 0 0 32 32" xml:space="preserve">
<g>
	<g>
		<path fill="#B4A79C" d="M16,31.3C7.6,31.3,0.8,24.4,0.8,16S7.6,0.8,16,0.8S31.3,7.6,31.3,16S24.4,31.3,16,31.3z M16,2.3
			C8.4,2.3,2.3,8.4,2.3,16S8.4,29.8,16,29.8c7.6,0,13.8-6.2,13.8-13.8S23.6,2.3,16,2.3z"/>
	</g>
	<g>
		<rect x="15.3" y="1.5" fill="#B4A79C" width="1.5" height="3"/>
	</g>
	<g>
		<rect x="15.3" y="27.5" fill="#B4A79C" width="1.5" height="3"/>
	</g>
	<g>
		<rect x="27.5" y="15.2" fill="#B4A79C" width="3" height="1.5"/>
	</g>
	<g>
		<rect x="1.5" y="15.2" fill="#B4A79C" width="3" height="1.5"/>
	</g>
	<g>
		<path fill="#B4A79C" d="M21.2,22.6l-5.7-5.7c-0.1-0.1-0.2-0.3-0.2-0.5V8.7h1.5V16l5.5,5.5L21.2,22.6z"/>
	</g>
</g>
</svg>
