<?xml version="1.0" encoding="utf-8"?>
<!-- Generator: Adobe Illustrator 18.0.0, SVG Export Plug-In . SVG Version: 6.00 Build 0)  -->
<!DOCTYPE svg PUBLIC "-//W3C//DTD SVG 1.1//EN" "http://www.w3.org/Graphics/SVG/1.1/DTD/svg11.dtd">
<svg version="1.1" id="Layer_1" xmlns="http://www.w3.org/2000/svg" xmlns:xlink="http://www.w3.org/1999/xlink" x="0px" y="0px"
	 viewBox="0 0 32 32" enable-background="new 0 0 32 32" xml:space="preserve">
<g>
	<g>
		<path fill="#74B1E0" d="M26.7,31.3H5.3c-1.9,0-3.5-1.6-3.5-3.5V10.5c0-0.4,0.3-0.8,0.8-0.8h26.7c0.4,0,0.8,0.3,0.8,0.8v17.3
			C30.1,29.7,28.6,31.3,26.7,31.3z M3.4,11.2v16.6c0,1.1,0.9,1.9,1.9,1.9h21.3c1.1,0,1.9-0.9,1.9-1.9V11.2H3.4z"/>
	</g>
	<g>
		<polygon fill="#8F9BA8" points="13.9,26.2 12.3,26.2 12.3,16.5 11.1,17.2 10.4,15.8 13.9,13.9 		"/>
	</g>
	<g>
		<polygon fill="#8F9BA8" points="22,26.4 15.8,26.4 15.8,24.2 17.3,24.2 17.3,24.9 20.5,24.9 20.5,20.2 15.8,20.2 15.8,14 22,14 
			22,16.3 20.5,16.3 20.5,15.5 17.3,15.5 17.3,18.7 22,18.7 		"/>
	</g>
	<g>
		<path fill="#CDE4F7" d="M26.7,3.8H5.3C3.8,3.8,2.6,5,2.6,6.4v4h26.7v-4C29.4,5,28.2,3.8,26.7,3.8z"/>
		<path fill="#74B1E0" d="M30.1,11.2H1.9V6.4C1.9,4.5,3.4,3,5.3,3h21.3c1.9,0,3.5,1.6,3.5,3.5V11.2z M3.4,9.7h25.2V6.4
			c0-1.1-0.9-1.9-1.9-1.9H5.3c-1.1,0-1.9,0.9-1.9,1.9V9.7z"/>
	</g>
	<g>
		<line fill="#CDE4F7" x1="23" y1="0.8" x2="23" y2="6.6"/>
		<rect x="22.2" y="0.8" fill="#74B1E0" width="1.5" height="5.9"/>
	</g>
	<g>
		<line fill="#CDE4F7" x1="9" y1="0.8" x2="9" y2="6.6"/>
		<rect x="8.2" y="0.8" fill="#74B1E0" width="1.5" height="5.9"/>
	</g>
</g>
</svg>
