<?xml version="1.0" encoding="utf-8"?>
<!-- Generator: Adobe Illustrator 18.0.0, SVG Export Plug-In . SVG Version: 6.00 Build 0)  -->
<!DOCTYPE svg PUBLIC "-//W3C//DTD SVG 1.1//EN" "http://www.w3.org/Graphics/SVG/1.1/DTD/svg11.dtd">
<svg version="1.1" id="Layer_1" xmlns="http://www.w3.org/2000/svg" xmlns:xlink="http://www.w3.org/1999/xlink" x="0px" y="0px"
	 viewBox="0 0 32 32" enable-background="new 0 0 32 32" xml:space="preserve">
<g>
	<g>
		<path fill="#8F9BA8" d="M16.7,8.9h-1.5c0-1.7,0.6-3.2,1.7-4.5c0.3-0.3,0.4-0.8,0.3-1.2c-0.1-0.5-0.5-0.9-1-1
			c-0.4-0.1-0.8,0-1.1,0.3c-0.3,0.3-0.5,0.6-0.5,1h-1.5c0-0.9,0.4-1.7,1.1-2.2c0.7-0.5,1.6-0.7,2.4-0.5c1,0.2,1.9,1.1,2.1,2.1
			c0.2,0.9,0,1.9-0.7,2.6C17.2,6.4,16.7,7.6,16.7,8.9z"/>
	</g>
	<g>
		<path fill="#8F9BA8" d="M28.8,19.2h-4.2v-1.9H7.3v1.9H3.2c-1.1,0-2.1-0.7-2.3-1.9c-0.3-1.1,0.3-2.2,1.3-2.7L16,8l13.9,6.7
			c1,0.5,1.6,1.6,1.3,2.7C30.9,18.5,30,19.2,28.8,19.2z M26.2,17.7h2.7c0.5,0,0.8-0.4,0.9-0.7c0.1-0.3,0-0.8-0.5-1L16,9.6L2.8,16
			c-0.5,0.2-0.6,0.7-0.5,1c0.1,0.3,0.3,0.7,0.9,0.7h2.7v-1.9h20.4V17.7z"/>
	</g>
	<g>
		<polygon fill="#F0F7F7" points="6.6,16.6 6.6,18.5 6.6,30.5 25.4,30.5 25.4,18.5 25.4,16.6 		"/>
		<path fill="#8F9BA8" d="M26.2,31.2H5.8V15.8h20.4V31.2z M7.3,29.7h17.4V17.3H7.3V29.7z"/>
	</g>
</g>
</svg>
