<?xml version="1.0" encoding="utf-8"?>
<!-- Generator: Adobe Illustrator 18.0.0, SVG Export Plug-In . SVG Version: 6.00 Build 0)  -->
<!DOCTYPE svg PUBLIC "-//W3C//DTD SVG 1.1//EN" "http://www.w3.org/Graphics/SVG/1.1/DTD/svg11.dtd">
<svg version="1.1" id="Layer_1" xmlns="http://www.w3.org/2000/svg" xmlns:xlink="http://www.w3.org/1999/xlink" x="0px" y="0px"
	 viewBox="0 0 32 32" enable-background="new 0 0 32 32" xml:space="preserve">
<g>
	<g>
		<path fill="#79C693" d="M15,31.3c-0.2,0-0.4-0.1-0.5-0.2L1,17.5c-0.1-0.1-0.2-0.3-0.2-0.5s0.1-0.4,0.2-0.5L16.5,1
			c0.2-0.2,0.4-0.3,0.7-0.2l11.2,2.4c0.3,0.1,0.5,0.3,0.6,0.6L31.4,15c0.1,0.2,0,0.5-0.2,0.7L15.5,31C15.4,31.2,15.2,31.3,15,31.3z
			 M2.6,17L15,29.4l14.7-14.7L27.5,4.5L17.2,2.3L2.6,17z"/>
	</g>
	<g>
		<path fill="#79C693" d="M23.3,11.4c-0.7,0-1.4-0.3-1.9-0.8s-0.8-1.2-0.8-1.9s0.3-1.4,0.8-1.9c1-1,2.8-1,3.8,0
			C25.7,7.3,26,8,26,8.7s-0.3,1.4-0.8,1.9C24.7,11.1,24,11.4,23.3,11.4z M23.3,7.6c-0.3,0-0.6,0.1-0.8,0.3c-0.2,0.2-0.3,0.5-0.3,0.8
			s0.1,0.6,0.3,0.8c0.4,0.4,1.2,0.4,1.6,0c0.2-0.2,0.3-0.5,0.3-0.8s-0.1-0.6-0.3-0.8C23.9,7.7,23.6,7.6,23.3,7.6z"/>
	</g>
	<g>
		
			<rect x="7.6" y="11.7" transform="matrix(-0.7071 -0.7071 0.7071 -0.7071 3.6398 31.3606)" fill="#79C693" width="1.5" height="6.4"/>
	</g>
	<g>
		
			<rect x="10.5" y="14.6" transform="matrix(-0.7071 -0.7071 0.7071 -0.7071 6.6247 38.362)" fill="#79C693" width="1.5" height="6.4"/>
	</g>
	<g>
		
			<rect x="13.5" y="17.5" transform="matrix(-0.7071 -0.7071 0.7071 -0.7071 9.6118 45.364)" fill="#79C693" width="1.5" height="6.4"/>
	</g>
	<g>
		
			<rect x="16.4" y="20.5" transform="matrix(-0.7071 -0.7071 0.7071 -0.7071 12.499 52.6081)" fill="#79C693" width="1.5" height="6.4"/>
	</g>
</g>
</svg>
