<?xml version="1.0" encoding="utf-8"?>
<!-- Generator: Adobe Illustrator 18.0.0, SVG Export Plug-In . SVG Version: 6.00 Build 0)  -->
<!DOCTYPE svg PUBLIC "-//W3C//DTD SVG 1.1//EN" "http://www.w3.org/Graphics/SVG/1.1/DTD/svg11.dtd">
<svg version="1.1" id="Layer_1" xmlns="http://www.w3.org/2000/svg" xmlns:xlink="http://www.w3.org/1999/xlink" x="0px" y="0px"
	 viewBox="0 0 32 32" enable-background="new 0 0 32 32" xml:space="preserve">
<g>
	<g>
		<path fill="#B4A79C" d="M15.2,9l0-0.8c0-0.8,0.3-5,1.6-6.3c1.5-1.5,4-1.5,5.5,0c0.7,0.7,1.1,1.7,1.1,2.7c0,1-0.4,2-1.1,2.7
			C21,8.7,16.9,9,16,9L15.2,9z M19.6,2.2c-0.6,0-1.2,0.2-1.7,0.7c-0.6,0.6-1,2.8-1.2,4.5c1.7-0.2,3.9-0.6,4.5-1.2
			c0.4-0.4,0.7-1,0.7-1.7c0-0.6-0.2-1.2-0.7-1.7C20.9,2.5,20.3,2.2,19.6,2.2z"/>
	</g>
	<g>
		<path fill="#B4A79C" d="M16.8,9L16,9c-0.8,0-5-0.3-6.3-1.6C8.9,6.6,8.5,5.6,8.5,4.6c0-1,0.4-2,1.1-2.7c1.5-1.5,4-1.5,5.5,0
			c1.4,1.4,1.6,5.5,1.6,6.3L16.8,9z M12.4,2.2c-0.6,0-1.2,0.2-1.7,0.7C10.2,3.4,10,4,10,4.6c0,0.6,0.2,1.2,0.7,1.7
			c0.6,0.6,2.8,1,4.5,1.2C15,5.7,14.6,3.5,14,2.9C13.6,2.5,13,2.2,12.4,2.2z"/>
	</g>
	<g>
		<path fill="#8F9BA8" d="M28.3,31.2H3.7V14.1h24.7V31.2z M5.2,29.7h21.7V15.6H5.2V29.7z"/>
	</g>
	<g>
		<rect x="2.4" y="8.2" fill="#F0F7F7" width="27.3" height="6.6"/>
		<path fill="#8F9BA8" d="M30.4,15.6H1.6V7.5h28.8V15.6z M3.1,14.1h25.8V9H3.1V14.1z"/>
	</g>
	<g>
		<line fill="#F2E8B9" x1="16" y1="6.3" x2="16" y2="30.5"/>
		<rect x="15.2" y="6.3" fill="#B4A79C" width="1.5" height="24.2"/>
	</g>
</g>
</svg>
