<?xml version="1.0" encoding="utf-8"?>
<!-- Generator: Adobe Illustrator 18.0.0, SVG Export Plug-In . SVG Version: 6.00 Build 0)  -->
<!DOCTYPE svg PUBLIC "-//W3C//DTD SVG 1.1//EN" "http://www.w3.org/Graphics/SVG/1.1/DTD/svg11.dtd">
<svg version="1.1" id="Layer_1" xmlns="http://www.w3.org/2000/svg" xmlns:xlink="http://www.w3.org/1999/xlink" x="0px" y="0px"
	 viewBox="0 0 32 32" enable-background="new 0 0 32 32" xml:space="preserve">
<pattern  x="-336" y="-42" width="24.1" height="24.1" patternUnits="userSpaceOnUse" id="New_Pattern_Swatch_2" viewBox="0 -24.1 24.1 24.1" overflow="visible">
	<g>
		<polygon fill="none" points="0,0 24.1,0 24.1,-24.1 0,-24.1 		"/>
		<polygon fill="#E0CB81" points="24.1,0 0,0 0,-24.1 24.1,-24.1 		"/>
	</g>
</pattern>
<g>
	<g>
		<path fill="#DA8C8C" d="M31.3,31.3H0.8V0.8h30.5V31.3z M2.3,29.8h27.5V2.3H2.3V29.8z"/>
	</g>
	<g>
		<rect x="6.2" y="18.4" fill="#8F9BA8" width="1.5" height="6.2"/>
	</g>
	<g>
		<polygon fill="#8F9BA8" points="8.6,21.1 6.9,19.4 5.2,21.1 4.2,20 6.9,17.3 9.7,20.1 		"/>
	</g>
	<g>
		<rect x="13" y="18.4" fill="#8F9BA8" width="1.5" height="6.2"/>
	</g>
	<g>
		<polygon fill="#8F9BA8" points="15.5,21.1 13.8,19.4 12.1,21.1 11.1,20 13.8,17.3 16.5,20.1 		"/>
	</g>
	<g>
		<rect x="4.8" y="25.7" fill="#8F9BA8" width="11.1" height="1.5"/>
	</g>
	<g>
		<g>
			<defs>
				<rect id="SVGID_1_" x="12.4" y="1.5" width="7.1" height="7.1"/>
			</defs>
			<clipPath id="SVGID_2_">
				<use xlink:href="#SVGID_1_"  overflow="visible"/>
			</clipPath>
			<g clip-path="url(#SVGID_2_)">
				<rect x="11" y="-15" fill="none" width="24.1" height="24.1"/>
				<rect x="11" y="-15" fill="#FEE99B" width="24.1" height="24.1"/>
			</g>
		</g>
		<pattern  id="SVGID_4_" xlink:href="#New_Pattern_Swatch_2" patternTransform="matrix(1 0 0 1 -34.8458 4.3712)">
		</pattern>
		<path fill="url(#SVGID_4_)" d="M20.3,9.4h-8.6V0.8h8.6V9.4z M13.2,7.9h5.6V2.3h-5.6V7.9z"/>
	</g>
</g>
</svg>
