<?xml version="1.0" encoding="utf-8"?>
<!-- Generator: Adobe Illustrator 18.0.0, SVG Export Plug-In . SVG Version: 6.00 Build 0)  -->
<!DOCTYPE svg PUBLIC "-//W3C//DTD SVG 1.1//EN" "http://www.w3.org/Graphics/SVG/1.1/DTD/svg11.dtd">
<svg version="1.1" id="Layer_1" xmlns="http://www.w3.org/2000/svg" xmlns:xlink="http://www.w3.org/1999/xlink" x="0px" y="0px"
	 viewBox="0 0 32 32" enable-background="new 0 0 32 32" xml:space="preserve">
<g>
	<g>
		<path fill="#B4A79C" d="M7.6,31.2c-0.2,0-0.4-0.1-0.5-0.2L1,24.9c-0.3-0.3-0.3-0.8,0-1.1l9.8-9.8c-1-3.7-0.1-7.5,2.7-10.3
			c2-2,4.6-3.1,7.4-3.1c0.6,0,1.3,0.1,1.9,0.2C23,1,23.2,1.2,23.3,1.4c0.1,0.3,0,0.6-0.2,0.8l-5.6,5.6l1.7,5l5,1.7l5.6-5.6
			c0.2-0.2,0.5-0.3,0.8-0.2C30.8,8.8,31,9,31.1,9.3c0.6,3.4-0.5,6.9-2.9,9.3c-2,2-4.6,3.1-7.4,3.1h0c-1,0-1.9-0.1-2.9-0.4L8.1,31
			C8,31.2,7.8,31.2,7.6,31.2z M2.6,24.4l5.1,5.1l9.6-9.6c0.2-0.2,0.5-0.3,0.8-0.2c0.9,0.3,1.9,0.5,2.8,0.5c2.4,0,4.6-0.9,6.3-2.6
			c1.7-1.7,2.6-4,2.6-6.4l-4.8,4.8c-0.2,0.2-0.5,0.3-0.8,0.2l-5.8-2c-0.2-0.1-0.4-0.2-0.5-0.5l-2-5.8c-0.1-0.3,0-0.6,0.2-0.8
			l4.8-4.8c-2.5,0-4.7,0.9-6.4,2.6c-2.4,2.4-3.2,5.9-2.2,9.2c0.1,0.3,0,0.6-0.2,0.8L2.6,24.4z"/>
	</g>
</g>
</svg>
