<?xml version="1.0" encoding="utf-8"?>
<!-- Generator: Adobe Illustrator 18.0.0, SVG Export Plug-In . SVG Version: 6.00 Build 0)  -->
<!DOCTYPE svg PUBLIC "-//W3C//DTD SVG 1.1//EN" "http://www.w3.org/Graphics/SVG/1.1/DTD/svg11.dtd">
<svg version="1.1" id="Layer_1" xmlns="http://www.w3.org/2000/svg" xmlns:xlink="http://www.w3.org/1999/xlink" x="0px" y="0px"
	 viewBox="0 0 32 32" enable-background="new 0 0 32 32" xml:space="preserve">
<g>
	<g>
		<path fill="#B4A79C" d="M30.8,17.4H24v-5.6c0-0.4,0.3-0.8,0.8-0.8c0.4,0,0.8,0.3,0.8,0.8v4.1h3.7c-0.6-6.3-4-11.6-8.8-13.7
			C20,2,19.8,1.6,20,1.2c0.2-0.4,0.6-0.5,1-0.4c5.5,2.4,9.3,8.6,9.8,15.8L30.8,17.4z"/>
	</g>
	<g>
		<polygon fill="#B4A79C" points="25.5,31.3 6.5,31.3 6.5,11.8 8,11.8 8,29.8 24,29.8 24,11.8 25.5,11.8 		"/>
	</g>
	<g>
		<path fill="#B4A79C" d="M7.2,17.4H1.9c-0.2,0-0.4-0.1-0.5-0.2c-0.1-0.2-0.2-0.4-0.2-0.6C1.6,9.5,5.5,3.3,10.9,0.9c0,0,0.1,0,0.1,0
			l0.2,0c0.2-0.1,0.4,0,0.6,0.1C12,1,12.1,1.2,12.1,1.4C12.4,3.3,14,4.8,16,4.8c2,0,3.6-1.5,3.9-3.4c0.1-0.4,0.4-0.7,0.8-0.6
			c0.4,0.1,0.7,0.4,0.6,0.8C21,4.3,18.7,6.3,16,6.3c-2.4,0-4.4-1.5-5.1-3.7C6.5,4.9,3.4,10,2.8,15.9h3.7v-4.1c0-0.4,0.3-0.8,0.8-0.8
			c0.4,0,0.8,0.3,0.8,0.8v4.9C8,17.1,7.7,17.4,7.2,17.4z"/>
	</g>
	<g>
		<line fill="#B4A79C" x1="16" y1="9.1" x2="16" y2="10.7"/>
		<rect x="15.2" y="9.1" fill="#B4A79C" width="1.5" height="1.6"/>
	</g>
	<g>
		<line fill="#B4A79C" x1="16" y1="13.5" x2="16" y2="15.1"/>
		<rect x="15.2" y="13.5" fill="#B4A79C" width="1.5" height="1.6"/>
	</g>
	<g>
		<line fill="#B4A79C" x1="16" y1="17.9" x2="16" y2="19.5"/>
		<rect x="15.2" y="17.9" fill="#B4A79C" width="1.5" height="1.6"/>
	</g>
</g>
</svg>
