<?xml version="1.0" encoding="utf-8"?>
<!-- Generator: Adobe Illustrator 18.0.0, SVG Export Plug-In . SVG Version: 6.00 Build 0)  -->
<!DOCTYPE svg PUBLIC "-//W3C//DTD SVG 1.1//EN" "http://www.w3.org/Graphics/SVG/1.1/DTD/svg11.dtd">
<svg version="1.1" id="Layer_1" xmlns="http://www.w3.org/2000/svg" xmlns:xlink="http://www.w3.org/1999/xlink" x="0px" y="0px"
	 viewBox="0 0 32 32" enable-background="new 0 0 32 32" xml:space="preserve">
<g>
	<g>
		<path fill="#74B1E0" d="M23.3,31.3H8.7c-1.4,0-2.5-1.1-2.5-2.5V8.2c0-1.4,1.1-2.5,2.5-2.5h2.8v2.7h9V5.6h2.8
			c1.4,0,2.5,1.1,2.5,2.5v20.5C25.8,30.1,24.7,31.3,23.3,31.3z M8.7,7.1c-0.6,0-1,0.5-1,1v20.5c0,0.6,0.5,1,1,1h14.6
			c0.6,0,1-0.5,1-1V8.2c0-0.6-0.5-1-1-1H22v2.7H10V7.1H8.7z"/>
	</g>
	<g>
		<path fill="#74B1E0" d="M22,9.8H10V3.6h12V9.8z M11.5,8.3h9V5.1h-9V8.3z"/>
	</g>
	<g>
		<rect x="9.5" y="12.8" fill="#CDE4F7" width="4.7" height="4.7"/>
		<path fill="#74B1E0" d="M14.9,18.3H8.8v-6.2h6.2V18.3z M10.3,16.8h3.2v-3.2h-3.2V16.8z"/>
	</g>
	<g>
		<rect x="9.5" y="20.7" fill="#CDE4F7" width="4.7" height="4.7"/>
		<path fill="#74B1E0" d="M14.9,26.1H8.8v-6.2h6.2V26.1z M10.3,24.6h3.2v-3.2h-3.2V24.6z"/>
	</g>
	<g>
		<rect x="17.2" y="12.9" fill="#74B1E0" width="5.3" height="1.5"/>
	</g>
	<g>
		<rect x="17.2" y="16" fill="#74B1E0" width="5.3" height="1.5"/>
	</g>
	<g>
		<rect x="17.2" y="20.7" fill="#74B1E0" width="5.3" height="1.5"/>
	</g>
	<g>
		<rect x="17.2" y="23.8" fill="#74B1E0" width="5.3" height="1.5"/>
	</g>
	<g>
		<path fill="#74B1E0" d="M18.7,5.1h-5.3V3.4c0-1.5,1.2-2.7,2.7-2.7c1.5,0,2.7,1.2,2.7,2.7V5.1z M14.8,3.6h2.3V3.4
			c0-0.6-0.5-1.2-1.2-1.2c-0.6,0-1.2,0.5-1.2,1.2V3.6z"/>
	</g>
</g>
</svg>
