<?xml version="1.0" encoding="utf-8"?>
<!-- Generator: Adobe Illustrator 18.0.0, SVG Export Plug-In . SVG Version: 6.00 Build 0)  -->
<!DOCTYPE svg PUBLIC "-//W3C//DTD SVG 1.1//EN" "http://www.w3.org/Graphics/SVG/1.1/DTD/svg11.dtd">
<svg version="1.1" id="Layer_1" xmlns="http://www.w3.org/2000/svg" xmlns:xlink="http://www.w3.org/1999/xlink" x="0px" y="0px"
	 viewBox="0 0 32 32" enable-background="new 0 0 32 32" xml:space="preserve">
<g>
	<g>
		<path fill="#8F9BA8" d="M16,27.5c-3.4,0-6.7-1.5-8.9-4.2l-0.8-0.9l1.2-0.3c2.8-0.7,6.3-1.9,9.7-3.4c3.4-1.6,6.6-3.3,8.9-5l1-0.7
			l0.2,1.2c0.1,0.7,0.2,1.3,0.2,1.9C27.5,22.3,22.3,27.5,16,27.5z M9.1,23.3C11,25,13.4,26,16,26c5.5,0,10-4.5,10-10
			c0-0.1,0-0.3,0-0.4c-2.3,1.5-5.1,3.1-8.1,4.5C14.8,21.4,11.8,22.5,9.1,23.3z"/>
	</g>
	<g>
		<path fill="#8F9BA8" d="M3.8,24.1c-1.6,0-2.6-0.4-2.9-1.2c-0.6-1.4,0.7-3.3,4.1-5.7l1-0.7l0.2,1.2c0.3,1.7,1,3.4,2.1,4.7l0.8,0.9
			l-1.2,0.3C6.3,23.9,4.9,24.1,3.8,24.1z M4.9,19.1c-2.5,1.9-2.8,3-2.7,3.2c0.1,0.1,0.5,0.4,1.6,0.4c0.7,0,1.6-0.1,2.6-0.3
			C5.8,21.3,5.3,20.2,4.9,19.1z"/>
	</g>
	<g>
		<path fill="#8F9BA8" d="M26,15.6l-0.2-1.2c-0.3-1.7-1-3.4-2.1-4.7l-0.8-0.9l1.2-0.3c3.9-0.9,6.4-0.7,7,0.7
			c0.6,1.4-0.7,3.3-4.1,5.7L26,15.6z M25.6,9.7c0.7,1,1.2,2.1,1.5,3.3c2.5-1.9,2.8-3,2.7-3.2c-0.1-0.1-0.5-0.4-1.6-0.4
			C27.5,9.4,26.6,9.5,25.6,9.7z"/>
	</g>
	<g>
		<path fill="#8F9BA8" d="M7.4,23.7l-0.3-0.4c-1.3-1.5-2.1-3.4-2.5-5.4c-0.1-0.7-0.2-1.3-0.2-1.9C4.5,9.7,9.7,4.5,16,4.5
			c3.4,0,6.7,1.5,8.9,4.2c1.3,1.5,2.1,3.4,2.5,5.4l0.1,0.5L27,14.9c-2.4,1.8-5.7,3.6-9.2,5.2c-3.5,1.6-7,2.8-9.9,3.5L7.4,23.7z
			 M16,6C10.5,6,6,10.5,6,16c0,0.5,0,1,0.1,1.6C6.4,19.2,7.1,20.7,8,22c2.7-0.7,6-1.8,9.2-3.3c3.2-1.5,6.2-3.2,8.5-4.8
			c-0.3-1.6-1-3-2.1-4.3C21.8,7.3,19,6,16,6z"/>
	</g>
</g>
</svg>
