<?xml version="1.0" encoding="utf-8"?>
<!-- Generator: Adobe Illustrator 18.0.0, SVG Export Plug-In . SVG Version: 6.00 Build 0)  -->
<!DOCTYPE svg PUBLIC "-//W3C//DTD SVG 1.1//EN" "http://www.w3.org/Graphics/SVG/1.1/DTD/svg11.dtd">
<svg version="1.1" id="Layer_1" xmlns="http://www.w3.org/2000/svg" xmlns:xlink="http://www.w3.org/1999/xlink" x="0px" y="0px"
	 viewBox="0 0 32 32" enable-background="new 0 0 32 32" xml:space="preserve">
<g>
	<g>
		<path fill="#79C693" d="M16,26c-0.9,0-9.2-0.1-9.2-2.7V13l9.2,3.3l9.2-3.3v10.2C25.2,25.9,16.9,26,16,26z M8.3,23.2
			c0.4,0.5,3,1.3,7.7,1.3c4.7,0,7.3-0.8,7.7-1.3v-8L16,17.9l-7.7-2.7V23.2z"/>
	</g>
	<g>
		<path fill="#79C693" d="M16,17.9c-0.1,0-0.2,0-0.3,0L1.2,12.7c-0.3-0.1-0.5-0.4-0.5-0.7s0.2-0.6,0.5-0.7l14.5-5.2
			c0.2-0.1,0.3-0.1,0.5,0l14.5,5.2c0.3,0.1,0.5,0.4,0.5,0.7s-0.2,0.6-0.5,0.7l-14.5,5.2C16.2,17.8,16.1,17.9,16,17.9z M3.7,12
			L16,16.3L28.3,12L16,7.6L3.7,12z"/>
	</g>
	<g>
		<rect x="27.1" y="13" fill="#79C693" width="1.5" height="7.9"/>
	</g>
</g>
</svg>
