<?xml version="1.0" encoding="utf-8"?>
<!-- Generator: Adobe Illustrator 18.0.0, SVG Export Plug-In . SVG Version: 6.00 Build 0)  -->
<!DOCTYPE svg PUBLIC "-//W3C//DTD SVG 1.1//EN" "http://www.w3.org/Graphics/SVG/1.1/DTD/svg11.dtd">
<svg version="1.1" id="Layer_1" xmlns="http://www.w3.org/2000/svg" xmlns:xlink="http://www.w3.org/1999/xlink" x="0px" y="0px"
	 viewBox="0 0 32 32" enable-background="new 0 0 32 32" xml:space="preserve">
<g>
	<g>
		<path fill="#DA8C8C" d="M19.8,25.3l2.2-13.2l0.3-0.2c2.4-1.7,4.8-1.5,6.8,0.4c1.4,1.4,3.1,4.3-0.8,8.3c-2,2-4.9,3.7-7.2,4.4
			L19.8,25.3z M23.3,13l-1.7,10.1c1.8-0.8,3.9-2.1,5.3-3.6c2.3-2.3,2.6-4.3,0.8-6.1C26.5,12.1,25,12,23.3,13z"/>
	</g>
	<g>
		<path fill="#FAC2C3" d="M2.4,8.6l2.8,16.7c0.2,1.2,1.3,2.2,2.5,2.2H18c1.3,0,2.3-0.9,2.5-2.2l0.2-1.1l1.9-11.7l0.7-4H2.4z"/>
		<path fill="#DA8C8C" d="M18,28.2H7.7c-1.6,0-3-1.2-3.3-2.8L1.4,7.8h22.8l-2.9,17.6C21,27.1,19.6,28.2,18,28.2z M3.3,9.4l2.6,15.8
			c0.1,0.9,0.9,1.5,1.8,1.5H18c0.9,0,1.6-0.6,1.8-1.5l2.6-15.8H3.3z"/>
	</g>
	<g>
		<rect x="7.6" y="3" fill="#DA8C8C" width="1.5" height="3.7"/>
	</g>
	<g>
		<rect x="12.1" y="0.8" fill="#DA8C8C" width="1.5" height="6"/>
	</g>
	<g>
		<rect x="16.5" y="3" fill="#DA8C8C" width="1.5" height="3.7"/>
	</g>
	<g>
		<rect x="2.6" y="29.7" fill="#DA8C8C" width="20.5" height="1.5"/>
	</g>
</g>
</svg>
