<?xml version="1.0" encoding="utf-8"?>
<!-- Generator: Adobe Illustrator 18.0.0, SVG Export Plug-In . SVG Version: 6.00 Build 0)  -->
<!DOCTYPE svg PUBLIC "-//W3C//DTD SVG 1.1//EN" "http://www.w3.org/Graphics/SVG/1.1/DTD/svg11.dtd">
<svg version="1.1" id="Layer_1" xmlns="http://www.w3.org/2000/svg" xmlns:xlink="http://www.w3.org/1999/xlink" x="0px" y="0px"
	 viewBox="0 0 32 32" enable-background="new 0 0 32 32" xml:space="preserve">
<g>
	<g>
		<path fill="#B4A79C" d="M14.4,23.4H8.1c-4.1,0-7.4-3.3-7.4-7.4S4,8.6,8.1,8.6h12.6l-1,1.2c-0.8,1-1.7,3.1-2.3,6l-0.2,0.7
			c-0.7,3.2-1.6,5.4-2.6,6.6L14.4,23.4z M8.1,10.1c-3.3,0-5.9,2.6-5.9,5.9c0,3.2,2.6,5.9,5.9,5.9h5.5c0.8-1.1,1.5-3.1,2.1-5.7
			l0.2-0.7c0.5-2.3,1.1-4.1,1.8-5.4H8.1z"/>
	</g>
	<g>
		<path fill="#F9F8F2" d="M23.9,9.4h-4.7c-0.9,1.1-1.8,3.2-2.5,6.3l-0.2,0.7c-0.7,3-1.5,5.2-2.5,6.3h9.8c3.7,0,6.6-3,6.6-6.6l0,0
			C30.5,12.3,27.5,9.4,23.9,9.4z"/>
		<path fill="#B4A79C" d="M23.9,23.4H12.4l1-1.2c0.8-1,1.7-3.1,2.3-6l0.2-0.7c0.7-3.2,1.6-5.4,2.6-6.6l0.2-0.3h5
			c4.1,0,7.4,3.3,7.4,7.4C31.3,20.1,27.9,23.4,23.9,23.4z M15.4,21.9h8.4c3.3,0,5.9-2.6,5.9-5.9s-2.6-5.9-5.9-5.9h-4.3
			c-0.8,1.1-1.5,3.1-2.1,5.7l-0.2,0.7C16.7,18.8,16.1,20.6,15.4,21.9z"/>
	</g>
	<g>
		<path fill="#B4A79C" d="M5.9,19.9c-0.1,0-0.2,0-0.3,0c-0.3-0.1-0.5-0.4-0.5-0.7v-7.1h1.5v5l0.8-0.9C7.5,16,7.7,15.9,8,16
			c0.2,0,0.4,0.1,0.6,0.3L9,16.8v-4.7h1.5v7c0,0.3-0.2,0.6-0.5,0.7s-0.6,0-0.8-0.3L8,17.8l-1.5,1.7C6.3,19.8,6.1,19.9,5.9,19.9z"/>
	</g>
	<g>
		<rect x="11.9" y="12.1" fill="#B4A79C" width="1.5" height="1.3"/>
	</g>
	<g>
		<rect x="11.9" y="14.5" fill="#B4A79C" width="1.5" height="5.4"/>
	</g>
	<g>
		<rect x="24.4" y="12.1" fill="#B4A79C" width="1.5" height="1.3"/>
	</g>
	<g>
		<rect x="24.4" y="14.5" fill="#B4A79C" width="1.5" height="5.4"/>
	</g>
	<g>
		<polygon fill="#B4A79C" points="20.9,19.9 19.4,19.9 19.4,12.1 23.3,12.1 23.3,13.6 20.9,13.6 		"/>
	</g>
	<g>
		<rect x="20.1" y="15" fill="#B4A79C" width="2.3" height="1.5"/>
	</g>
</g>
</svg>
