<?xml version="1.0" encoding="utf-8"?>
<!-- Generator: Adobe Illustrator 18.0.0, SVG Export Plug-In . SVG Version: 6.00 Build 0)  -->
<!DOCTYPE svg PUBLIC "-//W3C//DTD SVG 1.1//EN" "http://www.w3.org/Graphics/SVG/1.1/DTD/svg11.dtd">
<svg version="1.1" id="Layer_1" xmlns="http://www.w3.org/2000/svg" xmlns:xlink="http://www.w3.org/1999/xlink" x="0px" y="0px"
	 viewBox="0 0 32 32" enable-background="new 0 0 32 32" xml:space="preserve">
<g>
	<g>
		<path fill="#74B1E0" d="M21.3,31.3H10.7c-1.6,0-2.9-1.3-2.9-2.9V7.3c0-1.6,1.3-2.9,2.9-2.9h10.6c1.6,0,2.9,1.3,2.9,2.9v21.1
			C24.2,30,22.9,31.3,21.3,31.3z M10.7,6C10,6,9.4,6.6,9.4,7.3v21.1c0,0.7,0.6,1.3,1.3,1.3h10.6c0.7,0,1.3-0.6,1.3-1.3V7.3
			C22.6,6.6,22,6,21.3,6H10.7z"/>
	</g>
	<g>
		<line fill="#CDE4F7" x1="19.2" y1="5.2" x2="19.2" y2="0.8"/>
		<rect x="18.5" y="0.8" fill="#74B1E0" width="1.5" height="4.5"/>
	</g>
	<g>
		<path fill="#CDE4F7" d="M19.3,17.1h-6.5c-0.7,0-1.3-0.6-1.3-1.3V9.3C11.5,8.6,12,8,12.7,8h6.5c0.7,0,1.3,0.6,1.3,1.3v6.5
			C20.5,16.5,20,17.1,19.3,17.1z"/>
		<path fill="#74B1E0" d="M19.2,17.8h-6.4c-1.1,0-2.1-0.9-2.1-2.1V9.3c0-1.1,0.9-2.1,2.1-2.1h6.4c1.1,0,2.1,0.9,2.1,2.1v6.4
			C21.3,16.9,20.4,17.8,19.2,17.8z M12.8,8.8c-0.3,0-0.5,0.2-0.5,0.5v6.4c0,0.3,0.2,0.5,0.5,0.5h6.4c0.3,0,0.5-0.2,0.5-0.5V9.3
			c0-0.3-0.2-0.5-0.5-0.5H12.8z"/>
	</g>
	<g>
		<line fill="#CDE4F7" x1="11.8" y1="19.6" x2="11.8" y2="21.1"/>
		<rect x="11" y="19.6" fill="#74B1E0" width="1.5" height="1.5"/>
	</g>
	<g>
		<line fill="#CDE4F7" x1="16" y1="19.6" x2="16" y2="21.1"/>
		<rect x="15.2" y="19.6" fill="#74B1E0" width="1.5" height="1.5"/>
	</g>
	<g>
		<line fill="#CDE4F7" x1="20.2" y1="19.6" x2="20.2" y2="21.1"/>
		<rect x="19.4" y="19.6" fill="#74B1E0" width="1.5" height="1.5"/>
	</g>
	<g>
		<line fill="#CDE4F7" x1="11.8" y1="22.9" x2="11.8" y2="24.4"/>
		<rect x="11" y="22.9" fill="#74B1E0" width="1.5" height="1.5"/>
	</g>
	<g>
		<line fill="#CDE4F7" x1="16" y1="22.9" x2="16" y2="24.4"/>
		<rect x="15.2" y="22.9" fill="#74B1E0" width="1.5" height="1.5"/>
	</g>
	<g>
		<line fill="#CDE4F7" x1="20.2" y1="22.9" x2="20.2" y2="24.4"/>
		<rect x="19.4" y="22.9" fill="#74B1E0" width="1.5" height="1.5"/>
	</g>
	<g>
		<line fill="#CDE4F7" x1="11.8" y1="26.3" x2="11.8" y2="27.8"/>
		<rect x="11" y="26.3" fill="#74B1E0" width="1.5" height="1.5"/>
	</g>
	<g>
		<line fill="#CDE4F7" x1="16" y1="26.3" x2="16" y2="27.8"/>
		<rect x="15.2" y="26.3" fill="#74B1E0" width="1.5" height="1.5"/>
	</g>
	<g>
		<line fill="#CDE4F7" x1="20.2" y1="26.3" x2="20.2" y2="27.8"/>
		<rect x="19.4" y="26.3" fill="#74B1E0" width="1.5" height="1.5"/>
	</g>
</g>
</svg>
