<?xml version="1.0" encoding="utf-8"?>
<!-- Generator: Adobe Illustrator 18.0.0, SVG Export Plug-In . SVG Version: 6.00 Build 0)  -->
<!DOCTYPE svg PUBLIC "-//W3C//DTD SVG 1.1//EN" "http://www.w3.org/Graphics/SVG/1.1/DTD/svg11.dtd">
<svg version="1.1" id="Layer_1" xmlns="http://www.w3.org/2000/svg" xmlns:xlink="http://www.w3.org/1999/xlink" x="0px" y="0px"
	 viewBox="0 0 32 32" enable-background="new 0 0 32 32" xml:space="preserve">
<g>
	<g>
		<path fill="#8F9BA8" d="M23.3,31.4H5.2l7.6-10.1l0.5,0.2c0.9,0.4,1.8,0.6,2.8,0.8l0.3,0L23.3,31.4z M8.2,29.9h12.1l-4.6-6.2
			c-0.8-0.1-1.6-0.3-2.3-0.6L8.2,29.9z"/>
	</g>
	<g>
		<path fill="#F0F7F7" d="M8.6,1.7c-4.7,5-4.7,12.9,0.2,17.7c1.2,1.2,2.7,2.2,4.2,2.8c1,0.4,2,0.7,3,0.8c3.7,0.5,7.6-0.6,10.6-3.4
			L8.6,1.7z"/>
		<path fill="#8F9BA8" d="M17.8,23.9C17.8,23.9,17.8,23.9,17.8,23.9c-0.6,0-1.3,0-1.9-0.1c-1.1-0.2-2.2-0.4-3.2-0.9
			c-1.7-0.7-3.1-1.7-4.4-2.9C3.1,14.7,3,6.5,8.1,1.1l0.5-0.6l19.1,19.1l-0.6,0.5C24.6,22.6,21.3,23.9,17.8,23.9z M8.6,2.8
			c-4,4.7-3.7,11.7,0.7,16.1c1.1,1.1,2.5,2,3.9,2.6c0.9,0.4,1.8,0.6,2.8,0.8c0.6,0.1,1.1,0.1,1.7,0.1c0,0,0,0,0,0
			c2.8,0,5.5-1,7.7-2.8L8.6,2.8z"/>
	</g>
	<g>
		<line fill="#F0F7F7" x1="18" y1="11.1" x2="22.1" y2="7.1"/>
		
			<rect x="19.3" y="6.3" transform="matrix(0.7071 0.7071 -0.7071 0.7071 12.3076 -11.5197)" fill="#8F9BA8" width="1.5" height="5.7"/>
	</g>
	<g>
		<path fill="#8F9BA8" d="M23.1,8.5c-0.7,0-1.3-0.3-1.8-0.7c-1-1-1-2.5,0-3.5c0.9-0.9,2.6-0.9,3.5,0c1,1,1,2.5,0,3.5
			C24.4,8.3,23.8,8.5,23.1,8.5z M23.1,5.1c-0.3,0-0.5,0.1-0.7,0.3c-0.4,0.4-0.4,1,0,1.4c0.4,0.4,1,0.4,1.4,0c0.4-0.4,0.4-1,0-1.4
			C23.6,5.2,23.4,5.1,23.1,5.1z"/>
	</g>
</g>
</svg>
