<?xml version="1.0" encoding="utf-8"?>
<!-- Generator: Adobe Illustrator 18.0.0, SVG Export Plug-In . SVG Version: 6.00 Build 0)  -->
<!DOCTYPE svg PUBLIC "-//W3C//DTD SVG 1.1//EN" "http://www.w3.org/Graphics/SVG/1.1/DTD/svg11.dtd">
<svg version="1.1" id="Layer_1" xmlns="http://www.w3.org/2000/svg" xmlns:xlink="http://www.w3.org/1999/xlink" x="0px" y="0px"
	 viewBox="0 0 32 32" enable-background="new 0 0 32 32" xml:space="preserve">
<g>
	<g>
		<path fill="#79C693" d="M27.6,28.9H4.4c-2,0-3.7-1.6-3.7-3.7V10.9c0-2,1.6-3.7,3.7-3.7h23.2c2,0,3.7,1.6,3.7,3.7v14.3
			C31.3,27.2,29.6,28.9,27.6,28.9z M4.4,8.7c-1.2,0-2.2,1-2.2,2.2v14.3c0,1.2,1,2.2,2.2,2.2h23.2c1.2,0,2.2-1,2.2-2.2V10.9
			c0-1.2-1-2.2-2.2-2.2H4.4z"/>
	</g>
	<g>
		<path fill="#79C693" d="M13.6,8.7c0,0-0.1,0-0.1,0c-0.2,0-0.4-0.2-0.5-0.3L9.5,3.1l1.3-0.8l3.1,4.7l7.7-5.8l0.9,1.2l-8.3,6.2
			C13.9,8.7,13.8,8.7,13.6,8.7z"/>
	</g>
	<g>
		<rect x="24.7" y="28.1" fill="#79C693" width="1.5" height="2.7"/>
	</g>
	<g>
		<rect x="5.8" y="28.1" fill="#79C693" width="1.5" height="2.7"/>
	</g>
</g>
</svg>
