<?xml version="1.0" encoding="utf-8"?>
<!-- Generator: Adobe Illustrator 18.0.0, SVG Export Plug-In . SVG Version: 6.00 Build 0)  -->
<!DOCTYPE svg PUBLIC "-//W3C//DTD SVG 1.1//EN" "http://www.w3.org/Graphics/SVG/1.1/DTD/svg11.dtd">
<svg version="1.1" id="Layer_1" xmlns="http://www.w3.org/2000/svg" xmlns:xlink="http://www.w3.org/1999/xlink" x="0px" y="0px"
	 viewBox="0 0 32 32" enable-background="new 0 0 32 32" xml:space="preserve">
<g>
	<g>
		<path fill="#8F9BA8" d="M16,31.3v-0.8V31.3c-4.1,0-7.9-1.6-10.8-4.5C2.3,23.9,0.8,20.1,0.8,16C0.8,7.6,7.6,0.8,16,0.8
			c4.1,0,7.9,1.6,10.8,4.5c2.9,2.9,4.5,6.7,4.5,10.8C31.2,24.4,24.4,31.2,16,31.3z M16,2.3C8.4,2.3,2.3,8.4,2.3,16
			c0,3.7,1.4,7.1,4,9.7c2.6,2.6,6,4,9.7,4c7.6,0,13.8-6.2,13.8-13.8c0-3.7-1.4-7.1-4-9.7C23.1,3.7,19.7,2.3,16,2.3z"/>
	</g>
	<g>
		<polygon fill="#FAC2C3" points="22.8,9.2 13.5,13.5 9.2,22.8 18.5,18.5 		"/>
		<path fill="#DA8C8C" d="M9.2,23.6c-0.2,0-0.4-0.1-0.5-0.2c-0.2-0.2-0.3-0.6-0.1-0.8l4.3-9.3c0.1-0.2,0.2-0.3,0.4-0.4l9.3-4.3
			c0.3-0.1,0.6-0.1,0.8,0.1c0.2,0.2,0.3,0.6,0.1,0.8l-4.3,9.3c-0.1,0.2-0.2,0.3-0.4,0.4l-9.3,4.3C9.4,23.6,9.3,23.6,9.2,23.6z
			 M14.1,14.1l-3.4,7.2l7.2-3.4l3.4-7.2L14.1,14.1z"/>
	</g>
	<g>
		<rect x="15.2" y="1.5" fill="#8F9BA8" width="1.5" height="2.9"/>
	</g>
	<g>
		<rect x="15.2" y="27.6" fill="#8F9BA8" width="1.5" height="2.9"/>
	</g>
	<g>
		<rect x="1.5" y="15.3" fill="#8F9BA8" width="2.9" height="1.5"/>
	</g>
	<g>
		<rect x="27.6" y="15.3" fill="#8F9BA8" width="2.9" height="1.5"/>
	</g>
</g>
</svg>
