<?xml version="1.0" encoding="utf-8"?>
<!-- Generator: Adobe Illustrator 18.0.0, SVG Export Plug-In . SVG Version: 6.00 Build 0)  -->
<!DOCTYPE svg PUBLIC "-//W3C//DTD SVG 1.1//EN" "http://www.w3.org/Graphics/SVG/1.1/DTD/svg11.dtd">
<svg version="1.1" id="Layer_1" xmlns="http://www.w3.org/2000/svg" xmlns:xlink="http://www.w3.org/1999/xlink" x="0px" y="0px"
	 viewBox="0 0 32 32" enable-background="new 0 0 32 32" xml:space="preserve">
<g>
	<g>
		<path fill="#B4A79C" d="M11.6,23.8H4.1c-1.9,0-3.4-1.5-3.4-3.4V4.1c0-1.9,1.5-3.4,3.4-3.4h7.5c1.9,0,3.4,1.5,3.4,3.4v16.3
			C15,22.2,13.5,23.8,11.6,23.8z M4.1,2.3c-1,0-1.9,0.8-1.9,1.9v16.3c0,1,0.8,1.9,1.9,1.9h7.5c1,0,1.9-0.8,1.9-1.9V4.1
			c0-1-0.8-1.9-1.9-1.9H4.1z"/>
	</g>
	<g>
		<line fill="#F9F8F2" x1="7.9" y1="23" x2="7.9" y2="30.5"/>
		<rect x="7.1" y="23" fill="#B4A79C" width="1.5" height="7.5"/>
	</g>
	<g>
		<line fill="#F9F8F2" x1="5.1" y1="30.5" x2="10.7" y2="30.5"/>
		<rect x="5.1" y="29.8" fill="#B4A79C" width="5.5" height="1.5"/>
	</g>
	<g>
		<path fill="#8F9BA8" d="M27.9,23.8h-7.5c-1.9,0-3.4-1.5-3.4-3.4V4.1c0-1.9,1.5-3.4,3.4-3.4h7.5c1.9,0,3.4,1.5,3.4,3.4v16.3
			C31.3,22.2,29.7,23.8,27.9,23.8z M20.3,2.3c-1,0-1.9,0.8-1.9,1.9v16.3c0,1,0.8,1.9,1.9,1.9h7.5c1,0,1.9-0.8,1.9-1.9V4.1
			c0-1-0.8-1.9-1.9-1.9H20.3z"/>
	</g>
	<g>
		<line fill="#F2E8B9" x1="24.1" y1="23" x2="24.1" y2="30.5"/>
		<rect x="23.4" y="23" fill="#8F9BA8" width="1.5" height="7.5"/>
	</g>
	<g>
		<line fill="#F2E8B9" x1="21.3" y1="30.5" x2="26.9" y2="30.5"/>
		<rect x="21.3" y="29.8" fill="#8F9BA8" width="5.5" height="1.5"/>
	</g>
	<g>
		<circle fill="#F9F8F2" cx="7.9" cy="8.4" r="3.3"/>
		<path fill="#B4A79C" d="M7.9,12.4c-2.2,0-4-1.8-4-4c0-2.2,1.8-4,4-4c2.2,0,4,1.8,4,4C11.9,10.6,10.1,12.4,7.9,12.4z M7.9,5.8
			C6.5,5.8,5.4,7,5.4,8.4c0,1.4,1.1,2.5,2.5,2.5c1.4,0,2.5-1.1,2.5-2.5C10.4,7,9.3,5.8,7.9,5.8z"/>
	</g>
	<g>
		<circle fill="#F9F8F2" cx="7.9" cy="16.9" r="2.5"/>
		<path fill="#B4A79C" d="M7.9,20.2c-1.8,0-3.3-1.5-3.3-3.3s1.5-3.3,3.3-3.3c1.8,0,3.3,1.5,3.3,3.3S9.7,20.2,7.9,20.2z M7.9,15.1
			c-1,0-1.8,0.8-1.8,1.8c0,1,0.8,1.8,1.8,1.8c1,0,1.8-0.8,1.8-1.8C9.7,15.9,8.9,15.1,7.9,15.1z"/>
	</g>
	<g>
		<circle fill="#F0F7F7" cx="24.1" cy="8.4" r="3.3"/>
		<path fill="#8F9BA8" d="M24.1,12.4c-2.2,0-4-1.8-4-4c0-2.2,1.8-4,4-4s4,1.8,4,4C28.1,10.6,26.3,12.4,24.1,12.4z M24.1,5.8
			c-1.4,0-2.5,1.1-2.5,2.5c0,1.4,1.1,2.5,2.5,2.5c1.4,0,2.5-1.1,2.5-2.5C26.6,7,25.5,5.8,24.1,5.8z"/>
	</g>
	<g>
		<circle fill="#F0F7F7" cx="24.1" cy="16.9" r="2.5"/>
		<path fill="#8F9BA8" d="M24.1,20.2c-1.8,0-3.3-1.5-3.3-3.3s1.5-3.3,3.3-3.3c1.8,0,3.3,1.5,3.3,3.3S25.9,20.2,24.1,20.2z
			 M24.1,15.1c-1,0-1.8,0.8-1.8,1.8c0,1,0.8,1.8,1.8,1.8c1,0,1.8-0.8,1.8-1.8C25.9,15.9,25.1,15.1,24.1,15.1z"/>
	</g>
</g>
</svg>
