<?xml version="1.0" encoding="utf-8"?>
<!-- Generator: Adobe Illustrator 18.0.0, SVG Export Plug-In . SVG Version: 6.00 Build 0)  -->
<!DOCTYPE svg PUBLIC "-//W3C//DTD SVG 1.1//EN" "http://www.w3.org/Graphics/SVG/1.1/DTD/svg11.dtd">
<svg version="1.1" id="Layer_1" xmlns="http://www.w3.org/2000/svg" xmlns:xlink="http://www.w3.org/1999/xlink" x="0px" y="0px"
	 viewBox="0 0 32 32" enable-background="new 0 0 32 32" xml:space="preserve">
<g>
	<g>
		<polygon fill="#F9F8F2" points="30.2,25 21.2,16 30.2,7 25,1.8 16,10.8 7,1.8 1.8,7 10.8,16 1.8,25 7,30.2 16,21.2 25,30.2 		"/>
		<path fill="#B4A79C" d="M7,31.2L0.8,25l9-9l-9-9L7,0.8l9,9l9-9L31.3,7l-9,9l9,9L25,31.2l-9-9L7,31.2z M2.8,25L7,29.2l9-9l9,9
			l4.2-4.2l-9-9l9-9L25,2.8l-9,9l-9-9L2.8,7l9,9L2.8,25z"/>
	</g>
</g>
</svg>
