<?xml version="1.0" encoding="utf-8"?>
<!-- Generator: Adobe Illustrator 18.0.0, SVG Export Plug-In . SVG Version: 6.00 Build 0)  -->
<!DOCTYPE svg PUBLIC "-//W3C//DTD SVG 1.1//EN" "http://www.w3.org/Graphics/SVG/1.1/DTD/svg11.dtd">
<svg version="1.1" id="Layer_1" xmlns="http://www.w3.org/2000/svg" xmlns:xlink="http://www.w3.org/1999/xlink" x="0px" y="0px"
	 viewBox="0 0 32 32" enable-background="new 0 0 32 32" xml:space="preserve">
<g>
	<g>
		<path fill="#8F9BA8" d="M19.5,31.3h-7.1c-2,0-3.6-1.6-3.6-3.6V4.4c0-2,1.6-3.6,3.6-3.6h7.1c2,0,3.6,1.6,3.6,3.6v23.2
			C23.2,29.6,21.5,31.3,19.5,31.3z M12.5,2.3c-1.2,0-2.1,1-2.1,2.1v23.2c0,1.2,1,2.1,2.1,2.1h7.1c1.2,0,2.1-1,2.1-2.1V4.4
			c0-1.2-1-2.1-2.1-2.1H12.5z"/>
	</g>
	<g>
		<line fill="#F2E8B9" x1="16" y1="21.7" x2="16" y2="27.1"/>
		<rect x="15.3" y="21.7" fill="#B4A042" width="1.5" height="5.4"/>
	</g>
	<g>
		<line fill="#F2E8B9" x1="18.7" y1="24.4" x2="13.3" y2="24.4"/>
		<rect x="13.3" y="23.6" fill="#B4A042" width="5.4" height="1.5"/>
	</g>
	<g>
		<line fill="#F2E8B9" x1="12.4" y1="4.9" x2="12.4" y2="6.6"/>
		<rect x="11.7" y="4.9" fill="#B4A79C" width="1.5" height="1.6"/>
	</g>
	<g>
		<line fill="#F2E8B9" x1="16" y1="4.9" x2="16" y2="6.6"/>
		<rect x="15.3" y="4.9" fill="#B4A79C" width="1.5" height="1.6"/>
	</g>
	<g>
		<line fill="#F2E8B9" x1="19.6" y1="4.9" x2="19.6" y2="6.6"/>
		<rect x="18.8" y="4.9" fill="#B4A79C" width="1.5" height="1.6"/>
	</g>
	<g>
		<line fill="#F2E8B9" x1="12.4" y1="8.7" x2="12.4" y2="10.3"/>
		<rect x="11.7" y="8.7" fill="#B4A79C" width="1.5" height="1.6"/>
	</g>
	<g>
		<line fill="#F2E8B9" x1="16" y1="8.7" x2="16" y2="10.3"/>
		<rect x="15.3" y="8.7" fill="#B4A79C" width="1.5" height="1.6"/>
	</g>
	<g>
		<line fill="#F2E8B9" x1="19.6" y1="8.7" x2="19.6" y2="10.3"/>
		<rect x="18.8" y="8.7" fill="#B4A79C" width="1.5" height="1.6"/>
	</g>
	<g>
		<line fill="#F2E8B9" x1="12.4" y1="12.5" x2="12.4" y2="14.1"/>
		<rect x="11.7" y="12.5" fill="#B4A79C" width="1.5" height="1.6"/>
	</g>
	<g>
		<line fill="#F2E8B9" x1="16" y1="12.5" x2="16" y2="14.1"/>
		<rect x="15.3" y="12.5" fill="#B4A79C" width="1.5" height="1.6"/>
	</g>
	<g>
		<line fill="#F2E8B9" x1="19.6" y1="12.5" x2="19.6" y2="14.1"/>
		<rect x="18.8" y="12.5" fill="#B4A79C" width="1.5" height="1.6"/>
	</g>
	<g>
		<line fill="#F2E8B9" x1="12.4" y1="16.2" x2="12.4" y2="17.9"/>
		<rect x="11.7" y="16.2" fill="#B4A79C" width="1.5" height="1.6"/>
	</g>
	<g>
		<line fill="#F2E8B9" x1="16" y1="16.2" x2="16" y2="17.9"/>
		<rect x="15.3" y="16.2" fill="#B4A79C" width="1.5" height="1.6"/>
	</g>
	<g>
		<line fill="#F2E8B9" x1="19.6" y1="16.2" x2="19.6" y2="17.9"/>
		<rect x="18.8" y="16.2" fill="#B4A79C" width="1.5" height="1.6"/>
	</g>
</g>
</svg>
