<?xml version="1.0" encoding="utf-8"?>
<!-- Generator: Adobe Illustrator 18.0.0, SVG Export Plug-In . SVG Version: 6.00 Build 0)  -->
<!DOCTYPE svg PUBLIC "-//W3C//DTD SVG 1.1//EN" "http://www.w3.org/Graphics/SVG/1.1/DTD/svg11.dtd">
<svg version="1.1" id="Layer_1" xmlns="http://www.w3.org/2000/svg" xmlns:xlink="http://www.w3.org/1999/xlink" x="0px" y="0px"
	 viewBox="0 0 32 32" enable-background="new 0 0 32 32" xml:space="preserve">
<g>
	<g>
		<path fill="#DA8C8C" d="M21.9,31.3H10.1c-1.6,0-2.9-1.3-2.9-2.9V3.6c0-1.6,1.3-2.9,2.9-2.9h11.8c1.6,0,2.9,1.3,2.9,2.9v24.7
			C24.8,30,23.5,31.3,21.9,31.3z M10.1,2.3c-0.8,0-1.4,0.6-1.4,1.4v24.7c0,0.8,0.6,1.4,1.4,1.4h11.8c0.8,0,1.4-0.6,1.4-1.4V3.6
			c0-0.8-0.6-1.4-1.4-1.4H10.1V2.3z"/>
	</g>
	<g>
		<circle fill="#F9F8F2" cx="16" cy="21.4" r="5.1"/>
		<path fill="#B4A79C" d="M16,27.3c-3.2,0-5.8-2.6-5.8-5.8s2.6-5.8,5.8-5.8s5.8,2.6,5.8,5.8S19.2,27.3,16,27.3z M16,17.1
			c-2.4,0-4.3,1.9-4.3,4.3s1.9,4.3,4.3,4.3s4.3-1.9,4.3-4.3S18.4,17.1,16,17.1z"/>
	</g>
	<g>
		<circle fill="#F9F8F2" cx="16" cy="21.4" r="1.7"/>
		<path fill="#B4A79C" d="M16,23.9c-1.4,0-2.5-1.1-2.5-2.5s1.1-2.5,2.5-2.5s2.5,1.1,2.5,2.5S17.4,23.9,16,23.9z M16,20.5
			c-0.5,0-1,0.4-1,1s0.4,1,1,1c0.5,0,1-0.4,1-1S16.5,20.5,16,20.5z"/>
	</g>
	<g>
		<path fill="#DA8C8C" d="M16,13.1c-2.3,0-4.2-1.9-4.2-4.2s1.9-4.2,4.2-4.2s4.2,1.9,4.2,4.2C20.2,11.3,18.3,13.1,16,13.1z M16,6.2
			c-1.5,0-2.7,1.2-2.7,2.7s1.2,2.7,2.7,2.7s2.7-1.2,2.7-2.7S17.5,6.2,16,6.2z"/>
	</g>
	<g>
		<line fill="none" x1="21.5" y1="3.8" x2="21.5" y2="4.6"/>
		<rect x="20.8" y="3.8" fill="#DA8C8C" width="1.5" height="0.9"/>
	</g>
	<g>
		<line fill="none" x1="10.5" y1="3.8" x2="10.5" y2="4.6"/>
		<rect x="9.7" y="3.8" fill="#DA8C8C" width="1.5" height="0.9"/>
	</g>
	<g>
		<line fill="none" x1="21.5" y1="27.4" x2="21.5" y2="28.2"/>
		<rect x="20.8" y="27.4" fill="#DA8C8C" width="1.5" height="0.9"/>
	</g>
	<g>
		<line fill="none" x1="10.5" y1="27.4" x2="10.5" y2="28.2"/>
		<rect x="9.7" y="27.4" fill="#DA8C8C" width="1.5" height="0.9"/>
	</g>
</g>
</svg>
