<?xml version="1.0" encoding="utf-8"?>
<!-- Generator: Adobe Illustrator 18.0.0, SVG Export Plug-In . SVG Version: 6.00 Build 0)  -->
<!DOCTYPE svg PUBLIC "-//W3C//DTD SVG 1.1//EN" "http://www.w3.org/Graphics/SVG/1.1/DTD/svg11.dtd">
<svg version="1.1" id="Layer_1" xmlns="http://www.w3.org/2000/svg" xmlns:xlink="http://www.w3.org/1999/xlink" x="0px" y="0px"
	 viewBox="0 0 32 32" enable-background="new 0 0 32 32" xml:space="preserve">
<g>
	<g>
		<path fill="#B4A79C" d="M24.1,31.3H7.9c-1.8,0-3.3-1.5-3.3-3.3V9.3c0-0.4,0.3-0.8,0.8-0.8h21.4c0.4,0,0.8,0.3,0.8,0.8v18.6
			C27.5,29.7,26,31.3,24.1,31.3z M6,10v17.9c0,1,0.8,1.8,1.8,1.8h16.2c1,0,1.8-0.8,1.8-1.8V10H6z"/>
	</g>
	<g>
		<line fill="#F9F8F2" x1="8" y1="13.4" x2="10" y2="13.4"/>
		<rect x="8" y="12.6" fill="#8F9BA8" width="2" height="1.5"/>
	</g>
	<g>
		<line fill="#F9F8F2" x1="12.7" y1="13.4" x2="14.7" y2="13.4"/>
		<rect x="12.7" y="12.6" fill="#8F9BA8" width="2" height="1.5"/>
	</g>
	<g>
		<line fill="#F9F8F2" x1="17.3" y1="13.4" x2="19.3" y2="13.4"/>
		<rect x="17.3" y="12.6" fill="#8F9BA8" width="2" height="1.5"/>
	</g>
	<g>
		<line fill="#F9F8F2" x1="22" y1="13.4" x2="24" y2="13.4"/>
		<rect x="22" y="12.6" fill="#8F9BA8" width="2" height="1.5"/>
	</g>
	<g>
		<line fill="#F9F8F2" x1="8" y1="17.7" x2="10" y2="17.7"/>
		<rect x="8" y="17" fill="#8F9BA8" width="2" height="1.5"/>
	</g>
	<g>
		<line fill="#F9F8F2" x1="12.7" y1="17.7" x2="14.7" y2="17.7"/>
		<rect x="12.7" y="17" fill="#8F9BA8" width="2" height="1.5"/>
	</g>
	<g>
		<line fill="#F9F8F2" x1="17.3" y1="17.7" x2="19.3" y2="17.7"/>
		<rect x="17.3" y="17" fill="#8F9BA8" width="2" height="1.5"/>
	</g>
	<g>
		<line fill="#F9F8F2" x1="22" y1="17.7" x2="24" y2="17.7"/>
		<rect x="22" y="17" fill="#8F9BA8" width="2" height="1.5"/>
	</g>
	<g>
		<line fill="#F9F8F2" x1="8" y1="22.1" x2="10" y2="22.1"/>
		<rect x="8" y="21.3" fill="#8F9BA8" width="2" height="1.5"/>
	</g>
	<g>
		<line fill="#F9F8F2" x1="12.7" y1="22.1" x2="14.7" y2="22.1"/>
		<rect x="12.7" y="21.3" fill="#8F9BA8" width="2" height="1.5"/>
	</g>
	<g>
		<line fill="#F9F8F2" x1="17.3" y1="22.1" x2="19.3" y2="22.1"/>
		<rect x="17.3" y="21.3" fill="#8F9BA8" width="2" height="1.5"/>
	</g>
	<g>
		<line fill="#F9F8F2" x1="22" y1="22.1" x2="24" y2="22.1"/>
		<rect x="22" y="21.3" fill="#8F9BA8" width="2" height="1.5"/>
	</g>
	<g>
		<line fill="#F9F8F2" x1="8" y1="26.4" x2="10" y2="26.4"/>
		<rect x="8" y="25.6" fill="#8F9BA8" width="2" height="1.5"/>
	</g>
	<g>
		<line fill="#F9F8F2" x1="12.7" y1="26.4" x2="14.7" y2="26.4"/>
		<rect x="12.7" y="25.6" fill="#8F9BA8" width="2" height="1.5"/>
	</g>
	<g>
		<line fill="#F9F8F2" x1="17.3" y1="26.4" x2="19.3" y2="26.4"/>
		<rect x="17.3" y="25.6" fill="#8F9BA8" width="2" height="1.5"/>
	</g>
	<g>
		<line fill="#F9F8F2" x1="22" y1="26.4" x2="24" y2="26.4"/>
		<rect x="22" y="25.6" fill="#8F9BA8" width="2" height="1.5"/>
	</g>
	<g>
		<path fill="#F9F8F2" d="M26.7,4.1c0-1.4-1.2-2.6-2.6-2.6H7.9c-1.4,0-2.6,1.2-2.6,2.6v5.2h21.4V4.1z"/>
		<path fill="#B4A79C" d="M27.5,10H4.5V4.1c0-1.8,1.5-3.3,3.3-3.3h16.2c1.8,0,3.3,1.5,3.3,3.3V10z M6,8.5H26V4.1
			c0-1-0.8-1.8-1.8-1.8H7.9C6.9,2.3,6,3.1,6,4.1V8.5z"/>
	</g>
</g>
</svg>
