<?xml version="1.0" encoding="utf-8"?>
<!-- Generator: Adobe Illustrator 18.0.0, SVG Export Plug-In . SVG Version: 6.00 Build 0)  -->
<!DOCTYPE svg PUBLIC "-//W3C//DTD SVG 1.1//EN" "http://www.w3.org/Graphics/SVG/1.1/DTD/svg11.dtd">
<svg version="1.1" id="Layer_1" xmlns="http://www.w3.org/2000/svg" xmlns:xlink="http://www.w3.org/1999/xlink" x="0px" y="0px"
	 viewBox="0 0 32 32" enable-background="new 0 0 32 32" xml:space="preserve">
<g>
	<g>
		<path fill="#74B1E0" d="M14.5,27.8c-0.2,0-0.4-0.1-0.5-0.2L4.5,18c-0.1-0.1-0.2-0.3-0.2-0.5c0-0.2,0.1-0.4,0.2-0.5L20,1.4
			c0.9-0.9,2.5-0.9,3.4,0l7.2,7.2c0.9,0.9,0.9,2.5,0,3.4L15.1,27.5C14.9,27.7,14.7,27.8,14.5,27.8z M6.1,17.5l8.5,8.5l15-15
			c0.4-0.4,0.4-0.9,0-1.3l-7.2-7.2c-0.3-0.3-0.9-0.3-1.3,0L6.1,17.5z"/>
	</g>
	<g>
		<line fill="#CDE4F7" x1="15.4" y1="20.1" x2="23.3" y2="12.1"/>
		
			<rect x="18.6" y="10.5" transform="matrix(0.7071 0.7071 -0.7071 0.7071 17.0498 -8.9595)" fill="#74B1E0" width="1.5" height="11.2"/>
	</g>
	<g>
		<line fill="#CDE4F7" x1="11.9" y1="16.6" x2="19.9" y2="8.7"/>
		
			<rect x="15.1" y="7.1" transform="matrix(0.7071 0.7071 -0.7071 0.7071 13.6071 -7.5334)" fill="#74B1E0" width="1.5" height="11.2"/>
	</g>
	<g>
		<polygon fill="#CDE4F7" points="5,17.5 2.7,26.1 5.9,29.3 14.5,27 		"/>
		<path fill="#74B1E0" d="M5.9,30.1c-0.2,0-0.4-0.1-0.5-0.2l-3.2-3.2c-0.2-0.2-0.3-0.5-0.2-0.7l2.3-8.7c0.1-0.3,0.3-0.5,0.5-0.5
			c0.3-0.1,0.5,0,0.7,0.2l9.6,9.6c0.2,0.2,0.3,0.5,0.2,0.7c-0.1,0.3-0.3,0.5-0.5,0.5L6.1,30C6,30.1,5.9,30.1,5.9,30.1z M3.5,25.9
			l2.6,2.6l7-1.9l-7.7-7.7L3.5,25.9z"/>
	</g>
	<g>
		<path fill="#74B1E0" d="M1.5,31.2c-0.2,0-0.4-0.1-0.5-0.2c-0.2-0.2-0.3-0.5-0.2-0.7l1.2-4.4c0.1-0.3,0.3-0.5,0.5-0.5
			c0.3-0.1,0.5,0,0.7,0.2l3.2,3.2c0.2,0.2,0.3,0.5,0.2,0.7C6.5,29.8,6.3,30,6.1,30l-4.4,1.2C1.6,31.2,1.6,31.2,1.5,31.2z M3,27.6
			l-0.5,1.9l1.9-0.5L3,27.6z"/>
	</g>
</g>
</svg>
