<?xml version="1.0" encoding="utf-8"?>
<!-- Generator: Adobe Illustrator 18.0.0, SVG Export Plug-In . SVG Version: 6.00 Build 0)  -->
<!DOCTYPE svg PUBLIC "-//W3C//DTD SVG 1.1//EN" "http://www.w3.org/Graphics/SVG/1.1/DTD/svg11.dtd">
<svg version="1.1" id="Layer_1" xmlns="http://www.w3.org/2000/svg" xmlns:xlink="http://www.w3.org/1999/xlink" x="0px" y="0px"
	 viewBox="0 0 32 32" enable-background="new 0 0 32 32" xml:space="preserve">
<g>
	<g>
		<path fill="#F0F7F7" d="M13.5,25.7V18c0-0.9-0.7-1.6-1.6-1.6h-1.5c-1.4,0-2.1-1.6-1.3-2.6l5.8-7.5l-0.7-0.9
			c-0.7-0.9-1.9-0.9-2.6,0L2.6,16.9c-0.8,1.1-0.1,2.6,1.3,2.6h1.5c0.9,0,1.6,0.7,1.6,1.6v7.7c0,0.9,0.7,1.6,1.6,1.6h8.1
			c0.9,0,1.6-0.7,1.6-1.6v-1.5h-3.4C14.2,27.3,13.5,26.6,13.5,25.7z"/>
		<path fill="#8F9BA8" d="M16.9,31.3H8.7c-1.3,0-2.4-1.1-2.4-2.4v-7.7c0-0.5-0.4-0.9-0.9-0.9H3.9c-0.9,0-1.7-0.5-2.1-1.3
			c-0.4-0.8-0.3-1.8,0.2-2.5l8.9-11.6c0.5-0.6,1.1-0.9,1.9-0.9c0.8,0,1.4,0.3,1.9,0.9l1,1.3l-6.1,8c-0.2,0.3-0.2,0.6-0.1,0.9
			c0.2,0.3,0.5,0.5,0.8,0.5h1.5c1.3,0,2.4,1.1,2.4,2.4v7.7c0,0.5,0.4,0.9,0.9,0.9h4.1v2.3C19.3,30.2,18.2,31.3,16.9,31.3z M12.8,5.4
			c-0.3,0-0.5,0.1-0.7,0.3L3.2,17.3C3,17.6,3,18,3.1,18.3c0.2,0.3,0.5,0.5,0.8,0.5h1.5c1.3,0,2.4,1.1,2.4,2.4v7.7
			c0,0.5,0.4,0.9,0.9,0.9h8.1c0.5,0,0.9-0.4,0.9-0.9v-0.8h-2.6c-1.3,0-2.4-1.1-2.4-2.4V18c0-0.5-0.4-0.9-0.9-0.9h-1.5
			c-0.9,0-1.7-0.5-2.1-1.3c-0.4-0.8-0.3-1.8,0.2-2.5l5.4-7l-0.3-0.4C13.3,5.6,13.1,5.4,12.8,5.4z"/>
	</g>
	<g>
		<path fill="#FFFFFF" d="M29.4,13.7L20.5,2.1c-0.7-0.9-1.9-0.9-2.6,0l-3.1,4L9,13.7c-0.8,1.1-0.1,2.6,1.3,2.6h1.5
			c0.9,0,1.6,0.7,1.6,1.6v7.7c0,0.9,0.7,1.6,1.6,1.6h3.4h4.7c0.9,0,1.6-0.7,1.6-1.6V18c0-0.9,0.7-1.6,1.6-1.6h1.5
			C29.4,16.3,30.2,14.8,29.4,13.7z"/>
		<path fill="#8F9BA8" d="M23.3,28.1h-8.1c-1.3,0-2.4-1.1-2.4-2.4V18c0-0.5-0.4-0.9-0.9-0.9h-1.5c-0.9,0-1.7-0.5-2.1-1.3
			c-0.4-0.8-0.3-1.8,0.2-2.5l8.9-11.6c0.5-0.6,1.1-0.9,1.9-0.9c0.8,0,1.4,0.3,1.9,0.9L30,13.2c0.6,0.7,0.7,1.7,0.2,2.5
			c-0.4,0.8-1.2,1.3-2.1,1.3h-1.5c-0.5,0-0.9,0.4-0.9,0.9v7.7C25.6,27,24.6,28.1,23.3,28.1z M19.2,2.3c-0.3,0-0.5,0.1-0.7,0.3
			L9.6,14.2c-0.2,0.3-0.2,0.6-0.1,0.9c0.2,0.3,0.5,0.5,0.8,0.5h1.5c1.3,0,2.4,1.1,2.4,2.4v7.7c0,0.5,0.4,0.9,0.9,0.9h8.1
			c0.5,0,0.9-0.4,0.9-0.9V18c0-1.3,1.1-2.4,2.4-2.4h1.5c0.3,0,0.6-0.2,0.8-0.5c0.2-0.3,0.1-0.7-0.1-0.9L19.9,2.6
			C19.7,2.4,19.5,2.3,19.2,2.3z"/>
	</g>
</g>
</svg>
