<?xml version="1.0" encoding="utf-8"?>
<!-- Generator: Adobe Illustrator 18.0.0, SVG Export Plug-In . SVG Version: 6.00 Build 0)  -->
<!DOCTYPE svg PUBLIC "-//W3C//DTD SVG 1.1//EN" "http://www.w3.org/Graphics/SVG/1.1/DTD/svg11.dtd">
<svg version="1.1" id="Layer_1" xmlns="http://www.w3.org/2000/svg" xmlns:xlink="http://www.w3.org/1999/xlink" x="0px" y="0px"
	 viewBox="0 0 32 32" enable-background="new 0 0 32 32" xml:space="preserve">
<g>
	<g>
		<path fill="#8F9BA8" d="M6.5,20.8L4.1,3.7L2.3,1.9l1.1-1.1l1.9,1.9C5.4,2.9,5.5,3,5.5,3.2L8,20.6L6.5,20.8z"/>
	</g>
	<g>
		<path fill="#8F9BA8" d="M25.2,25.1H7.4v-1.5h17.7c0.6,0,1.1-0.5,1.1-1.1c0-0.6-0.5-1.1-1.1-1.1h-0.7v-1.5h0.7
			c1.4,0,2.6,1.2,2.6,2.6C27.8,24,26.6,25.1,25.2,25.1z"/>
	</g>
	<g>
		<path fill="#8F9BA8" d="M24.4,21.4H7.2c-0.4,0-0.7-0.3-0.7-0.6L4.8,8.6c0-0.2,0-0.4,0.2-0.6c0.1-0.2,0.3-0.3,0.6-0.3h23.4
			c0.2,0,0.5,0.1,0.6,0.3c0.1,0.2,0.2,0.5,0.1,0.7l-4.5,12.2C25,21.2,24.7,21.4,24.4,21.4z M7.9,19.9h16l4-10.7H6.4L7.9,19.9z"/>
	</g>
	<g>
		<path fill="#B4A042" d="M22.5,31.1c-1.5,0-2.7-1.2-2.7-2.7s1.2-2.7,2.7-2.7s2.7,1.2,2.7,2.7S24,31.1,22.5,31.1z M22.5,27.3
			c-0.6,0-1.2,0.5-1.2,1.2c0,0.6,0.5,1.2,1.2,1.2s1.2-0.5,1.2-1.2C23.7,27.9,23.1,27.3,22.5,27.3z"/>
	</g>
	<g>
		<path fill="#B4A042" d="M11,31.1c-1.5,0-2.7-1.2-2.7-2.7s1.2-2.7,2.7-2.7s2.7,1.2,2.7,2.7S12.5,31.1,11,31.1z M11,27.3
			c-0.6,0-1.2,0.5-1.2,1.2c0,0.6,0.5,1.2,1.2,1.2c0.6,0,1.2-0.5,1.2-1.2C12.2,27.9,11.7,27.3,11,27.3z"/>
	</g>
</g>
</svg>
