<?xml version="1.0" encoding="utf-8"?>
<!-- Generator: Adobe Illustrator 18.0.0, SVG Export Plug-In . SVG Version: 6.00 Build 0)  -->
<!DOCTYPE svg PUBLIC "-//W3C//DTD SVG 1.1//EN" "http://www.w3.org/Graphics/SVG/1.1/DTD/svg11.dtd">
<svg version="1.1" id="Layer_1" xmlns="http://www.w3.org/2000/svg" xmlns:xlink="http://www.w3.org/1999/xlink" x="0px" y="0px"
	 viewBox="0 0 32 32" enable-background="new 0 0 32 32" xml:space="preserve">
<g>
	<g>
		<path fill="#74B1E0" d="M4.1,29.7v-6.1H2.9c-1.2,0-2.1-0.9-2.1-2.1V4.4c0-1.2,0.9-2.1,2.1-2.1h26.3c1.2,0,2.1,0.9,2.1,2.1v17.1
			c0,1.2-0.9,2.1-2.1,2.1H13L4.1,29.7z M2.9,3.8c-0.3,0-0.6,0.3-0.6,0.6v17.1c0,0.3,0.3,0.6,0.6,0.6h2.7v4.7l6.9-4.7h16.6
			c0.3,0,0.6-0.3,0.6-0.6V4.4c0-0.3-0.3-0.6-0.6-0.6C29.1,3.8,2.9,3.8,2.9,3.8z"/>
	</g>
	<g>
		<g>
			<rect x="7.3" y="11.3" fill="#74B1E0" width="1.5" height="2.4"/>
		</g>
		<g>
			<rect x="15.3" y="11.3" fill="#74B1E0" width="1.5" height="2.4"/>
		</g>
		<g>
			<rect x="23.2" y="11.3" fill="#74B1E0" width="1.5" height="2.4"/>
		</g>
	</g>
</g>
</svg>
