<?xml version="1.0" encoding="utf-8"?>
<!-- Generator: Adobe Illustrator 18.0.0, SVG Export Plug-In . SVG Version: 6.00 Build 0)  -->
<!DOCTYPE svg PUBLIC "-//W3C//DTD SVG 1.1//EN" "http://www.w3.org/Graphics/SVG/1.1/DTD/svg11.dtd">
<svg version="1.1" id="Layer_1" xmlns="http://www.w3.org/2000/svg" xmlns:xlink="http://www.w3.org/1999/xlink" x="0px" y="0px"
	 viewBox="0 0 32 32" enable-background="new 0 0 32 32" xml:space="preserve">
<g>
	<g>
		<rect x="24" y="14.4" fill="#8F9BA8" width="1.5" height="3.4"/>
	</g>
	<g>
		<rect x="6.5" y="14.4" fill="#8F9BA8" width="1.5" height="3.4"/>
	</g>
	<g>
		<path fill="#8F9BA8" d="M22.4,8.7H9.6v-3c0-1.6,1.3-2.8,2.8-2.8h7.1c1.6,0,2.8,1.3,2.8,2.8V8.7z M11.1,7.2h9.8V5.7
			c0-0.7-0.6-1.3-1.3-1.3h-7.1c-0.7,0-1.3,0.6-1.3,1.3V7.2z"/>
	</g>
	<g>
		<path fill="#8F9BA8" d="M27.6,29.1H4.4c-2,0-3.6-1.6-3.6-3.6V13.7h30.5v11.8C31.3,27.5,29.6,29.1,27.6,29.1z M2.3,15.2v10.3
			c0,1.2,0.9,2.1,2.1,2.1h23.3c1.2,0,2.1-0.9,2.1-2.1V15.2H2.3z"/>
	</g>
	<g>
		<path fill="#8F9BA8" d="M31.3,15.2H0.8v-4.4c0-2,1.6-3.6,3.6-3.6h23.3c2,0,3.6,1.6,3.6,3.6V15.2z M2.3,13.7h27.5v-2.9
			c0-1.2-0.9-2.1-2.1-2.1H4.4c-1.2,0-2.1,0.9-2.1,2.1V13.7z"/>
	</g>
</g>
</svg>
