<?xml version="1.0" encoding="utf-8"?>
<!-- Generator: Adobe Illustrator 18.0.0, SVG Export Plug-In . SVG Version: 6.00 Build 0)  -->
<!DOCTYPE svg PUBLIC "-//W3C//DTD SVG 1.1//EN" "http://www.w3.org/Graphics/SVG/1.1/DTD/svg11.dtd">
<svg version="1.1" id="Layer_1" xmlns="http://www.w3.org/2000/svg" xmlns:xlink="http://www.w3.org/1999/xlink" x="0px" y="0px"
	 viewBox="0 0 32 32" enable-background="new 0 0 32 32" xml:space="preserve">
<g>
	<g>
		<path fill="#B4A79C" d="M30.5,31.2h-29c-0.4,0-0.8-0.3-0.8-0.8V12.9c0-0.3,0.2-0.5,0.4-0.7c0.3-0.1,0.6-0.1,0.8,0.1l10.4,8.2h7.4
			L30,12.3c0.2-0.2,0.5-0.2,0.8-0.1c0.3,0.1,0.4,0.4,0.4,0.7v17.6C31.3,30.9,30.9,31.2,30.5,31.2z M2.3,29.7h27.5V14.5l-9.3,7.4
			c-0.1,0.1-0.3,0.2-0.5,0.2h-7.9c-0.2,0-0.3-0.1-0.5-0.2l-9.3-7.4C2.3,14.5,2.3,29.7,2.3,29.7z"/>
	</g>
	<g>
		
			<rect x="18.2" y="25.1" transform="matrix(-0.7513 -0.66 0.66 -0.7513 27.144 61.9758)" fill="#B4A79C" width="14.1" height="1.5"/>
	</g>
	<g>
		
			<rect x="6" y="18.8" transform="matrix(-0.6601 -0.7512 0.7512 -0.6601 -8.1685 47.9688)" fill="#B4A79C" width="1.5" height="14.1"/>
	</g>
	<g>
		<polygon fill="#F9F8F2" points="16,1.5 1.5,12.9 12.1,21.2 19.9,21.2 30.5,12.9 		"/>
		<path fill="#B4A79C" d="M19.9,22H12c-0.2,0-0.3-0.1-0.5-0.2L1,13.5c-0.2-0.1-0.3-0.4-0.3-0.6c0-0.2,0.1-0.4,0.3-0.6L15.5,0.9
			c0.3-0.2,0.7-0.2,0.9,0L31,12.3c0.2,0.1,0.3,0.4,0.3,0.6c0,0.2-0.1,0.4-0.3,0.6l-10.6,8.3C20.3,21.9,20.1,22,19.9,22z M12.3,20.5
			h7.4l9.6-7.6L16,2.5L2.7,12.9L12.3,20.5z"/>
	</g>
</g>
</svg>
