<?xml version="1.0" encoding="utf-8"?>
<!-- Generator: Adobe Illustrator 18.0.0, SVG Export Plug-In . SVG Version: 6.00 Build 0)  -->
<!DOCTYPE svg PUBLIC "-//W3C//DTD SVG 1.1//EN" "http://www.w3.org/Graphics/SVG/1.1/DTD/svg11.dtd">
<svg version="1.1" id="Layer_1" xmlns="http://www.w3.org/2000/svg" xmlns:xlink="http://www.w3.org/1999/xlink" x="0px" y="0px"
	 viewBox="0 0 32 32" enable-background="new 0 0 32 32" xml:space="preserve">
<g>
	<g>
		<path fill="#74B1E0" d="M30.5,26.2h-29c-0.4,0-0.8-0.3-0.8-0.8v-19c0-0.4,0.3-0.8,0.8-0.8h29c0.4,0,0.8,0.3,0.8,0.8v19
			C31.2,25.9,30.9,26.2,30.5,26.2z M2.2,24.7h27.5V7.3H2.2V24.7z"/>
	</g>
	<g>
		
			<rect x="19" y="20" transform="matrix(0.7071 0.7071 -0.7071 0.7071 22.1768 -12.1133)" fill="#74B1E0" width="13.5" height="1.5"/>
	</g>
	<g>
		<rect x="5.5" y="14" transform="matrix(0.7071 0.7071 -0.7071 0.7071 16.4843 1.627)" fill="#74B1E0" width="1.5" height="13.5"/>
	</g>
	<g>
		<polygon fill="#CDE4F7" points="1.5,6.5 16,20.8 30.5,6.5 		"/>
		<path fill="#74B1E0" d="M16,21.5c-0.2,0-0.4-0.1-0.5-0.2L1,7C0.8,6.8,0.7,6.5,0.8,6.2c0.1-0.3,0.4-0.5,0.7-0.5h29
			c0.3,0,0.6,0.2,0.7,0.5c0.1,0.3,0,0.6-0.2,0.8L16.5,21.3C16.4,21.5,16.2,21.5,16,21.5z M3.3,7.3L16,19.7L28.7,7.3H3.3z"/>
	</g>
</g>
</svg>
