<?xml version="1.0" encoding="utf-8"?>
<!-- Generator: Adobe Illustrator 18.0.0, SVG Export Plug-In . SVG Version: 6.00 Build 0)  -->
<!DOCTYPE svg PUBLIC "-//W3C//DTD SVG 1.1//EN" "http://www.w3.org/Graphics/SVG/1.1/DTD/svg11.dtd">
<svg version="1.1" id="Layer_1" xmlns="http://www.w3.org/2000/svg" xmlns:xlink="http://www.w3.org/1999/xlink" x="0px" y="0px"
	 viewBox="0 0 32 32" enable-background="new 0 0 32 32" xml:space="preserve">
<g>
	<g>
		<path fill="#F0F7F7" d="M30.5,3.5c0-1.1-0.9-2-2-2h-25c-1.1,0-2,0.9-2,2v3.7h29V3.5z"/>
		<path fill="#8F9BA8" d="M30.5,7.9h-29c-0.4,0-0.8-0.3-0.8-0.8V3.5C0.8,2,2,0.8,3.5,0.8h25c1.5,0,2.7,1.2,2.7,2.7v3.7
			C31.3,7.6,30.9,7.9,30.5,7.9z M2.3,6.4h27.5V3.5c0-0.7-0.6-1.2-1.2-1.2h-25c-0.7,0-1.2,0.6-1.2,1.2V6.4z"/>
	</g>
	<g>
		<rect x="4.4" y="3.6" fill="#8F9BA8" width="1.5" height="1.5"/>
	</g>
	<g>
		<rect x="7.6" y="3.6" fill="#8F9BA8" width="1.5" height="1.5"/>
	</g>
	<g>
		<rect x="10.9" y="3.6" fill="#8F9BA8" width="1.5" height="1.5"/>
	</g>
	<g>
		<path fill="#8F9BA8" d="M28.5,23.4H22l0.3-1c0.7-2.4,0.8-4.6,0.9-5.6c-3.9-1.1-6-2.3-7.2-3.3c-1.2,1-3.3,2.2-7.2,3.3
			c0,1,0.1,3.3,0.9,5.6l0.3,1H3.5c-1.5,0-2.7-1.2-2.7-2.7V6.4h30.5v14.2C31.3,22.1,30,23.4,28.5,23.4z M24,21.9h4.5
			c0.7,0,1.2-0.6,1.2-1.2V7.9H2.3v12.7c0,0.7,0.6,1.2,1.2,1.2H8c-0.8-3-0.7-5.6-0.7-5.7l0-0.6l0.5-0.1c4.8-1.3,6.8-2.8,7.6-3.5
			l0.5-0.5l0.5,0.5c0.8,0.8,2.8,2.2,7.6,3.5l0.5,0.1l0,0.6C24.7,16.3,24.8,18.8,24,21.9z"/>
	</g>
	<g>
		<path fill="#79C693" d="M16,31.3c-0.1,0-0.1,0-0.2,0c-3.6-1.1-6.2-4-7.5-8.4c-1-3.4-0.9-6.5-0.9-6.7c0-0.3,0.2-0.6,0.6-0.7
			c4.8-1.3,6.8-2.8,7.6-3.5c0.3-0.3,0.8-0.3,1.1,0c0.8,0.8,2.8,2.2,7.6,3.5c0.3,0.1,0.5,0.4,0.6,0.7c0,0.1,0.1,3.2-0.9,6.7
			c-1.3,4.4-3.9,7.3-7.5,8.4C16.1,31.2,16.1,31.3,16,31.3z M8.8,16.8c0,1,0.1,3.3,0.9,5.6c1.2,3.8,3.3,6.3,6.3,7.3
			c3-1,5.2-3.5,6.3-7.3c0.7-2.4,0.8-4.6,0.9-5.6c-3.9-1.1-6-2.3-7.2-3.3C14.8,14.5,12.7,15.7,8.8,16.8z"/>
	</g>
</g>
</svg>
