<?xml version="1.0" encoding="utf-8"?>
<!-- Generator: Adobe Illustrator 18.0.0, SVG Export Plug-In . SVG Version: 6.00 Build 0)  -->
<!DOCTYPE svg PUBLIC "-//W3C//DTD SVG 1.1//EN" "http://www.w3.org/Graphics/SVG/1.1/DTD/svg11.dtd">
<svg version="1.1" id="Layer_1" xmlns="http://www.w3.org/2000/svg" xmlns:xlink="http://www.w3.org/1999/xlink" x="0px" y="0px"
	 viewBox="0 0 32 32" enable-background="new 0 0 32 32" xml:space="preserve">
<g>
	<g>
		<path fill="#79C693" d="M23.8,31.3H8.2c-1.3,0-2.3-1-2.3-2.3V3c0-1.3,1-2.3,2.3-2.3h15.6c1.3,0,2.3,1,2.3,2.3v26
			C26.1,30.2,25,31.3,23.8,31.3z M8.2,2.3C7.8,2.3,7.4,2.6,7.4,3v26c0,0.4,0.3,0.8,0.8,0.8h15.6c0.4,0,0.8-0.3,0.8-0.8V3
			c0-0.4-0.3-0.8-0.8-0.8H8.2z"/>
	</g>
	<g>
		<rect x="10" y="5.1" fill="#8F9BA8" width="11.9" height="1.5"/>
	</g>
	<g>
		<rect x="10" y="9.2" fill="#8F9BA8" width="11.9" height="1.5"/>
	</g>
	<g>
		<rect x="10" y="13.3" fill="#8F9BA8" width="11.9" height="1.5"/>
	</g>
	<g>
		<path fill="#79C693" d="M16,26.9c-1.6,0-2.8-1.3-2.8-2.8c0-1.6,1.3-2.8,2.8-2.8c1.6,0,2.8,1.3,2.8,2.8
			C18.8,25.6,17.6,26.9,16,26.9z M16,22.7c-0.7,0-1.3,0.6-1.3,1.3s0.6,1.3,1.3,1.3s1.3-0.6,1.3-1.3S16.7,22.7,16,22.7z"/>
	</g>
</g>
</svg>
