<?xml version="1.0" encoding="utf-8"?>
<!-- Generator: Adobe Illustrator 18.0.0, SVG Export Plug-In . SVG Version: 6.00 Build 0)  -->
<!DOCTYPE svg PUBLIC "-//W3C//DTD SVG 1.1//EN" "http://www.w3.org/Graphics/SVG/1.1/DTD/svg11.dtd">
<svg version="1.1" id="Layer_1" xmlns="http://www.w3.org/2000/svg" xmlns:xlink="http://www.w3.org/1999/xlink" x="0px" y="0px"
	 viewBox="0 0 32 32" enable-background="new 0 0 32 32" xml:space="preserve">
<g>
	<g>
		<path fill="#DA8C8C" d="M16,22.2c-1.4,0-2.6-1.2-2.6-2.6c0-1.4,1.2-2.6,2.6-2.6s2.6,1.2,2.6,2.6C18.6,21,17.4,22.2,16,22.2z
			 M16,18.5c-0.6,0-1.1,0.5-1.1,1.1c0,0.6,0.5,1.1,1.1,1.1c0.6,0,1.1-0.5,1.1-1.1C17.1,19,16.6,18.5,16,18.5z"/>
	</g>
	<g>
		<path fill="#DA8C8C" d="M16,25.7c-0.4,0-0.8-0.3-0.8-0.8v-3.5c0-0.4,0.3-0.8,0.8-0.8c0.4,0,0.8,0.3,0.8,0.8V25
			C16.7,25.4,16.4,25.7,16,25.7z"/>
	</g>
	<g>
		<path fill="#DA8C8C" d="M22.6,14.3h-1.5V7.3c0-2.8-2.3-5.1-5.1-5.1s-5.1,2.3-5.1,5.1v1.1H9.4V7.3c0-3.6,3-6.6,6.6-6.6
			c3.6,0,6.6,3,6.6,6.6V14.3z"/>
	</g>
	<g>
		<path fill="#DA8C8C" d="M16,31.3c-5.5,0-9.9-4.5-9.9-9.9c0-3,1.3-5.8,3.6-7.7c1.8-1.5,4-2.3,6.3-2.3c2.3,0,4.5,0.8,6.3,2.3
			c2.3,1.9,3.6,4.7,3.6,7.7C25.9,26.8,21.5,31.3,16,31.3z M16,12.9c-1.9,0-3.8,0.7-5.4,1.9c-1.9,1.6-3.1,4-3.1,6.5
			c0,4.6,3.8,8.4,8.4,8.4c4.6,0,8.4-3.8,8.4-8.4c0-2.5-1.1-4.9-3.1-6.5C19.9,13.6,17.9,12.9,16,12.9z"/>
	</g>
</g>
</svg>
