<?xml version="1.0" encoding="utf-8"?>
<!-- Generator: Adobe Illustrator 18.0.0, SVG Export Plug-In . SVG Version: 6.00 Build 0)  -->
<!DOCTYPE svg PUBLIC "-//W3C//DTD SVG 1.1//EN" "http://www.w3.org/Graphics/SVG/1.1/DTD/svg11.dtd">
<svg version="1.1" id="Layer_1" xmlns="http://www.w3.org/2000/svg" xmlns:xlink="http://www.w3.org/1999/xlink" x="0px" y="0px"
	 viewBox="0 0 32 32" enable-background="new 0 0 32 32" xml:space="preserve">
<g>
	<g>
		
			<rect x="17.8" y="4.4" transform="matrix(0.7071 0.7071 -0.7071 0.7071 12.8154 -14.3157)" fill="#F9F8F2" width="11.7" height="7.8"/>
		<path fill="#B4A79C" d="M25.1,16.3l-9.3-9.3l6.5-6.5l9.3,9.3L25.1,16.3z M17.9,6.9l7.2,7.2l4.4-4.4l-7.2-7.2L17.9,6.9z"/>
	</g>
	<g>
		
			<rect x="21.9" y="4.5" transform="matrix(0.7071 0.7071 -0.7071 0.7071 10.5487 -14.4029)" fill="#B4A79C" width="1.5" height="2"/>
	</g>
	<g>
		
			<rect x="25.7" y="8.3" transform="matrix(0.7071 0.7071 -0.7071 0.7071 14.3553 -15.9796)" fill="#B4A79C" width="1.5" height="2"/>
	</g>
	<g>
		<path fill="#B4A79C" d="M11.6,31.6c-0.8,0-1.5-0.3-2-0.8l-8.4-8.4c-1.1-1.1-1.1-2.9,0-4.1l14-14l12.4,12.4l-14,14
			C13.1,31.3,12.4,31.6,11.6,31.6z M15.3,6.4l-13,13c-0.5,0.5-0.5,1.4,0,1.9l8.4,8.4c0.5,0.5,1.4,0.5,1.9,0l13-13L15.3,6.4z"/>
	</g>
	<g>
		<path fill="#8F9BA8" d="M9,25.5c-0.7,0-1.3-0.3-1.8-0.7c-0.5-0.5-0.8-1.1-0.8-1.8c0-0.7,0.3-1.3,0.8-1.8c1-1,2.7-1,3.6,0
			c1,1,1,2.6,0,3.6C10.4,25.3,9.7,25.5,9,25.5z M9,21.9c-0.3,0-0.5,0.1-0.7,0.3C8.1,22.4,8,22.7,8,23c0,0.3,0.1,0.5,0.3,0.7
			c0.4,0.4,1.1,0.4,1.5,0c0.4-0.4,0.4-1.1,0-1.5C9.6,22,9.3,21.9,9,21.9z"/>
	</g>
	<g>
		
			<rect x="14" y="11.1" transform="matrix(0.7071 0.7071 -0.7071 0.7071 16.5331 -5.3423)" fill="#8F9BA8" width="1.5" height="12.5"/>
	</g>
	<g>
		<polygon fill="#8F9BA8" points="18.9,20.2 13.4,19.2 13.7,17.7 18.4,18.5 20.4,16.5 21.5,17.6 		"/>
	</g>
	<g>
		<polygon fill="#8F9BA8" points="10.8,20.6 9.8,15.1 12.4,12.6 13.5,13.6 11.4,15.6 12.3,20.3 		"/>
	</g>
</g>
</svg>
