<?xml version="1.0" encoding="utf-8"?>
<!-- Generator: Adobe Illustrator 18.0.0, SVG Export Plug-In . SVG Version: 6.00 Build 0)  -->
<!DOCTYPE svg PUBLIC "-//W3C//DTD SVG 1.1//EN" "http://www.w3.org/Graphics/SVG/1.1/DTD/svg11.dtd">
<svg version="1.1" id="Layer_1" xmlns="http://www.w3.org/2000/svg" xmlns:xlink="http://www.w3.org/1999/xlink" x="0px" y="0px"
	 viewBox="0 0 32 32" enable-background="new 0 0 32 32" xml:space="preserve">
<g>
	<g>
		<path fill="#74B1E0" d="M28.5,27.3h-25c-1.5,0-2.7-1.2-2.7-2.7V10.3h30.5v14.2C31.3,26.1,30,27.3,28.5,27.3z M2.3,11.8v12.7
			c0,0.7,0.6,1.2,1.2,1.2h25c0.7,0,1.2-0.6,1.2-1.2V11.8H2.3z"/>
	</g>
	<g>
		
			<rect x="15.2" y="15.1" transform="matrix(0.7071 0.7071 -0.7071 0.7071 17.994 -5.8008)" fill="#74B1E0" width="1.5" height="7.5"/>
	</g>
	<g>
		
			<rect x="12.2" y="18.1" transform="matrix(0.7071 0.7071 -0.7071 0.7071 17.9948 -5.8007)" fill="#74B1E0" width="7.5" height="1.5"/>
	</g>
	<g>
		<path fill="#CDE4F7" d="M30.5,7.4c0-1.1-0.9-2-2-2h-25c-1.1,0-2,0.9-2,2v3.7h29V7.4z"/>
		<path fill="#74B1E0" d="M31.3,11.8H0.8V7.4c0-1.5,1.2-2.7,2.7-2.7h25c1.5,0,2.7,1.2,2.7,2.7V11.8z M2.3,10.3h27.5V7.4
			c0-0.7-0.6-1.2-1.2-1.2h-25c-0.7,0-1.2,0.6-1.2,1.2V10.3z"/>
	</g>
	<g>
		<line fill="#CDE4F7" x1="5.2" y1="7.5" x2="5.2" y2="9"/>
		<rect x="4.4" y="7.5" fill="#74B1E0" width="1.5" height="1.5"/>
	</g>
	<g>
		<line fill="#CDE4F7" x1="8.4" y1="7.5" x2="8.4" y2="9"/>
		<rect x="7.6" y="7.5" fill="#74B1E0" width="1.5" height="1.5"/>
	</g>
	<g>
		<line fill="#CDE4F7" x1="11.6" y1="7.5" x2="11.6" y2="9"/>
		<rect x="10.9" y="7.5" fill="#74B1E0" width="1.5" height="1.5"/>
	</g>
</g>
</svg>
