<?xml version="1.0" encoding="utf-8"?>
<!-- Generator: Adobe Illustrator 18.0.0, SVG Export Plug-In . SVG Version: 6.00 Build 0)  -->
<!DOCTYPE svg PUBLIC "-//W3C//DTD SVG 1.1//EN" "http://www.w3.org/Graphics/SVG/1.1/DTD/svg11.dtd">
<svg version="1.1" id="Layer_1" xmlns="http://www.w3.org/2000/svg" xmlns:xlink="http://www.w3.org/1999/xlink" x="0px" y="0px"
	 viewBox="0 0 32 32" enable-background="new 0 0 32 32" xml:space="preserve">
<g>
	<g>
		<path fill="#FFFFFF" d="M26.8,29.2H5.2c-1.5,0-2.7-1.2-2.7-2.7l0,0c0-1.5,1.2-2.7,2.7-2.7h21.6c1.5,0,2.7,1.2,2.7,2.7l0,0
			C29.5,28,28.3,29.2,26.8,29.2z"/>
		<path fill="#8F9BA8" d="M26.8,30H5.2c-1.9,0-3.4-1.5-3.4-3.4c0-1.9,1.5-3.4,3.4-3.4h21.6c1.9,0,3.4,1.5,3.4,3.4
			C30.2,28.5,28.7,30,26.8,30z M5.2,24.6c-1.1,0-1.9,0.9-1.9,1.9c0,1.1,0.9,1.9,1.9,1.9h21.6c1.1,0,1.9-0.9,1.9-1.9
			c0-1.1-0.9-1.9-1.9-1.9H5.2z"/>
	</g>
	<g>
		<path fill="#8F9BA8" d="M28.7,24.6H3.3c-1.4,0-2.5-1.1-2.5-2.5V4.6C0.8,3.2,1.9,2,3.3,2h25.4c1.4,0,2.5,1.1,2.5,2.5v17.5
			C31.3,23.5,30.1,24.6,28.7,24.6z M3.3,3.5c-0.6,0-1,0.5-1,1v17.5c0,0.6,0.5,1,1,1h25.4c0.6,0,1-0.5,1-1V4.6c0-0.6-0.5-1-1-1H3.3z"
			/>
	</g>
	<g>
		<rect x="5.5" y="6.8" fill="#FAC2C3" width="21" height="13.1"/>
		<path fill="#DA8C8C" d="M27.3,20.6H4.8V6h22.5V20.6z M6.3,19.1h19.5V7.5H6.3V19.1z"/>
	</g>
</g>
</svg>
