<?xml version="1.0" encoding="utf-8"?>
<!-- Generator: Adobe Illustrator 18.0.0, SVG Export Plug-In . SVG Version: 6.00 Build 0)  -->
<!DOCTYPE svg PUBLIC "-//W3C//DTD SVG 1.1//EN" "http://www.w3.org/Graphics/SVG/1.1/DTD/svg11.dtd">
<svg version="1.1" id="Layer_1" xmlns="http://www.w3.org/2000/svg" xmlns:xlink="http://www.w3.org/1999/xlink" x="0px" y="0px"
	 viewBox="0 0 32 32" enable-background="new 0 0 32 32" xml:space="preserve">
<g>
	<g>
		<path fill="#B4A79C" d="M28.5,30.3h-25c-1.5,0-2.7-1.2-2.7-2.7V11.7h30.5v15.9C31.3,29.1,30,30.3,28.5,30.3z M2.3,13.2v14.4
			c0,0.7,0.6,1.2,1.2,1.2h25c0.7,0,1.2-0.6,1.2-1.2V13.2H2.3z"/>
	</g>
	<g>
		<path fill="#F9F8F2" d="M30.5,8.4c0-1.1-0.9-2-2-2c-1.1,0-2-0.9-2-2v0c0-1.1-0.9-2-2-2h-3.4c-1.1,0-2,0.9-2,2v0c0,1.1-0.9,2-2,2
			H3.5c-1.1,0-2,0.9-2,2v4.1h29V8.4z"/>
		<path fill="#B4A79C" d="M30.5,13.2h-29c-0.4,0-0.8-0.3-0.8-0.8V8.4c0-1.5,1.2-2.7,2.7-2.7h13.7c0.7,0,1.2-0.6,1.2-1.2
			c0-1.5,1.2-2.7,2.7-2.7h3.4c1.5,0,2.7,1.2,2.7,2.7c0,0.7,0.6,1.2,1.2,1.2c1.5,0,2.7,1.2,2.7,2.7v4.1
			C31.3,12.9,30.9,13.2,30.5,13.2z M2.3,11.7h27.5V8.4c0-0.7-0.6-1.2-1.2-1.2c-1.5,0-2.7-1.2-2.7-2.7c0-0.7-0.6-1.2-1.2-1.2h-3.4
			c-0.7,0-1.2,0.6-1.2,1.2c0,1.5-1.2,2.7-2.7,2.7H3.5c-0.7,0-1.2,0.6-1.2,1.2V11.7z"/>
	</g>
</g>
</svg>
