<?xml version="1.0" encoding="utf-8"?>
<!-- Generator: Adobe Illustrator 18.0.0, SVG Export Plug-In . SVG Version: 6.00 Build 0)  -->
<!DOCTYPE svg PUBLIC "-//W3C//DTD SVG 1.1//EN" "http://www.w3.org/Graphics/SVG/1.1/DTD/svg11.dtd">
<svg version="1.1" id="Layer_1" xmlns="http://www.w3.org/2000/svg" xmlns:xlink="http://www.w3.org/1999/xlink" x="0px" y="0px"
	 viewBox="0 0 32 32" enable-background="new 0 0 32 32" xml:space="preserve">
<g>
	<g>
		<path fill="#74B1E0" d="M26.2,26.2H5.8V4.5h20.4V26.2z M7.3,24.7h17.4V6H7.3V24.7z"/>
	</g>
	<g>
		<path fill="#CDE4F7" d="M25.5,4c0-1.4-1.1-2.5-2.5-2.5H9C7.6,1.5,6.5,2.6,6.5,4v1.3h18.9V4z"/>
		<path fill="#74B1E0" d="M25.5,6H6.5C6.1,6,5.8,5.7,5.8,5.3V4c0-1.8,1.4-3.2,3.2-3.2h14c1.8,0,3.2,1.4,3.2,3.2v1.3
			C26.2,5.7,25.9,6,25.5,6z M7.3,4.5h17.4V4c0-1-0.8-1.7-1.7-1.7H9C8.1,2.3,7.3,3,7.3,4V4.5z"/>
	</g>
	<g>
		<path fill="#CDE4F7" d="M6.5,28c0,1.4,1.1,2.5,2.5,2.5h14c1.4,0,2.5-1.1,2.5-2.5v-2.6H6.5V28z"/>
		<path fill="#74B1E0" d="M23,31.3H9c-1.8,0-3.2-1.4-3.2-3.2v-2.6c0-0.4,0.3-0.8,0.8-0.8h18.9c0.4,0,0.8,0.3,0.8,0.8V28
			C26.2,29.8,24.8,31.3,23,31.3z M7.3,26.2V28c0,1,0.8,1.7,1.7,1.7h14c1,0,1.7-0.8,1.7-1.7v-1.9H7.3z"/>
	</g>
	<g>
		<line fill="#CDE4F7" x1="15" y1="28" x2="17" y2="28"/>
		<rect x="15" y="27.3" fill="#74B1E0" width="2" height="1.5"/>
	</g>
</g>
</svg>
