<?xml version="1.0" encoding="utf-8"?>
<!-- Generator: Adobe Illustrator 18.0.0, SVG Export Plug-In . SVG Version: 6.00 Build 0)  -->
<!DOCTYPE svg PUBLIC "-//W3C//DTD SVG 1.1//EN" "http://www.w3.org/Graphics/SVG/1.1/DTD/svg11.dtd">
<svg version="1.1" id="Layer_1" xmlns="http://www.w3.org/2000/svg" xmlns:xlink="http://www.w3.org/1999/xlink" x="0px" y="0px"
	 viewBox="0 0 32 32" enable-background="new 0 0 32 32" xml:space="preserve">
<g>
	<g>
		<path fill="#8F9BA8" d="M29.1,31.3H2.9l3-22.9h20.2L29.1,31.3z M4.6,29.8h22.7L24.8,9.8H7.2L4.6,29.8z"/>
	</g>
	<g>
		<path fill="#8F9BA8" d="M21.8,12.7h-1.5V6.5c0-2.4-1.9-4.3-4.3-4.3c-2.4,0-4.3,1.9-4.3,4.3v6.2h-1.5V6.5c0-3.2,2.6-5.8,5.8-5.8
			c3.2,0,5.8,2.6,5.8,5.8V12.7z"/>
	</g>
	<g>
		<path fill="none" stroke="#8F9BA8" stroke-width="1.5" stroke-miterlimit="10" d="M16.6,12.7"/>
	</g>
	<g>
		<path fill="#8F9BA8" d="M21,16.3c-1.3,0-2.3-1-2.3-2.3s1-2.3,2.3-2.3c1.3,0,2.3,1,2.3,2.3S22.3,16.3,21,16.3z M21,13.3
			c-0.4,0-0.8,0.4-0.8,0.8c0,0.4,0.4,0.8,0.8,0.8c0.4,0,0.8-0.4,0.8-0.8C21.8,13.6,21.5,13.3,21,13.3z"/>
	</g>
	<g>
		<path fill="#8F9BA8" d="M11,16.3c-1.3,0-2.3-1-2.3-2.3s1-2.3,2.3-2.3s2.3,1,2.3,2.3S12.2,16.3,11,16.3z M11,13.3
			c-0.4,0-0.8,0.4-0.8,0.8c0,0.4,0.3,0.8,0.8,0.8c0.4,0,0.8-0.4,0.8-0.8C11.7,13.6,11.4,13.3,11,13.3z"/>
	</g>
</g>
</svg>
