<?xml version="1.0" encoding="utf-8"?>
<!-- Generator: Adobe Illustrator 18.0.0, SVG Export Plug-In . SVG Version: 6.00 Build 0)  -->
<!DOCTYPE svg PUBLIC "-//W3C//DTD SVG 1.1//EN" "http://www.w3.org/Graphics/SVG/1.1/DTD/svg11.dtd">
<svg version="1.1" id="Layer_1" xmlns="http://www.w3.org/2000/svg" xmlns:xlink="http://www.w3.org/1999/xlink" x="0px" y="0px"
	 viewBox="0 0 32 32" enable-background="new 0 0 32 32" xml:space="preserve">
<g>
	<g>
		<path fill="#B4A042" d="M27.3,30.8h-7.1c-0.4,0-0.8-0.3-0.8-0.8c0-0.4,0.3-0.8,0.8-0.8c1.4,0,2.5-1.1,2.5-2.5V11.3
			c0-1.4-1.1-2.5-2.5-2.5h-3.9c-0.4,0-0.8-0.3-0.8-0.8V5.2c0-2.2,1.8-4,4-4h7.7c2.2,0,4,1.8,4,4v21.5C31.3,29,29.5,30.8,27.3,30.8z
			 M23.3,29.3h4c1.4,0,2.5-1.1,2.5-2.5V5.2c0-1.4-1.1-2.5-2.5-2.5h-7.7c-1.4,0-2.5,1.1-2.5,2.5v2.1h3.1c2.2,0,4,1.8,4,4v15.4
			C24.2,27.7,23.8,28.6,23.3,29.3z"/>
	</g>
	<g>
		<path fill="#B4A79C" d="M20.2,30.8H4.7c-2.2,0-4-1.8-4-4V11.3c0-2.2,1.8-4,4-4h15.4c2.2,0,4,1.8,4,4v15.4
			C24.2,29,22.4,30.8,20.2,30.8z M4.7,8.8c-1.4,0-2.5,1.1-2.5,2.5v15.4c0,1.4,1.1,2.5,2.5,2.5h15.4c1.4,0,2.5-1.1,2.5-2.5V11.3
			c0-1.4-1.1-2.5-2.5-2.5H4.7z"/>
	</g>
</g>
</svg>
