<?xml version="1.0" encoding="utf-8"?>
<!-- Generator: Adobe Illustrator 18.0.0, SVG Export Plug-In . SVG Version: 6.00 Build 0)  -->
<!DOCTYPE svg PUBLIC "-//W3C//DTD SVG 1.1//EN" "http://www.w3.org/Graphics/SVG/1.1/DTD/svg11.dtd">
<svg version="1.1" id="Layer_1" xmlns="http://www.w3.org/2000/svg" xmlns:xlink="http://www.w3.org/1999/xlink" x="0px" y="0px"
	 viewBox="0 0 32 32" enable-background="new 0 0 32 32" xml:space="preserve">
<g>
	<g>
		<rect x="15.3" y="11" fill="#CF817F" width="1.5" height="13.7"/>
	</g>
	<g>
		<path fill="#CF817F" d="M28.3,24.6h-1.5v-6.1H5.2v6.1H3.7v-6.8C3.7,17.4,4,17,4.4,17h23.1c0.4,0,0.8,0.3,0.8,0.8V24.6z"/>
	</g>
	<g>
		<path fill="#F7DCE5" d="M19.1,11h-6.2c-0.9,0-1.6-0.7-1.6-1.6V3.1c0-0.9,0.7-1.6,1.6-1.6h6.2c0.9,0,1.6,0.7,1.6,1.6v6.2
			C20.7,10.2,20,11,19.1,11z"/>
		<path fill="#CF817F" d="M19.1,11.7h-6.2c-1.3,0-2.4-1.1-2.4-2.4V3.1c0-1.3,1.1-2.4,2.4-2.4h6.2c1.3,0,2.4,1.1,2.4,2.4v6.2
			C21.5,10.6,20.4,11.7,19.1,11.7z M12.9,2.3c-0.5,0-0.9,0.4-0.9,0.9v6.2c0,0.5,0.4,0.9,0.9,0.9h6.2c0.5,0,0.9-0.4,0.9-0.9V3.1
			c0-0.5-0.4-0.9-0.9-0.9h-6.2V2.3z"/>
	</g>
	<g>
		<path fill="#CF817F" d="M17.9,31.3h-3.8c-1,0-1.8-0.8-1.8-1.8v-3.8c0-1,0.8-1.8,1.8-1.8h3.8c1,0,1.8,0.8,1.8,1.8v3.8
			C19.7,30.5,18.9,31.3,17.9,31.3z M14.1,25.4c-0.1,0-0.3,0.1-0.3,0.3v3.8c0,0.1,0.1,0.3,0.3,0.3h3.8c0.1,0,0.3-0.1,0.3-0.3v-3.8
			c0-0.1-0.1-0.3-0.3-0.3H14.1z"/>
	</g>
	<g>
		<path fill="#CF817F" d="M29.5,31.3h-3.8c-1,0-1.8-0.8-1.8-1.8v-3.8c0-1,0.8-1.8,1.8-1.8h3.8c1,0,1.8,0.8,1.8,1.8v3.8
			C31.3,30.5,30.5,31.3,29.5,31.3z M25.6,25.4c-0.1,0-0.3,0.1-0.3,0.3v3.8c0,0.1,0.1,0.3,0.3,0.3h3.8c0.1,0,0.3-0.1,0.3-0.3v-3.8
			c0-0.1-0.1-0.3-0.3-0.3H25.6z"/>
	</g>
	<g>
		<path fill="#CF817F" d="M6.4,31.3H2.5c-1,0-1.8-0.8-1.8-1.8v-3.8c0-1,0.8-1.8,1.8-1.8h3.8c1,0,1.8,0.8,1.8,1.8v3.8
			C8.1,30.5,7.3,31.3,6.4,31.3z M2.5,25.4c-0.1,0-0.3,0.1-0.3,0.3v3.8c0,0.1,0.1,0.3,0.3,0.3h3.8c0.1,0,0.3-0.1,0.3-0.3v-3.8
			c0-0.1-0.1-0.3-0.3-0.3H2.5z"/>
	</g>
</g>
</svg>
