<?xml version="1.0" encoding="utf-8"?>
<!-- Generator: Adobe Illustrator 18.0.0, SVG Export Plug-In . SVG Version: 6.00 Build 0)  -->
<!DOCTYPE svg PUBLIC "-//W3C//DTD SVG 1.1//EN" "http://www.w3.org/Graphics/SVG/1.1/DTD/svg11.dtd">
<svg version="1.1" id="Layer_1" xmlns="http://www.w3.org/2000/svg" xmlns:xlink="http://www.w3.org/1999/xlink" x="0px" y="0px"
	 viewBox="0 0 32 32" enable-background="new 0 0 32 32" xml:space="preserve">
<g>
	<g>
		<path fill="#8F9BA8" d="M3.3,29.6c-0.2,0-0.4-0.1-0.5-0.2c-0.2-0.2-0.3-0.6-0.1-0.9l2.6-4.6c-2.8-2.3-4.4-5.5-4.4-8.8
			C0.8,8.1,7.6,2.4,16,2.4c8.4,0,15.3,5.6,15.3,12.6S24.4,27.5,16,27.5c-2.4,0-4.7-0.5-6.8-1.3l-5.5,3.3C3.5,29.5,3.4,29.6,3.3,29.6
			z M16,3.9C8.4,3.9,2.3,8.9,2.3,15c0,3.1,1.5,5.9,4.3,8c0.3,0.2,0.4,0.6,0.2,1l-1.5,2.8l3.5-2.1c0.2-0.1,0.5-0.1,0.7,0
			c2,0.9,4.3,1.4,6.6,1.4c7.6,0,13.8-5,13.8-11.1C29.8,8.9,23.6,3.9,16,3.9z"/>
	</g>
	<g>
		<rect x="9.5" y="9.5" fill="#79C693" width="13" height="1.5"/>
	</g>
	<g>
		<rect x="9.5" y="14.2" fill="#79C693" width="13" height="1.5"/>
	</g>
	<g>
		<rect x="9.5" y="19" fill="#79C693" width="13" height="1.5"/>
	</g>
</g>
</svg>
