<?xml version="1.0" encoding="utf-8"?>
<!-- Generator: Adobe Illustrator 18.0.0, SVG Export Plug-In . SVG Version: 6.00 Build 0)  -->
<!DOCTYPE svg PUBLIC "-//W3C//DTD SVG 1.1//EN" "http://www.w3.org/Graphics/SVG/1.1/DTD/svg11.dtd">
<svg version="1.1" id="Layer_1" xmlns="http://www.w3.org/2000/svg" xmlns:xlink="http://www.w3.org/1999/xlink" x="0px" y="0px"
	 viewBox="0 0 32 32" enable-background="new 0 0 32 32" xml:space="preserve">
<pattern  x="-378" y="-210" width="24.1" height="24.1" patternUnits="userSpaceOnUse" id="New_Pattern_Swatch_2" viewBox="0 -24.1 24.1 24.1" overflow="visible">
	<g>
		<polygon fill="none" points="0,0 24.1,0 24.1,-24.1 0,-24.1 		"/>
		<polygon fill="#E0CB81" points="24.1,0 0,0 0,-24.1 24.1,-24.1 		"/>
	</g>
</pattern>
<g>
	<g>
		<path fill="#8F9BA8" d="M16,5.7c-1.4,0-2.5-1.1-2.5-2.5s1.1-2.5,2.5-2.5c1.4,0,2.5,1.1,2.5,2.5S17.4,5.7,16,5.7z M16,2.3
			c-0.5,0-0.9,0.4-0.9,0.9s0.4,0.9,0.9,0.9s0.9-0.4,0.9-0.9S16.5,2.3,16,2.3z"/>
	</g>
	<g>
		<rect x="15.2" y="23.9" fill="#8F9BA8" width="1.5" height="7.4"/>
	</g>
	<g>
		<rect x="12.2" y="8.3" fill="#8F9BA8" width="2.1" height="1.5"/>
	</g>
	<g>
		<rect x="12.2" y="12.1" fill="#8F9BA8" width="2.1" height="1.5"/>
	</g>
	<g>
		<path fill="#8F9BA8" d="M23.1,17.3H8.9V6.8c0-1.4,1.2-2.6,2.6-2.6h8.9c1.4,0,2.6,1.2,2.6,2.6V17.3z M10.5,15.8h11.1v-9
			c0-0.6-0.5-1.1-1.1-1.1h-8.9c-0.6,0-1.1,0.5-1.1,1.1V15.8z"/>
	</g>
	<g>
		<g>
			<defs>
				<path id="SVGID_3_" d="M9.7,16.6V22c0,1,0.8,1.9,1.9,1.9h8.9c1,0,1.9-0.8,1.9-1.9v-5.5H9.7z"/>
			</defs>
			<clipPath id="SVGID_2_">
				<use xlink:href="#SVGID_3_"  overflow="visible"/>
			</clipPath>
			<g clip-path="url(#SVGID_2_)">
				<rect x="3.4" y="9.8" fill="none" width="24.8" height="24.8"/>
				<rect x="3.4" y="9.8" fill="#FEE99B" width="24.8" height="24.8"/>
			</g>
		</g>
		<pattern  id="SVGID_4_" xlink:href="#New_Pattern_Swatch_2" patternTransform="matrix(1.0511 0 0 1.0511 341.0693 387.7405)">
		</pattern>
		<path fill="url(#SVGID_4_)" d="M20.5,24.7h-8.9c-1.4,0-2.6-1.2-2.6-2.6v-6.2h14.2V22C23.1,23.5,21.9,24.7,20.5,24.7z M10.5,17.3
			V22c0,0.6,0.5,1.1,1.1,1.1h8.9c0.6,0,1.1-0.5,1.1-1.1v-4.7H10.5z"/>
	</g>
	<g>
		<g>
			<defs>
				<line id="SVGID_5_" x1="12.2" y1="20.3" x2="14.3" y2="20.3"/>
			</defs>
			<clipPath id="SVGID_6_">
				<use xlink:href="#SVGID_5_"  overflow="visible"/>
			</clipPath>
			<g clip-path="url(#SVGID_6_)">
				<rect x="3.4" y="9.8" fill="none" width="24.8" height="24.8"/>
				<rect x="3.4" y="9.8" fill="#FEE99B" width="24.8" height="24.8"/>
			</g>
		</g>
		<pattern  id="SVGID_7_" xlink:href="#New_Pattern_Swatch_2" patternTransform="matrix(1.0252 0 0 1.0252 153.6446 191.099)">
		</pattern>
		<rect x="12.2" y="19.6" fill="url(#SVGID_7_)" width="2.1" height="1.5"/>
	</g>
</g>
</svg>
