<?xml version="1.0" encoding="utf-8"?>
<!-- Generator: Adobe Illustrator 18.0.0, SVG Export Plug-In . SVG Version: 6.00 Build 0)  -->
<!DOCTYPE svg PUBLIC "-//W3C//DTD SVG 1.1//EN" "http://www.w3.org/Graphics/SVG/1.1/DTD/svg11.dtd">
<svg version="1.1" id="Layer_1" xmlns="http://www.w3.org/2000/svg" xmlns:xlink="http://www.w3.org/1999/xlink" x="0px" y="0px"
	 viewBox="0 0 32 32" enable-background="new 0 0 32 32" xml:space="preserve">
<g>
	<g>
		<path fill="#74B1E0" d="M8.2,31.3C8.2,31.3,8.2,31.3,8.2,31.3c-2.1,0-3.8-1.7-3.8-3.7v-23c0-2.1,1.7-3.7,3.8-3.7
			c0.8,0,1.5,0.3,2.2,0.7L26.1,13c1,0.7,1.5,1.8,1.5,3c0,1.2-0.6,2.3-1.5,3L10.4,30.5C9.7,31,8.9,31.3,8.2,31.3z M8.2,2.3
			c-1.1,0-2.3,0.9-2.3,2.2v23c0,1.4,1.2,2.2,2.3,2.2l0,0c0.5,0,0.9-0.2,1.3-0.4l15.7-11.5c0.6-0.4,0.9-1.1,0.9-1.8
			c0-0.7-0.3-1.4-0.9-1.8L9.5,2.7C9.1,2.4,8.6,2.3,8.2,2.3z"/>
	</g>
</g>
</svg>
