<?xml version="1.0" encoding="utf-8"?>
<!-- Generator: Adobe Illustrator 18.0.0, SVG Export Plug-In . SVG Version: 6.00 Build 0)  -->
<!DOCTYPE svg PUBLIC "-//W3C//DTD SVG 1.1//EN" "http://www.w3.org/Graphics/SVG/1.1/DTD/svg11.dtd">
<svg version="1.1" id="Layer_1" xmlns="http://www.w3.org/2000/svg" xmlns:xlink="http://www.w3.org/1999/xlink" x="0px" y="0px"
	 viewBox="0 0 32 32" enable-background="new 0 0 32 32" xml:space="preserve">
<g>
	<g>
		<path fill="#8F9BA8" d="M27.7,18.6H4.3c-1,0-2-0.6-2.4-1.6c-0.4-1-0.2-2,0.5-2.8L14.1,1.6c1-1.1,2.8-1.1,3.8,0l11.7,12.7
			c0.7,0.8,0.9,1.8,0.5,2.8C29.6,18,28.7,18.6,27.7,18.6z M16,2.2c-0.3,0-0.6,0.1-0.8,0.4L3.5,15.3c-0.3,0.3-0.4,0.8-0.2,1.2
			c0.2,0.4,0.6,0.7,1,0.7h23.4c0.4,0,0.8-0.2,1-0.7c0.2-0.4,0.1-0.9-0.2-1.2L16.8,2.6C16.6,2.4,16.3,2.2,16,2.2z"/>
	</g>
	<g>
		<path fill="#F0F7F7" d="M27.5,30.5H4.5c-1.1,0-2-0.9-2-2v-4.8c0-1.1,0.9-2,2-2h23.1c1.1,0,2,0.9,2,2v4.8
			C29.5,29.6,28.6,30.5,27.5,30.5z"/>
		<path fill="#8F9BA8" d="M27.5,31.2H4.5c-1.5,0-2.7-1.2-2.7-2.7v-4.8C1.8,22.2,3,21,4.5,21h23.1c1.5,0,2.7,1.2,2.7,2.7v4.8
			C30.2,30,29,31.2,27.5,31.2z M4.5,22.5c-0.7,0-1.2,0.5-1.2,1.2v4.8c0,0.7,0.5,1.2,1.2,1.2h23.1c0.7,0,1.2-0.5,1.2-1.2v-4.8
			c0-0.7-0.5-1.2-1.2-1.2H4.5z"/>
	</g>
</g>
</svg>
