<?xml version="1.0" encoding="utf-8"?>
<!-- Generator: Adobe Illustrator 18.0.0, SVG Export Plug-In . SVG Version: 6.00 Build 0)  -->
<!DOCTYPE svg PUBLIC "-//W3C//DTD SVG 1.1//EN" "http://www.w3.org/Graphics/SVG/1.1/DTD/svg11.dtd">
<svg version="1.1" id="Layer_1" xmlns="http://www.w3.org/2000/svg" xmlns:xlink="http://www.w3.org/1999/xlink" x="0px" y="0px"
	 viewBox="0 0 32 32" enable-background="new 0 0 32 32" xml:space="preserve">
<g>
	<g>
		<path fill="#79C693" d="M28.4,14.4H3.6c-1.6,0-2.8-1.3-2.8-2.8V6.4c0-1.6,1.3-2.8,2.8-2.8h24.8c1.6,0,2.8,1.3,2.8,2.8v5.2
			C31.3,13.2,30,14.4,28.4,14.4z M3.6,5.1c-0.7,0-1.3,0.6-1.3,1.3v5.2c0,0.7,0.6,1.3,1.3,1.3h24.8c0.7,0,1.3-0.6,1.3-1.3V6.4
			c0-0.7-0.6-1.3-1.3-1.3C28.4,5.1,3.6,5.1,3.6,5.1z"/>
	</g>
	<g>
		<path fill="#79C693" d="M28.4,28.4H3.6c-1.6,0-2.8-1.3-2.8-2.8v-5.2c0-1.6,1.3-2.8,2.8-2.8h24.8c1.6,0,2.8,1.3,2.8,2.8v5.2
			C31.3,27.2,30,28.4,28.4,28.4z M3.6,19.1c-0.7,0-1.3,0.6-1.3,1.3v5.2c0,0.7,0.6,1.3,1.3,1.3h24.8c0.7,0,1.3-0.6,1.3-1.3v-5.2
			c0-0.7-0.6-1.3-1.3-1.3C28.4,19.1,3.6,19.1,3.6,19.1z"/>
	</g>
</g>
</svg>
