<?xml version="1.0" encoding="utf-8"?>
<!-- Generator: Adobe Illustrator 18.0.0, SVG Export Plug-In . SVG Version: 6.00 Build 0)  -->
<!DOCTYPE svg PUBLIC "-//W3C//DTD SVG 1.1//EN" "http://www.w3.org/Graphics/SVG/1.1/DTD/svg11.dtd">
<svg version="1.1" id="Layer_1" xmlns="http://www.w3.org/2000/svg" xmlns:xlink="http://www.w3.org/1999/xlink" x="0px" y="0px"
	 viewBox="0 0 32 32" enable-background="new 0 0 32 32" xml:space="preserve">
<g>
	<g>
		<path fill="#8F9BA8" d="M1.5,31.2c-0.2,0-0.3,0-0.4-0.1c-0.3-0.2-0.4-0.6-0.3-0.9L6.5,16L0.8,1.8c-0.1-0.3,0-0.7,0.3-0.9
			c0.3-0.2,0.7-0.2,0.9,0l16.7,14.5c0.2,0.1,0.3,0.3,0.3,0.6s-0.1,0.4-0.3,0.6L2,31.1C1.9,31.2,1.7,31.2,1.5,31.2z M3.3,4.1L8,15.7
			c0.1,0.2,0.1,0.4,0,0.6L3.3,27.9L17,16L3.3,4.1z"/>
	</g>
	<g>
		<path fill="#8F9BA8" d="M18.2,27.5c-0.2,0-0.3,0-0.4-0.1c-0.3-0.2-0.4-0.6-0.3-0.9L21.7,16L17.5,5.5c-0.1-0.3,0-0.7,0.3-0.9
			c0.3-0.2,0.7-0.2,0.9,0L31,15.4c0.2,0.1,0.3,0.3,0.3,0.6s-0.1,0.4-0.3,0.6L18.7,27.3C18.5,27.4,18.3,27.5,18.2,27.5z M20,7.9
			l3.1,7.9c0.1,0.2,0.1,0.4,0,0.6L20,24.1l9.3-8.1L20,7.9z"/>
	</g>
</g>
</svg>
