<?xml version="1.0" encoding="utf-8"?>
<!-- Generator: Adobe Illustrator 18.0.0, SVG Export Plug-In . SVG Version: 6.00 Build 0)  -->
<!DOCTYPE svg PUBLIC "-//W3C//DTD SVG 1.1//EN" "http://www.w3.org/Graphics/SVG/1.1/DTD/svg11.dtd">
<svg version="1.1" id="Layer_1" xmlns="http://www.w3.org/2000/svg" xmlns:xlink="http://www.w3.org/1999/xlink" x="0px" y="0px"
	 viewBox="0 0 32 32" enable-background="new 0 0 32 32" xml:space="preserve">
<g>
	<g>
		<path fill="#DA8C8C" d="M30.5,31.3c-0.2,0-0.4-0.1-0.5-0.2L13.3,16.6c-0.2-0.1-0.3-0.3-0.3-0.6c0-0.2,0.1-0.4,0.3-0.6L30,0.9
			c0.3-0.2,0.6-0.2,0.9,0c0.3,0.2,0.4,0.6,0.3,0.9L25.5,16l5.7,14.2c0.1,0.3,0,0.7-0.3,0.9C30.8,31.2,30.7,31.3,30.5,31.3z M15,16
			l13.7,11.9L24,16.3c-0.1-0.2-0.1-0.4,0-0.6l4.6-11.6L15,16z"/>
	</g>
	<g>
		<path fill="#DA8C8C" d="M13.8,27.5c-0.2,0-0.4-0.1-0.5-0.2L1,16.6c-0.2-0.1-0.3-0.3-0.3-0.6c0-0.2,0.1-0.4,0.3-0.6L13.3,4.7
			c0.3-0.2,0.6-0.2,0.9,0c0.3,0.2,0.4,0.6,0.3,0.9L10.3,16l4.2,10.5c0.1,0.3,0,0.7-0.3,0.9C14.1,27.4,14,27.5,13.8,27.5z M2.6,16
			l9.3,8.1l-3.1-7.9c-0.1-0.2-0.1-0.4,0-0.6L12,7.9L2.6,16z"/>
	</g>
</g>
</svg>
