<?xml version="1.0" encoding="utf-8"?>
<!-- Generator: Adobe Illustrator 18.0.0, SVG Export Plug-In . SVG Version: 6.00 Build 0)  -->
<!DOCTYPE svg PUBLIC "-//W3C//DTD SVG 1.1//EN" "http://www.w3.org/Graphics/SVG/1.1/DTD/svg11.dtd">
<svg version="1.1" id="Layer_1" xmlns="http://www.w3.org/2000/svg" xmlns:xlink="http://www.w3.org/1999/xlink" x="0px" y="0px"
	 viewBox="0 0 32 32" enable-background="new 0 0 32 32" xml:space="preserve">
<g>
	<g>
		<path fill="#B4A79C" d="M27.6,17.7c-0.6,0-1.2-0.2-1.8-0.5c-0.2-0.1-0.4-0.4-0.4-0.6v-5c0-0.3,0.1-0.5,0.4-0.6
			c0.6-0.3,1.2-0.5,1.8-0.5c2,0,3.6,1.6,3.6,3.6S29.6,17.7,27.6,17.7z M26.9,16.1c0.2,0.1,0.5,0.1,0.7,0.1c1.2,0,2.1-1,2.1-2.1
			s-1-2.1-2.1-2.1c-0.2,0-0.5,0-0.7,0.1V16.1z"/>
	</g>
	<g>
		<polygon fill="#F9F8F2" points="26.2,2.4 8.8,9.4 8.8,18.7 26.2,25.7 		"/>
		<path fill="#B4A79C" d="M26.2,26.4c-0.1,0-0.2,0-0.3-0.1l-17.4-7C8.2,19.2,8,19,8,18.7V9.4c0-0.3,0.2-0.6,0.5-0.7l17.4-7
			c0.2-0.1,0.5-0.1,0.7,0.1c0.2,0.1,0.3,0.4,0.3,0.6v23.2c0,0.2-0.1,0.5-0.3,0.6C26.5,26.4,26.3,26.4,26.2,26.4z M9.5,18.2l15.9,6.4
			v-21L9.5,9.9V18.2z"/>
	</g>
	<g>
		<path fill="#B4A79C" d="M9.3,30.3c-1.6,0-3-1.1-3.4-2.6l-2.4-8.8l1.4-0.4l2.4,8.8c0.2,0.9,1,1.5,1.9,1.5c0.7,0,1.2-0.3,1.6-0.8
			c0.4-0.5,0.5-1.2,0.3-1.8L9,19.3l1.4-0.5l2.2,6.8c0.3,1.1,0.2,2.2-0.5,3.1C11.4,29.8,10.4,30.3,9.3,30.3z"/>
	</g>
	<g>
		<path fill="#B4A79C" d="M8.8,19.5H5c-2.3,0-4.3-1.9-4.3-4.3v-2.3c0-2.3,1.9-4.3,4.3-4.3h3.8c0.4,0,0.8,0.3,0.8,0.8v9.3
			C9.5,19.1,9.2,19.5,8.8,19.5z M5,10.2c-1.5,0-2.8,1.2-2.8,2.8v2.3C2.3,16.7,3.5,18,5,18h3v-7.8H5z"/>
	</g>
</g>
</svg>
