<?xml version="1.0" encoding="utf-8"?>
<!-- Generator: Adobe Illustrator 18.0.0, SVG Export Plug-In . SVG Version: 6.00 Build 0)  -->
<!DOCTYPE svg PUBLIC "-//W3C//DTD SVG 1.1//EN" "http://www.w3.org/Graphics/SVG/1.1/DTD/svg11.dtd">
<svg version="1.1" id="Layer_1" xmlns="http://www.w3.org/2000/svg" xmlns:xlink="http://www.w3.org/1999/xlink" x="0px" y="0px"
	 viewBox="0 0 32 32" enable-background="new 0 0 32 32" xml:space="preserve">
<g>
	<g>
		<path fill="#DA8C8C" d="M9.3,19.9c-4.7,0-8.5-3.8-8.5-8.5V5.1c0-1.6,1.3-2.9,2.9-2.9v1.5c-0.8,0-1.4,0.6-1.4,1.4v6.3
			c0,3.9,3.2,7,7,7c3.9,0,7-3.2,7-7V5.1c0-0.8-0.6-1.4-1.4-1.4V2.2c1.6,0,2.9,1.3,2.9,2.9v6.3C17.8,16.1,13.9,19.9,9.3,19.9z"/>
	</g>
	<g>
		<path fill="#DA8C8C" d="M18.4,31c-5.4,0-9.9-4.4-9.9-9.9v-1.9H10v1.9c0,4.6,3.8,8.4,8.4,8.4c4.6,0,8.4-3.8,8.4-8.4V10.4h1.5v10.7
			C28.2,26.5,23.8,31,18.4,31z"/>
	</g>
	<g>
		<path fill="#DA8C8C" d="M12.9,4.8c-1,0-1.9-0.8-1.9-1.9c0-1,0.8-1.9,1.9-1.9c0.8,0,2.9,0.6,2.9,1.9S13.7,4.8,12.9,4.8z M12.9,2.5
			c-0.2,0-0.4,0.2-0.4,0.4c0,0.2,0.2,0.4,0.4,0.4c0.3,0,1-0.2,1.3-0.4C13.8,2.7,13.2,2.5,12.9,2.5z"/>
	</g>
	<g>
		<path fill="#DA8C8C" d="M5.7,4.8c-0.8,0-2.9-0.6-2.9-1.9S4.9,1,5.7,1c1,0,1.9,0.8,1.9,1.9C7.6,4,6.7,4.8,5.7,4.8z M4.4,2.9
			c0.3,0.2,0.9,0.4,1.3,0.4c0.2,0,0.4-0.2,0.4-0.4c0-0.2-0.2-0.4-0.4-0.4C5.4,2.5,4.8,2.7,4.4,2.9z"/>
	</g>
	<g>
		<path fill="#DA8C8C" d="M27.5,11.2c-2.1,0-3.8-1.7-3.8-3.8c0-2.1,1.7-3.8,3.8-3.8c2.1,0,3.8,1.7,3.8,3.8
			C31.3,9.5,29.6,11.2,27.5,11.2z M27.5,5.1c-1.3,0-2.3,1-2.3,2.3c0,1.3,1,2.3,2.3,2.3c1.3,0,2.3-1,2.3-2.3
			C29.8,6.1,28.7,5.1,27.5,5.1z"/>
	</g>
</g>
</svg>
