<?xml version="1.0" encoding="utf-8"?>
<!-- Generator: Adobe Illustrator 18.0.0, SVG Export Plug-In . SVG Version: 6.00 Build 0)  -->
<!DOCTYPE svg PUBLIC "-//W3C//DTD SVG 1.1//EN" "http://www.w3.org/Graphics/SVG/1.1/DTD/svg11.dtd">
<svg version="1.1" id="Layer_1" xmlns="http://www.w3.org/2000/svg" xmlns:xlink="http://www.w3.org/1999/xlink" x="0px" y="0px"
	 viewBox="0 0 32 32" enable-background="new 0 0 32 32" xml:space="preserve">
<g>
	<g>
		<path fill="#8F9BA8" d="M25.2,31.3H1.8c-0.4,0-0.8-0.3-0.8-0.8V9.6c0-0.4,0.3-0.8,0.8-0.8h7.4V1.5c0-0.4,0.3-0.7,0.8-0.7h15.2
			c0.4,0,0.8,0.3,0.8,0.7V15c0,0.4-0.3,0.8-0.8,0.8H12.6v7.9h12.6c0.4,0,0.8,0.3,0.8,0.8v6.1C25.9,30.9,25.6,31.3,25.2,31.3z
			 M2.6,29.8h21.9v-4.6H11.8c-0.4,0-0.8-0.3-0.8-0.8V15c0-0.4,0.3-0.8,0.8-0.8h12.6v-12H10.7v7.4c0,0.4-0.3,0.8-0.8,0.8H2.6V29.8z"
			/>
	</g>
	<g>
		<path fill="#8F9BA8" d="M9.9,10.4H1.8c-0.3,0-0.6-0.2-0.7-0.5C1,9.6,1.1,9.3,1.3,9.1L9.4,1c0.2-0.2,0.5-0.3,0.8-0.2
			c0.3,0.1,0.5,0.4,0.5,0.7v8.1C10.7,10,10.3,10.4,9.9,10.4z M3.6,8.9h5.5V3.3L3.6,8.9z"/>
	</g>
	<g>
		<polygon fill="#F9F8F2" points="25.2,15 11.8,15 11.8,24.4 25.2,24.4 30.2,24.4 30.2,15 		"/>
		<path fill="#B4A79C" d="M30.2,25.1H11.8c-0.4,0-0.8-0.3-0.8-0.8V15c0-0.4,0.3-0.8,0.8-0.8h18.4c0.4,0,0.8,0.3,0.8,0.8v9.4
			C30.9,24.8,30.6,25.1,30.2,25.1z M12.6,23.6h16.9v-7.9H12.6V23.6z"/>
	</g>
</g>
</svg>
