<?xml version="1.0" encoding="utf-8"?>
<!-- Generator: Adobe Illustrator 18.0.0, SVG Export Plug-In . SVG Version: 6.00 Build 0)  -->
<!DOCTYPE svg PUBLIC "-//W3C//DTD SVG 1.1//EN" "http://www.w3.org/Graphics/SVG/1.1/DTD/svg11.dtd">
<svg version="1.1" id="Layer_1" xmlns="http://www.w3.org/2000/svg" xmlns:xlink="http://www.w3.org/1999/xlink" x="0px" y="0px"
	 viewBox="0 0 32 32" enable-background="new 0 0 32 32" xml:space="preserve">
<g>
	<g>
		<path fill="#8F9BA8" d="M28.3,31.3H3.7V0.8h24.6V31.3z M5.2,29.8h21.6V2.3H5.2V29.8z"/>
	</g>
	<g>
		<circle fill="#CDE4F7" cx="16" cy="12.9" r="7.7"/>
		<path fill="#74B1E0" d="M16,21.3c-4.7,0-8.4-3.8-8.4-8.4c0-4.7,3.8-8.4,8.4-8.4c4.7,0,8.4,3.8,8.4,8.4
			C24.4,17.5,20.7,21.3,16,21.3z M16,5.9c-3.8,0-6.9,3.1-6.9,6.9c0,3.8,3.1,6.9,6.9,6.9c3.8,0,6.9-3.1,6.9-6.9
			C22.9,9.1,19.8,5.9,16,5.9z"/>
	</g>
	<g>
		<circle fill="#CDE4F7" cx="16" cy="12.9" r="2"/>
		<path fill="#74B1E0" d="M16,15.6c-1.5,0-2.7-1.2-2.7-2.7c0-1.5,1.2-2.7,2.7-2.7c1.5,0,2.7,1.2,2.7,2.7
			C18.7,14.4,17.5,15.6,16,15.6z M16,11.7c-0.7,0-1.2,0.5-1.2,1.2s0.5,1.2,1.2,1.2c0.7,0,1.2-0.5,1.2-1.2S16.7,11.7,16,11.7z"/>
	</g>
	<g>
		
			<rect x="11.1" y="16" transform="matrix(0.8121 0.5835 -0.5835 0.8121 14.595 -2.9334)" fill="#8F9BA8" width="1.5" height="10.3"/>
	</g>
	<g>
		<rect x="14.9" y="25.2" fill="#8F9BA8" width="8.8" height="1.5"/>
	</g>
	<g>
		<g>
			<rect x="24.2" y="3.3" fill="#8F9BA8" width="1.4" height="1.5"/>
		</g>
		<g>
			<rect x="6.5" y="3.3" fill="#8F9BA8" width="1.4" height="1.5"/>
		</g>
	</g>
	<g>
		<g>
			<rect x="24.2" y="27.2" fill="#8F9BA8" width="1.4" height="1.5"/>
		</g>
		<g>
			<rect x="6.5" y="27.2" fill="#8F9BA8" width="1.4" height="1.5"/>
		</g>
	</g>
</g>
</svg>
