<?xml version="1.0" encoding="utf-8"?>
<!-- Generator: Adobe Illustrator 18.0.0, SVG Export Plug-In . SVG Version: 6.00 Build 0)  -->
<!DOCTYPE svg PUBLIC "-//W3C//DTD SVG 1.1//EN" "http://www.w3.org/Graphics/SVG/1.1/DTD/svg11.dtd">
<svg version="1.1" id="Layer_1" xmlns="http://www.w3.org/2000/svg" xmlns:xlink="http://www.w3.org/1999/xlink" x="0px" y="0px"
	 viewBox="0 0 32 32" enable-background="new 0 0 32 32" xml:space="preserve">
<g>
	<g>
		<path fill="#8F9BA8" d="M18.7,31.3h-5.4v-6.1l-3.2-9.3l1.8,1.1c2.5,1.5,5.7,1.5,8.2,0l1.8-1.1l-3.2,9.3V31.3z M14.8,29.8h2.4
			l0-4.9l2-5.8c-2.1,0.7-4.4,0.7-6.4,0l2,6V29.8z"/>
	</g>
	<g>
		<path fill="#F0F7F7" d="M16,1.5c-4.8,0-8.7,3.9-8.7,8.7c0,3.1,1.7,5.9,4.2,7.4c1.3,0.8,2.8,1.3,4.5,1.3c1.6,0,3.2-0.5,4.5-1.3
			c2.5-1.5,4.2-4.3,4.2-7.4C24.7,5.4,20.8,1.5,16,1.5z"/>
		<path fill="#8F9BA8" d="M16,19.6c-1.7,0-3.4-0.5-4.9-1.4c-2.8-1.7-4.5-4.7-4.5-8.1c0-5.2,4.2-9.4,9.4-9.4s9.4,4.2,9.4,9.4
			c0,3.3-1.7,6.3-4.5,8.1C19.4,19.1,17.7,19.6,16,19.6z M16,2.3c-4.4,0-7.9,3.6-7.9,7.9c0,2.8,1.4,5.3,3.8,6.8
			c2.5,1.5,5.7,1.5,8.2,0c2.4-1.5,3.8-4,3.8-6.8C23.9,5.8,20.4,2.3,16,2.3z"/>
	</g>
</g>
</svg>
