<?xml version="1.0" encoding="utf-8"?>
<!-- Generator: Adobe Illustrator 18.0.0, SVG Export Plug-In . SVG Version: 6.00 Build 0)  -->
<!DOCTYPE svg PUBLIC "-//W3C//DTD SVG 1.1//EN" "http://www.w3.org/Graphics/SVG/1.1/DTD/svg11.dtd">
<svg version="1.1" id="Layer_1" xmlns="http://www.w3.org/2000/svg" xmlns:xlink="http://www.w3.org/1999/xlink" x="0px" y="0px"
	 viewBox="0 0 32 32" enable-background="new 0 0 32 32" xml:space="preserve">
<g>
	<g>
		<path fill="#8F9BA8" d="M26.7,26.6H5.3V5.4h21.4V26.6z M6.8,25.1h18.4V6.9H6.8V25.1z"/>
	</g>
	<g>
		<path fill="#B4A042" d="M18.1,20.6c-0.8,0-1.7-0.3-2.3-1l-3.5-3.5c-1.3-1.3-1.3-3.3,0-4.6l1.1,1.1c-0.7,0.7-0.7,1.8,0,2.5l3.5,3.5
			c0.7,0.7,1.8,0.7,2.5,0l1.1,1.1C19.8,20.3,18.9,20.6,18.1,20.6z"/>
	</g>
	<g>
		<path fill="#8F9BA8" d="M26.7,31.3H5.3v-6.1h21.4V31.3z M6.8,29.8h18.4v-3.1H6.8V29.8z"/>
	</g>
	<g>
		<path fill="#8F9BA8" d="M26.7,6.9H5.3V0.8h21.4V6.9z M6.8,5.4h18.4V2.3H6.8V5.4z"/>
	</g>
	<g>
		<rect x="13.8" y="3.1" fill="#8F9BA8" width="4.5" height="1.5"/>
	</g>
	<g>
		<rect x="15" y="27.4" fill="#8F9BA8" width="2.1" height="1.5"/>
	</g>
</g>
</svg>
