<?xml version="1.0" encoding="utf-8"?>
<!-- Generator: Adobe Illustrator 18.0.0, SVG Export Plug-In . SVG Version: 6.00 Build 0)  -->
<!DOCTYPE svg PUBLIC "-//W3C//DTD SVG 1.1//EN" "http://www.w3.org/Graphics/SVG/1.1/DTD/svg11.dtd">
<svg version="1.1" id="Layer_1" xmlns="http://www.w3.org/2000/svg" xmlns:xlink="http://www.w3.org/1999/xlink" x="0px" y="0px"
	 viewBox="0 0 32 32" enable-background="new 0 0 32 32" xml:space="preserve">
<g>
	<g>
		<rect x="15.3" y="7.2" fill="#8F9BA8" width="1.5" height="17.5"/>
	</g>
	<g>
		<path fill="#8F9BA8" d="M23.2,8L8.8,8L16,0.8L23.2,8z M12.3,6.5l7.3,0L16,2.8L12.3,6.5z"/>
	</g>
	<g>
		<path fill="#8F9BA8" d="M16,31.3L8.8,24l14.4,0L16,31.3z M12.3,25.5l3.7,3.7l3.7-3.7L12.3,25.5z"/>
	</g>
	<g>
		<rect x="7.2" y="15.3" fill="#8F9BA8" width="17.5" height="1.5"/>
	</g>
	<g>
		<path fill="#8F9BA8" d="M24,23.2l0-14.4l7.2,7.2L24,23.2z M25.5,12.3l0,7.3l3.7-3.7L25.5,12.3z"/>
	</g>
	<g>
		<path fill="#8F9BA8" d="M8,23.2L0.8,16L8,8.8L8,23.2z M2.8,16l3.7,3.7l0-7.3L2.8,16z"/>
	</g>
</g>
</svg>
