<?xml version="1.0" encoding="utf-8"?>
<!-- Generator: Adobe Illustrator 18.0.0, SVG Export Plug-In . SVG Version: 6.00 Build 0)  -->
<!DOCTYPE svg PUBLIC "-//W3C//DTD SVG 1.1//EN" "http://www.w3.org/Graphics/SVG/1.1/DTD/svg11.dtd">
<svg version="1.1" id="Layer_1" xmlns="http://www.w3.org/2000/svg" xmlns:xlink="http://www.w3.org/1999/xlink" x="0px" y="0px"
	 viewBox="0 0 32 32" enable-background="new 0 0 32 32" xml:space="preserve">
<g>
	<g>
		<path fill="#79C693" d="M3.1,28.5L3.1,28.5c-1.3,0-2.4-1.1-2.4-2.4V5.9c0-1.3,1.1-2.4,2.4-2.4c0.6,0,1.2,0.2,1.7,0.7l10.1,10.1
			c0.9,0.9,0.9,2.4,0,3.3L4.8,27.8C4.3,28.2,3.7,28.5,3.1,28.5z M3.1,5C2.7,5,2.3,5.3,2.3,5.9v20.2c0,0.5,0.4,0.9,0.9,0.9l0,0
			c0.2,0,0.4,0,0.6-0.3l10.1-10.1c0.3-0.3,0.3-0.9,0-1.2L3.7,5.3C3.5,5.1,3.3,5,3.1,5z"/>
	</g>
	<g>
		<path fill="#79C693" d="M18.8,28.5L18.8,28.5c-1.3,0-2.4-1.1-2.4-2.4V5.9c0-1.3,1.1-2.4,2.4-2.4c0.6,0,1.2,0.2,1.7,0.7l10.1,10.1
			c0.9,0.9,0.9,2.4,0,3.3L20.4,27.8C20,28.2,19.4,28.5,18.8,28.5z M18.8,5c-0.4,0-0.9,0.3-0.9,0.9v20.2c0,0.5,0.4,0.9,0.9,0.9l0,0
			c0.2,0,0.4,0,0.6-0.3l10.1-10.1c0.3-0.3,0.3-0.9,0-1.2L19.4,5.3C19.2,5.1,18.9,5,18.8,5z"/>
	</g>
</g>
</svg>
