<?xml version="1.0" encoding="utf-8"?>
<!-- Generator: Adobe Illustrator 18.0.0, SVG Export Plug-In . SVG Version: 6.00 Build 0)  -->
<!DOCTYPE svg PUBLIC "-//W3C//DTD SVG 1.1//EN" "http://www.w3.org/Graphics/SVG/1.1/DTD/svg11.dtd">
<svg version="1.1" id="Layer_1" xmlns="http://www.w3.org/2000/svg" xmlns:xlink="http://www.w3.org/1999/xlink" x="0px" y="0px"
	 viewBox="0 0 32 32" enable-background="new 0 0 32 32" xml:space="preserve">
<g>
	<g>
		<path fill="#8F9BA8" d="M28.9,28.5c-0.6,0-1.2-0.2-1.7-0.7L17.1,17.7c-0.9-0.9-0.9-2.4,0-3.3L27.2,4.2c0.4-0.4,1-0.7,1.7-0.7
			c1.3,0,2.4,1.1,2.4,2.4v20.2C31.2,27.4,30.2,28.5,28.9,28.5z M28.9,5c-0.2,0-0.4,0-0.6,0.3L18.2,15.4c-0.3,0.3-0.3,0.9,0,1.2
			l10.1,10.1c0.2,0.2,0.4,0.3,0.6,0.3c0.4,0,0.9-0.3,0.9-0.9V5.9C29.7,5.3,29.3,5,28.9,5z"/>
	</g>
	<g>
		<path fill="#8F9BA8" d="M13.2,28.5c-0.6,0-1.2-0.2-1.7-0.7L1.4,17.7c-0.9-0.9-0.9-2.4,0-3.3L11.6,4.2c0.4-0.4,1-0.7,1.7-0.7
			c1.3,0,2.4,1.1,2.4,2.4v20.2C15.6,27.4,14.5,28.5,13.2,28.5z M13.2,5c-0.2,0-0.4,0-0.6,0.3L2.5,15.4c-0.3,0.3-0.3,0.9,0,1.2
			l10.1,10.1c0.2,0.2,0.4,0.3,0.6,0.3c0.4,0,0.9-0.3,0.9-0.9V5.9C14.1,5.3,13.6,5,13.2,5z"/>
	</g>
</g>
</svg>
