<?xml version="1.0" encoding="utf-8"?>
<!-- Generator: Adobe Illustrator 18.0.0, SVG Export Plug-In . SVG Version: 6.00 Build 0)  -->
<!DOCTYPE svg PUBLIC "-//W3C//DTD SVG 1.1//EN" "http://www.w3.org/Graphics/SVG/1.1/DTD/svg11.dtd">
<svg version="1.1" id="Layer_1" xmlns="http://www.w3.org/2000/svg" xmlns:xlink="http://www.w3.org/1999/xlink" x="0px" y="0px"
	 viewBox="0 0 32 32" enable-background="new 0 0 32 32" xml:space="preserve">
<g>
	<g>
		
			<rect x="15.3" y="3.4" transform="matrix(0.7071 0.7071 -0.7071 0.7071 15.9991 -6.6274)" fill="#DA8C8C" width="1.5" height="25.3"/>
	</g>
	<g>
		<path fill="#DA8C8C" d="M30.5,13.4c-0.2,0-0.4-0.1-0.5-0.2L18.9,2c-0.2-0.2-0.3-0.5-0.2-0.8c0.1-0.3,0.4-0.5,0.7-0.5l0,0l11.1,0
			c0.4,0,0.8,0.3,0.8,0.8v11.1c0,0.3-0.2,0.6-0.5,0.7C30.7,13.3,30.6,13.4,30.5,13.4z M21.2,2.3l8.5,8.6V2.3L21.2,2.3z"/>
	</g>
	<g>
		<path fill="#DA8C8C" d="M12.6,31.2H1.5c-0.4,0-0.8-0.3-0.8-0.8V19.4c0-0.3,0.2-0.6,0.5-0.7c0.3-0.1,0.6-0.1,0.8,0.2L13.1,30
			c0.2,0.2,0.3,0.5,0.2,0.8C13.2,31.1,12.9,31.2,12.6,31.2z M2.3,29.7h8.5l-8.5-8.6V29.7z"/>
	</g>
	<g>
		
			<rect x="3.4" y="15.2" transform="matrix(0.7071 0.7071 -0.7071 0.7071 15.9994 -6.6277)" fill="#DA8C8C" width="25.3" height="1.5"/>
	</g>
	<g>
		<path fill="#DA8C8C" d="M31.2,31.2l-13.7,0l13.7-13.7L31.2,31.2z M21.2,29.7l8.6,0l0-8.5L21.2,29.7z"/>
	</g>
	<g>
		<path fill="#DA8C8C" d="M0.8,14.4l0-13.7l13.7,0L0.8,14.4z M2.3,2.3l0,8.5l8.6-8.5L2.3,2.3z"/>
	</g>
</g>
</svg>
