<?xml version="1.0" encoding="utf-8"?>
<!-- Generator: Adobe Illustrator 18.0.0, SVG Export Plug-In . SVG Version: 6.00 Build 0)  -->
<!DOCTYPE svg PUBLIC "-//W3C//DTD SVG 1.1//EN" "http://www.w3.org/Graphics/SVG/1.1/DTD/svg11.dtd">
<svg version="1.1" id="Layer_1" xmlns="http://www.w3.org/2000/svg" xmlns:xlink="http://www.w3.org/1999/xlink" x="0px" y="0px"
	 viewBox="0 0 32 32" enable-background="new 0 0 32 32" xml:space="preserve">
<g>
	<g>
		<rect x="0.8" y="15.2" fill="#74B1E0" width="30.5" height="1.6"/>
	</g>
	<g>
		<path fill="#74B1E0" d="M16,9.4c-1.9,0-3.4-1.5-3.4-3.4c0-1.9,1.5-3.4,3.4-3.4c1.9,0,3.4,1.5,3.4,3.4C19.4,7.8,17.9,9.4,16,9.4z
			 M16,4.1c-1,0-1.8,0.8-1.8,1.8c0,1,0.8,1.8,1.8,1.8c1,0,1.8-0.8,1.8-1.8C17.8,5,17,4.1,16,4.1z"/>
	</g>
	<g>
		<circle fill="#EBF7FB" cx="16" cy="26" r="2.6"/>
		<path fill="#74B1E0" d="M16,29.4c-1.9,0-3.4-1.5-3.4-3.4c0-1.9,1.5-3.4,3.4-3.4c1.9,0,3.4,1.5,3.4,3.4
			C19.4,27.9,17.9,29.4,16,29.4z M16,24.2c-1,0-1.8,0.8-1.8,1.8c0,1,0.8,1.8,1.8,1.8c1,0,1.8-0.8,1.8-1.8C17.8,25,17,24.2,16,24.2z"
			/>
	</g>
</g>
</svg>
