<?xml version="1.0" encoding="utf-8"?>
<!-- Generator: Adobe Illustrator 18.0.0, SVG Export Plug-In . SVG Version: 6.00 Build 0)  -->
<!DOCTYPE svg PUBLIC "-//W3C//DTD SVG 1.1//EN" "http://www.w3.org/Graphics/SVG/1.1/DTD/svg11.dtd">
<svg version="1.1" id="Layer_1" xmlns="http://www.w3.org/2000/svg" xmlns:xlink="http://www.w3.org/1999/xlink" x="0px" y="0px"
	 viewBox="0 0 32 32" enable-background="new 0 0 32 32" xml:space="preserve">
<g>
	<g>
		<path fill="#8F9BA8" d="M27.2,25.6H4.8c-0.4,0-0.8-0.3-0.8-0.8V11.2c0-0.4,0.3-0.8,0.8-0.8h8.3c0.3,0,0.6,0.2,0.7,0.5
			c0.4,1,1.2,1.9,2.1,2.6c0.3,0.2,0.4,0.6,0.2,1l-0.5,0.8l1.3-0.7c0.2-0.1,0.5-0.1,0.7,0c2.9,1.3,6.6,1,9.2-0.7
			c0.2-0.2,0.5-0.2,0.8,0c0.2,0.1,0.4,0.4,0.4,0.7v10.3C27.9,25.3,27.6,25.6,27.2,25.6z M5.6,24.1h20.9v-8.3
			c-1.5,0.7-3.1,1.1-4.9,1.1c-1.5,0-2.9-0.3-4.2-0.8L14.1,18c-0.3,0.2-0.7,0.1-0.9-0.1c-0.2-0.2-0.3-0.6-0.1-0.9l1.5-2.7
			c-0.8-0.7-1.4-1.5-1.9-2.4H5.6V24.1z"/>
	</g>
	<g>
		<path fill="#79C693" d="M13.7,18.1c-0.2,0-0.4-0.1-0.5-0.2c-0.2-0.2-0.3-0.6-0.1-0.9l1.5-2.7c-0.9-0.8-1.6-1.8-2.1-2.8
			c-0.4-0.9-0.6-1.8-0.6-2.7c0-4.4,4.4-8.1,9.7-8.1c5.3,0,9.7,3.6,9.7,8.1c0,2.5-1.3,4.8-3.7,6.3c-1.7,1.2-3.8,1.8-6,1.8
			c-1.5,0-2.9-0.3-4.2-0.8L14.1,18C13.9,18.1,13.8,18.1,13.7,18.1z M17.3,14.5c0.1,0,0.2,0,0.3,0.1c2.9,1.3,6.6,1,9.2-0.7
			c1.9-1.3,3-3.1,3-5.1c0-3.6-3.7-6.6-8.2-6.6c-4.5,0-8.2,2.9-8.2,6.6c0,0.7,0.2,1.4,0.5,2.1c0.4,1,1.2,1.9,2.1,2.6
			c0.3,0.2,0.4,0.6,0.2,1l-0.5,0.8l1.3-0.7C17,14.5,17.2,14.5,17.3,14.5z"/>
	</g>
	<g>
		<path fill="#8F9BA8" d="M30.5,31.2h-29c-0.3,0-0.5-0.1-0.7-0.4c-0.1-0.2-0.1-0.5,0-0.8l3.3-5.7c0.1-0.2,0.4-0.4,0.6-0.4h22.4
			c0.3,0,0.5,0.1,0.6,0.4l3.3,5.7c0.1,0.2,0.1,0.5,0,0.8C31,31.1,30.8,31.2,30.5,31.2z M2.8,29.7h26.4l-2.4-4.2H5.2L2.8,29.7z"/>
	</g>
</g>
</svg>
