<?xml version="1.0" encoding="utf-8"?>
<!-- Generator: Adobe Illustrator 18.0.0, SVG Export Plug-In . SVG Version: 6.00 Build 0)  -->
<!DOCTYPE svg PUBLIC "-//W3C//DTD SVG 1.1//EN" "http://www.w3.org/Graphics/SVG/1.1/DTD/svg11.dtd">
<svg version="1.1" id="Layer_1" xmlns="http://www.w3.org/2000/svg" xmlns:xlink="http://www.w3.org/1999/xlink" x="0px" y="0px"
	 viewBox="0 0 32 32" enable-background="new 0 0 32 32" xml:space="preserve">
<g>
	<g>
		<path fill="#8F9BA8" d="M30.5,31.3h-29c-0.3,0-0.5-0.1-0.6-0.4c-0.1-0.2-0.1-0.5,0-0.7L9.4,13c0.1-0.2,0.3-0.4,0.6-0.4
			c0.2,0,0.5,0.1,0.7,0.2c0.4,0.4,1.1,1,2,1c0.9,0,1.6-0.6,2-1c0.7-0.8,2-0.8,2.7,0c0.4,0.5,1.1,1,2,1c0.9,0,1.5-0.5,2-1
			c0.2-0.2,0.4-0.3,0.7-0.2c0.2,0,0.5,0.2,0.6,0.4l8.6,17.2c0.1,0.2,0.1,0.5,0,0.7C31,31.1,30.8,31.3,30.5,31.3z M2.7,29.8h26.6
			l-7.6-15.2c-1.7,1.2-3.9,0.9-5.4-0.8c-0.1-0.1-0.3-0.2-0.5,0c-1.5,1.7-3.7,2-5.4,0.8L2.7,29.8z"/>
	</g>
	<g>
		<path fill="#8F9BA8" d="M19.4,15.3c-1.2,0-2.3-0.6-3.2-1.6c-0.1-0.1-0.3-0.2-0.5,0c-0.9,1-2,1.6-3.2,1.6c-1.1,0-2.2-0.5-3-1.4
			c-0.2-0.2-0.3-0.6-0.1-0.8l5.9-11.8c0.1-0.3,0.4-0.4,0.7-0.4l0,0c0.3,0,0.5,0.2,0.7,0.4L22.6,13c0.1,0.3,0.1,0.6-0.1,0.8
			C21.6,14.8,20.5,15.3,19.4,15.3z M16,12.1c0.5,0,1,0.2,1.4,0.7c0.4,0.5,1.1,1,2,1c0.6,0,1.2-0.3,1.6-0.6l-5-10l-5,10
			c0.4,0.3,0.9,0.6,1.6,0.6c0.9,0,1.6-0.6,2-1C15,12.3,15.5,12.1,16,12.1z"/>
	</g>
</g>
</svg>
