<?xml version="1.0" encoding="utf-8"?>
<!-- Generator: Adobe Illustrator 18.0.0, SVG Export Plug-In . SVG Version: 6.00 Build 0)  -->
<!DOCTYPE svg PUBLIC "-//W3C//DTD SVG 1.1//EN" "http://www.w3.org/Graphics/SVG/1.1/DTD/svg11.dtd">
<svg version="1.1" id="Layer_1" xmlns="http://www.w3.org/2000/svg" xmlns:xlink="http://www.w3.org/1999/xlink" x="0px" y="0px"
	 viewBox="0 0 32 32" enable-background="new 0 0 32 32" xml:space="preserve">
<g>
	<g>
		<polyline fill="#F9F8F2" points="30.3,8.5 18.1,18.3 10.4,8.5 		"/>
		<polygon fill="#B4A79C" points="18,19.4 9.8,9 11,8.1 18.2,17.2 29.8,8 30.8,9.1 		"/>
	</g>
	<g>
		<path fill="#B4A79C" d="M27.5,24.2H6L9.8,7.8h21.5L27.5,24.2z M7.9,22.7h18.4l3.1-13.4H11L7.9,22.7z"/>
	</g>
	<g>
		<line fill="#F9F8F2" x1="8" y1="8.9" x2="4.1" y2="8.9"/>
		<rect x="4.1" y="8.2" fill="#B4A79C" width="3.9" height="1.5"/>
	</g>
	<g>
		<line fill="#F9F8F2" x1="6.9" y1="13.8" x2="3" y2="13.8"/>
		<rect x="3" y="13" fill="#B4A79C" width="3.9" height="1.5"/>
	</g>
	<g>
		<line fill="#F9F8F2" x1="5.8" y1="18.6" x2="1.9" y2="18.6"/>
		<rect x="1.9" y="17.9" fill="#B4A79C" width="3.9" height="1.5"/>
	</g>
	<g>
		<line fill="#F9F8F2" x1="4.7" y1="23.5" x2="0.8" y2="23.5"/>
		<rect x="0.8" y="22.7" fill="#B4A79C" width="3.9" height="1.5"/>
	</g>
</g>
</svg>
