<?xml version="1.0" encoding="utf-8"?>
<!-- Generator: Adobe Illustrator 18.0.0, SVG Export Plug-In . SVG Version: 6.00 Build 0)  -->
<!DOCTYPE svg PUBLIC "-//W3C//DTD SVG 1.1//EN" "http://www.w3.org/Graphics/SVG/1.1/DTD/svg11.dtd">
<svg version="1.1" id="Layer_1" xmlns="http://www.w3.org/2000/svg" xmlns:xlink="http://www.w3.org/1999/xlink" x="0px" y="0px"
	 viewBox="0 0 32 32" enable-background="new 0 0 32 32" xml:space="preserve">
<g>
	<g>
		<rect x="19.1" y="3.3" fill="#74B1E0" width="12.1" height="1.6"/>
	</g>
	<g>
		<rect x="19.1" y="8.1" fill="#74B1E0" width="9.6" height="1.6"/>
	</g>
	<g>
		<rect x="19.1" y="12.8" fill="#74B1E0" width="12.1" height="1.6"/>
	</g>
	<g>
		<rect x="19.1" y="17.6" fill="#74B1E0" width="9.6" height="1.6"/>
	</g>
	<g>
		<rect x="19.1" y="22.3" fill="#74B1E0" width="12.1" height="1.6"/>
	</g>
	<g>
		<rect x="19.1" y="27.1" fill="#74B1E0" width="9.6" height="1.6"/>
	</g>
	<g>
		<rect x="15.4" y="0.8" fill="#74B1E0" width="1.6" height="30.5"/>
	</g>
	<g>
		<polygon fill="#CDE4F7" points="6.7,9 6.7,23 13.5,16 		"/>
		<path fill="#74B1E0" d="M6.7,23.8c-0.1,0-0.2,0-0.3-0.1c-0.3-0.1-0.5-0.4-0.5-0.7V9c0-0.3,0.2-0.6,0.5-0.7c0.3-0.1,0.6,0,0.9,0.2
			l6.8,7c0.3,0.3,0.3,0.8,0,1.1l-6.8,7C7.1,23.7,6.9,23.8,6.7,23.8z M7.5,10.9v10.2l4.9-5.1L7.5,10.9z"/>
	</g>
	<g>
		<rect x="0.8" y="15.2" fill="#74B1E0" width="6" height="1.6"/>
	</g>
</g>
</svg>
