<?xml version="1.0" encoding="utf-8"?>
<!-- Generator: Adobe Illustrator 18.0.0, SVG Export Plug-In . SVG Version: 6.00 Build 0)  -->
<!DOCTYPE svg PUBLIC "-//W3C//DTD SVG 1.1//EN" "http://www.w3.org/Graphics/SVG/1.1/DTD/svg11.dtd">
<svg version="1.1" id="Layer_1" xmlns="http://www.w3.org/2000/svg" xmlns:xlink="http://www.w3.org/1999/xlink" x="0px" y="0px"
	 viewBox="0 0 32 32" enable-background="new 0 0 32 32" xml:space="preserve">
<g>
	<g>
		<line fill="#F0F7F7" x1="25.3" y1="16" x2="31.3" y2="16"/>
		<rect x="25.3" y="15.2" fill="#8F9BA8" width="6" height="1.6"/>
	</g>
	<g>
		<line fill="#F0F7F7" x1="12.9" y1="4.1" x2="0.8" y2="4.1"/>
		<rect x="0.7" y="3.3" fill="#8F9BA8" width="12.1" height="1.6"/>
	</g>
	<g>
		<line fill="#F0F7F7" x1="12.9" y1="18.4" x2="3.3" y2="18.4"/>
		<rect x="3.3" y="17.6" fill="#8F9BA8" width="9.6" height="1.6"/>
	</g>
	<g>
		<line fill="#F0F7F7" x1="12.9" y1="23.1" x2="0.8" y2="23.1"/>
		<rect x="0.7" y="22.3" fill="#8F9BA8" width="12.1" height="1.6"/>
	</g>
	<g>
		<line fill="#F0F7F7" x1="12.9" y1="27.9" x2="3.3" y2="27.9"/>
		<rect x="3.3" y="27.1" fill="#8F9BA8" width="9.6" height="1.6"/>
	</g>
	<g>
		<g>
			<line fill="#F0F7F7" x1="12.9" y1="8.9" x2="3.3" y2="8.9"/>
			<rect x="3.3" y="8.1" fill="#8F9BA8" width="9.6" height="1.6"/>
		</g>
		<g>
			<line fill="#F0F7F7" x1="12.9" y1="13.6" x2="0.8" y2="13.6"/>
			<rect x="0.7" y="12.8" fill="#8F9BA8" width="12.1" height="1.6"/>
		</g>
		<g>
			<line fill="#F0F7F7" x1="15.8" y1="0.8" x2="15.8" y2="31.2"/>
			<rect x="15" y="0.8" fill="#8F9BA8" width="1.6" height="30.5"/>
		</g>
		<g>
			<polygon fill="#F0F7F7" points="25.3,9 25.3,23 18.5,16 			"/>
			<path fill="#8F9BA8" d="M25.3,23.8c-0.2,0-0.4-0.1-0.6-0.2l-6.8-7c-0.3-0.3-0.3-0.8,0-1.1l6.8-7c0.2-0.2,0.6-0.3,0.9-0.2
				c0.3,0.1,0.5,0.4,0.5,0.7V23c0,0.3-0.2,0.6-0.5,0.7C25.5,23.8,25.4,23.8,25.3,23.8z M19.6,16l4.9,5.1V10.9L19.6,16z"/>
		</g>
	</g>
</g>
</svg>
