<?xml version="1.0" encoding="utf-8"?>
<!-- Generator: Adobe Illustrator 18.0.0, SVG Export Plug-In . SVG Version: 6.00 Build 0)  -->
<!DOCTYPE svg PUBLIC "-//W3C//DTD SVG 1.1//EN" "http://www.w3.org/Graphics/SVG/1.1/DTD/svg11.dtd">
<svg version="1.1" id="Layer_1" xmlns="http://www.w3.org/2000/svg" xmlns:xlink="http://www.w3.org/1999/xlink" x="0px" y="0px"
	 viewBox="0 0 32 32" enable-background="new 0 0 32 32" xml:space="preserve">
<g>
	<g>
		<rect x="1.9" y="1.5" fill="#F0F7F7" width="5" height="5"/>
		<path fill="#8F9BA8" d="M7.6,7.2H1.1V0.8h6.5V7.2z M2.6,5.7h3.5V2.3H2.6V5.7z"/>
	</g>
	<g>
		<rect x="1.9" y="9.5" fill="#F0F7F7" width="5" height="5"/>
		<path fill="#8F9BA8" d="M7.6,15.2H1.1V8.8h6.5V15.2z M2.6,13.7h3.5v-3.5H2.6V13.7z"/>
	</g>
	<g>
		<rect x="1.9" y="17.5" fill="#F0F7F7" width="5" height="5"/>
		<path fill="#8F9BA8" d="M7.6,23.2H1.1v-6.5h6.5V23.2z M2.6,21.7h3.5v-3.5H2.6V21.7z"/>
	</g>
	<g>
		<rect x="1.9" y="25.5" fill="#F0F7F7" width="5" height="5"/>
		<path fill="#8F9BA8" d="M7.6,31.3H1.1v-6.5h6.5V31.3z M2.6,29.8h3.5v-3.5H2.6V29.8z"/>
	</g>
	<g>
		<line fill="#F0F7F7" x1="11.1" y1="4" x2="30.9" y2="4"/>
		<rect x="11.1" y="3.2" fill="#8F9BA8" width="19.8" height="1.5"/>
	</g>
	<g>
		<line fill="#F0F7F7" x1="11.1" y1="12" x2="30.9" y2="12"/>
		<rect x="11.1" y="11.2" fill="#8F9BA8" width="19.8" height="1.5"/>
	</g>
	<g>
		<line fill="#F0F7F7" x1="11.1" y1="20" x2="30.9" y2="20"/>
		<rect x="11.1" y="19.3" fill="#8F9BA8" width="19.8" height="1.5"/>
	</g>
	<g>
		<line fill="#F0F7F7" x1="11.1" y1="28" x2="30.9" y2="28"/>
		<rect x="11.1" y="27.3" fill="#8F9BA8" width="19.8" height="1.5"/>
	</g>
</g>
</svg>
