<?xml version="1.0" encoding="utf-8"?>
<!-- Generator: Adobe Illustrator 18.0.0, SVG Export Plug-In . SVG Version: 6.00 Build 0)  -->
<!DOCTYPE svg PUBLIC "-//W3C//DTD SVG 1.1//EN" "http://www.w3.org/Graphics/SVG/1.1/DTD/svg11.dtd">
<svg version="1.1" id="Layer_1" xmlns="http://www.w3.org/2000/svg" xmlns:xlink="http://www.w3.org/1999/xlink" x="0px" y="0px"
	 viewBox="0 0 32 32" enable-background="new 0 0 32 32" xml:space="preserve">
<pattern  x="-168" width="24.1" height="24.1" patternUnits="userSpaceOnUse" id="New_Pattern_Swatch_2" viewBox="0 -24.1 24.1 24.1" overflow="visible">
	<g>
		<polygon fill="none" points="0,0 24.1,0 24.1,-24.1 0,-24.1 		"/>
		<polygon fill="#E0CB81" points="24.1,0 0,0 0,-24.1 24.1,-24.1 		"/>
	</g>
</pattern>
<g>
	<g>
		<path fill="#B4A79C" d="M26.6,31.2H5.4c-2.1,0-3.7-1.7-3.7-3.8v-23c0-2.1,1.7-3.8,3.7-3.8h21.3c2.1,0,3.8,1.7,3.8,3.8v23
			C30.4,29.6,28.7,31.2,26.6,31.2z M5.4,2.2c-1.2,0-2.2,1-2.2,2.3v23c0,1.2,1,2.3,2.2,2.3h21.3c1.2,0,2.3-1,2.3-2.3v-23
			c0-1.2-1-2.3-2.3-2.3H5.4z"/>
	</g>
	<g>
		<path fill="#FAC2C3" d="M13.2,13l3.8,4.5c0.3,0.4,0.9,0.4,1.3,0.1l2.1-1.8c0.3-0.3,0.8-0.3,1.2,0l4.1,3.7V6.7
			c0-0.7-0.6-1.3-1.3-1.3H7.8C7.1,5.4,6.5,6,6.5,6.7v12.7l5.4-6.4C12.2,12.6,12.8,12.6,13.2,13z"/>
		<path fill="#DA8C8C" d="M5.7,21.4V6.7c0-1.2,0.9-2.1,2.1-2.1h16.4c1.2,0,2.1,0.9,2.1,2.1v14.3l-5.4-4.8l-0.2,0l-2.1,1.8
			c-0.7,0.6-1.8,0.5-2.3-0.2l-3.8-4.5c-0.1-0.1-0.1-0.1-0.2,0L5.7,21.4z M20.8,14.8c0.4,0,0.8,0.1,1.1,0.4l2.9,2.6v-11
			c0-0.3-0.3-0.6-0.6-0.6H7.8c-0.3,0-0.6,0.3-0.6,0.6v10.6l4-4.8c0.6-0.7,1.9-0.7,2.5,0l3.8,4.5c0,0,0.1,0,0.1,0l2.1-1.9
			C20,14.9,20.4,14.8,20.8,14.8z"/>
	</g>
	<g>
		<g>
			<defs>
				<path id="SVGID_1_" d="M21.4,15.7c-0.3-0.3-0.8-0.3-1.2,0l-2.1,1.8c-0.4,0.3-0.9,0.3-1.3-0.1L13.2,13c-0.3-0.4-1-0.4-1.3,0
					l-5.4,6.4v2c0,0.7,0.6,1.3,1.3,1.3h16.4c0.7,0,1.3-0.6,1.3-1.3v-1.9L21.4,15.7z"/>
			</defs>
			<clipPath id="SVGID_2_">
				<use xlink:href="#SVGID_1_"  overflow="visible"/>
			</clipPath>
			<g clip-path="url(#SVGID_2_)">
				<rect x="16.1" y="7.9" fill="none" width="24.1" height="24.1"/>
				<rect x="16.1" y="7.9" fill="#FEE99B" width="24.1" height="24.1"/>
			</g>
			<g clip-path="url(#SVGID_2_)">
				<rect x="-8" y="7.9" fill="none" width="24.1" height="24.1"/>
				<rect x="-8" y="7.9" fill="#FEE99B" width="24.1" height="24.1"/>
			</g>
		</g>
		<pattern  id="SVGID_4_" xlink:href="#New_Pattern_Swatch_2" patternTransform="matrix(1 0 0 1 -4.5862 33.5988)">
		</pattern>
		<path fill="url(#SVGID_4_)" d="M24.2,23.4H7.8c-1.2,0-2.1-0.9-2.1-2.1v-2.2l5.5-6.6c0.6-0.7,1.9-0.7,2.5,0l3.8,4.5
			c0,0,0.1,0,0.1,0l2.1-1.9c0.6-0.5,1.6-0.5,2.2,0l4.4,3.9v2.3C26.3,22.5,25.4,23.4,24.2,23.4z M7.2,19.6v1.7c0,0.3,0.3,0.6,0.6,0.6
			h16.4c0.3,0,0.6-0.3,0.6-0.6v-1.6l-3.9-3.4l-0.2,0l-2.1,1.8c-0.7,0.6-1.8,0.5-2.3-0.2l-3.8-4.5c-0.1-0.1-0.1-0.1-0.2,0L7.2,19.6z"
			/>
	</g>
</g>
</svg>
