<?xml version="1.0" encoding="utf-8"?>
<!-- Generator: Adobe Illustrator 18.0.0, SVG Export Plug-In . SVG Version: 6.00 Build 0)  -->
<!DOCTYPE svg PUBLIC "-//W3C//DTD SVG 1.1//EN" "http://www.w3.org/Graphics/SVG/1.1/DTD/svg11.dtd">
<svg version="1.1" id="Layer_1" xmlns="http://www.w3.org/2000/svg" xmlns:xlink="http://www.w3.org/1999/xlink" x="0px" y="0px"
	 viewBox="0 0 32 32" enable-background="new 0 0 32 32" xml:space="preserve">
<g>
	<g>
		<path fill="#8F9BA8" d="M30.5,31.3h-29c-0.4,0-0.8-0.3-0.8-0.8V12c0-0.3,0.2-0.5,0.4-0.7c0.3-0.1,0.6-0.1,0.8,0.1L16,21.6
			l14.1-10.2c0.2-0.2,0.5-0.2,0.8-0.1c0.3,0.1,0.4,0.4,0.4,0.7v18.5C31.3,30.9,30.9,31.3,30.5,31.3z M2.3,29.8h27.5V13.5l-13.3,9.7
			c-0.3,0.2-0.6,0.2-0.9,0L2.3,13.5V29.8z"/>
	</g>
	<g>
		
			<rect x="17.7" y="24.4" transform="matrix(0.6989 0.7152 -0.7152 0.6989 25.5505 -10.4844)" fill="#8F9BA8" width="15.1" height="1.5"/>
	</g>
	<g>
		
			<rect x="6" y="17.6" transform="matrix(0.7151 0.6991 -0.6991 0.7151 19.4799 2.4191)" fill="#8F9BA8" width="1.5" height="15.1"/>
	</g>
	<g>
		<path fill="#8F9BA8" d="M26.6,15.6c-0.1,0-0.2,0-0.3-0.1c-0.3-0.1-0.4-0.4-0.4-0.7V9.2c0-0.3,0.2-0.5,0.4-0.7
			c0.3-0.1,0.6-0.1,0.8,0.1l3.9,2.8c0.2,0.1,0.3,0.4,0.3,0.6s-0.1,0.5-0.3,0.6l-3.9,2.8C26.9,15.5,26.8,15.6,26.6,15.6z M27.4,10.7
			v2.7l1.9-1.3L27.4,10.7z"/>
	</g>
	<g>
		<path fill="#8F9BA8" d="M21.5,6.3H10.5c-0.3,0-0.6-0.2-0.7-0.5c-0.1-0.3,0-0.6,0.3-0.8l5.5-4c0.3-0.2,0.6-0.2,0.9,0l5.5,4
			c0.3,0.2,0.4,0.5,0.3,0.8C22.2,6.1,21.9,6.3,21.5,6.3z M12.8,4.8h6.5L16,2.4L12.8,4.8z"/>
	</g>
	<g>
		<path fill="#8F9BA8" d="M5.4,15.6c-0.2,0-0.3,0-0.4-0.1l-3.9-2.8c-0.2-0.1-0.3-0.4-0.3-0.6s0.1-0.5,0.3-0.6l3.9-2.8
			c0.2-0.2,0.5-0.2,0.8-0.1C6,8.7,6.1,8.9,6.1,9.2v5.6c0,0.3-0.2,0.5-0.4,0.7C5.6,15.6,5.5,15.6,5.4,15.6z M2.8,12l1.9,1.3v-2.7
			L2.8,12z"/>
	</g>
	<g>
		<polygon fill="#F9F8F2" points="21.5,5.5 10.5,5.5 5.4,5.5 5.4,9.2 5.4,14.8 16,22.6 26.6,14.8 26.6,9.2 26.6,5.5 		"/>
		<path fill="#B4A79C" d="M16,23.3c-0.2,0-0.3,0-0.4-0.1L4.9,15.5c-0.2-0.1-0.3-0.4-0.3-0.6V5.5c0-0.4,0.3-0.8,0.8-0.8h21.2
			c0.4,0,0.8,0.3,0.8,0.8v9.3c0,0.2-0.1,0.5-0.3,0.6l-10.6,7.7C16.3,23.3,16.2,23.3,16,23.3z M6.1,14.5l9.9,7.2l9.9-7.2V6.3H6.1
			V14.5z"/>
	</g>
	<g>
		<line fill="#F9F8F2" x1="11.4" y1="10.1" x2="20.4" y2="10.1"/>
		<rect x="11.4" y="9.4" fill="#B4A79C" width="9" height="1.5"/>
	</g>
	<g>
		<line fill="#F9F8F2" x1="11.4" y1="14" x2="20.4" y2="14"/>
		<rect x="11.4" y="13.3" fill="#B4A79C" width="9" height="1.5"/>
	</g>
</g>
</svg>
