<?xml version="1.0" encoding="utf-8"?>
<!-- Generator: Adobe Illustrator 18.0.0, SVG Export Plug-In . SVG Version: 6.00 Build 0)  -->
<!DOCTYPE svg PUBLIC "-//W3C//DTD SVG 1.1//EN" "http://www.w3.org/Graphics/SVG/1.1/DTD/svg11.dtd">
<svg version="1.1" id="Layer_1" xmlns="http://www.w3.org/2000/svg" xmlns:xlink="http://www.w3.org/1999/xlink" x="0px" y="0px"
	 viewBox="0 0 32 32" enable-background="new 0 0 32 32" xml:space="preserve">
<g>
	<g>
		<polygon fill="#8F9BA8" points="16.1,17.7 1.9,3.5 3,2.4 16.1,15.5 29.1,2.4 30.2,3.5 		"/>
	</g>
	<g>
		<path fill="#8F9BA8" d="M28,24.6v-1.1l0.7-0.1l0,0H28c0-3.1-2.5-5.6-5.6-5.6s-5.6,2.5-5.6,5.6c0,0.1,0,0.1,0,0.2v0.9H4.1
			c-1.8,0-3.3-1.5-3.3-3.3V4.9c0-1.8,1.5-3.3,3.3-3.3h23.8c1.8,0,3.3,1.5,3.3,3.3v16.2c0,1.4-0.9,2.6-2.2,3.1L28,24.6z M4.1,3
			c-1,0-1.8,0.8-1.8,1.8V21c0,1,0.8,1.8,1.8,1.8h11.2c0.2-3.7,3.3-6.7,7.1-6.7c3.5,0,6.4,2.5,7,5.9c0.2-0.3,0.3-0.6,0.3-1V4.9
			c0-1-0.8-1.8-1.8-1.8H4.1V3z"/>
	</g>
	<g>
		<path fill="#FAC2C3" d="M22.4,16.9c-3.5,0-6.4,2.9-6.4,6.4c0,0.1,0,0.2,0,0.3c0.2,3.4,3,6.1,6.4,6.1c3.5,0,6.3-2.8,6.4-6.2
			c0-0.1,0-0.1,0-0.2C28.8,19.8,26,16.9,22.4,16.9z"/>
		<path fill="#DA8C8C" d="M22.4,30.5c-3.8,0-6.9-3-7.1-6.8c0-0.2,0-0.3,0-0.4c0-3.9,3.2-7.1,7.1-7.1s7.1,3.2,7.1,7.1v0.1
			C29.5,27.4,26.3,30.5,22.4,30.5z M22.4,17.7c-3.1,0-5.6,2.5-5.6,5.6c0,0.1,0,0.1,0,0.2v0.1c0.2,3,2.6,5.4,5.6,5.4
			c3.1,0,5.6-2.4,5.6-5.5l0.8-0.1H28C28.1,20.2,25.5,17.7,22.4,17.7z"/>
	</g>
	<g>
		<polyline fill="#FAC2C3" points="22.4,19.1 22.4,23.7 24.2,25.4 		"/>
		<polygon fill="#DA8C8C" points="23.7,25.9 21.7,24 21.7,19.1 23.2,19.1 23.2,23.3 24.7,24.9 		"/>
	</g>
</g>
</svg>
