<?xml version="1.0" encoding="utf-8"?>
<!-- Generator: Adobe Illustrator 18.0.0, SVG Export Plug-In . SVG Version: 6.00 Build 0)  -->
<!DOCTYPE svg PUBLIC "-//W3C//DTD SVG 1.1//EN" "http://www.w3.org/Graphics/SVG/1.1/DTD/svg11.dtd">
<svg version="1.1" id="Layer_1" xmlns="http://www.w3.org/2000/svg" xmlns:xlink="http://www.w3.org/1999/xlink" x="0px" y="0px"
	 viewBox="0 0 32 32" enable-background="new 0 0 32 32" xml:space="preserve">
<g>
	<g>
		<path fill="#DA8C8C" d="M28.5,26.3h-25c-1.5,0-2.7-1.2-2.7-2.7V8.4c0-1.5,1.2-2.7,2.7-2.7h25.1c1.5,0,2.7,1.2,2.7,2.7v15.1
			C31.3,25.1,30,26.3,28.5,26.3z M3.5,7.2c-0.7,0-1.2,0.5-1.2,1.2v15.1c0,0.7,0.5,1.2,1.2,1.2h25.1c0.7,0,1.2-0.5,1.2-1.2V8.4
			c0-0.7-0.5-1.2-1.2-1.2H3.5z"/>
	</g>
	<g>
		<rect x="5.7" y="11" fill="#F2E8B9" width="5.8" height="6.9"/>
		<path fill="#B4A042" d="M12.3,18.7H5v-8.4h7.3V18.7z M6.5,17.2h4.3v-5.4H6.5V17.2z"/>
	</g>
	<g>
		<line fill="none" x1="17.4" y1="16" x2="24" y2="16"/>
		<rect x="17.4" y="15.3" fill="#DA8C8C" width="6.7" height="1.5"/>
	</g>
	<g>
		<line fill="none" x1="17.4" y1="19.8" x2="24" y2="19.8"/>
		<rect x="17.4" y="19" fill="#DA8C8C" width="6.7" height="1.5"/>
	</g>
</g>
</svg>
