<?xml version="1.0" encoding="utf-8"?>
<!-- Generator: Adobe Illustrator 18.0.0, SVG Export Plug-In . SVG Version: 6.00 Build 0)  -->
<!DOCTYPE svg PUBLIC "-//W3C//DTD SVG 1.1//EN" "http://www.w3.org/Graphics/SVG/1.1/DTD/svg11.dtd">
<svg version="1.1" id="Layer_1" xmlns="http://www.w3.org/2000/svg" xmlns:xlink="http://www.w3.org/1999/xlink" x="0px" y="0px"
	 viewBox="0 0 32 32" enable-background="new 0 0 32 32" xml:space="preserve">
<g>
	<g>
		<path fill="#B4A79C" d="M31.3,21.8H13.9V10.1c0-3.2-2.6-5.8-5.8-5.8V2.8h15.8c4,0,7.3,3.3,7.3,7.3L31.3,21.8L31.3,21.8z
			 M15.4,20.3h14.4V10.1c0-3.2-2.6-5.8-5.8-5.8H12.5c1.8,1.3,2.9,3.5,2.9,5.8V20.3z"/>
	</g>
	<g>
		<path fill="#F9F8F2" d="M8.1,3.5L8.1,3.5c-3.6,0-6.6,2.9-6.6,6.6V21h7.4h5.7V10.1C14.6,6.4,11.7,3.5,8.1,3.5z"/>
		<path fill="#B4A79C" d="M15.4,21.8H0.8V10.1c0-4,3.3-7.3,7.3-7.3s7.3,3.3,7.3,7.3C15.4,10.1,15.4,21.8,15.4,21.8z M2.3,20.3h11.6
			V10.1c0-3.2-2.6-5.8-5.8-5.8s-5.8,2.6-5.8,5.8C2.3,10.1,2.3,20.3,2.3,20.3z"/>
	</g>
	<g>
		<line fill="none" x1="4.5" y1="10.2" x2="11.6" y2="10.2"/>
		<rect x="4.5" y="9.4" fill="#B4A79C" width="7.1" height="1.5"/>
	</g>
	<g>
		<line fill="none" x1="16" y1="21" x2="16" y2="29.2"/>
		<rect x="15.3" y="21" fill="#B4A79C" width="1.5" height="8.2"/>
	</g>
</g>
</svg>
