<?xml version="1.0" encoding="utf-8"?>
<!-- Generator: Adobe Illustrator 18.0.0, SVG Export Plug-In . SVG Version: 6.00 Build 0)  -->
<!DOCTYPE svg PUBLIC "-//W3C//DTD SVG 1.1//EN" "http://www.w3.org/Graphics/SVG/1.1/DTD/svg11.dtd">
<svg version="1.1" id="Layer_1" xmlns="http://www.w3.org/2000/svg" xmlns:xlink="http://www.w3.org/1999/xlink" x="0px" y="0px"
	 viewBox="0 0 32 32" enable-background="new 0 0 32 32" xml:space="preserve">
<g>
	<g>
		<path fill="#8F9BA8" d="M8.5,8.5H0.8V0.8h7.8V8.5z M2.3,7H7V2.3H2.3V7z"/>
	</g>
	<g>
		<path fill="#8F9BA8" d="M8.5,31.2H0.8v-7.8h7.8V31.2z M2.3,29.7H7V25H2.3V29.7z"/>
	</g>
	<g>
		<path fill="#8F9BA8" d="M31.2,31.2h-7.8v-7.8h7.8V31.2z M25,29.7h4.8V25H25V29.7z"/>
	</g>
	<g>
		<path fill="#8F9BA8" d="M25,28.1H7V25H3.9V7H7V3.9h13.4l2,2l-6.7,6.7l3.6,3.6l6.7-6.7l2,2V25H25V28.1z M8.5,26.6h14.9v-3.1h3.1
			V12.2l-0.5-0.5l-6.7,6.7l-5.8-5.8l6.7-6.7l-0.5-0.5H8.5v3.1H5.4v14.9h3.1V26.6z"/>
	</g>
	<g>
		<polygon fill="#F0F7F7" points="30.5,1.5 16.9,1.5 20.1,4.7 21.4,5.9 14.7,12.6 19.4,17.3 26.1,10.6 27.4,11.9 30.5,15 		"/>
		<path fill="#74B1E0" d="M19.4,18.4l-5.8-5.8l6.7-6.7l-5.2-5.2l16.1,0l0,16.1l-5.2-5.2L19.4,18.4z M15.7,12.6l3.6,3.6l6.7-6.7
			l3.7,3.7l0-11l-11,0l3.7,3.7L15.7,12.6z"/>
	</g>
</g>
</svg>
