<?xml version="1.0" encoding="utf-8"?>
<!-- Generator: Adobe Illustrator 18.0.0, SVG Export Plug-In . SVG Version: 6.00 Build 0)  -->
<!DOCTYPE svg PUBLIC "-//W3C//DTD SVG 1.1//EN" "http://www.w3.org/Graphics/SVG/1.1/DTD/svg11.dtd">
<svg version="1.1" id="Layer_1" xmlns="http://www.w3.org/2000/svg" xmlns:xlink="http://www.w3.org/1999/xlink" x="0px" y="0px"
	 viewBox="0 0 32 32" enable-background="new 0 0 32 32" xml:space="preserve">
<pattern  x="-126" width="24.1" height="24.1" patternUnits="userSpaceOnUse" id="New_Pattern_Swatch_2" viewBox="0 -24.1 24.1 24.1" overflow="visible">
	<g>
		<polygon fill="none" points="0,0 24.1,0 24.1,-24.1 0,-24.1 		"/>
		<polygon fill="#E0CB81" points="24.1,0 0,0 0,-24.1 24.1,-24.1 		"/>
	</g>
</pattern>
<g>
	<g>
		<path fill="#8F9BA8" d="M8.4,8.7H0.6V0.9h7.8V8.7z M2.1,7.2h4.8V2.4H2.1V7.2z"/>
	</g>
	<g>
		<path fill="#8F9BA8" d="M8.4,31.4H0.6v-7.8h7.8V31.4z M2.1,29.9h4.8v-4.8H2.1V29.9z"/>
	</g>
	<g>
		<path fill="#8F9BA8" d="M31.1,31.4h-7.8v-7.8h7.8V31.4z M24.8,29.9h4.8v-4.8h-4.8V29.9z"/>
	</g>
	<g>
		<polygon fill="#8F9BA8" points="24.8,28.3 6.9,28.3 6.9,25.1 3.7,25.1 3.7,7.2 6.9,7.2 6.9,4 22.4,4 22.4,5.5 8.4,5.5 8.4,8.7 
			5.2,8.7 5.2,23.6 8.4,23.6 8.4,26.8 23.3,26.8 23.3,23.6 26.5,23.6 26.5,9.6 28,9.6 28,25.1 24.8,25.1 		"/>
	</g>
	<g>
		<g>
			<defs>
				<polygon id="SVGID_9_" points="14.5,17.5 28.1,17.5 24.9,14.3 23.6,13.1 30.3,6.4 25.6,1.7 18.9,8.4 17.6,7.1 14.5,3.9 				"/>
			</defs>
			<clipPath id="SVGID_2_">
				<use xlink:href="#SVGID_9_"  overflow="visible"/>
			</clipPath>
			<g clip-path="url(#SVGID_2_)">
				<rect x="23.3" y="1" fill="none" width="24.1" height="24.1"/>
				<rect x="23.3" y="1" fill="#FEE99B" width="24.1" height="24.1"/>
			</g>
			<g clip-path="url(#SVGID_2_)">
				<rect x="-0.8" y="1" fill="none" width="24.1" height="24.1"/>
				<rect x="-0.8" y="1" fill="#FEE99B" width="24.1" height="24.1"/>
			</g>
		</g>
		<pattern  id="SVGID_4_" xlink:href="#New_Pattern_Swatch_2" patternTransform="matrix(1 0 0 1 -15.2843 26.6668)">
		</pattern>
		<path fill="url(#SVGID_4_)" d="M13.8,18.2l0-16.1l5.2,5.2l6.7-6.7l5.8,5.8l-6.7,6.7l5.2,5.2L13.8,18.2z M15.3,5.7l0,11l11,0
			l-3.7-3.7l6.7-6.7l-3.6-3.6l-6.7,6.7L15.3,5.7z"/>
	</g>
</g>
</svg>
