<?xml version="1.0" encoding="utf-8"?>
<!-- Generator: Adobe Illustrator 18.0.0, SVG Export Plug-In . SVG Version: 6.00 Build 0)  -->
<!DOCTYPE svg PUBLIC "-//W3C//DTD SVG 1.1//EN" "http://www.w3.org/Graphics/SVG/1.1/DTD/svg11.dtd">
<svg version="1.1" id="Layer_1" xmlns="http://www.w3.org/2000/svg" xmlns:xlink="http://www.w3.org/1999/xlink" x="0px" y="0px"
	 viewBox="0 0 32 32" enable-background="new 0 0 32 32" xml:space="preserve">
<g>
	<g>
		<path fill="#8F9BA8" d="M15.4,31.2H0.8V16.6h14.7V31.2z M2.3,29.7h11.7V18.1H2.3V29.7z"/>
	</g>
	<g>
		<path fill="#8F9BA8" d="M31.3,15.4H16.6V0.7h14.7V15.4z M18.1,13.9h11.7V2.2H18.1V13.9z"/>
	</g>
	<g>
		<polygon fill="#8F9BA8" points="24.7,24.7 17.3,24.7 17.3,23.2 23.2,23.2 23.2,16.5 24.7,16.5 		"/>
	</g>
	<g>
		<polygon fill="#8F9BA8" points="20,27.8 16.1,23.9 20,20 21,21.1 18.2,23.9 21,26.7 		"/>
	</g>
	<g>
		<polygon fill="#8F9BA8" points="8.8,15.5 7.3,15.5 7.3,7.3 14.8,7.3 14.8,8.8 8.8,8.8 		"/>
	</g>
	<g>
		<polygon fill="#8F9BA8" points="12,11.9 11,10.9 13.8,8.1 11,5.3 12,4.2 15.9,8.1 		"/>
	</g>
</g>
<g>
	<g>
		<g>
			<defs>
				<polygon id="SVGID_9_" points="-27.5,17.5 -13.9,17.5 -17.1,14.3 -18.4,13.1 -11.7,6.4 -16.4,1.7 -23.1,8.4 -24.4,7.1 
					-27.5,3.9 				"/>
			</defs>
			<clipPath id="SVGID_2_">
				<use xlink:href="#SVGID_9_"  overflow="visible"/>
			</clipPath>
			<g clip-path="url(#SVGID_2_)">
				<rect x="-18.7" y="1" fill="none" width="24.1" height="24.1"/>
				<rect x="-18.7" y="1" fill="#FEE99B" width="24.1" height="24.1"/>
			</g>
		</g>
	</g>
</g>
</svg>
