<?xml version="1.0" encoding="utf-8"?>
<!-- Generator: Adobe Illustrator 18.0.0, SVG Export Plug-In . SVG Version: 6.00 Build 0)  -->
<!DOCTYPE svg PUBLIC "-//W3C//DTD SVG 1.1//EN" "http://www.w3.org/Graphics/SVG/1.1/DTD/svg11.dtd">
<svg version="1.1" id="Layer_1" xmlns="http://www.w3.org/2000/svg" xmlns:xlink="http://www.w3.org/1999/xlink" x="0px" y="0px"
	 viewBox="0 0 32 32" enable-background="new 0 0 32 32" xml:space="preserve">
<g>
	<g>
		<path fill="#AEA051" d="M19,15.8h-1.5V13c0-0.8-0.7-1.5-1.5-1.5c-0.8,0-1.5,0.7-1.5,1.5v2.8H13V13c0-1.7,1.3-3,3-3s3,1.3,3,3V15.8
			z"/>
	</g>
	<g>
		<path fill="#8F9BA8" d="M25.8,28.5H18v-2.7H14v2.7H6.2v-2.7H3.5V18h2.7V14H3.5V6.2h2.7V3.5H14v2.7H18V3.5h7.8v2.7h2.7V14h-2.7V18
			h2.7v7.8h-2.7V28.5z M19.5,27h4.8v-2.7H27v-4.8h-2.7v-6.9H27V7.7h-2.7V5h-4.8v2.7h-6.9V5H7.7v2.7H5v4.8h2.7v6.9H5v4.8h2.7V27h4.8
			v-2.7h6.9V27z"/>
	</g>
	<g>
		<path fill="#8F9BA8" d="M19.5,7.7h-6.9V0.7h6.9V7.7z M14,6.2H18V2.2H14V6.2z"/>
	</g>
	<g>
		<path fill="#8F9BA8" d="M19.5,31.2h-6.9v-6.9h6.9V31.2z M14,29.7H18v-3.9H14V29.7z"/>
	</g>
	<g>
		<path fill="#8F9BA8" d="M7.7,7.7H0.8V0.7h6.9V7.7z M2.3,6.2h3.9V2.2H2.3V6.2z"/>
	</g>
	<g>
		<path fill="#8F9BA8" d="M7.7,19.5H0.8v-6.9h6.9V19.5z M2.3,18h3.9V14H2.3V18z"/>
	</g>
	<g>
		<path fill="#8F9BA8" d="M7.7,31.2H0.8v-6.9h6.9V31.2z M2.3,29.7h3.9v-3.9H2.3V29.7z"/>
	</g>
	<g>
		<path fill="#8F9BA8" d="M31.3,7.7h-6.9V0.7h6.9V7.7z M25.8,6.2h3.9V2.2h-3.9V6.2z"/>
	</g>
	<g>
		<path fill="#8F9BA8" d="M31.3,19.5h-6.9v-6.9h6.9V19.5z M25.8,18h3.9V14h-3.9V18z"/>
	</g>
	<g>
		<path fill="#8F9BA8" d="M31.3,31.2h-6.9v-6.9h6.9V31.2z M25.8,29.7h3.9v-3.9h-3.9V29.7z"/>
	</g>
	<g>
		<rect x="12.2" y="15.8" fill="#FBF4B2" width="7.6" height="5.4"/>
		<path fill="#AEA051" d="M20.6,22h-9.1v-6.9h9.1V22z M12.9,20.5h6.1v-3.9h-6.1V20.5z"/>
	</g>
</g>
</svg>
