<?xml version="1.0" encoding="utf-8"?>
<!-- Generator: Adobe Illustrator 18.0.0, SVG Export Plug-In . SVG Version: 6.00 Build 0)  -->
<!DOCTYPE svg PUBLIC "-//W3C//DTD SVG 1.1//EN" "http://www.w3.org/Graphics/SVG/1.1/DTD/svg11.dtd">
<svg version="1.1" id="Layer_1" xmlns="http://www.w3.org/2000/svg" xmlns:xlink="http://www.w3.org/1999/xlink" x="0px" y="0px"
	 viewBox="0 0 32 32" enable-background="new 0 0 32 32" xml:space="preserve">
<g>
	<g>
		<g>
			<g>
				<g>
					<rect x="3.5" y="6.9" fill="#8F9BA8" width="1.5" height="1"/>
				</g>
				<g>
					<path fill="#8F9BA8" d="M5,24.7H3.5v-2.1H5V24.7z M5,20.5H3.5v-2.1H5V20.5z M5,16.3H3.5v-2.1H5V16.3z M5,12.1H3.5V10H5V12.1z"
						/>
				</g>
				<g>
					<polygon fill="#8F9BA8" points="5.2,28.5 3.5,28.5 3.5,26.8 5,26.8 5,27 5.2,27 					"/>
				</g>
				<g>
					<path fill="#8F9BA8" d="M9.4,28.5H7.3V27h2.1V28.5z M17.8,28.5h-2.1V27h2.1V28.5z M13.6,28.5h-2.1V27h2.1V28.5z M22,28.5h-2.1
						V27H22V28.5z"/>
				</g>
				<g>
					<rect x="24.1" y="27" fill="#8F9BA8" width="1" height="1.5"/>
				</g>
			</g>
		</g>
	</g>
	<g>
		<path fill="#8F9BA8" d="M28.5,25.1H27c0-5.4-2.1-10.4-5.9-14.2C17.4,7.1,12.3,5,6.9,5V3.5c5.8,0,11.2,2.2,15.3,6.3
			C26.3,13.9,28.5,19.3,28.5,25.1z"/>
	</g>
	<g>
		<polygon fill="#F7DCE5" points="6.9,4.2 6.9,1.5 1.5,1.5 1.5,6.9 4.2,6.9 6.9,6.9 		"/>
		<path fill="#CF817F" d="M7.7,7.7H0.7V0.8h6.9L7.7,7.7z M2.2,6.2h3.9l0-3.9H2.2V6.2z"/>
	</g>
	<g>
		<polygon fill="#F7DCE5" points="25.1,27.8 25.1,30.5 30.5,30.5 30.5,25.1 27.8,25.1 25.1,25.1 		"/>
		<path fill="#CF817F" d="M31.3,31.2h-6.9l0-6.9h6.9V31.2z M25.8,29.7h3.9v-3.9h-3.9L25.8,29.7z"/>
	</g>
</g>
</svg>
