<?xml version="1.0" encoding="utf-8"?>
<!-- Generator: Adobe Illustrator 18.0.0, SVG Export Plug-In . SVG Version: 6.00 Build 0)  -->
<!DOCTYPE svg PUBLIC "-//W3C//DTD SVG 1.1//EN" "http://www.w3.org/Graphics/SVG/1.1/DTD/svg11.dtd">
<svg version="1.1" id="Layer_1" xmlns="http://www.w3.org/2000/svg" xmlns:xlink="http://www.w3.org/1999/xlink" x="0px" y="0px"
	 viewBox="0 0 32 32" enable-background="new 0 0 32 32" xml:space="preserve">
<g>
	<g>
		<path fill="#8F9BA8" d="M25.8,28.5H6.2v-2.7H3.5V6.2h2.7V3.5h19.6v2.7h2.7v19.6h-2.7V28.5z M7.7,27h16.6v-2.7H27V7.7h-2.7V5H7.7
			v2.7H5v16.6h2.7V27z"/>
	</g>
	<g>
		<polygon fill="#F0F7F7" points="1.5,1.5 1.5,6.9 4.2,6.9 6.9,6.9 6.9,4.2 6.9,1.5 		"/>
		<path fill="#8F9BA8" d="M7.7,7.7H0.8V0.7h6.9V7.7z M2.3,6.2h3.9V2.2H2.3V6.2z"/>
	</g>
	<g>
		<path fill="#8F9BA8" d="M7.7,31.2H0.8v-6.9h6.9V31.2z M2.3,29.7h3.9v-3.9H2.3V29.7z"/>
	</g>
	<g>
		<path fill="#8F9BA8" d="M31.3,7.7h-6.9V0.7h6.9V7.7z M25.8,6.2h3.9V2.2h-3.9V6.2z"/>
	</g>
	<g>
		<polygon fill="#F0F7F7" points="27.8,25.1 25.1,25.1 25.1,27.8 25.1,30.5 30.5,30.5 30.5,25.1 		"/>
		<path fill="#8F9BA8" d="M31.3,31.2h-6.9v-6.9h6.9V31.2z M25.8,29.7h3.9v-3.9h-3.9V29.7z"/>
	</g>
</g>
</svg>
