<?xml version="1.0" encoding="utf-8"?>
<!-- Generator: Adobe Illustrator 18.0.0, SVG Export Plug-In . SVG Version: 6.00 Build 0)  -->
<!DOCTYPE svg PUBLIC "-//W3C//DTD SVG 1.1//EN" "http://www.w3.org/Graphics/SVG/1.1/DTD/svg11.dtd">
<svg version="1.1" id="Layer_1" xmlns="http://www.w3.org/2000/svg" xmlns:xlink="http://www.w3.org/1999/xlink" x="0px" y="0px"
	 viewBox="0 0 32 32" enable-background="new 0 0 32 32" xml:space="preserve">
<g>
	<g>
		<polygon fill="#F0F7F7" points="4.2,25.1 1.5,25.1 1.5,30.5 6.9,30.5 6.9,27.8 6.9,25.1 		"/>
		<path fill="#8F9BA8" d="M7.7,31.2H0.8v-6.9h6.9V31.2z M2.3,29.7h3.9v-3.9H2.3V29.7z"/>
	</g>
	<g>
		<polygon fill="#F0F7F7" points="27.8,6.9 30.5,6.9 30.5,1.5 25.1,1.5 25.1,4.2 25.1,6.9 		"/>
		<path fill="#8F9BA8" d="M31.3,7.7h-6.9V0.7h6.9V7.7z M25.8,6.2h3.9V2.2h-3.9V6.2z"/>
	</g>
	<g>
		<g>
			<g>
				<rect x="6.9" y="27" fill="#8F9BA8" width="1" height="1.5"/>
			</g>
			<g>
				<path fill="#8F9BA8" d="M24.7,28.5h-2.1V27h2.1V28.5z M20.5,28.5h-2.1V27h2.1V28.5z M16.3,28.5h-2.1V27h2.1V28.5z M12.1,28.5H10
					V27h2.1V28.5z"/>
			</g>
			<g>
				<polygon fill="#8F9BA8" points="28.5,28.5 26.8,28.5 26.8,27 27,27 27,26.8 28.5,26.8 				"/>
			</g>
			<g>
				<path fill="#8F9BA8" d="M28.5,24.7H27v-2.1h1.5V24.7z M28.5,20.5H27v-2.1h1.5V20.5z M28.5,16.3H27v-2.1h1.5V16.3z M28.5,12.1H27
					V10h1.5V12.1z"/>
			</g>
			<g>
				<rect x="27" y="6.9" fill="#8F9BA8" width="1.5" height="1"/>
			</g>
		</g>
	</g>
	<g>
		<polygon fill="#8F9BA8" points="5,25.1 3.5,25.1 3.5,3.5 25.1,3.5 25.1,5 5,5 		"/>
	</g>
	<g>
		
			<rect x="15.3" y="3.2" transform="matrix(0.7071 0.7071 -0.7071 0.7071 16.001 -6.6278)" fill="#8F9BA8" width="1.5" height="25.6"/>
	</g>
</g>
</svg>
