<?xml version="1.0" encoding="utf-8"?>
<!-- Generator: Adobe Illustrator 18.0.0, SVG Export Plug-In . SVG Version: 6.00 Build 0)  -->
<!DOCTYPE svg PUBLIC "-//W3C//DTD SVG 1.1//EN" "http://www.w3.org/Graphics/SVG/1.1/DTD/svg11.dtd">
<svg version="1.1" id="Layer_1" xmlns="http://www.w3.org/2000/svg" xmlns:xlink="http://www.w3.org/1999/xlink" x="0px" y="0px"
	 viewBox="0 0 32 32" enable-background="new 0 0 32 32" xml:space="preserve">
<g>
	<g>
		<path fill="#B4A79C" d="M16,31.2C7.6,31.2,0.8,24.4,0.8,16C0.8,7.6,7.6,0.7,16,0.7S31.3,7.6,31.3,16C31.3,24.4,24.4,31.2,16,31.2z
			 M16,2.2C8.4,2.2,2.3,8.4,2.3,16c0,7.6,6.2,13.7,13.8,13.7S29.8,23.6,29.8,16C29.8,8.4,23.6,2.2,16,2.2z"/>
	</g>
	<g>
		<path fill="#B4A79C" d="M16,31.2c-4.4,0-7.9-6.7-7.9-15.2c0-8.6,3.5-15.3,7.9-15.3s7.9,6.7,7.9,15.3C23.9,24.6,20.4,31.2,16,31.2z
			 M16,2.2c-3.5,0-6.4,6.3-6.4,13.8c0,7.5,2.9,13.7,6.4,13.7s6.4-6.3,6.4-13.7C22.4,8.5,19.5,2.2,16,2.2z"/>
	</g>
	<g>
		<path fill="#B4A79C" d="M16,9.6c-4.3,0-8.4-0.9-11.3-2.5l0.7-1.3C8.1,7.3,11.9,8.1,16,8.1c4,0,7.9-0.8,10.5-2.3l0.7,1.3
			C24.4,8.7,20.3,9.6,16,9.6z"/>
	</g>
	<g>
		<path fill="#B4A79C" d="M5.3,26.3L4.5,25c2.9-1.7,7.1-2.7,11.5-2.7c4.3,0,8.3,0.9,11.2,2.5l-0.7,1.3c-2.6-1.5-6.5-2.3-10.5-2.3
			C11.8,23.9,7.9,24.8,5.3,26.3z"/>
	</g>
	<g>
		<rect x="15.3" y="1.5" fill="#B4A79C" width="1.5" height="29"/>
	</g>
	<g>
		<rect x="1.5" y="15.3" fill="#B4A79C" width="29" height="1.5"/>
	</g>
</g>
</svg>
