<?xml version="1.0" encoding="utf-8"?>
<!-- Generator: Adobe Illustrator 18.0.0, SVG Export Plug-In . SVG Version: 6.00 Build 0)  -->
<!DOCTYPE svg PUBLIC "-//W3C//DTD SVG 1.1//EN" "http://www.w3.org/Graphics/SVG/1.1/DTD/svg11.dtd">
<svg version="1.1" id="Layer_1" xmlns="http://www.w3.org/2000/svg" xmlns:xlink="http://www.w3.org/1999/xlink" x="0px" y="0px"
	 viewBox="0 0 32 32" enable-background="new 0 0 32 32" xml:space="preserve">
<g>
	<g>
		<polygon fill="#EBF7FB" points="10.5,19.6 4.9,23.2 16,30.5 27.1,23.2 21.5,19.6 16,23.2 		"/>
		<path fill="#51A2D9" d="M16,31.4L3.6,23.2l6.9-4.5l5.5,3.6l5.5-3.6l6.9,4.5L16,31.4z M6.3,23.2l9.7,6.4l9.7-6.4l-4.2-2.7L16,24.1
			l-5.5-3.6L6.3,23.2z"/>
	</g>
	<g>
		<path fill="#8F9BA8" d="M16,16.9L3.6,8.7L16,0.6l12.4,8.1L16,16.9z M6.3,8.7l9.7,6.4l9.7-6.4L16,2.4L6.3,8.7z"/>
	</g>
	<g>
		<polygon fill="#8F9BA8" points="16,24.1 3.6,16 7.7,13.3 8.5,14.5 6.3,16 16,22.4 25.7,16 23.5,14.5 24.3,13.3 28.4,16 		"/>
	</g>
</g>
</svg>
