<?xml version="1.0" encoding="utf-8"?>
<!-- Generator: Adobe Illustrator 18.0.0, SVG Export Plug-In . SVG Version: 6.00 Build 0)  -->
<!DOCTYPE svg PUBLIC "-//W3C//DTD SVG 1.1//EN" "http://www.w3.org/Graphics/SVG/1.1/DTD/svg11.dtd">
<svg version="1.1" id="Layer_1" xmlns="http://www.w3.org/2000/svg" xmlns:xlink="http://www.w3.org/1999/xlink" x="0px" y="0px"
	 viewBox="0 0 32 32" enable-background="new 0 0 32 32" xml:space="preserve">
<g>
	<g>
		<polygon fill="#C6BCDD" points="21.5,12.4 16,16 10.5,12.4 4.9,16 10.5,19.6 16,23.2 21.5,19.6 27.1,16 		"/>
		<path fill="#A294C7" d="M16,24.1L3.6,16l6.9-4.5l5.5,3.6l5.5-3.6l6.9,4.5L16,24.1z M6.3,16l9.7,6.4l9.7-6.4l-4.2-2.7L16,16.9
			l-5.5-3.6L6.3,16z"/>
	</g>
	<g>
		<path fill="#8F9BA8" d="M16,16.9L3.6,8.7L16,0.6l12.4,8.1L16,16.9z M6.3,8.7l9.7,6.4l9.7-6.4L16,2.4L6.3,8.7z"/>
	</g>
	<g>
		<polygon fill="#8F9BA8" points="16,31.4 3.6,23.2 7.3,20.8 8.1,22.1 6.3,23.2 16,29.6 25.7,23.2 23.9,22.1 24.7,20.8 28.4,23.2 		
			"/>
	</g>
</g>
</svg>
