<?xml version="1.0" encoding="utf-8"?>
<!-- Generator: Adobe Illustrator 18.0.0, SVG Export Plug-In . SVG Version: 6.00 Build 0)  -->
<!DOCTYPE svg PUBLIC "-//W3C//DTD SVG 1.1//EN" "http://www.w3.org/Graphics/SVG/1.1/DTD/svg11.dtd">
<svg version="1.1" id="Layer_1" xmlns="http://www.w3.org/2000/svg" xmlns:xlink="http://www.w3.org/1999/xlink" x="0px" y="0px"
	 viewBox="0 0 32 32" enable-background="new 0 0 32 32" xml:space="preserve">
<g>
	<g>
		<path fill="#8F9BA8" d="M18,28.4v-2.6l-3.9,0v2.6l-0.9-0.2c-4.6-1.1-8.2-4.7-9.3-9.3L3.6,18h2.6V14H3.6l0.2-0.9
			c1.1-4.6,4.7-8.2,9.3-9.3L14,3.6v2.6l3.9,0V3.6l0.9,0.2c4.6,1.1,8.2,4.7,9.3,9.3l0.2,0.9h-2.6V18h2.6l-0.2,0.9
			c-1.1,4.6-4.7,8.2-9.3,9.3L18,28.4z M5.5,19.5c1.1,3.3,3.7,5.9,7,7v-2.2l6.9,0v2.2c3.3-1.1,5.9-3.7,7-7h-2.2v-6.9h2.2
			c-1.1-3.3-3.7-5.9-7-7v2.2l-6.9,0V5.5c-3.3,1.1-5.9,3.7-7,7h2.2v6.9H5.5z"/>
	</g>
	<g>
		<polygon fill="#F7DCE5" points="27.8,13.3 27.4,13.3 25.1,13.3 25.1,16 25.1,18.7 27.4,18.7 30.5,18.7 30.5,13.3 		"/>
		<path fill="#CF817F" d="M31.2,19.5h-6.9v-6.9h6.9V19.5z M25.8,18h3.9V14h-3.9V18z"/>
	</g>
	<g>
		<polygon fill="#F7DCE5" points="4.6,13.3 4.2,13.3 1.5,13.3 1.5,16 1.5,18.7 4.6,18.7 6.9,18.7 6.9,13.3 		"/>
		<path fill="#CF817F" d="M7.7,19.5H0.8v-6.9h6.9V19.5z M2.3,18h3.9V14H2.3V18z"/>
	</g>
	<g>
		<path fill="#8F9BA8" d="M12.5,7.7V0.8l6.9,0v6.9L12.5,7.7z M14,2.3v3.9l3.9,0V2.2L14,2.3z"/>
	</g>
	<g>
		<path fill="#8F9BA8" d="M19.5,31.2h-6.9v-6.9l6.9,0V31.2z M14,29.7H18v-3.9l-3.9,0V29.7z"/>
	</g>
</g>
</svg>
