<?xml version="1.0" encoding="utf-8"?>
<!-- Generator: Adobe Illustrator 18.0.0, SVG Export Plug-In . SVG Version: 6.00 Build 0)  -->
<!DOCTYPE svg PUBLIC "-//W3C//DTD SVG 1.1//EN" "http://www.w3.org/Graphics/SVG/1.1/DTD/svg11.dtd">
<svg version="1.1" id="Layer_1" xmlns="http://www.w3.org/2000/svg" xmlns:xlink="http://www.w3.org/1999/xlink" x="0px" y="0px"
	 viewBox="0 0 32 32" enable-background="new 0 0 32 32" xml:space="preserve">
<g>
	<g>
		<path fill="#8F9BA8" d="M22.1,31.2H0.8v-6.1h21.4V31.2z M2.3,29.7h18.4v-3.1H2.3V29.7z"/>
	</g>
	<g>
		<path fill="#8F9BA8" d="M22.1,6.9H0.8V0.7h21.4V6.9z M2.3,5.4h18.4V2.2H2.3V5.4z"/>
	</g>
	<g>
		<rect x="9.2" y="3.1" fill="#8F9BA8" width="4.5" height="1.5"/>
	</g>
	<g>
		<rect x="10.4" y="27.4" fill="#8F9BA8" width="2.1" height="1.5"/>
	</g>
	<g>
		<path fill="#8F9BA8" d="M21.4,26.6H1.5c-0.4,0-0.8-0.3-0.8-0.8V6.1c0-0.4,0.3-0.8,0.8-0.8h19.9c0.4,0,0.8,0.3,0.8,0.8v3h-1.5V6.9
			H2.3v18.2h18.4v-5.2h1.5v5.9C22.1,26.3,21.8,26.6,21.4,26.6z"/>
	</g>
	<g>
		<polygon fill="#CDE4F7" points="30.5,9.2 21.4,9.2 14,9.2 14,19.9 16.9,19.9 16.9,22.3 20.5,19.9 21.4,19.9 30.5,19.9 		"/>
		<path fill="#74B1E0" d="M16.1,23.7v-3h-2.9V8.4h18v12.3H20.7L16.1,23.7z M14.7,19.2h2.9v1.7l2.6-1.7h9.5V9.9h-15V19.2z"/>
	</g>
</g>
</svg>
