<?xml version="1.0" encoding="utf-8"?>
<!-- Generator: Adobe Illustrator 18.0.0, SVG Export Plug-In . SVG Version: 6.00 Build 0)  -->
<!DOCTYPE svg PUBLIC "-//W3C//DTD SVG 1.1//EN" "http://www.w3.org/Graphics/SVG/1.1/DTD/svg11.dtd">
<svg version="1.1" id="Layer_1" xmlns="http://www.w3.org/2000/svg" xmlns:xlink="http://www.w3.org/1999/xlink" x="0px" y="0px"
	 viewBox="0 0 32 32" enable-background="new 0 0 32 32" xml:space="preserve">
<g>
	<g>
		<polygon fill="#EBF7FB" points="12.7,7 12.7,1.5 1.5,1.5 1.5,12.7 6.8,12.7 6.8,7 		"/>
		<path fill="#51A2D9" d="M7.5,13.5H0.8V0.7h12.7v7h-6V13.5z M2.3,12H6V6.3h6v-4H2.3V12z"/>
	</g>
	<g>
		<polygon fill="#EBF7FB" points="24.8,19.3 24.8,25 19.3,25 19.3,30.5 24.9,30.5 30.5,30.5 30.5,24.9 30.5,19.3 		"/>
		<path fill="#51A2D9" d="M31.2,31.2H18.5v-7H24v-5.7h7.2V31.2z M20,29.7h9.7V20h-4.2v5.7H20V29.7z"/>
	</g>
	<g>
		<path fill="#8F9BA8" d="M25.5,25.8H6V6.3h19.5V25.8z M7.5,24.3H24V7.8H7.5V24.3z"/>
	</g>
</g>
</svg>
