<?xml version="1.0" encoding="utf-8"?>
<!-- Generator: Adobe Illustrator 18.0.0, SVG Export Plug-In . SVG Version: 6.00 Build 0)  -->
<!DOCTYPE svg PUBLIC "-//W3C//DTD SVG 1.1//EN" "http://www.w3.org/Graphics/SVG/1.1/DTD/svg11.dtd">
<svg version="1.1" id="Layer_1" xmlns="http://www.w3.org/2000/svg" xmlns:xlink="http://www.w3.org/1999/xlink" x="0px" y="0px"
	 viewBox="0 0 32 32" enable-background="new 0 0 32 32" xml:space="preserve">
<g>
	<g>
		<path fill="#8F9BA8" d="M30.5,31.2h-2v-1.5h2V31.2z M26.5,31.2h-2v-1.5h2V31.2z M22.5,31.2h-2v-1.5h2V31.2z M18.5,31.2h-2v-1.5h2
			V31.2z M14.5,31.2h-2v-1.5h2V31.2z M10.5,31.2h-2v-1.5h2V31.2z M6.5,31.2h-2v-1.5h2V31.2z M2.5,31.2H0.8v-1.8h1.5v0.3h0.3
			L2.5,31.2L2.5,31.2z M31.3,28.5h-1.5v-2h1.5V28.5z M2.3,27.5H0.8v-2h1.5V27.5z M31.3,24.5h-1.5v-2h1.5V24.5z M2.3,23.5H0.8v-2h1.5
			V23.5z M31.3,20.5h-1.5v-2h1.5V20.5z M2.3,19.5H0.8v-2h1.5V19.5z M31.3,16.5h-1.5v-2h1.5V16.5z M2.3,15.5H0.8v-2h1.5V15.5z
			 M31.3,12.5h-1.5v-2h1.5V12.5z M2.3,11.5H0.8v-2h1.5V11.5z M31.3,8.5h-1.5v-2h1.5V8.5z M2.3,7.5H0.8v-2h1.5V7.5z M31.3,4.5h-1.5
			v-2h1.5V4.5z M2.3,3.5H0.8v-2h1.5V3.5z M29.5,2.2h-2V0.7h2V2.2z M25.5,2.2h-2V0.7h2V2.2z M21.5,2.2h-2V0.7h2V2.2z M17.5,2.2h-2
			V0.7h2V2.2z M13.5,2.2h-2V0.7h2V2.2z M9.5,2.2h-2V0.7h2V2.2z M5.5,2.2h-2V0.7h2V2.2z"/>
	</g>
	<g>
		<g>
			<circle fill="#F9F8F2" cx="16" cy="22.8" r="5.1"/>
			<path fill="#B4A79C" d="M16,28.6c-3.2,0-5.9-2.6-5.9-5.9s2.6-5.9,5.9-5.9c3.2,0,5.9,2.6,5.9,5.9S19.2,28.6,16,28.6z M16,18.4
				c-2.4,0-4.4,2-4.4,4.4s2,4.4,4.4,4.4s4.4-2,4.4-4.4S18.4,18.4,16,18.4z"/>
		</g>
		<g>
			<rect x="15.2" y="4.5" fill="#8F9BA8" width="1.5" height="9.3"/>
		</g>
		<g>
			<polygon fill="#8F9BA8" points="13,8.1 12,7.1 16,3 20,7.1 18.9,8.1 16,5.2 			"/>
		</g>
		<g>
			
				<rect x="26.3" y="9" transform="matrix(-0.7071 -0.7071 0.7071 -0.7071 36.3466 42.757)" fill="#8F9BA8" width="1.5" height="9.8"/>
		</g>
		<g>
			<polygon fill="#8F9BA8" points="31.2,15.4 29.7,15.4 29.7,11.2 25.5,11.2 25.5,9.7 31.2,9.7 			"/>
		</g>
		<g>
			
				<rect x="0.1" y="13.1" transform="matrix(-0.7071 -0.7071 0.7071 -0.7071 -1.3589 27.2211)" fill="#8F9BA8" width="9.7" height="1.5"/>
		</g>
		<g>
			<polygon fill="#8F9BA8" points="2.2,15.4 0.7,15.4 0.7,9.7 6.4,9.7 6.4,11.2 2.2,11.2 			"/>
		</g>
	</g>
</g>
</svg>
