<?xml version="1.0" encoding="utf-8"?>
<!-- Generator: Adobe Illustrator 18.0.0, SVG Export Plug-In . SVG Version: 6.00 Build 0)  -->
<!DOCTYPE svg PUBLIC "-//W3C//DTD SVG 1.1//EN" "http://www.w3.org/Graphics/SVG/1.1/DTD/svg11.dtd">
<svg version="1.1" id="Layer_1" xmlns="http://www.w3.org/2000/svg" xmlns:xlink="http://www.w3.org/1999/xlink" x="0px" y="0px"
	 viewBox="0 0 32 32" enable-background="new 0 0 32 32" xml:space="preserve">
<g>
	<g>
		<polygon fill="#FFFFFF" points="20.3,15.2 24.8,15.2 24.8,10.6 28.1,10.6 22.5,3.7 16.9,10.6 20.3,10.6 		"/>
		<path fill="#79C693" d="M25.5,15.9h-6v-4.6h-4.2l7.2-8.8l7.2,8.8h-4.2V15.9z M21,14.4h3V9.8h2.5l-4-4.9l-4,4.9H21V14.4z"/>
	</g>
	<g>
		<path fill="#8F9BA8" d="M22.2,29.5c-2.8,0-5.6-1.2-7.6-3.2l-9.1-9.1C2.2,14,1.4,9,3.4,4.9V4.8c0.6-1.2,1.7-1.9,3-1.9
			c0.9,0,1.7,0.3,2.3,1l3.8,3.8c0.7,0.7,1,1.6,1,2.6c-0.1,0.9-0.5,1.8-1.2,2.3C12,13,11.7,13.5,11.7,14s0.2,1,0.5,1.4l4.1,4.1
			c0.8,0.8,2.1,0.7,2.8-0.2c0.6-0.8,1.5-1.2,2.6-1.2c0.9,0,1.8,0.4,2.4,1l3.8,3.8c0.8,0.8,1.1,1.8,0.9,2.9s-0.8,2-1.8,2.5l-0.1,0.1
			C25.4,29.1,23.8,29.5,22.2,29.5z M6.5,4.4c-0.7,0-1.4,0.4-1.7,1c0,0,0,0.1-0.1,0.1C3,9,3.7,13.3,6.5,16.1l9.1,9.1
			c1.7,1.7,4.1,2.7,6.6,2.7c1.4,0,2.8-0.3,4-0.9h0.1c0.6-0.3,0.9-0.8,1-1.4s-0.1-1.2-0.5-1.6L23,20.2c-0.7-0.7-2.1-0.7-2.7,0.1
			c-0.6,0.8-1.6,1.3-2.6,1.3c-0.9,0-1.7-0.3-2.4-1l-4.1-4.1c-0.7-0.7-1-1.6-1-2.6c0.1-1,0.5-1.8,1.3-2.4c0.4-0.3,0.6-0.8,0.7-1.3
			c0-0.5-0.2-1.1-0.5-1.4L7.8,5C7.4,4.6,7,4.4,6.5,4.4z"/>
	</g>
</g>
</svg>
