<?xml version="1.0" encoding="utf-8"?>
<!-- Generator: Adobe Illustrator 18.0.0, SVG Export Plug-In . SVG Version: 6.00 Build 0)  -->
<!DOCTYPE svg PUBLIC "-//W3C//DTD SVG 1.1//EN" "http://www.w3.org/Graphics/SVG/1.1/DTD/svg11.dtd">
<svg version="1.1" id="Layer_1" xmlns="http://www.w3.org/2000/svg" xmlns:xlink="http://www.w3.org/1999/xlink" x="0px" y="0px"
	 viewBox="0 0 32 32" enable-background="new 0 0 32 32" xml:space="preserve">
<pattern  y="32" width="24.1" height="24.1" patternUnits="userSpaceOnUse" id="SVGID_4_" viewBox="0 -24.1 24.1 24.1" overflow="visible">
	<g>
		<polygon fill="none" points="0,0 24.1,0 24.1,-24.1 0,-24.1 		"/>
		<g>
			<polygon fill="none" points="0,-24.1 24.1,-24.1 24.1,0 0,0 			"/>
			<polygon fill="#E0CB81" points="24.1,-24.1 0,-24.1 0,0 24.1,0 			"/>
		</g>
	</g>
</pattern>
<pattern  y="32" width="24.1" height="24.1" patternUnits="userSpaceOnUse" id="SVGID_8_" viewBox="0 -24.1 24.1 24.1" overflow="visible">
	<g>
		<polygon fill="none" points="0,0 24.1,0 24.1,-24.1 0,-24.1 		"/>
		<g>
			<polygon fill="none" points="0,-24.1 24.1,-24.1 24.1,0 0,0 			"/>
			<polygon fill="#E0CB81" points="24.1,-24.1 0,-24.1 0,0 24.1,0 			"/>
		</g>
	</g>
</pattern>
<g>
	<g>
		<path fill="#8F9BA8" d="M8.2,8.2H0.8V0.7h7.5v7.5H8.2z M2.3,6.7h4.5V2.2H2.3V6.7z"/>
	</g>
	<g>
		<path fill="#8F9BA8" d="M31.3,31.2h-7.5v-7.5h7.5V31.2z M25.3,29.7h4.5v-4.5h-4.5V29.7z"/>
	</g>
	<g>
		<g>
			<g>
				<g>
					<rect x="23.5" y="3.7" fill="#8F9BA8" width="1" height="1.5"/>
				</g>
				<g>
					<path fill="#8F9BA8" d="M21.4,5.2h-2.2V3.7h2.2V5.2z M17.1,5.2h-2.2V3.7h2.2V5.2z M12.8,5.2h-2.2V3.7h2.2V5.2z"/>
				</g>
				<g>
					<rect x="7.5" y="3.7" fill="#8F9BA8" width="1" height="1.5"/>
				</g>
			</g>
		</g>
	</g>
	<g>
		<g>
			<g>
				<g>
					<rect x="23.5" y="26.8" fill="#8F9BA8" width="1" height="1.5"/>
				</g>
				<g>
					<path fill="#8F9BA8" d="M21.4,28.3h-2.2v-1.5h2.2V28.3z M17.1,28.3h-2.2v-1.5h2.2V28.3z M12.8,28.3h-2.2v-1.5h2.2V28.3z"/>
				</g>
				<g>
					<rect x="7.5" y="26.8" fill="#8F9BA8" width="1" height="1.5"/>
				</g>
			</g>
		</g>
	</g>
	<g>
		<g>
			<g>
				<g>
					<rect x="26.8" y="23.5" fill="#8F9BA8" width="1.5" height="1"/>
				</g>
				<g>
					<path fill="#8F9BA8" d="M28.3,21.4h-1.5v-2.2h1.5V21.4z M28.3,17.1h-1.5v-2.2h1.5V17.1z M28.3,12.8h-1.5v-2.2h1.5V12.8z"/>
				</g>
				<g>
					<rect x="26.8" y="7.5" fill="#8F9BA8" width="1.5" height="1"/>
				</g>
			</g>
		</g>
	</g>
	<g>
		<g>
			<g>
				<g>
					<rect x="3.7" y="23.5" fill="#8F9BA8" width="1.5" height="1"/>
				</g>
				<g>
					<path fill="#8F9BA8" d="M5.2,21.4H3.7v-2.2h1.5V21.4z M5.2,17.1H3.7v-2.2h1.5V17.1z M5.2,12.8H3.7v-2.2h1.5V12.8z"/>
				</g>
				<g>
					<rect x="3.7" y="7.5" fill="#8F9BA8" width="1.5" height="1"/>
				</g>
			</g>
		</g>
	</g>
	<g>
		<g>
			<g>
				<defs>
					<rect id="SVGID_1_" x="24.5" y="1.5" width="6" height="6"/>
				</defs>
				<clipPath id="SVGID_2_">
					<use xlink:href="#SVGID_1_"  overflow="visible"/>
				</clipPath>
				<g clip-path="url(#SVGID_2_)">
					<rect x="27.9" y="-11.3" fill="none" width="24.1" height="24.1"/>
					<rect x="27.9" y="-11.3" fill="#FEE99B" width="24.1" height="24.1"/>
				</g>
			</g>
			<g>
				<defs>
					<rect id="SVGID_3_" x="24.5" y="1.5" width="6" height="6"/>
				</defs>
				<clipPath id="SVGID_5_">
					<use xlink:href="#SVGID_3_"  overflow="visible"/>
				</clipPath>
				<g clip-path="url(#SVGID_5_)">
					<rect x="3.7" y="-11.3" fill="none" width="24.1" height="24.1"/>
					<rect x="3.7" y="-11.3" fill="#FEE99B" width="24.1" height="24.1"/>
				</g>
			</g>
		</g>
		<pattern  id="SVGID_6_" xlink:href="#SVGID_4_" patternTransform="matrix(1 0 0 -1 -402.3025 -16374.0762)">
		</pattern>
		<path fill="url(#SVGID_6_)" d="M31.3,8.2h-7.5V0.7h7.5V8.2z M25.3,6.7h4.5V2.2h-4.5V6.7z"/>
	</g>
	<g>
		<g>
			<g>
				<defs>
					<rect id="SVGID_7_" x="1.5" y="24.5" width="6" height="6"/>
				</defs>
				<clipPath id="SVGID_9_">
					<use xlink:href="#SVGID_7_"  overflow="visible"/>
				</clipPath>
				<g clip-path="url(#SVGID_9_)">
					<rect x="3.7" y="12.8" fill="none" width="24.1" height="24.1"/>
					<rect x="3.7" y="12.8" fill="#FEE99B" width="24.1" height="24.1"/>
				</g>
			</g>
			<g>
				<defs>
					<rect id="SVGID_10_" x="1.5" y="24.5" width="6" height="6"/>
				</defs>
				<clipPath id="SVGID_11_">
					<use xlink:href="#SVGID_10_"  overflow="visible"/>
				</clipPath>
				<g clip-path="url(#SVGID_11_)">
					<rect x="-20.4" y="12.8" fill="none" width="24.1" height="24.1"/>
					<rect x="-20.4" y="12.8" fill="#FEE99B" width="24.1" height="24.1"/>
				</g>
			</g>
		</g>
		<pattern  id="SVGID_12_" xlink:href="#SVGID_8_" patternTransform="matrix(1 0 0 -1 -402.3025 -16374.0762)">
		</pattern>
		<path fill="url(#SVGID_12_)" d="M8.2,31.2H0.8v-7.5h7.5v7.5H8.2z M2.3,29.7h4.5v-4.5H2.3V29.7z"/>
	</g>
</g>
</svg>
