<?xml version="1.0" encoding="utf-8"?>
<!-- Generator: Adobe Illustrator 18.0.0, SVG Export Plug-In . SVG Version: 6.00 Build 0)  -->
<!DOCTYPE svg PUBLIC "-//W3C//DTD SVG 1.1//EN" "http://www.w3.org/Graphics/SVG/1.1/DTD/svg11.dtd">
<svg version="1.1" id="Layer_1" xmlns="http://www.w3.org/2000/svg" xmlns:xlink="http://www.w3.org/1999/xlink" x="0px" y="0px"
	 viewBox="0 0 32 32" enable-background="new 0 0 32 32" xml:space="preserve">
<g>
	<g>
		<rect x="1.5" y="1.5" fill="#C2E3C8" width="7.8" height="7.8"/>
		<path fill="#29AB5E" d="M10,10H0.7V0.7H10V10z M2.2,8.5h6.3V2.2H2.2V8.5z"/>
	</g>
	<g>
		<path fill="#8F9BA8" d="M10,20.6H0.7v-9.3H10V20.6z M2.2,19.1h6.3v-6.3H2.2V19.1z"/>
	</g>
	<g>
		<path fill="#8F9BA8" d="M10,31.2H0.7V22H10V31.2z M2.2,29.7h6.3v-6.3H2.2V29.7z"/>
	</g>
	<g>
		<polygon fill="#8F9BA8" points="25.3,31.1 17.1,31.1 17.1,22.9 18.6,22.9 18.6,29.6 25.3,29.6 		"/>
	</g>
	<g>
		<path fill="#8F9BA8" d="M18.4,30.9l-1-1.1c9.3-8.5,13.4-15.2,12.2-19.9c-1.1-4.5-6.9-6.4-11.8-7.7l0.4-1.5
			C23.4,2.1,29.7,4.3,31,9.5C32.4,14.9,28.2,21.9,18.4,30.9z"/>
	</g>
	<g>
		<polyline fill="#C2E3C8" points="3.3,5.3 4.7,6.7 7.4,4 		"/>
		<polygon fill="#29AB5E" points="4.7,7.8 2.8,5.8 3.9,4.8 4.7,5.6 6.9,3.5 7.9,4.6 		"/>
	</g>
</g>
</svg>
