<?xml version="1.0" encoding="utf-8"?>
<!-- Generator: Adobe Illustrator 18.0.0, SVG Export Plug-In . SVG Version: 6.00 Build 0)  -->
<!DOCTYPE svg PUBLIC "-//W3C//DTD SVG 1.1//EN" "http://www.w3.org/Graphics/SVG/1.1/DTD/svg11.dtd">
<svg version="1.1" id="Layer_1" xmlns="http://www.w3.org/2000/svg" xmlns:xlink="http://www.w3.org/1999/xlink" x="0px" y="0px"
	 viewBox="0 0 32 32" enable-background="new 0 0 32 32" xml:space="preserve">
<g>
	<g>
		<polygon fill="#EBF7FB" points="14.1,25.9 20,21.6 14.1,17.2 		"/>
		<path fill="#51A2D9" d="M13.3,27.4V15.8l7.9,5.8L13.3,27.4z M14.8,18.7v5.7l3.9-2.9L14.8,18.7z"/>
	</g>
	<g>
		<path fill="#8F9BA8" d="M14.1,22.3H7.4c-3.7,0-6.7-3-6.7-6.7s3-6.7,6.7-6.7H10v1.5H7.4c-2.9,0-5.2,2.3-5.2,5.2s2.3,5.2,5.2,5.2
			h6.7V22.3z"/>
	</g>
	<g>
		<path fill="#8F9BA8" d="M17.9,14.8c-0.2,0-0.3,0-0.4-0.1l-5.9-4.3c-0.2-0.1-0.3-0.4-0.3-0.6c0-0.2,0.1-0.5,0.3-0.6l5.9-4.3
			c0.2-0.2,0.5-0.2,0.8-0.1c0.3,0.1,0.4,0.4,0.4,0.7V14c0,0.3-0.2,0.5-0.4,0.7C18.1,14.8,18,14.8,17.9,14.8z M13.2,9.7l3.9,2.9V6.8
			L13.2,9.7z"/>
	</g>
	<g>
		<path fill="#8F9BA8" d="M24.6,22.3H22v-1.5h2.6c2.9,0,5.2-2.3,5.2-5.2s-2.3-5.2-5.2-5.2h-6.7V8.9h6.7c3.7,0,6.7,3,6.7,6.7
			S28.2,22.3,24.6,22.3z"/>
	</g>
</g>
</svg>
