<?xml version="1.0" encoding="utf-8"?>
<!-- Generator: Adobe Illustrator 18.0.0, SVG Export Plug-In . SVG Version: 6.00 Build 0)  -->
<!DOCTYPE svg PUBLIC "-//W3C//DTD SVG 1.1//EN" "http://www.w3.org/Graphics/SVG/1.1/DTD/svg11.dtd">
<svg version="1.1" id="Layer_1" xmlns="http://www.w3.org/2000/svg" xmlns:xlink="http://www.w3.org/1999/xlink" x="0px" y="0px"
	 viewBox="0 0 32 32" enable-background="new 0 0 32 32" xml:space="preserve">
<g>
	<g>
		<polygon fill="#F0F7F7" points="18.9,6.3 11.5,11.7 18.9,17.1 		"/>
		<path fill="#8F9BA8" d="M19.6,18.6l-9.4-6.9l9.4-6.9V18.6z M12.8,11.7l5.3,3.9V7.8L12.8,11.7z"/>
	</g>
	<g>
		<path fill="#8F9BA8" d="M23.1,27.2H8.9c-4.5,0-8.1-3.6-8.1-8.1c0-4.5,3.6-8.1,8.1-8.1v1.5c-3.7,0-6.6,3-6.6,6.6
			c0,3.7,3,6.6,6.6,6.6h14.2c3.7,0,6.6-3,6.6-6.6c0-3.7-3-6.6-6.6-6.6h-4.2v-1.5h4.2c4.5,0,8.1,3.6,8.1,8.1
			C31.3,23.6,27.6,27.2,23.1,27.2z"/>
	</g>
</g>
</svg>
