<?xml version="1.0" encoding="utf-8"?>
<!-- Generator: Adobe Illustrator 18.0.0, SVG Export Plug-In . SVG Version: 6.00 Build 0)  -->
<!DOCTYPE svg PUBLIC "-//W3C//DTD SVG 1.1//EN" "http://www.w3.org/Graphics/SVG/1.1/DTD/svg11.dtd">
<svg version="1.1" id="Layer_1" xmlns="http://www.w3.org/2000/svg" xmlns:xlink="http://www.w3.org/1999/xlink" x="0px" y="0px"
	 viewBox="0 0 32 32" enable-background="new 0 0 32 32" xml:space="preserve">
<g>
	<g>
		<path fill="#8F9BA8" d="M22.7,19V1.3l8.9,8.9L22.7,19z M24.2,4.9v10.5l5.3-5.3L24.2,4.9z"/>
	</g>
	<g>
		<path fill="#8F9BA8" d="M18.9,30.7h-1.5V15.4c0-3.3,2.7-6,6-6v1.5c-2.5,0-4.5,2-4.5,4.5V30.7z"/>
	</g>
	<g>
		<path fill="#8F9BA8" d="M14.6,30.7h-1.5V15.4c0-2.5-2-4.5-4.5-4.5V9.4c3.3,0,6,2.7,6,6V30.7z"/>
	</g>
	<g>
		<polygon fill="#F0F7F7" points="8.6,3.1 1.5,10.2 8.6,17.2 		"/>
		<path fill="#8F9BA8" d="M9.3,19l-8.9-8.9l8.9-8.9V19z M2.6,10.2l5.3,5.3V4.9L2.6,10.2z"/>
	</g>
</g>
</svg>
