<?xml version="1.0" encoding="utf-8"?>
<!-- Generator: Adobe Illustrator 18.0.0, SVG Export Plug-In . SVG Version: 6.00 Build 0)  -->
<!DOCTYPE svg PUBLIC "-//W3C//DTD SVG 1.1//EN" "http://www.w3.org/Graphics/SVG/1.1/DTD/svg11.dtd">
<svg version="1.1" id="Layer_1" xmlns="http://www.w3.org/2000/svg" xmlns:xlink="http://www.w3.org/1999/xlink" x="0px" y="0px"
	 viewBox="0 0 32 32" enable-background="new 0 0 32 32" xml:space="preserve">
<g>
	<g>
		<path fill="#8F9BA8" d="M22.6,29.3c-2.8,0-5.6-1.2-7.6-3.2L5.9,17C2.6,13.8,1.8,8.8,3.8,4.7c0,0,0.1-0.1,0.1-0.1
			c0.6-1.2,1.7-1.9,3-1.9c0.9,0,1.7,0.3,2.3,1l3.8,3.8c0.7,0.7,1,1.6,1,2.6c-0.1,0.9-0.5,1.8-1.2,2.3c-0.4,0.3-0.7,0.8-0.7,1.3
			c0,0.5,0.2,1,0.5,1.4l4.1,4.1c0.8,0.8,2.1,0.7,2.8-0.2c0.6-0.8,1.5-1.2,2.6-1.2c0.9,0,1.8,0.4,2.4,1l3.8,3.8
			c0.8,0.8,1.1,1.8,0.9,2.9c-0.2,1.1-0.8,2-1.8,2.5l-0.1,0.1C25.9,28.9,24.2,29.3,22.6,29.3z M4.5,5l0.7,0.3C3.4,8.9,4.1,13.1,7,16
			L16,25c1.7,1.7,4.1,2.7,6.6,2.7c1.4,0,2.8-0.3,4-0.9l0.1,0c0.6-0.3,0.9-0.8,1-1.4c0.1-0.6-0.1-1.2-0.5-1.6L23.4,20
			c-0.7-0.7-2.1-0.7-2.7,0.1c-0.6,0.8-1.6,1.3-2.6,1.3c-0.9,0-1.7-0.3-2.4-1l-4.1-4.1c-0.7-0.7-1-1.6-1-2.6c0.1-1,0.5-1.8,1.3-2.4
			c0.4-0.3,0.6-0.8,0.7-1.3c0-0.5-0.2-1.1-0.5-1.4L8.2,4.8C7.8,4.4,7.4,4.2,6.9,4.2c-0.7,0-1.4,0.4-1.7,1L4.5,5z"/>
	</g>
	<g>
		<polygon fill="#CDE4F7" points="25.2,3.5 20.7,3.5 20.7,8.1 17.4,8.1 22.9,15 28.5,8.1 25.2,8.1 		"/>
		<path fill="#74B1E0" d="M22.9,15.7c-0.2,0-0.4-0.1-0.6-0.3l-5.6-6.9c-0.2-0.2-0.2-0.5-0.1-0.8c0.1-0.3,0.4-0.4,0.7-0.4h2.6V3.5
			c0-0.4,0.3-0.8,0.8-0.8h4.5c0.4,0,0.8,0.3,0.8,0.8v3.8h2.6c0.3,0,0.6,0.2,0.7,0.4c0.1,0.3,0.1,0.6-0.1,0.8l-5.6,6.9
			C23.4,15.6,23.2,15.7,22.9,15.7z M18.9,8.8l4,4.9l4-4.9h-1.8c-0.4,0-0.8-0.3-0.8-0.8V4.2h-3v3.8c0,0.4-0.3,0.8-0.8,0.8H18.9z"/>
	</g>
</g>
</svg>
