<?xml version="1.0" encoding="utf-8"?>
<!-- Generator: Adobe Illustrator 18.0.0, SVG Export Plug-In . SVG Version: 6.00 Build 0)  -->
<!DOCTYPE svg PUBLIC "-//W3C//DTD SVG 1.1//EN" "http://www.w3.org/Graphics/SVG/1.1/DTD/svg11.dtd">
<svg version="1.1" id="Layer_1" xmlns="http://www.w3.org/2000/svg" xmlns:xlink="http://www.w3.org/1999/xlink" x="0px" y="0px"
	 viewBox="0 0 32 32" enable-background="new 0 0 32 32" xml:space="preserve">
<g>
	<g>
		<polygon fill="#EBF7FB" points="10.1,7.7 16,1.8 21.9,7.7 		"/>
		<path fill="#51A2D9" d="M8.3,8.5L16,0.7l7.7,7.7L8.3,8.5z M16,2.9l-4,4l8.1,0L16,2.9z"/>
	</g>
	<g>
		<rect x="15.2" y="7.7" fill="#8F9BA8" width="1.5" height="23.6"/>
	</g>
	<g>
		<path fill="#8F9BA8" d="M22.7,23.2c-0.1,0-0.2,0-0.3-0.1C22.2,23,22,22.7,22,22.4V10.7c0-0.3,0.2-0.6,0.5-0.7
			c0.3-0.1,0.6-0.1,0.8,0.2l5.9,5.9c0.1,0.1,0.2,0.3,0.2,0.5c0,0.2-0.1,0.4-0.2,0.5l-5.9,5.9C23.1,23.1,22.9,23.2,22.7,23.2z
			 M23.5,12.5v8.1l4-4L23.5,12.5z"/>
	</g>
	<g>
		<path fill="#8F9BA8" d="M16.8,31.2h-1.5v-8c0-4.1,3.4-7.5,7.5-7.5v1.5c-3.3,0-6,2.7-6,6V31.2z"/>
	</g>
	<g>
		<path fill="#8F9BA8" d="M9.3,23.2c-0.2,0-0.4-0.1-0.5-0.2l-5.9-5.9c-0.1-0.1-0.2-0.3-0.2-0.5c0-0.2,0.1-0.4,0.2-0.5l5.9-5.9
			C9,9.9,9.3,9.8,9.6,10c0.3,0.1,0.5,0.4,0.5,0.7v11.7c0,0.3-0.2,0.6-0.5,0.7C9.5,23.1,9.4,23.2,9.3,23.2z M4.5,16.5l4,4v-8.1
			L4.5,16.5z"/>
	</g>
	<g>
		<path fill="#8F9BA8" d="M16.8,31.2h-1.5v-8c0-3.3-2.7-6-6-6v-1.5c4.1,0,7.5,3.4,7.5,7.5V31.2z"/>
	</g>
</g>
</svg>
