<?xml version="1.0" encoding="utf-8"?>
<!-- Generator: Adobe Illustrator 18.0.0, SVG Export Plug-In . SVG Version: 6.00 Build 0)  -->
<!DOCTYPE svg PUBLIC "-//W3C//DTD SVG 1.1//EN" "http://www.w3.org/Graphics/SVG/1.1/DTD/svg11.dtd">
<svg version="1.1" id="Layer_1" xmlns="http://www.w3.org/2000/svg" xmlns:xlink="http://www.w3.org/1999/xlink" x="0px" y="0px"
	 viewBox="0 0 32 32" enable-background="new 0 0 32 32" xml:space="preserve">
<g>
	<g>
		<polygon fill="#F0F7F7" points="4.8,22.9 12.4,30.5 20.1,22.9 		"/>
		<path fill="#8F9BA8" d="M12.4,31.2c-0.2,0-0.4-0.1-0.5-0.2l-7.6-7.6c-0.2-0.2-0.3-0.5-0.2-0.8c0.1-0.3,0.4-0.5,0.7-0.5h15.2
			c0.3,0,0.6,0.2,0.7,0.5c0.1,0.3,0.1,0.6-0.2,0.8L13,31C12.8,31.2,12.6,31.2,12.4,31.2z M6.7,23.6l5.8,5.8l5.8-5.8H6.7z"/>
	</g>
	<g>
		<path fill="#8F9BA8" d="M13.2,22.9h-1.5v-14c0-4.5,3.6-8.1,8.1-8.1s8.1,3.6,8.1,8.1v9h-1.5v-9c0-3.6-3-6.6-6.6-6.6s-6.6,3-6.6,6.6
			V22.9z"/>
	</g>
</g>
</svg>
