<?xml version="1.0" encoding="utf-8"?>
<!-- Generator: Adobe Illustrator 18.0.0, SVG Export Plug-In . SVG Version: 6.00 Build 0)  -->
<!DOCTYPE svg PUBLIC "-//W3C//DTD SVG 1.1//EN" "http://www.w3.org/Graphics/SVG/1.1/DTD/svg11.dtd">
<svg version="1.1" id="Layer_1" xmlns="http://www.w3.org/2000/svg" xmlns:xlink="http://www.w3.org/1999/xlink" x="0px" y="0px"
	 viewBox="0 0 32 32" enable-background="new 0 0 32 32" xml:space="preserve">
<g>
	<g>
		<polygon fill="#F0F7F7" points="9.4,27.7 1.5,19.8 9.4,11.9 		"/>
		<path fill="#8F9BA8" d="M9.4,28.5c-0.2,0-0.4-0.1-0.5-0.2L1,20.4c-0.1-0.1-0.2-0.3-0.2-0.5c0-0.2,0.1-0.4,0.2-0.5l7.9-7.9
			c0.2-0.2,0.5-0.3,0.8-0.2c0.3,0.1,0.5,0.4,0.5,0.7v15.8c0,0.3-0.2,0.6-0.5,0.7C9.6,28.5,9.5,28.5,9.4,28.5z M2.6,19.8l6.1,6.1
			V13.7L2.6,19.8z"/>
	</g>
	<g>
		<path fill="#8F9BA8" d="M22.7,20.6H9.4v-1.5h13.3c3.9,0,7-3.2,7-7c0-3.9-3.2-7-7-7s-7,3.2-7,7h-1.5c0-4.7,3.8-8.5,8.5-8.5
			c4.7,0,8.5,3.8,8.5,8.5C31.3,16.8,27.4,20.6,22.7,20.6z"/>
	</g>
</g>
</svg>
