<?xml version="1.0" encoding="utf-8"?>
<!-- Generator: Adobe Illustrator 18.0.0, SVG Export Plug-In . SVG Version: 6.00 Build 0)  -->
<!DOCTYPE svg PUBLIC "-//W3C//DTD SVG 1.1//EN" "http://www.w3.org/Graphics/SVG/1.1/DTD/svg11.dtd">
<svg version="1.1" id="Layer_1" xmlns="http://www.w3.org/2000/svg" xmlns:xlink="http://www.w3.org/1999/xlink" x="0px" y="0px"
	 viewBox="0 0 32 32" enable-background="new 0 0 32 32" xml:space="preserve">
<g>
	<g>
		<polygon fill="#F0F7F7" points="22.6,27.7 30.5,19.8 22.6,11.9 		"/>
		<path fill="#8F9BA8" d="M22.6,28.5c-0.1,0-0.2,0-0.3-0.1c-0.3-0.1-0.5-0.4-0.5-0.7V11.9c0-0.3,0.2-0.6,0.5-0.7
			c0.3-0.1,0.6-0.1,0.8,0.2l7.9,7.9c0.1,0.1,0.2,0.3,0.2,0.5c0,0.2-0.1,0.4-0.2,0.5l-7.9,7.9C23,28.4,22.8,28.5,22.6,28.5z
			 M23.3,13.7v12.2l6.1-6.1L23.3,13.7z"/>
	</g>
	<g>
		<path fill="#8F9BA8" d="M22.6,20.6H9.3c-4.7,0-8.5-3.8-8.5-8.5c0-4.7,3.8-8.5,8.5-8.5c4.7,0,8.5,3.8,8.5,8.5h-1.5c0-3.9-3.2-7-7-7
			s-7,3.2-7,7c0,3.9,3.2,7,7,7h13.3V20.6z"/>
	</g>
</g>
</svg>
