<?xml version="1.0" encoding="utf-8"?>
<!-- Generator: Adobe Illustrator 18.0.0, SVG Export Plug-In . SVG Version: 6.00 Build 0)  -->
<!DOCTYPE svg PUBLIC "-//W3C//DTD SVG 1.1//EN" "http://www.w3.org/Graphics/SVG/1.1/DTD/svg11.dtd">
<svg version="1.1" id="Layer_1" xmlns="http://www.w3.org/2000/svg" xmlns:xlink="http://www.w3.org/1999/xlink" x="0px" y="0px"
	 viewBox="0 0 32 32" enable-background="new 0 0 32 32" xml:space="preserve">
<g>
	<g>
		<polygon fill="#EBF7FB" points="9.6,4.8 1.7,12.7 9.6,20.6 		"/>
		<path fill="#51A2D9" d="M10.3,22.4l-9.7-9.7L10.3,3L10.3,22.4z M2.7,12.7l6.1,6.1l0-12.2L2.7,12.7z"/>
	</g>
	<g>
		<path fill="#8F9BA8" d="M22.9,29c-4.7,0-8.5-3.8-8.5-8.5h1.5c0,3.9,3.2,7,7,7s7-3.2,7-7s-3.2-7-7-7H9.6v-1.5h13.3
			c4.7,0,8.5,3.8,8.5,8.5C31.4,25.2,27.6,29,22.9,29z"/>
	</g>
</g>
</svg>
