<?xml version="1.0" encoding="utf-8"?>
<!-- Generator: Adobe Illustrator 18.0.0, SVG Export Plug-In . SVG Version: 6.00 Build 0)  -->
<!DOCTYPE svg PUBLIC "-//W3C//DTD SVG 1.1//EN" "http://www.w3.org/Graphics/SVG/1.1/DTD/svg11.dtd">
<svg version="1.1" id="Layer_1" xmlns="http://www.w3.org/2000/svg" xmlns:xlink="http://www.w3.org/1999/xlink" x="0px" y="0px"
	 viewBox="0 0 32 32" enable-background="new 0 0 32 32" xml:space="preserve">
<g>
	<g>
		<polygon fill="#F0F7F7" points="22.4,4.8 30.3,12.7 22.4,20.6 		"/>
		<path fill="#8F9BA8" d="M21.7,22.4V3l9.7,9.7L21.7,22.4z M23.2,6.6v12.2l6.1-6.1L23.2,6.6z"/>
	</g>
	<g>
		<path fill="#8F9BA8" d="M9.1,29c-4.7,0-8.5-3.8-8.5-8.5c0-4.7,3.8-8.5,8.5-8.5h13.3v1.5H9.1c-3.9,0-7,3.2-7,7s3.2,7,7,7s7-3.2,7-7
			h1.5C17.7,25.2,13.8,29,9.1,29z"/>
	</g>
</g>
</svg>
