<?xml version="1.0" encoding="utf-8"?>
<!-- Generator: Adobe Illustrator 18.0.0, SVG Export Plug-In . SVG Version: 6.00 Build 0)  -->
<!DOCTYPE svg PUBLIC "-//W3C//DTD SVG 1.1//EN" "http://www.w3.org/Graphics/SVG/1.1/DTD/svg11.dtd">
<svg version="1.1" id="Layer_1" xmlns="http://www.w3.org/2000/svg" xmlns:xlink="http://www.w3.org/1999/xlink" x="0px" y="0px"
	 viewBox="0 0 32 32" enable-background="new 0 0 32 32" xml:space="preserve">
<pattern  x="-168" y="-210" width="24.1" height="24.1" patternUnits="userSpaceOnUse" id="New_Pattern_Swatch_2" viewBox="0 -24.1 24.1 24.1" overflow="visible">
	<g>
		<polygon fill="none" points="0,0 24.1,0 24.1,-24.1 0,-24.1 		"/>
		<polygon fill="#E0CB81" points="24.1,0 0,0 0,-24.1 24.1,-24.1 		"/>
	</g>
</pattern>
<g>
	<g>
		<path fill="#FFFFFF" d="M15.7,16.1h8.1h2.4V3.5c0-1.1-0.9-2-1.9-2H11.9H3.4c-1.1,0-1.9,0.9-1.9,2v13c0,1.1,0.9,2,1.9,2h2.2v5.2
			l5-5.2h1.3h2.6v-1.1C14.4,16.6,15,16.1,15.7,16.1z"/>
		<path fill="#8F9BA8" d="M5.6,24.4c-0.1,0-0.2,0-0.3-0.1c-0.3-0.1-0.5-0.4-0.5-0.7v-4.4H3.4c-1.5,0-2.7-1.2-2.7-2.7v-13
			c0-1.5,1.2-2.7,2.7-2.7h20.8c1.5,0,2.7,1.2,2.7,2.7v12.6c0,0.4-0.3,0.8-0.8,0.8H15.7c-0.3,0-0.5,0.2-0.5,0.5v1.1
			c0,0.4-0.3,0.8-0.8,0.8h-3.5l-4.8,4.9C6,24.3,5.8,24.4,5.6,24.4z M3.4,2.2c-0.6,0-1.2,0.5-1.2,1.2v13c0,0.7,0.5,1.2,1.2,1.2h2.2
			c0.4,0,0.8,0.3,0.8,0.8v3.3l3.7-3.8c0.1-0.1,0.3-0.2,0.5-0.2h3.1v-0.4c0-1.1,0.9-2,2-2h9.7V3.5c0-0.7-0.5-1.2-1.2-1.2H3.4z"/>
	</g>
	<g>
		<g>
			<defs>
				<path id="SVGID_5_" d="M29.3,16.1h-3.1h-2.4h-8.1c-0.7,0-1.2,0.6-1.2,1.3v1.1v7.4c0,0.7,0.6,1.3,1.2,1.3h8.1h0.8l3.3,3.4v-3.4
					h1.4c0.7,0,1.2-0.6,1.2-1.3v-8.5C30.5,16.6,29.9,16.1,29.3,16.1z"/>
			</defs>
			<clipPath id="SVGID_2_">
				<use xlink:href="#SVGID_5_"  overflow="visible"/>
			</clipPath>
			<g clip-path="url(#SVGID_2_)">
				<rect x="16.1" y="5.3" fill="none" width="24.1" height="24.1"/>
				<rect x="16.1" y="5.3" fill="#FEE99B" width="24.1" height="24.1"/>
			</g>
			<g clip-path="url(#SVGID_2_)">
				<rect x="16.1" y="29.4" fill="none" width="24.1" height="24.1"/>
				<rect x="16.1" y="29.4" fill="#FEE99B" width="24.1" height="24.1"/>
			</g>
			<g clip-path="url(#SVGID_2_)">
				<rect x="-8" y="5.3" fill="none" width="24.1" height="24.1"/>
				<rect x="-8" y="5.3" fill="#FEE99B" width="24.1" height="24.1"/>
			</g>
			<g clip-path="url(#SVGID_2_)">
				<rect x="-8" y="29.4" fill="none" width="24.1" height="24.1"/>
				<rect x="-8" y="29.4" fill="#FEE99B" width="24.1" height="24.1"/>
			</g>
		</g>
		<pattern  id="SVGID_4_" xlink:href="#New_Pattern_Swatch_2" patternTransform="matrix(1 0 0 1 -4.5862 -0.4533)">
		</pattern>
		<path fill="url(#SVGID_4_)" d="M27.8,31.2c-0.2,0-0.4-0.1-0.5-0.2l-3.1-3.1h-8.6c-1.1,0-2-0.9-2-2v-8.5c0-1.1,0.9-2,2-2h13.6
			c1.1,0,2,0.9,2,2v8.5c0,1.1-0.9,2-2,2h-0.7v2.6c0,0.3-0.2,0.6-0.5,0.7C28,31.2,27.9,31.2,27.8,31.2z M15.7,16.8
			c-0.3,0-0.5,0.2-0.5,0.5v8.5c0,0.3,0.2,0.5,0.5,0.5h8.9c0.2,0,0.4,0.1,0.5,0.2l2,2v-1.5c0-0.4,0.3-0.8,0.8-0.8h1.4
			c0.3,0,0.5-0.2,0.5-0.5v-8.5c0-0.3-0.2-0.5-0.5-0.5H15.7z"/>
	</g>
</g>
</svg>
