<?xml version="1.0" encoding="utf-8"?>
<!-- Generator: Adobe Illustrator 18.0.0, SVG Export Plug-In . SVG Version: 6.00 Build 0)  -->
<!DOCTYPE svg PUBLIC "-//W3C//DTD SVG 1.1//EN" "http://www.w3.org/Graphics/SVG/1.1/DTD/svg11.dtd">
<svg version="1.1" id="Layer_1" xmlns="http://www.w3.org/2000/svg" xmlns:xlink="http://www.w3.org/1999/xlink" x="0px" y="0px"
	 viewBox="0 0 32 32" enable-background="new 0 0 32 32" xml:space="preserve">
<g>
	<g>
		<path fill="#8F9BA8" d="M25.6,31.2h-2.2c-0.8,0-1.5-0.7-1.5-1.5v-2.6H27v2.6C27,30.6,26.4,31.2,25.6,31.2z M23.3,28.7v1.1l2.2,0
			v-1.1H23.3z"/>
	</g>
	<g>
		<path fill="#8F9BA8" d="M8.7,31.2H6.4c-0.8,0-1.5-0.7-1.5-1.5v-2.6h5.2v2.6C10.2,30.6,9.5,31.2,8.7,31.2z M6.5,28.7v1.1l2.2,0
			v-1.1H6.5z"/>
	</g>
	<g>
		<path fill="#F0F7F7" d="M29.2,3.7c0-1.2-1-2.2-2.2-2.2H5c-1.2,0-2.2,1-2.2,2.2v2.5h26.4V3.7z"/>
		<path fill="#8F9BA8" d="M30,6.9H2V3.7c0-1.6,1.3-3,3-3h22c1.6,0,3,1.3,3,3V6.9z M3.5,5.4h24.9V3.7c0-0.8-0.7-1.5-1.5-1.5H5
			c-0.8,0-1.5,0.7-1.5,1.5V5.4z"/>
	</g>
	<g>
		<path fill="#8F9BA8" d="M30,18.6H2V5.4H30V18.6z M3.5,17.1h24.9V6.9H3.5V17.1z"/>
	</g>
	<g>
		<path fill="#8F9BA8" d="M27,28.7H5c-1.6,0-3-1.3-3-3v-8.5H30v8.5C30,27.3,28.6,28.7,27,28.7z M3.5,18.6v7c0,0.8,0.7,1.5,1.5,1.5
			h22c0.8,0,1.5-0.7,1.5-1.5v-7H3.5z"/>
	</g>
	<g>
		<circle fill="#F0F7F7" cx="23.6" cy="22.9" r="2.2"/>
		<path fill="#8F9BA8" d="M23.6,25.8c-1.6,0-2.9-1.3-2.9-2.9s1.3-2.9,2.9-2.9c1.6,0,2.9,1.3,2.9,2.9S25.2,25.8,23.6,25.8z
			 M23.6,21.5c-0.8,0-1.4,0.6-1.4,1.4c0,0.8,0.6,1.4,1.4,1.4c0.8,0,1.4-0.6,1.4-1.4C25,22.1,24.3,21.5,23.6,21.5z"/>
	</g>
	<g>
		<circle fill="#F0F7F7" cx="8.4" cy="22.9" r="2.2"/>
		<path fill="#8F9BA8" d="M8.4,25.8c-1.6,0-2.9-1.3-2.9-2.9S6.8,20,8.4,20c1.6,0,2.9,1.3,2.9,2.9S10.1,25.8,8.4,25.8z M8.4,21.5
			c-0.8,0-1.4,0.6-1.4,1.4c0,0.8,0.6,1.4,1.4,1.4c0.8,0,1.4-0.6,1.4-1.4C9.9,22.1,9.2,21.5,8.4,21.5z"/>
	</g>
	<g>
		<rect x="14.1" y="3.1" fill="#8F9BA8" width="3.7" height="1.5"/>
	</g>
</g>
</svg>
