<?xml version="1.0" encoding="utf-8"?>
<!-- Generator: Adobe Illustrator 18.0.0, SVG Export Plug-In . SVG Version: 6.00 Build 0)  -->
<!DOCTYPE svg PUBLIC "-//W3C//DTD SVG 1.1//EN" "http://www.w3.org/Graphics/SVG/1.1/DTD/svg11.dtd">
<svg version="1.1" id="Layer_1" xmlns="http://www.w3.org/2000/svg" xmlns:xlink="http://www.w3.org/1999/xlink" x="0px" y="0px"
	 viewBox="0 0 32 32" enable-background="new 0 0 32 32" xml:space="preserve">
<g>
	<g>
		<g>
			<line fill="none" x1="18.8" y1="12.5" x2="18.8" y2="13.6"/>
			<rect x="18.1" y="12.5" fill="#DA8C8C" width="1.5" height="1.1"/>
		</g>
		<g>
			<line fill="none" x1="13.2" y1="12.5" x2="13.2" y2="13.6"/>
			<rect x="12.4" y="12.5" fill="#DA8C8C" width="1.5" height="1.1"/>
		</g>
	</g>
	<g>
		<path fill="#FAC2C3" d="M30.5,9c0-2.4-2-4.4-4.4-4.4c-2.2,0-4,1.6-4.3,3.7c1.8,1.2,3.1,2.9,3.9,5c0.1,0,0.3,0,0.4,0
			C28.5,13.4,30.5,11.4,30.5,9z"/>
		<path fill="#DA8C8C" d="M26.1,14.1c-0.2,0-0.3,0-0.5,0c-0.3,0-0.5-0.2-0.6-0.5c-0.7-1.9-2-3.5-3.6-4.6c-0.2-0.2-0.4-0.4-0.3-0.7
			c0.4-2.5,2.5-4.4,5.1-4.4c2.8,0,5.1,2.3,5.1,5.1S29,14.1,26.1,14.1z M22.7,8.1c1.6,1.2,2.8,2.7,3.6,4.6c1.9-0.1,3.5-1.7,3.5-3.6
			c0-2-1.6-3.6-3.6-3.6C24.5,5.4,23.1,6.5,22.7,8.1z"/>
	</g>
	<g>
		<path fill="#FAC2C3" d="M10.2,8.4C9.9,6.3,8.1,4.7,5.9,4.7c-2.4,0-4.4,2-4.4,4.4s2,4.4,4.4,4.4c0.1,0,0.3,0,0.4,0
			C7,11.3,8.4,9.6,10.2,8.4z"/>
		<path fill="#DA8C8C" d="M5.9,14.1C3,14.1,0.8,11.8,0.8,9S3,3.9,5.9,3.9c2.5,0,4.7,1.9,5.1,4.4c0,0.3-0.1,0.6-0.3,0.7
			c-1.7,1.1-2.9,2.7-3.6,4.6c-0.1,0.3-0.3,0.5-0.6,0.5C6.2,14.1,6,14.1,5.9,14.1z M5.9,5.4C3.9,5.4,2.3,7,2.3,9s1.6,3.6,3.5,3.6
			c0.8-1.8,2-3.4,3.6-4.6C8.9,6.5,7.5,5.4,5.9,5.4z"/>
	</g>
	<g>
		<path fill="#8F9BA8" d="M16,28.1c-6.1,0-11.1-5-11.1-11.1c0-1.3,0.2-2.6,0.7-3.9c0.8-2.2,2.3-4,4.2-5.3c1.8-1.3,4-1.9,6.2-1.9
			s4.4,0.7,6.2,1.9c1.9,1.3,3.4,3.1,4.2,5.3c0.5,1.3,0.7,2.6,0.7,3.9C27.1,23.1,22.1,28.1,16,28.1z M16,7.3c-1.9,0-3.8,0.6-5.4,1.7
			c-1.7,1.1-2.9,2.7-3.6,4.6c-0.4,1.1-0.6,2.2-0.6,3.3c0,5.3,4.3,9.6,9.6,9.6s9.6-4.3,9.6-9.6c0-1.1-0.2-2.3-0.6-3.3
			c-0.7-1.9-2-3.5-3.6-4.6S17.9,7.3,16,7.3z"/>
	</g>
	<g>
		<ellipse fill="#FAC2C3" cx="16" cy="22.8" rx="6.7" ry="4.5"/>
		<path fill="#DA8C8C" d="M16,28.1c-4.2,0-7.4-2.3-7.4-5.2s3.3-5.2,7.4-5.2c4.2,0,7.4,2.3,7.4,5.2C23.4,25.8,20.2,28.1,16,28.1z
			 M16,19.1c-3.2,0-5.9,1.7-5.9,3.7s2.7,3.7,5.9,3.7s5.9-1.7,5.9-3.7S19.2,19.1,16,19.1z"/>
	</g>
	<g>
		<circle fill="#FAC2C3" cx="16" cy="21.8" r="1.2"/>
		<path fill="#DA8C8C" d="M16,23.7c-1.1,0-1.9-0.9-1.9-1.9c0-1.1,0.9-1.9,1.9-1.9c1.1,0,1.9,0.9,1.9,1.9
			C17.9,22.9,17.1,23.7,16,23.7z M16,21.4c-0.2,0-0.4,0.2-0.4,0.4c0,0.2,0.2,0.4,0.4,0.4c0.2,0,0.4-0.2,0.4-0.4S16.2,21.4,16,21.4z"
			/>
	</g>
	<g>
		<line fill="none" x1="16" y1="23" x2="16" y2="25.1"/>
		<rect x="15.3" y="23" fill="#DA8C8C" width="1.5" height="2.1"/>
	</g>
	<g>
		<path fill="#DA8C8C" d="M16,25.8c-1.7,0-3.1-0.5-3.7-1.3l1.2-0.9c0.3,0.4,1.2,0.7,2.5,0.7s2.2-0.4,2.5-0.7l1.2,0.9
			C19.1,25.3,17.7,25.8,16,25.8z"/>
	</g>
</g>
</svg>
