<?xml version="1.0" encoding="utf-8"?>
<!-- Generator: Adobe Illustrator 18.0.0, SVG Export Plug-In . SVG Version: 6.00 Build 0)  -->
<!DOCTYPE svg PUBLIC "-//W3C//DTD SVG 1.1//EN" "http://www.w3.org/Graphics/SVG/1.1/DTD/svg11.dtd">
<svg version="1.1" id="Layer_1" xmlns="http://www.w3.org/2000/svg" xmlns:xlink="http://www.w3.org/1999/xlink" x="0px" y="0px"
	 viewBox="0 0 32 32" enable-background="new 0 0 32 32" xml:space="preserve">
<g>
	<g>
		<path fill="#F0F7F7" d="M25.4,27.1l1.7-1.7l-1.3-2c1.3-1.7,2.1-3.7,2.4-5.8l2.3-0.5v-2.4l-2.3-0.5c-0.3-2-1.1-4-2.4-5.8l1.3-2
			l-1.7-1.7l-2,1.3c-1.7-1.3-3.7-2.1-5.8-2.4l-0.5-2.3l-2.4,0l-0.5,2.3c-2,0.3-4,1.1-5.8,2.4l-2-1.3L4.9,6.6l1.3,2
			c-1.3,1.7-2.1,3.7-2.4,5.8l-2.3,0.5l0,2.4l2.3,0.5c0.3,2,1.1,4,2.4,5.8l-1.3,2l1.7,1.7l2-1.3c1.7,1.3,3.7,2.1,5.8,2.4l0.5,2.3
			l2.4,0l0.5-2.3c2-0.3,4-1.1,5.8-2.4L25.4,27.1z"/>
		<path fill="#8F9BA8" d="M17.8,31.2h-3.6l-0.5-2.4c-1.9-0.3-3.6-1.1-5.2-2.1l-2,1.3l-2.6-2.6l1.3-2c-1.1-1.5-1.8-3.3-2.1-5.2
			l-2.4-0.5v-3.6l2.4-0.5c0.3-1.9,1.1-3.6,2.1-5.2l-1.3-2l2.6-2.6l2,1.3c1.5-1.1,3.3-1.8,5.2-2.1l0.5-2.4h3.6l0.5,2.4
			c1.9,0.3,3.6,1.1,5.2,2.1l2-1.3l2.6,2.6l-1.3,2c1.1,1.5,1.8,3.3,2.1,5.2l2.4,0.5v3.6l-2.4,0.5c-0.3,1.9-1.1,3.6-2.1,5.2l1.3,2
			l-2.6,2.6l-2-1.3c-1.5,1.1-3.3,1.8-5.2,2.1L17.8,31.2z M15.4,29.7h1.2l0.5-2.2l0.5-0.1c2-0.3,3.8-1,5.4-2.2l0.4-0.3l1.9,1.2
			l0.8-0.8l-1.2-1.9l0.3-0.4c1.2-1.6,2-3.4,2.2-5.4l0.1-0.5l2.2-0.5v-1.2l-2.2-0.5l-0.1-0.5c-0.3-2-1-3.8-2.2-5.4l-0.3-0.4l1.2-1.9
			l-0.8-0.8l-1.9,1.2L23,6.8c-1.6-1.2-3.4-2-5.4-2.2l-0.5-0.1l-0.5-2.2h-1.2l-0.5,2.2l-0.5,0.1c-2,0.3-3.8,1-5.4,2.2L8.6,7.1
			L6.7,5.9L5.9,6.7l1.2,1.9L6.8,9c-1.2,1.6-2,3.4-2.2,5.4l-0.1,0.5l-2.2,0.5v1.2l2.2,0.5l0.1,0.5c0.3,2,1,3.8,2.2,5.4l0.3,0.4
			l-1.2,1.9l0.8,0.8l1.9-1.2L9,25.2c1.6,1.2,3.4,2,5.4,2.2l0.5,0.1L15.4,29.7z"/>
	</g>
	<g>
		<circle fill="#FFFFFF" cx="16" cy="16" r="8.5"/>
		<path fill="#8F9BA8" d="M16,25.2c-2.5,0-4.8-1-6.5-2.7c-1.7-1.7-2.7-4.1-2.7-6.5c0-2.5,1-4.8,2.7-6.5c1.7-1.7,4.1-2.7,6.5-2.7
			c2.5,0,4.8,1,6.5,2.7c3.6,3.6,3.6,9.4,0,13C20.8,24.3,18.5,25.2,16,25.2z M16,8.3c-2.1,0-4,0.8-5.5,2.3C9.1,12,8.3,13.9,8.3,16
			c0,2.1,0.8,4,2.3,5.5c1.5,1.5,3.4,2.3,5.5,2.3c2.1,0,4-0.8,5.5-2.3c3-3,3-7.9,0-10.9C20,9.1,18.1,8.3,16,8.3z"/>
	</g>
	<g>
		<circle fill="#FFFFFF" cx="16" cy="16" r="3.4"/>
		<path fill="#8F9BA8" d="M16,20.1c-1.1,0-2.1-0.4-2.9-1.2c-0.8-0.8-1.2-1.8-1.2-2.9c0-1.1,0.4-2.1,1.2-2.9c0.8-0.8,1.8-1.2,2.9-1.2
			c1.1,0,2.1,0.4,2.9,1.2c1.6,1.6,1.6,4.2,0,5.8C18.1,19.7,17.1,20.1,16,20.1z M16,13.4c-0.7,0-1.4,0.3-1.9,0.8
			c-0.5,0.5-0.8,1.2-0.8,1.9c0,0.7,0.3,1.4,0.8,1.9c1,1,2.7,1,3.7,0c1-1,1-2.7,0-3.7C17.4,13.7,16.7,13.4,16,13.4z"/>
	</g>
	<g>
		<line fill="#FFFFFF" x1="18.4" y1="13.6" x2="22" y2="10"/>
		
			<rect x="19.4" y="9.3" transform="matrix(0.7071 0.7071 -0.7071 0.7071 14.2679 -10.8112)" fill="#8F9BA8" width="1.5" height="5.1"/>
	</g>
	<g>
		<line fill="#FFFFFF" x1="10" y1="22" x2="13.6" y2="18.4"/>
		
			<rect x="11.1" y="17.6" transform="matrix(0.7071 0.7071 -0.7071 0.7071 17.7327 -2.4435)" fill="#8F9BA8" width="1.5" height="5.1"/>
	</g>
	<g>
		<line fill="#FFFFFF" x1="18.4" y1="18.4" x2="22" y2="22"/>
		
			<rect x="17.6" y="19.4" transform="matrix(0.7071 0.7072 -0.7072 0.7071 20.1856 -8.3599)" fill="#8F9BA8" width="5.1" height="1.5"/>
	</g>
	<g>
		<line fill="#FFFFFF" x1="10" y1="10" x2="13.6" y2="13.6"/>
		
			<rect x="9.3" y="11.1" transform="matrix(0.7071 0.7071 -0.7071 0.7071 11.8162 -4.8941)" fill="#8F9BA8" width="5.1" height="1.5"/>
	</g>
</g>
</svg>
