<?xml version="1.0" encoding="utf-8"?>
<!-- Generator: Adobe Illustrator 18.0.0, SVG Export Plug-In . SVG Version: 6.00 Build 0)  -->
<!DOCTYPE svg PUBLIC "-//W3C//DTD SVG 1.1//EN" "http://www.w3.org/Graphics/SVG/1.1/DTD/svg11.dtd">
<svg version="1.1" id="Layer_1" xmlns="http://www.w3.org/2000/svg" xmlns:xlink="http://www.w3.org/1999/xlink" x="0px" y="0px"
	 viewBox="0 0 32 32" enable-background="new 0 0 32 32" xml:space="preserve">
<g>
	<g>
		<path fill="#8F9BA8" d="M30.5,31.2h-29c-0.4,0-0.8-0.3-0.8-0.8V12.1c0-0.3,0.2-0.5,0.4-0.7c0.3-0.1,0.6-0.1,0.8,0.1l14,10.9
			l14-10.9c0.5-0.4,1.2,0,1.2,0.6v18.4C31.3,30.9,30.9,31.2,30.5,31.2z M2.3,29.7h27.5v-16L16.5,24c-0.3,0.2-0.7,0.2-0.9,0L2.3,13.7
			V29.7z"/>
	</g>
	<g>
		<path fill="#8F9BA8" d="M16,24.2c-0.2,0-0.3-0.1-0.5-0.2L1,12.7c-0.3-0.2-0.4-0.5-0.2-0.8c0.1-0.3,0.4-0.5,0.7-0.5h8.1
			c0.3,0,0.5,0.2,0.7,0.4c1.1,2.1,3.3,3.5,5.7,3.5s4.6-1.3,5.7-3.5c0.1-0.2,0.4-0.4,0.7-0.4h8.1c0.3,0,0.6,0.2,0.7,0.5
			s0,0.6-0.2,0.8L16.5,24C16.3,24.1,16.2,24.2,16,24.2z M3.7,12.9L16,22.5l12.3-9.6h-5.5c-1.4,2.4-4,3.9-6.8,3.9s-5.4-1.5-6.8-3.9
			H3.7z"/>
	</g>
	<g>
		<path fill="#F9F8F2" d="M16,1.5c-4,0-7.3,3.2-7.3,7.3c0,1.2,0.3,2.4,0.8,3.4c1.2,2.3,3.6,3.9,6.4,3.9s5.2-1.6,6.4-3.9
			c0.5-1,0.8-2.2,0.8-3.4C23.2,4.7,20,1.5,16,1.5z"/>
		<path fill="#B4A79C" d="M16,16.7c-3,0-5.7-1.6-7.1-4.3C8.3,11.3,8,10,8,8.7c0-4.4,3.6-8,8-8s8,3.6,8,8c0,1.3-0.3,2.6-0.9,3.7
			C21.7,15.1,19,16.7,16,16.7z M16,2.2c-3.6,0-6.5,2.9-6.5,6.5c0,1.1,0.3,2.1,0.8,3c1.1,2.1,3.3,3.5,5.7,3.5s4.6-1.3,5.7-3.5
			c0.5-0.9,0.8-2,0.8-3C22.5,5.2,19.6,2.2,16,2.2z"/>
	</g>
	<g>
		<line fill="none" x1="19.1" y1="5.6" x2="12.9" y2="11.9"/>
		
			<rect x="15.2" y="4.3" transform="matrix(-0.7071 -0.7071 0.7071 -0.7071 21.0862 26.1721)" fill="#B4A79C" width="1.5" height="8.9"/>
	</g>
	<g>
		<line fill="none" x1="19.1" y1="11.9" x2="12.9" y2="5.6"/>
		
			<rect x="11.6" y="8" transform="matrix(-0.7072 -0.7071 0.7071 -0.7072 21.1561 26.3446)" fill="#B4A79C" width="8.9" height="1.5"/>
	</g>
</g>
</svg>
