<?xml version="1.0" encoding="utf-8"?>
<!-- Generator: Adobe Illustrator 18.0.0, SVG Export Plug-In . SVG Version: 6.00 Build 0)  -->
<!DOCTYPE svg PUBLIC "-//W3C//DTD SVG 1.1//EN" "http://www.w3.org/Graphics/SVG/1.1/DTD/svg11.dtd">
<svg version="1.1" id="Layer_1" xmlns="http://www.w3.org/2000/svg" xmlns:xlink="http://www.w3.org/1999/xlink" x="0px" y="0px"
	 viewBox="0 0 32 32" enable-background="new 0 0 32 32" xml:space="preserve">
<g>
	<g>
		<path fill="#8F9BA8" d="M30.5,30.9h-29c-0.4,0-0.8-0.3-0.8-0.8V3.8C0.7,3.4,1,3,1.5,3h29c0.4,0,0.8,0.3,0.8,0.8v26.3
			C31.3,30.5,30.9,30.9,30.5,30.9z M2.3,29.4h27.5V4.6H2.3V29.4z"/>
	</g>
	<g>
		<rect x="4.6" y="1.1" fill="#8F9BA8" width="1.5" height="5.4"/>
	</g>
	<g>
		<rect x="11.7" y="1.1" fill="#8F9BA8" width="1.5" height="5.4"/>
	</g>
	<g>
		<rect x="18.8" y="1.1" fill="#8F9BA8" width="1.5" height="5.4"/>
	</g>
	<g>
		<rect x="25.9" y="1.1" fill="#8F9BA8" width="1.5" height="5.4"/>
	</g>
	<g>
		<path fill="#FAC2C3" d="M16,17.7c-3.7,0-6.8,3-6.8,6.8c0,0.1,0,0.1,0,0.2c1.8,1.6,4.2,2.5,6.8,2.5s4.9-1,6.8-2.5
			c0-0.1,0-0.1,0-0.2C22.8,20.8,19.7,17.7,16,17.7z"/>
		<path fill="#DA8C8C" d="M16,28c-2.7,0-5.2-1-7.2-2.7c-0.2-0.1-0.3-0.3-0.3-0.6c0-0.1,0-0.2,0-0.2c0-4.1,3.4-7.5,7.5-7.5
			s7.5,3.4,7.5,7.5c0,0.1,0,0.1,0,0.2c0,0.2-0.1,0.5-0.3,0.6C21.2,27,18.7,28,16,28z M10,24.4c1.7,1.4,3.8,2.1,6,2.1s4.3-0.8,6-2.1
			c-0.1-3.3-2.8-5.9-6-5.9C12.7,18.5,10.1,21.1,10,24.4z"/>
	</g>
	<g>
		<path fill="#DA8C8C" d="M16,15.6c-2,0-3.6-1.6-3.6-3.6S14,8.4,16,8.4s3.6,1.6,3.6,3.6S18,15.6,16,15.6z M16,9.9
			c-1.1,0-2.1,0.9-2.1,2.1c0,1.1,0.9,2.1,2.1,2.1c1.1,0,2.1-0.9,2.1-2.1S17.1,9.9,16,9.9z"/>
	</g>
</g>
</svg>
