<?xml version="1.0" encoding="utf-8"?>
<!-- Generator: Adobe Illustrator 18.0.0, SVG Export Plug-In . SVG Version: 6.00 Build 0)  -->
<!DOCTYPE svg PUBLIC "-//W3C//DTD SVG 1.1//EN" "http://www.w3.org/Graphics/SVG/1.1/DTD/svg11.dtd">
<svg version="1.1" id="Layer_1" xmlns="http://www.w3.org/2000/svg" xmlns:xlink="http://www.w3.org/1999/xlink" x="0px" y="0px"
	 viewBox="0 0 32 32" enable-background="new 0 0 32 32" xml:space="preserve">
<g>
	<g>
		<path fill="#8F9BA8" d="M30.5,31.2h-29c-0.4,0-0.7-0.3-0.7-0.8V12.1c0-0.3,0.2-0.5,0.4-0.7c0.3-0.1,0.6-0.1,0.8,0.1l14,10.9
			l14-10.9c0.5-0.4,1.2,0,1.2,0.6v18.4C31.3,30.9,30.9,31.2,30.5,31.2z M2.3,29.7h27.5V13.7L16.5,24c-0.3,0.2-0.7,0.2-0.9,0
			L2.3,13.7V29.7z"/>
	</g>
	<g>
		<path fill="#8F9BA8" d="M16,24.2c-0.2,0-0.3-0.1-0.5-0.2L1,12.7c-0.3-0.2-0.4-0.5-0.2-0.8c0.1-0.3,0.4-0.5,0.7-0.5h8.1
			c0.3,0,0.5,0.2,0.7,0.4c1.1,2.1,3.3,3.5,5.7,3.5c2.4,0,4.6-1.3,5.7-3.5c0.1-0.2,0.4-0.4,0.7-0.4h8.1c0.3,0,0.6,0.2,0.7,0.5
			c0.1,0.3,0,0.6-0.2,0.8L16.5,24C16.3,24.1,16.2,24.2,16,24.2z M3.7,12.9L16,22.5l12.3-9.6h-5.5c-1.4,2.4-4,3.9-6.8,3.9
			c-2.8,0-5.4-1.5-6.8-3.9H3.7z"/>
	</g>
	<g>
		<path fill="#F9F8F2" d="M16,1.5c-4,0-7.3,3.2-7.3,7.3c0,1.2,0.3,2.4,0.8,3.4c1.2,2.3,3.6,3.9,6.4,3.9c2.8,0,5.2-1.6,6.4-3.9
			c0.5-1,0.8-2.2,0.8-3.4C23.2,4.7,20,1.5,16,1.5z"/>
		<path fill="#B4A79C" d="M16,16.7c-3,0-5.7-1.6-7.1-4.3C8.3,11.3,8,10,8,8.7c0-4.4,3.6-8,8-8c4.4,0,8,3.6,8,8
			c0,1.3-0.3,2.6-0.9,3.7C21.7,15.1,19,16.7,16,16.7z M16,2.2c-3.6,0-6.5,2.9-6.5,6.5c0,1.1,0.3,2.1,0.8,3c1.1,2.1,3.3,3.5,5.7,3.5
			c2.4,0,4.6-1.3,5.7-3.5c0.5-0.9,0.8-2,0.8-3C22.5,5.2,19.6,2.2,16,2.2z"/>
	</g>
	<g>
		<path fill="#F9F8F2" d="M17.7,5.6c-0.7,0-1.4,0.4-1.7,1c-0.4-0.6-1-1-1.7-1c-1.1,0-2,0.9-2,2c0,2.5,3.8,5.1,3.8,5.1
			s3.8-2.6,3.8-5.1C19.8,6.5,18.9,5.6,17.7,5.6z"/>
		<path fill="#B4A79C" d="M16,13.6l-0.4-0.3c-0.4-0.3-4.1-2.9-4.1-5.7c0-1.5,1.3-2.8,2.8-2.8c0.6,0,1.3,0.2,1.7,0.6
			c0.5-0.4,1.1-0.6,1.7-0.6c1.5,0,2.8,1.3,2.8,2.8c0,2.8-3.7,5.4-4.1,5.7L16,13.6z M14.2,6.3c-0.7,0-1.3,0.6-1.3,1.3
			c0,1.5,1.9,3.3,3,4.1c1.1-0.9,3-2.6,3-4.1c0-0.7-0.6-1.3-1.3-1.3c-0.5,0-0.9,0.2-1.1,0.6L16,8L15.4,7C15.1,6.6,14.7,6.3,14.2,6.3z
			"/>
	</g>
</g>
</svg>
