<?xml version="1.0" encoding="utf-8"?>
<!-- Generator: Adobe Illustrator 18.0.0, SVG Export Plug-In . SVG Version: 6.00 Build 0)  -->
<!DOCTYPE svg PUBLIC "-//W3C//DTD SVG 1.1//EN" "http://www.w3.org/Graphics/SVG/1.1/DTD/svg11.dtd">
<svg version="1.1" id="Layer_1" xmlns="http://www.w3.org/2000/svg" xmlns:xlink="http://www.w3.org/1999/xlink" x="0px" y="0px"
	 viewBox="0 0 32 32" enable-background="new 0 0 32 32" xml:space="preserve">
<g>
	<g>
		<path fill="#8F9BA8" d="M10.1,31.2c-0.7,0-1.3-0.2-1.9-0.5c-0.9-0.5-1.6-1.4-1.8-2.4c-0.3-1-0.1-2.1,0.4-3c0.7-1.2,2-2,3.4-2
			c0.7,0,1.3,0.2,1.9,0.5c0.9,0.5,1.6,1.4,1.8,2.4c0.3,1,0.1,2.1-0.4,3C12.8,30.5,11.5,31.2,10.1,31.2z M10.2,25
			c-0.9,0-1.7,0.5-2.1,1.2c-0.3,0.6-0.4,1.2-0.2,1.8C8,28.6,8.4,29.1,9,29.4c1.1,0.6,2.6,0.2,3.3-0.9c0.3-0.6,0.4-1.2,0.2-1.8
			c-0.2-0.6-0.6-1.1-1.1-1.4C11,25.1,10.6,25,10.2,25z"/>
	</g>
	<g>
		<path fill="#8F9BA8" d="M21.9,31.2L21.9,31.2c-1.4,0-2.7-0.8-3.4-2c-0.5-0.9-0.7-2-0.4-3c0.3-1,0.9-1.8,1.8-2.4
			c0.6-0.3,1.3-0.5,1.9-0.5c1.4,0,2.7,0.8,3.4,2c0.5,0.9,0.7,2,0.4,3c-0.3,1-0.9,1.8-1.8,2.4C23.2,31.1,22.5,31.2,21.9,31.2z
			 M21.8,25c-0.4,0-0.8,0.1-1.2,0.3c-0.6,0.3-1,0.8-1.1,1.4c-0.2,0.6-0.1,1.3,0.2,1.8c0.4,0.7,1.2,1.2,2.1,1.2l0,0
			c0.4,0,0.8-0.1,1.2-0.3c0.6-0.3,1-0.8,1.1-1.4c0.2-0.6,0.1-1.3-0.2-1.8C23.5,25.4,22.7,25,21.8,25z"/>
	</g>
	<g>
		
			<rect x="17.7" y="-0.7" transform="matrix(-0.8677 -0.4971 0.4971 -0.8677 28.1588 33.0781)" fill="#8F9BA8" width="1.5" height="27"/>
	</g>
	<g>
		<rect x="0" y="12.1" transform="matrix(-0.4969 -0.8678 0.8678 -0.4969 9.09 30.9453)" fill="#8F9BA8" width="27" height="1.5"/>
	</g>
</g>
</svg>
