<?xml version="1.0" encoding="utf-8"?>
<!-- Generator: Adobe Illustrator 18.0.0, SVG Export Plug-In . SVG Version: 6.00 Build 0)  -->
<!DOCTYPE svg PUBLIC "-//W3C//DTD SVG 1.1//EN" "http://www.w3.org/Graphics/SVG/1.1/DTD/svg11.dtd">
<svg version="1.1" id="Layer_1" xmlns="http://www.w3.org/2000/svg" xmlns:xlink="http://www.w3.org/1999/xlink" x="0px" y="0px"
	 viewBox="0 0 32 32" enable-background="new 0 0 32 32" xml:space="preserve">
<g>
	<g>
		<path fill="#8F9BA8" d="M30.5,30.9h-29c-0.4,0-0.8-0.3-0.8-0.8V3.8c0-0.4,0.3-0.8,0.8-0.8h29c0.4,0,0.8,0.3,0.8,0.8v26.3
			C31.3,30.5,30.9,30.9,30.5,30.9z M2.3,29.4h27.5V4.6H2.3V29.4z"/>
	</g>
	<g>
		<rect x="4.6" y="1.1" fill="#8F9BA8" width="1.5" height="5.4"/>
	</g>
	<g>
		<rect x="11.7" y="1.1" fill="#8F9BA8" width="1.5" height="5.4"/>
	</g>
	<g>
		<rect x="18.8" y="1.1" fill="#8F9BA8" width="1.5" height="5.4"/>
	</g>
	<g>
		<rect x="25.9" y="1.1" fill="#8F9BA8" width="1.5" height="5.4"/>
	</g>
	<g>
		<polygon fill="#8F9BA8" points="16.6,25.4 8.1,25.4 8.1,22.5 9.6,22.5 9.6,23.9 15.1,23.9 15.1,11.1 9.6,11.1 9.6,12.5 8.1,12.5 
			8.1,9.6 16.6,9.6 		"/>
	</g>
	<g>
		<rect x="10.4" y="16.7" fill="#8F9BA8" width="5.4" height="1.5"/>
	</g>
	<g>
		<polygon fill="#8F9BA8" points="23,25.4 21.5,25.4 21.5,11.1 20.4,11.1 20.4,9.6 23,9.6 		"/>
	</g>
</g>
</svg>
