<?xml version="1.0" encoding="utf-8"?>
<!-- Generator: Adobe Illustrator 18.0.0, SVG Export Plug-In . SVG Version: 6.00 Build 0)  -->
<!DOCTYPE svg PUBLIC "-//W3C//DTD SVG 1.1//EN" "http://www.w3.org/Graphics/SVG/1.1/DTD/svg11.dtd">
<svg version="1.1" id="Layer_1" xmlns="http://www.w3.org/2000/svg" xmlns:xlink="http://www.w3.org/1999/xlink" x="0px" y="0px"
	 viewBox="0 0 32 32" enable-background="new 0 0 32 32" xml:space="preserve">
<g>
	<g>
		<path fill="#F0F7F7" d="M5,1.5C3.1,1.5,1.5,3.1,1.5,5v22c0,1.9,1.6,3.5,3.5,3.5h2.3v-29H5z"/>
		<path fill="#8F9BA8" d="M7.3,31.3H5c-2.3,0-4.3-1.9-4.3-4.3V5c0-2.3,1.9-4.3,4.3-4.3h2.3c0.4,0,0.8,0.3,0.8,0.8v29
			C8.1,30.9,7.7,31.3,7.3,31.3z M5,2.2C3.5,2.2,2.2,3.5,2.2,5v22c0,1.5,1.2,2.8,2.8,2.8h1.6V2.2H5z"/>
	</g>
	<g>
		<path fill="#F0F7F7" d="M27,1.5h-2.3v29H27c1.9,0,3.5-1.6,3.5-3.5V5C30.5,3.1,28.9,1.5,27,1.5z"/>
		<path fill="#8F9BA8" d="M27,31.3h-2.3c-0.4,0-0.8-0.3-0.8-0.8v-29c0-0.4,0.3-0.8,0.8-0.8H27c2.3,0,4.3,1.9,4.3,4.3v22
			C31.3,29.3,29.3,31.3,27,31.3z M25.4,29.8H27c1.5,0,2.8-1.2,2.8-2.8V5c0-1.5-1.2-2.8-2.8-2.8h-1.6V29.8z"/>
	</g>
	<g>
		<path fill="#8F9BA8" d="M24.7,31.3H7.3c-0.4,0-0.8-0.3-0.8-0.8v-29c0-0.4,0.3-0.8,0.8-0.8h17.4c0.4,0,0.8,0.3,0.8,0.8v29
			C25.4,30.9,25.1,31.3,24.7,31.3z M8.1,29.8h15.9V2.2H8.1V29.8z"/>
	</g>
	<g>
		<rect x="27" y="5.3" fill="#8F9BA8" width="1.1" height="1.5"/>
	</g>
	<g>
		<rect x="27" y="10.3" fill="#8F9BA8" width="1.1" height="1.5"/>
	</g>
	<g>
		<rect x="27" y="15.3" fill="#8F9BA8" width="1.1" height="1.5"/>
	</g>
	<g>
		<rect x="27" y="20.2" fill="#8F9BA8" width="1.1" height="1.5"/>
	</g>
	<g>
		<rect x="27" y="25.2" fill="#8F9BA8" width="1.1" height="1.5"/>
	</g>
	<g>
		<rect x="3.9" y="5.3" fill="#8F9BA8" width="1.1" height="1.5"/>
	</g>
	<g>
		<rect x="3.9" y="10.3" fill="#8F9BA8" width="1.1" height="1.5"/>
	</g>
	<g>
		<rect x="3.9" y="15.3" fill="#8F9BA8" width="1.1" height="1.5"/>
	</g>
	<g>
		<rect x="3.9" y="20.2" fill="#8F9BA8" width="1.1" height="1.5"/>
	</g>
	<g>
		<rect x="3.9" y="25.2" fill="#8F9BA8" width="1.1" height="1.5"/>
	</g>
	<g>
		<path fill="#F2E8B9" d="M11.5,11.6v8.9c0,1.2,1.4,1.9,2.3,1.2l6.1-4.4c0.8-0.6,0.8-1.8,0-2.4l-6.1-4.4
			C12.8,9.7,11.5,10.4,11.5,11.6z"/>
		<path fill="#B4A042" d="M12.9,22.7L12.9,22.7c-1.2,0-2.2-1-2.2-2.2v-8.9c0-1.2,1-2.2,2.2-2.2c0.5,0,0.9,0.1,1.3,0.4l6.1,4.4
			c0.6,0.4,0.9,1.1,0.9,1.8c0,0.7-0.3,1.4-0.9,1.8l-6.1,4.4C13.9,22.5,13.4,22.7,12.9,22.7z M12.9,10.8c-0.3,0-0.7,0.3-0.7,0.7v8.9
			c0,0.4,0.4,0.7,0.7,0.7l0,0c0.1,0,0.3,0,0.4-0.1l6.1-4.4c0.2-0.1,0.3-0.3,0.3-0.6c0-0.2-0.1-0.4-0.3-0.6L13.4,11
			C13.2,10.9,13.1,10.8,12.9,10.8z"/>
	</g>
</g>
</svg>
