<?xml version="1.0" encoding="utf-8"?>
<!-- Generator: Adobe Illustrator 18.0.0, SVG Export Plug-In . SVG Version: 6.00 Build 0)  -->
<!DOCTYPE svg PUBLIC "-//W3C//DTD SVG 1.1//EN" "http://www.w3.org/Graphics/SVG/1.1/DTD/svg11.dtd">
<svg version="1.1" id="Layer_1" xmlns="http://www.w3.org/2000/svg" xmlns:xlink="http://www.w3.org/1999/xlink" x="0px" y="0px"
	 viewBox="0 0 32 32" enable-background="new 0 0 32 32" xml:space="preserve">
<g>
	<g>
		<path fill="#B4A79C" d="M16,31.3C16,31.3,16,31.3,16,31.3c-0.2,0-0.4,0-0.7,0c-4.3-0.3-7.7-3.6-8.1-7.9c-0.2-1.8,0.2-3.6,1-5.1
			c0.7-1.3,1-2.8,1-4.4c0-0.1,0-0.2,0-0.3c0-3.9,3.3-7.1,7.3-6.8c3.4,0.2,6.2,3,6.4,6.5c0,0.3,0,0.5,0,0.8c-0.1,1.5,0.2,3,1,4.3
			c0.7,1.3,1.1,2.7,1.1,4.2c0,2.4-0.9,4.6-2.6,6.3C20.6,30.3,18.4,31.3,16,31.3z M16,8.1c-3,0-5.4,2.4-5.4,5.4l0,0.2
			c0.1,1.9-0.3,3.7-1.1,5.2c-0.7,1.3-1,2.8-0.8,4.3c0.4,3.5,3.3,6.3,6.8,6.6c2.2,0.2,4.2-0.6,5.8-2.1c1.4-1.4,2.2-3.2,2.2-5.2
			c0-1.2-0.3-2.4-0.9-3.5c-0.8-1.6-1.2-3.3-1.1-5.1c0-0.2,0-0.4,0-0.6c-0.2-2.7-2.3-4.9-5-5C16.2,8.1,16.1,8.1,16,8.1z"/>
	</g>
	<g>
		<path fill="#B4A79C" d="M16,8.1C16,8.1,16,8.1,16,8.1c-0.5,0-0.8-0.4-0.7-0.8c0-0.2,0.3-4.2,3.1-4.5c0.4,0,0.8,0.3,0.8,0.7
			c0,0.4-0.3,0.8-0.7,0.8c-1.6,0.2-1.8,3.1-1.8,3.1C16.7,7.8,16.4,8.1,16,8.1z"/>
	</g>
	<g>
		<path fill="#B4A79C" d="M16.2,7.6h-1.8c-2.8,0-5-2.3-5-5V0.7h1.8c2.8,0,5,2.3,5,5V7.6z M10.9,2.2v0.3c0,1.9,1.6,3.5,3.5,3.5h0.3
			V5.8c0-1.9-1.6-3.5-3.5-3.5H10.9z"/>
	</g>
</g>
</svg>
