<?xml version="1.0" encoding="utf-8"?>
<!-- Generator: Adobe Illustrator 18.0.0, SVG Export Plug-In . SVG Version: 6.00 Build 0)  -->
<!DOCTYPE svg PUBLIC "-//W3C//DTD SVG 1.1//EN" "http://www.w3.org/Graphics/SVG/1.1/DTD/svg11.dtd">
<svg version="1.1" id="Layer_1" xmlns="http://www.w3.org/2000/svg" xmlns:xlink="http://www.w3.org/1999/xlink" x="0px" y="0px"
	 viewBox="0 0 32 32" enable-background="new 0 0 32 32" xml:space="preserve">
<g>
	<g>
		<path fill="#8F9BA8" d="M18.9,31.3L18.9,31.3c-0.3,0-0.5,0-0.8-0.1c-0.1,0-0.3,0-0.4-0.1c-1.1-0.2-2.3-0.2-3.4,0
			c-0.1,0-0.3,0.1-0.4,0.1c-4.4,0.6-9.1-4-10.7-10.2c-0.9-3.8-0.5-7.5,1.1-10c1-1.5,2.4-2.4,4-2.6c1.2-0.2,2.5,0.1,3.8,0.7
			c2.3,1.1,5.4,1.1,7.7,0c1.3-0.6,2.5-0.8,3.8-0.7c1.6,0.2,3,1.1,4,2.6c1.7,2.4,2.1,6.2,1.1,10C27.3,26.8,23.1,31.3,18.9,31.3z
			 M16,29.4c0.7,0,1.4,0.1,2,0.2c0.1,0,0.2,0,0.3,0.1c3.6,0.5,7.7-3.7,9-9.1c0.8-3.4,0.5-6.7-0.9-8.8c-0.8-1.1-1.8-1.8-3-2
			c-0.9-0.1-1.9,0-2.9,0.5c-2.7,1.3-6.3,1.3-9,0c-1-0.5-2-0.7-2.9-0.5c-1.2,0.2-2.2,0.9-3,2c-1.4,2.1-1.8,5.4-0.9,8.8
			c1.3,5.4,5.4,9.6,9,9.1c0.1,0,0.2,0,0.3-0.1C14.6,29.5,15.3,29.4,16,29.4z"/>
	</g>
	<g>
		<path fill="#8F9BA8" d="M16,11.3C16,11.3,16,11.3,16,11.3c-0.5,0-0.8-0.4-0.7-0.8c0.1-1.6,1.4-4.8,5.1-5.3
			c0.4-0.1,0.8,0.2,0.9,0.6c0.1,0.4-0.2,0.8-0.6,0.9c-3.5,0.5-3.8,3.8-3.8,4C16.7,11,16.4,11.3,16,11.3z"/>
	</g>
	<g>
		<path fill="#8F9BA8" d="M16,9.8h-2.3C10,9.8,7,6.7,7,3V0.7h2.3c3.7,0,6.7,3,6.7,6.7V9.8z M8.5,2.2V3c0,2.9,2.4,5.2,5.2,5.2h0.8
			V7.5c0-2.9-2.4-5.2-5.2-5.2H8.5z"/>
	</g>
</g>
</svg>
