<?xml version="1.0" encoding="utf-8"?>
<!-- Generator: Adobe Illustrator 18.0.0, SVG Export Plug-In . SVG Version: 6.00 Build 0)  -->
<!DOCTYPE svg PUBLIC "-//W3C//DTD SVG 1.1//EN" "http://www.w3.org/Graphics/SVG/1.1/DTD/svg11.dtd">
<svg version="1.1" id="Layer_1" xmlns="http://www.w3.org/2000/svg" xmlns:xlink="http://www.w3.org/1999/xlink" x="0px" y="0px"
	 viewBox="0 0 32 32" enable-background="new 0 0 32 32" xml:space="preserve">
<g>
	<g>
		<path fill="#8F9BA8" d="M18.5,31.2L18.5,31.2c-4.7,0-9.2-1.8-12.5-5.2C-1,19.1-1,7.9,5.9,1C6.2,0.7,6.7,0.7,7,1l24,24
			c0.3,0.3,0.3,0.8,0,1.1C27.7,29.4,23.2,31.2,18.5,31.2z M6.5,2.6C0.7,8.9,0.8,18.8,7,25c3.1,3.1,7.1,4.8,11.5,4.8
			c4.1,0,7.9-1.5,10.9-4.2L6.5,2.6z"/>
	</g>
	<g>
		<path fill="#8F9BA8" d="M8.2,22.1C8.2,22.1,8.2,22.1,8.2,22.1c-0.3,0-0.5-0.1-0.6-0.3c-1.4-1.9-2.4-4.1-2.7-6.5
			c0-0.2,0-0.4,0.2-0.6c0.1-0.2,0.3-0.3,0.6-0.3l0,0l8.6,0c0.3,0,0.6,0.2,0.7,0.5c0.1,0.3,0.1,0.6-0.2,0.8l-6.1,6.1
			C8.6,22,8.4,22.1,8.2,22.1z M6.6,16c0.3,1.5,0.9,2.9,1.7,4.2l4.2-4.2L6.6,16z"/>
	</g>
	<g>
		<path fill="#8F9BA8" d="M16.8,27C16.7,27,16.7,27,16.8,27c-2.4-0.3-4.7-1.2-6.6-2.7C10,24.2,9.9,24,9.9,23.8
			c0-0.2,0.1-0.4,0.2-0.6l6.1-6.1c0.2-0.2,0.5-0.3,0.8-0.2c0.3,0.1,0.5,0.4,0.5,0.7v8.6c0,0.2-0.1,0.4-0.3,0.6
			C17.1,27,16.9,27,16.8,27z M11.8,23.7c1.3,0.8,2.7,1.4,4.2,1.7v-5.9L11.8,23.7z"/>
	</g>
	<g>
		<path fill="#8F9BA8" d="M12.3,12.5L12.3,12.5l-6.6,0c-0.2,0-0.4-0.1-0.6-0.3C5,12.1,4.9,11.9,5,11.7c0.2-1.8,0.9-3.5,1.9-5.2
			c0.1-0.2,0.3-0.3,0.6-0.4c0.2,0,0.5,0.1,0.6,0.2l4.9,4.9c0.2,0.2,0.3,0.5,0.2,0.8C12.9,12.4,12.6,12.5,12.3,12.5z M6.6,11l3.9,0
			L7.6,8.1C7.2,9.1,6.8,10.1,6.6,11z"/>
	</g>
	<g>
		<path fill="#8F9BA8" d="M20.2,27c-0.2,0-0.4-0.1-0.5-0.2c-0.2-0.1-0.3-0.3-0.3-0.6v-6.6c0-0.3,0.2-0.6,0.5-0.7
			c0.3-0.1,0.6-0.1,0.8,0.2l4.9,4.9c0.2,0.2,0.2,0.4,0.2,0.6c0,0.2-0.2,0.4-0.4,0.6C23.8,26.2,22.1,26.8,20.2,27
			C20.3,27,20.2,27,20.2,27z M20.9,21.5v3.9c1-0.2,2-0.6,2.9-1L20.9,21.5z"/>
	</g>
</g>
</svg>
