<?xml version="1.0" encoding="utf-8"?>
<!-- Generator: Adobe Illustrator 18.0.0, SVG Export Plug-In . SVG Version: 6.00 Build 0)  -->
<!DOCTYPE svg PUBLIC "-//W3C//DTD SVG 1.1//EN" "http://www.w3.org/Graphics/SVG/1.1/DTD/svg11.dtd">
<svg version="1.1" id="Layer_1" xmlns="http://www.w3.org/2000/svg" xmlns:xlink="http://www.w3.org/1999/xlink" x="0px" y="0px"
	 viewBox="0 0 32 32" enable-background="new 0 0 32 32" xml:space="preserve">
<g>
	<g>
		<path fill="#8F9BA8" d="M23.8,31.3H8.2c-1.6,0-2.9-1.3-2.9-2.9V6.8c0-1.6,1.3-2.9,2.9-2.9h15.5c1.6,0,2.9,1.3,2.9,2.9v21.5
			C26.7,29.9,25.4,31.3,23.8,31.3z M8.2,5.3C7.4,5.3,6.8,6,6.8,6.8v21.5c0,0.8,0.6,1.4,1.4,1.4h15.5c0.8,0,1.4-0.6,1.4-1.4V6.8
			c0-0.8-0.6-1.4-1.4-1.4H8.2z"/>
	</g>
	<g>
		<path fill="#8F9BA8" d="M20.8,5.3h-9.6V2.7c0-1.1,0.9-1.9,1.9-1.9h5.7c1.1,0,1.9,0.9,1.9,1.9V5.3z M12.7,3.8h6.6V2.7
			c0-0.2-0.2-0.4-0.4-0.4h-5.7c-0.2,0-0.4,0.2-0.4,0.4V3.8z"/>
	</g>
	<g>
		<path fill="#DA8C8C" d="M23.7,28.3H8.3v-6.1h15.4V28.3z M9.8,26.8h12.4v-3.1H9.8V26.8z"/>
	</g>
	<g>
		<path fill="#DA8C8C" d="M23.7,20.6H8.3v-6.1h15.4V20.6z M9.8,19.1h12.4V16H9.8V19.1z"/>
	</g>
	<g>
		<path fill="#DA8C8C" d="M23.7,13H8.3V6.8h15.4V13z M9.8,11.5h12.4V8.3H9.8V11.5z"/>
	</g>
</g>
</svg>
