<?xml version="1.0" encoding="utf-8"?>
<!-- Generator: Adobe Illustrator 18.0.0, SVG Export Plug-In . SVG Version: 6.00 Build 0)  -->
<!DOCTYPE svg PUBLIC "-//W3C//DTD SVG 1.1//EN" "http://www.w3.org/Graphics/SVG/1.1/DTD/svg11.dtd">
<svg version="1.1" id="Layer_1" xmlns="http://www.w3.org/2000/svg" xmlns:xlink="http://www.w3.org/1999/xlink" x="0px" y="0px"
	 viewBox="0 0 32 32" enable-background="new 0 0 32 32" xml:space="preserve">
<g>
	<g>
		<g>
			<defs>
				<rect id="SVGID_7_" x="-33" y="22.9" width="13.9" height="4.6"/>
			</defs>
			<clipPath id="SVGID_2_">
				<use xlink:href="#SVGID_7_"  overflow="visible"/>
			</clipPath>
			<g clip-path="url(#SVGID_2_)">
				<rect x="-23.7" y="13.2" fill="none" width="24.1" height="24.1"/>
				<rect x="-23.7" y="13.2" fill="#FEE99B" width="24.1" height="24.1"/>
			</g>
		</g>
	</g>
</g>
<g>
	<g>
		<path fill="#8F9BA8" d="M20.8,5.3h-9.6V2.7c0-1.1,0.9-1.9,1.9-1.9h5.7c1.1,0,1.9,0.9,1.9,1.9V5.3z M12.7,3.8h6.6V2.7
			c0-0.2-0.2-0.4-0.4-0.4h-5.7c-0.2,0-0.4,0.2-0.4,0.4V3.8z"/>
	</g>
	<g>
		<path fill="#8F9BA8" d="M23.8,31.3H8.2c-1.6,0-2.9-1.3-2.9-2.9V6.8c0-1.6,1.3-2.9,2.9-2.9h15.5c1.6,0,2.9,1.3,2.9,2.9v21.5
			C26.7,29.9,25.4,31.3,23.8,31.3z M8.2,5.3C7.4,5.3,6.8,6,6.8,6.8v21.5c0,0.8,0.6,1.4,1.4,1.4h15.5c0.8,0,1.4-0.6,1.4-1.4V6.8
			c0-0.8-0.6-1.4-1.4-1.4H8.2z"/>
	</g>
</g>
</svg>
