<?xml version="1.0" encoding="utf-8"?>
<!-- Generator: Adobe Illustrator 18.0.0, SVG Export Plug-In . SVG Version: 6.00 Build 0)  -->
<!DOCTYPE svg PUBLIC "-//W3C//DTD SVG 1.1//EN" "http://www.w3.org/Graphics/SVG/1.1/DTD/svg11.dtd">
<svg version="1.1" id="Layer_1" xmlns="http://www.w3.org/2000/svg" xmlns:xlink="http://www.w3.org/1999/xlink" x="0px" y="0px"
	 viewBox="0 0 32 32" enable-background="new 0 0 32 32" xml:space="preserve">
<g>
	<g>
		<path fill="#B4A79C" d="M10.4,14.2H8.9V7.8c0-3.9,3.2-7.1,7.1-7.1c3.9,0,7.1,3.2,7.1,7.1v1.4h-1.5V7.8c0-3.1-2.5-5.6-5.6-5.6
			s-5.6,2.5-5.6,5.6V14.2z"/>
	</g>
	<g>
		<path fill="#CDE4F7" d="M24.9,30.5H7.1c-1.1,0-2-0.9-2-2V16.2c0-1.1,0.9-2,2-2h17.9c1.1,0,2,0.9,2,2v12.3
			C26.9,29.6,26,30.5,24.9,30.5z"/>
		<path fill="#74B1E0" d="M24.9,31.2H7.1c-1.5,0-2.8-1.2-2.8-2.8V16.2c0-1.5,1.2-2.8,2.8-2.8h17.9c1.5,0,2.8,1.2,2.8,2.8v12.3
			C27.7,30,26.5,31.2,24.9,31.2z M7.1,15c-0.7,0-1.3,0.6-1.3,1.3v12.3c0,0.7,0.6,1.3,1.3,1.3h17.9c0.7,0,1.3-0.6,1.3-1.3V16.2
			c0-0.7-0.6-1.3-1.3-1.3H7.1z"/>
	</g>
	<g>
		<circle fill="#CDE4F7" cx="16" cy="19.9" r="2.6"/>
		<path fill="#74B1E0" d="M16,23.3c-1.9,0-3.4-1.5-3.4-3.4c0-1.9,1.5-3.4,3.4-3.4s3.4,1.5,3.4,3.4C19.4,21.8,17.9,23.3,16,23.3z
			 M16,18c-1,0-1.9,0.8-1.9,1.9c0,1,0.8,1.9,1.9,1.9c1,0,1.9-0.8,1.9-1.9C17.9,18.8,17,18,16,18z"/>
	</g>
	<g>
		<line fill="#CDE4F7" x1="16" y1="22.5" x2="16" y2="27.5"/>
		<rect x="15.3" y="22.5" fill="#74B1E0" width="1.5" height="5"/>
	</g>
</g>
</svg>
