<?xml version="1.0" encoding="utf-8"?>
<!-- Generator: Adobe Illustrator 18.0.0, SVG Export Plug-In . SVG Version: 6.00 Build 0)  -->
<!DOCTYPE svg PUBLIC "-//W3C//DTD SVG 1.1//EN" "http://www.w3.org/Graphics/SVG/1.1/DTD/svg11.dtd">
<svg version="1.1" id="Layer_1" xmlns="http://www.w3.org/2000/svg" xmlns:xlink="http://www.w3.org/1999/xlink" x="0px" y="0px"
	 viewBox="0 0 32 32" enable-background="new 0 0 32 32" xml:space="preserve">
<g>
	<g>
		<path fill="#8F9BA8" d="M26.8,31.2c-1.2,0-2.3-0.5-3.2-1.3c-1.7-1.7-1.7-4.6,0-6.3c0.8-0.8,2-1.3,3.2-1.3c1.2,0,2.3,0.5,3.2,1.3
			c1.7,1.7,1.7,4.6,0,6.3C29.1,30.8,28,31.2,26.8,31.2z M26.8,23.8c-0.8,0-1.5,0.3-2.1,0.9c-1.2,1.2-1.2,3,0,4.2
			c1.1,1.1,3.1,1.1,4.2,0c1.2-1.2,1.2-3,0-4.2C28.3,24.1,27.6,23.8,26.8,23.8z"/>
	</g>
	<g>
		<path fill="#8F9BA8" d="M5.2,9.7C4,9.7,2.9,9.2,2.1,8.4c-0.8-0.8-1.3-2-1.3-3.2c0-1.2,0.5-2.3,1.3-3.2c0.8-0.8,2-1.3,3.2-1.3
			c1.2,0,2.3,0.5,3.2,1.3c0.8,0.8,1.3,2,1.3,3.2c0,1.2-0.5,2.3-1.3,3.2C7.5,9.2,6.4,9.7,5.2,9.7z M5.2,2.2c-0.8,0-1.5,0.3-2.1,0.9
			C2.6,3.7,2.2,4.4,2.2,5.2c0,0.8,0.3,1.5,0.9,2.1c1.1,1.1,3.1,1.1,4.2,0C7.9,6.7,8.2,6,8.2,5.2c0-0.8-0.3-1.5-0.9-2.1
			C6.7,2.6,6,2.2,5.2,2.2z"/>
	</g>
	<g>
		<path fill="#8F9BA8" d="M26.8,9.7c-1.2,0-2.3-0.5-3.2-1.3c-1.7-1.7-1.7-4.6,0-6.3c0.8-0.8,2-1.3,3.2-1.3c1.2,0,2.3,0.5,3.2,1.3
			c0.8,0.8,1.3,2,1.3,3.2c0,1.2-0.5,2.3-1.3,3.2C29.1,9.2,28,9.7,26.8,9.7z M26.8,2.2c-0.8,0-1.5,0.3-2.1,0.9c-1.2,1.2-1.2,3,0,4.2
			c1.1,1.1,3.1,1.1,4.2,0c0.6-0.6,0.9-1.3,0.9-2.1c0-0.8-0.3-1.5-0.9-2.1C28.3,2.6,27.6,2.2,26.8,2.2z"/>
	</g>
	<g>
		<path fill="#8F9BA8" d="M5.2,31.2c-1.2,0-2.3-0.5-3.2-1.3c-1.7-1.7-1.7-4.6,0-6.3c0.8-0.8,2-1.3,3.2-1.3c1.2,0,2.3,0.5,3.2,1.3
			c1.7,1.7,1.7,4.6,0,6.3C7.5,30.8,6.4,31.2,5.2,31.2z M5.2,23.8c-0.8,0-1.5,0.3-2.1,0.9c-1.2,1.2-1.2,3,0,4.2
			c1.1,1.1,3.1,1.1,4.2,0c1.2-1.2,1.2-3,0-4.2C6.7,24.1,6,23.8,5.2,23.8z"/>
	</g>
	<g>
		<rect x="6.9" y="9.2" transform="matrix(0.7071 0.7071 -0.7071 0.7071 9.9675 -4.129)" fill="#8F9BA8" width="6.1" height="1.5"/>
	</g>
	<g>
		
			<rect x="19" y="21.3" transform="matrix(0.7071 0.7071 -0.7071 0.7071 22.0315 -9.1259)" fill="#8F9BA8" width="6.1" height="1.5"/>
	</g>
	<g>
		<rect x="9.2" y="19" transform="matrix(0.7071 0.7071 -0.7071 0.7071 18.498 -0.5958)" fill="#8F9BA8" width="1.5" height="6.1"/>
	</g>
	<g>
		
			<rect x="21.3" y="6.9" transform="matrix(0.7071 0.7071 -0.7071 0.7071 13.5018 -12.6592)" fill="#8F9BA8" width="1.5" height="6.1"/>
	</g>
	<g>
		<path fill="#8F9BA8" d="M16,8.8c-2.2,0-4-1.8-4-4c0-2.2,1.8-4,4-4c2.2,0,4,1.8,4,4C20,7,18.2,8.8,16,8.8z M16,2.2
			c-1.4,0-2.5,1.1-2.5,2.5c0,1.4,1.1,2.5,2.5,2.5c1.4,0,2.5-1.1,2.5-2.5C18.5,3.4,17.4,2.2,16,2.2z"/>
	</g>
	<g>
		<rect x="15.2" y="8.1" fill="#8F9BA8" width="1.5" height="2.4"/>
	</g>
	<g>
		<path fill="#8F9BA8" d="M16,31.2c-2.2,0-4-1.8-4-4s1.8-4,4-4c2.2,0,4,1.8,4,4S18.2,31.2,16,31.2z M16,24.7c-1.4,0-2.5,1.1-2.5,2.5
			c0,1.4,1.1,2.5,2.5,2.5c1.4,0,2.5-1.1,2.5-2.5C18.5,25.8,17.4,24.7,16,24.7z"/>
	</g>
	<g>
		<rect x="15.3" y="21.5" fill="#8F9BA8" width="1.5" height="2.4"/>
	</g>
	<g>
		<path fill="#8F9BA8" d="M4.8,20c-2.2,0-4-1.8-4-4c0-2.2,1.8-4,4-4c2.2,0,4,1.8,4,4C8.8,18.2,7,20,4.8,20z M4.8,13.5
			c-1.4,0-2.5,1.1-2.5,2.5c0,1.4,1.1,2.5,2.5,2.5c1.4,0,2.5-1.1,2.5-2.5C7.3,14.6,6.2,13.5,4.8,13.5z"/>
	</g>
	<g>
		<rect x="8.1" y="15.3" fill="#8F9BA8" width="2.4" height="1.5"/>
	</g>
	<g>
		<path fill="#8F9BA8" d="M27.2,20L27.2,20c-2.2,0-4-1.8-4-4c0-2.2,1.8-4,4-4c2.2,0,4,1.8,4,4S29.4,20,27.2,20z M27.2,13.5
			c-1.4,0-2.5,1.1-2.5,2.5c0,1.4,1.1,2.5,2.5,2.5c1.4,0,2.5-1.1,2.5-2.5S28.6,13.5,27.2,13.5z"/>
	</g>
	<g>
		<rect x="21.5" y="15.3" fill="#8F9BA8" width="2.4" height="1.5"/>
	</g>
	<g>
		<circle fill="#FBF4B2" cx="16" cy="16" r="5.5"/>
		<path fill="#AEA051" d="M16,22.2c-1.7,0-3.2-0.6-4.4-1.8c-1.2-1.2-1.8-2.7-1.8-4.4s0.6-3.2,1.8-4.4c1.2-1.2,2.7-1.8,4.4-1.8
			c1.7,0,3.2,0.6,4.4,1.8c1.2,1.2,1.8,2.7,1.8,4.4s-0.6,3.2-1.8,4.4C19.2,21.6,17.7,22.2,16,22.2z M16,11.3c-1.3,0-2.4,0.5-3.3,1.4
			c-0.9,0.9-1.4,2.1-1.4,3.3c0,1.3,0.5,2.4,1.4,3.3c0.9,0.9,2.1,1.4,3.3,1.4c1.3,0,2.4-0.5,3.3-1.4c0.9-0.9,1.4-2.1,1.4-3.3
			c0-1.3-0.5-2.4-1.4-3.3C18.4,11.8,17.3,11.3,16,11.3z"/>
	</g>
</g>
</svg>
