<?xml version="1.0" encoding="utf-8"?>
<!-- Generator: Adobe Illustrator 18.0.0, SVG Export Plug-In . SVG Version: 6.00 Build 0)  -->
<!DOCTYPE svg PUBLIC "-//W3C//DTD SVG 1.1//EN" "http://www.w3.org/Graphics/SVG/1.1/DTD/svg11.dtd">
<svg version="1.1" id="Layer_1" xmlns="http://www.w3.org/2000/svg" xmlns:xlink="http://www.w3.org/1999/xlink" x="0px" y="0px"
	 viewBox="0 0 32 32" enable-background="new 0 0 32 32" xml:space="preserve">
<g>
	<g>
		<path fill="#8F9BA8" d="M26.8,31.2c-1.2,0-2.3-0.5-3.2-1.3c-1.7-1.7-1.7-4.6,0-6.3c0.8-0.8,2-1.3,3.2-1.3s2.3,0.5,3.2,1.3
			c1.7,1.7,1.7,4.6,0,6.3C29.1,30.8,28,31.2,26.8,31.2z M26.8,23.8c-0.8,0-1.5,0.3-2.1,0.9c-1.2,1.2-1.2,3,0,4.2
			c1.1,1.1,3.1,1.1,4.2,0c1.2-1.2,1.2-3,0-4.2C28.3,24.1,27.6,23.8,26.8,23.8z"/>
	</g>
	<g>
		<path fill="#8F9BA8" d="M26.8,9.7c-1.2,0-2.3-0.5-3.2-1.3c-1.7-1.7-1.7-4.6,0-6.3c0.8-0.8,2-1.3,3.2-1.3s2.3,0.5,3.2,1.3
			c1.7,1.7,1.7,4.6,0,6.3C29.1,9.2,28,9.7,26.8,9.7z M26.8,2.2c-0.8,0-1.5,0.3-2.1,0.9c-1.2,1.2-1.2,3,0,4.2c1.1,1.1,3.1,1.1,4.2,0
			c1.2-1.2,1.2-3,0-4.2C28.3,2.6,27.6,2.2,26.8,2.2z"/>
	</g>
	<g>
		
			<rect x="10.2" y="21.9" transform="matrix(-0.906 -0.4233 0.4233 -0.906 22.896 50.3942)" fill="#8F9BA8" width="13.7" height="1.5"/>
	</g>
	<g>
		
			<rect x="16.3" y="2.5" transform="matrix(-0.4231 -0.9061 0.9061 -0.4231 15.778 28.7849)" fill="#8F9BA8" width="1.5" height="13.7"/>
	</g>
	<g>
		<circle fill="#CDE4F7" cx="7" cy="16" r="5.5"/>
		<path fill="#74B1E0" d="M7,22.2c-1.7,0-3.2-0.6-4.4-1.8c-1.2-1.2-1.8-2.7-1.8-4.4s0.6-3.2,1.8-4.4C3.7,10.4,5.3,9.8,7,9.8
			s3.2,0.6,4.4,1.8s1.8,2.7,1.8,4.4s-0.6,3.2-1.8,4.4C10.2,21.6,8.6,22.2,7,22.2z M7,11.3c-1.3,0-2.4,0.5-3.3,1.4S2.3,14.8,2.3,16
			c0,1.3,0.5,2.4,1.4,3.3s2.1,1.4,3.3,1.4c1.3,0,2.4-0.5,3.3-1.4c0.9-0.9,1.4-2.1,1.4-3.3c0-1.3-0.5-2.4-1.4-3.3
			C9.4,11.8,8.2,11.3,7,11.3z"/>
	</g>
</g>
</svg>
