<?xml version="1.0" encoding="utf-8"?>
<!-- Generator: Adobe Illustrator 18.0.0, SVG Export Plug-In . SVG Version: 6.00 Build 0)  -->
<!DOCTYPE svg PUBLIC "-//W3C//DTD SVG 1.1//EN" "http://www.w3.org/Graphics/SVG/1.1/DTD/svg11.dtd">
<svg version="1.1" id="Layer_1" xmlns="http://www.w3.org/2000/svg" xmlns:xlink="http://www.w3.org/1999/xlink" x="0px" y="0px"
	 viewBox="0 0 32 32" enable-background="new 0 0 32 32" xml:space="preserve">
<g>
	<g>
		<path fill="#FAC2C3" d="M29.2,1.5h-8.1h-5.6c-0.7,0-1.3,0.6-1.3,1.3v8.6c0,0.7,0.6,1.3,1.3,1.3H17v3.4l3.3-3.4h0.8h8.1
			c0.7,0,1.3-0.6,1.3-1.3V2.8C30.5,2.1,29.9,1.5,29.2,1.5z"/>
		<path fill="#DA8C8C" d="M17,16.9c-0.1,0-0.2,0-0.3-0.1c-0.3-0.1-0.5-0.4-0.5-0.7v-2.7h-0.7c-1.1,0-2-0.9-2-2V2.8c0-1.1,0.9-2,2-2
			h13.7c1.1,0,2,0.9,2,2v8.6c0,1.1-0.9,2-2,2h-8.7l-3.1,3.2C17.4,16.8,17.2,16.9,17,16.9z M15.5,2.2c-0.3,0-0.5,0.2-0.5,0.5v8.6
			c0,0.3,0.2,0.5,0.5,0.5H17c0.4,0,0.8,0.3,0.8,0.8v1.6l2-2.1c0.1-0.1,0.3-0.2,0.5-0.2h9c0.3,0,0.5-0.2,0.5-0.5V2.8
			c0-0.3-0.2-0.5-0.5-0.5H15.5z"/>
	</g>
	<g>
		<path fill="#8F9BA8" d="M8.6,31.2c-2.7,0-5.3-0.9-7.5-2.5l-0.3-0.2l0-0.3c0-0.3-0.1-0.6-0.1-1c0-4.5,3.5-8.1,7.9-8.1
			c4.3,0,7.9,3.6,7.9,8.1c0,0.3,0,0.7-0.1,1l0,0.3l-0.3,0.2C13.9,30.4,11.3,31.2,8.6,31.2z M2.3,27.7c1.9,1.3,4.1,2,6.3,2
			c2.3,0,4.5-0.7,6.3-2c0-0.2,0-0.3,0-0.5c0-3.6-2.8-6.6-6.4-6.6c-3.5,0-6.4,3-6.4,6.6C2.3,27.4,2.3,27.6,2.3,27.7z"/>
	</g>
	<g>
		<path fill="#8F9BA8" d="M8.6,18c-2.1,0-3.8-1.7-3.8-3.9s1.7-3.9,3.8-3.9c2.1,0,3.8,1.7,3.8,3.9S10.7,18,8.6,18z M8.6,11.8
			c-1.3,0-2.3,1.1-2.3,2.4s1,2.4,2.3,2.4c1.3,0,2.3-1.1,2.3-2.4S9.9,11.8,8.6,11.8z"/>
	</g>
</g>
</svg>
