<?xml version="1.0" encoding="utf-8"?>
<!-- Generator: Adobe Illustrator 18.0.0, SVG Export Plug-In . SVG Version: 6.00 Build 0)  -->
<!DOCTYPE svg PUBLIC "-//W3C//DTD SVG 1.1//EN" "http://www.w3.org/Graphics/SVG/1.1/DTD/svg11.dtd">
<svg version="1.1" id="Layer_1" xmlns="http://www.w3.org/2000/svg" xmlns:xlink="http://www.w3.org/1999/xlink" x="0px" y="0px"
	 viewBox="0 0 32 32" enable-background="new 0 0 32 32" xml:space="preserve">
<g>
	<g>
		<path fill="#DA8C8C" d="M4.9,27.3H0.8v-1.5h4.2c5.4,0,9.8-4.4,9.8-9.8c0-5.4-4.4-9.8-9.8-9.8H0.8V4.7h4.2
			c6.2,0,11.3,5.1,11.3,11.3C16.2,22.2,11.1,27.3,4.9,27.3z"/>
	</g>
	<g>
		<path fill="#DA8C8C" d="M26,27.3c-3,0-5.9-1.2-8-3.3c-2.1-2.1-3.3-5-3.3-8c0-3,1.2-5.9,3.3-8c2.1-2.1,5-3.3,8-3.3h4.2v1.5H26
			c-2.6,0-5.1,1-6.9,2.9c-1.8,1.8-2.9,4.3-2.9,6.9c0,2.6,1,5.1,2.9,6.9c1.8,1.9,4.3,2.9,6.9,2.9h4.2v1.5H26L26,27.3z"/>
	</g>
	<g>
		<polygon fill="#DA8C8C" points="26.6,31.2 25.6,30.1 29.1,26.6 25.6,23 26.6,22 31.3,26.6 		"/>
	</g>
	<g>
		<polygon fill="#DA8C8C" points="26.6,10 25.6,9 29.1,5.4 25.6,1.9 26.6,0.8 31.2,5.4 		"/>
	</g>
</g>
</svg>
