<?xml version="1.0" encoding="utf-8"?>
<!-- Generator: Adobe Illustrator 18.0.0, SVG Export Plug-In . SVG Version: 6.00 Build 0)  -->
<!DOCTYPE svg PUBLIC "-//W3C//DTD SVG 1.1//EN" "http://www.w3.org/Graphics/SVG/1.1/DTD/svg11.dtd">
<svg version="1.1" id="Layer_1" xmlns="http://www.w3.org/2000/svg" xmlns:xlink="http://www.w3.org/1999/xlink" x="0px" y="0px"
	 viewBox="0 0 32 32" enable-background="new 0 0 32 32" xml:space="preserve">
<g>
	<g>
		<polygon fill="#74B1E0" points="20.2,8.2 16.5,4.5 20.2,0.7 21.3,1.8 18.6,4.5 21.3,7.1 		"/>
	</g>
	<g>
		<polygon fill="#74B1E0" points="11.6,31.2 10.6,30.2 13.2,27.5 10.6,24.9 11.6,23.8 15.4,27.5 		"/>
	</g>
	<g>
		<path fill="#74B1E0" d="M14.3,28.3H8.9c-2.9,0-5.2-2.3-5.2-5.2V8.9C3.7,6,6,3.7,8.9,3.7h5.4v1.5H8.9c-2,0-3.7,1.6-3.7,3.7v14.2
			c0,2,1.6,3.7,3.7,3.7h5.4V28.3z"/>
	</g>
	<g>
		<path fill="#74B1E0" d="M23.1,28.3h-5.5v-1.5h5.5c2,0,3.7-1.6,3.7-3.7l0-14.2c0-2-1.6-3.7-3.7-3.7l-5.5,0V3.7l5.5,0
			c2.9,0,5.2,2.3,5.2,5.2l0,14.2C28.3,26,26,28.3,23.1,28.3z"/>
	</g>
</g>
</svg>
