<?xml version="1.0" encoding="utf-8"?>
<!-- Generator: Adobe Illustrator 18.0.0, SVG Export Plug-In . SVG Version: 6.00 Build 0)  -->
<!DOCTYPE svg PUBLIC "-//W3C//DTD SVG 1.1//EN" "http://www.w3.org/Graphics/SVG/1.1/DTD/svg11.dtd">
<svg version="1.1" id="Layer_1" xmlns="http://www.w3.org/2000/svg" xmlns:xlink="http://www.w3.org/1999/xlink" x="0px" y="0px"
	 viewBox="0 0 32 32" enable-background="new 0 0 32 32" xml:space="preserve">
<g>
	<g>
		<polygon fill="#79C693" points="30.2,21.3 27.5,18.6 24.9,21.3 23.8,20.2 27.5,16.5 31.3,20.2 		"/>
	</g>
	<g>
		<polygon fill="#79C693" points="4.5,15.4 0.8,11.6 1.8,10.6 4.5,13.2 7.1,10.6 8.2,11.6 		"/>
	</g>
	<g>
		<path fill="#79C693" d="M28.3,14.3h-1.5V8.9c0-2-1.6-3.7-3.7-3.7H8.9c-2,0-3.7,1.6-3.7,3.7v5.4H3.7V8.9C3.7,6,6,3.7,8.9,3.7h14.2
			c2.9,0,5.2,2.3,5.2,5.2V14.3z"/>
	</g>
	<g>
		<path fill="#79C693" d="M23.1,28.3H8.9c-2.9,0-5.2-2.3-5.2-5.2v-5.5h1.5v5.5c0,2,1.6,3.7,3.7,3.7h14.2c2,0,3.7-1.6,3.7-3.7v-5.5
			h1.5v5.5C28.3,26,26,28.3,23.1,28.3z"/>
	</g>
</g>
</svg>
