<?xml version="1.0" encoding="utf-8"?>
<!-- Generator: Adobe Illustrator 18.0.0, SVG Export Plug-In . SVG Version: 6.00 Build 0)  -->
<!DOCTYPE svg PUBLIC "-//W3C//DTD SVG 1.1//EN" "http://www.w3.org/Graphics/SVG/1.1/DTD/svg11.dtd">
<svg version="1.1" id="Layer_1" xmlns="http://www.w3.org/2000/svg" xmlns:xlink="http://www.w3.org/1999/xlink" x="0px" y="0px"
	 viewBox="0 0 32 32" enable-background="new 0 0 32 32" xml:space="preserve">
<g>
	<g>
		<polygon fill="#74B1E0" points="4.2,18.1 0.8,14.6 1.8,13.5 4.2,15.9 6.6,13.5 7.7,14.6 		"/>
	</g>
	<g>
		<path fill="#74B1E0" d="M20.5,17H19v-5c0-1.8-1.5-3.3-3.3-3.3H8.3C6.5,8.8,5,10.2,5,12.1v5H3.5v-5c0-2.7,2.2-4.8,4.8-4.8h7.4
			c2.7,0,4.8,2.2,4.8,4.8V17z"/>
	</g>
	<g>
		<polygon fill="#74B1E0" points="30.2,18.5 27.8,16.1 25.4,18.5 24.3,17.4 27.8,13.9 31.2,17.4 		"/>
	</g>
	<g>
		<path fill="#74B1E0" d="M23.7,24.8h-7.4c-2.7,0-4.8-2.2-4.8-4.8v-5H13v5c0,1.8,1.5,3.3,3.3,3.3h7.4c1.8,0,3.3-1.5,3.3-3.3v-5h1.5
			v5C28.5,22.6,26.4,24.8,23.7,24.8z"/>
	</g>
</g>
</svg>
