<?xml version="1.0" encoding="utf-8"?>
<!-- Generator: Adobe Illustrator 18.0.0, SVG Export Plug-In . SVG Version: 6.00 Build 0)  -->
<!DOCTYPE svg PUBLIC "-//W3C//DTD SVG 1.1//EN" "http://www.w3.org/Graphics/SVG/1.1/DTD/svg11.dtd">
<svg version="1.1" id="Layer_1" xmlns="http://www.w3.org/2000/svg" xmlns:xlink="http://www.w3.org/1999/xlink" x="0px" y="0px"
	 viewBox="0 0 32 32" enable-background="new 0 0 32 32" xml:space="preserve">
<g>
	<g>
		<path fill="#8F9BA8" d="M24.7,31.2H7.6c-1.6,0-2.9-1.3-2.9-2.9V3.6C4.7,2,6,0.7,7.6,0.7h17.1c1.6,0,2.9,1.3,2.9,2.9v24.8
			C27.6,30,26.3,31.2,24.7,31.2z M7.6,2.2c-0.8,0-1.4,0.6-1.4,1.4v24.8c0,0.8,0.6,1.4,1.4,1.4h17.1c0.8,0,1.4-0.6,1.4-1.4V3.6
			c0-0.8-0.6-1.4-1.4-1.4H7.6z"/>
	</g>
	<g>
		<rect x="3.1" y="5.8" fill="#8F9BA8" width="4.9" height="1.5"/>
	</g>
	<g>
		<rect x="3.1" y="12.1" fill="#8F9BA8" width="4.9" height="1.5"/>
	</g>
	<g>
		<rect x="3.1" y="18.4" fill="#8F9BA8" width="4.9" height="1.5"/>
	</g>
	<g>
		<rect x="3.1" y="24.7" fill="#8F9BA8" width="4.9" height="1.5"/>
	</g>
	<g>
		<rect x="26.8" y="5.8" fill="#8F9BA8" width="2.1" height="1.5"/>
	</g>
	<g>
		<rect x="26.8" y="8.8" fill="#8F9BA8" width="2.1" height="1.5"/>
	</g>
	<g>
		<rect x="26.8" y="11.9" fill="#8F9BA8" width="2.1" height="1.5"/>
	</g>
	<g>
		<rect x="26.8" y="14.9" fill="#8F9BA8" width="2.1" height="1.5"/>
	</g>
	<g>
		<path fill="#CDE4F7" d="M16.9,15.9c-2.8,0-5.1,2.3-5.1,5.1c0,0.2,0,0.4,0,0.6c1.4,1,3.1,1.6,5,1.6c1.9,0,3.6-0.6,5-1.6
			c0-0.2,0-0.4,0-0.6C22,18.2,19.7,15.9,16.9,15.9z"/>
		<path fill="#74B1E0" d="M16.9,24c-2,0-3.9-0.6-5.5-1.8c-0.2-0.1-0.3-0.3-0.3-0.5c0-0.2,0-0.5,0-0.7c0-3.2,2.6-5.8,5.8-5.8
			s5.8,2.6,5.8,5.8c0,0.2,0,0.5,0,0.7c0,0.2-0.1,0.4-0.3,0.5C20.7,23.3,18.9,24,16.9,24z M12.6,21.2c2.6,1.7,6.1,1.7,8.6,0
			c0-0.1,0-0.1,0-0.2c0-2.4-1.9-4.3-4.3-4.3s-4.3,1.9-4.3,4.3C12.6,21,12.6,21.1,12.6,21.2z"/>
	</g>
	<g>
		<path fill="#74B1E0" d="M16.9,13.8c-1.6,0-2.9-1.3-2.9-2.9S15.3,8,16.9,8c1.6,0,2.9,1.3,2.9,2.9S18.5,13.8,16.9,13.8z M16.9,9.5
			c-0.8,0-1.4,0.6-1.4,1.4c0,0.8,0.6,1.4,1.4,1.4c0.8,0,1.4-0.6,1.4-1.4C18.3,10.1,17.7,9.5,16.9,9.5z"/>
	</g>
</g>
</svg>
