<?xml version="1.0" encoding="utf-8"?>
<!-- Generator: Adobe Illustrator 18.0.0, SVG Export Plug-In . SVG Version: 6.00 Build 0)  -->
<!DOCTYPE svg PUBLIC "-//W3C//DTD SVG 1.1//EN" "http://www.w3.org/Graphics/SVG/1.1/DTD/svg11.dtd">
<svg version="1.1" id="Layer_1" xmlns="http://www.w3.org/2000/svg" xmlns:xlink="http://www.w3.org/1999/xlink" x="0px" y="0px"
	 viewBox="0 0 32 32" enable-background="new 0 0 32 32" xml:space="preserve">
<g>
	<g>
		<polygon fill="#79C693" points="27.8,18.1 24.3,14.6 25.4,13.5 27.8,15.9 30.2,13.5 31.3,14.6 		"/>
	</g>
	<g>
		<path fill="#79C693" d="M28.5,17H27v-5c0-1.8-1.5-3.3-3.3-3.3h-7.4c-1.8,0-3.3,1.5-3.3,3.3v5h-1.5v-5c0-2.7,2.2-4.8,4.8-4.8h7.4
			c2.7,0,4.8,2.2,4.8,4.8V17z"/>
	</g>
	<g>
		<polygon fill="#79C693" points="1.8,18.5 0.8,17.4 4.2,13.9 7.7,17.4 6.6,18.5 4.2,16.1 		"/>
	</g>
	<g>
		<path fill="#79C693" d="M15.7,24.8H8.3c-2.7,0-4.8-2.2-4.8-4.8v-5H5v5c0,1.8,1.5,3.3,3.3,3.3h7.4c0.9,0,1.7-0.3,2.3-1
			c0.6-0.6,1-1.5,1-2.3v-5h1.5v5c0,1.3-0.5,2.5-1.4,3.4C18.2,24.3,16.9,24.8,15.7,24.8z"/>
	</g>
</g>
</svg>
