<?xml version="1.0" encoding="utf-8"?>
<!-- Generator: Adobe Illustrator 18.0.0, SVG Export Plug-In . SVG Version: 6.00 Build 0)  -->
<!DOCTYPE svg PUBLIC "-//W3C//DTD SVG 1.1//EN" "http://www.w3.org/Graphics/SVG/1.1/DTD/svg11.dtd">
<svg version="1.1" id="Layer_1" xmlns="http://www.w3.org/2000/svg" xmlns:xlink="http://www.w3.org/1999/xlink" x="0px" y="0px"
	 viewBox="0 0 32 32" enable-background="new 0 0 32 32" xml:space="preserve">
<g>
	<g>
		<path fill="#8F9BA8" d="M16,31.2C7.6,31.2,0.8,24.4,0.8,16C0.8,7.6,7.6,0.7,16,0.7c8.4,0,15.3,6.8,15.3,15.3
			C31.3,24.4,24.4,31.2,16,31.2z M16,2.2C8.4,2.2,2.3,8.4,2.3,16c0,7.6,6.2,13.8,13.8,13.8c7.6,0,13.8-6.2,13.8-13.8
			C29.8,8.4,23.6,2.2,16,2.2z"/>
	</g>
	<g>
		<path fill="#8F9BA8" d="M16,31.2C7.6,31.2,0.8,24.4,0.8,16C0.8,7.6,7.6,0.7,16,0.7c8.4,0,15.3,6.8,15.3,15.3
			C31.3,24.4,24.4,31.2,16,31.2z M16,2.2C8.4,2.2,2.3,8.4,2.3,16c0,7.6,6.2,13.8,13.8,13.8c7.6,0,13.8-6.2,13.8-13.8
			C29.8,8.4,23.6,2.2,16,2.2z"/>
	</g>
	<g>
		<path fill="#8F9BA8" d="M16,24.6c-4.7,0-8.6-3.9-8.6-8.6s3.9-8.6,8.6-8.6s8.6,3.9,8.6,8.6S20.7,24.6,16,24.6z M16,8.9
			c-3.9,0-7.1,3.2-7.1,7.1s3.2,7.1,7.1,7.1c3.9,0,7.1-3.2,7.1-7.1S19.9,8.9,16,8.9z"/>
	</g>
	<g>
		<circle fill="#FAC2C3" cx="16" cy="16" r="7.9"/>
		<path fill="#DA8C8C" d="M16,24.6c-4.7,0-8.6-3.9-8.6-8.6s3.9-8.6,8.6-8.6s8.6,3.9,8.6,8.6S20.7,24.6,16,24.6z M16,8.9
			c-3.9,0-7.1,3.2-7.1,7.1s3.2,7.1,7.1,7.1c3.9,0,7.1-3.2,7.1-7.1S19.9,8.9,16,8.9z"/>
	</g>
</g>
</svg>
