<?xml version="1.0" encoding="utf-8"?>
<!-- Generator: Adobe Illustrator 18.0.0, SVG Export Plug-In . SVG Version: 6.00 Build 0)  -->
<!DOCTYPE svg PUBLIC "-//W3C//DTD SVG 1.1//EN" "http://www.w3.org/Graphics/SVG/1.1/DTD/svg11.dtd">
<svg version="1.1" id="Layer_1" xmlns="http://www.w3.org/2000/svg" xmlns:xlink="http://www.w3.org/1999/xlink" x="0px" y="0px"
	 viewBox="0 0 32 32" enable-background="new 0 0 32 32" xml:space="preserve">
<g>
	<g>
		<circle fill="#F0F7F7" cx="7.8" cy="19.9" r="6.3"/>
		<path fill="#8F9BA8" d="M7.8,26.9c-3.9,0-7.1-3.2-7.1-7.1s3.2-7.1,7.1-7.1s7.1,3.2,7.1,7.1S11.7,26.9,7.8,26.9z M7.8,14.3
			c-3.1,0-5.6,2.5-5.6,5.6c0,3.1,2.5,5.6,5.6,5.6c3.1,0,5.6-2.5,5.6-5.6C13.4,16.8,10.9,14.3,7.8,14.3z"/>
	</g>
	<g>
		<circle fill="#8F9BA8" cx="7.8" cy="19.9" r="2"/>
	</g>
	<g>
		<circle fill="#F0F7F7" cx="24.2" cy="19.9" r="6.3"/>
		<path fill="#8F9BA8" d="M24.2,26.9c-3.9,0-7-3.2-7-7.1s3.2-7.1,7-7.1c3.9,0,7.1,3.2,7.1,7.1S28.1,26.9,24.2,26.9z M24.2,14.3
			c-3.1,0-5.5,2.5-5.5,5.6c0,3.1,2.5,5.6,5.5,5.6c3.1,0,5.6-2.5,5.6-5.6C29.8,16.8,27.3,14.3,24.2,14.3z"/>
	</g>
	<g>
		<circle fill="#8F9BA8" cx="24.2" cy="19.9" r="2"/>
	</g>
	<g>
		<polygon fill="#8F9BA8" points="23.2,9.7 13.1,9.7 10.4,6.8 11.6,5.8 13.7,8.2 22.6,8.2 25.7,5.1 26.8,6.2 		"/>
	</g>
	<g>
		<polygon fill="#8F9BA8" points="23.6,20.3 16,11.2 8.4,20.3 7.2,19.4 16,8.8 24.8,19.4 		"/>
	</g>
	<g>
		<rect x="12" y="6.5" fill="#8F9BA8" width="6.7" height="1.5"/>
	</g>
</g>
</svg>
