<?xml version="1.0" encoding="utf-8"?>
<!-- Generator: Adobe Illustrator 18.0.0, SVG Export Plug-In . SVG Version: 6.00 Build 0)  -->
<!DOCTYPE svg PUBLIC "-//W3C//DTD SVG 1.1//EN" "http://www.w3.org/Graphics/SVG/1.1/DTD/svg11.dtd">
<svg version="1.1" id="Layer_1" xmlns="http://www.w3.org/2000/svg" xmlns:xlink="http://www.w3.org/1999/xlink" x="0px" y="0px"
	 viewBox="0 0 32 32" enable-background="new 0 0 32 32" xml:space="preserve">
<g>
	<g>
		<circle fill="#F9F8F2" cx="16" cy="4.5" r="3"/>
		<path fill="#B4A79C" d="M16,8.2c-2.1,0-3.7-1.7-3.7-3.7s1.7-3.7,3.7-3.7s3.7,1.7,3.7,3.7S18.1,8.2,16,8.2z M16,2.2
			c-1.2,0-2.2,1-2.2,2.2c0,1.2,1,2.2,2.2,2.2c1.2,0,2.2-1,2.2-2.2C18.2,3.3,17.2,2.2,16,2.2z"/>
	</g>
	<g>
		<path fill="#B4A79C" d="M16,31.2c-3.1,0-3.7-12.2-3.7-14.6c0-5.1,1.1-7.2,3.7-7.2c2.7,0,3.7,2.1,3.7,7.2
			C19.7,19.1,19.1,31.2,16,31.2z M16,11c-0.8,0-2.2,0-2.2,5.7c0,5.7,1.3,12.1,2.2,13c1-0.9,2.2-7.3,2.2-13C18.2,11,16.8,11,16,11z"
			/>
	</g>
</g>
</svg>
