<?xml version="1.0" encoding="utf-8"?>
<!-- Generator: Adobe Illustrator 18.0.0, SVG Export Plug-In . SVG Version: 6.00 Build 0)  -->
<!DOCTYPE svg PUBLIC "-//W3C//DTD SVG 1.1//EN" "http://www.w3.org/Graphics/SVG/1.1/DTD/svg11.dtd">
<svg version="1.1" id="Layer_1" xmlns="http://www.w3.org/2000/svg" xmlns:xlink="http://www.w3.org/1999/xlink" x="0px" y="0px"
	 viewBox="0 0 32 32" enable-background="new 0 0 32 32" xml:space="preserve">
<g>
	<g>
		<polygon fill="#79C693" points="12.7,11.7 11.7,10.6 15.4,6.9 19.1,10.6 18,11.7 15.4,9 		"/>
	</g>
	<g>
		<path fill="#79C693" d="M19.8,24.8c-2.8,0-5.2-2.3-5.2-5.2V7.9h1.5v11.7c0,2,1.6,3.7,3.7,3.7V24.8z"/>
	</g>
	<g>
		<path fill="#79C693" d="M16,31.2C7.6,31.2,0.7,24.4,0.7,16S7.6,0.7,16,0.7S31.2,7.6,31.2,16S24.4,31.2,16,31.2z M16,2.2
			C8.4,2.2,2.2,8.4,2.2,16s6.2,13.7,13.7,13.7S29.7,23.6,29.7,16S23.6,2.2,16,2.2z"/>
	</g>
</g>
</svg>
