<?xml version="1.0" encoding="utf-8"?>
<!-- Generator: Adobe Illustrator 18.0.0, SVG Export Plug-In . SVG Version: 6.00 Build 0)  -->
<!DOCTYPE svg PUBLIC "-//W3C//DTD SVG 1.1//EN" "http://www.w3.org/Graphics/SVG/1.1/DTD/svg11.dtd">
<svg version="1.1" id="Layer_1" xmlns="http://www.w3.org/2000/svg" xmlns:xlink="http://www.w3.org/1999/xlink" x="0px" y="0px"
	 viewBox="0 0 32 32" enable-background="new 0 0 32 32" xml:space="preserve">
<g>
	<g>
		<path fill="#B4A79C" d="M16,31.2C7.6,31.2,0.7,24.4,0.7,16S7.6,0.7,16,0.7S31.2,7.6,31.2,16S24.4,31.2,16,31.2z M16,2.2
			C8.4,2.2,2.2,8.4,2.2,16c0,7.6,6.2,13.7,13.7,13.7c7.6,0,13.8-6.2,13.8-13.7C29.7,8.4,23.6,2.2,16,2.2z"/>
	</g>
	<g>
		<polygon fill="#B4A79C" points="22.8,13.4 19.4,10 16,13.4 15,12.3 19.4,7.9 23.9,12.3 		"/>
	</g>
	<g>
		<path fill="#B4A79C" d="M14,23.8c-3.4,0-6.1-2.8-6.1-6.1V14h1.5v3.7c0,2.6,2.1,4.6,4.6,4.6c2.6,0,4.6-2.1,4.6-4.6V8.9h1.5v8.7
			C20.2,21,17.4,23.8,14,23.8z"/>
	</g>
</g>
</svg>
