<?xml version="1.0" encoding="utf-8"?>
<!-- Generator: Adobe Illustrator 18.0.0, SVG Export Plug-In . SVG Version: 6.00 Build 0)  -->
<!DOCTYPE svg PUBLIC "-//W3C//DTD SVG 1.1//EN" "http://www.w3.org/Graphics/SVG/1.1/DTD/svg11.dtd">
<svg version="1.1" id="Layer_1" xmlns="http://www.w3.org/2000/svg" xmlns:xlink="http://www.w3.org/1999/xlink" x="0px" y="0px"
	 viewBox="0 0 32 32" enable-background="new 0 0 32 32" xml:space="preserve">
<g>
	<g>
		<path fill="#74B1E0" d="M16,31.2C7.6,31.2,0.7,24.4,0.7,16S7.6,0.7,16,0.7S31.2,7.6,31.2,16S24.4,31.2,16,31.2z M16,2.2
			C8.4,2.2,2.2,8.4,2.2,16c0,7.6,6.2,13.7,13.7,13.7S29.7,23.6,29.7,16C29.7,8.4,23.6,2.2,16,2.2z"/>
	</g>
	<g>
		<polygon fill="#74B1E0" points="19.4,24.1 15,19.7 16,18.6 19.4,22 22.8,18.6 23.9,19.7 		"/>
	</g>
	<g>
		<path fill="#74B1E0" d="M20.2,23.1h-1.5v-8.7c0-2.6-2.1-4.6-4.6-4.6s-4.6,2.1-4.6,4.6V18H7.9v-3.7c0-3.4,2.8-6.1,6.1-6.1
			c3.4,0,6.1,2.8,6.1,6.1V23.1z"/>
	</g>
</g>
</svg>
