<?xml version="1.0" encoding="utf-8"?>
<!-- Generator: Adobe Illustrator 18.0.0, SVG Export Plug-In . SVG Version: 6.00 Build 0)  -->
<!DOCTYPE svg PUBLIC "-//W3C//DTD SVG 1.1//EN" "http://www.w3.org/Graphics/SVG/1.1/DTD/svg11.dtd">
<svg version="1.1" id="Layer_1" xmlns="http://www.w3.org/2000/svg" xmlns:xlink="http://www.w3.org/1999/xlink" x="0px" y="0px"
	 viewBox="0 0 32 32" enable-background="new 0 0 32 32" xml:space="preserve">
<g>
	<g>
		<path fill="#79C693" d="M16,31.2C7.6,31.2,0.8,24.4,0.8,16S7.6,0.7,16,0.7S31.3,7.6,31.3,16S24.4,31.2,16,31.2z M16,2.2
			C8.4,2.2,2.3,8.4,2.3,16c0,7.6,6.2,13.7,13.8,13.7S29.8,23.6,29.8,16C29.8,8.4,23.6,2.2,16,2.2z"/>
	</g>
	<g>
		<polygon fill="#79C693" points="12.6,24.1 8.1,19.7 9.2,18.6 12.6,22 16,18.6 17,19.7 		"/>
	</g>
	<g>
		<path fill="#79C693" d="M13.3,23.1h-1.5v-8.7c0-3.4,2.8-6.1,6.1-6.1c3.4,0,6.1,2.8,6.1,6.1V18h-1.5v-3.7c0-2.6-2.1-4.6-4.6-4.6
			s-4.6,2.1-4.6,4.6V23.1z"/>
	</g>
</g>
</svg>
