<?xml version="1.0" encoding="utf-8"?>
<!-- Generator: Adobe Illustrator 18.0.0, SVG Export Plug-In . SVG Version: 6.00 Build 0)  -->
<!DOCTYPE svg PUBLIC "-//W3C//DTD SVG 1.1//EN" "http://www.w3.org/Graphics/SVG/1.1/DTD/svg11.dtd">
<svg version="1.1" id="Layer_1" xmlns="http://www.w3.org/2000/svg" xmlns:xlink="http://www.w3.org/1999/xlink" x="0px" y="0px"
	 viewBox="0 0 32 32" enable-background="new 0 0 32 32" xml:space="preserve">
<g>
	<g>
		<path fill="#8F9BA8" d="M19.9,30.8H4.1c-1.9,0-3.4-1.5-3.4-3.4V16.1c0-1.9,1.5-3.4,3.4-3.4h15.7c1.9,0,3.4,1.5,3.4,3.4v11.3
			C23.3,29.3,21.7,30.8,19.9,30.8z M4.1,14.2c-1,0-1.9,0.8-1.9,1.9v11.3c0,1,0.8,1.9,1.9,1.9h15.7c1,0,1.9-0.8,1.9-1.9V16.1
			c0-1-0.8-1.9-1.9-1.9H4.1z"/>
	</g>
	<g>
		<path fill="#8F9BA8" d="M31.3,31.1l-9.5-3.9v-11l9.5-3.9V31.1z M23.3,26.2l6.5,2.7V14.6l-6.5,2.7V26.2z"/>
	</g>
	<g>
		<path fill="#8F9BA8" d="M7.1,12.1c-3.1,0-5.6-2.5-5.6-5.6S4,0.9,7.1,0.9c3.1,0,5.6,2.5,5.6,5.6S10.2,12.1,7.1,12.1z M7.1,2.4
			C4.9,2.4,3,4.2,3,6.5s1.8,4.1,4.1,4.1c2.3,0,4.1-1.8,4.1-4.1S9.4,2.4,7.1,2.4z"/>
	</g>
	<g>
		<path fill="#8F9BA8" d="M16.9,12.1c-3.1,0-5.6-2.5-5.6-5.6s2.5-5.6,5.6-5.6s5.6,2.5,5.6,5.6S20,12.1,16.9,12.1z M16.9,2.4
			c-2.3,0-4.1,1.8-4.1,4.1s1.8,4.1,4.1,4.1c2.3,0,4.1-1.8,4.1-4.1S19.1,2.4,16.9,2.4z"/>
	</g>
</g>
</svg>
