<?xml version="1.0" encoding="utf-8"?>
<!-- Generator: Adobe Illustrator 18.0.0, SVG Export Plug-In . SVG Version: 6.00 Build 0)  -->
<!DOCTYPE svg PUBLIC "-//W3C//DTD SVG 1.1//EN" "http://www.w3.org/Graphics/SVG/1.1/DTD/svg11.dtd">
<svg version="1.1" id="Layer_1" xmlns="http://www.w3.org/2000/svg" xmlns:xlink="http://www.w3.org/1999/xlink" x="0px" y="0px"
	 viewBox="0 0 32 32" enable-background="new 0 0 32 32" xml:space="preserve">
<g>
	<g>
		<line fill="#CDE4F7" x1="10" y1="20.6" x2="10" y2="10.5"/>
		<rect x="9.2" y="10.5" fill="#74B1E0" width="1.5" height="10.1"/>
	</g>
	<g>
		<path fill="#8F9BA8" d="M13.2,10.5c-1.8-1.8-4.7-1.8-6.5,0L5.6,9.4C8,7,11.9,7,14.3,9.4L13.2,10.5z"/>
	</g>
	<g>
		<path fill="#8F9BA8" d="M15.7,8.1C12.5,5,7.4,5,4.3,8.1L3.2,7C6.9,3.3,13,3.3,16.7,7L15.7,8.1z"/>
	</g>
	<g>
		<path fill="#8F9BA8" d="M17.9,5.9C13.5,1.5,6.4,1.5,2,5.9L1,4.8c5-4.9,13-4.9,18,0L17.9,5.9z"/>
	</g>
	<g>
		<line fill="#CDE4F7" x1="26.5" y1="29.1" x2="26.5" y2="30.9"/>
		<rect x="25.8" y="29.1" fill="#74B1E0" width="1.5" height="1.8"/>
	</g>
	<g>
		<line fill="#CDE4F7" x1="5.5" y1="29.1" x2="5.5" y2="30.9"/>
		<rect x="4.7" y="29.1" fill="#74B1E0" width="1.5" height="1.8"/>
	</g>
	<g>
		<path fill="#CDE4F7" d="M28.6,29.1H3.4c-1,0-1.9-0.8-1.9-1.9v-4.7c0-1,0.8-1.9,1.9-1.9h25.2c1,0,1.9,0.8,1.9,1.9v4.7
			C30.5,28.2,29.7,29.1,28.6,29.1z"/>
		<path fill="#74B1E0" d="M28.6,29.8H3.4c-1.5,0-2.6-1.2-2.6-2.6v-4.7c0-1.5,1.2-2.6,2.6-2.6h25.2c1.5,0,2.6,1.2,2.6,2.6v4.7
			C31.3,28.7,30.1,29.8,28.6,29.8z M3.4,21.4c-0.6,0-1.1,0.5-1.1,1.1v4.7c0,0.6,0.5,1.1,1.1,1.1h25.2c0.6,0,1.1-0.5,1.1-1.1v-4.7
			c0-0.6-0.5-1.1-1.1-1.1H3.4z"/>
	</g>
	<g>
		<line fill="#CDE4F7" x1="18.1" y1="24" x2="18.1" y2="25.7"/>
		<rect x="17.3" y="24" fill="#74B1E0" width="1.5" height="1.7"/>
	</g>
	<g>
		<line fill="#CDE4F7" x1="22.5" y1="24" x2="22.5" y2="25.7"/>
		<rect x="21.8" y="24" fill="#74B1E0" width="1.5" height="1.7"/>
	</g>
	<g>
		<line fill="#CDE4F7" x1="27" y1="24" x2="27" y2="25.7"/>
		<rect x="26.3" y="24" fill="#74B1E0" width="1.5" height="1.7"/>
	</g>
</g>
</svg>
