<?xml version="1.0" encoding="utf-8"?>
<!-- Generator: Adobe Illustrator 18.0.0, SVG Export Plug-In . SVG Version: 6.00 Build 0)  -->
<!DOCTYPE svg PUBLIC "-//W3C//DTD SVG 1.1//EN" "http://www.w3.org/Graphics/SVG/1.1/DTD/svg11.dtd">
<svg version="1.1" id="Layer_1" xmlns="http://www.w3.org/2000/svg" xmlns:xlink="http://www.w3.org/1999/xlink" x="0px" y="0px"
	 viewBox="0 0 32 32" enable-background="new 0 0 32 32" xml:space="preserve">
<g>
	<g>
		<path fill="#8F9BA8" d="M16,31.3L16,31.3c-4.1,0-7.9-1.6-10.8-4.5C2.3,23.9,0.7,20.1,0.7,16C0.7,7.6,7.6,0.7,16,0.7
			S31.3,7.6,31.3,16C31.3,24.4,24.4,31.3,16,31.3L16,31.3z M16,2.2C8.4,2.2,2.2,8.4,2.2,16c0,3.7,1.4,7.1,4,9.7c2.6,2.6,6,4,9.7,4
			l0,0c7.6,0,13.8-6.2,13.8-13.8C29.8,8.4,23.6,2.2,16,2.2z"/>
	</g>
	<g>
		<path fill="#B4A79C" d="M27,16h-1.5c0-2.5-1-4.9-2.8-6.7c-1.8-1.8-4.2-2.8-6.7-2.8V5h0c2.9,0,5.7,1.1,7.8,3.2
			C25.9,10.3,27,13.1,27,16z"/>
	</g>
	<g>
		<path fill="#B4A79C" d="M16,27c-6.1,0-11-5-11-11h1.5c0,5.3,4.3,9.5,9.5,9.5V27z"/>
	</g>
	<g>
		<path fill="#B4A79C" d="M24.2,16h-1.5c0-3.7-3-6.7-6.7-6.7V7.8C20.5,7.8,24.2,11.5,24.2,16z"/>
	</g>
	<g>
		<path fill="#B4A79C" d="M16,24.2c-4.5,0-8.2-3.7-8.2-8.2h1.5c0,3.7,3,6.7,6.7,6.7V24.2z"/>
	</g>
	<g>
		<path fill="#8F9BA8" d="M16,19.9c-2.1,0-3.9-1.7-3.9-3.9c0-2.1,1.7-3.9,3.9-3.9c2.1,0,3.9,1.7,3.9,3.9
			C19.9,18.1,18.1,19.9,16,19.9z M16,13.6c-1.3,0-2.4,1.1-2.4,2.4c0,1.3,1.1,2.4,2.4,2.4c1.3,0,2.4-1.1,2.4-2.4
			C18.4,14.7,17.3,13.6,16,13.6z"/>
	</g>
</g>
</svg>
