<?xml version="1.0" encoding="utf-8"?>
<!-- Generator: Adobe Illustrator 18.0.0, SVG Export Plug-In . SVG Version: 6.00 Build 0)  -->
<!DOCTYPE svg PUBLIC "-//W3C//DTD SVG 1.1//EN" "http://www.w3.org/Graphics/SVG/1.1/DTD/svg11.dtd">
<svg version="1.1" id="Layer_1" xmlns="http://www.w3.org/2000/svg" xmlns:xlink="http://www.w3.org/1999/xlink" x="0px" y="0px"
	 viewBox="0 0 32 32" enable-background="new 0 0 32 32" xml:space="preserve">
<g>
	<g>
		<line fill="#FAC2C3" x1="6.7" y1="1.7" x2="27.1" y2="11.3"/>
		
			<rect x="5.6" y="5.7" transform="matrix(0.9047 0.4261 -0.4261 0.9047 4.3789 -6.5769)" fill="#DA8C8C" width="22.5" height="1.5"/>
	</g>
	<g>
		<path fill="#FAC2C3" d="M29.4,30.2H2.6c-0.6,0-1.1-0.5-1.1-1.1V12.4c0-0.6,0.5-1.1,1.1-1.1h12.1h14.7c0.6,0,1.1,0.5,1.1,1.1v16.8
			C30.5,29.7,30,30.2,29.4,30.2z"/>
		<path fill="#DA8C8C" d="M29.4,31H2.6c-1,0-1.8-0.8-1.8-1.8V12.4c0-1,0.8-1.8,1.8-1.8h26.8c1,0,1.8,0.8,1.8,1.8v16.8
			C31.3,30.2,30.4,31,29.4,31z M2.6,12c-0.2,0-0.3,0.1-0.3,0.3v16.8c0,0.2,0.1,0.3,0.3,0.3h26.8c0.2,0,0.3-0.1,0.3-0.3V12.4
			c0-0.2-0.1-0.3-0.3-0.3H2.6z"/>
	</g>
	<g>
		<line fill="#F9F8F2" x1="5.2" y1="15.1" x2="27" y2="15.1"/>
		<rect x="5.2" y="14.4" fill="#FFFFFF" width="21.8" height="1.5"/>
	</g>
	<g>
		<line fill="#F9F8F2" x1="5.2" y1="18.4" x2="27" y2="18.4"/>
		<rect x="5.2" y="17.7" fill="#FFFFFF" width="21.8" height="1.5"/>
	</g>
	<g>
		<circle fill="#F9F8F2" cx="9" cy="24.7" r="2.1"/>
		<path fill="#B4A79C" d="M9,27.5c-1.6,0-2.9-1.3-2.9-2.9c0-1.6,1.3-2.9,2.9-2.9s2.9,1.3,2.9,2.9C11.9,26.2,10.6,27.5,9,27.5z
			 M9,23.3c-0.8,0-1.4,0.6-1.4,1.4C7.6,25.4,8.2,26,9,26s1.4-0.6,1.4-1.4C10.4,23.9,9.8,23.3,9,23.3z"/>
	</g>
	<g>
		<circle fill="#F9F8F2" cx="16" cy="24.7" r="2.1"/>
		<path fill="#B4A79C" d="M16,27.5c-1.6,0-2.9-1.3-2.9-2.9c0-1.6,1.3-2.9,2.9-2.9s2.9,1.3,2.9,2.9C18.9,26.2,17.6,27.5,16,27.5z
			 M16,23.3c-0.8,0-1.4,0.6-1.4,1.4c0,0.8,0.6,1.4,1.4,1.4c0.8,0,1.4-0.6,1.4-1.4C17.4,23.9,16.8,23.3,16,23.3z"/>
	</g>
	<g>
		<circle fill="#F9F8F2" cx="23" cy="24.7" r="2.1"/>
		<path fill="#B4A79C" d="M23,27.5c-1.6,0-2.9-1.3-2.9-2.9c0-1.6,1.3-2.9,2.9-2.9s2.9,1.3,2.9,2.9C25.9,26.2,24.6,27.5,23,27.5z
			 M23,23.3c-0.8,0-1.4,0.6-1.4,1.4c0,0.8,0.6,1.4,1.4,1.4s1.4-0.6,1.4-1.4C24.4,23.9,23.8,23.3,23,23.3z"/>
	</g>
</g>
</svg>
