<?xml version="1.0" encoding="utf-8"?>
<!-- Generator: Adobe Illustrator 18.0.0, SVG Export Plug-In . SVG Version: 6.00 Build 0)  -->
<!DOCTYPE svg PUBLIC "-//W3C//DTD SVG 1.1//EN" "http://www.w3.org/Graphics/SVG/1.1/DTD/svg11.dtd">
<svg version="1.1" id="Layer_1" xmlns="http://www.w3.org/2000/svg" xmlns:xlink="http://www.w3.org/1999/xlink" x="0px" y="0px"
	 viewBox="0 0 32 32" enable-background="new 0 0 32 32" xml:space="preserve">
<g>
	<g>
		<path fill="#B4A042" d="M15.5,8C15.3,8,15.1,8,15,7.8l-3.4-3.4l1.1-1.1l2.8,2.8l3.9-3.9l1.1,1.1L16,7.8C15.9,8,15.7,8,15.5,8z"/>
	</g>
	<g>
		<path fill="#B4A79C" d="M31.3,29.6H0.8V6.5h30.5V29.6z M2.3,28.1h27.5V8H2.3V28.1z"/>
	</g>
	<g>
		<path fill="#B4A79C" d="M28.2,24.6H3.7v-15h24.5V24.6z M5.2,23.1h21.5V11H5.2V23.1z"/>
	</g>
	<g>
		<rect x="17.8" y="25.7" fill="#B4A042" width="1.5" height="1"/>
	</g>
	<g>
		<rect x="20.8" y="25.7" fill="#B4A042" width="1.5" height="1"/>
	</g>
	<g>
		<rect x="23.9" y="25.7" fill="#B4A042" width="1.5" height="1"/>
	</g>
</g>
<g>
	<g>
		<g>
			<defs>
				<ellipse id="SVGID_7_" cx="26.9" cy="47" rx="3.4" ry="3.3"/>
			</defs>
			<clipPath id="SVGID_2_">
				<use xlink:href="#SVGID_7_"  overflow="visible"/>
			</clipPath>
			<g clip-path="url(#SVGID_2_)">
				<rect x="13.9" y="20" fill="none" width="24.1" height="24.1"/>
				<rect x="13.9" y="20" fill="#FEE99B" width="24.1" height="24.1"/>
			</g>
		</g>
	</g>
</g>
</svg>
