<?xml version="1.0" encoding="utf-8"?>
<!-- Generator: Adobe Illustrator 18.0.0, SVG Export Plug-In . SVG Version: 6.00 Build 0)  -->
<!DOCTYPE svg PUBLIC "-//W3C//DTD SVG 1.1//EN" "http://www.w3.org/Graphics/SVG/1.1/DTD/svg11.dtd">
<svg version="1.1" id="Layer_1" xmlns="http://www.w3.org/2000/svg" xmlns:xlink="http://www.w3.org/1999/xlink" x="0px" y="0px"
	 viewBox="0 0 32 32" enable-background="new 0 0 32 32" xml:space="preserve">
<g>
	<g>
		<circle fill="#CDE4F7" cx="16.7" cy="15.6" r="13.7"/>
		<path fill="#74B1E0" d="M16.7,30.1L16.7,30.1c-3.9,0-7.5-1.5-10.2-4.2s-4.2-6.4-4.2-10.2c0-8,6.5-14.5,14.5-14.5
			c3.9,0,7.5,1.5,10.2,4.2s4.2,6.4,4.2,10.2C31.2,23.6,24.7,30.1,16.7,30.1L16.7,30.1z M16.7,2.6c-7.2,0-13,5.8-13,13
			c0,3.5,1.4,6.7,3.8,9.2c2.5,2.5,5.7,3.8,9.2,3.8l0,0c7.2,0,13-5.8,13-13c0-3.5-1.4-6.7-3.8-9.2C23.5,4,20.2,2.6,16.7,2.6z"/>
	</g>
	<g>
		<circle fill="#FFFFFF" cx="16.7" cy="15.6" r="3"/>
		<path fill="#74B1E0" d="M16.7,19.3c-2.1,0-3.7-1.7-3.7-3.7c0-2.1,1.7-3.7,3.7-3.7c2.1,0,3.7,1.7,3.7,3.7
			C20.5,17.7,18.8,19.3,16.7,19.3z M16.7,13.4c-1.2,0-2.2,1-2.2,2.2s1,2.2,2.2,2.2s2.2-1,2.2-2.2C19,14.4,18,13.4,16.7,13.4z"/>
	</g>
	<g>
		<circle fill="#F0F7F7" cx="8.7" cy="13.1" r="2.5"/>
		<path fill="#8F9BA8" d="M8.7,16.4c-1.8,0-3.3-1.5-3.3-3.3s1.5-3.3,3.3-3.3s3.3,1.5,3.3,3.3C11.9,14.9,10.4,16.4,8.7,16.4z
			 M8.7,11.4c-1,0-1.8,0.8-1.8,1.8S7.7,15,8.7,15s1.8-0.8,1.8-1.8S9.6,11.4,8.7,11.4z"/>
	</g>
	<g>
		<path fill="#8F9BA8" d="M2.3,30.9H0.8v-5.4c0-2.4,1.9-4.3,4.3-4.3c1.6,0,2.8-1.3,2.8-2.8v-2.7h1.5v2.7c0,2.4-1.9,4.3-4.3,4.3
			c-1.6,0-2.8,1.3-2.8,2.8C2.3,25.5,2.3,30.9,2.3,30.9z"/>
	</g>
</g>
</svg>
