<?xml version="1.0" encoding="utf-8"?>
<!-- Generator: Adobe Illustrator 18.0.0, SVG Export Plug-In . SVG Version: 6.00 Build 0)  -->
<!DOCTYPE svg PUBLIC "-//W3C//DTD SVG 1.1//EN" "http://www.w3.org/Graphics/SVG/1.1/DTD/svg11.dtd">
<svg version="1.1" id="Layer_1" xmlns="http://www.w3.org/2000/svg" xmlns:xlink="http://www.w3.org/1999/xlink" x="0px" y="0px"
	 viewBox="0 0 32 32" enable-background="new 0 0 32 32" xml:space="preserve">
<g>
	<g>
		<path fill="#8F9BA8" d="M16,31.2C7.6,31.2,0.7,24.4,0.7,16C0.8,7.6,7.6,0.8,16,0.7c8.4,0,15.2,6.8,15.2,15.2
			C31.2,24.4,24.4,31.2,16,31.2z M16,2.3C8.5,2.3,2.3,8.5,2.3,16c0,7.5,6.1,13.7,13.7,13.7c7.5,0,13.7-6.1,13.7-13.7
			C29.7,8.5,23.5,2.3,16,2.3z"/>
	</g>
	<g>
		<path fill="#8F9BA8" d="M16,19.9c-2.2,0-3.9-1.8-3.9-3.9c0-2.2,1.8-3.9,3.9-3.9c2.2,0,3.9,1.8,3.9,3.9
			C19.9,18.2,18.2,19.9,16,19.9z M16,13.7c-1.3,0-2.3,1-2.3,2.3c0,1.3,1,2.3,2.3,2.3s2.3-1,2.3-2.3C18.3,14.7,17.3,13.7,16,13.7z"/>
	</g>
	<g>
		<circle fill="#F0F7F7" cx="16" cy="6.8" r="2.5"/>
		<path fill="#8F9BA8" d="M16,10.1c-1.8,0-3.3-1.5-3.3-3.3c0-1.8,1.5-3.3,3.3-3.3c1.8,0,3.3,1.5,3.3,3.3C19.3,8.6,17.8,10.1,16,10.1
			z M16,5.1c-0.9,0-1.7,0.8-1.7,1.7c0,0.9,0.8,1.7,1.7,1.7c0.9,0,1.7-0.8,1.7-1.7C17.7,5.9,16.9,5.1,16,5.1z"/>
	</g>
	<g>
		<circle fill="#F0F7F7" cx="16" cy="25.2" r="2.5"/>
		<path fill="#8F9BA8" d="M16,28.5c-1.8,0-3.3-1.5-3.3-3.3s1.5-3.3,3.3-3.3c1.8,0,3.3,1.5,3.3,3.3S17.8,28.5,16,28.5z M16,23.5
			c-0.9,0-1.7,0.8-1.7,1.7c0,0.9,0.8,1.7,1.7,1.7c0.9,0,1.7-0.8,1.7-1.7C17.7,24.3,16.9,23.5,16,23.5z"/>
	</g>
	<g>
		<circle fill="#F0F7F7" cx="6.8" cy="16" r="2.5"/>
		<path fill="#8F9BA8" d="M6.8,19.3c-1.8,0-3.3-1.5-3.3-3.3c0-1.8,1.5-3.3,3.3-3.3s3.3,1.5,3.3,3.3C10.1,17.8,8.6,19.3,6.8,19.3z
			 M6.8,14.3c-0.9,0-1.7,0.8-1.7,1.7c0,0.9,0.8,1.7,1.7,1.7c0.9,0,1.7-0.8,1.7-1.7C8.5,15.1,7.7,14.3,6.8,14.3z"/>
	</g>
	<g>
		<circle fill="#F0F7F7" cx="25.2" cy="16" r="2.5"/>
		<path fill="#8F9BA8" d="M25.2,19.3c-1.8,0-3.3-1.5-3.3-3.3c0-1.8,1.5-3.3,3.3-3.3s3.3,1.5,3.3,3.3C28.5,17.8,27,19.3,25.2,19.3z
			 M25.2,14.3c-0.9,0-1.7,0.8-1.7,1.7c0,0.9,0.8,1.7,1.7,1.7c0.9,0,1.7-0.8,1.7-1.7C26.9,15.1,26.1,14.3,25.2,14.3z"/>
	</g>
</g>
</svg>
