<?xml version="1.0" encoding="utf-8"?>
<!-- Generator: Adobe Illustrator 18.0.0, SVG Export Plug-In . SVG Version: 6.00 Build 0)  -->
<!DOCTYPE svg PUBLIC "-//W3C//DTD SVG 1.1//EN" "http://www.w3.org/Graphics/SVG/1.1/DTD/svg11.dtd">
<svg version="1.1" id="Layer_1" xmlns="http://www.w3.org/2000/svg" xmlns:xlink="http://www.w3.org/1999/xlink" x="0px" y="0px"
	 viewBox="0 0 32 32" enable-background="new 0 0 32 32" xml:space="preserve">
<g>
	<g>
		<line fill="#FAC2C3" x1="16" y1="30.8" x2="16" y2="14.3"/>
		<rect x="15.2" y="14.3" fill="#DA8C8C" width="1.5" height="16.5"/>
	</g>
	<g>
		<circle fill="#FAC2C3" cx="16" cy="11.1" r="2.9"/>
		<path fill="#DA8C8C" d="M16,14.8c-2,0-3.7-1.7-3.7-3.7c0-2,1.7-3.7,3.7-3.7c2,0,3.7,1.7,3.7,3.7C19.7,13.2,18,14.8,16,14.8z M16,9
			c-1.2,0-2.2,1-2.2,2.2s1,2.2,2.2,2.2c1.2,0,2.2-1,2.2-2.2S17.2,9,16,9z"/>
	</g>
	<g>
		<path fill="#B4A79C" d="M21.2,16.4l-1.1-1.1c2.3-2.3,2.3-6,0-8.3l1.1-1.1C24.1,8.8,24.1,13.5,21.2,16.4z"/>
	</g>
	<g>
		<path fill="#B4A79C" d="M10.8,16.4c-2.9-2.9-2.9-7.6,0-10.5L11.8,7c-2.3,2.3-2.3,6,0,8.3L10.8,16.4z"/>
	</g>
	<g>
		<path fill="#B4A79C" d="M23.9,19L22.8,18c3.8-3.8,3.8-9.9,0-13.6l1.1-1.1C28.3,7.6,28.3,14.7,23.9,19z"/>
	</g>
	<g>
		<path fill="#B4A79C" d="M8.1,19c-4.4-4.4-4.4-11.5,0-15.8l1.1,1.1c-3.8,3.8-3.8,9.9,0,13.6L8.1,19z"/>
	</g>
	<g>
		<path fill="#B4A79C" d="M26.4,21.5l-1.1-1.1c2.5-2.5,3.9-5.8,3.9-9.3c0-3.5-1.4-6.8-3.9-9.3l1.1-1.1c2.8,2.8,4.3,6.5,4.3,10.4
			C30.7,15.1,29.2,18.8,26.4,21.5z"/>
	</g>
	<g>
		<path fill="#B4A79C" d="M5.6,21.5c-2.8-2.8-4.3-6.5-4.3-10.4c0-3.9,1.5-7.6,4.3-10.4l1.1,1.1c-2.5,2.5-3.9,5.8-3.9,9.3
			c0,3.5,1.4,6.8,3.9,9.3L5.6,21.5z"/>
	</g>
	<g>
		<line fill="#FAC2C3" x1="12.7" y1="30.5" x2="19.3" y2="30.5"/>
		<rect x="12.7" y="29.7" fill="#DA8C8C" width="6.5" height="1.5"/>
	</g>
</g>
</svg>
