<?xml version="1.0" encoding="utf-8"?>
<!-- Generator: Adobe Illustrator 18.0.0, SVG Export Plug-In . SVG Version: 6.00 Build 0)  -->
<!DOCTYPE svg PUBLIC "-//W3C//DTD SVG 1.1//EN" "http://www.w3.org/Graphics/SVG/1.1/DTD/svg11.dtd">
<svg version="1.1" id="Layer_1" xmlns="http://www.w3.org/2000/svg" xmlns:xlink="http://www.w3.org/1999/xlink" x="0px" y="0px"
	 viewBox="0 0 32 32" enable-background="new 0 0 32 32" xml:space="preserve">
<g>
	<g>
		<path fill="#8F9BA8" d="M16,14.7c-2,0-3.6-1.6-3.6-3.6c0-2,1.6-3.6,3.6-3.6c2,0,3.6,1.6,3.6,3.6C19.6,13,18,14.7,16,14.7z M16,8.9
			c-1.2,0-2.1,0.9-2.1,2.1s0.9,2.1,2.1,2.1s2.1-0.9,2.1-2.1S17.2,8.9,16,8.9z"/>
	</g>
	<g>
		<path fill="#B4A79C" d="M21.1,16.2l-1.1-1.1c2.2-2.3,2.2-5.9,0-8.2l1.1-1.1C24,8.7,24,13.4,21.1,16.2z"/>
	</g>
	<g>
		<path fill="#B4A79C" d="M10.9,16.2C8,13.4,8,8.7,10.9,5.9L11.9,7c-1.1,1.1-1.7,2.5-1.7,4.1c0,1.5,0.6,3,1.7,4.1L10.9,16.2z"/>
	</g>
	<g>
		<path fill="#B4A79C" d="M23.8,18.8l-1.1-1.1c1.8-1.8,2.8-4.2,2.8-6.7c0-2.5-1-4.9-2.8-6.7l1.1-1.1c2.1,2.1,3.2,4.8,3.2,7.8
			C27,14,25.8,16.7,23.8,18.8z"/>
	</g>
	<g>
		<path fill="#B4A79C" d="M8.2,18.8C4,14.5,4,7.6,8.2,3.3l1.1,1.1c-3.7,3.7-3.7,9.7,0,13.4L8.2,18.8z"/>
	</g>
	<g>
		<path fill="#B4A79C" d="M26.2,21.2l-1.1-1.1c5-5,5-13.2,0-18.3l1.1-1.1C31.8,6.5,31.8,15.6,26.2,21.2z"/>
	</g>
	<g>
		<path fill="#B4A79C" d="M5.8,21.2c-2.7-2.7-4.2-6.3-4.2-10.2c0-3.9,1.5-7.5,4.2-10.2l1.1,1.1c-2.4,2.4-3.8,5.7-3.8,9.1
			c0,3.4,1.3,6.7,3.8,9.1L5.8,21.2z"/>
	</g>
	<g>
		<path fill="#8F9BA8" d="M21.4,31.1H10.6c-0.2,0-0.5-0.1-0.6-0.3c-0.1-0.2-0.2-0.4-0.1-0.7l5.4-16.5c0.1-0.3,0.4-0.5,0.7-0.5l0,0
			c0.3,0,0.6,0.2,0.7,0.5l5.4,16.5c0.1,0.2,0,0.5-0.1,0.7C21.9,31,21.7,31.1,21.4,31.1z M11.6,29.6h8.8L16,16.3L11.6,29.6z"/>
	</g>
</g>
</svg>
