<?xml version="1.0" encoding="utf-8"?>
<!-- Generator: Adobe Illustrator 18.0.0, SVG Export Plug-In . SVG Version: 6.00 Build 0)  -->
<!DOCTYPE svg PUBLIC "-//W3C//DTD SVG 1.1//EN" "http://www.w3.org/Graphics/SVG/1.1/DTD/svg11.dtd">
<svg version="1.1" id="Layer_1" xmlns="http://www.w3.org/2000/svg" xmlns:xlink="http://www.w3.org/1999/xlink" x="0px" y="0px"
	 viewBox="0 0 32 32" enable-background="new 0 0 32 32" xml:space="preserve">
<g>
	<g>
		<rect x="8.2" y="8.2" fill="#CDE4F7" width="15.7" height="15.7"/>
		<path fill="#74B1E0" d="M24.6,24.6H7.4V7.4h17.2V24.6z M8.9,23.1h14.2V8.9H8.9V23.1z"/>
	</g>
	<g>
		<polygon fill="#74B1E0" points="31.3,31.2 18.5,31.2 18.5,29.7 29.8,29.7 29.8,18.5 31.3,18.5 		"/>
	</g>
	<g>
		<polygon fill="#74B1E0" points="13.5,31.2 0.8,31.2 0.8,18.5 2.3,18.5 2.3,29.7 13.5,29.7 		"/>
	</g>
	<g>
		<polygon fill="#74B1E0" points="2.3,13.5 0.8,13.5 0.8,0.7 13.5,0.7 13.5,2.2 2.3,2.2 		"/>
	</g>
	<g>
		<polygon fill="#74B1E0" points="31.3,13.5 29.8,13.5 29.8,2.2 18.5,2.2 18.5,0.7 31.3,0.7 		"/>
	</g>
</g>
</svg>
