<?xml version="1.0" encoding="utf-8"?>
<!-- Generator: Adobe Illustrator 18.0.0, SVG Export Plug-In . SVG Version: 6.00 Build 0)  -->
<!DOCTYPE svg PUBLIC "-//W3C//DTD SVG 1.1//EN" "http://www.w3.org/Graphics/SVG/1.1/DTD/svg11.dtd">
<svg version="1.1" id="Layer_1" xmlns="http://www.w3.org/2000/svg" xmlns:xlink="http://www.w3.org/1999/xlink" x="0px" y="0px"
	 viewBox="0 0 32 32" enable-background="new 0 0 32 32" xml:space="preserve">
<g>
	<g>
		<path fill="#8F9BA8" d="M23.9,31.2H20l-0.3-2.1c-0.4-0.1-0.8-0.3-1.1-0.5l-1.8,1.3L14,27.1l1.3-1.8c-0.2-0.4-0.3-0.7-0.5-1.1
			l-2.1-0.3l0-3.9l2.1-0.3c0.1-0.4,0.3-0.8,0.5-1.1L14,16.8l2.8-2.8l1.8,1.3c0.4-0.2,0.7-0.3,1.1-0.5l0.3-2.1l3.9,0l0.3,2.1
			c0.4,0.1,0.8,0.3,1.1,0.5l1.8-1.3l2.8,2.8l-1.3,1.8c0.2,0.4,0.3,0.7,0.5,1.1l2.1,0.3v3.9l-2.1,0.3c-0.1,0.4-0.3,0.8-0.5,1.1
			l1.3,1.8l-2.8,2.8l-1.8-1.3c-0.4,0.2-0.7,0.3-1.1,0.5L23.9,31.2z M21.3,29.7h1.4l0.3-1.8l0.5-0.1c0.6-0.1,1.1-0.4,1.6-0.7l0.4-0.3
			L27,28l1-1l-1.1-1.5l0.3-0.4c0.3-0.5,0.5-1.1,0.7-1.6l0.1-0.5l1.8-0.3v-1.4L27.9,21l-0.1-0.5c-0.1-0.6-0.4-1.1-0.7-1.6l-0.3-0.4
			l1.1-1.5l-1-1L25.5,17l-0.4-0.3c-0.5-0.3-1.1-0.5-1.6-0.7L22.9,16l-0.3-1.8l-1.4,0L21,16l-0.5,0.1c-0.6,0.1-1.1,0.4-1.6,0.7
			L18.4,17L16.9,16l-1,1l1.1,1.5l-0.3,0.4c-0.3,0.5-0.5,1.1-0.7,1.6L16,21l-1.8,0.3l0,1.4l1.8,0.3l0.1,0.5c0.1,0.6,0.4,1.1,0.7,1.6
			l0.3,0.4L16,27l1,1l1.5-1.1l0.4,0.3c0.5,0.3,1.1,0.5,1.6,0.7l0.5,0.1L21.3,29.7z"/>
	</g>
	<g>
		<path fill="#8F9BA8" d="M22,25.5c-2,0-3.6-1.6-3.6-3.6s1.6-3.6,3.6-3.6s3.6,1.6,3.6,3.6S23.9,25.5,22,25.5z M22,19.9
			c-1.2,0-2.1,0.9-2.1,2.1c0,1.2,0.9,2.1,2.1,2.1S24,23.1,24,22C24,20.8,23.1,19.9,22,19.9z"/>
	</g>
	<g>
		<path fill="#FAC2C3" d="M16,9.9V7.6l-1.7-0.3c-0.1-0.6-0.4-1.1-0.6-1.5l1-1.4L13,2.8l-1.4,1c-0.5-0.3-1-0.5-1.5-0.6L9.9,1.5H7.6
			L7.3,3.2C6.8,3.3,6.3,3.5,5.8,3.8l-1.4-1L2.8,4.4l1,1.4c-0.3,0.5-0.5,1-0.6,1.5L1.5,7.6l0,2.3l1.7,0.3c0.1,0.6,0.4,1.1,0.6,1.5
			l-1,1.4l1.6,1.6l1.4-1c0.5,0.3,1,0.5,1.5,0.6L7.6,16h2.3l0.3-1.7c0.6-0.1,1.1-0.4,1.5-0.6l1.4,1l1.6-1.6l-1-1.4
			c0.3-0.5,0.5-1,0.6-1.5L16,9.9z M8.7,11.1c-1.3,0-2.4-1.1-2.4-2.4c0-1.3,1.1-2.4,2.4-2.4c1.3,0,2.4,1.1,2.4,2.4
			C11.1,10.1,10.1,11.1,8.7,11.1z"/>
		<path fill="#DA8C8C" d="M10.5,16.7H7l-0.3-1.8c-0.3-0.1-0.6-0.2-0.8-0.3l-1.5,1.1l-2.5-2.5l1.1-1.5c-0.1-0.3-0.2-0.5-0.3-0.8
			l-1.8-0.3V7l1.8-0.3c0.1-0.3,0.2-0.6,0.3-0.8L1.8,4.3l2.5-2.5l1.5,1.1c0.3-0.1,0.5-0.2,0.8-0.3L7,0.8h3.5l0.3,1.8
			c0.3,0.1,0.6,0.2,0.8,0.3l1.5-1.1l2.5,2.5l-1.1,1.5c0.1,0.3,0.2,0.5,0.3,0.8L16.7,7v3.5l-1.8,0.3c-0.1,0.3-0.2,0.6-0.3,0.8
			l1.1,1.5l-2.5,2.5l-1.5-1.1c-0.3,0.1-0.5,0.2-0.8,0.3L10.5,16.7z M8.2,15.2h1l0.2-1.5l0.5-0.1c0.5-0.1,0.9-0.3,1.3-0.6l0.4-0.3
			l1.3,0.9l0.7-0.7l-0.9-1.3l0.3-0.4c0.3-0.4,0.4-0.9,0.6-1.3l0.1-0.5l1.5-0.2v-1L13.7,8l-0.1-0.5C13.4,7,13.3,6.6,13,6.2l-0.3-0.4
			l0.9-1.3L13,3.8l-1.3,0.9l-0.4-0.3C10.9,4.2,10.4,4,9.9,3.9L9.5,3.8L9.2,2.3h-1L8,3.8L7.5,3.9C7,4,6.6,4.2,6.2,4.5L5.7,4.7
			L4.5,3.8L3.8,4.5l0.9,1.3L4.5,6.2C4.2,6.6,4,7,3.9,7.5L3.8,8L2.3,8.2v1l1.5,0.2l0.1,0.5c0.1,0.5,0.3,0.9,0.6,1.3l0.3,0.4L3.8,13
			l0.7,0.7l1.3-0.9L6.2,13c0.4,0.3,0.9,0.4,1.3,0.6L8,13.7L8.2,15.2z M8.7,11.9c-1.7,0-3.2-1.4-3.2-3.2C5.6,7,7,5.6,8.7,5.6
			s3.2,1.4,3.2,3.2C11.9,10.5,10.5,11.9,8.7,11.9z M8.7,7.1c-0.9,0-1.7,0.7-1.7,1.7c0,0.9,0.7,1.7,1.7,1.7c0.9,0,1.7-0.7,1.7-1.7
			C10.4,7.8,9.6,7.1,8.7,7.1z"/>
	</g>
</g>
</svg>
