<?xml version="1.0" encoding="utf-8"?>
<!-- Generator: Adobe Illustrator 18.0.0, SVG Export Plug-In . SVG Version: 6.00 Build 0)  -->
<!DOCTYPE svg PUBLIC "-//W3C//DTD SVG 1.1//EN" "http://www.w3.org/Graphics/SVG/1.1/DTD/svg11.dtd">
<svg version="1.1" id="Layer_1" xmlns="http://www.w3.org/2000/svg" xmlns:xlink="http://www.w3.org/1999/xlink" x="0px" y="0px"
	 viewBox="0 0 32 32" enable-background="new 0 0 32 32" xml:space="preserve">
<g>
	<g>
		<path fill="#79C693" d="M26.3,15.3c-2.7,0-5-2.2-5-5c0-0.1-0.1-0.2-0.2-0.2H10.9c-0.1,0-0.2,0.1-0.2,0.2c0,2.7-2.2,5-5,5
			c-2,0-3.7-1.1-4.5-2.9S0.7,8.5,2,7.1c3-3.4,7.2-5.3,11.7-5.3h4.6c4.5,0,8.7,1.9,11.7,5.3c1.3,1.5,1.6,3.6,0.8,5.4
			C30,14.2,28.2,15.3,26.3,15.3z M10.9,8.7h10.2c0.9,0,1.7,0.8,1.7,1.7c0,1.9,1.6,3.5,3.5,3.5c1.4,0,2.6-0.8,3.2-2
			c0.6-1.3,0.4-2.7-0.6-3.8c-2.7-3-6.5-4.8-10.6-4.8h-4.6C9.6,3.3,5.8,5,3.1,8C2.2,9,2,10.5,2.5,11.8c0.6,1.3,1.8,2,3.2,2
			c1.9,0,3.5-1.6,3.5-3.5C9.2,9.4,10,8.7,10.9,8.7z"/>
	</g>
	<g>
		<rect x="8.6" y="17" fill="#8F9BA8" width="2.6" height="1.5"/>
	</g>
	<g>
		<rect x="14.7" y="17" fill="#8F9BA8" width="2.6" height="1.5"/>
	</g>
	<g>
		<rect x="20.8" y="17" fill="#8F9BA8" width="2.6" height="1.5"/>
	</g>
	<g>
		<rect x="8.6" y="22.9" fill="#8F9BA8" width="2.6" height="1.5"/>
	</g>
	<g>
		<rect x="14.7" y="22.9" fill="#8F9BA8" width="2.6" height="1.5"/>
	</g>
	<g>
		<rect x="20.8" y="22.9" fill="#8F9BA8" width="2.6" height="1.5"/>
	</g>
	<g>
		<rect x="8.6" y="28.7" fill="#8F9BA8" width="2.6" height="1.5"/>
	</g>
	<g>
		<rect x="14.7" y="28.7" fill="#8F9BA8" width="2.6" height="1.5"/>
	</g>
	<g>
		<rect x="20.8" y="28.7" fill="#8F9BA8" width="2.6" height="1.5"/>
	</g>
</g>
</svg>
