<?xml version="1.0" encoding="utf-8"?>
<!-- Generator: Adobe Illustrator 18.0.0, SVG Export Plug-In . SVG Version: 6.00 Build 0)  -->
<!DOCTYPE svg PUBLIC "-//W3C//DTD SVG 1.1//EN" "http://www.w3.org/Graphics/SVG/1.1/DTD/svg11.dtd">
<svg version="1.1" id="Layer_1" xmlns="http://www.w3.org/2000/svg" xmlns:xlink="http://www.w3.org/1999/xlink" x="0px" y="0px"
	 viewBox="0 0 32 32" enable-background="new 0 0 32 32" xml:space="preserve">
<g>
	<g>
		<path fill="#79C693" d="M2.3,31L2.3,31c-0.4,0-0.8-0.2-1.1-0.6C1,29.9,1,29.3,1.4,28.9l7.5-8.1c0.4-0.4,1-0.7,1.6-0.7l8.8-0.1
			l2.4-7.4c0.5-1.6,2-2.6,3.7-2.6c0.4,0,0.8,0.1,1.1,0.2c1,0.3,1.8,1,2.3,1.9c0.5,0.9,0.6,1.9,0.2,2.8c-0.1,0.3-0.2,0.5-0.3,0.8
			l-5,8.4c-0.5,0.8-1.3,1.3-2.3,1.3l-9.8,0.3L3,30.8C2.8,31,2.6,31,2.3,31z M25.4,11.5c-1,0-1.9,0.6-2.2,1.6l-2.7,8.4l-9.9,0.1
			c-0.2,0-0.4,0.1-0.5,0.2l-6.4,6.9l7.6-4.5l10.2-0.3c0.4,0,0.8-0.2,1-0.6l5-8.4c0.1-0.1,0.2-0.3,0.2-0.5c0.2-0.6,0.1-1.2-0.1-1.7
			c-0.3-0.5-0.8-1-1.4-1.1C25.9,11.6,25.7,11.5,25.4,11.5z"/>
	</g>
	<g>
		<path fill="#79C693" d="M27.1,9.1C24.8,9.1,23,7.3,23,5C23,2.8,24.8,1,27.1,1c2.3,0,4.1,1.8,4.1,4.1C31.2,7.3,29.4,9.1,27.1,9.1z
			 M27.1,2.5c-1.5,0-2.6,1.1-2.6,2.6c0,1.4,1.2,2.6,2.6,2.6c1.5,0,2.6-1.1,2.6-2.6C29.7,3.6,28.5,2.5,27.1,2.5z"/>
	</g>
	<g>
		<polygon fill="#F0F7F7" points="18.2,6.3 13.3,2.6 13.3,4.6 8.2,4.6 8.2,8.1 13.3,8.1 13.3,10 		"/>
		<path fill="#8F9BA8" d="M12.6,11.5V8.8H7.5v-5h5.1V1.1l6.9,5.2L12.6,11.5z M9,7.3h5.1v1.2L17,6.3l-2.9-2.2v1.2H9V7.3z"/>
	</g>
	<g>
		<polygon fill="#F0F7F7" points="8.7,17.2 9.1,11.1 7.5,12.1 4.7,7.9 1.8,9.8 4.6,14 2.9,15.1 		"/>
		<path fill="#8F9BA8" d="M9.4,18.2l-8.1-2.9l2.3-1.5L0.8,9.6L5,6.8l2.8,4.2L10,9.6L9.4,18.2z M4.6,14.9L8,16.1l0.2-3.6l-1,0.7
			L4.5,8.9L2.8,10l2.8,4.2L4.6,14.9z"/>
	</g>
</g>
</svg>
