<?xml version="1.0" encoding="utf-8"?>
<!-- Generator: Adobe Illustrator 18.0.0, SVG Export Plug-In . SVG Version: 6.00 Build 0)  -->
<!DOCTYPE svg PUBLIC "-//W3C//DTD SVG 1.1//EN" "http://www.w3.org/Graphics/SVG/1.1/DTD/svg11.dtd">
<svg version="1.1" id="Layer_1" xmlns="http://www.w3.org/2000/svg" xmlns:xlink="http://www.w3.org/1999/xlink" x="0px" y="0px"
	 viewBox="0 0 32 32" enable-background="new 0 0 32 32" xml:space="preserve">
<g>
	<g>
		<path fill="#DA8C8C" d="M2.2,31L2.2,31c-0.4,0-0.9-0.2-1.1-0.6c-0.3-0.5-0.2-1.1,0.1-1.5l7.5-8.1c0.4-0.4,1-0.7,1.6-0.7l8.8-0.1
			l2.4-7.4c0.5-1.6,2-2.6,3.7-2.6c0.4,0,0.8,0.1,1.1,0.2c1,0.3,1.8,1,2.3,1.9c0.5,0.9,0.6,1.9,0.2,2.8c-0.1,0.3-0.2,0.5-0.3,0.8
			l-5,8.4c-0.5,0.8-1.3,1.3-2.3,1.3l-9.8,0.3l-8.6,5.1C2.6,31,2.4,31,2.2,31z M25.3,11.5c-1,0-1.9,0.6-2.2,1.6l-2.7,8.4l-9.9,0.1
			c-0.2,0-0.4,0.1-0.5,0.2l-6.4,6.9l7.6-4.5l10.2-0.3c0.4,0,0.8-0.2,1-0.6l5-8.4c0.1-0.1,0.2-0.3,0.2-0.5c0.2-0.6,0.1-1.2-0.1-1.7
			c-0.3-0.5-0.8-1-1.4-1.1C25.7,11.6,25.5,11.5,25.3,11.5z"/>
	</g>
	<g>
		<ellipse fill="#FAC2C3" cx="26.9" cy="5" rx="3.4" ry="3.3"/>
		<path fill="#DA8C8C" d="M26.9,9.1c-2.3,0-4.1-1.8-4.1-4.1c0-2.2,1.9-4.1,4.1-4.1c2.3,0,4.1,1.8,4.1,4.1
			C31.1,7.3,29.2,9.1,26.9,9.1z M26.9,2.5c-1.5,0-2.6,1.1-2.6,2.6c0,1.4,1.2,2.6,2.6,2.6c1.5,0,2.6-1.1,2.6-2.6
			C29.6,3.6,28.4,2.5,26.9,2.5z"/>
	</g>
	<g>
		<polygon fill="#F0F7F7" points="16,8.8 9.5,3.8 9.5,6.4 2.7,6.4 2.7,11.1 9.5,11.1 9.5,13.7 		"/>
		<path fill="#8F9BA8" d="M8.7,15.2l0-3.4H2l0-6.2h6.8l0-3.4l8.5,6.5L8.7,15.2z M3.5,10.4h6.8v1.9l4.5-3.4l-4.5-3.4v1.9H3.5
			L3.5,10.4z"/>
	</g>
</g>
</svg>
