<?xml version="1.0" encoding="utf-8"?>
<!-- Generator: Adobe Illustrator 18.0.0, SVG Export Plug-In . SVG Version: 6.00 Build 0)  -->
<!DOCTYPE svg PUBLIC "-//W3C//DTD SVG 1.1//EN" "http://www.w3.org/Graphics/SVG/1.1/DTD/svg11.dtd">
<svg version="1.1" id="Layer_1" xmlns="http://www.w3.org/2000/svg" xmlns:xlink="http://www.w3.org/1999/xlink" x="0px" y="0px"
	 viewBox="0 0 32 32" enable-background="new 0 0 32 32" xml:space="preserve">
<g>
	<g>
		<path fill="#8F9BA8" d="M25.7,4.8H6.3l2.9-4.1H23L25.7,4.8z M9.1,3.3h13.7L22,2.2H9.9L9.1,3.3z"/>
	</g>
	<g>
		<path fill="#8F9BA8" d="M23.2,31.2H8.8L6.9,7.7h18.2L23.2,31.2z M10.2,29.7h11.6l1.7-20.6h-15L10.2,29.7z"/>
	</g>
	<g>
		<rect x="6.3" y="4.1" fill="#F9F8F2" width="19.4" height="4.3"/>
		<path fill="#B4A79C" d="M26.5,9.2h-21V3.3h20.9v5.9H26.5z M7,7.7h18V4.8H7V7.7z"/>
	</g>
	<g>
		<line fill="none" x1="18.9" y1="13.4" x2="18.9" y2="23.2"/>
		<rect x="18.1" y="13.4" fill="#8F9BA8" width="1.5" height="9.7"/>
	</g>
	<g>
		<line fill="none" x1="13.1" y1="13.4" x2="13.1" y2="23.2"/>
		<rect x="12.4" y="13.4" fill="#8F9BA8" width="1.5" height="9.7"/>
	</g>
</g>
</svg>
