<?xml version="1.0" encoding="utf-8"?>
<!-- Generator: Adobe Illustrator 18.0.0, SVG Export Plug-In . SVG Version: 6.00 Build 0)  -->
<!DOCTYPE svg PUBLIC "-//W3C//DTD SVG 1.1//EN" "http://www.w3.org/Graphics/SVG/1.1/DTD/svg11.dtd">
<svg version="1.1" id="Layer_1" xmlns="http://www.w3.org/2000/svg" xmlns:xlink="http://www.w3.org/1999/xlink" x="0px" y="0px"
	 viewBox="0 0 32 32" enable-background="new 0 0 32 32" xml:space="preserve">
<g>
	<g>
		<polygon fill="#8F9BA8" points="23.8,30.9 0.8,30.9 0.8,1.1 23.8,1.1 23.8,6.9 22.3,6.9 22.3,2.6 2.3,2.6 2.3,29.4 22.3,29.4 
			22.3,16.3 23.8,16.3 		"/>
	</g>
	<g>
		<path fill="#74B1E0" d="M6.6,28.7c-0.2,0-0.4-0.1-0.5-0.2c-0.2-0.2-0.3-0.5-0.2-0.8l2.3-6.9c0.1-0.2,0.3-0.4,0.5-0.5
			c0.3-0.1,0.5,0,0.7,0.2l4.6,4.6c0.2,0.2,0.3,0.4,0.2,0.7c-0.1,0.3-0.2,0.5-0.5,0.5l-6.9,2.3C6.7,28.7,6.7,28.7,6.6,28.7z
			 M9.3,22.4l-1.5,4.4l4.4-1.5L9.3,22.4z"/>
	</g>
	<g>
		
			<rect x="15.5" y="5.1" transform="matrix(-0.7071 -0.7071 0.7071 -0.7071 20.8689 40.2051)" fill="#CDE4F7" width="6.5" height="21.3"/>
		<path fill="#74B1E0" d="M13.5,26.4L13.5,26.4c-0.2,0-0.4-0.1-0.5-0.2l-4.6-4.6c-0.3-0.3-0.3-0.8,0-1.1L23.5,5.4
			c0.1-0.1,0.3-0.2,0.5-0.2l0,0c0.2,0,0.4,0.1,0.5,0.2l4.6,4.6c0.3,0.3,0.3,0.8,0,1.1L14,26.1C13.9,26.3,13.7,26.4,13.5,26.4z
			 M10,21l3.5,3.5l14-14L24,7L10,21z"/>
	</g>
	<g>
		<path fill="#74B1E0" d="M28.6,11.3L28.6,11.3c-0.2,0-0.4-0.1-0.5-0.2l-4.6-4.6c-0.3-0.3-0.3-0.8,0-1.1L25,3.9c0.7-0.7,2-0.7,2.8,0
			l2.9,2.9c0.8,0.8,0.8,2,0,2.8l-1.6,1.6C29,11.2,28.8,11.3,28.6,11.3z M25.1,5.9l3.5,3.5l1-1c0.2-0.2,0.2-0.5,0-0.6l-2.9-2.9
			c-0.2-0.2-0.5-0.2-0.6,0L25.1,5.9z"/>
	</g>
</g>
</svg>
