<?xml version="1.0" encoding="utf-8"?>
<!-- Generator: Adobe Illustrator 18.0.0, SVG Export Plug-In . SVG Version: 6.00 Build 0)  -->
<!DOCTYPE svg PUBLIC "-//W3C//DTD SVG 1.1//EN" "http://www.w3.org/Graphics/SVG/1.1/DTD/svg11.dtd">
<svg version="1.1" id="Layer_1" xmlns="http://www.w3.org/2000/svg" xmlns:xlink="http://www.w3.org/1999/xlink" x="0px" y="0px"
	 viewBox="0 0 32 32" enable-background="new 0 0 32 32" xml:space="preserve">
<g>
	<g>
		<path fill="#8F9BA8" d="M27.5,31.3h-23c-0.4,0-0.8-0.3-0.8-0.8v-29c0-0.4,0.3-0.7,0.8-0.7h16.6c0.4,0,0.8,0.3,0.8,0.7v5.6h5.6
			c0.4,0,0.8,0.3,0.8,0.8v22.7C28.2,30.9,27.9,31.3,27.5,31.3z M5.3,29.8h21.5V8.6h-5.6c-0.4,0-0.8-0.3-0.8-0.7V2.3H5.3V29.8z"/>
	</g>
	<g>
		<polygon fill="#F0F7F7" points="21.2,1.5 21.2,7.8 27.5,7.8 		"/>
		<path fill="#8F9BA8" d="M27.5,8.6h-6.3c-0.4,0-0.8-0.3-0.8-0.7V1.5c0-0.3,0.2-0.6,0.5-0.7s0.6-0.1,0.8,0.2L28,7.3
			c0.2,0.2,0.3,0.5,0.2,0.8C28.1,8.4,27.8,8.6,27.5,8.6z M21.9,7.1h3.8l-3.8-3.8V7.1z"/>
	</g>
	<g>
		<rect x="9.5" y="17.6" fill="#8F9BA8" width="12.9" height="1.5"/>
	</g>
	<g>
		<rect x="9.5" y="21.7" fill="#8F9BA8" width="12.9" height="1.5"/>
	</g>
	<g>
		<rect x="9.5" y="25.8" fill="#8F9BA8" width="12.9" height="1.5"/>
	</g>
</g>
</svg>
