<?xml version="1.0" encoding="utf-8"?>
<!-- Generator: Adobe Illustrator 18.0.0, SVG Export Plug-In . SVG Version: 6.00 Build 0)  -->
<!DOCTYPE svg PUBLIC "-//W3C//DTD SVG 1.1//EN" "http://www.w3.org/Graphics/SVG/1.1/DTD/svg11.dtd">
<svg version="1.1" id="Layer_1" xmlns="http://www.w3.org/2000/svg" xmlns:xlink="http://www.w3.org/1999/xlink" x="0px" y="0px"
	 viewBox="0 0 32 32" enable-background="new 0 0 32 32" xml:space="preserve">
<g>
	<g>
		<path fill="#79C693" d="M15.2,19.9c-0.4,0-0.9-0.1-1.3-0.2c-1.4-0.4-2.5-1.2-3.2-2.4l1.3-0.8c0.5,0.9,1.3,1.5,2.3,1.7
			c1,0.3,2,0.1,2.8-0.4l10.8-6.3c1.8-1,2.4-3.3,1.3-5.1l-1.3-2.3c-0.5-0.9-1.3-1.5-2.3-1.7c-1-0.3-2-0.1-2.8,0.4L12,9.1
			c-1.8,1-2.4,3.3-1.3,5.1L9.3,15c-1.5-2.5-0.6-5.7,1.9-7.2L22,1.5c1.2-0.7,2.6-0.9,4-0.5c1.4,0.4,2.5,1.2,3.2,2.4l1.3,2.3
			c1.5,2.5,0.6,5.7-1.9,7.2l-10.8,6.3C17,19.6,16.1,19.9,15.2,19.9z"/>
	</g>
	<g>
		<path fill="#8F9BA8" d="M7.4,31.3c-0.4,0-0.9-0.1-1.3-0.2c-1.4-0.4-2.5-1.2-3.2-2.4l-1.3-2.3c-1.5-2.5-0.6-5.7,1.9-7.2l10.8-6.3
			c1.2-0.7,2.6-0.9,4-0.5c1.4,0.4,2.5,1.2,3.2,2.4L20,15.5c-0.5-0.9-1.3-1.5-2.3-1.7c-1-0.3-2-0.1-2.8,0.4L4.1,20.4
			c-1.8,1-2.4,3.3-1.3,5.1l1.3,2.3c0.5,0.9,1.3,1.5,2.3,1.7c1,0.3,2,0.1,2.8-0.4L20,22.9c1.8-1,2.4-3.3,1.3-5.1l1.3-0.8
			c1.5,2.5,0.6,5.7-1.9,7.2L10,30.5C9.2,31,8.3,31.3,7.4,31.3z"/>
	</g>
</g>
</svg>
