<?xml version="1.0" encoding="utf-8"?>
<!-- Generator: Adobe Illustrator 18.0.0, SVG Export Plug-In . SVG Version: 6.00 Build 0)  -->
<!DOCTYPE svg PUBLIC "-//W3C//DTD SVG 1.1//EN" "http://www.w3.org/Graphics/SVG/1.1/DTD/svg11.dtd">
<svg version="1.1" id="Layer_1" xmlns="http://www.w3.org/2000/svg" xmlns:xlink="http://www.w3.org/1999/xlink" x="0px" y="0px"
	 viewBox="0 0 32 32" enable-background="new 0 0 32 32" xml:space="preserve">
<g>
	<g>
		<path fill="#B4A79C" d="M16,31.2c-7.3,0-13.3-6-13.3-13.3C2.7,12.5,6,7.7,11,5.7l0.6,1.5C7.2,9,4.3,13.2,4.3,18
			c0,6.4,5.2,11.7,11.7,11.7c6.4,0,11.7-5.2,11.7-11.7c0-4.8-2.9-9-7.3-10.8L21,5.7c5,2,8.3,6.9,8.3,12.3
			C29.3,25.3,23.3,31.2,16,31.2z"/>
	</g>
	<g>
		<rect x="15.2" y="0.7" fill="#B4A79C" width="1.6" height="11.3"/>
	</g>
</g>
</svg>
