<?xml version="1.0" encoding="utf-8"?>
<!-- Generator: Adobe Illustrator 18.0.0, SVG Export Plug-In . SVG Version: 6.00 Build 0)  -->
<!DOCTYPE svg PUBLIC "-//W3C//DTD SVG 1.1//EN" "http://www.w3.org/Graphics/SVG/1.1/DTD/svg11.dtd">
<svg version="1.1" id="Layer_1" xmlns="http://www.w3.org/2000/svg" xmlns:xlink="http://www.w3.org/1999/xlink" x="0px" y="0px"
	 viewBox="0 0 32 32" enable-background="new 0 0 32 32" xml:space="preserve">
<g>
	<g>
		<path fill="#8F9BA8" d="M31.3,30.9H0.8V8.4h30.5V30.9z M2.3,29.4h27.5V9.9H2.3V29.4z"/>
	</g>
	<g>
		<rect x="1.5" y="3.6" fill="#F0F7F7" width="29" height="5.5"/>
		<path fill="#8F9BA8" d="M31.3,9.9H0.8v-7h30.5V9.9z M2.3,8.4h27.5v-4H2.3V8.4z"/>
	</g>
	<g>
		<line fill="#F0F7F7" x1="5.4" y1="1.1" x2="5.4" y2="6.1"/>
		<rect x="4.6" y="1.1" fill="#8F9BA8" width="1.5" height="4.9"/>
	</g>
	<g>
		<line fill="#F0F7F7" x1="12.5" y1="1.1" x2="12.5" y2="6.1"/>
		<rect x="11.7" y="1.1" fill="#8F9BA8" width="1.5" height="4.9"/>
	</g>
	<g>
		<line fill="#F0F7F7" x1="19.5" y1="1.1" x2="19.5" y2="6.1"/>
		<rect x="18.8" y="1.1" fill="#8F9BA8" width="1.5" height="4.9"/>
	</g>
	<g>
		<line fill="#F0F7F7" x1="26.6" y1="1.1" x2="26.6" y2="6.1"/>
		<rect x="25.9" y="1.1" fill="#8F9BA8" width="1.5" height="4.9"/>
	</g>
	<g>
		<line fill="#F0F7F7" x1="17.9" y1="13.4" x2="20.5" y2="13.4"/>
		<rect x="17.9" y="12.6" fill="#74B1E0" width="2.5" height="1.5"/>
	</g>
	<g>
		<line fill="#F0F7F7" x1="24.3" y1="13.4" x2="26.8" y2="13.4"/>
		<rect x="24.3" y="12.6" fill="#74B1E0" width="2.5" height="1.5"/>
	</g>
	<g>
		<line fill="#F0F7F7" x1="5.2" y1="17.6" x2="7.7" y2="17.6"/>
		<rect x="5.2" y="16.8" fill="#74B1E0" width="2.5" height="1.5"/>
	</g>
	<g>
		<line fill="#F0F7F7" x1="11.5" y1="17.6" x2="14.1" y2="17.6"/>
		<rect x="11.5" y="16.8" fill="#74B1E0" width="2.5" height="1.5"/>
	</g>
	<g>
		<line fill="#F0F7F7" x1="17.9" y1="17.6" x2="20.5" y2="17.6"/>
		<rect x="17.9" y="16.8" fill="#74B1E0" width="2.5" height="1.5"/>
	</g>
	<g>
		<line fill="#F0F7F7" x1="24.3" y1="17.6" x2="26.8" y2="17.6"/>
		<rect x="24.3" y="16.8" fill="#74B1E0" width="2.5" height="1.5"/>
	</g>
	<g>
		<line fill="#F0F7F7" x1="5.2" y1="21.8" x2="7.7" y2="21.8"/>
		<rect x="5.2" y="21" fill="#74B1E0" width="2.5" height="1.5"/>
	</g>
	<g>
		<line fill="#F0F7F7" x1="11.5" y1="21.8" x2="14.1" y2="21.8"/>
		<rect x="11.5" y="21" fill="#74B1E0" width="2.5" height="1.5"/>
	</g>
	<g>
		<line fill="#F0F7F7" x1="17.9" y1="21.8" x2="20.5" y2="21.8"/>
		<rect x="17.9" y="21" fill="#74B1E0" width="2.5" height="1.5"/>
	</g>
	<g>
		<line fill="#F0F7F7" x1="24.3" y1="21.8" x2="26.8" y2="21.8"/>
		<rect x="24.3" y="21" fill="#74B1E0" width="2.5" height="1.5"/>
	</g>
	<g>
		<line fill="#F0F7F7" x1="5.2" y1="26" x2="7.7" y2="26"/>
		<rect x="5.2" y="25.2" fill="#74B1E0" width="2.5" height="1.5"/>
	</g>
	<g>
		<line fill="#F0F7F7" x1="11.5" y1="26" x2="14.1" y2="26"/>
		<rect x="11.5" y="25.2" fill="#74B1E0" width="2.5" height="1.5"/>
	</g>
</g>
</svg>
