<?xml version="1.0" encoding="utf-8"?>
<!-- Generator: Adobe Illustrator 18.0.0, SVG Export Plug-In . SVG Version: 6.00 Build 0)  -->
<!DOCTYPE svg PUBLIC "-//W3C//DTD SVG 1.1//EN" "http://www.w3.org/Graphics/SVG/1.1/DTD/svg11.dtd">
<svg version="1.1" id="Layer_1" xmlns="http://www.w3.org/2000/svg" xmlns:xlink="http://www.w3.org/1999/xlink" x="0px" y="0px"
	 viewBox="0 0 32 32" enable-background="new 0 0 32 32" xml:space="preserve">
<g>
	<g>
		<path fill="#8F9BA8" d="M22.2,25.6H22v-1.5h0.2c2.8,0,5-2.2,5-5c0-2.8-2.2-5-5-5H22v-1.5h0.2c3.6,0,6.5,2.9,6.5,6.5
			S25.7,25.6,22.2,25.6z"/>
	</g>
	<g>
		<path fill="#8F9BA8" d="M13,8.2c-0.2,0-0.4-0.1-0.6-0.3c-0.3-0.3-0.2-0.8,0.1-1.1C12.8,6.6,13,6.3,13,6S12.8,5.3,12.5,5
			c-0.6-0.5-0.9-1.3-0.9-2.1c0-0.8,0.3-1.5,0.9-2.1c0.3-0.3,0.8-0.2,1.1,0.1c0.3,0.3,0.2,0.8-0.1,1.1c-0.3,0.3-0.4,0.6-0.4,0.9
			c0,0.3,0.2,0.7,0.4,0.9c0.6,0.5,0.9,1.3,0.9,2.1S14.1,7.5,13.5,8C13.4,8.1,13.2,8.2,13,8.2z"/>
	</g>
	<g>
		<path fill="#8F9BA8" d="M18,8.2c-0.2,0-0.4-0.1-0.6-0.3c-0.3-0.3-0.2-0.8,0.1-1.1c0.2-0.1,0.2-0.3,0.2-0.5c0-0.2-0.1-0.4-0.2-0.5
			c-0.5-0.4-0.7-1-0.7-1.6c0-0.6,0.3-1.2,0.7-1.6c0.3-0.3,0.8-0.2,1.1,0.1c0.3,0.3,0.2,0.8-0.1,1.1c-0.2,0.1-0.2,0.3-0.2,0.5
			c0,0.2,0.1,0.4,0.2,0.5c0.5,0.4,0.7,1,0.7,1.6C19.2,7,19,7.6,18.5,8C18.4,8.1,18.2,8.2,18,8.2z"/>
	</g>
	<g>
		<path fill="#8F9BA8" d="M8.5,8l-1-1.1c0.2-0.1,0.2-0.3,0.2-0.5c0-0.2-0.1-0.4-0.2-0.5c-0.5-0.4-0.7-1-0.7-1.6
			c0-0.6,0.3-1.2,0.7-1.6c0.3-0.3,0.8-0.2,1.1,0.1C8.9,3,8.9,3.5,8.5,3.8C8.4,3.9,8.3,4.1,8.3,4.3c0,0.2,0.1,0.4,0.2,0.5
			c0.5,0.4,0.7,1,0.7,1.6C9.3,7,9,7.6,8.5,8z"/>
	</g>
	<g>
		<path fill="#74B1E0" d="M18.9,31.3H7.2c-2.1,0-3.8-1.7-3.8-3.8V9.2h19.4v18.2C22.7,29.5,21,31.3,18.9,31.3z M4.8,10.7v16.7
			c0,1.3,1,2.3,2.3,2.3h11.7c1.3,0,2.3-1,2.3-2.3V10.7H4.8z"/>
	</g>
</g>
</svg>
