<?xml version="1.0" encoding="utf-8"?>
<!-- Generator: Adobe Illustrator 18.0.0, SVG Export Plug-In . SVG Version: 6.00 Build 0)  -->
<!DOCTYPE svg PUBLIC "-//W3C//DTD SVG 1.1//EN" "http://www.w3.org/Graphics/SVG/1.1/DTD/svg11.dtd">
<svg version="1.1" id="Layer_1" xmlns="http://www.w3.org/2000/svg" xmlns:xlink="http://www.w3.org/1999/xlink" x="0px" y="0px"
	 viewBox="0 0 32 32" enable-background="new 0 0 32 32" xml:space="preserve">
<g>
	<g>
		<path fill="#8F9BA8" d="M26.5,31.3h-21V12.9h21V31.3z M7,29.8h18V14.4H7V29.8z"/>
	</g>
	<g>
		<path fill="#8F9BA8" d="M30.5,14.4h-29c-0.3,0-0.6-0.2-0.7-0.5c-0.1-0.3,0-0.6,0.2-0.8L15.5,0.9c0.3-0.2,0.7-0.2,1,0L31,13.1
			c0.2,0.2,0.3,0.5,0.2,0.8C31.1,14.2,30.8,14.4,30.5,14.4z M3.6,12.9h24.9L16,2.5L3.6,12.9z"/>
	</g>
	<g>
		<path fill="#8F9BA8" d="M19.8,30.9h-7.6v-7.6h7.6V30.9z M13.7,29.4h4.6v-4.6h-4.6V29.4z"/>
	</g>
	<g>
		<rect x="23.3" y="3.2" fill="#8F9BA8" width="1.5" height="5"/>
	</g>
</g>
</svg>
