<?xml version="1.0" encoding="utf-8"?>
<!-- Generator: Adobe Illustrator 18.0.0, SVG Export Plug-In . SVG Version: 6.00 Build 0)  -->
<!DOCTYPE svg PUBLIC "-//W3C//DTD SVG 1.1//EN" "http://www.w3.org/Graphics/SVG/1.1/DTD/svg11.dtd">
<svg version="1.1" id="Layer_1" xmlns="http://www.w3.org/2000/svg" xmlns:xlink="http://www.w3.org/1999/xlink" x="0px" y="0px"
	 viewBox="0 0 32 32" enable-background="new 0 0 32 32" xml:space="preserve">
<g>
	<g>
		<path fill="#79C693" d="M16,31.2C7.6,31.2,0.8,24.4,0.8,16S7.6,0.7,16,0.7S31.3,7.6,31.3,16S24.4,31.2,16,31.2z M16,2.2
			C8.4,2.2,2.3,8.4,2.3,16c0,7.6,6.2,13.7,13.8,13.7c7.6,0,13.8-6.2,13.8-13.7C29.8,8.4,23.6,2.2,16,2.2z"/>
	</g>
	<g>
		<path fill="#79C693" d="M16,20.4c-2.4,0-4.4-2-4.4-4.4s2-4.4,4.4-4.4c2.4,0,4.4,2,4.4,4.4S18.4,20.4,16,20.4z M16,13.1
			c-1.6,0-2.9,1.3-2.9,2.9s1.3,2.9,2.9,2.9c1.6,0,2.9-1.3,2.9-2.9S17.6,13.1,16,13.1z"/>
	</g>
	<g>
		
			<rect x="17.9" y="20.6" transform="matrix(0.8257 0.5642 -0.5642 0.8257 16.078 -9.3959)" fill="#79C693" width="10.7" height="1.5"/>
	</g>
	<g>
		
			<rect x="8.1" y="16" transform="matrix(0.5644 0.8255 -0.8255 0.5644 21.4399 2.0015)" fill="#79C693" width="1.5" height="10.7"/>
	</g>
</g>
</svg>
