<?xml version="1.0" encoding="utf-8"?>
<!-- Generator: Adobe Illustrator 18.0.0, SVG Export Plug-In . SVG Version: 6.00 Build 0)  -->
<!DOCTYPE svg PUBLIC "-//W3C//DTD SVG 1.1//EN" "http://www.w3.org/Graphics/SVG/1.1/DTD/svg11.dtd">
<svg version="1.1" id="Layer_1" xmlns="http://www.w3.org/2000/svg" xmlns:xlink="http://www.w3.org/1999/xlink" x="0px" y="0px"
	 viewBox="0 0 32 32" enable-background="new 0 0 32 32" xml:space="preserve">
<pattern  y="32" width="24.1" height="24.1" patternUnits="userSpaceOnUse" id="SVGID_12_" viewBox="0 -24.1 24.1 24.1" overflow="visible">
	<g>
		<polygon fill="none" points="0,0 24.1,0 24.1,-24.1 0,-24.1 		"/>
		<g>
			<polygon fill="none" points="0,-24.1 24.1,-24.1 24.1,0 0,0 			"/>
			<polygon fill="#E0CB81" points="24.1,-24.1 0,-24.1 0,0 24.1,0 			"/>
		</g>
	</g>
</pattern>
<pattern  y="32" width="24.1" height="24.1" patternUnits="userSpaceOnUse" id="SVGID_4_" viewBox="0 -24.1 24.1 24.1" overflow="visible">
	<g>
		<polygon fill="none" points="0,0 24.1,0 24.1,-24.1 0,-24.1 		"/>
		<g>
			<polygon fill="none" points="0,-24.1 24.1,-24.1 24.1,0 0,0 			"/>
			<polygon fill="#E0CB81" points="24.1,-24.1 0,-24.1 0,0 24.1,0 			"/>
		</g>
	</g>
</pattern>
<pattern  y="32" width="24.1" height="24.1" patternUnits="userSpaceOnUse" id="SVGID_8_" viewBox="0 -24.1 24.1 24.1" overflow="visible">
	<g>
		<polygon fill="none" points="0,0 24.1,0 24.1,-24.1 0,-24.1 		"/>
		<g>
			<polygon fill="none" points="0,-24.1 24.1,-24.1 24.1,0 0,0 			"/>
			<polygon fill="#E0CB81" points="24.1,-24.1 0,-24.1 0,0 24.1,0 			"/>
		</g>
	</g>
</pattern>
<g>
	<g>
		<path fill="#F9F8F2" d="M23.2,3h5.2c-0.2,4.7-2.6,6.4-2.6,6.4h-2.7"/>
		<path fill="#B4A79C" d="M26.1,10.1h-2.9V8.6h2.4c0.5-0.4,1.7-1.9,2-4.9h-4.4V2.3h6v0.8c-0.2,5-2.8,6.9-2.9,6.9L26.1,10.1z"/>
	</g>
	<g>
		<path fill="#F9F8F2" d="M23.2,12.8h5.2c-0.2,4.7-2.6,6.4-2.6,6.4h-2.7"/>
		<path fill="#B4A79C" d="M26.1,19.9h-2.9v-1.5h2.4c0.5-0.4,1.7-1.9,2-4.9h-4.4V12h6v0.8c-0.2,5-2.8,6.9-2.9,6.9L26.1,19.9z"/>
	</g>
	<g>
		<path fill="#F9F8F2" d="M23.2,22.6h5.2c-0.2,4.7-2.6,6.4-2.6,6.4h-2.7"/>
		<path fill="#B4A79C" d="M26.1,29.7h-2.9v-1.5h2.4c0.5-0.4,1.7-1.9,2-4.9h-4.4v-1.5h6v0.8c-0.2,5-2.8,6.9-2.9,6.9L26.1,29.7z"/>
	</g>
	<g>
		<path fill="#F9F8F2" d="M8.8,3H3.6c0.2,4.7,2.6,6.4,2.6,6.4h2.7"/>
		<path fill="#B4A79C" d="M8.8,10.1H5.9L5.7,10C5.6,9.9,3.1,8,2.9,3.1V2.3h6v1.5H4.4c0.3,3,1.6,4.4,2,4.9h2.4V10.1z"/>
	</g>
	<g>
		<path fill="#F9F8F2" d="M8.8,12.8H3.6c0.2,4.7,2.6,6.4,2.6,6.4h2.7"/>
		<path fill="#B4A79C" d="M8.8,19.9H5.9l-0.2-0.1c-0.1-0.1-2.6-2-2.9-6.9v-0.8h6v1.5H4.4c0.3,3,1.6,4.4,2,4.9h2.4V19.9z"/>
	</g>
	<g>
		<path fill="#F9F8F2" d="M8.8,22.6H3.6C3.8,27.3,6.2,29,6.2,29h2.7"/>
		<path fill="#B4A79C" d="M8.8,29.7H5.9l-0.2-0.1c-0.1-0.1-2.6-2-2.9-6.9v-0.8h6v1.5H4.4c0.3,3,1.6,4.4,2,4.9h2.4V29.7z"/>
	</g>
	<g>
		<path fill="#B4A79C" d="M23.9,31.2H8.1V0.7h15.8C23.9,0.7,23.9,31.2,23.9,31.2z M9.6,29.7h12.8V2.2H9.6V29.7z"/>
	</g>
	<g>
		<g>
			<g>
				<defs>
					<circle id="SVGID_1_" cx="16" cy="6.9" r="3.1"/>
				</defs>
				<clipPath id="SVGID_2_">
					<use xlink:href="#SVGID_1_"  overflow="visible"/>
				</clipPath>
				<g clip-path="url(#SVGID_2_)">
					<rect x="-0.7" y="-0.3" fill="none" width="24.1" height="24.1"/>
					<rect x="-0.7" y="-0.3" fill="#FEE99B" width="24.1" height="24.1"/>
				</g>
			</g>
		</g>
		<pattern  id="SVGID_3_" xlink:href="#SVGID_4_" patternTransform="matrix(1 0 0 -1 -165.273 -16312.6621)">
		</pattern>
		<path fill="url(#SVGID_3_)" d="M16,10.7c-2.1,0-3.8-1.7-3.8-3.8s1.7-3.8,3.8-3.8s3.8,1.7,3.8,3.8S18.1,10.7,16,10.7z M16,4.6
			c-1.3,0-2.3,1-2.3,2.3s1,2.3,2.3,2.3s2.3-1,2.3-2.3S17.3,4.6,16,4.6z"/>
	</g>
	<g>
		<g>
			<g>
				<defs>
					<circle id="SVGID_5_" cx="16" cy="16" r="3.1"/>
				</defs>
				<clipPath id="SVGID_6_">
					<use xlink:href="#SVGID_5_"  overflow="visible"/>
				</clipPath>
				<g clip-path="url(#SVGID_6_)">
					<rect x="-0.7" y="-0.3" fill="none" width="24.1" height="24.1"/>
					<rect x="-0.7" y="-0.3" fill="#FEE99B" width="24.1" height="24.1"/>
				</g>
			</g>
		</g>
		<pattern  id="SVGID_7_" xlink:href="#SVGID_8_" patternTransform="matrix(1 0 0 -1 -165.273 -16312.6621)">
		</pattern>
		<path fill="url(#SVGID_7_)" d="M16,19.8c-2.1,0-3.8-1.7-3.8-3.8s1.7-3.8,3.8-3.8s3.8,1.7,3.8,3.8S18.1,19.8,16,19.8z M16,13.7
			c-1.3,0-2.3,1-2.3,2.3s1,2.3,2.3,2.3s2.3-1,2.3-2.3S17.3,13.7,16,13.7z"/>
	</g>
	<g>
		<g>
			<g>
				<defs>
					<circle id="SVGID_9_" cx="16" cy="25.1" r="3.1"/>
				</defs>
				<clipPath id="SVGID_10_">
					<use xlink:href="#SVGID_9_"  overflow="visible"/>
				</clipPath>
				<g clip-path="url(#SVGID_10_)">
					<rect x="-0.7" y="-0.3" fill="none" width="24.1" height="24.1"/>
					<rect x="-0.7" y="-0.3" fill="#FEE99B" width="24.1" height="24.1"/>
				</g>
			</g>
			<g>
				<defs>
					<circle id="SVGID_11_" cx="16" cy="25.1" r="3.1"/>
				</defs>
				<clipPath id="SVGID_13_">
					<use xlink:href="#SVGID_11_"  overflow="visible"/>
				</clipPath>
				<g clip-path="url(#SVGID_13_)">
					<rect x="-0.7" y="23.8" fill="none" width="24.1" height="24.1"/>
					<rect x="-0.7" y="23.8" fill="#FEE99B" width="24.1" height="24.1"/>
				</g>
			</g>
		</g>
		<pattern  id="SVGID_14_" xlink:href="#SVGID_12_" patternTransform="matrix(1 0 0 -1 -165.273 -16312.6621)">
		</pattern>
		<path fill="url(#SVGID_14_)" d="M16,28.9c-2.1,0-3.8-1.7-3.8-3.8s1.7-3.8,3.8-3.8s3.8,1.7,3.8,3.8S18.1,28.9,16,28.9z M16,22.8
			c-1.3,0-2.3,1-2.3,2.3s1,2.3,2.3,2.3s2.3-1,2.3-2.3S17.3,22.8,16,22.8z"/>
	</g>
</g>
</svg>
