<?xml version="1.0" encoding="utf-8"?>
<!-- Generator: Adobe Illustrator 18.0.0, SVG Export Plug-In . SVG Version: 6.00 Build 0)  -->
<!DOCTYPE svg PUBLIC "-//W3C//DTD SVG 1.1//EN" "http://www.w3.org/Graphics/SVG/1.1/DTD/svg11.dtd">
<svg version="1.1" id="Layer_1" xmlns="http://www.w3.org/2000/svg" xmlns:xlink="http://www.w3.org/1999/xlink" x="0px" y="0px"
	 viewBox="0 0 32 32" enable-background="new 0 0 32 32" xml:space="preserve">
<g>
	<g>
		<path fill="#DA8C8C" d="M29.5,15.7H2.5V2.2h26.9V15.7z M4.1,14.1h23.8V3.8H4.1V14.1z"/>
	</g>
	<g>
		<rect x="7.7" y="1.2" transform="matrix(0.768 0.6405 -0.6405 0.768 7.7132 -3.3598)" fill="#DA8C8C" width="1.6" height="15.6"/>
	</g>
	<g>
		
			<rect x="17.7" y="1.2" transform="matrix(0.768 0.6405 -0.6405 0.768 10.0354 -9.7699)" fill="#DA8C8C" width="1.6" height="15.6"/>
	</g>
	<g>
		
			<rect x="25.3" y="7.8" transform="matrix(0.768 0.6404 -0.6404 0.768 13.6521 -13.9588)" fill="#DA8C8C" width="1.6" height="8.1"/>
	</g>
	<g>
		<rect x="27.9" y="14.9" fill="#DA8C8C" width="1.6" height="14.1"/>
	</g>
	<g>
		<rect x="2.5" y="14.9" fill="#DA8C8C" width="1.6" height="14.1"/>
	</g>
	<g>
		<rect x="26.1" y="28.2" fill="#DA8C8C" width="5.1" height="1.6"/>
	</g>
	<g>
		<rect x="0.7" y="28.2" fill="#DA8C8C" width="5.1" height="1.6"/>
	</g>
</g>
</svg>
