<?xml version="1.0" encoding="utf-8"?>
<!-- Generator: Adobe Illustrator 18.0.0, SVG Export Plug-In . SVG Version: 6.00 Build 0)  -->
<!DOCTYPE svg PUBLIC "-//W3C//DTD SVG 1.1//EN" "http://www.w3.org/Graphics/SVG/1.1/DTD/svg11.dtd">
<svg version="1.1" id="Layer_1" xmlns="http://www.w3.org/2000/svg" xmlns:xlink="http://www.w3.org/1999/xlink" x="0px" y="0px"
	 viewBox="0 0 32 32" enable-background="new 0 0 32 32" xml:space="preserve">
<g>
	<g>
		<circle fill="#F9F8F2" cx="16" cy="6.8" r="5.3"/>
		<path fill="#B4A79C" d="M16,12.8c-3.3,0-6-2.7-6-6c0-3.3,2.7-6,6-6c3.3,0,6,2.7,6,6C22,10.1,19.3,12.8,16,12.8z M16,2.3
			c-2.5,0-4.5,2-4.5,4.5c0,2.5,2,4.5,4.5,4.5c2.5,0,4.5-2,4.5-4.5C20.5,4.3,18.5,2.3,16,2.3z"/>
	</g>
	<g>
		<line fill="#F9F8F2" x1="16" y1="12" x2="16" y2="25.5"/>
		<rect x="15.2" y="12" fill="#B4A79C" width="1.5" height="13.5"/>
	</g>
	<g>
		<line fill="#F9F8F2" x1="23.4" y1="26" x2="8.6" y2="30.5"/>
		
			<rect x="15.2" y="20.5" transform="matrix(0.2929 0.9561 -0.9561 0.2929 38.3284 4.68)" fill="#8F9BA8" width="1.5" height="15.4"/>
	</g>
	<g>
		<line fill="#F9F8F2" x1="8.6" y1="26" x2="23.4" y2="30.5"/>
		
			<rect x="8.3" y="27.5" transform="matrix(0.9561 0.2929 -0.2929 0.9561 8.9776 -3.4473)" fill="#8F9BA8" width="15.4" height="1.5"/>
	</g>
</g>
</svg>
