<?xml version="1.0" encoding="utf-8"?>
<!-- Generator: Adobe Illustrator 18.0.0, SVG Export Plug-In . SVG Version: 6.00 Build 0)  -->
<!DOCTYPE svg PUBLIC "-//W3C//DTD SVG 1.1//EN" "http://www.w3.org/Graphics/SVG/1.1/DTD/svg11.dtd">
<svg version="1.1" id="Layer_1" xmlns="http://www.w3.org/2000/svg" xmlns:xlink="http://www.w3.org/1999/xlink" x="0px" y="0px"
	 viewBox="0 0 32 32" enable-background="new 0 0 32 32" xml:space="preserve">
<g>
	<g>
		<path fill="#8F9BA8" d="M16,31.2c-4.4,0-9.2-1.5-9.2-4.2c0-2.7,4.7-4.2,9.2-4.2c4.4,0,9.2,1.5,9.2,4.2
			C25.2,29.8,20.4,31.2,16,31.2z M16,24.3c-4.7,0-7.7,1.6-7.7,2.7c0,1.1,2.9,2.7,7.7,2.7c4.7,0,7.7-1.6,7.7-2.7
			C23.7,25.9,20.7,24.3,16,24.3z"/>
	</g>
	<g>
		<circle fill="#CDE4F7" cx="16" cy="6.8" r="5.3"/>
		<path fill="#74B1E0" d="M16,12.8c-3.3,0-6-2.7-6-6c0-3.3,2.7-6,6-6s6,2.7,6,6C22,10.1,19.3,12.8,16,12.8z M16,2.2
			c-2.5,0-4.5,2-4.5,4.5c0,2.5,2,4.5,4.5,4.5c2.5,0,4.5-2,4.5-4.5C20.5,4.3,18.5,2.2,16,2.2z"/>
	</g>
	<g>
		<line fill="#CDE4F7" x1="16" y1="12" x2="16" y2="27"/>
		<rect x="15.3" y="12" fill="#74B1E0" width="1.5" height="15"/>
	</g>
</g>
</svg>
