<?xml version="1.0" encoding="utf-8"?>
<!-- Generator: Adobe Illustrator 18.0.0, SVG Export Plug-In . SVG Version: 6.00 Build 0)  -->
<!DOCTYPE svg PUBLIC "-//W3C//DTD SVG 1.1//EN" "http://www.w3.org/Graphics/SVG/1.1/DTD/svg11.dtd">
<svg version="1.1" id="Layer_1" xmlns="http://www.w3.org/2000/svg" xmlns:xlink="http://www.w3.org/1999/xlink" x="0px" y="0px"
	 viewBox="0 0 32 32" enable-background="new 0 0 32 32" xml:space="preserve">
<g>
	<g>
		<path fill="#74B1E0" d="M16.7,30.9H3.2c-1.4,0-2.6-1.2-2.6-2.6V7c0-1.4,1.2-2.6,2.6-2.6h13.5c1.4,0,2.6,1.2,2.6,2.6v21.3
			C19.3,29.7,18.1,30.9,16.7,30.9z M3.2,5.9C2.6,5.9,2.1,6.4,2.1,7v21.3c0,0.6,0.5,1.1,1.1,1.1h13.5c0.6,0,1.1-0.5,1.1-1.1V7
			c0-0.6-0.5-1.1-1.1-1.1H3.2z"/>
	</g>
	<g>
		<rect x="4.5" y="8.8" fill="#CDE4F7" width="10.8" height="8.4"/>
		<path fill="#74B1E0" d="M16.1,17.9H3.8V8h12.3V17.9z M5.3,16.4h9.3V9.5H5.3V16.4z"/>
	</g>
	<g>
		<g>
			<rect x="3.8" y="19.6" fill="#74B1E0" width="1.5" height="1"/>
		</g>
		<g>
			<rect x="7.4" y="19.6" fill="#74B1E0" width="1.5" height="1"/>
		</g>
		<g>
			<rect x="11" y="19.6" fill="#74B1E0" width="1.5" height="1"/>
		</g>
		<g>
			<rect x="14.6" y="19.6" fill="#74B1E0" width="1.5" height="1"/>
		</g>
	</g>
	<g>
		<g>
			<rect x="3.8" y="22.9" fill="#74B1E0" width="1.5" height="1"/>
		</g>
		<g>
			<rect x="7.4" y="22.9" fill="#74B1E0" width="1.5" height="1"/>
		</g>
		<g>
			<rect x="11" y="22.9" fill="#74B1E0" width="1.5" height="1"/>
		</g>
		<g>
			<rect x="14.6" y="22.9" fill="#74B1E0" width="1.5" height="1"/>
		</g>
	</g>
	<g>
		<g>
			<rect x="3.8" y="26.1" fill="#74B1E0" width="1.5" height="1"/>
		</g>
		<g>
			<rect x="7.4" y="26.1" fill="#74B1E0" width="1.5" height="1"/>
		</g>
		<g>
			<rect x="11" y="26.1" fill="#74B1E0" width="1.5" height="1"/>
		</g>
		<g>
			<rect x="14.6" y="26.1" fill="#74B1E0" width="1.5" height="1"/>
		</g>
	</g>
	<g>
		<rect x="4.5" y="1.1" fill="#74B1E0" width="1.5" height="4"/>
	</g>
	<g>
		<g>
			<rect x="22.1" y="15.4" fill="#8F9BA8" width="8.2" height="1.5"/>
		</g>
		<g>
			<polygon fill="#8F9BA8" points="27.4,20.1 26.3,19.1 29.3,16.1 26.3,13.2 27.4,12.1 31.4,16.1 			"/>
		</g>
	</g>
</g>
</svg>
