<?xml version="1.0" encoding="utf-8"?>
<!-- Generator: Adobe Illustrator 18.0.0, SVG Export Plug-In . SVG Version: 6.00 Build 0)  -->
<!DOCTYPE svg PUBLIC "-//W3C//DTD SVG 1.1//EN" "http://www.w3.org/Graphics/SVG/1.1/DTD/svg11.dtd">
<svg version="1.1" id="Layer_1" xmlns="http://www.w3.org/2000/svg" xmlns:xlink="http://www.w3.org/1999/xlink" x="0px" y="0px"
	 viewBox="0 0 32 32" enable-background="new 0 0 32 32" xml:space="preserve">
<g>
	<g>
		<path fill="#8F9BA8" d="M11.2,31.3c-0.1,0-0.2,0-0.2,0l-9.7-3.1C1,28,0.7,27.7,0.7,27.4V1.5c0-0.2,0.1-0.5,0.3-0.6
			c0.2-0.1,0.4-0.2,0.7-0.1l9.7,3.1c0.3,0.1,0.5,0.4,0.5,0.7v25.9c0,0.2-0.1,0.5-0.3,0.6C11.5,31.2,11.3,31.3,11.2,31.3z M2.2,26.8
			l8.2,2.6V5.2L2.2,2.5V26.8z"/>
	</g>
	<g>
		<path fill="#8F9BA8" d="M11.2,31.3c-0.2,0-0.3,0-0.4-0.1c-0.2-0.1-0.3-0.4-0.3-0.6V4.6c0-0.3,0.2-0.6,0.5-0.7l9.7-3.1
			c0.2-0.1,0.5,0,0.7,0.1c0.2,0.1,0.3,0.4,0.3,0.6v16.3c0,0.4-0.3,0.8-0.8,0.8c-3.1,0-5.6,2.5-5.6,5.6c0,1.6,0.6,3,1.8,4.1
			c0.2,0.2,0.3,0.5,0.2,0.7c-0.1,0.3-0.2,0.5-0.5,0.5l-5.3,1.7C11.3,31.2,11.2,31.3,11.2,31.3z M11.9,5.2v24.3l3.3-1
			c-0.9-1.2-1.4-2.7-1.4-4.3c0-3.7,2.8-6.7,6.3-7.1V2.5L11.9,5.2z"/>
	</g>
	<g>
		<path fill="#8F9BA8" d="M30.5,31.3c-0.1,0-0.2,0-0.2,0l-5.3-1.7c-0.3-0.1-0.4-0.3-0.5-0.5c-0.1-0.3,0-0.5,0.2-0.7
			c1.1-1.1,1.8-2.5,1.8-4.1c0-3.1-2.5-5.6-5.6-5.6c-0.4,0-0.8-0.3-0.8-0.8V1.5c0-0.2,0.1-0.5,0.3-0.6c0.2-0.1,0.4-0.2,0.7-0.1
			l9.7,3.1C31,4,31.3,4.3,31.3,4.6v25.9c0,0.2-0.1,0.5-0.3,0.6C30.8,31.2,30.7,31.3,30.5,31.3z M26.5,28.4l3.3,1V5.2l-8.2-2.6v14.6
			c3.6,0.4,6.3,3.4,6.3,7.1C27.9,25.7,27.4,27.2,26.5,28.4z"/>
	</g>
	<g>
		<path fill="#F2E8B9" d="M20.8,17.8c-3.5,0-6.3,2.8-6.3,6.3c0,1.8,0.8,3.5,2,4.6c1.1,1.1,2.7,1.7,4.3,1.7c1.7,0,3.2-0.7,4.3-1.7
			c1.2-1.2,2-2.8,2-4.6C27.2,20.7,24.3,17.8,20.8,17.8z"/>
		<path fill="#B4A042" d="M20.8,31.3c-1.8,0-3.5-0.7-4.8-1.9c-1.4-1.3-2.3-3.2-2.3-5.2c0-3.9,3.2-7.1,7.1-7.1c3.9,0,7.1,3.2,7.1,7.1
			c0,1.9-0.8,3.8-2.3,5.2C24.4,30.6,22.6,31.3,20.8,31.3z M20.8,18.6c-3.1,0-5.6,2.5-5.6,5.6c0,1.6,0.6,3,1.8,4.1
			c1,1,2.4,1.5,3.8,1.5c1.4,0,2.8-0.5,3.8-1.5c1.1-1.1,1.8-2.5,1.8-4.1C26.4,21.1,23.9,18.6,20.8,18.6z"/>
	</g>
	<g>
		<polyline fill="#F2E8B9" points="17.6,24.5 19.5,26.4 24,21.9 		"/>
		<polygon fill="#B4A042" points="19.5,27.5 17.1,25.1 18.2,24 19.5,25.4 23.5,21.4 24.6,22.4 		"/>
	</g>
</g>
</svg>
