<?xml version="1.0" encoding="utf-8"?>
<!-- Generator: Adobe Illustrator 18.0.0, SVG Export Plug-In . SVG Version: 6.00 Build 0)  -->
<!DOCTYPE svg PUBLIC "-//W3C//DTD SVG 1.1//EN" "http://www.w3.org/Graphics/SVG/1.1/DTD/svg11.dtd">
<svg version="1.1" id="Layer_1" xmlns="http://www.w3.org/2000/svg" xmlns:xlink="http://www.w3.org/1999/xlink" x="0px" y="0px"
	 viewBox="0 0 32 32" enable-background="new 0 0 32 32" xml:space="preserve">
<g>
	<g>
		<path fill="#79C693" d="M8.4,31.5L8.4,31.5c-1.7,0-3.3-0.7-4.4-1.8c-2.4-2.4-2.4-6.4,0-8.9L17.2,7.5c0.8-0.8,1.8-1.2,2.8-1.2
			c0,0,0,0,0,0c1.1,0,2.1,0.4,2.8,1.2c1.6,1.6,1.6,4.1,0,5.7l-9,9l-1.1-1.1l9-9c1-1,1-2.6,0-3.6c-0.5-0.5-1.1-0.7-1.8-0.7l0,0
			c-0.7,0-1.3,0.3-1.8,0.7L5,21.8c-1.9,1.9-1.9,4.9,0,6.8C5.9,29.5,7.1,30,8.4,30s2.5-0.5,3.4-1.4l14.6-14.6c2.7-2.7,2.7-7.1,0-9.8
			c-1.3-1.3-3.1-2-4.9-2l0,0c-1.9,0-3.6,0.7-4.9,2l-9.8,9.8l-1.1-1.1L15.5,3c1.6-1.6,3.7-2.5,6-2.5l0,0c2.3,0,4.4,0.9,6,2.5
			c3.3,3.3,3.3,8.7,0,12L12.8,29.6C11.6,30.8,10,31.5,8.4,31.5z"/>
	</g>
</g>
</svg>
