<?xml version="1.0" encoding="utf-8"?>
<!-- Generator: Adobe Illustrator 18.0.0, SVG Export Plug-In . SVG Version: 6.00 Build 0)  -->
<!DOCTYPE svg PUBLIC "-//W3C//DTD SVG 1.1//EN" "http://www.w3.org/Graphics/SVG/1.1/DTD/svg11.dtd">
<svg version="1.1" id="Layer_1" xmlns="http://www.w3.org/2000/svg" xmlns:xlink="http://www.w3.org/1999/xlink" x="0px" y="0px"
	 viewBox="0 0 32 32" enable-background="new 0 0 32 32" xml:space="preserve">
<g>
	<g>
		<g>
			<rect x="22.8" y="15.3" fill="#8F9BA8" width="8.4" height="1.5"/>
		</g>
		<g>
			<polygon fill="#8F9BA8" points="25.8,20.2 21.7,16.1 25.8,12 26.9,13.1 23.9,16.1 26.9,19.1 			"/>
		</g>
	</g>
	<g>
		<path fill="#8F9BA8" d="M17.3,31.2H3.4c-1.5,0-2.7-1.2-2.7-2.7V6.7c0-1.5,1.2-2.7,2.7-2.7h13.8c1.5,0,2.7,1.2,2.7,2.7v21.8
			C19.9,30,18.7,31.2,17.3,31.2z M3.4,5.6c-0.6,0-1.1,0.5-1.1,1.1v21.8c0,0.6,0.5,1.1,1.1,1.1h13.8c0.6,0,1.1-0.5,1.1-1.1V6.7
			c0-0.6-0.5-1.1-1.1-1.1H3.4z"/>
	</g>
	<g>
		<rect x="4.8" y="8.6" fill="#F0F7F7" width="11.1" height="8.6"/>
		<path fill="#8F9BA8" d="M16.7,17.9H4V7.8h12.6V17.9z M5.6,16.4h9.5v-7H5.6V16.4z"/>
	</g>
	<g>
		<g>
			<rect x="4" y="19.7" fill="#8F9BA8" width="1.5" height="1.1"/>
		</g>
		<g>
			<rect x="7.7" y="19.7" fill="#8F9BA8" width="1.5" height="1.1"/>
		</g>
		<g>
			<rect x="11.4" y="19.7" fill="#8F9BA8" width="1.5" height="1.1"/>
		</g>
		<g>
			<rect x="15.1" y="19.7" fill="#8F9BA8" width="1.5" height="1.1"/>
		</g>
	</g>
	<g>
		<g>
			<rect x="4" y="23" fill="#8F9BA8" width="1.5" height="1.1"/>
		</g>
		<g>
			<rect x="7.7" y="23" fill="#8F9BA8" width="1.5" height="1.1"/>
		</g>
		<g>
			<rect x="11.4" y="23" fill="#8F9BA8" width="1.5" height="1.1"/>
		</g>
		<g>
			<rect x="15.1" y="23" fill="#8F9BA8" width="1.5" height="1.1"/>
		</g>
	</g>
	<g>
		<g>
			<rect x="4" y="26.4" fill="#8F9BA8" width="1.5" height="1.1"/>
		</g>
		<g>
			<rect x="7.7" y="26.4" fill="#8F9BA8" width="1.5" height="1.1"/>
		</g>
		<g>
			<rect x="11.4" y="26.4" fill="#8F9BA8" width="1.5" height="1.1"/>
		</g>
		<g>
			<rect x="15.1" y="26.4" fill="#8F9BA8" width="1.5" height="1.1"/>
		</g>
	</g>
	<g>
		<rect x="4.8" y="0.8" fill="#8F9BA8" width="1.5" height="4.1"/>
	</g>
</g>
</svg>
