<?xml version="1.0" encoding="utf-8"?>
<!-- Generator: Adobe Illustrator 18.0.0, SVG Export Plug-In . SVG Version: 6.00 Build 0)  -->
<!DOCTYPE svg PUBLIC "-//W3C//DTD SVG 1.1//EN" "http://www.w3.org/Graphics/SVG/1.1/DTD/svg11.dtd">
<svg version="1.1" id="Layer_1" xmlns="http://www.w3.org/2000/svg" xmlns:xlink="http://www.w3.org/1999/xlink" x="0px" y="0px"
	 viewBox="0 0 32 32" enable-background="new 0 0 32 32" xml:space="preserve">
<g>
	<g>
		<path fill="#8F9BA8" d="M26.1,31.2H5.9c-0.2,0-0.5-0.1-0.6-0.3c-0.1-0.2-0.2-0.5-0.1-0.7l3.3-9.3c0.1-0.3,0.4-0.5,0.7-0.5h2
			c0.3,0,0.5,0.1,0.6,0.4c1.7,2.7,3.4,5,4.3,6.2c0.9-1.2,2.6-3.6,4.3-6.2c0.1-0.2,0.4-0.4,0.6-0.4h2c0.3,0,0.6,0.2,0.7,0.5l3.3,9.3
			c0.1,0.2,0,0.5-0.1,0.7C26.6,31.1,26.4,31.2,26.1,31.2z M6.9,29.7h18.2l-2.7-7.8h-1c-2.3,3.7-4.7,6.8-4.7,6.8
			c-0.3,0.4-0.9,0.4-1.2,0c0,0-2.4-3.1-4.7-6.8h-1L6.9,29.7z"/>
	</g>
	<g>
		<path fill="#F9F8F2" d="M16,1.5c-5.2,0-9.4,4.2-9.4,9.4c0,2.5,2.2,6.7,4.5,10.3c2.4,3.8,4.9,7.1,4.9,7.1s2.5-3.2,4.9-7.1
			c2.3-3.6,4.5-7.8,4.5-10.3C25.4,5.7,21.2,1.5,16,1.5z"/>
		<path fill="#B4A79C" d="M16,29c-0.2,0-0.5-0.1-0.6-0.3c0,0-2.5-3.3-4.9-7.1c-3-4.9-4.6-8.5-4.6-10.7C5.9,5.3,10.4,0.7,16,0.7
			s10.1,4.5,10.1,10.1c0,2.2-1.5,5.8-4.6,10.7c-2.4,3.8-4.9,7.1-4.9,7.1C16.5,28.9,16.2,29,16,29z M16,2.2c-4.8,0-8.6,3.9-8.6,8.6
			c0,1.3,0.8,4.1,4.4,9.9c1.7,2.7,3.4,5,4.3,6.2c0.9-1.2,2.6-3.6,4.3-6.2c3.6-5.7,4.4-8.6,4.4-9.9C24.6,6.1,20.8,2.2,16,2.2z"/>
	</g>
	<g>
		<circle fill="#FFFFFF" cx="16" cy="10.9" r="6.1"/>
		<path fill="#B4A79C" d="M16,17.7c-3.8,0-6.8-3.1-6.8-6.8c0-3.8,3.1-6.8,6.8-6.8c3.8,0,6.8,3.1,6.8,6.8S19.8,17.7,16,17.7z M16,5.6
			c-2.9,0-5.3,2.4-5.3,5.3s2.4,5.3,5.3,5.3s5.3-2.4,5.3-5.3C21.3,7.9,18.9,5.6,16,5.6z"/>
	</g>
</g>
</svg>
