<?xml version="1.0" encoding="utf-8"?>
<!-- Generator: Adobe Illustrator 18.0.0, SVG Export Plug-In . SVG Version: 6.00 Build 0)  -->
<!DOCTYPE svg PUBLIC "-//W3C//DTD SVG 1.1//EN" "http://www.w3.org/Graphics/SVG/1.1/DTD/svg11.dtd">
<svg version="1.1" id="Layer_1" xmlns="http://www.w3.org/2000/svg" xmlns:xlink="http://www.w3.org/1999/xlink" x="0px" y="0px"
	 viewBox="0 0 32 32" enable-background="new 0 0 32 32" xml:space="preserve">
<g>
	<g>
		<path fill="#CDE4F7" d="M26.2,11.7c0,5.6-10.2,18.8-10.2,18.8S5.8,17.3,5.8,11.7S10.4,1.5,16,1.5S26.2,6,26.2,11.7z"/>
		<path fill="#74B1E0" d="M16,31.2c-0.2,0-0.5-0.1-0.6-0.3C15,30.4,5.1,17.5,5.1,11.7C5.1,5.6,10,0.7,16,0.7s10.9,4.9,10.9,10.9
			c0,5.8-9.9,18.7-10.3,19.3C16.5,31.1,16.2,31.2,16,31.2z M16,2.2c-5.2,0-9.4,4.2-9.4,9.4c0,4.5,7.3,14.7,9.4,17.6
			c2.2-2.9,9.4-13.1,9.4-17.6C25.4,6.5,21.2,2.2,16,2.2z"/>
	</g>
	<g>
		<circle fill="#FFFFFF" cx="16" cy="11.7" r="6.6"/>
		<path fill="#74B1E0" d="M16,19c-4,0-7.3-3.3-7.3-7.3c0-4,3.3-7.3,7.3-7.3c4,0,7.3,3.3,7.3,7.3C23.3,15.7,20,19,16,19z M16,5.8
			c-3.2,0-5.8,2.6-5.8,5.8c0,3.2,2.6,5.8,5.8,5.8c3.2,0,5.8-2.6,5.8-5.8C21.8,8.4,19.2,5.8,16,5.8z"/>
	</g>
</g>
</svg>
