<?xml version="1.0" encoding="utf-8"?>
<!-- Generator: Adobe Illustrator 18.0.0, SVG Export Plug-In . SVG Version: 6.00 Build 0)  -->
<!DOCTYPE svg PUBLIC "-//W3C//DTD SVG 1.1//EN" "http://www.w3.org/Graphics/SVG/1.1/DTD/svg11.dtd">
<svg version="1.1" id="Layer_1" xmlns="http://www.w3.org/2000/svg" xmlns:xlink="http://www.w3.org/1999/xlink" x="0px" y="0px"
	 viewBox="0 0 32 32" enable-background="new 0 0 32 32" xml:space="preserve">
<g>
	<g>
		<circle fill="#F9F8F2" cx="16" cy="18.3" r="9.1"/>
		<path fill="#B4A79C" d="M16,28.1c-5.4,0-9.8-4.4-9.8-9.8s4.4-9.8,9.8-9.8s9.8,4.4,9.8,9.8S21.4,28.1,16,28.1z M16,10
			c-4.6,0-8.3,3.7-8.3,8.3s3.7,8.3,8.3,8.3s8.3-3.7,8.3-8.3S20.6,10,16,10z"/>
	</g>
	<g>
		<path fill="#8F9BA8" d="M16,31.2c-7.2,0-13-5.8-13-13s5.8-13,13-13s13,5.8,13,13S23.2,31.2,16,31.2z M16,6.8
			c-6.3,0-11.5,5.1-11.5,11.5c0,6.3,5.1,11.5,11.5,11.5c6.3,0,11.5-5.1,11.5-11.5S22.3,6.8,16,6.8z"/>
	</g>
	<g>
		<polygon fill="#F9F8F2" points="19.3,15 14.8,17.1 12.7,21.6 17.2,19.5 		"/>
		<path fill="#B4A79C" d="M11.2,23.1l3-6.6l6.6-3l-3,6.6L11.2,23.1z M15.3,17.6L14.2,20l2.4-1.1l1.1-2.4L15.3,17.6z"/>
	</g>
	<g>
		<line fill="none" x1="8.8" y1="18.3" x2="9.5" y2="18.3"/>
		<rect x="8.8" y="17.5" fill="#B4A79C" width="0.6" height="1.5"/>
	</g>
	<g>
		<line fill="none" x1="22.5" y1="18.3" x2="23.2" y2="18.3"/>
		<rect x="22.5" y="17.5" fill="#B4A79C" width="0.6" height="1.5"/>
	</g>
	<g>
		<line fill="none" x1="16" y1="11.1" x2="16" y2="11.8"/>
		<rect x="15.2" y="11.1" fill="#B4A79C" width="1.5" height="0.6"/>
	</g>
	<g>
		<line fill="none" x1="16" y1="24.8" x2="16" y2="25.4"/>
		<rect x="15.2" y="24.8" fill="#B4A79C" width="1.5" height="0.6"/>
	</g>
	<g>
		<line fill="none" x1="8.8" y1="18.3" x2="9.5" y2="18.3"/>
		<rect x="8.8" y="17.5" fill="#B4A79C" width="0.6" height="1.5"/>
	</g>
	<g>
		<line fill="none" x1="22.5" y1="18.3" x2="23.2" y2="18.3"/>
		<rect x="22.5" y="17.5" fill="#B4A79C" width="0.6" height="1.5"/>
	</g>
	<g>
		<line fill="none" x1="16" y1="11.1" x2="16" y2="11.8"/>
		<rect x="15.2" y="11.1" fill="#B4A79C" width="1.5" height="0.6"/>
	</g>
	<g>
		<line fill="none" x1="16" y1="24.8" x2="16" y2="25.4"/>
		<rect x="15.2" y="24.8" fill="#B4A79C" width="1.5" height="0.6"/>
	</g>
	<g>
		<path fill="#8F9BA8" d="M16,6c-1.4,0-2.6-1.2-2.6-2.6s1.2-2.6,2.6-2.6s2.6,1.2,2.6,2.6S17.4,6,16,6z M16,2.2
			c-0.6,0-1.1,0.5-1.1,1.1s0.5,1.1,1.1,1.1s1.1-0.5,1.1-1.1C17.1,2.8,16.6,2.2,16,2.2z"/>
	</g>
</g>
</svg>
