<?xml version="1.0" encoding="utf-8"?>
<!-- Generator: Adobe Illustrator 18.0.0, SVG Export Plug-In . SVG Version: 6.00 Build 0)  -->
<!DOCTYPE svg PUBLIC "-//W3C//DTD SVG 1.1//EN" "http://www.w3.org/Graphics/SVG/1.1/DTD/svg11.dtd">
<svg version="1.1" id="Layer_1" xmlns="http://www.w3.org/2000/svg" xmlns:xlink="http://www.w3.org/1999/xlink" x="0px" y="0px"
	 viewBox="0 0 32 32" enable-background="new 0 0 32 32" xml:space="preserve">
<g>
	<g>
		<g>
			<defs>
				<circle id="SVGID_5_" cx="16" cy="-16.9" r="3.1"/>
			</defs>
			<clipPath id="SVGID_2_">
				<use xlink:href="#SVGID_5_"  overflow="visible"/>
			</clipPath>
			<g clip-path="url(#SVGID_2_)">
				<rect x="-0.7" y="-18.2" fill="none" width="24.1" height="24.1"/>
				<rect x="-0.7" y="-18.2" fill="#FEE99B" width="24.1" height="24.1"/>
			</g>
		</g>
	</g>
</g>
<g>
	<g>
		<path fill="#79C693" d="M16,31.2C7.6,31.2,0.7,24.4,0.7,16S7.6,0.7,16,0.7S31.2,7.6,31.2,16S24.4,31.2,16,31.2z M16,2.2
			C8.4,2.2,2.2,8.4,2.2,16S8.4,29.7,16,29.7c7.6,0,13.8-6.2,13.8-13.7S23.6,2.2,16,2.2z"/>
	</g>
	<g>
		<path fill="#79C693" d="M10.2,22.5c-0.2,0-0.4-0.1-0.5-0.2c-0.2-0.2-0.3-0.6-0.2-0.8l3.7-7.9c0.1-0.2,0.2-0.3,0.4-0.4l7.9-3.7
			c0.3-0.1,0.6-0.1,0.8,0.2c0.2,0.2,0.3,0.6,0.2,0.8l-3.7,7.9c-0.1,0.2-0.2,0.3-0.4,0.4l-7.9,3.7C10.4,22.5,10.3,22.5,10.2,22.5z
			 M14.4,14.4l-2.7,5.8l5.8-2.7l2.7-5.8L14.4,14.4z"/>
	</g>
	<g>
		<rect x="3.4" y="15.3" fill="#79C693" width="1.1" height="1.5"/>
	</g>
	<g>
		<rect x="27.4" y="15.3" fill="#79C693" width="1.1" height="1.5"/>
	</g>
	<g>
		<rect x="15.3" y="3.4" fill="#79C693" width="1.5" height="1.1"/>
	</g>
	<g>
		<rect x="15.3" y="27.4" fill="#79C693" width="1.5" height="1.1"/>
	</g>
	<g>
		<rect x="3.4" y="15.3" fill="#79C693" width="1.1" height="1.5"/>
	</g>
	<g>
		<rect x="27.4" y="15.3" fill="#79C693" width="1.1" height="1.5"/>
	</g>
	<g>
		<rect x="15.3" y="3.4" fill="#79C693" width="1.5" height="1.1"/>
	</g>
	<g>
		<rect x="15.3" y="27.4" fill="#79C693" width="1.5" height="1.1"/>
	</g>
</g>
</svg>
