<?xml version="1.0" encoding="utf-8"?>
<!-- Generator: Adobe Illustrator 18.0.0, SVG Export Plug-In . SVG Version: 6.00 Build 0)  -->
<!DOCTYPE svg PUBLIC "-//W3C//DTD SVG 1.1//EN" "http://www.w3.org/Graphics/SVG/1.1/DTD/svg11.dtd">
<svg version="1.1" id="Layer_1" xmlns="http://www.w3.org/2000/svg" xmlns:xlink="http://www.w3.org/1999/xlink" x="0px" y="0px"
	 viewBox="0 0 32 32" enable-background="new 0 0 32 32" xml:space="preserve">
<g>
	<g>
		<path fill="#B4A79C" d="M15.8,26.3C15.8,26.3,15.8,26.3,15.8,26.3c-0.4,0-0.7-0.3-0.7-0.6l-1.6-7.1l-7.1-1.6
			c-0.3-0.1-0.6-0.3-0.6-0.7c0-0.3,0.1-0.6,0.4-0.8L23,8.2c0.3-0.1,0.6-0.1,0.8,0.2c0.2,0.2,0.3,0.6,0.2,0.8l-7.5,16.7
			C16.4,26.1,16.1,26.3,15.8,26.3z M9,16.1l5.3,1.2c0.3,0.1,0.5,0.3,0.6,0.6l1.2,5.3l5.8-12.8L9,16.1z"/>
	</g>
	<g>
		<path fill="#B4A79C" d="M16,31.2C7.6,31.2,0.7,24.4,0.7,16S7.6,0.7,16,0.7S31.2,7.6,31.2,16S24.4,31.2,16,31.2z M16,2.2
			C8.4,2.2,2.2,8.4,2.2,16S8.4,29.7,16,29.7c7.6,0,13.8-6.2,13.8-13.7S23.6,2.2,16,2.2z"/>
	</g>
</g>
</svg>
