<?xml version="1.0" encoding="utf-8"?>
<!-- Generator: Adobe Illustrator 18.0.0, SVG Export Plug-In . SVG Version: 6.00 Build 0)  -->
<!DOCTYPE svg PUBLIC "-//W3C//DTD SVG 1.1//EN" "http://www.w3.org/Graphics/SVG/1.1/DTD/svg11.dtd">
<svg version="1.1" id="Layer_1" xmlns="http://www.w3.org/2000/svg" xmlns:xlink="http://www.w3.org/1999/xlink" x="0px" y="0px"
	 viewBox="0 0 32 32" enable-background="new 0 0 32 32" xml:space="preserve">
<g>
	<g>
		<rect x="15.2" y="4.5" fill="#DA8C8C" width="1.5" height="3.5"/>
	</g>
	<g>
		<path fill="#DA8C8C" d="M16,5.2c-1.2,0-2.3-1-2.3-2.3s1-2.3,2.3-2.3c1.2,0,2.3,1,2.3,2.3S17.2,5.2,16,5.2z M16,2.2
			c-0.4,0-0.8,0.3-0.8,0.8s0.3,0.8,0.8,0.8c0.4,0,0.8-0.3,0.8-0.8S16.4,2.2,16,2.2z"/>
	</g>
	<g>
		<rect x="15.2" y="24" fill="#DA8C8C" width="1.5" height="3.5"/>
	</g>
	<g>
		<path fill="#DA8C8C" d="M16,31.3c-1.2,0-2.3-1-2.3-2.3s1-2.3,2.3-2.3c1.2,0,2.3,1,2.3,2.3S17.2,31.3,16,31.3z M16,28.3
			c-0.4,0-0.8,0.3-0.8,0.8c0,0.4,0.3,0.8,0.8,0.8c0.4,0,0.8-0.3,0.8-0.8C16.7,28.6,16.4,28.3,16,28.3z"/>
	</g>
	<g>
		<rect x="24" y="15.3" fill="#DA8C8C" width="3.5" height="1.5"/>
	</g>
	<g>
		<path fill="#DA8C8C" d="M29,18.3c-1.2,0-2.3-1-2.3-2.3s1-2.3,2.3-2.3c1.2,0,2.3,1,2.3,2.3S30.2,18.3,29,18.3z M29,15.3
			c-0.4,0-0.8,0.3-0.8,0.8c0,0.4,0.3,0.8,0.8,0.8c0.4,0,0.8-0.3,0.8-0.8C29.8,15.6,29.4,15.3,29,15.3z"/>
	</g>
	<g>
		<rect x="4.5" y="15.2" fill="#DA8C8C" width="3.5" height="1.5"/>
	</g>
	<g>
		<path fill="#DA8C8C" d="M3,18.2c-1.2,0-2.3-1-2.3-2.2s1-2.3,2.3-2.3c1.2,0,2.2,1,2.2,2.3S4.2,18.2,3,18.2z M3,15.2
			c-0.4,0-0.8,0.3-0.8,0.8s0.3,0.7,0.8,0.7c0.4,0,0.8-0.3,0.8-0.7S3.4,15.2,3,15.2z"/>
	</g>
	<g>
		
			<rect x="22.2" y="7.4" transform="matrix(0.7071 0.7071 -0.7071 0.7071 13.1394 -13.5366)" fill="#DA8C8C" width="1.5" height="3.5"/>
	</g>
	<g>
		<path fill="#DA8C8C" d="M25.2,9.1c-0.6,0-1.2-0.2-1.6-0.7c-0.9-0.9-0.9-2.3,0-3.2c0.9-0.9,2.3-0.9,3.2,0c0.9,0.9,0.9,2.3,0,3.2
			C26.4,8.8,25.8,9.1,25.2,9.1z M25.2,6.1c-0.2,0-0.4,0.1-0.5,0.2c-0.3,0.3-0.3,0.8,0,1.1c0.3,0.3,0.8,0.3,1.1,0
			C26,7,26,6.6,25.7,6.3C25.6,6.1,25.4,6.1,25.2,6.1z"/>
	</g>
	<g>
		
			<rect x="8.3" y="21.2" transform="matrix(0.7071 0.7071 -0.7071 0.7071 18.8627 0.2817)" fill="#DA8C8C" width="1.5" height="3.5"/>
	</g>
	<g>
		<path fill="#DA8C8C" d="M6.8,27.4c-0.6,0-1.2-0.2-1.6-0.7c-0.4-0.4-0.7-1-0.7-1.6c0-0.6,0.2-1.2,0.7-1.6c0.8-0.8,2.3-0.8,3.2,0
			c0.9,0.9,0.9,2.3,0,3.2C8,27.2,7.4,27.4,6.8,27.4z M6.8,24.4c-0.2,0-0.4,0.1-0.5,0.2c-0.1,0.1-0.2,0.3-0.2,0.5
			c0,0.2,0.1,0.4,0.2,0.5c0.3,0.3,0.8,0.3,1.1,0c0.3-0.3,0.3-0.8,0-1.1C7.2,24.5,7,24.4,6.8,24.4z"/>
	</g>
	<g>
		
			<rect x="21.2" y="22.2" transform="matrix(0.707 0.7072 -0.7072 0.707 22.912 -9.4891)" fill="#DA8C8C" width="3.5" height="1.5"/>
	</g>
	<g>
		<path fill="#DA8C8C" d="M25.2,27.4c-0.6,0-1.2-0.2-1.6-0.7c-0.9-0.9-0.9-2.3,0-3.2c0.9-0.9,2.3-0.9,3.2,0c0.9,0.9,0.9,2.3,0,3.2
			C26.4,27.2,25.8,27.4,25.2,27.4z M25.2,24.4c-0.2,0-0.4,0.1-0.5,0.2c-0.3,0.3-0.3,0.8,0,1.1c0.3,0.3,0.8,0.3,1.1,0
			c0.3-0.3,0.3-0.8,0-1.1C25.6,24.5,25.4,24.4,25.2,24.4z"/>
	</g>
	<g>
		<rect x="7.4" y="8.3" transform="matrix(0.707 0.7072 -0.7072 0.707 9.0926 -3.7658)" fill="#DA8C8C" width="3.5" height="1.5"/>
	</g>
	<g>
		<path fill="#DA8C8C" d="M6.8,9.1c-0.6,0-1.2-0.2-1.6-0.7c-0.9-0.9-0.9-2.3,0-3.2c0.8-0.8,2.3-0.9,3.2,0c0.9,0.9,0.9,2.3,0,3.2
			C8,8.8,7.4,9.1,6.8,9.1z M6.8,6.1c-0.2,0-0.4,0.1-0.5,0.2C6,6.6,6,7,6.3,7.3c0.3,0.3,0.8,0.3,1.1,0c0.3-0.3,0.3-0.8,0-1.1
			C7.2,6.1,7,6.1,6.8,6.1z"/>
	</g>
	<g>
		<path fill="#DA8C8C" d="M16,24.8c-4.8,0-8.8-3.9-8.8-8.8s3.9-8.8,8.8-8.8c4.8,0,8.8,3.9,8.8,8.8S20.8,24.8,16,24.8z M16,8.7
			c-4,0-7.3,3.3-7.3,7.3c0,4,3.3,7.3,7.3,7.3c4,0,7.3-3.3,7.3-7.3C23.3,12,20,8.7,16,8.7z"/>
	</g>
	<g>
		<path fill="#DA8C8C" d="M16,21.9c-3.2,0-5.9-2.6-5.9-5.9s2.6-5.9,5.9-5.9c3.2,0,5.9,2.6,5.9,5.9S19.2,21.9,16,21.9z M16,11.6
			c-2.4,0-4.4,2-4.4,4.4c0,2.4,2,4.4,4.4,4.4c2.4,0,4.4-2,4.4-4.4C20.4,13.6,18.4,11.6,16,11.6z"/>
	</g>
	<g>
		<rect x="15.2" y="10.9" fill="#DA8C8C" width="1.5" height="10.3"/>
	</g>
	<g>
		<rect x="10.9" y="15.2" fill="#DA8C8C" width="10.3" height="1.5"/>
	</g>
</g>
</svg>
