<?xml version="1.0" encoding="utf-8"?>
<!-- Generator: Adobe Illustrator 18.0.0, SVG Export Plug-In . SVG Version: 6.00 Build 0)  -->
<!DOCTYPE svg PUBLIC "-//W3C//DTD SVG 1.1//EN" "http://www.w3.org/Graphics/SVG/1.1/DTD/svg11.dtd">
<svg version="1.1" id="Layer_1" xmlns="http://www.w3.org/2000/svg" xmlns:xlink="http://www.w3.org/1999/xlink" x="0px" y="0px"
	 viewBox="0 0 32 32" enable-background="new 0 0 32 32" xml:space="preserve">
<g>
	<g>
		<path fill="#74B1E0" d="M16,31.2c-5,0-9.5-3-11.5-7.6L5.9,23c1.7,4,5.7,6.6,10.1,6.6S24.3,27,26.1,23l1.4,0.6
			C25.5,28.3,21,31.2,16,31.2z"/>
	</g>
	<g>
		<rect x="15.2" y="5.6" fill="#74B1E0" width="1.5" height="24.9"/>
	</g>
	<g>
		<path fill="#74B1E0" d="M16,6.4c-1.5,0-2.8-1.3-2.8-2.8s1.3-2.8,2.8-2.8s2.8,1.3,2.8,2.8S17.5,6.4,16,6.4z M16,2.2
			c-0.7,0-1.3,0.6-1.3,1.3s0.6,1.3,1.3,1.3c0.7,0,1.3-0.6,1.3-1.3S16.7,2.2,16,2.2z"/>
	</g>
	<g>
		<rect x="12.6" y="9.4" fill="#74B1E0" width="6.9" height="1.5"/>
	</g>
	<g>
		<polygon fill="#74B1E0" points="27.1,26.6 26.3,24.3 24,25.1 23.6,23.7 27.2,22.4 28.5,26.1 		"/>
	</g>
	<g>
		<polygon fill="#74B1E0" points="4.9,26.6 3.5,26.1 4.8,22.4 8.4,23.7 8,25.1 5.7,24.3 		"/>
	</g>
</g>
</svg>
