<?xml version="1.0" encoding="utf-8"?>
<!-- Generator: Adobe Illustrator 18.0.0, SVG Export Plug-In . SVG Version: 6.00 Build 0)  -->
<!DOCTYPE svg PUBLIC "-//W3C//DTD SVG 1.1//EN" "http://www.w3.org/Graphics/SVG/1.1/DTD/svg11.dtd">
<svg version="1.1" id="Layer_1" xmlns="http://www.w3.org/2000/svg" xmlns:xlink="http://www.w3.org/1999/xlink" x="0px" y="0px"
	 viewBox="0 0 32 32" enable-background="new 0 0 32 32" xml:space="preserve">
<g>
	<g>
		<path fill="#B4A79C" d="M22.9,31.2H9.1c-1.5,0-2.7-1.2-2.7-2.7V6.7C6.4,5.2,7.6,4,9.1,4h13.8c1.5,0,2.7,1.2,2.7,2.7v21.8
			C25.6,30,24.4,31.2,22.9,31.2z M9.1,5.6C8.5,5.6,8,6.1,8,6.7v21.8c0,0.6,0.5,1.1,1.1,1.1h13.8c0.6,0,1.1-0.5,1.1-1.1V6.7
			c0-0.6-0.5-1.1-1.1-1.1H9.1z"/>
	</g>
	<g>
		<rect x="10.5" y="8.6" fill="#F9F8F2" width="11.1" height="8.6"/>
		<path fill="#B4A79C" d="M22.3,17.9H9.7V7.8h12.6V17.9z M11.2,16.4h9.5v-7h-9.5C11.2,9.4,11.2,16.4,11.2,16.4z"/>
	</g>
	<g>
		<g>
			<line fill="none" x1="10.5" y1="19.7" x2="10.5" y2="20.8"/>
			<rect x="9.7" y="19.7" fill="#B4A79C" width="1.5" height="1.1"/>
		</g>
		<g>
			<line fill="none" x1="14.2" y1="19.7" x2="14.2" y2="20.8"/>
			<rect x="13.4" y="19.7" fill="#B4A79C" width="1.5" height="1.1"/>
		</g>
		<g>
			<line fill="none" x1="17.8" y1="19.7" x2="17.8" y2="20.8"/>
			<rect x="17.1" y="19.7" fill="#B4A79C" width="1.5" height="1.1"/>
		</g>
		<g>
			<line fill="none" x1="21.5" y1="19.7" x2="21.5" y2="20.8"/>
			<rect x="20.8" y="19.7" fill="#B4A79C" width="1.5" height="1.1"/>
		</g>
	</g>
	<g>
		<g>
			<line fill="none" x1="10.5" y1="23" x2="10.5" y2="24.1"/>
			<rect x="9.7" y="23" fill="#B4A79C" width="1.5" height="1.1"/>
		</g>
		<g>
			<line fill="none" x1="14.2" y1="23" x2="14.2" y2="24.1"/>
			<rect x="13.4" y="23" fill="#B4A79C" width="1.5" height="1.1"/>
		</g>
		<g>
			<line fill="none" x1="17.8" y1="23" x2="17.8" y2="24.1"/>
			<rect x="17.1" y="23" fill="#B4A79C" width="1.5" height="1.1"/>
		</g>
		<g>
			<line fill="none" x1="21.5" y1="23" x2="21.5" y2="24.1"/>
			<rect x="20.8" y="23" fill="#B4A79C" width="1.5" height="1.1"/>
		</g>
	</g>
	<g>
		<g>
			<line fill="none" x1="10.5" y1="26.4" x2="10.5" y2="27.4"/>
			<rect x="9.7" y="26.4" fill="#B4A79C" width="1.5" height="1.1"/>
		</g>
		<g>
			<line fill="none" x1="14.2" y1="26.4" x2="14.2" y2="27.4"/>
			<rect x="13.4" y="26.4" fill="#B4A79C" width="1.5" height="1.1"/>
		</g>
		<g>
			<line fill="none" x1="17.8" y1="26.4" x2="17.8" y2="27.4"/>
			<rect x="17.1" y="26.4" fill="#B4A79C" width="1.5" height="1.1"/>
		</g>
		<g>
			<line fill="none" x1="21.5" y1="26.4" x2="21.5" y2="27.4"/>
			<rect x="20.8" y="26.4" fill="#B4A79C" width="1.5" height="1.1"/>
		</g>
	</g>
	<g>
		<rect x="10.4" y="0.8" fill="#B4A79C" width="1.5" height="4.1"/>
	</g>
</g>
</svg>
