<?xml version="1.0" encoding="utf-8"?>
<!-- Generator: Adobe Illustrator 18.0.0, SVG Export Plug-In . SVG Version: 6.00 Build 0)  -->
<!DOCTYPE svg PUBLIC "-//W3C//DTD SVG 1.1//EN" "http://www.w3.org/Graphics/SVG/1.1/DTD/svg11.dtd">
<svg version="1.1" id="Layer_1" xmlns="http://www.w3.org/2000/svg" xmlns:xlink="http://www.w3.org/1999/xlink" x="0px" y="0px"
	 viewBox="0 0 32 32" enable-background="new 0 0 32 32" xml:space="preserve">
<g>
	<g>
		<rect x="1.5" y="5.4" fill="#FFFFFF" width="29" height="21.3"/>
		<path fill="#8F9BA8" d="M30.5,27.4h-29c-0.4,0-0.8-0.3-0.8-0.8V5.4C0.7,5,1,4.6,1.5,4.6h29c0.4,0,0.8,0.3,0.8,0.8v21.3
			C31.3,27.1,30.9,27.4,30.5,27.4z M2.3,25.9h27.5V6.1H2.3V25.9z"/>
	</g>
	<g>
		<polygon fill="#FAC2C3" points="1.5,5.4 16,20.4 30.4,5.4 		"/>
		<path fill="#DA8C8C" d="M16,21.1L16,21.1c-0.2,0-0.4-0.1-0.5-0.2L1,5.9C0.8,5.7,0.7,5.3,0.8,5.1c0.1-0.3,0.4-0.5,0.7-0.5h28.9
			c0.3,0,0.6,0.2,0.7,0.5s0.1,0.6-0.2,0.8l-14.5,15C16.4,21,16.2,21.1,16,21.1z M3.3,6.1L16,19.3L28.7,6.1H3.3z"/>
	</g>
</g>
</svg>
