<?xml version="1.0" encoding="utf-8"?>
<!-- Generator: Adobe Illustrator 18.0.0, SVG Export Plug-In . SVG Version: 6.00 Build 0)  -->
<!DOCTYPE svg PUBLIC "-//W3C//DTD SVG 1.1//EN" "http://www.w3.org/Graphics/SVG/1.1/DTD/svg11.dtd">
<svg version="1.1" id="Layer_1" xmlns="http://www.w3.org/2000/svg" xmlns:xlink="http://www.w3.org/1999/xlink" x="0px" y="0px"
	 viewBox="0 0 32 32" enable-background="new 0 0 32 32" xml:space="preserve">
<g>
	<g>
		<path fill="#79C693" d="M16,27.9c-1.4,0-2.8-0.2-4.1-0.6c-0.3-0.1-0.5-0.3-0.5-0.6c-0.2-2.1-1.3-4.5-2.9-6.5
			c-2-2.6-4.6-4.4-6.9-4.8C1.3,15.3,1,15.1,1,14.8c-0.1-0.7-0.1-1.4-0.1-2.1c0-2.9,0.8-5.8,2.4-8.2C3.3,4.2,3.7,4,4,4.1
			c3.3,1,7.6,1.6,12,1.6s8.7-0.6,12-1.6c0.3-0.1,0.7,0,0.9,0.3c1.6,2.5,2.4,5.3,2.4,8.2c0,0.7,0,1.4-0.1,2.1c0,0.3-0.3,0.6-0.6,0.6
			c-2.3,0.4-4.9,2.2-6.9,4.8c-1.6,2.1-2.7,4.5-2.9,6.5c0,0.3-0.2,0.6-0.5,0.6C18.8,27.7,17.4,27.9,16,27.9z M12.7,26
			c2.1,0.5,4.4,0.5,6.5,0c0.4-2.2,1.5-4.6,3.1-6.8c2.1-2.7,4.8-4.6,7.3-5.2c0-0.5,0.1-0.9,0.1-1.3c0-2.4-0.6-4.8-1.9-6.9
			c-3.4,1-7.5,1.5-11.9,1.5C11.6,7.3,7.4,6.8,4,5.8c-1.2,2.1-1.9,4.5-1.9,6.9c0,0.4,0,0.9,0.1,1.3c2.5,0.6,5.2,2.5,7.3,5.2
			C11.3,21.4,12.4,23.8,12.7,26z"/>
	</g>
</g>
</svg>
