<?xml version="1.0" encoding="utf-8"?>
<!-- Generator: Adobe Illustrator 18.0.0, SVG Export Plug-In . SVG Version: 6.00 Build 0)  -->
<!DOCTYPE svg PUBLIC "-//W3C//DTD SVG 1.1//EN" "http://www.w3.org/Graphics/SVG/1.1/DTD/svg11.dtd">
<svg version="1.1" id="Layer_1" xmlns="http://www.w3.org/2000/svg" xmlns:xlink="http://www.w3.org/1999/xlink" x="0px" y="0px"
	 viewBox="0 0 32 32" enable-background="new 0 0 32 32" xml:space="preserve">
<g>
	<g>
		<polygon fill="#FAC2C3" points="30.5,30.5 1.5,30.5 7.8,1.5 24.2,1.5 		"/>
		<path fill="#DA8C8C" d="M30.5,31.2h-29c-0.2,0-0.4-0.1-0.6-0.3c-0.1-0.2-0.2-0.4-0.1-0.6L7,1.3C7.1,1,7.4,0.7,7.8,0.7h16.4
			c0.4,0,0.7,0.2,0.7,0.6l6.3,29c0,0.2,0,0.5-0.1,0.6C30.9,31.1,30.7,31.2,30.5,31.2z M2.4,29.7h27.1l-6-27.5H8.4L2.4,29.7z"/>
	</g>
	<g>
		<line fill="#FAC2C3" x1="16" y1="3.5" x2="16" y2="6.1"/>
		<rect x="15.3" y="3.5" fill="#DA8C8C" width="1.5" height="2.6"/>
	</g>
	<g>
		<line fill="#FAC2C3" x1="16" y1="9.1" x2="16" y2="11.7"/>
		<rect x="15.3" y="9.1" fill="#DA8C8C" width="1.5" height="2.6"/>
	</g>
	<g>
		<line fill="#FAC2C3" x1="16" y1="14.7" x2="16" y2="17.3"/>
		<rect x="15.3" y="14.7" fill="#DA8C8C" width="1.5" height="2.6"/>
	</g>
	<g>
		<line fill="#FAC2C3" x1="16" y1="20.3" x2="16" y2="22.9"/>
		<rect x="15.3" y="20.3" fill="#DA8C8C" width="1.5" height="2.6"/>
	</g>
	<g>
		<line fill="#FAC2C3" x1="16" y1="25.9" x2="16" y2="28.5"/>
		<rect x="15.3" y="25.9" fill="#DA8C8C" width="1.5" height="2.6"/>
	</g>
</g>
</svg>
