<?xml version="1.0" encoding="utf-8"?>
<!-- Generator: Adobe Illustrator 18.0.0, SVG Export Plug-In . SVG Version: 6.00 Build 0)  -->
<!DOCTYPE svg PUBLIC "-//W3C//DTD SVG 1.1//EN" "http://www.w3.org/Graphics/SVG/1.1/DTD/svg11.dtd">
<svg version="1.1" id="Layer_1" xmlns="http://www.w3.org/2000/svg" xmlns:xlink="http://www.w3.org/1999/xlink" x="0px" y="0px"
	 viewBox="0 0 32 32" enable-background="new 0 0 32 32" xml:space="preserve">
<g>
	<g>
		<path fill="#B4A79C" d="M8.8,21.8H3.8c-0.4,0-0.7-0.3-0.7-0.6c-0.3-1.8-0.5-3.5-0.5-5.2c0-1.9,0.2-3.9,0.6-5.8
			c0.1-0.4,0.4-0.6,0.7-0.6h5c0.2,0,0.4,0.1,0.6,0.3c0.1,0.2,0.2,0.4,0.2,0.6c-0.2,1.8-0.3,3.7-0.3,5.6c0,1.6,0.1,3.3,0.3,5
			c0,0.2,0,0.4-0.2,0.6C9.3,21.7,9,21.8,8.8,21.8z M4.4,20.3H8c-0.1-1.5-0.2-2.9-0.2-4.3c0-1.6,0.1-3.3,0.2-4.9H4.5
			c-0.3,1.6-0.4,3.3-0.4,4.9C4.1,17.4,4.2,18.9,4.4,20.3z"/>
	</g>
	<g>
		<path fill="#B4A79C" d="M24.5,31.2H21c-0.3,0-0.5-0.1-0.6-0.3c-0.1-0.2-0.2-0.5-0.1-0.7c0.6-1.4,1.1-3.1,1.5-5
			c0.1-0.3,0.4-0.6,0.7-0.6h4.6c0.2,0,0.5,0.1,0.6,0.3c0.1,0.2,0.2,0.5,0.1,0.7c-0.7,2.1-1.7,3.9-2.8,5.4
			C24.9,31.1,24.7,31.2,24.5,31.2z M22.1,29.7h2c0.7-1.1,1.4-2.3,2-3.7h-2.9C22.8,27.4,22.5,28.6,22.1,29.7z"/>
	</g>
	<g>
		<path fill="#B4A79C" d="M26.9,6.8h-4.5c-0.4,0-0.7-0.2-0.7-0.6c-0.4-1.7-0.8-3.2-1.4-4.5c-0.1-0.2-0.1-0.5,0.1-0.7
			c0.1-0.2,0.4-0.3,0.6-0.3h3.5c0.2,0,0.5,0.1,0.6,0.3c1,1.4,1.9,3,2.5,4.8c0.1,0.2,0.1,0.5-0.1,0.7C27.4,6.7,27.1,6.8,26.9,6.8z
			 M23,5.3h2.8c-0.5-1.1-1.1-2.2-1.7-3.1h-2C22.4,3.2,22.7,4.2,23,5.3z"/>
	</g>
	<g>
		<path fill="#B4A79C" d="M9.6,6.8H5.1c-0.2,0-0.5-0.1-0.6-0.3C4.3,6.3,4.3,6,4.4,5.8C5.1,4,5.9,2.4,6.9,1.1
			c0.1-0.2,0.4-0.3,0.6-0.3H11c0.3,0,0.5,0.1,0.6,0.3c0.1,0.2,0.2,0.5,0.1,0.7c-0.5,1.3-1,2.8-1.4,4.5C10.3,6.6,10,6.8,9.6,6.8z
			 M6.2,5.3H9c0.3-1.1,0.6-2.1,0.9-3.1h-2C7.3,3.2,6.7,4.2,6.2,5.3z"/>
	</g>
	<g>
		<path fill="#B4A79C" d="M11,31.2H7.5c-0.2,0-0.5-0.1-0.6-0.3c-1.1-1.5-2-3.3-2.8-5.4c-0.1-0.2,0-0.5,0.1-0.7
			c0.1-0.2,0.4-0.3,0.6-0.3h4.6c0.4,0,0.7,0.2,0.7,0.6c0.4,1.9,0.9,3.6,1.5,5c0.1,0.2,0.1,0.5-0.1,0.7C11.5,31.1,11.3,31.2,11,31.2z
			 M7.9,29.7h2c-0.4-1.1-0.8-2.3-1.1-3.7H6C6.5,27.4,7.2,28.7,7.9,29.7z"/>
	</g>
	<g>
		<path fill="#B4A79C" d="M28.2,21.8h-5.1c-0.2,0-0.4-0.1-0.6-0.2c-0.1-0.2-0.2-0.4-0.2-0.6c0.2-1.7,0.3-3.4,0.3-5
			c0-1.9-0.1-3.7-0.3-5.6c0-0.2,0-0.4,0.2-0.6c0.1-0.2,0.3-0.3,0.6-0.3h5c0.4,0,0.7,0.3,0.7,0.6c0.4,1.9,0.6,3.9,0.6,5.8
			c0,1.7-0.2,3.4-0.5,5.2C28.9,21.6,28.6,21.8,28.2,21.8z M24,20.3h3.6c0.2-1.5,0.3-2.9,0.3-4.3c0-1.6-0.1-3.3-0.4-4.9h-3.6
			c0.2,1.6,0.2,3.3,0.2,4.9C24.2,17.4,24.1,18.9,24,20.3z"/>
	</g>
	<g>
		<path fill="#B4A79C" d="M16,21.8H8.8c-0.4,0-0.7-0.3-0.7-0.7c-0.2-1.7-0.3-3.5-0.3-5.1c0-1.9,0.1-3.9,0.3-5.8
			c0-0.4,0.4-0.7,0.7-0.7H16c0.4,0,0.8,0.3,0.8,0.8v10.7C16.8,21.5,16.4,21.8,16,21.8z M9.5,20.3h5.7v-9.2H9.6
			c-0.2,1.6-0.3,3.3-0.3,4.9C9.3,17.4,9.4,18.9,9.5,20.3z"/>
	</g>
	<g>
		<path fill="#B4A79C" d="M22.4,6.8H16c-0.4,0-0.8-0.3-0.8-0.8V1.5c0-0.4,0.3-0.8,0.8-0.8h5c0.3,0,0.6,0.2,0.7,0.5
			c0.6,1.4,1.1,3,1.5,4.7c0.1,0.2,0,0.5-0.1,0.6C22.8,6.7,22.6,6.8,22.4,6.8z M16.8,5.3h4.7c-0.3-1.1-0.6-2.2-1-3.1h-3.7V5.3z"/>
	</g>
	<g>
		<path fill="#B4A79C" d="M23.2,21.8H16c-0.4,0-0.8-0.3-0.8-0.8V10.3c0-0.4,0.3-0.8,0.8-0.8h7.1c0.4,0,0.7,0.3,0.7,0.7
			c0.2,1.9,0.3,3.8,0.3,5.8c0,1.7-0.1,3.4-0.3,5.1C23.9,21.5,23.5,21.8,23.2,21.8z M16.8,20.3h5.7c0.1-1.5,0.2-2.9,0.2-4.3
			c0-1.6-0.1-3.3-0.3-4.9h-5.7V20.3z"/>
	</g>
	<g>
		<path fill="#B4A79C" d="M16,6.8H9.6C9.4,6.8,9.2,6.7,9,6.6C8.9,6.4,8.8,6.1,8.9,5.9c0.4-1.8,0.9-3.3,1.5-4.7
			c0.1-0.3,0.4-0.5,0.7-0.5h5c0.4,0,0.8,0.3,0.8,0.8v4.6C16.8,6.5,16.4,6.8,16,6.8z M10.6,5.3h4.7V2.2h-3.7
			C11.2,3.2,10.8,4.2,10.6,5.3z"/>
	</g>
	<g>
		<path fill="#B4A79C" d="M21,31.2h-5c-0.4,0-0.8-0.3-0.8-0.8v-5.2c0-0.4,0.3-0.8,0.8-0.8h6.5c0.2,0,0.4,0.1,0.6,0.3
			c0.1,0.2,0.2,0.4,0.2,0.6c-0.4,2-1,3.8-1.6,5.3C21.5,31.1,21.3,31.2,21,31.2z M16.8,29.7h3.7c0.4-1.1,0.8-2.3,1.1-3.7h-4.8V29.7z"
			/>
	</g>
	<g>
		<path fill="#B4A79C" d="M16,31.2h-5c-0.3,0-0.6-0.2-0.7-0.5c-0.6-1.5-1.2-3.3-1.6-5.3c0-0.2,0-0.5,0.2-0.6
			c0.1-0.2,0.4-0.3,0.6-0.3H16c0.4,0,0.8,0.3,0.8,0.8v5.2C16.8,30.9,16.4,31.2,16,31.2z M11.5,29.7h3.7v-3.7h-4.8
			C10.7,27.4,11.1,28.7,11.5,29.7z"/>
	</g>
	<g>
		<path fill="#F9F8F2" d="M26.9,6.1h-4.5H16H9.6H5.1c-0.5,1.3-0.9,2.7-1.2,4.2h5H16h7.1h5C27.8,8.8,27.4,7.4,26.9,6.1z"/>
		<path fill="#B4A79C" d="M28.1,11.1H3.9c-0.2,0-0.4-0.1-0.6-0.3c-0.1-0.2-0.2-0.4-0.2-0.6c0.3-1.6,0.7-3,1.2-4.4
			c0.1-0.3,0.4-0.5,0.7-0.5h21.8c0.3,0,0.6,0.2,0.7,0.5c0.5,1.3,0.9,2.8,1.2,4.4c0,0.2,0,0.4-0.2,0.6C28.5,11,28.3,11.1,28.1,11.1z
			 M4.8,9.6h22.4c-0.2-1-0.5-1.9-0.8-2.7H5.6C5.3,7.7,5,8.6,4.8,9.6z"/>
	</g>
	<g>
		<path fill="#F9F8F2" d="M23.2,21.1H16H8.8H3.8C4,22.6,4.4,24,4.9,25.3h4.6H16h6.5h4.6c0.5-1.3,0.8-2.8,1.1-4.2H23.2z"/>
		<path fill="#B4A79C" d="M27.1,26.1H4.9c-0.3,0-0.6-0.2-0.7-0.5c-0.5-1.4-0.9-2.8-1.1-4.4c0-0.2,0-0.4,0.2-0.6
			c0.1-0.2,0.4-0.3,0.6-0.3h24.4c0.2,0,0.4,0.1,0.6,0.3c0.1,0.2,0.2,0.4,0.2,0.6c-0.3,1.5-0.7,3-1.1,4.4
			C27.7,25.9,27.4,26.1,27.1,26.1z M5.4,24.6h21.2c0.3-0.9,0.5-1.8,0.7-2.7H4.7C4.9,22.8,5.1,23.7,5.4,24.6z"/>
	</g>
	<g>
		<rect x="9.3" y="7.7" fill="#B4A79C" width="1.5" height="1"/>
	</g>
	<g>
		<rect x="15.3" y="7.7" fill="#B4A79C" width="1.5" height="1"/>
	</g>
	<g>
		<rect x="21.2" y="7.7" fill="#B4A79C" width="1.5" height="1"/>
	</g>
	<g>
		<rect x="9.3" y="22.7" fill="#B4A79C" width="1.5" height="1"/>
	</g>
	<g>
		<rect x="15.3" y="22.7" fill="#B4A79C" width="1.5" height="1"/>
	</g>
	<g>
		<rect x="21.2" y="22.7" fill="#B4A79C" width="1.5" height="1"/>
	</g>
</g>
</svg>
