<?xml version="1.0" encoding="utf-8"?>
<!-- Generator: Adobe Illustrator 18.0.0, SVG Export Plug-In . SVG Version: 6.00 Build 0)  -->
<!DOCTYPE svg PUBLIC "-//W3C//DTD SVG 1.1//EN" "http://www.w3.org/Graphics/SVG/1.1/DTD/svg11.dtd">
<svg version="1.1" id="Layer_1" xmlns="http://www.w3.org/2000/svg" xmlns:xlink="http://www.w3.org/1999/xlink" x="0px" y="0px"
	 viewBox="0 0 32 32" enable-background="new 0 0 32 32" xml:space="preserve">
<g>
	<g>
		<path fill="#74B1E0" d="M16,31.2C7.6,31.2,0.8,24.4,0.8,16S7.6,0.7,16,0.7S31.3,7.6,31.3,16S24.4,31.2,16,31.2z M16,2.2
			C8.4,2.2,2.3,8.4,2.3,16s6.2,13.7,13.8,13.7S29.9,23.5,29.9,16C29.8,8.4,23.6,2.2,16,2.2z"/>
	</g>
	<g>
		<path fill="#CDE4F7" d="M22.5,17.1c-0.7,1.1-1.9,1.7-3.3,1.7s-2.6-0.7-3.3-1.7c-0.7,1.1-1.9,1.7-3.3,1.7s-2.6-0.7-3.3-1.7
			c-0.5,0.8-1.4,1.4-2.4,1.6c1.2,3.8,4.7,6.6,8.9,6.6s7.7-2.8,8.9-6.6C23.9,18.5,23.1,17.9,22.5,17.1z"/>
		<path fill="#74B1E0" d="M16,26c-4.5,0-8.3-2.9-9.6-7.1c-0.1-0.2,0-0.4,0.1-0.6C6.6,18.1,6.7,18,6.9,18c0.8-0.2,1.5-0.7,1.9-1.3
			c0.1-0.2,0.4-0.3,0.6-0.3l0,0c0.3,0,0.5,0.1,0.6,0.3c0.6,0.9,1.6,1.4,2.6,1.4c1.1,0,2-0.5,2.6-1.4c0.3-0.4,1-0.4,1.2,0
			c0.6,0.9,1.6,1.4,2.6,1.4c1.1,0,2-0.5,2.6-1.4c0.3-0.4,1-0.4,1.2,0c0.4,0.7,1.1,1.1,1.9,1.3c0.2,0,0.4,0.2,0.5,0.4
			c0.1,0.2,0.1,0.4,0.1,0.6C24.3,23.2,20.5,26,16,26z M8.1,19.2c1.3,3.2,4.4,5.4,7.9,5.4s6.6-2.1,7.9-5.4c-0.5-0.2-1-0.5-1.4-0.9
			c-0.9,0.8-2,1.3-3.3,1.3c-1.2,0-2.4-0.5-3.3-1.3c-0.9,0.8-2,1.3-3.3,1.3c-1.2,0-2.4-0.5-3.3-1.3C9.1,18.6,8.6,18.9,8.1,19.2z"/>
	</g>
	<g>
		<path fill="#74B1E0" d="M19.3,19.6c-1.2,0-2.4-0.5-3.3-1.3c-0.9,0.8-2,1.3-3.3,1.3c-1.2,0-2.4-0.5-3.3-1.3c-0.6,0.6-1.4,1-2.2,1.2
			c-0.4,0.1-0.8-0.1-0.9-0.5C6.1,18,6,17,6,16c0-5.5,4.5-10,10-10s10,4.5,10,10c0,1-0.1,2-0.4,2.9c-0.1,0.4-0.5,0.6-0.9,0.5
			c-0.8-0.2-1.6-0.6-2.2-1.2C21.7,19.1,20.5,19.6,19.3,19.6z M16,16.3c0.3,0,0.5,0.1,0.6,0.3c0.6,0.9,1.6,1.4,2.6,1.4
			c1.1,0,2-0.5,2.6-1.4c0.3-0.4,1-0.4,1.2,0c0.3,0.5,0.7,0.8,1.2,1.1c0.1-0.6,0.2-1.1,0.2-1.7c0-4.7-3.8-8.5-8.5-8.5
			S7.4,11.3,7.4,16c0,0.6,0.1,1.2,0.2,1.7c0.5-0.2,0.9-0.6,1.2-1.1c0.1-0.2,0.4-0.3,0.6-0.3l0,0c0.3,0,0.5,0.1,0.6,0.3
			c0.6,0.9,1.6,1.4,2.6,1.4c1.1,0,2-0.5,2.6-1.4C15.5,16.4,15.7,16.3,16,16.3z"/>
	</g>
	<g>
		<rect x="15.3" y="3.2" fill="#74B1E0" width="1.5" height="1.4"/>
	</g>
	<g>
		<rect x="15.3" y="27.3" fill="#74B1E0" width="1.5" height="1.4"/>
	</g>
	<g>
		<rect x="3.2" y="15.3" fill="#74B1E0" width="1.4" height="1.5"/>
	</g>
	<g>
		<rect x="27.3" y="15.3" fill="#74B1E0" width="1.4" height="1.5"/>
	</g>
	<g>
		
			<rect x="6.7" y="6.7" transform="matrix(-0.707 -0.7072 0.7072 -0.707 7.4564 17.9004)" fill="#74B1E0" width="1.4" height="1.5"/>
	</g>
	<g>
		
			<rect x="23.8" y="23.8" transform="matrix(-0.7071 -0.7071 0.7071 -0.7071 24.471 59.1817)" fill="#74B1E0" width="1.4" height="1.5"/>
	</g>
	<g>
		
			<rect x="6.7" y="23.8" transform="matrix(-0.7071 -0.7071 0.7071 -0.7071 -4.5553 47.0992)" fill="#74B1E0" width="1.5" height="1.4"/>
	</g>
	<g>
		
			<rect x="23.8" y="6.7" transform="matrix(-0.7071 -0.7071 0.7071 -0.7071 36.7257 30.0826)" fill="#74B1E0" width="1.5" height="1.4"/>
	</g>
</g>
</svg>
