<?xml version="1.0" encoding="utf-8"?>
<!-- Generator: Adobe Illustrator 18.0.0, SVG Export Plug-In . SVG Version: 6.00 Build 0)  -->
<!DOCTYPE svg PUBLIC "-//W3C//DTD SVG 1.1//EN" "http://www.w3.org/Graphics/SVG/1.1/DTD/svg11.dtd">
<svg version="1.1" id="Layer_1" xmlns="http://www.w3.org/2000/svg" xmlns:xlink="http://www.w3.org/1999/xlink" x="0px" y="0px"
	 viewBox="0 0 32 32" enable-background="new 0 0 32 32" xml:space="preserve">
<g>
	<g>
		<path fill="#8F9BA8" d="M26.5,31.2H6.6v-1.5h19.9c1.8,0,3.3-1.5,3.3-3.3c0-1.8-1.5-3.3-3.3-3.3h-7.2c-2.2,0-4-1.8-4-4
			c0-2.2,1.8-4,4-4h6.1v1.5h-6.1c-1.4,0-2.5,1.1-2.5,2.5c0,1.4,1.1,2.5,2.5,2.5h7.2c2.6,0,4.8,2.1,4.8,4.8
			C31.2,29.1,29.1,31.2,26.5,31.2z"/>
	</g>
	<g>
		<path fill="#F9F8F2" d="M30.5,6.6c0,2.8-5.1,9.4-5.1,9.4s-5.1-6.6-5.1-9.4s2.3-5.1,5.1-5.1S30.5,3.8,30.5,6.6z"/>
		<path fill="#B4A79C" d="M25.4,16.7c-0.2,0-0.5-0.1-0.6-0.3c-0.5-0.7-5.2-6.9-5.2-9.9c0-3.2,2.6-5.8,5.8-5.8s5.8,2.6,5.8,5.8
			c0,3-4.7,9.2-5.2,9.9C25.9,16.6,25.7,16.7,25.4,16.7z M25.4,2.2c-2.4,0-4.3,1.9-4.3,4.3c0,1.8,2.7,6,4.3,8.2
			c1.6-2.2,4.3-6.3,4.3-8.2C29.7,4.2,27.8,2.2,25.4,2.2z"/>
	</g>
	<g>
		<circle fill="#FFFFFF" cx="25.4" cy="6.6" r="1.7"/>
		<path fill="#B4A79C" d="M25.4,9.1c-1.4,0-2.5-1.1-2.5-2.5c0-1.4,1.1-2.5,2.5-2.5c1.4,0,2.5,1.1,2.5,2.5
			C27.9,7.9,26.8,9.1,25.4,9.1z M25.4,5.6c-0.5,0-1,0.4-1,1s0.4,1,1,1c0.5,0,1-0.4,1-1S26,5.6,25.4,5.6z"/>
	</g>
	<g>
		<path fill="#F0F7F7" d="M11.7,21.1c0,2.8-5.1,9.4-5.1,9.4s-5.1-6.6-5.1-9.4S3.8,16,6.6,16S11.7,18.3,11.7,21.1z"/>
		<path fill="#8F9BA8" d="M6.6,31.2c-0.2,0-0.5-0.1-0.6-0.3c-0.5-0.7-5.2-6.9-5.2-9.9c0-3.2,2.6-5.8,5.8-5.8c3.2,0,5.8,2.6,5.8,5.8
			c0,3-4.7,9.2-5.2,9.9C7,31.1,6.8,31.2,6.6,31.2z M6.6,16.8c-2.4,0-4.3,1.9-4.3,4.3c0,1.8,2.7,6,4.3,8.2c1.6-2.2,4.3-6.3,4.3-8.2
			C10.9,18.7,9,16.8,6.6,16.8z"/>
	</g>
	<g>
		<circle fill="#FFFFFF" cx="6.6" cy="21.1" r="1.7"/>
		<path fill="#8F9BA8" d="M6.6,23.6c-1.4,0-2.5-1.1-2.5-2.5c0-1.4,1.1-2.5,2.5-2.5c1.4,0,2.5,1.1,2.5,2.5
			C9.1,22.5,7.9,23.6,6.6,23.6z M6.6,20.1c-0.5,0-1,0.4-1,1c0,0.5,0.4,1,1,1c0.5,0,1-0.4,1-1C7.6,20.5,7.1,20.1,6.6,20.1z"/>
	</g>
</g>
</svg>
