<?xml version="1.0" encoding="utf-8"?>
<!-- Generator: Adobe Illustrator 18.0.0, SVG Export Plug-In . SVG Version: 6.00 Build 0)  -->
<!DOCTYPE svg PUBLIC "-//W3C//DTD SVG 1.1//EN" "http://www.w3.org/Graphics/SVG/1.1/DTD/svg11.dtd">
<svg version="1.1" id="Layer_1" xmlns="http://www.w3.org/2000/svg" xmlns:xlink="http://www.w3.org/1999/xlink" x="0px" y="0px"
	 viewBox="0 0 32 32" enable-background="new 0 0 32 32" xml:space="preserve">
<g>
	<g>
		<path fill="#8F9BA8" d="M31.2,30H0.7V8h30.5V30z M2.2,28.5h27.5v-19H2.2V28.5z"/>
	</g>
	<g>
		<path fill="#8F9BA8" d="M31.2,9.5H0.7V2h30.5V9.5z M2.2,8h27.5V3.5H2.2V8z"/>
	</g>
	<g>
		<path fill="#DA8C8C" d="M20.7,26h-9.4c-0.4,0-0.8-0.3-0.8-0.8v-5H8.9c-0.3,0-0.6-0.2-0.7-0.5c-0.1-0.3,0-0.6,0.2-0.8l7.1-6.7
			c0.3-0.3,0.7-0.3,1,0l7.1,6.7c0.2,0.2,0.3,0.5,0.2,0.8c-0.1,0.3-0.4,0.5-0.7,0.5h-1.7v5C21.5,25.6,21.1,26,20.7,26z M12,24.5H20
			v-5c0-0.4,0.3-0.8,0.8-0.8h0.5L16,13.8l-5.2,4.9h0.5c0.4,0,0.8,0.3,0.8,0.8V24.5z"/>
	</g>
	<g>
		<rect x="19.9" y="13.8" fill="#DA8C8C" width="1.5" height="3.3"/>
	</g>
	<g>
		<rect x="3.6" y="5" fill="#DA8C8C" width="10.3" height="1.5"/>
	</g>
	<g>
		<rect x="26.3" y="5" fill="#DA8C8C" width="2" height="1.5"/>
	</g>
	<g>
		<rect x="22.1" y="5" fill="#DA8C8C" width="2" height="1.5"/>
	</g>
</g>
</svg>
