<?xml version="1.0" encoding="utf-8"?>
<!-- Generator: Adobe Illustrator 18.0.0, SVG Export Plug-In . SVG Version: 6.00 Build 0)  -->
<!DOCTYPE svg PUBLIC "-//W3C//DTD SVG 1.1//EN" "http://www.w3.org/Graphics/SVG/1.1/DTD/svg11.dtd">
<svg version="1.1" id="Layer_1" xmlns="http://www.w3.org/2000/svg" xmlns:xlink="http://www.w3.org/1999/xlink" x="0px" y="0px"
	 viewBox="0 0 32 32" enable-background="new 0 0 32 32" xml:space="preserve">
<g>
	<g>
		<path fill="#DA8C8C" d="M7.8,8.4h-7V0.7h7V8.4z M2.2,6.9h4V2.2h-4V6.9z"/>
	</g>
	<g>
		<path fill="#DA8C8C" d="M7.8,19.8h-7v-7.7h7V19.8z M2.2,18.3h4v-4.7h-4V18.3z"/>
	</g>
	<g>
		<path fill="#DA8C8C" d="M7.8,31.2h-7v-7.7h7V31.2z M2.2,29.7h4v-4.7h-4V29.7z"/>
	</g>
	<g>
		<path fill="#DA8C8C" d="M19.5,8.4h-7V0.7h7V8.4z M14,6.9h4V2.2h-4V6.9z"/>
	</g>
	<g>
		<path fill="#DA8C8C" d="M19.5,19.8h-7v-7.7h7V19.8z M14,18.3h4v-4.7h-4V18.3z"/>
	</g>
	<g>
		<path fill="#DA8C8C" d="M19.5,31.2h-7v-7.7h7V31.2z M14,29.7h4v-4.7h-4V29.7z"/>
	</g>
	<g>
		<path fill="#DA8C8C" d="M31.2,8.4h-7V0.7h7V8.4z M25.7,6.9h4V2.2h-4V6.9z"/>
	</g>
	<g>
		<path fill="#DA8C8C" d="M31.2,19.8h-7v-7.7h7V19.8z M25.7,18.3h4v-4.7h-4V18.3z"/>
	</g>
	<g>
		<path fill="#DA8C8C" d="M31.2,31.2h-7v-7.7h7V31.2z M25.7,29.7h4v-4.7h-4V29.7z"/>
	</g>
</g>
</svg>
