<?xml version="1.0" encoding="utf-8"?>
<!-- Generator: Adobe Illustrator 18.0.0, SVG Export Plug-In . SVG Version: 6.00 Build 0)  -->
<!DOCTYPE svg PUBLIC "-//W3C//DTD SVG 1.1//EN" "http://www.w3.org/Graphics/SVG/1.1/DTD/svg11.dtd">
<svg version="1.1" id="Layer_1" xmlns="http://www.w3.org/2000/svg" xmlns:xlink="http://www.w3.org/1999/xlink" x="0px" y="0px"
	 viewBox="0 0 32 32" enable-background="new 0 0 32 32" xml:space="preserve">
<g>
	<g>
		<path fill="#79C693" d="M31.3,11.9h-8.8V0.7h8.8V11.9z M24,10.4h5.8V2.2H24V10.4z"/>
	</g>
	<g>
		<path fill="#79C693" d="M31.3,21.6h-8.8V10.4h8.8V21.6z M24,20.1h5.8v-8.2H24V20.1z"/>
	</g>
	<g>
		<path fill="#79C693" d="M31.3,31.3h-8.8V20.1h8.8V31.3z M24,29.8h5.8v-8.2H24V29.8z"/>
	</g>
	<g>
		<path fill="#79C693" d="M24,11.9h-8.8V0.7H24V11.9z M16.8,10.4h5.8V2.2h-5.8V10.4z"/>
	</g>
	<g>
		<path fill="#79C693" d="M24,21.6h-8.8V10.4H24V21.6z M16.8,20.1h5.8v-8.2h-5.8V20.1z"/>
	</g>
	<g>
		<path fill="#79C693" d="M24,31.3h-8.8V20.1H24V31.3z M16.8,29.8h5.8v-8.2h-5.8V29.8z"/>
	</g>
	<g>
		<path fill="#79C693" d="M16.8,11.9H8V0.7h8.8V11.9z M9.5,10.4h5.8V2.2H9.5V10.4z"/>
	</g>
	<g>
		<path fill="#79C693" d="M16.8,21.6H8V10.4h8.8V21.6z M9.5,20.1h5.8v-8.2H9.5V20.1z"/>
	</g>
	<g>
		<path fill="#79C693" d="M16.8,31.3H8V20.1h8.8V31.3z M9.5,29.8h5.8v-8.2H9.5V29.8z"/>
	</g>
	<g>
		<path fill="#79C693" d="M9.5,11.9H0.8V0.7h8.8V11.9z M2.3,10.4H8V2.2H2.3V10.4z"/>
	</g>
	<g>
		<path fill="#79C693" d="M9.5,21.6H0.8V10.4h8.8V21.6z M2.3,20.1H8v-8.2H2.3V20.1z"/>
	</g>
	<g>
		<path fill="#79C693" d="M9.5,31.3H0.8V20.1h8.8V31.3z M2.3,29.8H8v-8.2H2.3V29.8z"/>
	</g>
</g>
</svg>
