<?xml version="1.0" encoding="utf-8"?>
<!-- Generator: Adobe Illustrator 18.0.0, SVG Export Plug-In . SVG Version: 6.00 Build 0)  -->
<!DOCTYPE svg PUBLIC "-//W3C//DTD SVG 1.1//EN" "http://www.w3.org/Graphics/SVG/1.1/DTD/svg11.dtd">
<svg version="1.1" id="Layer_1" xmlns="http://www.w3.org/2000/svg" xmlns:xlink="http://www.w3.org/1999/xlink" x="0px" y="0px"
	 viewBox="0 0 32 32" enable-background="new 0 0 32 32" xml:space="preserve">
<pattern  x="-42" y="-252" width="24.1" height="24.1" patternUnits="userSpaceOnUse" id="New_Pattern_Swatch_1" viewBox="0 -24.1 24.1 24.1" overflow="visible">
	<g>
		<polygon fill="none" points="0,0 24.1,0 24.1,-24.1 0,-24.1 		"/>
		<polygon fill="#FEE99B" points="24.1,0 0,0 0,-24.1 24.1,-24.1 		"/>
	</g>
</pattern>
<pattern  x="-42" y="-252" width="24.1" height="24.1" patternUnits="userSpaceOnUse" id="New_Pattern_Swatch_2" viewBox="0 -24.1 24.1 24.1" overflow="visible">
	<g>
		<polygon fill="none" points="0,0 24.1,0 24.1,-24.1 0,-24.1 		"/>
		<polygon fill="#E0CB81" points="24.1,0 0,0 0,-24.1 24.1,-24.1 		"/>
	</g>
</pattern>
<g>
	<g>
		<pattern  id="SVGID_2_" xlink:href="#New_Pattern_Swatch_2" patternTransform="matrix(1 0 0 1 -12.0717 -9.5114)">
		</pattern>
		<path fill="url(#SVGID_2_)" d="M31.3,31.3H0.8V0.7h30.5V31.3z M2.3,29.8h27.5V2.2H2.3V29.8z"/>
	</g>
	<g>
		<g>
			<g>
				<g>
					<pattern  id="SVGID_4_" xlink:href="#New_Pattern_Swatch_1" patternTransform="matrix(1 0 0 1 -12.0717 -9.5114)">
					</pattern>
					<polygon fill="url(#SVGID_4_)" points="26,26 24.3,26 24.3,24.5 24.5,24.5 24.5,24.3 26,24.3 					"/>
				</g>
				<g>
					<pattern  id="SVGID_6_" xlink:href="#New_Pattern_Swatch_1" patternTransform="matrix(1 0 0 1 -12.0717 -9.5114)">
					</pattern>
					<path fill="url(#SVGID_6_)" d="M22.4,26h-1.8v-1.5h1.8V26z M18.8,26h-1.8v-1.5h1.8V26z M15.1,26h-1.8v-1.5h1.8V26z M11.4,26
						H9.6v-1.5h1.8V26z"/>
				</g>
				<g>
					<pattern  id="SVGID_8_" xlink:href="#New_Pattern_Swatch_1" patternTransform="matrix(1 0 0 1 -12.0717 -9.5114)">
					</pattern>
					<polygon fill="url(#SVGID_8_)" points="7.7,26 6,26 6,24.3 7.5,24.3 7.5,24.5 7.7,24.5 					"/>
				</g>
				<g>
					<pattern  id="SVGID_10_" xlink:href="#New_Pattern_Swatch_1" patternTransform="matrix(1 0 0 1 -12.0717 -9.5114)">
					</pattern>
					<path fill="url(#SVGID_10_)" d="M7.5,22.4H6v-1.8h1.5V22.4z M7.5,18.8H6v-1.8h1.5V18.8z M7.5,15.1H6v-1.8h1.5V15.1z M7.5,11.4
						H6V9.6h1.5V11.4z"/>
				</g>
				<g>
					<pattern  id="SVGID_12_" xlink:href="#New_Pattern_Swatch_1" patternTransform="matrix(1 0 0 1 -12.0717 -9.5114)">
					</pattern>
					<polygon fill="url(#SVGID_12_)" points="7.5,7.7 6,7.7 6,6 7.7,6 7.7,7.5 7.5,7.5 					"/>
				</g>
				<g>
					<pattern  id="SVGID_13_" xlink:href="#New_Pattern_Swatch_1" patternTransform="matrix(1 0 0 1 -12.0717 -9.5114)">
					</pattern>
					<path fill="url(#SVGID_13_)" d="M22.4,7.5h-1.8V6h1.8V7.5z M18.8,7.5h-1.8V6h1.8V7.5z M15.1,7.5h-1.8V6h1.8V7.5z M11.4,7.5H9.6
						V6h1.8V7.5z"/>
				</g>
				<g>
					<pattern  id="SVGID_14_" xlink:href="#New_Pattern_Swatch_1" patternTransform="matrix(1 0 0 1 -12.0717 -9.5114)">
					</pattern>
					<polygon fill="url(#SVGID_14_)" points="26,7.7 24.5,7.7 24.5,7.5 24.3,7.5 24.3,6 26,6 					"/>
				</g>
				<g>
					<pattern  id="SVGID_15_" xlink:href="#New_Pattern_Swatch_1" patternTransform="matrix(1 0 0 1 -12.0717 -9.5114)">
					</pattern>
					<path fill="url(#SVGID_15_)" d="M26,22.4h-1.5v-1.8H26V22.4z M26,18.8h-1.5v-1.8H26V18.8z M26,15.1h-1.5v-1.8H26V15.1z
						 M26,11.4h-1.5V9.6H26V11.4z"/>
				</g>
			</g>
		</g>
	</g>
</g>
</svg>
