<?xml version="1.0" encoding="utf-8"?>
<!-- Generator: Adobe Illustrator 18.0.0, SVG Export Plug-In . SVG Version: 6.00 Build 0)  -->
<!DOCTYPE svg PUBLIC "-//W3C//DTD SVG 1.1//EN" "http://www.w3.org/Graphics/SVG/1.1/DTD/svg11.dtd">
<svg version="1.1" id="Layer_1" xmlns="http://www.w3.org/2000/svg" xmlns:xlink="http://www.w3.org/1999/xlink" x="0px" y="0px"
	 viewBox="0 0 32 32" enable-background="new 0 0 32 32" xml:space="preserve">
<g>
	<g>
		<path fill="#DA8C8C" d="M26,26H6V6h20V26z M7.5,24.5h17v-17h-17V24.5z"/>
	</g>
	<g>
		<g>
			<g>
				<g>
					<polygon fill="#DA8C8C" points="31.3,31.3 29.5,31.3 29.5,29.8 29.8,29.8 29.8,29.5 31.3,29.5 					"/>
				</g>
				<g>
					<path fill="#DA8C8C" d="M27.4,31.3h-2.1v-1.5h2.1V31.3z M23.3,31.3h-2.1v-1.5h2.1V31.3z M19.1,31.3H17v-1.5h2.1V31.3z M15,31.3
						h-2.1v-1.5H15V31.3z M10.8,31.3H8.7v-1.5h2.1V31.3z M6.7,31.3H4.6v-1.5h2.1V31.3z"/>
				</g>
				<g>
					<polygon fill="#DA8C8C" points="2.5,31.3 0.8,31.3 0.8,29.5 2.3,29.5 2.3,29.8 2.5,29.8 					"/>
				</g>
				<g>
					<path fill="#DA8C8C" d="M2.3,27.4H0.8v-2.1h1.5V27.4z M2.3,23.3H0.8v-2.1h1.5V23.3z M2.3,19.1H0.8V17h1.5V19.1z M2.3,15H0.8
						v-2.1h1.5V15z M2.3,10.8H0.8V8.7h1.5V10.8z M2.3,6.7H0.8V4.6h1.5V6.7z"/>
				</g>
				<g>
					<polygon fill="#DA8C8C" points="2.3,2.5 0.8,2.5 0.8,0.7 2.5,0.7 2.5,2.2 2.3,2.2 					"/>
				</g>
				<g>
					<path fill="#DA8C8C" d="M27.4,2.2h-2.1V0.7h2.1V2.2z M23.3,2.2h-2.1V0.7h2.1V2.2z M19.1,2.2H17V0.7h2.1V2.2z M15,2.2h-2.1V0.7
						H15V2.2z M10.8,2.2H8.7V0.7h2.1V2.2z M6.7,2.2H4.6V0.7h2.1V2.2z"/>
				</g>
				<g>
					<polygon fill="#DA8C8C" points="31.3,2.5 29.8,2.5 29.8,2.2 29.5,2.2 29.5,0.7 31.3,0.7 					"/>
				</g>
				<g>
					<path fill="#DA8C8C" d="M31.3,27.4h-1.5v-2.1h1.5V27.4z M31.3,23.3h-1.5v-2.1h1.5V23.3z M31.3,19.1h-1.5V17h1.5V19.1z M31.3,15
						h-1.5v-2.1h1.5V15z M31.3,10.8h-1.5V8.7h1.5V10.8z M31.3,6.7h-1.5V4.6h1.5V6.7z"/>
				</g>
			</g>
		</g>
	</g>
</g>
</svg>
