<?xml version="1.0" encoding="utf-8"?>
<!-- Generator: Adobe Illustrator 18.0.0, SVG Export Plug-In . SVG Version: 6.00 Build 0)  -->
<!DOCTYPE svg PUBLIC "-//W3C//DTD SVG 1.1//EN" "http://www.w3.org/Graphics/SVG/1.1/DTD/svg11.dtd">
<svg version="1.1" id="Layer_1" xmlns="http://www.w3.org/2000/svg" xmlns:xlink="http://www.w3.org/1999/xlink" x="0px" y="0px"
	 viewBox="0 0 32 32" enable-background="new 0 0 32 32" xml:space="preserve">
<g>
	<g>
		<path fill="#B4A79C" d="M25.2,24.3h-2v-1.5h2V24.3z M21.2,24.3h-2v-1.5h2V24.3z M17.2,24.3h-2v-1.5h2V24.3z M13.2,24.3h-2v-1.5h2
			V24.3z M9.2,24.3h-2v-1.5h2V24.3z M26,22.3h-1.5v-2H26V22.3z M7.5,22H6v-2h1.5V22z M26,18.3h-1.5v-2H26V18.3z M7.5,18H6v-2h1.5V18
			z M26,14.3h-1.5v-2H26V14.3z M7.5,14H6v-2h1.5V14z M26,10.3h-1.5V8.4h0.7l0-0.8H26V10.3z M7.5,10H6V7.7h1.1v0.8h0.4V10z M23.2,9.2
			h-2V7.7h2V9.2z M19.2,9.2h-2V7.7h2V9.2z M15.2,9.2h-2V7.7h2V9.2z M11.2,9.2h-2V7.7h2V9.2z"/>
	</g>
	<g>
		<path fill="#B4A79C" d="M26,31.3H6V0.7h20V31.3z M7.5,29.8h17V2.2h-17V29.8z"/>
	</g>
</g>
</svg>
