<?xml version="1.0" encoding="utf-8"?>
<!-- Generator: Adobe Illustrator 18.0.0, SVG Export Plug-In . SVG Version: 6.00 Build 0)  -->
<!DOCTYPE svg PUBLIC "-//W3C//DTD SVG 1.1//EN" "http://www.w3.org/Graphics/SVG/1.1/DTD/svg11.dtd">
<svg version="1.1" id="Layer_1" xmlns="http://www.w3.org/2000/svg" xmlns:xlink="http://www.w3.org/1999/xlink" x="0px" y="0px"
	 viewBox="0 0 32 32" enable-background="new 0 0 32 32" xml:space="preserve">
<g>
	<g>
		<path fill="#74B1E0" d="M30.5,31.2h-29c-0.4,0-0.8-0.3-0.8-0.8v-29c0-0.3,0.2-0.6,0.5-0.7C1.5,0.7,1.8,0.8,2,1l29,29
			c0.2,0.2,0.3,0.5,0.2,0.8C31.1,31.1,30.8,31.2,30.5,31.2z M2.3,29.7h26.4L2.3,3.3V29.7z"/>
	</g>
	<g>
		<path fill="#74B1E0" d="M18.6,26.3H6.4c-0.4,0-0.8-0.3-0.8-0.8l0-12.1c0-0.3,0.2-0.6,0.5-0.7c0.3-0.1,0.6-0.1,0.8,0.2L19.1,25
			c0.2,0.2,0.3,0.5,0.2,0.8C19.1,26.1,18.9,26.3,18.6,26.3z M7.2,24.8h9.6l-9.6-9.6L7.2,24.8z"/>
	</g>
	<g>
		<rect x="1.5" y="6.1" fill="#74B1E0" width="2.1" height="1.5"/>
	</g>
	<g>
		<rect x="1.5" y="9.8" fill="#74B1E0" width="2.1" height="1.5"/>
	</g>
	<g>
		<rect x="1.5" y="13.4" fill="#74B1E0" width="2.1" height="1.5"/>
	</g>
	<g>
		<rect x="1.5" y="17.1" fill="#74B1E0" width="2.1" height="1.5"/>
	</g>
	<g>
		<rect x="1.5" y="20.7" fill="#74B1E0" width="2.1" height="1.5"/>
	</g>
	<g>
		<rect x="1.5" y="24.4" fill="#74B1E0" width="2.1" height="1.5"/>
	</g>
	<g>
		<rect x="24.4" y="28.4" fill="#74B1E0" width="1.5" height="2.1"/>
	</g>
	<g>
		<rect x="20.7" y="28.4" fill="#74B1E0" width="1.5" height="2.1"/>
	</g>
	<g>
		<rect x="17.1" y="28.4" fill="#74B1E0" width="1.5" height="2.1"/>
	</g>
	<g>
		<rect x="13.4" y="28.4" fill="#74B1E0" width="1.5" height="2.1"/>
	</g>
	<g>
		<rect x="9.8" y="28.4" fill="#74B1E0" width="1.5" height="2.1"/>
	</g>
	<g>
		<rect x="6.1" y="28.4" fill="#74B1E0" width="1.5" height="2.1"/>
	</g>
</g>
</svg>
