<?xml version="1.0" encoding="utf-8"?>
<!-- Generator: Adobe Illustrator 18.0.0, SVG Export Plug-In . SVG Version: 6.00 Build 0)  -->
<!DOCTYPE svg PUBLIC "-//W3C//DTD SVG 1.1//EN" "http://www.w3.org/Graphics/SVG/1.1/DTD/svg11.dtd">
<svg version="1.1" id="Layer_1" xmlns="http://www.w3.org/2000/svg" xmlns:xlink="http://www.w3.org/1999/xlink" x="0px" y="0px"
	 viewBox="0 0 32 32" enable-background="new 0 0 32 32" xml:space="preserve">
<g>
	<g>
		<path fill="#79C693" d="M1.5,31.2c-0.2,0-0.4-0.1-0.5-0.2c-0.2-0.2-0.3-0.4-0.2-0.7l3.7-19.1c0.1-0.3,0.3-0.6,0.6-0.6l9.6-1.3
			c0.2,0,0.5,0,0.6,0.2l7.2,7.2c0.2,0.2,0.2,0.4,0.2,0.6l-1.3,9.6c0,0.3-0.3,0.6-0.6,0.6L1.6,31.2H1.5z M5.8,12L2.4,29.5l17.5-3.4
			l1.2-8.7l-6.7-6.7L5.8,12z"/>
	</g>
	<g>
		
			<rect x="5.2" y="19.8" transform="matrix(-0.7071 -0.7071 0.7071 -0.7071 -8.3513 48.7163)" fill="#79C693" width="1.5" height="12.6"/>
	</g>
	<g>
		<path fill="#79C693" d="M12,23.1c-0.8,0-1.6-0.3-2.2-0.9c-1.2-1.2-1.2-3.1,0-4.3c1.2-1.2,3.2-1.2,4.3,0c1.2,1.2,1.2,3.1,0,4.3
			C13.6,22.7,12.8,23.1,12,23.1z M12,18.4c-0.4,0-0.8,0.2-1.1,0.5c-0.6,0.6-0.6,1.6,0,2.2s1.6,0.6,2.2,0c0.6-0.6,0.6-1.6,0-2.2
			C12.8,18.6,12.4,18.4,12,18.4z"/>
	</g>
	<g>
		<path fill="#F0F7F7" d="M19.7,1.5l10.8,10.8l-4.9,4.9c-1,1-2.7,1-3.8,0l-7.1-7.1c-1-1-1-2.7,0-3.8L19.7,1.5z"/>
		<path fill="#8F9BA8" d="M23.8,18.7c-0.9,0-1.8-0.4-2.4-1l-7.1-7.1c-0.6-0.6-1-1.5-1-2.4s0.4-1.8,1-2.4L19.1,1
			c0.3-0.3,0.8-0.3,1.1,0L31,11.8c0.3,0.3,0.3,0.8,0,1.1l-4.9,4.9C25.5,18.4,24.7,18.7,23.8,18.7z M19.7,2.6l-4.3,4.3
			c-0.4,0.4-0.6,0.8-0.6,1.3s0.2,1,0.6,1.3l7.1,7.1c0.7,0.7,2,0.7,2.7,0l4.3-4.3L19.7,2.6z"/>
	</g>
</g>
</svg>
