<?xml version="1.0" encoding="utf-8"?>
<!-- Generator: Adobe Illustrator 18.0.0, SVG Export Plug-In . SVG Version: 6.00 Build 0)  -->
<!DOCTYPE svg PUBLIC "-//W3C//DTD SVG 1.1//EN" "http://www.w3.org/Graphics/SVG/1.1/DTD/svg11.dtd">
<svg version="1.1" id="Layer_1" xmlns="http://www.w3.org/2000/svg" xmlns:xlink="http://www.w3.org/1999/xlink" x="0px" y="0px"
	 viewBox="0 0 32 32" enable-background="new 0 0 32 32" xml:space="preserve">
<g>
	<g>
		<path fill="#F2E8B9" d="M10.8,24.5l-3.3-3.3c-1.1-0.1-2.2,0.3-3.1,1.2c-1.5,1.5-3,8.2-3,8.2s6.6-1.4,8.2-3
			C10.5,26.7,10.9,25.6,10.8,24.5z"/>
		<path fill="#B4A042" d="M1.5,31.3c-0.2,0-0.4-0.1-0.5-0.2c-0.2-0.2-0.3-0.4-0.2-0.7c0.1-0.7,1.5-6.9,3.2-8.5c1-1,2.3-1.5,3.6-1.4
			c0.2,0,0.4,0.1,0.5,0.2l3.3,3.3c0.1,0.1,0.2,0.3,0.2,0.5c0.1,1.3-0.4,2.7-1.4,3.6c-1.6,1.6-7.8,3-8.5,3.2
			C1.6,31.2,1.5,31.3,1.5,31.3z M7.2,21.9c-0.8,0-1.6,0.4-2.2,1c-0.9,0.9-1.9,4.1-2.5,6.6C5,28.9,8.2,27.9,9.1,27
			c0.6-0.6,1-1.4,1-2.2L7.2,21.9z"/>
	</g>
	<g>
		<path fill="#8F9BA8" d="M27.7,9.4c-0.2,0-0.4-0.1-0.5-0.2l-4.2-4.2c-0.2-0.2-0.2-0.4-0.2-0.6c0-0.2,0.1-0.4,0.3-0.6
			c3.1-2,5.2-3,6.5-3c0.5,0,0.9,0.1,1.2,0.4C31.5,1.9,32,3.5,28.3,9C28.2,9.2,28,9.3,27.7,9.4C27.7,9.4,27.7,9.4,27.7,9.4z
			 M24.6,4.5l2.9,2.9c2.3-3.7,2.3-5,2.2-5.2c0,0-0.1,0-0.2,0C29.2,2.2,27.9,2.5,24.6,4.5z"/>
	</g>
	<g>
		<path fill="#8F9BA8" d="M16.1,22.5c-0.2,0-0.4-0.1-0.5-0.2l-5.9-5.9c-0.3-0.3-0.3-0.7-0.1-1c0.8-1,1.7-2,2.8-3.1
			c2.6-2.6,7-6.1,10.6-8.5c0.3-0.2,0.7-0.2,0.9,0.1l4.2,4.2c0.3,0.3,0.3,0.6,0.1,0.9c-2.3,3.4-5.6,7.4-8.6,10.5
			c-1.1,1.1-2.1,2-3.1,2.8C16.4,22.4,16.3,22.5,16.1,22.5z M11.2,15.8l4.9,4.9c0.8-0.7,1.6-1.4,2.4-2.3c2.8-2.8,5.9-6.5,8.1-9.7
			l-3.3-3.3c-3.4,2.3-7.5,5.6-9.9,8C12.7,14.2,11.9,15,11.2,15.8z"/>
	</g>
	<g>
		<path fill="#8F9BA8" d="M10.8,25.1L10.8,25.1l-0.1,0c-0.2,0-0.4-0.1-0.5-0.2l-3.1-3.1c-0.1-0.1-0.2-0.3-0.2-0.5
			c0-1.6,0.9-3.6,2.8-5.9c0.1-0.2,0.3-0.3,0.5-0.3c0.2,0,0.4,0.1,0.6,0.2l5.9,5.9c0.2,0.2,0.2,0.4,0.2,0.6c0,0.2-0.1,0.4-0.3,0.5
			C14.3,24.2,12.4,25.1,10.8,25.1z M8.4,21l2.6,2.6c1.1-0.1,2.4-0.7,4-1.9L10.3,17C9.1,18.6,8.5,19.9,8.4,21z"/>
	</g>
</g>
</svg>
