<?xml version="1.0" encoding="utf-8"?>
<!-- Generator: Adobe Illustrator 18.0.0, SVG Export Plug-In . SVG Version: 6.00 Build 0)  -->
<!DOCTYPE svg PUBLIC "-//W3C//DTD SVG 1.1//EN" "http://www.w3.org/Graphics/SVG/1.1/DTD/svg11.dtd">
<svg version="1.1" id="Layer_1" xmlns="http://www.w3.org/2000/svg" xmlns:xlink="http://www.w3.org/1999/xlink" x="0px" y="0px"
	 viewBox="0 0 32 32" enable-background="new 0 0 32 32" xml:space="preserve">
<g>
	<g>
		<path fill="#FAC2C3" d="M19.4,18.4l-5.9-5.9c-1-1-1-2.7,0-3.8l0,0c1-1,2.7-1,3.8,0l5.9,5.9c1,1,1,2.7,0,3.8l0,0
			C22.2,19.5,20.5,19.5,19.4,18.4z"/>
		<path fill="#DA8C8C" d="M21.3,19.9c-0.9,0-1.8-0.4-2.4-1l-5.9-5.9c-0.6-0.6-1-1.5-1-2.4c0-0.9,0.4-1.8,1-2.4
			c1.3-1.3,3.6-1.3,4.8,0l5.9,5.9c0.6,0.6,1,1.5,1,2.4c0,0.9-0.4,1.8-1,2.4C23.1,19.6,22.2,19.9,21.3,19.9z M15.5,8.7
			c-0.5,0-1,0.2-1.4,0.6c-0.4,0.4-0.6,0.8-0.6,1.4c0,0.5,0.2,1,0.6,1.4l5.9,5.9c0.7,0.7,2,0.7,2.7,0c0.4-0.4,0.6-0.8,0.6-1.4
			c0-0.5-0.2-1-0.6-1.4l-5.9-5.9C16.5,8.9,16,8.7,15.5,8.7z"/>
	</g>
	<g>
		<path fill="#FFFFFF" d="M13.4,12.4l-9.2,9.2c-1.2,1.2-1.5,2.9-1.1,4.4c0.1,0.5,0,1-0.3,1.4l-1,1c-0.5,0.5-0.5,1.4,0,1.9l0,0
			c0.5,0.5,1.4,0.5,1.9,0l1-1c0.4-0.4,0.9-0.5,1.4-0.3c1.5,0.4,3.2,0.1,4.4-1.1l9.2-9.2L13.4,12.4z"/>
		<path fill="#DA8C8C" d="M2.8,31.3c-0.6,0-1.1-0.2-1.5-0.6c-0.4-0.4-0.6-0.9-0.6-1.5c0-0.6,0.2-1.1,0.6-1.5l1-1
			c0.2-0.2,0.2-0.4,0.1-0.6c-0.5-1.8-0.1-3.8,1.3-5.1l9.2-9.2c0.1-0.1,0.3-0.2,0.5-0.2l0,0c0.2,0,0.4,0.1,0.5,0.2l6.2,6.2
			c0.3,0.3,0.3,0.8,0,1.1L11,28.3c-1,1-2.3,1.5-3.6,1.5c0,0,0,0,0,0c-0.5,0-1-0.1-1.5-0.2c-0.2-0.1-0.5,0-0.6,0.1l-1,1
			C3.9,31,3.4,31.3,2.8,31.3z M13.4,13.4l-8.6,8.6c-0.9,0.9-1.3,2.3-0.9,3.6c0.2,0.8,0,1.6-0.5,2.1l-1,1c-0.1,0.1-0.2,0.3-0.2,0.4
			c0,0.2,0.1,0.3,0.2,0.4c0.2,0.2,0.6,0.2,0.8,0l1-1c0.5-0.5,1.4-0.7,2.1-0.5c1.3,0.4,2.7,0,3.6-0.9l8.6-8.6L13.4,13.4z"/>
	</g>
	<g>
		<path fill="#FFFFFF" d="M22.9,14.3c2-0.5,4.2-1.6,5.7-3.2c2.8-2.8,2.3-5.7,0.2-7.8c-2.1-2.1-5-2.6-7.8,0.2
			c-1.5,1.5-2.7,3.7-3.2,5.7L22.9,14.3z"/>
		<path fill="#DA8C8C" d="M22.9,15c-0.2,0-0.4-0.1-0.5-0.2l-5.1-5.1C17,9.5,16.9,9.2,17,9c0.5-2.2,1.8-4.4,3.4-6
			c1.4-1.4,3-2.2,4.6-2.2c1.5,0,3,0.7,4.3,2c2.7,2.7,2.7,6.1-0.2,8.9c-1.6,1.6-3.9,2.9-6,3.4C23,15,22.9,15,22.9,15z M18.6,8.9
			l4.5,4.5c1.8-0.5,3.6-1.6,4.9-2.9c3-3,1.4-5.6,0.2-6.8c-0.7-0.7-1.8-1.5-3.3-1.5c-1.2,0-2.4,0.6-3.5,1.7
			C20.1,5.3,19.1,7.1,18.6,8.9z"/>
	</g>
</g>
</svg>
