<?xml version="1.0" encoding="utf-8"?>
<!-- Generator: Adobe Illustrator 18.0.0, SVG Export Plug-In . SVG Version: 6.00 Build 0)  -->
<!DOCTYPE svg PUBLIC "-//W3C//DTD SVG 1.1//EN" "http://www.w3.org/Graphics/SVG/1.1/DTD/svg11.dtd">
<svg version="1.1" id="Layer_1" xmlns="http://www.w3.org/2000/svg" xmlns:xlink="http://www.w3.org/1999/xlink" x="0px" y="0px"
	 viewBox="0 0 32 32" enable-background="new 0 0 32 32" xml:space="preserve">
<g>
	<g>
		<path fill="#B4A79C" d="M21.2,31.3L21.2,31.3c-2.9,0-5.4-2.3-5.6-5.1c-0.2-2.5-1.3-4.9-3.1-6.7s-4.1-2.9-6.6-3.1
			c-2-0.2-3.7-1.4-4.6-3.2c-0.9-1.9-0.7-4,0.5-5.6c0.5-0.7,1.1-1.4,1.7-2C6.6,2.4,10.7,0.7,15,0.7c5,0,9.6,2.2,12.7,6.1
			c4.7,5.9,4.7,14.5-0.1,20.3c-1,1.2-2,2.2-3.3,3C23.4,30.9,22.4,31.3,21.2,31.3z M15,2.2c-3.9,0-7.6,1.5-10.4,4.3
			C4,7.1,3.5,7.8,3,8.4c-0.9,1.2-1,2.8-0.4,4.1c0.6,1.4,1.9,2.2,3.3,2.4c2.9,0.2,5.6,1.5,7.6,3.5s3.3,4.7,3.5,7.6
			c0.2,2.3,2.2,3.8,4.1,3.8l0,0c0.8,0,1.6-0.3,2.3-0.7c1.1-0.8,2.1-1.7,3-2.8c4.3-5.3,4.4-13.1,0.1-18.4C23.7,4.3,19.5,2.2,15,2.2z"
			/>
	</g>
	<g>
		<circle fill="#F9F8F2" cx="10.2" cy="8.5" r="2.5"/>
		<path fill="#B4A79C" d="M10.2,11.8c-1.8,0-3.3-1.5-3.3-3.3s1.5-3.3,3.3-3.3s3.3,1.5,3.3,3.3S12,11.8,10.2,11.8z M10.2,6.7
			c-1,0-1.8,0.8-1.8,1.8s0.8,1.8,1.8,1.8S12,9.5,12,8.5S11.2,6.7,10.2,6.7z"/>
	</g>
	<g>
		<circle fill="#F9F8F2" cx="18.5" cy="8.5" r="2.5"/>
		<path fill="#B4A79C" d="M18.5,11.8c-1.8,0-3.3-1.5-3.3-3.3s1.5-3.3,3.3-3.3s3.3,1.5,3.3,3.3S20.4,11.8,18.5,11.8z M18.5,6.7
			c-1,0-1.8,0.8-1.8,1.8s0.8,1.8,1.8,1.8s1.8-0.8,1.8-1.8S19.5,6.7,18.5,6.7z"/>
	</g>
	<g>
		<circle fill="#F9F8F2" cx="23.6" cy="14.8" r="2.5"/>
		<path fill="#B4A79C" d="M23.6,18c-1.8,0-3.3-1.5-3.3-3.3s1.5-3.3,3.3-3.3s3.3,1.5,3.3,3.3S25.5,18,23.6,18z M23.6,13
			c-1,0-1.8,0.8-1.8,1.8s0.8,1.8,1.8,1.8s1.8-0.8,1.8-1.8S24.6,13,23.6,13z"/>
	</g>
	<g>
		<circle fill="#F9F8F2" cx="23.6" cy="22.8" r="2.5"/>
		<path fill="#B4A79C" d="M23.6,26.1c-1.8,0-3.3-1.5-3.3-3.3s1.5-3.3,3.3-3.3s3.3,1.5,3.3,3.3S25.5,26.1,23.6,26.1z M23.6,21
			c-1,0-1.8,0.8-1.8,1.8s0.8,1.8,1.8,1.8s1.8-0.8,1.8-1.8S24.6,21,23.6,21z"/>
	</g>
</g>
</svg>
