<?xml version="1.0" encoding="utf-8"?>
<!-- Generator: Adobe Illustrator 18.0.0, SVG Export Plug-In . SVG Version: 6.00 Build 0)  -->
<!DOCTYPE svg PUBLIC "-//W3C//DTD SVG 1.1//EN" "http://www.w3.org/Graphics/SVG/1.1/DTD/svg11.dtd">
<svg version="1.1" id="Layer_1" xmlns="http://www.w3.org/2000/svg" xmlns:xlink="http://www.w3.org/1999/xlink" x="0px" y="0px"
	 viewBox="0 0 32 32" enable-background="new 0 0 32 32" xml:space="preserve">
<g>
	<g>
		<polygon fill="#FFFFFF" points="1.5,1.5 11,30.5 17,17 30.5,11 		"/>
		<path fill="#79C693" d="M11,31.3C11,31.3,11,31.2,11,31.3c-0.3,0-0.6-0.2-0.7-0.5l-9.5-29C0.7,1.5,0.8,1.2,1,1
			c0.2-0.2,0.5-0.3,0.8-0.2l29,9.5c0.3,0.1,0.5,0.4,0.5,0.7c0,0.3-0.2,0.6-0.4,0.7l-13.2,5.9l-5.9,13.2C11.6,31.1,11.3,31.3,11,31.3
			z M2.7,2.7l8.5,25.7l5.2-11.7c0.1-0.2,0.2-0.3,0.4-0.4l11.7-5.2L2.7,2.7z"/>
	</g>
	<g>
		<line fill="#FFFFFF" x1="17" y1="17" x2="1.5" y2="1.5"/>
		
			<rect x="-1.7" y="8.5" transform="matrix(0.7071 0.7071 -0.7071 0.7071 9.2726 -3.8408)" fill="#79C693" width="22" height="1.5"/>
	</g>
</g>
</svg>
