<?xml version="1.0" encoding="utf-8"?>
<!-- Generator: Adobe Illustrator 18.0.0, SVG Export Plug-In . SVG Version: 6.00 Build 0)  -->
<!DOCTYPE svg PUBLIC "-//W3C//DTD SVG 1.1//EN" "http://www.w3.org/Graphics/SVG/1.1/DTD/svg11.dtd">
<svg version="1.1" id="Layer_1" xmlns="http://www.w3.org/2000/svg" xmlns:xlink="http://www.w3.org/1999/xlink" x="0px" y="0px"
	 viewBox="0 0 32 32" enable-background="new 0 0 32 32" xml:space="preserve">
<g>
	<g>
		<path fill="#74B1E0" d="M22.6,14.8l-5.4-5.4L25,1.6c0.9-0.9,2.5-0.9,3.4,0l2,2c0.9,0.9,0.9,2.5,0,3.4L22.6,14.8z M19.3,9.4
			l3.3,3.3l6.8-6.8c0.4-0.4,0.4-0.9,0-1.3l-2-2c-0.3-0.3-0.9-0.3-1.3,0L19.3,9.4z"/>
	</g>
	<g>
		<path fill="#74B1E0" d="M3.1,29.7c-0.2,0-0.4-0.1-0.5-0.2c-0.2-0.2-0.3-0.5-0.2-0.8l2.6-7c0.1-0.2,0.3-0.4,0.5-0.5
			c0.2-0.1,0.5,0,0.7,0.2l4.3,4.3c0.2,0.2,0.3,0.4,0.2,0.7c-0.1,0.2-0.2,0.5-0.5,0.5l-7,2.6C3.2,29.7,3.1,29.7,3.1,29.7z M6,23.3
			l-1.6,4.3L8.7,26L6,23.3z"/>
	</g>
	<g>
		<path fill="#74B1E0" d="M10,27.1c-0.2,0-0.4-0.1-0.5-0.2l-4.3-4.3c-0.3-0.3-0.3-0.8,0-1.1L17.7,8.9c0.3-0.3,0.8-0.3,1.1,0l4.3,4.3
			c0.1,0.1,0.2,0.3,0.2,0.5c0,0.2-0.1,0.4-0.2,0.5L10.6,26.8C10.4,27,10.2,27.1,10,27.1z M6.7,22l3.3,3.3l11.5-11.5l-3.3-3.3L6.7,22
			z"/>
	</g>
	<g>
		<path fill="#74B1E0" d="M21.6,17.7l-1.5-0.1c0.1-1.7,1-3.3,2.5-4.1l5.4-3c0.4-0.2,0.7-0.7,0.8-1.2c0.1-0.5-0.1-1-0.5-1.3l0.5-0.6
			L29.4,7l0,0c0.7,0.7,1,1.6,0.9,2.6c-0.1,1-0.7,1.8-1.6,2.3l-5.4,3C22.3,15.5,21.7,16.6,21.6,17.7z"/>
	</g>
	<g>
		
			<rect x="1.5" y="28.6" transform="matrix(0.7071 0.7071 -0.7071 0.7071 21.6988 7.145)" fill="#74B1E0" width="1.5" height="2.4"/>
	</g>
</g>
</svg>
