<?xml version="1.0" encoding="utf-8"?>
<!-- Generator: Adobe Illustrator 18.0.0, SVG Export Plug-In . SVG Version: 6.00 Build 0)  -->
<!DOCTYPE svg PUBLIC "-//W3C//DTD SVG 1.1//EN" "http://www.w3.org/Graphics/SVG/1.1/DTD/svg11.dtd">
<svg version="1.1" id="Layer_1" xmlns="http://www.w3.org/2000/svg" xmlns:xlink="http://www.w3.org/1999/xlink" x="0px" y="0px"
	 viewBox="0 0 32 32" enable-background="new 0 0 32 32" xml:space="preserve">
<g>
	<g>
		<path fill="#79C693" d="M20.7,31.2H8.5c-0.4,0-0.7-0.3-0.7-0.8v-17c0-0.4,0.3-0.8,0.7-0.8h12.2c0.4,0,0.8,0.3,0.8,0.8v17
			C21.5,30.9,21.1,31.2,20.7,31.2z M9.2,29.7H20V14.2H9.2V29.7z"/>
	</g>
	<g>
		<path fill="#79C693" d="M20.7,14.2H8.5c-0.3,0-0.5-0.2-0.7-0.4c-0.1-0.3-0.1-0.6,0.1-0.8l3.5-4.8C11.5,8,11.7,7.9,12,7.9h5.3
			c0.2,0,0.5,0.1,0.6,0.3l3.5,4.8c0.2,0.2,0.2,0.5,0.1,0.8C21.3,14.1,21,14.2,20.7,14.2z M10,12.7h9.3l-2.4-3.3h-4.5L10,12.7z"/>
	</g>
	<g>
		<path fill="#79C693" d="M16.1,9.4h-3c-0.4,0-0.8-0.3-0.8-0.8V2.8c0-0.4,0.3-0.8,0.8-0.8h3c0.4,0,0.8,0.3,0.8,0.8v5.8
			C16.9,9.1,16.5,9.4,16.1,9.4z M13.9,7.9h1.5V3.6h-1.5V7.9z"/>
	</g>
	<g>
		<path fill="#8F9BA8" d="M23.7,7.2l-6-2.5c-0.3-0.1-0.5-0.4-0.5-0.7c0-0.3,0.2-0.6,0.5-0.7l6-2.5l0.6,1.4L19.9,4l4.3,1.8L23.7,7.2z
			"/>
	</g>
</g>
</svg>
