<?xml version="1.0" encoding="utf-8"?>
<!-- Generator: Adobe Illustrator 18.0.0, SVG Export Plug-In . SVG Version: 6.00 Build 0)  -->
<!DOCTYPE svg PUBLIC "-//W3C//DTD SVG 1.1//EN" "http://www.w3.org/Graphics/SVG/1.1/DTD/svg11.dtd">
<svg version="1.1" id="Layer_1" xmlns="http://www.w3.org/2000/svg" xmlns:xlink="http://www.w3.org/1999/xlink" x="0px" y="0px"
	 viewBox="0 0 32 32" enable-background="new 0 0 32 32" xml:space="preserve">
<g>
	<g>
		<path fill="#B4A79C" d="M18.6,18.5C18.5,18.5,18.5,18.5,18.6,18.5c-0.2,0-0.4-0.1-0.6-0.3l-2.6-3c-0.2-0.3-0.2-0.7,0-1L26.6,1
			c0.2-0.2,0.5-0.3,0.8-0.2c0.3,0.1,0.5,0.3,0.6,0.6c0.9,4.5-0.5,9.1-3.8,12.2l-5,4.7C18.9,18.4,18.8,18.5,18.6,18.5z M17,14.7
			l1.6,1.9l4.4-4.2c2.6-2.4,3.8-5.8,3.6-9.2L17,14.7z"/>
	</g>
	<g>
		<path fill="#B4A79C" d="M8.6,31.3L8.6,31.3c-0.8,0-1.5-0.2-2.1-0.5c-1.3-0.7-2.3-1.9-2.6-3.3C3.6,26,4,24.5,5,23.3
			c0.7-0.9,1.7-1.4,2.8-1.6c1-0.2,2-0.7,2.7-1.6l2.4-2.8c0.1-0.2,0.3-0.3,0.5-0.3c0.2,0,0.4,0.1,0.6,0.2l2.6,2.4
			c0.1,0.1,0.2,0.3,0.2,0.5c0,0.2-0.1,0.4-0.2,0.5l-1.6,1.6c-1,1-1.5,2.3-1.4,3.7c0.2,1.7-0.6,3.3-1.9,4.3
			C10.7,30.9,9.7,31.3,8.6,31.3z M13.5,18.9l-1.9,2.2c-0.9,1.1-2.2,1.9-3.6,2.1c-0.8,0.1-1.5,0.5-2,1.1c-0.7,0.8-0.9,1.8-0.7,2.8
			c0.2,1,0.8,1.8,1.8,2.3c1.1,0.5,2.5,0.4,3.4-0.3c1-0.7,1.5-1.8,1.4-3c-0.2-1.8,0.5-3.6,1.9-4.9l1.1-1L13.5,18.9z"/>
	</g>
	<g>
		<path fill="#8F9BA8" d="M23.4,31.3C23.4,31.3,23.4,31.3,23.4,31.3c-1,0-2-0.3-2.9-0.9c-1.4-1-2.1-2.6-1.9-4.3
			c0.1-1.3-0.4-2.7-1.4-3.7L8,13.6C4.6,10.4,3.2,5.8,4.1,1.3c0.1-0.3,0.3-0.5,0.6-0.6c0.3-0.1,0.6,0,0.8,0.2l16.1,19.1
			c0.7,0.9,1.7,1.4,2.7,1.6c1.1,0.2,2.1,0.8,2.8,1.6c1,1.1,1.3,2.6,1,4.1c-0.3,1.4-1.2,2.7-2.6,3.3C24.8,31.1,24.1,31.3,23.4,31.3z
			 M5.4,3.3C5.1,6.7,6.4,10.1,9,12.5l9.2,8.7c1.4,1.3,2,3.1,1.9,4.9c-0.1,1.2,0.4,2.3,1.4,3c0.6,0.4,1.2,0.6,2,0.6l0,0
			c0.5,0,1-0.1,1.5-0.3c0.9-0.5,1.6-1.3,1.8-2.3c0.2-1-0.1-2-0.7-2.8c-0.5-0.6-1.2-1-2-1.1c-1.3-0.2-2.6-1-3.6-2.1L5.4,3.3z"/>
	</g>
	<g>
		<g>
			<defs>
				<circle id="SVGID_9_" cx="23.3" cy="26.4" r="1.5"/>
			</defs>
			<clipPath id="SVGID_2_">
				<use xlink:href="#SVGID_9_"  overflow="visible"/>
			</clipPath>
			<g clip-path="url(#SVGID_2_)">
				<rect x="6.6" y="24.2" fill="none" width="24.1" height="24.1"/>
				<rect x="6.6" y="24.2" fill="#FEE99B" width="24.1" height="24.1"/>
			</g>
		</g>
		<path fill="#8F9BA8" d="M23.3,28.7c-0.7,0-1.3-0.3-1.8-0.8c-0.4-0.5-0.6-1.1-0.5-1.7c0.1-0.6,0.3-1.2,0.8-1.6
			c0.9-0.8,2.4-0.6,3.2,0.3c0.4,0.5,0.6,1.1,0.5,1.7c-0.1,0.6-0.3,1.2-0.8,1.6C24.4,28.5,23.9,28.7,23.3,28.7z M23.3,25.6
			c-0.1,0-0.3,0-0.5,0.2c-0.2,0.1-0.3,0.3-0.3,0.5c0,0.2,0,0.4,0.2,0.6c0.2,0.2,0.4,0.3,0.6,0.3c0.1,0,0.3,0,0.5-0.2
			c0.2-0.1,0.3-0.3,0.3-0.5c0-0.2,0-0.4-0.2-0.6C23.8,25.8,23.6,25.6,23.3,25.6z"/>
	</g>
	<g>
		<path fill="#B4A79C" d="M8.7,28.7c-0.7,0-1.3-0.3-1.8-0.8c-0.4-0.5-0.6-1.1-0.5-1.7c0.1-0.6,0.3-1.2,0.8-1.6
			c0.9-0.8,2.4-0.6,3.2,0.3c0.4,0.5,0.6,1.1,0.5,1.7c-0.1,0.6-0.3,1.2-0.8,1.6C9.7,28.5,9.2,28.7,8.7,28.7z M8.7,25.6
			c-0.1,0-0.3,0-0.5,0.2C8,26,7.9,26.2,7.9,26.4c0,0.2,0,0.4,0.2,0.6c0.2,0.2,0.4,0.3,0.6,0.3c0.1,0,0.3,0,0.5-0.2
			c0.2-0.1,0.3-0.3,0.3-0.5c0-0.2,0-0.4-0.2-0.6C9.1,25.8,8.9,25.6,8.7,25.6z"/>
	</g>
	<g>
		<g>
			<defs>
				<line id="SVGID_11_" x1="15.4" y1="17.1" x2="16" y2="17.8"/>
			</defs>
			<clipPath id="SVGID_4_">
				<use xlink:href="#SVGID_11_"  overflow="visible"/>
			</clipPath>
			<g clip-path="url(#SVGID_4_)">
				<rect x="6.6" y="0.1" fill="none" width="24.1" height="24.1"/>
				<rect x="6.6" y="0.1" fill="#FEE99B" width="24.1" height="24.1"/>
			</g>
		</g>
		<rect x="15.3" y="16.7" transform="matrix(0.66 0.7513 -0.7513 0.66 18.4434 -5.874)" fill="#8F9BA8" width="0.9" height="1.5"/>
	</g>
</g>
</svg>
