<?xml version="1.0" encoding="utf-8"?>
<!-- Generator: Adobe Illustrator 18.0.0, SVG Export Plug-In . SVG Version: 6.00 Build 0)  -->
<!DOCTYPE svg PUBLIC "-//W3C//DTD SVG 1.1//EN" "http://www.w3.org/Graphics/SVG/1.1/DTD/svg11.dtd">
<svg version="1.1" id="Layer_1" xmlns="http://www.w3.org/2000/svg" xmlns:xlink="http://www.w3.org/1999/xlink" x="0px" y="0px"
	 viewBox="0 0 32 32" enable-background="new 0 0 32 32" xml:space="preserve">
<g>
	<g>
		<path fill="#DA8C8C" d="M26.5,10.3h-21V0.7h21V10.3z M7,8.8h18V2.2H7V8.8z"/>
	</g>
	<g>
		<path fill="#DA8C8C" d="M26.5,31.2h-21V8.8h21V31.2z M7,29.7h18V10.3H7V29.7z"/>
	</g>
	<g>
		<rect x="9.8" y="12.5" fill="#DA8C8C" width="1.9" height="1.5"/>
	</g>
	<g>
		<rect x="9.8" y="17" fill="#DA8C8C" width="1.9" height="1.5"/>
	</g>
	<g>
		<rect x="9.8" y="21.5" fill="#DA8C8C" width="1.9" height="1.5"/>
	</g>
	<g>
		<rect x="9.8" y="26" fill="#DA8C8C" width="1.9" height="1.5"/>
	</g>
	<g>
		<rect x="15.1" y="12.5" fill="#DA8C8C" width="1.9" height="1.5"/>
	</g>
	<g>
		<rect x="15.1" y="17" fill="#DA8C8C" width="1.9" height="1.5"/>
	</g>
	<g>
		<rect x="15.1" y="21.5" fill="#DA8C8C" width="1.9" height="1.5"/>
	</g>
	<g>
		<rect x="15.1" y="26" fill="#DA8C8C" width="1.9" height="1.5"/>
	</g>
	<g>
		<rect x="20.3" y="12.5" fill="#DA8C8C" width="1.9" height="1.5"/>
	</g>
	<g>
		<rect x="20.3" y="17" fill="#DA8C8C" width="1.9" height="1.5"/>
	</g>
	<g>
		<rect x="20.3" y="21.5" fill="#DA8C8C" width="1.9" height="1.5"/>
	</g>
	<g>
		<rect x="20.3" y="26" fill="#DA8C8C" width="1.9" height="1.5"/>
	</g>
</g>
</svg>
