<?xml version="1.0" encoding="utf-8"?>
<!-- Generator: Adobe Illustrator 18.0.0, SVG Export Plug-In . SVG Version: 6.00 Build 0)  -->
<!DOCTYPE svg PUBLIC "-//W3C//DTD SVG 1.1//EN" "http://www.w3.org/Graphics/SVG/1.1/DTD/svg11.dtd">
<svg version="1.1" id="Layer_1" xmlns="http://www.w3.org/2000/svg" xmlns:xlink="http://www.w3.org/1999/xlink" x="0px" y="0px"
	 viewBox="0 0 32 32" enable-background="new 0 0 32 32" xml:space="preserve">
<g>
	<g>
		<path fill="#B4A79C" d="M16,30.5C8,30.5,1.5,24,1.5,16C1.5,8,8,1.5,16,1.5S30.5,8,30.5,16C30.5,24,24,30.5,16,30.5z M16,3
			C8.8,3,3,8.8,3,16c0,7.2,5.9,13,13,13c7.2,0,13-5.9,13-13C29,8.8,23.2,3,16,3z"/>
	</g>
	<g>
		<path fill="#B4A79C" d="M16,24.8c-4.8,0-8.8-3.9-8.8-8.8c0-4.8,3.9-8.8,8.8-8.8c4.8,0,8.8,3.9,8.8,8.8
			C24.8,20.8,20.8,24.8,16,24.8z M16,8.6c-4.1,0-7.4,3.3-7.4,7.4s3.3,7.4,7.4,7.4s7.4-3.3,7.4-7.4S20.1,8.6,16,8.6z"/>
	</g>
	<g>
		<path fill="#B4A79C" d="M16,19.6c-2,0-3.6-1.6-3.6-3.6c0-2,1.6-3.6,3.6-3.6c2,0,3.6,1.6,3.6,3.6C19.6,18,18,19.6,16,19.6z
			 M16,13.9c-1.2,0-2.1,1-2.1,2.1s1,2.1,2.1,2.1s2.1-1,2.1-2.1S17.2,13.9,16,13.9z"/>
	</g>
	<g>
		<rect x="15.3" y="0.7" fill="#B4A79C" width="1.4" height="1.5"/>
	</g>
	<g>
		<rect x="15.3" y="29.8" fill="#B4A79C" width="1.4" height="1.5"/>
	</g>
	<g>
		<rect x="0.8" y="15.3" fill="#B4A79C" width="1.5" height="1.4"/>
	</g>
	<g>
		<rect x="29.8" y="15.3" fill="#B4A79C" width="1.5" height="1.4"/>
	</g>
	<g>
		<rect x="5" y="5" transform="matrix(0.7071 0.7071 -0.7071 0.7071 5.7446 -2.3796)" fill="#B4A79C" width="1.5" height="1.4"/>
	</g>
	<g>
		
			<rect x="25.5" y="25.5" transform="matrix(0.7071 0.7071 -0.7071 0.7071 26.256 -10.8758)" fill="#B4A79C" width="1.5" height="1.4"/>
	</g>
	<g>
		<rect x="5" y="25.5" transform="matrix(0.7071 0.7071 -0.7071 0.7071 20.2483 3.628)" fill="#B4A79C" width="1.4" height="1.5"/>
	</g>
	<g>
		
			<rect x="25.5" y="5" transform="matrix(0.7071 0.7071 -0.7071 0.7071 11.7521 -16.8831)" fill="#B4A79C" width="1.4" height="1.5"/>
	</g>
	<g>
		
			<rect x="9.7" y="1.9" transform="matrix(0.3828 0.9238 -0.9238 0.3828 8.8523 -8.0492)" fill="#B4A79C" width="1.5" height="1.4"/>
	</g>
	<g>
		
			<rect x="20.8" y="28.7" transform="matrix(0.3827 0.9239 -0.9239 0.3827 40.4659 -1.7608)" fill="#B4A79C" width="1.5" height="1.4"/>
	</g>
	<g>
		
			<rect x="1.9" y="20.8" transform="matrix(0.3828 0.9238 -0.9238 0.3828 21.514 10.8986)" fill="#B4A79C" width="1.4" height="1.5"/>
	</g>
	<g>
		
			<rect x="28.7" y="9.7" transform="matrix(0.3828 0.9238 -0.9238 0.3828 27.7999 -20.7108)" fill="#B4A79C" width="1.4" height="1.5"/>
	</g>
	<g>
		
			<rect x="1.9" y="9.7" transform="matrix(0.9238 0.3828 -0.3828 0.9238 4.1982 -0.1996)" fill="#B4A79C" width="1.5" height="1.4"/>
	</g>
	<g>
		
			<rect x="28.7" y="20.8" transform="matrix(0.9239 0.3827 -0.3827 0.9239 10.4841 -9.6101)" fill="#B4A79C" width="1.5" height="1.4"/>
	</g>
	<g>
		
			<rect x="9.7" y="28.7" transform="matrix(0.9238 0.3828 -0.3828 0.9238 12.0517 -1.7609)" fill="#B4A79C" width="1.4" height="1.5"/>
	</g>
	<g>
		
			<rect x="20.8" y="1.9" transform="matrix(0.9238 0.3828 -0.3828 0.9238 2.6375 -8.0524)" fill="#B4A79C" width="1.4" height="1.5"/>
	</g>
	<g>
		
			<rect x="12.4" y="1.1" transform="matrix(0.1953 0.9807 -0.9807 0.1953 12.3398 -11.4889)" fill="#B4A79C" width="1.5" height="1.4"/>
	</g>
	<g>
		
			<rect x="18.1" y="29.5" transform="matrix(0.1953 0.9808 -0.9808 0.1953 44.7959 5.8558)" fill="#B4A79C" width="1.5" height="1.4"/>
	</g>
	<g>
		
			<rect x="1.1" y="18.1" transform="matrix(0.1954 0.9807 -0.9807 0.1954 19.8949 13.4094)" fill="#B4A79C" width="1.4" height="1.5"/>
	</g>
	<g>
		
			<rect x="29.5" y="12.4" transform="matrix(0.1953 0.9807 -0.9807 0.1953 37.2383 -19.0448)" fill="#B4A79C" width="1.4" height="1.5"/>
	</g>
	<g>
		<rect x="3.2" y="7.2" transform="matrix(0.8315 0.5556 -0.5556 0.8315 5.0765 -0.851)" fill="#B4A79C" width="1.5" height="1.4"/>
	</g>
	<g>
		
			<rect x="27.3" y="23.3" transform="matrix(0.8315 0.5556 -0.5556 0.8315 18.0957 -11.5351)" fill="#B4A79C" width="1.5" height="1.4"/>
	</g>
	<g>
		
			<rect x="7.2" y="27.3" transform="matrix(0.8312 0.5559 -0.5559 0.8312 16.9385 0.3198)" fill="#B4A79C" width="1.4" height="1.5"/>
	</g>
	<g>
		
			<rect x="23.3" y="3.2" transform="matrix(0.8316 0.5554 -0.5554 0.8316 6.2412 -12.6989)" fill="#B4A79C" width="1.4" height="1.5"/>
	</g>
	<g>
		
			<rect x="7.2" y="3.2" transform="matrix(0.5557 0.8314 -0.8314 0.5557 6.8046 -4.8525)" fill="#B4A79C" width="1.5" height="1.4"/>
	</g>
	<g>
		
			<rect x="23.3" y="27.3" transform="matrix(0.5556 0.8315 -0.8315 0.5556 34.0233 -7.5329)" fill="#B4A79C" width="1.5" height="1.4"/>
	</g>
	<g>
		
			<rect x="3.2" y="23.3" transform="matrix(0.5559 0.8312 -0.8312 0.5559 21.7481 7.4083)" fill="#B4A79C" width="1.4" height="1.5"/>
	</g>
	<g>
		
			<rect x="27.3" y="7.2" transform="matrix(0.5554 0.8316 -0.8316 0.5554 19.0786 -19.8022)" fill="#B4A79C" width="1.4" height="1.5"/>
	</g>
	<g>
		
			<rect x="1" y="12.5" transform="matrix(0.9808 0.195 -0.195 0.9808 2.6025 -9.333035e-002)" fill="#B4A79C" width="1.5" height="1.4"/>
	</g>
	<g>
		
			<rect x="29.5" y="18.1" transform="matrix(0.9808 0.1952 -0.1952 0.9808 4.2572 -5.5381)" fill="#B4A79C" width="1.5" height="1.4"/>
	</g>
	<g>
		
			<rect x="12.5" y="29.5" transform="matrix(0.9807 0.1954 -0.1954 0.9807 6.1594 -1.9909)" fill="#B4A79C" width="1.4" height="1.5"/>
	</g>
	<g>
		<rect x="18.1" y="1" transform="matrix(0.9809 0.1946 -0.1946 0.9809 0.7052 -3.6295)" fill="#B4A79C" width="1.4" height="1.5"/>
	</g>
	<g>
		
			<rect x="19.1" y="9.5" transform="matrix(0.7071 0.7071 -0.7071 0.7071 14.3599 -10.4486)" fill="#B4A79C" width="1.4" height="5.2"/>
	</g>
	<g>
		
			<rect x="11.5" y="17.1" transform="matrix(0.7071 0.7071 -0.7071 0.7071 17.5026 -2.8639)" fill="#B4A79C" width="1.4" height="5.2"/>
	</g>
	<g>
		
			<rect x="9.6" y="11.4" transform="matrix(0.7071 0.7071 -0.7071 0.7071 12.1383 -5.0855)" fill="#B4A79C" width="5.2" height="1.4"/>
	</g>
	<g>
		
			<rect x="17.2" y="19" transform="matrix(0.7071 0.7071 -0.7071 0.7071 19.7227 -8.2271)" fill="#B4A79C" width="5.2" height="1.4"/>
	</g>
</g>
</svg>
