<?xml version="1.0" encoding="utf-8"?>
<!-- Generator: Adobe Illustrator 18.0.0, SVG Export Plug-In . SVG Version: 6.00 Build 0)  -->
<!DOCTYPE svg PUBLIC "-//W3C//DTD SVG 1.1//EN" "http://www.w3.org/Graphics/SVG/1.1/DTD/svg11.dtd">
<svg version="1.1" id="Layer_1" xmlns="http://www.w3.org/2000/svg" xmlns:xlink="http://www.w3.org/1999/xlink" x="0px" y="0px"
	 viewBox="0 0 32 32" enable-background="new 0 0 32 32" xml:space="preserve">
<g>
	<g>
		<path fill="#74B1E0" d="M16,31.2C7.6,31.2,0.7,24.4,0.7,16C0.7,7.6,7.6,0.7,16,0.7c8.4,0,15.2,6.8,15.2,15.3
			C31.2,24.4,24.4,31.2,16,31.2z M16,2.2C8.4,2.2,2.2,8.4,2.2,16c0,7.6,6.2,13.7,13.7,13.7c7.6,0,13.8-6.2,13.8-13.7
			C29.7,8.4,23.6,2.2,16,2.2z"/>
	</g>
	<g>
		<rect x="15.3" y="1" transform="matrix(0.7071 0.7071 -0.7071 0.7071 6.6701 -10.492)" fill="#74B1E0" width="1.5" height="3.7"/>
	</g>
	<g>
		
			<rect x="15.3" y="27.3" transform="matrix(0.7071 0.7071 -0.7071 0.7071 25.3285 -2.7633)" fill="#74B1E0" width="1.5" height="3.7"/>
	</g>
	<g>
		<rect x="1" y="15.3" transform="matrix(0.7071 0.7071 -0.7071 0.7071 12.1355 2.7024)" fill="#74B1E0" width="3.7" height="1.5"/>
	</g>
	<g>
		
			<rect x="27.3" y="15.3" transform="matrix(0.7071 0.7071 -0.7071 0.7071 19.864 -15.9571)" fill="#74B1E0" width="3.7" height="1.5"/>
	</g>
	<g>
		<rect x="5.9" y="4.8" fill="#74B1E0" width="1.5" height="3.7"/>
	</g>
	<g>
		<rect x="24.6" y="23.5" fill="#74B1E0" width="1.5" height="3.7"/>
	</g>
	<g>
		<rect x="4.8" y="24.6" fill="#74B1E0" width="3.7" height="1.5"/>
	</g>
	<g>
		<rect x="23.5" y="5.9" fill="#74B1E0" width="3.7" height="1.5"/>
	</g>
	<g>
		<path fill="#74B1E0" d="M16,24.2c-4.5,0-8.2-3.7-8.2-8.2c0-4.5,3.7-8.2,8.2-8.2c4.5,0,8.2,3.7,8.2,8.2
			C24.2,20.5,20.5,24.2,16,24.2z M16,9.3c-3.7,0-6.7,3-6.7,6.7c0,3.7,3,6.7,6.7,6.7c3.7,0,6.7-3,6.7-6.7C22.7,12.3,19.7,9.3,16,9.3z
			"/>
	</g>
	<g>
		<path fill="#74B1E0" d="M16,20.7c-2.6,0-4.7-2.1-4.7-4.7s2.1-4.7,4.7-4.7c2.6,0,4.7,2.1,4.7,4.7S18.6,20.7,16,20.7z M16,12.8
			c-1.7,0-3.2,1.4-3.2,3.2c0,1.7,1.4,3.2,3.2,3.2c1.7,0,3.2-1.4,3.2-3.2C19.2,14.3,17.7,12.8,16,12.8z"/>
	</g>
</g>
</svg>
