<?xml version="1.0" encoding="utf-8"?>
<!-- Generator: Adobe Illustrator 18.0.0, SVG Export Plug-In . SVG Version: 6.00 Build 0)  -->
<!DOCTYPE svg PUBLIC "-//W3C//DTD SVG 1.1//EN" "http://www.w3.org/Graphics/SVG/1.1/DTD/svg11.dtd">
<svg version="1.1" id="Layer_1" xmlns="http://www.w3.org/2000/svg" xmlns:xlink="http://www.w3.org/1999/xlink" x="0px" y="0px"
	 viewBox="0 0 32 32" enable-background="new 0 0 32 32" xml:space="preserve">
<g>
	<g>
		<path fill="#8F9BA8" d="M28.2,10L22,3.8l2.3-2.3c1-1,2.6-1,3.6,0l2.6,2.6c0.5,0.5,0.7,1.1,0.7,1.8c0,0.7-0.3,1.3-0.7,1.8L28.2,10z
			 M24.2,3.8l4,4l1.3-1.3c0.2-0.2,0.3-0.4,0.3-0.7c0-0.3-0.1-0.5-0.3-0.7l-2.6-2.6c-0.4-0.4-1.1-0.4-1.4,0L24.2,3.8z"/>
	</g>
	<g>
		<path fill="#8F9BA8" d="M25.6,12.5l-6.2-6.2l3.6-3.6l6.2,6.2L25.6,12.5z M21.6,6.3l4,4l1.5-1.5l-4-4L21.6,6.3z"/>
	</g>
	<g>
		<path fill="#8F9BA8" d="M1.5,31.2c-0.2,0-0.4-0.1-0.5-0.2c-0.2-0.2-0.3-0.5-0.2-0.8l2.7-7.8c0.1-0.2,0.3-0.4,0.5-0.5
			c0.3-0.1,0.5,0,0.7,0.2l5.1,5.1c0.2,0.2,0.3,0.4,0.2,0.7c-0.1,0.3-0.2,0.5-0.5,0.5l-7.8,2.7C1.7,31.2,1.6,31.2,1.5,31.2z M4.5,24
			l-1.8,5.2l5.2-1.8L4.5,24z"/>
	</g>
	<g>
		<path fill="#8F9BA8" d="M9.3,28.5c-0.2,0-0.4-0.1-0.5-0.2l-5.1-5.1c-0.3-0.3-0.3-0.8,0-1.1L20,5.8c0.3-0.3,0.8-0.3,1.1,0l5.1,5.1
			c0.3,0.3,0.3,0.8,0,1.1L9.9,28.3C9.7,28.4,9.5,28.5,9.3,28.5z M5.3,22.7l4,4l15.3-15.3l-4-4L5.3,22.7z"/>
	</g>
</g>
</svg>
