<?xml version="1.0" encoding="utf-8"?>
<!-- Generator: Adobe Illustrator 18.0.0, SVG Export Plug-In . SVG Version: 6.00 Build 0)  -->
<!DOCTYPE svg PUBLIC "-//W3C//DTD SVG 1.1//EN" "http://www.w3.org/Graphics/SVG/1.1/DTD/svg11.dtd">
<svg version="1.1" id="Layer_1" xmlns="http://www.w3.org/2000/svg" xmlns:xlink="http://www.w3.org/1999/xlink" x="0px" y="0px"
	 viewBox="0 0 32 32" enable-background="new 0 0 32 32" xml:space="preserve">
<g>
	<g>
		<path fill="#79C693" d="M16,18.6c-2.1,0-3.8-1.7-3.8-3.8S13.9,11,16,11s3.8,1.7,3.8,3.8S18.1,18.6,16,18.6z M16,12.4
			c-1.3,0-2.3,1-2.3,2.3s1,2.3,2.3,2.3s2.3-1,2.3-2.3C18.3,13.5,17.3,12.4,16,12.4z"/>
	</g>
	<g>
		<path fill="#79C693" d="M9.8,15.5h-9v-0.8c0-4.9,2.4-9.5,6.3-12.4L7.7,2L13,9.3l-0.6,0.4c-1.6,1.2-2.6,3.1-2.6,5.1
			C9.8,14.8,9.8,15.5,9.8,15.5z M2.3,14h6c0.2-1.9,1.1-3.8,2.6-5.1L7.4,4.1C4.3,6.5,2.5,10.2,2.3,14z"/>
	</g>
	<g>
		<path fill="#79C693" d="M31.3,15.5h-9v-0.8c0-2-1-3.9-2.6-5.1L19,9.3L24.3,2l0.6,0.4c4,2.9,6.3,7.5,6.3,12.4L31.3,15.5L31.3,15.5z
			 M23.7,14h6c-0.2-3.9-2.1-7.5-5.1-9.9L21.1,9C22.6,10.3,23.5,12.1,23.7,14z"/>
	</g>
	<g>
		<path fill="#79C693" d="M16,30c-3.2,0-6.3-1-8.9-2.9l-0.6-0.4l5.3-7.3l0.6,0.4c2.1,1.6,5.2,1.6,7.3,0l0.6-0.4l5.3,7.3L25,27.1
			C22.3,29,19.2,30,16,30z M8.6,26.3c2.2,1.4,4.8,2.2,7.4,2.2s5.2-0.8,7.4-2.2l-3.5-4.9c-2.4,1.4-5.4,1.4-7.8,0L8.6,26.3z"/>
	</g>
</g>
</svg>
