<?xml version="1.0" encoding="utf-8"?>
<!-- Generator: Adobe Illustrator 18.0.0, SVG Export Plug-In . SVG Version: 6.00 Build 0)  -->
<!DOCTYPE svg PUBLIC "-//W3C//DTD SVG 1.1//EN" "http://www.w3.org/Graphics/SVG/1.1/DTD/svg11.dtd">
<svg version="1.1" id="Layer_1" xmlns="http://www.w3.org/2000/svg" xmlns:xlink="http://www.w3.org/1999/xlink" x="0px" y="0px"
	 viewBox="0 0 32 32" enable-background="new 0 0 32 32" xml:space="preserve">
<g>
	<g>
		<path fill="#74B1E0" d="M21.9,31.2H10.1c-2.2,0-4.1-1.8-4.1-4.1V4.8c0-2.2,1.8-4.1,4.1-4.1h11.7c2.2,0,4.1,1.8,4.1,4.1v22.4
			C25.9,29.4,24.1,31.2,21.9,31.2z M10.1,2.2c-1.4,0-2.6,1.2-2.6,2.6v22.4c0,1.4,1.2,2.6,2.6,2.6h11.7c1.4,0,2.6-1.2,2.6-2.6V4.8
			c0-1.4-1.2-2.6-2.6-2.6H10.1z"/>
	</g>
	<g>
		<rect x="6.8" y="18" fill="#74B1E0" width="18.4" height="1.5"/>
	</g>
	<g>
		<circle fill="#CDE4F7" cx="16" cy="24.6" r="3.1"/>
		<path fill="#74B1E0" d="M16,28.4c-2.1,0-3.8-1.7-3.8-3.8c0-2.1,1.7-3.8,3.8-3.8s3.8,1.7,3.8,3.8C19.8,26.7,18.1,28.4,16,28.4z
			 M16,22.2c-1.3,0-2.3,1-2.3,2.3c0,1.3,1,2.3,2.3,2.3c1.3,0,2.3-1,2.3-2.3C18.3,23.3,17.3,22.2,16,22.2z"/>
	</g>
</g>
</svg>
