<?xml version="1.0" encoding="utf-8"?>
<!-- Generator: Adobe Illustrator 18.0.0, SVG Export Plug-In . SVG Version: 6.00 Build 0)  -->
<!DOCTYPE svg PUBLIC "-//W3C//DTD SVG 1.1//EN" "http://www.w3.org/Graphics/SVG/1.1/DTD/svg11.dtd">
<svg version="1.1" id="Layer_1" xmlns="http://www.w3.org/2000/svg" xmlns:xlink="http://www.w3.org/1999/xlink" x="0px" y="0px"
	 viewBox="0 0 32 32" enable-background="new 0 0 32 32" xml:space="preserve">
<g>
	<g>
		<path fill="#DA8C8C" d="M27,31.2H5c-1.9,0-3.5-1.6-3.5-3.5V4.2c0-1.9,1.6-3.5,3.5-3.5h22c1.9,0,3.5,1.6,3.5,3.5v23.6
			C30.4,29.7,28.9,31.2,27,31.2z M5,2.2c-1.1,0-2,0.9-2,2v23.6c0,1.1,0.9,2,2,2h22c1.1,0,2-0.9,2-2V4.2c0-1.1-0.9-2-2-2H5z"/>
	</g>
	<g>
		<rect x="7.4" y="4.8" fill="#FAC2C3" width="17.2" height="5.9"/>
		<path fill="#DA8C8C" d="M24.6,11.4H7.4c-0.4,0-0.8-0.3-0.8-0.8V4.8c0-0.4,0.3-0.8,0.8-0.8h17.2c0.4,0,0.8,0.3,0.8,0.8v5.9
			C25.3,11.1,25,11.4,24.6,11.4z M8.2,9.9h15.7V5.6H8.2V9.9z"/>
	</g>
	<g>
		<rect x="15.3" y="16.6" fill="#DA8C8C" width="1.5" height="13.9"/>
	</g>
</g>
</svg>
