<?xml version="1.0" encoding="utf-8"?>
<!-- Generator: Adobe Illustrator 18.0.0, SVG Export Plug-In . SVG Version: 6.00 Build 0)  -->
<!DOCTYPE svg PUBLIC "-//W3C//DTD SVG 1.1//EN" "http://www.w3.org/Graphics/SVG/1.1/DTD/svg11.dtd">
<svg version="1.1" id="Layer_1" xmlns="http://www.w3.org/2000/svg" xmlns:xlink="http://www.w3.org/1999/xlink" x="0px" y="0px"
	 viewBox="0 0 32 32" enable-background="new 0 0 32 32" xml:space="preserve">
<g>
	<g>
		<path fill="#B4A79C" d="M16.4,14.1c-0.3,0-0.6-0.2-0.7-0.5c0-0.1-0.1-0.2-0.1-0.2c-0.2,0-0.3-0.1-0.5-0.2
			c-0.3-0.3-0.2-0.8,0.1-1.1c0.2-0.2,0.5-0.3,0.9-0.2c0.6,0.2,0.9,0.8,1,1.2c0.1,0.4-0.1,0.8-0.5,0.9C16.5,14.1,16.4,14.1,16.4,14.1
			z"/>
	</g>
	<g>
		<path fill="#B4A79C" d="M17.5,18.3c-0.3,0-0.6-0.2-0.7-0.5c0-0.1-0.1-0.2-0.1-0.2c-0.2,0-0.3-0.1-0.5-0.2
			c-0.3-0.3-0.2-0.8,0.1-1.1c0.2-0.2,0.5-0.3,0.9-0.2c0.6,0.2,0.9,0.8,1,1.2c0.1,0.4-0.1,0.8-0.5,0.9C17.6,18.3,17.5,18.3,17.5,18.3
			z"/>
	</g>
	<g>
		<path fill="#B4A79C" d="M15,16.9c-0.1,0-0.2,0-0.2,0c-0.4-0.1-0.6-0.6-0.5-0.9c0.2-0.5,0.4-1.1,1-1.2c0.4-0.1,0.7,0,0.9,0.2
			c0.3,0.3,0.3,0.8,0,1.1c-0.1,0.1-0.3,0.2-0.5,0.2c0,0.1,0,0.1-0.1,0.2C15.6,16.7,15.3,16.9,15,16.9z"/>
	</g>
	<g>
		<path fill="#B4A79C" d="M20.3,7.9c-0.3,0-0.6-0.2-0.7-0.5c0-0.1-0.1-0.2-0.1-0.2c-0.2,0-0.3-0.1-0.5-0.2c-0.3-0.3-0.2-0.8,0.1-1.1
			c0.2-0.2,0.5-0.3,0.9-0.2c0.6,0.2,0.9,0.8,1,1.2c0.1,0.4-0.1,0.8-0.5,0.9C20.4,7.8,20.4,7.9,20.3,7.9z"/>
	</g>
	<g>
		<path fill="#B4A79C" d="M21.4,12.1c-0.3,0-0.6-0.2-0.7-0.5c0-0.1-0.1-0.2-0.1-0.2c-0.2,0-0.3-0.1-0.5-0.2
			c-0.3-0.3-0.2-0.8,0.1-1.1c0.2-0.2,0.5-0.3,0.9-0.2c0.6,0.2,0.9,0.8,1,1.2c0.1,0.4-0.1,0.8-0.5,0.9C21.5,12.1,21.5,12.1,21.4,12.1
			z"/>
	</g>
	<g>
		<path fill="#B4A79C" d="M18.9,10.7c-0.1,0-0.2,0-0.2,0c-0.4-0.1-0.6-0.6-0.5-0.9c0.2-0.5,0.4-1.1,1-1.2c0.4-0.1,0.7,0,0.9,0.2
			c0.3,0.3,0.3,0.8,0,1.1c-0.1,0.1-0.3,0.2-0.5,0.2c0,0.1,0,0.1-0.1,0.2C19.5,10.5,19.2,10.7,18.9,10.7z"/>
	</g>
	<g>
		<path fill="#B4A79C" d="M10.7,8.6c-0.1,0-0.2,0-0.2,0C10.1,8.4,9.9,8,10,7.6c0.2-0.5,0.4-1.1,1-1.2c0.4-0.1,0.7,0,0.9,0.2
			c0.3,0.3,0.3,0.8,0,1.1c-0.1,0.1-0.3,0.2-0.5,0.2c0,0.1,0,0.1-0.1,0.2C11.3,8.4,11,8.6,10.7,8.6z"/>
	</g>
	<g>
		<path fill="#B4A79C" d="M9.6,12.8c-0.1,0-0.2,0-0.2,0c-0.4-0.1-0.6-0.6-0.5-0.9c0.2-0.5,0.4-1.1,1-1.2c0.4-0.1,0.7,0,0.9,0.2
			c0.3,0.3,0.3,0.8,0,1.1c-0.1,0.1-0.3,0.2-0.5,0.2c0,0.1,0,0.1-0.1,0.2C10.2,12.6,9.9,12.8,9.6,12.8z"/>
	</g>
	<g>
		<path fill="#B4A79C" d="M12.1,11.4c-0.3,0-0.6-0.2-0.7-0.5c0-0.1-0.1-0.2-0.1-0.2c-0.2,0-0.3-0.1-0.5-0.2
			c-0.3-0.3-0.2-0.8,0.1-1.1c0.2-0.2,0.5-0.3,0.9-0.2c0.6,0.2,0.9,0.8,1,1.2c0.1,0.4-0.1,0.8-0.5,0.9C12.3,11.4,12.2,11.4,12.1,11.4
			z"/>
	</g>
	<g>
		<path fill="#F9F8F2" d="M17,20.7c-0.6,0.6-1.5,0.6-2.1,0v0c-0.1-0.1-0.2-0.1-0.3-0.2c-0.4,2.9-1.1,8.8-2,9.9h3h0.6h3
			c-0.9-1.2-1.7-7-2-9.9C17.2,20.6,17.1,20.7,17,20.7L17,20.7z"/>
		<path fill="#B4A79C" d="M19.3,31.2C19.3,31.2,19.3,31.2,19.3,31.2h-6.6c-0.3,0-0.5-0.2-0.7-0.4c-0.1-0.3-0.1-0.6,0.1-0.8
			c0.4-0.6,1.1-3.4,1.9-9.6c0-0.3,0.2-0.5,0.4-0.6c0.2-0.1,0.5-0.1,0.7,0c0.2,0.1,0.3,0.2,0.4,0.3c0.3,0.3,0.7,0.3,1,0
			c0.1-0.1,0.2-0.2,0.4-0.3c0.2-0.1,0.5-0.2,0.7,0c0.2,0.1,0.4,0.3,0.4,0.6c0.7,5.9,1.4,8.8,1.8,9.5c0.1,0.1,0.2,0.3,0.2,0.5
			C20.1,30.9,19.7,31.2,19.3,31.2z M13.8,29.7h4.3c-0.5-1.5-1-4.2-1.5-7.9c-0.4,0.1-1,0.1-1.4,0C14.8,25.6,14.3,28.2,13.8,29.7z"/>
	</g>
	<g>
		<path fill="#B4A79C" d="M16,21.9c-0.6,0-1.2-0.2-1.6-0.6c0,0-0.1-0.1-0.1-0.1c-0.2-0.1-0.4-0.1-0.7-0.1c-1.1,0.5-2.4-0.1-2.9-1.2
			c-0.1-0.3-0.4-0.4-0.7-0.4c-1.2,0-2.2-1-2.2-2.2c0-0.3-0.2-0.6-0.4-0.7c-1.1-0.5-1.7-1.8-1.2-2.9c0.1-0.3,0.1-0.6-0.2-0.8
			c-0.4-0.4-0.6-1-0.6-1.6c0-0.6,0.2-1.2,0.6-1.6C6.3,9.6,6.3,9.2,6.2,9C5.7,7.8,6.3,6.5,7.4,6.1C7.7,6,7.9,5.7,7.9,5.4
			c0-1.2,1-2.2,2.2-2.2c0.3,0,0.6-0.2,0.7-0.4c0.5-1.1,1.8-1.7,2.9-1.2c0.3,0.1,0.6,0,0.8-0.2c0.8-0.8,2.3-0.8,3.1,0
			c0.2,0.2,0.5,0.3,0.8,0.2c1.1-0.5,2.4,0.1,2.9,1.2c0.1,0.3,0.4,0.4,0.7,0.4c1.2,0,2.2,1,2.2,2.2c0,0.3,0.2,0.6,0.4,0.7
			c0.5,0.2,1,0.7,1.2,1.2C26,7.8,26,8.4,25.8,9c-0.1,0.3-0.1,0.6,0.2,0.8c0.4,0.4,0.7,1,0.7,1.6c0,0.6-0.2,1.2-0.7,1.6
			c-0.2,0.2-0.3,0.5-0.2,0.8c0.5,1.1-0.1,2.4-1.2,2.9c-0.3,0.1-0.4,0.4-0.4,0.7c0,1.2-1,2.2-2.2,2.2c-0.3,0-0.6,0.2-0.7,0.4
			c-0.3,0.8-1.1,1.4-2.1,1.4l0,0c-0.3,0-0.6-0.1-0.8-0.2c-0.2-0.1-0.5-0.1-0.7,0.1c-0.1,0-0.1,0.1-0.1,0.1
			C17.2,21.7,16.6,21.9,16,21.9z M13.9,19.6c0.4,0,0.8,0.1,1.2,0.3c0.2,0.1,0.3,0.2,0.4,0.3c0.3,0.3,0.7,0.3,1,0
			c0.1-0.1,0.2-0.2,0.4-0.3c0.6-0.4,1.4-0.4,2-0.2c0.4,0.2,0.8,0,0.9-0.4c0.3-0.8,1.1-1.4,2.1-1.4c0.4,0,0.7-0.3,0.7-0.7
			c0-0.9,0.5-1.7,1.4-2.1c0.4-0.2,0.5-0.6,0.4-0.9c-0.3-0.8-0.2-1.8,0.5-2.4c0.1-0.1,0.2-0.3,0.2-0.5c0-0.2-0.1-0.4-0.2-0.5
			c-0.6-0.6-0.8-1.6-0.5-2.4c0.2-0.4,0-0.8-0.4-0.9c-0.8-0.3-1.4-1.1-1.4-2.1c0-0.4-0.3-0.7-0.7-0.7c-0.9,0-1.7-0.5-2.1-1.4
			c-0.1-0.4-0.6-0.5-0.9-0.4c-0.8,0.3-1.8,0.1-2.4-0.5c-0.3-0.3-0.7-0.3-1,0c-0.6,0.6-1.6,0.8-2.4,0.5c-0.4-0.1-0.8,0-0.9,0.4
			c-0.3,0.8-1.1,1.4-2.1,1.4C9.7,4.7,9.4,5,9.4,5.4c0,0.9-0.5,1.7-1.4,2.1C7.8,7.5,7.7,7.7,7.6,7.9C7.5,8,7.5,8.2,7.6,8.4
			c0.3,0.8,0.2,1.8-0.5,2.4c-0.3,0.3-0.3,0.7,0,1c0.6,0.6,0.8,1.6,0.5,2.4c-0.2,0.4,0,0.8,0.4,0.9c0.8,0.3,1.4,1.1,1.4,2.1
			c0,0.4,0.3,0.7,0.7,0.7c0.9,0,1.7,0.5,2.1,1.4c0.1,0.4,0.6,0.5,0.9,0.4C13.3,19.6,13.6,19.6,13.9,19.6z"/>
	</g>
</g>
</svg>
