<?xml version="1.0" encoding="utf-8"?>
<!-- Generator: Adobe Illustrator 18.0.0, SVG Export Plug-In . SVG Version: 6.00 Build 0)  -->
<!DOCTYPE svg PUBLIC "-//W3C//DTD SVG 1.1//EN" "http://www.w3.org/Graphics/SVG/1.1/DTD/svg11.dtd">
<svg version="1.1" id="Layer_1" xmlns="http://www.w3.org/2000/svg" xmlns:xlink="http://www.w3.org/1999/xlink" x="0px" y="0px"
	 viewBox="0 0 32 32" enable-background="new 0 0 32 32" xml:space="preserve">
<g>
	<g>
		<path fill="#CDE4F7" d="M21.9,19.2c0,6.8-2.7,7.1-5.9,7.1s-5.9-0.3-5.9-7.1S12.7,1.5,16,1.5S21.9,12.3,21.9,19.2z"/>
		<path fill="#74B1E0" d="M16,27c-3.7,0-6.7-0.6-6.7-7.9c0-6.5,2.6-18.4,6.7-18.4c4.2,0,6.7,11.9,6.7,18.4C22.7,26.4,19.7,27,16,27z
			 M16,2.3c-2.3,0-5.2,9.5-5.2,16.9c0,6.3,2.3,6.3,5.2,6.3c2.9,0,5.2,0,5.2-6.3C21.2,11.7,18.3,2.3,16,2.3z"/>
	</g>
	<g>
		<line fill="#CDE4F7" x1="15.6" y1="26.3" x2="15.6" y2="31.2"/>
		<rect x="14.9" y="26.3" fill="#74B1E0" width="1.5" height="5"/>
	</g>
	<g>
		<path fill="#CDE4F7" d="M14.9,8.2c0,0,0.7-0.7,1.4,1.5"/>
		<path fill="#74B1E0" d="M16.3,10.4c-0.3,0-0.6-0.2-0.7-0.5c-0.2-0.6-0.4-0.9-0.5-1c-0.3,0.1-0.6,0-0.8-0.2C14,8.3,14,7.9,14.3,7.6
			c0.2-0.2,0.6-0.4,1.1-0.3c0.7,0.2,1.2,0.8,1.6,2.1c0.1,0.4-0.1,0.8-0.5,1C16.5,10.4,16.4,10.4,16.3,10.4z"/>
	</g>
	<g>
		<path fill="#CDE4F7" d="M17.1,16.9c0,0,0.7-0.7,1.4,1.5"/>
		<path fill="#74B1E0" d="M18.6,19.1c-0.3,0-0.6-0.2-0.7-0.5c-0.2-0.6-0.4-0.9-0.5-1c-0.3,0.1-0.6,0-0.8-0.2
			c-0.3-0.3-0.2-0.8,0.1-1.1c0.2-0.2,0.6-0.4,1.1-0.3c0.7,0.2,1.2,0.8,1.6,2.1c0.1,0.4-0.1,0.8-0.5,1C18.7,19.1,18.7,19.1,18.6,19.1
			z"/>
	</g>
	<g>
		<path fill="#CDE4F7" d="M14.9,14c0,0-0.7-0.7-1.4,1.5"/>
		<path fill="#74B1E0" d="M13.4,16.2c-0.1,0-0.2,0-0.2,0c-0.4-0.1-0.6-0.6-0.5-1c0.4-1.2,0.9-1.9,1.6-2.1c0.5-0.1,0.9,0.1,1.1,0.3
			c0.3,0.3,0.3,0.8,0.1,1.1c-0.2,0.2-0.5,0.3-0.8,0.2c-0.1,0.1-0.3,0.4-0.5,1C14.1,16,13.8,16.2,13.4,16.2z"/>
	</g>
</g>
</svg>
