<?xml version="1.0" encoding="utf-8"?>
<!-- Generator: Adobe Illustrator 18.0.0, SVG Export Plug-In . SVG Version: 6.00 Build 0)  -->
<!DOCTYPE svg PUBLIC "-//W3C//DTD SVG 1.1//EN" "http://www.w3.org/Graphics/SVG/1.1/DTD/svg11.dtd">
<svg version="1.1" id="Layer_1" xmlns="http://www.w3.org/2000/svg" xmlns:xlink="http://www.w3.org/1999/xlink" x="0px" y="0px"
	 viewBox="0 0 32 32" enable-background="new 0 0 32 32" xml:space="preserve">
<g>
	<g>
		<g>
			<defs>
				<circle id="SVGID_9_" cx="23.3" cy="-15.6" r="1.5"/>
			</defs>
			<clipPath id="SVGID_2_">
				<use xlink:href="#SVGID_9_"  overflow="visible"/>
			</clipPath>
			<g clip-path="url(#SVGID_2_)">
				<rect x="6.6" y="-17.8" fill="none" width="24.1" height="24.1"/>
				<rect x="6.6" y="-17.8" fill="#FEE99B" width="24.1" height="24.1"/>
			</g>
		</g>
	</g>
</g>
<g>
	<g>
		<path fill="#FFFFFF" d="M29,19.2c0,6.8-2.7,7.1-5.9,7.1s-5.9-0.3-5.9-7.1s2.7-17.6,5.9-17.6S29,12.3,29,19.2z"/>
		<path fill="#79C693" d="M23.1,27c-3.7,0-6.7-0.6-6.7-7.9c0-6.5,2.5-18.4,6.7-18.4s6.7,11.9,6.7,18.4C29.8,26.4,26.8,27,23.1,27z
			 M23.1,2.3c-2.3,0-5.2,9.5-5.2,16.9c0,6.3,2.3,6.3,5.2,6.3s5.2,0,5.2-6.3C28.3,11.7,25.4,2.3,23.1,2.3z"/>
	</g>
	<g>
		<line fill="#FFFFFF" x1="22.7" y1="26.3" x2="22.7" y2="31.2"/>
		<rect x="22" y="26.3" fill="#79C693" width="1.5" height="5"/>
	</g>
	<g>
		<path fill="#F0F7F7" d="M13.1,21c0,5.8-2.3,6.1-5.1,6.1C5.2,27,3,26.8,3,21s2.3-15,5.1-15C10.8,5.9,13.1,15.1,13.1,21z"/>
		<path fill="#8F9BA8" d="M8,27.8c-3.2,0-5.8-0.5-5.8-6.8C2.2,15.6,4.2,5.2,8,5.2c3.8,0,5.8,10.4,5.8,15.8
			C13.8,27.3,11.2,27.8,8,27.8z M8,6.7c-1.9,0-4.3,8-4.3,14.2c0,5.3,1.8,5.3,4.3,5.3c2.5,0,4.3,0,4.3-5.3C12.3,14.7,9.9,6.7,8,6.7z"
			/>
	</g>
	<g>
		<line fill="#FFFFFF" x1="7.7" y1="27" x2="7.7" y2="31.2"/>
		<rect x="6.9" y="27" fill="#8F9BA8" width="1.5" height="4.2"/>
	</g>
	<g>
		<path fill="#FFFFFF" d="M22,8.2c0,0,0.7-0.7,1.4,1.5"/>
		<path fill="#79C693" d="M23.4,10.4c-0.3,0-0.6-0.2-0.7-0.5c-0.2-0.6-0.4-0.9-0.5-1c-0.3,0.1-0.6,0-0.8-0.2
			c-0.3-0.3-0.2-0.8,0.1-1.1c0.2-0.2,0.6-0.4,1.1-0.3c0.7,0.2,1.2,0.8,1.6,2.1c0.1,0.4-0.1,0.8-0.5,1C23.6,10.4,23.5,10.4,23.4,10.4
			z"/>
	</g>
	<g>
		<path fill="#FFFFFF" d="M24.2,16.9c0,0,0.7-0.7,1.4,1.5"/>
		<path fill="#79C693" d="M25.7,19.1c-0.3,0-0.6-0.2-0.7-0.5c-0.2-0.6-0.4-0.9-0.5-1c-0.3,0.1-0.6,0-0.8-0.2
			c-0.3-0.3-0.2-0.8,0.1-1.1c0.2-0.2,0.6-0.4,1.1-0.3c0.7,0.2,1.2,0.8,1.6,2.1c0.1,0.4-0.1,0.8-0.5,1C25.8,19.1,25.8,19.1,25.7,19.1
			z"/>
	</g>
	<g>
		<path fill="#FFFFFF" d="M22,14c0,0-0.7-0.7-1.4,1.5"/>
		<path fill="#79C693" d="M20.5,16.2c-0.1,0-0.2,0-0.2,0c-0.4-0.1-0.6-0.6-0.5-1c0.4-1.2,0.9-1.9,1.6-2.1c0.5-0.1,0.9,0.1,1.1,0.3
			c0.3,0.3,0.3,0.8,0.1,1.1c-0.2,0.2-0.5,0.3-0.8,0.2c-0.1,0.1-0.3,0.4-0.5,1C21.2,16,20.9,16.2,20.5,16.2z"/>
	</g>
	<g>
		<path fill="#FFFFFF" d="M7,13.3c0,0,0.6-0.6,1.3,1.3"/>
		<path fill="#8F9BA8" d="M8.3,15.4c-0.3,0-0.6-0.2-0.7-0.5c-0.2-0.5-0.3-0.7-0.4-0.8c-0.3,0.1-0.6,0-0.7-0.2
			c-0.3-0.3-0.3-0.8,0.1-1.1c0.2-0.2,0.6-0.4,1.1-0.2c0.8,0.2,1.2,1.2,1.5,1.9c0.1,0.4-0.1,0.8-0.5,1C8.4,15.4,8.4,15.4,8.3,15.4z"
			/>
	</g>
	<g>
		<path fill="#FFFFFF" d="M9,21.1c0,0,0.6-0.6,1.3,1.3"/>
		<path fill="#8F9BA8" d="M10.3,23.2c-0.3,0-0.6-0.2-0.7-0.5c-0.2-0.5-0.3-0.7-0.4-0.8c-0.3,0.1-0.6,0-0.7-0.2
			c-0.3-0.3-0.3-0.8,0.1-1.1c0.2-0.2,0.6-0.4,1.1-0.2c0.8,0.2,1.2,1.2,1.5,1.9c0.1,0.4-0.1,0.8-0.5,1C10.5,23.2,10.4,23.2,10.3,23.2
			z"/>
	</g>
	<g>
		<path fill="#FFFFFF" d="M7,18.5c0,0-0.6-0.6-1.3,1.3"/>
		<path fill="#8F9BA8" d="M5.7,20.6c-0.1,0-0.2,0-0.2,0c-0.4-0.1-0.6-0.6-0.5-1c0.2-0.7,0.6-1.7,1.5-1.9c0.5-0.1,0.8,0,1.1,0.2
			c0.3,0.3,0.3,0.8,0.1,1.1c-0.2,0.2-0.5,0.3-0.7,0.2c-0.1,0.1-0.2,0.4-0.4,0.8C6.3,20.4,6,20.6,5.7,20.6z"/>
	</g>
</g>
</svg>
