<?xml version="1.0" encoding="utf-8"?>
<!-- Generator: Adobe Illustrator 18.0.0, SVG Export Plug-In . SVG Version: 6.00 Build 0)  -->
<!DOCTYPE svg PUBLIC "-//W3C//DTD SVG 1.1//EN" "http://www.w3.org/Graphics/SVG/1.1/DTD/svg11.dtd">
<svg version="1.1" id="Layer_1" xmlns="http://www.w3.org/2000/svg" xmlns:xlink="http://www.w3.org/1999/xlink" x="0px" y="0px"
	 viewBox="0 0 32 32" enable-background="new 0 0 32 32" xml:space="preserve">
<pattern  x="-126" y="-336" width="24.1" height="24.1" patternUnits="userSpaceOnUse" id="New_Pattern_Swatch_2" viewBox="0 -24.1 24.1 24.1" overflow="visible">
	<g>
		<polygon fill="none" points="0,0 24.1,0 24.1,-24.1 0,-24.1 		"/>
		<polygon fill="#E0CB81" points="24.1,0 0,0 0,-24.1 24.1,-24.1 		"/>
	</g>
</pattern>
<g>
	<g>
		<path fill="#FFFFFF" d="M15.9,16.1c-4-4-4.4-10.1-1.4-14.6c-3.2,0.3-6.3,1.7-8.7,4.2c-5.7,5.7-5.7,14.9,0,20.6
			c5.7,5.7,14.9,5.7,20.6,0c2.4-2.4,3.8-5.5,4.2-8.7C26,20.5,19.9,20.1,15.9,16.1z"/>
		<pattern  id="SVGID_2_" xlink:href="#New_Pattern_Swatch_2" patternTransform="matrix(1 0 0 1 -39.2769 -10.1109)">
		</pattern>
		<path fill="url(#SVGID_2_)" d="M16,31.2c-4.1,0-7.9-1.6-10.8-4.5c-6-6-6-15.7,0-21.6c2.5-2.5,5.7-4,9.2-4.4c0.3,0,0.6,0.1,0.7,0.4
			s0.1,0.6,0,0.8c-2.9,4.3-2.3,10,1.3,13.7c2,2,4.7,3.2,7.6,3.2c2.2,0,4.2-0.6,6-1.8c0.2-0.2,0.6-0.2,0.8,0c0.3,0.2,0.4,0.4,0.4,0.7
			c-0.4,3.5-1.9,6.7-4.4,9.2C24,29.7,20.1,31.2,16,31.2z M13,2.5c-2.6,0.6-4.9,1.8-6.7,3.7c-5.4,5.4-5.4,14.1,0,19.5
			c2.6,2.6,6.1,4,9.8,4c3.7,0,7.1-1.4,9.8-4c1.9-1.9,3.1-4.2,3.7-6.7c-1.7,0.8-3.5,1.3-5.5,1.3c-3.3,0-6.4-1.3-8.7-3.6
			C11.6,12.9,10.7,7.2,13,2.5z"/>
	</g>
</g>
</svg>
