<?xml version="1.0" encoding="utf-8"?>
<!-- Generator: Adobe Illustrator 18.0.0, SVG Export Plug-In . SVG Version: 6.00 Build 0)  -->
<!DOCTYPE svg PUBLIC "-//W3C//DTD SVG 1.1//EN" "http://www.w3.org/Graphics/SVG/1.1/DTD/svg11.dtd">
<svg version="1.1" id="Layer_1" xmlns="http://www.w3.org/2000/svg" xmlns:xlink="http://www.w3.org/1999/xlink" x="0px" y="0px"
	 viewBox="0 0 32 32" enable-background="new 0 0 32 32" xml:space="preserve">
<g>
	<g>
		<path fill="#DA8C8C" d="M16.3,31.2c-4.1,0-8-1.6-11-4.5c-2.9-2.9-4.5-6.8-4.5-11c0-4.1,1.6-8,4.5-11c1.9-1.9,4.3-3.3,6.8-4
			c0.3-0.1,0.5,0,0.7,0.2c0.2,0.2,0.3,0.5,0.2,0.7c-1.3,4.9,0,10.1,3.6,13.7c2.6,2.6,6.2,4.1,9.9,4.1c1.3,0,2.5-0.2,3.8-0.5
			c0.3-0.1,0.5,0,0.7,0.2c0.2,0.2,0.3,0.5,0.2,0.7c-0.7,2.6-2.1,4.9-4,6.8C24.3,29.6,20.4,31.2,16.3,31.2z M11.3,2.6
			c-1.9,0.7-3.5,1.8-5,3.2C3.7,8.5,2.2,12,2.2,15.7c0,3.7,1.5,7.3,4.1,9.9c2.6,2.6,6.2,4.1,9.9,4.1c3.7,0,7.3-1.5,9.9-4.1
			c1.4-1.4,2.5-3.1,3.2-5c-0.9,0.2-1.9,0.3-2.8,0.3c-4.1,0-8-1.6-11-4.5C12,12.8,10.4,7.6,11.3,2.6z"/>
	</g>
</g>
</svg>
