<?xml version="1.0" encoding="utf-8"?>
<!-- Generator: Adobe Illustrator 18.0.0, SVG Export Plug-In . SVG Version: 6.00 Build 0)  -->
<!DOCTYPE svg PUBLIC "-//W3C//DTD SVG 1.1//EN" "http://www.w3.org/Graphics/SVG/1.1/DTD/svg11.dtd">
<svg version="1.1" id="Layer_1" xmlns="http://www.w3.org/2000/svg" xmlns:xlink="http://www.w3.org/1999/xlink" x="0px" y="0px"
	 viewBox="0 0 32 32" enable-background="new 0 0 32 32" xml:space="preserve">
<g>
	<g>
		<path fill="#B4A79C" d="M16,27c-2.9,0-5.7-1.1-7.8-3.2S5,18.9,5,16s1.1-5.7,3.2-7.8S13.1,5,16,5s5.7,1.1,7.8,3.2
			c4.3,4.3,4.3,11.3,0,15.6C21.7,25.9,18.9,27,16,27z M16,6.6c-2.5,0-4.9,1-6.7,2.8s-2.8,4.1-2.8,6.7c0,2.5,1,4.9,2.8,6.7
			c1.8,1.8,4.1,2.8,6.7,2.8c2.5,0,4.9-1,6.7-2.8c3.7-3.7,3.7-9.7,0-13.3C20.9,7.6,18.5,6.6,16,6.6z"/>
	</g>
	<g>
		<rect x="15.2" y="28.6" fill="#B4A79C" width="1.6" height="2.6"/>
	</g>
	<g>
		<rect x="15.2" y="0.7" fill="#B4A79C" width="1.6" height="2.6"/>
	</g>
	<g>
		<rect x="28.6" y="15.2" fill="#B4A79C" width="2.6" height="1.6"/>
	</g>
	<g>
		<rect x="0.7" y="15.2" fill="#B4A79C" width="2.6" height="1.6"/>
	</g>
	<g>
		
			<rect x="24.5" y="25" transform="matrix(-0.707 -0.7072 0.7072 -0.707 25.7247 62.3558)" fill="#B4A79C" width="2.6" height="1.6"/>
	</g>
	<g>
		
			<rect x="4.8" y="5.4" transform="matrix(-0.7071 -0.7071 0.7071 -0.7071 6.0271 14.7965)" fill="#B4A79C" width="2.6" height="1.6"/>
	</g>
	<g>
		
			<rect x="25.1" y="4.8" transform="matrix(-0.7071 -0.7071 0.7071 -0.7071 39.8992 28.8246)" fill="#B4A79C" width="1.6" height="2.6"/>
	</g>
	<g>
		
			<rect x="5.4" y="24.5" transform="matrix(-0.7071 -0.7071 0.7071 -0.7071 -7.66 48.5267)" fill="#B4A79C" width="1.6" height="2.6"/>
	</g>
</g>
</svg>
