<?xml version="1.0" encoding="utf-8"?>
<!-- Generator: Adobe Illustrator 18.0.0, SVG Export Plug-In . SVG Version: 6.00 Build 0)  -->
<!DOCTYPE svg PUBLIC "-//W3C//DTD SVG 1.1//EN" "http://www.w3.org/Graphics/SVG/1.1/DTD/svg11.dtd">
<svg version="1.1" id="Layer_1" xmlns="http://www.w3.org/2000/svg" xmlns:xlink="http://www.w3.org/1999/xlink" x="0px" y="0px"
	 viewBox="0 0 32 32" enable-background="new 0 0 32 32" xml:space="preserve">
<g>
	<g>
		<path fill="#F0F7F7" d="M8,23.5L8,23.5c-1.4,0-2.5-1.1-2.5-2.5V11c0-1.4,1.1-2.5,2.5-2.5l0,0c1.4,0,2.5,1.1,2.5,2.5v10
			C10.6,22.4,9.4,23.5,8,23.5z"/>
		<path fill="#8F9BA8" d="M8,24.3c-1.8,0-3.3-1.5-3.3-3.3V11c0-1.8,1.5-3.3,3.3-3.3c1.8,0,3.3,1.5,3.3,3.3v10
			C11.3,22.8,9.8,24.3,8,24.3z M8,9.2C7,9.2,6.2,10,6.2,11v10c0,1,0.8,1.8,1.8,1.8S9.8,22,9.8,21V11C9.8,10,9,9.2,8,9.2z"/>
	</g>
	<g>
		<path fill="#F0F7F7" d="M3.5,21.9L3.5,21.9c-1.1,0-2-0.9-2-2v-7.8c0-1.1,0.9-2,2-2l0,0c1.1,0,2,0.9,2,2v7.8
			C5.5,21,4.6,21.9,3.5,21.9z"/>
		<path fill="#8F9BA8" d="M3.5,22.6c-1.5,0-2.7-1.2-2.7-2.7v-7.8c0-1.5,1.2-2.7,2.7-2.7c1.5,0,2.7,1.2,2.7,2.7v7.8
			C6.2,21.4,5,22.6,3.5,22.6z M3.5,10.9c-0.7,0-1.2,0.6-1.2,1.2v7.8c0,0.7,0.6,1.2,1.2,1.2c0.7,0,1.2-0.6,1.2-1.2v-7.8
			C4.7,11.4,4.2,10.9,3.5,10.9z"/>
	</g>
	<g>
		<path fill="#F0F7F7" d="M24,23.5L24,23.5c1.4,0,2.5-1.1,2.5-2.5V11c0-1.4-1.1-2.5-2.5-2.5l0,0c-1.4,0-2.5,1.1-2.5,2.5v10
			C21.4,22.4,22.6,23.5,24,23.5z"/>
		<path fill="#8F9BA8" d="M24,24.3c-1.8,0-3.3-1.5-3.3-3.3V11c0-1.8,1.5-3.3,3.3-3.3c1.8,0,3.3,1.5,3.3,3.3v10
			C27.3,22.8,25.8,24.3,24,24.3z M24,9.2c-1,0-1.8,0.8-1.8,1.8v10c0,1,0.8,1.8,1.8,1.8c1,0,1.8-0.8,1.8-1.8V11
			C25.8,10,25,9.2,24,9.2z"/>
	</g>
	<g>
		<path fill="#F0F7F7" d="M28.5,21.9L28.5,21.9c1.1,0,2-0.9,2-2v-7.8c0-1.1-0.9-2-2-2h0c-1.1,0-2,0.9-2,2v7.8
			C26.5,21,27.4,21.9,28.5,21.9z"/>
		<path fill="#8F9BA8" d="M28.5,22.6c-1.5,0-2.7-1.2-2.7-2.7v-7.8c0-1.5,1.2-2.7,2.7-2.7c1.5,0,2.7,1.2,2.7,2.7v7.8
			C31.3,21.4,30,22.6,28.5,22.6z M28.5,10.9c-0.7,0-1.2,0.6-1.2,1.2v7.8c0,0.7,0.6,1.2,1.2,1.2c0.7,0,1.2-0.6,1.2-1.2v-7.8
			C29.8,11.4,29.2,10.9,28.5,10.9z"/>
	</g>
	<g>
		<path fill="#8F9BA8" d="M21.4,18.2H10.6c-0.4,0-0.8-0.3-0.8-0.8v-2.9c0-0.4,0.3-0.8,0.8-0.8h10.9c0.4,0,0.8,0.3,0.8,0.8v2.9
			C22.2,17.9,21.9,18.2,21.4,18.2z M11.3,16.7h9.4v-1.4h-9.4V16.7z"/>
	</g>
</g>
</svg>
