<?xml version="1.0" encoding="utf-8"?>
<!-- Generator: Adobe Illustrator 18.0.0, SVG Export Plug-In . SVG Version: 6.00 Build 0)  -->
<!DOCTYPE svg PUBLIC "-//W3C//DTD SVG 1.1//EN" "http://www.w3.org/Graphics/SVG/1.1/DTD/svg11.dtd">
<svg version="1.1" id="Layer_1" xmlns="http://www.w3.org/2000/svg" xmlns:xlink="http://www.w3.org/1999/xlink" x="0px" y="0px"
	 viewBox="0 0 32 32" enable-background="new 0 0 32 32" xml:space="preserve">
<g>
	<g>
		<path fill="#FFFFFF" d="M20.6,3.2c-1.8,1.8-2.2,4.5-1.1,6.7c-1.5,1-3.4,2.6-5.2,4.4S11,18,9.9,19.5c-2.2-1.1-4.9-0.7-6.7,1.1
			c-2.3,2.3-2.3,5.9,0,8.2s5.9,2.3,8.2,0c1.8-1.8,2.2-4.5,1.1-6.7c1.5-1,3.4-2.6,5.2-4.4c1.8-1.8,3.4-3.7,4.4-5.2
			c2.2,1.1,4.9,0.7,6.7-1.1c2.3-2.3,2.3-5.9,0-8.2S22.9,0.9,20.6,3.2z"/>
		<path fill="#79C693" d="M7.3,31.2c-1.8,0-3.4-0.7-4.6-1.9c-2.6-2.6-2.6-6.7,0-9.3c1.2-1.2,2.9-1.9,4.6-1.9c0.8,0,1.6,0.2,2.4,0.4
			c1.1-1.5,2.5-3.2,4.1-4.8c1.6-1.6,3.3-3.1,4.8-4.1c-0.9-2.4-0.4-5.1,1.5-7c1.2-1.2,2.9-1.9,4.6-1.9c1.7,0,3.4,0.7,4.6,1.9
			c2.6,2.6,2.6,6.7,0,9.3c-1.2,1.2-2.9,1.9-4.6,1.9l0,0c-0.8,0-1.6-0.2-2.4-0.4c-1.1,1.5-2.5,3.2-4.1,4.8c-1.6,1.6-3.3,3.1-4.8,4.1
			c0.9,2.4,0.4,5.1-1.5,7C10.7,30.6,9,31.2,7.3,31.2z M7.3,19.7c-1.3,0-2.6,0.5-3.6,1.5c-2,2-2,5.2,0,7.1c1,1,2.2,1.5,3.6,1.5
			c1.3,0,2.6-0.5,3.6-1.5c1.5-1.5,1.9-3.9,0.9-5.9c-0.2-0.3-0.1-0.7,0.2-1c1.6-1.1,3.4-2.6,5.1-4.3c1.7-1.7,3.3-3.5,4.3-5.1
			c0.2-0.3,0.6-0.4,1-0.2c0.7,0.4,1.5,0.5,2.3,0.5l0,0c1.3,0,2.6-0.5,3.6-1.5c2-2,2-5.2,0-7.1c-1-1-2.2-1.5-3.6-1.5
			c-1.3,0-2.6,0.5-3.6,1.5c-1.5,1.5-1.9,3.9-0.9,5.9c0.2,0.3,0.1,0.7-0.2,1c-1.6,1.1-3.4,2.6-5.1,4.3c-1.7,1.7-3.3,3.5-4.3,5.1
			c-0.2,0.3-0.6,0.4-1,0.2C8.9,19.8,8.1,19.7,7.3,19.7z"/>
	</g>
</g>
</svg>
