<?xml version="1.0" encoding="utf-8"?>
<!-- Generator: Adobe Illustrator 18.0.0, SVG Export Plug-In . SVG Version: 6.00 Build 0)  -->
<!DOCTYPE svg PUBLIC "-//W3C//DTD SVG 1.1//EN" "http://www.w3.org/Graphics/SVG/1.1/DTD/svg11.dtd">
<svg version="1.1" id="Layer_1" xmlns="http://www.w3.org/2000/svg" xmlns:xlink="http://www.w3.org/1999/xlink" x="0px" y="0px"
	 viewBox="0 0 32 32" enable-background="new 0 0 32 32" xml:space="preserve">
<g>
	<g>
		<path fill="#8F9BA8" d="M16,31.2C7.6,31.2,0.8,24.4,0.8,16C0.8,7.6,7.6,0.7,16,0.7c8.4,0,15.3,6.8,15.3,15.3
			C31.3,24.4,24.4,31.2,16,31.2z M16,2.2C8.4,2.2,2.3,8.4,2.3,16S8.4,29.7,16,29.7c7.6,0,13.8-6.2,13.8-13.7S23.6,2.2,16,2.2z"/>
	</g>
	<g>
		<circle fill="#FAC2C3" cx="16" cy="16" r="7"/>
		<path fill="#DA8C8C" d="M16,23.7c-4.3,0-7.7-3.5-7.7-7.7s3.5-7.7,7.7-7.7c4.3,0,7.7,3.5,7.7,7.7S20.3,23.7,16,23.7z M16,9.8
			c-3.4,0-6.2,2.8-6.2,6.2s2.8,6.2,6.2,6.2c3.4,0,6.2-2.8,6.2-6.2S19.4,9.8,16,9.8z"/>
	</g>
	<g>
		<g>
			<circle fill="#FAC2C3" cx="16" cy="14.2" r="1.8"/>
			<path fill="#DA8C8C" d="M16,16.7c-1.4,0-2.5-1.1-2.5-2.5s1.1-2.5,2.5-2.5s2.5,1.1,2.5,2.5S17.4,16.7,16,16.7z M16,13.2
				c-0.6,0-1,0.5-1,1c0,0.6,0.5,1,1,1c0.6,0,1-0.5,1-1C17,13.6,16.6,13.2,16,13.2z"/>
		</g>
		<g>
			<circle fill="#FAC2C3" cx="16" cy="17.8" r="1.8"/>
			<path fill="#DA8C8C" d="M16,20.3c-1.4,0-2.5-1.1-2.5-2.5c0-1.4,1.1-2.5,2.5-2.5s2.5,1.1,2.5,2.5C18.5,19.2,17.4,20.3,16,20.3z
				 M16,16.7c-0.6,0-1,0.5-1,1c0,0.6,0.5,1,1,1c0.6,0,1-0.5,1-1C17,17.2,16.6,16.7,16,16.7z"/>
		</g>
	</g>
</g>
</svg>
