<?xml version="1.0" encoding="utf-8"?>
<!-- Generator: Adobe Illustrator 18.0.0, SVG Export Plug-In . SVG Version: 6.00 Build 0)  -->
<!DOCTYPE svg PUBLIC "-//W3C//DTD SVG 1.1//EN" "http://www.w3.org/Graphics/SVG/1.1/DTD/svg11.dtd">
<svg version="1.1" id="Layer_1" xmlns="http://www.w3.org/2000/svg" xmlns:xlink="http://www.w3.org/1999/xlink" x="0px" y="0px"
	 viewBox="0 0 32 32" enable-background="new 0 0 32 32" xml:space="preserve">
<g>
	<g>
		<path fill="#8F9BA8" d="M3,21.8c-1.2,0-2.2-1-2.2-2.2v-7.2c0-1.2,1-2.2,2.2-2.2c1.2,0,2.2,1,2.2,2.2v7.2C5.2,20.8,4.2,21.8,3,21.8
			z M3,11.7c-0.4,0-0.7,0.3-0.7,0.7v7.2c0,0.4,0.3,0.7,0.7,0.7c0.4,0,0.7-0.3,0.7-0.7v-7.2C3.7,12,3.4,11.7,3,11.7z"/>
	</g>
	<g>
		<path fill="#8F9BA8" d="M5.9,21.8c-1.2,0-2.2-1-2.2-2.2v-7.2c0-1.2,1-2.2,2.2-2.2s2.2,1,2.2,2.2v7.2C8.1,20.8,7.1,21.8,5.9,21.8z
			 M5.9,11.7c-0.4,0-0.7,0.3-0.7,0.7v7.2c0,0.4,0.3,0.7,0.7,0.7c0.4,0,0.7-0.3,0.7-0.7v-7.2C6.6,12,6.3,11.7,5.9,11.7z"/>
	</g>
	<g>
		<path fill="#8F9BA8" d="M8.8,21.8c-1.2,0-2.2-1-2.2-2.2v-7.2c0-1.2,1-2.2,2.2-2.2s2.2,1,2.2,2.2v7.2C11,20.8,10,21.8,8.8,21.8z
			 M8.8,11.7c-0.4,0-0.7,0.3-0.7,0.7v7.2c0,0.4,0.3,0.7,0.7,0.7s0.7-0.3,0.7-0.7v-7.2C9.5,12,9.2,11.7,8.8,11.7z"/>
	</g>
	<g>
		<path fill="#8F9BA8" d="M23.2,21.8c-1.2,0-2.2-1-2.2-2.2v-7.2c0-1.2,1-2.2,2.2-2.2c1.2,0,2.2,1,2.2,2.2v7.2
			C25.4,20.8,24.4,21.8,23.2,21.8z M23.2,11.7c-0.4,0-0.7,0.3-0.7,0.7v7.2c0,0.4,0.3,0.7,0.7,0.7c0.4,0,0.7-0.3,0.7-0.7v-7.2
			C23.9,12,23.6,11.7,23.2,11.7z"/>
	</g>
	<g>
		<path fill="#8F9BA8" d="M26.1,21.8c-1.2,0-2.2-1-2.2-2.2v-7.2c0-1.2,1-2.2,2.2-2.2c1.2,0,2.2,1,2.2,2.2v7.2
			C28.3,20.8,27.3,21.8,26.1,21.8z M26.1,11.7c-0.4,0-0.7,0.3-0.7,0.7v7.2c0,0.4,0.3,0.7,0.7,0.7c0.4,0,0.7-0.3,0.7-0.7v-7.2
			C26.8,12,26.5,11.7,26.1,11.7z"/>
	</g>
	<g>
		<path fill="#8F9BA8" d="M29,21.8c-1.2,0-2.2-1-2.2-2.2v-7.2c0-1.2,1-2.2,2.2-2.2c1.2,0,2.2,1,2.2,2.2v7.2
			C31.3,20.8,30.3,21.8,29,21.8z M29,11.7c-0.4,0-0.7,0.3-0.7,0.7v7.2c0,0.4,0.3,0.7,0.7,0.7c0.4,0,0.7-0.3,0.7-0.7v-7.2
			C29.8,12,29.4,11.7,29,11.7z"/>
	</g>
	<g>
		<rect x="10.3" y="15.3" fill="#8F9BA8" width="11.4" height="1.5"/>
	</g>
</g>
</svg>
