<?xml version="1.0" encoding="utf-8"?>
<!-- Generator: Adobe Illustrator 18.0.0, SVG Export Plug-In . SVG Version: 6.00 Build 0)  -->
<!DOCTYPE svg PUBLIC "-//W3C//DTD SVG 1.1//EN" "http://www.w3.org/Graphics/SVG/1.1/DTD/svg11.dtd">
<svg version="1.1" id="Layer_1" xmlns="http://www.w3.org/2000/svg" xmlns:xlink="http://www.w3.org/1999/xlink" x="0px" y="0px"
	 viewBox="0 0 32 32" enable-background="new 0 0 32 32" xml:space="preserve">
<g>
	<g>
		<path fill="#8F9BA8" d="M21,22.4H10.3c-0.4,0-0.7-0.3-0.7-0.6l-0.7-3.9H1.5c-0.3,0-0.6-0.2-0.7-0.5s0-0.6,0.2-0.8l7.6-6
			c0.1-0.1,0.3-0.2,0.5-0.2h1.6c0.3,0,0.6,0.2,0.7,0.5c0.7,1.9,2.5,3.2,4.6,3.2s3.9-1.3,4.6-3.3c0.1-0.3,0.4-0.5,0.7-0.5h1.6
			c0.2,0,0.3,0.1,0.5,0.2l7.6,6c0.3,0.2,0.4,0.5,0.2,0.8s-0.4,0.5-0.7,0.5h-8l-0.7,3.9C21.7,22.1,21.4,22.4,21,22.4z M11,20.9h9.5
			l0.7-3.9c0.1-0.4,0.4-0.6,0.7-0.6h6.4l-5.7-4.5h-0.9c-1,2.3-3.3,3.8-5.8,3.8c-2.5,0-4.8-1.5-5.8-3.8H9.3l-5.7,4.5h5.8
			c0.4,0,0.7,0.3,0.7,0.6L11,20.9z"/>
	</g>
	<g>
		<path fill="#8F9BA8" d="M30.5,29.1h-29c-0.4,0-0.8-0.3-0.8-0.8V17.1c0-0.4,0.3-0.8,0.8-0.8h8c0.4,0,0.7,0.3,0.7,0.6l0.7,3.9h9.5
			l0.7-3.9c0.1-0.4,0.4-0.6,0.7-0.6h8.6c0.4,0,0.8,0.3,0.8,0.8v11.2C31.3,28.7,30.9,29.1,30.5,29.1z M2.3,27.6h27.5v-9.7h-7.2
			l-0.7,3.9c-0.1,0.4-0.4,0.6-0.7,0.6H10.3c-0.4,0-0.7-0.3-0.7-0.6l-0.7-3.9H2.3V27.6z"/>
	</g>
	<g>
		<path fill="#FAC2C3" d="M16,3.7c-3.1,0-5.6,2.5-5.6,5.6c0,0.6,0.1,1.3,0.3,1.8c0.8,2.2,2.8,3.8,5.3,3.8c2.4,0,4.5-1.6,5.3-3.8
			c0.2-0.6,0.3-1.2,0.3-1.8C21.6,6.2,19.1,3.7,16,3.7z"/>
		<path fill="#DA8C8C" d="M16,15.6c-2.7,0-5.1-1.7-6-4.3C9.8,10.7,9.7,10,9.7,9.3c0-3.5,2.8-6.3,6.3-6.3s6.3,2.8,6.3,6.3
			c0,0.7-0.1,1.4-0.4,2.1C21.1,13.9,18.7,15.6,16,15.6z M16,4.4c-2.7,0-4.8,2.2-4.8,4.8c0,0.5,0.1,1.1,0.3,1.6
			c0.7,1.9,2.5,3.3,4.6,3.3s3.9-1.3,4.6-3.3c0.2-0.5,0.3-1.1,0.3-1.6C20.8,6.6,18.7,4.4,16,4.4z"/>
	</g>
	<g>
		<line fill="#FAC2C3" x1="18.9" y1="9.3" x2="13.1" y2="9.3"/>
		<rect x="13.1" y="8.5" fill="#DA8C8C" width="5.8" height="1.5"/>
	</g>
</g>
</svg>
