<?xml version="1.0" encoding="utf-8"?>
<!-- Generator: Adobe Illustrator 18.0.0, SVG Export Plug-In . SVG Version: 6.00 Build 0)  -->
<!DOCTYPE svg PUBLIC "-//W3C//DTD SVG 1.1//EN" "http://www.w3.org/Graphics/SVG/1.1/DTD/svg11.dtd">
<svg version="1.1" id="Layer_1" xmlns="http://www.w3.org/2000/svg" xmlns:xlink="http://www.w3.org/1999/xlink" x="0px" y="0px"
	 viewBox="0 0 32 32" enable-background="new 0 0 32 32" xml:space="preserve">
<g>
	<g>
		<polygon fill="#FFFFFF" points="30.5,28.3 30.5,17.1 21.9,17.1 21,21.6 10.3,21.6 9.5,17.1 1.5,17.1 1.5,28.3 		"/>
		<path fill="#8F9BA8" d="M30.5,29.1h-29c-0.4,0-0.8-0.3-0.8-0.8V17.1c0-0.4,0.3-0.8,0.8-0.8h8c0.4,0,0.7,0.3,0.7,0.6l0.7,3.9h9.5
			l0.7-3.9c0.1-0.4,0.4-0.6,0.7-0.6h8.6c0.4,0,0.8,0.3,0.8,0.8v11.2C31.2,28.7,30.9,29.1,30.5,29.1z M2.2,27.6h27.5v-9.7h-7.2
			l-0.7,3.9c-0.1,0.4-0.4,0.6-0.7,0.6H10.3c-0.4,0-0.7-0.3-0.7-0.6l-0.7-3.9H2.2V27.6z"/>
	</g>
	<g>
		<polyline fill="#FFFFFF" points="10.7,11.1 9.1,11.1 1.5,17.1 9.5,17.1 10.3,21.6 21,21.6 21.9,17.1 30.5,17.1 22.9,11.1 
			21.3,11.1 		"/>
		<path fill="#8F9BA8" d="M21,22.4H10.3c-0.4,0-0.7-0.3-0.7-0.6l-0.7-3.9H1.5c-0.3,0-0.6-0.2-0.7-0.5s0-0.6,0.2-0.8l7.6-6
			c0.1-0.1,0.3-0.2,0.5-0.2h1.6c0.4,0,0.8,0.3,0.8,0.8c0,0.4-0.3,0.8-0.8,0.8H9.3l-5.7,4.5h5.8c0.4,0,0.7,0.3,0.7,0.6l0.7,3.9h9.5
			l0.7-3.9c0.1-0.4,0.4-0.6,0.7-0.6h6.4L22.4,12H21c-0.4,0-0.8-0.3-0.8-0.8c0-0.4,0.3-0.8,0.8-0.8h1.6c0.2,0,0.3,0.1,0.5,0.2l7.6,6
			c0.3,0.2,0.4,0.5,0.2,0.8s-0.4,0.5-0.7,0.5h-8l-0.7,3.9C21.7,22.1,21.4,22.4,21,22.4z"/>
	</g>
	<g>
		<path fill="#CDE4F7" d="M16,3.7c-3.1,0-5.6,2.5-5.6,5.6c0,0.6,0.1,1.3,0.3,1.8c0.8,2.2,2.8,3.8,5.3,3.8c2.4,0,4.5-1.6,5.3-3.8
			c0.2-0.6,0.3-1.2,0.3-1.8C21.6,6.2,19.1,3.7,16,3.7z"/>
		<path fill="#74B1E0" d="M16,15.6c-2.7,0-5.1-1.7-6-4.3c-0.2-0.6-0.3-1.3-0.3-2C9.7,5.8,12.5,3,16,3s6.3,2.8,6.3,6.3
			c0,0.7-0.1,1.4-0.4,2.1C21.1,13.9,18.7,15.6,16,15.6z M16,4.4c-2.7,0-4.8,2.2-4.8,4.8c0,0.5,0.1,1.1,0.3,1.6
			c0.7,1.9,2.5,3.2,4.6,3.2s3.9-1.3,4.6-3.3c0.2-0.5,0.3-1.1,0.3-1.6C20.8,6.6,18.7,4.4,16,4.4z"/>
	</g>
	<g>
		<line fill="none" x1="16" y1="6.1" x2="16" y2="12.5"/>
		<rect x="15.2" y="6.1" fill="#74B1E0" width="1.5" height="6.4"/>
	</g>
	<g>
		<line fill="none" x1="19.2" y1="9.3" x2="12.8" y2="9.3"/>
		<rect x="12.8" y="8.5" fill="#74B1E0" width="6.4" height="1.5"/>
	</g>
</g>
</svg>
