<?xml version="1.0" encoding="utf-8"?>
<!-- Generator: Adobe Illustrator 18.0.0, SVG Export Plug-In . SVG Version: 6.00 Build 0)  -->
<!DOCTYPE svg PUBLIC "-//W3C//DTD SVG 1.1//EN" "http://www.w3.org/Graphics/SVG/1.1/DTD/svg11.dtd">
<svg version="1.1" id="Layer_1" xmlns="http://www.w3.org/2000/svg" xmlns:xlink="http://www.w3.org/1999/xlink" x="0px" y="0px"
	 viewBox="0 0 32 32" enable-background="new 0 0 32 32" xml:space="preserve">
<g>
	<g>
		<path fill="#B4A79C" d="M21,23.9H10.3c-0.4,0-0.7-0.3-0.7-0.6l-0.7-3.9H1.5c-0.3,0-0.6-0.2-0.7-0.5c-0.1-0.3,0-0.6,0.2-0.8l7.6-6
			c0.1-0.1,0.3-0.2,0.5-0.2h13.8c0.2,0,0.3,0.1,0.5,0.2l7.5,5.9c0.2,0.1,0.4,0.4,0.4,0.7c0,0.4-0.3,0.7-0.8,0.8c0,0,0,0,0,0h-8
			l-0.7,3.9C21.7,23.7,21.4,23.9,21,23.9z M10.9,22.4h9.5l0.7-3.9c0.1-0.4,0.4-0.6,0.7-0.6h6.4l-5.7-4.5H9.3l-5.7,4.5h5.8
			c0.4,0,0.7,0.3,0.7,0.6L10.9,22.4z"/>
	</g>
	<g>
		<path fill="#B4A79C" d="M30.5,30.6h-29c-0.4,0-0.7-0.3-0.7-0.8V18.6c0-0.4,0.3-0.8,0.7-0.8h8c0.4,0,0.7,0.3,0.7,0.6l0.7,3.9h9.5
			l0.7-3.9c0.1-0.4,0.4-0.6,0.7-0.6h8.6c0.4,0,0.8,0.3,0.8,0.8v11.2C31.2,30.3,30.9,30.6,30.5,30.6z M2.2,29.1h27.5v-9.7h-7.2
			l-0.7,3.9c-0.1,0.4-0.4,0.6-0.7,0.6H10.3c-0.4,0-0.7-0.3-0.7-0.6l-0.7-3.9H2.2V29.1z"/>
	</g>
	<g>
		<path fill="#8F9BA8" d="M16,17.9c-0.4,0-0.8-0.3-0.8-0.8v-4.6c0-4.4,3.6-8,8-8c0.4,0,0.8,0.3,0.8,0.8c0,0.4-0.3,0.8-0.8,0.8
			c-3.6,0-6.5,2.9-6.5,6.5v4.6C16.7,17.5,16.4,17.9,16,17.9z"/>
	</g>
	<g>
		<path fill="#8F9BA8" d="M22.1,9.9c-0.2,0-0.3,0-0.4-0.1c-0.3-0.2-0.4-0.7-0.2-1L24,5.2l-3.5-2.5c-0.3-0.2-0.4-0.7-0.2-1
			c0.2-0.3,0.7-0.4,1-0.2l4.1,2.9c0.3,0.2,0.4,0.7,0.2,1l-2.9,4.1C22.6,9.8,22.4,9.9,22.1,9.9z"/>
	</g>
</g>
</svg>
