<?xml version="1.0" encoding="utf-8"?>
<!-- Generator: Adobe Illustrator 18.0.0, SVG Export Plug-In . SVG Version: 6.00 Build 0)  -->
<!DOCTYPE svg PUBLIC "-//W3C//DTD SVG 1.1//EN" "http://www.w3.org/Graphics/SVG/1.1/DTD/svg11.dtd">
<svg version="1.1" id="Layer_1" xmlns="http://www.w3.org/2000/svg" xmlns:xlink="http://www.w3.org/1999/xlink" x="0px" y="0px"
	 viewBox="0 0 32 32" enable-background="new 0 0 32 32" xml:space="preserve">
<g>
	<g>
		<path fill="#8F9BA8" d="M21,22.4H10.3c-0.4,0-0.7-0.3-0.7-0.6l-0.7-3.9H1.5c-0.3,0-0.6-0.2-0.7-0.5c-0.1-0.3,0-0.6,0.2-0.8l7.6-6
			c0.1-0.1,0.3-0.2,0.5-0.2h13.8c0.2,0,0.3,0.1,0.5,0.2l7.5,5.9c0.2,0.1,0.4,0.4,0.4,0.7c0,0.4-0.3,0.8-0.8,0.8c0,0,0,0,0,0h-8
			l-0.7,3.9C21.7,22.1,21.4,22.4,21,22.4z M10.9,20.9h9.5l0.7-3.9c0.1-0.4,0.4-0.6,0.7-0.6h6.4l-5.7-4.5H9.3l-5.7,4.5h5.8
			c0.4,0,0.7,0.3,0.7,0.6L10.9,20.9z"/>
	</g>
	<g>
		<path fill="#8F9BA8" d="M30.5,29.1h-29c-0.4,0-0.7-0.3-0.7-0.8V17.1c0-0.4,0.3-0.8,0.7-0.8h8c0.4,0,0.7,0.3,0.7,0.6l0.7,3.9h9.5
			l0.7-3.9c0.1-0.4,0.4-0.6,0.7-0.6h8.6c0.4,0,0.8,0.3,0.8,0.8v11.2C31.2,28.7,30.9,29.1,30.5,29.1z M2.2,27.6h27.5v-9.7h-7.2
			l-0.7,3.9c-0.1,0.4-0.4,0.6-0.7,0.6H10.3c-0.4,0-0.7-0.3-0.7-0.6l-0.7-3.9H2.2V27.6z"/>
	</g>
	<g>
		<path fill="#F2E8B9" d="M16,14.8c3.1,0,5.6-2.5,5.6-5.6c0-0.6-0.1-1.3-0.3-1.8c-0.8-2.2-2.8-3.8-5.3-3.8c-2.4,0-4.5,1.6-5.3,3.8
			c-0.2,0.6-0.3,1.2-0.3,1.8C10.4,12.3,12.9,14.8,16,14.8z"/>
		<path fill="#B4A042" d="M16,15.6c-3.5,0-6.3-2.8-6.3-6.3c0-0.7,0.1-1.4,0.4-2.1c0.9-2.5,3.3-4.3,6-4.3s5.1,1.7,6,4.3
			c0.2,0.7,0.4,1.4,0.4,2.1C22.3,12.7,19.5,15.6,16,15.6z M16,4.4c-2.1,0-3.9,1.3-4.6,3.2c-0.2,0.5-0.3,1.1-0.3,1.6
			c0,2.7,2.2,4.8,4.8,4.8c2.7,0,4.8-2.2,4.8-4.8c0-0.5-0.1-1.1-0.3-1.6C19.9,5.7,18,4.4,16,4.4z"/>
	</g>
	<g>
		<line fill="#F2E8B9" x1="16" y1="12.5" x2="16" y2="6.8"/>
		<rect x="15.2" y="6.8" fill="#B4A042" width="1.5" height="5.6"/>
	</g>
	<g>
		<polygon fill="#B4A042" points="17.6,9.5 16,7.9 14.4,9.5 13.4,8.4 16,5.8 18.6,8.4 		"/>
	</g>
</g>
</svg>
