<?xml version="1.0" encoding="utf-8"?>
<!-- Generator: Adobe Illustrator 18.0.0, SVG Export Plug-In . SVG Version: 6.00 Build 0)  -->
<!DOCTYPE svg PUBLIC "-//W3C//DTD SVG 1.1//EN" "http://www.w3.org/Graphics/SVG/1.1/DTD/svg11.dtd">
<svg version="1.1" id="Layer_1" xmlns="http://www.w3.org/2000/svg" xmlns:xlink="http://www.w3.org/1999/xlink" x="0px" y="0px"
	 viewBox="0 0 32 32" enable-background="new 0 0 32 32" xml:space="preserve">
<g>
	<g>
		<polygon fill="#FFFFFF" points="10.3,23.3 21,23.3 21.9,18.7 30.5,18.7 22.9,12.8 9.1,12.8 1.5,18.7 9.5,18.7 		"/>
		<path fill="#8F9BA8" d="M21,24H10.3c-0.4,0-0.7-0.3-0.7-0.6l-0.7-3.9H1.5c-0.3,0-0.6-0.2-0.7-0.5c-0.1-0.3,0-0.6,0.2-0.8l7.6-6
			C8.7,12.1,8.9,12,9.1,12h13.8c0.2,0,0.3,0.1,0.5,0.2l7.5,5.9c0.2,0.1,0.4,0.4,0.4,0.7c0,0.4-0.3,0.8-0.8,0.8c0,0,0,0,0,0h-8
			l-0.7,3.9C21.7,23.8,21.4,24,21,24z M10.9,22.5h9.5l0.7-3.9c0.1-0.4,0.4-0.6,0.7-0.6h6.4l-5.7-4.5H9.3L3.7,18h5.8
			c0.4,0,0.7,0.3,0.7,0.6L10.9,22.5z"/>
	</g>
	<g>
		<polygon fill="#FFFFFF" points="13.2,2 7.7,7.6 13.2,7.6 		"/>
		<path fill="#DA8C8C" d="M13.2,8.3H7.7C7.4,8.3,7.1,8.1,7,7.8C6.9,7.6,6.9,7.2,7.1,7l5.5-5.5c0.2-0.2,0.5-0.3,0.8-0.2
			c0.3,0.1,0.5,0.4,0.5,0.7v5.5C13.9,8,13.6,8.3,13.2,8.3z M9.5,6.8h3v-3L9.5,6.8z"/>
	</g>
	<g>
		<polygon fill="#FFFFFF" points="10.3,23.3 21,23.3 21.9,18.7 24.3,18.7 24.3,2 13.2,2 13.2,7.6 7.7,7.6 7.7,18.7 9.5,18.7 		"/>
		<path fill="#DA8C8C" d="M21,24H10.3c-0.4,0-0.7-0.3-0.7-0.6l-0.7-3.9H7.7c-0.4,0-0.8-0.3-0.8-0.8V7.6c0-0.4,0.3-0.8,0.8-0.8h4.8V2
			c0-0.4,0.3-0.8,0.8-0.8h11.1c0.4,0,0.8,0.3,0.8,0.8v16.7c0,0.4-0.3,0.8-0.8,0.8h-1.8l-0.7,3.9C21.7,23.8,21.4,24,21,24z
			 M10.9,22.5h9.5l0.7-3.9c0.1-0.4,0.4-0.6,0.7-0.6h1.7V2.8h-9.6v4.8c0,0.4-0.3,0.8-0.8,0.8H8.4V18h1c0.4,0,0.7,0.3,0.7,0.6
			L10.9,22.5z"/>
	</g>
	<g>
		<polygon fill="#FFFFFF" points="24.3,18.7 21.9,18.7 21,23.3 10.3,23.3 9.5,18.7 7.7,18.7 1.5,18.7 1.5,30 30.5,30 30.5,18.7 		
			"/>
		<path fill="#8F9BA8" d="M30.5,30.7h-29c-0.4,0-0.8-0.3-0.8-0.8V18.7c0-0.4,0.3-0.8,0.8-0.8h8c0.4,0,0.7,0.3,0.7,0.6l0.7,3.9h9.5
			l0.7-3.9c0.1-0.4,0.4-0.6,0.7-0.6h8.6c0.4,0,0.8,0.3,0.8,0.8V30C31.2,30.4,30.9,30.7,30.5,30.7z M2.2,29.2h27.5v-9.7h-7.2
			l-0.7,3.9C21.7,23.8,21.4,24,21,24H10.3c-0.4,0-0.7-0.3-0.7-0.6l-0.7-3.9H2.2V29.2z"/>
	</g>
	<g>
		<line fill="#FFFFFF" x1="11.2" y1="11.2" x2="20.3" y2="11.2"/>
		<rect x="11.2" y="10.5" fill="#DA8C8C" width="9.1" height="1.5"/>
	</g>
	<g>
		<line fill="#FFFFFF" x1="11.2" y1="14.5" x2="20.3" y2="14.5"/>
		<rect x="11.2" y="13.7" fill="#DA8C8C" width="9.1" height="1.5"/>
	</g>
</g>
</svg>
