<?xml version="1.0" encoding="utf-8"?>
<!-- Generator: Adobe Illustrator 18.0.0, SVG Export Plug-In . SVG Version: 6.00 Build 0)  -->
<!DOCTYPE svg PUBLIC "-//W3C//DTD SVG 1.1//EN" "http://www.w3.org/Graphics/SVG/1.1/DTD/svg11.dtd">
<svg version="1.1" id="Layer_1" xmlns="http://www.w3.org/2000/svg" xmlns:xlink="http://www.w3.org/1999/xlink" x="0px" y="0px"
	 viewBox="0 0 32 32" enable-background="new 0 0 32 32" xml:space="preserve">
<g>
	<g>
		<polygon fill="#F9F8F2" points="10.3,17.9 21,17.9 21.9,13.4 30.5,13.4 22.9,7.4 9.1,7.4 1.5,13.4 9.5,13.4 		"/>
		<path fill="#B4A79C" d="M21,18.6H10.3c-0.4,0-0.7-0.3-0.7-0.6l-0.7-3.9H1.5c-0.3,0-0.6-0.2-0.7-0.5s0-0.6,0.2-0.8l7.6-6
			c0.1-0.1,0.3-0.2,0.5-0.2h13.8c0.2,0,0.3,0.1,0.5,0.2l7.5,5.9c0.2,0.1,0.4,0.4,0.4,0.7c0,0.4-0.3,0.8-0.8,0.8l0,0h-8L21.8,18
			C21.7,18.4,21.4,18.6,21,18.6z M10.9,17.1h9.5l0.7-3.9c0.1-0.4,0.4-0.6,0.7-0.6h6.4l-5.7-4.5H9.3l-5.7,4.5h5.8
			c0.4,0,0.7,0.3,0.7,0.6L10.9,17.1z"/>
	</g>
	<g>
		<path fill="#B4A79C" d="M30.5,25.3h-29c-0.4,0-0.8-0.3-0.8-0.8V13.4c0-0.4,0.3-0.8,0.8-0.8h8c0.4,0,0.7,0.3,0.7,0.6l0.7,3.9h9.5
			l0.7-3.9c0.1-0.4,0.4-0.6,0.7-0.6h8.6c0.4,0,0.8,0.3,0.8,0.8v11.2C31.2,25,30.9,25.3,30.5,25.3z M2.2,23.8h27.5v-9.7h-7.2L21.8,18
			c-0.1,0.4-0.4,0.6-0.7,0.6H10.3c-0.4,0-0.7-0.3-0.7-0.6l-0.7-3.9H2.2V23.8z"/>
	</g>
</g>
</svg>
