<?xml version="1.0" encoding="utf-8"?>
<!-- Generator: Adobe Illustrator 18.0.0, SVG Export Plug-In . SVG Version: 6.00 Build 0)  -->
<!DOCTYPE svg PUBLIC "-//W3C//DTD SVG 1.1//EN" "http://www.w3.org/Graphics/SVG/1.1/DTD/svg11.dtd">
<svg version="1.1" id="Layer_1" xmlns="http://www.w3.org/2000/svg" xmlns:xlink="http://www.w3.org/1999/xlink" x="0px" y="0px"
	 viewBox="0 0 32 32" enable-background="new 0 0 32 32" xml:space="preserve">
<g>
	<g>
		<path fill="#F0F7F7" d="M2.1,29.9L2.1,29.9c4.1,0.8,7.9,0.7,11.3,0.1L2,18.6C1.3,22,1.3,25.8,2.1,29.9z"/>
		<path fill="#74B1E0" d="M8.1,31.2L8.1,31.2c-2,0-4.1-0.2-6.2-0.6c-0.3-0.1-0.5-0.3-0.6-0.6c-0.8-4.1-0.8-8-0.1-11.6
			c0.1-0.3,0.3-0.5,0.5-0.6c0.3-0.1,0.6,0,0.7,0.2l11.4,11.4c0.2,0.2,0.3,0.5,0.2,0.7c-0.1,0.3-0.3,0.5-0.6,0.5
			C11.8,31.1,10,31.2,8.1,31.2z M2.7,29.3c1.8,0.3,3.7,0.5,5.4,0.5l0,0c1.3,0,2.5-0.1,3.7-0.2l-9.3-9.3C2.1,23,2.2,26.1,2.7,29.3z"
			/>
	</g>
	<g>
		<path fill="#F0F7F7" d="M29.9,2.1L29.9,2.1L29.9,2.1C25.8,1.3,22,1.3,18.6,2L30,13.4C30.7,10,30.7,6.2,29.9,2.1z"/>
		<path fill="#74B1E0" d="M30,14.1c-0.2,0-0.4-0.1-0.5-0.2L18.1,2.5c-0.2-0.2-0.3-0.5-0.2-0.7c0.1-0.3,0.3-0.5,0.6-0.5
			C22,0.6,26,0.6,30.1,1.3c0.3,0.1,0.5,0.3,0.6,0.6c0.8,4.1,0.8,8,0.1,11.6c-0.1,0.3-0.3,0.5-0.5,0.6C30.2,14.1,30.1,14.1,30,14.1z
			 M20.2,2.5l9.3,9.3c0.4-2.9,0.3-5.9-0.2-9.1C26.1,2.2,23,2.1,20.2,2.5z"/>
	</g>
	<g>
		<path fill="#74B1E0" d="M13.4,30.8c-0.2,0-0.4-0.1-0.5-0.2L1.5,19.1c-0.2-0.2-0.3-0.4-0.2-0.7C3.1,9.3,9.3,3.1,18.5,1.3
			c0.2-0.1,0.5,0,0.7,0.2l11.4,11.4c0.2,0.2,0.3,0.4,0.2,0.7c-1.8,9.1-8.1,15.4-17.2,17.2C13.5,30.7,13.4,30.8,13.4,30.8z M2.8,18.4
			l10.8,10.8c8.2-1.7,13.8-7.4,15.5-15.5L18.4,2.8C10.2,4.6,4.6,10.2,2.8,18.4z"/>
	</g>
	<g>
		
			<rect x="18.5" y="10.8" transform="matrix(0.7071 0.7071 -0.7071 0.7071 14.144 -11.1079)" fill="#8F9BA8" width="3.9" height="1.5"/>
	</g>
	<g>
		
			<rect x="15.5" y="13.8" transform="matrix(0.7071 0.7071 -0.7071 0.7071 15.3808 -8.1213)" fill="#8F9BA8" width="3.9" height="1.5"/>
	</g>
	<g>
		
			<rect x="12.6" y="16.7" transform="matrix(0.7071 0.7071 -0.7071 0.7071 16.6178 -5.1341)" fill="#8F9BA8" width="3.9" height="1.5"/>
	</g>
	<g>
		
			<rect x="9.6" y="19.7" transform="matrix(0.7071 0.7071 -0.7071 0.7071 17.8552 -2.1468)" fill="#8F9BA8" width="3.9" height="1.5"/>
	</g>
</g>
</svg>
