<?xml version="1.0" encoding="utf-8"?>
<!-- Generator: Adobe Illustrator 18.0.0, SVG Export Plug-In . SVG Version: 6.00 Build 0)  -->
<!DOCTYPE svg PUBLIC "-//W3C//DTD SVG 1.1//EN" "http://www.w3.org/Graphics/SVG/1.1/DTD/svg11.dtd">
<svg version="1.1" id="Layer_1" xmlns="http://www.w3.org/2000/svg" xmlns:xlink="http://www.w3.org/1999/xlink" x="0px" y="0px"
	 viewBox="0 0 32 32" enable-background="new 0 0 32 32" xml:space="preserve">
<g>
	<g>
		<path fill="#F7DCE5" d="M16.3,26.3h14c-0.5-5.9-3.7-10.5-7.6-10.5c-3.3,0-6.2,3.4-7.2,8.2"/>
		<path fill="#CF817F" d="M31,27H16.3v-1.4h13.2c-0.7-5.2-3.5-9-6.8-9c-2.9,0-5.5,3.1-6.5,7.7l-1.4-0.3c1.1-5.3,4.3-8.8,7.9-8.8
			c4.2,0,7.7,4.7,8.3,11.1L31,27z"/>
	</g>
	<g>
		<circle fill="#FFFFFF" cx="9.4" cy="10.6" r="4.9"/>
		<path fill="#8F9BA8" d="M9.4,16.2c-3.1,0-5.6-2.5-5.6-5.6S6.3,5,9.4,5s5.6,2.5,5.6,5.6S12.4,16.2,9.4,16.2z M9.4,6.4
			c-2.3,0-4.2,1.9-4.2,4.2c0,2.3,1.9,4.2,4.2,4.2s4.2-1.9,4.2-4.2C13.5,8.3,11.6,6.4,9.4,6.4z"/>
	</g>
	<g>
		<path fill="#F0F7F7" d="M16.9,29.7c-0.5-5.9-3.7-10.5-7.6-10.5c-3.9,0-7,4.5-7.6,10.5H16.9z"/>
		<path fill="#8F9BA8" d="M17.7,30.4H1l0.1-0.8c0.6-6.4,4.1-11.1,8.3-11.1s7.7,4.7,8.3,11.1L17.7,30.4z M2.6,29h13.6
			c-0.7-5.2-3.5-9-6.8-9C6.1,20,3.3,23.8,2.6,29z"/>
	</g>
	<g>
		<circle fill="#FFFFFF" cx="22.6" cy="7.1" r="4.9"/>
		<path fill="#CF817F" d="M22.6,12.7c-3.1,0-5.6-2.5-5.6-5.6s2.5-5.6,5.6-5.6c3.1,0,5.6,2.5,5.6,5.6S25.7,12.7,22.6,12.7z M22.6,3
			c-2.3,0-4.2,1.9-4.2,4.2c0,2.3,1.9,4.2,4.2,4.2c2.3,0,4.2-1.9,4.2-4.2C26.8,4.8,24.9,3,22.6,3z"/>
	</g>
</g>
</svg>
