<?xml version="1.0" encoding="utf-8"?>
<!-- Generator: Adobe Illustrator 18.0.0, SVG Export Plug-In . SVG Version: 6.00 Build 0)  -->
<!DOCTYPE svg PUBLIC "-//W3C//DTD SVG 1.1//EN" "http://www.w3.org/Graphics/SVG/1.1/DTD/svg11.dtd">
<svg version="1.1" id="Layer_1" xmlns="http://www.w3.org/2000/svg" xmlns:xlink="http://www.w3.org/1999/xlink" x="0px" y="0px"
	 viewBox="0 0 32 32" enable-background="new 0 0 32 32" xml:space="preserve">
<g>
	<g>
		<path fill="#DA8C8C" d="M31.3,29.4H0.8V8.5h30.5V29.4z M2.3,27.9h27.5V10H2.3V27.9z"/>
	</g>
	<g>
		<path fill="#74B1E0" d="M16,26.3c-4,0-7.3-3.3-7.3-7.3c0-4,3.3-7.3,7.3-7.3s7.3,3.3,7.3,7.3C23.3,23,20,26.3,16,26.3z M16,13.1
			c-3.2,0-5.8,2.6-5.8,5.8c0,3.2,2.6,5.8,5.8,5.8s5.8-2.6,5.8-5.8C21.8,15.8,19.2,13.1,16,13.1z"/>
	</g>
	<g>
		<path fill="#74B1E0" d="M16,26.3c-2.3,0-3.5-3.8-3.5-7.3s1.2-7.3,3.5-7.3s3.5,3.8,3.5,7.3S18.3,26.3,16,26.3z M16,13.1
			c-0.8,0-2,2.3-2,5.8c0,3.5,1.2,5.8,2,5.8c0.8,0,2-2.3,2-5.8C18,15.4,16.8,13.1,16,13.1z"/>
	</g>
	<g>
		<rect x="9.4" y="18.2" fill="#74B1E0" width="13.1" height="1.5"/>
	</g>
	<g>
		<rect x="1.5" y="3.4" fill="#FAC2C3" width="29" height="5.9"/>
		<path fill="#DA8C8C" d="M31.3,10H0.8V2.6h30.5V10z M2.3,8.5h27.5V4.1H2.3V8.5z"/>
	</g>
	<g>
		<line fill="#F7DCE5" x1="18.6" y1="6.3" x2="19.9" y2="6.3"/>
		<rect x="18.6" y="5.6" fill="#CF817F" width="1.3" height="1.5"/>
	</g>
	<g>
		<line fill="#F7DCE5" x1="22.2" y1="6.3" x2="23.5" y2="6.3"/>
		<rect x="22.2" y="5.6" fill="#CF817F" width="1.3" height="1.5"/>
	</g>
	<g>
		<line fill="#F7DCE5" x1="25.7" y1="6.3" x2="27" y2="6.3"/>
		<rect x="25.7" y="5.6" fill="#CF817F" width="1.3" height="1.5"/>
	</g>
</g>
</svg>
