<?xml version="1.0" encoding="utf-8"?>
<!-- Generator: Adobe Illustrator 18.0.0, SVG Export Plug-In . SVG Version: 6.00 Build 0)  -->
<!DOCTYPE svg PUBLIC "-//W3C//DTD SVG 1.1//EN" "http://www.w3.org/Graphics/SVG/1.1/DTD/svg11.dtd">
<svg version="1.1" id="Layer_1" xmlns="http://www.w3.org/2000/svg" xmlns:xlink="http://www.w3.org/1999/xlink" x="0px" y="0px"
	 viewBox="0 0 32 32" enable-background="new 0 0 32 32" xml:space="preserve">
<g>
	<g>
		<path fill="#B4A79C" d="M4.7,30.8c-0.8,0-1.6-0.3-2.2-0.9l-0.8-0.8c-0.6-0.6-1-1.5-0.9-2.4c0-0.9,0.4-1.7,1.1-2.3l4.9-4.2
			c0.7-0.6,0.9-1.5,0.5-2.3c-1.4-2.6-1.6-5.3-0.7-7.9C6.6,9.8,6.8,9.7,7,9.6c0.3-0.1,0.5,0,0.7,0.2l14,14c0.2,0.2,0.3,0.4,0.2,0.7
			c-0.1,0.3-0.2,0.5-0.5,0.5c-1,0.3-2,0.5-3,0.5l0,0c-1.6,0-3.2-0.4-4.8-1.2c-0.8-0.4-1.8-0.2-2.3,0.5l-4.2,4.9
			C6.5,30.4,5.6,30.8,4.7,30.8z M7.6,11.8c-0.3,1.8,0,3.6,1,5.5c0.7,1.4,0.4,3.1-0.8,4.1l-4.9,4.2c-0.4,0.3-0.6,0.7-0.6,1.2
			c0,0.5,0.2,0.9,0.5,1.2l0.8,0.8c0.7,0.7,1.8,0.6,2.4-0.1l4.2-4.9c1-1.2,2.8-1.5,4.1-0.8c1.4,0.7,2.8,1.1,4.1,1.1l0,0
			c0.4,0,0.9,0,1.3-0.1L7.6,11.8z"/>
	</g>
	<g>
		<path fill="#B4A79C" d="M21.2,25.1c-0.2,0-0.4-0.1-0.5-0.2l-14-14c-0.2-0.2-0.3-0.5-0.2-0.8C7,8.6,7.9,7.2,9.2,5.9
			c2.9-2.9,7.3-4.7,11.4-4.7c2.9,0,5.4,0.9,7.1,2.6c2.9,2.9,3.5,8.1,1.4,13.2c-0.1,0.2-0.2,0.3-0.4,0.4c-0.2,0.1-0.4,0.1-0.6,0
			c-0.4-0.2-0.8-0.3-1.3-0.3c-1.7,0-3,1.4-3,3c0,0.8,0.3,1.5,0.8,2.1c0.1,0.2,0.2,0.4,0.2,0.6c0,0.2-0.1,0.4-0.3,0.5
			c-1,0.8-2,1.3-3,1.7C21.3,25,21.3,25.1,21.2,25.1z M8.1,10.2l13.3,13.3c0.5-0.2,1-0.5,1.5-0.8c-0.5-0.7-0.7-1.6-0.7-2.4
			c0-2.5,2-4.5,4.5-4.5c0.4,0,0.8,0.1,1.2,0.2c1.5-4.3,1.1-8.5-1.3-10.9c-1.8-1.8-4.3-2.2-6-2.2c-3.7,0-7.7,1.7-10.3,4.3
			C9.3,8,8.5,9,8.1,10.2z"/>
	</g>
	<g>
		<path fill="#F0F7F7" d="M28.3,16.8c-0.5-0.2-1-0.4-1.6-0.4c-2.1,0-3.8,1.7-3.8,3.8c0,1,0.4,1.9,1,2.6c0.7,0.7,1.7,1.2,2.8,1.2
			c2.1,0,3.8-1.7,3.8-3.8C30.5,18.7,29.6,17.4,28.3,16.8z"/>
		<path fill="#8F9BA8" d="M26.7,24.7c-1.3,0-2.4-0.5-3.3-1.4c-0.8-0.8-1.2-1.9-1.2-3.1c0-2.5,2-4.5,4.5-4.5c0.7,0,1.3,0.1,1.9,0.4
			c1.6,0.7,2.6,2.4,2.6,4.1C31.2,22.7,29.2,24.7,26.7,24.7z M26.7,17.1c-1.7,0-3,1.4-3,3c0,0.8,0.3,1.5,0.8,2.1c0.6,0.6,1.4,1,2.2,1
			c1.7,0,3-1.4,3-3c0-1.2-0.7-2.2-1.7-2.7C27.6,17.2,27.2,17.1,26.7,17.1z"/>
	</g>
</g>
</svg>
