<?xml version="1.0" encoding="utf-8"?>
<!-- Generator: Adobe Illustrator 18.0.0, SVG Export Plug-In . SVG Version: 6.00 Build 0)  -->
<!DOCTYPE svg PUBLIC "-//W3C//DTD SVG 1.1//EN" "http://www.w3.org/Graphics/SVG/1.1/DTD/svg11.dtd">
<svg version="1.1" id="Layer_1" xmlns="http://www.w3.org/2000/svg" xmlns:xlink="http://www.w3.org/1999/xlink" x="0px" y="0px"
	 viewBox="0 0 32 32" enable-background="new 0 0 32 32" xml:space="preserve">
<g>
	<g>
		<rect x="1.5" y="1.5" fill="#F2E8B9" width="16.9" height="16.9"/>
		<path fill="#8F9BA8" d="M18.4,19.2h-2v-1.5h2V19.2z M14.4,19.2h-2v-1.5h2V19.2z M10.4,19.2h-2v-1.5h2V19.2z M6.4,19.2h-2v-1.5h2
			V19.2z M2.4,19.2H0.8v-1.8h1.5v0.3h0.2V19.2z M19.2,16.8h-1.5v-2h1.5V16.8z M2.3,15.3H0.8v-2h1.5V15.3z M19.2,12.8h-1.5v-2h1.5
			V12.8z M2.3,11.3H0.8v-2h1.5V11.3z M19.2,8.8h-1.5v-2h1.5V8.8z M2.3,7.3H0.8v-2h1.5V7.3z M19.2,4.8h-1.5v-2h1.5V4.8z M2.3,3.3H0.8
			V0.7h0.9v0.8h0.6V3.3z M17.7,2.2h-2V0.7h2V2.2z M13.7,2.2h-2V0.7h2V2.2z M9.7,2.2h-2V0.7h2V2.2z M5.7,2.2h-2V0.7h2V2.2z"/>
	</g>
	<g>
		<path fill="#8F9BA8" d="M31.3,31.2H0.8V0.7h30.5V31.2z M2.3,29.7h27.5V2.2H2.3V29.7z"/>
	</g>
	<g>
		<line fill="#F0F7F7" x1="30.5" y1="30.5" x2="20.8" y2="20.8"/>
		
			<rect x="18.8" y="24.9" transform="matrix(0.7071 0.7071 -0.7071 0.7071 25.6436 -10.6219)" fill="#8F9BA8" width="13.7" height="1.5"/>
	</g>
	<g>
		<polygon fill="#8F9BA8" points="21.5,26.3 20,26.3 20,20 26.3,20 26.3,21.5 21.5,21.5 		"/>
	</g>
</g>
</svg>
