<?xml version="1.0" encoding="utf-8"?>
<!-- Generator: Adobe Illustrator 18.0.0, SVG Export Plug-In . SVG Version: 6.00 Build 0)  -->
<!DOCTYPE svg PUBLIC "-//W3C//DTD SVG 1.1//EN" "http://www.w3.org/Graphics/SVG/1.1/DTD/svg11.dtd">
<svg version="1.1" id="Layer_1" xmlns="http://www.w3.org/2000/svg" xmlns:xlink="http://www.w3.org/1999/xlink" x="0px" y="0px"
	 viewBox="0 0 32 32" enable-background="new 0 0 32 32" xml:space="preserve">
<g>
	<g>
		<rect x="1.5" y="1.5" fill="#CDE4F7" width="16.9" height="16.9"/>
		<path fill="#74B1E0" d="M19.2,19.2H0.8V0.7h18.4V19.2z M2.3,17.7h15.4V2.2H2.3V17.7z"/>
	</g>
	<g>
		<path fill="#74B1E0" d="M30.5,31.2h-2v-1.5h2V31.2z M26.5,31.2h-2v-1.5h2V31.2z M22.5,31.2h-2v-1.5h2V31.2z M18.5,31.2h-2v-1.5h2
			V31.2z M14.5,31.2h-2v-1.5h2V31.2z M10.5,31.2h-2v-1.5h2V31.2z M6.5,31.2h-2v-1.5h2V31.2z M2.5,31.2H0.8v-1.8h1.5v0.3h0.3V31.2z
			 M31.3,28.5h-1.5v-2h1.5V28.5z M2.3,27.5H0.8v-2h1.5V27.5z M31.3,24.5h-1.5v-2h1.5V24.5z M2.3,23.5H0.8v-2h1.5V23.5z M31.3,20.5
			h-1.5v-2h1.5V20.5z M2.3,19.5H0.8v-2h1.5V19.5z M31.3,16.5h-1.5v-2h1.5V16.5z M2.3,15.5H0.8v-2h1.5V15.5z M31.3,12.5h-1.5v-2h1.5
			V12.5z M2.3,11.5H0.8v-2h1.5V11.5z M31.3,8.5h-1.5v-2h1.5V8.5z M2.3,7.5H0.8v-2h1.5V7.5z M31.3,4.5h-1.5v-2h1.5V4.5z M2.3,3.5H0.8
			v-2h1.5V3.5z M29.5,2.2h-2V0.7h2V2.2z M25.5,2.2h-2V0.7h2V2.2z M21.5,2.2h-2V0.7h2V2.2z M17.5,2.2h-2V0.7h2V2.2z M13.5,2.2h-2V0.7
			h2V2.2z M9.5,2.2h-2V0.7h2V2.2z M5.5,2.2h-2V0.7h2V2.2z"/>
	</g>
	<g>
		<line fill="#F0F7F7" x1="18.4" y1="18.4" x2="26.6" y2="26.6"/>
		
			<rect x="16.7" y="21.8" transform="matrix(0.7071 0.7071 -0.7071 0.7071 22.5204 -9.3276)" fill="#74B1E0" width="11.6" height="1.5"/>
	</g>
	<g>
		<polygon fill="#74B1E0" points="27.4,27.4 22,27.4 22,25.9 25.9,25.9 25.9,22 27.4,22 		"/>
	</g>
</g>
</svg>
