<?xml version="1.0" encoding="utf-8"?>
<!-- Generator: Adobe Illustrator 18.0.0, SVG Export Plug-In . SVG Version: 6.00 Build 0)  -->
<!DOCTYPE svg PUBLIC "-//W3C//DTD SVG 1.1//EN" "http://www.w3.org/Graphics/SVG/1.1/DTD/svg11.dtd">
<svg version="1.1" id="Layer_1" xmlns="http://www.w3.org/2000/svg" xmlns:xlink="http://www.w3.org/1999/xlink" x="0px" y="0px"
	 viewBox="0 0 32 32" enable-background="new 0 0 32 32" xml:space="preserve">
<g>
	<g>
		<polygon fill="#FFFFFF" points="1.5,1.5 8.8,27.7 12.7,20 23.2,30.5 30.5,23.2 20,12.7 27.7,8.8 		"/>
		<path fill="#79C693" d="M23.2,31.3c-0.2,0-0.4-0.1-0.5-0.2L13,21.4l-3.4,6.8c-0.1,0.3-0.4,0.4-0.7,0.4s-0.6-0.2-0.7-0.5L0.8,1.7
			C0.7,1.4,0.8,1.2,1,1s0.5-0.3,0.7-0.2l26.2,7.3c0.3,0.1,0.5,0.3,0.5,0.7c0,0.3-0.1,0.6-0.4,0.7l-6.8,3.4l9.7,9.7
			c0.3,0.3,0.3,0.8,0,1.1L23.7,31C23.5,31.2,23.4,31.3,23.2,31.3z M12.7,19.3c0.2,0,0.4,0.1,0.5,0.2l9.9,9.9l6.3-6.3l-9.9-9.9
			c-0.2-0.2-0.2-0.4-0.2-0.7c0-0.2,0.2-0.4,0.4-0.6l6-3L2.6,2.6L9,25.7l3-6C12.1,19.5,12.3,19.3,12.7,19.3
			C12.6,19.3,12.7,19.3,12.7,19.3z"/>
	</g>
</g>
</svg>
