<?xml version="1.0" encoding="utf-8"?>
<!-- Generator: Adobe Illustrator 18.0.0, SVG Export Plug-In . SVG Version: 6.00 Build 0)  -->
<!DOCTYPE svg PUBLIC "-//W3C//DTD SVG 1.1//EN" "http://www.w3.org/Graphics/SVG/1.1/DTD/svg11.dtd">
<svg version="1.1" id="Layer_1" xmlns="http://www.w3.org/2000/svg" xmlns:xlink="http://www.w3.org/1999/xlink" x="0px" y="0px"
	 viewBox="0 0 32 32" enable-background="new 0 0 32 32" xml:space="preserve">
<g>
	<g>
		<g>
			<g>
				<g>
					<polygon fill="#74B1E0" points="8.5,31.2 6.7,31.2 6.7,29.5 8.2,29.5 8.2,29.7 8.5,29.7 					"/>
				</g>
				<g>
					<path fill="#74B1E0" d="M8.2,27.4H6.7v-2.1h1.5V27.4z M8.2,23.3H6.7v-2.1h1.5V23.3z M8.2,19.1H6.7V17h1.5V19.1z M8.2,15H6.7
						v-2.1h1.5V15z M8.2,10.8H6.7V8.7h1.5V10.8z M8.2,6.7H6.7V4.6h1.5V6.7z"/>
				</g>
				<g>
					<polygon fill="#74B1E0" points="8.2,2.5 6.7,2.5 6.7,0.7 8.5,0.7 8.5,2.2 8.2,2.2 					"/>
				</g>
				<g>
					<path fill="#74B1E0" d="M21.4,2.2h-2.2V0.7h2.2V2.2z M17.1,2.2h-2.2V0.7h2.2V2.2z M12.8,2.2h-2.2V0.7h2.2V2.2z"/>
				</g>
				<g>
					<polygon fill="#74B1E0" points="25.3,2.5 23.8,2.5 23.8,2.2 23.5,2.2 23.5,0.7 25.3,0.7 					"/>
				</g>
				<g>
					<path fill="#74B1E0" d="M25.3,27.4h-1.5v-2.1h1.5V27.4z M25.3,23.3h-1.5v-2.1h1.5V23.3z M25.3,19.1h-1.5V17h1.5V19.1z M25.3,15
						h-1.5v-2.1h1.5V15z M25.3,10.8h-1.5V8.7h1.5V10.8z M25.3,6.7h-1.5V4.6h1.5V6.7z"/>
				</g>
				<g>
					<polygon fill="#74B1E0" points="25.3,31.2 23.5,31.2 23.5,29.7 23.8,29.7 23.8,29.5 25.3,29.5 					"/>
				</g>
				<g>
					<path fill="#74B1E0" d="M21.4,31.2h-2.2v-1.5h2.2V31.2z M17.1,31.2h-2.2v-1.5h2.2V31.2z M12.8,31.2h-2.2v-1.5h2.2V31.2z"/>
				</g>
			</g>
		</g>
	</g>
	<g>
		<rect x="1.5" y="7.5" fill="#CDE4F7" width="29" height="17.1"/>
		<path fill="#74B1E0" d="M31.3,25.3H0.8V6.7h30.5V25.3z M2.3,23.8h27.5V8.2H2.3V23.8z"/>
	</g>
</g>
</svg>
