<?xml version="1.0" encoding="utf-8"?>
<!-- Generator: Adobe Illustrator 18.0.0, SVG Export Plug-In . SVG Version: 6.00 Build 0)  -->
<!DOCTYPE svg PUBLIC "-//W3C//DTD SVG 1.1//EN" "http://www.w3.org/Graphics/SVG/1.1/DTD/svg11.dtd">
<svg version="1.1" id="Layer_1" xmlns="http://www.w3.org/2000/svg" xmlns:xlink="http://www.w3.org/1999/xlink" x="0px" y="0px"
	 viewBox="0 0 32 32" enable-background="new 0 0 32 32" xml:space="preserve">
<g>
	<g>
		<path fill="#DA8C8C" d="M31.3,28.9H0.8V3.1h30.5V28.9z M2.3,27.4h27.5V4.6H2.3V27.4z"/>
	</g>
	<g>
		<rect x="5.5" y="7.9" fill="#F0F7F7" width="21" height="11.6"/>
		<path fill="#8F9BA8" d="M27.3,20.2H4.8V7.1h22.5V20.2z M6.3,18.7h19.5V8.6H6.3V18.7z"/>
	</g>
	<g>
		<rect x="5.5" y="19.5" fill="#F0F7F7" width="21" height="4.6"/>
		<path fill="#8F9BA8" d="M27.3,24.9H4.8v-6.1h22.5V24.9z M6.3,23.4h19.5v-3.1H6.3V23.4z"/>
	</g>
	<g>
		<polygon fill="#F0F7F7" points="14.3,11.3 14.3,16.1 17.7,13.7 		"/>
		<path fill="#8F9BA8" d="M14.3,16.9c-0.1,0-0.2,0-0.3-0.1c-0.2-0.1-0.4-0.4-0.4-0.7v-4.8c0-0.3,0.2-0.5,0.4-0.7
			c0.2-0.1,0.5-0.1,0.8,0.1l3.4,2.4c0.2,0.1,0.3,0.4,0.3,0.6c0,0.2-0.1,0.5-0.3,0.6l-3.4,2.4C14.6,16.8,14.4,16.9,14.3,16.9z
			 M15,12.7v1.9l1.4-1L15,12.7z"/>
	</g>
	<g>
		<line fill="#F0F7F7" x1="8.1" y1="21.8" x2="9.4" y2="21.8"/>
		<rect x="8.1" y="21" fill="#8F9BA8" width="1.4" height="1.5"/>
	</g>
	<g>
		<line fill="#F0F7F7" x1="11" y1="21.8" x2="23.9" y2="21.8"/>
		<rect x="11" y="21" fill="#8F9BA8" width="12.9" height="1.5"/>
	</g>
</g>
</svg>
