<?xml version="1.0" encoding="utf-8"?>
<!-- Generator: Adobe Illustrator 18.0.0, SVG Export Plug-In . SVG Version: 6.00 Build 0)  -->
<!DOCTYPE svg PUBLIC "-//W3C//DTD SVG 1.1//EN" "http://www.w3.org/Graphics/SVG/1.1/DTD/svg11.dtd">
<svg version="1.1" id="Layer_1" xmlns="http://www.w3.org/2000/svg" xmlns:xlink="http://www.w3.org/1999/xlink" x="0px" y="0px"
	 viewBox="0 0 32 32" enable-background="new 0 0 32 32" xml:space="preserve">
<g>
	<g>
		<circle fill="#F0F7F7" cx="12.9" cy="15.9" r="1.9"/>
		<path fill="#8F9BA8" d="M12.9,18.5c-1.4,0-2.6-1.2-2.6-2.6s1.2-2.6,2.6-2.6s2.6,1.2,2.6,2.6S14.3,18.5,12.9,18.5z M12.9,14.8
			c-0.6,0-1.1,0.5-1.1,1.1c0,0.6,0.5,1.1,1.1,1.1c0.6,0,1.1-0.5,1.1-1.1C14,15.3,13.5,14.8,12.9,14.8z"/>
	</g>
	<g>
		<circle fill="#F0F7F7" cx="6.5" cy="22.5" r="1.9"/>
		<path fill="#8F9BA8" d="M6.5,25.2c-1.4,0-2.6-1.2-2.6-2.6c0-1.4,1.2-2.6,2.6-2.6c1.4,0,2.6,1.2,2.6,2.6C9.2,24,8,25.2,6.5,25.2z
			 M6.5,21.4c-0.6,0-1.1,0.5-1.1,1.1c0,0.6,0.5,1.1,1.1,1.1c0.6,0,1.1-0.5,1.1-1.1C7.7,21.9,7.2,21.4,6.5,21.4z"/>
	</g>
	<g>
		<circle fill="#F0F7F7" cx="19.2" cy="22.5" r="1.9"/>
		<path fill="#8F9BA8" d="M19.2,25.2c-1.4,0-2.6-1.2-2.6-2.6c0-1.4,1.2-2.6,2.6-2.6s2.6,1.2,2.6,2.6C21.8,24,20.6,25.2,19.2,25.2z
			 M19.2,21.4c-0.6,0-1.1,0.5-1.1,1.1c0,0.6,0.5,1.1,1.1,1.1c0.6,0,1.1-0.5,1.1-1.1C20.3,21.9,19.8,21.4,19.2,21.4z"/>
	</g>
	<g>
		<circle fill="#F0F7F7" cx="25.5" cy="15.9" r="1.9"/>
		<path fill="#8F9BA8" d="M25.5,18.5c-1.4,0-2.6-1.2-2.6-2.6s1.2-2.6,2.6-2.6c1.4,0,2.6,1.2,2.6,2.6S26.9,18.5,25.5,18.5z
			 M25.5,14.8c-0.6,0-1.1,0.5-1.1,1.1c0,0.6,0.5,1.1,1.1,1.1c0.6,0,1.1-0.5,1.1-1.1C26.6,15.3,26.1,14.8,25.5,14.8z"/>
	</g>
	<g>
		<line fill="#F0F7F7" x1="7.7" y1="21.1" x2="11.7" y2="17.3"/>
		
			<rect x="9" y="16.5" transform="matrix(0.6923 0.7216 -0.7216 0.6923 16.8689 -1.0973)" fill="#8F9BA8" width="1.5" height="5.5"/>
	</g>
	<g>
		<line fill="#F0F7F7" x1="20.2" y1="21.1" x2="24.2" y2="17.3"/>
		
			<rect x="21.4" y="16.5" transform="matrix(0.6923 0.7216 -0.7216 0.6923 20.7034 -10.0926)" fill="#8F9BA8" width="1.5" height="5.5"/>
	</g>
	<g>
		<line fill="#F0F7F7" x1="26.8" y1="17.3" x2="30.4" y2="21.1"/>
		
			<rect x="26" y="18.4" transform="matrix(0.6922 0.7217 -0.7217 0.6922 22.6393 -14.752)" fill="#8F9BA8" width="5.3" height="1.5"/>
	</g>
	<g>
		<line fill="#F0F7F7" x1="14.1" y1="17.3" x2="17.9" y2="21.2"/>
		
			<rect x="13.3" y="18.5" transform="matrix(0.6923 0.7216 -0.7216 0.6923 18.8043 -5.6353)" fill="#8F9BA8" width="5.5" height="1.5"/>
	</g>
	<g>
		<line fill="#F0F7F7" x1="1.5" y1="17.5" x2="5.1" y2="21.2"/>
		
			<rect x="0.8" y="18.6" transform="matrix(0.6922 0.7217 -0.7217 0.6922 14.9989 3.5837)" fill="#8F9BA8" width="5.1" height="1.5"/>
	</g>
	<g>
		<path fill="#B4A79C" d="M31.3,27.9H0.8V4.1h30.5V27.9z M2.3,26.4h27.5V5.6H2.3V26.4z"/>
	</g>
	<g>
		<line fill="#F0F7F7" x1="4.1" y1="8.5" x2="10.7" y2="8.5"/>
		<rect x="4.1" y="7.8" fill="#DA8C8C" width="6.6" height="1.5"/>
	</g>
	<g>
		<line fill="#F0F7F7" x1="4.1" y1="11.1" x2="8.8" y2="11.1"/>
		<rect x="4.1" y="10.3" fill="#DA8C8C" width="4.8" height="1.5"/>
	</g>
</g>
</svg>
