<?xml version="1.0" encoding="utf-8"?>
<!-- Generator: Adobe Illustrator 18.0.0, SVG Export Plug-In . SVG Version: 6.00 Build 0)  -->
<!DOCTYPE svg PUBLIC "-//W3C//DTD SVG 1.1//EN" "http://www.w3.org/Graphics/SVG/1.1/DTD/svg11.dtd">
<svg version="1.1" id="Layer_1" xmlns="http://www.w3.org/2000/svg" xmlns:xlink="http://www.w3.org/1999/xlink" x="0px" y="0px"
	 viewBox="0 0 32 32" enable-background="new 0 0 32 32" xml:space="preserve">
<g>
	<g>
		<path fill="#8F9BA8" d="M31.3,27.9H0.8V4.1h30.5V27.9z M2.3,26.4h27.5V5.6H2.3V26.4z"/>
	</g>
	<g>
		<path fill="#F0F7F7" d="M10.9,16l0.9-5.8c-2.5-0.4-5.1,0.9-6.2,3.3c-1.4,2.9-0.1,6.5,2.8,7.9c2.9,1.4,6.5,0.1,7.9-2.8
			c0.2-0.5,0.4-1,0.5-1.5L10.9,16z"/>
		<path fill="#8F9BA8" d="M10.9,22.7L10.9,22.7c-1,0-1.9-0.2-2.8-0.6c-1.6-0.8-2.8-2.1-3.4-3.8c-0.6-1.7-0.5-3.5,0.2-5.1
			c1.1-2.3,3.5-3.8,6-3.8c0.3,0,0.7,0,1,0.1l0.7,0.1l-0.9,5.9l5.8,1l-0.1,0.7c-0.1,0.6-0.3,1.2-0.5,1.7
			C15.8,21.2,13.4,22.7,10.9,22.7z M10.9,10.8c-2,0-3.8,1.2-4.7,3C5.6,15,5.6,16.4,6,17.7c0.5,1.3,1.4,2.3,2.7,2.9
			c0.7,0.3,1.4,0.5,2.2,0.5c2,0,3.8-1.2,4.7-3c0.1-0.2,0.2-0.4,0.2-0.6l-5.7-1L10.9,10.8C10.9,10.8,10.9,10.8,10.9,10.8z"/>
	</g>
	<g>
		<path fill="#F0F7F7" d="M16.7,17c0.4-2.6-0.8-5.2-3.3-6.3c-0.5-0.3-1.1-0.4-1.6-0.5L10.9,16L16.7,17z"/>
		<path fill="#8F9BA8" d="M17.3,17.9L10,16.6l1.1-7.3l0.7,0.1c0.6,0.1,1.3,0.3,1.8,0.6c2.7,1.3,4.2,4.2,3.7,7.2L17.3,17.9z
			 M11.7,15.4l4.3,0.7c0.1-2-1.1-3.9-3-4.8c-0.2-0.1-0.5-0.2-0.7-0.3L11.7,15.4z"/>
	</g>
	<g>
		<rect x="18.6" y="8.7" fill="#B4A79C" width="9.2" height="1.5"/>
	</g>
	<g>
		<rect x="21.4" y="11.9" fill="#B4A79C" width="6.4" height="1.5"/>
	</g>
	<g>
		<rect x="23.1" y="16.8" fill="#B4A79C" width="4.7" height="1.5"/>
	</g>
	<g>
		<rect x="23.1" y="20.2" fill="#B4A79C" width="4.7" height="1.5"/>
	</g>
</g>
</svg>
