<?xml version="1.0" encoding="utf-8"?>
<!-- Generator: Adobe Illustrator 18.0.0, SVG Export Plug-In . SVG Version: 6.00 Build 0)  -->
<!DOCTYPE svg PUBLIC "-//W3C//DTD SVG 1.1//EN" "http://www.w3.org/Graphics/SVG/1.1/DTD/svg11.dtd">
<svg version="1.1" id="Layer_1" xmlns="http://www.w3.org/2000/svg" xmlns:xlink="http://www.w3.org/1999/xlink" x="0px" y="0px"
	 viewBox="0 0 32 32" enable-background="new 0 0 32 32" xml:space="preserve">
<g>
	<g>
		<path fill="#79C693" d="M27.9,31.2H4.1c-1.9,0-3.4-1.5-3.4-3.4V4.1c0-1.9,1.5-3.4,3.4-3.4h23.8c1.9,0,3.4,1.5,3.4,3.4v23.8
			C31.3,29.7,29.7,31.2,27.9,31.2z M4.1,2.2c-1,0-1.9,0.8-1.9,1.9v23.8c0,1,0.8,1.9,1.9,1.9h23.8c1,0,1.9-0.8,1.9-1.9V4.1
			c0-1-0.8-1.9-1.9-1.9H4.1z"/>
	</g>
	<g>
		<path fill="#79C693" d="M16,27c-6.1,0-11-5-11-11s5-11,11-11c6.1,0,11,5,11,11S22.1,27,16,27z M16,6.5c-5.3,0-9.5,4.3-9.5,9.5
			c0,5.3,4.3,9.5,9.5,9.5c5.3,0,9.5-4.3,9.5-9.5C25.5,10.7,21.3,6.5,16,6.5z"/>
	</g>
	<g>
		<path fill="#79C693" d="M16,21.5c-3,0-5.5-2.4-5.5-5.5c0-3,2.4-5.5,5.5-5.5s5.5,2.4,5.5,5.5C21.5,19,19,21.5,16,21.5z M16,12
			c-2.2,0-4,1.8-4,4s1.8,4,4,4s4-1.8,4-4S18.2,12,16,12z"/>
	</g>
	<g>
		<rect x="15.3" y="5.7" fill="#79C693" width="1.5" height="5.6"/>
	</g>
	<g>
		<rect x="15.3" y="20.7" fill="#79C693" width="1.5" height="5.6"/>
	</g>
	<g>
		<rect x="20.7" y="15.2" fill="#79C693" width="5.6" height="1.5"/>
	</g>
	<g>
		<rect x="5.7" y="15.2" fill="#79C693" width="5.6" height="1.5"/>
	</g>
	<g>
		
			<rect x="20.6" y="7.9" transform="matrix(0.7071 0.7071 -0.7071 0.7071 13.8024 -11.9298)" fill="#79C693" width="1.5" height="5.6"/>
	</g>
	<g>
		
			<rect x="9.9" y="18.5" transform="matrix(0.7071 0.7071 -0.7071 0.7071 18.1949 -1.3252)" fill="#79C693" width="1.5" height="5.6"/>
	</g>
	<g>
		
			<rect x="18.5" y="20.6" transform="matrix(0.7072 0.707 -0.707 0.7072 21.2985 -8.8241)" fill="#79C693" width="5.6" height="1.5"/>
	</g>
	<g>
		<rect x="7.9" y="9.9" transform="matrix(0.7071 0.7071 -0.7071 0.7071 10.697 -4.431)" fill="#79C693" width="5.6" height="1.5"/>
	</g>
	<g>
		
			<rect x="10.3" y="8.3" transform="matrix(0.3826 0.9239 -0.9239 0.3826 16.4879 -6.5305)" fill="#79C693" width="5.6" height="1.5"/>
	</g>
	<g>
		
			<rect x="16.1" y="22.2" transform="matrix(0.3828 0.9238 -0.9238 0.3828 32.8295 -3.2809)" fill="#79C693" width="5.6" height="1.5"/>
	</g>
	<g>
		
			<rect x="22.2" y="10.3" transform="matrix(0.3826 0.9239 -0.9239 0.3826 26.2882 -13.0774)" fill="#79C693" width="1.5" height="5.6"/>
	</g>
	<g>
		
			<rect x="8.3" y="16.1" transform="matrix(0.3826 0.9239 -0.9239 0.3826 23.0343 3.268)" fill="#79C693" width="1.5" height="5.6"/>
	</g>
	<g>
		
			<rect x="18.1" y="6.3" transform="matrix(0.9239 0.3826 -0.3826 0.9239 4.9071 -6.5298)" fill="#79C693" width="1.5" height="5.6"/>
	</g>
	<g>
		
			<rect x="12.4" y="20.1" transform="matrix(0.9239 0.3826 -0.3826 0.9239 9.7707 -3.2791)" fill="#79C693" width="1.5" height="5.6"/>
	</g>
	<g>
		
			<rect x="20.1" y="18.1" transform="matrix(0.9239 0.3827 -0.3827 0.9239 8.9661 -7.3375)" fill="#79C693" width="5.6" height="1.5"/>
	</g>
	<g>
		
			<rect x="6.3" y="12.4" transform="matrix(0.9239 0.3826 -0.3826 0.9239 5.7142 -2.4719)" fill="#79C693" width="5.6" height="1.5"/>
	</g>
	<g>
		<rect x="26.3" y="4.2" fill="#79C693" width="1.5" height="1.5"/>
	</g>
	<g>
		<rect x="4.2" y="4.2" fill="#79C693" width="1.5" height="1.5"/>
	</g>
	<g>
		<rect x="26.3" y="26.3" fill="#79C693" width="1.5" height="1.5"/>
	</g>
	<g>
		<rect x="4.2" y="26.3" fill="#79C693" width="1.5" height="1.5"/>
	</g>
	<g>
		<path fill="#79C693" d="M16,18.4c-1.3,0-2.4-1.1-2.4-2.4c0-1.3,1.1-2.4,2.4-2.4s2.4,1.1,2.4,2.4C18.4,17.3,17.3,18.4,16,18.4z
			 M16,15.1c-0.5,0-0.9,0.4-0.9,0.9c0,0.5,0.4,0.9,0.9,0.9c0.5,0,0.9-0.4,0.9-0.9C16.9,15.5,16.5,15.1,16,15.1z"/>
	</g>
</g>
</svg>
