<?xml version="1.0" encoding="utf-8"?>
<!-- Generator: Adobe Illustrator 18.0.0, SVG Export Plug-In . SVG Version: 6.00 Build 0)  -->
<!DOCTYPE svg PUBLIC "-//W3C//DTD SVG 1.1//EN" "http://www.w3.org/Graphics/SVG/1.1/DTD/svg11.dtd">
<svg version="1.1" id="Layer_1" xmlns="http://www.w3.org/2000/svg" xmlns:xlink="http://www.w3.org/1999/xlink" x="0px" y="0px"
	 viewBox="0 0 32 32" enable-background="new 0 0 32 32" xml:space="preserve">
<g>
	<g>
		<path fill="#8F9BA8" d="M17.5,31.2h-3L14.1,29c-0.5-0.1-0.9-0.2-1.4-0.3l-1.2,1.9l-2.8-1.2l0.5-2.2c-0.4-0.2-0.8-0.5-1.2-0.8
			l-1.8,1.3l-2.1-2.1l1.3-1.8c-0.3-0.4-0.6-0.8-0.8-1.2l-2.2,0.5l-1.2-2.8l1.9-1.2c-0.1-0.5-0.2-0.9-0.3-1.4l-2.2-0.4v-3L3,14.1
			c0.1-0.5,0.2-0.9,0.3-1.4l-1.9-1.2l1.2-2.8l2.2,0.5c0.2-0.4,0.5-0.8,0.8-1.2L4.2,6.3l2.1-2.1l1.8,1.3c0.4-0.3,0.8-0.6,1.2-0.8
			L8.8,2.5l2.8-1.2l1.2,1.9c0.5-0.1,0.9-0.2,1.4-0.3l0.4-2.2h3L17.9,3c0.5,0.1,0.9,0.2,1.4,0.3l1.2-1.9l2.8,1.2l-0.5,2.2
			c0.4,0.2,0.8,0.5,1.2,0.8l1.8-1.3l2.1,2.1l-1.3,1.8c0.3,0.4,0.6,0.8,0.8,1.2l2.2-0.5l1.2,2.8l-1.9,1.2c0.1,0.5,0.2,0.9,0.3,1.4
			l2.2,0.4v3L29,17.9c-0.1,0.5-0.2,0.9-0.3,1.4l1.9,1.2l-1.2,2.8l-2.2-0.5c-0.2,0.4-0.5,0.8-0.8,1.2l1.3,1.8l-2.1,2.1l-1.8-1.3
			c-0.4,0.3-0.8,0.6-1.2,0.8l0.5,2.2l-2.8,1.2l-1.2-1.9c-0.5,0.1-0.9,0.2-1.4,0.3L17.5,31.2z M15.8,29.7h0.4l0.3-2.1l0.6-0.1
			c0.8-0.1,1.5-0.2,2.3-0.4l0.6-0.2l1.1,1.8l0.4-0.2L21,26.5l0.5-0.3c0.7-0.4,1.3-0.8,1.9-1.3l0.4-0.4l1.7,1.3l0.3-0.3l-1.3-1.7
			l0.4-0.4c0.5-0.6,0.9-1.2,1.3-1.9l0.3-0.5l2.1,0.5l0.2-0.4L27,19.9l0.2-0.6c0.2-0.7,0.4-1.5,0.4-2.3l0.1-0.6l2.1-0.3v-0.4
			l-2.1-0.3l-0.1-0.6c-0.1-0.8-0.2-1.5-0.4-2.3L27,12.1l1.8-1.1l-0.2-0.4L26.5,11l-0.3-0.5c-0.4-0.7-0.8-1.3-1.3-1.9l-0.4-0.4
			l1.3-1.7l-0.3-0.3l-1.7,1.3L23.4,7c-0.6-0.5-1.2-0.9-1.9-1.3L21,5.5l0.5-2.1l-0.4-0.2L19.9,5l-0.6-0.2c-0.7-0.2-1.5-0.4-2.3-0.4
			l-0.6-0.1l-0.3-2.1h-0.4l-0.3,2.1l-0.6,0.1c-0.8,0.1-1.5,0.2-2.3,0.4L12.1,5l-1.1-1.8l-0.4,0.2L11,5.5l-0.5,0.3
			C9.8,6.1,9.2,6.5,8.6,7L8.2,7.4L6.4,6.1L6.1,6.4l1.3,1.7L7,8.6c-0.5,0.6-0.9,1.2-1.3,1.9L5.5,11l-2.1-0.5l-0.2,0.4L5,12.1
			l-0.2,0.6c-0.2,0.7-0.4,1.5-0.4,2.3l-0.1,0.6l-2.1,0.3v0.4l2.1,0.3l0.1,0.6c0.1,0.8,0.2,1.5,0.4,2.3L5,19.9l-1.8,1.1l0.2,0.4
			L5.5,21l0.3,0.5c0.4,0.7,0.8,1.3,1.3,1.9l0.4,0.4l-1.3,1.7l0.3,0.3l1.7-1.3L8.6,25c0.6,0.5,1.2,0.9,1.9,1.3l0.5,0.3l-0.5,2.1
			l0.4,0.2l1.1-1.8l0.6,0.2c0.7,0.2,1.5,0.4,2.3,0.4l0.6,0.1L15.8,29.7z"/>
	</g>
	<g>
		<path fill="#8F9BA8" d="M16,23.2c-4,0-7.2-3.2-7.2-7.2S12,8.8,16,8.8c4,0,7.2,3.2,7.2,7.2S20,23.2,16,23.2z M16,10.3
			c-3.1,0-5.7,2.6-5.7,5.7c0,3.1,2.6,5.7,5.7,5.7c3.1,0,5.7-2.6,5.7-5.7C21.7,12.9,19.1,10.3,16,10.3z"/>
	</g>
	<g>
		<path fill="#8F9BA8" d="M16,19.4c-1.9,0-3.4-1.5-3.4-3.4c0-1.9,1.5-3.4,3.4-3.4c1.9,0,3.4,1.5,3.4,3.4
			C19.4,17.9,17.9,19.4,16,19.4z M16,14.1c-1,0-1.9,0.8-1.9,1.9s0.8,1.9,1.9,1.9c1,0,1.9-0.8,1.9-1.9S17,14.1,16,14.1z"/>
	</g>
</g>
</svg>
