<?xml version="1.0" encoding="utf-8"?>
<!-- Generator: Adobe Illustrator 18.0.0, SVG Export Plug-In . SVG Version: 6.00 Build 0)  -->
<!DOCTYPE svg PUBLIC "-//W3C//DTD SVG 1.1//EN" "http://www.w3.org/Graphics/SVG/1.1/DTD/svg11.dtd">
<svg version="1.1" id="Layer_1" xmlns="http://www.w3.org/2000/svg" xmlns:xlink="http://www.w3.org/1999/xlink" x="0px" y="0px"
	 viewBox="0 0 32 32" enable-background="new 0 0 32 32" xml:space="preserve">
<pattern  x="-42" y="-294" width="24.1" height="24.1" patternUnits="userSpaceOnUse" id="New_Pattern_Swatch_2" viewBox="0 -24.1 24.1 24.1" overflow="visible">
	<g>
		<polygon fill="none" points="0,0 24.1,0 24.1,-24.1 0,-24.1 		"/>
		<polygon fill="#E0CB81" points="24.1,0 0,0 0,-24.1 24.1,-24.1 		"/>
	</g>
</pattern>
<g>
	<g>
		<path fill="#DA8C8C" d="M31.3,29.4H0.8V8.5h30.5V29.4z M2.3,27.9h27.5V10H2.3V27.9z"/>
	</g>
	<g>
		<g>
			<defs>
				<polygon id="SVGID_11_" points="16,12.6 17.9,16.4 22.1,17 19,20 19.7,24.2 16,22.2 12.3,24.2 13,20 9.9,17 14.1,16.4 				"/>
			</defs>
			<clipPath id="SVGID_2_">
				<use xlink:href="#SVGID_11_"  overflow="visible"/>
			</clipPath>
			<g clip-path="url(#SVGID_2_)">
				<rect x="13.9" y="-6.3" fill="none" width="24.1" height="24.1"/>
				<rect x="13.9" y="-6.3" fill="#FEE99B" width="24.1" height="24.1"/>
			</g>
			<g clip-path="url(#SVGID_2_)">
				<rect x="13.9" y="17.9" fill="none" width="24.1" height="24.1"/>
				<rect x="13.9" y="17.9" fill="#FEE99B" width="24.1" height="24.1"/>
			</g>
			<g clip-path="url(#SVGID_2_)">
				<rect x="-10.2" y="-6.3" fill="none" width="24.1" height="24.1"/>
				<rect x="-10.2" y="-6.3" fill="#FEE99B" width="24.1" height="24.1"/>
			</g>
			<g clip-path="url(#SVGID_2_)">
				<rect x="-10.2" y="17.9" fill="none" width="24.1" height="24.1"/>
				<rect x="-10.2" y="17.9" fill="#FEE99B" width="24.1" height="24.1"/>
			</g>
		</g>
		<pattern  id="SVGID_4_" xlink:href="#New_Pattern_Swatch_2" patternTransform="matrix(1 0 0 1 -12.0712 -0.4379)">
		</pattern>
		<path fill="url(#SVGID_4_)" d="M11.3,25.5l0.9-5.3l-3.8-3.7l5.3-0.8l2.4-4.8l2.4,4.8l5.3,0.8l-3.8,3.7l0.9,5.3L16,23L11.3,25.5z
			 M16,21.3l2.8,1.4l-0.5-3.1l2.2-2.2l-3.1-0.4L16,14.3l-1.4,2.8l-3.1,0.4l2.2,2.2l-0.5,3.1L16,21.3z"/>
	</g>
	<g>
		<rect x="1.5" y="3.4" fill="#FAC2C3" width="29" height="5.9"/>
		<path fill="#DA8C8C" d="M31.3,10H0.8V2.6h30.5V10z M2.3,8.5h27.5V4.1H2.3V8.5z"/>
	</g>
	<g>
		<g>
			<defs>
				<line id="SVGID_13_" x1="18.6" y1="6.3" x2="19.9" y2="6.3"/>
			</defs>
			<clipPath id="SVGID_6_">
				<use xlink:href="#SVGID_13_"  overflow="visible"/>
			</clipPath>
			<g clip-path="url(#SVGID_6_)">
				<rect x="13.9" y="-6.3" fill="none" width="24.1" height="24.1"/>
				<rect x="13.9" y="-6.3" fill="#FEE99B" width="24.1" height="24.1"/>
			</g>
		</g>
		<rect x="18.6" y="5.6" fill="#DA8C8C" width="1.3" height="1.5"/>
	</g>
	<g>
		<g>
			<defs>
				<line id="SVGID_15_" x1="22.2" y1="6.3" x2="23.5" y2="6.3"/>
			</defs>
			<clipPath id="SVGID_8_">
				<use xlink:href="#SVGID_15_"  overflow="visible"/>
			</clipPath>
			<g clip-path="url(#SVGID_8_)">
				<rect x="13.9" y="-6.3" fill="none" width="24.1" height="24.1"/>
				<rect x="13.9" y="-6.3" fill="#FEE99B" width="24.1" height="24.1"/>
			</g>
		</g>
		<rect x="22.2" y="5.6" fill="#DA8C8C" width="1.3" height="1.5"/>
	</g>
	<g>
		<g>
			<defs>
				<line id="SVGID_17_" x1="25.7" y1="6.3" x2="27" y2="6.3"/>
			</defs>
			<clipPath id="SVGID_10_">
				<use xlink:href="#SVGID_17_"  overflow="visible"/>
			</clipPath>
			<g clip-path="url(#SVGID_10_)">
				<rect x="13.9" y="-6.3" fill="none" width="24.1" height="24.1"/>
				<rect x="13.9" y="-6.3" fill="#FEE99B" width="24.1" height="24.1"/>
			</g>
		</g>
		<rect x="25.7" y="5.6" fill="#DA8C8C" width="1.3" height="1.5"/>
	</g>
</g>
</svg>
