<?xml version="1.0" encoding="utf-8"?>
<!-- Generator: Adobe Illustrator 18.0.0, SVG Export Plug-In . SVG Version: 6.00 Build 0)  -->
<!DOCTYPE svg PUBLIC "-//W3C//DTD SVG 1.1//EN" "http://www.w3.org/Graphics/SVG/1.1/DTD/svg11.dtd">
<svg version="1.1" id="Layer_1" xmlns="http://www.w3.org/2000/svg" xmlns:xlink="http://www.w3.org/1999/xlink" x="0px" y="0px"
	 viewBox="0 0 32 32" enable-background="new 0 0 32 32" xml:space="preserve">
<g>
	<g>
		<polygon fill="#FAC2C3" points="30.5,1.5 1.5,1.5 1.5,6.3 1.5,8.3 30.5,8.3 		"/>
		<path fill="#DA8C8C" d="M31.3,9H0.8V0.7h30.5V9z M2.3,7.5h27.5V2.2H2.3V7.5z"/>
	</g>
	<g>
		<path fill="#DA8C8C" d="M31.3,31.2H0.8V7.5h30.5V31.2z M2.3,29.7h27.5V9H2.3V29.7z"/>
	</g>
	<g>
		<rect x="22.5" y="3.9" fill="#DA8C8C" width="1.5" height="1.7"/>
	</g>
	<g>
		<rect x="25.8" y="3.9" fill="#DA8C8C" width="1.5" height="1.7"/>
	</g>
	<g>
		<rect x="5.5" y="12.3" fill="#F0F7F7" width="21" height="4.1"/>
		<path fill="#8F9BA8" d="M27.3,17.1H4.8v-5.6h22.5V17.1z M6.3,15.6h19.5V13H6.3V15.6z"/>
	</g>
	<g>
		<rect x="5.5" y="16.4" fill="#F0F7F7" width="10.5" height="10.1"/>
		<path fill="#8F9BA8" d="M16.7,27.2h-12V15.6h12L16.7,27.2z M6.3,25.7h9l0-8.6h-9V25.7z"/>
	</g>
	<g>
		<rect x="16" y="16.4" fill="#F0F7F7" width="10.5" height="10.1"/>
		<path fill="#8F9BA8" d="M27.3,27.2h-12l0-11.6h12V27.2z M16.7,25.7h9v-8.6h-9L16.7,25.7z"/>
	</g>
</g>
</svg>
