<?xml version="1.0" encoding="utf-8"?>
<!-- Generator: Adobe Illustrator 18.0.0, SVG Export Plug-In . SVG Version: 6.00 Build 0)  -->
<!DOCTYPE svg PUBLIC "-//W3C//DTD SVG 1.1//EN" "http://www.w3.org/Graphics/SVG/1.1/DTD/svg11.dtd">
<svg version="1.1" id="Layer_1" xmlns="http://www.w3.org/2000/svg" xmlns:xlink="http://www.w3.org/1999/xlink" x="0px" y="0px"
	 viewBox="0 0 32 32" enable-background="new 0 0 32 32" xml:space="preserve">
<g>
	<g>
		<path fill="#8F9BA8" d="M31.3,30.9H0.8v-22h30.5V30.9z M2.3,29.4h27.5v-19H2.3V29.4z"/>
	</g>
	<g>
		<path fill="#8F9BA8" d="M31.3,10.4H0.8V2.9h30.5V10.4z M2.3,8.9h27.5V4.4H2.3V8.9z"/>
	</g>
	<g>
		<path fill="#79C693" d="M20.7,26.9h-9.4c-0.4,0-0.8-0.3-0.8-0.8v-5H8.9c-0.3,0-0.6-0.2-0.7-0.5c-0.1-0.3,0-0.6,0.2-0.8l7.1-6.7
			c0.3-0.3,0.7-0.3,1,0l7.1,6.7c0.2,0.2,0.3,0.5,0.2,0.8c-0.1,0.3-0.4,0.5-0.7,0.5h-1.7v5C21.5,26.5,21.1,26.9,20.7,26.9z M12,25.4
			H20v-5c0-0.4,0.3-0.8,0.8-0.8h0.5L16,14.7l-5.2,4.9h0.5c0.4,0,0.8,0.3,0.8,0.8V25.4z"/>
	</g>
	<g>
		<rect x="19.9" y="14.6" fill="#79C693" width="1.5" height="3.3"/>
	</g>
	<g>
		<rect x="24.9" y="1.1" fill="#8F9BA8" width="1.5" height="5"/>
	</g>
	<g>
		<rect x="18.5" y="1.1" fill="#8F9BA8" width="1.5" height="5"/>
	</g>
	<g>
		<rect x="12" y="1.1" fill="#8F9BA8" width="1.5" height="5"/>
	</g>
	<g>
		<rect x="5.6" y="1.1" fill="#8F9BA8" width="1.5" height="5"/>
	</g>
</g>
</svg>
