<?xml version="1.0" encoding="utf-8"?>
<!-- Generator: Adobe Illustrator 18.0.0, SVG Export Plug-In . SVG Version: 6.00 Build 0)  -->
<!DOCTYPE svg PUBLIC "-//W3C//DTD SVG 1.1//EN" "http://www.w3.org/Graphics/SVG/1.1/DTD/svg11.dtd">
<svg version="1.1" id="Layer_1" xmlns="http://www.w3.org/2000/svg" xmlns:xlink="http://www.w3.org/1999/xlink" x="0px" y="0px"
	 viewBox="0 0 32 32" enable-background="new 0 0 32 32" xml:space="preserve">
<g>
	<g>
		<path fill="#74B1E0" d="M27.1,31.2H4.9V0.7h22.2V31.2z M6.4,29.7h19.2V2.2H6.4V29.7z"/>
	</g>
	<g>
		<rect x="9.1" y="4.5" fill="#CDE4F7" width="13.9" height="4.4"/>
		<path fill="#74B1E0" d="M23.7,9.6H8.3V3.7h15.4V9.6z M9.8,8.1h12.4V5.2H9.8V8.1z"/>
	</g>
	<g>
		<rect x="9.2" y="26.3" fill="#74B1E0" width="1.6" height="1.5"/>
	</g>
	<g>
		<rect x="13.2" y="26.3" fill="#74B1E0" width="1.6" height="1.5"/>
	</g>
	<g>
		<rect x="17.2" y="26.3" fill="#74B1E0" width="1.6" height="1.5"/>
	</g>
	<g>
		<rect x="21.2" y="26.3" fill="#74B1E0" width="1.6" height="1.5"/>
	</g>
	<g>
		<rect x="9.2" y="21.5" fill="#74B1E0" width="1.6" height="1.5"/>
	</g>
	<g>
		<rect x="13.2" y="21.5" fill="#74B1E0" width="1.6" height="1.5"/>
	</g>
	<g>
		<rect x="17.2" y="21.5" fill="#74B1E0" width="1.6" height="1.5"/>
	</g>
	<g>
		<rect x="21.2" y="21.5" fill="#74B1E0" width="1.6" height="1.5"/>
	</g>
	<g>
		<rect x="9.2" y="16.7" fill="#74B1E0" width="1.6" height="1.5"/>
	</g>
	<g>
		<rect x="13.2" y="16.7" fill="#74B1E0" width="1.6" height="1.5"/>
	</g>
	<g>
		<rect x="17.2" y="16.7" fill="#74B1E0" width="1.6" height="1.5"/>
	</g>
	<g>
		<rect x="21.2" y="16.7" fill="#74B1E0" width="1.6" height="1.5"/>
	</g>
	<g>
		<rect x="9.2" y="12" fill="#74B1E0" width="1.6" height="1.5"/>
	</g>
	<g>
		<rect x="13.2" y="12" fill="#74B1E0" width="1.6" height="1.5"/>
	</g>
	<g>
		<rect x="17.2" y="12" fill="#74B1E0" width="1.6" height="1.5"/>
	</g>
	<g>
		<rect x="21.2" y="12" fill="#74B1E0" width="1.6" height="1.5"/>
	</g>
</g>
</svg>
