<?xml version="1.0" encoding="utf-8"?>
<!-- Generator: Adobe Illustrator 18.0.0, SVG Export Plug-In . SVG Version: 6.00 Build 0)  -->
<!DOCTYPE svg PUBLIC "-//W3C//DTD SVG 1.1//EN" "http://www.w3.org/Graphics/SVG/1.1/DTD/svg11.dtd">
<svg version="1.1" id="Layer_1" xmlns="http://www.w3.org/2000/svg" xmlns:xlink="http://www.w3.org/1999/xlink" x="0px" y="0px"
	 viewBox="0 0 32 32" enable-background="new 0 0 32 32" xml:space="preserve">
<g>
	<g>
		<rect x="1.5" y="1.5" fill="#F0F7F7" width="29" height="7.7"/>
		<path fill="#8F9BA8" d="M31.3,9.9H0.8V0.7h30.5V9.9z M2.3,8.4h27.5V2.2H2.3V8.4z"/>
	</g>
	<g>
		<path fill="#8F9BA8" d="M31.3,31.2H0.8V8.4h30.5V31.2z M2.3,29.7h27.5V9.9H2.3V29.7z"/>
	</g>
	<g>
		<line fill="#F0F7F7" x1="22.7" y1="4.5" x2="22.7" y2="6.2"/>
		<rect x="22" y="4.5" fill="#8F9BA8" width="1.5" height="1.7"/>
	</g>
	<g>
		<line fill="#F0F7F7" x1="26.7" y1="4.5" x2="26.7" y2="6.2"/>
		<rect x="25.9" y="4.5" fill="#8F9BA8" width="1.5" height="1.7"/>
	</g>
	<g>
		<line fill="#F0F7F7" x1="9.2" y1="5.3" x2="4.8" y2="5.3"/>
		<rect x="4.8" y="4.6" fill="#8F9BA8" width="4.4" height="1.5"/>
	</g>
	<g>
		<rect x="15.3" y="12.2" fill="#B4A79C" width="1.5" height="14"/>
	</g>
	<g>
		<polygon fill="#B4A79C" points="23.4,23.6 16,20.3 8.6,23.6 8,22.2 16,18.7 24,22.2 		"/>
	</g>
	<g>
		<polygon fill="#B4A79C" points="18.9,28.5 16,27.4 13.1,28.5 12.6,27.2 16,25.8 19.4,27.2 		"/>
	</g>
</g>
</svg>
