<?xml version="1.0" encoding="utf-8"?>
<!-- Generator: Adobe Illustrator 18.0.0, SVG Export Plug-In . SVG Version: 6.00 Build 0)  -->
<!DOCTYPE svg PUBLIC "-//W3C//DTD SVG 1.1//EN" "http://www.w3.org/Graphics/SVG/1.1/DTD/svg11.dtd">
<svg version="1.1" id="Layer_1" xmlns="http://www.w3.org/2000/svg" xmlns:xlink="http://www.w3.org/1999/xlink" x="0px" y="0px"
	 viewBox="0 0 32 32" enable-background="new 0 0 32 32" xml:space="preserve">
<g>
	<g>
		<path fill="#79C693" d="M29.3,24.3H2.7V13.1c0-1.8,1.5-3.3,3.3-3.3h19.9c1.8,0,3.3,1.5,3.3,3.3v11.2H29.3z M4.2,22.8h23.6v-9.7
			c0-1-0.8-1.8-1.8-1.8H6.1c-1,0-1.8,0.8-1.8,1.8v9.7H4.2z"/>
	</g>
	<g>
		<path fill="#79C693" d="M31.3,28.9H0.8v-6h30.5V28.9z M2.3,27.4h27.5v-3H2.3V27.4z"/>
	</g>
	<g>
		<rect x="25.8" y="28.1" fill="#79C693" width="1.5" height="2.6"/>
	</g>
	<g>
		<rect x="4.7" y="28.1" fill="#79C693" width="1.5" height="2.6"/>
	</g>
	<g>
		<path fill="#79C693" d="M24,11.2H8l-0.2-0.5C7.7,10,7.4,9.4,7.2,8.9c-0.4-1-0.6-2.1-0.4-3.2c0.4-2.1,2-3.8,4.1-4.2
			c1.2-0.3,2.4-0.1,3.5,0.4c0.9,0.5,2.1,0.5,3.1,0c1.1-0.5,2.3-0.7,3.5-0.4c2.1,0.4,3.7,2.1,4.1,4.2c0.2,1.1,0.1,2.2-0.4,3.2
			c-0.2,0.6-0.5,1.2-0.6,1.8L24,11.2z M9.1,9.7h13.8c0.2-0.5,0.3-1,0.6-1.5c0.3-0.7,0.4-1.5,0.3-2.3c-0.3-1.5-1.5-2.7-2.9-3
			c-0.9-0.2-1.8-0.1-2.6,0.3c-1.3,0.7-3,0.7-4.4,0c-0.8-0.4-1.7-0.5-2.6-0.3c-1.5,0.3-2.7,1.5-3,3C8.2,6.7,8.2,7.5,8.6,8.3
			C8.8,8.7,9,9.2,9.1,9.7z"/>
	</g>
	<g>
		<rect x="19.7" y="14.3" fill="#79C693" width="4.8" height="1.5"/>
	</g>
	<g>
		<rect x="12.1" y="25.2" fill="#79C693" width="1.5" height="1.2"/>
	</g>
	<g>
		<rect x="15.3" y="25.2" fill="#79C693" width="1.5" height="1.2"/>
	</g>
	<g>
		<rect x="18.4" y="25.2" fill="#79C693" width="1.5" height="1.2"/>
	</g>
</g>
</svg>
