<?xml version="1.0" encoding="utf-8"?>
<!-- Generator: Adobe Illustrator 18.0.0, SVG Export Plug-In . SVG Version: 6.00 Build 0)  -->
<!DOCTYPE svg PUBLIC "-//W3C//DTD SVG 1.1//EN" "http://www.w3.org/Graphics/SVG/1.1/DTD/svg11.dtd">
<svg version="1.1" id="Layer_1" xmlns="http://www.w3.org/2000/svg" xmlns:xlink="http://www.w3.org/1999/xlink" x="0px" y="0px"
	 viewBox="0 0 32 32" enable-background="new 0 0 32 32" xml:space="preserve">
<g>
	<g>
		<path fill="#8F9BA8" d="M7.9,14.2c-0.3,0-0.5-0.1-0.6-0.4L2.5,6.1c-0.1-0.2-0.1-0.5,0-0.8c0.1-0.2,0.4-0.4,0.7-0.4h4.7
			c0.4,0,0.8,0.3,0.8,0.8v7.8c0,0.3-0.2,0.6-0.5,0.7C8,14.2,7.9,14.2,7.9,14.2z M4.5,6.4l2.6,4.3V6.4H4.5z"/>
	</g>
	<g>
		<path fill="#8F9BA8" d="M26.9,20.6h-2.4c-0.4,0-0.8-0.3-0.8-0.8V8.2c0-0.4,0.3-0.8,0.8-0.8h2.4c1.5,0,2.7,1.2,2.7,2.7V18
			C29.6,19.4,28.4,20.6,26.9,20.6z M25.2,19.1h1.7c0.6,0,1.2-0.5,1.2-1.2v-7.9c0-0.6-0.5-1.2-1.2-1.2h-1.7V19.1z"/>
	</g>
	<g>
		<path fill="#B4A79C" d="M25.2,26.4H7.1V3.8c0-1.7,1.4-3,3-3h12.1c1.7,0,3,1.4,3,3V26.4z M8.6,24.9h15.1V3.8c0-0.8-0.7-1.5-1.5-1.5
			H10.1c-0.8,0-1.5,0.7-1.5,1.5V24.9z"/>
	</g>
	<g>
		<rect x="6.2" y="25.7" fill="#F9F8F2" width="20" height="4.8"/>
		<path fill="#B4A79C" d="M26.9,31.2H5.4v-6.3h21.5V31.2z M6.9,29.7h18.5v-3.3H6.9V29.7z"/>
	</g>
	<g>
		<rect x="7.9" y="4.9" fill="#B4A79C" width="16.6" height="1.5"/>
	</g>
	<g>
		<rect x="14" y="27.3" fill="#B4A79C" width="4.4" height="1.5"/>
	</g>
	<g>
		<rect x="11" y="8" fill="#8F9BA8" width="1.4" height="1.5"/>
	</g>
	<g>
		<rect x="11" y="11" fill="#8F9BA8" width="1.4" height="1.5"/>
	</g>
	<g>
		<rect x="11" y="13.9" fill="#8F9BA8" width="1.4" height="1.5"/>
	</g>
	<g>
		<rect x="11" y="16.9" fill="#8F9BA8" width="1.4" height="1.5"/>
	</g>
	<g>
		<rect x="11" y="19.8" fill="#8F9BA8" width="1.4" height="1.5"/>
	</g>
</g>
</svg>
