<?xml version="1.0" encoding="utf-8"?>
<!-- Generator: Adobe Illustrator 18.0.0, SVG Export Plug-In . SVG Version: 6.00 Build 0)  -->
<!DOCTYPE svg PUBLIC "-//W3C//DTD SVG 1.1//EN" "http://www.w3.org/Graphics/SVG/1.1/DTD/svg11.dtd">
<svg version="1.1" id="Layer_1" xmlns="http://www.w3.org/2000/svg" xmlns:xlink="http://www.w3.org/1999/xlink" x="0px" y="0px"
	 viewBox="0 0 32 32" enable-background="new 0 0 32 32" xml:space="preserve">
<g>
	<g>
		<rect x="3.3" y="1.5" fill="#F0F7F7" width="25.3" height="6.4"/>
		<path fill="#8F9BA8" d="M29.4,8.6H2.6V0.7h26.8V8.6z M4.1,7.1h23.8V2.2H4.1V7.1z"/>
	</g>
	<g>
		<path fill="#8F9BA8" d="M29.4,31.2H2.6V7.1h26.8V31.2z M4.1,29.7h23.8V8.6H4.1V29.7z"/>
	</g>
	<g>
		<circle fill="#CDE4F7" cx="16" cy="19.2" r="6.7"/>
		<path fill="#74B1E0" d="M16,26.6c-4.1,0-7.4-3.3-7.4-7.4c0-4.1,3.3-7.4,7.4-7.4c4.1,0,7.4,3.3,7.4,7.4
			C23.4,23.3,20.1,26.6,16,26.6z M16,13.3c-3.3,0-5.9,2.6-5.9,5.9c0,3.3,2.6,5.9,5.9,5.9c3.3,0,5.9-2.6,5.9-5.9
			C21.9,15.9,19.3,13.3,16,13.3z"/>
	</g>
	<g>
		<line fill="#F0F7F7" x1="6.9" y1="4.1" x2="6.9" y2="5.3"/>
		<rect x="6.1" y="4.1" fill="#8F9BA8" width="1.5" height="1.2"/>
	</g>
	<g>
		<line fill="#F0F7F7" x1="9.9" y1="4.1" x2="9.9" y2="5.3"/>
		<rect x="9.1" y="4.1" fill="#8F9BA8" width="1.5" height="1.2"/>
	</g>
	<g>
		<line fill="#F0F7F7" x1="12.9" y1="4.1" x2="12.9" y2="5.3"/>
		<rect x="12.1" y="4.1" fill="#8F9BA8" width="1.5" height="1.2"/>
	</g>
</g>
</svg>
