<?xml version="1.0" encoding="utf-8"?>
<!-- Generator: Adobe Illustrator 18.0.0, SVG Export Plug-In . SVG Version: 6.00 Build 0)  -->
<!DOCTYPE svg PUBLIC "-//W3C//DTD SVG 1.1//EN" "http://www.w3.org/Graphics/SVG/1.1/DTD/svg11.dtd">
<svg version="1.1" id="Layer_1" xmlns="http://www.w3.org/2000/svg" xmlns:xlink="http://www.w3.org/1999/xlink" x="0px" y="0px"
	 viewBox="0 0 32 32" enable-background="new 0 0 32 32" xml:space="preserve">
<g>
	<g>
		<path fill="#79C693" d="M31.3,23.7H0.8V2.6h30.5V23.7z M2.3,22.2h27.5V4.1H2.3V22.2z"/>
	</g>
	<g>
		<path fill="#79C693" d="M22.6,29.4H9.4l1.4-7.2h10.6L22.6,29.4z M11.2,27.9h9.7L20,23.7H12L11.2,27.9z"/>
	</g>
	<g>
		<line fill="#F0F7F7" x1="6.7" y1="28.6" x2="25.3" y2="28.6"/>
		<rect x="6.7" y="27.9" fill="#79C693" width="18.5" height="1.5"/>
	</g>
	<g>
		<circle fill="#FAC2C3" cx="16" cy="13.1" r="4.7"/>
		<path fill="#DA8C8C" d="M16,18.6c-3,0-5.4-2.4-5.4-5.4S13,7.7,16,7.7s5.4,2.4,5.4,5.4S19,18.6,16,18.6z M16,9.2
			c-2.2,0-3.9,1.8-3.9,3.9c0,2.2,1.8,3.9,3.9,3.9c2.2,0,3.9-1.8,3.9-3.9C19.9,11,18.2,9.2,16,9.2z"/>
	</g>
	<g>
		<rect x="15.2" y="17.8" fill="#DA8C8C" width="1.5" height="2.2"/>
	</g>
	<g>
		<rect x="15.2" y="6.3" fill="#DA8C8C" width="1.5" height="2.2"/>
	</g>
	<g>
		<rect x="9.2" y="12.4" fill="#DA8C8C" width="2.2" height="1.5"/>
	</g>
	<g>
		<rect x="20.7" y="12.4" fill="#DA8C8C" width="2.2" height="1.5"/>
	</g>
	<g>
		
			<rect x="11.2" y="16.1" transform="matrix(0.7071 0.7071 -0.7071 0.7071 15.6578 -3.4054)" fill="#DA8C8C" width="1.5" height="2.2"/>
	</g>
	<g>
		
			<rect x="19.3" y="8" transform="matrix(0.7071 0.7071 -0.7071 0.7071 12.2973 -11.5208)" fill="#DA8C8C" width="1.5" height="2.2"/>
	</g>
	<g>
		
			<rect x="10.9" y="8.3" transform="matrix(0.7071 0.7071 -0.7071 0.7071 9.9257 -5.7822)" fill="#DA8C8C" width="2.2" height="1.5"/>
	</g>
	<g>
		
			<rect x="19" y="16.4" transform="matrix(0.7071 0.7071 -0.7071 0.7071 18.0353 -9.1438)" fill="#DA8C8C" width="2.2" height="1.5"/>
	</g>
	<g>
		<circle fill="#FFFFFF" cx="16" cy="13.1" r="1.8"/>
		<path fill="#DA8C8C" d="M16,15.7c-1.4,0-2.6-1.2-2.6-2.6c0-1.4,1.2-2.6,2.6-2.6c1.4,0,2.6,1.2,2.6,2.6
			C18.6,14.6,17.4,15.7,16,15.7z M16,12.1c-0.6,0-1.1,0.5-1.1,1.1c0,0.6,0.5,1.1,1.1,1.1c0.6,0,1.1-0.5,1.1-1.1
			C17.1,12.6,16.6,12.1,16,12.1z"/>
	</g>
</g>
</svg>
