<?xml version="1.0" encoding="utf-8"?>
<!-- Generator: Adobe Illustrator 18.0.0, SVG Export Plug-In . SVG Version: 6.00 Build 0)  -->
<!DOCTYPE svg PUBLIC "-//W3C//DTD SVG 1.1//EN" "http://www.w3.org/Graphics/SVG/1.1/DTD/svg11.dtd">
<svg version="1.1" id="Layer_1" xmlns="http://www.w3.org/2000/svg" xmlns:xlink="http://www.w3.org/1999/xlink" x="0px" y="0px"
	 viewBox="0 0 32 32" enable-background="new 0 0 32 32" xml:space="preserve">
<g>
	<g>
		<path fill="#DA8C8C" d="M31.3,29.4H0.8V8.5h30.5V29.4z M2.3,27.9h27.5V10H2.3V27.9z"/>
	</g>
	<g>
		<path fill="#74B1E0" d="M23.1,19.3H8.9l7.1-7.5L23.1,19.3z M12.4,17.8h7.2L16,14L12.4,17.8z"/>
	</g>
	<g>
		<path fill="#74B1E0" d="M20.7,25.7h-9.4v-7.9h9.4V25.7z M12.8,24.2h6.4v-4.9h-6.4C12.8,19.3,12.8,24.2,12.8,24.2z"/>
	</g>
	<g>
		<rect x="19.2" y="13.7" fill="#74B1E0" width="1.5" height="3.5"/>
	</g>
	<g>
		<rect x="1.5" y="3.4" fill="#FAC2C3" width="29" height="5.9"/>
		<path fill="#DA8C8C" d="M31.3,10H0.8V2.6h30.5V10z M2.3,8.5h27.5V4.1H2.3V8.5z"/>
	</g>
	<g>
		<line fill="none" x1="18.6" y1="6.3" x2="19.9" y2="6.3"/>
		<rect x="18.6" y="5.6" fill="#CF817F" width="1.3" height="1.5"/>
	</g>
	<g>
		<line fill="none" x1="22.2" y1="6.3" x2="23.5" y2="6.3"/>
		<rect x="22.2" y="5.6" fill="#CF817F" width="1.3" height="1.5"/>
	</g>
	<g>
		<line fill="none" x1="25.7" y1="6.3" x2="27" y2="6.3"/>
		<rect x="25.7" y="5.6" fill="#CF817F" width="1.3" height="1.5"/>
	</g>
</g>
</svg>
