<?xml version="1.0" encoding="utf-8"?>
<!-- Generator: Adobe Illustrator 18.0.0, SVG Export Plug-In . SVG Version: 6.00 Build 0)  -->
<!DOCTYPE svg PUBLIC "-//W3C//DTD SVG 1.1//EN" "http://www.w3.org/Graphics/SVG/1.1/DTD/svg11.dtd">
<svg version="1.1" id="Layer_1" xmlns="http://www.w3.org/2000/svg" xmlns:xlink="http://www.w3.org/1999/xlink" x="0px" y="0px"
	 viewBox="0 0 32 32" enable-background="new 0 0 32 32" xml:space="preserve">
<g>
	<g>
		<polygon fill="#F0F7F7" points="30.5,4.6 1.5,4.6 1.5,8.4 1.5,9.9 30.5,9.9 		"/>
		<path fill="#8F9BA8" d="M31.3,10.7H0.8V3.8h30.5V10.7z M2.3,9.2h27.5V5.3H2.3V9.2z"/>
	</g>
	<g>
		<path fill="#8F9BA8" d="M31.3,28.2H0.8v-19h30.5V28.2z M2.3,26.7h27.5v-16H2.3V26.7z"/>
	</g>
	<g>
		<rect x="5.8" y="14.7" fill="#F9F8F2" width="6.7" height="7.3"/>
		<path fill="#B4A79C" d="M13.3,22.7H5.1v-8.8h8.2C13.3,13.9,13.3,22.7,13.3,22.7z M6.6,21.2h5.2v-5.8H6.6V21.2z"/>
	</g>
	<g>
		<line fill="none" x1="17.7" y1="14.7" x2="26.2" y2="14.7"/>
		<rect x="17.7" y="13.9" fill="#B4A79C" width="8.5" height="1.5"/>
	</g>
	<g>
		<line fill="none" x1="17.7" y1="18.9" x2="26.2" y2="18.9"/>
		<rect x="17.7" y="18.2" fill="#B4A79C" width="8.5" height="1.5"/>
	</g>
	<g>
		<line fill="none" x1="17.7" y1="23.2" x2="23.9" y2="23.2"/>
		<rect x="17.7" y="22.5" fill="#B4A79C" width="6.3" height="1.5"/>
	</g>
</g>
</svg>
