<?xml version="1.0" encoding="utf-8"?>
<!-- Generator: Adobe Illustrator 18.0.0, SVG Export Plug-In . SVG Version: 6.00 Build 0)  -->
<!DOCTYPE svg PUBLIC "-//W3C//DTD SVG 1.1//EN" "http://www.w3.org/Graphics/SVG/1.1/DTD/svg11.dtd">
<svg version="1.1" id="Layer_1" xmlns="http://www.w3.org/2000/svg" xmlns:xlink="http://www.w3.org/1999/xlink" x="0px" y="0px"
	 viewBox="0 0 32 32" enable-background="new 0 0 32 32" xml:space="preserve">
<g>
	<g>
		<rect x="10" y="6.1" fill="#8F9BA8" width="8.7" height="1.5"/>
	</g>
	<g>
		<rect x="10" y="10.9" fill="#8F9BA8" width="8.7" height="1.5"/>
	</g>
	<g>
		<path fill="#8F9BA8" d="M3.8,28.1c-0.4,0-0.8-0.3-0.8-0.8V5.7c0-2.7,2.2-5,5-5h16.6c0.4,0,0.8,0.3,0.8,0.8v14.3
			c0,0.2-0.1,0.5-0.3,0.6c-0.2,0.1-0.5,0.2-0.7,0.1c-0.5-0.2-1.1-0.3-1.6-0.3c-2.6,0-4.6,2.1-4.6,4.6c0,1,0.3,2,1,2.8
			c0.2,0.2,0.2,0.5,0.1,0.8s-0.4,0.4-0.7,0.4H7c-1.3,0-2.4,1.1-2.4,2.4C4.6,27.7,4.2,28.1,3.8,28.1z M8,2.2c-1.9,0-3.5,1.6-3.5,3.5
			v18.5c0.7-0.5,1.5-0.9,2.4-0.9h10.2c-0.4-0.8-0.6-1.7-0.6-2.5c0-3.4,2.8-6.1,6.1-6.1c0.4,0,0.7,0,1.1,0.1V2.2H8z"/>
	</g>
	<g>
		<path fill="#8F9BA8" d="M24.6,31.2H7c-2.2,0-3.9-1.8-3.9-3.9s1.8-3.9,3.9-3.9h11.5c0.2,0,0.5,0.1,0.6,0.3c0.9,1.2,2.2,1.8,3.7,1.8
			c0.5,0,1-0.1,1.6-0.3c0.2-0.1,0.5,0,0.7,0.1s0.3,0.4,0.3,0.6v4.6C25.3,30.9,25,31.2,24.6,31.2z M7,24.9c-1.3,0-2.4,1.1-2.4,2.4
			s1.1,2.4,2.4,2.4h16.8v-2.9c-2.1,0.4-4.3-0.4-5.7-2H7V24.9z"/>
	</g>
	<g>
		<path fill="#FAC2C3" d="M24.6,15.8c-0.6-0.2-1.2-0.3-1.8-0.3c-3,0-5.4,2.4-5.4,5.4c0,1.2,0.4,2.4,1.1,3.3c1,1.3,2.5,2.1,4.3,2.1
			c0.6,0,1.2-0.1,1.8-0.3c2.1-0.7,3.6-2.7,3.6-5.1C28.2,18.5,26.7,16.5,24.6,15.8z"/>
		<path fill="#DA8C8C" d="M22.8,27c-1.9,0-3.7-0.9-4.8-2.4c-0.8-1.1-1.3-2.4-1.3-3.7c0-3.4,2.8-6.1,6.1-6.1c0.7,0,1.3,0.1,2.1,0.4
			c2.4,0.9,4.1,3.2,4.1,5.8s-1.6,4.9-4.1,5.8C24.1,26.8,23.5,27,22.8,27z M22.8,16.2c-2.6,0-4.6,2.1-4.6,4.6c0,1,0.3,2,1,2.8
			c0.9,1.2,2.2,1.8,3.7,1.8c0.5,0,1-0.1,1.6-0.3c1.9-0.7,3.1-2.4,3.1-4.4s-1.2-3.7-3.1-4.4C23.8,16.3,23.3,16.2,22.8,16.2z"/>
	</g>
	<g>
		<line fill="none" x1="22.8" y1="17.7" x2="22.8" y2="23.9"/>
		<rect x="22" y="17.7" fill="#DA8C8C" width="1.5" height="6.2"/>
	</g>
	<g>
		<line fill="none" x1="25.9" y1="20.8" x2="19.7" y2="20.8"/>
		<rect x="19.7" y="20.1" fill="#DA8C8C" width="6.2" height="1.5"/>
	</g>
</g>
</svg>
