<?xml version="1.0" encoding="utf-8"?>
<!-- Generator: Adobe Illustrator 18.0.0, SVG Export Plug-In . SVG Version: 6.00 Build 0)  -->
<!DOCTYPE svg PUBLIC "-//W3C//DTD SVG 1.1//EN" "http://www.w3.org/Graphics/SVG/1.1/DTD/svg11.dtd">
<svg version="1.1" id="Layer_1" xmlns="http://www.w3.org/2000/svg" xmlns:xlink="http://www.w3.org/1999/xlink" x="0px" y="0px"
	 viewBox="0 0 32 32" enable-background="new 0 0 32 32" xml:space="preserve">
<g>
	<g>
		<path fill="#8F9BA8" d="M6.4,27.3H4.9V5.7c0-2.7,2.2-5,5-5h16.6c0.4,0,0.8,0.3,0.8,0.8v22.6h-1.5V2.2H9.8c-1.9,0-3.5,1.6-3.5,3.5
			V27.3z"/>
	</g>
	<g>
		<path fill="#F0F7F7" d="M26.4,24.1H8.8c-1.8,0-3.2,1.4-3.2,3.2l0,0c0,1.8,1.4,3.2,3.2,3.2h17.6V24.1z"/>
		<path fill="#8F9BA8" d="M26.4,31.2H8.8c-2.2,0-3.9-1.8-3.9-3.9s1.8-3.9,3.9-3.9h17.6c0.4,0,0.8,0.3,0.8,0.8v6.4
			C27.1,30.9,26.8,31.2,26.4,31.2z M8.8,24.9c-1.3,0-2.4,1.1-2.4,2.4c0,1.3,1.1,2.4,2.4,2.4h16.8v-4.9H8.8z"/>
	</g>
	<g>
		<rect x="11.8" y="6.1" fill="#8F9BA8" width="8.7" height="1.5"/>
	</g>
	<g>
		<rect x="11.8" y="10.9" fill="#8F9BA8" width="8.7" height="1.5"/>
	</g>
</g>
</svg>
