<?xml version="1.0" encoding="utf-8"?>
<!-- Generator: Adobe Illustrator 18.0.0, SVG Export Plug-In . SVG Version: 6.00 Build 0)  -->
<!DOCTYPE svg PUBLIC "-//W3C//DTD SVG 1.1//EN" "http://www.w3.org/Graphics/SVG/1.1/DTD/svg11.dtd">
<svg version="1.1" id="Layer_1" xmlns="http://www.w3.org/2000/svg" xmlns:xlink="http://www.w3.org/1999/xlink" x="0px" y="0px"
	 viewBox="0 0 32 32" enable-background="new 0 0 32 32" xml:space="preserve">
<g>
	<g>
		<path fill="#F0F7F7" d="M22.7,17.8c-0.8,0-1.5-0.2-2.1-0.6v5l2.1-0.9l2.1,0.9v-5C24.2,17.6,23.5,17.8,22.7,17.8z"/>
		<path fill="#8F9BA8" d="M25.5,23.3l-2.8-1.2l-2.8,1.2v-7.5l1.1,0.7c1,0.6,2.4,0.6,3.4,0l1.1-0.7C25.5,15.8,25.5,23.3,25.5,23.3z
			 M22.7,20.5L24,21v-2.7c-0.9,0.3-1.8,0.3-2.7,0V21L22.7,20.5z"/>
	</g>
	<g>
		<path fill="#F0F7F7" d="M22.7,9.8c-2.2,0-4,1.8-4,4c0,1.4,0.8,2.7,1.9,3.4c0.6,0.4,1.3,0.6,2.1,0.6c0.8,0,1.5-0.2,2.1-0.6
			c1.1-0.7,1.9-2,1.9-3.4C26.7,11.6,24.9,9.8,22.7,9.8z"/>
		<path fill="#8F9BA8" d="M22.7,18.5c-0.9,0-1.7-0.2-2.5-0.7c-1.4-0.9-2.3-2.4-2.3-4c0-2.6,2.1-4.7,4.7-4.7s4.7,2.1,4.7,4.7
			c0,1.6-0.8,3.2-2.2,4C24.4,18.3,23.6,18.5,22.7,18.5z M22.7,10.6c-1.8,0-3.2,1.4-3.2,3.2c0,1.1,0.6,2.2,1.5,2.7
			c1,0.6,2.4,0.6,3.4,0s1.5-1.6,1.5-2.7C25.9,12,24.5,10.6,22.7,10.6z"/>
	</g>
	<g>
		<path fill="#79C693" d="M28.7,26.7H3.3c-1.4,0-2.5-1.1-2.5-2.5V7.8c0-1.4,1.1-2.5,2.5-2.5h25.5c1.4,0,2.5,1.1,2.5,2.5v16.5
			C31.3,25.6,30.1,26.7,28.7,26.7z M3.3,6.8c-0.6,0-1,0.5-1,1v16.5c0,0.6,0.5,1,1,1h25.5c0.6,0,1-0.5,1-1V7.8c0-0.6-0.5-1-1-1H3.3z"
			/>
	</g>
	<g>
		<rect x="5" y="9.3" fill="#8F9BA8" width="10.8" height="1.5"/>
	</g>
	<g>
		<rect x="5" y="13.3" fill="#8F9BA8" width="10.8" height="1.5"/>
	</g>
	<g>
		<rect x="5" y="17.2" fill="#8F9BA8" width="10.8" height="1.5"/>
	</g>
	<g>
		<rect x="5" y="21.2" fill="#8F9BA8" width="10.8" height="1.5"/>
	</g>
</g>
</svg>
