<?xml version="1.0" encoding="utf-8"?>
<!-- Generator: Adobe Illustrator 18.0.0, SVG Export Plug-In . SVG Version: 6.00 Build 0)  -->
<!DOCTYPE svg PUBLIC "-//W3C//DTD SVG 1.1//EN" "http://www.w3.org/Graphics/SVG/1.1/DTD/svg11.dtd">
<svg version="1.1" id="Layer_1" xmlns="http://www.w3.org/2000/svg" xmlns:xlink="http://www.w3.org/1999/xlink" x="0px" y="0px"
	 viewBox="0 0 32 32" enable-background="new 0 0 32 32" xml:space="preserve">
<g>
	<g>
		<path fill="#8F9BA8" d="M28.7,26.7H3.3c-1.4,0-2.5-1.1-2.5-2.5V7.8c0-1.4,1.1-2.5,2.5-2.5h25.5c1.4,0,2.5,1.1,2.5,2.5v16.5
			C31.3,25.6,30.1,26.7,28.7,26.7z M3.3,6.8c-0.6,0-1,0.5-1,1v16.5c0,0.6,0.5,1,1,1h25.5c0.6,0,1-0.5,1-1V7.8c0-0.6-0.5-1-1-1H3.3z"
			/>
	</g>
	<g>
		<rect x="4.5" y="9" fill="#F9F8F2" width="23" height="14"/>
		<path fill="#B4A79C" d="M27.5,23.7h-23c-0.4,0-0.8-0.3-0.8-0.8V9c0-0.4,0.3-0.8,0.8-0.8h23c0.4,0,0.8,0.3,0.8,0.8v14
			C28.3,23.4,27.9,23.7,27.5,23.7z M5.3,22.2h21.5V9.8H5.3V22.2z"/>
	</g>
</g>
</svg>
