<?xml version="1.0" encoding="utf-8"?>
<!-- Generator: Adobe Illustrator 18.0.0, SVG Export Plug-In . SVG Version: 6.00 Build 0)  -->
<!DOCTYPE svg PUBLIC "-//W3C//DTD SVG 1.1//EN" "http://www.w3.org/Graphics/SVG/1.1/DTD/svg11.dtd">
<svg version="1.1" id="Layer_1" xmlns="http://www.w3.org/2000/svg" xmlns:xlink="http://www.w3.org/1999/xlink" x="0px" y="0px"
	 viewBox="0 0 32 32" enable-background="new 0 0 32 32" xml:space="preserve">
<g>
	<g>
		<path fill="#8F9BA8" d="M30.2,9.7h-7.5C22.3,9.7,22,9.4,22,9V1.5c0-0.3,0.2-0.6,0.5-0.7c0.2-0.1,0.5,0,0.7,0.2l7.5,7.5
			C30.9,8.7,31,9,30.9,9.3C30.8,9.5,30.5,9.7,30.2,9.7z M23.5,8.2h4.9l-4.9-4.9V8.2z"/>
	</g>
	<g>
		<path fill="#8F9BA8" d="M30.2,31.3H8c-0.4,0-0.8-0.3-0.8-0.8v-5.8c0-0.3,0.2-0.6,0.5-0.7s0.6,0,0.9,0.2l2,1.9v-7.4
			c0-0.3,0.1-0.5,0.4-0.6c1.6-1,2.6-2.7,2.6-4.6C13.5,10.4,11,8,8,8C7.6,8,7.3,7.7,7.3,7.2V1.5c0-0.4,0.3-0.8,0.8-0.8h14.7
			c0.4,0,0.8,0.3,0.8,0.8v6.7h6.7c0.4,0,0.8,0.3,0.8,0.8v21.5C30.9,30.9,30.6,31.3,30.2,31.3z M8.8,29.8h20.7v-20h-6.7
			C22.3,9.7,22,9.4,22,9V2.3H8.8v4.3C12.3,7,15,9.9,15,13.5c0,2.3-1.1,4.4-3,5.7V28c0,0.3-0.2,0.6-0.5,0.7s-0.6,0.1-0.8-0.2l-2-1.9
			v3.2H8.8z"/>
	</g>
	<g>
		<path fill="#FAC2C3" d="M8,19.6c-1.2,0-2.3-0.3-3.3-0.9v9.2L8,24.7l3.3,3.2v-9.2C10.3,19.3,9.2,19.6,8,19.6z"/>
		<path fill="#DA8C8C" d="M11.3,28.6c-0.2,0-0.4-0.1-0.5-0.2L8,25.7l-2.7,2.7c-0.2,0.2-0.5,0.3-0.8,0.2C4.2,28.5,4,28.2,4,27.9v-9.2
			c0-0.3,0.1-0.5,0.4-0.7c0.2-0.1,0.5-0.1,0.8,0c1.7,1.1,4,1.1,5.7,0c0.2-0.1,0.5-0.1,0.8,0c0.2,0.1,0.4,0.4,0.4,0.7v9.2
			c0,0.3-0.2,0.6-0.5,0.7C11.5,28.6,11.4,28.6,11.3,28.6z M8,23.9c0.2,0,0.4,0.1,0.5,0.2l2,1.9v-6.2c-1.6,0.6-3.4,0.6-5,0V26l2-1.9
			C7.6,24,7.8,23.9,8,23.9z"/>
	</g>
	<g>
		<path fill="#FAC2C3" d="M8,7.2c-3.4,0-6.2,2.8-6.2,6.2c0,2.2,1.2,4.2,3,5.3c0.9,0.6,2.1,0.9,3.3,0.9s2.3-0.3,3.3-0.9
			c1.8-1.1,3-3,3-5.3C14.2,10,11.5,7.2,8,7.2z"/>
		<path fill="#DA8C8C" d="M8,20.4c-1.3,0-2.5-0.4-3.6-1c-2.1-1.3-3.3-3.5-3.3-5.9c0-3.8,3.1-7,7-7c3.8,0,7,3.1,7,7
			c0,2.4-1.2,4.6-3.3,5.9C10.6,20,9.3,20.4,8,20.4z M8,8c-3,0-5.5,2.4-5.5,5.5c0,1.9,1,3.6,2.6,4.6c1.7,1.1,4,1.1,5.7,0
			c1.6-1,2.6-2.7,2.6-4.6C13.5,10.4,11,8,8,8z"/>
	</g>
</g>
</svg>
