<?xml version="1.0" encoding="utf-8"?>
<!-- Generator: Adobe Illustrator 18.0.0, SVG Export Plug-In . SVG Version: 6.00 Build 0)  -->
<!DOCTYPE svg PUBLIC "-//W3C//DTD SVG 1.1//EN" "http://www.w3.org/Graphics/SVG/1.1/DTD/svg11.dtd">
<svg version="1.1" id="Layer_1" xmlns="http://www.w3.org/2000/svg" xmlns:xlink="http://www.w3.org/1999/xlink" x="0px" y="0px"
	 viewBox="0 0 32 32" enable-background="new 0 0 32 32" xml:space="preserve">
<g>
	<g>
		<polygon fill="#F9F8F2" points="30.5,9.5 16,1.5 1.5,9.5 		"/>
		<path fill="#B4A79C" d="M30.5,10.2h-29c-0.3,0-0.6-0.2-0.7-0.6C0.7,9.3,0.8,9,1.1,8.8l14.5-8c0.2-0.1,0.5-0.1,0.7,0l14.5,8
			c0.3,0.2,0.5,0.5,0.4,0.8C31.1,10,30.8,10.2,30.5,10.2z M4.4,8.7h23.2L16,2.4L4.4,8.7z"/>
	</g>
	<g>
		<rect x="24.5" y="11.4" fill="#B4A79C" width="2.8" height="1.5"/>
	</g>
	<g>
		<rect x="24.5" y="27.1" fill="#B4A79C" width="2.8" height="1.5"/>
	</g>
	<g>
		<rect x="25.1" y="12.2" fill="#B4A79C" width="1.5" height="15.6"/>
	</g>
	<g>
		<rect x="17.9" y="11.4" fill="#B4A79C" width="2.8" height="1.5"/>
	</g>
	<g>
		<rect x="17.9" y="27.1" fill="#B4A79C" width="2.8" height="1.5"/>
	</g>
	<g>
		<rect x="18.5" y="12.2" fill="#B4A79C" width="1.5" height="15.6"/>
	</g>
	<g>
		<rect x="11.3" y="11.4" fill="#B4A79C" width="2.8" height="1.5"/>
	</g>
	<g>
		<rect x="11.3" y="27.1" fill="#B4A79C" width="2.8" height="1.5"/>
	</g>
	<g>
		<rect x="12" y="12.2" fill="#B4A79C" width="1.5" height="15.6"/>
	</g>
	<g>
		<rect x="4.7" y="11.4" fill="#B4A79C" width="2.8" height="1.5"/>
	</g>
	<g>
		<rect x="4.7" y="27.1" fill="#B4A79C" width="2.8" height="1.5"/>
	</g>
	<g>
		<rect x="5.4" y="12.2" fill="#B4A79C" width="1.5" height="15.6"/>
	</g>
	<g>
		<rect x="1.5" y="29.7" fill="#B4A79C" width="29" height="1.5"/>
	</g>
	<g>
		<path fill="#B4A79C" d="M16,7.9c-1.1,0-1.9-0.9-1.9-1.9s0.9-2,1.9-2c1.1,0,2,0.9,2,2S17.1,7.9,16,7.9z M16,5.5
			c-0.2,0-0.4,0.2-0.4,0.5c0,0.2,0.2,0.4,0.4,0.4c0.2,0,0.5-0.2,0.5-0.4C16.5,5.7,16.2,5.5,16,5.5z"/>
	</g>
</g>
</svg>
