<?xml version="1.0" encoding="utf-8"?>
<!-- Generator: Adobe Illustrator 18.0.0, SVG Export Plug-In . SVG Version: 6.00 Build 0)  -->
<!DOCTYPE svg PUBLIC "-//W3C//DTD SVG 1.1//EN" "http://www.w3.org/Graphics/SVG/1.1/DTD/svg11.dtd">
<svg version="1.1" id="Layer_1" xmlns="http://www.w3.org/2000/svg" xmlns:xlink="http://www.w3.org/1999/xlink" x="0px" y="0px"
	 viewBox="0 0 32 32" enable-background="new 0 0 32 32" xml:space="preserve">
<g>
	<g>
		<path fill="#74B1E0" d="M16,31.2C7.6,31.2,0.8,24.4,0.8,16C0.8,7.6,7.6,0.7,16,0.7S31.3,7.6,31.3,16C31.3,24.4,24.4,31.2,16,31.2z
			 M16,2.2C8.4,2.2,2.3,8.4,2.3,16c0,7.6,6.2,13.7,13.8,13.7c7.6,0,13.8-6.2,13.8-13.7C29.8,8.4,23.6,2.2,16,2.2z"/>
	</g>
	<g>
		<rect x="15.3" y="3.1" fill="#74B1E0" width="1.5" height="2.1"/>
	</g>
	<g>
		<rect x="15.3" y="26.8" fill="#74B1E0" width="1.5" height="2.1"/>
	</g>
	<g>
		<rect x="26.8" y="15.3" fill="#74B1E0" width="2.1" height="1.5"/>
	</g>
	<g>
		<rect x="3.1" y="15.3" fill="#74B1E0" width="2.1" height="1.5"/>
	</g>
	<g>
		<polygon fill="#74B1E0" points="20.8,21.9 15.3,16.3 15.3,7.2 16.8,7.2 16.8,15.7 21.9,20.8 		"/>
	</g>
</g>
</svg>
