<?xml version="1.0" encoding="utf-8"?>
<!-- Generator: Adobe Illustrator 18.0.0, SVG Export Plug-In . SVG Version: 6.00 Build 0)  -->
<!DOCTYPE svg PUBLIC "-//W3C//DTD SVG 1.1//EN" "http://www.w3.org/Graphics/SVG/1.1/DTD/svg11.dtd">
<svg version="1.1" id="Layer_1" xmlns="http://www.w3.org/2000/svg" xmlns:xlink="http://www.w3.org/1999/xlink" x="0px" y="0px"
	 viewBox="0 0 32 32" enable-background="new 0 0 32 32" xml:space="preserve">
<g>
	<g>
		<path fill="#74B1E0" d="M16.9,27.1c-4.5,0-8.4-3.2-9.3-7.6l1.5-0.3c0.7,3.7,4,6.4,7.8,6.4c4.4,0,8-3.6,8-8c0-3.7-2.5-6.9-6.2-7.8
			L19,8.4c4.3,1,7.4,4.8,7.4,9.2C26.4,22.9,22.1,27.1,16.9,27.1z"/>
	</g>
	<g>
		
			<rect x="11.1" y="6.9" transform="matrix(0.6624 -0.7492 0.7492 0.6624 -0.5132 15.9226)" fill="#F0F7F7" width="12.7" height="3.3"/>
		<path fill="#8F9BA8" d="M14.5,15.4l-3.6-3.1l9.4-10.6l3.6,3.1L14.5,15.4z M13,12.1l1.3,1.2l7.4-8.4l-1.3-1.2L13,12.1z"/>
	</g>
	<g>
		<line fill="#F0F7F7" x1="23.2" y1="2.1" x2="21.7" y2="3.8"/>
		
			<rect x="21.7" y="1.8" transform="matrix(0.7488 0.6628 -0.6628 0.7488 7.6014 -14.1185)" fill="#8F9BA8" width="1.5" height="2.3"/>
	</g>
	<g>
		<line fill="#F0F7F7" x1="13.1" y1="13.2" x2="11.7" y2="14.8"/>
		
			<rect x="11.7" y="13" transform="matrix(0.7488 0.6628 -0.6628 0.7488 12.4256 -4.7083)" fill="#8F9BA8" width="1.5" height="2.1"/>
	</g>
	<g>
		<line fill="#F0F7F7" x1="24.2" y1="3" x2="22.2" y2="1.4"/>
		<rect x="21.9" y="1.4" transform="matrix(0.765 0.644 -0.644 0.765 6.8665 -14.4203)" fill="#8F9BA8" width="2.6" height="1.5"/>
	</g>
	<g>
		<path fill="none" stroke="#74B1E0" stroke-width="1.5" stroke-linejoin="round" stroke-miterlimit="10" d="M21.7,3.8"/>
	</g>
	<g>
		<rect x="5.6" y="18.7" fill="#74B1E0" width="6.3" height="1.5"/>
	</g>
	<g>
		<polygon fill="#F0F7F7" points="25.3,30.5 8.5,30.5 10.1,26.4 23.7,26.4 		"/>
		<path fill="#8F9BA8" d="M26.4,31.2h-19l2.2-5.6h14.6L26.4,31.2z M9.6,29.7h14.6l-1-2.6H10.6L9.6,29.7z"/>
	</g>
</g>
</svg>
