<?xml version="1.0" encoding="utf-8"?>
<!-- Generator: Adobe Illustrator 18.0.0, SVG Export Plug-In . SVG Version: 6.00 Build 0)  -->
<!DOCTYPE svg PUBLIC "-//W3C//DTD SVG 1.1//EN" "http://www.w3.org/Graphics/SVG/1.1/DTD/svg11.dtd">
<svg version="1.1" id="Layer_1" xmlns="http://www.w3.org/2000/svg" xmlns:xlink="http://www.w3.org/1999/xlink" x="0px" y="0px"
	 viewBox="0 0 32 32" enable-background="new 0 0 32 32" xml:space="preserve">
<g>
	<g>
		<path fill="#79C693" d="M27.2,26.9H16c-0.3,0-0.6-0.2-0.7-0.5c-0.1-0.3,0-0.6,0.3-0.8c2.1-1.5,4.2-2.3,6.3-2.3
			c3.6,0,5.8,2.3,5.9,2.4c0.2,0.2,0.3,0.5,0.1,0.8C27.8,26.7,27.5,26.9,27.2,26.9z M18.8,25.4h6c-0.8-0.4-1.8-0.7-2.9-0.7
			C20.9,24.8,19.8,25,18.8,25.4z"/>
	</g>
	<g>
		<path fill="#79C693" d="M16,26.9H4.8c-0.3,0-0.6-0.2-0.7-0.5c-0.1-0.3-0.1-0.6,0.1-0.8c0.1-0.1,2.3-2.4,5.9-2.4
			c2.1,0,4.2,0.8,6.3,2.3c0.3,0.2,0.4,0.5,0.3,0.8C16.6,26.7,16.3,26.9,16,26.9z M7.1,25.4h6.1c-1-0.4-2.1-0.7-3.1-0.7
			C8.9,24.8,7.9,25.1,7.1,25.4z"/>
	</g>
	<g>
		<path fill="#79C693" d="M5.5,26.9H0.8V8.4h4.8V26.9z M2.3,25.4H4V9.9H2.3V25.4z"/>
	</g>
	<g>
		<path fill="#79C693" d="M31.3,26.9h-4.8V8.4h4.8V26.9z M28,25.4h1.8V9.9H28V25.4z"/>
	</g>
	<g>
		<path fill="#F0F7F7" d="M4.8,8v1.2v17c0,0,4.5-4.9,11.2,0v-17V8C9.3,3.1,4.8,8,4.8,8z"/>
		<path fill="#8F9BA8" d="M16,26.9c-0.2,0-0.3,0-0.4-0.1c-1.8-1.3-3.7-2-5.5-2c-2.9,0-4.8,1.9-4.8,1.9c-0.2,0.2-0.5,0.3-0.8,0.2
			C4.2,26.8,4,26.5,4,26.2V8c0-0.2,0.1-0.4,0.2-0.5c0.1-0.1,2.3-2.4,5.9-2.4c2.1,0,4.2,0.8,6.3,2.3c0.2,0.1,0.3,0.4,0.3,0.6v18.2
			c0,0.3-0.2,0.5-0.4,0.7C16.2,26.9,16.1,26.9,16,26.9z M10.1,23.3c1.7,0,3.4,0.5,5.1,1.5V8.4c-1.7-1.2-3.5-1.8-5.1-1.8
			c-2.4,0-4,1.3-4.6,1.7v16.3C6.5,24,8.1,23.3,10.1,23.3z"/>
	</g>
	<g>
		<path fill="#F0F7F7" d="M16,8v1.2v17c6.7-4.9,11.2,0,11.2,0v-17V8C27.2,8,22.7,3.1,16,8z"/>
		<path fill="#8F9BA8" d="M27.2,26.9c-0.2,0-0.4-0.1-0.5-0.2c0,0-1.9-1.9-4.8-1.9c-1.8,0-3.6,0.7-5.5,2c-0.2,0.2-0.5,0.2-0.8,0.1
			c-0.3-0.1-0.4-0.4-0.4-0.7V8c0-0.2,0.1-0.5,0.3-0.6c2.1-1.5,4.2-2.3,6.3-2.3c3.6,0,5.8,2.3,5.9,2.4C27.9,7.6,28,7.8,28,8v18.2
			c0,0.3-0.2,0.6-0.5,0.7C27.4,26.9,27.3,26.9,27.2,26.9z M16.8,8.4v16.4c1.7-1,3.4-1.5,5.1-1.5c2,0,3.6,0.7,4.6,1.4V8.3
			c-0.6-0.5-2.2-1.7-4.6-1.7C20.2,6.6,18.5,7.2,16.8,8.4z"/>
	</g>
</g>
</svg>
