<?xml version="1.0" encoding="utf-8"?>
<!-- Generator: Adobe Illustrator 18.0.0, SVG Export Plug-In . SVG Version: 6.00 Build 0)  -->
<!DOCTYPE svg PUBLIC "-//W3C//DTD SVG 1.1//EN" "http://www.w3.org/Graphics/SVG/1.1/DTD/svg11.dtd">
<svg version="1.1" id="Layer_1" xmlns="http://www.w3.org/2000/svg" xmlns:xlink="http://www.w3.org/1999/xlink" x="0px" y="0px"
	 viewBox="0 0 32 32" enable-background="new 0 0 32 32" xml:space="preserve">
<g>
	<g>
		<path fill="#B4A79C" d="M31.3,30.8H0.8v-14H7V8.3l9-7.2l9,7.2v8.5h6.2L31.3,30.8L31.3,30.8z M2.3,29.3h27.5v-11h-6.2V9.1l-7.5-6
			l-7.5,6v9.3H2.3V29.3z"/>
	</g>
	<g>
		
			<rect x="14.5" y="5.7" transform="matrix(-0.7831 -0.6219 0.6219 -0.7831 34.323 24.9255)" fill="#B4A79C" width="14" height="1.5"/>
	</g>
	<g>
		<rect x="9.8" y="-0.5" transform="matrix(-0.622 -0.783 0.783 -0.622 11.9787 18.7887)" fill="#B4A79C" width="1.5" height="14"/>
	</g>
	<g>
		<path fill="#FAC2C3" d="M18.9,30.1h-5.7v-6c0-1.6,1.3-2.9,2.9-2.9l0,0c1.6,0,2.9,1.3,2.9,2.9v6H18.9z"/>
		<path fill="#DA8C8C" d="M19.6,30.8h-7.2v-6.7c0-2,1.6-3.6,3.6-3.6s3.6,1.6,3.6,3.6V30.8z M13.9,29.3h4.2v-5.2
			c0-1.2-0.9-2.1-2.1-2.1s-2.1,0.9-2.1,2.1C13.9,24.1,13.9,29.3,13.9,29.3z"/>
	</g>
	<g>
		<circle fill="#FAC2C3" cx="16" cy="11.6" r="2.5"/>
		<path fill="#DA8C8C" d="M16,14.8c-1.8,0-3.3-1.5-3.3-3.3s1.5-3.3,3.3-3.3s3.3,1.5,3.3,3.3C19.3,13.4,17.8,14.8,16,14.8z M16,9.8
			c-1,0-1.8,0.8-1.8,1.8s0.8,1.8,1.8,1.8s1.8-0.8,1.8-1.8S17,9.8,16,9.8z"/>
	</g>
	<g>
		<rect x="23" y="22.8" fill="#B4A79C" width="1.5" height="1.6"/>
	</g>
	<g>
		<rect x="25.3" y="22.8" fill="#B4A79C" width="1.5" height="1.6"/>
	</g>
	<g>
		<rect x="23" y="25.5" fill="#B4A79C" width="1.5" height="1.6"/>
	</g>
	<g>
		<rect x="25.3" y="25.5" fill="#B4A79C" width="1.5" height="1.6"/>
	</g>
	<g>
		<rect x="5.2" y="22.8" fill="#B4A79C" width="1.5" height="1.6"/>
	</g>
	<g>
		<rect x="7.5" y="22.8" fill="#B4A79C" width="1.5" height="1.6"/>
	</g>
	<g>
		<rect x="5.2" y="25.5" fill="#B4A79C" width="1.5" height="1.6"/>
	</g>
	<g>
		<rect x="7.5" y="25.5" fill="#B4A79C" width="1.5" height="1.6"/>
	</g>
</g>
</svg>
