<?xml version="1.0" encoding="utf-8"?>
<!-- Generator: Adobe Illustrator 18.0.0, SVG Export Plug-In . SVG Version: 6.00 Build 0)  -->
<!DOCTYPE svg PUBLIC "-//W3C//DTD SVG 1.1//EN" "http://www.w3.org/Graphics/SVG/1.1/DTD/svg11.dtd">
<svg version="1.1" id="Layer_1" xmlns="http://www.w3.org/2000/svg" xmlns:xlink="http://www.w3.org/1999/xlink" x="0px" y="0px"
	 viewBox="0 0 32 32" enable-background="new 0 0 32 32" xml:space="preserve">
<g>
	<g>
		<rect x="8.2" y="1.5" fill="#FFFFFF" width="15.6" height="29"/>
		<path fill="#B4A79C" d="M24.5,31.2H7.5V0.7h17.1V31.2z M9,29.7H23V2.2H9V29.7z"/>
	</g>
	<g>
		<rect x="11.3" y="4.9" fill="#F0F7F7" width="9.4" height="3.5"/>
		<path fill="#8F9BA8" d="M21.4,9.2H10.6v-5h10.9V9.2z M12.1,7.7h7.9v-2h-7.9V7.7z"/>
	</g>
	<g>
		<circle fill="#F0F7F7" cx="16" cy="20.6" r="2.1"/>
		<path fill="#8F9BA8" d="M16,23.5c-1.6,0-2.8-1.3-2.8-2.8c0-1.6,1.3-2.8,2.8-2.8s2.8,1.3,2.8,2.8C18.8,22.2,17.6,23.5,16,23.5z
			 M16,19.3c-0.7,0-1.3,0.6-1.3,1.3c0,0.7,0.6,1.3,1.3,1.3c0.7,0,1.3-0.6,1.3-1.3C17.3,19.9,16.7,19.3,16,19.3z"/>
	</g>
</g>
</svg>
