<?xml version="1.0" encoding="utf-8"?>
<!-- Generator: Adobe Illustrator 18.0.0, SVG Export Plug-In . SVG Version: 6.00 Build 0)  -->
<!DOCTYPE svg PUBLIC "-//W3C//DTD SVG 1.1//EN" "http://www.w3.org/Graphics/SVG/1.1/DTD/svg11.dtd">
<svg version="1.1" id="Layer_1" xmlns="http://www.w3.org/2000/svg" xmlns:xlink="http://www.w3.org/1999/xlink" x="0px" y="0px"
	 viewBox="0 0 32 32" enable-background="new 0 0 32 32" xml:space="preserve">
<g>
	<g>
		<path fill="#74B1E0" d="M22.7,21.9c-1.7,0-3.5-0.4-5.4-1.3c-1.7-0.8-3.6-1.2-5.6-1.2c-1.9,0-3.6,0.4-4.6,0.7l-1.9,0.5l6-9.3V0.7
			h9.6v10.5l6.1,9.5l-0.8,0.4C25.5,21.5,24.3,21.9,22.7,21.9z M11.7,17.9c2.2,0,4.3,0.4,6.2,1.3c1.7,0.8,3.3,1.2,4.7,1.2
			c0.8,0,1.5-0.1,2-0.3l-5.4-8.4V2.2h-6.6v9.4l-4.2,6.5C9.5,18,10.6,17.9,11.7,17.9z"/>
	</g>
	<g>
		<line fill="#FFFFFF" x1="9.3" y1="1.5" x2="22.7" y2="1.5"/>
		<rect x="9.3" y="0.8" fill="#74B1E0" width="13.4" height="1.5"/>
	</g>
	<g>
		<line fill="#F0F7F7" x1="12" y1="4.9" x2="15" y2="4.9"/>
		<rect x="12" y="4.1" fill="#74B1E0" width="3" height="1.5"/>
	</g>
	<g>
		<line fill="#F0F7F7" x1="12" y1="8" x2="15" y2="8"/>
		<rect x="12" y="7.2" fill="#74B1E0" width="3" height="1.5"/>
	</g>
	<g>
		<path fill="#CDE4F7" d="M30,26.9l-4.2-6.5c-1.3,0.6-4.1,1.3-8.2-0.6c-4.2-1.9-8.5-1.2-10.7-0.6L2,26.9c-1,1.5,0.1,3.6,2,3.6H28
			C29.9,30.5,31,28.5,30,26.9z"/>
		<path fill="#74B1E0" d="M28,31.2H4c-1.1,0-2.1-0.6-2.7-1.6c-0.5-1-0.5-2.2,0.1-3.1l5.1-7.9l0.3-0.1c1.2-0.3,3-0.7,5-0.7
			c2.2,0,4.3,0.4,6.2,1.3c1.7,0.8,3.3,1.2,4.7,1.2c1.3,0,2.3-0.3,2.8-0.6l0.6-0.3l4.5,7c0.6,1,0.7,2.1,0.1,3.1
			C30.2,30.7,29.2,31.2,28,31.2z M7.4,19.9l-4.7,7.4c-0.3,0.5-0.3,1.1-0.1,1.6c0.3,0.5,0.8,0.8,1.4,0.8H28c0.6,0,1.1-0.3,1.4-0.8
			c0.3-0.5,0.3-1.1-0.1-1.6l-3.8-6c-0.7,0.3-1.7,0.5-2.9,0.5c-1.7,0-3.5-0.4-5.4-1.3c-1.7-0.8-3.6-1.2-5.6-1.2
			C10,19.4,8.4,19.7,7.4,19.9z"/>
	</g>
	<g>
		<rect x="15" y="22.5" fill="#74B1E0" width="1" height="1.5"/>
	</g>
	<g>
		<rect x="16.8" y="24.4" fill="#74B1E0" width="1" height="1.5"/>
	</g>
	<g>
		<rect x="14.9" y="25.5" fill="#74B1E0" width="1" height="1.5"/>
	</g>
</g>
</svg>
