<?xml version="1.0" encoding="utf-8"?>
<!-- Generator: Adobe Illustrator 18.0.0, SVG Export Plug-In . SVG Version: 6.00 Build 0)  -->
<!DOCTYPE svg PUBLIC "-//W3C//DTD SVG 1.1//EN" "http://www.w3.org/Graphics/SVG/1.1/DTD/svg11.dtd">
<svg version="1.1" id="Layer_1" xmlns="http://www.w3.org/2000/svg" xmlns:xlink="http://www.w3.org/1999/xlink" x="0px" y="0px"
	 viewBox="0 0 32 32" enable-background="new 0 0 32 32" xml:space="preserve">
<g>
	<g>
		<path fill="#79C693" d="M27.8,21.3H4.2c-1.3,0-2.4-1.1-2.4-2.4V4.7c0-1.3,1.1-2.4,2.4-2.4h23.6c1.3,0,2.4,1.1,2.4,2.4v14.3
			C30.2,20.3,29.1,21.3,27.8,21.3z M4.2,3.8c-0.5,0-0.9,0.4-0.9,0.9v14.3c0,0.5,0.4,0.9,0.9,0.9h23.6c0.5,0,0.9-0.4,0.9-0.9V4.7
			c0-0.5-0.4-0.9-0.9-0.9H4.2z"/>
	</g>
	<g>
		<path fill="#F0F7F7" d="M27.8,28.9H4.2c-1.5,0-2.7-1.2-2.7-2.7l0,0c0-1.5,1.2-2.7,2.7-2.7h23.6c1.5,0,2.7,1.2,2.7,2.7l0,0
			C30.5,27.7,29.3,28.9,27.8,28.9z"/>
		<path fill="#8F9BA8" d="M27.8,29.7H4.2c-1.9,0-3.5-1.5-3.5-3.5c0-1.9,1.5-3.5,3.5-3.5h23.6c1.9,0,3.5,1.5,3.5,3.5
			C31.3,28.1,29.7,29.7,27.8,29.7z M4.2,24.3c-1.1,0-2,0.9-2,2c0,1.1,0.9,2,2,2h23.6c1.1,0,2-0.9,2-2c0-1.1-0.9-2-2-2H4.2z"/>
	</g>
	<g>
		<line fill="#F0F7F7" x1="5.6" y1="26.2" x2="13" y2="26.2"/>
		<rect x="5.6" y="25.5" fill="#8F9BA8" width="7.4" height="1.5"/>
	</g>
	<g>
		<path fill="#79C693" d="M16,16.7c-2.7,0-4.9-2.2-4.9-4.9s2.2-4.9,4.9-4.9c2.7,0,4.9,2.2,4.9,4.9S18.7,16.7,16,16.7z M16,8.4
			c-1.9,0-3.4,1.5-3.4,3.4c0,1.9,1.5,3.4,3.4,3.4c1.9,0,3.4-1.5,3.4-3.4C19.4,9.9,17.9,8.4,16,8.4z"/>
	</g>
	<g>
		<path fill="#79C693" d="M16,14c-1.2,0-2.2-1-2.2-2.2s1-2.2,2.2-2.2s2.2,1,2.2,2.2S17.2,14,16,14z M16,11.2c-0.4,0-0.7,0.3-0.7,0.7
			c0,0.4,0.3,0.7,0.7,0.7c0.4,0,0.7-0.3,0.7-0.7C16.7,11.5,16.4,11.2,16,11.2z"/>
	</g>
	<g>
		<rect x="15.2" y="5.7" fill="#79C693" width="1.5" height="1.9"/>
	</g>
	<g>
		<rect x="15.2" y="16" fill="#79C693" width="1.5" height="1.9"/>
	</g>
	<g>
		<rect x="9.9" y="11.1" fill="#79C693" width="1.9" height="1.5"/>
	</g>
	<g>
		<rect x="20.2" y="11.1" fill="#79C693" width="1.9" height="1.5"/>
	</g>
	<g>
		
			<rect x="18.9" y="7.2" transform="matrix(0.7071 0.7071 -0.7071 0.7071 11.5359 -11.4801)" fill="#79C693" width="1.5" height="1.9"/>
	</g>
	<g>
		
			<rect x="11.6" y="14.5" transform="matrix(0.7071 0.7071 -0.7071 0.7071 14.54 -4.2277)" fill="#79C693" width="1.5" height="1.9"/>
	</g>
	<g>
		<rect x="11.4" y="7.4" transform="matrix(0.707 0.7072 -0.7072 0.707 9.4144 -6.3524)" fill="#79C693" width="1.9" height="1.5"/>
	</g>
	<g>
		
			<rect x="18.7" y="14.7" transform="matrix(0.7072 0.707 -0.707 0.7072 16.6595 -9.3554)" fill="#79C693" width="1.9" height="1.5"/>
	</g>
</g>
</svg>
