<?xml version="1.0" encoding="utf-8"?>
<!-- Generator: Adobe Illustrator 18.0.0, SVG Export Plug-In . SVG Version: 6.00 Build 0)  -->
<!DOCTYPE svg PUBLIC "-//W3C//DTD SVG 1.1//EN" "http://www.w3.org/Graphics/SVG/1.1/DTD/svg11.dtd">
<svg version="1.1" id="Layer_1" xmlns="http://www.w3.org/2000/svg" xmlns:xlink="http://www.w3.org/1999/xlink" x="0px" y="0px"
	 viewBox="0 0 32 32" enable-background="new 0 0 32 32" xml:space="preserve">
<g>
	<g>
		<path fill="#8F9BA8" d="M20.5,22.2C17.7,22.2,15,21,13,19s-3.1-4.7-3.1-7.6S11,5.9,13,3.8c2-2,4.7-3.1,7.6-3.1s5.5,1.1,7.6,3.1
			c2,2,3.1,4.7,3.1,7.6s-1.1,5.5-3.1,7.6C26.1,21,23.4,22.2,20.5,22.2z M20.5,2.2c-2.5,0-4.8,1-6.5,2.7s-2.7,4-2.7,6.5
			s1,4.8,2.7,6.5c1.7,1.7,4,2.7,6.5,2.7s4.8-1,6.5-2.7c3.6-3.6,3.6-9.4,0-13C25.3,3.2,23,2.2,20.5,2.2z"/>
	</g>
	<g>
		<path fill="#B4A042" d="M20.5,18.9c-2,0-3.9-0.8-5.3-2.2c-1.4-1.4-2.2-3.3-2.2-5.3s0.8-3.9,2.2-5.3C16.7,4.8,18.6,4,20.5,4
			s3.9,0.8,5.3,2.2c2.9,2.9,2.9,7.6,0,10.5C24.4,18.1,22.5,18.9,20.5,18.9z M20.5,5.5c-1.6,0-3.1,0.6-4.2,1.7s-1.7,2.6-1.7,4.2
			s0.6,3.1,1.7,4.2s2.6,1.7,4.2,1.7s3.1-0.6,4.2-1.7c2.3-2.3,2.3-6.1,0-8.4C23.6,6.1,22.1,5.5,20.5,5.5z"/>
	</g>
	<g>
		
			<rect x="11.1" y="17.8" transform="matrix(-0.7071 -0.7071 0.7071 -0.7071 5.8948 42.8476)" fill="#8F9BA8" width="1.5" height="4.8"/>
	</g>
	<g>
		<path fill="#F0F7F7" d="M10.2,21.8L10.2,21.8c-0.8-0.8-2.1-0.8-2.9,0L2.1,27c-0.8,0.8-0.8,2.1,0,2.9l0,0c0.8,0.8,2.1,0.8,2.9,0
			l5.2-5.2C10.9,23.9,10.9,22.6,10.2,21.8z"/>
		<path fill="#8F9BA8" d="M3.5,31.2c-0.7,0-1.4-0.3-2-0.8c-0.5-0.5-0.8-1.2-0.8-2c0-0.7,0.3-1.4,0.8-2l5.2-5.2
			c1.1-1.1,2.9-1.1,3.9,0c0.5,0.5,0.8,1.2,0.8,2c0,0.7-0.3,1.4-0.8,2l-5.2,5.2C5,31,4.3,31.2,3.5,31.2z M8.7,22
			c-0.3,0-0.7,0.1-0.9,0.4l-5.2,5.2c-0.2,0.2-0.4,0.6-0.4,0.9s0.1,0.7,0.4,0.9c0.5,0.5,1.3,0.5,1.8,0l5.2-5.2
			C9.9,24,10,23.6,10,23.3c0-0.3-0.1-0.7-0.4-0.9C9.4,22.1,9.1,22,8.7,22z"/>
	</g>
</g>
</svg>
