<?xml version="1.0" encoding="utf-8"?>
<!-- Generator: Adobe Illustrator 18.0.0, SVG Export Plug-In . SVG Version: 6.00 Build 0)  -->
<!DOCTYPE svg PUBLIC "-//W3C//DTD SVG 1.1//EN" "http://www.w3.org/Graphics/SVG/1.1/DTD/svg11.dtd">
<svg version="1.1" id="Layer_1" xmlns="http://www.w3.org/2000/svg" xmlns:xlink="http://www.w3.org/1999/xlink" x="0px" y="0px"
	 viewBox="0 0 32 32" enable-background="new 0 0 32 32" xml:space="preserve">
<g>
	<g>
		<path fill="#DA8C8C" d="M5.1,22.4l0.1-1.2c0.5-4.3,3.4-7.8,7.4-9.1V0.7h6.8v11.4c3.8,1.2,6.6,4.5,7.3,8.5l0.1,0.6l-0.6,0.2
			c-0.9,0.3-2.3,0.7-4.2,0.7c-1.6,0-3.3-0.2-5-0.7c-1.3-0.4-2.6-0.5-4.1-0.5c-2.9,0-5.6,0.7-6.9,1.2L5.1,22.4z M13,19.3
			c1.6,0,3.1,0.2,4.5,0.6c1.6,0.5,3.1,0.7,4.6,0.7c1.3,0,2.3-0.2,3.1-0.4c-0.8-3.3-3.4-5.9-6.7-6.8l-0.6-0.1v-11h-3.8v11l-0.6,0.1
			c-3.3,0.9-5.8,3.5-6.7,6.8C8.4,19.8,10.6,19.3,13,19.3z"/>
	</g>
	<g>
		<path fill="#FAC2C3" d="M17.3,20.7c-4.5-1.3-9.2-0.1-11.4,0.7c0,0.4-0.1,0.8-0.1,1.2c0,3.2,1.5,6.1,3.9,8h12.6
			c2.3-1.9,3.9-4.7,3.9-8c0-0.6-0.1-1.2-0.2-1.8C24.6,21.3,21.6,21.9,17.3,20.7z"/>
		<path fill="#DA8C8C" d="M22.6,31.2H9.5L9.3,31c-2.6-2.1-4.1-5.2-4.1-8.6c0-0.4,0-0.8,0.1-1.3l0.1-0.5l0.4-0.2
			c1.7-0.6,4.4-1.3,7.3-1.3c1.6,0,3.1,0.2,4.5,0.6c1.6,0.5,3.1,0.7,4.6,0.7c1.7,0,3-0.3,3.7-0.6l0.8-0.3l0.2,0.9
			c0.1,0.6,0.2,1.3,0.2,1.9c0,3.3-1.5,6.5-4.1,8.6L22.6,31.2z M10,29.7h12.1c2.1-1.8,3.4-4.4,3.4-7.2c0-0.3,0-0.5,0-0.8
			c-0.8,0.2-2,0.4-3.3,0.4c-1.6,0-3.3-0.2-5-0.7c-1.3-0.4-2.6-0.5-4.1-0.5c-2.6,0-5,0.6-6.4,1c0,0.2,0,0.4,0,0.6
			C6.6,25.3,7.8,28,10,29.7z"/>
	</g>
	<g>
		<rect x="10.7" y="0.8" fill="#DA8C8C" width="10.7" height="1.5"/>
	</g>
	<g>
		<rect x="13.2" y="3.9" fill="#DA8C8C" width="2.3" height="1.5"/>
	</g>
	<g>
		<rect x="13.2" y="6.7" fill="#DA8C8C" width="2.3" height="1.5"/>
	</g>
	<g>
		<rect x="13.2" y="9.6" fill="#DA8C8C" width="2.3" height="1.5"/>
	</g>
</g>
</svg>
