<?xml version="1.0" encoding="utf-8"?>
<!-- Generator: Adobe Illustrator 18.0.0, SVG Export Plug-In . SVG Version: 6.00 Build 0)  -->
<!DOCTYPE svg PUBLIC "-//W3C//DTD SVG 1.1//EN" "http://www.w3.org/Graphics/SVG/1.1/DTD/svg11.dtd">
<svg version="1.1" id="Layer_1" xmlns="http://www.w3.org/2000/svg" xmlns:xlink="http://www.w3.org/1999/xlink" x="0px" y="0px"
	 viewBox="0 0 32 32" enable-background="new 0 0 32 32" xml:space="preserve">
<g>
	<g>
		<line fill="none" x1="24" y1="14.4" x2="24" y2="18.6"/>
		<rect x="23.2" y="14.4" fill="#8F9BA8" width="1.5" height="4.2"/>
	</g>
	<g>
		<line fill="none" x1="8" y1="14.4" x2="8" y2="18.6"/>
		<rect x="7.3" y="14.4" fill="#8F9BA8" width="1.5" height="4.2"/>
	</g>
	<g>
		<line fill="none" x1="8.9" y1="4.4" x2="23.1" y2="4.4"/>
		<rect x="8.9" y="3.6" fill="#8F9BA8" width="14.3" height="1.5"/>
	</g>
	<g>
		<line fill="none" x1="20.9" y1="8.9" x2="20.9" y2="4.4"/>
		<rect x="20.2" y="4.4" fill="#8F9BA8" width="1.5" height="4.5"/>
	</g>
	<g>
		<line fill="none" x1="11.1" y1="8.9" x2="11.1" y2="4.4"/>
		<rect x="10.3" y="4.4" fill="#8F9BA8" width="1.5" height="4.5"/>
	</g>
	<g>
		<path fill="#B4A79C" d="M29,28.4H3c-1.3,0-2.3-1-2.3-2.3V13.7h30.5v12.4C31.3,27.4,30.2,28.4,29,28.4z M2.3,15.2v10.9
			c0,0.4,0.4,0.8,0.8,0.8H29c0.4,0,0.8-0.4,0.8-0.8V15.2H2.3z"/>
	</g>
	<g>
		<path fill="#F9F8F2" d="M30.5,10.4c0-0.8-0.7-1.5-1.5-1.5H3c-0.8,0-1.5,0.7-1.5,1.5v4h29V10.4z"/>
		<path fill="#B4A79C" d="M31.3,15.2H0.8v-4.7c0-1.3,1-2.3,2.3-2.3H29c1.3,0,2.3,1,2.3,2.3V15.2z M2.3,13.7h27.5v-3.2
			c0-0.4-0.4-0.8-0.8-0.8H3c-0.4,0-0.8,0.4-0.8,0.8L2.3,13.7L2.3,13.7z"/>
	</g>
</g>
</svg>
