<?xml version="1.0" encoding="utf-8"?>
<!-- Generator: Adobe Illustrator 18.0.0, SVG Export Plug-In . SVG Version: 6.00 Build 0)  -->
<!DOCTYPE svg PUBLIC "-//W3C//DTD SVG 1.1//EN" "http://www.w3.org/Graphics/SVG/1.1/DTD/svg11.dtd">
<svg version="1.1" id="Layer_1" xmlns="http://www.w3.org/2000/svg" xmlns:xlink="http://www.w3.org/1999/xlink" x="0px" y="0px"
	 viewBox="0 0 32 32" enable-background="new 0 0 32 32" xml:space="preserve">
<g>
	<g>
		<path fill="#F0F7F7" d="M16,20.8c-1.9,0-3.6-0.5-5.1-1.4v11.1l5.1-4.9l5.1,4.9V19.4C19.6,20.3,17.9,20.8,16,20.8z"/>
		<path fill="#8F9BA8" d="M21.1,31.2c-0.2,0-0.4-0.1-0.5-0.2L16,26.6L11.5,31c-0.2,0.2-0.5,0.3-0.8,0.2c-0.3-0.1-0.5-0.4-0.5-0.7
			V19.4c0-0.3,0.1-0.5,0.4-0.7c0.2-0.1,0.5-0.1,0.8,0c2.8,1.7,6.5,1.7,9.3,0c0.2-0.1,0.5-0.1,0.8,0c0.2,0.1,0.4,0.4,0.4,0.7v11.1
			c0,0.3-0.2,0.6-0.5,0.7C21.3,31.2,21.2,31.2,21.1,31.2z M16,24.8c0.2,0,0.4,0.1,0.5,0.2l3.8,3.7v-8.1c-2.7,1.2-5.9,1.2-8.6,0v8.1
			l3.8-3.7C15.6,24.9,15.8,24.8,16,24.8z"/>
	</g>
	<g>
		<path fill="#74B1E0" d="M16,21.6c-1.9,0-3.8-0.5-5.5-1.6c-3.1-1.9-5-5.2-5-8.8C5.6,5.4,10.3,0.7,16,0.7s10.4,4.7,10.4,10.4
			c0,3.6-1.9,6.9-5,8.8C19.8,21,17.9,21.6,16,21.6z M16,2.2c-4.9,0-8.9,4-8.9,8.9c0,3.1,1.6,5.9,4.2,7.6c2.8,1.7,6.5,1.7,9.3,0
			c2.7-1.6,4.2-4.5,4.2-7.6C24.9,6.2,20.9,2.2,16,2.2z"/>
	</g>
	<g>
		<path fill="#74B1E0" d="M16,16.5c-1,0-1.9-0.3-2.8-0.8c-1.6-1-2.5-2.7-2.5-4.5c0-2.9,2.4-5.3,5.3-5.3s5.3,2.4,5.3,5.3
			c0,1.9-0.9,3.5-2.5,4.5C17.9,16.2,17,16.5,16,16.5z M16,7.3c-2.1,0-3.8,1.7-3.8,3.8c0,1.3,0.7,2.5,1.8,3.3c1.2,0.7,2.8,0.7,4,0
			c1.1-0.7,1.8-1.9,1.8-3.3C19.8,9,18.1,7.3,16,7.3z"/>
	</g>
</g>
</svg>
