<?xml version="1.0" encoding="utf-8"?>
<!-- Generator: Adobe Illustrator 18.0.0, SVG Export Plug-In . SVG Version: 6.00 Build 0)  -->
<!DOCTYPE svg PUBLIC "-//W3C//DTD SVG 1.1//EN" "http://www.w3.org/Graphics/SVG/1.1/DTD/svg11.dtd">
<svg version="1.1" id="Layer_1" xmlns="http://www.w3.org/2000/svg" xmlns:xlink="http://www.w3.org/1999/xlink" x="0px" y="0px"
	 viewBox="0 0 32 32" enable-background="new 0 0 32 32" xml:space="preserve">
<g>
	<g>
		<polygon fill="#F9F8F2" points="30.2,14.6 22.2,18.1 22.2,26.4 30.2,29.9 		"/>
		<path fill="#B4A79C" d="M30.2,30.7c-0.1,0-0.2,0-0.3-0.1l-8-3.5c-0.3-0.1-0.5-0.4-0.5-0.7v-8.4c0-0.3,0.2-0.6,0.5-0.7l8-3.5
			c0.2-0.1,0.5-0.1,0.7,0.1c0.2,0.1,0.3,0.4,0.3,0.6v15.3c0,0.3-0.1,0.5-0.3,0.6C30.5,30.6,30.4,30.7,30.2,30.7z M23,25.9l6.5,2.8
			v-13L23,18.6V25.9z"/>
	</g>
	<g>
		<path fill="#B4A79C" d="M20.7,29.8H3.3c-1.2,0-2.3-1-2.3-2.3V16.9c0-1.2,1-2.3,2.3-2.3h17.4c1.2,0,2.3,1,2.3,2.3v10.6
			C23,28.8,22,29.8,20.7,29.8z M3.3,16.2c-0.4,0-0.7,0.3-0.7,0.7v10.6c0,0.4,0.3,0.7,0.7,0.7h17.4c0.4,0,0.7-0.3,0.7-0.7V16.9
			c0-0.4-0.3-0.7-0.7-0.7H3.3z"/>
	</g>
	<g>
		<path fill="#8F9BA8" d="M19.1,12.7c-3.1,0-5.7-2.6-5.7-5.7s2.6-5.7,5.7-5.7c3.1,0,5.7,2.6,5.7,5.7S22.2,12.7,19.1,12.7z M19.1,2.9
			c-2.3,0-4.2,1.9-4.2,4.2s1.9,4.2,4.2,4.2s4.2-1.9,4.2-4.2S21.4,2.9,19.1,2.9z"/>
	</g>
	<g>
		<path fill="#8F9BA8" d="M6.7,12.7C3.6,12.7,1,10.2,1,7s2.6-5.7,5.7-5.7c3.1,0,5.7,2.6,5.7,5.7S9.8,12.7,6.7,12.7z M6.7,2.9
			C4.4,2.9,2.5,4.7,2.5,7s1.9,4.2,4.2,4.2s4.2-1.9,4.2-4.2S9,2.9,6.7,2.9z"/>
	</g>
	<g>
		<rect x="6.3" y="23.3" fill="#B4A79C" width="7.1" height="1.5"/>
	</g>
</g>
</svg>
