<?xml version="1.0" encoding="utf-8"?>
<!-- Generator: Adobe Illustrator 18.0.0, SVG Export Plug-In . SVG Version: 6.00 Build 0)  -->
<!DOCTYPE svg PUBLIC "-//W3C//DTD SVG 1.1//EN" "http://www.w3.org/Graphics/SVG/1.1/DTD/svg11.dtd">
<svg version="1.1" id="Layer_1" xmlns="http://www.w3.org/2000/svg" xmlns:xlink="http://www.w3.org/1999/xlink" x="0px" y="0px"
	 viewBox="0 0 32 32" enable-background="new 0 0 32 32" xml:space="preserve">
<g>
	<g>
		<path fill="#8F9BA8" d="M24.7,30.5h-1.5l0-6.6c0-4-3.2-7.2-7.2-7.2c-4.8,0-8.7-3.9-8.7-8.7V1.5h1.5v6.6c0,4,3.2,7.2,7.2,7.2
			c4.8,0,8.7,3.9,8.7,8.7L24.7,30.5z"/>
	</g>
	<g>
		<path fill="#8F9BA8" d="M21.1,15.1l-0.9-1.2c1.8-1.4,3-3.5,3-5.8V1.5h1.5v6.6C24.7,10.8,23.4,13.4,21.1,15.1z"/>
	</g>
	<g>
		<path fill="#8F9BA8" d="M8.8,30.5H7.3v-6.6c0-2.8,1.3-5.4,3.6-7l0.9,1.2c-1.9,1.4-3,3.5-3,5.8V30.5z"/>
	</g>
	<g>
		<rect x="12.1" y="3.4" fill="#8F9BA8" width="11.8" height="1.5"/>
	</g>
	<g>
		<rect x="12.1" y="7.2" fill="#8F9BA8" width="11.8" height="1.5"/>
	</g>
	<g>
		<rect x="12.1" y="11.1" fill="#8F9BA8" width="10.8" height="1.5"/>
	</g>
	<g>
		<rect x="8.1" y="27.1" fill="#8F9BA8" width="11.8" height="1.5"/>
	</g>
	<g>
		<rect x="8.1" y="23.3" fill="#8F9BA8" width="11.8" height="1.5"/>
	</g>
	<g>
		<rect x="9" y="19.4" fill="#8F9BA8" width="10.8" height="1.5"/>
	</g>
</g>
</svg>
