<?xml version="1.0" encoding="utf-8"?>
<!-- Generator: Adobe Illustrator 18.0.0, SVG Export Plug-In . SVG Version: 6.00 Build 0)  -->
<!DOCTYPE svg PUBLIC "-//W3C//DTD SVG 1.1//EN" "http://www.w3.org/Graphics/SVG/1.1/DTD/svg11.dtd">
<svg version="1.1" id="Layer_1" xmlns="http://www.w3.org/2000/svg" xmlns:xlink="http://www.w3.org/1999/xlink" x="0px" y="0px"
	 viewBox="0 0 32 32" enable-background="new 0 0 32 32" xml:space="preserve">
<g>
	<g>
		<rect x="15.3" y="22.1" fill="#B4A042" width="1.5" height="4.7"/>
	</g>
	<g>
		<path fill="#B4A79C" d="M23.8,14.2c-0.4,0-0.8-0.3-0.8-0.8V4.2c0-0.4,0.3-0.7,0.8-0.7h5.7c0.4,0,0.8,0.3,0.8,0.7v3.5
			C30.3,11.3,27.4,14.2,23.8,14.2z M24.6,5v7.7c2.4-0.4,4.2-2.4,4.2-4.9V5H24.6z"/>
	</g>
	<g>
		<path fill="#B4A79C" d="M8.2,14.2c-3.6,0-6.5-2.9-6.5-6.5V4.2c0-0.4,0.3-0.7,0.8-0.7h5.7c0.4,0,0.8,0.3,0.8,0.7v9.2
			C8.9,13.9,8.6,14.2,8.2,14.2z M3.2,5v2.7c0,2.5,1.8,4.6,4.2,4.9V5H3.2z"/>
	</g>
	<g>
		<path fill="#B4A042" d="M21.7,31.2H10.3c-0.2,0-0.5-0.1-0.6-0.3c-0.1-0.2-0.2-0.5-0.1-0.7l1.4-3.7c0.1-0.3,0.4-0.5,0.7-0.5h8.7
			c0.3,0,0.6,0.2,0.7,0.5l1.4,3.7c0.1,0.2,0.1,0.5-0.1,0.7C22.2,31.1,22,31.2,21.7,31.2z M11.3,29.7h9.3l-0.8-2.2h-7.7L11.3,29.7z"
			/>
	</g>
	<g>
		<path fill="#B4A79C" d="M16,22.8c-4.7,0-8.6-3.9-8.6-8.6V1.5c0-0.4,0.3-0.8,0.8-0.8h15.7c0.4,0,0.8,0.3,0.8,0.8v12.7
			C24.6,19,20.7,22.8,16,22.8z M8.9,2.2v12c0,3.9,3.2,7.1,7.1,7.1c3.9,0,7.1-3.2,7.1-7.1v-12H8.9z"/>
	</g>
	<g>
		<polygon fill="#F2E8B9" points="16,5.2 17.5,8.2 20.8,8.7 18.4,11.1 19,14.4 16,12.8 13,14.4 13.6,11.1 11.2,8.7 14.5,8.2 		"/>
		<path fill="#B4A79C" d="M19,15.2c-0.1,0-0.2,0-0.3-0.1L16,13.7l-2.6,1.4c-0.3,0.1-0.6,0.1-0.8-0.1c-0.2-0.2-0.3-0.5-0.3-0.7
			l0.5-2.9l-2.1-2.1c-0.2-0.2-0.3-0.5-0.2-0.8C10.5,8.2,10.8,8,11,8l3-0.4l1.3-2.7c0.3-0.5,1.1-0.5,1.3,0L18,7.5L21,8
			c0.3,0,0.5,0.2,0.6,0.5c0.1,0.3,0,0.6-0.2,0.8l-2.1,2.1l0.5,2.9c0,0.3-0.1,0.6-0.3,0.7C19.3,15.1,19.2,15.2,19,15.2z M12.8,9.2
			l1.3,1.3c0.2,0.2,0.3,0.4,0.2,0.7L14,13l1.7-0.9c0.2-0.1,0.5-0.1,0.7,0L18,13l-0.3-1.8c0-0.2,0-0.5,0.2-0.7l1.3-1.3L17.4,9
			c-0.2,0-0.5-0.2-0.6-0.4L16,6.9l-0.8,1.7c-0.1,0.2-0.3,0.4-0.6,0.4L12.8,9.2z"/>
	</g>
</g>
</svg>
