<?xml version="1.0" encoding="utf-8"?>
<!-- Generator: Adobe Illustrator 18.0.0, SVG Export Plug-In . SVG Version: 6.00 Build 0)  -->
<!DOCTYPE svg PUBLIC "-//W3C//DTD SVG 1.1//EN" "http://www.w3.org/Graphics/SVG/1.1/DTD/svg11.dtd">
<svg version="1.1" id="Layer_1" xmlns="http://www.w3.org/2000/svg" xmlns:xlink="http://www.w3.org/1999/xlink" x="0px" y="0px"
	 viewBox="0 0 32 32" enable-background="new 0 0 32 32" xml:space="preserve">
<g>
	<g>
		<path fill="#DA8C8C" d="M27.8,21.3H4.2c-1.3,0-2.4-1.1-2.4-2.4V4.7c0-1.3,1.1-2.4,2.4-2.4h23.6c1.3,0,2.4,1.1,2.4,2.4V19
			C30.2,20.3,29.1,21.3,27.8,21.3z M4.2,3.8c-0.5,0-0.9,0.4-0.9,0.9V19c0,0.5,0.4,0.9,0.9,0.9h23.6c0.5,0,0.9-0.4,0.9-0.9V4.7
			c0-0.5-0.4-0.9-0.9-0.9C27.8,3.8,4.2,3.8,4.2,3.8z"/>
	</g>
	<g>
		<path fill="#FAC2C3" d="M27.8,28.9H4.2c-1.5,0-2.7-1.2-2.7-2.7l0,0c0-1.5,1.2-2.7,2.7-2.7h23.6c1.5,0,2.7,1.2,2.7,2.7l0,0
			C30.5,27.7,29.3,28.9,27.8,28.9z"/>
		<path fill="#DA8C8C" d="M27.8,29.7H4.2c-1.9,0-3.5-1.5-3.5-3.5s1.5-3.5,3.5-3.5h23.6c1.9,0,3.5,1.5,3.5,3.5S29.7,29.7,27.8,29.7z
			 M4.2,24.3c-1.1,0-2,0.9-2,2s0.9,2,2,2h23.6c1.1,0,2-0.9,2-2s-0.9-2-2-2H4.2z"/>
	</g>
	<g>
		<path fill="#B4A79C" d="M10.6,14.5c-0.2,0-0.4-0.1-0.5-0.2L8.8,13l-1.3,1.3c-0.2,0.2-0.5,0.3-0.7,0.2c-0.3-0.1-0.5-0.3-0.5-0.6
			L5.4,10C5.3,9.6,5.5,9.2,5.9,9.2c0.4-0.1,0.8,0.2,0.9,0.6l0.6,2.5l0.8-0.8c0.3-0.3,0.8-0.3,1.1,0l0.8,0.8l0.6-2.5
			c0.1-0.4,0.5-0.7,0.9-0.6c0.4,0.1,0.7,0.5,0.6,0.9L11.3,14c-0.1,0.3-0.3,0.5-0.5,0.6C10.7,14.5,10.6,14.5,10.6,14.5z"/>
	</g>
	<g>
		<path fill="#B4A79C" d="M17.8,14.5c-0.2,0-0.4-0.1-0.5-0.2L16,13l-1.3,1.3c-0.2,0.2-0.5,0.3-0.7,0.2c-0.3-0.1-0.5-0.3-0.5-0.6
			L12.6,10c-0.1-0.4,0.2-0.8,0.6-0.9c0.3,0,0.8,0.2,0.8,0.6l0.6,2.5l0.8-0.8c0.3-0.3,0.8-0.3,1.1,0l0.8,0.8L18,9.7
			c0.1-0.4,0.5-0.7,0.9-0.6c0.4,0.1,0.7,0.5,0.6,0.9l-0.9,3.9c-0.1,0.3-0.3,0.5-0.5,0.6C17.9,14.5,17.9,14.5,17.8,14.5z"/>
	</g>
	<g>
		<path fill="#B4A79C" d="M25,14.5c-0.2,0-0.4-0.1-0.5-0.2L23.2,13L22,14.3c-0.2,0.2-0.5,0.3-0.7,0.2c-0.3-0.1-0.5-0.3-0.5-0.6
			L19.9,10c-0.1-0.4,0.2-0.8,0.6-0.9c0.4-0.1,0.8,0.2,0.9,0.6l0.6,2.5l0.8-0.8c0.3-0.3,0.8-0.3,1.1,0l0.8,0.8l0.6-2.5
			c0.1-0.4,0.5-0.7,0.9-0.6c0.4,0.1,0.7,0.5,0.6,0.9l-0.9,3.9c-0.1,0.3-0.3,0.5-0.5,0.6C25.2,14.5,25.1,14.5,25,14.5z"/>
	</g>
	<g>
		<line fill="none" x1="5.6" y1="26.2" x2="13" y2="26.2"/>
		<rect x="5.6" y="25.5" fill="#DA8C8C" width="7.4" height="1.5"/>
	</g>
</g>
</svg>
