<?xml version="1.0" encoding="utf-8"?>
<!-- Generator: Adobe Illustrator 18.0.0, SVG Export Plug-In . SVG Version: 6.00 Build 0)  -->
<!DOCTYPE svg PUBLIC "-//W3C//DTD SVG 1.1//EN" "http://www.w3.org/Graphics/SVG/1.1/DTD/svg11.dtd">
<svg version="1.1" id="Layer_1" xmlns="http://www.w3.org/2000/svg" xmlns:xlink="http://www.w3.org/1999/xlink" x="0px" y="0px"
	 viewBox="0 0 32 32" enable-background="new 0 0 32 32" xml:space="preserve">
<g>
	<g>
		<polygon fill="#8F9BA8" points="19.7,15.6 18.6,14.5 21.3,11.8 18.6,9.1 19.7,8 23.5,11.8 		"/>
	</g>
	<g>
		<polygon fill="#8F9BA8" points="12.3,15.6 8.5,11.8 12.3,8 13.4,9.1 10.7,11.8 13.4,14.5 		"/>
	</g>
	<g>
		
			<rect x="15.3" y="7.4" transform="matrix(0.9549 0.2968 -0.2968 0.9549 4.2271 -4.2169)" fill="#8F9BA8" width="1.5" height="8.9"/>
	</g>
	<g>
		<path fill="#B4A79C" d="M27.8,21.3H4.2c-1.3,0-2.4-1.1-2.4-2.4V4.7c0-1.3,1.1-2.4,2.4-2.4h23.6c1.3,0,2.4,1.1,2.4,2.4v14.3
			C30.2,20.3,29.1,21.3,27.8,21.3z M4.2,3.8c-0.5,0-0.9,0.4-0.9,0.9v14.3c0,0.5,0.4,0.9,0.9,0.9h23.6c0.5,0,0.9-0.4,0.9-0.9V4.7
			c0-0.5-0.4-0.9-0.9-0.9H4.2z"/>
	</g>
	<g>
		<path fill="#F9F8F2" d="M27.8,28.9H4.2c-1.5,0-2.7-1.2-2.7-2.7l0,0c0-1.5,1.2-2.7,2.7-2.7h23.6c1.5,0,2.7,1.2,2.7,2.7l0,0
			C30.5,27.7,29.3,28.9,27.8,28.9z"/>
		<path fill="#B4A79C" d="M27.8,29.7H4.2c-1.9,0-3.5-1.5-3.5-3.5s1.5-3.5,3.5-3.5h23.6c1.9,0,3.5,1.5,3.5,3.5S29.7,29.7,27.8,29.7z
			 M4.2,24.3c-1.1,0-2,0.9-2,2c0,1.1,0.9,2,2,2h23.6c1.1,0,2-0.9,2-2c0-1.1-0.9-2-2-2H4.2z"/>
	</g>
	<g>
		<line fill="#F9F8F2" x1="5.6" y1="26.2" x2="13" y2="26.2"/>
		<rect x="5.6" y="25.5" fill="#B4A79C" width="7.4" height="1.5"/>
	</g>
</g>
</svg>
