<?xml version="1.0" encoding="utf-8"?>
<!-- Generator: Adobe Illustrator 18.0.0, SVG Export Plug-In . SVG Version: 6.00 Build 0)  -->
<!DOCTYPE svg PUBLIC "-//W3C//DTD SVG 1.1//EN" "http://www.w3.org/Graphics/SVG/1.1/DTD/svg11.dtd">
<svg version="1.1" id="Layer_1" xmlns="http://www.w3.org/2000/svg" xmlns:xlink="http://www.w3.org/1999/xlink" x="0px" y="0px"
	 viewBox="0 0 32 32" enable-background="new 0 0 32 32" xml:space="preserve">
<g>
	<g>
		<rect x="1.5" y="3.8" fill="#FFFFFF" width="29" height="19.1"/>
		<path fill="#74B1E0" d="M31.3,23.7H0.8V3.1h30.5V23.7z M2.3,22.2h27.5V4.6H2.3V22.2z"/>
	</g>
	<g>
		<rect x="10.3" y="23" fill="#CDE4F7" width="11.5" height="5.2"/>
		<path fill="#74B1E0" d="M22.5,28.9h-13v-6.7h13V28.9z M11,27.4h10v-3.7H11V27.4z"/>
	</g>
	<g>
		<line fill="#FFFFFF" x1="6.7" y1="28.2" x2="25.3" y2="28.2"/>
		<rect x="6.7" y="27.4" fill="#74B1E0" width="18.5" height="1.5"/>
	</g>
	<g>
		<polygon fill="#8F9BA8" points="19.7,17.2 18.6,16.1 21.3,13.4 18.6,10.7 19.7,9.6 23.5,13.4 		"/>
	</g>
	<g>
		<polygon fill="#8F9BA8" points="12.3,17.2 8.5,13.4 12.3,9.6 13.4,10.7 10.7,13.4 13.4,16.1 		"/>
	</g>
	<g>
		<rect x="15.2" y="9" transform="matrix(0.9549 0.2968 -0.2968 0.9549 4.6999 -4.145)" fill="#8F9BA8" width="1.5" height="8.9"/>
	</g>
</g>
</svg>
