<?xml version="1.0" encoding="utf-8"?>
<!-- Generator: Adobe Illustrator 18.0.0, SVG Export Plug-In . SVG Version: 6.00 Build 0)  -->
<!DOCTYPE svg PUBLIC "-//W3C//DTD SVG 1.1//EN" "http://www.w3.org/Graphics/SVG/1.1/DTD/svg11.dtd">
<svg version="1.1" id="Layer_1" xmlns="http://www.w3.org/2000/svg" xmlns:xlink="http://www.w3.org/1999/xlink" x="0px" y="0px"
	 viewBox="0 0 32 32" enable-background="new 0 0 32 32" xml:space="preserve">
<g>
	<g>
		<rect x="1.5" y="3.8" fill="#FFFFFF" width="29" height="19.1"/>
		<path fill="#8F9BA8" d="M31.3,23.7H0.8V3.1h30.5V23.7z M2.3,22.2h27.5V4.6H2.3V22.2z"/>
	</g>
	<g>
		<rect x="10.3" y="23" fill="#FFFFFF" width="11.5" height="5.2"/>
		<path fill="#8F9BA8" d="M22.5,28.9h-13v-6.7h13V28.9z M11,27.4h10v-3.7H11V27.4z"/>
	</g>
	<g>
		<line fill="#FFFFFF" x1="6.7" y1="28.2" x2="25.3" y2="28.2"/>
		<rect x="6.7" y="27.4" fill="#8F9BA8" width="18.5" height="1.5"/>
	</g>
	<g>
		<polygon fill="#F0F7F7" points="10.2,6.3 11.3,8.4 13.6,8.8 11.9,10.4 12.3,12.8 10.2,11.7 8.1,12.8 8.5,10.4 6.8,8.8 9.2,8.4 		
			"/>
		<path fill="#8F9BA8" d="M12.3,13.5c-0.1,0-0.2,0-0.3-0.1l-1.7-0.9l-1.7,0.9c-0.3,0.1-0.6,0.1-0.8-0.1c-0.2-0.2-0.3-0.5-0.3-0.7
			l0.3-1.9L6.3,9.3C6.1,9.1,6,8.8,6.1,8.5C6.2,8.3,6.4,8.1,6.7,8l2-0.3L9.5,6c0.1-0.3,0.4-0.4,0.7-0.4l0,0c0.3,0,0.5,0.2,0.7,0.4
			l0.9,1.8l2,0.3c0.3,0,0.5,0.2,0.6,0.5c0.1,0.3,0,0.6-0.2,0.8l-1.4,1.4l0.3,1.9c0,0.3-0.1,0.6-0.3,0.7
			C12.6,13.5,12.5,13.5,12.3,13.5z M8.4,9.3L9,9.9c0.2,0.2,0.3,0.4,0.2,0.7l-0.1,0.8L9.9,11c0.2-0.1,0.5-0.1,0.7,0l0.8,0.4l-0.1-0.8
			c0-0.2,0-0.5,0.2-0.7L12,9.3l-0.8-0.1c-0.2,0-0.5-0.2-0.6-0.4L10.2,8L9.8,8.8C9.7,9,9.5,9.1,9.3,9.2L8.4,9.3z"/>
	</g>
	<g>
		<polygon fill="#F0F7F7" points="21.8,6.3 22.8,8.4 25.2,8.8 23.5,10.4 23.9,12.8 21.8,11.7 19.7,12.8 20.1,10.4 18.4,8.8 
			20.7,8.4 		"/>
		<path fill="#8F9BA8" d="M23.9,13.5c-0.1,0-0.2,0-0.3-0.1l-1.7-0.9L20,13.4c-0.3,0.1-0.6,0.1-0.8-0.1c-0.2-0.2-0.3-0.5-0.3-0.7
			l0.3-1.9l-1.4-1.4c-0.2-0.2-0.3-0.5-0.2-0.8C17.8,8.3,18,8.1,18.3,8l2-0.3L21.1,6c0.1-0.3,0.4-0.4,0.7-0.4l0,0
			c0.3,0,0.5,0.2,0.7,0.4l0.9,1.8l2,0.3c0.3,0,0.5,0.2,0.6,0.5c0.1,0.3,0,0.6-0.2,0.8l-1.4,1.4l0.3,1.9c0,0.3-0.1,0.6-0.3,0.7
			C24.2,13.5,24,13.5,23.9,13.5z M20,9.3l0.6,0.6c0.2,0.2,0.3,0.4,0.2,0.7l-0.1,0.8l0.8-0.4c0.2-0.1,0.5-0.1,0.7,0l0.8,0.4l-0.1-0.8
			c0-0.2,0-0.5,0.2-0.7l0.6-0.6l-0.8-0.1c-0.2,0-0.5-0.2-0.6-0.4L21.8,8l-0.4,0.8c-0.1,0.2-0.3,0.4-0.6,0.4L20,9.3z"/>
	</g>
	<g>
		<polygon fill="#F0F7F7" points="16,14 17,16.2 19.4,16.5 17.7,18.2 18.1,20.5 16,19.4 13.9,20.5 14.3,18.2 12.6,16.5 15,16.2 		
			"/>
		<path fill="#8F9BA8" d="M18.1,21.2c-0.1,0-0.2,0-0.3-0.1L16,20.2l-1.7,0.9c-0.3,0.1-0.6,0.1-0.8-0.1c-0.2-0.2-0.3-0.5-0.3-0.7
			l0.3-1.9L12.1,17c-0.2-0.2-0.3-0.5-0.2-0.8c0.1-0.3,0.3-0.5,0.6-0.5l2-0.3l0.9-1.8c0.3-0.5,1.1-0.5,1.3,0l0.9,1.8l2,0.3
			c0.3,0,0.5,0.2,0.6,0.5c0.1,0.3,0,0.6-0.2,0.8l-1.4,1.4l0.3,1.9c0,0.3-0.1,0.6-0.3,0.7C18.4,21.2,18.3,21.2,18.1,21.2z M16,18.6
			c0.1,0,0.2,0,0.3,0.1l0.8,0.4L17,18.3c0-0.2,0-0.5,0.2-0.7l0.6-0.6l-0.8-0.1c-0.2,0-0.5-0.2-0.6-0.4L16,15.7l-0.4,0.8
			c-0.1,0.2-0.3,0.4-0.6,0.4L14.2,17l0.6,0.6c0.2,0.2,0.3,0.4,0.2,0.7l-0.1,0.8l0.8-0.4C15.8,18.7,15.9,18.6,16,18.6z"/>
	</g>
</g>
</svg>
