<?xml version="1.0" encoding="utf-8"?>
<!-- Generator: Adobe Illustrator 18.0.0, SVG Export Plug-In . SVG Version: 6.00 Build 0)  -->
<!DOCTYPE svg PUBLIC "-//W3C//DTD SVG 1.1//EN" "http://www.w3.org/Graphics/SVG/1.1/DTD/svg11.dtd">
<svg version="1.1" id="Layer_1" xmlns="http://www.w3.org/2000/svg" xmlns:xlink="http://www.w3.org/1999/xlink" x="0px" y="0px"
	 viewBox="0 0 32 32" enable-background="new 0 0 32 32" xml:space="preserve">
<g>
	<g>
		<path fill="#8F9BA8" d="M31.3,23.7H0.8V3.1h30.5V23.7z M2.3,22.2h27.5V4.6H2.3V22.2z"/>
	</g>
	<g>
		<rect x="10.3" y="23" fill="#F0F7F7" width="11.5" height="5.2"/>
		<path fill="#8F9BA8" d="M22.5,28.9h-13v-6.7h13V28.9z M11,27.4h10v-3.7H11V27.4z"/>
	</g>
	<g>
		<line fill="#F2E8B9" x1="6.7" y1="28.2" x2="25.3" y2="28.2"/>
		<rect x="6.7" y="27.4" fill="#8F9BA8" width="18.5" height="1.5"/>
	</g>
	<g>
		<polygon fill="#B4A79C" points="16.4,17.5 13,14.1 10.7,16.3 6.4,12 7.5,11 10.7,14.2 13,12 16.4,15.4 22.4,9.3 25.6,12.5 
			24.5,13.6 22.4,11.4 		"/>
	</g>
</g>
</svg>
