<?xml version="1.0" encoding="utf-8"?>
<!-- Generator: Adobe Illustrator 18.0.0, SVG Export Plug-In . SVG Version: 6.00 Build 0)  -->
<!DOCTYPE svg PUBLIC "-//W3C//DTD SVG 1.1//EN" "http://www.w3.org/Graphics/SVG/1.1/DTD/svg11.dtd">
<svg version="1.1" id="Layer_1" xmlns="http://www.w3.org/2000/svg" xmlns:xlink="http://www.w3.org/1999/xlink" x="0px" y="0px"
	 viewBox="0 0 32 32" enable-background="new 0 0 32 32" xml:space="preserve">
<g>
	<g>
		<g>
			<circle fill="#F0F7F7" cx="9" cy="9.9" r="3.5"/>
			<path fill="#8F9BA8" d="M9,14.2c-2.4,0-4.3-1.9-4.3-4.3S6.6,5.6,9,5.6s4.3,1.9,4.3,4.3C13.2,12.3,11.3,14.2,9,14.2z M9,7.2
				c-1.5,0-2.8,1.2-2.8,2.8c0,1.5,1.2,2.8,2.8,2.8c1.5,0,2.8-1.2,2.8-2.8C11.7,8.4,10.5,7.2,9,7.2z"/>
		</g>
		<g>
			<circle fill="#F0F7F7" cx="16" cy="9.9" r="3.5"/>
			<path fill="#8F9BA8" d="M16,14.2c-2.4,0-4.3-1.9-4.3-4.3s1.9-4.3,4.3-4.3s4.3,1.9,4.3,4.3S18.4,14.2,16,14.2z M16,7.2
				c-1.5,0-2.8,1.2-2.8,2.8c0,1.5,1.2,2.8,2.8,2.8c1.5,0,2.8-1.2,2.8-2.8S17.5,7.2,16,7.2z"/>
		</g>
		<g>
			<circle fill="#F0F7F7" cx="23" cy="9.9" r="3.5"/>
			<path fill="#8F9BA8" d="M23,14.2c-2.4,0-4.3-1.9-4.3-4.3s1.9-4.3,4.3-4.3s4.3,1.9,4.3,4.3S25.4,14.2,23,14.2z M23,7.2
				c-1.5,0-2.8,1.2-2.8,2.8c0,1.5,1.2,2.8,2.8,2.8s2.8-1.2,2.8-2.8S24.6,7.2,23,7.2z"/>
		</g>
		<g>
			<circle fill="#F0F7F7" cx="12.5" cy="16" r="3.5"/>
			<path fill="#8F9BA8" d="M12.5,20.3c-2.4,0-4.3-1.9-4.3-4.3s1.9-4.3,4.3-4.3s4.3,1.9,4.3,4.3S14.8,20.3,12.5,20.3z M12.5,13.3
				c-1.5,0-2.8,1.2-2.8,2.8s1.2,2.8,2.8,2.8c1.5,0,2.8-1.2,2.8-2.8S14,13.3,12.5,13.3z"/>
		</g>
		<g>
			<circle fill="#F0F7F7" cx="19.5" cy="16" r="3.5"/>
			<path fill="#8F9BA8" d="M19.5,20.3c-2.4,0-4.3-1.9-4.3-4.3s1.9-4.3,4.3-4.3s4.3,1.9,4.3,4.3S21.9,20.3,19.5,20.3z M19.5,13.3
				c-1.5,0-2.8,1.2-2.8,2.8s1.2,2.8,2.8,2.8c1.5,0,2.8-1.2,2.8-2.8S21,13.3,19.5,13.3z"/>
		</g>
		<g>
			<circle fill="#F0F7F7" cx="16" cy="22.1" r="3.5"/>
			<path fill="#8F9BA8" d="M16,26.4c-2.4,0-4.3-1.9-4.3-4.3s1.9-4.3,4.3-4.3s4.3,1.9,4.3,4.3S18.4,26.4,16,26.4z M16,19.4
				c-1.5,0-2.8,1.2-2.8,2.8c0,1.5,1.2,2.8,2.8,2.8c1.5,0,2.8-1.2,2.8-2.8S17.5,19.4,16,19.4z"/>
		</g>
	</g>
	<g>
		<path fill="#8F9BA8" d="M16,29.9c-2.7,0-5.2-1.4-6.6-3.7L1.9,13.9c-1.5-2.4-1.5-5.3-0.2-7.8c1.4-2.5,3.9-3.9,6.7-3.9h15.1
			c2.8,0,5.3,1.5,6.7,3.9c1.4,2.5,1.3,5.4-0.2,7.8l-7.5,12.3C21.2,28.5,18.7,29.9,16,29.9z M8.5,3.6c-2.3,0-4.3,1.2-5.4,3.2
			S2,11.1,3.2,13.1l7.5,12.3c1.1,1.9,3.1,3,5.3,3s4.2-1.1,5.3-3l7.5-12.3c1.2-1.9,1.2-4.3,0.1-6.3s-3.1-3.2-5.4-3.2
			C23.5,3.6,8.5,3.6,8.5,3.6z"/>
	</g>
</g>
</svg>
