<?xml version="1.0" encoding="utf-8"?>
<!-- Generator: Adobe Illustrator 18.0.0, SVG Export Plug-In . SVG Version: 6.00 Build 0)  -->
<!DOCTYPE svg PUBLIC "-//W3C//DTD SVG 1.1//EN" "http://www.w3.org/Graphics/SVG/1.1/DTD/svg11.dtd">
<svg version="1.1" id="Layer_1" xmlns="http://www.w3.org/2000/svg" xmlns:xlink="http://www.w3.org/1999/xlink" x="0px" y="0px"
	 viewBox="0 0 32 32" enable-background="new 0 0 32 32" xml:space="preserve">
<g>
	<g>
		<path fill="#8F9BA8" d="M16,29.1C8.8,29.1,2.9,23.2,2.9,16C2.9,8.8,8.8,2.9,16,2.9c7.2,0,13.1,5.9,13.1,13.1
			C29.1,23.2,23.2,29.1,16,29.1z M16,4.4C9.6,4.4,4.4,9.6,4.4,16c0,6.4,5.2,11.6,11.6,11.6c6.4,0,11.6-5.2,11.6-11.6
			C27.6,9.6,22.4,4.4,16,4.4z"/>
	</g>
	<g>
		<rect x="15.2" y="1" fill="#8F9BA8" width="1.6" height="5.5"/>
	</g>
	<g>
		<rect x="15.2" y="25.5" fill="#8F9BA8" width="1.6" height="5.5"/>
	</g>
	<g>
		<rect x="25.5" y="15.2" fill="#8F9BA8" width="5.5" height="1.6"/>
	</g>
	<g>
		<rect x="1" y="15.2" fill="#8F9BA8" width="5.5" height="1.6"/>
	</g>
	<g>
		<circle fill="#F0F7F7" cx="16" cy="16" r="2.8"/>
		<path fill="#74B1E0" d="M16,19.6c-2,0-3.6-1.6-3.6-3.6c0-2,1.6-3.6,3.6-3.6c2,0,3.6,1.6,3.6,3.6C19.6,18,18,19.6,16,19.6z M16,14
			c-1.1,0-2,0.9-2,2c0,1.1,0.9,2,2,2c1.1,0,2-0.9,2-2C18,14.9,17.1,14,16,14z"/>
	</g>
</g>
</svg>
