<?xml version="1.0" encoding="utf-8"?>
<!-- Generator: Adobe Illustrator 18.0.0, SVG Export Plug-In . SVG Version: 6.00 Build 0)  -->
<!DOCTYPE svg PUBLIC "-//W3C//DTD SVG 1.1//EN" "http://www.w3.org/Graphics/SVG/1.1/DTD/svg11.dtd">
<svg version="1.1" id="Layer_1" xmlns="http://www.w3.org/2000/svg" xmlns:xlink="http://www.w3.org/1999/xlink" x="0px" y="0px"
	 viewBox="0 0 32 32" enable-background="new 0 0 32 32" xml:space="preserve">
<g>
	<g>
		<path fill="#8F9BA8" d="M20.2,17c-2,0-3.6-2.6-3.6-5.9c0-3.3,1.6-5.9,3.6-5.9c2,0,3.6,2.6,3.6,5.9C23.8,14.4,22.2,17,20.2,17z
			 M20.2,6.8c-1,0-2.1,1.8-2.1,4.4c0,2.6,1.1,4.4,2.1,4.4s2.1-1.8,2.1-4.4C22.3,8.6,21.2,6.8,20.2,6.8z"/>
	</g>
	<g>
		<path fill="#79C693" d="M11.5,31.2c-0.1,0-0.3,0-0.4-0.1c-0.3-0.2-0.4-0.5-0.4-0.8c0.2-0.9,0.1-1.8-0.1-2.7
			c-0.1-0.3,0.1-0.7,0.4-0.9c1.1-0.6,2.4-0.9,3.6-0.9c0.4,0,0.9,0,1.4,0.1c0.3,0.1,0.5,0.3,0.6,0.5c0.1,0.3,0,0.6-0.2,0.8L12,31.1
			C11.8,31.2,11.7,31.2,11.5,31.2z M12.2,27.9c0.1,0.3,0.1,0.6,0.1,0.9l1.6-1.4C13.4,27.5,12.8,27.6,12.2,27.9z"/>
	</g>
	<g>
		<path fill="#79C693" d="M27.9,17.1c-0.1,0-0.2,0-0.2,0c-0.3-0.1-0.4-0.3-0.5-0.6L25.3,6.4c0-0.1,0-0.2-0.1-0.3l-0.1-0.2
			c-0.1-0.3,0-0.5,0.2-0.7C25.5,5,25.7,4.9,26,5c1.8,0.4,3.4,1.6,4.3,3.2c1.6,2.8,1,6.3-1.4,8.3l-0.5,0.4
			C28.3,17,28.1,17.1,27.9,17.1z M26.9,6.9l1.5,8c1.4-1.6,1.7-4,0.6-6C28.5,8,27.8,7.3,26.9,6.9z"/>
	</g>
	<g>
		<path fill="#79C693" d="M10.7,26.6c-0.3,0-0.5-0.1-0.6-0.4c-1-1.7-2.8-2.8-4.7-3c-0.2,0-0.5-0.2-0.6-0.4c-0.1-0.2-0.1-0.5,0-0.7
			c0.8-1.8,0.8-3.9-0.2-5.6c-0.7-1.2-1.8-2.2-3.2-2.7c-0.3-0.1-0.5-0.4-0.5-0.7c0-0.3,0.2-0.6,0.5-0.7l12.4-4.3
			c0.3-0.1,0.5,0,0.7,0.1c0.2,0.2,0.3,0.4,0.2,0.7l-3.3,17c-0.1,0.3-0.3,0.5-0.6,0.6C10.8,26.6,10.7,26.6,10.7,26.6z M6.4,21.9
			c1.5,0.3,2.8,1.1,3.8,2.2L13,10l-9.5,3.3c1,0.6,1.8,1.5,2.3,2.5C6.8,17.7,7.1,19.9,6.4,21.9z"/>
	</g>
	<g>
		<path fill="#8F9BA8" d="M20.2,30.3L20.2,30.3c-0.2,0-0.5-0.1-0.6-0.3c-0.9-1.3-2.3-2.2-3.9-2.5c-0.4-0.1-0.8-0.1-1.1-0.1
			c-1,0-2,0.3-2.9,0.8c-0.4,0.2-0.7,0.4-1,0.7c-0.2,0.2-0.6,0.2-0.9,0.1c-0.3-0.2-0.4-0.5-0.4-0.8l4.2-21.9C14.3,3,17,0.8,20.2,0.8
			c2.9,0,5.5,2,6.3,4.8l0,0.2c0,0.2,0.1,0.3,0.1,0.5L31,28.1c0.1,0.3-0.1,0.6-0.4,0.8C30.3,29,30,29,29.7,28.8
			c-1.1-0.9-2.5-1.4-3.9-1.4c-2,0-3.8,1-5,2.6C20.7,30.1,20.5,30.3,20.2,30.3z M14.6,25.8c0.4,0,0.9,0,1.4,0.1
			c1.6,0.3,3.1,1.1,4.2,2.3c1.4-1.6,3.5-2.5,5.6-2.5c1.2,0,2.3,0.3,3.3,0.8L25.3,6.4c0-0.1-0.1-0.2-0.1-0.3l-0.1-0.2
			c-0.6-2.2-2.6-3.7-4.9-3.7c-2.5,0-4.6,1.7-5,4.2l-3.9,20.2C12.3,26.1,13.5,25.8,14.6,25.8z"/>
	</g>
</g>
</svg>
