<?xml version="1.0" encoding="utf-8"?>
<!-- Generator: Adobe Illustrator 18.0.0, SVG Export Plug-In . SVG Version: 6.00 Build 0)  -->
<!DOCTYPE svg PUBLIC "-//W3C//DTD SVG 1.1//EN" "http://www.w3.org/Graphics/SVG/1.1/DTD/svg11.dtd">
<svg version="1.1" id="Layer_1" xmlns="http://www.w3.org/2000/svg" xmlns:xlink="http://www.w3.org/1999/xlink" x="0px" y="0px"
	 viewBox="0 0 32 32" enable-background="new 0 0 32 32" xml:space="preserve">
<g>
	<g>
		<path fill="#8F9BA8" d="M28.8,9.1H1.4V0.7h27.4V9.1z M2.9,7.6h24.4V2.2H2.9V7.6z"/>
	</g>
	<g>
		<rect x="20.4" y="4.2" fill="#8F9BA8" width="1.5" height="1.5"/>
	</g>
	<g>
		<rect x="23.9" y="4.2" fill="#8F9BA8" width="1.5" height="1.5"/>
	</g>
	<g>
		<rect x="5.1" y="4.2" fill="#8F9BA8" width="3.9" height="1.5"/>
	</g>
	<g>
		<path fill="#8F9BA8" d="M18.9,26.1H1.4V7.6h27.4v14.5l-1.3-1.2c-1-0.9-2.2-1.5-3.6-1.5c-2.8,0-5.2,2.3-5.2,5.2c0,0.2,0,0.4,0,0.6
			L18.9,26.1z M2.9,24.6h14.4c0-3.7,3-6.6,6.7-6.6c1.2,0,2.4,0.3,3.4,0.9V9.1H2.9V24.6z"/>
	</g>
	<g>
		<path fill="#79C693" d="M23.9,31.2c-3.4,0-6.2-2.5-6.6-5.8c0-0.3-0.1-0.5-0.1-0.8c0-3.7,3-6.7,6.7-6.7c1.7,0,3.4,0.7,4.6,1.9
			c1.3,1.3,2,3,2,4.8C30.6,28.3,27.6,31.2,23.9,31.2z M23.9,19.4c-2.8,0-5.2,2.3-5.2,5.2c0,0.2,0,0.4,0,0.6c0.3,2.6,2.5,4.5,5.1,4.5
			c2.8,0,5.2-2.3,5.2-5.2c0-1.4-0.6-2.7-1.6-3.7C26.6,20,25.3,19.4,23.9,19.4z"/>
	</g>
	<g>
		<rect x="20" y="23.8" fill="#79C693" width="7.8" height="1.5"/>
	</g>
</g>
</svg>
