<?xml version="1.0" encoding="utf-8"?>
<!-- Generator: Adobe Illustrator 18.0.0, SVG Export Plug-In . SVG Version: 6.00 Build 0)  -->
<!DOCTYPE svg PUBLIC "-//W3C//DTD SVG 1.1//EN" "http://www.w3.org/Graphics/SVG/1.1/DTD/svg11.dtd">
<svg version="1.1" id="Layer_1" xmlns="http://www.w3.org/2000/svg" xmlns:xlink="http://www.w3.org/1999/xlink" x="0px" y="0px"
	 viewBox="0 0 32 32" enable-background="new 0 0 32 32" xml:space="preserve">
<pattern  x="-126" y="-252" width="24.1" height="24.1" patternUnits="userSpaceOnUse" id="New_Pattern_Swatch_2" viewBox="0 -24.1 24.1 24.1" overflow="visible">
	<g>
		<polygon fill="none" points="0,0 24.1,0 24.1,-24.1 0,-24.1 		"/>
		<polygon fill="#E0CB81" points="24.1,0 0,0 0,-24.1 24.1,-24.1 		"/>
	</g>
</pattern>
<g>
	<g>
		<line fill="#FFFFFF" x1="6.7" y1="28.2" x2="25.3" y2="28.2"/>
		<rect x="6.7" y="27.4" fill="#8F9BA8" width="18.5" height="1.5"/>
	</g>
	<g>
		<path fill="#FFFFFF" d="M1.5,3.8V23h8.8h8.8c-0.8-1-1.2-2.3-1.2-3.7c0-3.5,2.8-6.3,6.3-6.3c3.5,0,6.3,2.8,6.3,6.3V3.8H1.5z"/>
		<path fill="#8F9BA8" d="M20.6,23.7H0.8V3.1h30.5v16.1h-1.5c0-3.1-2.5-5.6-5.6-5.6c-3.1,0-5.6,2.5-5.6,5.6c0,1.2,0.4,2.3,1.1,3.3
			L20.6,23.7z M2.3,22.2h15.5c-0.4-0.9-0.7-1.9-0.7-3c0-3.9,3.2-7.1,7.1-7.1c2.3,0,4.3,1.1,5.6,2.7V4.6H2.3V22.2z"/>
	</g>
	<g>
		<path fill="#FFFFFF" d="M19.1,23h-8.8v5.2h11.5v-3.1C20.7,24.6,19.8,23.9,19.1,23z"/>
		<path fill="#8F9BA8" d="M22.5,28.9h-13v-6.7h9.9l0.2,0.3c0.6,0.8,1.4,1.5,2.3,1.9l0.5,0.2V28.9z M11,27.4h10v-1.9
			c-0.9-0.4-1.6-1.1-2.3-1.8H11V27.4z"/>
	</g>
	<g>
		<g>
			<defs>
				<path id="SVGID_1_" d="M24.2,12.9c-3.5,0-6.3,2.8-6.3,6.3c0,1.4,0.5,2.7,1.2,3.7c0.7,0.9,1.6,1.7,2.6,2.1
					c0.8,0.3,1.6,0.5,2.5,0.5c2.1,0,3.9-1,5.1-2.6c0.8-1,1.2-2.3,1.2-3.7C30.5,15.8,27.7,12.9,24.2,12.9z"/>
			</defs>
			<clipPath id="SVGID_2_">
				<use xlink:href="#SVGID_1_"  overflow="visible"/>
			</clipPath>
			<g clip-path="url(#SVGID_2_)">
				<rect x="23.5" y="-8.8" fill="none" width="24.1" height="24.1"/>
				<rect x="23.5" y="-8.8" fill="#FEE99B" width="24.1" height="24.1"/>
			</g>
			<g clip-path="url(#SVGID_2_)">
				<rect x="23.5" y="15.3" fill="none" width="24.1" height="24.1"/>
				<rect x="23.5" y="15.3" fill="#FEE99B" width="24.1" height="24.1"/>
			</g>
			<g clip-path="url(#SVGID_2_)">
				<rect x="-0.7" y="-8.8" fill="none" width="24.1" height="24.1"/>
				<rect x="-0.7" y="-8.8" fill="#FEE99B" width="24.1" height="24.1"/>
			</g>
			<g clip-path="url(#SVGID_2_)">
				<rect x="-0.7" y="15.3" fill="none" width="24.1" height="24.1"/>
				<rect x="-0.7" y="15.3" fill="#FEE99B" width="24.1" height="24.1"/>
			</g>
		</g>
		<pattern  id="SVGID_4_" xlink:href="#New_Pattern_Swatch_2" patternTransform="matrix(1 0 0 1 -15.129 -20.83)">
		</pattern>
		<path fill="url(#SVGID_4_)" d="M24.2,26.3c-1,0-1.9-0.2-2.8-0.6c-1.2-0.5-2.2-1.3-2.9-2.3c-0.9-1.2-1.4-2.7-1.4-4.2
			c0-3.9,3.2-7.1,7.1-7.1c3.9,0,7.1,3.2,7.1,7.1c0,1.5-0.5,2.9-1.4,4.2C28.6,25.2,26.4,26.3,24.2,26.3z M24.2,13.7
			c-3.1,0-5.6,2.5-5.6,5.6c0,1.2,0.4,2.3,1.1,3.3c0.6,0.8,1.4,1.5,2.3,1.8c0.7,0.3,1.4,0.4,2.2,0.4c1.8,0,3.4-0.9,4.5-2.3
			c0.7-1,1.1-2.1,1.1-3.3C29.8,16.2,27.3,13.7,24.2,13.7z"/>
	</g>
	<g>
		<g>
			<defs>
				<line id="SVGID_3_" x1="27.9" y1="19.2" x2="20.5" y2="19.2"/>
			</defs>
			<clipPath id="SVGID_5_">
				<use xlink:href="#SVGID_3_"  overflow="visible"/>
			</clipPath>
			<g clip-path="url(#SVGID_5_)">
				<rect x="23.5" y="15.3" fill="none" width="24.1" height="24.1"/>
				<rect x="23.5" y="15.3" fill="#FEE99B" width="24.1" height="24.1"/>
			</g>
			<g clip-path="url(#SVGID_5_)">
				<rect x="-0.7" y="15.3" fill="none" width="24.1" height="24.1"/>
				<rect x="-0.7" y="15.3" fill="#FEE99B" width="24.1" height="24.1"/>
			</g>
		</g>
		<pattern  id="SVGID_6_" xlink:href="#New_Pattern_Swatch_2" patternTransform="matrix(1 0 0 1 -15.129 -20.83)">
		</pattern>
		<rect x="20.5" y="18.5" fill="url(#SVGID_6_)" width="7.4" height="1.5"/>
	</g>
</g>
</svg>
