<?xml version="1.0" encoding="utf-8"?>
<!-- Generator: Adobe Illustrator 18.0.0, SVG Export Plug-In . SVG Version: 6.00 Build 0)  -->
<!DOCTYPE svg PUBLIC "-//W3C//DTD SVG 1.1//EN" "http://www.w3.org/Graphics/SVG/1.1/DTD/svg11.dtd">
<svg version="1.1" id="Layer_1" xmlns="http://www.w3.org/2000/svg" xmlns:xlink="http://www.w3.org/1999/xlink" x="0px" y="0px"
	 viewBox="0 0 32 32" enable-background="new 0 0 32 32" xml:space="preserve">
<g>
	<g>
		<circle fill="#FFFFFF" cx="16" cy="16" r="5.3"/>
		<path fill="#B4A79C" d="M16,22.1c-3.4,0-6.1-2.7-6.1-6.1s2.7-6.1,6.1-6.1s6.1,2.7,6.1,6.1S19.4,22.1,16,22.1z M16,11.4
			c-2.5,0-4.6,2.1-4.6,4.6c0,2.5,2.1,4.6,4.6,4.6c2.5,0,4.6-2.1,4.6-4.6C20.6,13.5,18.5,11.4,16,11.4z"/>
	</g>
	<g>
		<line fill="#FFFFFF" x1="16" y1="10.7" x2="16" y2="6.1"/>
		<rect x="15.3" y="6.1" fill="#B4A79C" width="1.5" height="4.5"/>
	</g>
	<g>
		<circle fill="#FFFFFF" cx="16" cy="3.9" r="2.4"/>
		<path fill="#B4A79C" d="M16,7.1c-1.8,0-3.2-1.4-3.2-3.2s1.4-3.2,3.2-3.2c1.8,0,3.2,1.4,3.2,3.2S17.8,7.1,16,7.1z M16,2.2
			c-0.9,0-1.7,0.8-1.7,1.7c0,0.9,0.8,1.7,1.7,1.7c0.9,0,1.7-0.8,1.7-1.7C17.7,3,16.9,2.2,16,2.2z"/>
	</g>
	<g>
		<line fill="#FFFFFF" x1="16" y1="21.3" x2="16" y2="25.9"/>
		<rect x="15.3" y="21.3" fill="#B4A79C" width="1.5" height="4.5"/>
	</g>
	<g>
		<circle fill="#FFFFFF" cx="16" cy="28.1" r="2.4"/>
		<path fill="#B4A79C" d="M16,31.2c-1.8,0-3.2-1.4-3.2-3.2c0-1.8,1.4-3.2,3.2-3.2c1.8,0,3.2,1.4,3.2,3.2
			C19.2,29.8,17.8,31.2,16,31.2z M16,26.4c-0.9,0-1.7,0.8-1.7,1.7c0,0.9,0.8,1.7,1.7,1.7c0.9,0,1.7-0.8,1.7-1.7
			C17.7,27.1,16.9,26.4,16,26.4z"/>
	</g>
	<g>
		<line fill="#FFFFFF" x1="10.7" y1="16" x2="6.1" y2="16"/>
		<rect x="6.1" y="15.3" fill="#B4A79C" width="4.5" height="1.5"/>
	</g>
	<g>
		<circle fill="#FFFFFF" cx="3.9" cy="16" r="2.4"/>
		<path fill="#B4A79C" d="M3.9,19.2c-1.8,0-3.2-1.4-3.2-3.2s1.4-3.2,3.2-3.2c1.8,0,3.2,1.4,3.2,3.2S5.7,19.2,3.9,19.2z M3.9,14.3
			c-0.9,0-1.7,0.8-1.7,1.7c0,0.9,0.8,1.7,1.7,1.7s1.7-0.8,1.7-1.7C5.6,15.1,4.9,14.3,3.9,14.3z"/>
	</g>
	<g>
		<line fill="#FFFFFF" x1="21.3" y1="16" x2="25.9" y2="16"/>
		<rect x="21.3" y="15.3" fill="#B4A79C" width="4.5" height="1.5"/>
	</g>
	<g>
		<circle fill="#FFFFFF" cx="28.1" cy="16" r="2.4"/>
		<path fill="#B4A79C" d="M28.1,19.2c-1.8,0-3.2-1.4-3.2-3.2s1.4-3.2,3.2-3.2c1.8,0,3.2,1.4,3.2,3.2S29.8,19.2,28.1,19.2z
			 M28.1,14.3c-0.9,0-1.7,0.8-1.7,1.7c0,0.9,0.8,1.7,1.7,1.7c0.9,0,1.7-0.8,1.7-1.7C29.8,15.1,29,14.3,28.1,14.3z"/>
	</g>
	<g>
		<line fill="#FFFFFF" x1="12.2" y1="12.2" x2="9" y2="9"/>
		
			<rect x="8.4" y="9.9" transform="matrix(0.7071 0.7071 -0.7071 0.7071 10.6216 -4.3996)" fill="#B4A79C" width="4.5" height="1.5"/>
	</g>
	<g>
		<circle fill="#FFFFFF" cx="7.5" cy="7.5" r="2.4"/>
		<path fill="#B4A79C" d="M7.5,10.7c-0.9,0-1.7-0.3-2.3-0.9C4.6,9.1,4.3,8.3,4.3,7.5c0-0.9,0.3-1.7,0.9-2.3C6.4,4,8.5,4,9.7,5.2
			c0.6,0.6,0.9,1.4,0.9,2.3c0,0.9-0.3,1.7-0.9,2.3C9.1,10.3,8.3,10.7,7.5,10.7z M7.5,5.8C7,5.8,6.6,6,6.3,6.3C6,6.6,5.8,7,5.8,7.5
			c0,0.5,0.2,0.9,0.5,1.2c0.6,0.6,1.8,0.6,2.4,0C9,8.3,9.2,7.9,9.2,7.5C9.2,7,9,6.6,8.7,6.3C8.3,6,7.9,5.8,7.5,5.8z"/>
	</g>
	<g>
		<line fill="#FFFFFF" x1="19.8" y1="19.8" x2="23" y2="23"/>
		
			<rect x="19.1" y="20.6" transform="matrix(0.7071 0.7071 -0.7071 0.7071 21.3774 -8.8549)" fill="#B4A79C" width="4.5" height="1.5"/>
	</g>
	<g>
		<circle fill="#FFFFFF" cx="24.5" cy="24.5" r="2.4"/>
		<path fill="#B4A79C" d="M24.5,27.7c-0.9,0-1.7-0.3-2.3-0.9c-1.2-1.2-1.2-3.3,0-4.5c1.2-1.2,3.3-1.2,4.5,0c1.2,1.2,1.2,3.3,0,4.5
			C26.2,27.4,25.4,27.7,24.5,27.7z M24.5,22.8c-0.5,0-0.9,0.2-1.2,0.5c-0.7,0.7-0.7,1.7,0,2.4c0.6,0.6,1.8,0.6,2.4,0
			c0.7-0.7,0.7-1.7,0-2.4C25.4,23,25,22.8,24.5,22.8z"/>
	</g>
	<g>
		<line fill="#FFFFFF" x1="12.2" y1="19.8" x2="9" y2="23"/>
		
			<rect x="9.9" y="19.1" transform="matrix(0.7071 0.7071 -0.7071 0.7071 18.2272 -1.2493)" fill="#B4A79C" width="1.5" height="4.5"/>
	</g>
	<g>
		<circle fill="#FFFFFF" cx="7.5" cy="24.5" r="2.4"/>
		<path fill="#B4A79C" d="M7.5,27.7c-0.9,0-1.7-0.3-2.3-0.9c-1.2-1.2-1.2-3.3,0-4.5c1.2-1.2,3.3-1.2,4.5,0c1.2,1.2,1.2,3.3,0,4.5
			C9.1,27.4,8.3,27.7,7.5,27.7z M7.5,22.8c-0.5,0-0.9,0.2-1.2,0.5c-0.7,0.7-0.7,1.7,0,2.4c0.6,0.6,1.8,0.6,2.4,0
			c0.7-0.7,0.7-1.7,0-2.4C8.3,23,7.9,22.8,7.5,22.8z"/>
	</g>
	<g>
		<line fill="#FFFFFF" x1="19.8" y1="12.2" x2="23" y2="9"/>
		
			<rect x="20.6" y="8.4" transform="matrix(0.7071 0.7071 -0.7071 0.7071 13.773 -12.0056)" fill="#B4A79C" width="1.5" height="4.5"/>
	</g>
	<g>
		<circle fill="#FFFFFF" cx="24.5" cy="7.5" r="2.4"/>
		<path fill="#B4A79C" d="M24.5,10.7c-0.9,0-1.7-0.3-2.3-0.9c-1.2-1.2-1.2-3.3,0-4.5c1.2-1.2,3.3-1.2,4.5,0c0.6,0.6,0.9,1.4,0.9,2.3
			c0,0.9-0.3,1.7-0.9,2.3C26.2,10.3,25.4,10.7,24.5,10.7z M24.5,5.8c-0.5,0-0.9,0.2-1.2,0.5c-0.7,0.7-0.7,1.7,0,2.4
			c0.6,0.6,1.8,0.6,2.4,0c0.7-0.7,0.7-1.7,0-2.4C25.4,6,25,5.8,24.5,5.8z"/>
	</g>
</g>
</svg>
