<?xml version="1.0" encoding="utf-8"?>
<!-- Generator: Adobe Illustrator 18.0.0, SVG Export Plug-In . SVG Version: 6.00 Build 0)  -->
<!DOCTYPE svg PUBLIC "-//W3C//DTD SVG 1.1//EN" "http://www.w3.org/Graphics/SVG/1.1/DTD/svg11.dtd">
<svg version="1.1" id="Layer_1" xmlns="http://www.w3.org/2000/svg" xmlns:xlink="http://www.w3.org/1999/xlink" x="0px" y="0px"
	 viewBox="0 0 32 32" enable-background="new 0 0 32 32" xml:space="preserve">
<g>
	<g>
		<path fill="#8F9BA8" d="M28.8,9.1H1.4V0.7h27.4V9.1z M2.9,7.6h24.4V2.2H2.9V7.6z"/>
	</g>
	<g>
		<rect x="20.4" y="4.2" fill="#8F9BA8" width="1.5" height="1.5"/>
	</g>
	<g>
		<rect x="23.9" y="4.2" fill="#8F9BA8" width="1.5" height="1.5"/>
	</g>
	<g>
		<rect x="5.1" y="4.2" fill="#8F9BA8" width="3.9" height="1.5"/>
	</g>
	<g>
		<path fill="#8F9BA8" d="M18.9,26.1H1.4V7.6h27.4v14.5l-1.3-1.2c-1-0.9-2.2-1.5-3.6-1.5c-2.8,0-5.2,2.3-5.2,5.2c0,0.2,0,0.4,0,0.6
			L18.9,26.1z M2.9,24.6h14.4c0-3.7,3-6.6,6.7-6.6c1.2,0,2.4,0.3,3.4,0.9V9.1H2.9V24.6z"/>
	</g>
	<g>
		<path fill="#CDE4F7" d="M28.1,20.4c-1.1-1-2.5-1.7-4.1-1.7c-3.3,0-5.9,2.6-5.9,5.9c0,0.2,0,0.5,0.1,0.7c0.4,2.9,2.8,5.2,5.9,5.2
			c3.3,0,5.9-2.6,5.9-5.9C29.8,22.9,29.2,21.4,28.1,20.4z"/>
		<path fill="#74B1E0" d="M23.9,31.2c-3.4,0-6.2-2.5-6.6-5.8c0-0.3-0.1-0.5-0.1-0.8c0-3.7,3-6.7,6.7-6.7c1.7,0,3.4,0.7,4.6,1.9
			c1.3,1.3,2,3,2,4.8C30.6,28.3,27.6,31.2,23.9,31.2z M23.9,19.4c-2.8,0-5.2,2.3-5.2,5.2c0,0.2,0,0.4,0,0.6c0.3,2.6,2.5,4.5,5.1,4.5
			c2.8,0,5.2-2.3,5.2-5.2c0-1.4-0.6-2.7-1.6-3.7C26.6,20,25.3,19.4,23.9,19.4z"/>
	</g>
	<g>
		<polygon fill="#CDE4F7" points="23.9,20.8 25,23 27.5,23.4 25.7,25.1 26.1,27.5 23.9,26.4 21.8,27.5 22.2,25.1 20.4,23.4 22.8,23 
					"/>
		<path fill="#74B1E0" d="M26.1,28.3c-0.1,0-0.2,0-0.3-0.1l-1.8-1l-1.8,1c-0.3,0.1-0.6,0.1-0.8-0.1C21.1,28,21,27.7,21,27.4l0.3-2
			L19.8,24c-0.2-0.2-0.3-0.5-0.2-0.8c0.1-0.3,0.3-0.5,0.6-0.5l2-0.3l0.9-1.9c0.3-0.5,1.1-0.5,1.3,0l0.9,1.9l2,0.3
			c0.3,0,0.5,0.2,0.6,0.5s0,0.6-0.2,0.8l-1.5,1.4l0.4,2c0,0.3-0.1,0.6-0.3,0.7C26.4,28.2,26.3,28.3,26.1,28.3z M23.9,25.6
			c0.1,0,0.2,0,0.3,0.1l0.8,0.4l0-0.9c0-0.2,0-0.5,0.2-0.7l0.7-0.7L25,23.7c-0.2,0-0.5-0.2-0.6-0.4L24,22.5l-0.4,0.8
			c-0.1,0.2-0.3,0.4-0.6,0.4l-1,0.2l0.7,0.7c0.2,0.2,0.3,0.4,0.2,0.7l-0.2,0.9l0.8-0.4C23.7,25.7,23.8,25.6,23.9,25.6z"/>
	</g>
</g>
</svg>
