<?xml version="1.0" encoding="utf-8"?>
<!-- Generator: Adobe Illustrator 18.0.0, SVG Export Plug-In . SVG Version: 6.00 Build 0)  -->
<!DOCTYPE svg PUBLIC "-//W3C//DTD SVG 1.1//EN" "http://www.w3.org/Graphics/SVG/1.1/DTD/svg11.dtd">
<svg version="1.1" id="Layer_1" xmlns="http://www.w3.org/2000/svg" xmlns:xlink="http://www.w3.org/1999/xlink" x="0px" y="0px"
	 viewBox="0 0 32 32" enable-background="new 0 0 32 32" xml:space="preserve">
<g>
	<g>
		<polygon fill="#F9F8F2" points="5.4,5.5 5.4,12.2 5.4,30.5 30.4,30.5 30.4,12.2 30.4,5.5 		"/>
		<path fill="#B4A79C" d="M31.2,31.2H4.7V4.8h26.5V31.2z M6.2,29.7h23.5V6.3H6.2V29.7z"/>
	</g>
	<g>
		<rect x="1.6" y="1.5" fill="#F0F7F7" width="25" height="6.6"/>
		<path fill="#8F9BA8" d="M27.3,8.9H0.8V0.7h26.5V8.9z M2.3,7.4h23.5V2.2H2.3V7.4z"/>
	</g>
	<g>
		<rect x="1.6" y="8.1" fill="#FFFFFF" width="25" height="18.3"/>
		<path fill="#8F9BA8" d="M27.3,27.2H0.8V7.4h26.5V27.2z M2.3,25.7h23.5V8.9H2.3V25.7z"/>
	</g>
	<g>
		<rect x="19.1" y="4.1" fill="#8F9BA8" width="1.5" height="1.4"/>
	</g>
	<g>
		<rect x="22.5" y="4.1" fill="#8F9BA8" width="1.5" height="1.4"/>
	</g>
	<g>
		<rect x="4.5" y="4.1" fill="#8F9BA8" width="3.8" height="1.5"/>
	</g>
</g>
</svg>
