<?xml version="1.0" encoding="utf-8"?>
<!-- Generator: Adobe Illustrator 18.0.0, SVG Export Plug-In . SVG Version: 6.00 Build 0)  -->
<!DOCTYPE svg PUBLIC "-//W3C//DTD SVG 1.1//EN" "http://www.w3.org/Graphics/SVG/1.1/DTD/svg11.dtd">
<svg version="1.1" id="Layer_1" xmlns="http://www.w3.org/2000/svg" xmlns:xlink="http://www.w3.org/1999/xlink" x="0px" y="0px"
	 viewBox="0 0 32 32" enable-background="new 0 0 32 32" xml:space="preserve">
<g>
	<g>
		<path fill="#8F9BA8" d="M31.3,31.2H0.8V8.4h30.5V31.2z M2.3,29.7h27.5V9.9H2.3V29.7z"/>
	</g>
	<g>
		<rect x="1.5" y="1.5" fill="#F0F7F7" width="29" height="7.7"/>
		<path fill="#8F9BA8" d="M31.3,9.9H0.8V0.7h30.5V9.9z M2.3,8.4h27.5V2.2H2.3V8.4z"/>
	</g>
	<g>
		<line fill="#F0F7F7" x1="22.7" y1="4.5" x2="22.7" y2="6.2"/>
		<rect x="22" y="4.5" fill="#8F9BA8" width="1.5" height="1.7"/>
	</g>
	<g>
		<line fill="#F0F7F7" x1="26.7" y1="4.5" x2="26.7" y2="6.2"/>
		<rect x="25.9" y="4.5" fill="#8F9BA8" width="1.5" height="1.7"/>
	</g>
	<g>
		<line fill="#F0F7F7" x1="9.2" y1="5.3" x2="4.8" y2="5.3"/>
		<rect x="4.8" y="4.6" fill="#8F9BA8" width="4.4" height="1.5"/>
	</g>
	<g>
		<path fill="#79C693" d="M10.6,25.9c-3.3,0-6-2.7-6-6c0-3.3,2.7-6,6-6c1.5,0,3,0.6,4.1,1.7l-1,1.1c-0.8-0.8-1.9-1.2-3.1-1.2
			c-2.5,0-4.5,2-4.5,4.5c0,2.5,2,4.5,4.5,4.5c1.2,0,2.3-0.4,3.1-1.2l1,1.1C13.6,25.3,12.1,25.9,10.6,25.9z"/>
	</g>
	<g>
		<rect x="16.6" y="17.4" fill="#79C693" width="1.5" height="4.8"/>
	</g>
	<g>
		<rect x="14.9" y="19.1" fill="#79C693" width="4.8" height="1.5"/>
	</g>
	<g>
		<rect x="23.5" y="17.4" fill="#79C693" width="1.5" height="4.8"/>
	</g>
	<g>
		<rect x="21.8" y="19.1" fill="#79C693" width="4.8" height="1.5"/>
	</g>
</g>
</svg>
