<?xml version="1.0" encoding="utf-8"?>
<!-- Generator: Adobe Illustrator 18.0.0, SVG Export Plug-In . SVG Version: 6.00 Build 0)  -->
<!DOCTYPE svg PUBLIC "-//W3C//DTD SVG 1.1//EN" "http://www.w3.org/Graphics/SVG/1.1/DTD/svg11.dtd">
<svg version="1.1" id="Layer_1" xmlns="http://www.w3.org/2000/svg" xmlns:xlink="http://www.w3.org/1999/xlink" x="0px" y="0px"
	 viewBox="0 0 32 32" enable-background="new 0 0 32 32" xml:space="preserve">
<g>
	<g>
		<path fill="#8F9BA8" d="M11.1,25v-0.8c0-2-0.8-3.8-2.2-5.1c-2.5-2.2-3.7-5.4-3.5-8.8c0.4-5.2,4.7-9.4,9.9-9.7
			c6.2-0.4,11.3,4.5,11.3,10.6c0,2.9-1.2,5.8-3.4,7.8c-1.4,1.3-2.3,3.2-2.3,5.1V25L11.1,25z M16,2.2c-0.2,0-0.4,0-0.6,0
			c-4.5,0.3-8.1,3.9-8.5,8.3c-0.2,2.9,0.9,5.6,3,7.5c1.5,1.4,2.4,3.3,2.6,5.4l6.9,0c0.2-2.1,1.1-4,2.7-5.5c1.9-1.7,2.9-4.2,2.9-6.7
			C25.1,6.3,21,2.2,16,2.2z"/>
	</g>
	<g>
		<rect x="15.2" y="14.1" fill="#DA8C8C" width="1.5" height="10.2"/>
	</g>
	<g>
		<polygon fill="#DA8C8C" points="16,15.3 11.2,10.5 12.3,9.4 16,13.2 19.7,9.4 20.8,10.5 		"/>
	</g>
	<g>
		<line fill="#F2E8B9" x1="20.2" y1="26.9" x2="22.4" y2="26.9"/>
		<rect x="20.2" y="26.1" fill="#B4A042" width="2.2" height="1.5"/>
	</g>
	<g>
		<line fill="#F2E8B9" x1="9.6" y1="26.9" x2="11.8" y2="26.9"/>
		<rect x="9.6" y="26.1" fill="#B4A042" width="2.2" height="1.5"/>
	</g>
	<g>
		<path fill="#F2E8B9" d="M11.8,24.3V29c0,0.8,0.7,1.5,1.5,1.5h5.3c0.8,0,1.5-0.7,1.5-1.5v-4.7L11.8,24.3z"/>
		<path fill="#B4A042" d="M18.7,31.2h-5.3c-1.3,0-2.3-1-2.3-2.3v-5.5l9.9,0V29C20.9,30.2,19.9,31.2,18.7,31.2z M12.6,25v4
			c0,0.4,0.3,0.8,0.8,0.8h5.3c0.4,0,0.8-0.3,0.8-0.8v-4L12.6,25z"/>
	</g>
</g>
</svg>
