<?xml version="1.0" encoding="utf-8"?>
<!-- Generator: Adobe Illustrator 18.0.0, SVG Export Plug-In . SVG Version: 6.00 Build 0)  -->
<!DOCTYPE svg PUBLIC "-//W3C//DTD SVG 1.1//EN" "http://www.w3.org/Graphics/SVG/1.1/DTD/svg11.dtd">
<svg version="1.1" id="Layer_1" xmlns="http://www.w3.org/2000/svg" xmlns:xlink="http://www.w3.org/1999/xlink" x="0px" y="0px"
	 viewBox="0 0 32 32" enable-background="new 0 0 32 32" xml:space="preserve">
<g>
	<g>
		<path fill="#F0F7F7" d="M25.9,30.5c0.1-0.7,0.2-1.4,0.2-2.1c0-5.6-4.5-10.1-10.1-10.1c-5.6,0-10.1,4.5-10.1,10.1
			c0,0.7,0.1,1.4,0.2,2.1H25.9z"/>
		<path fill="#8F9BA8" d="M26.5,31.2h-21l-0.1-0.6c-0.2-0.8-0.2-1.5-0.2-2.3c0-6,4.9-10.9,10.9-10.9c6,0,10.9,4.9,10.9,10.9
			c0,0.8-0.1,1.5-0.2,2.3L26.5,31.2z M6.7,29.7h18.6c0.1-0.5,0.1-0.9,0.1-1.4c0-5.2-4.2-9.4-9.4-9.4c-5.2,0-9.4,4.2-9.4,9.4
			C6.6,28.8,6.7,29.3,6.7,29.7z"/>
	</g>
	<g>
		<polyline fill="#F0F7F7" points="20.4,22.6 19.6,24.1 16,30.5 		"/>
		<rect x="17.5" y="22" transform="matrix(0.8712 0.491 -0.491 0.8712 15.3853 -5.5263)" fill="#8F9BA8" width="1.5" height="9.1"/>
	</g>
	<g>
		<rect x="1.5" y="1.5" fill="#F9F8F2" width="29" height="7.7"/>
		<path fill="#B4A79C" d="M31.3,9.9H0.8V0.7h30.5V9.9z M2.3,8.4h27.5V2.2H2.3V8.4z"/>
	</g>
	<g>
		<path fill="#B4A79C" d="M31.3,31.2H0.8V8.4h30.5V31.2z M2.3,29.7h27.5V9.9H2.3V29.7z"/>
	</g>
	<g>
		<line fill="#F2E8B9" x1="22.7" y1="4.5" x2="22.7" y2="6.2"/>
		<rect x="22" y="4.5" fill="#B4A79C" width="1.5" height="1.7"/>
	</g>
	<g>
		<line fill="#F2E8B9" x1="26.7" y1="4.5" x2="26.7" y2="6.2"/>
		<rect x="25.9" y="4.5" fill="#B4A79C" width="1.5" height="1.7"/>
	</g>
	<g>
		<rect x="4.8" y="4.6" fill="#B4A79C" width="4.4" height="1.5"/>
	</g>
</g>
</svg>
