<?xml version="1.0" encoding="utf-8"?>
<!-- Generator: Adobe Illustrator 18.0.0, SVG Export Plug-In . SVG Version: 6.00 Build 0)  -->
<!DOCTYPE svg PUBLIC "-//W3C//DTD SVG 1.1//EN" "http://www.w3.org/Graphics/SVG/1.1/DTD/svg11.dtd">
<svg version="1.1" id="Layer_1" xmlns="http://www.w3.org/2000/svg" xmlns:xlink="http://www.w3.org/1999/xlink" x="0px" y="0px"
	 viewBox="0 0 32 32" enable-background="new 0 0 32 32" xml:space="preserve">
<g>
	<g>
		<path fill="#8F9BA8" d="M25,31.2H7l1.2-1.5c-0.6-0.9-1-2-1.3-3.1l-2.1-0.3V23l2.1-0.2c0.2-1.1,0.7-2.1,1.3-3.1L6.8,18l2.5-2.5
			l1.7,1.3c0.9-0.6,2-1,3.1-1.3l0.2-2.1h3.5l0.2,2.1c1.1,0.2,2.1,0.7,3.1,1.3l1.7-1.3l2.5,2.5L24,19.7c0.6,0.9,1,2,1.3,3.1l2.1,0.2
			v3.5l-2.1,0.2c-0.2,1.1-0.7,2.1-1.3,3.1L25,31.2z M10,29.7h12l0.3-0.4c0.7-1,1.2-2.2,1.4-3.5l0.1-0.6l1.9-0.2v-0.8L23.8,24
			l-0.1-0.6c-0.2-1.2-0.7-2.4-1.4-3.5L22,19.6l1.2-1.5l-0.6-0.6l-1.5,1.2l-0.5-0.3c-1-0.7-2.2-1.2-3.5-1.4l-0.6-0.1L16.3,15h-0.8
			l-0.2,1.9L14.7,17c-1.2,0.2-2.4,0.7-3.5,1.4l-0.5,0.3l-1.5-1.2l-0.6,0.6l1.2,1.5l-0.3,0.5c-0.7,1-1.2,2.2-1.4,3.5L8,24.2l-1.9,0.2
			v0.8L8,25.4L8.1,26c0.2,1.2,0.7,2.4,1.4,3.5L10,29.7z"/>
	</g>
	<g>
		<path fill="#8F9BA8" d="M16,28.4c-2,0-3.7-1.7-3.7-3.7S14,21,16,21s3.7,1.7,3.7,3.7S18,28.4,16,28.4z M16,22.5
			c-1.2,0-2.2,1-2.2,2.2s1,2.2,2.2,2.2s2.2-1,2.2-2.2S17.2,22.5,16,22.5z"/>
	</g>
	<g>
		<rect x="1.5" y="1.5" fill="#FAC2C3" width="29" height="7.7"/>
		<path fill="#DA8C8C" d="M31.3,9.9H0.8V0.7h30.5V9.9z M2.3,8.4h27.5V2.2H2.3V8.4z"/>
	</g>
	<g>
		<path fill="#DA8C8C" d="M31.3,31.2H0.8V8.4h30.5V31.2z M2.3,29.7h27.5V9.9H2.3V29.7z"/>
	</g>
	<g>
		<line fill="none" x1="22.7" y1="4.5" x2="22.7" y2="6.2"/>
		<rect x="22" y="4.5" fill="#DA8C8C" width="1.5" height="1.7"/>
	</g>
	<g>
		<line fill="none" x1="26.7" y1="4.5" x2="26.7" y2="6.2"/>
		<rect x="25.9" y="4.5" fill="#DA8C8C" width="1.5" height="1.7"/>
	</g>
	<g>
		<line fill="none" x1="9.2" y1="5.3" x2="4.8" y2="5.3"/>
		<rect x="4.8" y="4.6" fill="#DA8C8C" width="4.4" height="1.5"/>
	</g>
</g>
</svg>
