<?xml version="1.0" encoding="utf-8"?>
<!-- Generator: Adobe Illustrator 18.0.0, SVG Export Plug-In . SVG Version: 6.00 Build 0)  -->
<!DOCTYPE svg PUBLIC "-//W3C//DTD SVG 1.1//EN" "http://www.w3.org/Graphics/SVG/1.1/DTD/svg11.dtd">
<svg version="1.1" id="Layer_1" xmlns="http://www.w3.org/2000/svg" xmlns:xlink="http://www.w3.org/1999/xlink" x="0px" y="0px"
	 viewBox="0 0 32 32" enable-background="new 0 0 32 32" xml:space="preserve">
<g>
	<g>
		<rect x="1.5" y="1.5" fill="#F9F8F2" width="29" height="7.7"/>
		<path fill="#B4A79C" d="M31.3,9.9H0.8V0.7h30.5V9.9z M2.3,8.4h27.5V2.2H2.3V8.4z"/>
	</g>
	<g>
		<path fill="#B4A79C" d="M31.3,31.2H0.8V8.4h30.5V31.2z M2.3,29.7h27.5V9.9H2.3V29.7z"/>
	</g>
	<g>
		<line fill="#F9F8F2" x1="22.7" y1="4.5" x2="22.7" y2="6.2"/>
		<rect x="22" y="4.5" fill="#B4A79C" width="1.5" height="1.7"/>
	</g>
	<g>
		<line fill="#F9F8F2" x1="26.7" y1="4.5" x2="26.7" y2="6.2"/>
		<rect x="25.9" y="4.5" fill="#B4A79C" width="1.5" height="1.7"/>
	</g>
	<g>
		<line fill="#F9F8F2" x1="9.2" y1="5.3" x2="4.8" y2="5.3"/>
		<rect x="4.8" y="4.6" fill="#B4A79C" width="4.4" height="1.5"/>
	</g>
	<g>
		<path fill="#8F9BA8" d="M16.2,26.5h-0.4c-0.9,0-1.8-0.4-2.5-1c-0.7-0.7-1-1.5-1-2.5h1.5c0,0.5,0.2,1,0.6,1.4
			c0.4,0.4,0.9,0.6,1.4,0.6h0.4c1.1,0,2-0.9,2-2v-0.4c0-1.1-0.9-2-2-2h-0.4c-1.9,0-3.5-1.6-3.5-3.5v-0.4c0-1.9,1.6-3.5,3.5-3.5h0.4
			c1.9,0,3.5,1.6,3.5,3.5h-1.5c0-1.1-0.9-2-2-2h-0.4c-1.1,0-2,0.9-2,2v0.4c0,1.1,0.9,2,2,2h0.4c1.9,0,3.5,1.6,3.5,3.5V23
			C19.7,25,18.1,26.5,16.2,26.5z"/>
	</g>
	<g>
		<rect x="15.2" y="12.1" fill="#8F9BA8" width="1.5" height="1.8"/>
	</g>
	<g>
		<rect x="15.2" y="25.8" fill="#8F9BA8" width="1.5" height="1.8"/>
	</g>
</g>
</svg>
