<?xml version="1.0" encoding="utf-8"?>
<!-- Generator: Adobe Illustrator 18.0.0, SVG Export Plug-In . SVG Version: 6.00 Build 0)  -->
<!DOCTYPE svg PUBLIC "-//W3C//DTD SVG 1.1//EN" "http://www.w3.org/Graphics/SVG/1.1/DTD/svg11.dtd">
<svg version="1.1" id="Layer_1" xmlns="http://www.w3.org/2000/svg" xmlns:xlink="http://www.w3.org/1999/xlink" x="0px" y="0px"
	 viewBox="0 0 32 32" enable-background="new 0 0 32 32" xml:space="preserve">
<g>
	<g>
		<path fill="#74B1E0" d="M31.3,31.2H0.8V0.7h24.8l5.7,5.7V31.2z M2.3,29.7h27.5V7.1L25,2.3H2.3V29.7z"/>
	</g>
	<g>
		<rect x="5.6" y="18.3" fill="#CDE4F7" width="20.8" height="12.2"/>
		<path fill="#74B1E0" d="M27.2,31.2H4.8V17.5h22.3v13.7H27.2z M6.3,29.7h19.3V19H6.3V29.7z"/>
	</g>
	<g>
		<rect x="5.6" y="1.5" fill="#CDE4F7" width="14.1" height="8"/>
		<path fill="#74B1E0" d="M20.5,10.3H4.8V0.7h15.6L20.5,10.3L20.5,10.3z M6.3,8.8H19V2.2H6.3V8.8z"/>
	</g>
	<g>
		<line fill="none" x1="16.7" y1="3.8" x2="16.7" y2="7.2"/>
		<rect x="15.9" y="3.8" fill="#74B1E0" width="1.5" height="3.4"/>
	</g>
	<g>
		<line fill="none" x1="8.8" y1="22.3" x2="23.2" y2="22.3"/>
		<rect x="8.8" y="21.6" fill="#74B1E0" width="14.4" height="1.5"/>
	</g>
	<g>
		<line fill="none" x1="8.8" y1="26.4" x2="23.2" y2="26.4"/>
		<rect x="8.8" y="25.7" fill="#74B1E0" width="14.4" height="1.5"/>
	</g>
</g>
</svg>
