<?xml version="1.0" encoding="utf-8"?>
<!-- Generator: Adobe Illustrator 18.0.0, SVG Export Plug-In . SVG Version: 6.00 Build 0)  -->
<!DOCTYPE svg PUBLIC "-//W3C//DTD SVG 1.1//EN" "http://www.w3.org/Graphics/SVG/1.1/DTD/svg11.dtd">
<svg version="1.1" id="Layer_1" xmlns="http://www.w3.org/2000/svg" xmlns:xlink="http://www.w3.org/1999/xlink" x="0px" y="0px"
	 viewBox="0 0 32 32" enable-background="new 0 0 32 32" xml:space="preserve">
<g>
	<g>
		<path fill="#8F9BA8" d="M16,27.6c-0.1,0-0.2,0-0.3-0.1c-4.2-2.1-9.5-2.1-13.7,0c-0.2,0.1-0.5,0.1-0.7,0c-0.2-0.1-0.4-0.4-0.4-0.6
			l0-20c0-0.3,0.2-0.5,0.4-0.7c4.6-2.4,10.5-2.4,15.2,0c0.3,0.1,0.4,0.4,0.4,0.7l0,20c0,0.3-0.1,0.5-0.4,0.6
			C16.2,27.6,16.1,27.6,16,27.6z M8.8,24.4c2.2,0,4.4,0.4,6.5,1.3l0-18.4c-4-1.9-9-1.9-13,0l0,18.4C4.3,24.8,6.5,24.4,8.8,24.4z"/>
	</g>
	<g>
		<path fill="#8F9BA8" d="M13.4,10.1c-3.1-1-6.3-1-9.3,0L3.6,8.7c3.4-1.1,6.9-1,10.2,0L13.4,10.1z"/>
	</g>
	<g>
		<path fill="#8F9BA8" d="M13.4,14.3c-3.1-1-6.3-1-9.3,0l-0.4-1.4c3.4-1.1,6.9-1,10.2,0L13.4,14.3z"/>
	</g>
	<g>
		<path fill="#8F9BA8" d="M13.4,18.6c-3.1-1-6.3-1-9.3,0l-0.4-1.4c3.4-1,6.9-1,10.2,0L13.4,18.6z"/>
	</g>
	<g>
		<path fill="#8F9BA8" d="M13.4,22.8c-3.1-1-6.3-1-9.3,0l-0.4-1.4c3.4-1.1,6.9-1.1,10.2,0L13.4,22.8z"/>
	</g>
	<g>
		<path fill="#8F9BA8" d="M30.5,27.6c-0.1,0-0.2,0-0.3-0.1c-4.2-2.1-9.5-2.1-13.7,0c-0.2,0.1-0.5,0.1-0.7,0
			c-0.2-0.1-0.4-0.4-0.4-0.6l0-20c0-0.3,0.2-0.5,0.4-0.7c4.6-2.4,10.5-2.4,15.2,0c0.3,0.1,0.4,0.4,0.4,0.7l0,20
			c0,0.3-0.1,0.5-0.4,0.6C30.7,27.6,30.6,27.6,30.5,27.6z M23.3,24.4c2.2,0,4.4,0.4,6.5,1.3l0-18.4c-4-1.9-9-1.9-13,0l0,18.4
			C18.8,24.8,21,24.4,23.3,24.4z"/>
	</g>
	<g>
		<path fill="#8F9BA8" d="M27.9,10.1c-3.1-1-6.3-1-9.3,0l-0.4-1.4c3.4-1.1,6.9-1,10.2,0L27.9,10.1z"/>
	</g>
	<g>
		<path fill="#8F9BA8" d="M27.9,14.3c-3.1-1-6.3-1-9.3,0l-0.4-1.4c3.4-1.1,6.9-1,10.2,0L27.9,14.3z"/>
	</g>
	<g>
		<path fill="#8F9BA8" d="M27.9,18.6c-3.1-1-6.3-1-9.3,0l-0.4-1.4c3.4-1,6.9-1,10.2,0L27.9,18.6z"/>
	</g>
	<g>
		<path fill="#8F9BA8" d="M27.9,22.8c-3.1-1-6.3-1-9.3,0l-0.4-1.4c3.4-1.1,6.9-1.1,10.2,0L27.9,22.8z"/>
	</g>
</g>
</svg>
