<?xml version="1.0" encoding="utf-8"?>
<!-- Generator: Adobe Illustrator 18.0.0, SVG Export Plug-In . SVG Version: 6.00 Build 0)  -->
<!DOCTYPE svg PUBLIC "-//W3C//DTD SVG 1.1//EN" "http://www.w3.org/Graphics/SVG/1.1/DTD/svg11.dtd">
<svg version="1.1" id="Layer_1" xmlns="http://www.w3.org/2000/svg" xmlns:xlink="http://www.w3.org/1999/xlink" x="0px" y="0px"
	 viewBox="0 0 32 32" enable-background="new 0 0 32 32" xml:space="preserve">
<g>
	<g>
		<path fill="#79C693" d="M31.3,9.9H0.8V0.7h30.5V9.9z M2.3,8.4h27.5V2.2H2.3V8.4z"/>
	</g>
	<g>
		<path fill="#79C693" d="M31.3,31.2H0.8V8.4h30.5V31.2z M2.3,29.7h27.5V9.9H2.3V29.7z"/>
	</g>
	<g>
		<rect x="22" y="4.5" fill="#79C693" width="1.5" height="1.7"/>
	</g>
	<g>
		<rect x="25.9" y="4.5" fill="#79C693" width="1.5" height="1.7"/>
	</g>
	<g>
		<rect x="4.8" y="4.6" fill="#79C693" width="4.4" height="1.5"/>
	</g>
	<g>
		<rect x="6.8" y="13.7" fill="#8F9BA8" width="1.5" height="12.3"/>
	</g>
	<g>
		<rect x="6" y="17" fill="#8F9BA8" width="3.2" height="1.5"/>
	</g>
	<g>
		<rect x="12.4" y="13.7" fill="#8F9BA8" width="1.5" height="12.3"/>
	</g>
	<g>
		<rect x="11.6" y="22.4" fill="#8F9BA8" width="3.2" height="1.5"/>
	</g>
	<g>
		<rect x="18" y="13.7" fill="#8F9BA8" width="1.5" height="12.3"/>
	</g>
	<g>
		<rect x="17.2" y="17.5" fill="#8F9BA8" width="3.2" height="1.5"/>
	</g>
	<g>
		<rect x="23.7" y="13.7" fill="#8F9BA8" width="1.5" height="12.3"/>
	</g>
	<g>
		<rect x="22.8" y="19.4" fill="#8F9BA8" width="3.2" height="1.5"/>
	</g>
</g>
</svg>
