<?xml version="1.0" encoding="utf-8"?>
<!-- Generator: Adobe Illustrator 18.0.0, SVG Export Plug-In . SVG Version: 6.00 Build 0)  -->
<!DOCTYPE svg PUBLIC "-//W3C//DTD SVG 1.1//EN" "http://www.w3.org/Graphics/SVG/1.1/DTD/svg11.dtd">
<svg version="1.1" id="Layer_1" xmlns="http://www.w3.org/2000/svg" xmlns:xlink="http://www.w3.org/1999/xlink" x="0px" y="0px"
	 viewBox="0 0 32 32" enable-background="new 0 0 32 32" xml:space="preserve">
<g>
	<g>
		<path fill="#8F9BA8" d="M31.3,9.9H0.8V0.7h30.5V9.9z M2.3,8.4h27.5V2.2H2.3V8.4z"/>
	</g>
	<g>
		<path fill="#8F9BA8" d="M31.3,31.2H0.8V8.4h30.5V31.2z M2.3,29.7h27.5V9.9H2.3V29.7z"/>
	</g>
	<g>
		<rect x="22" y="4.5" fill="#8F9BA8" width="1.5" height="1.7"/>
	</g>
	<g>
		<rect x="25.9" y="4.5" fill="#8F9BA8" width="1.5" height="1.7"/>
	</g>
	<g>
		<rect x="4.8" y="4.6" fill="#8F9BA8" width="4.4" height="1.5"/>
	</g>
	<g>
		<path fill="#F2E8B9" d="M7.8,21.4l-1.5-1.5l1.5-1.5c4.5-4.5,11.8-4.5,16.3,0l1.5,1.5l-1.5,1.5C19.7,25.9,12.3,25.9,7.8,21.4z"/>
		<path fill="#B4A042" d="M16,25.5c-3.3,0-6.4-1.3-8.7-3.6l-2.1-2.1l2.1-2.1c2.3-2.3,5.4-3.6,8.7-3.6c3.3,0,6.4,1.3,8.7,3.6l2.1,2.1
			l-2.1,2.1C22.4,24.2,19.3,25.5,16,25.5z M7.4,19.8l1,1c2,2,4.8,3.2,7.6,3.2c2.9,0,5.6-1.1,7.6-3.2l1-1l-1-1c-2-2-4.8-3.2-7.6-3.2
			c-2.9,0-5.6,1.1-7.6,3.2L7.4,19.8z"/>
	</g>
	<g>
		<circle fill="#F2E8B9" cx="16" cy="19.8" r="2.6"/>
		<path fill="#B4A042" d="M16,23.2c-1.9,0-3.4-1.5-3.4-3.4s1.5-3.4,3.4-3.4c1.9,0,3.4,1.5,3.4,3.4S17.9,23.2,16,23.2z M16,18
			c-1,0-1.9,0.8-1.9,1.9c0,1,0.8,1.9,1.9,1.9c1,0,1.9-0.8,1.9-1.9C17.9,18.8,17,18,16,18z"/>
	</g>
</g>
</svg>
