<?xml version="1.0" encoding="utf-8"?>
<!-- Generator: Adobe Illustrator 18.0.0, SVG Export Plug-In . SVG Version: 6.00 Build 0)  -->
<!DOCTYPE svg PUBLIC "-//W3C//DTD SVG 1.1//EN" "http://www.w3.org/Graphics/SVG/1.1/DTD/svg11.dtd">
<svg version="1.1" id="Layer_1" xmlns="http://www.w3.org/2000/svg" xmlns:xlink="http://www.w3.org/1999/xlink" x="0px" y="0px"
	 viewBox="0 0 32 32" enable-background="new 0 0 32 32" xml:space="preserve">
<g>
	<g>
		<path fill="#8F9BA8" d="M31.3,9.9H0.8V0.7h30.5V9.9z M2.3,8.4h27.5V2.2H2.3V8.4z"/>
	</g>
	<g>
		<path fill="#8F9BA8" d="M31.3,31.2H0.8V8.4h30.5V31.2z M2.3,29.7h27.5V9.9H2.3V29.7z"/>
	</g>
	<g>
		<rect x="22" y="4.5" fill="#8F9BA8" width="1.5" height="1.7"/>
	</g>
	<g>
		<rect x="25.9" y="4.5" fill="#8F9BA8" width="1.5" height="1.7"/>
	</g>
	<g>
		<rect x="4.8" y="4.6" fill="#8F9BA8" width="4.4" height="1.5"/>
	</g>
	<g>
		<path fill="#DA8C8C" d="M9.7,27.2c-1.4,0-2.7-0.8-3.3-2.1l-0.5-0.9c-0.9-1.8-0.1-4,1.7-4.9l3-1.5c0.5-0.2,1-0.4,1.6-0.4
			c1.4,0,2.7,0.8,3.3,2.1l0.5,0.9c0.4,0.9,0.5,1.9,0.2,2.8c-0.3,0.9-1,1.7-1.9,2.1l-3,1.5C10.8,27.1,10.2,27.2,9.7,27.2z M12.2,19
			c-0.3,0-0.6,0.1-0.9,0.2l-3,1.5c-1.1,0.5-1.5,1.8-1,2.9l0.5,0.9c0.5,1,1.8,1.5,2.9,1l3-1.5c0.5-0.3,0.9-0.7,1.1-1.2
			c0.2-0.5,0.2-1.1-0.1-1.6l-0.5-0.9C13.8,19.4,13.1,19,12.2,19z"/>
	</g>
	<g>
		<path fill="#DA8C8C" d="M19.8,22.2c-1.4,0-2.7-0.8-3.3-2.1L16,19.3c-0.9-1.8-0.1-4,1.7-4.9l3-1.5c0.5-0.2,1-0.4,1.6-0.4
			c1.4,0,2.7,0.8,3.3,2.1l0.5,0.9c0.4,0.9,0.5,1.9,0.2,2.8c-0.3,0.9-1,1.7-1.9,2.1l-3,1.5C20.9,22.1,20.3,22.2,19.8,22.2z M22.3,14
			c-0.3,0-0.6,0.1-0.9,0.2l-3,1.5c-1.1,0.5-1.5,1.8-1,2.9l0.5,0.9c0.5,1,1.8,1.5,2.9,1l3-1.5c0.5-0.3,0.9-0.7,1.1-1.2
			c0.2-0.5,0.2-1.1-0.1-1.6l-0.5-0.9C23.9,14.5,23.2,14,22.3,14z"/>
	</g>
	<g>
		
			<rect x="15.3" y="15.4" transform="matrix(0.4388 0.8986 -0.8986 0.4388 26.814 -3.2393)" fill="#DA8C8C" width="1.5" height="9"/>
	</g>
</g>
</svg>
