<?xml version="1.0" encoding="utf-8"?>
<!-- Generator: Adobe Illustrator 18.0.0, SVG Export Plug-In . SVG Version: 6.00 Build 0)  -->
<!DOCTYPE svg PUBLIC "-//W3C//DTD SVG 1.1//EN" "http://www.w3.org/Graphics/SVG/1.1/DTD/svg11.dtd">
<svg version="1.1" id="Layer_1" xmlns="http://www.w3.org/2000/svg" xmlns:xlink="http://www.w3.org/1999/xlink" x="0px" y="0px"
	 viewBox="0 0 32 32" enable-background="new 0 0 32 32" xml:space="preserve">
<g>
	<g>
		<path fill="#B4A79C" d="M24.2,26.4l-17.1,0c-3.6-0.3-6.4-3.3-6.4-7c0-2.5,1.4-4.9,3.6-6.1c0.2-4.3,3.7-7.7,8-7.7
			c2.5,0,4.8,1.1,6.3,3.1c3.1-0.4,6.1,1.3,7.4,4.1c3,0.8,5.2,3.6,5.2,6.8c0,3.7-2.8,6.7-6.4,7v0l-0.4,0
			C24.4,26.4,24.3,26.4,24.2,26.4z M24.2,25.7L24.2,25.7l0-0.7c3,0,5.5-2.5,5.5-5.5c0-2.6-1.8-4.9-4.4-5.4L25,14l-0.1-0.4
			c-0.9-2.5-3.7-4-6.3-3.4L18,10.3l-0.3-0.4c-1.2-1.8-3.2-2.8-5.4-2.8c-3.6,0-6.5,2.9-6.5,6.5l0,0.6l-0.4,0.2
			c-1.9,0.9-3.2,2.9-3.2,5c0,3,2.5,5.5,5.5,5.5l0.8,0l0,0l15.6,0L24.2,25.7z"/>
	</g>
	<g>
		<polygon fill="#B4A79C" points="20.4,22.8 19.3,21.7 21.6,19.4 19.3,17.1 20.4,16 23.8,19.4 		"/>
	</g>
	<g>
		<polygon fill="#B4A79C" points="11.6,22.8 8.2,19.4 11.6,16 12.7,17.1 10.4,19.4 12.7,21.7 		"/>
	</g>
	<g>
		
			<rect x="15.3" y="15.3" transform="matrix(0.9311 0.3647 -0.3647 0.9311 8.1772 -4.4984)" fill="#B4A79C" width="1.5" height="8.1"/>
	</g>
</g>
</svg>
