<?xml version="1.0" encoding="utf-8"?>
<!-- Generator: Adobe Illustrator 18.0.0, SVG Export Plug-In . SVG Version: 6.00 Build 0)  -->
<!DOCTYPE svg PUBLIC "-//W3C//DTD SVG 1.1//EN" "http://www.w3.org/Graphics/SVG/1.1/DTD/svg11.dtd">
<svg version="1.1" id="Layer_1" xmlns="http://www.w3.org/2000/svg" xmlns:xlink="http://www.w3.org/1999/xlink" x="0px" y="0px"
	 viewBox="0 0 32 32" enable-background="new 0 0 32 32" xml:space="preserve">
<g>
	<g>
		<path fill="#8F9BA8" d="M25.7,31.3L16,29.8l-9.7,1.6v-2.7l7.5-3.9c-0.2-1.3-0.5-2.9-0.6-4.6L0.8,23.3v-3.6l11.9-8.2
			c0-0.3,0-0.6,0-0.9c0-7,1-9.8,3.4-9.8c2.4,0,3.4,2.9,3.4,9.8c0,0.3,0,0.6,0,0.9l11.9,8.2v3.6l-12.4-3.2c-0.2,1.7-0.4,3.3-0.6,4.6
			l7.5,3.9V31.3z M16,28.2l8.2,1.3v-0.1l-7.7-4l0.1-0.6c0.3-1.6,0.6-3.6,0.8-5.9l0.1-0.9l12.2,3.2v-0.9l-11.9-8.2l0-0.4
			c0-0.4,0-0.9,0-1.3c0-3.8-0.3-8.3-1.9-8.3c-1.6,0-1.9,4.5-1.9,8.3c0,0.4,0,0.9,0,1.3l0,0.4L2.3,20.4v0.9l12.2-3.2l0.1,0.9
			c0.2,2.3,0.5,4.3,0.8,5.9l0.1,0.6l-7.7,4v0.1L16,28.2z"/>
	</g>
</g>
</svg>
