<?xml version="1.0" encoding="utf-8"?>
<!-- Generator: Adobe Illustrator 18.0.0, SVG Export Plug-In . SVG Version: 6.00 Build 0)  -->
<!DOCTYPE svg PUBLIC "-//W3C//DTD SVG 1.1//EN" "http://www.w3.org/Graphics/SVG/1.1/DTD/svg11.dtd">
<svg version="1.1" id="Layer_1" xmlns="http://www.w3.org/2000/svg" xmlns:xlink="http://www.w3.org/1999/xlink" x="0px" y="0px"
	 viewBox="0 0 32 32" enable-background="new 0 0 32 32" xml:space="preserve">
<g>
	<g>
		<path fill="#8F9BA8" d="M31.3,29.2h-8.8v-8.8h8.8V29.2z M23.9,27.7h5.8v-5.8h-5.8C23.9,21.9,23.9,27.7,23.9,27.7z"/>
	</g>
	<g>
		<path fill="#8F9BA8" d="M20.4,11.6h-8.8V2.8h8.8V11.6z M13.1,10.1h5.8V4.3h-5.8C13.1,4.3,13.1,10.1,13.1,10.1z"/>
	</g>
	<g>
		<path fill="#8F9BA8" d="M9.6,29.2H0.8v-8.8h8.8V29.2z M2.3,27.7h5.8v-5.8H2.3V27.7z"/>
	</g>
	<g>
		<rect x="15.3" y="10.9" fill="#8F9BA8" width="1.5" height="5.3"/>
	</g>
	<g>
		<polygon fill="#8F9BA8" points="27.6,21.1 26.1,21.1 26.1,16.9 5.9,16.9 5.9,21.1 4.4,21.1 4.4,15.4 27.6,15.4 		"/>
	</g>
</g>
</svg>
