<?xml version="1.0" encoding="utf-8"?>
<!-- Generator: Adobe Illustrator 18.0.0, SVG Export Plug-In . SVG Version: 6.00 Build 0)  -->
<!DOCTYPE svg PUBLIC "-//W3C//DTD SVG 1.1//EN" "http://www.w3.org/Graphics/SVG/1.1/DTD/svg11.dtd">
<svg version="1.1" id="Layer_1" xmlns="http://www.w3.org/2000/svg" xmlns:xlink="http://www.w3.org/1999/xlink" x="0px" y="0px"
	 viewBox="0 0 32 32" enable-background="new 0 0 32 32" xml:space="preserve">
<g>
	<g>
		<polygon fill="#FFFFFF" points="17.5,1.4 1.6,17.2 14.8,30.4 30.6,14.5 28.7,3.3 		"/>
		<path fill="#8F9BA8" d="M14.8,31.4L0.6,17.2L17.2,0.6l12.1,2.1l2.1,12.1L14.8,31.4z M2.7,17.2l12.1,12.1l15-15L28,4L17.7,2.2
			L2.7,17.2z"/>
	</g>
	<g>
		<circle fill="#FFFFFF" cx="23.9" cy="8.1" r="2.2"/>
		<path fill="#B4A042" d="M23.9,11c-0.8,0-1.5-0.3-2.1-0.9c-0.5-0.5-0.8-1.2-0.8-2c0-0.8,0.3-1.5,0.9-2.1c1.1-1.1,3-1.1,4.1,0
			c0.6,0.6,0.9,1.3,0.9,2.1s-0.3,1.5-0.9,2.1C25.4,10.7,24.7,11,23.9,11z M23.9,6.6c-0.4,0-0.7,0.1-1,0.4s-0.4,0.6-0.4,1
			c0,0.4,0.1,0.7,0.4,1c0.5,0.5,1.5,0.5,2,0c0.3-0.3,0.4-0.6,0.4-1s-0.1-0.7-0.4-1C24.7,6.8,24.3,6.6,23.9,6.6z"/>
	</g>
</g>
</svg>
