<?xml version="1.0" encoding="utf-8"?>
<!-- Generator: Adobe Illustrator 18.0.0, SVG Export Plug-In . SVG Version: 6.00 Build 0)  -->
<!DOCTYPE svg PUBLIC "-//W3C//DTD SVG 1.1//EN" "http://www.w3.org/Graphics/SVG/1.1/DTD/svg11.dtd">
<svg version="1.1" id="Layer_1" xmlns="http://www.w3.org/2000/svg" xmlns:xlink="http://www.w3.org/1999/xlink" x="0px" y="0px"
	 viewBox="0 0 32 32" enable-background="new 0 0 32 32" xml:space="preserve">
<g>
	<g>
		<path fill="#FFFFFF" d="M24.3,9.4c0.2-0.9,0.3-1.8-0.1-2.9c-0.6-1.6-2-2.9-3.7-3.1c-1.3-0.2-2.4,0.1-3.4,0.7
			c-1.2-1.9-3.4-3.1-5.9-2.6C8.9,1.9,7,3.7,6.6,6C6.3,7.3,6.5,8.5,7,9.6c-2.1,0.7-3.6,2.7-3.6,5c0,2.9,2.4,5.3,5.3,5.3
			c0,0,0.1,0,0.1,0v0h14.2c2.7,0,5.1-1.9,5.4-4.6C28.9,12.4,27,9.9,24.3,9.4z"/>
		<path fill="#8F9BA8" d="M23.1,20.7l-15,0c-3.1-0.3-5.5-2.9-5.5-6c0-2.3,1.3-4.4,3.4-5.4C5.7,8.1,5.6,7,5.8,5.8
			c0.5-2.6,2.6-4.6,5.3-5.1c2.4-0.4,4.8,0.5,6.2,2.4c1-0.5,2.2-0.6,3.3-0.5c2,0.3,3.6,1.7,4.3,3.6c0.3,0.8,0.4,1.7,0.3,2.6
			c2.7,0.9,4.5,3.6,4.1,6.6C28.9,18.4,26.2,20.7,23.1,20.7z M9.6,19.2h13.5c2.4,0,4.4-1.7,4.7-4c0.3-2.4-1.3-4.6-3.7-5.1L23.3,10
			l0.2-0.8c0.2-0.8,0.2-1.6-0.1-2.4c-0.5-1.4-1.7-2.4-3.1-2.7c-1-0.2-2,0-2.9,0.6l-0.6,0.4l-0.4-0.7c-1.1-1.7-3.1-2.6-5.1-2.3
			c-2,0.3-3.6,1.9-4,3.9C7.1,7.2,7.2,8.3,7.7,9.3L8,10l-0.8,0.3c-1.8,0.6-3.1,2.4-3.1,4.3c0,2.5,2,4.6,4.6,4.6H9.6L9.6,19.2z"/>
	</g>
	<g>
		<rect x="15.3" y="21.6" fill="#B4A79C" width="1.5" height="8.8"/>
	</g>
	<g>
		<polygon fill="#B4A79C" points="16,31.4 13.3,29.2 14.2,28 16,29.4 17.8,28 18.7,29.2 		"/>
	</g>
	<g>
		<polygon fill="#B4A79C" points="24.1,28.6 23,27.7 24.4,25.9 23,24.1 24.1,23.1 26.3,25.9 		"/>
	</g>
	<g>
		<path fill="#B4A79C" d="M25.1,26.6h-1.7c-1.9,0-3.4-1.5-3.4-3.4v-1.6h1.5v1.6c0,1,0.8,1.9,1.9,1.9h1.7V26.6z"/>
	</g>
	<g>
		<polygon fill="#B4A79C" points="7.9,28.6 5.7,25.9 7.9,23.1 9,24.1 7.6,25.9 9,27.7 		"/>
	</g>
	<g>
		<path fill="#B4A79C" d="M8.5,26.6H6.9v-1.5h1.7c1,0,1.9-0.8,1.9-1.9v-1.6h1.5v1.6C11.9,25.1,10.4,26.6,8.5,26.6z"/>
	</g>
</g>
</svg>
