<?xml version="1.0" encoding="utf-8"?>
<!-- Generator: Adobe Illustrator 18.0.0, SVG Export Plug-In . SVG Version: 6.00 Build 0)  -->
<!DOCTYPE svg PUBLIC "-//W3C//DTD SVG 1.1//EN" "http://www.w3.org/Graphics/SVG/1.1/DTD/svg11.dtd">
<svg version="1.1" id="Layer_1" xmlns="http://www.w3.org/2000/svg" xmlns:xlink="http://www.w3.org/1999/xlink" x="0px" y="0px"
	 viewBox="0 0 32 32" enable-background="new 0 0 32 32" xml:space="preserve">
<g>
	<g>
		<path fill="#79C693" d="M16.1,31.4C10.5,31.4,6,25.9,6,19.1c0-4.3,1.9-8.4,4.9-10.6L11.7,8l0.4,0.9c0.3,0.8,1.9,1.6,4,1.6
			c2.2,0,3.7-0.8,4-1.6L20.5,8l0.8,0.5c3.1,2.2,4.9,6.2,4.9,10.6C26.2,25.9,21.7,31.4,16.1,31.4z M11.2,10.2c-2.3,2-3.7,5.3-3.7,8.9
			c0,5.9,3.9,10.8,8.6,10.8s8.6-4.8,8.6-10.8c0-3.5-1.4-6.9-3.7-8.9c-1,1.1-2.8,1.8-4.9,1.8S12.2,11.3,11.2,10.2z"/>
	</g>
	<g>
		<path fill="#79C693" d="M16.1,12c-2.6,0-4.7-1-5.4-2.6c-0.1-0.3-0.2-0.6-0.2-0.9c0-2,2.5-3.5,5.6-3.5c3.1,0,5.6,1.5,5.6,3.5
			c0,0.3-0.1,0.6-0.2,0.9C20.9,11,18.7,12,16.1,12z M16.1,6.5c-2.4,0-4.1,1-4.1,2c0,0.1,0,0.2,0.1,0.3c0.3,0.8,1.9,1.6,4,1.6
			c2.2,0,3.7-0.8,4-1.6c0.1-0.1,0.1-0.2,0.1-0.3C20.2,7.6,18.5,6.5,16.1,6.5z"/>
	</g>
	<g>
		<path fill="#79C693" d="M23.5,26.3c-5.7-2.5-8-14.4-8.1-15l1.5-0.3c0,0.1,2.3,11.7,7.3,13.9L23.5,26.3z"/>
	</g>
	<g>
		<path fill="#79C693" d="M8.7,26.3L8.1,25c4.9-2.2,7.2-13.7,7.3-13.9l1.5,0.3C16.7,11.9,14.4,23.8,8.7,26.3z"/>
	</g>
	<g>
		<polygon fill="#79C693" points="30,28.6 27.1,24 24.8,24.4 24.5,22.9 27.8,22.3 31.3,27.8 		"/>
	</g>
	<g>
		<polygon fill="#79C693" points="29.6,15.2 26.5,13 24.5,14 23.9,12.6 26.6,11.3 30.4,13.9 		"/>
	</g>
	<g>
		<polygon fill="#79C693" points="2,28.6 0.7,27.8 4.2,22.3 7.5,22.9 7.2,24.4 4.9,24 		"/>
	</g>
	<g>
		<polygon fill="#79C693" points="2.4,15.2 1.6,13.9 5.4,11.3 8.1,12.6 7.5,14 5.5,13 		"/>
	</g>
	<g>
		<polygon fill="#79C693" points="18,6.3 16.7,5.5 19.5,0.6 23.1,2.4 22.5,3.7 20.1,2.6 		"/>
	</g>
	<g>
		<polygon fill="#79C693" points="14.2,6.3 12.1,2.6 9.7,3.7 9.1,2.4 12.7,0.6 15.5,5.5 		"/>
	</g>
	<g>
		<rect x="17" y="7.6" fill="#79C693" width="1.5" height="1.5"/>
	</g>
	<g>
		<rect x="13.8" y="7.6" fill="#79C693" width="1.5" height="1.5"/>
	</g>
</g>
</svg>
