<?xml version="1.0" encoding="utf-8"?>
<!-- Generator: Adobe Illustrator 18.0.0, SVG Export Plug-In . SVG Version: 6.00 Build 0)  -->
<!DOCTYPE svg PUBLIC "-//W3C//DTD SVG 1.1//EN" "http://www.w3.org/Graphics/SVG/1.1/DTD/svg11.dtd">
<svg version="1.1" id="Layer_1" xmlns="http://www.w3.org/2000/svg" xmlns:xlink="http://www.w3.org/1999/xlink" x="0px" y="0px"
	 viewBox="0 0 32 32" enable-background="new 0 0 32 32" xml:space="preserve">
<g>
	<g>
		<path fill="#8F9BA8" d="M16,31.2C7.6,31.2,0.8,24.4,0.8,16S7.6,0.7,16,0.7c8.4,0,15.3,6.8,15.3,15.3S24.4,31.2,16,31.2z M16,2.2
			C8.4,2.2,2.3,8.4,2.3,16c0,7.6,6.2,13.8,13.8,13.8c7.6,0,13.8-6.2,13.8-13.8C29.8,8.4,23.6,2.2,16,2.2z"/>
	</g>
	<g>
		<path fill="#B4A042" d="M16,28.4C9.2,28.4,3.6,22.8,3.6,16S9.2,3.6,16,3.6c6.8,0,12.4,5.6,12.4,12.4S22.8,28.4,16,28.4z M16,5.1
			C10,5.1,5.1,10,5.1,16c0,6,4.9,10.9,10.9,10.9c6,0,10.9-4.9,10.9-10.9C26.9,10,22,5.1,16,5.1z"/>
	</g>
	<g>
		<path fill="#B4A042" d="M16,28.4C9.2,28.4,3.6,22.8,3.6,16S9.2,3.6,16,3.6c6.8,0,12.4,5.6,12.4,12.4S22.8,28.4,16,28.4z M16,5.1
			C10,5.1,5.1,10,5.1,16c0,6,4.9,10.9,10.9,10.9c6,0,10.9-4.9,10.9-10.9C26.9,10,22,5.1,16,5.1z"/>
	</g>
	<g>
		<rect x="15.3" y="6.3" fill="#B4A042" width="1.5" height="1.3"/>
	</g>
	<g>
		<rect x="6.3" y="15.3" fill="#B4A042" width="1.3" height="1.5"/>
	</g>
	<g>
		<rect x="24.5" y="15.3" fill="#B4A042" width="1.3" height="1.5"/>
	</g>
	<g>
		
			<rect x="8.9" y="8.8" transform="matrix(0.7071 0.7071 -0.7071 0.7071 9.5777 -3.9672)" fill="#B4A042" width="1.3" height="1.5"/>
	</g>
	<g>
		
			<rect x="21.7" y="8.9" transform="matrix(0.7071 0.7071 -0.7071 0.7071 13.3406 -13.0495)" fill="#B4A042" width="1.5" height="1.3"/>
	</g>
	<g>
		<path fill="#B4A042" d="M15.7,19L15.7,19c-0.5,0-1-0.2-1.4-0.5c-0.6-0.5-1-1.2-1-1.9c0-0.8,0.4-1.5,1-1.9l6.2-4.5l-2.6,7.2
			C17.6,18.3,16.7,19,15.7,19z M17.5,14.2l-2.3,1.7c-0.2,0.2-0.4,0.4-0.4,0.7c0,0.3,0.1,0.5,0.4,0.7c0.2,0.1,0.3,0.2,0.5,0.2l0,0
			c0.4,0,0.7-0.2,0.8-0.6L17.5,14.2z"/>
	</g>
</g>
</svg>
