<?xml version="1.0" encoding="utf-8"?>
<!-- Generator: Adobe Illustrator 18.0.0, SVG Export Plug-In . SVG Version: 6.00 Build 0)  -->
<!DOCTYPE svg PUBLIC "-//W3C//DTD SVG 1.1//EN" "http://www.w3.org/Graphics/SVG/1.1/DTD/svg11.dtd">
<svg version="1.1" id="Layer_1" xmlns="http://www.w3.org/2000/svg" xmlns:xlink="http://www.w3.org/1999/xlink" x="0px" y="0px"
	 viewBox="0 0 32 32" enable-background="new 0 0 32 32" xml:space="preserve">
<g>
	<g>
		<path fill="#DA8C8C" d="M31.3,11.5H0.8V2.9h30.5V11.5z M2.3,10h27.5V4.4H2.3V10z"/>
	</g>
	<g>
		<path fill="#DA8C8C" d="M31.3,30.9H0.8V10h30.5V30.9z M2.3,29.4h27.5V11.5H2.3V29.4z"/>
	</g>
	<g>
		<rect x="24.6" y="1.1" fill="#DA8C8C" width="1.5" height="5.1"/>
	</g>
	<g>
		<rect x="15.3" y="1.1" fill="#DA8C8C" width="1.5" height="5.1"/>
	</g>
	<g>
		<rect x="5.9" y="1.1" fill="#DA8C8C" width="1.5" height="5.1"/>
	</g>
	<g>
		<rect x="5.9" y="14.5" fill="#B4A79C" width="2" height="1.5"/>
	</g>
	<g>
		<rect x="5.9" y="19.7" fill="#B4A79C" width="2" height="1.5"/>
	</g>
	<g>
		<rect x="5.9" y="24.9" fill="#B4A79C" width="2" height="1.5"/>
	</g>
	<g>
		<rect x="12" y="14.5" fill="#B4A79C" width="2" height="1.5"/>
	</g>
	<g>
		<rect x="12" y="19.7" fill="#B4A79C" width="2" height="1.5"/>
	</g>
	<g>
		<rect x="12" y="24.9" fill="#B4A79C" width="2" height="1.5"/>
	</g>
	<g>
		<rect x="18.1" y="14.5" fill="#B4A79C" width="2" height="1.5"/>
	</g>
	<g>
		<rect x="18.1" y="19.7" fill="#B4A79C" width="2" height="1.5"/>
	</g>
	<g>
		<rect x="18.1" y="24.9" fill="#B4A79C" width="2" height="1.5"/>
	</g>
	<g>
		<rect x="24.2" y="14.5" fill="#B4A79C" width="2" height="1.5"/>
	</g>
	<g>
		<rect x="24.2" y="19.7" fill="#B4A79C" width="2" height="1.5"/>
	</g>
	<g>
		<rect x="24.2" y="24.9" fill="#B4A79C" width="2" height="1.5"/>
	</g>
</g>
</svg>
