<?xml version="1.0" encoding="utf-8"?>
<!-- Generator: Adobe Illustrator 18.0.0, SVG Export Plug-In . SVG Version: 6.00 Build 0)  -->
<!DOCTYPE svg PUBLIC "-//W3C//DTD SVG 1.1//EN" "http://www.w3.org/Graphics/SVG/1.1/DTD/svg11.dtd">
<svg version="1.1" id="Layer_1" xmlns="http://www.w3.org/2000/svg" xmlns:xlink="http://www.w3.org/1999/xlink" x="0px" y="0px"
	 viewBox="0 0 32 32" enable-background="new 0 0 32 32" xml:space="preserve">
<g>
	<g>
		<path fill="#74B1E0" d="M23.5,31.2H1.4v-7.5h22.2V31.2z M2.9,29.7H22v-4.5H2.9V29.7z"/>
	</g>
	<g>
		<path fill="#74B1E0" d="M23.5,6.6H1.4V0.7h22.2V6.6z M2.9,5.1H22V2.2H2.9V5.1z"/>
	</g>
	<g>
		<rect x="10.4" y="26.7" fill="#74B1E0" width="4" height="1.5"/>
	</g>
	<g>
		<path fill="#74B1E0" d="M22.8,25.2H2.1c-0.4,0-0.8-0.3-0.8-0.8V5.9c0-0.4,0.3-0.8,0.8-0.8h20.7c0.4,0,0.8,0.3,0.8,0.8V9
			c0,0.4-0.3,0.8-0.8,0.8H17v7.8h0.7c0.4,0,0.8,0.3,0.8,0.8v1.1l1.9-1.7c0.1-0.1,0.3-0.2,0.5-0.2h1.9c0.4,0,0.8,0.3,0.8,0.8v6.2
			C23.5,24.9,23.2,25.2,22.8,25.2z M2.9,23.7H22V19h-0.9l-3,2.6c-0.2,0.2-0.5,0.2-0.8,0.1c-0.3-0.1-0.4-0.4-0.4-0.7v-2h-0.7
			c-0.4,0-0.8-0.3-0.8-0.8V9c0-0.4,0.3-0.8,0.8-0.8H22V6.6H2.9V23.7z"/>
	</g>
	<g>
		<polygon fill="#F9F8F2" points="22.8,9 16.2,9 16.2,18.3 17.7,18.3 17.7,21 20.9,18.3 22.8,18.3 29.9,18.3 29.9,9 		"/>
		<path fill="#B4A79C" d="M16.9,22.7V19h-1.5V8.3h15.1V19h-9.5L16.9,22.7z M17,17.5h1.5v1.9l2.2-1.9h8.5V9.8H17V17.5z"/>
	</g>
</g>
</svg>
