<?xml version="1.0" encoding="utf-8"?>
<!-- Generator: Adobe Illustrator 18.0.0, SVG Export Plug-In . SVG Version: 6.00 Build 0)  -->
<!DOCTYPE svg PUBLIC "-//W3C//DTD SVG 1.1//EN" "http://www.w3.org/Graphics/SVG/1.1/DTD/svg11.dtd">
<svg version="1.1" id="Layer_1" xmlns="http://www.w3.org/2000/svg" xmlns:xlink="http://www.w3.org/1999/xlink" x="0px" y="0px"
	 viewBox="0 0 32 32" enable-background="new 0 0 32 32" xml:space="preserve">
<g>
	<g>
		<path fill="#8F9BA8" d="M9.6,31.4c-2.4,0-4.7-0.9-6.4-2.6c-3.5-3.5-3.5-9.2,0-12.8L13.4,5.8l12.8,12.8L16,28.8
			C14.3,30.5,12,31.4,9.6,31.4z M13.4,8l-9.1,9.1c-2.9,2.9-2.9,7.7,0,10.6c1.4,1.4,3.3,2.2,5.3,2.2c2,0,3.9-0.8,5.3-2.2l9.1-9.1
			L13.4,8z"/>
	</g>
	<g>
		
			<rect x="17.9" y="2.9" transform="matrix(0.7071 -0.7071 0.7071 0.7071 -0.1687 18.6739)" fill="#F0F7F7" width="9.1" height="13.2"/>
		<path fill="#8F9BA8" d="M23.9,18.5L13.5,8.1L21,0.6L31.4,11L23.9,18.5z M15.6,8.1l8.3,8.3l5.4-5.4L21,2.7L15.6,8.1z"/>
	</g>
	<g>
		<line fill="#F0F7F7" x1="21.1" y1="6.2" x2="20" y2="7.4"/>
		
			<rect x="19.8" y="6" transform="matrix(0.7071 0.7071 -0.7071 0.7071 10.8405 -12.556)" fill="#8F9BA8" width="1.5" height="1.6"/>
	</g>
	<g>
		<line fill="#F0F7F7" x1="25.8" y1="10.9" x2="24.6" y2="12"/>
		
			<rect x="24.4" y="10.6" transform="matrix(0.7071 0.7071 -0.7071 0.7071 15.4538 -14.4669)" fill="#8F9BA8" width="1.5" height="1.6"/>
	</g>
</g>
</svg>
