<?xml version="1.0" encoding="utf-8"?>
<!-- Generator: Adobe Illustrator 18.0.0, SVG Export Plug-In . SVG Version: 6.00 Build 0)  -->
<!DOCTYPE svg PUBLIC "-//W3C//DTD SVG 1.1//EN" "http://www.w3.org/Graphics/SVG/1.1/DTD/svg11.dtd">
<svg version="1.1" id="Layer_1" xmlns="http://www.w3.org/2000/svg" xmlns:xlink="http://www.w3.org/1999/xlink" x="0px" y="0px"
	 viewBox="0 0 32 32" enable-background="new 0 0 32 32" xml:space="preserve">
<g>
	<g>
		<rect x="6.8" y="8.6" fill="#B4A79C" width="18.1" height="1.5"/>
	</g>
	<g>
		<path fill="#B4A79C" d="M24,31.2H8c-0.3,0-0.6-0.2-0.7-0.5c-0.1-0.3,0-0.6,0.2-0.8l8-6.5c0.3-0.2,0.7-0.2,0.9,0l8,6.5
			c0.2,0.2,0.3,0.5,0.2,0.8C24.6,31.1,24.3,31.2,24,31.2z M10.2,29.7h11.7L16,25L10.2,29.7z"/>
	</g>
	<g>
		<path fill="#B4A79C" d="M29.5,31.2h-27l0.1-0.8C3,24.7,8,19.8,12.1,16.7c0.2-0.2,0.3-0.4,0.3-0.7c0-0.3-0.1-0.5-0.3-0.7
			C8,12.2,3,7.3,2.5,1.6L2.5,0.8l27,0l-0.1,0.8C29,7.3,24,12.2,19.9,15.3c-0.2,0.2-0.3,0.4-0.3,0.7c0,0.3,0.1,0.5,0.3,0.7
			c4.1,3.1,9.2,8,9.6,13.8L29.5,31.2z M4.1,29.7h23.7C27,24.6,22,20.1,19,17.9c-0.6-0.4-0.9-1.1-0.9-1.9c0-0.7,0.3-1.4,0.9-1.9
			c3-2.3,8.1-6.8,8.9-11.9l-23.7,0C5,7.4,10,11.9,13,14.1c0.6,0.4,0.9,1.1,0.9,1.9c0,0.7-0.3,1.4-0.9,1.9C10,20.1,5,24.6,4.1,29.7z"
			/>
	</g>
	<g>
		<rect x="1.5" y="0.8" fill="#B4A79C" width="29" height="1.5"/>
	</g>
	<g>
		<rect x="1.5" y="29.8" fill="#B4A79C" width="29" height="1.5"/>
	</g>
</g>
</svg>
