<?xml version="1.0" encoding="utf-8"?>
<!-- Generator: Adobe Illustrator 18.0.0, SVG Export Plug-In . SVG Version: 6.00 Build 0)  -->
<!DOCTYPE svg PUBLIC "-//W3C//DTD SVG 1.1//EN" "http://www.w3.org/Graphics/SVG/1.1/DTD/svg11.dtd">
<svg version="1.1" id="Layer_1" xmlns="http://www.w3.org/2000/svg" xmlns:xlink="http://www.w3.org/1999/xlink" x="0px" y="0px"
	 viewBox="0 0 32 32" enable-background="new 0 0 32 32" xml:space="preserve">
<g>
	<g>
		<path fill="#8F9BA8" d="M31.3,9.9H0.8V0.7h30.5V9.9z M2.3,8.4h27.5V2.2H2.3V8.4z"/>
	</g>
	<g>
		<path fill="#8F9BA8" d="M31.3,31.2H0.8V8.4h30.5V31.2z M2.3,29.7h27.5V9.9H2.3V29.7z"/>
	</g>
	<g>
		<rect x="22" y="4.5" fill="#8F9BA8" width="1.5" height="1.7"/>
	</g>
	<g>
		<rect x="25.9" y="4.5" fill="#8F9BA8" width="1.5" height="1.7"/>
	</g>
	<g>
		<rect x="4.8" y="4.6" fill="#8F9BA8" width="4.4" height="1.5"/>
	</g>
	<g>
		<path fill="#B4A042" d="M10.3,19.2H4.6v-5.7h5.7C10.3,13.5,10.3,19.2,10.3,19.2z M6.1,17.7h2.7V15H6.1V17.7z"/>
	</g>
	<g>
		<path fill="#B4A042" d="M18.9,19.2h-5.7v-5.7h5.7V19.2z M14.6,17.7h2.7V15h-2.7C14.6,15,14.6,17.7,14.6,17.7z"/>
	</g>
	<g>
		<path fill="#B4A042" d="M27.4,19.2h-5.7v-5.7h5.7C27.4,13.5,27.4,19.2,27.4,19.2z M23.2,17.7h2.7V15h-2.7V17.7z"/>
	</g>
	<g>
		<rect x="5.3" y="21.2" fill="#B4A042" width="4.2" height="1.5"/>
	</g>
	<g>
		<rect x="13.9" y="21.2" fill="#B4A042" width="4.2" height="1.5"/>
	</g>
	<g>
		<rect x="22.5" y="21.2" fill="#B4A042" width="4.2" height="1.5"/>
	</g>
	<g>
		<rect x="5.3" y="24.7" fill="#B4A042" width="4.2" height="1.5"/>
	</g>
	<g>
		<rect x="13.9" y="24.7" fill="#B4A042" width="4.2" height="1.5"/>
	</g>
	<g>
		<rect x="22.5" y="24.7" fill="#B4A042" width="4.2" height="1.5"/>
	</g>
</g>
</svg>
