<?xml version="1.0" encoding="utf-8"?>
<!-- Generator: Adobe Illustrator 18.0.0, SVG Export Plug-In . SVG Version: 6.00 Build 0)  -->
<!DOCTYPE svg PUBLIC "-//W3C//DTD SVG 1.1//EN" "http://www.w3.org/Graphics/SVG/1.1/DTD/svg11.dtd">
<svg version="1.1" id="Layer_1" xmlns="http://www.w3.org/2000/svg" xmlns:xlink="http://www.w3.org/1999/xlink" x="0px" y="0px"
	 viewBox="0 0 32 32" enable-background="new 0 0 32 32" xml:space="preserve">
<g>
	<g>
		<path fill="#8F9BA8" d="M25.4,27.6H6.6c-1.2,0-2.1-1-2.1-2.1V6.6c0-1.2,1-2.1,2.1-2.1h18.8c1.2,0,2.1,1,2.1,2.1v18.8
			C27.6,26.6,26.6,27.6,25.4,27.6z M6.6,6C6.3,6,6,6.3,6,6.6v18.8C6,25.7,6.3,26,6.6,26h18.8c0.3,0,0.6-0.2,0.6-0.6V6.6
			C26,6.3,25.7,6,25.4,6H6.6z"/>
	</g>
	<g>
		<path fill="#FAC2C3" d="M20.9,21.8h-9.8c-0.5,0-0.9-0.4-0.9-0.9v-9.8c0-0.5,0.4-0.9,0.9-0.9h9.8c0.5,0,0.9,0.4,0.9,0.9v9.8
			C21.8,21.4,21.4,21.8,20.9,21.8z"/>
		<path fill="#DA8C8C" d="M20.9,22.6h-9.7c-1,0-1.8-0.8-1.8-1.8v-9.7c0-1,0.8-1.8,1.8-1.8h9.7c1,0,1.8,0.8,1.8,1.8v9.7
			C22.6,21.8,21.8,22.6,20.9,22.6z M11.1,11C11,11,11,11,11,11.1v9.7C11,21,11,21,11.1,21h9.7C21,21,21,21,21,20.9v-9.7
			C21,11,21,11,20.9,11H11.1z"/>
	</g>
	<g>
		<rect x="26.8" y="8" fill="#8F9BA8" width="4.5" height="1.6"/>
	</g>
	<g>
		<rect x="26.8" y="12.8" fill="#8F9BA8" width="4.5" height="1.6"/>
	</g>
	<g>
		<rect x="26.8" y="17.6" fill="#8F9BA8" width="4.5" height="1.6"/>
	</g>
	<g>
		<rect x="26.8" y="22.4" fill="#8F9BA8" width="4.5" height="1.6"/>
	</g>
	<g>
		<rect x="0.8" y="8" fill="#8F9BA8" width="4.5" height="1.6"/>
	</g>
	<g>
		<rect x="0.8" y="12.8" fill="#8F9BA8" width="4.5" height="1.6"/>
	</g>
	<g>
		<rect x="0.8" y="17.6" fill="#8F9BA8" width="4.5" height="1.6"/>
	</g>
	<g>
		<rect x="0.8" y="22.4" fill="#8F9BA8" width="4.5" height="1.6"/>
	</g>
	<g>
		<rect x="22.4" y="26.8" fill="#8F9BA8" width="1.6" height="4.5"/>
	</g>
	<g>
		<rect x="17.6" y="26.8" fill="#8F9BA8" width="1.6" height="4.5"/>
	</g>
	<g>
		<rect x="12.8" y="26.8" fill="#8F9BA8" width="1.6" height="4.5"/>
	</g>
	<g>
		<rect x="8" y="26.8" fill="#8F9BA8" width="1.6" height="4.5"/>
	</g>
	<g>
		<rect x="22.4" y="0.8" fill="#8F9BA8" width="1.6" height="4.5"/>
	</g>
	<g>
		<rect x="17.6" y="0.8" fill="#8F9BA8" width="1.6" height="4.5"/>
	</g>
	<g>
		<rect x="12.8" y="0.8" fill="#8F9BA8" width="1.6" height="4.5"/>
	</g>
	<g>
		<rect x="8" y="0.8" fill="#8F9BA8" width="1.6" height="4.5"/>
	</g>
</g>
</svg>
