<?xml version="1.0" encoding="utf-8"?>
<!-- Generator: Adobe Illustrator 18.0.0, SVG Export Plug-In . SVG Version: 6.00 Build 0)  -->
<!DOCTYPE svg PUBLIC "-//W3C//DTD SVG 1.1//EN" "http://www.w3.org/Graphics/SVG/1.1/DTD/svg11.dtd">
<svg version="1.1" id="Layer_1" xmlns="http://www.w3.org/2000/svg" xmlns:xlink="http://www.w3.org/1999/xlink" x="0px" y="0px"
	 viewBox="0 0 32 32" enable-background="new 0 0 32 32" xml:space="preserve">
<g>
	<g>
		
			<rect x="4.8" y="20.5" transform="matrix(0.7071 0.7071 -0.7071 0.7071 20.3104 3.7929)" fill="#8F9BA8" width="1.5" height="11.8"/>
	</g>
	<g>
		<path fill="#F9F8F2" d="M19,22.9l8.3-10.8l-7.4-7.4L9.1,13c2.5,0.2,4.9,1.3,6.8,3.1C17.7,18.1,18.8,20.5,19,22.9z"/>
		<path fill="#B4A79C" d="M18.4,24.9L18.2,23c-0.2-2.4-1.2-4.6-2.9-6.3C13.6,15,11.4,14,9,13.8l-1.9-0.2l12.8-9.9l8.4,8.4L18.4,24.9
			z M10.9,12.6c2.1,0.5,4,1.6,5.5,3.1c1.5,1.5,2.6,3.4,3.1,5.5l6.8-8.9l-6.5-6.5L10.9,12.6z"/>
	</g>
	<g>
		<path fill="#B4A79C" d="M17.4,30.9L1,14.6l0.8-0.5c2.2-1.4,4.7-2,7.3-1.8c2.7,0.2,5.3,1.4,7.2,3.4c1.9,1.9,3.1,4.5,3.4,7.2
			c0.2,2.6-0.4,5.1-1.8,7.3L17.4,30.9z M3.5,14.9l13.7,13.7c0.9-1.7,1.3-3.6,1.1-5.5c-0.2-2.4-1.2-4.6-2.9-6.3
			C13.6,15,11.4,14,9,13.8C7.1,13.6,5.1,14,3.5,14.9z"/>
	</g>
	<g>
		<path fill="#B4A79C" d="M28.8,13.8c-0.6,0-1.2-0.2-1.6-0.7l-8.4-8.4c-0.4-0.4-0.7-1-0.7-1.6c0-0.6,0.2-1.2,0.7-1.6
			c0.9-0.9,2.4-0.9,3.3,0l8.4,8.4c0.4,0.4,0.7,1,0.7,1.6c0,0.6-0.2,1.2-0.7,1.6C30,13.6,29.4,13.8,28.8,13.8z M20.5,2.3
			c-0.2,0-0.4,0.1-0.6,0.2c-0.2,0.2-0.2,0.4-0.2,0.6c0,0.2,0.1,0.4,0.2,0.6l8.4,8.4c0.3,0.3,0.8,0.3,1.1,0c0.2-0.2,0.2-0.4,0.2-0.6
			c0-0.2-0.1-0.4-0.2-0.6L21,2.6C20.9,2.4,20.7,2.3,20.5,2.3z"/>
	</g>
</g>
</svg>
