<?xml version="1.0" encoding="utf-8"?>
<!-- Generator: Adobe Illustrator 18.0.0, SVG Export Plug-In . SVG Version: 6.00 Build 0)  -->
<!DOCTYPE svg PUBLIC "-//W3C//DTD SVG 1.1//EN" "http://www.w3.org/Graphics/SVG/1.1/DTD/svg11.dtd">
<svg version="1.1" id="Layer_1" xmlns="http://www.w3.org/2000/svg" xmlns:xlink="http://www.w3.org/1999/xlink" x="0px" y="0px"
	 viewBox="0 0 32 32" enable-background="new 0 0 32 32" xml:space="preserve">
<g>
	<g>
		<path fill="#74B1E0" d="M25.3,31.2H6.7l-0.2-0.3c-1.5-2-2.2-4.4-2.2-6.9c0-6.5,5.3-11.7,11.7-11.7c6.5,0,11.7,5.3,11.7,11.7
			c0,2.5-0.8,4.9-2.2,6.9L25.3,31.2z M7.5,29.7h17c1.1-1.7,1.7-3.7,1.7-5.7c0-5.6-4.6-10.2-10.2-10.2S5.8,18.4,5.8,24
			C5.8,26.1,6.4,28.1,7.5,29.7z"/>
	</g>
	<g>
		<path fill="#74B1E0" d="M19.8,31.2h-7.6l-0.1-0.6c-0.5-2-0.8-4.2-0.8-6.6c0-5.7,1.7-11.7,4.7-11.7c3.1,0,4.7,6,4.7,11.7
			c0,2.4-0.3,4.7-0.8,6.6L19.8,31.2z M13.4,29.7h5.2C19,28,19.2,26,19.2,24c0-6.3-1.9-10.2-3.2-10.2s-3.2,3.9-3.2,10.2
			C12.8,26.1,13,28,13.4,29.7z"/>
	</g>
	<g>
		<rect x="5" y="23.3" fill="#74B1E0" width="22" height="1.5"/>
	</g>
	<g>
		<path fill="#8F9BA8" d="M31.3,9.9H0.8V0.7h30.5V9.9z M2.3,8.4h27.5V2.2H2.3V8.4z"/>
	</g>
	<g>
		<path fill="#8F9BA8" d="M31.3,31.2H0.8V8.4h30.5V31.2z M2.3,29.7h27.5V9.9H2.3V29.7z"/>
	</g>
	<g>
		<rect x="22" y="4.5" fill="#8F9BA8" width="1.5" height="1.7"/>
	</g>
	<g>
		<rect x="25.9" y="4.5" fill="#8F9BA8" width="1.5" height="1.7"/>
	</g>
	<g>
		<rect x="4.8" y="4.6" fill="#8F9BA8" width="4.4" height="1.5"/>
	</g>
</g>
</svg>
