<?xml version="1.0" encoding="utf-8"?>
<!-- Generator: Adobe Illustrator 18.0.0, SVG Export Plug-In . SVG Version: 6.00 Build 0)  -->
<!DOCTYPE svg PUBLIC "-//W3C//DTD SVG 1.1//EN" "http://www.w3.org/Graphics/SVG/1.1/DTD/svg11.dtd">
<svg version="1.1" id="Layer_1" xmlns="http://www.w3.org/2000/svg" xmlns:xlink="http://www.w3.org/1999/xlink" x="0px" y="0px"
	 viewBox="0 0 32 32" enable-background="new 0 0 32 32" xml:space="preserve">
<g>
	<g>
		<path fill="#8F9BA8" d="M16,31.2C7.6,31.2,0.8,24.4,0.8,16S7.6,0.7,16,0.7S31.3,7.6,31.3,16S24.4,31.2,16,31.2z M16,2.2
			C8.4,2.2,2.3,8.4,2.3,16c0,7.6,6.2,13.8,13.8,13.8S29.8,23.6,29.8,16C29.8,8.4,23.6,2.2,16,2.2z"/>
	</g>
	<g>
		<path fill="#8F9BA8" d="M16,31.2c-3.9,0-6-7.9-6-15.3s2.1-15.3,6-15.3s6,7.9,6,15.3S19.9,31.2,16,31.2z M16,2.2
			c-2.1,0-4.5,5.6-4.5,13.8s2.4,13.8,4.5,13.8c2.1,0,4.5-5.6,4.5-13.8S18.1,2.2,16,2.2z"/>
	</g>
	<g>
		<rect x="1.5" y="15.3" fill="#8F9BA8" width="29" height="1.5"/>
	</g>
</g>
</svg>
