<?xml version="1.0" encoding="utf-8"?>
<!-- Generator: Adobe Illustrator 18.0.0, SVG Export Plug-In . SVG Version: 6.00 Build 0)  -->
<!DOCTYPE svg PUBLIC "-//W3C//DTD SVG 1.1//EN" "http://www.w3.org/Graphics/SVG/1.1/DTD/svg11.dtd">
<svg version="1.1" id="Layer_1" xmlns="http://www.w3.org/2000/svg" xmlns:xlink="http://www.w3.org/1999/xlink" x="0px" y="0px"
	 viewBox="0 0 32 32" enable-background="new 0 0 32 32" xml:space="preserve">
<g>
	<g>
		<path fill="#8F9BA8" d="M31.3,31.2H0.8V0.7h30.5V31.2z M2.3,29.7h27.5V2.2H2.3V29.7z"/>
	</g>
	<g>
		<polygon fill="#B4A042" points="11.6,20.9 10.1,20.9 10.1,11.8 6.8,11.8 6.8,20.9 5.3,20.9 5.3,10.3 11.6,10.3 		"/>
	</g>
	<g>
		<rect x="6" y="15.3" fill="#B4A042" width="4.9" height="1.5"/>
	</g>
	<g>
		<polygon fill="#B4A042" points="19.2,21.7 12.8,21.7 12.8,19.6 14.3,19.6 14.3,20.2 17.7,20.2 17.7,16.7 13.6,16.7 13.6,15.2 
			19.2,15.2 		"/>
	</g>
	<g>
		<polygon fill="#B4A042" points="18.4,16.7 12.8,16.7 12.8,10.3 19.2,10.3 19.2,12.4 17.7,12.4 17.7,11.8 14.3,11.8 14.3,15.2 
			18.4,15.2 		"/>
	</g>
	<g>
		<path fill="#B4A042" d="M21.9,20.9h-1.5V10.3h6.4v6.4h-4.9V20.9z M21.9,15.2h3.4v-3.4h-3.4V15.2z"/>
	</g>
</g>
</svg>
