<?xml version="1.0" encoding="utf-8"?>
<!-- Generator: Adobe Illustrator 18.0.0, SVG Export Plug-In . SVG Version: 6.00 Build 0)  -->
<!DOCTYPE svg PUBLIC "-//W3C//DTD SVG 1.1//EN" "http://www.w3.org/Graphics/SVG/1.1/DTD/svg11.dtd">
<svg version="1.1" id="Layer_1" xmlns="http://www.w3.org/2000/svg" xmlns:xlink="http://www.w3.org/1999/xlink" x="0px" y="0px"
	 viewBox="0 0 32 32" enable-background="new 0 0 32 32" xml:space="preserve">
<g>
	<g>
		<path fill="#8F9BA8" d="M9.5,29.2L9.5,29.2c-2.6,0-4.7-2.1-4.7-4.7v-8.4l1.3,1.3c1.5,1.5,3.2,2.7,5.2,3.5l0.5,0.2v2.2l6.9-6.9
			l-6.9-6.9v3.3L11.2,13c-1.9,0.4-4.1,0.1-6-0.7L4.8,12V7.5c0-2.6,2.1-4.7,4.7-4.7h17c2.6,0,4.7,2.1,4.7,4.7v17
			c0,2.6-2.1,4.7-4.7,4.7L9.5,29.2z M6.3,19.7v4.8c0,1.8,1.5,3.2,3.2,3.2l17,0c1.8,0,3.2-1.5,3.2-3.2v-17c0-1.8-1.5-3.2-3.2-3.2h-17
			c-1.8,0-3.2,1.5-3.2,3.2v3.5c1.3,0.5,2.7,0.7,4,0.5V5.9l10.5,10.5L10.3,26.9v-4.8C8.8,21.5,7.5,20.7,6.3,19.7z"/>
	</g>
	<g>
		<path fill="#FAC2C3" d="M5.5,18c1.5,1.5,3.3,2.8,5.5,3.7v3.5l8.7-8.7l-8.7-8.7v4.5c-1.7,0.3-3.6,0.2-5.5-0.7
			c-1.4-0.7-2.9-1.7-4-3.2C1.5,11.6,2.8,15.2,5.5,18z"/>
		<path fill="#DA8C8C" d="M10.3,26.9v-4.8c-2-0.9-3.8-2.1-5.3-3.7c-2.8-2.8-4.3-6.5-4.3-10.1l0-2.1l1.3,1.7c1.1,1.3,2.3,2.3,3.8,3
			c1.4,0.6,3,0.9,4.5,0.7V5.9l10.5,10.5L10.3,26.9z M2.4,10.4c0.4,2.5,1.7,5,3.7,7c1.5,1.5,3.2,2.7,5.2,3.5l0.5,0.2v2.2l6.9-6.9
			l-6.9-6.9v3.3L11.2,13c-1.9,0.4-4.1,0.1-6-0.7C4.2,11.8,3.3,11.2,2.4,10.4z"/>
	</g>
</g>
</svg>
