<?xml version="1.0" encoding="utf-8"?>
<!-- Generator: Adobe Illustrator 18.0.0, SVG Export Plug-In . SVG Version: 6.00 Build 0)  -->
<!DOCTYPE svg PUBLIC "-//W3C//DTD SVG 1.1//EN" "http://www.w3.org/Graphics/SVG/1.1/DTD/svg11.dtd">
<svg version="1.1" id="Layer_1" xmlns="http://www.w3.org/2000/svg" xmlns:xlink="http://www.w3.org/1999/xlink" x="0px" y="0px"
	 viewBox="0 0 32 32" enable-background="new 0 0 32 32" xml:space="preserve">
<g>
	<g>
		<path fill="#8F9BA8" d="M24.5,27.2h-8.4l1.3-1.3c1.5-1.5,2.7-3.2,3.5-5.2l0.2-0.5h2.2l-6.9-6.9l-6.9,6.9h3.3l0.1,0.6
			c0.4,1.9,0.1,4-0.7,6L12,27.2H7.5c-2.6,0-4.7-2.1-4.7-4.7l0-17c0-2.6,2.1-4.7,4.7-4.7h17c2.6,0,4.7,2.1,4.7,4.7v17
			C29.2,25.1,27.1,27.2,24.5,27.2z M19.7,25.7h4.8c1.8,0,3.2-1.5,3.2-3.2v-17c0-1.8-1.5-3.2-3.2-3.2h-17c-1.8,0-3.2,1.5-3.2,3.2
			l0,17c0,1.8,1.5,3.2,3.2,3.2h3.5c0.5-1.3,0.7-2.7,0.5-4H5.9l10.5-10.5l10.5,10.5h-4.8C21.5,23.2,20.7,24.5,19.7,25.7z"/>
	</g>
	<g>
		<path fill="#CDE4F7" d="M18,26.5c1.5-1.5,2.8-3.3,3.7-5.5h3.5l-8.7-8.7l-8.7,8.7h4.5c0.3,1.7,0.2,3.6-0.7,5.5
			c-0.7,1.4-1.7,2.9-3.2,4C11.6,30.5,15.2,29.2,18,26.5z"/>
		<path fill="#74B1E0" d="M8.5,31.2C8.5,31.2,8.5,31.2,8.5,31.2l-2.3,0l1.7-1.3c1.3-1.1,2.3-2.3,3-3.8c0.6-1.4,0.9-3,0.7-4.5H5.9
			l10.5-10.5l10.5,10.5h-4.8c-0.9,2-2.1,3.8-3.7,5.3C15.7,29.7,12,31.2,8.5,31.2z M9.5,20.2h3.3l0.1,0.6c0.4,1.9,0.1,4-0.7,6
			c-0.5,1-1.1,2-1.8,2.8c2.5-0.4,5-1.7,7-3.7c1.5-1.5,2.7-3.2,3.5-5.2l0.2-0.5h2.2l-6.9-6.9L9.5,20.2z"/>
	</g>
</g>
</svg>
