<?xml version="1.0" encoding="utf-8"?>
<!-- Generator: Adobe Illustrator 18.0.0, SVG Export Plug-In . SVG Version: 6.00 Build 0)  -->
<!DOCTYPE svg PUBLIC "-//W3C//DTD SVG 1.1//EN" "http://www.w3.org/Graphics/SVG/1.1/DTD/svg11.dtd">
<svg version="1.1" id="Layer_1" xmlns="http://www.w3.org/2000/svg" xmlns:xlink="http://www.w3.org/1999/xlink" x="0px" y="0px"
	 viewBox="0 0 32 32" enable-background="new 0 0 32 32" xml:space="preserve">
<g>
	<g>
		<path fill="#8F9BA8" d="M24.5,31.2h-17c-2.6,0-4.7-2.1-4.7-4.7v-17c0-2.6,2.1-4.7,4.7-4.7h8.4l-1.3,1.3c-1.5,1.5-2.7,3.2-3.5,5.3
			l-0.2,0.5H8.7l6.9,6.9l6.9-6.9h-3.3L19,11.2c-0.4-1.9-0.1-4,0.7-6L20,4.8h4.5c2.6,0,4.7,2.1,4.7,4.7v17
			C29.2,29.1,27.1,31.2,24.5,31.2z M7.5,6.3c-1.8,0-3.2,1.5-3.2,3.2v17c0,1.8,1.5,3.2,3.2,3.2h17c1.8,0,3.2-1.5,3.2-3.2v-17
			c0-1.8-1.5-3.2-3.2-3.2H21c-0.5,1.3-0.7,2.7-0.5,4h5.7L15.6,20.8L5.1,10.3h4.8c0.6-1.5,1.5-2.8,2.5-4H7.5z"/>
	</g>
	<g>
		<path fill="#F2E8B9" d="M14,5.5C12.5,7,11.2,8.8,10.3,11H6.9l8.7,8.7l8.7-8.7h-4.5c-0.3-1.7-0.2-3.6,0.7-5.5
			c0.7-1.4,1.7-2.9,3.2-4C20.4,1.5,16.8,2.8,14,5.5z"/>
		<path fill="#B4A042" d="M15.6,20.8L5.1,10.3h4.8c0.9-2,2.1-3.8,3.7-5.3c2.8-2.7,6.4-4.3,10-4.3h2.3L24.2,2c-1.3,1.1-2.3,2.3-3,3.8
			c-0.6,1.4-0.9,3-0.7,4.5h5.7L15.6,20.8z M8.7,11.8l6.9,6.9l6.9-6.9h-3.3L19,11.2c-0.4-1.9-0.1-4,0.7-6c0.5-1,1.1-2,1.8-2.8
			c-2.5,0.4-5,1.7-7,3.7C13,7.6,11.8,9.3,11,11.4l-0.2,0.5L8.7,11.8L8.7,11.8z"/>
	</g>
</g>
</svg>
