<?xml version="1.0" encoding="utf-8"?>
<!-- Generator: Adobe Illustrator 18.0.0, SVG Export Plug-In . SVG Version: 6.00 Build 0)  -->
<!DOCTYPE svg PUBLIC "-//W3C//DTD SVG 1.1//EN" "http://www.w3.org/Graphics/SVG/1.1/DTD/svg11.dtd">
<svg version="1.1" id="Layer_1" xmlns="http://www.w3.org/2000/svg" xmlns:xlink="http://www.w3.org/1999/xlink" x="0px" y="0px"
	 viewBox="0 0 32 32" enable-background="new 0 0 32 32" xml:space="preserve">
<g>
	<g>
		<path fill="#8F9BA8" d="M22.5,29.2h-17c-2.6,0-4.7-2.1-4.7-4.7v-17c0-2.6,2.1-4.7,4.7-4.7h17c2.6,0,4.7,2.1,4.7,4.7v8.4l-1.3-1.3
			c-1.5-1.5-3.2-2.7-5.3-3.5l-0.5-0.2V8.7l-6.9,6.9l6.9,6.9v-3.3l0.6-0.1c1.9-0.4,4.1-0.1,6,0.7l0.4,0.2v4.5
			C27.2,27.1,25.1,29.2,22.5,29.2z M5.5,4.3c-1.8,0-3.2,1.5-3.2,3.2v17c0,1.8,1.5,3.2,3.2,3.2h17c1.8,0,3.2-1.5,3.2-3.2v-3.5
			c-1.3-0.5-2.7-0.7-4-0.5v5.7L11.2,15.6L21.7,5.1v4.8c1.5,0.6,2.8,1.5,4,2.5V7.5c0-1.8-1.5-3.2-3.2-3.2H5.5z"/>
	</g>
	<g>
		<path fill="#CDE4F7" d="M26.5,14c-1.5-1.5-3.3-2.8-5.5-3.7V6.9l-8.7,8.7l8.7,8.7v-4.5c1.7-0.3,3.6-0.2,5.5,0.7
			c1.4,0.7,2.9,1.7,4,3.2C30.5,20.4,29.2,16.8,26.5,14z"/>
		<path fill="#74B1E0" d="M21.7,26.1L11.2,15.6L21.7,5.1v4.8c2,0.9,3.8,2.1,5.3,3.7c2.8,2.8,4.3,6.5,4.3,10.1l0,2.1l-1.3-1.7
			c-1.1-1.3-2.3-2.3-3.8-3c-1.4-0.6-3-0.9-4.5-0.7V26.1z M13.3,15.6l6.9,6.9v-3.3l0.6-0.1c1.9-0.4,4.1-0.1,6,0.7
			c1,0.5,2,1.1,2.8,1.8c-0.4-2.5-1.7-5-3.7-7c-1.5-1.5-3.2-2.7-5.3-3.5l-0.5-0.2V8.7L13.3,15.6z"/>
	</g>
</g>
</svg>
