<?xml version="1.0" encoding="utf-8"?>
<!-- Generator: Adobe Illustrator 18.0.0, SVG Export Plug-In . SVG Version: 6.00 Build 0)  -->
<!DOCTYPE svg PUBLIC "-//W3C//DTD SVG 1.1//EN" "http://www.w3.org/Graphics/SVG/1.1/DTD/svg11.dtd">
<svg version="1.1" id="Layer_1" xmlns="http://www.w3.org/2000/svg" xmlns:xlink="http://www.w3.org/1999/xlink" x="0px" y="0px"
	 viewBox="0 0 32 32" enable-background="new 0 0 32 32" xml:space="preserve">
<g>
	<g>
		<path fill="none" d="M18.8,13.7c1.4,1.4,1.6,3.6,0.6,5.2c0.1,0,0.3-0.1,0.4-0.2l2-2l4.9-4.9c0.3-0.3,0.3-0.7,0-1l-3-3
			c-0.3-0.3-0.7-0.3-1,0l-4.9,4.9h0L18.8,13.7z"/>
	</g>
	<g>
		<path fill="none" d="M13.2,18.3c-1.4-1.4-1.6-3.6-0.6-5.2l0,0c-0.1,0-0.3,0.1-0.4,0.2l-6.9,6.9c-0.3,0.3-0.3,0.7,0,1l3,3
			c0.3,0.3,0.7,0.3,1,0l4.9-4.9h0L13.2,18.3z"/>
	</g>
	<g>
		<polygon fill="none" points="15.9,15.9 15.9,15.9 16.3,16.3 16.3,16.3 16.3,16.3 		"/>
	</g>
	<g>
		<path fill="#FFFFFF" d="M18.8,13.7l-1-1h0l-2,2c-0.3,0.3-0.3,0.7,0,1l0.1,0.1l0,0l0.4,0.4c0,0,0,0,0,0c0.3,0.3,0.3,0.7,0,1l-2,2
			l-4.9,4.9c-0.3,0.3-0.7,0.3-1,0l-3-3c-0.3-0.3-0.3-0.7,0-1l6.9-6.9c0.1-0.1,0.2-0.2,0.4-0.2l0,0c0.2-0.3,0.4-0.6,0.6-0.8l2-2h0
			c-1.7-1.2-4-1-5.5,0.5l-6.9,6.9c-1.7,1.7-1.7,4.4,0,6.1l3,3c1.7,1.7,4.4,1.7,6.1,0l5-5l1.9-1.9c0.3-0.3,0.5-0.5,0.6-0.8
			C20.4,17.3,20.2,15.2,18.8,13.7z"/>
		<path fill="#8F9BA8" d="M8.8,28.7c-1.3,0-2.6-0.5-3.6-1.5l-3-3c-2-2-2-5.2,0-7.1l6.9-6.9c0.9-0.9,2.2-1.5,3.6-1.5
			c1,0,2,0.3,2.9,0.9l0.7,0.5l-2.6,2.6c-0.2,0.2-0.3,0.4-0.5,0.7l-0.5,0.8L12.5,14l-6.7,6.7l3,3l6.9-6.9l-0.5-0.5
			c-0.3-0.3-0.4-0.7-0.4-1c0-0.4,0.2-0.8,0.4-1l2.5-2.5l1.6,1.6c1.6,1.6,1.9,4.1,0.8,6.1c-0.2,0.4-0.5,0.7-0.8,1l-6.9,6.9
			C11.4,28.2,10.1,28.7,8.8,28.7z M12.7,10.2c-0.9,0-1.8,0.4-2.5,1l-6.9,6.9c-1.4,1.4-1.4,3.6,0,5l3,3c1.3,1.3,3.7,1.3,5,0l6.9-6.9
			c0.2-0.2,0.4-0.4,0.5-0.7c0.8-1.4,0.6-3.2-0.5-4.3l-0.5-0.5l-1.5,1.5l0.1,0.1l0.4,0.4c0.5,0.6,0.5,1.5-0.1,2l-6.9,6.9
			c-0.6,0.6-1.5,0.6-2.1,0l-3-3c-0.6-0.6-0.6-1.5,0-2.1l6.9-6.9c0.1-0.1,0.3-0.2,0.4-0.3c0.2-0.3,0.4-0.5,0.6-0.7l1.2-1.2
			C13.6,10.3,13.1,10.2,12.7,10.2z"/>
	</g>
	<g>
		<path fill="#F9F8F2" d="M29.2,8.3l-3-3c-1.7-1.7-4.4-1.7-6.1,0l-5,5l-2,2c-0.3,0.3-0.5,0.5-0.6,0.8c-1,1.6-0.8,3.8,0.6,5.2l1,1h0
			l2-2c0.3-0.3,0.3-0.7,0-1l0,0l-0.4-0.4l-0.1-0.1c-0.3-0.3-0.3-0.7,0-1l2-2l4.9-4.9c0.3-0.3,0.7-0.3,1,0l3,3c0.3,0.3,0.3,0.7,0,1
			l-4.9,4.9l-2,2c-0.1,0.1-0.3,0.2-0.4,0.2c-0.2,0.3-0.4,0.6-0.6,0.8l-1.9,1.9l0.1,0.1c0.8,0.5,1.7,0.7,2.6,0.7
			c0.8-0.1,1.5-0.3,2.2-0.8c0.2-0.1,0.4-0.3,0.6-0.5l6.9-6.9C30.9,12.7,30.9,10,29.2,8.3z"/>
		<path fill="#B4A79C" d="M19.3,23.3c-1,0-1.9-0.3-2.7-0.8l-0.2-0.2l-0.6-0.5l2.5-2.5c0.2-0.2,0.4-0.4,0.5-0.7l0.2-0.3l0.3-0.1
			l6.9-6.9l-3-3l-6.9,6.9l0.1,0.1l0.4,0.4c0.6,0.6,0.6,1.5,0,2.1l-2.5,2.5l-1.6-1.6c-1.6-1.6-1.9-4.1-0.8-6.1c0.2-0.4,0.5-0.7,0.8-1
			l6.9-6.9c0.9-0.9,2.2-1.5,3.6-1.5c1.3,0,2.6,0.5,3.6,1.5l3,3c0.9,0.9,1.5,2.2,1.5,3.6c0,1.3-0.5,2.6-1.5,3.6l-6.9,6.9
			c-0.2,0.2-0.4,0.4-0.7,0.6c-0.8,0.5-1.6,0.8-2.6,0.9C19.5,23.3,19.4,23.3,19.3,23.3z M18.1,21.6c0.5,0.2,1,0.2,1.5,0.2
			c0.6,0,1.3-0.3,1.8-0.6c0.2-0.1,0.3-0.2,0.5-0.4l6.9-6.9c0.7-0.7,1-1.6,1-2.5c0-0.9-0.4-1.8-1-2.5l-3-3c-1.3-1.3-3.7-1.3-5,0
			l-6.9,6.9c-0.2,0.2-0.3,0.4-0.5,0.7c-0.8,1.4-0.6,3.2,0.5,4.3l0.5,0.5l1.5-1.5l-0.5-0.5c-0.6-0.6-0.6-1.5,0-2.1l6.9-6.9
			c0.6-0.6,1.5-0.6,2.1,0l3,3c0.6,0.6,0.6,1.5,0,2.1l-6.9,6.9c-0.1,0.1-0.3,0.2-0.4,0.3c-0.2,0.3-0.4,0.5-0.6,0.7L18.1,21.6z"/>
	</g>
</g>
</svg>
