<?xml version="1.0" encoding="utf-8"?>
<!-- Generator: Adobe Illustrator 18.0.0, SVG Export Plug-In . SVG Version: 6.00 Build 0)  -->
<!DOCTYPE svg PUBLIC "-//W3C//DTD SVG 1.1//EN" "http://www.w3.org/Graphics/SVG/1.1/DTD/svg11.dtd">
<svg version="1.1" id="Layer_1" xmlns="http://www.w3.org/2000/svg" xmlns:xlink="http://www.w3.org/1999/xlink" x="0px" y="0px"
	 viewBox="0 0 32 32" enable-background="new 0 0 32 32" xml:space="preserve">
<g>
	<g>
		<path fill="#74B1E0" d="M16,20.1c-2.2,0-4.1-1.8-4.1-4.1c0-2.2,1.8-4.1,4.1-4.1c2.2,0,4.1,1.8,4.1,4.1
			C20.1,18.2,18.2,20.1,16,20.1z M16,13.4c-1.4,0-2.6,1.2-2.6,2.6c0,1.4,1.2,2.6,2.6,2.6c1.4,0,2.6-1.2,2.6-2.6
			C18.6,14.6,17.4,13.4,16,13.4z"/>
	</g>
	<g>
		<path fill="#74B1E0" d="M22.4,22.4l-1.1-1.1c1.4-1.4,2.2-3.3,2.2-5.3c0-2-0.8-3.9-2.2-5.3l1.1-1.1c1.7,1.7,2.6,4,2.6,6.4
			C25,18.4,24.1,20.7,22.4,22.4z"/>
	</g>
	<g>
		<path fill="#74B1E0" d="M9.6,22.4c-3.5-3.5-3.5-9.2,0-12.7l1.1,1.1c-2.9,2.9-2.9,7.7,0,10.6L9.6,22.4z"/>
	</g>
	<g>
		<path fill="#74B1E0" d="M26.8,26.8l-1.1-1.1c5.4-5.4,5.4-14.1,0-19.4l1.1-1.1C32.7,11.2,32.7,20.8,26.8,26.8z"/>
	</g>
	<g>
		<path fill="#74B1E0" d="M5.2,26.8c-5.9-5.9-5.9-15.6,0-21.6l1.1,1.1c-5.4,5.4-5.4,14.1,0,19.4L5.2,26.8z"/>
	</g>
</g>
</svg>
