<?xml version="1.0" encoding="utf-8"?>
<!-- Generator: Adobe Illustrator 18.0.0, SVG Export Plug-In . SVG Version: 6.00 Build 0)  -->
<!DOCTYPE svg PUBLIC "-//W3C//DTD SVG 1.1//EN" "http://www.w3.org/Graphics/SVG/1.1/DTD/svg11.dtd">
<svg version="1.1" id="Layer_1" xmlns="http://www.w3.org/2000/svg" xmlns:xlink="http://www.w3.org/1999/xlink" x="0px" y="0px"
	 viewBox="0 0 32 32" enable-background="new 0 0 32 32" xml:space="preserve">
<g>
	<g>
		<path fill="#B4A79C" d="M28.7,31.2H3.3c-1.4,0-2.5-1.1-2.5-2.5V3.3c0-1.4,1.1-2.5,2.5-2.5h25.4c1.4,0,2.5,1.1,2.5,2.5v25.4
			C31.3,30.1,30.1,31.2,28.7,31.2z M3.3,2.2c-0.6,0-1,0.5-1,1v25.4c0,0.6,0.5,1,1,1h25.4c0.6,0,1-0.5,1-1V3.3c0-0.6-0.5-1-1-1H3.3z"
			/>
	</g>
	<g>
		<path fill="#B4A79C" d="M24.5,27h-17C6.1,27,5,25.9,5,24.5v-17C5,6.1,6.1,5,7.5,5h5.2c0.8,0,1.6,0.4,2.1,1.1l0.6,0.9
			c0.2,0.3,0.5,0.4,0.8,0.4h8.3c1.4,0,2.5,1.1,2.5,2.5v14.6C27,25.9,25.9,27,24.5,27z M7.5,6.5c-0.5,0-1,0.4-1,1v17c0,0.5,0.4,1,1,1
			h17c0.5,0,1-0.4,1-1V9.9c0-0.5-0.4-1-1-1h-8.3c-0.8,0-1.6-0.4-2.1-1.1l-0.6-0.9c-0.2-0.3-0.5-0.4-0.8-0.4H7.5z"/>
	</g>
	<g>
		<line fill="#F9F8F2" x1="18" y1="3.7" x2="18" y2="5.1"/>
		<rect x="17.3" y="3.7" fill="#B4A79C" width="1.5" height="1.4"/>
	</g>
	<g>
		<line fill="#F9F8F2" x1="21.3" y1="3.7" x2="21.3" y2="5.1"/>
		<rect x="20.5" y="3.7" fill="#B4A79C" width="1.5" height="1.4"/>
	</g>
	<g>
		<line fill="#F9F8F2" x1="24.6" y1="3.7" x2="24.6" y2="5.1"/>
		<rect x="23.8" y="3.7" fill="#B4A79C" width="1.5" height="1.4"/>
	</g>
	<g>
		<circle fill="#F2E8B9" cx="16" cy="17.5" r="3.1"/>
		<path fill="#B4A042" d="M16,21.3c-2.1,0-3.9-1.7-3.9-3.9s1.7-3.9,3.9-3.9s3.9,1.7,3.9,3.9S18.1,21.3,16,21.3z M16,15.1
			c-1.3,0-2.4,1.1-2.4,2.4c0,1.3,1.1,2.4,2.4,2.4c1.3,0,2.4-1.1,2.4-2.4C18.4,16.2,17.3,15.1,16,15.1z"/>
	</g>
	<g>
		<line fill="#F2E8B9" x1="16" y1="20.6" x2="16" y2="23.4"/>
		<rect x="15.3" y="20.6" fill="#B4A042" width="1.5" height="2.8"/>
	</g>
	<g>
		<line fill="#F2E8B9" x1="16" y1="11.6" x2="16" y2="14.4"/>
		<rect x="15.3" y="11.6" fill="#B4A042" width="1.5" height="2.8"/>
	</g>
	<g>
		<line fill="#F2E8B9" x1="12.9" y1="17.5" x2="10.1" y2="17.5"/>
		<rect x="10.1" y="16.7" fill="#B4A042" width="2.8" height="1.5"/>
	</g>
	<g>
		<line fill="#F2E8B9" x1="21.9" y1="17.5" x2="19.1" y2="17.5"/>
		<rect x="19.1" y="16.7" fill="#B4A042" width="2.8" height="1.5"/>
	</g>
	<g>
		<line fill="#F2E8B9" x1="13.8" y1="19.7" x2="11.8" y2="21.7"/>
		
			<rect x="12.1" y="19.3" transform="matrix(0.7071 0.7071 -0.7071 0.7071 18.3657 -3.0104)" fill="#B4A042" width="1.5" height="2.8"/>
	</g>
	<g>
		<line fill="#F2E8B9" x1="20.2" y1="13.3" x2="18.2" y2="15.3"/>
		
			<rect x="18.4" y="12.9" transform="matrix(0.7071 0.7071 -0.7071 0.7071 15.7269 -9.3778)" fill="#B4A042" width="1.5" height="2.8"/>
	</g>
	<g>
		<line fill="#F2E8B9" x1="13.8" y1="15.3" x2="11.8" y2="13.3"/>
		
			<rect x="11.4" y="13.5" transform="matrix(0.7071 0.7071 -0.7071 0.7071 13.8626 -4.8751)" fill="#B4A042" width="2.8" height="1.5"/>
	</g>
	<g>
		<line fill="#F2E8B9" x1="20.2" y1="21.7" x2="18.2" y2="19.7"/>
		
			<rect x="17.8" y="19.9" transform="matrix(0.7071 0.7071 -0.7071 0.7071 20.2295 -7.5133)" fill="#B4A042" width="2.8" height="1.5"/>
	</g>
</g>
</svg>
