<?xml version="1.0" encoding="utf-8"?>
<!-- Generator: Adobe Illustrator 18.0.0, SVG Export Plug-In . SVG Version: 6.00 Build 0)  -->
<!DOCTYPE svg PUBLIC "-//W3C//DTD SVG 1.1//EN" "http://www.w3.org/Graphics/SVG/1.1/DTD/svg11.dtd">
<svg version="1.1" id="Layer_1" xmlns="http://www.w3.org/2000/svg" xmlns:xlink="http://www.w3.org/1999/xlink" x="0px" y="0px"
	 viewBox="0 0 32 32" enable-background="new 0 0 32 32" xml:space="preserve">
<g>
	<g>
		<path fill="#79C693" d="M3.4,31.4C3.4,31.4,3.4,31.4,3.4,31.4l-2.4,0l1.7-1.3c2.2-1.7,3.8-3.8,4.9-6.1c1.1-2.5,1.5-5.2,1.1-7.7
			H0.4L16,0.6l15.6,15.6h-6.8c-1.4,3.3-3.3,6.1-5.8,8.5C14.6,29,9,31.4,3.4,31.4z M4,14.7h6l0.1,0.6c0.6,3,0.2,6.2-1.1,9.2
			c-0.9,2-2.1,3.7-3.7,5.3c4.5-0.5,9.1-2.6,12.7-6.1c2.5-2.4,4.4-5.2,5.7-8.5l0.2-0.5H28l-12-12L4,14.7z"/>
	</g>
</g>
</svg>
