<?xml version="1.0" encoding="utf-8"?>
<!-- Generator: Adobe Illustrator 18.0.0, SVG Export Plug-In . SVG Version: 6.00 Build 0)  -->
<!DOCTYPE svg PUBLIC "-//W3C//DTD SVG 1.1//EN" "http://www.w3.org/Graphics/SVG/1.1/DTD/svg11.dtd">
<svg version="1.1" id="Layer_1" xmlns="http://www.w3.org/2000/svg" xmlns:xlink="http://www.w3.org/1999/xlink" x="0px" y="0px"
	 viewBox="0 0 32 32" enable-background="new 0 0 32 32" xml:space="preserve">
<g>
	<g>
		<path fill="#DA8C8C" d="M15.8,31.6v-6.8c-3.3-1.4-6.1-3.3-8.5-5.8C2.9,14.5,0.5,8.8,0.6,3.2l0-2.1l1.3,1.7
			c1.7,2.2,3.8,3.8,6.1,4.9c2.5,1.1,5.2,1.5,7.7,1.1V0.4L31.4,16L15.8,31.6z M2.2,5.3c0.5,4.5,2.6,9.1,6.1,12.7
			c2.4,2.5,5.2,4.4,8.5,5.7l0.5,0.2V28l12-12l-12-12v6l-0.6,0.1c-2.9,0.6-6.3,0.2-9.2-1.1C5.5,8.1,3.7,6.9,2.2,5.3z"/>
	</g>
</g>
</svg>
