<?xml version="1.0" encoding="utf-8"?>
<!-- Generator: Adobe Illustrator 18.0.0, SVG Export Plug-In . SVG Version: 6.00 Build 0)  -->
<!DOCTYPE svg PUBLIC "-//W3C//DTD SVG 1.1//EN" "http://www.w3.org/Graphics/SVG/1.1/DTD/svg11.dtd">
<svg version="1.1" id="Layer_1" xmlns="http://www.w3.org/2000/svg" xmlns:xlink="http://www.w3.org/1999/xlink" x="0px" y="0px"
	 viewBox="0 0 32 32" enable-background="new 0 0 32 32" xml:space="preserve">
<g>
	<g>
		<path fill="#B4A79C" d="M16,31.4L0.4,15.8h6.8c1.4-3.3,3.3-6.1,5.8-8.5C17.4,3,23,0.6,28.6,0.6H31l-1.7,1.3
			c-2.2,1.7-3.8,3.8-4.9,6.1c-1.1,2.5-1.5,5.2-1.1,7.7h8.4L16,31.4z M4,17.3l12,12l12-12h-6l-0.1-0.6c-0.6-3-0.2-6.2,1.1-9.2
			c0.9-2,2.1-3.7,3.7-5.3C22.2,2.7,17.6,4.8,14,8.3c-2.5,2.4-4.4,5.2-5.7,8.5l-0.2,0.5H4z"/>
	</g>
</g>
</svg>
