<?xml version="1.0" encoding="utf-8"?>
<!-- Generator: Adobe Illustrator 18.0.0, SVG Export Plug-In . SVG Version: 6.00 Build 0)  -->
<!DOCTYPE svg PUBLIC "-//W3C//DTD SVG 1.1//EN" "http://www.w3.org/Graphics/SVG/1.1/DTD/svg11.dtd">
<svg version="1.1" id="Layer_1" xmlns="http://www.w3.org/2000/svg" xmlns:xlink="http://www.w3.org/1999/xlink" x="0px" y="0px"
	 viewBox="0 0 32 32" enable-background="new 0 0 32 32" xml:space="preserve">
<g>
	<g>
		<path fill="#74B1E0" d="M16.2,31.6L0.6,16L16.2,0.4v6.8c3.3,1.4,6.1,3.3,8.5,5.8c4.3,4.4,6.7,10.2,6.6,15.8l0,2.1l-1.3-1.7
			c-1.7-2.2-3.8-3.8-6.1-4.9c-2.5-1.1-5.2-1.5-7.7-1.1V31.6z M2.7,16l12,12v-6l0.6-0.1c2.9-0.6,6.3-0.2,9.2,1.1
			c2,0.9,3.7,2.1,5.3,3.7c-0.5-4.5-2.6-9.1-6.1-12.7c-2.4-2.5-5.2-4.4-8.5-5.7l-0.5-0.2V4L2.7,16z"/>
	</g>
</g>
</svg>
