<?xml version="1.0" encoding="utf-8"?>
<!-- Generator: Adobe Illustrator 18.0.0, SVG Export Plug-In . SVG Version: 6.00 Build 0)  -->
<!DOCTYPE svg PUBLIC "-//W3C//DTD SVG 1.1//EN" "http://www.w3.org/Graphics/SVG/1.1/DTD/svg11.dtd">
<svg version="1.1" id="Layer_1" xmlns="http://www.w3.org/2000/svg" xmlns:xlink="http://www.w3.org/1999/xlink" x="0px" y="0px"
	 viewBox="0 0 32 32" enable-background="new 0 0 32 32" xml:space="preserve">
<g>
	<g>
		<path fill="#8F9BA8" d="M13.2,31.2c-0.1,0-0.2,0-0.3-0.1c-0.3-0.1-0.5-0.4-0.5-0.7V29c-1.1-0.5-2.1-1.2-2.9-2.1
			c-1.6-1.7-2.6-3.9-2.5-6c0-0.3,0.2-0.6,0.5-0.7c0.3-0.1,0.6,0,0.8,0.2c0.6,0.7,1.3,1.3,2,1.6c0.7,0.3,1.4,0.4,2.1,0.4v-1.9
			c0-0.3,0.2-0.6,0.5-0.7c0.3-0.1,0.6-0.1,0.8,0.2l5,5c0.1,0.1,0.2,0.3,0.2,0.5s-0.1,0.4-0.2,0.5l-5,5
			C13.5,31.2,13.4,31.2,13.2,31.2z M8.7,22.9c0.3,1.1,1,2.1,1.8,3c0.8,0.8,1.8,1.5,2.9,1.9c0.3,0.1,0.5,0.4,0.5,0.7v0.2l3.2-3.2
			l-3.2-3.2v0.8c0,0.4-0.3,0.7-0.6,0.7c-1.2,0.2-2.5,0.1-3.6-0.4C9.4,23.3,9,23.1,8.7,22.9z"/>
	</g>
	<g>
		<path fill="#8F9BA8" d="M13.2,31.2c-0.1,0-0.2,0-0.3-0.1c-0.3-0.1-0.5-0.4-0.5-0.7V29c-1.1-0.5-2.1-1.2-2.9-2.1
			c-1.6-1.7-2.6-3.9-2.5-6c0-0.3,0.2-0.6,0.5-0.7c0.3-0.1,0.6,0,0.8,0.2c0.6,0.7,1.3,1.3,2,1.6c0.7,0.3,1.4,0.4,2.1,0.4v-1.9
			c0-0.3,0.2-0.6,0.5-0.7c0.3-0.1,0.6-0.1,0.8,0.2l5,5c0.1,0.1,0.2,0.3,0.2,0.5s-0.1,0.4-0.2,0.5l-5,5
			C13.5,31.2,13.4,31.2,13.2,31.2z M8.7,22.9c0.3,1.1,1,2.1,1.8,3c0.8,0.8,1.8,1.5,2.9,1.9c0.3,0.1,0.5,0.4,0.5,0.7v0.2l3.2-3.2
			l-3.2-3.2v0.8c0,0.4-0.3,0.7-0.6,0.7c-1.2,0.2-2.5,0.1-3.6-0.4C9.4,23.3,9,23.1,8.7,22.9z"/>
	</g>
	<g>
		<path fill="#8F9BA8" d="M18.8,12.2c-0.2,0-0.4-0.1-0.5-0.2l-5-5C13,6.7,13,6.2,13.3,6l5-5c0.2-0.2,0.5-0.3,0.8-0.2
			c0.3,0.1,0.5,0.4,0.5,0.7V3c1.1,0.5,2.1,1.2,2.9,2.1c1.6,1.7,2.6,3.9,2.5,6c0,0.3-0.2,0.6-0.5,0.7c-0.3,0.1-0.6,0-0.8-0.2
			c-0.6-0.7-1.3-1.3-2-1.6c-0.7-0.3-1.4-0.4-2.1-0.4v1.9c0,0.3-0.2,0.6-0.5,0.7C19,12.2,18.9,12.2,18.8,12.2z M14.9,6.5l3.2,3.2V8.9
			c0-0.4,0.3-0.7,0.6-0.7c1.2-0.2,2.5-0.1,3.6,0.4c0.3,0.2,0.7,0.3,1,0.5c-0.3-1.1-1-2.1-1.8-3c-0.8-0.8-1.8-1.5-2.9-1.9
			c-0.3-0.1-0.5-0.4-0.5-0.7V3.3L14.9,6.5z"/>
	</g>
	<g>
		<path fill="#8F9BA8" d="M6.5,18.9c-0.2,0-0.4-0.1-0.5-0.2l-5-5c-0.2-0.2-0.3-0.5-0.2-0.8c0.1-0.3,0.4-0.5,0.7-0.5H3
			c0.5-1.1,1.2-2.1,2.1-2.9C6.7,7.9,8.9,6.9,11,6.9c0.3,0,0.6,0.2,0.8,0.5c0.1,0.3,0,0.6-0.2,0.8c-0.7,0.6-1.3,1.3-1.6,2
			c-0.3,0.7-0.4,1.4-0.4,2.1h1.9c0.3,0,0.6,0.2,0.7,0.5c0.1,0.3,0.1,0.6-0.2,0.8l-5,5C6.9,18.8,6.7,18.9,6.5,18.9z M3.3,13.9
			l3.2,3.2l3.2-3.2H8.9c-0.4,0-0.7-0.3-0.7-0.6c-0.2-1.2-0.1-2.5,0.4-3.6c0.1-0.3,0.3-0.7,0.5-1c-1.1,0.3-2.1,1-3,1.8
			c-0.8,0.8-1.5,1.8-1.9,2.9c-0.1,0.3-0.4,0.5-0.7,0.5H3.3z"/>
	</g>
	<g>
		<path fill="#8F9BA8" d="M21,25.1L21,25.1C21,25.1,20.9,25.1,21,25.1c-0.4,0-0.7-0.2-0.8-0.5c-0.1-0.3,0-0.6,0.2-0.8
			c0.7-0.6,1.3-1.3,1.6-2c0.3-0.7,0.4-1.4,0.4-2.1h-1.9c-0.3,0-0.6-0.2-0.7-0.5c-0.1-0.3-0.1-0.6,0.2-0.8l5-5c0.3-0.3,0.8-0.3,1.1,0
			l5,5c0.2,0.2,0.3,0.5,0.2,0.8c-0.1,0.3-0.4,0.5-0.7,0.5H29c-0.5,1.1-1.2,2.1-2.1,2.9C25.3,24.1,23.1,25.1,21,25.1z M22.3,18.1h0.8
			c0.4,0,0.7,0.3,0.7,0.6c0.2,1.2,0.1,2.5-0.4,3.6c-0.1,0.3-0.3,0.7-0.5,1c1.1-0.3,2.1-1,3-1.8c0.8-0.8,1.5-1.8,1.9-2.9
			c0.1-0.3,0.4-0.5,0.7-0.5h0.2l-3.2-3.2L22.3,18.1z"/>
	</g>
</g>
</svg>
