<?xml version="1.0" encoding="utf-8"?>
<!-- Generator: Adobe Illustrator 18.0.0, SVG Export Plug-In . SVG Version: 6.00 Build 0)  -->
<!DOCTYPE svg PUBLIC "-//W3C//DTD SVG 1.1//EN" "http://www.w3.org/Graphics/SVG/1.1/DTD/svg11.dtd">
<svg version="1.1" id="Layer_1" xmlns="http://www.w3.org/2000/svg" xmlns:xlink="http://www.w3.org/1999/xlink" x="0px" y="0px"
	 viewBox="0 0 32 32" enable-background="new 0 0 32 32" xml:space="preserve">
<g>
	<g>
		<path fill="#79C693" d="M31.3,31.3H0.8V0.8h30.5V31.3z M2.3,29.8h27.5V2.3H2.3V29.8z"/>
	</g>
	<g>
		<path fill="#8F9BA8" d="M22.1,15.6h-4.7V9.4h4.7c1.4,0,2.6,1.2,2.6,2.6v1C24.7,14.5,23.5,15.6,22.1,15.6z M18.9,14.1h3.2
			c0.6,0,1.1-0.5,1.1-1.1v-1c0-0.6-0.5-1.1-1.1-1.1h-3.2V14.1z"/>
	</g>
	<g>
		<path fill="#8F9BA8" d="M22.1,22.6h-4.7V14h4.7c1.4,0,2.6,1.2,2.6,2.6V20C24.7,21.4,23.5,22.6,22.1,22.6z M18.9,21.1h3.2
			c0.6,0,1.1-0.5,1.1-1.1v-3.3c0-0.6-0.5-1.1-1.1-1.1h-3.2V21.1z"/>
	</g>
	<g>
		<polygon fill="#8F9BA8" points="11,23.2 7.3,19.1 7.3,9.9 8.8,9.9 8.8,18.5 11,21 13.1,18.5 13.1,9.9 14.6,9.9 14.6,19.1 		"/>
	</g>
	<g>
		<path fill="none" stroke="#8F9BA8" stroke-width="1.5" stroke-miterlimit="10" d="M8,18.6"/>
	</g>
</g>
</svg>
