<?xml version="1.0" encoding="utf-8"?>
<!-- Generator: Adobe Illustrator 18.0.0, SVG Export Plug-In . SVG Version: 6.00 Build 0)  -->
<!DOCTYPE svg PUBLIC "-//W3C//DTD SVG 1.1//EN" "http://www.w3.org/Graphics/SVG/1.1/DTD/svg11.dtd">
<svg version="1.1" id="Layer_1" xmlns="http://www.w3.org/2000/svg" xmlns:xlink="http://www.w3.org/1999/xlink" x="0px" y="0px"
	 viewBox="0 0 32 32" enable-background="new 0 0 32 32" xml:space="preserve">
<g>
	<g>
		<path fill="#B4A042" d="M30.5,31.3h-29c-0.4,0-0.8-0.3-0.8-0.8v-29c0-0.4,0.3-0.8,0.8-0.8h29c0.4,0,0.8,0.3,0.8,0.8v29
			C31.3,30.9,30.9,31.3,30.5,31.3z M2.3,29.8h27.5V2.3H2.3V29.8z"/>
	</g>
	<g>
		<path fill="#DA8C8C" d="M11.6,20.9h-1.5v-9.1H6.8v9.1H5.3v-9.9c0-0.4,0.3-0.8,0.8-0.8h4.9c0.4,0,0.8,0.3,0.8,0.8V20.9z"/>
	</g>
	<g>
		<rect x="6" y="15.3" fill="#DA8C8C" width="4.9" height="1.5"/>
	</g>
	<g>
		<path fill="#DA8C8C" d="M18.4,21.7h-4.9c-0.4,0-0.8-0.3-0.8-0.8v-1.3h1.5v0.5h3.4v-3.4h-4.1v-1.5h4.9c0.4,0,0.8,0.3,0.8,0.8v4.9
			C19.2,21.3,18.9,21.7,18.4,21.7z"/>
	</g>
	<g>
		<path fill="#DA8C8C" d="M18.4,16.8h-4.9c-0.4,0-0.8-0.3-0.8-0.8v-4.9c0-0.4,0.3-0.8,0.8-0.8h4.9c0.4,0,0.8,0.3,0.8,0.8v1.3h-1.5
			v-0.5h-3.4v3.4h4.1V16.8z"/>
	</g>
	<g>
		<path fill="#DA8C8C" d="M21.9,20.9h-1.5v-9.9c0-0.4,0.3-0.8,0.8-0.8H26c0.4,0,0.8,0.3,0.8,0.8V16c0,0.4-0.3,0.8-0.8,0.8h-4.1V20.9
			z M21.9,15.3h3.4v-3.4h-3.4V15.3z"/>
	</g>
</g>
</svg>
