<?xml version="1.0" encoding="utf-8"?>
<!-- Generator: Adobe Illustrator 18.0.0, SVG Export Plug-In . SVG Version: 6.00 Build 0)  -->
<!DOCTYPE svg PUBLIC "-//W3C//DTD SVG 1.1//EN" "http://www.w3.org/Graphics/SVG/1.1/DTD/svg11.dtd">
<svg version="1.1" id="Layer_1" xmlns="http://www.w3.org/2000/svg" xmlns:xlink="http://www.w3.org/1999/xlink" x="0px" y="0px"
	 viewBox="0 0 32 32" enable-background="new 0 0 32 32" xml:space="preserve">
<g>
	<g>
		<path fill="#B4A79C" d="M27.2,26.1H22c-0.4,0-0.8-0.3-0.8-0.8V12.4l-5-5H10c-0.4,0-0.8-0.3-0.8-0.8V1.5c0-0.4,0.3-0.8,0.8-0.8
			h11.7c0.4,0,0.8,0.3,0.8,0.8v4.7h4.7c0.4,0,0.8,0.3,0.8,0.8v18.4C27.9,25.7,27.6,26.1,27.2,26.1z M22.7,24.6h3.7V7.7h-4.7
			c-0.4,0-0.8-0.3-0.8-0.8V2.3H10.8v3.7h5.8c0.2,0,0.4,0.1,0.5,0.2l5.4,5.4c0.1,0.1,0.2,0.3,0.2,0.5V24.6z"/>
	</g>
	<g>
		<path fill="#DA8C8C" d="M22,31.3H4.8c-0.4,0-0.8-0.3-0.8-0.8V6.7c0-0.4,0.3-0.8,0.8-0.8h11.7c0.4,0,0.8,0.3,0.8,0.8v4.7H22
			c0.4,0,0.8,0.3,0.8,0.8v18.4C22.7,30.9,22.4,31.3,22,31.3z M5.6,29.8h15.7V12.9h-4.7c-0.4,0-0.8-0.3-0.8-0.8V7.4H5.6V29.8z"/>
	</g>
	<g>
		<path fill="#DA8C8C" d="M22,12.9h-5.4c-0.4,0-0.8-0.3-0.8-0.8V6.7c0-0.3,0.2-0.6,0.5-0.7c0.3-0.1,0.6-0.1,0.8,0.2l5.4,5.4
			c0.2,0.2,0.3,0.5,0.2,0.8C22.6,12.7,22.3,12.9,22,12.9z M17.3,11.4h2.9l-2.9-2.9V11.4z"/>
	</g>
	<g>
		<polygon fill="#F9F8F2" points="27.2,6.9 21.7,1.5 21.7,6.9 		"/>
		<path fill="#B4A79C" d="M27.2,7.7h-5.4c-0.4,0-0.8-0.3-0.8-0.8V1.5c0-0.3,0.2-0.6,0.5-0.7c0.3-0.1,0.6-0.1,0.8,0.2l5.4,5.4
			c0.2,0.2,0.3,0.5,0.2,0.8C27.7,7.5,27.5,7.7,27.2,7.7z M22.5,6.2h2.9l-2.9-2.9V6.2z"/>
	</g>
</g>
</svg>
