<?xml version="1.0" encoding="utf-8"?>
<!-- Generator: Adobe Illustrator 18.0.0, SVG Export Plug-In . SVG Version: 6.00 Build 0)  -->
<!DOCTYPE svg PUBLIC "-//W3C//DTD SVG 1.1//EN" "http://www.w3.org/Graphics/SVG/1.1/DTD/svg11.dtd">
<svg version="1.1" id="Layer_1" xmlns="http://www.w3.org/2000/svg" xmlns:xlink="http://www.w3.org/1999/xlink" x="0px" y="0px"
	 viewBox="0 0 32 32" enable-background="new 0 0 32 32" xml:space="preserve">
<g>
	<g>
		<path fill="#74B1E0" d="M31.3,31.3H0.8V0.8h30.5V31.3z M2.3,29.8h27.5V2.3H2.3V29.8z"/>
	</g>
	<g>
		<polygon fill="#DA8C8C" points="24.7,22.6 17.4,22.6 17.4,20.3 18.9,20.3 18.9,21.1 23.2,21.1 23.2,16.8 18.1,16.8 18.1,15.3 
			24.7,15.3 		"/>
	</g>
	<g>
		<polygon fill="#DA8C8C" points="24,16.8 17.4,16.8 17.4,9.4 24.7,9.4 24.7,11.7 23.2,11.7 23.2,10.9 18.9,10.9 18.9,15.3 24,15.3 
					"/>
	</g>
	<g>
		<path fill="#DA8C8C" d="M8.8,22.6H7.3V9.4h7.3v7.4H8.8V22.6z M8.8,15.3h4.3v-4.4H8.8V15.3z"/>
	</g>
</g>
</svg>
