<?xml version="1.0" encoding="utf-8"?>
<!-- Generator: Adobe Illustrator 18.0.0, SVG Export Plug-In . SVG Version: 6.00 Build 0)  -->
<!DOCTYPE svg PUBLIC "-//W3C//DTD SVG 1.1//EN" "http://www.w3.org/Graphics/SVG/1.1/DTD/svg11.dtd">
<svg version="1.1" id="Layer_1" xmlns="http://www.w3.org/2000/svg" xmlns:xlink="http://www.w3.org/1999/xlink" x="0px" y="0px"
	 viewBox="0 0 32 32" enable-background="new 0 0 32 32" xml:space="preserve">
<g>
	<g>
		<path fill="#8F9BA8" d="M26.4,31.3H5.6c-0.4,0-0.8-0.3-0.8-0.8v-29c0-0.4,0.3-0.8,0.8-0.8h14.3c0.4,0,0.8,0.3,0.8,0.8v5.9h5.9
			c0.4,0,0.8,0.3,0.8,0.7v22.4C27.2,30.9,26.9,31.3,26.4,31.3z M6.3,29.8h19.4V8.9h-5.9c-0.4,0-0.8-0.3-0.8-0.8V2.3H6.3V29.8z"/>
	</g>
	<g>
		<polygon fill="#F0F7F7" points="26.4,8.1 19.8,1.5 19.8,8.1 		"/>
		<path fill="#8F9BA8" d="M26.4,8.9h-6.6c-0.4,0-0.8-0.3-0.8-0.8V1.5c0-0.3,0.2-0.6,0.5-0.7c0.3-0.1,0.6-0.1,0.8,0.2L27,7.6
			c0.2,0.2,0.3,0.5,0.2,0.8C27,8.7,26.7,8.9,26.4,8.9z M20.6,7.4h4l-4-4V7.4z"/>
	</g>
	<g>
		<path fill="#B4A042" d="M12.3,24.6c-2.3,0-4.2-1.9-4.2-4.2c0-2.3,1.9-4.2,4.2-4.2c0.9,0,1.8,0.3,2.5,0.8l-0.9,1.2
			c-0.5-0.4-1-0.5-1.6-0.5c-1.5,0-2.7,1.2-2.7,2.7c0,1.5,1.2,2.7,2.7,2.7c0.6,0,1.1-0.2,1.6-0.5l0.9,1.2
			C14.1,24.3,13.2,24.6,12.3,24.6z"/>
	</g>
	<g>
		<rect x="15.3" y="18.4" fill="#B4A042" width="1.5" height="4.1"/>
	</g>
	<g>
		<rect x="14" y="19.7" fill="#B4A042" width="4.1" height="1.5"/>
	</g>
	<g>
		<rect x="20.3" y="18.4" fill="#B4A042" width="1.5" height="4.1"/>
	</g>
	<g>
		<rect x="19" y="19.7" fill="#B4A042" width="4.1" height="1.5"/>
	</g>
</g>
</svg>
