<?xml version="1.0" encoding="utf-8"?>
<!-- Generator: Adobe Illustrator 18.0.0, SVG Export Plug-In . SVG Version: 6.00 Build 0)  -->
<!DOCTYPE svg PUBLIC "-//W3C//DTD SVG 1.1//EN" "http://www.w3.org/Graphics/SVG/1.1/DTD/svg11.dtd">
<svg version="1.1" id="Layer_1" xmlns="http://www.w3.org/2000/svg" xmlns:xlink="http://www.w3.org/1999/xlink" x="0px" y="0px"
	 viewBox="0 0 32 32" enable-background="new 0 0 32 32" xml:space="preserve">
<g>
	<g>
		<path fill="#F9F8F2" d="M1.5,18.3v9.9c0,1.3,1,2.3,2.3,2.3h24.3c1.3,0,2.3-1,2.3-2.3v-9.9H1.5z"/>
		<path fill="#B4A79C" d="M28.2,31.3H3.8c-1.7,0-3.1-1.4-3.1-3.1v-9.9c0-0.4,0.3-0.8,0.8-0.8h29c0.4,0,0.8,0.3,0.8,0.8v9.9
			C31.3,29.9,29.9,31.3,28.2,31.3z M2.3,19v9.1c0,0.9,0.7,1.6,1.6,1.6h24.3c0.9,0,1.6-0.7,1.6-1.6V19H2.3z"/>
	</g>
	<g>
		<path fill="#B4A042" d="M16,26.9c-4.7,0-8.6-3.9-8.6-8.6c0-4.7,3.9-8.6,8.6-8.6c4.7,0,8.6,3.9,8.6,8.6C24.6,23,20.7,26.9,16,26.9z
			 M16,11.2c-3.9,0-7.1,3.2-7.1,7.1s3.2,7.1,7.1,7.1c3.9,0,7.1-3.2,7.1-7.1S19.9,11.2,16,11.2z"/>
	</g>
	<g>
		<path fill="#DA8C8C" d="M30.5,19h-29c-0.4,0-0.8-0.3-0.8-0.8V3.8c0-1.7,1.4-3.1,3.1-3.1h24.3c1.7,0,3.1,1.4,3.1,3.1v14.5
			C31.3,18.7,30.9,19,30.5,19z M2.3,17.5h27.5V3.8c0-0.9-0.7-1.6-1.6-1.6H3.8C3,2.3,2.3,3,2.3,3.8V17.5z"/>
	</g>
	<g>
		<rect x="6" y="5.1" fill="#B4A79C" width="2.7" height="1.5"/>
	</g>
	<g>
		<circle fill="#FFFFFF" cx="16" cy="18.3" r="7.8"/>
		<path fill="#DA8C8C" d="M16,26.9c-4.7,0-8.6-3.9-8.6-8.6c0-4.7,3.9-8.6,8.6-8.6c4.7,0,8.6,3.9,8.6,8.6C24.6,23,20.7,26.9,16,26.9z
			 M16,11.2c-3.9,0-7.1,3.2-7.1,7.1s3.2,7.1,7.1,7.1c3.9,0,7.1-3.2,7.1-7.1S19.9,11.2,16,11.2z"/>
	</g>
</g>
</svg>
