<?xml version="1.0" encoding="utf-8"?>
<!-- Generator: Adobe Illustrator 18.0.0, SVG Export Plug-In . SVG Version: 6.00 Build 0)  -->
<!DOCTYPE svg PUBLIC "-//W3C//DTD SVG 1.1//EN" "http://www.w3.org/Graphics/SVG/1.1/DTD/svg11.dtd">
<svg version="1.1" id="Layer_1" xmlns="http://www.w3.org/2000/svg" xmlns:xlink="http://www.w3.org/1999/xlink" x="0px" y="0px"
	 viewBox="0 0 32 32" enable-background="new 0 0 32 32" xml:space="preserve">
<g>
	<g>
		<path fill="#79C693" d="M26.3,13.8c-0.2,0-0.3-0.1-0.4-0.1l-6.2-4.6c-0.2-0.1-0.3-0.3-0.3-0.5c0-0.2,0-0.4,0.1-0.6l3.9-5.3
			c0.2-0.3,0.7-0.4,1-0.2l6.2,4.6c0.2,0.1,0.3,0.3,0.3,0.5c0,0.2,0,0.4-0.1,0.6l-3.9,5.3c-0.1,0.2-0.3,0.3-0.5,0.3
			C26.4,13.8,26.3,13.8,26.3,13.8z M21.2,8.3l5,3.7l3.1-4.1l-5-3.7L21.2,8.3z"/>
	</g>
	<g>
		<path fill="#79C693" d="M22.3,19.1c-0.2,0-0.3-0.1-0.4-0.1l-4.7-3.5c-0.2-0.2-0.3-0.5-0.3-0.8l1-4.4c0-0.1,0.1-0.2,0.1-0.3l1.5-2
			c0.1-0.2,0.3-0.3,0.5-0.3c0.2,0,0.4,0,0.6,0.1l6.2,4.6c0.3,0.2,0.4,0.7,0.2,1l-3.9,5.3c-0.1,0.2-0.3,0.3-0.5,0.3
			C22.4,19.1,22.4,19.1,22.3,19.1z M18.5,14.6l3.7,2.8l3.1-4.1l-5-3.7l-0.9,1.2L18.5,14.6z"/>
	</g>
	<g>
		<path fill="#79C693" d="M18.4,24.5c-0.2,0-0.3,0-0.4-0.1l-2.3-1.7c-0.2-0.2-0.3-0.5-0.3-0.8l1.6-7.1c0.1-0.2,0.2-0.4,0.5-0.5
			c0.2-0.1,0.5,0,0.7,0.1l4.7,3.5c0.3,0.2,0.4,0.7,0.2,1L19,24.1C18.8,24.3,18.6,24.5,18.4,24.5z M16.9,21.6l1.4,1l3.1-4.1l-3.2-2.4
			L16.9,21.6z"/>
	</g>
	<g>
		<path fill="#79C693" d="M14.4,29.8c-0.1,0-0.2,0-0.3-0.1c-0.3-0.1-0.5-0.5-0.4-0.8l1.6-7.1c0.1-0.2,0.2-0.4,0.5-0.5
			c0.2-0.1,0.5,0,0.7,0.1l2.3,1.7c0.2,0.1,0.3,0.3,0.3,0.5c0,0.2,0,0.4-0.1,0.6L15,29.5C14.9,29.7,14.7,29.8,14.4,29.8z M16.5,23.2
			L16,25.7l1.4-1.9L16.5,23.2z"/>
	</g>
	<g>
		<path fill="#8F9BA8" d="M18.8,10.4c-0.1,0-0.1,0-0.2,0l-7.5-1.7c-0.2,0-0.4-0.2-0.5-0.3c-0.1-0.2-0.1-0.4-0.1-0.6l1.5-6.5
			c0.1-0.4,0.5-0.7,0.9-0.6l7.5,1.7C20.9,2.6,21.1,3,21,3.4l-1.5,6.5c0,0.2-0.2,0.4-0.3,0.5C19.1,10.4,19,10.4,18.8,10.4z M12.2,7.4
			l6,1.4l1.1-5l-6-1.4L12.2,7.4z"/>
	</g>
	<g>
		<path fill="#8F9BA8" d="M17.4,16.9c-0.1,0-0.1,0-0.2,0l-5.7-1.3c-0.3-0.1-0.5-0.3-0.6-0.6L10,10.6c0-0.1,0-0.2,0-0.3l0.6-2.5
			c0-0.2,0.2-0.4,0.3-0.5c0.2-0.1,0.4-0.1,0.6-0.1L19,8.9c0.4,0.1,0.7,0.5,0.6,0.9l-1.5,6.5C18,16.6,17.7,16.9,17.4,16.9z
			 M12.3,14.2l4.5,1l1.1-5l-6-1.4l-0.4,1.6L12.3,14.2z"/>
	</g>
	<g>
		<polygon fill="none" points="14.4,29 14.4,29 14.4,29 		"/>
	</g>
	<g>
		<path fill="#8F9BA8" d="M15.9,23.3c-0.1,0-0.1,0-0.2,0l-2.9-0.7c-0.3-0.1-0.5-0.3-0.6-0.6L10.9,15c0-0.2,0-0.5,0.2-0.7
			c0.2-0.2,0.4-0.3,0.7-0.2l5.7,1.3c0.2,0,0.4,0.2,0.5,0.3c0.1,0.2,0.1,0.4,0.1,0.6l-1.5,6.5c0,0.2-0.2,0.4-0.3,0.5
			C16.2,23.3,16,23.3,15.9,23.3z M13.7,21.3l1.7,0.4l1.1-5l-3.9-0.9L13.7,21.3z"/>
	</g>
	<g>
		<path fill="#8F9BA8" d="M14.4,29.8C14.4,29.8,14.4,29.8,14.4,29.8c-0.4,0-0.7-0.3-0.7-0.6l-1.4-7.1c0-0.2,0-0.5,0.2-0.7
			c0.2-0.2,0.4-0.2,0.7-0.2l2.9,0.7c0.4,0.1,0.7,0.5,0.6,0.9l-1.5,6.5C15.1,29.5,14.8,29.8,14.4,29.8z M14,22.9l0.5,2.5l0.5-2.3
			L14,22.9z"/>
	</g>
	<g>
		<path fill="#B4A79C" d="M3,11.8c-0.1,0-0.3,0-0.4-0.1c-0.2-0.1-0.3-0.3-0.3-0.5L1,4.7C1,4.3,1.2,3.9,1.6,3.8l7.5-1.5
			c0.2,0,0.4,0,0.6,0.1c0.2,0.1,0.3,0.3,0.3,0.5l1.3,6.5c0.1,0.4-0.2,0.8-0.6,0.9l-7.5,1.5C3.1,11.8,3.1,11.8,3,11.8z M2.7,5.1l1,5
			l6.1-1.2l-1-5L2.7,5.1z"/>
	</g>
	<g>
		<path fill="#B4A79C" d="M4.3,18.3c-0.4,0-0.7-0.2-0.7-0.6l-1.3-6.5c-0.1-0.4,0.2-0.8,0.6-0.9l7.5-1.5c0.2,0,0.4,0,0.6,0.1
			c0.2,0.1,0.3,0.3,0.3,0.5l1.3,6.5c0.1,0.4-0.2,0.8-0.6,0.9l-7.5,1.5C4.4,18.3,4.4,18.3,4.3,18.3z M3.9,11.6l1,5l6.1-1.2l-1-5
			L3.9,11.6z"/>
	</g>
	<g>
		<path fill="#B4A79C" d="M5.6,24.8c-0.1,0-0.3,0-0.4-0.1c-0.2-0.1-0.3-0.3-0.3-0.5l-1.3-6.5c0-0.2,0-0.4,0.1-0.6
			c0.1-0.2,0.3-0.3,0.5-0.3l7.5-1.5c0.4-0.1,0.8,0.2,0.9,0.6l1.3,6.5c0,0.2,0,0.4-0.1,0.6c-0.1,0.2-0.3,0.3-0.5,0.3l-7.5,1.5
			C5.7,24.8,5.7,24.8,5.6,24.8z M5.2,18.1l1,5l6.1-1.2l-1-5L5.2,18.1z"/>
	</g>
	<g>
		<path fill="#B4A79C" d="M6.9,31.3c-0.1,0-0.3,0-0.4-0.1c-0.2-0.1-0.3-0.3-0.3-0.5l-1.3-6.5c-0.1-0.4,0.2-0.8,0.6-0.9l7.5-1.5
			c0.4-0.1,0.8,0.2,0.9,0.6l1.3,6.5c0.1,0.4-0.2,0.8-0.6,0.9L7,31.2C7,31.2,6.9,31.3,6.9,31.3z M6.5,24.6l1,5l6.1-1.2l-1-5L6.5,24.6
			z"/>
	</g>
	<g>
		
			<rect x="9.6" y="27.6" transform="matrix(0.1941 0.981 -0.981 0.1941 35.9129 12.5152)" fill="#B4A79C" width="1.5" height="1.1"/>
	</g>
</g>
</svg>
