<?xml version="1.0" encoding="utf-8"?>
<!-- Generator: Adobe Illustrator 18.0.0, SVG Export Plug-In . SVG Version: 6.00 Build 0)  -->
<!DOCTYPE svg PUBLIC "-//W3C//DTD SVG 1.1//EN" "http://www.w3.org/Graphics/SVG/1.1/DTD/svg11.dtd">
<svg version="1.1" id="Layer_1" xmlns="http://www.w3.org/2000/svg" xmlns:xlink="http://www.w3.org/1999/xlink" x="0px" y="0px"
	 viewBox="0 0 32 32" enable-background="new 0 0 32 32" xml:space="preserve">
<g>
	<g>
		<path fill="#8F9BA8" d="M26.3,31.3H5.7c-0.4,0-0.8-0.3-0.8-0.8v-29c0-0.4,0.3-0.8,0.8-0.8h20.6c0.4,0,0.8,0.3,0.8,0.8v29
			C27,30.9,26.7,31.3,26.3,31.3z M6.5,29.8h19.1V2.3H6.5V29.8z"/>
	</g>
	<g>
		<line fill="#FAC2C3" x1="10.1" y1="4.5" x2="10.1" y2="6"/>
		<rect x="9.3" y="4.5" fill="#DA8C8C" width="1.5" height="1.5"/>
	</g>
	<g>
		<line fill="#FAC2C3" x1="16" y1="4.5" x2="16" y2="6"/>
		<rect x="15.3" y="4.5" fill="#DA8C8C" width="1.5" height="1.5"/>
	</g>
	<g>
		<line fill="#FAC2C3" x1="21.9" y1="4.5" x2="21.9" y2="6"/>
		<rect x="21.2" y="4.5" fill="#DA8C8C" width="1.5" height="1.5"/>
	</g>
	<g>
		<line fill="#FAC2C3" x1="10.1" y1="9.4" x2="10.1" y2="10.9"/>
		<rect x="9.3" y="9.4" fill="#DA8C8C" width="1.5" height="1.5"/>
	</g>
	<g>
		<line fill="#FAC2C3" x1="16" y1="9.4" x2="16" y2="10.9"/>
		<rect x="15.3" y="9.4" fill="#DA8C8C" width="1.5" height="1.5"/>
	</g>
	<g>
		<line fill="#FAC2C3" x1="21.9" y1="9.4" x2="21.9" y2="10.9"/>
		<rect x="21.2" y="9.4" fill="#DA8C8C" width="1.5" height="1.5"/>
	</g>
	<g>
		<line fill="#FAC2C3" x1="10.1" y1="14.4" x2="10.1" y2="15.8"/>
		<rect x="9.3" y="14.4" fill="#DA8C8C" width="1.5" height="1.5"/>
	</g>
	<g>
		<line fill="#FAC2C3" x1="16" y1="14.4" x2="16" y2="15.8"/>
		<rect x="15.3" y="14.4" fill="#DA8C8C" width="1.5" height="1.5"/>
	</g>
	<g>
		<line fill="#FAC2C3" x1="21.9" y1="14.4" x2="21.9" y2="15.8"/>
		<rect x="21.2" y="14.4" fill="#DA8C8C" width="1.5" height="1.5"/>
	</g>
	<g>
		<line fill="#FAC2C3" x1="10.1" y1="19.3" x2="10.1" y2="20.8"/>
		<rect x="9.3" y="19.3" fill="#DA8C8C" width="1.5" height="1.5"/>
	</g>
	<g>
		<line fill="#FAC2C3" x1="16" y1="19.3" x2="16" y2="20.8"/>
		<rect x="15.3" y="19.3" fill="#DA8C8C" width="1.5" height="1.5"/>
	</g>
	<g>
		<line fill="#FAC2C3" x1="21.9" y1="19.3" x2="21.9" y2="20.8"/>
		<rect x="21.2" y="19.3" fill="#DA8C8C" width="1.5" height="1.5"/>
	</g>
	<g>
		<rect x="12.6" y="24.9" fill="#FAC2C3" width="6.8" height="5.6"/>
		<path fill="#DA8C8C" d="M20.2,31.3h-8.3v-7.1h8.3V31.3z M13.3,29.8h5.3v-4.1h-5.3V29.8z"/>
	</g>
</g>
</svg>
