<?xml version="1.0" encoding="utf-8"?>
<!-- Generator: Adobe Illustrator 18.0.0, SVG Export Plug-In . SVG Version: 6.00 Build 0)  -->
<!DOCTYPE svg PUBLIC "-//W3C//DTD SVG 1.1//EN" "http://www.w3.org/Graphics/SVG/1.1/DTD/svg11.dtd">
<svg version="1.1" id="Layer_1" xmlns="http://www.w3.org/2000/svg" xmlns:xlink="http://www.w3.org/1999/xlink" x="0px" y="0px"
	 viewBox="0 0 32 32" enable-background="new 0 0 32 32" xml:space="preserve">
<g>
	<g>
		<path fill="#B4A79C" d="M16,30.8L16,30.8c-0.3,0-0.5-0.1-0.6-0.4l-3.5-5.7H4.5c-2.1,0-3.8-1.7-3.8-3.8V5c0-2.1,1.7-3.8,3.8-3.8h23
			c2.1,0,3.8,1.7,3.8,3.8v15.9c0,2.1-1.7,3.8-3.8,3.8h-7.4l-3.5,5.7C16.5,30.6,16.3,30.8,16,30.8z M4.5,2.8c-1.2,0-2.3,1-2.3,2.3
			v15.9c0,1.2,1,2.3,2.3,2.3h7.8c0.3,0,0.5,0.1,0.6,0.4l3.1,5l3.1-5c0.1-0.2,0.4-0.4,0.6-0.4h7.8c1.2,0,2.3-1,2.3-2.3V5
			c0-1.2-1-2.3-2.3-2.3H4.5z"/>
	</g>
	<g>
		<path fill="#B4A79C" d="M16.8,17.5h-1.5v-0.4c0-1.7,0.9-3.2,2.3-4.3c0.9-0.7,1.3-1.8,1.1-2.9c-0.2-1-1-1.8-2-2
			c-0.9-0.2-1.7,0-2.4,0.5c-0.7,0.5-1,1.3-1,2.1h-1.5c0-1.3,0.6-2.5,1.6-3.3c1-0.8,2.3-1.1,3.6-0.8c1.5,0.4,2.8,1.6,3.1,3.1
			c0.4,1.7-0.3,3.4-1.6,4.4c-1.1,0.8-1.7,1.9-1.7,3.1V17.5z"/>
	</g>
	<g>
		<rect x="15.3" y="18.9" fill="#B4A79C" width="1.5" height="1.5"/>
	</g>
</g>
</svg>
