<?xml version="1.0" encoding="utf-8"?>
<!-- Generator: Adobe Illustrator 18.0.0, SVG Export Plug-In . SVG Version: 6.00 Build 0)  -->
<!DOCTYPE svg PUBLIC "-//W3C//DTD SVG 1.1//EN" "http://www.w3.org/Graphics/SVG/1.1/DTD/svg11.dtd">
<svg version="1.1" id="Layer_1" xmlns="http://www.w3.org/2000/svg" xmlns:xlink="http://www.w3.org/1999/xlink" x="0px" y="0px"
	 viewBox="0 0 32 32" enable-background="new 0 0 32 32" xml:space="preserve">
<g>
	<g>
		<path fill="#74B1E0" d="M11.4,6.7H7.2C5.6,6.7,4.4,5.5,4.4,4V1.5c0-0.4,0.3-0.8,0.7-0.8h8.4c0.4,0,0.8,0.3,0.8,0.8V4
			C14.2,5.5,13,6.7,11.4,6.7z M5.9,2.3V4c0,0.7,0.6,1.3,1.3,1.3h4.3c0.7,0,1.3-0.6,1.3-1.3V2.3H5.9z"/>
	</g>
	<g>
		<path fill="#74B1E0" d="M9.3,31.3c-0.2,0-0.4-0.1-0.5-0.2l-4.6-4.6C4,26.3,3.9,26.1,4,25.8L6,5.9c0-0.4,0.4-0.7,0.7-0.7h5.2
			c0.4,0,0.7,0.3,0.7,0.7l2,19.9c0,0.2-0.1,0.4-0.2,0.6L9.8,31C9.7,31.2,9.5,31.3,9.3,31.3z M5.5,25.6l3.8,3.8l3.8-3.8L11.2,6.7H7.4
			L5.5,25.6z"/>
	</g>
	<g>
		
			<rect x="8.3" y="6.8" transform="matrix(0.5484 0.8362 -0.8362 0.5484 12.8328 -2.8977)" fill="#74B1E0" width="1.5" height="7.3"/>
	</g>
	<g>
		
			<rect x="8.3" y="12" transform="matrix(0.5483 0.8362 -0.8362 0.5483 17.7025 -0.2682)" fill="#74B1E0" width="1.5" height="8.6"/>
	</g>
	<g>
		
			<rect x="8.3" y="16.9" transform="matrix(0.5483 0.8363 -0.8363 0.5483 22.5711 2.3612)" fill="#74B1E0" width="1.5" height="10.4"/>
	</g>
	<g>
		<path fill="#74B1E0" d="M24.8,6.7h-4.3c-1.5,0-2.8-1.3-2.8-2.8V1.5c0-0.4,0.3-0.8,0.8-0.8h8.4c0.4,0,0.8,0.3,0.8,0.8V4
			C27.6,5.5,26.4,6.7,24.8,6.7z M19.3,2.3V4c0,0.7,0.6,1.3,1.3,1.3h4.3c0.7,0,1.3-0.6,1.3-1.3V2.3H19.3z"/>
	</g>
	<g>
		<path fill="#74B1E0" d="M22.7,31.3c-0.2,0-0.4-0.1-0.5-0.2l-4.6-4.6c-0.2-0.2-0.2-0.4-0.2-0.6l2-19.9c0-0.4,0.4-0.7,0.7-0.7h5.2
			c0.4,0,0.7,0.3,0.7,0.7l2,19.9c0,0.2-0.1,0.4-0.2,0.6L23.2,31C23.1,31.2,22.9,31.3,22.7,31.3z M18.9,25.6l3.8,3.8l3.8-3.8
			L24.6,6.7h-3.8L18.9,25.6z"/>
	</g>
	<g>
		
			<rect x="21.8" y="6.8" transform="matrix(0.5484 0.8362 -0.8362 0.5484 18.885 -14.1042)" fill="#74B1E0" width="1.5" height="7.3"/>
	</g>
	<g>
		
			<rect x="21.8" y="12" transform="matrix(0.5483 0.8363 -0.8363 0.5483 23.7553 -11.4747)" fill="#74B1E0" width="1.5" height="8.6"/>
	</g>
	<g>
		
			<rect x="21.8" y="16.9" transform="matrix(0.5484 0.8362 -0.8362 0.5484 28.6218 -8.8457)" fill="#74B1E0" width="1.5" height="10.4"/>
	</g>
</g>
</svg>
