<?xml version="1.0" encoding="utf-8"?>
<!-- Generator: Adobe Illustrator 18.0.0, SVG Export Plug-In . SVG Version: 6.00 Build 0)  -->
<!DOCTYPE svg PUBLIC "-//W3C//DTD SVG 1.1//EN" "http://www.w3.org/Graphics/SVG/1.1/DTD/svg11.dtd">
<svg version="1.1" id="Layer_1" xmlns="http://www.w3.org/2000/svg" xmlns:xlink="http://www.w3.org/1999/xlink" x="0px" y="0px"
	 viewBox="0 0 32 32" enable-background="new 0 0 32 32" xml:space="preserve">
<g>
	<g>
		<path fill="#79C693" d="M28.2,30.7H3.8c-1.7,0-3-1.4-3-3V11.2c0-1.7,1.4-3,3-3h24.4c1.7,0,3,1.4,3,3v16.4
			C31.3,29.3,29.9,30.7,28.2,30.7z M3.8,9.7c-0.8,0-1.5,0.7-1.5,1.5v16.4c0,0.8,0.7,1.5,1.5,1.5h24.4c0.8,0,1.5-0.7,1.5-1.5V11.2
			c0-0.8-0.7-1.5-1.5-1.5H3.8z"/>
	</g>
	<g>
		<path fill="#79C693" d="M21,6.7H11V1.3h10V6.7z M12.5,5.2h7V2.8h-7V5.2z"/>
	</g>
	<g>
		<path fill="#79C693" d="M18.7,9.7h-5.5V5.2h5.5V9.7z M14.8,8.2h2.5V6.7h-2.5V8.2z"/>
	</g>
	<g>
		<circle fill="#F0F7F7" cx="16" cy="19.5" r="6.1"/>
		<path fill="#8F9BA8" d="M16,26.4c-3.8,0-6.8-3.1-6.8-6.8s3.1-6.8,6.8-6.8s6.8,3.1,6.8,6.8S19.8,26.4,16,26.4z M16,14.2
			c-2.9,0-5.3,2.4-5.3,5.3c0,2.9,2.4,5.3,5.3,5.3c2.9,0,5.3-2.4,5.3-5.3C21.3,16.6,18.9,14.2,16,14.2z"/>
	</g>
</g>
</svg>
