<?xml version="1.0" encoding="utf-8"?>
<!-- Generator: Adobe Illustrator 18.0.0, SVG Export Plug-In . SVG Version: 6.00 Build 0)  -->
<!DOCTYPE svg PUBLIC "-//W3C//DTD SVG 1.1//EN" "http://www.w3.org/Graphics/SVG/1.1/DTD/svg11.dtd">
<svg version="1.1" id="Layer_1" xmlns="http://www.w3.org/2000/svg" xmlns:xlink="http://www.w3.org/1999/xlink" x="0px" y="0px"
	 viewBox="0 0 32 32" enable-background="new 0 0 32 32" xml:space="preserve">
<g>
	<g>
		<path fill="#8F9BA8" d="M6.1,6.8H1.6C1.2,6.8,0.9,6.4,0.9,6V1.5c0-0.4,0.3-0.8,0.7-0.8h4.5c0.4,0,0.8,0.3,0.8,0.8V6
			C6.9,6.4,6.6,6.8,6.1,6.8z M2.4,5.3h3v-3h-3V5.3z"/>
	</g>
	<g>
		<path fill="#8F9BA8" d="M30.4,6.8h-4.5c-0.4,0-0.8-0.3-0.8-0.8V1.5c0-0.4,0.3-0.8,0.8-0.8h4.5c0.4,0,0.8,0.3,0.8,0.8V6
			C31.1,6.4,30.8,6.8,30.4,6.8z M26.6,5.3h3v-3h-3V5.3z"/>
	</g>
	<g>
		<rect x="6.1" y="3" fill="#8F9BA8" width="19.7" height="1.5"/>
	</g>
	<g>
		<path fill="#F0F7F7" d="M23.5,30.5h-15v-4.2c0-1,0.8-1.8,1.8-1.8h11.4c1,0,1.8,0.8,1.8,1.8V30.5z"/>
		<path fill="#8F9BA8" d="M23.5,31.3h-15c-0.4,0-0.7-0.3-0.7-0.8v-4.2c0-1.4,1.2-2.6,2.6-2.6h11.4c1.4,0,2.6,1.2,2.6,2.6v4.2
			C24.3,30.9,23.9,31.3,23.5,31.3z M9.2,29.8h13.5v-3.4c0-0.6-0.5-1.1-1.1-1.1H10.3c-0.6,0-1.1,0.5-1.1,1.1V29.8z"/>
	</g>
	<g>
		<path fill="#8F9BA8" d="M21.7,25.2H10.3c-0.3,0-0.6-0.2-0.7-0.5L6.1,16c-0.1-0.3,0-0.6,0.2-0.8l9.2-9.2c0.3-0.3,0.8-0.3,1.1,0
			l9.2,9.2c0.2,0.2,0.3,0.5,0.2,0.8l-3.5,8.7C22.3,25,22,25.2,21.7,25.2z M10.8,23.7h10.3l3.1-7.8L16,7.6l-8.3,8.3L10.8,23.7z"/>
	</g>
	<g>
		<rect x="15.2" y="6.6" fill="#8F9BA8" width="1.5" height="10.3"/>
	</g>
	<g>
		<path fill="#8F9BA8" d="M16,21.6c-1.7,0-3-1.3-3-3s1.3-3,3-3c1.7,0,3,1.3,3,3S17.7,21.6,16,21.6z M16,17.1c-0.8,0-1.5,0.7-1.5,1.5
			c0,0.8,0.7,1.5,1.5,1.5c0.8,0,1.5-0.7,1.5-1.5C17.5,17.8,16.8,17.1,16,17.1z"/>
	</g>
</g>
</svg>
