<?xml version="1.0" encoding="utf-8"?>
<!-- Generator: Adobe Illustrator 18.0.0, SVG Export Plug-In . SVG Version: 6.00 Build 0)  -->
<!DOCTYPE svg PUBLIC "-//W3C//DTD SVG 1.1//EN" "http://www.w3.org/Graphics/SVG/1.1/DTD/svg11.dtd">
<svg version="1.1" id="Layer_1" xmlns="http://www.w3.org/2000/svg" xmlns:xlink="http://www.w3.org/1999/xlink" x="0px" y="0px"
	 viewBox="0 0 32 32" enable-background="new 0 0 32 32" xml:space="preserve">
<g>
	<g>
		<path fill="#74B1E0" d="M26.5,31.2H11c-1.3,0-2.3-1-2.3-2.3V14.6c0-1.1,0.5-2.2,1.3-3c1-0.9,2.6-2.7,2.6-5c0-3.5-0.5-4.7-0.5-4.7
			c-0.1-0.2-0.1-0.4,0-0.6c0.1-0.2,0.3-0.3,0.5-0.4c0.1,0,3.1-0.7,4.8,1.4c1.1,1.3,1.4,3.4,0.9,6.2C18,9.8,18,11,18.1,11.8
			c0,0.2,0.3,0.4,0.5,0.4h9.6c0.8,0,1.6,0.4,2.2,1c0.6,0.6,0.8,1.4,0.7,2.3c-0.1,0.9-0.6,1.6-1.3,2.1c0.6,0.6,0.8,1.4,0.7,2.3
			c-0.1,0.9-0.6,1.6-1.3,2.1c0.6,0.6,0.8,1.4,0.7,2.3c-0.1,0.9-0.6,1.6-1.3,2.1c0.6,0.6,0.8,1.4,0.7,2.3
			C29.4,30.1,28,31.2,26.5,31.2z M13.7,2.2C13.8,3.1,14,4.4,14,6.6c0,2.8-1.9,5-3.1,6.1c-0.5,0.5-0.8,1.2-0.8,1.9v14.4
			c0,0.5,0.4,0.8,0.8,0.8h15.5c0.8,0,1.5-0.6,1.6-1.3c0-0.4-0.1-0.8-0.4-1.1c-0.3-0.3-0.7-0.5-1.1-0.5c-0.4,0-0.8-0.3-0.8-0.8
			s0.3-0.8,0.8-0.8H27c0.8,0,1.5-0.6,1.6-1.3c0-0.4-0.1-0.8-0.4-1.1c-0.3-0.3-0.7-0.5-1.1-0.5c-0.4,0-0.8-0.3-0.8-0.8
			c0-0.4,0.3-0.8,0.8-0.8h0.4c0.8,0,1.5-0.6,1.6-1.3c0-0.4-0.1-0.8-0.4-1.1c-0.3-0.3-0.7-0.5-1.1-0.5c-0.4,0-0.8-0.3-0.8-0.8
			c0-0.4,0.3-0.8,0.8-0.8h0.4c0.8,0,1.5-0.6,1.6-1.3c0-0.4-0.1-0.8-0.4-1.1c-0.3-0.3-0.7-0.5-1.1-0.5h-9.6c-1,0-1.9-0.7-2-1.7
			c-0.2-1-0.1-2.4,0.1-3.9c0.4-2.3,0.2-4-0.6-5C15.5,2.4,14.4,2.2,13.7,2.2z"/>
	</g>
	<g>
		<rect x="1.5" y="13.9" fill="#CDE4F7" width="7.9" height="15.5"/>
		<path fill="#74B1E0" d="M9.4,30.1H1.5c-0.4,0-0.8-0.3-0.8-0.8V13.9c0-0.4,0.3-0.8,0.8-0.8h7.9c0.4,0,0.8,0.3,0.8,0.8v15.5
			C10.1,29.7,9.8,30.1,9.4,30.1z M2.3,28.6h6.4v-14H2.3V28.6z"/>
	</g>
	<g>
		<rect x="26.6" y="16.6" fill="#8F9BA8" width="1.1" height="1.5"/>
	</g>
	<g>
		<rect x="26.2" y="21" fill="#8F9BA8" width="0.9" height="1.5"/>
	</g>
	<g>
		<rect x="25.8" y="25.4" fill="#8F9BA8" width="0.8" height="1.5"/>
	</g>
	<g>
		<line fill="#CDE4F7" x1="5.2" y1="26.9" x2="5.2" y2="25.3"/>
		<rect x="4.4" y="25.3" fill="#74B1E0" width="1.5" height="1.5"/>
	</g>
</g>
<g>
	<g>
		<g>
			<defs>
				<polygon id="SVGID_11_" points="16,-29.4 17.9,-25.6 22.1,-25 19,-22 19.7,-17.8 16,-19.8 12.3,-17.8 13,-22 9.9,-25 
					14.1,-25.6 				"/>
			</defs>
			<clipPath id="SVGID_2_">
				<use xlink:href="#SVGID_11_"  overflow="visible"/>
			</clipPath>
			<g clip-path="url(#SVGID_2_)">
				<rect x="13.9" y="-24.1" fill="none" width="24.1" height="24.1"/>
				<rect x="13.9" y="-24.1" fill="#FEE99B" width="24.1" height="24.1"/>
			</g>
			<g clip-path="url(#SVGID_2_)">
				<rect x="-10.2" y="-24.1" fill="none" width="24.1" height="24.1"/>
				<rect x="-10.2" y="-24.1" fill="#FEE99B" width="24.1" height="24.1"/>
			</g>
		</g>
	</g>
</g>
</svg>
