<?xml version="1.0" encoding="utf-8"?>
<!-- Generator: Adobe Illustrator 18.0.0, SVG Export Plug-In . SVG Version: 6.00 Build 0)  -->
<!DOCTYPE svg PUBLIC "-//W3C//DTD SVG 1.1//EN" "http://www.w3.org/Graphics/SVG/1.1/DTD/svg11.dtd">
<svg version="1.1" id="Layer_1" xmlns="http://www.w3.org/2000/svg" xmlns:xlink="http://www.w3.org/1999/xlink" x="0px" y="0px"
	 viewBox="0 0 32 32" enable-background="new 0 0 32 32" xml:space="preserve">
<g>
	<g>
		<path fill="#8F9BA8" d="M23.8,22.3H8.2c-1.6,0-2.8-1.3-2.8-2.8c0-1.6,1.3-2.8,2.8-2.8h15.6c1.6,0,2.8,1.3,2.8,2.8
			C26.6,21.1,25.4,22.3,23.8,22.3z M8.2,18.2c-0.7,0-1.3,0.6-1.3,1.3c0,0.7,0.6,1.3,1.3,1.3h15.6c0.7,0,1.3-0.6,1.3-1.3
			c0-0.7-0.6-1.3-1.3-1.3H8.2z"/>
	</g>
	<g>
		<polygon fill="#8F9BA8" points="6.4,20.3 3.5,20.3 3.5,13.2 1.8,13.2 1.8,11.7 5,11.7 5,18.8 6.4,18.8 		"/>
	</g>
	<g>
		<polygon fill="#8F9BA8" points="28.4,20.3 25.6,20.3 25.6,18.8 26.9,18.8 26.9,11.7 30.2,11.7 30.2,13.2 28.4,13.2 		"/>
	</g>
	<g>
		<path fill="#8F9BA8" d="M23,18.2H9c-0.3,0-0.5-0.1-0.7-0.4c-1.5-2.7-2.5-6-2.5-8.8c0-5.4,3.4-8.2,10.2-8.2
			c6.7,0,10.2,2.8,10.2,8.2c0,2.8-0.9,6.1-2.5,8.8C23.6,18,23.3,18.2,23,18.2z M9.4,16.7h13.2c1.3-2.4,2.1-5.3,2.1-7.7
			c0-4.6-2.8-6.7-8.7-6.7c-5.9,0-8.7,2.1-8.7,6.7C7.3,11.4,8.1,14.2,9.4,16.7z"/>
	</g>
	<g>
		<rect x="15.2" y="21.2" fill="#8F9BA8" width="1.5" height="7.3"/>
	</g>
	<g>
		<path fill="#8F9BA8" d="M21.9,28.8C21.4,28,19.2,27,16,27c-3.2,0-5.4,0.9-5.9,1.8l-1.3-0.7c0.9-1.5,3.8-2.5,7.2-2.5
			c3.4,0,6.3,1,7.2,2.5L21.9,28.8z"/>
	</g>
	<g>
		<path fill="#8F9BA8" d="M22.8,31.3c-1,0-1.8-0.8-1.8-1.8c0-1,0.8-1.8,1.8-1.8c1,0,1.8,0.8,1.8,1.8C24.6,30.5,23.8,31.3,22.8,31.3z
			 M22.8,29.2c-0.1,0-0.3,0.1-0.3,0.3c0,0.3,0.5,0.3,0.5,0C23.1,29.3,22.9,29.2,22.8,29.2z"/>
	</g>
	<g>
		<path fill="#8F9BA8" d="M9,31.3c-1,0-1.8-0.8-1.8-1.8c0-1,0.8-1.8,1.8-1.8c1,0,1.8,0.8,1.8,1.8C10.7,30.5,9.9,31.3,9,31.3z
			 M9,29.2c-0.2,0-0.3,0.1-0.3,0.3c0,0.3,0.5,0.3,0.5,0C9.2,29.3,9.1,29.2,9,29.2z"/>
	</g>
	<g>
		<path fill="#8F9BA8" d="M16,31.3c-1,0-1.8-0.8-1.8-1.8c0-1,0.8-1.8,1.8-1.8c1,0,1.8,0.8,1.8,1.8C17.8,30.5,17,31.3,16,31.3z
			 M16,29.2c-0.1,0-0.3,0.1-0.3,0.3c0,0.3,0.5,0.3,0.5,0C16.3,29.3,16.1,29.2,16,29.2z"/>
	</g>
</g>
</svg>
