<?xml version="1.0" encoding="utf-8"?>
<!-- Generator: Adobe Illustrator 18.0.0, SVG Export Plug-In . SVG Version: 6.00 Build 0)  -->
<!DOCTYPE svg PUBLIC "-//W3C//DTD SVG 1.1//EN" "http://www.w3.org/Graphics/SVG/1.1/DTD/svg11.dtd">
<svg version="1.1" id="Layer_1" xmlns="http://www.w3.org/2000/svg" xmlns:xlink="http://www.w3.org/1999/xlink" x="0px" y="0px"
	 viewBox="0 0 32 32" enable-background="new 0 0 32 32" xml:space="preserve">
<g>
	<g>
		<path fill="#8F9BA8" d="M24.9,31.3H7.1c-1.4,0-2.5-1.1-2.5-2.5V4.5C4.6,3.2,5.8,2,7.1,2h17.7c1.4,0,2.5,1.1,2.5,2.5v24.2
			C27.4,30.1,26.2,31.3,24.9,31.3z M7.1,3.6C6.6,3.6,6.2,4,6.2,4.5v24.2c0,0.5,0.4,0.9,0.9,0.9h17.7c0.5,0,0.9-0.4,0.9-0.9V4.5
			c0-0.5-0.4-0.9-0.9-0.9H7.1z"/>
	</g>
	<g>
		<rect x="8.8" y="0.8" fill="#8F9BA8" width="1.5" height="4.4"/>
	</g>
	<g>
		<rect x="13.1" y="0.8" fill="#8F9BA8" width="1.5" height="4.4"/>
	</g>
	<g>
		<rect x="17.4" y="0.8" fill="#8F9BA8" width="1.5" height="4.4"/>
	</g>
	<g>
		<rect x="21.7" y="0.8" fill="#8F9BA8" width="1.5" height="4.4"/>
	</g>
	<g>
		<rect x="9.5" y="10.7" fill="#74B1E0" width="12.9" height="1.5"/>
	</g>
	<g>
		<rect x="9.5" y="16.5" fill="#74B1E0" width="12.9" height="1.5"/>
	</g>
	<g>
		<rect x="9.5" y="22.3" fill="#74B1E0" width="12.9" height="1.5"/>
	</g>
</g>
</svg>
