<?xml version="1.0" encoding="utf-8"?>
<!-- Generator: Adobe Illustrator 18.0.0, SVG Export Plug-In . SVG Version: 6.00 Build 0)  -->
<!DOCTYPE svg PUBLIC "-//W3C//DTD SVG 1.1//EN" "http://www.w3.org/Graphics/SVG/1.1/DTD/svg11.dtd">
<svg version="1.1" id="Layer_1" xmlns="http://www.w3.org/2000/svg" xmlns:xlink="http://www.w3.org/1999/xlink" x="0px" y="0px"
	 viewBox="0 0 32 32" enable-background="new 0 0 32 32" xml:space="preserve">
<g>
	<g>
		<path fill="#8F9BA8" d="M16,31.4L4.1,22V0.6h23.9V22L16,31.4z M5.6,21.2L16,29.4l10.4-8.2V2.1H5.6V21.2z"/>
	</g>
	<g>
		<path fill="#79C693" d="M16,19c-3.4,0-6.2-2.8-6.2-6.2c0-3.4,2.8-6.2,6.2-6.2c3.4,0,6.2,2.8,6.2,6.2C22.2,16.2,19.4,19,16,19z
			 M16,8.1c-2.6,0-4.7,2.1-4.7,4.7c0,2.6,2.1,4.7,4.7,4.7c2.6,0,4.7-2.1,4.7-4.7C20.7,10.2,18.6,8.1,16,8.1z"/>
	</g>
	<g>
		
			<rect x="15.2" y="9.7" transform="matrix(0.7071 0.7071 -0.7071 0.7071 13.7264 -7.5685)" fill="#79C693" width="1.5" height="6.2"/>
	</g>
	<g>
		
			<rect x="12.9" y="12" transform="matrix(0.7072 0.7071 -0.7071 0.7072 13.7268 -7.5683)" fill="#79C693" width="6.2" height="1.5"/>
	</g>
</g>
</svg>
