<?xml version="1.0" encoding="utf-8"?>
<!-- Generator: Adobe Illustrator 18.0.0, SVG Export Plug-In . SVG Version: 6.00 Build 0)  -->
<!DOCTYPE svg PUBLIC "-//W3C//DTD SVG 1.1//EN" "http://www.w3.org/Graphics/SVG/1.1/DTD/svg11.dtd">
<svg version="1.1" id="Layer_1" xmlns="http://www.w3.org/2000/svg" xmlns:xlink="http://www.w3.org/1999/xlink" x="0px" y="0px"
	 viewBox="0 0 32 32" enable-background="new 0 0 32 32" xml:space="preserve">
<g>
	<g>
		<path fill="#8F9BA8" d="M16,31.3C7.6,31.3,0.8,24.4,0.8,16S7.6,0.8,16,0.8S31.3,7.6,31.3,16S24.4,31.3,16,31.3z M16,2.3
			C8.4,2.3,2.3,8.4,2.3,16S8.4,29.8,16,29.8c7.6,0,13.8-6.2,13.8-13.8S23.6,2.3,16,2.3z"/>
	</g>
	<g>
		<path fill="#74B1E0" d="M23.8,13.1h-1.5c0-0.5-0.4-0.9-0.9-0.9c-0.5,0-0.9,0.4-0.9,0.9h-1.5c0-1.3,1.1-2.4,2.4-2.4
			C22.7,10.6,23.8,11.7,23.8,13.1z"/>
	</g>
	<g>
		<path fill="#74B1E0" d="M13.1,13.1h-1.5c0-0.5-0.4-0.9-0.9-0.9c-0.5,0-0.9,0.4-0.9,0.9H8.2c0-1.3,1.1-2.4,2.4-2.4
			C12,10.6,13.1,11.7,13.1,13.1z"/>
	</g>
	<g>
		<path fill="#74B1E0" d="M16,25c-2.7,0-5.2-1.4-6.7-3.8l1.3-0.8c1.1,1.9,3.1,3.1,5.4,3.1c2.2,0,4.2-1.1,5.4-3.1l1.3,0.8
			C21.2,23.6,18.7,25,16,25z"/>
	</g>
</g>
</svg>
