<?xml version="1.0" encoding="utf-8"?>
<!-- Generator: Adobe Illustrator 18.0.0, SVG Export Plug-In . SVG Version: 6.00 Build 0)  -->
<!DOCTYPE svg PUBLIC "-//W3C//DTD SVG 1.1//EN" "http://www.w3.org/Graphics/SVG/1.1/DTD/svg11.dtd">
<svg version="1.1" id="Layer_1" xmlns="http://www.w3.org/2000/svg" xmlns:xlink="http://www.w3.org/1999/xlink" x="0px" y="0px"
	 viewBox="0 0 32 32" enable-background="new 0 0 32 32" xml:space="preserve">
<g>
	<g>
		<path fill="#8F9BA8" d="M5.1,9.5c-2.4,0-4.4-2-4.4-4.4s2-4.4,4.4-4.4s4.4,2,4.4,4.4S7.5,9.5,5.1,9.5z M5.1,2.3
			c-1.6,0-2.9,1.3-2.9,2.9S3.5,8,5.1,8S8,6.7,8,5.1S6.7,2.3,5.1,2.3z"/>
	</g>
	<g>
		<path fill="#8F9BA8" d="M5.1,20.4c-2.4,0-4.4-2-4.4-4.4s2-4.4,4.4-4.4s4.4,2,4.4,4.4S7.5,20.4,5.1,20.4z M5.1,13.1
			c-1.6,0-2.9,1.3-2.9,2.9s1.3,2.9,2.9,2.9S8,17.6,8,16S6.7,13.1,5.1,13.1z"/>
	</g>
	<g>
		<path fill="#8F9BA8" d="M5.1,31.3c-2.4,0-4.4-2-4.4-4.4s2-4.4,4.4-4.4s4.4,2,4.4,4.4S7.5,31.3,5.1,31.3z M5.1,24
			c-1.6,0-2.9,1.3-2.9,2.9s1.3,2.9,2.9,2.9S8,28.5,8,26.9S6.7,24,5.1,24z"/>
	</g>
	<g>
		<path fill="#8F9BA8" d="M16,9.5c-2.4,0-4.4-2-4.4-4.4s2-4.4,4.4-4.4s4.4,2,4.4,4.4S18.4,9.5,16,9.5z M16,2.3
			c-1.6,0-2.9,1.3-2.9,2.9S14.4,8,16,8s2.9-1.3,2.9-2.9S17.6,2.3,16,2.3z"/>
	</g>
	<g>
		<path fill="#74B1E0" d="M16,20.4c-2.4,0-4.4-2-4.4-4.4s2-4.4,4.4-4.4s4.4,2,4.4,4.4S18.4,20.4,16,20.4z M16,13.1
			c-1.6,0-2.9,1.3-2.9,2.9s1.3,2.9,2.9,2.9s2.9-1.3,2.9-2.9S17.6,13.1,16,13.1z"/>
	</g>
	<g>
		<path fill="#8F9BA8" d="M16,31.3c-2.4,0-4.4-2-4.4-4.4s2-4.4,4.4-4.4s4.4,2,4.4,4.4S18.4,31.3,16,31.3z M16,24
			c-1.6,0-2.9,1.3-2.9,2.9s1.3,2.9,2.9,2.9s2.9-1.3,2.9-2.9S17.6,24,16,24z"/>
	</g>
	<g>
		<path fill="#8F9BA8" d="M26.9,9.5c-2.4,0-4.4-2-4.4-4.4s2-4.4,4.4-4.4s4.4,2,4.4,4.4S29.3,9.5,26.9,9.5z M26.9,2.3
			c-1.6,0-2.9,1.3-2.9,2.9S25.3,8,26.9,8s2.9-1.3,2.9-2.9S28.5,2.3,26.9,2.3z"/>
	</g>
	<g>
		<path fill="#8F9BA8" d="M26.9,20.4c-2.4,0-4.4-2-4.4-4.4s2-4.4,4.4-4.4s4.4,2,4.4,4.4S29.3,20.4,26.9,20.4z M26.9,13.1
			c-1.6,0-2.9,1.3-2.9,2.9s1.3,2.9,2.9,2.9s2.9-1.3,2.9-2.9S28.5,13.1,26.9,13.1z"/>
	</g>
	<g>
		<path fill="#8F9BA8" d="M26.9,31.3c-2.4,0-4.4-2-4.4-4.4s2-4.4,4.4-4.4s4.4,2,4.4,4.4S29.3,31.3,26.9,31.3z M26.9,24
			c-1.6,0-2.9,1.3-2.9,2.9s1.3,2.9,2.9,2.9s2.9-1.3,2.9-2.9S28.5,24,26.9,24z"/>
	</g>
</g>
</svg>
