<?xml version="1.0" encoding="utf-8"?>
<!-- Generator: Adobe Illustrator 18.0.0, SVG Export Plug-In . SVG Version: 6.00 Build 0)  -->
<!DOCTYPE svg PUBLIC "-//W3C//DTD SVG 1.1//EN" "http://www.w3.org/Graphics/SVG/1.1/DTD/svg11.dtd">
<svg version="1.1" id="Layer_1" xmlns="http://www.w3.org/2000/svg" xmlns:xlink="http://www.w3.org/1999/xlink" x="0px" y="0px"
	 viewBox="0 0 32 32" enable-background="new 0 0 32 32" xml:space="preserve">
<g>
	<g>
		<rect x="12" y="0.7" fill="#8F9BA8" width="1.5" height="3.5"/>
	</g>
	<g>
		<path fill="#8F9BA8" d="M18.3,15.8h-4.5c-0.4,0-0.8-0.3-0.8-0.8v-2.9c0-0.4,0.3-0.8,0.8-0.8h4.5c0.4,0,0.8,0.3,0.8,0.8V15
			C19,15.4,18.7,15.8,18.3,15.8z M14.5,14.2h3v-1.3h-3V14.2z"/>
	</g>
	<g>
		<path fill="#FAC2C3" d="M20.8,12.1h-9.6c-0.7,0-1.3-0.6-1.3-1.3V5.5c0-0.7,0.6-1.3,1.3-1.3h9.6c0.7,0,1.3,0.6,1.3,1.3v5.3
			C22.1,11.5,21.5,12.1,20.8,12.1z"/>
		<path fill="#DA8C8C" d="M20.8,12.9h-9.5c-1.2,0-2.1-0.9-2.1-2.1V5.6c0-1.2,0.9-2.1,2.1-2.1h9.5c1.2,0,2.1,0.9,2.1,2.1v5.2
			C22.9,11.9,21.9,12.9,20.8,12.9z M11.2,5c-0.3,0-0.6,0.2-0.6,0.6v5.2c0,0.3,0.2,0.6,0.6,0.6h9.5c0.3,0,0.6-0.2,0.6-0.6V5.6
			c0-0.3-0.2-0.6-0.6-0.6H11.2z"/>
	</g>
	<g>
		<path fill="#8F9BA8" d="M21.4,26.9H10.6c-1.2,0-2.2-1-2.2-2.2v-8.3c0-1.2,1-2.2,2.2-2.2h10.8c1.2,0,2.2,1,2.2,2.2v8.3
			C23.6,26,22.6,26.9,21.4,26.9z M10.6,15.8c-0.4,0-0.7,0.3-0.7,0.7v8.3c0,0.4,0.3,0.7,0.7,0.7h10.8c0.4,0,0.7-0.3,0.7-0.7v-8.3
			c0-0.4-0.3-0.7-0.7-0.7H10.6z"/>
	</g>
	<g>
		<rect x="18.9" y="26.2" fill="#8F9BA8" width="1.5" height="4.3"/>
	</g>
	<g>
		<rect x="18.3" y="29.7" fill="#8F9BA8" width="2.8" height="1.5"/>
	</g>
	<g>
		<rect x="11.5" y="26.2" fill="#8F9BA8" width="1.5" height="4.3"/>
	</g>
	<g>
		<rect x="10.9" y="29.7" fill="#8F9BA8" width="2.8" height="1.5"/>
	</g>
	<g>
		
			<rect x="21.5" y="19.1" transform="matrix(0.5739 0.8189 -0.8189 0.5739 26.746 -11.6465)" fill="#8F9BA8" width="6" height="1.5"/>
	</g>
	<g>
		<path fill="#8F9BA8" d="M28.6,24h-1.5c0-0.5-0.4-0.9-0.9-0.9s-0.9,0.4-0.9,0.9h-1.5c0-1.3,1.1-2.4,2.4-2.4
			C27.6,21.6,28.6,22.6,28.6,24z"/>
	</g>
	<g>
		<rect x="6.7" y="16.9" transform="matrix(0.8188 0.5741 -0.5741 0.8188 12.759 -0.6662)" fill="#8F9BA8" width="1.5" height="6"/>
	</g>
	<g>
		<path fill="#8F9BA8" d="M8.2,24H6.7c0-0.5-0.4-0.9-0.9-0.9c-0.5,0-0.9,0.4-0.9,0.9H3.4c0-1.3,1.1-2.4,2.4-2.4S8.2,22.6,8.2,24z"/>
	</g>
	<g>
		<rect x="17.5" y="6.3" fill="#8F9BA8" width="1.8" height="1.5"/>
	</g>
	<g>
		<rect x="12.7" y="6.3" fill="#8F9BA8" width="1.8" height="1.5"/>
	</g>
	<g>
		<rect x="14.9" y="9.1" fill="#8F9BA8" width="2.2" height="1.5"/>
	</g>
	<g>
		<rect x="13.4" y="17.9" fill="#74B1E0" width="5.3" height="1.5"/>
	</g>
	<g>
		<rect x="13.4" y="21.7" fill="#74B1E0" width="5.3" height="1.5"/>
	</g>
</g>
</svg>
