<?xml version="1.0" encoding="utf-8"?>
<!-- Generator: Adobe Illustrator 18.0.0, SVG Export Plug-In . SVG Version: 6.00 Build 0)  -->
<!DOCTYPE svg PUBLIC "-//W3C//DTD SVG 1.1//EN" "http://www.w3.org/Graphics/SVG/1.1/DTD/svg11.dtd">
<svg version="1.1" id="Layer_1" xmlns="http://www.w3.org/2000/svg" xmlns:xlink="http://www.w3.org/1999/xlink" x="0px" y="0px"
	 viewBox="0 0 32 32" enable-background="new 0 0 32 32" xml:space="preserve">
<g>
	<g>
		<path fill="#8F9BA8" d="M20.2,24.7c-0.2,0-0.4-0.1-0.5-0.2L7.5,12.3c-0.1-0.1-0.2-0.3-0.2-0.5c0-0.2,0.1-0.4,0.2-0.5
			c3.9-3.8,8.1-8.6,8.1-9.7c0-0.3,0.2-0.6,0.5-0.7c0.3-0.1,0.6-0.1,0.8,0.1L31,15.1c0.2,0.2,0.3,0.6,0.2,0.8
			c-0.1,0.3-0.4,0.4-0.7,0.4c-1.1,0-5.9,4.2-9.7,8.1C20.6,24.6,20.4,24.7,20.2,24.7C20.2,24.7,20.2,24.7,20.2,24.7z M9.1,11.8
			l11.1,11.1c2-2,6.3-6.2,8.9-7.6L16.7,2.9C15.4,5.4,11.4,9.5,9.1,11.8z"/>
	</g>
	<g>
		
			<rect x="24.7" y="11.5" transform="matrix(0.7071 0.7071 -0.7071 0.7071 17.1486 -13.9875)" fill="#8F9BA8" width="1.5" height="4.5"/>
	</g>
	<g>
		
			<rect x="20.3" y="11.7" transform="matrix(0.7071 0.7071 -0.7071 0.7071 16.1182 -10.7713)" fill="#8F9BA8" width="1.5" height="4.7"/>
	</g>
	<g>
		
			<rect x="19.6" y="6.3" transform="matrix(0.7071 0.7071 -0.7071 0.7071 12.0197 -11.8629)" fill="#8F9BA8" width="1.5" height="4.5"/>
	</g>
	<g>
		
			<rect x="15.2" y="6.6" transform="matrix(0.7071 0.7071 -0.7071 0.7071 10.985 -8.6454)" fill="#8F9BA8" width="1.5" height="4.7"/>
	</g>
	<g>
		<path fill="#CDE4F7" d="M8,11.7l-2,2c-1.2,1.2-1.2,3.1,0,4.3l0.7,0.7c1.2,1.2,1,3.1-0.4,4c-1.1,0.7-2.1,1.6-3,2.4
			c-2.4,2.4-2.2,3.7-1.2,4.7c1,1,2.3,1.2,4.7-1.2c0.8-0.8,1.7-1.9,2.4-3c0.9-1.3,2.8-1.5,4-0.4L14,26c1.2,1.2,3.1,1.2,4.3,0l2-2
			L8,11.7z"/>
		<path fill="#74B1E0" d="M3.7,31.2c-0.7,0-1.4-0.3-2-0.9c-2-2-0.3-4.3,1.2-5.7c0.9-0.9,1.9-1.8,3.1-2.5c0.5-0.3,0.8-0.8,0.8-1.4
			c0-0.5-0.1-1.1-0.5-1.5l-0.7-0.7C4,17,4,14.6,5.5,13.2l2-2c0.3-0.3,0.8-0.3,1.1,0l12.3,12.3c0.3,0.3,0.3,0.8,0,1.1l-2,2
			c-1.4,1.4-3.9,1.4-5.3,0l-0.7-0.7c-0.8-0.8-2.2-0.7-2.9,0.3c-0.8,1.1-1.7,2.2-2.5,3.1C6,30.6,4.8,31.2,3.7,31.2z M8,12.8l-1.4,1.4
			c-0.9,0.9-0.9,2.3,0,3.2l0.7,0.7c0.7,0.7,1.1,1.7,1,2.7c-0.1,1-0.6,1.9-1.4,2.5c-1,0.7-2.1,1.6-2.9,2.4c-2.4,2.4-1.6,3.2-1.2,3.6
			c0.3,0.3,0.6,0.5,1,0.5c0.5,0,1.3-0.3,2.7-1.7c0.8-0.8,1.6-1.8,2.4-2.9c0.6-0.9,1.7-1.5,2.8-1.5c0.9,0,1.7,0.3,2.4,1l0.7,0.7
			c0.9,0.9,2.4,0.9,3.2,0l1.4-1.4L8,12.8z"/>
	</g>
</g>
</svg>
