<?xml version="1.0" encoding="utf-8"?>
<!-- Generator: Adobe Illustrator 18.0.0, SVG Export Plug-In . SVG Version: 6.00 Build 0)  -->
<!DOCTYPE svg PUBLIC "-//W3C//DTD SVG 1.1//EN" "http://www.w3.org/Graphics/SVG/1.1/DTD/svg11.dtd">
<svg version="1.1" id="Layer_1" xmlns="http://www.w3.org/2000/svg" xmlns:xlink="http://www.w3.org/1999/xlink" x="0px" y="0px"
	 viewBox="0 0 32 32" enable-background="new 0 0 32 32" xml:space="preserve">
<g>
	<g>
		<path fill="#8F9BA8" d="M26.2,27H5.8c-1.7,0-3-1.3-3-3V3.9c0-0.3,0.2-0.6,0.5-0.7C11.8,0,20.2,0,28.7,3.2c0.3,0.1,0.5,0.4,0.5,0.7
			V24C29.2,25.7,27.8,27,26.2,27z M4.3,4.4V24c0,0.8,0.7,1.5,1.5,1.5h20.4c0.8,0,1.5-0.7,1.5-1.5V4.4C19.9,1.5,12.1,1.5,4.3,4.4z"/>
	</g>
	<g>
		<path fill="#79C693" d="M23.3,24.1c-1.6,0-2.8-1.3-2.8-2.8c0-1.6,1.3-2.8,2.8-2.8c1.6,0,2.8,1.3,2.8,2.8
			C26.1,22.9,24.9,24.1,23.3,24.1z M23.3,20c-0.7,0-1.3,0.6-1.3,1.3s0.6,1.3,1.3,1.3c0.7,0,1.3-0.6,1.3-1.3S24,20,23.3,20z"/>
	</g>
	<g>
		<path fill="#79C693" d="M8.7,24.1c-1.6,0-2.8-1.3-2.8-2.8c0-1.6,1.3-2.8,2.8-2.8c1.6,0,2.8,1.3,2.8,2.8
			C11.5,22.9,10.3,24.1,8.7,24.1z M8.7,20c-0.7,0-1.3,0.6-1.3,1.3s0.6,1.3,1.3,1.3S10,22,10,21.3S9.4,20,8.7,20z"/>
	</g>
	<g>
		<rect x="3.6" y="4.9" fill="#8F9BA8" width="25.3" height="1.5"/>
	</g>
	<g>
		<rect x="3.6" y="16" fill="#8F9BA8" width="25.3" height="1.5"/>
	</g>
	<g>
		<path fill="#8F9BA8" d="M23.8,31.2h-2.1c-1.2,0-2.2-1-2.2-2.2v-2.8c0-0.4,0.3-0.8,0.8-0.8h4.9c0.4,0,0.8,0.3,0.8,0.8v2.8
			C26,30.3,25,31.2,23.8,31.2z M21.1,27v2c0,0.4,0.3,0.7,0.7,0.7h2.1c0.4,0,0.7-0.3,0.7-0.7v-2H21.1z"/>
	</g>
	<g>
		<path fill="#8F9BA8" d="M10.2,31.2H8.2c-1.2,0-2.2-1-2.2-2.2v-2.8c0-0.4,0.3-0.8,0.8-0.8h4.9c0.4,0,0.8,0.3,0.8,0.8v2.8
			C12.4,30.3,11.4,31.2,10.2,31.2z M7.5,27v2c0,0.4,0.3,0.7,0.7,0.7h2.1c0.4,0,0.7-0.3,0.7-0.7v-2H7.5z"/>
	</g>
	<g>
		<rect x="14.4" y="2.8" fill="#74B1E0" width="3.1" height="1.5"/>
	</g>
</g>
</svg>
