<?xml version="1.0" encoding="utf-8"?>
<!-- Generator: Adobe Illustrator 18.0.0, SVG Export Plug-In . SVG Version: 6.00 Build 0)  -->
<!DOCTYPE svg PUBLIC "-//W3C//DTD SVG 1.1//EN" "http://www.w3.org/Graphics/SVG/1.1/DTD/svg11.dtd">
<svg version="1.1" id="Layer_1" xmlns="http://www.w3.org/2000/svg" xmlns:xlink="http://www.w3.org/1999/xlink" x="0px" y="0px"
	 viewBox="0 0 32 32" enable-background="new 0 0 32 32" xml:space="preserve">
<g>
	<g>
		<path fill="#8F9BA8" d="M25,30.5c-0.1,0-0.2,0-0.3-0.1L16,25.9l-8.6,4.5c-0.3,0.1-0.6,0.1-0.8-0.1c-0.2-0.2-0.3-0.5-0.3-0.7
			l1.6-9.6l-7-6.8c-0.2-0.2-0.3-0.5-0.2-0.8C0.9,12.2,1.1,12,1.4,12l9.6-1.4l4.3-8.7c0.3-0.5,1.1-0.5,1.3,0l4.3,8.7l9.6,1.4
			c0.3,0,0.5,0.2,0.6,0.5c0.1,0.3,0,0.6-0.2,0.8l-7,6.8l1.6,9.6c0,0.3-0.1,0.6-0.3,0.7C25.3,30.5,25.1,30.5,25,30.5z M3.1,13.3
			l6.2,6c0.2,0.2,0.3,0.4,0.2,0.7L8,28.4l7.6-4c0.2-0.1,0.5-0.1,0.7,0l7.6,4l-1.5-8.5c0-0.2,0-0.5,0.2-0.7l6.2-6L20.4,12
			c-0.2,0-0.5-0.2-0.6-0.4L16,3.9l-3.8,7.7c-0.1,0.2-0.3,0.4-0.6,0.4L3.1,13.3z"/>
	</g>
	<g>
		<polygon fill="#FAC2C3" points="12.8,18.5 9.7,15.4 14,14.7 16,10.8 18,14.7 22.3,15.4 19.2,18.5 19.9,22.8 16,20.8 12.1,22.8 		
			"/>
		<path fill="#DA8C8C" d="M19.9,23.6c-0.1,0-0.2,0-0.3-0.1L16,21.6l-3.6,1.9c-0.3,0.1-0.6,0.1-0.8-0.1c-0.2-0.2-0.3-0.5-0.3-0.7
			l0.7-4l-2.9-2.8c-0.2-0.2-0.3-0.5-0.2-0.8c0.1-0.3,0.3-0.5,0.6-0.5l4-0.6l1.8-3.6c0.1-0.3,0.4-0.4,0.7-0.4l0,0
			c0.3,0,0.5,0.2,0.7,0.4l1.8,3.6l4,0.6c0.3,0,0.5,0.2,0.6,0.5c0.1,0.3,0,0.6-0.2,0.8L20,18.7l0.7,4c0,0.3-0.1,0.6-0.3,0.7
			C20.2,23.5,20.1,23.6,19.9,23.6z M11.3,15.9l2.1,2c0.2,0.2,0.3,0.4,0.2,0.7l-0.5,2.9l2.6-1.3c0.2-0.1,0.5-0.1,0.7,0l2.6,1.3
			l-0.5-2.9c0-0.2,0-0.5,0.2-0.7l2.1-2l-2.9-0.4c-0.2,0-0.5-0.2-0.6-0.4L16,12.5l-1.3,2.6c-0.1,0.2-0.3,0.4-0.6,0.4L11.3,15.9z"/>
	</g>
</g>
</svg>
