<?xml version="1.0" encoding="utf-8"?>
<!-- Generator: Adobe Illustrator 18.0.0, SVG Export Plug-In . SVG Version: 6.00 Build 0)  -->
<!DOCTYPE svg PUBLIC "-//W3C//DTD SVG 1.1//EN" "http://www.w3.org/Graphics/SVG/1.1/DTD/svg11.dtd">
<svg version="1.1" id="Layer_1" xmlns="http://www.w3.org/2000/svg" xmlns:xlink="http://www.w3.org/1999/xlink" x="0px" y="0px"
	 viewBox="0 0 32 32" enable-background="new 0 0 32 32" xml:space="preserve">
<g>
	<g>
		<path fill="#B4A79C" d="M28.4,23.4H3.6c-1.6,0-2.8-1.3-2.8-2.8v-17C0.8,2,2,0.8,3.6,0.8h24.8c1.6,0,2.8,1.3,2.8,2.8v17
			C31.3,22.2,30,23.4,28.4,23.4z M3.6,2.3c-0.7,0-1.3,0.6-1.3,1.3v17c0,0.7,0.6,1.3,1.3,1.3h24.8c0.7,0,1.3-0.6,1.3-1.3v-17
			c0-0.7-0.6-1.3-1.3-1.3H3.6z"/>
	</g>
	<g>
		<rect x="13.7" y="27.4" fill="#8F9BA8" width="16.8" height="1.5"/>
	</g>
	<g>
		<rect x="1.5" y="27.4" fill="#8F9BA8" width="7.4" height="1.5"/>
	</g>
	<g>
		<path fill="#8F9BA8" d="M11.3,31.3c-1.7,0-3.1-1.4-3.1-3.1c0-1.7,1.4-3.1,3.1-3.1s3.1,1.4,3.1,3.1C14.4,29.8,13,31.3,11.3,31.3z
			 M11.3,26.5c-0.9,0-1.6,0.7-1.6,1.6c0,0.9,0.7,1.6,1.6,1.6s1.6-0.7,1.6-1.6C12.9,27.2,12.2,26.5,11.3,26.5z"/>
	</g>
	<g>
		<path fill="#FAC2C3" d="M13.8,9.2V15c0,0.9,1.1,1.5,1.8,0.9l4-2.9c0.6-0.5,0.6-1.4,0-1.9l-4-2.9C14.9,7.7,13.8,8.3,13.8,9.2z"/>
		<path fill="#DA8C8C" d="M15,16.9L15,16.9c-1.1,0-1.9-0.9-1.9-1.9V9.2c0-1,0.9-1.9,1.9-1.9c0.4,0,0.8,0.1,1.1,0.4l4,2.9
			c0.5,0.4,0.8,0.9,0.8,1.5s-0.3,1.2-0.8,1.5l-4,2.9C15.8,16.8,15.4,16.9,15,16.9z M15,8.8c-0.2,0-0.4,0.1-0.4,0.4V15
			c0,0.3,0.2,0.4,0.4,0.4l0,0c0.1,0,0.2,0,0.2-0.1l4-2.9c0.1-0.1,0.2-0.2,0.2-0.3c0-0.1,0-0.2-0.2-0.3l-4-2.9
			C15.2,8.8,15.1,8.8,15,8.8z"/>
	</g>
</g>
</svg>
