<?xml version="1.0" encoding="utf-8"?>
<!-- Generator: Adobe Illustrator 18.0.0, SVG Export Plug-In . SVG Version: 6.00 Build 0)  -->
<!DOCTYPE svg PUBLIC "-//W3C//DTD SVG 1.1//EN" "http://www.w3.org/Graphics/SVG/1.1/DTD/svg11.dtd">
<svg version="1.1" id="Layer_1" xmlns="http://www.w3.org/2000/svg" xmlns:xlink="http://www.w3.org/1999/xlink" x="0px" y="0px"
	 viewBox="0 0 32 32" enable-background="new 0 0 32 32" xml:space="preserve">
<g>
	<g>
		<path fill="#8F9BA8" d="M21.5,31.3H10.5c-2.7,0-4.9-2.2-4.9-4.9V3.8c0-1.7,1.4-3.1,3.1-3.1h14.7c1.7,0,3.1,1.4,3.1,3.1v22.5
			C26.4,29,24.2,31.3,21.5,31.3z M8.7,2.3c-0.9,0-1.6,0.7-1.6,1.6v22.5c0,1.9,1.5,3.4,3.4,3.4h10.9c1.9,0,3.4-1.5,3.4-3.4V3.8
			c0-0.9-0.7-1.6-1.6-1.6H8.7z"/>
	</g>
	<g>
		<rect x="9.2" y="7.7" fill="#CDE4F7" width="13.7" height="8.9"/>
		<path fill="#74B1E0" d="M23.6,17.3H8.4V7h15.2V17.3z M9.9,15.8h12.2V8.5H9.9V15.8z"/>
	</g>
	<g>
		<rect x="14.7" y="3.9" fill="#8F9BA8" width="2.6" height="1.5"/>
	</g>
	<g>
		<rect x="9.8" y="22.8" fill="#B4A79C" width="1.5" height="1.5"/>
	</g>
	<g>
		<rect x="13.5" y="22.8" fill="#B4A79C" width="1.5" height="1.5"/>
	</g>
	<g>
		<rect x="17.1" y="22.8" fill="#B4A79C" width="1.5" height="1.5"/>
	</g>
	<g>
		<rect x="20.7" y="22.8" fill="#B4A79C" width="1.5" height="1.5"/>
	</g>
	<g>
		<rect x="9.8" y="19.2" fill="#B4A79C" width="1.5" height="1.5"/>
	</g>
	<g>
		<rect x="13.5" y="19.2" fill="#B4A79C" width="1.5" height="1.5"/>
	</g>
	<g>
		<rect x="17.1" y="19.2" fill="#B4A79C" width="1.5" height="1.5"/>
	</g>
	<g>
		<rect x="20.7" y="19.2" fill="#B4A79C" width="1.5" height="1.5"/>
	</g>
	<g>
		<rect x="9.8" y="26.4" fill="#B4A79C" width="1.5" height="1.5"/>
	</g>
	<g>
		<rect x="13.5" y="26.4" fill="#B4A79C" width="1.5" height="1.5"/>
	</g>
	<g>
		<rect x="17.1" y="26.4" fill="#B4A79C" width="1.5" height="1.5"/>
	</g>
	<g>
		<rect x="20.7" y="26.4" fill="#B4A79C" width="1.5" height="1.5"/>
	</g>
</g>
</svg>
