<?xml version="1.0" encoding="utf-8"?>
<!-- Generator: Adobe Illustrator 18.0.0, SVG Export Plug-In . SVG Version: 6.00 Build 0)  -->
<!DOCTYPE svg PUBLIC "-//W3C//DTD SVG 1.1//EN" "http://www.w3.org/Graphics/SVG/1.1/DTD/svg11.dtd">
<svg version="1.1" id="Layer_1" xmlns="http://www.w3.org/2000/svg" xmlns:xlink="http://www.w3.org/1999/xlink" x="0px" y="0px"
	 viewBox="0 0 32 32" enable-background="new 0 0 32 32" xml:space="preserve">
<g>
	<g>
		<path fill="#79C693" d="M15.8,16.7c-0.1,0-0.2,0-0.3-0.1c-0.3-0.1-0.5-0.4-0.5-0.7V1.5c0-0.3,0.2-0.6,0.5-0.7
			c0.3-0.1,0.6-0.1,0.8,0.2l7.3,7.3c0.1,0.1,0.2,0.3,0.2,0.5c0,0.2-0.1,0.4-0.2,0.5l-7.3,7.2C16.2,16.7,16,16.7,15.8,16.7z
			 M16.6,3.3v10.9L22,8.8L16.6,3.3z"/>
	</g>
	<g>
		<path fill="#79C693" d="M15.8,31.2c-0.1,0-0.2,0-0.3-0.1c-0.3-0.1-0.5-0.4-0.5-0.7V16c0-0.3,0.2-0.6,0.5-0.7
			c0.3-0.1,0.6-0.1,0.8,0.2l7.3,7.3c0.1,0.1,0.2,0.3,0.2,0.5c0,0.2-0.1,0.4-0.2,0.5L16.4,31C16.2,31.2,16,31.2,15.8,31.2z
			 M16.6,17.8v10.9l5.4-5.4L16.6,17.8z"/>
	</g>
	<g>
		<path fill="#79C693" d="M9.2,23.8l-1.1-1.1l6.7-6.7L8.2,9.3l1.1-1.1l7.3,7.3c0.1,0.1,0.2,0.3,0.2,0.5c0,0.2-0.1,0.4-0.2,0.5
			L9.2,23.8z"/>
	</g>
</g>
</svg>
