<?xml version="1.0" encoding="utf-8"?>
<!-- Generator: Adobe Illustrator 18.0.0, SVG Export Plug-In . SVG Version: 6.00 Build 0)  -->
<!DOCTYPE svg PUBLIC "-//W3C//DTD SVG 1.1//EN" "http://www.w3.org/Graphics/SVG/1.1/DTD/svg11.dtd">
<svg version="1.1" id="Layer_1" xmlns="http://www.w3.org/2000/svg" xmlns:xlink="http://www.w3.org/1999/xlink" x="0px" y="0px"
	 viewBox="0 0 32 32" enable-background="new 0 0 32 32" xml:space="preserve">
<g>
	<g>
		<path fill="#8F9BA8" d="M26.8,27.2l-1.1-1.1c5.4-5.4,5.4-14.1,0-19.4c-5.4-5.4-14.1-5.4-19.4,0c-5.4,5.4-5.4,14.1,0,19.4l-1.1,1.1
			c-5.9-5.9-5.9-15.6,0-21.6c5.9-5.9,15.6-5.9,21.6,0C32.7,11.5,32.7,21.2,26.8,27.2z"/>
	</g>
	<g>
		<path fill="#8F9BA8" d="M23.6,24l-1.1-1.1c1.7-1.7,2.7-4.1,2.7-6.5c0-2.5-1-4.8-2.7-6.5S18.4,7.2,16,7.2s-4.8,1-6.5,2.7
			S6.8,14,6.8,16.4c0,2.5,1,4.8,2.7,6.5L8.4,24c-2-2-3.1-4.7-3.1-7.6s1.1-5.6,3.1-7.6s4.7-3.1,7.6-3.1s5.6,1.1,7.6,3.1
			s3.1,4.7,3.1,7.6C26.7,19.2,25.6,21.9,23.6,24z"/>
	</g>
	<g>
		<path fill="#8F9BA8" d="M20.7,21l-1.1-1c2-2,2-5.2,0-7.2s-5.2-2-7.2,0s-2,5.2,0,7.2l-1.1,1c-2.6-2.6-2.6-6.8,0-9.3
			c2.6-2.6,6.8-2.6,9.3,0C23.2,14.3,23.2,18.5,20.7,21z"/>
	</g>
	<g>
		<circle fill="#CDE4F7" cx="16" cy="16.4" r="2.3"/>
		<path fill="#74B1E0" d="M16,19.4c-1.7,0-3-1.4-3-3c0-1.7,1.4-3,3-3c1.7,0,3,1.4,3,3S17.7,19.4,16,19.4z M16,14.8
			c-0.8,0-1.5,0.7-1.5,1.5s0.7,1.5,1.5,1.5c0.8,0,1.5-0.7,1.5-1.5S16.8,14.8,16,14.8z"/>
	</g>
	<g>
		<rect x="15.2" y="18.6" fill="#74B1E0" width="1.5" height="12.2"/>
	</g>
</g>
</svg>
