<?xml version="1.0" encoding="utf-8"?>
<!-- Generator: Adobe Illustrator 18.0.0, SVG Export Plug-In . SVG Version: 6.00 Build 0)  -->
<!DOCTYPE svg PUBLIC "-//W3C//DTD SVG 1.1//EN" "http://www.w3.org/Graphics/SVG/1.1/DTD/svg11.dtd">
<svg version="1.1" id="Layer_1" xmlns="http://www.w3.org/2000/svg" xmlns:xlink="http://www.w3.org/1999/xlink" x="0px" y="0px"
	 viewBox="0 0 32 32" enable-background="new 0 0 32 32" xml:space="preserve">
<g>
	<g>
		<path fill="#8F9BA8" d="M20.8,21.6H1.5c-0.4,0-0.8-0.3-0.8-0.8V1.5c0-0.4,0.3-0.8,0.8-0.8h19.3c0.4,0,0.8,0.3,0.8,0.8v19.3
			C21.6,21.2,21.2,21.6,20.8,21.6z M2.3,20.1h17.8V2.3H2.3V20.1z"/>
	</g>
	<g>
		<g>
			<g>
				
					<rect x="20.7" y="1.1" transform="matrix(0.7069 0.7074 -0.7074 0.7069 7.5222 -14.4431)" fill="#8F9BA8" width="1" height="1.5"/>
			</g>
			<g>
				<path fill="#8F9BA8" d="M27.6,9.3L26,7.7L27,6.6l1.7,1.7L27.6,9.3z M24.3,6l-1.7-1.7l1.1-1.1L25.4,5L24.3,6z"/>
			</g>
			<g>
				
					<rect x="29.6" y="10.1" transform="matrix(0.7071 0.7071 -0.7071 0.7071 16.4759 -18.1496)" fill="#8F9BA8" width="1" height="1.5"/>
			</g>
		</g>
	</g>
	<g>
		<g>
			<g>
				
					<rect x="1.4" y="1.1" transform="matrix(0.7066 0.7076 -0.7076 0.7066 1.8557 -0.7676)" fill="#8F9BA8" width="1" height="1.5"/>
			</g>
			<g>
				<path fill="#8F9BA8" d="M8.3,9.3L6.6,7.7l1.1-1.1l1.7,1.7L8.3,9.3z M5,6L3.3,4.4l1.1-1.1L6,5L5,6z"/>
			</g>
			<g>
				
					<rect x="10.3" y="10.1" transform="matrix(0.7071 0.7071 -0.7071 0.7071 10.8133 -4.4787)" fill="#8F9BA8" width="1" height="1.5"/>
			</g>
		</g>
	</g>
	<g>
		<g>
			<g>
				
					<rect x="20.7" y="20.4" transform="matrix(0.7074 0.7069 -0.7069 0.7074 21.1767 -8.7756)" fill="#8F9BA8" width="1" height="1.5"/>
			</g>
			<g>
				<path fill="#8F9BA8" d="M27.6,28.7L26,27L27,26l1.7,1.7L27.6,28.7z M24.3,25.4l-1.7-1.7l1.1-1.1l1.7,1.7L24.3,25.4z"/>
			</g>
			<g>
				
					<rect x="29.6" y="29.4" transform="matrix(0.7071 0.7071 -0.7071 0.7071 30.1465 -12.4871)" fill="#8F9BA8" width="1" height="1.5"/>
			</g>
		</g>
	</g>
	<g>
		<g>
			<g>
				
					<rect x="10.3" y="29.4" transform="matrix(0.7071 0.7071 -0.7071 0.7071 24.4838 1.1838)" fill="#8F9BA8" width="1" height="1.5"/>
			</g>
			<g>
				<path fill="#8F9BA8" d="M8.3,28.7L6.6,27L7.7,26l1.7,1.7L8.3,28.7z M5,25.4l-1.7-1.7l1.1-1.1L6,24.3L5,25.4z"/>
			</g>
			<g>
				
					<rect x="1.4" y="20.4" transform="matrix(0.7071 0.7071 -0.7071 0.7071 15.5247 4.8951)" fill="#8F9BA8" width="1" height="1.5"/>
			</g>
		</g>
	</g>
	<g>
		<path fill="#74B1E0" d="M30.5,31.3H11.2c-0.4,0-0.8-0.3-0.8-0.8V11.2c0-0.4,0.3-0.8,0.8-0.8h19.3c0.4,0,0.8,0.3,0.8,0.8v19.3
			C31.3,30.9,30.9,31.3,30.5,31.3z M11.9,29.8h17.8V11.9H11.9V29.8z"/>
	</g>
</g>
</svg>
