<?xml version="1.0" encoding="utf-8"?>
<!-- Generator: Adobe Illustrator 18.0.0, SVG Export Plug-In . SVG Version: 6.00 Build 0)  -->
<!DOCTYPE svg PUBLIC "-//W3C//DTD SVG 1.1//EN" "http://www.w3.org/Graphics/SVG/1.1/DTD/svg11.dtd">
<svg version="1.1" id="Layer_1" xmlns="http://www.w3.org/2000/svg" xmlns:xlink="http://www.w3.org/1999/xlink" x="0px" y="0px"
	 viewBox="0 0 32 32" enable-background="new 0 0 32 32" xml:space="preserve">
<g>
	<g>
		<path fill="#8F9BA8" d="M21.6,18.8c-0.2,0-0.4,0-0.6,0c-1.2,0-2.3-0.1-3.5-0.2c-0.4,0-0.7-0.4-0.7-0.7v-4c0-0.2,0.1-0.4,0.3-0.6
			c0.7-0.6,1.4-1.4,1.9-2.3c4-7.3,11.1-9.3,11.4-9.4c0.3-0.1,0.6,0,0.8,0.3c0.2,0.2,0.2,0.6,0,0.8c0,0-2,3.2-2.2,5.5
			c0,0.4,0,1,0.1,1.7c0.2,2,0.5,4.8-1.2,6.8C26.6,18.1,24.5,18.8,21.6,18.8z M18.3,17.2c0.9,0.1,1.8,0.1,2.7,0.1c0.2,0,0.3,0,0.5,0
			c0,0,0,0,0,0c2.5,0,4.2-0.5,5.2-1.6c1.3-1.5,1-3.8,0.8-5.6c-0.1-0.8-0.2-1.5-0.1-2c0.1-1.5,0.8-3.1,1.4-4.4
			c-2.3,1-6.1,3.4-8.6,7.9c-0.5,1-1.2,1.8-1.9,2.5V17.2z"/>
	</g>
	<g>
		<path fill="#8F9BA8" d="M25.4,30.5c-1.3,0-2.5-0.6-3.9-1.9c-3.2-2.9-4.5-10.3-4.6-10.6c0-0.2,0-0.5,0.2-0.6
			c0.2-0.2,0.4-0.3,0.6-0.2c0.3,0,7.8,0.6,11,3.5c1.6,1.4,2.3,2.8,2.3,4.3c-0.1,1.5-1,2.7-1.7,3.5C28.3,29.3,27,30.5,25.4,30.5z
			 M18.5,18.7c0.5,2.1,1.7,6.8,3.9,8.8c1.1,1,2.1,1.5,2.9,1.5c0.9,0,1.7-0.5,2.7-1.6c0.9-1,1.3-1.8,1.3-2.5c0-1-0.5-2-1.8-3.1
			C25.4,19.7,20.6,19,18.5,18.7z"/>
	</g>
	<g>
		<path fill="#8F9BA8" d="M10.4,18.8c-3,0-5-0.7-6.3-2.1c-1.8-2-1.4-4.8-1.2-6.8C3,9.2,3.1,8.6,3,8.2C2.8,5.9,0.9,2.7,0.9,2.7
			c-0.2-0.3-0.1-0.6,0-0.8c0.2-0.2,0.5-0.4,0.8-0.3C2,1.6,9.1,3.6,13,10.9c0.5,0.9,1.1,1.7,1.9,2.3c0.2,0.1,0.3,0.4,0.3,0.6v4
			c0,0.4-0.3,0.7-0.7,0.7c-1.2,0.1-2.3,0.2-3.5,0.2C10.8,18.8,10.6,18.8,10.4,18.8z M3.1,3.7c0.6,1.2,1.3,2.9,1.4,4.4
			c0,0.5,0,1.2-0.1,2c-0.2,1.9-0.5,4.2,0.8,5.6c1,1.1,2.9,1.7,5.7,1.6c0.9,0,1.8-0.1,2.7-0.1v-3c-0.8-0.7-1.4-1.5-1.9-2.5
			C9.3,7,5.4,4.7,3.1,3.7z"/>
	</g>
	<g>
		<path fill="#8F9BA8" d="M6.6,30.5C6.6,30.5,6.6,30.5,6.6,30.5c-1.7,0-2.9-1.1-3.8-2.1c-1.5-1.7-3.2-4.4,0.5-7.7
			c3.2-2.9,10.7-3.5,11-3.5c0.2,0,0.5,0.1,0.6,0.2s0.2,0.4,0.2,0.6c-0.1,0.3-1.4,7.7-4.6,10.6C9.2,29.8,7.9,30.5,6.6,30.5z
			 M13.5,18.7c-2.1,0.3-6.9,1-9.1,3c-2.5,2.3-2.1,3.8-0.4,5.6c1,1.1,1.8,1.6,2.7,1.6h0c0.9,0,1.8-0.5,2.9-1.5
			C11.8,25.5,13,20.8,13.5,18.7z"/>
	</g>
	<g>
		<rect x="17.1" y="6.9" transform="matrix(0.8252 0.5648 -0.5648 0.8252 8.0347 -8.57)" fill="#8F9BA8" width="1.5" height="3.6"/>
	</g>
	<g>
		
			<rect x="12.3" y="7.9" transform="matrix(0.565 0.8251 -0.8251 0.565 13.2875 -7.8093)" fill="#8F9BA8" width="3.6" height="1.5"/>
	</g>
	<g>
		<path fill="#8F9BA8" d="M19.4,8.1c-1.1,0-1.9-0.9-1.9-1.9s0.9-1.9,1.9-1.9c1.1,0,1.9,0.9,1.9,1.9S20.5,8.1,19.4,8.1z M19.4,5.8
			C19.2,5.8,19,6,19,6.2c0,0.2,0.2,0.4,0.4,0.4c0.2,0,0.4-0.2,0.4-0.4C19.8,6,19.7,5.8,19.4,5.8z"/>
	</g>
	<g>
		<path fill="#8F9BA8" d="M12.6,8.1c-1.1,0-1.9-0.9-1.9-1.9s0.9-1.9,1.9-1.9c1.1,0,1.9,0.9,1.9,1.9S13.6,8.1,12.6,8.1z M12.6,5.8
			c-0.2,0-0.4,0.2-0.4,0.4c0,0.2,0.2,0.4,0.4,0.4c0.2,0,0.4-0.2,0.4-0.4C13,6,12.8,5.8,12.6,5.8z"/>
	</g>
	<g>
		<path fill="#FAC2C3" d="M17.6,16.6c0,4.2-0.7,5-1.6,5s-1.6-0.8-1.6-5c0-4.2,0.7-7.6,1.6-7.6S17.6,12.4,17.6,16.6z"/>
		<path fill="#DA8C8C" d="M16,22.3c-2.1,0-2.3-2.8-2.3-5.8c0-2,0.2-8.4,2.3-8.4c2.2,0,2.3,6.4,2.3,8.4C18.3,19.6,18.1,22.3,16,22.3z
			 M16,10c-0.4,0.9-0.8,3.1-0.8,6.6c0,2.7,0.3,4.3,0.8,4.3c0.5,0,0.8-1.6,0.8-4.3C16.8,13.1,16.4,10.9,16,10z"/>
	</g>
</g>
</svg>
