<?xml version="1.0" encoding="utf-8"?>
<!-- Generator: Adobe Illustrator 18.0.0, SVG Export Plug-In . SVG Version: 6.00 Build 0)  -->
<!DOCTYPE svg PUBLIC "-//W3C//DTD SVG 1.1//EN" "http://www.w3.org/Graphics/SVG/1.1/DTD/svg11.dtd">
<svg version="1.1" id="Layer_1" xmlns="http://www.w3.org/2000/svg" xmlns:xlink="http://www.w3.org/1999/xlink" x="0px" y="0px"
	 viewBox="0 0 32 32" enable-background="new 0 0 32 32" xml:space="preserve">
<g>
	<g>
		<path fill="#8F9BA8" d="M24.5,28.3h-6c-0.3,0-0.6-0.2-0.7-0.5c-0.1-0.3,0-0.6,0.2-0.8c0.6-0.6,0.9-1.3,0.9-2.1
			c0-1.6-1.3-2.9-2.9-2.9s-2.9,1.3-2.9,2.9c0,0.8,0.3,1.6,0.9,2.1c0.2,0.2,0.3,0.5,0.2,0.8c-0.1,0.3-0.4,0.5-0.7,0.5h-6
			c-0.4,0-0.8-0.3-0.8-0.8v-4.3c-0.5,0.2-1,0.3-1.6,0.3c-2.4,0-4.4-2-4.4-4.4s2-4.4,4.4-4.4c0.5,0,1.1,0.1,1.6,0.3v-4.3
			c0-0.4,0.3-0.8,0.8-0.8h4.3c-0.2-0.5-0.3-1-0.3-1.6c0-2.4,2-4.4,4.4-4.4c2.4,0,4.4,2,4.4,4.4c0,0.5-0.1,1.1-0.3,1.6h4.3
			c0.4,0,0.8,0.3,0.8,0.8v4.3c0.5-0.2,1-0.3,1.6-0.3c2.4,0,4.4,2,4.4,4.4s-2,4.4-4.4,4.4c-0.5,0-1.1-0.1-1.6-0.3v4.3
			C25.2,27.9,24.9,28.3,24.5,28.3z M20,26.8h3.8v-4.9c0-0.3,0.2-0.6,0.4-0.7c0.3-0.1,0.6-0.1,0.8,0.1c0.5,0.4,1.2,0.7,1.8,0.7
			c1.6,0,2.9-1.3,2.9-2.9c0-1.6-1.3-2.9-2.9-2.9c-0.7,0-1.3,0.2-1.8,0.7c-0.2,0.2-0.5,0.2-0.8,0.1c-0.3-0.1-0.4-0.4-0.4-0.7v-4.9
			h-4.9c-0.3,0-0.6-0.2-0.7-0.4c-0.1-0.3-0.1-0.6,0.1-0.8c0.4-0.5,0.7-1.2,0.7-1.8c0-1.6-1.3-2.9-2.9-2.9s-2.9,1.3-2.9,2.9
			c0,0.7,0.2,1.3,0.7,1.8c0.2,0.2,0.2,0.5,0.1,0.8c-0.1,0.3-0.4,0.4-0.7,0.4H8.3v4.9c0,0.3-0.2,0.6-0.4,0.7
			c-0.3,0.1-0.6,0.1-0.8-0.1c-0.5-0.4-1.2-0.7-1.8-0.7c-1.6,0-2.9,1.3-2.9,2.9c0,1.6,1.3,2.9,2.9,2.9c0.7,0,1.3-0.2,1.8-0.7
			c0.2-0.2,0.5-0.2,0.8-0.1c0.3,0.1,0.4,0.4,0.4,0.7v4.9H12c-0.3-0.6-0.4-1.3-0.4-1.9c0-2.4,2-4.4,4.4-4.4c2.4,0,4.4,2,4.4,4.4
			C20.4,25.5,20.3,26.2,20,26.8z"/>
	</g>
</g>
</svg>
