<?xml version="1.0" encoding="utf-8"?>
<!-- Generator: Adobe Illustrator 18.0.0, SVG Export Plug-In . SVG Version: 6.00 Build 0)  -->
<!DOCTYPE svg PUBLIC "-//W3C//DTD SVG 1.1//EN" "http://www.w3.org/Graphics/SVG/1.1/DTD/svg11.dtd">
<svg version="1.1" id="Layer_1" xmlns="http://www.w3.org/2000/svg" xmlns:xlink="http://www.w3.org/1999/xlink" x="0px" y="0px"
	 viewBox="0 0 32 32" enable-background="new 0 0 32 32" xml:space="preserve">
<g>
	<g>
		<path fill="#8F9BA8" d="M28.4,10.1h-7.8c-0.4,0-0.8-0.3-0.8-0.8V1.5c0-0.3,0.2-0.6,0.5-0.7c0.3-0.1,0.6-0.1,0.8,0.2l7.8,7.8
			c0.2,0.2,0.3,0.5,0.2,0.8C28.9,9.9,28.7,10.1,28.4,10.1z M21.3,8.6h5.3l-5.3-5.3V8.6z"/>
	</g>
	<g>
		<path fill="#8F9BA8" d="M28.4,31.3H7.3c-0.4,0-0.8-0.3-0.8-0.8v-4.2c0-0.4,0.3-0.8,0.8-0.8h15.4v-6.5H7.3c-0.4,0-0.8-0.3-0.8-0.8
			V1.5c0-0.4,0.3-0.8,0.8-0.8h13.3c0.4,0,0.8,0.3,0.8,0.8v7.1h7.1c0.4,0,0.8,0.3,0.8,0.8v21.2C29.1,30.9,28.8,31.3,28.4,31.3z
			 M8,29.8h19.6V10.1h-7.1c-0.4,0-0.8-0.3-0.8-0.8V2.3H8v15.3h15.4c0.4,0,0.8,0.3,0.8,0.8v8c0,0.4-0.3,0.8-0.8,0.8H8V29.8z"/>
	</g>
	<g>
		<path fill="#79C693" d="M23.4,27H3.6c-0.4,0-0.8-0.3-0.8-0.8v-8c0-0.4,0.3-0.8,0.8-0.8h19.8c0.4,0,0.8,0.3,0.8,0.8v8
			C24.2,26.7,23.8,27,23.4,27z M4.4,25.5h18.3v-6.5H4.4V25.5z"/>
	</g>
</g>
</svg>
