<?xml version="1.0" encoding="utf-8"?>
<!-- Generator: Adobe Illustrator 18.0.0, SVG Export Plug-In . SVG Version: 6.00 Build 0)  -->
<!DOCTYPE svg PUBLIC "-//W3C//DTD SVG 1.1//EN" "http://www.w3.org/Graphics/SVG/1.1/DTD/svg11.dtd">
<svg version="1.1" id="Layer_1" xmlns="http://www.w3.org/2000/svg" xmlns:xlink="http://www.w3.org/1999/xlink" x="0px" y="0px"
	 viewBox="0 0 32 32" enable-background="new 0 0 32 32" xml:space="preserve">
<g>
	<g>
		<path fill="#DA8C8C" d="M12.7,31.3H1.5c-0.4,0-0.8-0.3-0.8-0.8V19.3h1.5v10.5h10.5V31.3z"/>
	</g>
	<g>
		<path fill="#DA8C8C" d="M2.3,12.7H0.8V1.5c0-0.4,0.3-0.8,0.8-0.8h11.2v1.5H2.3V12.7z"/>
	</g>
	<g>
		<path fill="#DA8C8C" d="M30.5,31.3H19.3v-1.5h10.5V19.3h1.5v11.2C31.3,30.9,30.9,31.3,30.5,31.3z"/>
	</g>
	<g>
		<path fill="#DA8C8C" d="M31.3,12.7h-1.5V2.3H19.3V0.8h11.2c0.4,0,0.8,0.3,0.8,0.8V12.7z"/>
	</g>
	<g>
		<circle fill="#FAC2C3" cx="16" cy="16" r="9.3"/>
		<path fill="#DA8C8C" d="M16,26.1c-5.5,0-10.1-4.5-10.1-10.1c0-5.5,4.5-10.1,10.1-10.1c5.5,0,10.1,4.5,10.1,10.1
			C26.1,21.5,21.5,26.1,16,26.1z M16,7.4c-4.7,0-8.6,3.8-8.6,8.6s3.8,8.6,8.6,8.6s8.6-3.8,8.6-8.6S20.7,7.4,16,7.4z"/>
	</g>
	<g>
		<circle fill="#FFFFFF" cx="16" cy="16" r="4.6"/>
		<path fill="#8F9BA8" d="M16,21.4c-3,0-5.4-2.4-5.4-5.4s2.4-5.4,5.4-5.4s5.4,2.4,5.4,5.4S19,21.4,16,21.4z M16,12.1
			c-2.1,0-3.9,1.7-3.9,3.9c0,2.1,1.7,3.9,3.9,3.9c2.1,0,3.9-1.7,3.9-3.9C19.9,13.9,18.1,12.1,16,12.1z"/>
	</g>
</g>
</svg>
