<?xml version="1.0" encoding="utf-8"?>
<!-- Generator: Adobe Illustrator 18.0.0, SVG Export Plug-In . SVG Version: 6.00 Build 0)  -->
<!DOCTYPE svg PUBLIC "-//W3C//DTD SVG 1.1//EN" "http://www.w3.org/Graphics/SVG/1.1/DTD/svg11.dtd">
<svg version="1.1" id="Layer_1" xmlns="http://www.w3.org/2000/svg" xmlns:xlink="http://www.w3.org/1999/xlink" x="0px" y="0px"
	 viewBox="0 0 32 32" enable-background="new 0 0 32 32" xml:space="preserve">
<g>
	<g>
		<path fill="#74B1E0" d="M27.4,31.3H4.6c-2.1,0-3.8-1.7-3.8-3.9V11.6c0-0.4,0.3-0.8,0.8-0.8h29c0.4,0,0.8,0.3,0.8,0.8v15.8
			C31.3,29.5,29.5,31.3,27.4,31.3z M2.3,12.3v15.1c0,1.3,1,2.4,2.3,2.4h22.9c1.3,0,2.3-1.1,2.3-2.4V12.3H2.3z"/>
	</g>
	<g>
		<path fill="#CDE4F7" d="M30.5,8.7c0-1.7-1.4-3.1-3.1-3.1H15.3c-1.3,0-2.5-0.8-2.9-2.1l0,0C12,2.3,10.8,1.5,9.5,1.5h-5
			c-1.7,0-3.1,1.4-3.1,3.1v7h29V8.7z"/>
		<path fill="#74B1E0" d="M30.5,12.3h-29c-0.4,0-0.8-0.3-0.8-0.8v-7c0-2.1,1.7-3.9,3.8-3.9h5c1.6,0,3.1,1,3.6,2.6
			c0.3,0.9,1.2,1.6,2.2,1.6h12.1c2.1,0,3.8,1.7,3.8,3.9v2.8C31.3,12,30.9,12.3,30.5,12.3z M2.3,10.8h27.5V8.7c0-1.3-1-2.4-2.3-2.4
			H15.3c-1.6,0-3.1-1-3.6-2.6c-0.3-0.9-1.2-1.6-2.2-1.6h-5c-1.3,0-2.3,1.1-2.3,2.4V10.8z"/>
	</g>
</g>
</svg>
