<?xml version="1.0" encoding="utf-8"?>
<!-- Generator: Adobe Illustrator 18.0.0, SVG Export Plug-In . SVG Version: 6.00 Build 0)  -->
<!DOCTYPE svg PUBLIC "-//W3C//DTD SVG 1.1//EN" "http://www.w3.org/Graphics/SVG/1.1/DTD/svg11.dtd">
<svg version="1.1" id="Layer_1" xmlns="http://www.w3.org/2000/svg" xmlns:xlink="http://www.w3.org/1999/xlink" x="0px" y="0px"
	 viewBox="0 0 32 32" enable-background="new 0 0 32 32" xml:space="preserve">
<g>
	<g>
		<path fill="#DA8C8C" d="M16,27.2c-6.2,0-11.2-5-11.2-11.2c0-6.2,5-11.2,11.2-11.2s11.2,5,11.2,11.2C27.2,22.2,22.2,27.2,16,27.2z
			 M16,6.3c-5.4,0-9.7,4.4-9.7,9.7c0,5.4,4.4,9.7,9.7,9.7c5.4,0,9.7-4.4,9.7-9.7C25.7,10.6,21.4,6.3,16,6.3z"/>
	</g>
	<g>
		<path fill="#8F9BA8" d="M26.6,29.3H18c-0.4,0-0.8-0.3-0.8-0.8v-1.2h-2.4v1.2c0,0.4-0.3,0.8-0.8,0.8H5.4c-0.4,0-0.8-0.3-0.8-0.8
			v-1.2H3.5c-0.4,0-0.8-0.3-0.8-0.8V18c0-0.4,0.3-0.8,0.8-0.8h1.2v-2.4H3.5c-0.4,0-0.8-0.3-0.8-0.8V5.4C2.7,5,3,4.7,3.5,4.7h1.2V3.5
			C4.7,3,5,2.7,5.4,2.7H14c0.4,0,0.8,0.3,0.8,0.8v1.2h2.4V3.5c0-0.4,0.3-0.8,0.8-0.8h8.6c0.4,0,0.8,0.3,0.8,0.8v1.2h1.2
			c0.4,0,0.8,0.3,0.8,0.8V14c0,0.4-0.3,0.8-0.8,0.8h-1.2v2.4h1.2c0.4,0,0.8,0.3,0.8,0.8v8.6c0,0.4-0.3,0.8-0.8,0.8h-1.2v1.2
			C27.3,29,27,29.3,26.6,29.3z M18.7,27.8h7.1v-1.2c0-0.4,0.3-0.8,0.8-0.8h1.2v-7.1h-1.2c-0.4,0-0.8-0.3-0.8-0.8V14
			c0-0.4,0.3-0.8,0.8-0.8h1.2V6.2h-1.2c-0.4,0-0.8-0.3-0.8-0.8V4.2h-7.1v1.2c0,0.4-0.3,0.8-0.8,0.8H14c-0.4,0-0.8-0.3-0.8-0.8V4.2
			H6.2v1.2c0,0.4-0.3,0.8-0.8,0.8H4.2v7.1h1.2c0.4,0,0.8,0.3,0.8,0.8V18c0,0.4-0.3,0.8-0.8,0.8H4.2v7.1h1.2c0.4,0,0.8,0.3,0.8,0.8
			v1.2h7.1v-1.2c0-0.4,0.3-0.8,0.8-0.8H18c0.4,0,0.8,0.3,0.8,0.8V27.8z"/>
	</g>
	<g>
		<path fill="#8F9BA8" d="M5.4,6.2H1.5c-0.4,0-0.8-0.3-0.8-0.8V1.5c0-0.4,0.3-0.8,0.8-0.8h3.9c0.4,0,0.8,0.3,0.8,0.8v3.9
			C6.2,5.8,5.8,6.2,5.4,6.2z M2.3,4.7h2.4V2.3H2.3V4.7z"/>
	</g>
	<g>
		<path fill="#8F9BA8" d="M18,6.2H14c-0.4,0-0.8-0.3-0.8-0.8V1.5c0-0.4,0.3-0.8,0.8-0.8H18c0.4,0,0.8,0.3,0.8,0.8v3.9
			C18.7,5.8,18.4,6.2,18,6.2z M14.8,4.7h2.4V2.3h-2.4V4.7z"/>
	</g>
	<g>
		<path fill="#8F9BA8" d="M30.5,6.2h-3.9c-0.4,0-0.8-0.3-0.8-0.8V1.5c0-0.4,0.3-0.8,0.8-0.8h3.9c0.4,0,0.8,0.3,0.8,0.8v3.9
			C31.3,5.8,30.9,6.2,30.5,6.2z M27.3,4.7h2.4V2.3h-2.4V4.7z"/>
	</g>
	<g>
		<path fill="#8F9BA8" d="M5.4,31.3H1.5c-0.4,0-0.8-0.3-0.8-0.8v-3.9c0-0.4,0.3-0.8,0.8-0.8h3.9c0.4,0,0.8,0.3,0.8,0.8v3.9
			C6.2,30.9,5.8,31.3,5.4,31.3z M2.3,29.8h2.4v-2.4H2.3V29.8z"/>
	</g>
	<g>
		<path fill="#8F9BA8" d="M18,31.3H14c-0.4,0-0.8-0.3-0.8-0.8v-3.9c0-0.4,0.3-0.8,0.8-0.8H18c0.4,0,0.8,0.3,0.8,0.8v3.9
			C18.7,30.9,18.4,31.3,18,31.3z M14.8,29.8h2.4v-2.4h-2.4V29.8z"/>
	</g>
	<g>
		<path fill="#8F9BA8" d="M30.5,31.3h-3.9c-0.4,0-0.8-0.3-0.8-0.8v-3.9c0-0.4,0.3-0.8,0.8-0.8h3.9c0.4,0,0.8,0.3,0.8,0.8v3.9
			C31.3,30.9,30.9,31.3,30.5,31.3z M27.3,29.8h2.4v-2.4h-2.4V29.8z"/>
	</g>
	<g>
		<path fill="#8F9BA8" d="M5.4,18.7H1.5c-0.4,0-0.8-0.3-0.8-0.8V14c0-0.4,0.3-0.8,0.8-0.8h3.9c0.4,0,0.8,0.3,0.8,0.8V18
			C6.2,18.4,5.8,18.7,5.4,18.7z M2.3,17.2h2.4v-2.4H2.3V17.2z"/>
	</g>
	<g>
		<path fill="#8F9BA8" d="M30.5,18.7h-3.9c-0.4,0-0.8-0.3-0.8-0.8V14c0-0.4,0.3-0.8,0.8-0.8h3.9c0.4,0,0.8,0.3,0.8,0.8V18
			C31.3,18.4,30.9,18.7,30.5,18.7z M27.3,17.2h2.4v-2.4h-2.4V17.2z"/>
	</g>
	<g>
		<rect x="15.3" y="13.6" fill="#8F9BA8" width="1.5" height="4.8"/>
	</g>
	<g>
		<rect x="13.6" y="15.3" fill="#8F9BA8" width="4.8" height="1.5"/>
	</g>
</g>
</svg>
