<?xml version="1.0" encoding="utf-8"?>
<!-- Generator: Adobe Illustrator 18.0.0, SVG Export Plug-In . SVG Version: 6.00 Build 0)  -->
<!DOCTYPE svg PUBLIC "-//W3C//DTD SVG 1.1//EN" "http://www.w3.org/Graphics/SVG/1.1/DTD/svg11.dtd">
<svg version="1.1" id="Layer_1" xmlns="http://www.w3.org/2000/svg" xmlns:xlink="http://www.w3.org/1999/xlink" x="0px" y="0px"
	 viewBox="0 0 32 32" enable-background="new 0 0 32 32" xml:space="preserve">
<g>
	<g>
		<path fill="#8F9BA8" d="M31.1,31.3H0.9V0.8h30.3L31.1,31.3L31.1,31.3z M2.4,29.8h27.3V2.3H2.4V29.8z"/>
	</g>
	<g>
		<polygon fill="#79C693" points="13.6,27.6 4.5,27.6 4.5,18.4 6,18.4 6,26.1 13.6,26.1 		"/>
	</g>
	<g>
		<polygon fill="#79C693" points="27.5,13.6 26,13.6 26,5.9 18.4,5.9 18.4,4.4 27.5,4.4 		"/>
	</g>
	<g>
		<polygon fill="#79C693" points="6,13.6 4.5,13.6 4.5,4.4 13.6,4.4 13.6,5.9 6,5.9 		"/>
	</g>
	<g>
		<polygon fill="#79C693" points="27.5,27.6 18.4,27.6 18.4,26.1 26,26.1 26,18.4 27.5,18.4 		"/>
	</g>
</g>
</svg>
