<?xml version="1.0" encoding="utf-8"?>
<!-- Generator: Adobe Illustrator 18.0.0, SVG Export Plug-In . SVG Version: 6.00 Build 0)  -->
<!DOCTYPE svg PUBLIC "-//W3C//DTD SVG 1.1//EN" "http://www.w3.org/Graphics/SVG/1.1/DTD/svg11.dtd">
<svg version="1.1" id="Layer_1" xmlns="http://www.w3.org/2000/svg" xmlns:xlink="http://www.w3.org/1999/xlink" x="0px" y="0px"
	 viewBox="0 0 32 32" enable-background="new 0 0 32 32" xml:space="preserve">
<g>
	<g>
		<path fill="#8F9BA8" d="M31.3,24.9H0.8V7.1h30.5V24.9z M2.3,23.4h27.5V8.6H2.3V23.4z"/>
	</g>
	<g>
		<rect x="10" y="19.5" fill="#DA8C8C" width="11.9" height="1.5"/>
	</g>
	<g>
		<rect x="5.6" y="11.4" fill="#DA8C8C" width="1.5" height="1.5"/>
	</g>
	<g>
		<rect x="9.5" y="11.4" fill="#DA8C8C" width="1.5" height="1.5"/>
	</g>
	<g>
		<rect x="13.3" y="11.4" fill="#DA8C8C" width="1.5" height="1.5"/>
	</g>
	<g>
		<rect x="17.2" y="11.4" fill="#DA8C8C" width="1.5" height="1.5"/>
	</g>
	<g>
		<rect x="21" y="11.4" fill="#DA8C8C" width="1.5" height="1.5"/>
	</g>
	<g>
		<rect x="24.9" y="11.4" fill="#DA8C8C" width="1.5" height="1.5"/>
	</g>
	<g>
		<rect x="5.6" y="15.3" fill="#DA8C8C" width="1.5" height="1.5"/>
	</g>
	<g>
		<rect x="9.5" y="15.3" fill="#DA8C8C" width="1.5" height="1.5"/>
	</g>
	<g>
		<rect x="13.3" y="15.3" fill="#DA8C8C" width="1.5" height="1.5"/>
	</g>
	<g>
		<rect x="17.2" y="15.3" fill="#DA8C8C" width="1.5" height="1.5"/>
	</g>
	<g>
		<rect x="21" y="15.3" fill="#DA8C8C" width="1.5" height="1.5"/>
	</g>
	<g>
		<rect x="24.9" y="15.3" fill="#DA8C8C" width="1.5" height="1.5"/>
	</g>
</g>
</svg>
