<?xml version="1.0" encoding="utf-8"?>
<!-- Generator: Adobe Illustrator 18.0.0, SVG Export Plug-In . SVG Version: 6.00 Build 0)  -->
<!DOCTYPE svg PUBLIC "-//W3C//DTD SVG 1.1//EN" "http://www.w3.org/Graphics/SVG/1.1/DTD/svg11.dtd">
<svg version="1.1" id="Layer_1" xmlns="http://www.w3.org/2000/svg" xmlns:xlink="http://www.w3.org/1999/xlink" x="0px" y="0px"
	 viewBox="0 0 32 32" enable-background="new 0 0 32 32" xml:space="preserve">
<g>
	<g>
		<rect x="1.5" y="2.1" fill="#CDE4F7" width="29" height="6.9"/>
		<path fill="#74B1E0" d="M31.3,9.8H0.8V1.4h30.5V9.8z M2.3,8.3h27.5V2.9H2.3V8.3z"/>
	</g>
	<g>
		<path fill="#74B1E0" d="M31.3,30.6H0.8V8.3h30.5V30.6z M2.3,29.1h27.5V9.8H2.3V29.1z"/>
	</g>
	<g>
		<rect x="17.7" y="4.5" fill="#8F9BA8" width="1.5" height="2.1"/>
	</g>
	<g>
		<rect x="21.8" y="4.5" fill="#8F9BA8" width="1.5" height="2.1"/>
	</g>
	<g>
		<rect x="25.9" y="4.5" fill="#8F9BA8" width="1.5" height="2.1"/>
	</g>
	<g>
		<path fill="#8F9BA8" d="M11,26c-3.6,0-6.5-2.9-6.5-6.5s2.9-6.5,6.5-6.5c3.6,0,6.5,2.9,6.5,6.5S14.6,26,11,26z M11,14.4
			c-2.8,0-5,2.3-5,5s2.3,5,5,5s5-2.3,5-5S13.8,14.4,11,14.4z"/>
	</g>
	<g>
		<path fill="#DA8C8C" d="M9.7,22.6c-0.1,0-0.2,0-0.4-0.1C9.1,22.4,9,22.1,9,21.9V17c0-0.3,0.1-0.5,0.4-0.7c0.2-0.1,0.5-0.1,0.8,0
			l3.8,2.4c0.2,0.1,0.3,0.4,0.3,0.6s-0.1,0.5-0.3,0.6l-3.8,2.4C10,22.6,9.9,22.6,9.7,22.6z M10.5,18.4v2.1l1.6-1L10.5,18.4z"/>
	</g>
	<g>
		<rect x="19.8" y="12.1" fill="#8F9BA8" width="7" height="1.5"/>
	</g>
	<g>
		<rect x="19.8" y="16.5" fill="#8F9BA8" width="7" height="1.5"/>
	</g>
	<g>
		<rect x="19.8" y="20.9" fill="#8F9BA8" width="7" height="1.5"/>
	</g>
	<g>
		<rect x="19.8" y="25.3" fill="#8F9BA8" width="7" height="1.5"/>
	</g>
</g>
</svg>
