<?xml version="1.0" encoding="utf-8"?>
<!-- Generator: Adobe Illustrator 18.0.0, SVG Export Plug-In . SVG Version: 6.00 Build 0)  -->
<!DOCTYPE svg PUBLIC "-//W3C//DTD SVG 1.1//EN" "http://www.w3.org/Graphics/SVG/1.1/DTD/svg11.dtd">
<svg version="1.1" id="Layer_1" xmlns="http://www.w3.org/2000/svg" xmlns:xlink="http://www.w3.org/1999/xlink" x="0px" y="0px"
	 viewBox="0 0 32 32" enable-background="new 0 0 32 32" xml:space="preserve">
<g>
	<g>
		<path fill="#8F9BA8" d="M26,7.3c-0.3,0-0.6-0.2-0.7-0.5l0-0.1c-0.1-0.2,0-0.5,0.1-0.7c0.3-0.4,1-0.4,1.3,0
			c0.1,0.2,0.2,0.5,0.1,0.7l0,0.1C26.6,7.1,26.3,7.3,26,7.3z"/>
	</g>
	<g>
		<path fill="#8F9BA8" d="M6.6,7.3C6.3,7.3,6,7.1,5.9,6.8l0-0.1C5.8,6.5,5.8,6.2,5.9,6c0.3-0.4,1-0.4,1.3,0c0.1,0.2,0.2,0.5,0.1,0.7
			l0,0.1C7.2,7.1,6.9,7.3,6.6,7.3z"/>
	</g>
	<g>
		<polygon fill="#F9F8F2" points="26,6.6 24.4,10.8 27.4,19 30.5,19 		"/>
		<path fill="#B4A79C" d="M30.5,19.8h-3.1c-0.3,0-0.6-0.2-0.7-0.5l-3-8.2c-0.1-0.2-0.1-0.3,0-0.5l1.6-4.3C25.4,6,25.7,5.8,26,5.8
			l0,0c0.3,0,0.6,0.2,0.7,0.5l4.5,12.5c0.1,0.2,0,0.5-0.1,0.7C31,19.7,30.7,19.8,30.5,19.8z M27.9,18.3h1.5L26,8.8l-0.8,2.1
			L27.9,18.3z"/>
	</g>
	<g>
		<polygon fill="#F9F8F2" points="24.4,10.8 21.5,19 20.9,20.6 4.6,20.6 4.6,29.1 27.4,29.1 27.4,19 		"/>
		<path fill="#8F9BA8" d="M27.4,29.8H4.6c-0.4,0-0.8-0.3-0.8-0.8v-8.4c0-0.4,0.3-0.8,0.8-0.8h15.7l3.4-9.3c0.1-0.3,0.4-0.5,0.7-0.5
			c0.3,0,0.6,0.2,0.7,0.5l3,8.2c0,0.1,0,0.2,0,0.3v10C28.1,29.5,27.8,29.8,27.4,29.8z M5.4,28.3h21.3v-9.1L24.4,13l-2.8,7.8
			c-0.1,0.3-0.4,0.5-0.7,0.5H5.4V28.3z"/>
	</g>
	<g>
		<rect x="18.5" y="20.3" fill="#8F9BA8" width="1.5" height="8.7"/>
	</g>
	<g>
		<polygon fill="#F9F8F2" points="25.9,6.4 14.8,6.4 14.8,10.8 10.5,10.8 10.5,6.4 6.6,6.4 6.6,6.6 1.5,20.6 4.6,20.6 20.9,20.6 
			21.5,19 26,6.6 		"/>
		<path fill="#B4A79C" d="M20.9,21.4H1.5c-0.2,0-0.5-0.1-0.6-0.3c-0.1-0.2-0.2-0.5-0.1-0.7L5.9,6.2C6,5.9,6.3,5.7,6.6,5.7h3.8
			c0.4,0,0.8,0.3,0.8,0.8v3.7h2.8V6.4c0-0.4,0.3-0.8,0.8-0.8h11.1c0.3,0,0.6,0.2,0.7,0.5l0,0.1c0.1,0.2,0.1,0.3,0,0.5l-5.1,14
			C21.5,21.2,21.2,21.4,20.9,21.4z M2.6,19.9h17.8L25,7.2h-9.4v3.7c0,0.4-0.3,0.8-0.8,0.8h-4.3c-0.4,0-0.8-0.3-0.8-0.8V7.2H7.2
			L2.6,19.9z"/>
	</g>
	<g>
		<path fill="#8F9BA8" d="M14.8,11.6h-4.3c-0.4,0-0.8-0.3-0.8-0.8V2.9c0-0.4,0.3-0.8,0.8-0.8h4.3c0.4,0,0.8,0.3,0.8,0.8v7.9
			C15.6,11.3,15.2,11.6,14.8,11.6z M11.2,10.1h2.8V3.7h-2.8V10.1z"/>
	</g>
	<g>
		<rect x="9" y="2.2" fill="#8F9BA8" width="7.3" height="1.5"/>
	</g>
	<g>
		<rect x="8.4" y="23.3" fill="#79C693" width="1.5" height="1.5"/>
	</g>
	<g>
		<rect x="12.2" y="23.3" fill="#79C693" width="1.5" height="1.5"/>
	</g>
	<g>
		<path fill="#8F9BA8" d="M25.8,29.1h-1.5v-3.2c0-0.4-0.3-0.7-0.7-0.7c-0.4,0-0.7,0.3-0.7,0.7v3.2h-1.5v-3.2c0-1.2,1-2.2,2.2-2.2
			c1.2,0,2.2,1,2.2,2.2V29.1z"/>
	</g>
</g>
</svg>
