<?xml version="1.0" encoding="utf-8"?>
<!-- Generator: Adobe Illustrator 18.0.0, SVG Export Plug-In . SVG Version: 6.00 Build 0)  -->
<!DOCTYPE svg PUBLIC "-//W3C//DTD SVG 1.1//EN" "http://www.w3.org/Graphics/SVG/1.1/DTD/svg11.dtd">
<svg version="1.1" id="Layer_1" xmlns="http://www.w3.org/2000/svg" xmlns:xlink="http://www.w3.org/1999/xlink" x="0px" y="0px"
	 viewBox="0 0 32 32" enable-background="new 0 0 32 32" xml:space="preserve">
<g>
	<g>
		<path fill="#8F9BA8" d="M16,31.2L16,31.2c-0.1,0-0.3,0-0.4,0c-4.1-0.2-7.4-3.5-7.6-7.6c-0.2-2.9,1.2-5.6,3.6-7.1V5.2
			c0-2.4,2-4.4,4.4-4.4s4.4,2,4.4,4.4v11.4c2.2,1.5,3.6,4,3.6,6.7c0,2.1-0.8,4.2-2.3,5.7C20.2,30.4,18.1,31.2,16,31.2z M16,2.3
			c-1.6,0-2.9,1.3-2.9,2.9V17c0,0.3-0.1,0.5-0.4,0.6c-2.1,1.2-3.4,3.5-3.2,6c0.2,3.3,2.9,6,6.2,6.1c1.9,0.1,3.6-0.6,4.9-1.9
			c1.2-1.2,1.9-2.9,1.9-4.6c0-2.3-1.2-4.5-3.2-5.6c-0.2-0.1-0.4-0.4-0.4-0.6V5.2C18.9,3.6,17.6,2.3,16,2.3z"/>
	</g>
	<g>
		<circle fill="#CDE4F7" cx="16" cy="23.2" r="3"/>
		<path fill="#74B1E0" d="M16,27c-2.1,0-3.8-1.7-3.8-3.8s1.7-3.8,3.8-3.8c2.1,0,3.8,1.7,3.8,3.8S18.1,27,16,27z M16,20.9
			c-1.2,0-2.3,1-2.3,2.3c0,1.2,1,2.3,2.3,2.3c1.2,0,2.3-1,2.3-2.3C18.3,21.9,17.2,20.9,16,20.9z"/>
	</g>
	<g>
		<rect x="15.3" y="8.9" fill="#74B1E0" width="1.5" height="11.3"/>
	</g>
	<g>
		<rect x="18" y="5" fill="#8F9BA8" width="1.7" height="1.5"/>
	</g>
	<g>
		<rect x="18" y="8" fill="#8F9BA8" width="1.7" height="1.5"/>
	</g>
	<g>
		<rect x="18" y="11.1" fill="#8F9BA8" width="1.7" height="1.5"/>
	</g>
	<g>
		<rect x="18" y="14.1" fill="#8F9BA8" width="1.7" height="1.5"/>
	</g>
</g>
</svg>
