<?xml version="1.0" encoding="utf-8"?>
<!-- Generator: Adobe Illustrator 18.0.0, SVG Export Plug-In . SVG Version: 6.00 Build 0)  -->
<!DOCTYPE svg PUBLIC "-//W3C//DTD SVG 1.1//EN" "http://www.w3.org/Graphics/SVG/1.1/DTD/svg11.dtd">
<svg version="1.1" id="Layer_1" xmlns="http://www.w3.org/2000/svg" xmlns:xlink="http://www.w3.org/1999/xlink" x="0px" y="0px"
	 viewBox="0 0 32 32" enable-background="new 0 0 32 32" xml:space="preserve">
<g>
	<g>
		<path fill="#8F9BA8" d="M26.3,30.5h-21c-0.4,0-0.7-0.3-0.7-0.7L2.8,15.4c0-0.2,0-0.4,0.2-0.6c0.1-0.2,0.3-0.3,0.6-0.3H28
			c0.2,0,0.4,0.1,0.6,0.3c0.1,0.2,0.2,0.4,0.2,0.6l-1.7,14.4C27,30.2,26.7,30.5,26.3,30.5z M5.9,29h19.7l1.5-12.9H4.4L5.9,29z"/>
	</g>
	<g>
		
			<rect x="4.9" y="21.8" transform="matrix(7.292166e-002 0.9973 -0.9973 7.292166e-002 30.5013 12.2634)" fill="#79C693" width="7.6" height="1.5"/>
	</g>
	<g>
		
			<rect x="9.6" y="21.8" transform="matrix(2.436488e-002 0.9997 -0.9997 2.436488e-002 35.6205 8.577)" fill="#79C693" width="7.5" height="1.5"/>
	</g>
	<g>
		
			<rect x="17.4" y="18.8" transform="matrix(0.9997 2.472577e-002 -2.472577e-002 0.9997 0.5628 -0.4426)" fill="#79C693" width="1.5" height="7.5"/>
	</g>
	<g>
		
			<rect x="22.2" y="18.8" transform="matrix(0.9973 7.286243e-002 -7.286243e-002 0.9973 1.7032 -1.6115)" fill="#79C693" width="1.5" height="7.6"/>
	</g>
	<g>
		<path fill="#FAC2C3" d="M28,15.3H4c-1.4,0-2.5-1.1-2.5-2.5l0,0c0-1.4,1.1-2.5,2.5-2.5H28c1.4,0,2.5,1.1,2.5,2.5l0,0
			C30.5,14.2,29.4,15.3,28,15.3z"/>
		<path fill="#DA8C8C" d="M28,16.1H4c-1.8,0-3.2-1.4-3.2-3.2c0-1.8,1.4-3.2,3.2-3.2H28c1.8,0,3.2,1.4,3.2,3.2
			C31.3,14.6,29.8,16.1,28,16.1z M4,11.1c-1,0-1.7,0.8-1.7,1.7S3,14.6,4,14.6H28c1,0,1.7-0.8,1.7-1.7S29,11.1,28,11.1H4z"/>
	</g>
	<g>
		
			<rect x="16.6" y="6.6" transform="matrix(0.3593 0.9332 -0.9332 0.3593 21.2911 -16.3696)" fill="#8F9BA8" width="11.9" height="1.5"/>
	</g>
	<g>
		<rect x="8.7" y="1.4" transform="matrix(0.9332 0.3593 -0.3593 0.9332 3.26 -2.9002)" fill="#8F9BA8" width="1.5" height="11.9"/>
	</g>
</g>
</svg>
