<?xml version="1.0" encoding="utf-8"?>
<!-- Generator: Adobe Illustrator 18.0.0, SVG Export Plug-In . SVG Version: 6.00 Build 0)  -->
<!DOCTYPE svg PUBLIC "-//W3C//DTD SVG 1.1//EN" "http://www.w3.org/Graphics/SVG/1.1/DTD/svg11.dtd">
<svg version="1.1" id="Layer_1" xmlns="http://www.w3.org/2000/svg" xmlns:xlink="http://www.w3.org/1999/xlink" x="0px" y="0px"
	 viewBox="0 0 32 32" enable-background="new 0 0 32 32" xml:space="preserve">
<g>
	<g>
		<path fill="#8F9BA8" d="M23.2,9.4H8.8V3.6c0-1.4,1.1-2.5,2.5-2.5h9.4c1.4,0,2.5,1.1,2.5,2.5V9.4z M10.3,7.9h11.4V3.6
			c0-0.5-0.4-1-1-1h-9.4c-0.5,0-1,0.4-1,1V7.9z"/>
	</g>
	<g>
		<path fill="#CDE4F7" d="M29,28.4H3c-0.8,0-1.5-0.7-1.5-1.5V10.2c0-0.8,0.7-1.5,1.5-1.5H29c0.8,0,1.5,0.7,1.5,1.5v16.7
			C30.5,27.7,29.8,28.4,29,28.4z"/>
		<path fill="#74B1E0" d="M29,29.2H3c-1.3,0-2.3-1-2.3-2.3V10.2c0-1.3,1-2.3,2.3-2.3H29c1.3,0,2.3,1,2.3,2.3v16.7
			C31.3,28.1,30.2,29.2,29,29.2z M3,9.4c-0.4,0-0.8,0.3-0.8,0.8v16.7c0,0.4,0.3,0.8,0.8,0.8H29c0.4,0,0.8-0.3,0.8-0.8V10.2
			c0-0.4-0.3-0.8-0.8-0.8H3z"/>
	</g>
	<g>
		<rect x="24.2" y="28.4" fill="#74B1E0" width="1.5" height="2.5"/>
	</g>
	<g>
		<rect x="6.8" y="28.4" fill="#74B1E0" width="1.5" height="2.5"/>
	</g>
</g>
</svg>
