<?xml version="1.0" encoding="utf-8"?>
<!-- Generator: Adobe Illustrator 18.0.0, SVG Export Plug-In . SVG Version: 6.00 Build 0)  -->
<!DOCTYPE svg PUBLIC "-//W3C//DTD SVG 1.1//EN" "http://www.w3.org/Graphics/SVG/1.1/DTD/svg11.dtd">
<svg version="1.1" id="Layer_1" xmlns="http://www.w3.org/2000/svg" xmlns:xlink="http://www.w3.org/1999/xlink" x="0px" y="0px"
	 viewBox="0 0 32 32" enable-background="new 0 0 32 32" xml:space="preserve">
<g>
	<g>
		<path fill="#8F9BA8" d="M28.2,31.3H3.8c-1.7,0-3-1.4-3-3V3.8c0-1.7,1.4-3,3-3h24.4c1.7,0,3,1.4,3,3v24.4
			C31.3,29.9,29.9,31.3,28.2,31.3z M3.8,2.3c-0.8,0-1.5,0.7-1.5,1.5v24.4c0,0.8,0.7,1.5,1.5,1.5h24.4c0.8,0,1.5-0.7,1.5-1.5V3.8
			c0-0.8-0.7-1.5-1.5-1.5H3.8z"/>
	</g>
	<g>
		<polygon fill="#F2E8B9" points="13.1,10 13.1,22 21.8,16 		"/>
		<path fill="#B4A042" d="M12.4,23.4V8.6L23.1,16L12.4,23.4z M13.9,11.4v9.1l6.6-4.6L13.9,11.4z"/>
	</g>
</g>
</svg>
