<?xml version="1.0" encoding="utf-8"?>
<!-- Generator: Adobe Illustrator 18.0.0, SVG Export Plug-In . SVG Version: 6.00 Build 0)  -->
<!DOCTYPE svg PUBLIC "-//W3C//DTD SVG 1.1//EN" "http://www.w3.org/Graphics/SVG/1.1/DTD/svg11.dtd">
<svg version="1.1" id="Layer_1" xmlns="http://www.w3.org/2000/svg" xmlns:xlink="http://www.w3.org/1999/xlink" x="0px" y="0px"
	 viewBox="0 0 32 32" enable-background="new 0 0 32 32" xml:space="preserve">
<g>
	<g>
		<path fill="#8F9BA8" d="M16,31.3C7.6,31.3,0.8,24.4,0.8,16S7.6,0.8,16,0.8S31.3,7.6,31.3,16S24.4,31.3,16,31.3z M16,2.3
			C8.4,2.3,2.3,8.4,2.3,16c0,7.6,6.2,13.8,13.8,13.8S29.8,23.6,29.8,16C29.8,8.4,23.6,2.3,16,2.3z"/>
	</g>
	<g>
		<path fill="#8F9BA8" d="M16,12.6c-2.3,0-4.1-1.8-4.1-4.1c0-2.3,1.8-4.1,4.1-4.1s4.1,1.8,4.1,4.1C20.1,10.7,18.3,12.6,16,12.6z
			 M16,5.8c-1.4,0-2.6,1.2-2.6,2.6s1.2,2.6,2.6,2.6s2.6-1.2,2.6-2.6S17.4,5.8,16,5.8z"/>
	</g>
	<g>
		<path fill="#8F9BA8" d="M16,27.7c-2.3,0-4.1-1.8-4.1-4.1c0-2.3,1.8-4.1,4.1-4.1s4.1,1.8,4.1,4.1C20.1,25.8,18.3,27.7,16,27.7z
			 M16,20.9c-1.4,0-2.6,1.2-2.6,2.6s1.2,2.6,2.6,2.6s2.6-1.2,2.6-2.6S17.4,20.9,16,20.9z"/>
	</g>
	<g>
		<path fill="#8F9BA8" d="M8.5,20.1c-2.3,0-4.1-1.8-4.1-4.1c0-2.3,1.8-4.1,4.1-4.1c2.3,0,4.1,1.8,4.1,4.1
			C12.6,18.3,10.7,20.1,8.5,20.1z M8.5,13.4c-1.4,0-2.6,1.2-2.6,2.6s1.2,2.6,2.6,2.6s2.6-1.2,2.6-2.6S9.9,13.4,8.5,13.4z"/>
	</g>
	<g>
		<path fill="#8F9BA8" d="M23.5,20.1c-2.3,0-4.1-1.8-4.1-4.1c0-2.3,1.8-4.1,4.1-4.1s4.1,1.8,4.1,4.1C27.7,18.3,25.8,20.1,23.5,20.1z
			 M23.5,13.4c-1.4,0-2.6,1.2-2.6,2.6s1.2,2.6,2.6,2.6c1.4,0,2.6-1.2,2.6-2.6S25,13.4,23.5,13.4z"/>
	</g>
	<g>
		<path fill="#8F9BA8" d="M16,18.6c-1.4,0-2.6-1.1-2.6-2.6c0-1.4,1.1-2.6,2.6-2.6s2.6,1.1,2.6,2.6C18.6,17.4,17.4,18.6,16,18.6z
			 M16,14.9c-0.6,0-1.1,0.5-1.1,1.1s0.5,1.1,1.1,1.1s1.1-0.5,1.1-1.1S16.6,14.9,16,14.9z"/>
	</g>
</g>
</svg>
