<?xml version="1.0" encoding="utf-8"?>
<!-- Generator: Adobe Illustrator 18.0.0, SVG Export Plug-In . SVG Version: 6.00 Build 0)  -->
<!DOCTYPE svg PUBLIC "-//W3C//DTD SVG 1.1//EN" "http://www.w3.org/Graphics/SVG/1.1/DTD/svg11.dtd">
<svg version="1.1" id="Layer_1" xmlns="http://www.w3.org/2000/svg" xmlns:xlink="http://www.w3.org/1999/xlink" x="0px" y="0px"
	 viewBox="0 0 32 32" enable-background="new 0 0 32 32" xml:space="preserve">
<g>
	<g>
		<path fill="#8F9BA8" d="M28.4,27.6H3.6V0.8h24.9V27.6z M5.1,26.1h21.9V2.3H5.1V26.1z"/>
	</g>
	<g>
		<rect x="20.8" y="26.8" fill="#F0F7F7" width="4.1" height="3.7"/>
		<path fill="#8F9BA8" d="M25.7,31.3h-5.6v-5.2h5.6V31.3z M21.6,29.8h2.6v-2.2h-2.6V29.8z"/>
	</g>
	<g>
		<rect x="7" y="26.8" fill="#F0F7F7" width="4.1" height="3.7"/>
		<path fill="#8F9BA8" d="M11.9,31.3H6.3v-5.2h5.6V31.3z M7.8,29.8h2.6v-2.2H7.8V29.8z"/>
	</g>
	<g>
		<rect x="7.8" y="5.6" fill="#F2E8B9" width="16.4" height="8.3"/>
		<path fill="#B4A042" d="M25,14.6H7V4.8H25V14.6z M8.5,13.1h14.9V6.3H8.5V13.1z"/>
	</g>
	<g>
		<path fill="#8F9BA8" d="M22.2,23.1c-1.5,0-2.7-1.2-2.7-2.7c0-1.5,1.2-2.7,2.7-2.7c1.5,0,2.7,1.2,2.7,2.7
			C24.9,21.9,23.7,23.1,22.2,23.1z M22.2,19.1c-0.7,0-1.2,0.6-1.2,1.2c0,0.7,0.6,1.2,1.2,1.2c0.7,0,1.2-0.6,1.2-1.2
			C23.4,19.7,22.9,19.1,22.2,19.1z"/>
	</g>
	<g>
		<path fill="#8F9BA8" d="M9.8,23.1c-1.5,0-2.7-1.2-2.7-2.7c0-1.5,1.2-2.7,2.7-2.7c1.5,0,2.7,1.2,2.7,2.7
			C12.5,21.9,11.3,23.1,9.8,23.1z M9.8,19.1c-0.7,0-1.2,0.6-1.2,1.2c0,0.7,0.6,1.2,1.2,1.2c0.7,0,1.2-0.6,1.2-1.2
			C11,19.7,10.5,19.1,9.8,19.1z"/>
	</g>
</g>
</svg>
