<?xml version="1.0" encoding="utf-8"?>
<!-- Generator: Adobe Illustrator 18.0.0, SVG Export Plug-In . SVG Version: 6.00 Build 0)  -->
<!DOCTYPE svg PUBLIC "-//W3C//DTD SVG 1.1//EN" "http://www.w3.org/Graphics/SVG/1.1/DTD/svg11.dtd">
<svg version="1.1" id="Layer_1" xmlns="http://www.w3.org/2000/svg" xmlns:xlink="http://www.w3.org/1999/xlink" x="0px" y="0px"
	 viewBox="0 0 32 32" enable-background="new 0 0 32 32" xml:space="preserve">
<g>
	<g>
		<path fill="#8F9BA8" d="M30.8,31L7.6,20v-8.6L30.8,0.5V31z M9.1,19.1l20.1,9.5V2.9L9.1,12.4V19.1z"/>
	</g>
	<g>
		<path fill="#CDE4F7" d="M5.4,20.5l3-0.9v-7.6l-3-0.9C3.7,10.6,2,11.9,2,13.7v4.2C2,19.7,3.7,21,5.4,20.5z"/>
		<path fill="#74B1E0" d="M4.7,21.3L4.7,21.3c-1.9,0-3.5-1.6-3.5-3.5v-4.2c0-1.9,1.5-3.5,3.5-3.5c0.3,0,0.7,0,1,0.1l3.5,1v8.8
			l-3.5,1C5.3,21.3,5,21.3,4.7,21.3z M4.7,11.7c-1.1,0-2,0.9-2,2v4.2c0,1.3,1.3,2.3,2.5,1.9L7.6,19v-6.5l-2.4-0.7
			C5.1,11.7,4.9,11.7,4.7,11.7z"/>
	</g>
	<g>
		<path fill="#8F9BA8" d="M16.3,31.5c-3.9,0-7-3.1-7-7c0-1.4,0.4-2.8,1.3-4l0.4-0.5l12.3,5.8l-0.2,0.6
			C22.2,29.4,19.5,31.5,16.3,31.5z M11.5,21.9c-0.4,0.8-0.7,1.7-0.7,2.6c0,3,2.5,5.5,5.5,5.5c2.2,0,4.3-1.4,5.1-3.4L11.5,21.9z"/>
	</g>
</g>
</svg>
