<?xml version="1.0" encoding="utf-8"?>
<!-- Generator: Adobe Illustrator 18.0.0, SVG Export Plug-In . SVG Version: 6.00 Build 0)  -->
<!DOCTYPE svg PUBLIC "-//W3C//DTD SVG 1.1//EN" "http://www.w3.org/Graphics/SVG/1.1/DTD/svg11.dtd">
<svg version="1.1" id="Layer_1" xmlns="http://www.w3.org/2000/svg" xmlns:xlink="http://www.w3.org/1999/xlink" x="0px" y="0px"
	 viewBox="0 0 32 32" enable-background="new 0 0 32 32" xml:space="preserve">
<g>
	<g>
		<path fill="#8F9BA8" d="M16,24.4c-5,0-9-4.1-9-9v-4.6h1.5v4.6c0,4.2,3.4,7.5,7.5,7.5c4.2,0,7.5-3.4,7.5-7.5v-4.6H25v4.6
			C25,20.3,21,24.4,16,24.4z"/>
	</g>
	<g>
		<path fill="#FAC2C3" d="M16,21.1L16,21.1c-3.2,0-5.7-2.6-5.7-5.7V7.2c0-3.2,2.6-5.7,5.7-5.7l0,0c3.2,0,5.7,2.6,5.7,5.7v8.1
			C21.7,18.5,19.2,21.1,16,21.1z"/>
		<path fill="#DA8C8C" d="M16,21.8c-3.6,0-6.5-2.9-6.5-6.5V7.2c0-3.6,2.9-6.5,6.5-6.5c3.6,0,6.5,2.9,6.5,6.5v8.1
			C22.5,18.9,19.6,21.8,16,21.8z M16,2.3c-2.7,0-5,2.2-5,5v8.1c0,2.7,2.2,5,5,5c2.7,0,5-2.2,5-5V7.2C21,4.5,18.7,2.3,16,2.3z"/>
	</g>
	<g>
		<rect x="15.2" y="23.6" fill="#8F9BA8" width="1.5" height="6.9"/>
	</g>
	<g>
		<rect x="11.6" y="29.8" fill="#8F9BA8" width="8.9" height="1.5"/>
	</g>
	<g>
		<rect x="14" y="1.5" fill="#DA8C8C" width="1.5" height="3.8"/>
	</g>
	<g>
		<rect x="16.5" y="1.5" fill="#DA8C8C" width="1.5" height="3.8"/>
	</g>
	<g>
		<rect x="18.9" y="9.2" fill="#DA8C8C" width="2.8" height="1.5"/>
	</g>
	<g>
		<rect x="18.9" y="12.8" fill="#DA8C8C" width="2.8" height="1.5"/>
	</g>
	<g>
		<rect x="10.3" y="9.2" fill="#DA8C8C" width="2.8" height="1.5"/>
	</g>
	<g>
		<rect x="10.3" y="12.8" fill="#DA8C8C" width="2.8" height="1.5"/>
	</g>
</g>
</svg>
