<?xml version="1.0" encoding="utf-8"?>
<!-- Generator: Adobe Illustrator 18.0.0, SVG Export Plug-In . SVG Version: 6.00 Build 0)  -->
<!DOCTYPE svg PUBLIC "-//W3C//DTD SVG 1.1//EN" "http://www.w3.org/Graphics/SVG/1.1/DTD/svg11.dtd">
<svg version="1.1" id="Layer_1" xmlns="http://www.w3.org/2000/svg" xmlns:xlink="http://www.w3.org/1999/xlink" x="0px" y="0px"
	 viewBox="0 0 32 32" enable-background="new 0 0 32 32" xml:space="preserve">
<g>
	<g>
		<path fill="#8F9BA8" d="M28,29.6H4c-1.2,0-2.2-0.6-2.8-1.6c-0.6-1-0.6-2.2,0-3.3L13.2,4c0.6-1,1.6-1.6,2.8-1.6
			c1.2,0,2.2,0.6,2.8,1.6l12,20.6c0.6,1,0.6,2.2,0,3.3C30.2,29,29.2,29.6,28,29.6z M16,3.9c-0.6,0-1.2,0.3-1.5,0.9l-12,20.6
			c-0.3,0.6-0.3,1.2,0,1.8c0.3,0.6,0.9,0.9,1.5,0.9h24c0.6,0,1.2-0.3,1.5-0.9c0.3-0.6,0.3-1.2,0-1.8l-12-20.6
			C17.2,4.2,16.6,3.9,16,3.9z"/>
	</g>
	<g>
		<polygon fill="#74B1E0" points="15.8,24.4 14.4,23.8 16.9,18.1 10.8,18.9 14.7,11.2 16,11.8 13.4,17 19.3,16.4 		"/>
	</g>
	<g>
		<polygon fill="#74B1E0" points="15,25.1 12.7,19.9 14,19.3 15.7,23.1 19.6,21.4 20.2,22.8 		"/>
	</g>
</g>
</svg>
