<?xml version="1.0" encoding="utf-8"?>
<!-- Generator: Adobe Illustrator 18.0.0, SVG Export Plug-In . SVG Version: 6.00 Build 0)  -->
<!DOCTYPE svg PUBLIC "-//W3C//DTD SVG 1.1//EN" "http://www.w3.org/Graphics/SVG/1.1/DTD/svg11.dtd">
<svg version="1.1" id="Layer_1" xmlns="http://www.w3.org/2000/svg" xmlns:xlink="http://www.w3.org/1999/xlink" x="0px" y="0px"
	 viewBox="0 0 32 32" enable-background="new 0 0 32 32" xml:space="preserve">
<g>
	<g>
		<rect x="1.5" y="29.8" fill="#74B1E0" width="5" height="1.5"/>
	</g>
	<g>
		<rect x="1.5" y="24.9" fill="#74B1E0" width="5" height="1.5"/>
	</g>
	<g>
		<rect x="1.5" y="20.1" fill="#74B1E0" width="5" height="1.5"/>
	</g>
	<g>
		<rect x="9.5" y="29.8" fill="#DA8C8C" width="5" height="1.5"/>
	</g>
	<g>
		<rect x="9.5" y="24.9" fill="#DA8C8C" width="5" height="1.5"/>
	</g>
	<g>
		<rect x="9.5" y="20.1" fill="#DA8C8C" width="5" height="1.5"/>
	</g>
	<g>
		<rect x="9.5" y="15.3" fill="#DA8C8C" width="5" height="1.5"/>
	</g>
	<g>
		<rect x="9.5" y="10.4" fill="#DA8C8C" width="5" height="1.5"/>
	</g>
	<g>
		<rect x="9.5" y="5.6" fill="#DA8C8C" width="5" height="1.5"/>
	</g>
	<g>
		<rect x="9.5" y="0.8" fill="#DA8C8C" width="5" height="1.5"/>
	</g>
	<g>
		<rect x="17.5" y="29.8" fill="#74B1E0" width="5" height="1.5"/>
	</g>
	<g>
		<rect x="17.5" y="24.9" fill="#74B1E0" width="5" height="1.5"/>
	</g>
	<g>
		<rect x="17.5" y="20.1" fill="#74B1E0" width="5" height="1.5"/>
	</g>
	<g>
		<rect x="17.5" y="15.3" fill="#74B1E0" width="5" height="1.5"/>
	</g>
	<g>
		<rect x="17.5" y="10.4" fill="#74B1E0" width="5" height="1.5"/>
	</g>
	<g>
		<rect x="25.5" y="29.8" fill="#B4A042" width="5" height="1.5"/>
	</g>
	<g>
		<rect x="25.5" y="24.9" fill="#B4A042" width="5" height="1.5"/>
	</g>
	<g>
		<rect x="25.5" y="20.1" fill="#B4A042" width="5" height="1.5"/>
	</g>
</g>
</svg>
