<?xml version="1.0" encoding="utf-8"?>
<!-- Generator: Adobe Illustrator 18.0.0, SVG Export Plug-In . SVG Version: 6.00 Build 0)  -->
<!DOCTYPE svg PUBLIC "-//W3C//DTD SVG 1.1//EN" "http://www.w3.org/Graphics/SVG/1.1/DTD/svg11.dtd">
<svg version="1.1" id="Layer_1" xmlns="http://www.w3.org/2000/svg" xmlns:xlink="http://www.w3.org/1999/xlink" x="0px" y="0px"
	 viewBox="0 0 32 32" enable-background="new 0 0 32 32" xml:space="preserve">
<g>
	<g>
		<circle fill="#CDE4F7" cx="16" cy="16" r="14.5"/>
		<path fill="#74B1E0" d="M16,31.3C7.6,31.3,0.8,24.4,0.8,16S7.6,0.8,16,0.8c8.4,0,15.3,6.8,15.3,15.3S24.4,31.3,16,31.3z M16,2.3
			C8.4,2.3,2.3,8.4,2.3,16S8.4,29.8,16,29.8c7.6,0,13.8-6.2,13.8-13.8S23.6,2.3,16,2.3z"/>
	</g>
	<g>
		<circle fill="#FFFFFF" cx="16" cy="16" r="11.1"/>
		<path fill="#8F9BA8" d="M16,27.8C9.5,27.8,4.2,22.5,4.2,16S9.5,4.2,16,4.2c6.5,0,11.8,5.3,11.8,11.8S22.5,27.8,16,27.8z M16,5.7
			C10.3,5.7,5.7,10.3,5.7,16S10.3,26.3,16,26.3c5.7,0,10.3-4.6,10.3-10.3S21.7,5.7,16,5.7z"/>
	</g>
	<g>
		<rect x="15.3" y="13.2" fill="#8F9BA8" width="1.5" height="9.7"/>
	</g>
	<g>
		<path fill="#8F9BA8" d="M20,13.9h-8c-0.3,0-0.6-0.2-0.7-0.5c-0.1-0.3-0.1-0.6,0.2-0.8l4-4c0.3-0.3,0.8-0.3,1.1,0l4,4
			c0.2,0.2,0.3,0.5,0.2,0.8C20.6,13.7,20.3,13.9,20,13.9z M13.8,12.4h4.4L16,10.2L13.8,12.4z"/>
	</g>
</g>
</svg>
