<?xml version="1.0" encoding="utf-8"?>
<!-- Generator: Adobe Illustrator 18.0.0, SVG Export Plug-In . SVG Version: 6.00 Build 0)  -->
<!DOCTYPE svg PUBLIC "-//W3C//DTD SVG 1.1//EN" "http://www.w3.org/Graphics/SVG/1.1/DTD/svg11.dtd">
<svg version="1.1" id="Layer_1" xmlns="http://www.w3.org/2000/svg" xmlns:xlink="http://www.w3.org/1999/xlink" x="0px" y="0px"
	 viewBox="0 0 32 32" enable-background="new 0 0 32 32" xml:space="preserve">
<g>
	<g>
		<rect x="5.4" y="5.3" fill="#8F9BA8" width="20.9" height="1.5"/>
	</g>
	<g>
		<rect x="5.4" y="15.3" fill="#8F9BA8" width="20.9" height="1.5"/>
	</g>
	<g>
		<rect x="5.4" y="25.2" fill="#8F9BA8" width="20.9" height="1.5"/>
	</g>
	<g>
		<rect x="8.3" y="2.8" fill="#8F9BA8" width="1.5" height="6.5"/>
	</g>
	<g>
		<rect x="11.5" y="2.8" fill="#8F9BA8" width="1.5" height="6.5"/>
	</g>
	<g>
		<rect x="14.8" y="2.8" fill="#8F9BA8" width="1.5" height="6.5"/>
	</g>
	<g>
		<rect x="8.3" y="22.7" fill="#8F9BA8" width="1.5" height="6.5"/>
	</g>
	<g>
		<rect x="17.6" y="22.7" fill="#8F9BA8" width="1.5" height="6.5"/>
	</g>
	<g>
		<rect x="20.9" y="22.7" fill="#8F9BA8" width="1.5" height="6.5"/>
	</g>
	<g>
		<rect x="8.3" y="12.8" fill="#8F9BA8" width="1.5" height="6.5"/>
	</g>
	<g>
		<rect x="11.5" y="12.8" fill="#8F9BA8" width="1.5" height="6.5"/>
	</g>
	<g>
		<rect x="20.6" y="12.8" fill="#8F9BA8" width="1.5" height="6.5"/>
	</g>
	<g>
		<rect x="1.5" y="1.5" fill="#FAC2C3" width="3.9" height="29"/>
		<path fill="#DA8C8C" d="M6.1,31.3H0.8V0.8h5.4V31.3z M2.3,29.8h2.4V2.3H2.3V29.8z"/>
	</g>
	<g>
		<rect x="26.6" y="1.5" fill="#FAC2C3" width="3.9" height="29"/>
		<path fill="#DA8C8C" d="M31.3,31.3h-5.4V0.8h5.4V31.3z M27.4,29.8h2.4V2.3h-2.4V29.8z"/>
	</g>
</g>
</svg>
