<?xml version="1.0" encoding="utf-8"?>
<!-- Generator: Adobe Illustrator 18.0.0, SVG Export Plug-In . SVG Version: 6.00 Build 0)  -->
<!DOCTYPE svg PUBLIC "-//W3C//DTD SVG 1.1//EN" "http://www.w3.org/Graphics/SVG/1.1/DTD/svg11.dtd">
<svg version="1.1" id="Layer_1" xmlns="http://www.w3.org/2000/svg" xmlns:xlink="http://www.w3.org/1999/xlink" x="0px" y="0px"
	 viewBox="0 0 32 32" enable-background="new 0 0 32 32" xml:space="preserve">
<g>
	<g>
		<path fill="#B4A79C" d="M12.5,29.4c-0.1,0-0.3,0-0.4-0.1c-0.3-0.2-0.4-0.5-0.3-0.8l1.8-7.2l-12.1,0l0,0c-0.2,0-0.4-0.1-0.5-0.2
			c-0.1-0.1-0.2-0.3-0.2-0.5l0-9.1c0-0.4,0.3-0.8,0.8-0.8l12.1,0l-1.8-7.2c-0.1-0.3,0-0.6,0.3-0.8c0.3-0.2,0.6-0.2,0.9,0l18,12.6
			c0.2,0.1,0.3,0.4,0.3,0.6c0,0.2-0.1,0.5-0.3,0.6l-18,12.7C12.8,29.4,12.7,29.4,12.5,29.4z M14.5,19.8c0.2,0,0.4,0.1,0.6,0.3
			c0.1,0.2,0.2,0.4,0.1,0.6l-1.5,6.2L29.2,16L13.7,5.1l1.5,6.2c0.1,0.2,0,0.5-0.1,0.6c-0.1,0.2-0.4,0.3-0.6,0.3l-12.3,0l0,7.6
			L14.5,19.8L14.5,19.8z"/>
	</g>
</g>
</svg>
