<?xml version="1.0" encoding="utf-8"?>
<!-- Generator: Adobe Illustrator 18.0.0, SVG Export Plug-In . SVG Version: 6.00 Build 0)  -->
<!DOCTYPE svg PUBLIC "-//W3C//DTD SVG 1.1//EN" "http://www.w3.org/Graphics/SVG/1.1/DTD/svg11.dtd">
<svg version="1.1" id="Layer_1" xmlns="http://www.w3.org/2000/svg" xmlns:xlink="http://www.w3.org/1999/xlink" x="0px" y="0px"
	 viewBox="0 0 32 32" enable-background="new 0 0 32 32" xml:space="preserve">
<g>
	<g>
		<path fill="#74B1E0" d="M24.9,26.7H7.1c-3.5,0-6.4-2.9-6.4-6.4c0-3.2,2.2-5.7,5.3-6.3c-0.1-0.4-0.1-0.8-0.1-1.2
			c0-3.5,2.9-6.4,6.4-6.4c1.4,0,2.8,0.5,3.9,1.3c1.4-1.6,3.5-2.6,5.7-2.6c4.2,0,7.6,3.4,7.6,7.6c0,0.9-0.2,1.8-0.5,2.7
			c1.4,1.2,2.2,3,2.2,4.8C31.3,23.9,28.4,26.7,24.9,26.7z M12.3,8c-2.7,0-4.9,2.2-4.9,4.9c0,0.5,0.1,1.1,0.3,1.6
			c0.1,0.2,0,0.5-0.1,0.7c-0.1,0.2-0.4,0.3-0.6,0.3c-2.7,0.1-4.7,2.2-4.7,4.9c0,2.7,2.2,4.9,4.9,4.9h17.8c2.7,0,4.9-2.2,4.9-4.9
			c0-1.6-0.8-3.1-2.1-4c-0.3-0.2-0.4-0.6-0.2-0.9c0.4-0.8,0.6-1.7,0.6-2.6c0-3.4-2.7-6.1-6.1-6.1c-2,0-3.9,1-5,2.6
			c-0.1,0.2-0.3,0.3-0.6,0.3c-0.2,0-0.4-0.1-0.6-0.2C14.8,8.5,13.6,8,12.3,8z"/>
	</g>
	<g>
		<rect x="16" y="13" transform="matrix(0.7071 0.7071 -0.7071 0.7071 17.0897 -6.8178)" fill="#74B1E0" width="1.5" height="8.4"/>
	</g>
	<g>
		
			<rect x="12.6" y="16.5" transform="matrix(0.7071 0.7071 -0.7071 0.7071 17.0907 -6.8178)" fill="#74B1E0" width="8.4" height="1.5"/>
	</g>
</g>
</svg>
