<?xml version="1.0" encoding="utf-8"?>
<!-- Generator: Adobe Illustrator 18.0.0, SVG Export Plug-In . SVG Version: 6.00 Build 0)  -->
<!DOCTYPE svg PUBLIC "-//W3C//DTD SVG 1.1//EN" "http://www.w3.org/Graphics/SVG/1.1/DTD/svg11.dtd">
<svg version="1.1" id="Layer_1" xmlns="http://www.w3.org/2000/svg" xmlns:xlink="http://www.w3.org/1999/xlink" x="0px" y="0px"
	 viewBox="0 0 32 32" enable-background="new 0 0 32 32" xml:space="preserve">
<g>
	<path fill="#79C693" d="M30.5,31.3c0,0-0.1,0-0.1,0L3.9,26.6c-0.3-0.1-0.6-0.3-0.6-0.6c-0.1-0.3,0.1-0.6,0.3-0.8l7.9-4.8L1,9.9
		C0.7,9.6,0.7,9.1,1,8.8L8.8,1C9,0.8,9.2,0.8,9.4,0.8l0,0c0.2,0,0.4,0.1,0.5,0.2l10.6,10.6l4.8-7.9c0.2-0.3,0.5-0.4,0.8-0.3
		c0.3,0.1,0.5,0.3,0.6,0.6l4.6,26.5c0,0.2,0,0.5-0.2,0.7C30.9,31.2,30.7,31.3,30.5,31.3z M6.1,25.5l23.4,4.1L25.5,6.1l-4.2,7
		c-0.1,0.2-0.3,0.3-0.6,0.4c-0.2,0-0.5,0-0.6-0.2L9.4,2.6L2.6,9.4l10.7,10.7c0.2,0.2,0.2,0.4,0.2,0.6c0,0.2-0.2,0.4-0.4,0.6
		L6.1,25.5z"/>
</g>
</svg>
