<?xml version="1.0" encoding="utf-8"?>
<!-- Generator: Adobe Illustrator 18.0.0, SVG Export Plug-In . SVG Version: 6.00 Build 0)  -->
<!DOCTYPE svg PUBLIC "-//W3C//DTD SVG 1.1//EN" "http://www.w3.org/Graphics/SVG/1.1/DTD/svg11.dtd">
<svg version="1.1" id="Layer_1" xmlns="http://www.w3.org/2000/svg" xmlns:xlink="http://www.w3.org/1999/xlink" x="0px" y="0px"
	 viewBox="0 0 32 32" enable-background="new 0 0 32 32" xml:space="preserve">
<g>
	<path fill="#74B1E0" d="M1.5,31.2c-0.2,0-0.4-0.1-0.5-0.2c-0.2-0.2-0.3-0.4-0.2-0.7L5.4,3.9C5.4,3.6,5.7,3.3,6,3.3
		c0.3-0.1,0.6,0.1,0.8,0.3l4.8,7.9L22.1,1c0.3-0.3,0.8-0.3,1.1,0L31,8.8c0.3,0.3,0.3,0.8,0,1.1L20.5,20.5l7.9,4.8
		c0.3,0.2,0.4,0.5,0.3,0.8c-0.1,0.3-0.3,0.5-0.6,0.6L1.6,31.2C1.6,31.2,1.6,31.2,1.5,31.2z M6.5,6.1L2.4,29.6l23.4-4.1l-7-4.2
		c-0.2-0.1-0.3-0.3-0.4-0.6c0-0.2,0.1-0.5,0.2-0.6L29.4,9.4l-6.8-6.8L11.9,13.3c-0.2,0.2-0.4,0.2-0.6,0.2c-0.2,0-0.4-0.2-0.6-0.4
		L6.5,6.1z"/>
</g>
</svg>
