<?xml version="1.0" encoding="utf-8"?>
<!-- Generator: Adobe Illustrator 18.0.0, SVG Export Plug-In . SVG Version: 6.00 Build 0)  -->
<!DOCTYPE svg PUBLIC "-//W3C//DTD SVG 1.1//EN" "http://www.w3.org/Graphics/SVG/1.1/DTD/svg11.dtd">
<svg version="1.1" id="Layer_1" xmlns="http://www.w3.org/2000/svg" xmlns:xlink="http://www.w3.org/1999/xlink" x="0px" y="0px"
	 viewBox="0 0 32 32" enable-background="new 0 0 32 32" xml:space="preserve">
<g>
	<g>
		<path fill="#8F9BA8" d="M20.5,31.2L20.5,31.2l-9.1,0c-0.4,0-0.8-0.3-0.8-0.8l0-12.1l-7.2,1.8c-0.3,0.1-0.6,0-0.8-0.3
			c-0.2-0.3-0.2-0.6,0-0.9l12.6-18c0.3-0.4,0.9-0.4,1.2,0l12.7,18c0.2,0.3,0.2,0.6,0,0.9c-0.2,0.3-0.5,0.4-0.8,0.3l-7.2-1.8l0,12.1
			c0,0.2-0.1,0.4-0.2,0.5S20.7,31.2,20.5,31.2z M12.2,29.7l7.6,0l0-12.3c0-0.2,0.1-0.4,0.3-0.6c0.2-0.1,0.4-0.2,0.6-0.1l6.2,1.5
			L16,2.8L5.1,18.3l6.2-1.5c0.2-0.1,0.5,0,0.6,0.1c0.2,0.1,0.3,0.4,0.3,0.6L12.2,29.7z"/>
	</g>
</g>
</svg>
