<?xml version="1.0" encoding="utf-8"?>
<!-- Generator: Adobe Illustrator 18.0.0, SVG Export Plug-In . SVG Version: 6.00 Build 0)  -->
<!DOCTYPE svg PUBLIC "-//W3C//DTD SVG 1.1//EN" "http://www.w3.org/Graphics/SVG/1.1/DTD/svg11.dtd">
<svg version="1.1" id="Layer_1" xmlns="http://www.w3.org/2000/svg" xmlns:xlink="http://www.w3.org/1999/xlink" x="0px" y="0px"
	 viewBox="0 0 32 32" enable-background="new 0 0 32 32" xml:space="preserve">
<g>
	<g>
		<path fill="#8F9BA8" d="M22.9,26.7H9.1c-0.3,0-0.6-0.2-0.7-0.4c-0.6-1.2-0.8-2.4-0.8-3.6c0-2.7,2.5-5,5-6.6c-2.5-1.6-5-3.9-5-6.6
			c0-1.3,0.3-2.5,0.8-3.6c0.1-0.3,0.4-0.4,0.7-0.4h13.8c0.3,0,0.6,0.2,0.7,0.4c0.6,1.2,0.8,2.4,0.8,3.6c0,2.7-2.5,5-5,6.6
			c2.5,1.6,5,3.9,5,6.6c0,1.3-0.3,2.5-0.8,3.6C23.5,26.6,23.2,26.7,22.9,26.7z M9.6,25.2h12.9c0.3-0.8,0.5-1.7,0.5-2.6
			c0-2.5-3.3-4.8-5.3-6c-0.2-0.1-0.4-0.4-0.4-0.6c0-0.3,0.1-0.5,0.4-0.6c2-1.2,5.3-3.5,5.3-6c0-0.9-0.2-1.7-0.5-2.6H9.6
			C9.2,7.7,9.1,8.5,9.1,9.4c0,2.5,3.3,4.8,5.3,6c0.2,0.1,0.4,0.4,0.4,0.6c0,0.3-0.1,0.5-0.4,0.6c-2,1.2-5.3,3.5-5.3,6
			C9.1,23.5,9.2,24.4,9.6,25.2z"/>
	</g>
	<g>
		<path fill="#CDE4F7" d="M24.3,6H7.7C6.4,6,5.4,5,5.4,3.8l0,0c0-1.2,1-2.3,2.3-2.3h16.6c1.2,0,2.3,1,2.3,2.3l0,0
			C26.6,5,25.6,6,24.3,6z"/>
		<path fill="#74B1E0" d="M24.3,6.8H7.7c-1.7,0-3-1.4-3-3c0-1.7,1.4-3,3-3h16.6c1.7,0,3,1.3,3,3C27.3,5.4,26,6.8,24.3,6.8z M7.7,2.3
			c-0.8,0-1.5,0.7-1.5,1.5c0,0.8,0.7,1.5,1.5,1.5h16.6c0.8,0,1.5-0.7,1.5-1.5c0-0.8-0.7-1.5-1.5-1.5H7.7z"/>
	</g>
	<g>
		<path fill="#CDE4F7" d="M24.3,30.5H7.7c-1.2,0-2.3-1-2.3-2.3l0,0c0-1.2,1-2.3,2.3-2.3h16.6c1.2,0,2.3,1,2.3,2.3l0,0
			C26.6,29.5,25.6,30.5,24.3,30.5z"/>
		<path fill="#74B1E0" d="M24.3,31.3H7.7c-1.7,0-3-1.3-3-3c0-1.7,1.4-3,3-3h16.6c1.7,0,3,1.4,3,3C27.3,29.9,26,31.3,24.3,31.3z
			 M7.7,26.7c-0.8,0-1.5,0.7-1.5,1.5c0,0.8,0.7,1.5,1.5,1.5h16.6c0.8,0,1.5-0.7,1.5-1.5c0-0.8-0.7-1.5-1.5-1.5H7.7z"/>
	</g>
</g>
</svg>
