<?xml version="1.0" encoding="utf-8"?>
<!-- Generator: Adobe Illustrator 18.0.0, SVG Export Plug-In . SVG Version: 6.00 Build 0)  -->
<!DOCTYPE svg PUBLIC "-//W3C//DTD SVG 1.1//EN" "http://www.w3.org/Graphics/SVG/1.1/DTD/svg11.dtd">
<svg version="1.1" id="Layer_1" xmlns="http://www.w3.org/2000/svg" xmlns:xlink="http://www.w3.org/1999/xlink" x="0px" y="0px"
	 viewBox="0 0 32 32" enable-background="new 0 0 32 32" xml:space="preserve">
<g>
	<g>
		<polygon fill="#FAC2C3" points="16,1.5 27.1,17.3 20,15.5 20,26.9 12,26.9 12,15.5 4.9,17.3 		"/>
		<path fill="#DA8C8C" d="M20,27.7L20,27.7l-8,0c-0.4,0-0.8-0.3-0.8-0.8l0-10.5L5.1,18c-0.3,0.1-0.6,0-0.8-0.3
			c-0.2-0.3-0.2-0.6,0-0.9L15.4,1.1c0.3-0.4,0.9-0.4,1.2,0l11.1,15.8c0.2,0.3,0.2,0.6,0,0.9c-0.2,0.3-0.5,0.4-0.8,0.3l-6.2-1.5
			l0,10.5c0,0.2-0.1,0.4-0.2,0.5C20.4,27.6,20.2,27.7,20,27.7z M12.8,26.2l6.5,0l0-10.7c0-0.2,0.1-0.4,0.3-0.6
			c0.2-0.1,0.4-0.2,0.6-0.1l5.2,1.3L16,2.8L6.7,16.1l5.2-1.3c0.2-0.1,0.5,0,0.6,0.1c0.2,0.1,0.3,0.4,0.3,0.6L12.8,26.2z"/>
	</g>
	<g>
		<polygon fill="#8F9BA8" points="29,31.2 3,31.2 3,24.7 4.5,24.7 4.5,29.7 27.5,29.7 27.5,24.7 29,24.7 		"/>
	</g>
</g>
</svg>
