<?xml version="1.0" encoding="utf-8"?>
<!-- Generator: Adobe Illustrator 18.0.0, SVG Export Plug-In . SVG Version: 6.00 Build 0)  -->
<!DOCTYPE svg PUBLIC "-//W3C//DTD SVG 1.1//EN" "http://www.w3.org/Graphics/SVG/1.1/DTD/svg11.dtd">
<svg version="1.1" id="Layer_1" xmlns="http://www.w3.org/2000/svg" xmlns:xlink="http://www.w3.org/1999/xlink" x="0px" y="0px"
	 viewBox="0 0 32 32" enable-background="new 0 0 32 32" xml:space="preserve">
<g>
	<g>
		<polygon fill="#CDE4F7" points="16,26.9 4.9,11.2 12,12.9 12,1.5 20,1.5 20,12.9 27.1,11.2 		"/>
		<path fill="#74B1E0" d="M16,27.7c-0.2,0-0.5-0.1-0.6-0.3L4.3,11.6c-0.2-0.3-0.2-0.6,0-0.9c0.2-0.3,0.5-0.4,0.8-0.3l6.2,1.5l0-10.5
			c0-0.2,0.1-0.4,0.2-0.5c0.1-0.1,0.3-0.2,0.5-0.2l0,0l8,0c0.4,0,0.8,0.3,0.8,0.8l0,10.5l6.2-1.5c0.3-0.1,0.6,0,0.8,0.3
			c0.2,0.3,0.2,0.6,0,0.9L16.6,27.4C16.5,27.6,16.3,27.7,16,27.7z M6.7,12.4L16,25.6l9.3-13.3l-5.2,1.3c-0.2,0.1-0.5,0-0.6-0.1
			c-0.2-0.1-0.3-0.4-0.3-0.6l0-10.7l-6.5,0l0,10.7c0,0.2-0.1,0.4-0.3,0.6c-0.2,0.1-0.4,0.2-0.6,0.1L6.7,12.4z"/>
	</g>
	<g>
		<polygon fill="#8F9BA8" points="29,31.3 3,31.3 3,24.7 4.5,24.7 4.5,29.8 27.5,29.8 27.5,24.7 29,24.7 		"/>
	</g>
</g>
</svg>
