<?xml version="1.0" encoding="utf-8"?>
<!-- Generator: Adobe Illustrator 18.0.0, SVG Export Plug-In . SVG Version: 6.00 Build 0)  -->
<!DOCTYPE svg PUBLIC "-//W3C//DTD SVG 1.1//EN" "http://www.w3.org/Graphics/SVG/1.1/DTD/svg11.dtd">
<svg version="1.1" id="Layer_1" xmlns="http://www.w3.org/2000/svg" xmlns:xlink="http://www.w3.org/1999/xlink" x="0px" y="0px"
	 viewBox="0 0 32 32" enable-background="new 0 0 32 32" xml:space="preserve">
<g>
	<g>
		<path fill="#8F9BA8" d="M26.2,15.2H5.8c-1.1,0-2.1-0.5-2.8-1.4c-0.6-0.9-0.8-2-0.5-3C4.2,4.9,9.8,0.8,16,0.8
			c6.2,0,11.8,4.2,13.5,10.1c0.3,1,0.1,2.1-0.5,3C28.3,14.7,27.3,15.2,26.2,15.2z M16,2.3c-5.6,0-10.5,3.7-12.1,9
			c-0.2,0.6-0.1,1.2,0.3,1.7c0.4,0.5,1,0.8,1.6,0.8h20.4c0.6,0,1.2-0.3,1.6-0.8c0.4-0.5,0.5-1.1,0.3-1.7C26.5,6,21.6,2.3,16,2.3z"/>
	</g>
	<g>
		<path fill="#F0F7F7" d="M19.1,14.5h-6.2l-1,11.4c-0.2,2.4,1.7,4.6,4.2,4.6l0,0c2.5,0,4.4-2.1,4.2-4.6L19.1,14.5z"/>
		<path fill="#8F9BA8" d="M16,31.3c-1.4,0-2.7-0.6-3.6-1.6c-0.9-1-1.4-2.4-1.3-3.8l1-11.4c0-0.4,0.4-0.7,0.7-0.7h6.2
			c0.4,0,0.7,0.3,0.7,0.7l1,11.4c0.1,1.4-0.3,2.8-1.3,3.8C18.7,30.7,17.4,31.3,16,31.3z M13.6,15.2l-1,10.8c-0.1,1,0.2,1.9,0.9,2.6
			c0.7,0.7,1.6,1.1,2.5,1.1c1,0,1.9-0.4,2.5-1.1c0.7-0.7,1-1.7,0.9-2.6l-1-10.8H13.6z"/>
	</g>
	<g>
		<rect x="13.2" y="5.1" transform="matrix(0.7032 0.711 -0.711 0.7032 8.2666 -8.2085)" fill="#8F9BA8" width="1.5" height="1.4"/>
	</g>
	<g>
		<rect x="16.3" y="5.6" transform="matrix(0.7032 0.711 -0.711 0.7032 9.5561 -10.28)" fill="#8F9BA8" width="1.5" height="1.4"/>
	</g>
	<g>
		
			<rect x="14.2" y="7.8" transform="matrix(0.7032 0.711 -0.711 0.7032 10.4984 -8.1344)" fill="#8F9BA8" width="1.5" height="1.4"/>
	</g>
</g>
</svg>
