<?xml version="1.0" encoding="utf-8"?>
<!-- Generator: Adobe Illustrator 18.0.0, SVG Export Plug-In . SVG Version: 6.00 Build 0)  -->
<!DOCTYPE svg PUBLIC "-//W3C//DTD SVG 1.1//EN" "http://www.w3.org/Graphics/SVG/1.1/DTD/svg11.dtd">
<svg version="1.1" id="Layer_1" xmlns="http://www.w3.org/2000/svg" xmlns:xlink="http://www.w3.org/1999/xlink" x="0px" y="0px"
	 viewBox="0 0 32 32" enable-background="new 0 0 32 32" xml:space="preserve">
<g>
	<g>
		<path fill="#79C693" d="M17.5,23.8L17.5,23.8c-4,0-7.8-1.5-10.9-4.3l-4.6,3.2c-0.2,0.2-0.6,0.2-0.8,0c-0.3-0.2-0.4-0.4-0.3-0.7
			C2.2,12.3,1,10.4,0.9,10.4c-0.3-0.3-0.2-0.7,0-1c0.3-0.3,0.7-0.3,1-0.1l4.7,3.2c3.1-2.8,6.9-4.3,10.9-4.3c4.7,0,9.1,2.1,12.3,5.9
			l1.3,1.5c0.2,0.3,0.2,0.7,0,1L29.8,18C26.5,21.7,22.1,23.8,17.5,23.8z M6.7,17.8c0.2,0,0.4,0.1,0.5,0.2c2.9,2.8,6.5,4.3,10.3,4.3
			c4.2,0,8.2-1.9,11.2-5.3l0.8-1l-0.8-1c-3-3.4-7-5.3-11.2-5.3c-3.8,0-7.4,1.5-10.3,4.3c-0.3,0.3-0.7,0.3-1,0.1l-3.4-2.4
			C3,13.3,3,16,2.5,20.5l3.8-2.6C6.4,17.8,6.5,17.8,6.7,17.8z"/>
	</g>
	<g>
		
			<rect x="25.4" y="14.3" transform="matrix(0.7071 0.7071 -0.7071 0.7071 18.3155 -14.0504)" fill="#79C693" width="1.5" height="1.6"/>
	</g>
	<g>
		<path fill="#79C693" d="M26.4,20.3c-2.6-1-2.9-2.7-3-2.8l1.5-0.2l-0.7,0.1l0.7-0.1c0,0,0.2,1,2,1.7L26.4,20.3z"/>
	</g>
	<g>
		<path fill="#79C693" d="M16.3,19.3c-0.5,0-0.9-0.1-1.3-0.3c-0.4-0.2-0.6-0.6-0.6-1.1c0-0.3,0.1-0.6,0.4-1
			c-0.3-0.4-0.4-0.7-0.4-0.9c0-0.2,0.1-0.6,0.4-0.9c-0.3-0.4-0.4-0.7-0.4-1c0-0.4,0.2-0.8,0.6-1.1c0.8-0.5,2.5-0.3,3.6,0.3
			c0.5,0.2,0.9,0.5,1.2,0.8l-1.1,1c-0.1-0.1-0.3-0.3-0.8-0.5c-0.8-0.4-1.6-0.5-2-0.4c0.1,0.1,0.2,0.2,0.4,0.3
			c0.3,0.1,0.4,0.4,0.4,0.7c0,0.3-0.2,0.5-0.5,0.6c-0.2,0-0.3,0.1-0.3,0.1c0.1,0,0.2,0.1,0.3,0.1c0.3,0.1,0.5,0.3,0.5,0.6
			c0,0.3-0.1,0.6-0.4,0.7c-0.2,0.1-0.3,0.2-0.4,0.3c0.4,0.1,1.2,0,2-0.4c0.4-0.2,0.7-0.4,0.8-0.5l1.1,1c-0.3,0.3-0.7,0.6-1.2,0.8
			C18,19.1,17.1,19.3,16.3,19.3z"/>
	</g>
</g>
</svg>
