<?xml version="1.0" encoding="utf-8"?>
<!-- Generator: Adobe Illustrator 18.0.0, SVG Export Plug-In . SVG Version: 6.00 Build 0)  -->
<!DOCTYPE svg PUBLIC "-//W3C//DTD SVG 1.1//EN" "http://www.w3.org/Graphics/SVG/1.1/DTD/svg11.dtd">
<svg version="1.1" id="Layer_1" xmlns="http://www.w3.org/2000/svg" xmlns:xlink="http://www.w3.org/1999/xlink" x="0px" y="0px"
	 viewBox="0 0 32 32" enable-background="new 0 0 32 32" xml:space="preserve">
<g>
	<g>
		<path fill="#8F9BA8" d="M28.1,29.8H3.9c-1.7,0-3.1-1.4-3.1-3.1v-14c0-1.7,1.4-3.1,3.1-3.1h24.3c1.7,0,3.1,1.4,3.1,3.1v14
			C31.3,28.4,29.8,29.8,28.1,29.8z M3.9,11.1c-0.9,0-1.6,0.7-1.6,1.6v14c0,0.9,0.7,1.6,1.6,1.6h24.3c0.9,0,1.6-0.7,1.6-1.6v-14
			c0-0.9-0.7-1.6-1.6-1.6H3.9z"/>
	</g>
	<g>
		<path fill="#FAC2C3" d="M21.2,13.4H5.9c-0.7,0-1.3,0.6-1.3,1.3v9.9c0,0.7,0.6,1.3,1.3,1.3h15.3c0.7,0,1.3-0.6,1.3-1.3v-9.9
			C22.6,14,22,13.4,21.2,13.4z"/>
		<path fill="#DA8C8C" d="M21.2,26.7H5.9c-1.1,0-2.1-0.9-2.1-2.1v-9.9c0-1.1,0.9-2.1,2.1-2.1h15.3c1.1,0,2.1,0.9,2.1,2.1v9.9
			C23.3,25.8,22.4,26.7,21.2,26.7z M5.9,14.2c-0.3,0-0.6,0.3-0.6,0.6v9.9c0,0.3,0.3,0.6,0.6,0.6h15.3c0.3,0,0.6-0.3,0.6-0.6v-9.9
			c0-0.3-0.3-0.6-0.6-0.6H5.9z"/>
	</g>
	<g>
		<path fill="#8F9BA8" d="M16,11.1c-0.2,0-0.4-0.1-0.5-0.2L7.9,3.3L9,2.2l7,7l7-7l1.1,1.1l-7.6,7.6C16.4,11,16.2,11.1,16,11.1z"/>
	</g>
	<g>
		<rect x="24.5" y="13.5" fill="#8F9BA8" width="1.4" height="1.5"/>
	</g>
	<g>
		<rect x="27" y="13.5" fill="#8F9BA8" width="1.4" height="1.5"/>
	</g>
	<g>
		<rect x="24.5" y="16.2" fill="#8F9BA8" width="1.4" height="1.5"/>
	</g>
	<g>
		<rect x="27" y="16.2" fill="#8F9BA8" width="1.4" height="1.5"/>
	</g>
</g>
</svg>
