<?xml version="1.0" encoding="utf-8"?>
<!-- Generator: Adobe Illustrator 18.0.0, SVG Export Plug-In . SVG Version: 6.00 Build 0)  -->
<!DOCTYPE svg PUBLIC "-//W3C//DTD SVG 1.1//EN" "http://www.w3.org/Graphics/SVG/1.1/DTD/svg11.dtd">
<svg version="1.1" id="Layer_1" xmlns="http://www.w3.org/2000/svg" xmlns:xlink="http://www.w3.org/1999/xlink" x="0px" y="0px"
	 viewBox="0 0 32 32" enable-background="new 0 0 32 32" xml:space="preserve">
<pattern  x="-252" y="-294" width="24.1" height="24.1" patternUnits="userSpaceOnUse" id="New_Pattern_Swatch_2" viewBox="0 -24.1 24.1 24.1" overflow="visible">
	<g>
		<polygon fill="none" points="0,0 24.1,0 24.1,-24.1 0,-24.1 		"/>
		<polygon fill="#E0CB81" points="24.1,0 0,0 0,-24.1 24.1,-24.1 		"/>
	</g>
</pattern>
<g>
	<g>
		<path fill="#8F9BA8" d="M28.6,9.8h-7.5c-0.4,0-0.8-0.3-0.8-0.8V1.5c0-0.3,0.2-0.6,0.5-0.7c0.3-0.1,0.6-0.1,0.8,0.2l7.5,7.5
			c0.2,0.2,0.3,0.5,0.2,0.8C29.2,9.6,29,9.8,28.6,9.8z M21.9,8.3h4.9l-4.9-4.9V8.3z"/>
	</g>
	<g>
		<path fill="#8F9BA8" d="M28.6,31.3H7.2c-0.4,0-0.7-0.3-0.7-0.8v-5.2c0-0.3,0.1-0.5,0.4-0.7c0.2-0.1,0.5-0.1,0.8,0
			c1,0.6,2.2,0.9,3.4,0.9c3.8,0,6.9-3.1,6.9-6.9s-3.1-6.9-6.9-6.9c-1.2,0-2.4,0.3-3.4,0.9c-0.2,0.1-0.5,0.1-0.8,0
			c-0.2-0.1-0.4-0.4-0.4-0.7V1.5c0-0.4,0.3-0.8,0.7-0.8h14c0.4,0,0.8,0.3,0.8,0.8v6.8h6.8c0.4,0,0.8,0.3,0.8,0.8v21.5
			C29.4,30.9,29.1,31.3,28.6,31.3z M7.9,29.8h20v-20h-6.8c-0.4,0-0.8-0.3-0.8-0.8V2.3H7.9v8.7c1-0.4,2-0.6,3.1-0.6
			c4.6,0,8.4,3.8,8.4,8.4s-3.8,8.4-8.4,8.4c-1.1,0-2.1-0.2-3.1-0.6V29.8z"/>
	</g>
	<g>
		<g>
			<defs>
				<path id="SVGID_1_" d="M11,11.1c-1.4,0-2.7,0.4-3.8,1c-2.3,1.3-3.8,3.8-3.8,6.6c0,2.8,1.5,5.3,3.8,6.6c1.1,0.7,2.4,1,3.8,1
					c4.2,0,7.6-3.4,7.6-7.6S15.2,11.1,11,11.1z"/>
			</defs>
			<clipPath id="SVGID_2_">
				<use xlink:href="#SVGID_1_"  overflow="visible"/>
			</clipPath>
			<g clip-path="url(#SVGID_2_)">
				<rect x="1.5" y="2.2" fill="none" width="24.1" height="24.1"/>
				<rect x="1.5" y="2.2" fill="#FEE99B" width="24.1" height="24.1"/>
			</g>
		</g>
		<pattern  id="SVGID_4_" xlink:href="#New_Pattern_Swatch_2" patternTransform="matrix(1 0 0 1 -7.644 -16.1006)">
		</pattern>
		<path fill="url(#SVGID_4_)" d="M11,27.1c-1.5,0-2.9-0.4-4.2-1.1c-2.6-1.5-4.2-4.3-4.2-7.2c0-3,1.6-5.7,4.2-7.2
			c1.3-0.7,2.7-1.1,4.2-1.1c4.6,0,8.4,3.8,8.4,8.4S15.6,27.1,11,27.1z M11,11.8c-1.2,0-2.4,0.3-3.4,0.9c-2.1,1.2-3.4,3.5-3.4,5.9
			c0,2.4,1.3,4.7,3.4,5.9c1,0.6,2.2,0.9,3.4,0.9c3.8,0,6.9-3.1,6.9-6.9S14.8,11.8,11,11.8z"/>
	</g>
	<g>
		<g>
			<defs>
				<path id="SVGID_3_" d="M12.7,14.8c-0.7,0-1.3,0.3-1.8,0.8c-0.4-0.5-1.1-0.8-1.8-0.8c-1.3,0-2.4,1.1-2.4,2.4c0,3,4.1,6.5,4.1,6.5
					s4.1-3.5,4.1-6.5C15.1,15.9,14.1,14.8,12.7,14.8z"/>
			</defs>
			<clipPath id="SVGID_5_">
				<use xlink:href="#SVGID_3_"  overflow="visible"/>
			</clipPath>
			<g clip-path="url(#SVGID_5_)">
				<rect x="1.5" y="2.2" fill="none" width="24.1" height="24.1"/>
				<rect x="1.5" y="2.2" fill="#FEE99B" width="24.1" height="24.1"/>
			</g>
		</g>
		<pattern  id="SVGID_6_" xlink:href="#New_Pattern_Swatch_2" patternTransform="matrix(1 0 0 1 -7.644 -16.1006)">
		</pattern>
		<path fill="url(#SVGID_6_)" d="M11,24.4c-0.2,0-0.3-0.1-0.5-0.2c-0.2-0.2-4.4-3.7-4.4-7c0-1.7,1.4-3.1,3.1-3.1
			c0.6,0,1.2,0.2,1.8,0.5c0.5-0.4,1.1-0.5,1.8-0.5c1.7,0,3.1,1.4,3.1,3.1c0,3.3-4.2,6.9-4.4,7C11.3,24.3,11.1,24.4,11,24.4z
			 M9.2,15.5c-0.9,0-1.6,0.7-1.6,1.6c0,1.9,2.1,4.3,3.4,5.5c1.3-1.2,3.4-3.6,3.4-5.5c0-0.9-0.7-1.6-1.6-1.6c-0.5,0-0.9,0.2-1.2,0.5
			c-0.1,0.2-0.3,0.2-0.6,0.2l0,0c-0.2,0-0.4-0.1-0.6-0.2C10.1,15.7,9.7,15.5,9.2,15.5z"/>
	</g>
</g>
</svg>
