<?xml version="1.0" encoding="utf-8"?>
<!-- Generator: Adobe Illustrator 18.0.0, SVG Export Plug-In . SVG Version: 6.00 Build 0)  -->
<!DOCTYPE svg PUBLIC "-//W3C//DTD SVG 1.1//EN" "http://www.w3.org/Graphics/SVG/1.1/DTD/svg11.dtd">
<svg version="1.1" id="Layer_1" xmlns="http://www.w3.org/2000/svg" xmlns:xlink="http://www.w3.org/1999/xlink" x="0px" y="0px"
	 viewBox="0 0 32 32" enable-background="new 0 0 32 32" xml:space="preserve">
<g>
	<g>
		<path fill="#8F9BA8" d="M28.6,9.8h-7.5c-0.4,0-0.8-0.3-0.8-0.8V1.5c0-0.3,0.2-0.6,0.5-0.7c0.3-0.1,0.6-0.1,0.8,0.2l7.5,7.5
			c0.2,0.2,0.3,0.5,0.2,0.8C29.2,9.6,29,9.8,28.6,9.8z M21.9,8.3h4.9l-4.9-4.9V8.3z"/>
	</g>
	<g>
		<path fill="#8F9BA8" d="M28.6,31.3H7.2c-0.4,0-0.8-0.3-0.8-0.8v-5.2c0-0.3,0.1-0.5,0.4-0.7c0.2-0.1,0.5-0.1,0.8,0
			c1,0.6,2.2,0.9,3.4,0.9c3.8,0,6.9-3.1,6.9-6.9s-3.1-6.9-6.9-6.9c-1.2,0-2.4,0.3-3.4,0.9c-0.2,0.1-0.5,0.1-0.8,0
			c-0.2-0.1-0.4-0.4-0.4-0.7V1.5c0-0.4,0.3-0.8,0.8-0.8h14c0.4,0,0.8,0.3,0.8,0.8v6.8h6.8c0.4,0,0.8,0.3,0.8,0.8v21.5
			C29.4,30.9,29.1,31.3,28.6,31.3z M7.9,29.8h20v-20h-6.8c-0.4,0-0.8-0.3-0.8-0.8V2.3H7.9v8.7c1-0.4,2-0.6,3.1-0.6
			c4.6,0,8.4,3.8,8.4,8.4s-3.8,8.4-8.4,8.4c-1.1,0-2.1-0.2-3.1-0.6V29.8z"/>
	</g>
	<g>
		<path fill="#74B1E0" d="M11,27.1c-1.5,0-2.9-0.4-4.2-1.1c-2.6-1.5-4.2-4.3-4.2-7.2c0-3,1.6-5.7,4.2-7.2c1.3-0.7,2.7-1.1,4.2-1.1
			c4.6,0,8.4,3.8,8.4,8.4S15.6,27.1,11,27.1z M11,11.8c-1.2,0-2.4,0.3-3.4,0.9c-2.1,1.2-3.4,3.5-3.4,5.9c0,2.4,1.3,4.7,3.4,5.9
			c1,0.6,2.2,0.9,3.4,0.9c3.8,0,6.9-3.1,6.9-6.9S14.8,11.8,11,11.8z"/>
	</g>
	<g>
		<path fill="#74B1E0" d="M15.9,24.7c-0.1,0-0.2,0-0.3,0c-0.4-0.1-0.8-0.5-1-0.9c0-0.1-0.1-0.2-0.1-0.3c0-0.1-0.1-0.2-0.1-0.3
			c0,0-0.1,0-0.1,0c-0.8-0.2-1.6-0.5-2.1-1.1c-0.1-0.1-0.2-0.2-0.3-0.3c-0.2-0.2-0.3-0.3-0.5-0.4c-0.6-0.4-1.6,0-2.3,0.6
			c-0.4,0.3-0.7,0.8-1.1,1.2c-0.4,0.5-0.8,1-1.3,1.4l-1-1.1c0.4-0.4,0.7-0.8,1.1-1.2c0.4-0.5,0.8-0.9,1.2-1.4c1.1-1,2.8-1.6,4.1-0.7
			c0.3,0.2,0.5,0.4,0.7,0.6c0.1,0.1,0.2,0.2,0.2,0.2c0.4,0.4,0.9,0.6,1.4,0.7c0.2,0,0.5,0.1,0.7,0.3c0.4,0.3,0.6,0.7,0.7,1
			c0,0.1,0,0.1,0.1,0.2c0,0-0.2,0-0.3,0.1l0.9,1.2C16.4,24.6,16.1,24.7,15.9,24.7z"/>
	</g>
	<g>
		<path fill="#74B1E0" d="M17.5,21.3c-0.7-0.1-1.3-0.6-1.9-1.3c-0.8-1-1.1-2.1-0.9-3.3c0.2-1.3,1-2.3,2.1-2.8l0.6,1.4
			c-0.6,0.2-1.1,0.9-1.2,1.6c-0.1,0.7,0.1,1.5,0.6,2.1c0.3,0.4,0.7,0.6,1,0.7L17.5,21.3z"/>
	</g>
	<g>
		<path fill="#74B1E0" d="M6.3,20.3c-0.2,0-0.3,0-0.5,0C5.5,20.2,5.2,20,5,19.8c-0.4-0.4-0.4-0.8-0.4-1.1c0-0.5-0.1-1.1,0-1.6l0-0.2
			c0-0.4,0-0.7-0.1-1c-0.1-0.2-0.2-0.3-0.2-0.3l-0.2-1.5c0.9-0.1,1.6,0.6,1.8,1.3c0.2,0.5,0.2,1.1,0.2,1.5l0,0.2c0,0.5,0,0.9,0,1.4
			c0,0.1,0,0.1,0,0.1c0.5,0.1,1-0.1,1.3-0.5c0.2-0.3,0.3-0.7,0.4-1.1c0-0.2,0.1-0.4,0.1-0.6c0.3-1.1,1-1.9,1.9-2c0.1,0,0.1,0,0.2,0
			c0,0,0,0,0,0c0,0,0-0.1,0-0.1c0-0.1,0-0.3-0.1-0.5c0-0.1-0.1-0.3-0.1-0.4c-0.2-1,0.2-2.2,1-2.9l1,1.1c-0.4,0.4-0.6,1-0.5,1.5
			c0,0.1,0,0.2,0.1,0.3c0.1,0.2,0.1,0.5,0.1,0.8c0,0.7-0.4,1.4-1,1.6c-0.2,0.1-0.4,0.1-0.5,0.1l-0.1,0c-0.2,0-0.5,0.4-0.6,0.9
			c0,0.2-0.1,0.4-0.1,0.5C9.1,18,9,18.6,8.6,19.1C8.1,19.8,7.2,20.3,6.3,20.3z"/>
	</g>
</g>
</svg>
