<?xml version="1.0" encoding="utf-8"?>
<!-- Generator: Adobe Illustrator 18.0.0, SVG Export Plug-In . SVG Version: 6.00 Build 0)  -->
<!DOCTYPE svg PUBLIC "-//W3C//DTD SVG 1.1//EN" "http://www.w3.org/Graphics/SVG/1.1/DTD/svg11.dtd">
<svg version="1.1" id="Layer_1" xmlns="http://www.w3.org/2000/svg" xmlns:xlink="http://www.w3.org/1999/xlink" x="0px" y="0px"
	 viewBox="0 0 32 32" enable-background="new 0 0 32 32" xml:space="preserve">
<g>
	<g>
		<path fill="#8F9BA8" d="M28.6,9.8h-7.5c-0.4,0-0.8-0.3-0.8-0.8V1.5c0-0.3,0.2-0.6,0.5-0.7c0.3-0.1,0.6-0.1,0.8,0.2l7.5,7.5
			c0.2,0.2,0.3,0.5,0.2,0.8C29.2,9.6,29,9.8,28.6,9.8z M21.9,8.3h4.9l-4.9-4.9V8.3z"/>
	</g>
	<g>
		<path fill="#8F9BA8" d="M28.6,31.3H7.2c-0.4,0-0.8-0.3-0.8-0.8v-5.2c0-0.3,0.1-0.5,0.4-0.7c0.2-0.1,0.5-0.1,0.8,0
			c1,0.6,2.2,0.9,3.4,0.9c3.8,0,6.9-3.1,6.9-6.9s-3.1-6.9-6.9-6.9c-1.2,0-2.4,0.3-3.4,0.9c-0.2,0.1-0.5,0.1-0.8,0
			c-0.2-0.1-0.4-0.4-0.4-0.7V1.5c0-0.4,0.3-0.8,0.8-0.8h14c0.4,0,0.8,0.3,0.8,0.8v6.8h6.8c0.4,0,0.8,0.3,0.8,0.8v21.5
			C29.4,30.9,29.1,31.3,28.6,31.3z M7.9,29.8h20v-20h-6.8c-0.4,0-0.8-0.3-0.8-0.8V2.3H7.9v8.7c1-0.4,2-0.6,3.1-0.6
			c4.6,0,8.4,3.8,8.4,8.4s-3.8,8.4-8.4,8.4c-1.1,0-2.1-0.2-3.1-0.6V29.8z"/>
	</g>
	<g>
		<path fill="#DA8C8C" d="M11,27.1c-1.5,0-2.9-0.4-4.2-1.1c-2.6-1.5-4.2-4.3-4.2-7.2c0-3,1.6-5.7,4.2-7.2c1.3-0.7,2.7-1.1,4.2-1.1
			c4.6,0,8.4,3.8,8.4,8.4S15.6,27.1,11,27.1z M11,11.8c-1.2,0-2.4,0.3-3.4,0.9c-2.1,1.2-3.4,3.5-3.4,5.9c0,2.4,1.3,4.7,3.4,5.9
			c1,0.6,2.2,0.9,3.4,0.9c3.8,0,6.9-3.1,6.9-6.9S14.8,11.8,11,11.8z"/>
	</g>
	<g>
		<path fill="#DA8C8C" d="M8,23.5c-0.2,0-0.3,0-0.4-0.1c-0.2-0.2-0.3-0.5-0.3-0.7l0.5-2.9l-2.1-2.1c-0.2-0.2-0.3-0.5-0.2-0.8
			c0.1-0.3,0.3-0.5,0.6-0.5L9,16l1.3-2.6c0.1-0.3,0.4-0.4,0.7-0.4l0,0c0.3,0,0.5,0.2,0.7,0.4L13,16l2.9,0.4c0.3,0,0.5,0.2,0.6,0.5
			c0.1,0.3,0,0.6-0.2,0.8l-2.1,2.1l0.5,2.9c0,0.3-0.1,0.6-0.3,0.7c-0.2,0.2-0.5,0.2-0.8,0.1L11,22.1l-2.6,1.4
			C8.3,23.5,8.1,23.5,8,23.5z M11,20.5c0.1,0,0.2,0,0.3,0.1l1.6,0.8l-0.3-1.8c0-0.2,0-0.5,0.2-0.7l1.3-1.3l-1.8-0.3
			c-0.2,0-0.5-0.2-0.6-0.4L11,15.4L10.2,17c-0.1,0.2-0.3,0.4-0.6,0.4l-1.8,0.3l1.3,1.3c0.2,0.2,0.3,0.4,0.2,0.7L9,21.4l1.6-0.8
			C10.7,20.5,10.9,20.5,11,20.5z"/>
	</g>
</g>
</svg>
