<?xml version="1.0" encoding="utf-8"?>
<!-- Generator: Adobe Illustrator 18.0.0, SVG Export Plug-In . SVG Version: 6.00 Build 0)  -->
<!DOCTYPE svg PUBLIC "-//W3C//DTD SVG 1.1//EN" "http://www.w3.org/Graphics/SVG/1.1/DTD/svg11.dtd">
<svg version="1.1" id="Layer_1" xmlns="http://www.w3.org/2000/svg" xmlns:xlink="http://www.w3.org/1999/xlink" x="0px" y="0px"
	 viewBox="0 0 32 32" enable-background="new 0 0 32 32" xml:space="preserve">
<g>
	<g>
		<path fill="#8F9BA8" d="M28.4,14.8H3.6c-1.5,0-2.7-1.2-2.7-2.8V8.4c0-1.5,1.2-2.8,2.7-2.8h24.7c1.5,0,2.8,1.2,2.8,2.8v3.7
			C31.1,13.6,29.9,14.8,28.4,14.8z M3.6,7.2C3,7.2,2.4,7.7,2.4,8.4v3.7c0,0.7,0.6,1.3,1.2,1.3h24.7c0.7,0,1.3-0.6,1.3-1.3V8.4
			c0-0.7-0.6-1.3-1.3-1.3H3.6V7.2z"/>
	</g>
	<g>
		<rect x="4.1" y="3.1" transform="matrix(-0.598 -0.8015 0.8015 -0.598 8.501 12.0153)" fill="#8F9BA8" width="6.3" height="1.5"/>
	</g>
	<g>
		
			<rect x="24" y="0.7" transform="matrix(-0.8014 -0.5981 0.5981 -0.8014 42.3218 21.7387)" fill="#8F9BA8" width="1.5" height="6.3"/>
	</g>
	<g>
		<path fill="#8F9BA8" d="M23.4,31.1H8.6c-2.1,0-3.8-1.8-3.8-4.1L3.1,14.2L4.5,14l1.7,12.9c0,1.5,1.1,2.7,2.3,2.7h14.8
			c1.3,0,2.3-1.2,2.3-2.6l1.7-13l1.5,0.2l-1.7,12.9C27.2,29.3,25.5,31.1,23.4,31.1z"/>
	</g>
	<g>
		<rect x="11.4" y="18.1" fill="#8F9BA8" width="1.5" height="8.3"/>
	</g>
	<g>
		<rect x="19.1" y="18.1" fill="#8F9BA8" width="1.5" height="8.3"/>
	</g>
</g>
</svg>
