<?xml version="1.0" encoding="utf-8"?>
<!-- Generator: Adobe Illustrator 18.0.0, SVG Export Plug-In . SVG Version: 6.00 Build 0)  -->
<!DOCTYPE svg PUBLIC "-//W3C//DTD SVG 1.1//EN" "http://www.w3.org/Graphics/SVG/1.1/DTD/svg11.dtd">
<svg version="1.1" id="Layer_1" xmlns="http://www.w3.org/2000/svg" xmlns:xlink="http://www.w3.org/1999/xlink" x="0px" y="0px"
	 viewBox="0 0 32 32" enable-background="new 0 0 32 32" xml:space="preserve">
<g>
	<g>
		<path fill="#8F9BA8" d="M23.5,31.2h-15c-2.1,0-3.9-1.9-3.9-4.1L2.9,14l1.5-0.2l1.8,13.1c0,1.6,1.1,2.7,2.4,2.7h15
			c1.3,0,2.4-1.2,2.4-2.6l1.8-13.2l1.5,0.2l-1.8,13.1C27.4,29.3,25.6,31.2,23.5,31.2z"/>
	</g>
	<g>
		<path fill="#8F9BA8" d="M28.5,14.7H3.5c-1.5,0-2.8-1.2-2.8-2.8V8.2c0-1.5,1.2-2.8,2.8-2.8h25.1c1.5,0,2.8,1.2,2.8,2.8v3.8
			C31.3,13.5,30.1,14.7,28.5,14.7z M3.5,6.9c-0.7,0-1.3,0.6-1.3,1.3v3.8c0,0.7,0.6,1.3,1.3,1.3h25.1c0.7,0,1.3-0.6,1.3-1.3V8.2
			c0-0.7-0.6-1.3-1.3-1.3H3.5z"/>
	</g>
	<g>
		<rect x="9.2" y="-0.4" transform="matrix(0.5562 0.831 -0.831 0.5562 7.571 -6.5776)" fill="#8F9BA8" width="1.5" height="8.5"/>
	</g>
	<g>
		
			<rect x="17.8" y="3.1" transform="matrix(0.8309 0.5564 -0.5564 0.8309 5.8424 -11.6261)" fill="#8F9BA8" width="8.5" height="1.5"/>
	</g>
</g>
</svg>
