<?xml version="1.0" encoding="utf-8"?>
<!-- Generator: Adobe Illustrator 18.0.0, SVG Export Plug-In . SVG Version: 6.00 Build 0)  -->
<!DOCTYPE svg PUBLIC "-//W3C//DTD SVG 1.1//EN" "http://www.w3.org/Graphics/SVG/1.1/DTD/svg11.dtd">
<svg version="1.1" id="Layer_1" xmlns="http://www.w3.org/2000/svg" xmlns:xlink="http://www.w3.org/1999/xlink" x="0px" y="0px"
	 viewBox="0 0 32 32" enable-background="new 0 0 32 32" xml:space="preserve">
<g>
	<g>
		<path fill="#79C693" d="M24.8,30.3c-0.1,0-0.2,0-0.3-0.1L16,25.7l-8.5,4.5c-0.2,0.1-0.5,0.1-0.7-0.1c-0.2-0.2-0.3-0.4-0.3-0.7
			L8.1,20l-6.9-6.7C1,13.1,1,12.8,1,12.6c0.1-0.3,0.3-0.4,0.6-0.5l9.5-1.4l4.3-8.6c0.1-0.2,0.4-0.4,0.6-0.4l0,0
			c0.3,0,0.5,0.2,0.6,0.4l4.3,8.6l9.5,1.4c0.3,0,0.5,0.2,0.6,0.5c0.1,0.3,0,0.5-0.2,0.7L23.9,20l1.6,9.5c0,0.3-0.1,0.5-0.3,0.7
			C25.1,30.3,25,30.3,24.8,30.3z M3.2,13.3l6.1,6c0.2,0.2,0.2,0.4,0.2,0.6l-1.4,8.4l7.6-4c0.2-0.1,0.5-0.1,0.7,0l7.6,4l-1.4-8.4
			c0-0.2,0-0.5,0.2-0.6l6.1-6l-8.5-1.2c-0.2,0-0.4-0.2-0.5-0.4L16,4l-3.8,7.7c-0.1,0.2-0.3,0.4-0.5,0.4L3.2,13.3z"/>
	</g>
</g>
</svg>
