<?xml version="1.0" encoding="utf-8"?>
<!-- Generator: Adobe Illustrator 18.0.0, SVG Export Plug-In . SVG Version: 6.00 Build 0)  -->
<!DOCTYPE svg PUBLIC "-//W3C//DTD SVG 1.1//EN" "http://www.w3.org/Graphics/SVG/1.1/DTD/svg11.dtd">
<svg version="1.1" id="Layer_1" xmlns="http://www.w3.org/2000/svg" xmlns:xlink="http://www.w3.org/1999/xlink" x="0px" y="0px"
	 viewBox="0 0 32 32" enable-background="new 0 0 32 32" xml:space="preserve">
<g>
	<g>
		<path fill="#8F9BA8" d="M23.3,31.1H8.7c-2.1,0-3.8-1.8-3.8-4.1L3.1,14.3l1.5-0.2l1.7,12.9c0,1.5,1,2.7,2.3,2.7h14.7
			c1.3,0,2.3-1.2,2.3-2.6l1.7-13l1.5,0.2l-1.7,12.9C27.2,29.3,25.4,31.1,23.3,31.1z"/>
	</g>
	<g>
		<path fill="#8F9BA8" d="M28.3,14.7H3.7C2.2,14.7,1,13.5,1,12V8.4c0-1.5,1.2-2.8,2.8-2.8h24.5c1.5,0,2.8,1.2,2.8,2.8V12
			C31,13.5,29.8,14.7,28.3,14.7z M3.7,7.1C3,7.1,2.5,7.7,2.5,8.4V12c0,0.7,0.6,1.3,1.3,1.3h24.5c0.7,0,1.3-0.6,1.3-1.3V8.4
			c0-0.7-0.6-1.3-1.3-1.3H3.7z"/>
	</g>
	<g>
		
			<rect x="4.1" y="3.1" transform="matrix(0.5983 0.8013 -0.8013 0.5983 6.0201 -4.2832)" fill="#8F9BA8" width="6.3" height="1.5"/>
	</g>
	<g>
		
			<rect x="24" y="0.7" transform="matrix(0.8014 0.5981 -0.5981 0.8014 7.2188 -14.0168)" fill="#8F9BA8" width="1.5" height="6.3"/>
	</g>
</g>
</svg>
