<?xml version="1.0" encoding="utf-8"?>
<!-- Generator: Adobe Illustrator 18.0.0, SVG Export Plug-In . SVG Version: 6.00 Build 0)  -->
<!DOCTYPE svg PUBLIC "-//W3C//DTD SVG 1.1//EN" "http://www.w3.org/Graphics/SVG/1.1/DTD/svg11.dtd">
<svg version="1.1" id="Layer_1" xmlns="http://www.w3.org/2000/svg" xmlns:xlink="http://www.w3.org/1999/xlink" x="0px" y="0px"
	 viewBox="0 0 32 32" enable-background="new 0 0 32 32" xml:space="preserve">
<g>
	<g>
		<path fill="#74B1E0" d="M16,26.9c-3.2,0-5.9-2.6-5.9-5.9c0-3.2,2.6-5.9,5.9-5.9c3.2,0,5.8,2.6,5.8,5.9S19.2,26.9,16,26.9z
			 M16,16.7c-2.4,0-4.4,2-4.4,4.4s2,4.4,4.4,4.4s4.3-2,4.3-4.4C20.3,18.6,18.4,16.7,16,16.7z"/>
	</g>
	<g>
		
			<rect x="19.7" y="25.4" transform="matrix(-0.7543 -0.6566 0.6566 -0.7543 21.6374 60.3127)" fill="#74B1E0" width="4.8" height="1.5"/>
	</g>
	<g>
		<path fill="#8F9BA8" d="M31.3,31.3H0.8V0.8h30.5V31.3z M2.3,29.8h27.5V2.3H2.3V29.8z"/>
	</g>
	<g>
		<rect x="6.4" y="1.5" fill="#FAC2C3" width="19.2" height="10.4"/>
		<path fill="#DA8C8C" d="M25.6,12.7H6.4c-0.4,0-0.8-0.3-0.8-0.8V1.5c0-0.4,0.3-0.8,0.8-0.8h19.2c0.4,0,0.8,0.3,0.8,0.8v10.4
			C26.4,12.4,26,12.7,25.6,12.7z M7.1,11.2h17.7V2.3H7.1V11.2z"/>
	</g>
</g>
</svg>
