<?xml version="1.0" encoding="utf-8"?>
<!-- Generator: Adobe Illustrator 18.0.0, SVG Export Plug-In . SVG Version: 6.00 Build 0)  -->
<!DOCTYPE svg PUBLIC "-//W3C//DTD SVG 1.1//EN" "http://www.w3.org/Graphics/SVG/1.1/DTD/svg11.dtd">
<svg version="1.1" id="Layer_1" xmlns="http://www.w3.org/2000/svg" xmlns:xlink="http://www.w3.org/1999/xlink" x="0px" y="0px"
	 viewBox="0 0 32 32" enable-background="new 0 0 32 32" xml:space="preserve">
<g>
	<g>
		<path fill="#74B1E0" d="M16.7,13.5h-1.5v-3c-2-0.4-3.6-2.1-3.6-4.3c0-2.4,2-4.4,4.4-4.4c2.4,0,4.4,2,4.4,4.4h-1.5
			c0-1.6-1.3-2.9-2.9-2.9c-1.6,0-2.9,1.3-2.9,2.9c0,1.6,1.3,2.9,2.9,2.9c0.4,0,0.8,0.3,0.8,0.8V13.5z"/>
	</g>
	<g>
		<path fill="#74B1E0" d="M26.4,30.1H5.6c-2.1,0-3.9-1.2-4.6-3c-0.6-1.7-0.1-3.5,1.4-4.7l10.4-8.5c1.8-1.4,4.6-1.4,6.4,0l10.4,8.5
			c1.4,1.2,2,3,1.4,4.7C30.3,29,28.6,30.1,26.4,30.1z M16,14.3c-0.8,0-1.6,0.3-2.3,0.8L3.3,23.6c-1,0.8-1.3,1.9-0.9,3
			c0.4,1.2,1.7,2,3.2,2h20.9c1.5,0,2.7-0.8,3.2-2c0.4-1.1,0.1-2.2-0.9-3l-10.4-8.5C17.6,14.6,16.8,14.3,16,14.3z"/>
	</g>
</g>
</svg>
