<?xml version="1.0" encoding="utf-8"?>
<!-- Generator: Adobe Illustrator 18.0.0, SVG Export Plug-In . SVG Version: 6.00 Build 0)  -->
<!DOCTYPE svg PUBLIC "-//W3C//DTD SVG 1.1//EN" "http://www.w3.org/Graphics/SVG/1.1/DTD/svg11.dtd">
<svg version="1.1" id="Layer_1" xmlns="http://www.w3.org/2000/svg" xmlns:xlink="http://www.w3.org/1999/xlink" x="0px" y="0px"
	 viewBox="0 0 32 32" enable-background="new 0 0 32 32" xml:space="preserve">
<g>
	<g>
		<path fill="#8F9BA8" d="M26.8,31.3H16.2V11.6h-0.4v19.6H5.2V0.8h21.7V31.3z M17.7,29.8h7.7V2.3H6.7v27.5h7.7V10.1h3.4V29.8z"/>
	</g>
	<g>
		<rect x="15.3" y="1.5" fill="#8F9BA8" width="1.5" height="7"/>
	</g>
	<g>
		<path fill="#8F9BA8" d="M25.8,9.1c-0.2-0.1-5.6-2.5-7.4-7.4l1.4-0.5c1.6,4.3,6.5,6.5,6.6,6.5L25.8,9.1z"/>
	</g>
	<g>
		<path fill="#8F9BA8" d="M6.2,9.1L5.6,7.8c0,0,5-2.3,6.6-6.5l1.4,0.5C11.8,6.6,6.4,9,6.2,9.1z"/>
	</g>
	<g>
		<rect x="16.9" y="24.6" fill="#8F9BA8" width="9.2" height="1.5"/>
	</g>
	<g>
		<rect x="5.9" y="24.6" fill="#8F9BA8" width="9.2" height="1.5"/>
	</g>
</g>
</svg>
