<?xml version="1.0" encoding="utf-8"?>
<!-- Generator: Adobe Illustrator 18.0.0, SVG Export Plug-In . SVG Version: 6.00 Build 0)  -->
<!DOCTYPE svg PUBLIC "-//W3C//DTD SVG 1.1//EN" "http://www.w3.org/Graphics/SVG/1.1/DTD/svg11.dtd">
<svg version="1.1" id="Layer_1" xmlns="http://www.w3.org/2000/svg" xmlns:xlink="http://www.w3.org/1999/xlink" x="0px" y="0px"
	 viewBox="0 0 32 32" enable-background="new 0 0 32 32" xml:space="preserve">
<g>
	<g>
		<path fill="#B4A79C" d="M16,31.3C7.6,31.3,0.7,24.4,0.7,16C0.7,7.6,7.6,0.7,16,0.7c4.6,0,8.9,2,11.8,5.6l-1.2,1
			c-2.6-3.2-6.5-5-10.6-5C8.4,2.2,2.2,8.4,2.2,16S8.4,29.8,16,29.8c7.6,0,13.8-6.2,13.8-13.8h1.5C31.3,24.4,24.4,31.3,16,31.3z"/>
	</g>
	<g>
		<path fill="#B4A79C" d="M28.2,8.7c0,0-0.1,0-0.1,0l-4.6-0.7l0.2-1.5l3.7,0.6l0.2-3.7l1.5,0.1L28.9,8c0,0.2-0.1,0.4-0.3,0.5
			C28.5,8.6,28.3,8.7,28.2,8.7z"/>
	</g>
</g>
</svg>
