<?xml version="1.0" encoding="utf-8"?>
<!-- Generator: Adobe Illustrator 18.0.0, SVG Export Plug-In . SVG Version: 6.00 Build 0)  -->
<!DOCTYPE svg PUBLIC "-//W3C//DTD SVG 1.1//EN" "http://www.w3.org/Graphics/SVG/1.1/DTD/svg11.dtd">
<svg version="1.1" id="Layer_1" xmlns="http://www.w3.org/2000/svg" xmlns:xlink="http://www.w3.org/1999/xlink" x="0px" y="0px"
	 viewBox="0 0 32 32" enable-background="new 0 0 32 32" xml:space="preserve">
<g>
	<g>
		<path fill="#8F9BA8" d="M18.1,31.3h-4.3l-0.1-0.5c-1-3.6-4.2-4.1-6-4.1c-0.4,0-0.6,0-0.7,0l-0.7,0.1L6.3,26
			c-0.5-3.2,0.3-5.4,0.9-6.6l0.2-0.4h17.1l0.2,0.4c0.7,1.2,1.4,3.3,0.9,6.6l-0.1,0.7l-0.7-0.1c0,0-0.3,0-0.7,0c-1.8,0-4.9,0.5-6,4.1
			L18.1,31.3z M14.9,29.8h2.1c1.5-4.3,5.7-4.7,7.3-4.6c0.2-2.2-0.2-3.7-0.7-4.7H8.3c-0.5,1-0.9,2.5-0.7,4.7
			C9.3,25.1,13.4,25.5,14.9,29.8z"/>
	</g>
	<g>
		<path fill="#FAC2C3" d="M14.9,10.9c0,1.9-1.9,3.4-4.3,3.4c-2.4,0-4.3-1.5-4.3-3.4c0-1.9,1.9-3.4,4.3-3.4
			C12.9,7.4,14.9,9,14.9,10.9z"/>
		<path fill="#DA8C8C" d="M10.6,15c-2.8,0-5-1.9-5-4.1c0-2.3,2.3-4.1,5-4.1c2.8,0,5,1.9,5,4.1C15.6,13.1,13.3,15,10.6,15z M10.6,8.2
			c-2,0-3.6,1.2-3.6,2.7c0,1.5,1.6,2.7,3.6,2.7c2,0,3.6-1.2,3.6-2.7C14.2,9.4,12.5,8.2,10.6,8.2z"/>
	</g>
	<g>
		<path fill="#FAC2C3" d="M25.7,10.9c0,1.9-1.9,3.4-4.3,3.4c-2.4,0-4.3-1.5-4.3-3.4c0-1.9,1.9-3.4,4.3-3.4
			C23.8,7.4,25.7,9,25.7,10.9z"/>
		<path fill="#DA8C8C" d="M21.4,15c-2.8,0-5-1.9-5-4.1c0-2.3,2.3-4.1,5-4.1c2.8,0,5,1.9,5,4.1C26.5,13.1,24.2,15,21.4,15z M21.4,8.2
			c-2,0-3.6,1.2-3.6,2.7c0,1.5,1.6,2.7,3.6,2.7c2,0,3.6-1.2,3.6-2.7C25,9.4,23.4,8.2,21.4,8.2z"/>
	</g>
	<g>
		<line fill="#FAC2C3" x1="10.6" y1="14.3" x2="21.4" y2="14.3"/>
		<rect x="10.6" y="13.5" fill="#DA8C8C" width="10.8" height="1.4"/>
	</g>
	<g>
		<line fill="#FAC2C3" x1="10.6" y1="7" x2="10.6" y2="0.8"/>
		<rect x="9.9" y="0.8" fill="#DA8C8C" width="1.4" height="6.2"/>
	</g>
	<g>
		<line fill="#FAC2C3" x1="21.4" y1="7" x2="21.4" y2="0.8"/>
		<rect x="20.7" y="0.8" fill="#DA8C8C" width="1.4" height="6.2"/>
	</g>
</g>
</svg>
