<?xml version="1.0" encoding="utf-8"?>
<!-- Generator: Adobe Illustrator 18.0.0, SVG Export Plug-In . SVG Version: 6.00 Build 0)  -->
<!DOCTYPE svg PUBLIC "-//W3C//DTD SVG 1.1//EN" "http://www.w3.org/Graphics/SVG/1.1/DTD/svg11.dtd">
<svg version="1.1" id="Layer_1" xmlns="http://www.w3.org/2000/svg" xmlns:xlink="http://www.w3.org/1999/xlink" x="0px" y="0px"
	 viewBox="0 0 32 32" enable-background="new 0 0 32 32" xml:space="preserve">
<g>
	<g>
		<path fill="#8F9BA8" d="M13.8,24.1L12.7,23c1.1-1.1,4-2.6,6.6,0l-1.1,1.1C16.1,21.9,14,23.8,13.8,24.1z"/>
	</g>
	<g>
		<rect x="11.5" y="16.3" fill="#8F9BA8" width="9" height="1.5"/>
	</g>
	<g>
		<path fill="#8F9BA8" d="M2.8,19l-1.4-0.6L6.4,6c0-0.1,0.9-1.4,2.4-1.5c1-0.1,2,0.4,3,1.4l-1.1,1c-0.6-0.7-1.2-1-1.8-1
			C8.3,6,7.8,6.6,7.7,6.8L2.8,19z"/>
	</g>
	<g>
		<path fill="#8F9BA8" d="M29.2,19L24.3,6.8C24.2,6.6,23.7,6,23,6c-0.5,0-1.1,0.3-1.8,1l-1.1-1c1-1,2-1.5,3-1.4
			C24.7,4.6,25.6,6,25.6,6l0.1,0.1l4.9,12.3L29.2,19z"/>
	</g>
	<g>
		<ellipse fill="#CDE4F7" cx="7.6" cy="21.2" rx="6.1" ry="5.5"/>
		<path fill="#74B1E0" d="M7.6,27.5c-3.8,0-6.9-2.8-6.9-6.3c0-3.5,3.1-6.3,6.9-6.3c3.8,0,6.9,2.8,6.9,6.3
			C14.5,24.7,11.4,27.5,7.6,27.5z M7.6,16.5c-3,0-5.4,2.1-5.4,4.8c0,2.6,2.4,4.8,5.4,4.8c3,0,5.4-2.1,5.4-4.8
			C13,18.6,10.6,16.5,7.6,16.5z"/>
	</g>
	<g>
		<ellipse fill="#CDE4F7" cx="24.4" cy="21.2" rx="6.1" ry="5.5"/>
		<path fill="#74B1E0" d="M24.4,27.5c-3.8,0-6.9-2.8-6.9-6.3c0-3.5,3.1-6.3,6.9-6.3c3.8,0,6.9,2.8,6.9,6.3
			C31.3,24.7,28.2,27.5,24.4,27.5z M24.4,16.5c-3,0-5.4,2.1-5.4,4.8c0,2.6,2.4,4.8,5.4,4.8c3,0,5.4-2.1,5.4-4.8
			C29.8,18.6,27.3,16.5,24.4,16.5z"/>
	</g>
</g>
</svg>
