<?xml version="1.0" encoding="utf-8"?>
<!-- Generator: Adobe Illustrator 18.0.0, SVG Export Plug-In . SVG Version: 6.00 Build 0)  -->
<!DOCTYPE svg PUBLIC "-//W3C//DTD SVG 1.1//EN" "http://www.w3.org/Graphics/SVG/1.1/DTD/svg11.dtd">
<svg version="1.1" id="Layer_1" xmlns="http://www.w3.org/2000/svg" xmlns:xlink="http://www.w3.org/1999/xlink" x="0px" y="0px"
	 viewBox="0 0 32 32" enable-background="new 0 0 32 32" xml:space="preserve">
<g>
	<g>
		<path fill="#74B1E0" d="M26.1,31.2H5.9c-2,0-3.7-1.6-3.7-3.7V9.7h27.6v17.9C29.8,29.6,28.1,31.2,26.1,31.2z M3.7,11.2v16.4
			c0,1.2,1,2.2,2.2,2.2h20.2c1.2,0,2.2-1,2.2-2.2V11.2H3.7z"/>
	</g>
	<g>
		<rect x="7.8" y="14.4" fill="#8F9BA8" width="2.6" height="1.5"/>
	</g>
	<g>
		<rect x="14.7" y="14.4" fill="#8F9BA8" width="2.6" height="1.5"/>
	</g>
	<g>
		<rect x="21.6" y="14.4" fill="#8F9BA8" width="2.6" height="1.5"/>
	</g>
	<g>
		<rect x="7.8" y="19.7" fill="#8F9BA8" width="2.6" height="1.5"/>
	</g>
	<g>
		<rect x="14.7" y="19.7" fill="#8F9BA8" width="2.6" height="1.5"/>
	</g>
	<g>
		<rect x="21.6" y="19.7" fill="#8F9BA8" width="2.6" height="1.5"/>
	</g>
	<g>
		<rect x="7.8" y="25.1" fill="#8F9BA8" width="2.6" height="1.5"/>
	</g>
	<g>
		<rect x="14.7" y="25.1" fill="#8F9BA8" width="2.6" height="1.5"/>
	</g>
	<g>
		<rect x="21.6" y="25.1" fill="#8F9BA8" width="2.6" height="1.5"/>
	</g>
	<g>
		<path fill="#CDE4F7" d="M29,4.4c0-1.6-1.3-2.9-2.9-2.9H5.9C4.3,1.5,3,2.8,3,4.4v6H29V4.4z"/>
		<path fill="#74B1E0" d="M29.8,11.2H2.2V4.4c0-2,1.6-3.7,3.7-3.7h20.2c2,0,3.7,1.6,3.7,3.7V11.2z M3.7,9.7h24.6V4.4
			c0-1.2-1-2.2-2.2-2.2H5.9c-1.2,0-2.2,1-2.2,2.2V9.7z"/>
	</g>
</g>
</svg>
