<?xml version="1.0" encoding="utf-8"?>
<!-- Generator: Adobe Illustrator 18.0.0, SVG Export Plug-In . SVG Version: 6.00 Build 0)  -->
<!DOCTYPE svg PUBLIC "-//W3C//DTD SVG 1.1//EN" "http://www.w3.org/Graphics/SVG/1.1/DTD/svg11.dtd">
<svg version="1.1" id="Layer_1" xmlns="http://www.w3.org/2000/svg" xmlns:xlink="http://www.w3.org/1999/xlink" x="0px" y="0px"
	 viewBox="0 0 32 32" enable-background="new 0 0 32 32" xml:space="preserve">
<g>
	<g>
		<path fill="#8F9BA8" d="M18.9,9.6V8.1c1.2,0,2.3,0,3.4-0.4l0.2-0.1c1-0.4,2-0.8,2.6-1.6l1.2,0.8C25.6,8,24.2,8.5,23.1,9l-0.2,0.1
			C21.6,9.6,20.3,9.6,18.9,9.6z"/>
	</g>
	<g>
		<path fill="#8F9BA8" d="M27.1,7.6c-1.8,0-3.3-1.5-3.3-3.3c0-1.8,1.5-3.3,3.3-3.3c1.8,0,3.3,1.5,3.3,3.3C30.5,6.1,29,7.6,27.1,7.6z
			 M27.1,2.4c-1,0-1.8,0.8-1.8,1.8c0,1,0.8,1.8,1.8,1.8c1,0,1.8-0.8,1.8-1.8C29,3.2,28.2,2.4,27.1,2.4z"/>
	</g>
	<g>
		<path fill="#FAC2C3" d="M28.1,24.7H3.9v3.8c0,1,0.8,1.9,1.9,1.9h20.4c1,0,1.9-0.8,1.9-1.9V24.7z"/>
		<path fill="#DA8C8C" d="M26.2,31.1H5.8c-1.4,0-2.6-1.2-2.6-2.6V24h25.7v4.5C28.8,29.9,27.6,31.1,26.2,31.1z M4.7,25.5v3
			c0,0.6,0.5,1.1,1.1,1.1h20.4c0.6,0,1.1-0.5,1.1-1.1v-3H4.7z"/>
	</g>
	<g>
		<path fill="#8F9BA8" d="M31.3,25.5H0.7l0-0.8c0.3-6.9,5.1-12.6,11.7-14.1V6.1c0-1.4,1.2-2.6,2.6-2.6h1.8c1.4,0,2.6,1.2,2.6,2.6
			v4.5c6.6,1.6,11.4,7.3,11.7,14.1L31.3,25.5z M2.3,24h27.4c-0.6-6-5.1-10.9-11.1-12.1L18,11.8V6.1C18,5.5,17.5,5,16.9,5h-1.8
			C14.5,5,14,5.5,14,6.1v5.7l-0.6,0.1C7.4,13,2.9,17.9,2.3,24z"/>
	</g>
</g>
</svg>
