<?xml version="1.0" encoding="utf-8"?>
<!-- Generator: Adobe Illustrator 18.0.0, SVG Export Plug-In . SVG Version: 6.00 Build 0)  -->
<!DOCTYPE svg PUBLIC "-//W3C//DTD SVG 1.1//EN" "http://www.w3.org/Graphics/SVG/1.1/DTD/svg11.dtd">
<svg version="1.1" id="Layer_1" xmlns="http://www.w3.org/2000/svg" xmlns:xlink="http://www.w3.org/1999/xlink" x="0px" y="0px"
	 viewBox="0 0 32 32" enable-background="new 0 0 32 32" xml:space="preserve">
<g>
	<g>
		<path fill="#8F9BA8" d="M22.9,29h-4.5v-3c-2.5,0.6-5.2,0.7-7.8,0v3H6l0-5.4c0-2.4-1.8-4.5-4.3-4.9l-0.5-0.1l-0.1-0.5
			c-0.2-0.8-0.3-1.5-0.3-2.3c0-1.1,0.2-2.3,0.7-3.4l0.3-0.7l0.7,0.3c0.4,0.2,0.8,0.2,1.3,0.2c1.8,0,3.3-1.5,3.3-3.3
			c0.1-1.9-0.9-3.7-1.7-4.6l-1-1l1.4-0.2c0,0,0.6-0.1,1.4-0.1c1.5,0,4.1,0.3,6,2.3c0.4,0,0.8-0.1,1.2-0.1c7.5,0,13.6,4.7,13.6,10.6
			c0,3.2-1.8,6.2-5,8.2V29z M19.9,27.5h1.5v-4.3l0.4-0.2c2.9-1.7,4.6-4.3,4.6-7.1c0-5-5.4-9.1-12.1-9.1c-0.5,0-1,0-1.5,0.1l-0.4,0
			l-0.3-0.3c-1.4-1.7-3.6-2.1-4.9-2.1c0.7,1.2,1.3,2.8,1.2,4.5c-0.1,2.7-2.2,4.8-4.8,4.8c-0.4,0-0.7,0-1.1-0.1
			c-0.2,0.7-0.4,1.4-0.4,2.2c0,0.5,0.1,0.9,0.2,1.4c2.8,0.7,4.8,3,5.1,5.7h0l0,0.6c0,0,0,0,0,0v3.8h1.5V24l1,0.3
			c3,0.9,6.1,0.8,8.9-0.1l1-0.3V27.5z"/>
	</g>
	<g>
		<path fill="#8F9BA8" d="M27.3,15L27,13.5c2-0.4,2.8-2.1,2.8-2.2l1.4,0.6C31.2,12.1,30,14.5,27.3,15z"/>
	</g>
	<g>
		<rect x="15.4" y="12.5" fill="#79C693" width="1.5" height="6.2"/>
	</g>
	<g>
		<polygon fill="#79C693" points="16.1,19.9 13.1,17.3 14.1,16.1 16.1,17.9 18,16.2 19,17.3 		"/>
	</g>
	<g>
		<path fill="#79C693" d="M16,22c-3.4,0-6.1-2.7-6.1-6.1c0-3.4,2.7-6.1,6.1-6.1c3.4,0,6.1,2.7,6.1,6.1C22.1,19.3,19.4,22,16,22z
			 M16,11.3c-2.5,0-4.6,2.1-4.6,4.6c0,2.5,2.1,4.6,4.6,4.6c2.5,0,4.6-2.1,4.6-4.6C20.6,13.4,18.6,11.3,16,11.3z"/>
	</g>
</g>
</svg>
