<?xml version="1.0" encoding="utf-8"?>
<!-- Generator: Adobe Illustrator 18.0.0, SVG Export Plug-In . SVG Version: 6.00 Build 0)  -->
<!DOCTYPE svg PUBLIC "-//W3C//DTD SVG 1.1//EN" "http://www.w3.org/Graphics/SVG/1.1/DTD/svg11.dtd">
<svg version="1.1" id="Layer_1" xmlns="http://www.w3.org/2000/svg" xmlns:xlink="http://www.w3.org/1999/xlink" x="0px" y="0px"
	 viewBox="0 0 32 32" enable-background="new 0 0 32 32" xml:space="preserve">
<g>
	<g>
		<rect x="2.4" y="7.4" fill="#F0F7F7" width="3.9" height="23.1"/>
		<path fill="#8F9BA8" d="M7.1,31.2H1.6V6.6H7L7.1,31.2L7.1,31.2z M3.1,29.7h2.4V8.1H3.1V29.7z"/>
	</g>
	<g>
		<rect x="9.8" y="17.4" fill="#F0F7F7" width="3.9" height="13"/>
		<path fill="#8F9BA8" d="M14.5,31.2H9V16.7h5.4v14.5H14.5z M10.5,29.7H13V18.2h-2.4v11.5H10.5z"/>
	</g>
	<g>
		<rect x="17.1" y="13.3" fill="#F0F7F7" width="3.9" height="17.1"/>
		<path fill="#8F9BA8" d="M21.8,31.2h-5.4V12.6h5.4V31.2z M17.9,29.7h2.4V14.1h-2.4V29.7z"/>
	</g>
	<g>
		<rect x="24.5" y="21.9" fill="#F0F7F7" width="3.9" height="8.6"/>
		<path fill="#8F9BA8" d="M29.2,31.2h-5.4V21.1h5.4V31.2z M25.2,29.7h2.4v-7.1h-2.4V29.7z"/>
	</g>
	<g>
		<polygon fill="#8F9BA8" points="28.5,11.8 19.1,4.8 13.7,8.3 3.7,2.1 4.5,0.8 13.7,6.5 19.1,2.9 29.4,10.6 		"/>
	</g>
	<g>
		<polygon fill="#8F9BA8" points="30.4,12.5 25.3,12.5 25.3,11 28.6,11 28.2,8 29.7,7.8 		"/>
	</g>
</g>
</svg>
