<?xml version="1.0" encoding="utf-8"?>
<!-- Generator: Adobe Illustrator 18.0.0, SVG Export Plug-In . SVG Version: 6.00 Build 0)  -->
<!DOCTYPE svg PUBLIC "-//W3C//DTD SVG 1.1//EN" "http://www.w3.org/Graphics/SVG/1.1/DTD/svg11.dtd">
<svg version="1.1" id="Layer_1" xmlns="http://www.w3.org/2000/svg" xmlns:xlink="http://www.w3.org/1999/xlink" x="0px" y="0px"
	 viewBox="0 0 32 32" enable-background="new 0 0 32 32" xml:space="preserve">
<g>
	<g>
		<rect x="2.9" y="7.2" fill="#F9F8F2" width="4" height="23.3"/>
		<path fill="#B4A79C" d="M7.6,31.2H2.1V6.5h5.5V31.2z M3.6,29.7h2.5V8H3.6V29.7z"/>
	</g>
	<g>
		<rect x="10.3" y="17.3" fill="#F9F8F2" width="4" height="13.2"/>
		<path fill="#B4A79C" d="M15,31.2H9.6V16.6H15V31.2z M11.1,29.7h2.5V18.1h-2.5V29.7z"/>
	</g>
	<g>
		<rect x="17.7" y="13.2" fill="#F9F8F2" width="4" height="17.3"/>
		<path fill="#B4A79C" d="M22.5,31.2H17V12.5h5.5V31.2z M18.5,29.7H21V14h-2.5V29.7z"/>
	</g>
	<g>
		<rect x="25.2" y="21.9" fill="#F9F8F2" width="4" height="8.6"/>
		<path fill="#B4A79C" d="M29.9,31.2h-5.5V21.1h5.5V31.2z M25.9,29.7h2.5v-7.1h-2.5V29.7z"/>
	</g>
	<g>
		<polygon fill="#8F9BA8" points="28.1,11.6 19,6.3 14,10.2 3.7,2.8 4.6,1.6 13.9,8.3 18.9,4.5 28.8,10.3 		"/>
	</g>
	<g>
		<polygon fill="#8F9BA8" points="3.6,5.7 2.7,1 7.6,0.8 7.7,2.2 4.5,2.4 5,5.4 		"/>
	</g>
</g>
</svg>
