<?xml version="1.0" encoding="utf-8"?>
<!-- Generator: Adobe Illustrator 18.0.0, SVG Export Plug-In . SVG Version: 6.00 Build 0)  -->
<!DOCTYPE svg PUBLIC "-//W3C//DTD SVG 1.1//EN" "http://www.w3.org/Graphics/SVG/1.1/DTD/svg11.dtd">
<svg version="1.1" id="Layer_1" xmlns="http://www.w3.org/2000/svg" xmlns:xlink="http://www.w3.org/1999/xlink" x="0px" y="0px"
	 viewBox="0 0 32 32" enable-background="new 0 0 32 32" xml:space="preserve">
<g>
	<g>
		<path fill="#8F9BA8" d="M16,31.4L2.7,23.7V8.3L16,0.6l13.3,7.7v15.4l-3.1,1.8l-0.2-1.1c-0.3-2.3-2.3-4-4.6-4
			c-2.6,0-4.7,2.1-4.7,4.7c0,1.4,0.6,2.8,1.8,3.7l0.9,0.7L16,31.4z M4.2,22.8L16,29.6l0.8-0.5c-1-1.1-1.5-2.6-1.5-4.1
			c0-3.4,2.8-6.2,6.2-6.2c2.7,0,5,1.8,5.9,4.2l0.5-0.3V9.2L16,2.4L4.2,9.2V22.8z"/>
	</g>
	<g>
		<path fill="#FAC2C3" d="M26.8,24.3c-0.4-2.6-2.6-4.6-5.4-4.6c-3,0-5.4,2.4-5.4,5.4c0,1.7,0.8,3.2,2,4.2c0.9,0.7,2.1,1.2,3.4,1.2
			c3,0,5.4-2.4,5.4-5.4C26.9,24.8,26.8,24.5,26.8,24.3z"/>
		<path fill="#DA8C8C" d="M21.4,31.3c-1.4,0-2.8-0.5-3.9-1.4c-1.5-1.2-2.3-2.9-2.3-4.8c0-3.4,2.8-6.2,6.2-6.2c3,0,5.7,2.3,6.1,5.3
			c0.1,0.3,0.1,0.6,0.1,0.9C27.6,28.5,24.9,31.3,21.4,31.3z M21.4,20.4c-2.6,0-4.7,2.1-4.7,4.7c0,1.4,0.6,2.8,1.8,3.7
			c0.8,0.7,1.8,1,2.9,1c2.6,0,4.7-2.1,4.7-4.7c0-0.2,0-0.5-0.1-0.7C25.7,22.1,23.7,20.4,21.4,20.4z"/>
	</g>
	<g>
		<line fill="#FAC2C3" x1="21.4" y1="22.3" x2="21.4" y2="27.8"/>
		<rect x="20.7" y="22.3" fill="#DA8C8C" width="1.5" height="5.5"/>
	</g>
	<g>
		<line fill="#FAC2C3" x1="24.2" y1="25.1" x2="18.7" y2="25.1"/>
		<rect x="18.7" y="24.3" fill="#DA8C8C" width="5.5" height="1.5"/>
	</g>
</g>
</svg>
