<?xml version="1.0" encoding="utf-8"?>
<!-- Generator: Adobe Illustrator 18.0.0, SVG Export Plug-In . SVG Version: 6.00 Build 0)  -->
<!DOCTYPE svg PUBLIC "-//W3C//DTD SVG 1.1//EN" "http://www.w3.org/Graphics/SVG/1.1/DTD/svg11.dtd">
<svg version="1.1" id="Layer_1" xmlns="http://www.w3.org/2000/svg" xmlns:xlink="http://www.w3.org/1999/xlink" x="0px" y="0px"
	 viewBox="0 0 32 32" enable-background="new 0 0 32 32" xml:space="preserve">
<g>
	<g>
		<circle fill="#F0F7F7" cx="13" cy="26.8" r="3.7"/>
		<path fill="#8F9BA8" d="M13,31.3c-2.4,0-4.4-2-4.4-4.4c0-2.4,2-4.4,4.4-4.4c2.4,0,4.4,2,4.4,4.4C17.4,29.3,15.5,31.3,13,31.3z
			 M13,23.9c-1.6,0-2.9,1.3-2.9,2.9c0,1.6,1.3,2.9,2.9,2.9c1.6,0,2.9-1.3,2.9-2.9C15.9,25.2,14.6,23.9,13,23.9z"/>
	</g>
	<g>
		<circle fill="#F0F7F7" cx="18.6" cy="5.2" r="3.7"/>
		<path fill="#8F9BA8" d="M18.6,9.6c-2.4,0-4.4-2-4.4-4.4c0-2.4,2-4.4,4.4-4.4c2.4,0,4.4,2,4.4,4.4C23,7.6,21,9.6,18.6,9.6z
			 M18.6,2.3c-1.6,0-2.9,1.3-2.9,2.9c0,1.6,1.3,2.9,2.9,2.9c1.6,0,2.9-1.3,2.9-2.9C21.5,3.6,20.2,2.3,18.6,2.3z"/>
	</g>
	<g>
		
			<rect x="5.7" y="21.3" transform="matrix(0.6057 0.7957 -0.7957 0.6057 20.9229 1.8732)" fill="#8F9BA8" width="5.8" height="1.5"/>
	</g>
	<g>
		
			<rect x="15.5" y="8.6" transform="matrix(0.9746 0.2241 -0.2241 0.9746 3.998 -3.2331)" fill="#8F9BA8" width="1.5" height="14.7"/>
	</g>
	<g>
		
			<rect x="19.1" y="10.8" transform="matrix(0.5514 0.8342 -0.8342 0.5514 20.0994 -14.3134)" fill="#8F9BA8" width="8.4" height="1.5"/>
	</g>
	<g>
		<path fill="#FAC2C3" d="M8.8,16.8c0,2-1.6,3.7-3.7,3.7c-2,0-3.7-1.6-3.7-3.7c0-2,1.6-3.7,3.7-3.7C7.2,13.1,8.8,14.7,8.8,16.8z"/>
		<path fill="#DA8C8C" d="M5.2,21.2c-2.4,0-4.4-2-4.4-4.4c0-2.4,2-4.4,4.4-4.4c2.4,0,4.4,2,4.4,4.4C9.6,19.2,7.6,21.2,5.2,21.2z
			 M5.2,13.8c-1.6,0-2.9,1.3-2.9,2.9c0,1.6,1.3,2.9,2.9,2.9c1.6,0,2.9-1.3,2.9-2.9C8.1,15.1,6.8,13.8,5.2,13.8z"/>
	</g>
	<g>
		<path fill="#FAC2C3" d="M30.5,18.1c0,2-1.6,3.7-3.7,3.7c-2,0-3.7-1.6-3.7-3.7s1.6-3.7,3.7-3.7C28.9,14.5,30.5,16.1,30.5,18.1z"/>
		<path fill="#DA8C8C" d="M26.8,22.5c-2.4,0-4.4-2-4.4-4.4c0-2.4,2-4.4,4.4-4.4c2.4,0,4.4,2,4.4,4.4C31.3,20.6,29.3,22.5,26.8,22.5z
			 M26.8,15.2c-1.6,0-2.9,1.3-2.9,2.9c0,1.6,1.3,2.9,2.9,2.9c1.6,0,2.9-1.3,2.9-2.9C29.8,16.5,28.4,15.2,26.8,15.2z"/>
	</g>
</g>
</svg>
