<?xml version="1.0" encoding="utf-8"?>
<!-- Generator: Adobe Illustrator 18.0.0, SVG Export Plug-In . SVG Version: 6.00 Build 0)  -->
<!DOCTYPE svg PUBLIC "-//W3C//DTD SVG 1.1//EN" "http://www.w3.org/Graphics/SVG/1.1/DTD/svg11.dtd">
<svg version="1.1" id="Layer_1" xmlns="http://www.w3.org/2000/svg" xmlns:xlink="http://www.w3.org/1999/xlink" x="0px" y="0px"
	 viewBox="0 0 32 32" enable-background="new 0 0 32 32" xml:space="preserve">
<g>
	<g>
		<path fill="#DA8C8C" d="M23.4,31.2H8.6c-0.9,0-1.7-0.3-2.2-0.9C6,29.8,5.8,29.2,6,28.5L6,28.4l4.4-10.1l-2.6-6.9l-2.9,1.2L2.3,5.4
			l6.1-4.2c0.5-0.4,1.1-0.5,1.7-0.4l0.5,0.1l0.1,0.5c0.6,2,2.8,3.3,5.3,3.3c2.5,0,4.6-1.4,5.3-3.3l0.1-0.5l0.5-0.1
			c0.6-0.1,1.2,0.1,1.7,0.4l6.1,4.2l-2.6,7.1l-2.9-1.2l-2.6,6.9L26,28.5c0.1,0.7,0,1.3-0.5,1.8C25.1,30.9,24.3,31.2,23.4,31.2z
			 M7.4,28.9c0,0.2,0,0.3,0.2,0.5c0.2,0.2,0.6,0.4,1,0.4h14.8c0.4,0,0.8-0.1,1-0.4c0.1-0.1,0.2-0.3,0.2-0.5l-4.6-10.6l3.4-8.9
			l2.9,1.2L27.9,6l-5.1-3.6c-0.1-0.1-0.2-0.1-0.3-0.1c-1,2.3-3.6,3.8-6.5,3.8c-2.9,0-5.5-1.5-6.5-3.8c-0.1,0-0.2,0.1-0.3,0.1L4.1,6
			l1.7,4.5l2.9-1.2l3.4,8.9L7.4,28.9z"/>
	</g>
</g>
</svg>
