<?xml version="1.0" encoding="utf-8"?>
<!-- Generator: Adobe Illustrator 18.0.0, SVG Export Plug-In . SVG Version: 6.00 Build 0)  -->
<!DOCTYPE svg PUBLIC "-//W3C//DTD SVG 1.1//EN" "http://www.w3.org/Graphics/SVG/1.1/DTD/svg11.dtd">
<svg version="1.1" id="Layer_1" xmlns="http://www.w3.org/2000/svg" xmlns:xlink="http://www.w3.org/1999/xlink" x="0px" y="0px"
	 viewBox="0 0 32 32" enable-background="new 0 0 32 32" xml:space="preserve">
<g>
	<g>
		<path fill="#8F9BA8" d="M11.9,31.3H7.1c-1.5,0-2.7-1.2-2.7-2.7v-7.9c0-1.5,1.2-2.7,2.7-2.7h4.8c1.5,0,2.7,1.2,2.7,2.7v7.9
			C14.6,30,13.4,31.3,11.9,31.3z M7.1,19.6c-0.6,0-1.1,0.5-1.1,1.1v7.9c0,0.6,0.5,1.1,1.1,1.1h4.8c0.6,0,1.1-0.5,1.1-1.1v-7.9
			c0-0.6-0.5-1.1-1.1-1.1H7.1z"/>
	</g>
	<g>
		<path fill="#F0F7F7" d="M17.7,17v11.5c0,1.1,0.9,2,2,2h5.1c1.1,0,2-0.9,2-2V17H17.7z"/>
		<path fill="#8F9BA8" d="M24.8,31.3h-5.1c-1.5,0-2.8-1.3-2.8-2.8V16.2h10.7v12.3C27.6,30,26.4,31.3,24.8,31.3z M18.4,17.7v10.7
			c0,0.7,0.6,1.3,1.3,1.3h5.1c0.7,0,1.3-0.6,1.3-1.3V17.7H18.4z"/>
	</g>
	<g>
		<rect x="8.7" y="0.8" fill="#8F9BA8" width="1.5" height="17.3"/>
	</g>
	<g>
		<rect x="6.2" y="1.9" fill="#8F9BA8" width="6.6" height="1.5"/>
	</g>
	<g>
		<rect x="4.8" y="4.8" fill="#8F9BA8" width="9.3" height="1.5"/>
	</g>
	<g>
		<rect x="6.2" y="7.8" fill="#8F9BA8" width="6.6" height="1.5"/>
	</g>
</g>
</svg>
