<?xml version="1.0" encoding="utf-8"?>
<!-- Generator: Adobe Illustrator 18.0.0, SVG Export Plug-In . SVG Version: 6.00 Build 0)  -->
<!DOCTYPE svg PUBLIC "-//W3C//DTD SVG 1.1//EN" "http://www.w3.org/Graphics/SVG/1.1/DTD/svg11.dtd">
<svg version="1.1" id="Layer_1" xmlns="http://www.w3.org/2000/svg" xmlns:xlink="http://www.w3.org/1999/xlink" x="0px" y="0px"
	 viewBox="0 0 32 32" enable-background="new 0 0 32 32" xml:space="preserve">
<g>
	<g>
		<path fill="#79C693" d="M24.3,31.3H7.7c-0.7,0-1.2-0.6-1.2-1.2V13.1l-2.5,0.8c-0.7,0.2-1.5-0.2-1.7-0.8L1,10.2
			C0.5,8.9,0.9,7.2,2,6.4l6-5.1c0.4-0.4,0.9-0.6,1.4-0.6c0.8,0,1.5,0.5,1.9,1.4l0,0c0,0,0.8,1.6,4.8,1.6c4,0,4.8-1.6,4.8-1.6
			c0.3-0.8,1-1.4,1.9-1.4c0.5,0,1,0.2,1.4,0.6l6,5.1c1,0.9,1.4,2.5,0.9,3.8l-1.2,2.9c-0.2,0.5-0.7,0.9-1.3,0.9l0,0
			c-0.1,0-0.3,0-0.4-0.1l-2.5-0.8V30C25.6,30.7,25,31.3,24.3,31.3z M7.9,29.8h16.1V11.1l4.4,1.3l1.1-2.8c0.3-0.7,0-1.6-0.5-2.1
			l-6-5.1c-0.2-0.1-0.3-0.2-0.4-0.2c-0.3,0-0.4,0.3-0.5,0.4C22.1,2.9,21,5.2,16,5.2c-5-0.1-6.1-2.3-6.2-2.6C9.8,2.5,9.6,2.3,9.4,2.3
			c-0.1,0-0.3,0.1-0.4,0.2l-6,5.1C2.4,8,2.2,9,2.4,9.6l1.1,2.8l4.4-1.3V29.8z"/>
	</g>
</g>
</svg>
