<?xml version="1.0" encoding="utf-8"?>
<!-- Generator: Adobe Illustrator 18.0.0, SVG Export Plug-In . SVG Version: 6.00 Build 0)  -->
<!DOCTYPE svg PUBLIC "-//W3C//DTD SVG 1.1//EN" "http://www.w3.org/Graphics/SVG/1.1/DTD/svg11.dtd">
<svg version="1.1" id="Layer_1" xmlns="http://www.w3.org/2000/svg" xmlns:xlink="http://www.w3.org/1999/xlink" x="0px" y="0px"
	 viewBox="0 0 32 32" enable-background="new 0 0 32 32" xml:space="preserve">
<g>
	<g>
		<path fill="#8F9BA8" d="M11.7,31.1L9.8,26l-5.4,0.4l1.1-5.3l-4.7-2.6l3.8-3.8L2,9.9l5.3-1.2l0.4-5.4l5.1,1.9L16,0.9l3.3,4.3
			l5.1-1.9l0.4,5.4L30,9.9l-2.6,4.8l3.8,3.8l-4.7,2.6l1.1,5.3L22.2,26l-1.9,5.1L16,27.9L11.7,31.1z M16,26.1l3.7,2.7l1.6-4.3
			l4.5,0.3l-1-4.5l4-2.2l-3.2-3.2l2.2-4l-4.5-1L23,5.4L18.7,7L16,3.3L13.3,7L9,5.4L8.6,9.9l-4.5,1l2.2,4l-3.2,3.2l4,2.2l-1,4.5
			l4.5-0.3l1.6,4.3L16,26.1z"/>
	</g>
</g>
</svg>
