<?xml version="1.0" encoding="utf-8"?>
<!-- Generator: Adobe Illustrator 18.0.0, SVG Export Plug-In . SVG Version: 6.00 Build 0)  -->
<!DOCTYPE svg PUBLIC "-//W3C//DTD SVG 1.1//EN" "http://www.w3.org/Graphics/SVG/1.1/DTD/svg11.dtd">
<svg version="1.1" id="Layer_1" xmlns="http://www.w3.org/2000/svg" xmlns:xlink="http://www.w3.org/1999/xlink" x="0px" y="0px"
	 viewBox="0 0 32 32" enable-background="new 0 0 32 32" xml:space="preserve">
<g>
	<g>
		<path fill="#B4A79C" d="M13.6,31.2c-0.2,0-0.4-0.1-0.5-0.2L1,18.9c-0.1-0.1-0.2-0.3-0.2-0.5c0-0.2,0.1-0.4,0.2-0.5L17.9,1
			c0.2-0.2,0.4-0.3,0.7-0.2l10.1,1.9c0.3,0.1,0.5,0.3,0.6,0.6l2,10.2c0,0.2,0,0.5-0.2,0.7L14.1,31C14,31.2,13.8,31.2,13.6,31.2z
			 M2.6,18.4l11,11l16.1-16.1L27.8,4l-9.2-1.7L2.6,18.4z"/>
	</g>
	<g>
		<path fill="#B4A79C" d="M22.5,13.2c-1,0-1.9-0.4-2.6-1.1c-0.7-0.7-1.1-1.6-1.1-2.6c0-1,0.4-1.9,1.1-2.6c1.4-1.4,3.8-1.4,5.3,0
			c0.7,0.7,1.1,1.6,1.1,2.6c0,1-0.4,1.9-1.1,2.6C24.4,12.8,23.5,13.2,22.5,13.2z M22.5,7.3c-0.6,0-1.1,0.2-1.6,0.6
			c-0.4,0.4-0.6,1-0.6,1.6c0,0.6,0.2,1.1,0.6,1.6c0.8,0.8,2.3,0.8,3.1,0c0.4-0.4,0.6-1,0.6-1.6c0-0.6-0.2-1.1-0.6-1.6
			C23.6,7.5,23.1,7.3,22.5,7.3z"/>
	</g>
</g>
</svg>
