<?xml version="1.0" encoding="utf-8"?>
<!-- Generator: Adobe Illustrator 18.0.0, SVG Export Plug-In . SVG Version: 6.00 Build 0)  -->
<!DOCTYPE svg PUBLIC "-//W3C//DTD SVG 1.1//EN" "http://www.w3.org/Graphics/SVG/1.1/DTD/svg11.dtd">
<svg version="1.1" id="Layer_1" xmlns="http://www.w3.org/2000/svg" xmlns:xlink="http://www.w3.org/1999/xlink" x="0px" y="0px"
	 viewBox="0 0 32 32" enable-background="new 0 0 32 32" xml:space="preserve">
<g>
	<g>
		<path fill="#8F9BA8" d="M27,31.3H5c-1.6,0-2.9-1.2-2.9-2.8V16.3c0-1.5,1.3-2.8,2.9-2.8h7.7v1.5H5c-0.7,0-1.4,0.6-1.4,1.3v12.1
			c0,0.7,0.6,1.3,1.4,1.3H27c0.7,0,1.4-0.6,1.4-1.3V16.3c0-0.7-0.6-1.3-1.4-1.3h-7.7v-1.5H27c1.6,0,2.9,1.2,2.9,2.8v12.1
			C29.9,30,28.6,31.3,27,31.3z"/>
	</g>
	<g>
		<path fill="#F9F8F2" d="M13,14.3H3.6c-1.2,0-2.1-0.9-2.1-2V9.6c0-1.1,0.9-2,2.1-2h24.8c1.2,0,2.1,0.9,2.1,2v2.7c0,1.1-0.9,2-2.1,2
			H19"/>
		<path fill="#B4A79C" d="M28.4,15.1H19v-1.5h9.4c0.7,0,1.4-0.6,1.4-1.3V9.6c0-0.7-0.6-1.3-1.4-1.3H3.6c-0.7,0-1.4,0.6-1.4,1.3v2.7
			c0,0.7,0.6,1.3,1.4,1.3H13v1.5H3.6c-1.6,0-2.9-1.2-2.9-2.8V9.6C0.8,8,2,6.8,3.6,6.8h24.8c1.6,0,2.9,1.2,2.9,2.8v2.7
			C31.3,13.8,30,15.1,28.4,15.1z"/>
	</g>
	<g>
		<rect x="13.2" y="7.5" fill="#F0F7F7" width="5.6" height="23"/>
		<path fill="#8F9BA8" d="M18.8,31.3h-5.6c-0.4,0-0.8-0.3-0.8-0.8v-23c0-0.4,0.3-0.8,0.8-0.8h5.6c0.4,0,0.8,0.3,0.8,0.8v23
			C19.5,30.9,19.2,31.3,18.8,31.3z M14,29.8H18V8.3H14V29.8z"/>
	</g>
	<g>
		<path fill="#8F9BA8" d="M18.9,8H16c-0.4,0-0.8-0.3-0.8-0.8V4.4c0-2,1.6-3.6,3.6-3.6c2,0,3.6,1.6,3.6,3.6S20.9,8,18.9,8z M16.8,6.5
			h2.1c1.2,0,2.1-1,2.1-2.1s-1-2.1-2.1-2.1c-1.2,0-2.1,1-2.1,2.1V6.5z"/>
	</g>
	<g>
		<path fill="#8F9BA8" d="M16,8h-2.9c-2,0-3.6-1.6-3.6-3.6s1.6-3.6,3.6-3.6c2,0,3.6,1.6,3.6,3.6v2.9C16.8,7.7,16.4,8,16,8z
			 M13.1,2.3c-1.2,0-2.1,1-2.1,2.1s1,2.1,2.1,2.1h2.1V4.4C15.3,3.2,14.3,2.3,13.1,2.3z"/>
	</g>
</g>
</svg>
