<?xml version="1.0" encoding="utf-8"?>
<!-- Generator: Adobe Illustrator 18.0.0, SVG Export Plug-In . SVG Version: 6.00 Build 0)  -->
<!DOCTYPE svg PUBLIC "-//W3C//DTD SVG 1.1//EN" "http://www.w3.org/Graphics/SVG/1.1/DTD/svg11.dtd">
<svg version="1.1" id="Layer_1" xmlns="http://www.w3.org/2000/svg" xmlns:xlink="http://www.w3.org/1999/xlink" x="0px" y="0px"
	 viewBox="0 0 32 32" enable-background="new 0 0 32 32" xml:space="preserve">
<g>
	<g>
		<path fill="#FAC2C3" d="M4.3,9.1l6.1-4.9c0,0,2.7-2.1,4.4,0.4c0.6,0.9,1.2,1.7,1.6,2.4l0.9,2.1H4.3z"/>
		<path fill="#DA8C8C" d="M17.3,9.9h-13C4,9.9,3.7,9.7,3.6,9.4c-0.1-0.3,0-0.6,0.2-0.8l6.1-4.9c0.1-0.1,1.3-1,2.7-1
			c0.8,0,1.9,0.3,2.7,1.6C16,5.2,16.5,6,17,6.6c0,0,0,0.1,0.1,0.1l0.9,2.1C18,9.1,18,9.3,17.9,9.6C17.7,9.8,17.5,9.9,17.3,9.9z
			 M6.4,8.4h9.7l-0.4-1c-0.4-0.6-1-1.4-1.6-2.3c-0.4-0.6-0.9-0.9-1.5-0.9c-0.9,0-1.8,0.6-1.8,0.7L6.4,8.4z"/>
	</g>
	<g>
		<path fill="#FAC2C3" d="M13.7,9.1l6.1-4.9c0,0,2.7-2.1,4.4,0.4C25.9,7.3,27.1,9,27.1,9"/>
		<path fill="#DA8C8C" d="M14.2,9.7l-0.9-1.2l6.1-4.9c0.1-0.1,1.6-1.2,3.3-0.9c0.9,0.2,1.6,0.7,2.2,1.5c1.7,2.6,2.9,4.3,2.9,4.3
			l-1.2,0.9c0,0-1.2-1.7-2.9-4.3c-0.3-0.5-0.7-0.8-1.2-0.9c-1-0.2-2.1,0.6-2.1,0.6L14.2,9.7z"/>
	</g>
	<g>
		<path fill="#8F9BA8" d="M26.7,29.3H5.3c-2.5,0-4.6-2.1-4.6-4.6V13c0-2.5,2.1-4.6,4.6-4.6h21.3c2.5,0,4.6,2.1,4.6,4.6v11.7
			C31.3,27.3,29.2,29.3,26.7,29.3z M5.3,9.9c-1.7,0-3.1,1.4-3.1,3.1v11.7c0,1.7,1.4,3.1,3.1,3.1h21.3c1.7,0,3.1-1.4,3.1-3.1V13
			c0-1.7-1.4-3.1-3.1-3.1H5.3z"/>
	</g>
	<g>
		<path fill="#FAC2C3" d="M30.5,23.1h-7.2c-1.9,0-3.4-1.5-3.4-3.4v-0.6c0-1.9,1.5-3.4,3.4-3.4h7.2V23.1z"/>
		<path fill="#DA8C8C" d="M31.3,23.9h-8c-2.3,0-4.2-1.9-4.2-4.2v-0.6c0-2.3,1.9-4.2,4.2-4.2h8V23.9z M23.3,16.5
			c-1.5,0-2.7,1.2-2.7,2.7v0.6c0,1.5,1.2,2.7,2.7,2.7h6.5v-5.9H23.3z"/>
	</g>
	<g>
		<line fill="#FAC2C3" x1="23.1" y1="18.7" x2="23.1" y2="20.3"/>
		<rect x="22.3" y="18.7" fill="#DA8C8C" width="1.5" height="1.6"/>
	</g>
</g>
</svg>
