<?xml version="1.0" encoding="utf-8"?>
<!-- Generator: Adobe Illustrator 18.0.0, SVG Export Plug-In . SVG Version: 6.00 Build 0)  -->
<!DOCTYPE svg PUBLIC "-//W3C//DTD SVG 1.1//EN" "http://www.w3.org/Graphics/SVG/1.1/DTD/svg11.dtd">
<svg version="1.1" id="Layer_1" xmlns="http://www.w3.org/2000/svg" xmlns:xlink="http://www.w3.org/1999/xlink" x="0px" y="0px"
	 viewBox="0 0 32 32" enable-background="new 0 0 32 32" xml:space="preserve">
<g>
	<g>
		<path fill="#CDE4F7" d="M3.9,10l16.6-6.9c0,0,3.2-1.2,4.1,1.6c0.9,3.1,1.6,5,1.6,5"/>
		<path fill="#74B1E0" d="M4.2,10.7L3.6,9.3l16.6-6.9c0.1,0,1.9-0.7,3.4,0c0.8,0.4,1.4,1.1,1.7,2.1c0.9,3,1.6,4.9,1.6,4.9l-1.4,0.5
			c0,0-0.7-1.9-1.6-5c-0.2-0.6-0.5-0.9-0.9-1.2c-0.9-0.5-2.2,0-2.2,0L4.2,10.7z"/>
	</g>
	<g>
		<path fill="#8F9BA8" d="M26.7,29.9H5.4c-2.5,0-4.6-2.1-4.6-4.6V13.5C0.8,11,2.8,9,5.4,9h21.3c2.5,0,4.6,2.1,4.6,4.6v11.7
			C31.3,27.8,29.2,29.9,26.7,29.9z M5.4,10.5c-1.7,0-3.1,1.4-3.1,3.1v11.7c0,1.7,1.4,3.1,3.1,3.1h21.3c1.7,0,3.1-1.4,3.1-3.1V13.5
			c0-1.7-1.4-3.1-3.1-3.1H5.4z"/>
	</g>
	<g>
		<path fill="#CDE4F7" d="M30.5,23.1h-7.2c-1.9,0-3.4-1.5-3.4-3.4v-0.6c0-1.9,1.5-3.4,3.4-3.4h7.2V23.1z"/>
		<path fill="#74B1E0" d="M31.3,23.9h-8c-2.3,0-4.2-1.9-4.2-4.2v-0.6c0-2.3,1.9-4.2,4.2-4.2h8V23.9z M23.3,16.5
			c-1.5,0-2.7,1.2-2.7,2.7v0.6c0,1.5,1.2,2.7,2.7,2.7h6.5v-5.9H23.3z"/>
	</g>
	<g>
		<line fill="#CDE4F7" x1="23.1" y1="18.7" x2="23.1" y2="20.3"/>
		<rect x="22.3" y="18.7" fill="#74B1E0" width="1.5" height="1.6"/>
	</g>
</g>
</svg>
