<?xml version="1.0" encoding="utf-8"?>
<!-- Generator: Adobe Illustrator 18.0.0, SVG Export Plug-In . SVG Version: 6.00 Build 0)  -->
<!DOCTYPE svg PUBLIC "-//W3C//DTD SVG 1.1//EN" "http://www.w3.org/Graphics/SVG/1.1/DTD/svg11.dtd">
<svg version="1.1" id="Layer_1" xmlns="http://www.w3.org/2000/svg" xmlns:xlink="http://www.w3.org/1999/xlink" x="0px" y="0px"
	 viewBox="0 0 32 32" enable-background="new 0 0 32 32" xml:space="preserve">
<g>
	<g>
		<path fill="#8F9BA8" d="M26.6,22.9v-1.5c1.7,0,3.1-1.4,3.1-3.2V5.4c0-1.7-1.4-3.2-3.1-3.2H5.4c-1.7,0-3.1,1.4-3.1,3.2v12.9
			c0,1.7,1.4,3.2,3.1,3.2h10.1v1.5H5.4c-2.5,0-4.6-2.1-4.6-4.7V5.4c0-2.6,2.1-4.7,4.6-4.7h21.3c2.5,0,4.6,2.1,4.6,4.7v12.9
			C31.3,20.9,29.2,22.9,26.6,22.9z"/>
	</g>
	<g>
		<rect x="1.5" y="6.8" fill="#F0F7F7" width="29" height="4.7"/>
		<path fill="#8F9BA8" d="M31.3,12.3H0.8V6.1h30.5V12.3z M2.3,10.8h27.5V7.6H2.3V10.8z"/>
	</g>
	<g>
		<path fill="#F2E8B9" d="M27.1,28.5c0,1.1-0.9,2-1.9,2h-8c-1.1,0-1.9-0.9-1.9-2v-6.7c0-1.1,0.9-2,1.9-2h8c1.1,0,1.9,0.9,1.9,2V28.5
			z"/>
		<path fill="#B4A042" d="M25.2,31.3h-8c-1.5,0-2.7-1.2-2.7-2.7v-6.7c0-1.5,1.2-2.7,2.7-2.7h8c1.5,0,2.7,1.2,2.7,2.7v6.7
			C27.8,30,26.6,31.3,25.2,31.3z M17.1,20.6c-0.6,0-1.2,0.5-1.2,1.2v6.7c0,0.7,0.5,1.2,1.2,1.2h8c0.6,0,1.2-0.5,1.2-1.2v-6.7
			c0-0.7-0.5-1.2-1.2-1.2H17.1z"/>
	</g>
	<g>
		<path fill="#B4A042" d="M25.8,19.3h-1.5c0-1.8-1.4-3.2-3.1-3.2c-1.7,0-3.1,1.4-3.1,3.2h-1.5c0-2.6,2.1-4.7,4.6-4.7
			C23.7,14.6,25.8,16.7,25.8,19.3z"/>
	</g>
</g>
</svg>
