<?xml version="1.0" encoding="utf-8"?>
<!-- Generator: Adobe Illustrator 18.0.0, SVG Export Plug-In . SVG Version: 6.00 Build 0)  -->
<!DOCTYPE svg PUBLIC "-//W3C//DTD SVG 1.1//EN" "http://www.w3.org/Graphics/SVG/1.1/DTD/svg11.dtd">
<svg version="1.1" id="Layer_1" xmlns="http://www.w3.org/2000/svg" xmlns:xlink="http://www.w3.org/1999/xlink" x="0px" y="0px"
	 viewBox="0 0 32 32" enable-background="new 0 0 32 32" xml:space="preserve">
<pattern  y="-84" width="24.1" height="24.1" patternUnits="userSpaceOnUse" id="New_Pattern_Swatch_2" viewBox="0 -24.1 24.1 24.1" overflow="visible">
	<g>
		<polygon fill="none" points="0,0 24.1,0 24.1,-24.1 0,-24.1 		"/>
		<polygon fill="#E0CB81" points="24.1,0 0,0 0,-24.1 24.1,-24.1 		"/>
	</g>
</pattern>
<g>
	<g>
		<polygon fill="#8F9BA8" points="28.9,31.3 3.1,31.3 3.1,7.2 4.6,7.2 4.6,29.8 27.4,29.8 27.4,7.2 28.9,7.2 		"/>
	</g>
	<g>
		<path fill="#79C693" d="M29.5,8h-27c-1,0-1.8-0.8-1.8-1.8V2.5c0-1,0.8-1.8,1.8-1.8h27c1,0,1.8,0.8,1.8,1.8v3.7
			C31.3,7.2,30.5,8,29.5,8z M2.5,2.3c-0.1,0-0.3,0.1-0.3,0.3v3.7c0,0.1,0.1,0.3,0.3,0.3h27c0.1,0,0.3-0.1,0.3-0.3V2.5
			c0-0.1-0.1-0.3-0.3-0.3H2.5z"/>
	</g>
	<g>
		<g>
			<defs>
				<rect id="SVGID_15_" x="7.9" y="14.7" width="16.1" height="5.9"/>
			</defs>
			<clipPath id="SVGID_2_">
				<use xlink:href="#SVGID_15_"  overflow="visible"/>
			</clipPath>
			<g clip-path="url(#SVGID_2_)">
				<rect x="21.2" y="-6.8" fill="none" width="24.1" height="24.1"/>
				<rect x="21.2" y="-6.8" fill="#FEE99B" width="24.1" height="24.1"/>
			</g>
			<g clip-path="url(#SVGID_2_)">
				<rect x="21.2" y="17.4" fill="none" width="24.1" height="24.1"/>
				<rect x="21.2" y="17.4" fill="#FEE99B" width="24.1" height="24.1"/>
			</g>
			<g clip-path="url(#SVGID_2_)">
				<rect x="-2.9" y="-6.8" fill="none" width="24.1" height="24.1"/>
				<rect x="-2.9" y="-6.8" fill="#FEE99B" width="24.1" height="24.1"/>
			</g>
			<g clip-path="url(#SVGID_2_)">
				<rect x="-2.9" y="17.4" fill="none" width="24.1" height="24.1"/>
				<rect x="-2.9" y="17.4" fill="#FEE99B" width="24.1" height="24.1"/>
			</g>
		</g>
		<pattern  id="SVGID_4_" xlink:href="#New_Pattern_Swatch_2" patternTransform="matrix(1 0 0 1 1.5295 -41.9324)">
		</pattern>
		<path fill="url(#SVGID_4_)" d="M24.8,21.3H7.2V14h17.6V21.3z M8.7,19.8h14.6v-4.4H8.7V19.8z"/>
	</g>
</g>
</svg>
