<?xml version="1.0" encoding="utf-8"?>
<!-- Generator: Adobe Illustrator 18.0.0, SVG Export Plug-In . SVG Version: 6.00 Build 0)  -->
<!DOCTYPE svg PUBLIC "-//W3C//DTD SVG 1.1//EN" "http://www.w3.org/Graphics/SVG/1.1/DTD/svg11.dtd">
<svg version="1.1" id="Layer_1" xmlns="http://www.w3.org/2000/svg" xmlns:xlink="http://www.w3.org/1999/xlink" x="0px" y="0px"
	 viewBox="0 0 32 32" enable-background="new 0 0 32 32" xml:space="preserve">
<g>
	<g>
		<rect x="1.5" y="11" fill="#CDE4F7" width="29" height="4.7"/>
		<path fill="#74B1E0" d="M31.3,16.4H0.8v-6.2h30.5V16.4z M2.3,14.9h27.5v-3.2H2.3V14.9z"/>
	</g>
	<g>
		<path fill="#8F9BA8" d="M28.5,26.9h-25c-1.5,0-2.8-1.2-2.8-2.8V7.8c0-1.5,1.2-2.8,2.8-2.8h25c1.5,0,2.8,1.2,2.8,2.8v16.4
			C31.3,25.7,30,26.9,28.5,26.9z M3.5,6.6c-0.7,0-1.3,0.6-1.3,1.3v16.4c0,0.7,0.6,1.3,1.3,1.3h25c0.7,0,1.3-0.6,1.3-1.3V7.8
			c0-0.7-0.6-1.3-1.3-1.3H3.5z"/>
	</g>
	<g>
		<line fill="#CDE4F7" x1="5.8" y1="22.1" x2="7.8" y2="22.1"/>
		<rect x="5.8" y="21.3" fill="#74B1E0" width="2" height="1.5"/>
	</g>
	<g>
		<line fill="#CDE4F7" x1="9.3" y1="22.1" x2="11.3" y2="22.1"/>
		<rect x="9.3" y="21.3" fill="#74B1E0" width="2" height="1.5"/>
	</g>
	<g>
		<line fill="#CDE4F7" x1="12.8" y1="22.1" x2="14.8" y2="22.1"/>
		<rect x="12.8" y="21.3" fill="#74B1E0" width="2" height="1.5"/>
	</g>
	<g>
		<line fill="#CDE4F7" x1="16.3" y1="22.1" x2="18.3" y2="22.1"/>
		<rect x="16.3" y="21.3" fill="#74B1E0" width="2" height="1.5"/>
	</g>
</g>
<g>
	<g>
		<g>
			<defs>
				<rect id="SVGID_15_" x="-34.1" y="14.7" width="16.1" height="5.9"/>
			</defs>
			<clipPath id="SVGID_2_">
				<use xlink:href="#SVGID_15_"  overflow="visible"/>
			</clipPath>
			<g clip-path="url(#SVGID_2_)">
				<rect x="-20.8" y="-6.8" fill="none" width="24.1" height="24.1"/>
				<rect x="-20.8" y="-6.8" fill="#FEE99B" width="24.1" height="24.1"/>
			</g>
			<g clip-path="url(#SVGID_2_)">
				<rect x="-20.8" y="17.4" fill="none" width="24.1" height="24.1"/>
				<rect x="-20.8" y="17.4" fill="#FEE99B" width="24.1" height="24.1"/>
			</g>
		</g>
	</g>
</g>
</svg>
