<?xml version="1.0" encoding="utf-8"?>
<!-- Generator: Adobe Illustrator 18.0.0, SVG Export Plug-In . SVG Version: 6.00 Build 0)  -->
<!DOCTYPE svg PUBLIC "-//W3C//DTD SVG 1.1//EN" "http://www.w3.org/Graphics/SVG/1.1/DTD/svg11.dtd">
<svg version="1.1" id="Layer_1" xmlns="http://www.w3.org/2000/svg" xmlns:xlink="http://www.w3.org/1999/xlink" x="0px" y="0px"
	 viewBox="0 0 32 32" enable-background="new 0 0 32 32" xml:space="preserve">
<g>
	<g>
		<path fill="#8F9BA8" d="M20.5,7.7c-5,0-10.5-1.1-10.5-3.5s5.4-3.5,10.5-3.5S31,1.8,31,4.2S25.6,7.7,20.5,7.7z M20.5,2.3
			c-5.8,0-9,1.4-9,2s3.1,2,9,2s9-1.4,9-2C29.5,3.6,26.4,2.3,20.5,2.3z"/>
	</g>
	<g>
		<path fill="#8F9BA8" d="M20.2,12.5c-1.1,0-2.1,0-3.1-0.1c-0.1,0-6.2-0.7-6.6-1l0.9-1.2l-0.5,0.6l0.2-0.7c0.4,0.1,5.8,0.8,6.1,0.8
			c1,0.1,2,0.1,3,0.1c6.1,0,9.3-1.5,9.3-2.1H31C31,11.4,25.4,12.5,20.2,12.5z"/>
	</g>
	<g>
		<path fill="#8F9BA8" d="M20.2,17.9v-1.5c6.2-0.1,9.3-1.6,9.3-2.2H31C31,17,24.2,17.8,20.2,17.9z"/>
	</g>
	<g>
		<rect x="10.1" y="4.2" fill="#8F9BA8" width="1.5" height="7"/>
	</g>
	<g>
		<path fill="#8F9BA8" d="M21.2,23v-1.5c5.5-0.1,8.4-1.4,8.4-2V4.2H31v15.3C31,22.2,24.8,23,21.2,23z"/>
	</g>
	<g>
		<circle fill="#FAC2C3" cx="11.3" cy="20.9" r="9.6"/>
		<path fill="#DA8C8C" d="M11.3,31.3C5.6,31.3,1,26.6,1,20.9s4.6-10.3,10.3-10.3s10.3,4.6,10.3,10.3C21.7,26.6,17,31.3,11.3,31.3z
			 M11.3,12.1c-4.9,0-8.8,4-8.8,8.8c0,4.9,4,8.8,8.8,8.8c4.9,0,8.8-4,8.8-8.8C20.2,16,16.2,12.1,11.3,12.1z"/>
	</g>
</g>
</svg>
