<?xml version="1.0" encoding="utf-8"?>
<!-- Generator: Adobe Illustrator 18.0.0, SVG Export Plug-In . SVG Version: 6.00 Build 0)  -->
<!DOCTYPE svg PUBLIC "-//W3C//DTD SVG 1.1//EN" "http://www.w3.org/Graphics/SVG/1.1/DTD/svg11.dtd">
<svg version="1.1" id="Layer_1" xmlns="http://www.w3.org/2000/svg" xmlns:xlink="http://www.w3.org/1999/xlink" x="0px" y="0px"
	 viewBox="0 0 32 32" enable-background="new 0 0 32 32" xml:space="preserve">
<g>
	<g>
		<path fill="#79C693" d="M19.9,8.2h-8.2L6.6,0.8h19L19.9,8.2z M12.4,6.7h6.7l3.4-4.4H9.4L12.4,6.7z"/>
	</g>
	<g>
		<path fill="#79C693" d="M16,31.3c-5.8,0-11.2-1-11.2-8.6c0-5.1,2.5-12.4,6.7-15.8l0.2-0.2h8.6l0.2,0.2c4.2,3.5,6.7,10.8,6.7,15.8
			C27.2,30.2,21.8,31.3,16,31.3z M12.3,8.2c-3.3,2.9-6,9.3-6,14.5c0,5.9,3.7,7.1,9.7,7.1s9.7-1.2,9.7-7.1c0-5.2-2.7-11.6-6-14.5
			C19.7,8.2,12.3,8.2,12.3,8.2z"/>
	</g>
</g>
</svg>
