<?xml version="1.0" encoding="utf-8"?>
<!-- Generator: Adobe Illustrator 18.0.0, SVG Export Plug-In . SVG Version: 6.00 Build 0)  -->
<!DOCTYPE svg PUBLIC "-//W3C//DTD SVG 1.1//EN" "http://www.w3.org/Graphics/SVG/1.1/DTD/svg11.dtd">
<svg version="1.1" id="Layer_1" xmlns="http://www.w3.org/2000/svg" xmlns:xlink="http://www.w3.org/1999/xlink" x="0px" y="0px"
	 viewBox="0 0 32 32" enable-background="new 0 0 32 32" xml:space="preserve">
<g>
	<g>
		<path fill="#B4A79C" d="M22.2,29h-3c-0.4,0-0.8-0.3-0.8-0.8V26c-2.5,0.6-5.2,0.7-7.8,0.1v2.2c0,0.4-0.3,0.8-0.8,0.8h-3
			C6.4,29,6,28.6,6,28.2v-4.3c0,0,0-0.1,0-0.1c0,0,0-0.1,0-0.2c0-2.5-1.8-4.5-4.3-4.9c-0.3,0-0.5-0.3-0.6-0.5
			c-0.2-0.8-0.3-1.5-0.3-2.3c0-1.1,0.2-2.3,0.7-3.4c0.2-0.4,0.6-0.5,1-0.4c0.4,0.2,0.8,0.2,1.3,0.2c1.8,0,3.3-1.5,3.3-3.3
			c0.1-1.9-0.9-3.7-1.7-4.6C5.1,4.2,5.1,3.9,5.1,3.6c0.1-0.3,0.3-0.5,0.6-0.5c0,0,0.6-0.1,1.4-0.1c1.5,0,4.1,0.3,6,2.3
			c0.4,0,0.8-0.1,1.2-0.1c7.5,0,13.6,4.7,13.6,10.6c0,3.2-1.8,6.2-5,8.2v4.2C22.9,28.6,22.6,29,22.2,29z M19.9,27.5h1.5v-3.9
			c0-0.3,0.1-0.5,0.4-0.6c2.9-1.7,4.6-4.3,4.6-7.1c0-5-5.4-9.1-12.1-9.1c-0.5,0-1,0-1.5,0.1c-0.3,0-0.5-0.1-0.7-0.3
			c-1.4-1.7-3.6-2.1-4.9-2.1c0.7,1.2,1.3,2.8,1.2,4.5c-0.1,2.7-2.2,4.8-4.8,4.8c-0.4,0-0.7,0-1.1-0.1c-0.2,0.7-0.4,1.4-0.4,2.2
			c0,0.5,0.1,0.9,0.2,1.4c3,0.7,5.1,3.3,5.1,6.4c0,0,0,0,0,0.1c0,0,0,0,0,0.1v3.7h1.5V25c0-0.2,0.1-0.5,0.3-0.6
			c0.2-0.1,0.4-0.2,0.7-0.1c3,0.9,6.1,0.8,8.9-0.1c0.2-0.1,0.5,0,0.7,0.1c0.2,0.1,0.3,0.4,0.3,0.6V27.5z"/>
	</g>
	<g>
		<path fill="#B4A79C" d="M27.3,15L27,13.5c2-0.4,2.8-2.1,2.8-2.2l1.4,0.6C31.2,12.1,30,14.5,27.3,15z"/>
	</g>
	<g>
		<rect x="10.4" y="10.4" fill="#B4A79C" width="1.5" height="1.5"/>
	</g>
</g>
</svg>
