<?xml version="1.0" encoding="utf-8"?>
<!-- Generator: Adobe Illustrator 18.0.0, SVG Export Plug-In . SVG Version: 6.00 Build 0)  -->
<!DOCTYPE svg PUBLIC "-//W3C//DTD SVG 1.1//EN" "http://www.w3.org/Graphics/SVG/1.1/DTD/svg11.dtd">
<svg version="1.1" id="Layer_1" xmlns="http://www.w3.org/2000/svg" xmlns:xlink="http://www.w3.org/1999/xlink" x="0px" y="0px"
	 viewBox="0 0 32 32" enable-background="new 0 0 32 32" xml:space="preserve">
<g>
	<g>
		<path fill="#F2E8B9" d="M14,24.3c-3.1-0.7-5.6-3.2-6.3-6.3H1.6c0.9,6.5,6,11.6,12.5,12.5V24.3z"/>
		<path fill="#B4A042" d="M14.8,31.3l-0.8-0.1C7.1,30.3,1.7,24.9,0.8,18.1l-0.1-0.8h7.6l0.1,0.6c0.7,2.8,2.9,5.1,5.7,5.7l0.6,0.1
			V31.3z M2.4,18.7c1.1,5.5,5.4,9.8,10.9,10.8v-4.7c-2.9-0.9-5.2-3.2-6.1-6.1H2.4z"/>
	</g>
	<g>
		<path fill="#8F9BA8" d="M17.2,31.3v-7.6l0.6-0.1c3.5-0.8,6-3.9,6-7.5c0-4.3-3.5-7.7-7.7-7.7c-3.6,0-6.7,2.5-7.5,6l-0.1,0.6H0.7
			L0.8,14C1.8,6.4,8.3,0.7,16,0.7c8.5,0,15.3,6.9,15.3,15.3c0,7.6-5.7,14.2-13.3,15.2L17.2,31.3z M18.7,24.8v4.7
			c6.4-1.3,11.1-6.9,11.1-13.5c0-7.6-6.2-13.8-13.8-13.8C9.4,2.2,3.7,6.9,2.4,13.3h4.7c1.2-3.9,4.7-6.5,8.8-6.5
			c5.1,0,9.2,4.1,9.2,9.2C25.2,20.1,22.6,23.7,18.7,24.8z"/>
	</g>
</g>
</svg>
