<?xml version="1.0" encoding="utf-8"?>
<!-- Generator: Adobe Illustrator 18.0.0, SVG Export Plug-In . SVG Version: 6.00 Build 0)  -->
<!DOCTYPE svg PUBLIC "-//W3C//DTD SVG 1.1//EN" "http://www.w3.org/Graphics/SVG/1.1/DTD/svg11.dtd">
<svg version="1.1" id="Layer_1" xmlns="http://www.w3.org/2000/svg" xmlns:xlink="http://www.w3.org/1999/xlink" x="0px" y="0px"
	 viewBox="0 0 32 32" enable-background="new 0 0 32 32" xml:space="preserve">
<g>
	<g>
		<path fill="#F0F7F7" d="M30.4,14.4c0-7.1-5.8-12.9-12.9-12.9v12.9L30.4,14.4z"/>
		<path fill="#8F9BA8" d="M31.2,15.1H16.8V0.8h0.8c7.5,0,13.6,6.1,13.6,13.6V15.1z M18.3,13.6h11.4c-0.4-6.1-5.3-11-11.4-11.4V13.6z
			"/>
	</g>
	<g>
		<path fill="#79C693" d="M14.5,31.3c-7.5,0-13.6-6.1-13.6-13.6C0.8,10.1,6.9,4,14.5,4h0.8v12.9h12.9v0.8
			C28.1,25.1,22,31.3,14.5,31.3z M13.7,5.5C7.4,5.9,2.3,11.2,2.3,17.6c0,6.7,5.4,12.1,12.1,12.1c6.4,0,11.7-5,12.1-11.4H13.7V5.5z"
			/>
	</g>
</g>
</svg>
