<?xml version="1.0" encoding="utf-8"?>
<!-- Generator: Adobe Illustrator 18.0.0, SVG Export Plug-In . SVG Version: 6.00 Build 0)  -->
<!DOCTYPE svg PUBLIC "-//W3C//DTD SVG 1.1//EN" "http://www.w3.org/Graphics/SVG/1.1/DTD/svg11.dtd">
<svg version="1.1" id="Layer_1" xmlns="http://www.w3.org/2000/svg" xmlns:xlink="http://www.w3.org/1999/xlink" x="0px" y="0px"
	 viewBox="0 0 32 32" enable-background="new 0 0 32 32" xml:space="preserve">
<g>
	<g>
		<rect x="9.6" y="7.8" fill="#B4A79C" width="1" height="1.5"/>
	</g>
	<g>
		<rect x="13.6" y="7.8" fill="#B4A79C" width="8.8" height="1.5"/>
	</g>
	<g>
		<rect x="9.6" y="12.8" fill="#B4A79C" width="1" height="1.5"/>
	</g>
	<g>
		<rect x="13.6" y="12.8" fill="#B4A79C" width="8.8" height="1.5"/>
	</g>
	<g>
		<rect x="9.6" y="17.7" fill="#B4A79C" width="1" height="1.5"/>
	</g>
	<g>
		<rect x="13.6" y="17.7" fill="#B4A79C" width="8.8" height="1.5"/>
	</g>
	<g>
		<rect x="9.6" y="22.7" fill="#B4A79C" width="1" height="1.5"/>
	</g>
	<g>
		<rect x="13.6" y="22.7" fill="#B4A79C" width="8.8" height="1.5"/>
	</g>
	<g>
		<path fill="#B4A79C" d="M27.2,31.3H4.8c-0.4,0-0.8-0.3-0.8-0.8v-29c0-0.4,0.3-0.8,0.8-0.8h22.5c0.4,0,0.8,0.3,0.8,0.8v29
			C28,30.9,27.6,31.3,27.2,31.3z M5.5,29.8h21V2.3h-21V29.8z"/>
	</g>
</g>
</svg>
