<?xml version="1.0" encoding="utf-8"?>
<!-- Generator: Adobe Illustrator 18.0.0, SVG Export Plug-In . SVG Version: 6.00 Build 0)  -->
<!DOCTYPE svg PUBLIC "-//W3C//DTD SVG 1.1//EN" "http://www.w3.org/Graphics/SVG/1.1/DTD/svg11.dtd">
<svg version="1.1" id="Layer_1" xmlns="http://www.w3.org/2000/svg" xmlns:xlink="http://www.w3.org/1999/xlink" x="0px" y="0px"
	 viewBox="0 0 32 32" enable-background="new 0 0 32 32" xml:space="preserve">
<g>
	<g>
		<rect x="9.2" y="5" fill="#FAC2C3" width="13.5" height="9.6"/>
		<path fill="#DA8C8C" d="M22.8,15.3H9.2c-0.4,0-0.8-0.3-0.8-0.8V5c0-0.4,0.3-0.8,0.8-0.8h13.5c0.4,0,0.8,0.3,0.8,0.8v9.6
			C23.5,15,23.2,15.3,22.8,15.3z M10,13.8h12V5.7H10V13.8z"/>
	</g>
	<g>
		<path fill="#CDE4F7" d="M20.1,22.3c0,2.3-1.8,4.1-4.1,4.1c-2.2,0-4.1-1.8-4.1-4.1s1.8-4.1,4.1-4.1C18.2,18.3,20.1,20.1,20.1,22.3z
			"/>
		<path fill="#74B1E0" d="M16,27.2c-2.7,0-4.8-2.2-4.8-4.8c0-2.7,2.2-4.8,4.8-4.8c2.7,0,4.8,2.2,4.8,4.8S18.7,27.2,16,27.2z M16,19
			c-1.8,0-3.3,1.5-3.3,3.3s1.5,3.3,3.3,3.3s3.3-1.5,3.3-3.3S17.8,19,16,19z"/>
	</g>
	<g>
		<path fill="#8F9BA8" d="M27,31.3H5V0.8h22V31.3z M6.5,29.8h19V2.3h-19V29.8z"/>
	</g>
</g>
</svg>
