<?xml version="1.0" encoding="utf-8"?>
<!-- Generator: Adobe Illustrator 18.0.0, SVG Export Plug-In . SVG Version: 6.00 Build 0)  -->
<!DOCTYPE svg PUBLIC "-//W3C//DTD SVG 1.1//EN" "http://www.w3.org/Graphics/SVG/1.1/DTD/svg11.dtd">
<svg version="1.1" id="Layer_1" xmlns="http://www.w3.org/2000/svg" xmlns:xlink="http://www.w3.org/1999/xlink" x="0px" y="0px"
	 viewBox="0 0 32 32" enable-background="new 0 0 32 32" xml:space="preserve">
<g>
	<g>
		<path fill="#8F9BA8" d="M28.5,27.8h-25c-1.5,0-2.8-1.2-2.8-2.8V10.4c0-1.5,1.2-2.8,2.8-2.8h25c1.5,0,2.8,1.2,2.8,2.8v14.7
			C31.3,26.6,30,27.8,28.5,27.8z M3.5,9.1c-0.7,0-1.3,0.6-1.3,1.3v14.7c0,0.7,0.6,1.3,1.3,1.3h25c0.7,0,1.3-0.6,1.3-1.3V10.4
			c0-0.7-0.6-1.3-1.3-1.3H3.5z"/>
	</g>
	<g>
		<circle fill="#CDE4F7" cx="20.5" cy="17.7" r="6.9"/>
		<path fill="#74B1E0" d="M20.5,25.4c-4.2,0-7.6-3.4-7.6-7.6c0-4.2,3.4-7.6,7.6-7.6c4.2,0,7.6,3.4,7.6,7.6
			C28.1,21.9,24.7,25.4,20.5,25.4z M20.5,11.6c-3.4,0-6.1,2.7-6.1,6.1c0,3.4,2.7,6.1,6.1,6.1c3.4,0,6.1-2.7,6.1-6.1
			C26.6,14.4,23.8,11.6,20.5,11.6z"/>
	</g>
	<g>
		<circle fill="#CDE4F7" cx="20.5" cy="17.7" r="3"/>
		<path fill="#74B1E0" d="M20.5,21.5c-2.1,0-3.7-1.7-3.7-3.7c0-2.1,1.7-3.7,3.7-3.7c2.1,0,3.7,1.7,3.7,3.7
			C24.2,19.8,22.5,21.5,20.5,21.5z M20.5,15.5c-1.2,0-2.2,1-2.2,2.2c0,1.2,1,2.2,2.2,2.2c1.2,0,2.2-1,2.2-2.2
			C22.7,16.5,21.7,15.5,20.5,15.5z"/>
	</g>
	<g>
		<line fill="#F0F7F7" x1="4.8" y1="15" x2="10.4" y2="15"/>
		<rect x="4.8" y="14.2" fill="#8F9BA8" width="5.6" height="1.5"/>
	</g>
	<g>
		<line fill="#F0F7F7" x1="4.8" y1="20.5" x2="10.4" y2="20.5"/>
		<rect x="4.8" y="19.8" fill="#8F9BA8" width="5.6" height="1.5"/>
	</g>
	<g>
		<path fill="#F0F7F7" d="M15,8.4H7.2V5.8c0-0.5,0.4-0.9,0.9-0.9h6c0.5,0,0.9,0.4,0.9,0.9V8.4z"/>
		<path fill="#8F9BA8" d="M15.7,9.1H6.4V5.8c0-0.9,0.7-1.7,1.7-1.7h6c0.9,0,1.7,0.7,1.7,1.7V9.1z M7.9,7.6h6.3V5.8
			c0-0.1-0.1-0.2-0.2-0.2h-6C8,5.7,7.9,5.7,7.9,5.8V7.6z"/>
	</g>
</g>
</svg>
