<?xml version="1.0" encoding="utf-8"?>
<!-- Generator: Adobe Illustrator 18.0.0, SVG Export Plug-In . SVG Version: 6.00 Build 0)  -->
<!DOCTYPE svg PUBLIC "-//W3C//DTD SVG 1.1//EN" "http://www.w3.org/Graphics/SVG/1.1/DTD/svg11.dtd">
<svg version="1.1" id="Layer_1" xmlns="http://www.w3.org/2000/svg" xmlns:xlink="http://www.w3.org/1999/xlink" x="0px" y="0px"
	 viewBox="0 0 32 32" enable-background="new 0 0 32 32" xml:space="preserve">
<g>
	<g>
		<rect x="1.9" y="14.2" fill="#79C693" width="5.6" height="1.5"/>
	</g>
	<g>
		<rect x="1.9" y="19.8" fill="#79C693" width="5.6" height="1.5"/>
	</g>
	<g>
		<path fill="#8F9BA8" d="M28.5,27.8h-25c-1.5,0-2.8-1.2-2.8-2.8V10.4c0-1.5,1.2-2.7,2.8-2.7h25c1.5,0,2.8,1.2,2.8,2.7v14.7
			C31.3,26.6,30,27.8,28.5,27.8z M3.5,9.1c-0.7,0-1.3,0.6-1.3,1.3v14.7c0,0.7,0.6,1.3,1.3,1.3h25c0.7,0,1.3-0.6,1.3-1.3V10.4
			c0-0.7-0.6-1.3-1.3-1.3H3.5z"/>
	</g>
	<g>
		<path fill="#79C693" d="M20.5,24.6c-3.8,0-6.9-3.1-6.9-6.9c0-3.8,3.1-6.9,6.9-6.9c3.8,0,6.9,3.1,6.9,6.9
			C27.3,21.5,24.3,24.6,20.5,24.6z M20.5,12.4c-3,0-5.4,2.4-5.4,5.4c0,3,2.4,5.4,5.4,5.4c3,0,5.4-2.4,5.4-5.4
			C25.8,14.8,23.4,12.4,20.5,12.4z"/>
	</g>
	<g>
		<path fill="#8F9BA8" d="M25.1,9.1h-9.3V5.8c0-0.9,0.7-1.7,1.7-1.7h6c0.9,0,1.7,0.7,1.7,1.7V9.1z M17.3,7.6h6.3V5.8
			c0-0.1-0.1-0.2-0.2-0.2h-6c-0.1,0-0.2,0.1-0.2,0.2V7.6z"/>
	</g>
</g>
</svg>
