<?xml version="1.0" encoding="utf-8"?>
<!-- Generator: Adobe Illustrator 18.0.0, SVG Export Plug-In . SVG Version: 6.00 Build 0)  -->
<!DOCTYPE svg PUBLIC "-//W3C//DTD SVG 1.1//EN" "http://www.w3.org/Graphics/SVG/1.1/DTD/svg11.dtd">
<svg version="1.1" id="Layer_1" xmlns="http://www.w3.org/2000/svg" xmlns:xlink="http://www.w3.org/1999/xlink" x="0px" y="0px"
	 viewBox="0 0 32 32" enable-background="new 0 0 32 32" xml:space="preserve">
<g>
	<g>
		<ellipse fill="#FAC2C3" cx="16" cy="20.9" rx="6.1" ry="6.3"/>
		<path fill="#DA8C8C" d="M16,27.9c-3.8,0-6.8-3.1-6.8-7c0-3.9,3.1-7,6.8-7s6.8,3.1,6.8,7C22.8,24.8,19.8,27.9,16,27.9z M16,15.4
			c-2.9,0-5.3,2.5-5.3,5.5s2.4,5.5,5.3,5.5c2.9,0,5.3-2.5,5.3-5.5S18.9,15.4,16,15.4z"/>
	</g>
	<g>
		<path fill="#8F9BA8" d="M26.5,31.3h-21c-2.5,0-4.6-2.1-4.6-4.7V15.3c0-2.6,2.1-4.8,4.6-4.8h5.9V7.8h9.2v2.8h5.9
			c2.5,0,4.6,2.1,4.6,4.8v11.2C31.1,29.1,29,31.3,26.5,31.3z M5.5,12.1c-1.7,0-3.1,1.5-3.1,3.3v11.2c0,1.8,1.4,3.2,3.1,3.2h21
			c1.7,0,3.1-1.5,3.1-3.2V15.3c0-1.8-1.4-3.3-3.1-3.3h-7.4V9.3h-6.2v2.8H5.5z"/>
	</g>
	<g>
		<path fill="#8F9BA8" d="M21.1,9.3h-11C8.6,9.3,7.4,8,7.4,6.5v-3c0-1.5,1.2-2.8,2.7-2.8h11c1.5,0,2.8,1.2,2.8,2.8v3
			C23.9,8,22.6,9.3,21.1,9.3z M10.1,2.3c-0.7,0-1.3,0.6-1.3,1.3v3c0,0.7,0.6,1.3,1.3,1.3h11c0.7,0,1.3-0.6,1.3-1.3v-3
			c0-0.7-0.6-1.3-1.3-1.3H10.1z"/>
	</g>
	<g>
		<rect x="12.4" y="4.3" fill="#8F9BA8" width="6.5" height="1.5"/>
	</g>
</g>
</svg>
