<?xml version="1.0" encoding="utf-8"?>
<!-- Generator: Adobe Illustrator 18.0.0, SVG Export Plug-In . SVG Version: 6.00 Build 0)  -->
<!DOCTYPE svg PUBLIC "-//W3C//DTD SVG 1.1//EN" "http://www.w3.org/Graphics/SVG/1.1/DTD/svg11.dtd">
<svg version="1.1" id="Layer_1" xmlns="http://www.w3.org/2000/svg" xmlns:xlink="http://www.w3.org/1999/xlink" x="0px" y="0px"
	 viewBox="0 0 32 32" enable-background="new 0 0 32 32" xml:space="preserve">
<g>
	<g>
		<polygon fill="#8F9BA8" points="26.7,9.8 25.2,9.8 25.2,4.9 6.8,4.9 6.8,9.8 5.3,9.8 5.3,3.4 26.7,3.4 		"/>
	</g>
	<g>
		<path fill="#8F9BA8" d="M28.5,28.6h-25c-1.5,0-2.8-1.2-2.8-2.8V11.5C0.8,10,2,8.8,3.5,8.8h25c1.5,0,2.8,1.2,2.8,2.8v14.3
			C31.3,27.4,30,28.6,28.5,28.6z M3.5,10.3c-0.7,0-1.3,0.6-1.3,1.3v14.3c0,0.7,0.6,1.3,1.3,1.3h25c0.7,0,1.3-0.6,1.3-1.3V11.5
			c0-0.7-0.6-1.3-1.3-1.3H3.5z"/>
	</g>
	<g>
		<path fill="#B4A79C" d="M9.7,25c-3.6,0-6.5-2.9-6.5-6.5c0-3.6,2.9-6.5,6.5-6.5c3.6,0,6.5,2.9,6.5,6.5C16.2,22.1,13.3,25,9.7,25z
			 M9.7,13.6c-2.7,0-5,2.2-5,5s2.2,5,5,5s5-2.2,5-5S12.5,13.6,9.7,13.6z"/>
	</g>
	<g>
		<rect x="18.6" y="14.4" fill="#F9F8F2" width="8.7" height="5.6"/>
		<path fill="#B4A79C" d="M28.1,20.8H17.9v-7.1h10.2V20.8z M19.4,19.3h7.2v-4.1h-7.2V19.3z"/>
	</g>
	<g>
		<rect x="26.4" y="23.3" fill="#B4A79C" width="1.5" height="0.9"/>
	</g>
	<g>
		<rect x="23.4" y="23.3" fill="#B4A79C" width="1.5" height="0.9"/>
	</g>
	<g>
		<rect x="20.4" y="23.3" fill="#B4A79C" width="1.5" height="0.9"/>
	</g>
	<g>
		<rect x="17.3" y="23.3" fill="#B4A79C" width="1.5" height="0.9"/>
	</g>
</g>
</svg>
