<?xml version="1.0" encoding="utf-8"?>
<!-- Generator: Adobe Illustrator 18.0.0, SVG Export Plug-In . SVG Version: 6.00 Build 0)  -->
<!DOCTYPE svg PUBLIC "-//W3C//DTD SVG 1.1//EN" "http://www.w3.org/Graphics/SVG/1.1/DTD/svg11.dtd">
<svg version="1.1" id="Layer_1" xmlns="http://www.w3.org/2000/svg" xmlns:xlink="http://www.w3.org/1999/xlink" x="0px" y="0px"
	 viewBox="0 0 32 32" enable-background="new 0 0 32 32" xml:space="preserve">
<g>
	<g>
		<path fill="#8F9BA8" d="M23.8,31.3H8.2c-1.5,0-2.8-1.2-2.8-2.8v-25c0-1.5,1.2-2.8,2.8-2.8h15.6c1.5,0,2.8,1.2,2.8,2.8v25
			C26.5,30,25.3,31.3,23.8,31.3z M8.2,2.3C7.5,2.3,7,2.8,7,3.5v25c0,0.7,0.6,1.3,1.3,1.3h15.6c0.7,0,1.3-0.6,1.3-1.3v-25
			c0-0.7-0.6-1.3-1.3-1.3H8.2z"/>
	</g>
	<g>
		<circle fill="#CDE4F7" cx="16" cy="20.8" r="6.9"/>
		<path fill="#74B1E0" d="M16,28.4c-4.2,0-7.6-3.4-7.6-7.6s3.4-7.6,7.6-7.6c4.2,0,7.6,3.4,7.6,7.6S20.2,28.4,16,28.4z M16,14.6
			c-3.4,0-6.1,2.8-6.1,6.1s2.8,6.1,6.1,6.1c3.4,0,6.1-2.8,6.1-6.1S19.4,14.6,16,14.6z"/>
	</g>
	<g>
		<path fill="#74B1E0" d="M16,11.5c-2.2,0-3.9-1.8-3.9-3.9c0-2.2,1.8-3.9,3.9-3.9c2.2,0,3.9,1.8,3.9,3.9C19.9,9.8,18.2,11.5,16,11.5
			z M16,5.2c-1.3,0-2.4,1.1-2.4,2.4C13.6,9,14.7,10,16,10c1.3,0,2.4-1.1,2.4-2.4C18.4,6.3,17.3,5.2,16,5.2z"/>
	</g>
	<g>
		<circle fill="#CDE4F7" cx="16" cy="20.7" r="3.2"/>
		<path fill="#74B1E0" d="M16,24.6c-2.2,0-3.9-1.8-3.9-3.9c0-2.2,1.8-3.9,3.9-3.9c2.2,0,3.9,1.8,3.9,3.9
			C19.9,22.9,18.2,24.6,16,24.6z M16,18.3c-1.3,0-2.4,1.1-2.4,2.4c0,1.3,1.1,2.4,2.4,2.4c1.3,0,2.4-1.1,2.4-2.4
			C18.4,19.4,17.3,18.3,16,18.3z"/>
	</g>
</g>
</svg>
