<?xml version="1.0" encoding="utf-8"?>
<!-- Generator: Adobe Illustrator 18.0.0, SVG Export Plug-In . SVG Version: 6.00 Build 0)  -->
<!DOCTYPE svg PUBLIC "-//W3C//DTD SVG 1.1//EN" "http://www.w3.org/Graphics/SVG/1.1/DTD/svg11.dtd">
<svg version="1.1" id="Layer_1" xmlns="http://www.w3.org/2000/svg" xmlns:xlink="http://www.w3.org/1999/xlink" x="0px" y="0px"
	 viewBox="0 0 32 32" enable-background="new 0 0 32 32" xml:space="preserve">
<g>
	<g>
		<path fill="#79C693" d="M1.5,31.3c-0.1,0-0.2,0-0.3-0.1c-0.3-0.1-0.5-0.4-0.5-0.7v-29c0-0.3,0.2-0.6,0.5-0.7C1.5,0.7,1.8,0.8,2,1
			l14.9,14.5c0.1,0.1,0.2,0.3,0.2,0.5c0,0.2-0.1,0.4-0.2,0.5L2,31C1.9,31.2,1.7,31.3,1.5,31.3z M2.3,3.3v25.5L15.3,16L2.3,3.3z"/>
	</g>
	<g>
		<path fill="#79C693" d="M31.3,31.3H20.3V0.7h10.9V31.3z M21.8,29.8h7.9V2.2h-7.9V29.8z"/>
	</g>
</g>
</svg>
