<?xml version="1.0" encoding="utf-8"?>
<!-- Generator: Adobe Illustrator 18.0.0, SVG Export Plug-In . SVG Version: 6.00 Build 0)  -->
<!DOCTYPE svg PUBLIC "-//W3C//DTD SVG 1.1//EN" "http://www.w3.org/Graphics/SVG/1.1/DTD/svg11.dtd">
<svg version="1.1" id="Layer_1" xmlns="http://www.w3.org/2000/svg" xmlns:xlink="http://www.w3.org/1999/xlink" x="0px" y="0px"
	 viewBox="0 0 32 32" enable-background="new 0 0 32 32" xml:space="preserve">
<g>
	<g>
		<path fill="#8F9BA8" d="M19,28.1H1.5c-0.4,0-0.8-0.3-0.8-0.8V1.8C0.8,1.4,1.1,1,1.5,1h17.6c0.4,0,0.8,0.3,0.8,0.8v7.3h7.3
			c0.4,0,0.8,0.3,0.8,0.8v8.6c0,0.3-0.1,0.5-0.4,0.6c-0.2,0.1-0.5,0.1-0.7,0c-0.8-0.4-1.6-0.6-2.5-0.6c-3,0-5.5,2.5-5.5,5.5
			c0,1.1,0.3,2.1,0.9,3c0.1,0.2,0.2,0.5,0,0.8C19.5,28,19.3,28.1,19,28.1z M2.3,26.6h15.5c-0.3-0.8-0.5-1.7-0.5-2.6c0-3.9,3.1-7,7-7
			c0.7,0,1.4,0.1,2.1,0.3v-6.8h-7.3c-0.4,0-0.8-0.3-0.8-0.8V2.5H2.3V26.6z"/>
	</g>
	<g>
		<path fill="#8F9BA8" d="M27.1,10.6h-8c-0.4,0-0.8-0.3-0.8-0.8v-8c0-0.3,0.2-0.6,0.5-0.7C19.1,1,19.4,1,19.6,1.2l8,8
			c0.2,0.2,0.3,0.5,0.2,0.8C27.7,10.4,27.4,10.6,27.1,10.6z M19.8,9.1h5.5l-5.5-5.5V9.1z"/>
	</g>
	<g>
		<path fill="#79C693" d="M24.3,31c-2.4,0-4.6-1.2-5.9-3.2c-0.7-1.1-1.1-2.4-1.1-3.8c0-3.9,3.1-7,7-7c1.1,0,2.2,0.3,3.2,0.8
			c2.4,1.2,3.8,3.6,3.8,6.2C31.3,27.8,28.1,31,24.3,31z M24.3,18.5c-3,0-5.5,2.5-5.5,5.5c0,1.1,0.3,2.1,0.9,3c1,1.6,2.7,2.5,4.6,2.5
			c3,0,5.5-2.5,5.5-5.5c0-2.1-1.2-3.9-3-4.9C26,18.7,25.1,18.5,24.3,18.5z"/>
	</g>
	<g>
		<polygon fill="#79C693" points="23,27.3 20.6,24.8 21.6,23.8 23,25.1 26.9,21.2 28,22.3 		"/>
	</g>
</g>
</svg>
