<?xml version="1.0" encoding="utf-8"?>
<!-- Generator: Adobe Illustrator 18.0.0, SVG Export Plug-In . SVG Version: 6.00 Build 0)  -->
<!DOCTYPE svg PUBLIC "-//W3C//DTD SVG 1.1//EN" "http://www.w3.org/Graphics/SVG/1.1/DTD/svg11.dtd">
<svg version="1.1" id="Layer_1" xmlns="http://www.w3.org/2000/svg" xmlns:xlink="http://www.w3.org/1999/xlink" x="0px" y="0px"
	 viewBox="0 0 32 32" enable-background="new 0 0 32 32" xml:space="preserve">
<g>
	<g>
		<path fill="#CDE4F7" d="M2.2,11.5c-0.5,1.4-0.7,2.9-0.7,4.5c0,6.4,4.2,11.8,9.9,13.7L16,16L2.2,11.5z"/>
		<path fill="#74B1E0" d="M11.9,30.7l-0.7-0.2C4.9,28.4,0.7,22.6,0.7,16c0-1.6,0.3-3.2,0.8-4.7l0.2-0.7l15.2,5L11.9,30.7z M2.7,12.4
			c-0.3,1.2-0.5,2.4-0.5,3.6c0,5.7,3.5,10.7,8.7,12.8L15,16.5L2.7,12.4z"/>
	</g>
	<g>
		<path fill="#74B1E0" d="M16,31.3c-1.6,0-3.2-0.3-4.8-0.8l-0.7-0.2L15,16.5L1.3,12l0.2-0.7C3.6,5,9.4,0.8,16,0.8
			c8.4,0,15.3,6.8,15.3,15.2S24.4,31.3,16,31.3z M12.4,29.3c1.2,0.3,2.4,0.5,3.6,0.5c7.6,0,13.8-6.2,13.8-13.8
			c0-7.6-6.2-13.7-13.8-13.7C10.3,2.3,5.2,5.7,3.2,11l13.8,4.5L12.4,29.3z"/>
	</g>
	<g>
		
			<rect x="6.2" y="8.5" transform="matrix(0.3522 0.9359 -0.9359 0.3522 17.3332 -6.6153)" fill="#74B1E0" width="14.5" height="1.5"/>
	</g>
	<g>
		
			<rect x="20" y="3.3" transform="matrix(0.7567 0.6538 -0.6538 0.7567 11.9198 -11.001)" fill="#74B1E0" width="1.5" height="14.5"/>
	</g>
</g>
</svg>
