<?xml version="1.0" encoding="utf-8"?>
<!-- Generator: Adobe Illustrator 18.0.0, SVG Export Plug-In . SVG Version: 6.00 Build 0)  -->
<!DOCTYPE svg PUBLIC "-//W3C//DTD SVG 1.1//EN" "http://www.w3.org/Graphics/SVG/1.1/DTD/svg11.dtd">
<svg version="1.1" id="Layer_1" xmlns="http://www.w3.org/2000/svg" xmlns:xlink="http://www.w3.org/1999/xlink" x="0px" y="0px"
	 viewBox="0 0 32 32" enable-background="new 0 0 32 32" xml:space="preserve">
<g>
	<g>
		<polygon fill="#8F9BA8" points="12.3,25.1 10.8,25.1 10.8,3.7 31,1.2 31,22.8 29.5,22.8 29.5,2.9 12.3,5 		"/>
	</g>
	<g>
		<path fill="#8F9BA8" d="M25.3,27.9c-3.1,0-5.7-2.5-5.7-5.7s2.5-5.7,5.7-5.7c3.1,0,5.7,2.5,5.7,5.7S28.5,27.9,25.3,27.9z
			 M25.3,18.1c-2.3,0-4.2,1.9-4.2,4.2c0,2.3,1.9,4.2,4.2,4.2c2.3,0,4.2-1.9,4.2-4.2C29.5,19.9,27.6,18.1,25.3,18.1z"/>
	</g>
	<g>
		<path fill="#8F9BA8" d="M6.7,30.8c-3.1,0-5.7-2.5-5.7-5.7s2.5-5.7,5.7-5.7c3.1,0,5.7,2.5,5.7,5.7S9.8,30.8,6.7,30.8z M6.7,20.9
			c-2.3,0-4.2,1.9-4.2,4.2c0,2.3,1.9,4.2,4.2,4.2c2.3,0,4.2-1.9,4.2-4.2C10.8,22.8,9,20.9,6.7,20.9z"/>
	</g>
	<g>
		
			<rect x="20.7" y="-1.9" transform="matrix(0.1322 0.9912 -0.9912 0.1322 26.0223 -14.7961)" fill="#8F9BA8" width="1.5" height="18.7"/>
	</g>
</g>
</svg>
