<?xml version="1.0" encoding="utf-8"?>
<!-- Generator: Adobe Illustrator 18.0.0, SVG Export Plug-In . SVG Version: 6.00 Build 0)  -->
<!DOCTYPE svg PUBLIC "-//W3C//DTD SVG 1.1//EN" "http://www.w3.org/Graphics/SVG/1.1/DTD/svg11.dtd">
<svg version="1.1" id="Layer_1" xmlns="http://www.w3.org/2000/svg" xmlns:xlink="http://www.w3.org/1999/xlink" x="0px" y="0px"
	 viewBox="0 0 32 32" enable-background="new 0 0 32 32" xml:space="preserve">
<g>
	<g>
		<path fill="#8F9BA8" d="M28.5,30.5h-25c-1.5,0-2.8-1.2-2.8-2.8V10.3c0-1.5,1.2-2.8,2.8-2.8h25c1.5,0,2.8,1.2,2.8,2.8v17.4
			C31.3,29.2,30,30.5,28.5,30.5z M3.5,9c-0.7,0-1.3,0.6-1.3,1.3v17.4c0,0.7,0.6,1.3,1.3,1.3h25c0.7,0,1.3-0.6,1.3-1.3V10.3
			c0-0.7-0.6-1.3-1.3-1.3H3.5z"/>
	</g>
	<g>
		<path fill="#79C693" d="M20.5,27.3H5.6c-1,0-1.8-0.8-1.8-1.8V12.4c0-1,0.8-1.8,1.8-1.8h14.9c1,0,1.8,0.8,1.8,1.8v13.2
			C22.2,26.5,21.4,27.3,20.5,27.3z M5.6,12.2c-0.1,0-0.3,0.1-0.3,0.3v13.2c0,0.1,0.1,0.3,0.3,0.3h14.9c0.1,0,0.3-0.1,0.3-0.3V12.4
			c0-0.1-0.1-0.3-0.3-0.3H5.6V12.2z"/>
	</g>
	<g>
		
			<rect x="18.7" y="0.5" transform="matrix(-0.6496 -0.7603 0.7603 -0.6496 28.2799 23.0845)" fill="#8F9BA8" width="1.5" height="9"/>
	</g>
	<g>
		
			<rect x="8.1" y="4.3" transform="matrix(-0.7602 -0.6497 0.6497 -0.7602 18.8474 17.0809)" fill="#8F9BA8" width="9" height="1.5"/>
	</g>
	<g>
		<path fill="#79C693" d="M25.8,24.6c-1.1,0-2.1-0.9-2.1-2.1c0-1.1,0.9-2.1,2.1-2.1c1.1,0,2.1,0.9,2.1,2.1S27,24.6,25.8,24.6z
			 M25.8,22c-0.3,0-0.6,0.3-0.6,0.6c0,0.3,0.3,0.6,0.6,0.6c0.3,0,0.6-0.3,0.6-0.6S26.1,22,25.8,22z"/>
	</g>
	<g>
		<rect x="24.5" y="13.4" fill="#79C693" width="2.6" height="1.5"/>
	</g>
	<g>
		<rect x="24.5" y="17.1" fill="#79C693" width="2.6" height="1.5"/>
	</g>
</g>
</svg>
