<?xml version="1.0" encoding="utf-8"?>
<!-- Generator: Adobe Illustrator 18.0.0, SVG Export Plug-In . SVG Version: 6.00 Build 0)  -->
<!DOCTYPE svg PUBLIC "-//W3C//DTD SVG 1.1//EN" "http://www.w3.org/Graphics/SVG/1.1/DTD/svg11.dtd">
<svg version="1.1" id="Layer_1" xmlns="http://www.w3.org/2000/svg" xmlns:xlink="http://www.w3.org/1999/xlink" x="0px" y="0px"
	 viewBox="0 0 32 32" enable-background="new 0 0 32 32" xml:space="preserve">
<g>
	<g>
		<path fill="#8F9BA8" d="M13,31.3H3.7c-1.6,0-2.9-1.3-2.9-2.9V3.7c0-1.6,1.3-2.9,2.9-2.9H13c1.6,0,2.9,1.3,2.9,2.9v24.6
			C15.9,29.9,14.6,31.3,13,31.3z M3.7,2.3c-0.8,0-1.4,0.6-1.4,1.4v24.6c0,0.8,0.6,1.4,1.4,1.4H13c0.8,0,1.4-0.6,1.4-1.4V3.7
			c0-0.8-0.6-1.4-1.4-1.4H3.7z"/>
	</g>
	<g>
		<circle fill="#F2E8B9" cx="8.3" cy="8.9" r="3.5"/>
		<path fill="#B4A042" d="M8.3,13.1c-2.4,0-4.3-1.9-4.3-4.3c0-2.4,1.9-4.3,4.3-4.3s4.3,1.9,4.3,4.3C12.6,11.2,10.7,13.1,8.3,13.1z
			 M8.3,6.1c-1.5,0-2.8,1.2-2.8,2.8c0,1.5,1.2,2.8,2.8,2.8c1.5,0,2.8-1.2,2.8-2.8C11.1,7.3,9.9,6.1,8.3,6.1z"/>
	</g>
	<g>
		<path fill="#8F9BA8" d="M28.4,16.1h-8.1c-1.6,0-2.8-1.3-2.8-2.8V3.6c0-1.6,1.3-2.8,2.8-2.8h8.1c1.6,0,2.8,1.3,2.8,2.8v9.7
			C31.3,14.8,30,16.1,28.4,16.1z M20.4,2.3c-0.7,0-1.3,0.6-1.3,1.3v9.7c0,0.7,0.6,1.3,1.3,1.3h8.1c0.7,0,1.3-0.6,1.3-1.3V3.6
			c0-0.7-0.6-1.3-1.3-1.3H20.4z"/>
	</g>
	<g>
		<rect x="15.2" y="11.9" fill="#8F9BA8" width="3.1" height="1.5"/>
	</g>
	<g>
		<rect x="15.2" y="3.4" fill="#8F9BA8" width="3.1" height="1.5"/>
	</g>
</g>
</svg>
