<?xml version="1.0" encoding="utf-8"?>
<!-- Generator: Adobe Illustrator 18.0.0, SVG Export Plug-In . SVG Version: 6.00 Build 0)  -->
<!DOCTYPE svg PUBLIC "-//W3C//DTD SVG 1.1//EN" "http://www.w3.org/Graphics/SVG/1.1/DTD/svg11.dtd">
<svg version="1.1" id="Layer_1" xmlns="http://www.w3.org/2000/svg" xmlns:xlink="http://www.w3.org/1999/xlink" x="0px" y="0px"
	 viewBox="0 0 32 32" enable-background="new 0 0 32 32" xml:space="preserve">
<g>
	<g>
		<path fill="#DA8C8C" d="M16,15.5c-3.1,0-5.6-2.5-5.6-5.6c0-3.1,2.5-5.6,5.6-5.6c3.1,0,5.6,2.5,5.6,5.6
			C21.6,12.9,19.1,15.5,16,15.5z M16,5.7c-2.3,0-4.1,1.8-4.1,4.1S13.7,14,16,14c2.3,0,4.1-1.8,4.1-4.1S18.3,5.7,16,5.7z"/>
	</g>
	<g>
		<path fill="#FAC2C3" d="M28.1,30.5C27.8,23,22.5,17,16,17S4.2,23,3.9,30.5H28.1z"/>
		<path fill="#DA8C8C" d="M28.8,31.3H3.2l0-0.8c0.3-8,5.9-14.2,12.8-14.2c6.9,0,12.5,6.2,12.8,14.2L28.8,31.3z M4.7,29.8h22.5
			c-0.6-6.8-5.4-12-11.3-12C10.1,17.8,5.3,23,4.7,29.8z"/>
	</g>
	<g>
		<path fill="#8F9BA8" d="M31.3,31.3H0.8V0.8h30.5V31.3z M2.3,29.8h27.5V2.3H2.3V29.8z"/>
	</g>
</g>
</svg>
