<?xml version="1.0" encoding="utf-8"?>
<!-- Generator: Adobe Illustrator 18.0.0, SVG Export Plug-In . SVG Version: 6.00 Build 0)  -->
<!DOCTYPE svg PUBLIC "-//W3C//DTD SVG 1.1//EN" "http://www.w3.org/Graphics/SVG/1.1/DTD/svg11.dtd">
<svg version="1.1" id="Layer_1" xmlns="http://www.w3.org/2000/svg" xmlns:xlink="http://www.w3.org/1999/xlink" x="0px" y="0px"
	 viewBox="0 0 32 32" enable-background="new 0 0 32 32" xml:space="preserve">
<g>
	<g>
		<circle fill="#F9F8F2" cx="9.3" cy="14.1" r="2.5"/>
		<path fill="#B4A79C" d="M9.3,17.4c-1.8,0-3.2-1.4-3.2-3.2c0-1.8,1.4-3.2,3.2-3.2c1.8,0,3.2,1.4,3.2,3.2
			C12.5,15.9,11.1,17.4,9.3,17.4z M9.3,12.4c-1,0-1.7,0.8-1.7,1.7c0,1,0.8,1.7,1.7,1.7c1,0,1.7-0.8,1.7-1.7
			C11,13.2,10.2,12.4,9.3,12.4z"/>
	</g>
	<g>
		<circle fill="#F9F8F2" cx="22.7" cy="14.1" r="2.5"/>
		<path fill="#B4A79C" d="M22.7,17.4c-1.8,0-3.2-1.4-3.2-3.2c0-1.8,1.4-3.2,3.2-3.2c1.8,0,3.2,1.4,3.2,3.2
			C25.9,15.9,24.5,17.4,22.7,17.4z M22.7,12.4c-1,0-1.7,0.8-1.7,1.7c0,1,0.8,1.7,1.7,1.7c1,0,1.7-0.8,1.7-1.7
			C24.4,13.2,23.7,12.4,22.7,12.4z"/>
	</g>
	<g>
		<polyline fill="#F9F8F2" points="7,25.6 9.2,21 22.5,21 25,25.6 		"/>
		<polygon fill="#B4A79C" points="24.3,25.9 22,21.7 9.7,21.7 7.7,25.9 6.3,25.3 8.7,20.2 22.9,20.2 25.6,25.2 		"/>
	</g>
	<g>
		<path fill="#B4A79C" d="M31.3,26.3H0.8V5.7h30.5V26.3z M2.3,24.8h27.5V7.2H2.3V24.8z"/>
	</g>
</g>
</svg>
