<?xml version="1.0" encoding="utf-8"?>
<!-- Generator: Adobe Illustrator 18.0.0, SVG Export Plug-In . SVG Version: 6.00 Build 0)  -->
<!DOCTYPE svg PUBLIC "-//W3C//DTD SVG 1.1//EN" "http://www.w3.org/Graphics/SVG/1.1/DTD/svg11.dtd">
<svg version="1.1" id="Layer_1" xmlns="http://www.w3.org/2000/svg" xmlns:xlink="http://www.w3.org/1999/xlink" x="0px" y="0px"
	 viewBox="0 0 32 32" enable-background="new 0 0 32 32" xml:space="preserve">
<g>
	<g>
		<path fill="#8F9BA8" d="M22.9,30.2H2.5c-1,0-1.7-0.8-1.7-1.8V14.3c0-1,0.8-1.8,1.7-1.8h20.4c1,0,1.8,0.8,1.8,1.8v14.1
			C24.7,29.4,23.9,30.2,22.9,30.2z M2.5,14.1c-0.1,0-0.3,0.1-0.3,0.3v14.1c0,0.1,0.1,0.3,0.3,0.3h20.4c0.1,0,0.3-0.1,0.3-0.3V14.3
			c0-0.1-0.1-0.3-0.3-0.3H2.5z"/>
	</g>
	<g>
		<polygon fill="#F0F7F7" points="23.9,25 30.5,28.2 30.5,14.5 23.9,17.9 		"/>
		<path fill="#8F9BA8" d="M31.3,29.4l-8.1-3.9v-8.1l8.1-4.1V29.4z M24.7,24.6l5.1,2.5V15.7l-5.1,2.6V24.6z"/>
	</g>
	<g>
		<line fill="#CDE4F7" x1="5.7" y1="17.5" x2="13.1" y2="17.5"/>
		<rect x="5.7" y="16.7" fill="#B4A042" width="7.4" height="1.5"/>
	</g>
	<g>
		<path fill="#8F9BA8" d="M17.7,11.3c-2.6,0-4.7-2.1-4.7-4.7c0-2.6,2.1-4.7,4.7-4.7c2.6,0,4.7,2.1,4.7,4.7
			C22.4,9.1,20.3,11.3,17.7,11.3z M17.7,3.3c-1.8,0-3.2,1.4-3.2,3.2c0,1.8,1.4,3.2,3.2,3.2c1.8,0,3.2-1.4,3.2-3.2
			C20.9,4.8,19.4,3.3,17.7,3.3z"/>
	</g>
	<g>
		<path fill="#8F9BA8" d="M7.4,10.6c-2,0-3.7-1.6-3.7-3.7c0-2,1.6-3.7,3.7-3.7S11,4.9,11,6.9C11,8.9,9.4,10.6,7.4,10.6z M7.4,4.7
			c-1.2,0-2.2,1-2.2,2.2c0,1.2,1,2.2,2.2,2.2c1.2,0,2.2-1,2.2-2.2C9.5,5.7,8.6,4.7,7.4,4.7z"/>
	</g>
</g>
</svg>
