<?xml version="1.0" encoding="utf-8"?>
<!-- Generator: Adobe Illustrator 18.0.0, SVG Export Plug-In . SVG Version: 6.00 Build 0)  -->
<!DOCTYPE svg PUBLIC "-//W3C//DTD SVG 1.1//EN" "http://www.w3.org/Graphics/SVG/1.1/DTD/svg11.dtd">
<svg version="1.1" id="Layer_1" xmlns="http://www.w3.org/2000/svg" xmlns:xlink="http://www.w3.org/1999/xlink" x="0px" y="0px"
	 viewBox="0 0 32 32" enable-background="new 0 0 32 32" xml:space="preserve">
<g>
	<g>
		<path fill="#79C693" d="M31.3,24.4h-1.5v-6.8c0-8.3-6.2-15-13.8-15c-7.6,0-13.8,6.8-13.8,15v6.8H0.8v-6.8C0.8,8.4,7.6,1,16,1
			c8.4,0,15.3,7.4,15.3,16.5V24.4z"/>
	</g>
	<g>
		<path fill="#79C693" d="M7.3,31c-3.6,0-6.6-3-6.6-6.6s3-6.6,6.6-6.6c0.7,0,1.3,0.1,1.9,0.3l0.5,0.2v12.3l-0.5,0.2
			C8.6,30.9,8,31,7.3,31z M7.3,19.3c-2.8,0-5.1,2.3-5.1,5.1c0,2.8,2.3,5.1,5.1,5.1c0.3,0,0.6,0,1-0.1v-10C8,19.3,7.7,19.3,7.3,19.3z
			"/>
	</g>
	<g>
		<path fill="#79C693" d="M24.7,31c-0.7,0-1.3-0.1-1.9-0.3l-0.5-0.2V18.3l0.5-0.2c0.6-0.2,1.3-0.3,1.9-0.3c3.6,0,6.6,3,6.6,6.6
			S28.3,31,24.7,31z M23.7,29.4c0.3,0.1,0.6,0.1,1,0.1c2.8,0,5.1-2.3,5.1-5.1c0-2.8-2.3-5.1-5.1-5.1c-0.3,0-0.6,0-1,0.1V29.4z"/>
	</g>
</g>
</svg>
