<?xml version="1.0" encoding="utf-8"?>
<!-- Generator: Adobe Illustrator 18.0.0, SVG Export Plug-In . SVG Version: 6.00 Build 0)  -->
<!DOCTYPE svg PUBLIC "-//W3C//DTD SVG 1.1//EN" "http://www.w3.org/Graphics/SVG/1.1/DTD/svg11.dtd">
<svg version="1.1" id="Layer_1" xmlns="http://www.w3.org/2000/svg" xmlns:xlink="http://www.w3.org/1999/xlink" x="0px" y="0px"
	 viewBox="0 0 32 32" enable-background="new 0 0 32 32" xml:space="preserve">
<g>
	<g>
		<path fill="#8F9BA8" d="M26.9,30.9c-1,0-2-0.3-2.8-1l-15.2-13l1-1.1l15.2,13c1.1,1,2.8,0.9,3.9-0.2c1-1.1,1.1-2.8,0-3.9L15.4,10
			l1.1-1l13.6,14.7c1.6,1.7,1.5,4.3-0.1,6C29.2,30.5,28.1,30.9,26.9,30.9z"/>
	</g>
	<g>
		
			<rect x="17.5" y="18.6" transform="matrix(0.7205 0.6935 -0.6935 0.7205 18.8869 -8.0705)" fill="#8F9BA8" width="3.9" height="1.5"/>
	</g>
	<g>
		<path fill="#8F9BA8" d="M4.6,15.8l-0.5-0.4c-0.4-0.3-0.7-0.5-0.9-0.8c-3.1-3-3.2-8-0.2-11.1c1.5-1.6,3.5-2.4,5.7-2.4
			c2,0,4,0.8,5.5,2.2c0.4,0.3,0.7,0.7,1,1.2L15.4,5L4.6,15.8z M8.6,2.6c-1.7,0-3.4,0.7-4.6,2c-2.4,2.5-2.4,6.6,0.2,9
			c0.1,0.1,0.2,0.2,0.3,0.2l9-9c-0.1-0.2-0.3-0.3-0.4-0.4C11.8,3.2,10.3,2.6,8.6,2.6z"/>
	</g>
	<g>
		<path fill="#F0F7F7" d="M4.5,14.8c2.8,2,6.7,1.7,9.2-0.9c2.4-2.5,2.6-6.3,0.7-9L4.5,14.8z"/>
		<path fill="#8F9BA8" d="M8.6,16.8C8.6,16.8,8.6,16.8,8.6,16.8c-1.6,0-3.2-0.5-4.5-1.4l-0.7-0.5L14.6,3.7l0.5,0.7
			c2.2,3.1,1.8,7.3-0.8,10C12.8,16,10.8,16.8,8.6,16.8z M5.7,14.6c0.9,0.5,1.9,0.7,2.9,0.7c1.7,0,3.4-0.7,4.6-1.9
			c1.9-2,2.3-4.9,1.1-7.3L5.7,14.6z"/>
	</g>
</g>
</svg>
