<?xml version="1.0" encoding="utf-8"?>
<!-- Generator: Adobe Illustrator 18.0.0, SVG Export Plug-In . SVG Version: 6.00 Build 0)  -->
<!DOCTYPE svg PUBLIC "-//W3C//DTD SVG 1.1//EN" "http://www.w3.org/Graphics/SVG/1.1/DTD/svg11.dtd">
<svg version="1.1" id="Layer_1" xmlns="http://www.w3.org/2000/svg" xmlns:xlink="http://www.w3.org/1999/xlink" x="0px" y="0px"
	 viewBox="0 0 32 32" enable-background="new 0 0 32 32" xml:space="preserve">
<g>
	<g>
		<path fill="#8F9BA8" d="M28.5,31.3h-25c-1.5,0-2.8-1.2-2.8-2.8v-25C0.8,2,2,0.8,3.5,0.8h25c1.5,0,2.8,1.2,2.8,2.8v25
			C31.3,30,30,31.3,28.5,31.3z M3.5,2.3c-0.7,0-1.3,0.6-1.3,1.3v25c0,0.7,0.6,1.3,1.3,1.3h25c0.7,0,1.3-0.6,1.3-1.3v-25
			c0-0.7-0.6-1.3-1.3-1.3C28.5,2.3,3.5,2.3,3.5,2.3z"/>
	</g>
	<g>
		<rect x="2.2" y="6.8" fill="#8F9BA8" width="27.6" height="1.5"/>
	</g>
	<g>
		<rect x="2.2" y="23.7" fill="#8F9BA8" width="27.6" height="1.5"/>
	</g>
	<g>
		<rect x="8" y="1.8" fill="#8F9BA8" width="1.5" height="5"/>
	</g>
	<g>
		<rect x="15.2" y="1.8" fill="#8F9BA8" width="1.5" height="5"/>
	</g>
	<g>
		<rect x="22.5" y="1.8" fill="#8F9BA8" width="1.5" height="5"/>
	</g>
	<g>
		<rect x="8" y="24.8" fill="#8F9BA8" width="1.5" height="5"/>
	</g>
	<g>
		<rect x="15.2" y="24.8" fill="#8F9BA8" width="1.5" height="5"/>
	</g>
	<g>
		<rect x="22.5" y="24.8" fill="#8F9BA8" width="1.5" height="5"/>
	</g>
	<g>
		<path fill="#FAC2C3" d="M12.2,12.7v6.7c0,1.2,1.4,1.9,2.3,1.1l4.8-3.7c0.5-0.4,0.5-1.1,0-1.5l-4.8-3.7
			C13.6,10.8,12.2,11.5,12.2,12.7z"/>
		<path fill="#DA8C8C" d="M13.7,21.5L13.7,21.5c-1.2,0-2.2-1-2.2-2.2v-6.7c0-1.2,1-2.2,2.2-2.2c0.5,0,0.9,0.2,1.3,0.5l4.8,3.7
			c0.4,0.3,0.7,0.8,0.7,1.4c0,0.5-0.2,1-0.7,1.4L15,21.1C14.6,21.4,14.2,21.5,13.7,21.5z M13.7,12c-0.3,0-0.7,0.3-0.7,0.7v6.7
			c0,0.4,0.4,0.7,0.7,0.7l0,0c0.1,0,0.3,0,0.4-0.1l4.8-3.7C19,16.1,19,16,19,16s0-0.1-0.1-0.2l-4.8-3.7C14,12,13.8,12,13.7,12z"/>
	</g>
</g>
</svg>
