<?xml version="1.0" encoding="utf-8"?>
<!-- Generator: Adobe Illustrator 18.0.0, SVG Export Plug-In . SVG Version: 6.00 Build 0)  -->
<!DOCTYPE svg PUBLIC "-//W3C//DTD SVG 1.1//EN" "http://www.w3.org/Graphics/SVG/1.1/DTD/svg11.dtd">
<svg version="1.1" id="Layer_1" xmlns="http://www.w3.org/2000/svg" xmlns:xlink="http://www.w3.org/1999/xlink" x="0px" y="0px"
	 viewBox="0 0 32 32" enable-background="new 0 0 32 32" xml:space="preserve">
<g>
	<g>
		<path fill="#F9F8F2" d="M17,26c0,2.6-2.1,4.7-4.7,4.7c-2.6,0-4.7-2.1-4.7-4.7c0-2.6,2.1-4.7,4.7-4.7C14.8,21.3,17,23.4,17,26z"/>
		<path fill="#B4A79C" d="M12.2,31.5c-3,0-5.5-2.5-5.5-5.5c0-3,2.5-5.5,5.5-5.5c3,0,5.5,2.5,5.5,5.5C17.7,29,15.2,31.5,12.2,31.5z
			 M12.2,22c-2.2,0-4,1.8-4,4c0,2.2,1.8,4,4,4c2.2,0,4-1.8,4-4C16.2,23.8,14.4,22,12.2,22z"/>
	</g>
	<g>
		<path fill="#B4A79C" d="M17.7,25.9h-1.5V0.5L17.3,1c0.3,0.2,8.3,3.9,8,12L23.7,13c0.2-5.5-4-8.8-6-10V25.9z"/>
	</g>
</g>
</svg>
