<?xml version="1.0" encoding="utf-8"?>
<!-- Generator: Adobe Illustrator 18.0.0, SVG Export Plug-In . SVG Version: 6.00 Build 0)  -->
<!DOCTYPE svg PUBLIC "-//W3C//DTD SVG 1.1//EN" "http://www.w3.org/Graphics/SVG/1.1/DTD/svg11.dtd">
<svg version="1.1" id="Layer_1" xmlns="http://www.w3.org/2000/svg" xmlns:xlink="http://www.w3.org/1999/xlink" x="0px" y="0px"
	 viewBox="0 0 32 32" enable-background="new 0 0 32 32" xml:space="preserve">
<g>
	<g>
		<path fill="#79C693" d="M16,11.8c-2,0-3.7-1.7-3.7-3.7S14,4.4,16,4.4s3.7,1.7,3.7,3.7C19.7,10.2,18,11.8,16,11.8z M16,5.9
			c-1.2,0-2.2,1-2.2,2.2s1,2.2,2.2,2.2s2.2-1,2.2-2.2S17.2,5.9,16,5.9z"/>
	</g>
	<g>
		<path fill="#79C693" d="M16,27.2c-2,0-3.7-1.7-3.7-3.7s1.7-3.7,3.7-3.7s3.7,1.7,3.7,3.7C19.7,25.6,18,27.2,16,27.2z M16,21.3
			c-1.2,0-2.2,1-2.2,2.2s1,2.2,2.2,2.2s2.2-1,2.2-2.2S17.2,21.3,16,21.3z"/>
	</g>
	<g>
		<path fill="#79C693" d="M23.7,19.5c-2,0-3.7-1.7-3.7-3.7s1.7-3.7,3.7-3.7s3.7,1.7,3.7,3.7C27.4,17.9,25.7,19.5,23.7,19.5z
			 M23.7,13.6c-1.2,0-2.2,1-2.2,2.2s1,2.2,2.2,2.2s2.2-1,2.2-2.2C25.9,14.6,24.9,13.6,23.7,13.6z"/>
	</g>
	<g>
		<g>
			<path fill="#8F9BA8" d="M16,31C7.7,31,0.9,24.2,0.9,15.8C0.9,7.5,7.7,0.7,16,0.7s15.1,6.8,15.1,15.1C31.1,24.2,24.3,31,16,31z
				 M16,2.2C8.5,2.2,2.4,8.3,2.4,15.8S8.5,29.4,16,29.4s13.6-6.1,13.6-13.6S23.5,2.2,16,2.2z"/>
		</g>
		<g>
			<path fill="#79C693" d="M8.3,19.5c-2,0-3.7-1.7-3.7-3.7s1.7-3.7,3.7-3.7s3.7,1.7,3.7,3.7C12,17.9,10.3,19.5,8.3,19.5z M8.3,13.6
				c-1.2,0-2.2,1-2.2,2.2s1,2.2,2.2,2.2s2.2-1,2.2-2.2S9.5,13.6,8.3,13.6z"/>
		</g>
		<g>
			<path fill="#8F9BA8" d="M2.8,31.3l-1.1-1c2.2-2.6,9.3-1.7,10.1-1.5l-0.2,1.5C8.8,29.9,4.1,29.8,2.8,31.3z"/>
		</g>
	</g>
</g>
</svg>
