<?xml version="1.0" encoding="utf-8"?>
<!-- Generator: Adobe Illustrator 18.0.0, SVG Export Plug-In . SVG Version: 6.00 Build 0)  -->
<!DOCTYPE svg PUBLIC "-//W3C//DTD SVG 1.1//EN" "http://www.w3.org/Graphics/SVG/1.1/DTD/svg11.dtd">
<svg version="1.1" id="Layer_1" xmlns="http://www.w3.org/2000/svg" xmlns:xlink="http://www.w3.org/1999/xlink" x="0px" y="0px"
	 viewBox="0 0 32 32" enable-background="new 0 0 32 32" xml:space="preserve">
<g>
	<g>
		<path fill="#8F9BA8" d="M13.7,31.4L13.7,31.4c-4.7,0-9.2-1.8-12.5-5.2l-0.5-0.5L4,22.2l0.5,0.5c2.4,2.4,5.7,3.8,9.1,3.8
			c3.4,0,6.7-1.3,9.1-3.8c5-5,5-13.2,0-18.2L22.2,4l3.5-3.5l0.5,0.5c3.4,3.4,5.2,7.8,5.2,12.5c0,4.7-1.8,9.2-5.2,12.5
			C22.9,29.6,18.4,31.4,13.7,31.4z M2.7,25.7c3,2.7,6.9,4.2,10.9,4.2h0c4.3,0,8.4-1.7,11.5-4.8c3.1-3.1,4.8-7.1,4.8-11.5
			c0-4.1-1.5-7.9-4.2-10.9l-1.3,1.3c5.1,5.6,4.9,14.3-0.5,19.8c-2.7,2.7-6.3,4.2-10.1,4.2c-3.6,0-7-1.3-9.6-3.7L2.7,25.7z"/>
	</g>
	<g>
		
			<rect x="12.9" y="0.1" transform="matrix(0.7071 0.7071 -0.7071 0.7071 13.6678 -5.6627)" fill="#8F9BA8" width="1.5" height="27.2"/>
	</g>
	<g>
		<path fill="#8F9BA8" d="M13.7,28L13.7,28c-3.8,0-7.4-1.5-10.1-4.2L3,23.3L23.3,3l0.5,0.5c5.6,5.6,5.6,14.7,0,20.3
			C21.1,26.5,17.5,28,13.7,28z M5.1,23.3c2.3,2,5.2,3.2,8.2,3.2l-0.8-10.7L5.1,23.3z M14,15.7l0.8,10.8c2.6-0.2,5.1-1.2,7.1-2.9
			L14,15.7z M15,14.5l8,8c1.9-2,3.1-4.6,3.4-7.2L15,14.5z M15.4,13l11.1,0.8c0-3.1-1-6.2-3.2-8.7L15.4,13z"/>
	</g>
</g>
</svg>
