<?xml version="1.0" encoding="utf-8"?>
<!-- Generator: Adobe Illustrator 18.0.0, SVG Export Plug-In . SVG Version: 6.00 Build 0)  -->
<!DOCTYPE svg PUBLIC "-//W3C//DTD SVG 1.1//EN" "http://www.w3.org/Graphics/SVG/1.1/DTD/svg11.dtd">
<svg version="1.1" id="Layer_1" xmlns="http://www.w3.org/2000/svg" xmlns:xlink="http://www.w3.org/1999/xlink" x="0px" y="0px"
	 viewBox="0 0 32 32" enable-background="new 0 0 32 32" xml:space="preserve">
<g>
	<g>
		<path fill="#DA8C8C" d="M11.2,8.8c-2.1,0-4.9-0.9-6.3-5.1L4.7,2.9l0.7-0.3C5.4,2.6,7.2,2,9.2,2c3.4,0,5.5,1.9,5.8,5.3l0,0.5
			L14.6,8C14.6,8,13.1,8.8,11.2,8.8z M6.6,3.9c1,2.3,2.5,3.4,4.6,3.4c0.9,0,1.8-0.2,2.3-0.4c-0.4-2.3-1.8-3.4-4.2-3.4
			C8.2,3.5,7.2,3.7,6.6,3.9z"/>
	</g>
	<g>
		<path fill="#DA8C8C" d="M16,31.2c-6.4,0-11.7-5-11.7-11c0-6.1,5.2-11,11.7-11c6.4,0,11.7,5,11.7,11C27.7,26.3,22.4,31.2,16,31.2z
			 M16,10.7c-5.6,0-10.2,4.3-10.2,9.5c0,5.3,4.6,9.5,10.2,9.5c5.6,0,10.2-4.3,10.2-9.5C26.2,14.9,21.6,10.7,16,10.7z"/>
	</g>
	<g>
		<path fill="#DA8C8C" d="M15.8,10.1c0-0.1-1.3-7,6.2-9.3l0.4,1.4c-6.3,1.9-5.2,7.4-5.2,7.6L15.8,10.1z"/>
	</g>
</g>
</svg>
