<?xml version="1.0" encoding="utf-8"?>
<!-- Generator: Adobe Illustrator 18.0.0, SVG Export Plug-In . SVG Version: 6.00 Build 0)  -->
<!DOCTYPE svg PUBLIC "-//W3C//DTD SVG 1.1//EN" "http://www.w3.org/Graphics/SVG/1.1/DTD/svg11.dtd">
<svg version="1.1" id="Layer_1" xmlns="http://www.w3.org/2000/svg" xmlns:xlink="http://www.w3.org/1999/xlink" x="0px" y="0px"
	 viewBox="0 0 32 32" enable-background="new 0 0 32 32" xml:space="preserve">
<g>
	<g>
		<path fill="#B4A79C" d="M11,14.5c-1.3,0-2.6-0.5-3.5-1.5c-2-2-2-5.1,0-7.1C8.4,5,9.7,4.4,11,4.4c1.3,0,2.6,0.5,3.5,1.5
			C15.5,6.9,16,8.1,16,9.5c0,1.3-0.5,2.6-1.5,3.5C13.6,13.9,12.4,14.5,11,14.5z M11,5.9c-0.9,0-1.8,0.4-2.5,1c-1.4,1.4-1.4,3.6,0,5
			c1.3,1.3,3.6,1.3,5,0c0.7-0.7,1-1.5,1-2.5c0-0.9-0.4-1.8-1-2.5C12.8,6.3,12,5.9,11,5.9z"/>
	</g>
	<g>
		<path fill="#B4A79C" d="M17.1,20.5c-1.3,0-2.6-0.5-3.5-1.5c-0.9-0.9-1.5-2.2-1.5-3.5c0-1.3,0.5-2.6,1.5-3.5
			c0.9-0.9,2.2-1.5,3.5-1.5c1.3,0,2.6,0.5,3.5,1.5c2,2,2,5.1,0,7.1C19.7,20,18.4,20.5,17.1,20.5z M17.1,12c-0.9,0-1.8,0.4-2.5,1
			c-0.7,0.7-1,1.5-1,2.5s0.4,1.8,1,2.5c1.3,1.3,3.6,1.3,5,0c1.4-1.4,1.4-3.6,0-5C18.9,12.3,18,12,17.1,12z"/>
	</g>
	<g>
		<path fill="#B4A79C" d="M23.1,26.5c-1.3,0-2.6-0.5-3.5-1.5c-2-2-2-5.1,0-7.1c0.9-0.9,2.2-1.5,3.5-1.5c1.3,0,2.6,0.5,3.5,1.5
			c2,2,2,5.1,0,7.1C25.7,26,24.4,26.5,23.1,26.5z M23.1,18c-0.9,0-1.8,0.4-2.5,1c-1.4,1.4-1.4,3.6,0,5c1.3,1.3,3.6,1.3,5,0
			c1.4-1.4,1.4-3.6,0-5C24.9,18.4,24,18,23.1,18z"/>
	</g>
	<g>
		<path fill="#B4A79C" d="M8.6,22.9c-1.3,0-2.6-0.5-3.5-1.5c-2-2-2-5.1,0-7.1c0.9-0.9,2.2-1.5,3.5-1.5c1.3,0,2.6,0.5,3.5,1.5
			c0.9,0.9,1.5,2.2,1.5,3.5c0,1.3-0.5,2.6-1.5,3.5C11.2,22.4,10,22.9,8.6,22.9z M8.6,14.3c-0.9,0-1.8,0.4-2.5,1
			c-1.4,1.4-1.4,3.6,0,5c1.3,1.3,3.6,1.3,5,0c0.7-0.7,1-1.5,1-2.5c0-0.9-0.4-1.8-1-2.5C10.5,14.7,9.6,14.3,8.6,14.3z"/>
	</g>
	<g>
		<path fill="#B4A79C" d="M14.7,28.9c-1.3,0-2.6-0.5-3.5-1.5c-2-2-2-5.1,0-7.1c0.9-0.9,2.2-1.5,3.5-1.5c1.3,0,2.6,0.5,3.5,1.5
			c0.9,0.9,1.5,2.2,1.5,3.5c0,1.3-0.5,2.6-1.5,3.5C17.3,28.4,16,28.9,14.7,28.9z M14.7,20.4c-0.9,0-1.8,0.4-2.5,1
			c-1.4,1.4-1.4,3.6,0,5c1.3,1.3,3.6,1.3,5,0c0.7-0.7,1-1.5,1-2.5c0-0.9-0.4-1.8-1-2.5C16.5,20.7,15.6,20.4,14.7,20.4z"/>
	</g>
	<g>
		<path fill="#B4A79C" d="M6.2,31.3c-1.3,0-2.6-0.5-3.5-1.5c-2-2-2-5.1,0-7.1c0.9-0.9,2.2-1.5,3.5-1.5c1.3,0,2.6,0.5,3.5,1.5
			c0.9,0.9,1.5,2.2,1.5,3.5c0,1.3-0.5,2.6-1.5,3.5C8.8,30.8,7.6,31.3,6.2,31.3z M6.2,22.8c-0.9,0-1.8,0.4-2.5,1
			c-1.4,1.4-1.4,3.6,0,5c1.3,1.3,3.6,1.3,5,0c0.7-0.7,1-1.5,1-2.5c0-0.9-0.4-1.8-1-2.5C8,23.2,7.2,22.8,6.2,22.8z"/>
	</g>
	<g>
		<path fill="#B4A79C" d="M20.9,13.2l-1.3-0.8c0.1-0.2,2.5-3.8,6-4.2c1.8-0.2,3.5,0.5,5.1,2l-1,1.1c-1.3-1.2-2.6-1.7-3.9-1.6
			C23.1,10,20.9,13.2,20.9,13.2z"/>
	</g>
	<g>
		<path fill="#B4A79C" d="M20.6,9.1L20.6,9.1c-1.3,0-2.3-0.4-3.1-1.3c-2-2.1-1.8-6.1-1.8-6.3l0.1-0.9l0.8,0.2c3.1,0.7,5,1.9,5.8,3.6
			c0.9,2.1-0.2,4.1-0.2,4.2L22,9L21.7,9C21.3,9.1,20.9,9.1,20.6,9.1z M17.2,2.5c0,1.2,0.3,3.1,1.4,4.3c0.5,0.6,1.2,0.8,2,0.8
			c0,0,0,0,0,0c0.1,0,0.3,0,0.4,0c0.2-0.5,0.5-1.5,0-2.5C20.5,4,19.2,3.1,17.2,2.5z"/>
	</g>
</g>
</svg>
