<?xml version="1.0" encoding="utf-8"?>
<!-- Generator: Adobe Illustrator 18.0.0, SVG Export Plug-In . SVG Version: 6.00 Build 0)  -->
<!DOCTYPE svg PUBLIC "-//W3C//DTD SVG 1.1//EN" "http://www.w3.org/Graphics/SVG/1.1/DTD/svg11.dtd">
<svg version="1.1" id="Layer_1" xmlns="http://www.w3.org/2000/svg" xmlns:xlink="http://www.w3.org/1999/xlink" x="0px" y="0px"
	 viewBox="0 0 32 32" enable-background="new 0 0 32 32" xml:space="preserve">
<g>
	<g>
		<path fill="#74B1E0" d="M7.8,31.4c-2.3,0-4.1-0.6-5.4-1.8c-2-2-2.4-5.8-1-10.6c1-3.7,3.1-7.6,4.8-9.4c1.3-1.3,3.2-2,5.3-2
			c3.1,0,6.3,1.5,8.9,4c2.1,2.1,3.5,4.8,3.9,7.4c0.4,2.7-0.3,5.1-1.9,6.8C20.1,28.1,13.3,31.4,7.8,31.4z M11.5,9
			c-1.7,0-3.2,0.6-4.2,1.6C6,12,4,15.5,2.9,19.4c-0.7,2.5-1.6,6.9,0.6,9.1c0.9,0.9,2.4,1.4,4.3,1.4c4.9,0,11.5-3.1,13.6-5.2
			c1.3-1.3,1.8-3.3,1.5-5.5c-0.4-2.3-1.6-4.6-3.5-6.6C17.1,10.4,14.2,9,11.5,9z"/>
	</g>
	<g>
		<path fill="#74B1E0" d="M19.9,11.8l-0.4-0.4c-0.1-0.1-2.3-2.3-2-5.2C17.7,4.3,18.9,2.6,21,1l0.6-0.4L22,1.2c0.1,0.1,2.8,3.5,2,6.7
			c-0.4,1.6-1.6,2.9-3.7,3.8L19.9,11.8z M21.3,2.7c-1.4,1.1-2.1,2.4-2.2,3.7c-0.1,1.6,0.8,3,1.3,3.6c1.3-0.6,2-1.5,2.3-2.5
			C23,5.7,21.9,3.7,21.3,2.7z"/>
	</g>
	<g>
		<path fill="#74B1E0" d="M25.3,14.5C25.3,14.5,25.3,14.5,25.3,14.5c-2.7,0-4.7-2-4.8-2l-0.4-0.4l0.2-0.5c1.3-3.1,3.4-3.8,5-3.8
			c2.8,0,5.4,2.1,5.5,2.2l0.5,0.4L31,11C29.3,13.3,27.4,14.5,25.3,14.5z M22,11.7c0.6,0.5,1.8,1.3,3.3,1.3l0,0c1.4,0,2.8-0.8,4-2.2
			c-0.8-0.5-2.4-1.4-3.9-1.4C23.9,9.3,22.8,10.1,22,11.7z"/>
	</g>
	<g>
		
			<rect x="9.2" y="10.7" transform="matrix(0.7071 0.7071 -0.7071 0.7071 11.39 -3.5253)" fill="#74B1E0" width="1.5" height="2.5"/>
	</g>
	<g>
		
			<rect x="12.6" y="14.1" transform="matrix(0.7071 0.7071 -0.7071 0.7071 14.7449 -4.9147)" fill="#74B1E0" width="1.5" height="2.5"/>
	</g>
	<g>
		
			<rect x="15.9" y="17.4" transform="matrix(0.7071 0.7071 -0.7071 0.7071 18.1009 -6.3039)" fill="#74B1E0" width="1.5" height="2.5"/>
	</g>
	<g>
		
			<rect x="19.3" y="20.8" transform="matrix(0.7071 0.7071 -0.7071 0.7071 21.4557 -7.6934)" fill="#74B1E0" width="1.5" height="2.5"/>
	</g>
	<g>
		
			<rect x="6.9" y="16.4" transform="matrix(0.7071 0.7071 -0.7071 0.7071 14.7227 -0.2235)" fill="#74B1E0" width="1.5" height="2.5"/>
	</g>
	<g>
		
			<rect x="10.2" y="19.8" transform="matrix(0.7071 0.7071 -0.7071 0.7071 18.0772 -1.6129)" fill="#74B1E0" width="1.5" height="2.5"/>
	</g>
	<g>
		
			<rect x="13.6" y="23.1" transform="matrix(0.7071 0.7071 -0.7071 0.7071 21.4304 -3.0027)" fill="#74B1E0" width="1.5" height="2.5"/>
	</g>
	<g>
		
			<rect x="4.6" y="22.1" transform="matrix(0.7071 0.7071 -0.7071 0.7071 18.0549 3.0773)" fill="#74B1E0" width="1.5" height="2.5"/>
	</g>
	<g>
		
			<rect x="7.9" y="25.4" transform="matrix(0.7071 0.7071 -0.7071 0.7071 21.4115 1.6889)" fill="#74B1E0" width="1.5" height="2.5"/>
	</g>
</g>
</svg>
