<?xml version="1.0" encoding="utf-8"?>
<!-- Generator: Adobe Illustrator 18.0.0, SVG Export Plug-In . SVG Version: 6.00 Build 0)  -->
<!DOCTYPE svg PUBLIC "-//W3C//DTD SVG 1.1//EN" "http://www.w3.org/Graphics/SVG/1.1/DTD/svg11.dtd">
<svg version="1.1" id="Layer_1" xmlns="http://www.w3.org/2000/svg" xmlns:xlink="http://www.w3.org/1999/xlink" x="0px" y="0px"
	 viewBox="0 0 32 32" enable-background="new 0 0 32 32" xml:space="preserve">
<g>
	<g>
		<path fill="#8F9BA8" d="M19.8,31.2L19.8,31.2c-0.5,0-1,0-1.4-0.1c-0.8-0.2-1.6-0.5-2.4-1c-0.8,0.5-1.6,0.8-2.4,1
			c-0.5,0.1-1,0.1-1.4,0.1c-4.8,0-9.3-4.4-10.7-10.6C0.5,16.7,1.1,12.8,2.9,10c1.2-1.9,3-3.2,5-3.6C10.6,5.9,13.6,7,16,9.4
			c2.4-2.4,5.4-3.5,8.1-2.9c2,0.4,3.8,1.7,5,3.6c1.8,2.8,2.3,6.7,1.4,10.6C29.1,26.8,24.6,31.2,19.8,31.2z M16,28.2l0.4,0.3
			c0.8,0.6,1.5,0.9,2.2,1c0.4,0.1,0.8,0.1,1.2,0.1c4,0,8-4,9.3-9.4c0.8-3.5,0.4-7-1.2-9.5c-1-1.6-2.4-2.6-4.1-2.9
			c-2.4-0.5-5.1,0.6-7.2,3.1L16,11.6L15.4,11c-2.1-2.4-4.8-3.6-7.2-3.1c-1.6,0.3-3,1.3-4.1,2.9c-1.6,2.4-2,6-1.2,9.5
			c1.3,5.4,5.2,9.4,9.3,9.4c0.4,0,0.8,0,1.2-0.1c0.7-0.1,1.5-0.5,2.2-1L16,28.2z"/>
	</g>
	<g>
		<path fill="#8F9BA8" d="M15.2,10.4c0-0.3-1-7.1,3.6-9.6l0.7,1.3c-3.7,2-2.8,8-2.8,8L15.2,10.4z"/>
	</g>
	<g>
		
			<rect x="17.8" y="15.5" transform="matrix(0.6056 0.7957 -0.7957 0.6056 20.3388 -8.2591)" fill="#8F9BA8" width="1.5" height="1.8"/>
	</g>
	<g>
		
			<rect x="17.6" y="20.3" transform="matrix(0.7958 0.6055 -0.6055 0.7958 16.5322 -6.9026)" fill="#8F9BA8" width="1.8" height="1.5"/>
	</g>
	<g>
		
			<rect x="12.6" y="15.6" transform="matrix(0.7956 0.6059 -0.6059 0.7956 12.6898 -4.8273)" fill="#8F9BA8" width="1.8" height="1.5"/>
	</g>
	<g>
		
			<rect x="12.7" y="20.2" transform="matrix(0.6056 0.7957 -0.7957 0.6056 22.0852 -2.4338)" fill="#8F9BA8" width="1.5" height="1.8"/>
	</g>
</g>
</svg>
