<?xml version="1.0" encoding="utf-8"?>
<!-- Generator: Adobe Illustrator 18.0.0, SVG Export Plug-In . SVG Version: 6.00 Build 0)  -->
<!DOCTYPE svg PUBLIC "-//W3C//DTD SVG 1.1//EN" "http://www.w3.org/Graphics/SVG/1.1/DTD/svg11.dtd">
<svg version="1.1" id="Layer_1" xmlns="http://www.w3.org/2000/svg" xmlns:xlink="http://www.w3.org/1999/xlink" x="0px" y="0px"
	 viewBox="0 0 32 32" enable-background="new 0 0 32 32" xml:space="preserve">
<g>
	<g>
		<path fill="#B4A79C" d="M1.5,17.1c-0.1,0-0.2,0-0.3,0c-0.4-0.1-0.6-0.6-0.5-1L6,1.7c0.1-0.3,0.3-0.5,0.6-0.5
			c0.8-0.1,18.8-2.4,24.5,4.6c0.3,0.3,0.2,0.8-0.1,1.1c-0.3,0.3-0.8,0.2-1.1-0.1C25.2,1,10,2.3,7.2,2.6l-5,14
			C2.1,16.9,1.8,17.1,1.5,17.1z"/>
	</g>
	<g>
		<path fill="#B4A79C" d="M13.2,16.7c-1.7,0-3.3-1-4-2.5c-0.1-0.2-0.1-0.4,0-0.6c0.1-0.2,0.2-0.3,0.4-0.4l6.8-2.5
			c0.2-0.1,0.4-0.1,0.6,0c0.2,0.1,0.3,0.2,0.4,0.4c0.2,0.5,0.2,0.9,0.2,1.3C17.6,14.8,15.6,16.7,13.2,16.7z M11,14.2
			c0.5,0.6,1.3,1,2.2,1c1.6,0,2.9-1.2,2.9-2.8c0,0,0-0.1,0-0.1L11,14.2z"/>
	</g>
	<g>
		<path fill="#B4A79C" d="M1.5,31.3c-0.2,0-0.3,0-0.4-0.1c-0.2-0.1-0.3-0.4-0.3-0.6v-3.7c0-0.2,0.1-0.5,0.3-0.6
			c0.2-0.1,0.5-0.2,0.7-0.1c2,0.7,3.9-0.7,3.9-2.6c0-0.3-0.1-0.5-0.2-0.8C5,21.3,3.4,20.4,1.7,21c-0.2,0.1-0.5,0-0.7-0.1
			c-0.2-0.1-0.3-0.4-0.3-0.6v-3.4c0-0.3,0.2-0.6,0.5-0.7l8.3-3c0.4-0.1,0.8,0,0.9,0.4c0.5,1,1.5,1.7,2.7,1.7c1.6,0,2.9-1.2,2.9-2.8
			c0-0.3-0.1-0.5-0.2-0.8c-0.1-0.4,0.1-0.8,0.5-0.9l13.9-5.1c0.2-0.1,0.5-0.1,0.7,0.1c0.2,0.1,0.3,0.4,0.3,0.6v14.4
			c0,0.3-0.2,0.6-0.5,0.7L28.8,22c-0.2,0.1-0.5,0-0.7-0.1c-0.2-0.1-0.3-0.3-0.3-0.6c-0.1-1.4-1.4-2.6-2.9-2.6
			c-1.6,0-2.9,1.2-2.9,2.8c0,0.6,0.2,1.1,0.5,1.6c0.1,0.2,0.2,0.4,0.1,0.7c-0.1,0.2-0.2,0.4-0.5,0.5L1.7,31.2
			C1.7,31.2,1.6,31.3,1.5,31.3z M2.3,27.8v1.7l18.6-6.3c-0.2-0.5-0.3-1-0.3-1.6c0-2.3,2-4.3,4.4-4.3c2,0,3.7,1.3,4.2,3l0.6-0.2V7.3
			l-12.2,4.5c0,0.2,0.1,0.4,0.1,0.6c0,2.3-2,4.3-4.4,4.3c-1.5,0-2.9-0.7-3.7-1.9l-7.2,2.6v1.9c2.1-0.3,4,1,4.7,2.9
			c0.2,0.5,0.2,0.9,0.2,1.3C7.2,26.1,4.9,28.1,2.3,27.8z"/>
	</g>
	<g>
		<path fill="#B4A79C" d="M2.8,27.8c-0.5,0-1-0.1-1.5-0.3c-0.3-0.1-0.5-0.4-0.5-0.7v-6.6c0-0.3,0.2-0.6,0.5-0.7
			c2.5-0.9,4.9,0.5,5.7,2.7c0.2,0.5,0.2,0.9,0.2,1.3C7.2,25.9,5.2,27.8,2.8,27.8z M2.3,26.3c1.8,0.3,3.4-1,3.4-2.7
			c0-0.3-0.1-0.5-0.2-0.8c-0.4-1.3-1.8-2.1-3.3-1.9V26.3z"/>
	</g>
	<g>
		<path fill="#B4A79C" d="M22,24.3c-0.2,0-0.5-0.1-0.6-0.3c-0.5-0.7-0.8-1.6-0.8-2.5c0-2.3,2-4.3,4.4-4.3c2.3,0,4.2,1.7,4.4,4
			c0,0.3-0.2,0.7-0.5,0.8l-6.6,2.3C22.1,24.3,22,24.3,22,24.3z M24.9,18.8c-1.6,0-2.9,1.2-2.9,2.8c0,0.4,0.1,0.8,0.3,1.1l5.5-1.9
			C27.4,19.6,26.3,18.8,24.9,18.8z"/>
	</g>
</g>
</svg>
