<?xml version="1.0" encoding="utf-8"?>
<!-- Generator: Adobe Illustrator 18.0.0, SVG Export Plug-In . SVG Version: 6.00 Build 0)  -->
<!DOCTYPE svg PUBLIC "-//W3C//DTD SVG 1.1//EN" "http://www.w3.org/Graphics/SVG/1.1/DTD/svg11.dtd">
<svg version="1.1" id="Layer_1" xmlns="http://www.w3.org/2000/svg" xmlns:xlink="http://www.w3.org/1999/xlink" x="0px" y="0px"
	 viewBox="0 0 32 32" enable-background="new 0 0 32 32" xml:space="preserve">
<g>
	<g>
		<path fill="#DA8C8C" d="M28.3,15.7H3.7l-0.1-0.6c-0.1-0.7-0.1-1.3-0.1-1.8C3.5,6.4,9.1,0.8,16,0.8c6.9,0,12.5,5.6,12.5,12.5
			c0,0.5,0,1.1-0.1,1.8L28.3,15.7z M5,14.2H27c0-0.4,0.1-0.7,0.1-1c0-6.1-4.9-11-11-11c-6.1,0-11,4.9-11,11C5,13.6,5,13.9,5,14.2z"
			/>
	</g>
	<g>
		<path fill="#DA8C8C" d="M23.8,31.3H8.4l0.5-1.1c3.4-7.7,5-14.1,4.1-14.5l0.6-1.4c2.7,1.2-0.4,9.8-2.9,15.5h10.5
			c-1.8-4.6-1.5-14.3-1.5-14.8l1.5,0c-0.1,3.2,0.1,12.3,1.9,15.1L23.8,31.3z"/>
	</g>
	<g>
		<path fill="#DA8C8C" d="M18.3,8.4c-1.3,0-2.3-1-2.3-2.3c0-1.3,1-2.3,2.3-2.3c1.3,0,2.3,1,2.3,2.3C20.6,7.3,19.6,8.4,18.3,8.4z
			 M18.3,5.3c-0.4,0-0.8,0.4-0.8,0.8c0,0.4,0.4,0.8,0.8,0.8c0.4,0,0.8-0.4,0.8-0.8C19.1,5.6,18.8,5.3,18.3,5.3z"/>
	</g>
	<g>
		<path fill="#DA8C8C" d="M12.1,10.5c-1.3,0-2.3-1-2.3-2.3c0-1.3,1-2.3,2.3-2.3c1.3,0,2.3,1,2.3,2.3C14.3,9.5,13.3,10.5,12.1,10.5z
			 M12.1,7.4c-0.4,0-0.8,0.4-0.8,0.8c0,0.4,0.4,0.8,0.8,0.8c0.4,0,0.8-0.4,0.8-0.8C12.8,7.8,12.5,7.4,12.1,7.4z"/>
	</g>
</g>
</svg>
