<?xml version="1.0" encoding="utf-8"?>
<!-- Generator: Adobe Illustrator 18.0.0, SVG Export Plug-In . SVG Version: 6.00 Build 0)  -->
<!DOCTYPE svg PUBLIC "-//W3C//DTD SVG 1.1//EN" "http://www.w3.org/Graphics/SVG/1.1/DTD/svg11.dtd">
<svg version="1.1" id="Layer_1" xmlns="http://www.w3.org/2000/svg" xmlns:xlink="http://www.w3.org/1999/xlink" x="0px" y="0px"
	 viewBox="0 0 32 32" enable-background="new 0 0 32 32" xml:space="preserve">
<g>
	<g>
		<path fill="#B4A79C" d="M26,31.3c-1.3,0-2.4-0.5-3.3-1.4c-1.4,0.5-2.9,0.8-4.5,0.8c-4.3,0-8.7-2-11.9-5.4C1.8,20.6,0.3,14,2.4,8.7
			C1.6,7.8,1.2,6.6,1.2,5.4c0-1.3,0.6-2.5,1.5-3.3C3.6,1.2,4.8,0.8,6,0.8c1.3,0,2.4,0.5,3.3,1.4c1.4-0.5,2.9-0.8,4.5-0.8
			c4.3,0,8.7,2,11.9,5.4c4.5,4.7,6,11.3,3.9,16.6c1.7,1.9,1.6,4.9-0.3,6.6C28.4,30.8,27.2,31.3,26,31.3z M23.1,28.1l0.4,0.4
			c0,0,0.1,0.1,0.1,0.1l0.1,0.1c1.2,1.3,3.4,1.3,4.6,0.1c1.3-1.2,1.4-3.3,0.1-4.6c-0.1-0.1-0.2-0.1-0.2-0.2l-0.4-0.4l0.2-0.5
			c2.2-4.8,0.9-11-3.4-15.4c-3-3.1-6.9-4.9-10.8-4.9c-1.6,0-3,0.3-4.4,0.8L8.9,3.9L8.4,3.4c0,0,0-0.1-0.1-0.1C7.1,2,5,1.9,3.7,3.2
			c-0.6,0.6-1,1.4-1,2.3c0,0.9,0.3,1.7,0.9,2.3c0,0,0.1,0,0.1,0.1l0.5,0.5L4,8.8c-2.2,4.8-0.9,11,3.4,15.4c3,3.1,6.9,4.9,10.9,4.9
			c1.6,0,3-0.3,4.4-0.8L23.1,28.1z"/>
	</g>
	<g>
		
			<rect x="14.8" y="7.9" transform="matrix(0.8239 0.5667 -0.5667 0.8239 7.6343 -7.2692)" fill="#B4A79C" width="1.5" height="1.5"/>
	</g>
	<g>
		
			<rect x="16.2" y="10.9" transform="matrix(0.824 0.5666 -0.5666 0.824 9.5915 -7.5496)" fill="#B4A79C" width="1.5" height="1.5"/>
	</g>
	<g>
		<rect x="13" y="10.8" transform="matrix(0.8233 0.5676 -0.5676 0.8233 8.957 -5.7757)" fill="#B4A79C" width="1.5" height="1.5"/>
	</g>
</g>
</svg>
