<?xml version="1.0" encoding="utf-8"?>
<!-- Generator: Adobe Illustrator 18.0.0, SVG Export Plug-In . SVG Version: 6.00 Build 0)  -->
<!DOCTYPE svg PUBLIC "-//W3C//DTD SVG 1.1//EN" "http://www.w3.org/Graphics/SVG/1.1/DTD/svg11.dtd">
<svg version="1.1" id="Layer_1" xmlns="http://www.w3.org/2000/svg" xmlns:xlink="http://www.w3.org/1999/xlink" x="0px" y="0px"
	 viewBox="0 0 32 32" enable-background="new 0 0 32 32" xml:space="preserve">
<g>
	<g>
		<path fill="#74B1E0" d="M24.5,31.3c-3.4,0-6.2-2.8-6.2-6.2c0-3.4,2.8-6.2,6.2-6.2c3.4,0,6.2,2.8,6.2,6.2
			C30.8,28.4,28,31.3,24.5,31.3z M24.5,20.3c-2.6,0-4.7,2.1-4.7,4.7c0,2.6,2.1,4.7,4.7,4.7c2.6,0,4.7-2.1,4.7-4.7
			C29.3,22.4,27.1,20.3,24.5,20.3z"/>
	</g>
	<g>
		<path fill="#74B1E0" d="M7.5,31.3c-3.4,0-6.2-2.8-6.2-6.2c0-3.4,2.8-6.2,6.2-6.2c3.4,0,6.2,2.8,6.2,6.2
			C13.7,28.4,10.9,31.3,7.5,31.3z M7.5,20.3c-2.6,0-4.7,2.1-4.7,4.7c0,2.6,2.1,4.7,4.7,4.7c2.6,0,4.7-2.1,4.7-4.7
			C12.2,22.4,10.1,20.3,7.5,20.3z"/>
	</g>
	<g>
		<path fill="#74B1E0" d="M23.4,19.9c-0.3-0.5-7.6-12.8-2.1-19.2l1.1,1c-4.8,5.5,2.2,17.3,2.2,17.4L23.4,19.9z"/>
	</g>
	<g>
		<path fill="#74B1E0" d="M12.3,12.4H9.2c-3.7,0-6.8-3-6.8-6.8V2.4h3.1c3.7,0,6.8,3,6.8,6.8V12.4z M3.9,4v1.6c0,2.9,2.4,5.3,5.3,5.3
			h1.6V9.2C10.8,6.3,8.5,4,5.5,4H3.9z"/>
	</g>
	<g>
		<path fill="#74B1E0" d="M8.2,19.6l-1.5-0.2C8.3,9.6,19.4,6.7,19.9,6.5L20.2,8C20.1,8,9.6,10.8,8.2,19.6z"/>
	</g>
</g>
</svg>
