<?xml version="1.0" encoding="utf-8"?>
<!-- Generator: Adobe Illustrator 18.0.0, SVG Export Plug-In . SVG Version: 6.00 Build 0)  -->
<!DOCTYPE svg PUBLIC "-//W3C//DTD SVG 1.1//EN" "http://www.w3.org/Graphics/SVG/1.1/DTD/svg11.dtd">
<svg version="1.1" id="Layer_1" xmlns="http://www.w3.org/2000/svg" xmlns:xlink="http://www.w3.org/1999/xlink" x="0px" y="0px"
	 viewBox="0 0 32 32" enable-background="new 0 0 32 32" xml:space="preserve">
<g>
	<g>
		<circle fill="#F0F7F7" cx="16.1" cy="15.4" r="4.8"/>
		<path fill="#8F9BA8" d="M16.1,20.9c-3,0-5.5-2.5-5.5-5.5s2.5-5.5,5.5-5.5c3,0,5.5,2.5,5.5,5.5S19.1,20.9,16.1,20.9z M16.1,11.4
			c-2.3,0-4.1,1.8-4.1,4.1c0,2.3,1.8,4.1,4.1,4.1c2.3,0,4.1-1.8,4.1-4.1C20.2,13.2,18.3,11.4,16.1,11.4z"/>
	</g>
	<g>
		<path fill="#8F9BA8" d="M14.7,30c-1,0-2,0-3-0.1c-0.8,0-1.5-0.1-2.2-0.3c-1.7-0.6-2.7-2.1-3.5-3.2c-0.5-0.8-1.2-1.6-1.4-2.6
			c-0.2-0.6-0.2-1.2-0.2-1.8c0-0.3,0-0.6,0-0.9c-0.1-1.1-0.5-2.1-1.2-3c-0.2-0.3-0.4-0.5-0.7-0.8C2,16.9,1.6,16.5,1.3,16
			c-0.5-0.9-0.9-2.2-0.2-3.3c0.4-0.6,1-1,1.6-1.3c0.4-0.2,0.9-0.5,1.1-0.8C4,10.2,4,9.5,3.9,8.8l0-0.4c0-0.2,0-0.6,0.2-0.9
			C4.4,7.1,4.8,7,5,7c0.6-0.1,1.2,0.1,1.8,0.3c0.5,0.2,1,0.3,1.2,0.2C8.1,7.3,8.5,6.6,8.8,6c0.1-0.3,0.3-0.7,0.6-1.1
			c1.1-1.1,2.8-0.5,3.7-0.9c0.4-0.1,0.7-0.4,1.1-0.8c0.3-0.3,0.6-0.5,1-0.8c1.2-0.7,2.7-0.8,4.6-0.2c0.3,0.1,0.6,0.2,1,0.3
			c1,0.3,1.9,0.6,2.9,0.6c0.4,0,0.7,0,1-0.1c0.7-0.1,1.5-0.1,2.1,0c1.6,0.4,2.8,2,3.4,4.5c0.5,2,0.5,3.8,0.2,5.3
			c-0.1,0.3-0.1,0.5-0.2,0.8c-0.1,0.5-0.3,1-0.3,1.4c0,0.8,0.3,1.5,0.6,2.3c0.4,1.1,0.8,2.2,0.6,3.4c-0.3,1.2-1.1,2.3-2.7,3.2
			c-1.2,0.7-2.5,1.2-3.9,1.5c-0.3,0.1-0.6,0.1-0.9,0.1c-0.6,0.1-1.1,0.2-1.7,0.3c-1.1,0.3-2,1.1-2.6,2l-0.2,0.2
			c-0.2,0.3-0.5,0.7-0.8,1.1c-0.7,0.5-1.5,0.6-2.3,0.6C15.6,30,15.2,30,14.7,30z M5.3,8.3C5.3,8.3,5.3,8.3,5.3,8.3l0,0.4
			c0.1,0.8,0.1,1.8-0.4,2.6c-0.4,0.6-1,1-1.5,1.3c-0.4,0.2-0.9,0.5-1.1,0.8C2,14,2.2,14.8,2.5,15.3c0.2,0.4,0.6,0.8,0.9,1.1
			c0.3,0.3,0.5,0.6,0.7,0.9C5,18.4,5.5,19.6,5.6,21c0,0.3,0,0.7,0.1,1c0,0.5,0,1,0.1,1.5C6,24.2,6.5,25,7,25.6
			c0.9,1.2,1.7,2.3,2.9,2.7c0.5,0.2,1.2,0.2,1.8,0.2c1.5,0.1,2.9,0.1,4.4,0c0.6,0,1.1,0,1.5-0.3c0.2-0.1,0.3-0.4,0.5-0.7l0.2-0.3
			c0.8-1.2,2-2.1,3.4-2.6c0.6-0.2,1.3-0.3,1.9-0.4c0.3,0,0.6-0.1,0.8-0.1c1.2-0.2,2.4-0.7,3.5-1.3c1.2-0.7,1.8-1.5,2-2.3
			c0.2-0.8-0.2-1.7-0.5-2.6c-0.3-0.9-0.7-1.8-0.7-2.9c0-0.6,0.2-1.2,0.4-1.8c0.1-0.2,0.1-0.5,0.2-0.7c0.3-1.3,0.2-2.8-0.2-4.6
			c-0.3-1.1-0.9-3.1-2.4-3.4c-0.4-0.1-1.1-0.1-1.7,0c-0.4,0-0.7,0.1-1.1,0.1c0,0,0,0,0,0c-1.2,0-2.3-0.4-3.4-0.7
			c-0.3-0.1-0.6-0.2-0.9-0.3C18,3.2,16.8,3.2,16,3.7c-0.3,0.2-0.5,0.4-0.8,0.6c-0.4,0.4-0.9,0.8-1.6,1c-0.6,0.2-1.2,0.2-1.7,0.2
			c-0.7,0-1.2,0-1.5,0.3c-0.1,0.2-0.2,0.4-0.4,0.7C10,6.7,9.4,8,8.9,8.5C8.6,8.8,8.2,8.9,7.8,8.9c-0.5,0-1-0.2-1.4-0.4
			C6,8.4,5.6,8.3,5.3,8.3C5.3,8.3,5.3,8.3,5.3,8.3z"/>
	</g>
</g>
</svg>
