<?xml version="1.0" encoding="utf-8"?>
<!-- Generator: Adobe Illustrator 18.0.0, SVG Export Plug-In . SVG Version: 6.00 Build 0)  -->
<!DOCTYPE svg PUBLIC "-//W3C//DTD SVG 1.1//EN" "http://www.w3.org/Graphics/SVG/1.1/DTD/svg11.dtd">
<svg version="1.1" id="Layer_1" xmlns="http://www.w3.org/2000/svg" xmlns:xlink="http://www.w3.org/1999/xlink" x="0px" y="0px"
	 viewBox="0 0 32 32" enable-background="new 0 0 32 32" xml:space="preserve">
<g>
	<g>
		<path fill="#79C693" d="M28.6,31.1C28.6,31.1,28.6,31.1,28.6,31.1c-4.8,0-18.9-11.4-20.5-13c-2.3-2.4-1.9-6.7,1-9.4
			c1.5-1.5,3.5-2.3,5.4-2.3c1.6,0,3.1,0.6,4.1,1.7C20.2,9.7,30.8,24,30.7,29c0,0.7-0.2,1.2-0.6,1.6C29.8,30.9,29.3,31.1,28.6,31.1z
			 M14.6,7.9c-1.5,0-3.1,0.7-4.4,1.9c-2.3,2.2-2.7,5.5-1,7.3c2.2,2.3,15.5,12.5,19.4,12.5c0,0,0,0,0,0c0.2,0,0.4,0,0.5-0.1
			c0.1-0.1,0.1-0.3,0.1-0.5c0.1-4-9.5-17.6-11.7-19.9C16.8,8.3,15.8,7.9,14.6,7.9z"/>
	</g>
	<g>
		
			<rect x="22.3" y="17.8" transform="matrix(0.6923 0.7216 -0.7216 0.6923 21.5259 -10.469)" fill="#79C693" width="1.5" height="4.3"/>
	</g>
	<g>
		
			<rect x="18.9" y="12.4" transform="matrix(0.6923 0.7216 -0.7216 0.6923 17.1749 -9.4719)" fill="#79C693" width="1.5" height="6.1"/>
	</g>
	<g>
		
			<rect x="15.2" y="7.8" transform="matrix(0.6923 0.7216 -0.7216 0.6923 12.9791 -8.0643)" fill="#79C693" width="1.5" height="6.8"/>
	</g>
	<g>
		<path fill="#79C693" d="M9.7,9.3c0,0-3.8-2.9-0.5-8.4l1.3,0.8C8,6,10.5,8,10.6,8.1L9.7,9.3z"/>
	</g>
	<g>
		<path fill="#79C693" d="M8.4,10.3C8.3,10.2,6.3,7.6,2,10.2L1.3,9c5.5-3.3,8.3,0.4,8.4,0.5L8.4,10.3z"/>
	</g>
</g>
</svg>
