<?xml version="1.0" encoding="utf-8"?>
<!-- Generator: Adobe Illustrator 18.0.0, SVG Export Plug-In . SVG Version: 6.00 Build 0)  -->
<!DOCTYPE svg PUBLIC "-//W3C//DTD SVG 1.1//EN" "http://www.w3.org/Graphics/SVG/1.1/DTD/svg11.dtd">
<svg version="1.1" id="Layer_1" xmlns="http://www.w3.org/2000/svg" xmlns:xlink="http://www.w3.org/1999/xlink" x="0px" y="0px"
	 viewBox="0 0 32 32" enable-background="new 0 0 32 32" xml:space="preserve">
<g>
	<g>
		<path fill="#DA8C8C" d="M22.4,31.2c-2,0-3.8-0.8-5.2-2.1c-2.9-2.9-2.9-7.5,0-10.4c1.4-1.4,3.2-2.1,5.2-2.1c2,0,3.8,0.8,5.2,2.1
			c1.4,1.4,2.1,3.2,2.1,5.2c0,2-0.8,3.8-2.1,5.2C26.2,30.4,24.4,31.2,22.4,31.2z M22.4,18c-1.6,0-3,0.6-4.1,1.7
			c-2.3,2.3-2.3,6,0,8.2c1.1,1.1,2.6,1.7,4.1,1.7c1.6,0,3-0.6,4.1-1.7c1.1-1.1,1.7-2.6,1.7-4.1c0-1.6-0.6-3-1.7-4.1
			C25.5,18.6,24,18,22.4,18z"/>
	</g>
	<g>
		<path fill="#DA8C8C" d="M17.1,28.9L4.7,16.4C3.2,14.9,2.3,13,2.2,11c-0.1-2.1,0.6-4,2-5.4c1.4-1.4,3.3-2.1,5.4-2
			c2,0.1,4,1,5.5,2.5l12.4,12.4l-1.1,1.1L14,7.1c-1.2-1.2-2.8-2-4.5-2C7.9,5,6.4,5.6,5.3,6.7c-1.1,1.1-1.6,2.6-1.6,4.2
			c0.1,1.7,0.8,3.3,2,4.5l12.4,12.4L17.1,28.9z"/>
	</g>
	<g>
		<line fill="#231F20" x1="19.3" y1="20.7" x2="20.5" y2="21.9"/>
		
			<rect x="19" y="20.5" transform="matrix(0.7071 0.7071 -0.7071 0.7071 20.8707 -7.8384)" fill="#DA8C8C" width="1.7" height="1.5"/>
	</g>
	<g>
		<line fill="#231F20" x1="24.4" y1="25.8" x2="25.6" y2="27"/>
		
			<rect x="24.2" y="25.6" transform="matrix(0.7068 0.7074 -0.7074 0.7068 25.99 -9.9538)" fill="#DA8C8C" width="1.7" height="1.5"/>
	</g>
	<g>
		<line fill="#231F20" x1="25.6" y1="20.7" x2="24.4" y2="21.9"/>
		
			<rect x="24.3" y="20.4" transform="matrix(0.7071 0.7071 -0.7071 0.7071 22.3654 -11.45)" fill="#DA8C8C" width="1.5" height="1.7"/>
	</g>
	<g>
		<line fill="#231F20" x1="20.5" y1="25.8" x2="19.3" y2="27"/>
		
			<rect x="19.1" y="25.5" transform="matrix(0.7071 0.7071 -0.7071 0.7071 24.4809 -6.3425)" fill="#DA8C8C" width="1.5" height="1.7"/>
	</g>
	<g>
		<path fill="#DA8C8C" d="M4.3,6.7c-1.3-1-2-2.1-2-3.2C2.3,1.9,3.4,0.9,3.4,0.8l1,1.1L3.9,1.4L4.4,2c0,0-0.7,0.6-0.6,1.5
			c0,0.7,0.5,1.4,1.4,2.1L4.3,6.7z"/>
	</g>
</g>
</svg>
