<?xml version="1.0" encoding="utf-8"?>
<!-- Generator: Adobe Illustrator 18.0.0, SVG Export Plug-In . SVG Version: 6.00 Build 0)  -->
<!DOCTYPE svg PUBLIC "-//W3C//DTD SVG 1.1//EN" "http://www.w3.org/Graphics/SVG/1.1/DTD/svg11.dtd">
<svg version="1.1" id="Layer_1" xmlns="http://www.w3.org/2000/svg" xmlns:xlink="http://www.w3.org/1999/xlink" x="0px" y="0px"
	 viewBox="0 0 32 32" enable-background="new 0 0 32 32" xml:space="preserve">
<g>
	<g>
		<path fill="#B4A79C" d="M2.9,31.3c-0.2,0-0.4-0.1-0.6-0.3c-0.2-0.3-0.2-0.7,0-0.9c0.4-0.6-0.3-2.5-1-3.7c-0.2-0.3-0.1-0.8,0.2-1
			s0.8-0.1,1,0.2C2.7,25.7,3.3,26,4.4,26c0.7,0,1.2-0.1,1.2-0.1c0.2,0,0.4,0,0.6,0.2c0.2,0.1,0.3,0.3,0.3,0.5s0,0.4,0.1,0.6
			c0.2,0.6,0.5,1.1,1,1.4c0.3,0.2,0.4,0.7,0.2,1S7.3,30,7,29.9c-0.1,0-0.1,0-0.2-0.1c-0.7,0-2.5,0.8-3.5,1.4
			C3.1,31.2,3,31.3,2.9,31.3z M3.5,27.4c0.2,0.6,0.4,1.2,0.4,1.8C4.4,29,5,28.7,5.5,28.6c-0.2-0.3-0.3-0.6-0.4-1v-0.1
			C4.6,27.5,4,27.5,3.5,27.4z"/>
	</g>
	<g>
		<path fill="#B4A79C" d="M28.2,6.8c-0.2,0-0.3-0.1-0.5-0.2c-0.5-0.4-1-0.6-1.5-0.6c-0.2,0-0.3,0-0.4,0c-0.3,0-0.5-0.1-0.7-0.3
			S24.9,5.3,25,5c0.5-1.3,0.6-2.7,0.3-3c-0.3-0.3-0.3-0.8,0-1c0.3-0.3,0.7-0.3,1,0c0.7,0.7,2.2,1.8,3.1,1.8c0.1,0,0.2,0,0.3-0.1
			c0.3-0.2,0.7-0.1,0.9,0.2c0.2,0.3,0.2,0.7,0,0.9c0,0-1.2,1.4-1.8,2.5C28.7,6.5,28.5,6.6,28.2,6.8C28.3,6.7,28.2,6.8,28.2,6.8z
			 M26.7,4.6C27.1,4.7,27.6,4.8,28,5c0.2-0.3,0.4-0.6,0.6-0.9C28,3.9,27.5,3.6,27,3.3C26.9,3.7,26.8,4.2,26.7,4.6z"/>
	</g>
	<g>
		<path fill="#B4A79C" d="M9.2,30.6c-0.9,0-1.8-0.3-2.5-0.8c-0.8-0.6-1.3-1.3-1.6-2.2C5,27.2,5,27,5,26.7c-0.2-2,1.1-3.9,3-4.4
			C21,18.4,21.7,8.9,21.8,8.5c0.1-2.1,1.7-3.8,3.8-4c0.2,0,0.3,0,0.5,0h0.1c0.9,0,1.7,0.4,2.4,0.9c1.1,0.9,1.7,2.2,1.6,3.6
			c-0.1,1.2-1,11.9-12.7,18.5c-2.1,1.2-4.5,2.2-7.1,2.9C10,30.5,9.6,30.6,9.2,30.6z M26.1,6c-0.2,0-0.3,0-0.4,0
			c-1.4,0.1-2.4,1.2-2.5,2.6c0,0.4-0.9,11-14.8,15.1c-1.2,0.4-2.1,1.6-2,2.9c0,0.2,0,0.4,0.1,0.5c0.2,0.6,0.5,1.1,1,1.4
			C8.3,29,9.2,29.2,10,29c2.5-0.7,4.8-1.7,6.8-2.8C28,19.9,28.7,9.3,28.8,8.9c0-0.9-0.3-1.8-1.1-2.3C27.3,6.2,26.7,6,26.1,6
			C26.2,6,26.1,6,26.1,6z"/>
	</g>
</g>
</svg>
