<?xml version="1.0" encoding="utf-8"?>
<!-- Generator: Adobe Illustrator 18.0.0, SVG Export Plug-In . SVG Version: 6.00 Build 0)  -->
<!DOCTYPE svg PUBLIC "-//W3C//DTD SVG 1.1//EN" "http://www.w3.org/Graphics/SVG/1.1/DTD/svg11.dtd">
<svg version="1.1" id="Layer_1" xmlns="http://www.w3.org/2000/svg" xmlns:xlink="http://www.w3.org/1999/xlink" x="0px" y="0px"
	 viewBox="0 0 32 32" enable-background="new 0 0 32 32" xml:space="preserve">
<g>
	<g>
		<path fill="#8F9BA8" d="M7,23.7l-6.2-2l0.1-0.6c0-0.2,2-15.7,20.4-20.4l0.7-0.2l2,6.5l-0.7,0.2C12.4,11,8.5,18.7,7.2,23L7,23.7z
			 M2.4,20.6L6,21.8C7.6,17.2,11.7,9.9,22,6l-1.1-3.8C5.9,6.4,2.9,17.9,2.4,20.6z"/>
	</g>
	<g>
		<path fill="#8F9BA8" d="M31.2,31.5L5.6,23.2l0.2-0.7C7.2,18,11.3,9.7,22.7,5.8l0.7-0.3L31.2,31.5z M7.4,22.3l21.5,7L22.5,7.5
			C12.8,11.1,8.9,18,7.4,22.3z"/>
	</g>
	<g>
		
			<rect x="19" y="11.6" transform="matrix(0.7057 0.7086 -0.7086 0.7057 14.586 -10.4624)" fill="#74B1E0" width="1.7" height="1.5"/>
	</g>
	<g>
		
			<rect x="15.4" y="15.2" transform="matrix(0.7054 0.7088 -0.7088 0.7054 16.1127 -6.773)" fill="#74B1E0" width="1.7" height="1.5"/>
	</g>
	<g>
		
			<rect x="11.7" y="18.9" transform="matrix(0.7059 0.7083 -0.7083 0.7059 17.6122 -3.0852)" fill="#74B1E0" width="1.7" height="1.5"/>
	</g>
	<g>
		
			<rect x="20.5" y="16.7" transform="matrix(0.7057 0.7085 -0.7085 0.7057 18.6867 -9.9908)" fill="#74B1E0" width="1.7" height="1.5"/>
	</g>
	<g>
		
			<rect x="16.8" y="20.4" transform="matrix(0.706 0.7083 -0.7083 0.706 20.1938 -6.302)" fill="#74B1E0" width="1.7" height="1.5"/>
	</g>
	<g>
		
			<rect x="22" y="21.9" transform="matrix(0.7057 0.7086 -0.7086 0.7057 22.7894 -9.5187)" fill="#74B1E0" width="1.7" height="1.5"/>
	</g>
</g>
</svg>
