<?xml version="1.0" encoding="utf-8"?>
<!-- Generator: Adobe Illustrator 18.0.0, SVG Export Plug-In . SVG Version: 6.00 Build 0)  -->
<!DOCTYPE svg PUBLIC "-//W3C//DTD SVG 1.1//EN" "http://www.w3.org/Graphics/SVG/1.1/DTD/svg11.dtd">
<svg version="1.1" id="Layer_1" xmlns="http://www.w3.org/2000/svg" xmlns:xlink="http://www.w3.org/1999/xlink" x="0px" y="0px"
	 viewBox="0 0 32 32" enable-background="new 0 0 32 32" xml:space="preserve">
<g>
	<g>
		<path fill="#79C693" d="M11.8,24c-7.4,0-10.8-7.4-11-7.7c-0.1-0.2-0.1-0.4,0-0.6C1,15.4,4.4,8,11.8,8c3.6,0,7.6,1.8,11.7,5.4
			l6.5-4.8c0.3-0.2,0.7-0.2,0.9,0c0.3,0.2,0.4,0.6,0.2,0.9c-2.3,5.1,0,13,0,13.1c0.1,0.3,0,0.6-0.3,0.8c-0.3,0.2-0.6,0.2-0.9,0
			l-6.5-4.8C19.4,22.2,15.4,24,11.8,24z M2.3,16c0.7,1.3,3.8,6.5,9.4,6.5c3.4,0,7.2-1.8,11.2-5.4c0.3-0.2,0.7-0.3,0.9,0l5.4,4
			c-0.5-2.3-1-6.3-0.2-9.8L23.9,15c-0.3,0.2-0.7,0.2-0.9,0c-4-3.6-7.8-5.4-11.2-5.4C6.1,9.5,3,14.7,2.3,16z"/>
	</g>
	<g>
		<path fill="#79C693" d="M9.8,23.2l-1.3-0.7c3.6-7.2-1-12.2-1.2-12.4l1.1-1C8.4,9.1,13.9,15,9.8,23.2z"/>
	</g>
	<g>
		<rect x="5.6" y="14.2" transform="matrix(0.9561 0.293 -0.293 0.9561 4.7071 -1.21)" fill="#79C693" width="1.5" height="1.9"/>
	</g>
</g>
</svg>
