<?xml version="1.0" encoding="utf-8"?>
<!-- Generator: Adobe Illustrator 18.0.0, SVG Export Plug-In . SVG Version: 6.00 Build 0)  -->
<!DOCTYPE svg PUBLIC "-//W3C//DTD SVG 1.1//EN" "http://www.w3.org/Graphics/SVG/1.1/DTD/svg11.dtd">
<svg version="1.1" id="Layer_1" xmlns="http://www.w3.org/2000/svg" xmlns:xlink="http://www.w3.org/1999/xlink" x="0px" y="0px"
	 viewBox="0 0 32 32" enable-background="new 0 0 32 32" xml:space="preserve">
<g>
	<g>
		<path fill="#B4A042" d="M28,26.3c-0.9,0-1.8-0.4-2.5-1.1c-0.8-0.8-2.1-0.8-2.9,0c-1.4,1.4-3.7,1.4-5.1,0c-0.8-0.8-2.1-0.8-2.9,0
			c-1.4,1.4-3.7,1.4-5.1,0c-0.8-0.8-2.1-0.8-2.9,0c-1.4,1.4-3.7,1.4-5.1,0l1.1-1.1c0.8,0.8,2.1,0.8,2.9,0c1.4-1.4,3.7-1.4,5.1,0
			c0.8,0.8,2.1,0.8,2.9,0c1.4-1.4,3.7-1.4,5.1,0c0.8,0.8,2.1,0.8,2.9,0c1.4-1.4,3.7-1.4,5.1,0c0.8,0.8,2.1,0.8,2.9,0l1.1,1.1
			C29.9,25.9,29,26.3,28,26.3z"/>
	</g>
	<g>
		<line fill="#F9F8F2" x1="10.1" y1="4.7" x2="10.1" y2="10"/>
		<rect x="9.4" y="4.7" fill="#B4A79C" width="1.5" height="5.3"/>
	</g>
	<g>
		<line fill="#F9F8F2" x1="16" y1="4.7" x2="16" y2="10"/>
		<rect x="15.2" y="4.7" fill="#B4A79C" width="1.5" height="5.3"/>
	</g>
	<g>
		<line fill="#F9F8F2" x1="21.9" y1="4.7" x2="21.9" y2="10"/>
		<rect x="21.1" y="4.7" fill="#B4A79C" width="1.5" height="5.3"/>
	</g>
	<g>
		<line fill="#F9F8F2" x1="10.1" y1="0.8" x2="10.1" y2="3.3"/>
		<rect x="9.4" y="0.7" fill="#B4A79C" width="1.5" height="2.5"/>
	</g>
	<g>
		<line fill="#F9F8F2" x1="16" y1="0.8" x2="16" y2="3.3"/>
		<rect x="15.2" y="0.7" fill="#B4A79C" width="1.5" height="2.5"/>
	</g>
	<g>
		<line fill="#F9F8F2" x1="21.9" y1="0.8" x2="21.9" y2="3.3"/>
		<rect x="21.1" y="0.7" fill="#B4A79C" width="1.5" height="2.5"/>
	</g>
	<g>
		<path fill="#B4A042" d="M28,31.3H4c-1.7,0-3-1.4-3-3V21c0-1.6,1.3-2.9,2.9-2.9h24.1c1.6,0,2.9,1.3,2.9,2.9v7.2
			C31,29.9,29.6,31.3,28,31.3z M3.9,19.6c-0.8,0-1.4,0.6-1.4,1.4v7.2c0,0.8,0.7,1.5,1.5,1.5H28c0.8,0,1.5-0.7,1.5-1.5V21
			c0-0.8-0.6-1.4-1.4-1.4H3.9z"/>
	</g>
	<g>
		<g>
			<path fill="#F9F8F2" d="M27.2,16.8c0,1.1-0.9,2.1-2.1,2.1H6.8c-1.1,0-2.1-0.9-2.1-2.1v-4.7c0-1.1,0.9-2.1,2.1-2.1h18.4
				c1.1,0,2.1,0.9,2.1,2.1V16.8z"/>
		</g>
		<g>
			<path fill="#B4A79C" d="M25.2,19.6H6.8c-1.6,0-2.8-1.3-2.8-2.8v-4.7c0-1.6,1.3-2.8,2.8-2.8h18.4c1.6,0,2.8,1.3,2.8,2.8v4.7
				C28,18.3,26.7,19.6,25.2,19.6z M6.8,10.8c-0.7,0-1.3,0.6-1.3,1.3v4.7c0,0.7,0.6,1.3,1.3,1.3h18.4c0.7,0,1.3-0.6,1.3-1.3v-4.7
				c0-0.7-0.6-1.3-1.3-1.3H6.8z"/>
		</g>
	</g>
	<g>
		<line fill="#F9F8F2" x1="10.1" y1="13" x2="10.1" y2="15.8"/>
		<rect x="9.4" y="13" fill="#B4A79C" width="1.5" height="2.8"/>
	</g>
	<g>
		<line fill="#F9F8F2" x1="16" y1="13" x2="16" y2="15.8"/>
		<rect x="15.2" y="13" fill="#B4A79C" width="1.5" height="2.8"/>
	</g>
	<g>
		<line fill="#F9F8F2" x1="21.9" y1="13" x2="21.9" y2="15.8"/>
		<rect x="21.1" y="13" fill="#B4A79C" width="1.5" height="2.8"/>
	</g>
</g>
</svg>
