<?xml version="1.0" encoding="utf-8"?>
<!-- Generator: Adobe Illustrator 18.0.0, SVG Export Plug-In . SVG Version: 6.00 Build 0)  -->
<!DOCTYPE svg PUBLIC "-//W3C//DTD SVG 1.1//EN" "http://www.w3.org/Graphics/SVG/1.1/DTD/svg11.dtd">
<svg version="1.1" id="Layer_1" xmlns="http://www.w3.org/2000/svg" xmlns:xlink="http://www.w3.org/1999/xlink" x="0px" y="0px"
	 viewBox="0 0 32 32" enable-background="new 0 0 32 32" xml:space="preserve">
<g>
	<g>
		<path fill="#8F9BA8" d="M25.8,31.3H6.2c-3,0-5.4-2.2-5.4-4.9v-14c0-0.9,0.3-1.8,0.9-2.6C2,9.1,2,8.2,1.5,7.6
			C1,6.9,0.8,6.1,0.8,5.3c0-2.5,2.4-4.5,5.4-4.5h19.7c3,0,5.4,2,5.4,4.5c0,0.8-0.3,1.6-0.8,2.3C30,8.2,30,9.1,30.4,9.7
			c0.6,0.8,0.8,1.7,0.8,2.6v14C31.2,29,28.8,31.3,25.8,31.3z M6.2,2.3c-2.1,0-3.9,1.4-3.9,3c0,0.5,0.2,1,0.5,1.4
			c0.8,1.1,0.9,2.7,0.1,3.8c-0.4,0.5-0.6,1.1-0.6,1.8v14c0,1.9,1.8,3.4,3.9,3.4h19.7c2.2,0,3.9-1.5,3.9-3.4v-14
			c0-0.6-0.2-1.2-0.6-1.8c-0.8-1.1-0.8-2.7,0.1-3.8c0.3-0.4,0.5-0.9,0.5-1.4c0-1.6-1.8-3-3.9-3H6.2z"/>
	</g>
	<g>
		<rect x="20.8" y="8.8" fill="#DA8C8C" width="1.5" height="1.8"/>
	</g>
	<g>
		<rect x="17.2" y="13.2" fill="#DA8C8C" width="1.5" height="1.8"/>
	</g>
	<g>
		<rect x="21.9" y="15.1" fill="#DA8C8C" width="1.5" height="1.8"/>
	</g>
</g>
</svg>
