<?xml version="1.0" encoding="utf-8"?>
<!-- Generator: Adobe Illustrator 18.0.0, SVG Export Plug-In . SVG Version: 6.00 Build 0)  -->
<!DOCTYPE svg PUBLIC "-//W3C//DTD SVG 1.1//EN" "http://www.w3.org/Graphics/SVG/1.1/DTD/svg11.dtd">
<svg version="1.1" id="Layer_1" xmlns="http://www.w3.org/2000/svg" xmlns:xlink="http://www.w3.org/1999/xlink" x="0px" y="0px"
	 viewBox="0 0 32 32" enable-background="new 0 0 32 32" xml:space="preserve">
<g>
	<g>
		<path fill="#B4A79C" d="M28.2,28.2h-6.3v-4.5h6.3V28.2z M23.4,26.7h3.3v-1.5h-3.3V26.7z"/>
	</g>
	<g>
		<path fill="#B4A79C" d="M10.1,28.2H3.8v-4.5h6.3V28.2z M5.3,26.7h3.3v-1.5H5.3V26.7z"/>
	</g>
	<g>
		<path fill="#8F9BA8" d="M31.3,25.2H0.8V3.8h30.5V25.2z M2.2,23.8h27.6V5.3H2.2V23.8z"/>
	</g>
	<g>
		<path fill="#B4A79C" d="M23.1,21.3H4.7V7.7h18.5V21.3z M6.1,19.8h15.5V9.2H6.1V19.8z"/>
	</g>
	<g>
		<rect x="24.7" y="8.4" fill="#B4A79C" width="1.5" height="1.1"/>
	</g>
	<g>
		<rect x="27.4" y="8.4" fill="#B4A79C" width="1.5" height="1.1"/>
	</g>
	<g>
		<rect x="24.7" y="10.7" fill="#B4A79C" width="1.5" height="1.1"/>
	</g>
	<g>
		<rect x="27.4" y="10.7" fill="#B4A79C" width="1.5" height="1.1"/>
	</g>
	<g>
		<rect x="24.7" y="13" fill="#B4A79C" width="1.5" height="1.1"/>
	</g>
	<g>
		<rect x="27.4" y="13" fill="#B4A79C" width="1.5" height="1.1"/>
	</g>
	<g>
		<path fill="#B4A79C" d="M26.8,21.3c-1.2,0-2.2-1-2.2-2.2c0-1.2,1-2.2,2.2-2.2c1.2,0,2.2,1,2.2,2.2C29,20.3,28,21.3,26.8,21.3z
			 M26.8,18.3c-0.4,0-0.8,0.3-0.8,0.8c0,0.4,0.3,0.8,0.8,0.8c0.4,0,0.8-0.3,0.8-0.8C27.5,18.6,27.2,18.3,26.8,18.3z"/>
	</g>
</g>
</svg>
