<?xml version="1.0" encoding="utf-8"?>
<!-- Generator: Adobe Illustrator 18.0.0, SVG Export Plug-In . SVG Version: 6.00 Build 0)  -->
<!DOCTYPE svg PUBLIC "-//W3C//DTD SVG 1.1//EN" "http://www.w3.org/Graphics/SVG/1.1/DTD/svg11.dtd">
<svg version="1.1" id="Layer_1" xmlns="http://www.w3.org/2000/svg" xmlns:xlink="http://www.w3.org/1999/xlink" x="0px" y="0px"
	 viewBox="0 0 32 32" enable-background="new 0 0 32 32" xml:space="preserve">
<g>
	<g>
		<path fill="#74B1E0" d="M8.5,10.4H7V8.3c0-0.6-0.4-1.2-1-1.5C5,6.5,4.5,5.6,4.5,4.4c0-0.9,0.3-1.7,0.7-2.1C6,1.6,6.9,1.6,7.5,1.6
			l0.2,0h8.5V3L7.5,3c-0.4,0-1,0-1.2,0.2C6,3.5,5.9,4,5.9,4.4c0,0.8,0.3,1,0.6,1.2c1.1,0.5,1.9,1.6,1.9,2.8V10.4z"/>
	</g>
	<g>
		<path fill="#74B1E0" d="M25,10.4h-1.4V8.3c0-1.2,0.7-2.3,1.9-2.8c0.3-0.1,0.6-0.4,0.6-1.2c0-0.4-0.1-0.9-0.3-1.1
			C25.5,3,24.9,3,24.5,3l-0.2,0h-8.5V1.6l8.7,0c0.6,0,1.6,0,2.3,0.7c0.5,0.5,0.7,1.2,0.7,2.1c0,1.2-0.5,2.1-1.5,2.5
			c-0.6,0.3-1,0.8-1,1.5V10.4z"/>
	</g>
	<g>
		<path fill="#8F9BA8" d="M31.3,28.6H0.8v-14c0-2.5,2.1-4.6,4.7-4.6h21.2c2.6,0,4.7,2,4.7,4.6V28.6z M2.2,27.2h27.6V14.6
			c0-1.7-1.4-3.1-3.2-3.1H5.4c-1.8,0-3.2,1.4-3.2,3.1V27.2z"/>
	</g>
	<g>
		<rect x="8.7" y="16.2" fill="#74B1E0" width="14.6" height="1.4"/>
	</g>
	<g>
		<rect x="25.1" y="27.9" fill="#8F9BA8" width="1.4" height="2.5"/>
	</g>
	<g>
		<rect x="5.4" y="27.9" fill="#8F9BA8" width="1.4" height="2.5"/>
	</g>
</g>
</svg>
