<?xml version="1.0" encoding="utf-8"?>
<!-- Generator: Adobe Illustrator 18.0.0, SVG Export Plug-In . SVG Version: 6.00 Build 0)  -->
<!DOCTYPE svg PUBLIC "-//W3C//DTD SVG 1.1//EN" "http://www.w3.org/Graphics/SVG/1.1/DTD/svg11.dtd">
<svg version="1.1" id="Layer_1" xmlns="http://www.w3.org/2000/svg" xmlns:xlink="http://www.w3.org/1999/xlink" x="0px" y="0px"
	 viewBox="0 0 32 32" enable-background="new 0 0 32 32" xml:space="preserve">
<g>
	<g>
		<path fill="#8F9BA8" d="M3.3,16.9c-1.4,0-2.5-1.1-2.5-2.6V9.3c0-1.5,1.2-2.8,2.8-2.8h24.9c1.5,0,2.8,1.2,2.8,2.8v2.3
			c0,1.5-1.2,2.8-2.7,2.9L3.6,16.9C3.5,16.9,3.4,16.9,3.3,16.9z M3.6,8C2.9,8,2.3,8.6,2.3,9.3v5.1c0,0.6,0.5,1.1,1.2,1.1L28.4,13
			c0.7-0.1,1.3-0.7,1.3-1.5V9.3c0-0.7-0.6-1.3-1.3-1.3H3.6z"/>
	</g>
	<g>
		<rect x="8.1" y="15.7" fill="#8F9BA8" width="1.5" height="14.7"/>
	</g>
	<g>
		<path fill="#8F9BA8" d="M9.1,6.9H7.6V4.2c0,0-0.1-1.2,0.7-2c0.6-0.7,1.5-1,2.6-1h12.5v1.5H10.9c-0.7,0-1.2,0.2-1.5,0.5
			c-0.4,0.4-0.3,1-0.3,1L9.1,6.9z"/>
	</g>
	<g>
		<path fill="#8F9BA8" d="M15.3,30.9h-1.5V28c0-2.7-2.2-5-5-5s-5,2.2-5,5v2.9H2.3V28c0-3.6,2.9-6.5,6.5-6.5c3.6,0,6.5,2.9,6.5,6.5
			V30.9z"/>
	</g>
</g>
</svg>
