<?xml version="1.0" encoding="utf-8"?>
<!-- Generator: Adobe Illustrator 18.0.0, SVG Export Plug-In . SVG Version: 6.00 Build 0)  -->
<!DOCTYPE svg PUBLIC "-//W3C//DTD SVG 1.1//EN" "http://www.w3.org/Graphics/SVG/1.1/DTD/svg11.dtd">
<svg version="1.1" id="Layer_1" xmlns="http://www.w3.org/2000/svg" xmlns:xlink="http://www.w3.org/1999/xlink" x="0px" y="0px"
	 viewBox="0 0 32 32" enable-background="new 0 0 32 32" xml:space="preserve">
<g>
	<g>
		<path fill="#8F9BA8" d="M23.2,12.5H8.8c-1,0-1.8-0.8-1.8-1.8V2.5c0-1,0.8-1.8,1.8-1.8h14.4c1,0,1.8,0.8,1.8,1.8v8.1
			C25,11.7,24.2,12.5,23.2,12.5z M8.8,2.3c-0.1,0-0.3,0.1-0.3,0.3v8.1c0,0.1,0.1,0.3,0.3,0.3h14.4c0.1,0,0.3-0.1,0.3-0.3V2.5
			c0-0.1-0.1-0.3-0.3-0.3H8.8z"/>
	</g>
	<g>
		<path fill="#8F9BA8" d="M23.2,29.9H8.8c-1,0-1.8-0.8-1.8-1.8V12.7c0-1,0.8-1.8,1.8-1.8h14.4c1,0,1.8,0.8,1.8,1.8v15.4
			C25,29.1,24.2,29.9,23.2,29.9z M8.8,12.5c-0.1,0-0.3,0.1-0.3,0.3v15.4c0,0.1,0.1,0.3,0.3,0.3h14.4c0.1,0,0.3-0.1,0.3-0.3V12.7
			c0-0.1-0.1-0.3-0.3-0.3H8.8z"/>
	</g>
	<g>
		<rect x="9.8" y="4.5" fill="#79C693" width="1.5" height="4.2"/>
	</g>
	<g>
		<rect x="9.8" y="14.8" fill="#79C693" width="1.5" height="7.2"/>
	</g>
	<g>
		<rect x="9.1" y="29.2" fill="#8F9BA8" width="1.5" height="2.1"/>
	</g>
	<g>
		<rect x="21.4" y="29.2" fill="#8F9BA8" width="1.5" height="2.1"/>
	</g>
</g>
</svg>
