<?xml version="1.0" encoding="utf-8"?>
<!-- Generator: Adobe Illustrator 18.0.0, SVG Export Plug-In . SVG Version: 6.00 Build 0)  -->
<!DOCTYPE svg PUBLIC "-//W3C//DTD SVG 1.1//EN" "http://www.w3.org/Graphics/SVG/1.1/DTD/svg11.dtd">
<svg version="1.1" id="Layer_1" xmlns="http://www.w3.org/2000/svg" xmlns:xlink="http://www.w3.org/1999/xlink" x="0px" y="0px"
	 viewBox="0 0 32 32" enable-background="new 0 0 32 32" xml:space="preserve">
<g>
	<g>
		
			<rect x="22.4" y="25.3" transform="matrix(0.7072 0.7071 -0.7071 0.7072 26.3672 -11.6643)" fill="#B4A79C" width="9.8" height="1.4"/>
	</g>
	<g>
		<path fill="#B4A79C" d="M17.9,28.9L2.3,13.3c-1-1-1.6-2.4-1.6-3.8c0-1.4,0.6-2.8,1.6-3.8l3-3l0.4,0.1c0.1,0,0.2-0.1,0.3-0.1
			c0.3-0.1,0.8-0.3,1.2-0.2c0.4,0.1,0.7,0.4,0.9,0.6c0.1,0.1,0.1,0.1,0.2,0.2c0.3,0.2,0.8,0,1.4-0.2C10.1,3,10.4,3,10.7,2.9
			c0.6-0.1,1.3-0.1,2,0c0.3,0,0.6,0.1,0.9,0.1c0.5,0,0.8-0.1,1.1-0.2c0.1-0.1,0.3-0.2,0.4-0.3L15.5,2l14.6,14.6L17.9,28.9z M5.9,4.2
			L3.3,6.7C2.6,7.5,2.2,8.4,2.2,9.5c0,1.1,0.4,2,1.1,2.8l14.6,14.6l10.2-10.2L15.4,3.9c0,0,0,0-0.1,0c-0.5,0.3-1.1,0.4-1.8,0.4
			c-0.3,0-0.7,0-1.1-0.1c-0.6-0.1-1.2-0.1-1.6,0c-0.2,0-0.5,0.1-0.7,0.2C9.3,4.8,8.3,5,7.5,4.5C7.4,4.4,7.2,4.3,7.1,4.1
			C7,4,6.9,3.9,6.9,3.9C6.8,3.9,6.6,4,6.5,4C6.3,4.1,6.1,4.2,5.9,4.2z"/>
	</g>
</g>
</svg>
