<?xml version="1.0" encoding="utf-8"?>
<!-- Generator: Adobe Illustrator 18.0.0, SVG Export Plug-In . SVG Version: 6.00 Build 0)  -->
<!DOCTYPE svg PUBLIC "-//W3C//DTD SVG 1.1//EN" "http://www.w3.org/Graphics/SVG/1.1/DTD/svg11.dtd">
<svg version="1.1" id="Layer_1" xmlns="http://www.w3.org/2000/svg" xmlns:xlink="http://www.w3.org/1999/xlink" x="0px" y="0px"
	 viewBox="0 0 32 32" enable-background="new 0 0 32 32" xml:space="preserve">
<g>
	<g>
		<rect x="17.6" y="3.4" fill="#DA8C8C" width="1.5" height="2.4"/>
	</g>
	<g>
		<rect x="11.1" y="0.7" fill="#DA8C8C" width="1.5" height="5.1"/>
	</g>
	<g>
		<rect x="4.7" y="3.4" fill="#DA8C8C" width="1.5" height="2.4"/>
	</g>
	<g>
		<path fill="#DA8C8C" d="M21,25.8V12.9l0.3-0.2c3-2.1,6.3-2.5,8.1-0.8c1.1,1.1,1.5,2.8,1.1,4.8c-0.4,1.9-1.5,3.8-3,5.5
			c-1.7,1.8-3.6,3-5.6,3.5L21,25.8z M22.5,13.7v10c1.3-0.5,2.7-1.5,3.9-2.7c1.4-1.5,2.3-3.1,2.6-4.7c0.3-1.5,0.1-2.6-0.7-3.3
			C27.2,11.9,24.8,12.2,22.5,13.7z"/>
	</g>
	<g>
		<path fill="#DA8C8C" d="M18,31.3H5.8c-2.5,0-4.5-2-4.5-4.5V8.5h21.2v18.2C22.5,29.2,20.5,31.3,18,31.3z M2.8,10.1v16.7
			c0,1.6,1.3,3,3,3H18c1.6,0,3-1.3,3-3V10.1H2.8z"/>
	</g>
</g>
</svg>
