<?xml version="1.0" encoding="utf-8"?>
<!-- Generator: Adobe Illustrator 18.0.0, SVG Export Plug-In . SVG Version: 6.00 Build 0)  -->
<!DOCTYPE svg PUBLIC "-//W3C//DTD SVG 1.1//EN" "http://www.w3.org/Graphics/SVG/1.1/DTD/svg11.dtd">
<svg version="1.1" id="Layer_1" xmlns="http://www.w3.org/2000/svg" xmlns:xlink="http://www.w3.org/1999/xlink" x="0px" y="0px"
	 viewBox="0 0 32 32" enable-background="new 0 0 32 32" xml:space="preserve">
<g>
	<g>
		<path fill="#B4A79C" d="M16,17.9c-8.4,0-15.2-6.6-15.2-14.7c0-0.5,0.1-0.9,0.1-1.4L1,0.7h30l0.1,1.1c0.1,0.4,0.1,0.9,0.1,1.4
			C31.3,11.3,24.4,17.9,16,17.9z M2.3,2.2c0,0.3-0.1,0.6-0.1,0.9c0,7.3,6.2,13.2,13.7,13.2c7.6,0,13.8-5.9,13.8-13.2
			c0-0.3,0-0.6-0.1-0.9H2.3z"/>
	</g>
	<g>
		<rect x="15.2" y="17.2" fill="#B4A79C" width="1.5" height="13.3"/>
	</g>
	<g>
		<rect x="9.9" y="29.8" fill="#B4A79C" width="12.2" height="1.5"/>
	</g>
	<g>
		<rect x="1.6" y="4.7" fill="#B4A79C" width="28.8" height="1.5"/>
	</g>
</g>
</svg>
