<?xml version="1.0" encoding="utf-8"?>
<!-- Generator: Adobe Illustrator 18.0.0, SVG Export Plug-In . SVG Version: 6.00 Build 0)  -->
<!DOCTYPE svg PUBLIC "-//W3C//DTD SVG 1.1//EN" "http://www.w3.org/Graphics/SVG/1.1/DTD/svg11.dtd">
<svg version="1.1" id="Layer_1" xmlns="http://www.w3.org/2000/svg" xmlns:xlink="http://www.w3.org/1999/xlink" x="0px" y="0px"
	 viewBox="0 0 32 32" enable-background="new 0 0 32 32" xml:space="preserve">
<g>
	<g>
		<g>
			<defs>
				<path id="SVGID_7_" d="M-13.5,20.3c-0.9-0.7-2-1.1-3.2-1.1c-2.9,0-5.2,2.3-5.2,5.2c0,1.3,0.4,2.4,1.2,3.3c1,1.2,2.4,1.9,4,1.9
					c2.9,0,5.2-2.3,5.2-5.2C-11.5,22.8-12.3,21.3-13.5,20.3z"/>
			</defs>
			<clipPath id="SVGID_2_">
				<use xlink:href="#SVGID_7_"  overflow="visible"/>
			</clipPath>
			<g clip-path="url(#SVGID_2_)">
				<rect x="-16.3" y="5.7" fill="none" width="24.1" height="24.1"/>
				<rect x="-16.3" y="5.7" fill="#FEE99B" width="24.1" height="24.1"/>
			</g>
		</g>
	</g>
	<g>
		<g>
			<defs>
				<line id="SVGID_9_" x1="-13.4" y1="24.4" x2="-20" y2="24.4"/>
			</defs>
			<clipPath id="SVGID_4_">
				<use xlink:href="#SVGID_9_"  overflow="visible"/>
			</clipPath>
			<g clip-path="url(#SVGID_4_)">
				<rect x="-16.3" y="5.7" fill="none" width="24.1" height="24.1"/>
				<rect x="-16.3" y="5.7" fill="#FEE99B" width="24.1" height="24.1"/>
			</g>
		</g>
	</g>
</g>
<g>
	<g>
		<path fill="#F0F7F7" d="M28.5,9c0-1.6-1.3-2.9-2.9-2.9H14.4c-1.2,0-2.3-0.8-2.7-1.9l0,0C11.3,3.1,10.2,2.3,9,2.3H4.4
			c-1.6,0-2.9,1.3-2.9,2.9v6.4h27V9z"/>
		<path fill="#8F9BA8" d="M29.2,12.4H0.8V5.2c0-2,1.6-3.6,3.6-3.6H9c1.5,0,2.9,1,3.4,2.4c0.3,0.8,1.1,1.4,2,1.4h11.2
			c2,0,3.6,1.6,3.6,3.6V12.4z M2.3,10.9h25.5V9c0-1.2-0.9-2.1-2.1-2.1H14.4c-1.5,0-2.9-1-3.4-2.4c-0.3-0.8-1.1-1.4-2-1.4H4.4
			C3.2,3.1,2.3,4,2.3,5.2V10.9z"/>
	</g>
	<g>
		<path fill="#8F9BA8" d="M22.8,28.5H4.4c-2,0-3.6-1.6-3.6-3.6v-14h28.5v11L28,20.9c-0.8-0.6-1.7-1-2.7-1c-2.5,0-4.5,2-4.5,4.5
			c0,1,0.4,2,1,2.8L22.8,28.5z M2.3,12.4v12.5C2.3,26,3.2,27,4.4,27h15.5c-0.4-0.8-0.6-1.7-0.6-2.6c0-3.3,2.7-6,6-6
			c0.9,0,1.7,0.2,2.5,0.5v-6.6H2.3z"/>
	</g>
	<g>
		<path fill="#79C693" d="M25.3,30.4c-1.8,0-3.5-0.8-4.6-2.2c-0.9-1.1-1.4-2.4-1.4-3.8c0-3.3,2.7-6,6-6c1.3,0,2.6,0.4,3.7,1.3
			c1.5,1.1,2.3,2.9,2.3,4.7C31.3,27.7,28.6,30.4,25.3,30.4z M25.3,20c-2.5,0-4.5,2-4.5,4.5c0,1,0.4,2,1,2.8c0.9,1,2.1,1.6,3.5,1.6
			c2.5,0,4.5-2,4.5-4.5c0-1.4-0.6-2.7-1.7-3.5C27.2,20.3,26.3,20,25.3,20z"/>
	</g>
	<g>
		<polygon fill="#79C693" points="24.2,26.9 22,24.7 23,23.6 24.2,24.8 27.1,21.9 28.2,23 		"/>
	</g>
</g>
</svg>
