<?xml version="1.0" encoding="utf-8"?>
<!-- Generator: Adobe Illustrator 18.0.0, SVG Export Plug-In . SVG Version: 6.00 Build 0)  -->
<!DOCTYPE svg PUBLIC "-//W3C//DTD SVG 1.1//EN" "http://www.w3.org/Graphics/SVG/1.1/DTD/svg11.dtd">
<svg version="1.1" id="Layer_1" xmlns="http://www.w3.org/2000/svg" xmlns:xlink="http://www.w3.org/1999/xlink" x="0px" y="0px"
	 viewBox="0 0 32 32" enable-background="new 0 0 32 32" xml:space="preserve">
<g>
	<g>
		<path fill="#8F9BA8" d="M19.5,28.8H2L0.7,13.9h20.1L19.5,28.8z M3.4,27.3h14.7l1.1-11.9H2.4L3.4,27.3z"/>
	</g>
	<g>
		<path fill="#8F9BA8" d="M20.7,15.4h-20l0.1-0.8c0.5-4.5,4.8-7.9,9.9-7.9s9.3,3.4,9.9,7.9L20.7,15.4z M2.5,13.9H19
			c-0.8-3.3-4.2-5.7-8.2-5.7C6.8,8.1,3.4,10.6,2.5,13.9z"/>
	</g>
	<g>
		<rect x="10" y="4" fill="#8F9BA8" width="1.5" height="3.1"/>
	</g>
	<g>
		<path fill="#8F9BA8" d="M31.3,17.1h-1.5c0-0.9-0.8-1.7-1.7-1.7h-10v-1.5h10C29.9,13.9,31.3,15.3,31.3,17.1z"/>
	</g>
	<g>
		<rect x="7.3" y="3.2" fill="#8F9BA8" width="6.9" height="1.5"/>
	</g>
</g>
</svg>
