<?xml version="1.0" encoding="utf-8"?>
<!-- Generator: Adobe Illustrator 18.0.0, SVG Export Plug-In . SVG Version: 6.00 Build 0)  -->
<!DOCTYPE svg PUBLIC "-//W3C//DTD SVG 1.1//EN" "http://www.w3.org/Graphics/SVG/1.1/DTD/svg11.dtd">
<svg version="1.1" id="Layer_1" xmlns="http://www.w3.org/2000/svg" xmlns:xlink="http://www.w3.org/1999/xlink" x="0px" y="0px"
	 viewBox="0 0 32 32" enable-background="new 0 0 32 32" xml:space="preserve">
<g>
	<g>
		<path fill="#79C693" d="M15.7,24.9c-4.7,0-8.5-3.8-8.5-8.5c0-4.7,3.8-8.5,8.5-8.5c4.7,0,8.5,3.8,8.5,8.5
			C24.2,21.1,20.4,24.9,15.7,24.9z M15.7,9.4c-3.9,0-7,3.1-7,7c0,3.9,3.1,7,7,7c3.9,0,7-3.1,7-7C22.7,12.5,19.6,9.4,15.7,9.4z"/>
	</g>
	<g>
		<path fill="#79C693" d="M28.2,14.9h-0.9c-1.7,0-3.1-1.4-3.1-3.1V8.1h1.5v3.8c0,0.9,0.7,1.6,1.6,1.6h0.9c0.9,0,1.6-0.7,1.6-1.6V8.1
			h1.5v3.8C31.3,13.6,29.9,14.9,28.2,14.9z"/>
	</g>
	<g>
		<rect x="27" y="8.1" fill="#79C693" width="1.5" height="16.6"/>
	</g>
	<g>
		<path fill="#79C693" d="M2.3,24.7H0.8V7.1l1,0.3c0.2,0.1,4.8,1.5,4.1,10.8l-0.1,0.7l-3.5,0.1V24.7z M2.3,9.5v8l2.1,0
			C4.6,12.6,3.2,10.4,2.3,9.5z"/>
	</g>
	<g>
		<path fill="#79C693" d="M15.7,21.3c-2.7,0-4.9-2.2-4.9-4.9c0-2.7,2.2-4.9,4.9-4.9c2.7,0,4.9,2.2,4.9,4.9
			C20.6,19.1,18.4,21.3,15.7,21.3z M15.7,13c-1.9,0-3.4,1.5-3.4,3.4s1.5,3.4,3.4,3.4s3.4-1.5,3.4-3.4S17.6,13,15.7,13z"/>
	</g>
</g>
</svg>
