<?xml version="1.0" encoding="utf-8"?>
<!-- Generator: Adobe Illustrator 18.0.0, SVG Export Plug-In . SVG Version: 6.00 Build 0)  -->
<!DOCTYPE svg PUBLIC "-//W3C//DTD SVG 1.1//EN" "http://www.w3.org/Graphics/SVG/1.1/DTD/svg11.dtd">
<svg version="1.1" id="Layer_1" xmlns="http://www.w3.org/2000/svg" xmlns:xlink="http://www.w3.org/1999/xlink" x="0px" y="0px"
	 viewBox="0 0 32 32" enable-background="new 0 0 32 32" xml:space="preserve">
<g>
	<g>
		<polygon fill="#B4A042" points="16.6,31.3 15.1,31.3 15.1,27.8 17.1,26 12.7,21.9 16.2,18.7 14.6,17.2 14.6,7.7 16.1,7.7 
			16.1,16.5 18.4,18.7 14.9,21.9 19.3,26 16.6,28.5 		"/>
	</g>
	<g>
		<path fill="#F9F8F2" d="M24.4,7.7H7.6c-1.7,0-3.1-1.4-3.1-3.1l0,0c0-1.7,1.4-3.1,3.1-3.1h16.8c1.7,0,3.1,1.4,3.1,3.1l0,0
			C27.5,6.3,26.1,7.7,24.4,7.7z"/>
		<path fill="#B4A79C" d="M24.4,8.4H7.6c-2.1,0-3.8-1.7-3.8-3.8c0-2.1,1.7-3.8,3.8-3.8h16.8c2.1,0,3.8,1.7,3.8,3.8
			C28.3,6.7,26.5,8.4,24.4,8.4z M7.6,2.3c-1.3,0-2.3,1-2.3,2.3c0,1.3,1,2.3,2.3,2.3h16.8c1.3,0,2.3-1,2.3-2.3c0-1.3-1-2.3-2.3-2.3
			H7.6z"/>
	</g>
</g>
</svg>
