<?xml version="1.0" encoding="utf-8"?>
<!-- Generator: Adobe Illustrator 18.0.0, SVG Export Plug-In . SVG Version: 6.00 Build 0)  -->
<!DOCTYPE svg PUBLIC "-//W3C//DTD SVG 1.1//EN" "http://www.w3.org/Graphics/SVG/1.1/DTD/svg11.dtd">
<svg version="1.1" id="Layer_1" xmlns="http://www.w3.org/2000/svg" xmlns:xlink="http://www.w3.org/1999/xlink" x="0px" y="0px"
	 viewBox="0 0 32 32" enable-background="new 0 0 32 32" xml:space="preserve">
<g>
	<g>
		<path fill="#B4A79C" d="M16,31.3C7.6,31.3,0.8,24.4,0.8,16S7.6,0.8,16,0.8S31.3,7.6,31.3,16S24.4,31.3,16,31.3z M16,2.3
			C8.4,2.3,2.3,8.4,2.3,16S8.4,29.8,16,29.8c7.6,0,13.8-6.2,13.8-13.8S23.6,2.3,16,2.3z"/>
	</g>
	<g>
		<rect x="15.3" y="1.5" fill="#B4A79C" width="1.5" height="4.2"/>
	</g>
	<g>
		<rect x="15.3" y="26.3" fill="#B4A79C" width="1.5" height="4.2"/>
	</g>
	<g>
		<rect x="26.3" y="15.3" fill="#B4A79C" width="4.2" height="1.5"/>
	</g>
	<g>
		<rect x="1.5" y="15.3" fill="#B4A79C" width="4.2" height="1.5"/>
	</g>
	<g>
		
			<rect x="24" y="5.1" transform="matrix(0.7071 0.7071 -0.7071 0.7071 12.3685 -15.3982)" fill="#B4A79C" width="1.5" height="4.2"/>
	</g>
	<g>
		
			<rect x="6.5" y="22.7" transform="matrix(0.7071 0.7071 -0.7071 0.7071 19.6322 2.1426)" fill="#B4A79C" width="1.5" height="4.2"/>
	</g>
	<g>
		<rect x="22.7" y="24" transform="matrix(0.7072 0.707 -0.707 0.7072 24.767 -10.2599)" fill="#B4A79C" width="4.2" height="1.5"/>
	</g>
	<g>
		<rect x="5.1" y="6.5" transform="matrix(0.7072 0.707 -0.707 0.7072 7.2291 -2.9946)" fill="#B4A79C" width="4.2" height="1.5"/>
	</g>
</g>
</svg>
