<?xml version="1.0" encoding="utf-8"?>
<!-- Generator: Adobe Illustrator 18.0.0, SVG Export Plug-In . SVG Version: 6.00 Build 0)  -->
<!DOCTYPE svg PUBLIC "-//W3C//DTD SVG 1.1//EN" "http://www.w3.org/Graphics/SVG/1.1/DTD/svg11.dtd">
<svg version="1.1" id="Layer_1" xmlns="http://www.w3.org/2000/svg" xmlns:xlink="http://www.w3.org/1999/xlink" x="0px" y="0px"
	 viewBox="0 0 32 32" enable-background="new 0 0 32 32" xml:space="preserve">
<g>
	<g>
		<path fill="#74B1E0" d="M13.5,31.3c-4.4,0-7.9-3.6-7.9-7.9v-0.8h15.9v0.8C21.4,27.7,17.9,31.3,13.5,31.3z M7.1,24.1
			c0.4,3.2,3.1,5.7,6.4,5.7s6-2.5,6.4-5.7C19.9,24.1,7.1,24.1,7.1,24.1z"/>
	</g>
	<g>
		<path fill="#74B1E0" d="M21.4,22.7h-1.5V4c0-1.8,1.5-3.2,3.2-3.2c1.8,0,3.2,1.5,3.2,3.2h-1.5c0-1-0.8-1.7-1.7-1.7
			c-1,0-1.7,0.8-1.7,1.7V22.7z"/>
	</g>
</g>
</svg>
