<?xml version="1.0" encoding="utf-8"?>
<!-- Generator: Adobe Illustrator 18.0.0, SVG Export Plug-In . SVG Version: 6.00 Build 0)  -->
<!DOCTYPE svg PUBLIC "-//W3C//DTD SVG 1.1//EN" "http://www.w3.org/Graphics/SVG/1.1/DTD/svg11.dtd">
<svg version="1.1" id="Layer_1" xmlns="http://www.w3.org/2000/svg" xmlns:xlink="http://www.w3.org/1999/xlink" x="0px" y="0px"
	 viewBox="0 0 32 32" enable-background="new 0 0 32 32" xml:space="preserve">
<g>
	<g>
		<g>
			<path fill="#F0F7F7" d="M14,24.2c-0.8,0.8-2.1,0.8-2.8,0l-3.4-3.4c-0.8-0.7-0.8-2,0-2.8L18,7.8c0.8-0.8,2.1-0.8,2.8,0l3.4,3.4
				c0.8,0.8,0.8,2.1,0,2.8L14,24.2z"/>
		</g>
		<g>
			<path fill="#8F9BA8" d="M12.6,25.5c-0.7,0-1.4-0.3-1.9-0.8l-3.4-3.4c-0.5-0.5-0.8-1.2-0.8-1.9c0-0.7,0.3-1.4,0.8-1.9L17.5,7.3
				c1-1,2.9-1,3.9,0l3.4,3.4c0.5,0.5,0.8,1.2,0.8,1.9s-0.3,1.4-0.8,1.9L14.5,24.7C14,25.2,13.3,25.5,12.6,25.5z M19.4,8
				c-0.3,0-0.6,0.1-0.9,0.4L8.3,18.5C8.1,18.8,8,19.1,8,19.4s0.1,0.6,0.4,0.9l3.4,3.4c0.5,0.5,1.3,0.5,1.8,0l10.2-10.2
				c0.2-0.2,0.4-0.5,0.4-0.9c0-0.3-0.1-0.6-0.4-0.9l-3.4-3.4C20.1,8.1,19.8,8,19.4,8z"/>
		</g>
	</g>
	<g>
		<path fill="#8F9BA8" d="M23.3,11.4l-2.7-2.7l0.2-0.4c0.6-1.7,2.1-4.1,3.7-5.6c2.2-2.2,4-2.4,5.7-0.7s1.5,3.5-0.7,5.7
			c-1.6,1.6-3.9,3.1-5.6,3.7H23.3z M22.4,8.3l1.4,1.4c1.5-0.6,3.4-1.9,4.6-3.2c2.1-2.1,1.3-3,0.7-3.6c-0.5-0.5-0.8-0.7-1.2-0.7
			c-0.6,0-1.4,0.5-2.3,1.4C24.2,4.9,23,6.8,22.4,8.3z"/>
	</g>
	<g>
		<path fill="#8F9BA8" d="M4.2,31.3c-0.8,0-1.6-0.4-2.3-1.1c-1.7-1.7-1.5-3.5,0.7-5.7c1.6-1.6,3.9-3.1,5.6-3.7l0.4-0.2l2.7,2.7
			l-0.2,0.4c-0.6,1.7-2.1,4.1-3.7,5.6C6.3,30.7,5.2,31.3,4.2,31.3z M8.3,22.4C6.8,23,5,24.3,3.7,25.6c-2.1,2.1-1.3,3-0.7,3.6
			c0.5,0.5,0.8,0.7,1.2,0.7c0.6,0,1.4-0.5,2.3-1.4c1.3-1.3,2.6-3.2,3.2-4.6L8.3,22.4z"/>
	</g>
</g>
</svg>
