<?xml version="1.0" encoding="utf-8"?>
<!-- Generator: Adobe Illustrator 18.0.0, SVG Export Plug-In . SVG Version: 6.00 Build 0)  -->
<!DOCTYPE svg PUBLIC "-//W3C//DTD SVG 1.1//EN" "http://www.w3.org/Graphics/SVG/1.1/DTD/svg11.dtd">
<svg version="1.1" id="Layer_1" xmlns="http://www.w3.org/2000/svg" xmlns:xlink="http://www.w3.org/1999/xlink" x="0px" y="0px"
	 viewBox="0 0 32 32" enable-background="new 0 0 32 32" xml:space="preserve">
<g>
	<g>
		<line fill="#F9F8F2" x1="16" y1="18.5" x2="16" y2="30.5"/>
		<rect x="15.3" y="18.5" fill="#B4A79C" width="1.5" height="12"/>
	</g>
	<g>
		<line fill="#F9F8F2" x1="11.3" y1="30.5" x2="20.7" y2="30.5"/>
		<rect x="11.3" y="29.8" fill="#B4A79C" width="9.5" height="1.5"/>
	</g>
	<g>
		<path fill="#B4A79C" d="M21.9,9.6c-1.5,0-2.9-0.3-4.3-0.9c-2.1-0.9-5.2-0.8-8.9,0.1L7.5,9.1l1.2-8.4h14.6l1.2,8.6l-0.7,0.1
			C23.2,9.5,22.5,9.6,21.9,9.6z M13.9,6.6c1.6,0,3,0.3,4.2,0.8C19.6,8,21.2,8.2,22.8,8L22,2.3H10L9.3,7.1C11,6.8,12.5,6.6,13.9,6.6z
			"/>
	</g>
	<g>
		<path fill="#F9F8F2" d="M23.7,8.7C22,9,20,8.9,17.8,8C15,6.8,11.3,7.4,8.4,8.1L8.1,10c-0.1,0.5-0.2,1-0.2,1.6c0,3.9,3.6,7,8.1,7
			c4.5,0,8.1-3.1,8.1-7c0-0.5-0.1-1.1-0.2-1.6L23.7,8.7z"/>
		<path fill="#B4A79C" d="M16,19.3c-4.9,0-8.8-3.5-8.8-7.7c0-0.6,0.1-1.1,0.3-1.8l0.3-2.2l0.5-0.1c4.1-1.1,7.5-1.1,9.9-0.1
			c1.7,0.7,3.5,0.9,5.4,0.6l0.8-0.1l0.3,2c0.2,0.5,0.2,1.1,0.2,1.7C24.8,15.8,20.9,19.3,16,19.3z M9.1,8.7l-0.2,1.3
			c-0.2,0.6-0.2,1-0.2,1.5c0,3.4,3.3,6.2,7.3,6.2c4,0,7.3-2.8,7.3-6.2c0-0.4-0.1-0.9-0.2-1.4L23,9.5c-1.9,0.2-3.8-0.1-5.5-0.8
			C15.5,7.9,12.6,7.9,9.1,8.7z"/>
	</g>
</g>
</svg>
