<?xml version="1.0" encoding="utf-8"?>
<!-- Generator: Adobe Illustrator 18.0.0, SVG Export Plug-In . SVG Version: 6.00 Build 0)  -->
<!DOCTYPE svg PUBLIC "-//W3C//DTD SVG 1.1//EN" "http://www.w3.org/Graphics/SVG/1.1/DTD/svg11.dtd">
<svg version="1.1" id="Layer_1" xmlns="http://www.w3.org/2000/svg" xmlns:xlink="http://www.w3.org/1999/xlink" x="0px" y="0px"
	 viewBox="0 0 32 32" enable-background="new 0 0 32 32" xml:space="preserve">
<g>
	<g>
		<path fill="#B4A79C" d="M18.4,31.3h-4.8c-2.3,0-4.1-1.8-4.1-4.1V15c0-2,1.5-3.7,3.4-4.1c0-1.7,0-6.2,0-9.4l0-0.7H19l0,0.7
			c0,3.2,0,7.8,0,9.4c1.9,0.3,3.4,2,3.4,4.1v12.2C22.5,29.4,20.6,31.3,18.4,31.3z M14.5,2.3l0,4.3c0,5.8,0,5.8-0.8,5.8
			c-1.5,0-2.6,1.2-2.6,2.6v12.2c0,1.4,1.2,2.6,2.6,2.6h4.8c1.4,0,2.6-1.2,2.6-2.6V15c0-1.5-1.2-2.6-2.6-2.6c-0.8,0-0.8,0-0.8-5.8
			l0-4.3H14.5z"/>
	</g>
	<g>
		<rect x="14.3" y="3.5" fill="#B4A79C" width="3.5" height="1.5"/>
	</g>
	<g>
		<path fill="#F9F8F2" d="M15.6,25.5h-5.3v-8.8h5.3c1,0,1.9,0.8,1.9,1.9v5.1C17.5,24.7,16.6,25.5,15.6,25.5z"/>
		<path fill="#B4A79C" d="M15.6,26.3H9.5V16h6.1c1.4,0,2.6,1.2,2.6,2.6v5.1C18.2,25.1,17.1,26.3,15.6,26.3z M11,24.8h4.6
			c0.6,0,1.1-0.5,1.1-1.1v-5.1c0-0.6-0.5-1.1-1.1-1.1H11V24.8z"/>
	</g>
</g>
</svg>
