<?xml version="1.0" encoding="utf-8"?>
<!-- Generator: Adobe Illustrator 18.0.0, SVG Export Plug-In . SVG Version: 6.00 Build 0)  -->
<!DOCTYPE svg PUBLIC "-//W3C//DTD SVG 1.1//EN" "http://www.w3.org/Graphics/SVG/1.1/DTD/svg11.dtd">
<svg version="1.1" id="Layer_1" xmlns="http://www.w3.org/2000/svg" xmlns:xlink="http://www.w3.org/1999/xlink" x="0px" y="0px"
	 viewBox="0 0 32 32" enable-background="new 0 0 32 32" xml:space="preserve">
<g>
	<g>
		<path fill="#F0F7F7" d="M28.5,9c0-1.6-1.3-2.9-2.9-2.9H14.4c-1.2,0-2.3-0.8-2.7-1.9l0,0C11.3,3.1,10.2,2.3,9,2.3H4.4
			c-1.6,0-2.9,1.3-2.9,2.9v6.4h27V9z"/>
		<path fill="#8F9BA8" d="M29.2,12.4H0.8V5.2c0-2,1.6-3.6,3.6-3.6H9c1.5,0,2.9,1,3.4,2.4c0.3,0.8,1.1,1.4,2,1.4h11.2
			c2,0,3.6,1.6,3.6,3.6C29.2,9,29.2,12.4,29.2,12.4z M2.3,10.9h25.5V9c0-1.2-0.9-2.1-2.1-2.1H14.4c-1.5,0-2.9-1-3.4-2.4
			c-0.3-0.8-1.1-1.4-2-1.4H4.4C3.2,3.1,2.3,4,2.3,5.2V10.9z"/>
	</g>
	<g>
		<path fill="#8F9BA8" d="M22.8,28.5H4.4c-2,0-3.6-1.6-3.6-3.6v-14h28.5v11l-1.3-1c-0.8-0.6-1.7-1-2.7-1c-2.5,0-4.5,2-4.5,4.5
			c0,1,0.4,2,1,2.8L22.8,28.5z M2.3,12.4v12.5C2.3,26,3.2,27,4.4,27h15.5c-0.4-0.8-0.6-1.7-0.6-2.6c0-3.3,2.7-6,6-6
			c0.9,0,1.7,0.2,2.5,0.5v-6.6H2.3V12.4z"/>
	</g>
	<g>
		<path fill="#C6BCDD" d="M28.5,20.3c-0.9-0.7-2-1.1-3.2-1.1c-2.9,0-5.2,2.3-5.2,5.2c0,1.3,0.4,2.4,1.2,3.3c1,1.2,2.4,1.9,4,1.9
			c2.9,0,5.2-2.3,5.2-5.2C30.5,22.8,29.7,21.3,28.5,20.3z"/>
		<path fill="#A294C7" d="M25.3,30.4c-1.8,0-3.5-0.8-4.6-2.2c-0.9-1.1-1.4-2.4-1.4-3.8c0-3.3,2.7-6,6-6c1.3,0,2.6,0.4,3.7,1.3
			c1.5,1.1,2.3,2.9,2.3,4.7C31.3,27.7,28.6,30.4,25.3,30.4z M25.3,20c-2.5,0-4.5,2-4.5,4.5c0,1,0.4,2,1,2.8c0.9,1,2.1,1.6,3.5,1.6
			c2.5,0,4.5-2,4.5-4.5c0-1.4-0.6-2.7-1.7-3.5C27.2,20.3,26.3,20,25.3,20z"/>
	</g>
	<g>
		<line fill="none" x1="25.3" y1="21.1" x2="25.3" y2="27.7"/>
		<rect x="24.5" y="21.1" fill="#A294C7" width="1.5" height="6.6"/>
	</g>
	<g>
		<line fill="none" x1="28.6" y1="24.4" x2="22" y2="24.4"/>
		<rect x="22" y="23.7" fill="#A294C7" width="6.6" height="1.5"/>
	</g>
</g>
</svg>
