<?xml version="1.0" encoding="utf-8"?>
<!-- Generator: Adobe Illustrator 18.0.0, SVG Export Plug-In . SVG Version: 6.00 Build 0)  -->
<!DOCTYPE svg PUBLIC "-//W3C//DTD SVG 1.1//EN" "http://www.w3.org/Graphics/SVG/1.1/DTD/svg11.dtd">
<svg version="1.1" id="Layer_1" xmlns="http://www.w3.org/2000/svg" xmlns:xlink="http://www.w3.org/1999/xlink" x="0px" y="0px"
	 viewBox="0 0 32 32" enable-background="new 0 0 32 32" xml:space="preserve">
<g>
	<g>
		<path fill="#79C693" d="M28.4,21.3H3.6v-0.8C3.6,13.7,9.2,8.2,16,8.2s12.4,5.6,12.4,12.4V21.3z M5.1,19.8h21.8
			C26.5,14.2,21.8,9.7,16,9.7C10.2,9.7,5.5,14.2,5.1,19.8z"/>
	</g>
	<g>
		<path fill="#79C693" d="M16,9.7c-1.9,0-3.4-1.5-3.4-3.4c0-1.9,1.5-3.4,3.4-3.4c1.9,0,3.4,1.5,3.4,3.4C19.4,8.1,17.9,9.7,16,9.7z
			 M16,4.3c-1.1,0-1.9,0.9-1.9,1.9c0,1.1,0.9,1.9,1.9,1.9c1.1,0,1.9-0.9,1.9-1.9C17.9,5.2,17.1,4.3,16,4.3z"/>
	</g>
	<g>
		<path fill="#F0F7F7" d="M26.8,28.4H5.2c-2,0-3.7-1.7-3.7-3.7v-1.1h29v1.1C30.5,26.8,28.8,28.4,26.8,28.4z"/>
		<path fill="#8F9BA8" d="M26.8,29.2H5.2c-2.4,0-4.4-2-4.4-4.4v-1.9h30.5v1.9C31.3,27.2,29.3,29.2,26.8,29.2z M2.3,24.4v0.4
			c0,1.6,1.3,2.9,2.9,2.9h21.6c1.6,0,2.9-1.3,2.9-2.9v-0.4H2.3z"/>
	</g>
</g>
</svg>
