<?xml version="1.0" encoding="utf-8"?>
<!-- Generator: Adobe Illustrator 18.0.0, SVG Export Plug-In . SVG Version: 6.00 Build 0)  -->
<!DOCTYPE svg PUBLIC "-//W3C//DTD SVG 1.1//EN" "http://www.w3.org/Graphics/SVG/1.1/DTD/svg11.dtd">
<svg version="1.1" id="Layer_1" xmlns="http://www.w3.org/2000/svg" xmlns:xlink="http://www.w3.org/1999/xlink" x="0px" y="0px"
	 viewBox="0 0 32 32" enable-background="new 0 0 32 32" xml:space="preserve">
<g>
	<g>
		<path fill="#8F9BA8" d="M20,21.4H9.9l-1-15.6h12.2L20,21.4z M11.3,19.9h7.3l0.8-12.6h-9L11.3,19.9z"/>
	</g>
	<g>
		<path fill="#8F9BA8" d="M22.2,29.4H7.7l2.1-9.5h10.4L22.2,29.4z M9.6,27.9h10.8l-1.4-6.5H11L9.6,27.9z"/>
	</g>
	<g>
		<path fill="#8F9BA8" d="M21,6.5h-1.5c0-2.2-2-3.9-4.6-3.9c-2.5,0-4.6,1.8-4.6,3.9H8.9c0-3,2.7-5.4,6.1-5.4C18.3,1.1,21,3.6,21,6.5
			z"/>
	</g>
	<g>
		<rect x="12.3" y="9.8" fill="#8F9BA8" width="1.5" height="5.9"/>
	</g>
	<g>
		<rect x="16.1" y="9.8" fill="#8F9BA8" width="1.5" height="5.9"/>
	</g>
	<g>
		<path fill="#8F9BA8" d="M24.3,15.7h-1.5v-4.3c0-0.7-0.5-1.2-1.2-1.2h-1.5V8.7h1.5c1.5,0,2.7,1.2,2.7,2.7V15.7z"/>
	</g>
	<g>
		<rect x="11.8" y="24.9" fill="#8F9BA8" width="1.5" height="1"/>
	</g>
	<g>
		<rect x="14.2" y="24.9" fill="#8F9BA8" width="1.5" height="1"/>
	</g>
	<g>
		<rect x="16.6" y="24.9" fill="#8F9BA8" width="1.5" height="1"/>
	</g>
	<g>
		<rect x="18.7" y="28.7" fill="#8F9BA8" width="1.5" height="2.2"/>
	</g>
	<g>
		<rect x="9.9" y="28.7" fill="#8F9BA8" width="1.5" height="2.2"/>
	</g>
</g>
</svg>
