<?xml version="1.0" encoding="utf-8"?>
<!-- Generator: Adobe Illustrator 18.0.0, SVG Export Plug-In . SVG Version: 6.00 Build 0)  -->
<!DOCTYPE svg PUBLIC "-//W3C//DTD SVG 1.1//EN" "http://www.w3.org/Graphics/SVG/1.1/DTD/svg11.dtd">
<svg version="1.1" id="Layer_1" xmlns="http://www.w3.org/2000/svg" xmlns:xlink="http://www.w3.org/1999/xlink" x="0px" y="0px"
	 viewBox="0 0 32 32" enable-background="new 0 0 32 32" xml:space="preserve">
<g>
	<g>
		<polyline fill="#CDE4F7" points="10.7,17.9 3.9,11.9 1.6,14.2 8.3,23.8 		"/>
		<polygon fill="#74B1E0" points="7.7,24.2 0.6,14.1 3.9,10.9 11.2,17.3 10.2,18.4 3.9,12.9 2.6,14.3 8.9,23.3 		"/>
	</g>
	<g>
		<path fill="#8F9BA8" d="M30.6,28.9h-23l0-3.8c0-6.4,5.3-11.7,11.7-11.7h0.4c6.5,0,11.7,5.2,11.7,11.7l0,3l-0.1,0.7L30.6,28.9z
			 M9.1,27.4h20.8v-2.3c0-5.6-4.6-10.2-10.2-10.2h-0.4c-5.6,0-10.2,4.6-10.2,10.2V27.4z"/>
	</g>
	<g>
		<path fill="#8F9BA8" d="M11,17.7c-0.8-1.5-1.3-3.1-1.3-4.8c0-5.4,4.4-9.7,9.7-9.7c5.4,0,9.7,4.4,9.7,9.7c0,1.6-0.4,3.1-1.1,4.5
			l-1.3-0.7c0.6-1.2,0.9-2.5,0.9-3.8c0-4.5-3.7-8.2-8.2-8.2c-4.5,0-8.2,3.7-8.2,8.2c0,1.4,0.4,2.8,1.1,4.1L11,17.7z"/>
	</g>
	<g>
		<rect x="18.9" y="11" fill="#8F9BA8" width="1.5" height="3.1"/>
	</g>
	<g>
		<rect x="17.4" y="10.3" fill="#8F9BA8" width="4.6" height="1.5"/>
	</g>
</g>
</svg>
