<?xml version="1.0" encoding="utf-8"?>
<!-- Generator: Adobe Illustrator 18.0.0, SVG Export Plug-In . SVG Version: 6.00 Build 0)  -->
<!DOCTYPE svg PUBLIC "-//W3C//DTD SVG 1.1//EN" "http://www.w3.org/Graphics/SVG/1.1/DTD/svg11.dtd">
<svg version="1.1" id="Layer_1" xmlns="http://www.w3.org/2000/svg" xmlns:xlink="http://www.w3.org/1999/xlink" x="0px" y="0px"
	 viewBox="0 0 32 32" enable-background="new 0 0 32 32" xml:space="preserve">
<g>
	<g>
		<path fill="#79C693" d="M26.7,31.2H5.6L4,13.2h24.3L26.7,31.2z M7,29.7h18.3l1.3-15h-21L7,29.7z"/>
	</g>
	<g>
		<path fill="#79C693" d="M28.2,14.7H4.1l0.1-0.8c0.6-5.5,5.8-9.6,12-9.6c6.2,0,11.3,4.1,11.9,9.6L28.2,14.7z M5.8,13.2h20.6
			c-1-4.3-5.2-7.4-10.3-7.4C11,5.7,6.8,8.9,5.8,13.2z"/>
	</g>
	<g>
		<polygon fill="#79C693" points="31.3,20.5 29.8,20.5 29.8,18.8 27.1,18.8 27.1,17.3 31.3,17.3 		"/>
	</g>
	<g>
		<polygon fill="#79C693" points="2.3,20.5 0.8,20.5 0.8,17.3 4.9,17.3 4.9,18.8 2.3,18.8 		"/>
	</g>
	<g>
		<rect x="15.4" y="1.6" fill="#79C693" width="1.5" height="3.4"/>
	</g>
	<g>
		<rect x="13.4" y="0.8" fill="#79C693" width="5.5" height="1.5"/>
	</g>
</g>
</svg>
