<?xml version="1.0" encoding="utf-8"?>
<!-- Generator: Adobe Illustrator 18.0.0, SVG Export Plug-In . SVG Version: 6.00 Build 0)  -->
<!DOCTYPE svg PUBLIC "-//W3C//DTD SVG 1.1//EN" "http://www.w3.org/Graphics/SVG/1.1/DTD/svg11.dtd">
<svg version="1.1" id="Layer_1" xmlns="http://www.w3.org/2000/svg" xmlns:xlink="http://www.w3.org/1999/xlink" x="0px" y="0px"
	 viewBox="0 0 32 32" enable-background="new 0 0 32 32" xml:space="preserve">
<g>
	<g>
		<path fill="#8F9BA8" d="M19.6,6.2h-7.3V0.8h7.3V6.2z M13.9,4.7h4.3V2.3h-4.3C13.9,2.3,13.9,4.7,13.9,4.7z"/>
	</g>
	<g>
		<path fill="#8F9BA8" d="M22,31.3H10c-1,0-1.9-0.4-2.5-1.1s-1-1.7-0.9-2.6L8.2,7.9c0.1-1.8,1.6-3.2,3.4-3.2h8.8
			c1.8,0,3.3,1.4,3.4,3.2l1.6,19.7c0.1,1-0.3,1.9-0.9,2.6C23.9,30.8,22.9,31.3,22,31.3z M11.6,6.2c-1,0-1.9,0.8-1.9,1.8L8.1,27.7
			c0,0.5,0.1,1.1,0.5,1.5s0.9,0.6,1.4,0.6h12c0.5,0,1.1-0.2,1.4-0.6c0.4-0.4,0.6-0.9,0.5-1.5L22.3,8c-0.1-1-0.9-1.8-1.9-1.8H11.6z"
			/>
	</g>
	<g>
		<rect x="11.7" y="8.9" fill="#B4A042" width="1.2" height="1.5"/>
	</g>
	<g>
		<rect x="15.4" y="8.9" fill="#B4A042" width="1.2" height="1.5"/>
	</g>
	<g>
		<rect x="19.1" y="8.9" fill="#B4A042" width="1.2" height="1.5"/>
	</g>
	<g>
		<rect x="11.7" y="12.2" fill="#B4A042" width="1.2" height="1.5"/>
	</g>
	<g>
		<rect x="15.4" y="12.2" fill="#B4A042" width="1.2" height="1.5"/>
	</g>
	<g>
		<rect x="19.1" y="12.2" fill="#B4A042" width="1.2" height="1.5"/>
	</g>
	<g>
		<rect x="11.7" y="15.6" fill="#B4A042" width="1.2" height="1.5"/>
	</g>
	<g>
		<rect x="15.4" y="15.6" fill="#B4A042" width="1.2" height="1.5"/>
	</g>
	<g>
		<rect x="19.1" y="15.6" fill="#B4A042" width="1.2" height="1.5"/>
	</g>
	<g>
		<rect x="11.7" y="18.9" fill="#B4A042" width="1.2" height="1.5"/>
	</g>
	<g>
		<rect x="15.4" y="18.9" fill="#B4A042" width="1.2" height="1.5"/>
	</g>
	<g>
		<rect x="19.1" y="18.9" fill="#B4A042" width="1.2" height="1.5"/>
	</g>
	<g>
		<rect x="11.7" y="22.2" fill="#B4A042" width="1.2" height="1.5"/>
	</g>
	<g>
		<rect x="15.4" y="22.2" fill="#B4A042" width="1.2" height="1.5"/>
	</g>
	<g>
		<rect x="19.1" y="22.2" fill="#B4A042" width="1.2" height="1.5"/>
	</g>
	<g>
		<rect x="11.7" y="25.5" fill="#B4A042" width="1.2" height="1.5"/>
	</g>
	<g>
		<rect x="15.4" y="25.5" fill="#B4A042" width="1.2" height="1.5"/>
	</g>
	<g>
		<rect x="19.1" y="25.5" fill="#B4A042" width="1.2" height="1.5"/>
	</g>
</g>
</svg>
