<?xml version="1.0" encoding="utf-8"?>
<!-- Generator: Adobe Illustrator 18.0.0, SVG Export Plug-In . SVG Version: 6.00 Build 0)  -->
<!DOCTYPE svg PUBLIC "-//W3C//DTD SVG 1.1//EN" "http://www.w3.org/Graphics/SVG/1.1/DTD/svg11.dtd">
<svg version="1.1" id="Layer_1" xmlns="http://www.w3.org/2000/svg" xmlns:xlink="http://www.w3.org/1999/xlink" x="0px" y="0px"
	 viewBox="0 0 32 32" enable-background="new 0 0 32 32" xml:space="preserve">
<g>
	<g>
		<path fill="#8F9BA8" d="M6.6,30.8c-0.1,0-0.2,0-0.2,0c-0.3-0.1-0.5-0.4-0.5-0.7v-6.6H5.3c-2.5,0-4.5-2-4.5-4.4V5.7
			c0-2.4,2-4.4,4.5-4.4h21.5c2.5,0,4.5,2,4.5,4.4V19c0,0.7-0.2,1.4-0.5,2c-0.1,0.3-0.4,0.4-0.7,0.4c-0.3,0-0.6-0.2-0.7-0.5
			c-0.9-2.5-3.3-4.2-5.9-4.2c-3.3,0-6.1,2.6-6.2,6c0,0.4-0.3,0.7-0.7,0.7h-3.7l-5.5,7.1C7.1,30.7,6.8,30.8,6.6,30.8z M5.3,2.7
			c-1.7,0-3,1.3-3,2.9V19c0,1.6,1.4,2.9,3,2.9h1.3c0.4,0,0.7,0.3,0.8,0.7v5.2l4.4-5.7c0.1-0.2,0.4-0.3,0.6-0.3h3.4
			c0.5-3.8,3.8-6.7,7.7-6.7c2.5,0,4.8,1.2,6.3,3.2V5.7c0-1.6-1.4-2.9-3-2.9L5.3,2.7L5.3,2.7z"/>
	</g>
	<g>
		<circle fill="#F9F8F2" cx="23.5" cy="23" r="7"/>
		<path fill="#B4A79C" d="M23.5,30.8c-4.3,0-7.8-3.5-7.8-7.8s3.5-7.8,7.8-7.8s7.8,3.5,7.8,7.8S27.8,30.8,23.5,30.8z M23.5,16.7
			c-3.5,0-6.3,2.8-6.3,6.3s2.8,6.3,6.3,6.3s6.3-2.8,6.3-6.3C29.8,19.6,26.9,16.7,23.5,16.7z"/>
	</g>
	<g>
		<line fill="none" x1="23.5" y1="19.7" x2="23.5" y2="26.3"/>
		<rect x="22.7" y="19.7" fill="#B4A79C" width="1.5" height="6.6"/>
	</g>
	<g>
		<polygon fill="#B4A79C" points="23.5,27.4 20.2,24.1 21.3,23 23.5,25.3 25.7,23 26.8,24.1 		"/>
	</g>
</g>
</svg>
