<?xml version="1.0" encoding="utf-8"?>
<!-- Generator: Adobe Illustrator 18.0.0, SVG Export Plug-In . SVG Version: 6.00 Build 0)  -->
<!DOCTYPE svg PUBLIC "-//W3C//DTD SVG 1.1//EN" "http://www.w3.org/Graphics/SVG/1.1/DTD/svg11.dtd">
<svg version="1.1" id="Layer_1" xmlns="http://www.w3.org/2000/svg" xmlns:xlink="http://www.w3.org/1999/xlink" x="0px" y="0px"
	 viewBox="0 0 32 32" enable-background="new 0 0 32 32" xml:space="preserve">
<pattern  width="24.1" height="24.1" patternUnits="userSpaceOnUse" id="New_Pattern_Swatch_3" viewBox="0 -24.1 24.1 24.1" overflow="visible">
	<g>
		<polygon fill="none" points="0,0 24.1,0 24.1,-24.1 0,-24.1 		"/>
		<polygon fill="#FCE89A" points="24.1,0 0,0 0,-24.1 24.1,-24.1 		"/>
	</g>
</pattern>
<g>
	<path fill="#8D9AA6" d="M26.7,1.2H5.3c-2.5,0-4.5,2-4.5,4.4v13.3c0,2.4,2,4.4,4.5,4.4h0.5l0,6.6c0,0.3,0.2,0.6,0.5,0.7
		c0.1,0,0.2,0,0.2,0c0.2,0,0.4-0.1,0.6-0.3l5.5-7.1h3.7c0.1,0,0.2,0,0.3-0.1c0-0.3,0-0.7,0-1c-0.3-0.1-0.6-0.3-0.9-0.5l-0.1,0h-3.4
		c-0.2,0-0.4,0.1-0.6,0.3l-4.4,5.7l0-5.2c0-0.4-0.3-0.7-0.7-0.7H5.3c-1.7,0-3-1.3-3-2.9V5.6c0-1.6,1.4-2.9,3-2.9h21.4
		c1.7,0,3,1.3,3,2.9v12.1c0,0,0,0.1,0,0.1c0.1,1.1,0.1,2.2-0.4,3l0.1,0c0.1,0.3,0.2,0.5,0.5,0.5c0.3,0,0.6-0.1,0.7-0.4
		c0.3-0.7,0.5-1.3,0.5-2V5.6C31.2,3.2,29.2,1.2,26.7,1.2z"/>
	<g>
		<pattern  id="SVGID_1_" xlink:href="#New_Pattern_Swatch_3" patternTransform="matrix(0.9991 0 0 0.9991 -0.2374 -17.7304)">
		</pattern>
		<circle fill="url(#SVGID_1_)" cx="23.4" cy="23" r="7.1"/>
		<path fill="#DECA80" d="M23.4,15.1c-4.3,0-7.8,3.5-7.8,7.8s3.5,7.8,7.8,7.8s7.8-3.5,7.8-7.8S27.7,15.1,23.4,15.1z M23.4,29.3
			c-3.5,0-6.3-2.8-6.3-6.3s2.8-6.3,6.3-6.3s6.3,2.8,6.3,6.3S26.9,29.3,23.4,29.3z"/>
		<polygon fill="#DECA80" points="24.2,22.6 24.2,18 22.6,18 22.6,23.3 25.4,25.7 26.4,24.5 		"/>
	</g>
</g>
</svg>
