<?xml version="1.0" encoding="utf-8"?>
<!-- Generator: Adobe Illustrator 18.0.0, SVG Export Plug-In . SVG Version: 6.00 Build 0)  -->
<!DOCTYPE svg PUBLIC "-//W3C//DTD SVG 1.1//EN" "http://www.w3.org/Graphics/SVG/1.1/DTD/svg11.dtd">
<svg version="1.1" id="Layer_1" xmlns="http://www.w3.org/2000/svg" xmlns:xlink="http://www.w3.org/1999/xlink" x="0px" y="0px"
	 viewBox="0 0 32 32" enable-background="new 0 0 32 32" xml:space="preserve">
<g>
	<g>
		<path fill="#74B1E0" d="M11.4,28.8c-0.2,0-0.4-0.1-0.5-0.2l-7.5-7.5c-0.1-0.1-0.2-0.3-0.2-0.5c0-0.2,0.1-0.4,0.2-0.5L19.9,3.6
			c0.3-0.3,0.8-0.3,1.1,0l7.5,7.5c0.1,0.1,0.2,0.3,0.2,0.5c0,0.2-0.1,0.4-0.2,0.5L11.9,28.6C11.8,28.8,11.6,28.8,11.4,28.8z M5,20.6
			l6.4,6.4l15.4-15.4l-6.4-6.4L5,20.6z"/>
	</g>
	<g>
		<polygon fill="#CDE4F7" points="3.9,20.6 1.5,30.5 11.4,28 		"/>
		<path fill="#74B1E0" d="M1.5,31.2c-0.2,0-0.4-0.1-0.5-0.2c-0.2-0.2-0.3-0.5-0.2-0.7l2.4-9.9c0.1-0.3,0.3-0.5,0.5-0.5
			c0.3-0.1,0.5,0,0.7,0.2l7.4,7.4c0.2,0.2,0.3,0.5,0.2,0.7c-0.1,0.3-0.3,0.5-0.5,0.5l-9.9,2.4C1.6,31.2,1.5,31.2,1.5,31.2z
			 M4.3,22.1l-1.8,7.4l7.4-1.8L4.3,22.1z"/>
	</g>
	<g>
		<path fill="#CDE4F7" d="M27.9,11.6l-7.5-7.5L22.5,2c0.7-0.7,1.9-0.7,2.7,0L30,6.8c0.7,0.7,0.7,1.9,0,2.7L27.9,11.6z"/>
		<path fill="#74B1E0" d="M27.9,12.7l-8.5-8.5L22,1.5c1-1,2.7-1,3.7,0l4.8,4.8c1,1,1,2.7,0,3.7L27.9,12.7z M21.5,4.1l6.4,6.4L29.4,9
			c0.4-0.4,0.4-1.2,0-1.6l-4.8-4.8c-0.4-0.4-1.2-0.4-1.6,0L21.5,4.1z"/>
	</g>
</g>
</svg>
